G04 #@! TF.GenerationSoftware,KiCad,Pcbnew,(6.0.7)*
G04 #@! TF.CreationDate,2022-08-30T21:45:04-07:00*
G04 #@! TF.ProjectId,CombinedPanel,436f6d62-696e-4656-9450-616e656c2e6b,rev?*
G04 #@! TF.SameCoordinates,Original*
G04 #@! TF.FileFunction,Legend,Top*
G04 #@! TF.FilePolarity,Positive*
%FSLAX46Y46*%
G04 Gerber Fmt 4.6, Leading zero omitted, Abs format (unit mm)*
G04 Created by KiCad (PCBNEW (6.0.7)) date 2022-08-30 21:45:04*
%MOMM*%
%LPD*%
G01*
G04 APERTURE LIST*
%ADD10C,0.150000*%
%ADD11C,0.152400*%
%ADD12C,0.154000*%
%ADD13C,0.120000*%
%ADD14C,0.100000*%
G04 APERTURE END LIST*
D10*
X124835595Y33321428D02*
X124835595Y34821428D01*
X125168928Y33750000D01*
X125502261Y34821428D01*
X125502261Y33321428D01*
X125930833Y34678571D02*
X125978452Y34750000D01*
X126073690Y34821428D01*
X126311785Y34821428D01*
X126407023Y34750000D01*
X126454642Y34678571D01*
X126502261Y34535714D01*
X126502261Y34392857D01*
X126454642Y34178571D01*
X125883214Y33321428D01*
X126502261Y33321428D01*
X127264166Y34107142D02*
X127407023Y34035714D01*
X127454642Y33964285D01*
X127502261Y33821428D01*
X127502261Y33607142D01*
X127454642Y33464285D01*
X127407023Y33392857D01*
X127311785Y33321428D01*
X126930833Y33321428D01*
X126930833Y34821428D01*
X127264166Y34821428D01*
X127359404Y34750000D01*
X127407023Y34678571D01*
X127454642Y34535714D01*
X127454642Y34392857D01*
X127407023Y34250000D01*
X127359404Y34178571D01*
X127264166Y34107142D01*
X126930833Y34107142D01*
X105692738Y-34178571D02*
X106264166Y-34178571D01*
X105978452Y-35678571D02*
X105978452Y-34178571D01*
X106740357Y-35678571D02*
X106645119Y-35607142D01*
X106597500Y-35535714D01*
X106549880Y-35392857D01*
X106549880Y-34964285D01*
X106597500Y-34821428D01*
X106645119Y-34750000D01*
X106740357Y-34678571D01*
X106883214Y-34678571D01*
X106978452Y-34750000D01*
X107026071Y-34821428D01*
X107073690Y-34964285D01*
X107073690Y-35392857D01*
X107026071Y-35535714D01*
X106978452Y-35607142D01*
X106883214Y-35678571D01*
X106740357Y-35678571D01*
X107835595Y-34892857D02*
X107502261Y-34892857D01*
X107502261Y-35678571D02*
X107502261Y-34178571D01*
X107978452Y-34178571D01*
X109645119Y-35678571D02*
X109073690Y-35678571D01*
X109359404Y-35678571D02*
X109359404Y-34178571D01*
X109264166Y-34392857D01*
X109168928Y-34535714D01*
X109073690Y-34607142D01*
D11*
X106785714Y6892857D02*
X106928571Y6821428D01*
X107166666Y6821428D01*
X107261904Y6892857D01*
X107309523Y6964285D01*
X107357142Y7107142D01*
X107357142Y7250000D01*
X107309523Y7392857D01*
X107261904Y7464285D01*
X107166666Y7535714D01*
X106976190Y7607142D01*
X106880952Y7678571D01*
X106833333Y7750000D01*
X106785714Y7892857D01*
X106785714Y8035714D01*
X106833333Y8178571D01*
X106880952Y8250000D01*
X106976190Y8321428D01*
X107214285Y8321428D01*
X107357142Y8250000D01*
X107785714Y6821428D02*
X107785714Y8321428D01*
X108023809Y8321428D01*
X108166666Y8250000D01*
X108261904Y8107142D01*
X108309523Y7964285D01*
X108357142Y7678571D01*
X108357142Y7464285D01*
X108309523Y7178571D01*
X108261904Y7035714D01*
X108166666Y6892857D01*
X108023809Y6821428D01*
X107785714Y6821428D01*
X108738095Y7250000D02*
X109214285Y7250000D01*
X108642857Y6821428D02*
X108976190Y8321428D01*
X109309523Y6821428D01*
X60214285Y22321428D02*
X59880952Y23035714D01*
X59642857Y22321428D02*
X59642857Y23821428D01*
X60023809Y23821428D01*
X60119047Y23750000D01*
X60166666Y23678571D01*
X60214285Y23535714D01*
X60214285Y23321428D01*
X60166666Y23178571D01*
X60119047Y23107142D01*
X60023809Y23035714D01*
X59642857Y23035714D01*
X60547619Y23821428D02*
X61214285Y22321428D01*
X61214285Y23821428D02*
X60547619Y22321428D01*
X61595238Y23321428D02*
X62357142Y22892857D01*
X61595238Y22464285D01*
X106809523Y-3107142D02*
X106952380Y-3178571D01*
X107190476Y-3178571D01*
X107285714Y-3107142D01*
X107333333Y-3035714D01*
X107380952Y-2892857D01*
X107380952Y-2750000D01*
X107333333Y-2607142D01*
X107285714Y-2535714D01*
X107190476Y-2464285D01*
X107000000Y-2392857D01*
X106904761Y-2321428D01*
X106857142Y-2250000D01*
X106809523Y-2107142D01*
X106809523Y-1964285D01*
X106857142Y-1821428D01*
X106904761Y-1750000D01*
X107000000Y-1678571D01*
X107238095Y-1678571D01*
X107380952Y-1750000D01*
X108380952Y-3035714D02*
X108333333Y-3107142D01*
X108190476Y-3178571D01*
X108095238Y-3178571D01*
X107952380Y-3107142D01*
X107857142Y-2964285D01*
X107809523Y-2821428D01*
X107761904Y-2535714D01*
X107761904Y-2321428D01*
X107809523Y-2035714D01*
X107857142Y-1892857D01*
X107952380Y-1750000D01*
X108095238Y-1678571D01*
X108190476Y-1678571D01*
X108333333Y-1750000D01*
X108380952Y-1821428D01*
X109285714Y-3178571D02*
X108809523Y-3178571D01*
X108809523Y-1678571D01*
X125761904Y2421428D02*
X126380952Y2421428D01*
X126047619Y1850000D01*
X126190476Y1850000D01*
X126285714Y1778571D01*
X126333333Y1707142D01*
X126380952Y1564285D01*
X126380952Y1207142D01*
X126333333Y1064285D01*
X126285714Y992857D01*
X126190476Y921428D01*
X125904761Y921428D01*
X125809523Y992857D01*
X125761904Y1064285D01*
X126666666Y2421428D02*
X127000000Y921428D01*
X127333333Y2421428D01*
X127571428Y2421428D02*
X128190476Y2421428D01*
X127857142Y1850000D01*
X128000000Y1850000D01*
X128095238Y1778571D01*
X128142857Y1707142D01*
X128190476Y1564285D01*
X128190476Y1207142D01*
X128142857Y1064285D01*
X128095238Y992857D01*
X128000000Y921428D01*
X127714285Y921428D01*
X127619047Y992857D01*
X127571428Y1064285D01*
X112523809Y26178571D02*
X113476190Y26178571D01*
X112714285Y25750000D02*
X113285714Y25750000D01*
X113000000Y26821428D02*
X113000000Y26178571D01*
X113095238Y25321428D02*
X112904761Y25321428D01*
D10*
X87335595Y33321428D02*
X87335595Y34821428D01*
X87668928Y33750000D01*
X88002261Y34821428D01*
X88002261Y33321428D01*
X89002261Y33321428D02*
X88430833Y33321428D01*
X88716547Y33321428D02*
X88716547Y34821428D01*
X88621309Y34607142D01*
X88526071Y34464285D01*
X88430833Y34392857D01*
X89764166Y34107142D02*
X89907023Y34035714D01*
X89954642Y33964285D01*
X90002261Y33821428D01*
X90002261Y33607142D01*
X89954642Y33464285D01*
X89907023Y33392857D01*
X89811785Y33321428D01*
X89430833Y33321428D01*
X89430833Y34821428D01*
X89764166Y34821428D01*
X89859404Y34750000D01*
X89907023Y34678571D01*
X89954642Y34535714D01*
X89954642Y34392857D01*
X89907023Y34250000D01*
X89859404Y34178571D01*
X89764166Y34107142D01*
X89430833Y34107142D01*
D11*
X81071428Y25321428D02*
X81309523Y25321428D01*
X81309523Y26464285D01*
X81690476Y26464285D01*
X81690476Y25321428D01*
X81928571Y25321428D01*
D12*
X59619047Y26321428D02*
X60190476Y26321428D01*
X59904761Y24821428D02*
X59904761Y26321428D01*
X60428571Y26321428D02*
X61095238Y24821428D01*
X61095238Y26321428D02*
X60428571Y24821428D01*
X62238095Y25821428D02*
X61476190Y25392857D01*
X62238095Y24964285D01*
D10*
X136835595Y33321428D02*
X136835595Y34821428D01*
X137168928Y33750000D01*
X137502261Y34821428D01*
X137502261Y33321428D01*
X137930833Y34678571D02*
X137978452Y34750000D01*
X138073690Y34821428D01*
X138311785Y34821428D01*
X138407023Y34750000D01*
X138454642Y34678571D01*
X138502261Y34535714D01*
X138502261Y34392857D01*
X138454642Y34178571D01*
X137883214Y33321428D01*
X138502261Y33321428D01*
X138883214Y33750000D02*
X139359404Y33750000D01*
X138787976Y33321428D02*
X139121309Y34821428D01*
X139454642Y33321428D01*
D11*
X59761904Y28821428D02*
X60380952Y28821428D01*
X60047619Y28250000D01*
X60190476Y28250000D01*
X60285714Y28178571D01*
X60333333Y28107142D01*
X60380952Y27964285D01*
X60380952Y27607142D01*
X60333333Y27464285D01*
X60285714Y27392857D01*
X60190476Y27321428D01*
X59904761Y27321428D01*
X59809523Y27392857D01*
X59761904Y27464285D01*
X60666666Y28821428D02*
X61000000Y27321428D01*
X61333333Y28821428D01*
X61571428Y28821428D02*
X62190476Y28821428D01*
X61857142Y28250000D01*
X62000000Y28250000D01*
X62095238Y28178571D01*
X62142857Y28107142D01*
X62190476Y27964285D01*
X62190476Y27607142D01*
X62142857Y27464285D01*
X62095238Y27392857D01*
X62000000Y27321428D01*
X61714285Y27321428D01*
X61619047Y27392857D01*
X61571428Y27464285D01*
D10*
X84192738Y-34178571D02*
X84764166Y-34178571D01*
X84478452Y-35678571D02*
X84478452Y-34178571D01*
X85240357Y-35678571D02*
X85145119Y-35607142D01*
X85097500Y-35535714D01*
X85049880Y-35392857D01*
X85049880Y-34964285D01*
X85097500Y-34821428D01*
X85145119Y-34750000D01*
X85240357Y-34678571D01*
X85383214Y-34678571D01*
X85478452Y-34750000D01*
X85526071Y-34821428D01*
X85573690Y-34964285D01*
X85573690Y-35392857D01*
X85526071Y-35535714D01*
X85478452Y-35607142D01*
X85383214Y-35678571D01*
X85240357Y-35678571D01*
X86335595Y-34892857D02*
X86002261Y-34892857D01*
X86002261Y-35678571D02*
X86002261Y-34178571D01*
X86478452Y-34178571D01*
X87811785Y-34178571D02*
X87907023Y-34178571D01*
X88002261Y-34250000D01*
X88049880Y-34321428D01*
X88097500Y-34464285D01*
X88145119Y-34750000D01*
X88145119Y-35107142D01*
X88097500Y-35392857D01*
X88049880Y-35535714D01*
X88002261Y-35607142D01*
X87907023Y-35678571D01*
X87811785Y-35678571D01*
X87716547Y-35607142D01*
X87668928Y-35535714D01*
X87621309Y-35392857D01*
X87573690Y-35107142D01*
X87573690Y-34750000D01*
X87621309Y-34464285D01*
X87668928Y-34321428D01*
X87716547Y-34250000D01*
X87811785Y-34178571D01*
D11*
X107369047Y19392857D02*
X108130952Y19392857D01*
X107750000Y18821428D02*
X107750000Y19964285D01*
X61023809Y20678571D02*
X61976190Y20678571D01*
X61214285Y20250000D02*
X61785714Y20250000D01*
X61500000Y21321428D02*
X61500000Y20678571D01*
X61595238Y19821428D02*
X61404761Y19821428D01*
X119119047Y25892857D02*
X119880952Y25892857D01*
X119500000Y25321428D02*
X119500000Y26464285D01*
X81023809Y31178571D02*
X81976190Y31178571D01*
X81214285Y30750000D02*
X81785714Y30750000D01*
X81500000Y31821428D02*
X81500000Y31178571D01*
X81595238Y30321428D02*
X81404761Y30321428D01*
X71523809Y28678571D02*
X72476190Y28678571D01*
X71714285Y28250000D02*
X72285714Y28250000D01*
X72000000Y29321428D02*
X72000000Y28678571D01*
X72095238Y27821428D02*
X71904761Y27821428D01*
X81119047Y28392857D02*
X81880952Y28392857D01*
X81500000Y27821428D02*
X81500000Y28964285D01*
D10*
X98835595Y33321428D02*
X98835595Y34821428D01*
X99168928Y33750000D01*
X99502261Y34821428D01*
X99502261Y33321428D01*
X100502261Y33321428D02*
X99930833Y33321428D01*
X100216547Y33321428D02*
X100216547Y34821428D01*
X100121309Y34607142D01*
X100026071Y34464285D01*
X99930833Y34392857D01*
X100883214Y33750000D02*
X101359404Y33750000D01*
X100787976Y33321428D02*
X101121309Y34821428D01*
X101454642Y33321428D01*
X142028571Y-30262214D02*
X142328571Y-30262214D01*
X142457142Y-30733642D02*
X142028571Y-30733642D01*
X142028571Y-29833642D01*
X142457142Y-29833642D01*
X142842857Y-30733642D02*
X142842857Y-29833642D01*
X143057142Y-29833642D01*
X143185714Y-29876500D01*
X143271428Y-29962214D01*
X143314285Y-30047928D01*
X143357142Y-30219357D01*
X143357142Y-30347928D01*
X143314285Y-30519357D01*
X143271428Y-30605071D01*
X143185714Y-30690785D01*
X143057142Y-30733642D01*
X142842857Y-30733642D01*
X144214285Y-29876500D02*
X144128571Y-29833642D01*
X144000000Y-29833642D01*
X143871428Y-29876500D01*
X143785714Y-29962214D01*
X143742857Y-30047928D01*
X143700000Y-30219357D01*
X143700000Y-30347928D01*
X143742857Y-30519357D01*
X143785714Y-30605071D01*
X143871428Y-30690785D01*
X144000000Y-30733642D01*
X144085714Y-30733642D01*
X144214285Y-30690785D01*
X144257142Y-30647928D01*
X144257142Y-30347928D01*
X144085714Y-30347928D01*
X145842857Y-30733642D02*
X145542857Y-30305071D01*
X145328571Y-30733642D02*
X145328571Y-29833642D01*
X145671428Y-29833642D01*
X145757142Y-29876500D01*
X145800000Y-29919357D01*
X145842857Y-30005071D01*
X145842857Y-30133642D01*
X145800000Y-30219357D01*
X145757142Y-30262214D01*
X145671428Y-30305071D01*
X145328571Y-30305071D01*
X146357142Y-30733642D02*
X146271428Y-30690785D01*
X146228571Y-30647928D01*
X146185714Y-30562214D01*
X146185714Y-30305071D01*
X146228571Y-30219357D01*
X146271428Y-30176500D01*
X146357142Y-30133642D01*
X146485714Y-30133642D01*
X146571428Y-30176500D01*
X146614285Y-30219357D01*
X146657142Y-30305071D01*
X146657142Y-30562214D01*
X146614285Y-30647928D01*
X146571428Y-30690785D01*
X146485714Y-30733642D01*
X146357142Y-30733642D01*
X147042857Y-30733642D02*
X147042857Y-29833642D01*
X147042857Y-30176500D02*
X147128571Y-30133642D01*
X147300000Y-30133642D01*
X147385714Y-30176500D01*
X147428571Y-30219357D01*
X147471428Y-30305071D01*
X147471428Y-30562214D01*
X147428571Y-30647928D01*
X147385714Y-30690785D01*
X147300000Y-30733642D01*
X147128571Y-30733642D01*
X147042857Y-30690785D01*
X147985714Y-30733642D02*
X147900000Y-30690785D01*
X147857142Y-30647928D01*
X147814285Y-30562214D01*
X147814285Y-30305071D01*
X147857142Y-30219357D01*
X147900000Y-30176500D01*
X147985714Y-30133642D01*
X148114285Y-30133642D01*
X148200000Y-30176500D01*
X148242857Y-30219357D01*
X148285714Y-30305071D01*
X148285714Y-30562214D01*
X148242857Y-30647928D01*
X148200000Y-30690785D01*
X148114285Y-30733642D01*
X147985714Y-30733642D01*
X148542857Y-30133642D02*
X148885714Y-30133642D01*
X148671428Y-29833642D02*
X148671428Y-30605071D01*
X148714285Y-30690785D01*
X148800000Y-30733642D01*
X148885714Y-30733642D01*
X149871428Y-30733642D02*
X149871428Y-29833642D01*
X150085714Y-29833642D01*
X150214285Y-29876500D01*
X150300000Y-29962214D01*
X150342857Y-30047928D01*
X150385714Y-30219357D01*
X150385714Y-30347928D01*
X150342857Y-30519357D01*
X150300000Y-30605071D01*
X150214285Y-30690785D01*
X150085714Y-30733642D01*
X149871428Y-30733642D01*
X150771428Y-30733642D02*
X150771428Y-30133642D01*
X150771428Y-30305071D02*
X150814285Y-30219357D01*
X150857142Y-30176500D01*
X150942857Y-30133642D01*
X151028571Y-30133642D01*
X151328571Y-30733642D02*
X151328571Y-30133642D01*
X151328571Y-29833642D02*
X151285714Y-29876500D01*
X151328571Y-29919357D01*
X151371428Y-29876500D01*
X151328571Y-29833642D01*
X151328571Y-29919357D01*
X151671428Y-30133642D02*
X151885714Y-30733642D01*
X152100000Y-30133642D01*
X152785714Y-30690785D02*
X152700000Y-30733642D01*
X152528571Y-30733642D01*
X152442857Y-30690785D01*
X152400000Y-30605071D01*
X152400000Y-30262214D01*
X152442857Y-30176500D01*
X152528571Y-30133642D01*
X152700000Y-30133642D01*
X152785714Y-30176500D01*
X152828571Y-30262214D01*
X152828571Y-30347928D01*
X152400000Y-30433642D01*
X153214285Y-30733642D02*
X153214285Y-30133642D01*
X153214285Y-30305071D02*
X153257142Y-30219357D01*
X153300000Y-30176500D01*
X153385714Y-30133642D01*
X153471428Y-30133642D01*
X154757142Y-30262214D02*
X154885714Y-30305071D01*
X154928571Y-30347928D01*
X154971428Y-30433642D01*
X154971428Y-30562214D01*
X154928571Y-30647928D01*
X154885714Y-30690785D01*
X154800000Y-30733642D01*
X154457142Y-30733642D01*
X154457142Y-29833642D01*
X154757142Y-29833642D01*
X154842857Y-29876500D01*
X154885714Y-29919357D01*
X154928571Y-30005071D01*
X154928571Y-30090785D01*
X154885714Y-30176500D01*
X154842857Y-30219357D01*
X154757142Y-30262214D01*
X154457142Y-30262214D01*
X155485714Y-30733642D02*
X155400000Y-30690785D01*
X155357142Y-30647928D01*
X155314285Y-30562214D01*
X155314285Y-30305071D01*
X155357142Y-30219357D01*
X155400000Y-30176500D01*
X155485714Y-30133642D01*
X155614285Y-30133642D01*
X155700000Y-30176500D01*
X155742857Y-30219357D01*
X155785714Y-30305071D01*
X155785714Y-30562214D01*
X155742857Y-30647928D01*
X155700000Y-30690785D01*
X155614285Y-30733642D01*
X155485714Y-30733642D01*
X156557142Y-30733642D02*
X156557142Y-30262214D01*
X156514285Y-30176500D01*
X156428571Y-30133642D01*
X156257142Y-30133642D01*
X156171428Y-30176500D01*
X156557142Y-30690785D02*
X156471428Y-30733642D01*
X156257142Y-30733642D01*
X156171428Y-30690785D01*
X156128571Y-30605071D01*
X156128571Y-30519357D01*
X156171428Y-30433642D01*
X156257142Y-30390785D01*
X156471428Y-30390785D01*
X156557142Y-30347928D01*
X156985714Y-30733642D02*
X156985714Y-30133642D01*
X156985714Y-30305071D02*
X157028571Y-30219357D01*
X157071428Y-30176500D01*
X157157142Y-30133642D01*
X157242857Y-30133642D01*
X157928571Y-30733642D02*
X157928571Y-29833642D01*
X157928571Y-30690785D02*
X157842857Y-30733642D01*
X157671428Y-30733642D01*
X157585714Y-30690785D01*
X157542857Y-30647928D01*
X157500000Y-30562214D01*
X157500000Y-30305071D01*
X157542857Y-30219357D01*
X157585714Y-30176500D01*
X157671428Y-30133642D01*
X157842857Y-30133642D01*
X157928571Y-30176500D01*
X158957142Y-30133642D02*
X159171428Y-30733642D01*
X159385714Y-30133642D01*
X160200000Y-30733642D02*
X159685714Y-30733642D01*
X159942857Y-30733642D02*
X159942857Y-29833642D01*
X159857142Y-29962214D01*
X159771428Y-30047928D01*
X159685714Y-30090785D01*
X160585714Y-30733642D02*
X160585714Y-29833642D01*
X160585714Y-30176500D02*
X160671428Y-30133642D01*
X160842857Y-30133642D01*
X160928571Y-30176500D01*
X160971428Y-30219357D01*
X161014285Y-30305071D01*
X161014285Y-30562214D01*
X160971428Y-30647928D01*
X160928571Y-30690785D01*
X160842857Y-30733642D01*
X160671428Y-30733642D01*
X160585714Y-30690785D01*
X148435714Y-32182642D02*
X148435714Y-31282642D01*
X148650000Y-31282642D01*
X148778571Y-31325500D01*
X148864285Y-31411214D01*
X148907142Y-31496928D01*
X148950000Y-31668357D01*
X148950000Y-31796928D01*
X148907142Y-31968357D01*
X148864285Y-32054071D01*
X148778571Y-32139785D01*
X148650000Y-32182642D01*
X148435714Y-32182642D01*
X149721428Y-31582642D02*
X149721428Y-32182642D01*
X149335714Y-31582642D02*
X149335714Y-32054071D01*
X149378571Y-32139785D01*
X149464285Y-32182642D01*
X149592857Y-32182642D01*
X149678571Y-32139785D01*
X149721428Y-32096928D01*
X150535714Y-32139785D02*
X150450000Y-32182642D01*
X150278571Y-32182642D01*
X150192857Y-32139785D01*
X150150000Y-32096928D01*
X150107142Y-32011214D01*
X150107142Y-31754071D01*
X150150000Y-31668357D01*
X150192857Y-31625500D01*
X150278571Y-31582642D01*
X150450000Y-31582642D01*
X150535714Y-31625500D01*
X150921428Y-32182642D02*
X150921428Y-31282642D01*
X151007142Y-31839785D02*
X151264285Y-32182642D01*
X151264285Y-31582642D02*
X150921428Y-31925500D01*
X151564285Y-31582642D02*
X151778571Y-32182642D01*
X151992857Y-31582642D02*
X151778571Y-32182642D01*
X151692857Y-32396928D01*
X151650000Y-32439785D01*
X151564285Y-32482642D01*
X153450000Y-32182642D02*
X153021428Y-32182642D01*
X153021428Y-31282642D01*
X153750000Y-32182642D02*
X153750000Y-31582642D01*
X153750000Y-31282642D02*
X153707142Y-31325500D01*
X153750000Y-31368357D01*
X153792857Y-31325500D01*
X153750000Y-31282642D01*
X153750000Y-31368357D01*
X154178571Y-31582642D02*
X154178571Y-32182642D01*
X154178571Y-31668357D02*
X154221428Y-31625500D01*
X154307142Y-31582642D01*
X154435714Y-31582642D01*
X154521428Y-31625500D01*
X154564285Y-31711214D01*
X154564285Y-32182642D01*
X145157142Y-33631642D02*
X145157142Y-32731642D01*
X145671428Y-33631642D01*
X145671428Y-32731642D01*
X146485714Y-33631642D02*
X146485714Y-33160214D01*
X146442857Y-33074500D01*
X146357142Y-33031642D01*
X146185714Y-33031642D01*
X146100000Y-33074500D01*
X146485714Y-33588785D02*
X146400000Y-33631642D01*
X146185714Y-33631642D01*
X146100000Y-33588785D01*
X146057142Y-33503071D01*
X146057142Y-33417357D01*
X146100000Y-33331642D01*
X146185714Y-33288785D01*
X146400000Y-33288785D01*
X146485714Y-33245928D01*
X146785714Y-33031642D02*
X147128571Y-33031642D01*
X146914285Y-32731642D02*
X146914285Y-33503071D01*
X146957142Y-33588785D01*
X147042857Y-33631642D01*
X147128571Y-33631642D01*
X147428571Y-33631642D02*
X147428571Y-32731642D01*
X147814285Y-33631642D02*
X147814285Y-33160214D01*
X147771428Y-33074500D01*
X147685714Y-33031642D01*
X147557142Y-33031642D01*
X147471428Y-33074500D01*
X147428571Y-33117357D01*
X148628571Y-33631642D02*
X148628571Y-33160214D01*
X148585714Y-33074500D01*
X148500000Y-33031642D01*
X148328571Y-33031642D01*
X148242857Y-33074500D01*
X148628571Y-33588785D02*
X148542857Y-33631642D01*
X148328571Y-33631642D01*
X148242857Y-33588785D01*
X148200000Y-33503071D01*
X148200000Y-33417357D01*
X148242857Y-33331642D01*
X148328571Y-33288785D01*
X148542857Y-33288785D01*
X148628571Y-33245928D01*
X149057142Y-33031642D02*
X149057142Y-33631642D01*
X149057142Y-33117357D02*
X149100000Y-33074500D01*
X149185714Y-33031642D01*
X149314285Y-33031642D01*
X149400000Y-33074500D01*
X149442857Y-33160214D01*
X149442857Y-33631642D01*
X150557142Y-33631642D02*
X150557142Y-32731642D01*
X151071428Y-33631642D01*
X151071428Y-32731642D01*
X151885714Y-33031642D02*
X151885714Y-33760214D01*
X151842857Y-33845928D01*
X151800000Y-33888785D01*
X151714285Y-33931642D01*
X151585714Y-33931642D01*
X151500000Y-33888785D01*
X151885714Y-33588785D02*
X151800000Y-33631642D01*
X151628571Y-33631642D01*
X151542857Y-33588785D01*
X151500000Y-33545928D01*
X151457142Y-33460214D01*
X151457142Y-33203071D01*
X151500000Y-33117357D01*
X151542857Y-33074500D01*
X151628571Y-33031642D01*
X151800000Y-33031642D01*
X151885714Y-33074500D01*
X152700000Y-33031642D02*
X152700000Y-33631642D01*
X152314285Y-33031642D02*
X152314285Y-33503071D01*
X152357142Y-33588785D01*
X152442857Y-33631642D01*
X152571428Y-33631642D01*
X152657142Y-33588785D01*
X152700000Y-33545928D01*
X153042857Y-33031642D02*
X153257142Y-33631642D01*
X153471428Y-33031642D02*
X153257142Y-33631642D01*
X153171428Y-33845928D01*
X153128571Y-33888785D01*
X153042857Y-33931642D01*
X154157142Y-33588785D02*
X154071428Y-33631642D01*
X153900000Y-33631642D01*
X153814285Y-33588785D01*
X153771428Y-33503071D01*
X153771428Y-33160214D01*
X153814285Y-33074500D01*
X153900000Y-33031642D01*
X154071428Y-33031642D01*
X154157142Y-33074500D01*
X154200000Y-33160214D01*
X154200000Y-33245928D01*
X153771428Y-33331642D01*
X154585714Y-33031642D02*
X154585714Y-33631642D01*
X154585714Y-33117357D02*
X154628571Y-33074500D01*
X154714285Y-33031642D01*
X154842857Y-33031642D01*
X154928571Y-33074500D01*
X154971428Y-33160214D01*
X154971428Y-33631642D01*
X155785714Y-33631642D02*
X155785714Y-32731642D01*
X155785714Y-33588785D02*
X155700000Y-33631642D01*
X155528571Y-33631642D01*
X155442857Y-33588785D01*
X155400000Y-33545928D01*
X155357142Y-33460214D01*
X155357142Y-33203071D01*
X155400000Y-33117357D01*
X155442857Y-33074500D01*
X155528571Y-33031642D01*
X155700000Y-33031642D01*
X155785714Y-33074500D01*
X156214285Y-33631642D02*
X156214285Y-33031642D01*
X156214285Y-32731642D02*
X156171428Y-32774500D01*
X156214285Y-32817357D01*
X156257142Y-32774500D01*
X156214285Y-32731642D01*
X156214285Y-32817357D01*
X156642857Y-33031642D02*
X156642857Y-33631642D01*
X156642857Y-33117357D02*
X156685714Y-33074500D01*
X156771428Y-33031642D01*
X156900000Y-33031642D01*
X156985714Y-33074500D01*
X157028571Y-33160214D01*
X157028571Y-33631642D01*
X157457142Y-33631642D02*
X157457142Y-32731642D01*
X157842857Y-33631642D02*
X157842857Y-33160214D01*
X157800000Y-33074500D01*
X157714285Y-33031642D01*
X157585714Y-33031642D01*
X157500000Y-33074500D01*
X157457142Y-33117357D01*
X147707142Y-35080642D02*
X147707142Y-34180642D01*
X148221428Y-35080642D02*
X147835714Y-34566357D01*
X148221428Y-34180642D02*
X147707142Y-34694928D01*
X148992857Y-35080642D02*
X148992857Y-34609214D01*
X148950000Y-34523500D01*
X148864285Y-34480642D01*
X148692857Y-34480642D01*
X148607142Y-34523500D01*
X148992857Y-35037785D02*
X148907142Y-35080642D01*
X148692857Y-35080642D01*
X148607142Y-35037785D01*
X148564285Y-34952071D01*
X148564285Y-34866357D01*
X148607142Y-34780642D01*
X148692857Y-34737785D01*
X148907142Y-34737785D01*
X148992857Y-34694928D01*
X149421428Y-35080642D02*
X149421428Y-34480642D01*
X149421428Y-34180642D02*
X149378571Y-34223500D01*
X149421428Y-34266357D01*
X149464285Y-34223500D01*
X149421428Y-34180642D01*
X149421428Y-34266357D01*
X150792857Y-34180642D02*
X150792857Y-34823500D01*
X150750000Y-34952071D01*
X150664285Y-35037785D01*
X150535714Y-35080642D01*
X150450000Y-35080642D01*
X151607142Y-34480642D02*
X151607142Y-35080642D01*
X151221428Y-34480642D02*
X151221428Y-34952071D01*
X151264285Y-35037785D01*
X151350000Y-35080642D01*
X151478571Y-35080642D01*
X151564285Y-35037785D01*
X151607142Y-34994928D01*
X152035714Y-34480642D02*
X152035714Y-35080642D01*
X152035714Y-34566357D02*
X152078571Y-34523500D01*
X152164285Y-34480642D01*
X152292857Y-34480642D01*
X152378571Y-34523500D01*
X152421428Y-34609214D01*
X152421428Y-35080642D01*
X153407142Y-34180642D02*
X153921428Y-34180642D01*
X153664285Y-35080642D02*
X153664285Y-34180642D01*
X154607142Y-35080642D02*
X154607142Y-34609214D01*
X154564285Y-34523500D01*
X154478571Y-34480642D01*
X154307142Y-34480642D01*
X154221428Y-34523500D01*
X154607142Y-35037785D02*
X154521428Y-35080642D01*
X154307142Y-35080642D01*
X154221428Y-35037785D01*
X154178571Y-34952071D01*
X154178571Y-34866357D01*
X154221428Y-34780642D01*
X154307142Y-34737785D01*
X154521428Y-34737785D01*
X154607142Y-34694928D01*
X154950000Y-34480642D02*
X155164285Y-35080642D01*
X155378571Y-34480642D02*
X155164285Y-35080642D01*
X155078571Y-35294928D01*
X155035714Y-35337785D01*
X154950000Y-35380642D01*
X111287976Y-76607142D02*
X111430833Y-76678571D01*
X111668928Y-76678571D01*
X111764166Y-76607142D01*
X111811785Y-76535714D01*
X111859404Y-76392857D01*
X111859404Y-76250000D01*
X111811785Y-76107142D01*
X111764166Y-76035714D01*
X111668928Y-75964285D01*
X111478452Y-75892857D01*
X111383214Y-75821428D01*
X111335595Y-75750000D01*
X111287976Y-75607142D01*
X111287976Y-75464285D01*
X111335595Y-75321428D01*
X111383214Y-75250000D01*
X111478452Y-75178571D01*
X111716547Y-75178571D01*
X111859404Y-75250000D01*
X112287976Y-76678571D02*
X112287976Y-75178571D01*
X112526071Y-75178571D01*
X112668928Y-75250000D01*
X112764166Y-75392857D01*
X112811785Y-75535714D01*
X112859404Y-75821428D01*
X112859404Y-76035714D01*
X112811785Y-76321428D01*
X112764166Y-76464285D01*
X112668928Y-76607142D01*
X112526071Y-76678571D01*
X112287976Y-76678571D01*
X113240357Y-76250000D02*
X113716547Y-76250000D01*
X113145119Y-76678571D02*
X113478452Y-75178571D01*
X113811785Y-76678571D01*
X84571428Y-85678571D02*
X84809523Y-85678571D01*
X84809523Y-84535714D01*
X85190476Y-84535714D01*
X85190476Y-85678571D01*
X85428571Y-85678571D01*
X111287976Y-79607142D02*
X111430833Y-79678571D01*
X111668928Y-79678571D01*
X111764166Y-79607142D01*
X111811785Y-79535714D01*
X111859404Y-79392857D01*
X111859404Y-79250000D01*
X111811785Y-79107142D01*
X111764166Y-79035714D01*
X111668928Y-78964285D01*
X111478452Y-78892857D01*
X111383214Y-78821428D01*
X111335595Y-78750000D01*
X111287976Y-78607142D01*
X111287976Y-78464285D01*
X111335595Y-78321428D01*
X111383214Y-78250000D01*
X111478452Y-78178571D01*
X111716547Y-78178571D01*
X111859404Y-78250000D01*
X112859404Y-79535714D02*
X112811785Y-79607142D01*
X112668928Y-79678571D01*
X112573690Y-79678571D01*
X112430833Y-79607142D01*
X112335595Y-79464285D01*
X112287976Y-79321428D01*
X112240357Y-79035714D01*
X112240357Y-78821428D01*
X112287976Y-78535714D01*
X112335595Y-78392857D01*
X112430833Y-78250000D01*
X112573690Y-78178571D01*
X112668928Y-78178571D01*
X112811785Y-78250000D01*
X112859404Y-78321428D01*
X113764166Y-79678571D02*
X113287976Y-79678571D01*
X113287976Y-78178571D01*
X70335595Y-73678571D02*
X70335595Y-72178571D01*
X70668928Y-73250000D01*
X71002261Y-72178571D01*
X71002261Y-73678571D01*
X71430833Y-72321428D02*
X71478452Y-72250000D01*
X71573690Y-72178571D01*
X71811785Y-72178571D01*
X71907023Y-72250000D01*
X71954642Y-72321428D01*
X72002261Y-72464285D01*
X72002261Y-72607142D01*
X71954642Y-72821428D01*
X71383214Y-73678571D01*
X72002261Y-73678571D01*
X72383214Y-73250000D02*
X72859404Y-73250000D01*
X72287976Y-73678571D02*
X72621309Y-72178571D01*
X72954642Y-73678571D01*
X130192738Y-52178571D02*
X130764166Y-52178571D01*
X130478452Y-53678571D02*
X130478452Y-52178571D01*
X131240357Y-53678571D02*
X131145119Y-53607142D01*
X131097500Y-53535714D01*
X131049880Y-53392857D01*
X131049880Y-52964285D01*
X131097500Y-52821428D01*
X131145119Y-52750000D01*
X131240357Y-52678571D01*
X131383214Y-52678571D01*
X131478452Y-52750000D01*
X131526071Y-52821428D01*
X131573690Y-52964285D01*
X131573690Y-53392857D01*
X131526071Y-53535714D01*
X131478452Y-53607142D01*
X131383214Y-53678571D01*
X131240357Y-53678571D01*
X132335595Y-52892857D02*
X132002261Y-52892857D01*
X132002261Y-53678571D02*
X132002261Y-52178571D01*
X132478452Y-52178571D01*
X134145119Y-53678571D02*
X133573690Y-53678571D01*
X133859404Y-53678571D02*
X133859404Y-52178571D01*
X133764166Y-52392857D01*
X133668928Y-52535714D01*
X133573690Y-52607142D01*
X82240357Y-80821428D02*
X83192738Y-80821428D01*
X82430833Y-81250000D02*
X83002261Y-81250000D01*
X82716547Y-80178571D02*
X82716547Y-80821428D01*
X82811785Y-81678571D02*
X82621309Y-81678571D01*
X90523809Y-84821428D02*
X91476190Y-84821428D01*
X90714285Y-85250000D02*
X91285714Y-85250000D01*
X91000000Y-84178571D02*
X91000000Y-84821428D01*
X91095238Y-85678571D02*
X90904761Y-85678571D01*
X88335595Y-81107142D02*
X89097500Y-81107142D01*
X88716547Y-81678571D02*
X88716547Y-80535714D01*
X151928571Y-105685357D02*
X152261904Y-105685357D01*
X152404761Y-106471071D02*
X151928571Y-106471071D01*
X151928571Y-104971071D01*
X152404761Y-104971071D01*
X152833333Y-106471071D02*
X152833333Y-104971071D01*
X153071428Y-104971071D01*
X153214285Y-105042500D01*
X153309523Y-105185357D01*
X153357142Y-105328214D01*
X153404761Y-105613928D01*
X153404761Y-105828214D01*
X153357142Y-106113928D01*
X153309523Y-106256785D01*
X153214285Y-106399642D01*
X153071428Y-106471071D01*
X152833333Y-106471071D01*
X154357142Y-105042500D02*
X154261904Y-104971071D01*
X154119047Y-104971071D01*
X153976190Y-105042500D01*
X153880952Y-105185357D01*
X153833333Y-105328214D01*
X153785714Y-105613928D01*
X153785714Y-105828214D01*
X153833333Y-106113928D01*
X153880952Y-106256785D01*
X153976190Y-106399642D01*
X154119047Y-106471071D01*
X154214285Y-106471071D01*
X154357142Y-106399642D01*
X154404761Y-106328214D01*
X154404761Y-105828214D01*
X154214285Y-105828214D01*
X156166666Y-106471071D02*
X155833333Y-105756785D01*
X155595238Y-106471071D02*
X155595238Y-104971071D01*
X155976190Y-104971071D01*
X156071428Y-105042500D01*
X156119047Y-105113928D01*
X156166666Y-105256785D01*
X156166666Y-105471071D01*
X156119047Y-105613928D01*
X156071428Y-105685357D01*
X155976190Y-105756785D01*
X155595238Y-105756785D01*
X156738095Y-106471071D02*
X156642857Y-106399642D01*
X156595238Y-106328214D01*
X156547619Y-106185357D01*
X156547619Y-105756785D01*
X156595238Y-105613928D01*
X156642857Y-105542500D01*
X156738095Y-105471071D01*
X156880952Y-105471071D01*
X156976190Y-105542500D01*
X157023809Y-105613928D01*
X157071428Y-105756785D01*
X157071428Y-106185357D01*
X157023809Y-106328214D01*
X156976190Y-106399642D01*
X156880952Y-106471071D01*
X156738095Y-106471071D01*
X157500000Y-106471071D02*
X157500000Y-104971071D01*
X157500000Y-105542500D02*
X157595238Y-105471071D01*
X157785714Y-105471071D01*
X157880952Y-105542500D01*
X157928571Y-105613928D01*
X157976190Y-105756785D01*
X157976190Y-106185357D01*
X157928571Y-106328214D01*
X157880952Y-106399642D01*
X157785714Y-106471071D01*
X157595238Y-106471071D01*
X157500000Y-106399642D01*
X158547619Y-106471071D02*
X158452380Y-106399642D01*
X158404761Y-106328214D01*
X158357142Y-106185357D01*
X158357142Y-105756785D01*
X158404761Y-105613928D01*
X158452380Y-105542500D01*
X158547619Y-105471071D01*
X158690476Y-105471071D01*
X158785714Y-105542500D01*
X158833333Y-105613928D01*
X158880952Y-105756785D01*
X158880952Y-106185357D01*
X158833333Y-106328214D01*
X158785714Y-106399642D01*
X158690476Y-106471071D01*
X158547619Y-106471071D01*
X159166666Y-105471071D02*
X159547619Y-105471071D01*
X159309523Y-104971071D02*
X159309523Y-106256785D01*
X159357142Y-106399642D01*
X159452380Y-106471071D01*
X159547619Y-106471071D01*
X160642857Y-106471071D02*
X160642857Y-104971071D01*
X160880952Y-104971071D01*
X161023809Y-105042500D01*
X161119047Y-105185357D01*
X161166666Y-105328214D01*
X161214285Y-105613928D01*
X161214285Y-105828214D01*
X161166666Y-106113928D01*
X161119047Y-106256785D01*
X161023809Y-106399642D01*
X160880952Y-106471071D01*
X160642857Y-106471071D01*
X161642857Y-106471071D02*
X161642857Y-105471071D01*
X161642857Y-105756785D02*
X161690476Y-105613928D01*
X161738095Y-105542500D01*
X161833333Y-105471071D01*
X161928571Y-105471071D01*
X162261904Y-106471071D02*
X162261904Y-105471071D01*
X162261904Y-104971071D02*
X162214285Y-105042500D01*
X162261904Y-105113928D01*
X162309523Y-105042500D01*
X162261904Y-104971071D01*
X162261904Y-105113928D01*
X162642857Y-105471071D02*
X162880952Y-106471071D01*
X163119047Y-105471071D01*
X163880952Y-106399642D02*
X163785714Y-106471071D01*
X163595238Y-106471071D01*
X163500000Y-106399642D01*
X163452380Y-106256785D01*
X163452380Y-105685357D01*
X163500000Y-105542500D01*
X163595238Y-105471071D01*
X163785714Y-105471071D01*
X163880952Y-105542500D01*
X163928571Y-105685357D01*
X163928571Y-105828214D01*
X163452380Y-105971071D01*
X164357142Y-106471071D02*
X164357142Y-105471071D01*
X164357142Y-105756785D02*
X164404761Y-105613928D01*
X164452380Y-105542500D01*
X164547619Y-105471071D01*
X164642857Y-105471071D01*
X166071428Y-105685357D02*
X166214285Y-105756785D01*
X166261904Y-105828214D01*
X166309523Y-105971071D01*
X166309523Y-106185357D01*
X166261904Y-106328214D01*
X166214285Y-106399642D01*
X166119047Y-106471071D01*
X165738095Y-106471071D01*
X165738095Y-104971071D01*
X166071428Y-104971071D01*
X166166666Y-105042500D01*
X166214285Y-105113928D01*
X166261904Y-105256785D01*
X166261904Y-105399642D01*
X166214285Y-105542500D01*
X166166666Y-105613928D01*
X166071428Y-105685357D01*
X165738095Y-105685357D01*
X166880952Y-106471071D02*
X166785714Y-106399642D01*
X166738095Y-106328214D01*
X166690476Y-106185357D01*
X166690476Y-105756785D01*
X166738095Y-105613928D01*
X166785714Y-105542500D01*
X166880952Y-105471071D01*
X167023809Y-105471071D01*
X167119047Y-105542500D01*
X167166666Y-105613928D01*
X167214285Y-105756785D01*
X167214285Y-106185357D01*
X167166666Y-106328214D01*
X167119047Y-106399642D01*
X167023809Y-106471071D01*
X166880952Y-106471071D01*
X168071428Y-106471071D02*
X168071428Y-105685357D01*
X168023809Y-105542500D01*
X167928571Y-105471071D01*
X167738095Y-105471071D01*
X167642857Y-105542500D01*
X168071428Y-106399642D02*
X167976190Y-106471071D01*
X167738095Y-106471071D01*
X167642857Y-106399642D01*
X167595238Y-106256785D01*
X167595238Y-106113928D01*
X167642857Y-105971071D01*
X167738095Y-105899642D01*
X167976190Y-105899642D01*
X168071428Y-105828214D01*
X168547619Y-106471071D02*
X168547619Y-105471071D01*
X168547619Y-105756785D02*
X168595238Y-105613928D01*
X168642857Y-105542500D01*
X168738095Y-105471071D01*
X168833333Y-105471071D01*
X169595238Y-106471071D02*
X169595238Y-104971071D01*
X169595238Y-106399642D02*
X169500000Y-106471071D01*
X169309523Y-106471071D01*
X169214285Y-106399642D01*
X169166666Y-106328214D01*
X169119047Y-106185357D01*
X169119047Y-105756785D01*
X169166666Y-105613928D01*
X169214285Y-105542500D01*
X169309523Y-105471071D01*
X169500000Y-105471071D01*
X169595238Y-105542500D01*
X170738095Y-105471071D02*
X170976190Y-106471071D01*
X171214285Y-105471071D01*
X172119047Y-106471071D02*
X171547619Y-106471071D01*
X171833333Y-106471071D02*
X171833333Y-104971071D01*
X171738095Y-105185357D01*
X171642857Y-105328214D01*
X171547619Y-105399642D01*
X156309523Y-108457500D02*
X156785714Y-108457500D01*
X156214285Y-108886071D02*
X156547619Y-107386071D01*
X156880952Y-108886071D01*
X157642857Y-107886071D02*
X157642857Y-108886071D01*
X157214285Y-107886071D02*
X157214285Y-108671785D01*
X157261904Y-108814642D01*
X157357142Y-108886071D01*
X157500000Y-108886071D01*
X157595238Y-108814642D01*
X157642857Y-108743214D01*
X157976190Y-107886071D02*
X158357142Y-107886071D01*
X158119047Y-107386071D02*
X158119047Y-108671785D01*
X158166666Y-108814642D01*
X158261904Y-108886071D01*
X158357142Y-108886071D01*
X158833333Y-108886071D02*
X158738095Y-108814642D01*
X158690476Y-108743214D01*
X158642857Y-108600357D01*
X158642857Y-108171785D01*
X158690476Y-108028928D01*
X158738095Y-107957500D01*
X158833333Y-107886071D01*
X158976190Y-107886071D01*
X159071428Y-107957500D01*
X159119047Y-108028928D01*
X159166666Y-108171785D01*
X159166666Y-108600357D01*
X159119047Y-108743214D01*
X159071428Y-108814642D01*
X158976190Y-108886071D01*
X158833333Y-108886071D01*
X159595238Y-108886071D02*
X159595238Y-107886071D01*
X159595238Y-108171785D02*
X159642857Y-108028928D01*
X159690476Y-107957500D01*
X159785714Y-107886071D01*
X159880952Y-107886071D01*
X160357142Y-108886071D02*
X160261904Y-108814642D01*
X160214285Y-108743214D01*
X160166666Y-108600357D01*
X160166666Y-108171785D01*
X160214285Y-108028928D01*
X160261904Y-107957500D01*
X160357142Y-107886071D01*
X160500000Y-107886071D01*
X160595238Y-107957500D01*
X160642857Y-108028928D01*
X160690476Y-108171785D01*
X160690476Y-108600357D01*
X160642857Y-108743214D01*
X160595238Y-108814642D01*
X160500000Y-108886071D01*
X160357142Y-108886071D01*
X161547619Y-107886071D02*
X161547619Y-108886071D01*
X161119047Y-107886071D02*
X161119047Y-108671785D01*
X161166666Y-108814642D01*
X161261904Y-108886071D01*
X161404761Y-108886071D01*
X161500000Y-108814642D01*
X161547619Y-108743214D01*
X161880952Y-107886071D02*
X162261904Y-107886071D01*
X162023809Y-107386071D02*
X162023809Y-108671785D01*
X162071428Y-108814642D01*
X162166666Y-108886071D01*
X162261904Y-108886071D01*
X162976190Y-108814642D02*
X162880952Y-108886071D01*
X162690476Y-108886071D01*
X162595238Y-108814642D01*
X162547619Y-108671785D01*
X162547619Y-108100357D01*
X162595238Y-107957500D01*
X162690476Y-107886071D01*
X162880952Y-107886071D01*
X162976190Y-107957500D01*
X163023809Y-108100357D01*
X163023809Y-108243214D01*
X162547619Y-108386071D01*
X163880952Y-108886071D02*
X163880952Y-107386071D01*
X163880952Y-108814642D02*
X163785714Y-108886071D01*
X163595238Y-108886071D01*
X163500000Y-108814642D01*
X163452380Y-108743214D01*
X163404761Y-108600357D01*
X163404761Y-108171785D01*
X163452380Y-108028928D01*
X163500000Y-107957500D01*
X163595238Y-107886071D01*
X163785714Y-107886071D01*
X163880952Y-107957500D01*
X164976190Y-107386071D02*
X165547619Y-107386071D01*
X165261904Y-108886071D02*
X165261904Y-107386071D01*
X166261904Y-108814642D02*
X166166666Y-108886071D01*
X165976190Y-108886071D01*
X165880952Y-108814642D01*
X165833333Y-108671785D01*
X165833333Y-108100357D01*
X165880952Y-107957500D01*
X165976190Y-107886071D01*
X166166666Y-107886071D01*
X166261904Y-107957500D01*
X166309523Y-108100357D01*
X166309523Y-108243214D01*
X165833333Y-108386071D01*
X166690476Y-108814642D02*
X166785714Y-108886071D01*
X166976190Y-108886071D01*
X167071428Y-108814642D01*
X167119047Y-108671785D01*
X167119047Y-108600357D01*
X167071428Y-108457500D01*
X166976190Y-108386071D01*
X166833333Y-108386071D01*
X166738095Y-108314642D01*
X166690476Y-108171785D01*
X166690476Y-108100357D01*
X166738095Y-107957500D01*
X166833333Y-107886071D01*
X166976190Y-107886071D01*
X167071428Y-107957500D01*
X167404761Y-107886071D02*
X167785714Y-107886071D01*
X167547619Y-107386071D02*
X167547619Y-108671785D01*
X167595238Y-108814642D01*
X167690476Y-108886071D01*
X167785714Y-108886071D01*
X84619047Y-88107142D02*
X85380952Y-88107142D01*
X85000000Y-88678571D02*
X85000000Y-87535714D01*
X93192738Y-44178571D02*
X93764166Y-44178571D01*
X93478452Y-45678571D02*
X93478452Y-44178571D01*
X94002261Y-44178571D02*
X94668928Y-45678571D01*
X94668928Y-44178571D02*
X94002261Y-45678571D01*
X96573690Y-44678571D02*
X95811785Y-45107142D01*
X96573690Y-45535714D01*
X93240357Y-42178571D02*
X93859404Y-42178571D01*
X93526071Y-42750000D01*
X93668928Y-42750000D01*
X93764166Y-42821428D01*
X93811785Y-42892857D01*
X93859404Y-43035714D01*
X93859404Y-43392857D01*
X93811785Y-43535714D01*
X93764166Y-43607142D01*
X93668928Y-43678571D01*
X93383214Y-43678571D01*
X93287976Y-43607142D01*
X93240357Y-43535714D01*
X94145119Y-42178571D02*
X94478452Y-43678571D01*
X94811785Y-42178571D01*
X95049880Y-42178571D02*
X95668928Y-42178571D01*
X95335595Y-42750000D01*
X95478452Y-42750000D01*
X95573690Y-42821428D01*
X95621309Y-42892857D01*
X95668928Y-43035714D01*
X95668928Y-43392857D01*
X95621309Y-43535714D01*
X95573690Y-43607142D01*
X95478452Y-43678571D01*
X95192738Y-43678571D01*
X95097500Y-43607142D01*
X95049880Y-43535714D01*
X81668928Y-72892857D02*
X81811785Y-72964285D01*
X81859404Y-73035714D01*
X81907023Y-73178571D01*
X81907023Y-73392857D01*
X81859404Y-73535714D01*
X81811785Y-73607142D01*
X81716547Y-73678571D01*
X81335595Y-73678571D01*
X81335595Y-72178571D01*
X81668928Y-72178571D01*
X81764166Y-72250000D01*
X81811785Y-72321428D01*
X81859404Y-72464285D01*
X81859404Y-72607142D01*
X81811785Y-72750000D01*
X81764166Y-72821428D01*
X81668928Y-72892857D01*
X81335595Y-72892857D01*
X82287976Y-73250000D02*
X82764166Y-73250000D01*
X82192738Y-73678571D02*
X82526071Y-72178571D01*
X82859404Y-73678571D01*
X83049880Y-72178571D02*
X83621309Y-72178571D01*
X83335595Y-73678571D02*
X83335595Y-72178571D01*
X70335595Y-91678571D02*
X70335595Y-90178571D01*
X70668928Y-91250000D01*
X71002261Y-90178571D01*
X71002261Y-91678571D01*
X71430833Y-90321428D02*
X71478452Y-90250000D01*
X71573690Y-90178571D01*
X71811785Y-90178571D01*
X71907023Y-90250000D01*
X71954642Y-90321428D01*
X72002261Y-90464285D01*
X72002261Y-90607142D01*
X71954642Y-90821428D01*
X71383214Y-91678571D01*
X72002261Y-91678571D01*
X72764166Y-90892857D02*
X72907023Y-90964285D01*
X72954642Y-91035714D01*
X73002261Y-91178571D01*
X73002261Y-91392857D01*
X72954642Y-91535714D01*
X72907023Y-91607142D01*
X72811785Y-91678571D01*
X72430833Y-91678571D01*
X72430833Y-90178571D01*
X72764166Y-90178571D01*
X72859404Y-90250000D01*
X72907023Y-90321428D01*
X72954642Y-90464285D01*
X72954642Y-90607142D01*
X72907023Y-90750000D01*
X72859404Y-90821428D01*
X72764166Y-90892857D01*
X72430833Y-90892857D01*
X60335595Y-91678571D02*
X60335595Y-90178571D01*
X60668928Y-91250000D01*
X61002261Y-90178571D01*
X61002261Y-91678571D01*
X62002261Y-91678571D02*
X61430833Y-91678571D01*
X61716547Y-91678571D02*
X61716547Y-90178571D01*
X61621309Y-90392857D01*
X61526071Y-90535714D01*
X61430833Y-90607142D01*
X62764166Y-90892857D02*
X62907023Y-90964285D01*
X62954642Y-91035714D01*
X63002261Y-91178571D01*
X63002261Y-91392857D01*
X62954642Y-91535714D01*
X62907023Y-91607142D01*
X62811785Y-91678571D01*
X62430833Y-91678571D01*
X62430833Y-90178571D01*
X62764166Y-90178571D01*
X62859404Y-90250000D01*
X62907023Y-90321428D01*
X62954642Y-90464285D01*
X62954642Y-90607142D01*
X62907023Y-90750000D01*
X62859404Y-90821428D01*
X62764166Y-90892857D01*
X62430833Y-90892857D01*
X90047619Y-88178571D02*
X90380952Y-89678571D01*
X90714285Y-88178571D01*
X91047619Y-89107142D02*
X91809523Y-89107142D01*
X91428571Y-89678571D02*
X91428571Y-88535714D01*
X93240357Y-48821428D02*
X94192738Y-48821428D01*
X93430833Y-49250000D02*
X94002261Y-49250000D01*
X93716547Y-48178571D02*
X93716547Y-48821428D01*
X93811785Y-49678571D02*
X93621309Y-49678571D01*
X95761904Y-81178571D02*
X96380952Y-81178571D01*
X96047619Y-81750000D01*
X96190476Y-81750000D01*
X96285714Y-81821428D01*
X96333333Y-81892857D01*
X96380952Y-82035714D01*
X96380952Y-82392857D01*
X96333333Y-82535714D01*
X96285714Y-82607142D01*
X96190476Y-82678571D01*
X95904761Y-82678571D01*
X95809523Y-82607142D01*
X95761904Y-82535714D01*
X96666666Y-81178571D02*
X97000000Y-82678571D01*
X97333333Y-81178571D01*
X97571428Y-81178571D02*
X98190476Y-81178571D01*
X97857142Y-81750000D01*
X98000000Y-81750000D01*
X98095238Y-81821428D01*
X98142857Y-81892857D01*
X98190476Y-82035714D01*
X98190476Y-82392857D01*
X98142857Y-82535714D01*
X98095238Y-82607142D01*
X98000000Y-82678571D01*
X97714285Y-82678571D01*
X97619047Y-82607142D01*
X97571428Y-82535714D01*
X93907023Y-47678571D02*
X93573690Y-46964285D01*
X93335595Y-47678571D02*
X93335595Y-46178571D01*
X93716547Y-46178571D01*
X93811785Y-46250000D01*
X93859404Y-46321428D01*
X93907023Y-46464285D01*
X93907023Y-46678571D01*
X93859404Y-46821428D01*
X93811785Y-46892857D01*
X93716547Y-46964285D01*
X93335595Y-46964285D01*
X94240357Y-46178571D02*
X94907023Y-47678571D01*
X94907023Y-46178571D02*
X94240357Y-47678571D01*
X96049880Y-46678571D02*
X96811785Y-47107142D01*
X96049880Y-47535714D01*
X130192738Y-43178571D02*
X130764166Y-43178571D01*
X130478452Y-44678571D02*
X130478452Y-43178571D01*
X131240357Y-44678571D02*
X131145119Y-44607142D01*
X131097500Y-44535714D01*
X131049880Y-44392857D01*
X131049880Y-43964285D01*
X131097500Y-43821428D01*
X131145119Y-43750000D01*
X131240357Y-43678571D01*
X131383214Y-43678571D01*
X131478452Y-43750000D01*
X131526071Y-43821428D01*
X131573690Y-43964285D01*
X131573690Y-44392857D01*
X131526071Y-44535714D01*
X131478452Y-44607142D01*
X131383214Y-44678571D01*
X131240357Y-44678571D01*
X132335595Y-43892857D02*
X132002261Y-43892857D01*
X132002261Y-44678571D02*
X132002261Y-43178571D01*
X132478452Y-43178571D01*
X133811785Y-43178571D02*
X133907023Y-43178571D01*
X134002261Y-43250000D01*
X134049880Y-43321428D01*
X134097500Y-43464285D01*
X134145119Y-43750000D01*
X134145119Y-44107142D01*
X134097500Y-44392857D01*
X134049880Y-44535714D01*
X134002261Y-44607142D01*
X133907023Y-44678571D01*
X133811785Y-44678571D01*
X133716547Y-44607142D01*
X133668928Y-44535714D01*
X133621309Y-44392857D01*
X133573690Y-44107142D01*
X133573690Y-43750000D01*
X133621309Y-43464285D01*
X133668928Y-43321428D01*
X133716547Y-43250000D01*
X133811785Y-43178571D01*
X60335595Y-73678571D02*
X60335595Y-72178571D01*
X60668928Y-73250000D01*
X61002261Y-72178571D01*
X61002261Y-73678571D01*
X62002261Y-73678571D02*
X61430833Y-73678571D01*
X61716547Y-73678571D02*
X61716547Y-72178571D01*
X61621309Y-72392857D01*
X61526071Y-72535714D01*
X61430833Y-72607142D01*
X62383214Y-73250000D02*
X62859404Y-73250000D01*
X62287976Y-73678571D02*
X62621309Y-72178571D01*
X62954642Y-73678571D01*
X84523809Y-90821428D02*
X85476190Y-90821428D01*
X84714285Y-91250000D02*
X85285714Y-91250000D01*
X85000000Y-90178571D02*
X85000000Y-90821428D01*
X85095238Y-91678571D02*
X84904761Y-91678571D01*
X130192738Y-62178571D02*
X130764166Y-62178571D01*
X130478452Y-63678571D02*
X130478452Y-62178571D01*
X131240357Y-63678571D02*
X131145119Y-63607142D01*
X131097500Y-63535714D01*
X131049880Y-63392857D01*
X131049880Y-62964285D01*
X131097500Y-62821428D01*
X131145119Y-62750000D01*
X131240357Y-62678571D01*
X131383214Y-62678571D01*
X131478452Y-62750000D01*
X131526071Y-62821428D01*
X131573690Y-62964285D01*
X131573690Y-63392857D01*
X131526071Y-63535714D01*
X131478452Y-63607142D01*
X131383214Y-63678571D01*
X131240357Y-63678571D01*
X132335595Y-62892857D02*
X132002261Y-62892857D01*
X132002261Y-63678571D02*
X132002261Y-62178571D01*
X132478452Y-62178571D01*
X133573690Y-62321428D02*
X133621309Y-62250000D01*
X133716547Y-62178571D01*
X133954642Y-62178571D01*
X134049880Y-62250000D01*
X134097500Y-62321428D01*
X134145119Y-62464285D01*
X134145119Y-62607142D01*
X134097500Y-62821428D01*
X133526071Y-63678571D01*
X134145119Y-63678571D01*
X78690476Y-33902380D02*
X78690476Y-34616666D01*
X78642857Y-34759523D01*
X78547619Y-34854761D01*
X78404761Y-34902380D01*
X78309523Y-34902380D01*
X79690476Y-34902380D02*
X79119047Y-34902380D01*
X79404761Y-34902380D02*
X79404761Y-33902380D01*
X79309523Y-34045238D01*
X79214285Y-34140476D01*
X79119047Y-34188095D01*
X80547619Y-34235714D02*
X80547619Y-34902380D01*
X80309523Y-33854761D02*
X80071428Y-34569047D01*
X80690476Y-34569047D01*
X60804761Y-22083333D02*
X60852380Y-21940476D01*
X60852380Y-21702380D01*
X60804761Y-21607142D01*
X60757142Y-21559523D01*
X60661904Y-21511904D01*
X60566666Y-21511904D01*
X60471428Y-21559523D01*
X60423809Y-21607142D01*
X60376190Y-21702380D01*
X60328571Y-21892857D01*
X60280952Y-21988095D01*
X60233333Y-22035714D01*
X60138095Y-22083333D01*
X60042857Y-22083333D01*
X59947619Y-22035714D01*
X59900000Y-21988095D01*
X59852380Y-21892857D01*
X59852380Y-21654761D01*
X59900000Y-21511904D01*
X59852380Y-21178571D02*
X60852380Y-20940476D01*
X60138095Y-20750000D01*
X60852380Y-20559523D01*
X59852380Y-20321428D01*
X59947619Y-19988095D02*
X59900000Y-19940476D01*
X59852380Y-19845238D01*
X59852380Y-19607142D01*
X59900000Y-19511904D01*
X59947619Y-19464285D01*
X60042857Y-19416666D01*
X60138095Y-19416666D01*
X60280952Y-19464285D01*
X60852380Y-20035714D01*
X60852380Y-19416666D01*
X125357142Y-7857142D02*
X125309523Y-7904761D01*
X125166666Y-7952380D01*
X125071428Y-7952380D01*
X124928571Y-7904761D01*
X124833333Y-7809523D01*
X124785714Y-7714285D01*
X124738095Y-7523809D01*
X124738095Y-7380952D01*
X124785714Y-7190476D01*
X124833333Y-7095238D01*
X124928571Y-7000000D01*
X125071428Y-6952380D01*
X125166666Y-6952380D01*
X125309523Y-7000000D01*
X125357142Y-7047619D01*
X125738095Y-7047619D02*
X125785714Y-7000000D01*
X125880952Y-6952380D01*
X126119047Y-6952380D01*
X126214285Y-7000000D01*
X126261904Y-7047619D01*
X126309523Y-7142857D01*
X126309523Y-7238095D01*
X126261904Y-7380952D01*
X125690476Y-7952380D01*
X126309523Y-7952380D01*
X126785714Y-7952380D02*
X126976190Y-7952380D01*
X127071428Y-7904761D01*
X127119047Y-7857142D01*
X127214285Y-7714285D01*
X127261904Y-7523809D01*
X127261904Y-7142857D01*
X127214285Y-7047619D01*
X127166666Y-7000000D01*
X127071428Y-6952380D01*
X126880952Y-6952380D01*
X126785714Y-7000000D01*
X126738095Y-7047619D01*
X126690476Y-7142857D01*
X126690476Y-7380952D01*
X126738095Y-7476190D01*
X126785714Y-7523809D01*
X126880952Y-7571428D01*
X127071428Y-7571428D01*
X127166666Y-7523809D01*
X127214285Y-7476190D01*
X127261904Y-7380952D01*
X71607142Y-16142857D02*
X71654761Y-16190476D01*
X71702380Y-16333333D01*
X71702380Y-16428571D01*
X71654761Y-16571428D01*
X71559523Y-16666666D01*
X71464285Y-16714285D01*
X71273809Y-16761904D01*
X71130952Y-16761904D01*
X70940476Y-16714285D01*
X70845238Y-16666666D01*
X70750000Y-16571428D01*
X70702380Y-16428571D01*
X70702380Y-16333333D01*
X70750000Y-16190476D01*
X70797619Y-16142857D01*
X70797619Y-15761904D02*
X70750000Y-15714285D01*
X70702380Y-15619047D01*
X70702380Y-15380952D01*
X70750000Y-15285714D01*
X70797619Y-15238095D01*
X70892857Y-15190476D01*
X70988095Y-15190476D01*
X71130952Y-15238095D01*
X71702380Y-15809523D01*
X71702380Y-15190476D01*
X70702380Y-14857142D02*
X70702380Y-14190476D01*
X71702380Y-14619047D01*
X123857142Y9147619D02*
X123523809Y9623809D01*
X123285714Y9147619D02*
X123285714Y10147619D01*
X123666666Y10147619D01*
X123761904Y10100000D01*
X123809523Y10052380D01*
X123857142Y9957142D01*
X123857142Y9814285D01*
X123809523Y9719047D01*
X123761904Y9671428D01*
X123666666Y9623809D01*
X123285714Y9623809D01*
X124809523Y9147619D02*
X124238095Y9147619D01*
X124523809Y9147619D02*
X124523809Y10147619D01*
X124428571Y10004761D01*
X124333333Y9909523D01*
X124238095Y9861904D01*
X125714285Y10147619D02*
X125238095Y10147619D01*
X125190476Y9671428D01*
X125238095Y9719047D01*
X125333333Y9766666D01*
X125571428Y9766666D01*
X125666666Y9719047D01*
X125714285Y9671428D01*
X125761904Y9576190D01*
X125761904Y9338095D01*
X125714285Y9242857D01*
X125666666Y9195238D01*
X125571428Y9147619D01*
X125333333Y9147619D01*
X125238095Y9195238D01*
X125190476Y9242857D01*
X138452380Y16261904D02*
X139261904Y16261904D01*
X139357142Y16309523D01*
X139404761Y16357142D01*
X139452380Y16452380D01*
X139452380Y16642857D01*
X139404761Y16738095D01*
X139357142Y16785714D01*
X139261904Y16833333D01*
X138452380Y16833333D01*
X139452380Y17833333D02*
X139452380Y17261904D01*
X139452380Y17547619D02*
X138452380Y17547619D01*
X138595238Y17452380D01*
X138690476Y17357142D01*
X138738095Y17261904D01*
X138452380Y18738095D02*
X138452380Y18261904D01*
X138928571Y18214285D01*
X138880952Y18261904D01*
X138833333Y18357142D01*
X138833333Y18595238D01*
X138880952Y18690476D01*
X138928571Y18738095D01*
X139023809Y18785714D01*
X139261904Y18785714D01*
X139357142Y18738095D01*
X139404761Y18690476D01*
X139452380Y18595238D01*
X139452380Y18357142D01*
X139404761Y18261904D01*
X139357142Y18214285D01*
X137357142Y11642857D02*
X137309523Y11595238D01*
X137166666Y11547619D01*
X137071428Y11547619D01*
X136928571Y11595238D01*
X136833333Y11690476D01*
X136785714Y11785714D01*
X136738095Y11976190D01*
X136738095Y12119047D01*
X136785714Y12309523D01*
X136833333Y12404761D01*
X136928571Y12500000D01*
X137071428Y12547619D01*
X137166666Y12547619D01*
X137309523Y12500000D01*
X137357142Y12452380D01*
X138214285Y12214285D02*
X138214285Y11547619D01*
X137976190Y12595238D02*
X137738095Y11880952D01*
X138357142Y11880952D01*
X138690476Y12452380D02*
X138738095Y12500000D01*
X138833333Y12547619D01*
X139071428Y12547619D01*
X139166666Y12500000D01*
X139214285Y12452380D01*
X139261904Y12357142D01*
X139261904Y12261904D01*
X139214285Y12119047D01*
X138642857Y11547619D01*
X139261904Y11547619D01*
X93466562Y3772857D02*
X93418943Y3725238D01*
X93276086Y3677619D01*
X93180848Y3677619D01*
X93037991Y3725238D01*
X92942753Y3820476D01*
X92895134Y3915714D01*
X92847515Y4106190D01*
X92847515Y4249047D01*
X92895134Y4439523D01*
X92942753Y4534761D01*
X93037991Y4630000D01*
X93180848Y4677619D01*
X93276086Y4677619D01*
X93418943Y4630000D01*
X93466562Y4582380D01*
X93799896Y4677619D02*
X94418943Y4677619D01*
X94085610Y4296666D01*
X94228467Y4296666D01*
X94323705Y4249047D01*
X94371324Y4201428D01*
X94418943Y4106190D01*
X94418943Y3868095D01*
X94371324Y3772857D01*
X94323705Y3725238D01*
X94228467Y3677619D01*
X93942753Y3677619D01*
X93847515Y3725238D01*
X93799896Y3772857D01*
X94752277Y4677619D02*
X95418943Y4677619D01*
X94990372Y3677619D01*
X121738095Y-352380D02*
X122309523Y-352380D01*
X122023809Y-1352380D02*
X122023809Y-352380D01*
X122642857Y-1352380D02*
X122642857Y-352380D01*
X123023809Y-352380D01*
X123119047Y-400000D01*
X123166666Y-447619D01*
X123214285Y-542857D01*
X123214285Y-685714D01*
X123166666Y-780952D01*
X123119047Y-828571D01*
X123023809Y-876190D01*
X122642857Y-876190D01*
X123785714Y-780952D02*
X123690476Y-733333D01*
X123642857Y-685714D01*
X123595238Y-590476D01*
X123595238Y-542857D01*
X123642857Y-447619D01*
X123690476Y-400000D01*
X123785714Y-352380D01*
X123976190Y-352380D01*
X124071428Y-400000D01*
X124119047Y-447619D01*
X124166666Y-542857D01*
X124166666Y-590476D01*
X124119047Y-685714D01*
X124071428Y-733333D01*
X123976190Y-780952D01*
X123785714Y-780952D01*
X123690476Y-828571D01*
X123642857Y-876190D01*
X123595238Y-971428D01*
X123595238Y-1161904D01*
X123642857Y-1257142D01*
X123690476Y-1304761D01*
X123785714Y-1352380D01*
X123976190Y-1352380D01*
X124071428Y-1304761D01*
X124119047Y-1257142D01*
X124166666Y-1161904D01*
X124166666Y-971428D01*
X124119047Y-876190D01*
X124071428Y-828571D01*
X123976190Y-780952D01*
X165952380Y-8714285D02*
X164952380Y-8714285D01*
X164952380Y-8476190D01*
X165000000Y-8333333D01*
X165095238Y-8238095D01*
X165190476Y-8190476D01*
X165380952Y-8142857D01*
X165523809Y-8142857D01*
X165714285Y-8190476D01*
X165809523Y-8238095D01*
X165904761Y-8333333D01*
X165952380Y-8476190D01*
X165952380Y-8714285D01*
X165952380Y-7190476D02*
X165952380Y-7761904D01*
X165952380Y-7476190D02*
X164952380Y-7476190D01*
X165095238Y-7571428D01*
X165190476Y-7666666D01*
X165238095Y-7761904D01*
X165952380Y-6238095D02*
X165952380Y-6809523D01*
X165952380Y-6523809D02*
X164952380Y-6523809D01*
X165095238Y-6619047D01*
X165190476Y-6714285D01*
X165238095Y-6809523D01*
X163552380Y-3064285D02*
X163552380Y-3635714D01*
X163552380Y-3350000D02*
X162552380Y-3350000D01*
X162695238Y-3445238D01*
X162790476Y-3540476D01*
X162838095Y-3635714D01*
X151952380Y-20214285D02*
X150952380Y-20214285D01*
X150952380Y-19976190D01*
X151000000Y-19833333D01*
X151095238Y-19738095D01*
X151190476Y-19690476D01*
X151380952Y-19642857D01*
X151523809Y-19642857D01*
X151714285Y-19690476D01*
X151809523Y-19738095D01*
X151904761Y-19833333D01*
X151952380Y-19976190D01*
X151952380Y-20214285D01*
X151952380Y-18690476D02*
X151952380Y-19261904D01*
X151952380Y-18976190D02*
X150952380Y-18976190D01*
X151095238Y-19071428D01*
X151190476Y-19166666D01*
X151238095Y-19261904D01*
X151047619Y-18309523D02*
X151000000Y-18261904D01*
X150952380Y-18166666D01*
X150952380Y-17928571D01*
X151000000Y-17833333D01*
X151047619Y-17785714D01*
X151142857Y-17738095D01*
X151238095Y-17738095D01*
X151380952Y-17785714D01*
X151952380Y-18357142D01*
X151952380Y-17738095D01*
X153952380Y-23214285D02*
X153952380Y-23785714D01*
X153952380Y-23500000D02*
X152952380Y-23500000D01*
X153095238Y-23595238D01*
X153190476Y-23690476D01*
X153238095Y-23785714D01*
X140940476Y34247619D02*
X140940476Y33533333D01*
X140892857Y33390476D01*
X140797619Y33295238D01*
X140654761Y33247619D01*
X140559523Y33247619D01*
X141940476Y33247619D02*
X141369047Y33247619D01*
X141654761Y33247619D02*
X141654761Y34247619D01*
X141559523Y34104761D01*
X141464285Y34009523D01*
X141369047Y33961904D01*
X142416666Y33247619D02*
X142607142Y33247619D01*
X142702380Y33295238D01*
X142750000Y33342857D01*
X142845238Y33485714D01*
X142892857Y33676190D01*
X142892857Y34057142D01*
X142845238Y34152380D01*
X142797619Y34200000D01*
X142702380Y34247619D01*
X142511904Y34247619D01*
X142416666Y34200000D01*
X142369047Y34152380D01*
X142321428Y34057142D01*
X142321428Y33819047D01*
X142369047Y33723809D01*
X142416666Y33676190D01*
X142511904Y33628571D01*
X142702380Y33628571D01*
X142797619Y33676190D01*
X142845238Y33723809D01*
X142892857Y33819047D01*
X125357142Y-16857142D02*
X125309523Y-16904761D01*
X125166666Y-16952380D01*
X125071428Y-16952380D01*
X124928571Y-16904761D01*
X124833333Y-16809523D01*
X124785714Y-16714285D01*
X124738095Y-16523809D01*
X124738095Y-16380952D01*
X124785714Y-16190476D01*
X124833333Y-16095238D01*
X124928571Y-16000000D01*
X125071428Y-15952380D01*
X125166666Y-15952380D01*
X125309523Y-16000000D01*
X125357142Y-16047619D01*
X125690476Y-15952380D02*
X126309523Y-15952380D01*
X125976190Y-16333333D01*
X126119047Y-16333333D01*
X126214285Y-16380952D01*
X126261904Y-16428571D01*
X126309523Y-16523809D01*
X126309523Y-16761904D01*
X126261904Y-16857142D01*
X126214285Y-16904761D01*
X126119047Y-16952380D01*
X125833333Y-16952380D01*
X125738095Y-16904761D01*
X125690476Y-16857142D01*
X127261904Y-16952380D02*
X126690476Y-16952380D01*
X126976190Y-16952380D02*
X126976190Y-15952380D01*
X126880952Y-16095238D01*
X126785714Y-16190476D01*
X126690476Y-16238095D01*
X94261904Y-8952380D02*
X94261904Y-7952380D01*
X94500000Y-7952380D01*
X94642857Y-8000000D01*
X94738095Y-8095238D01*
X94785714Y-8190476D01*
X94833333Y-8380952D01*
X94833333Y-8523809D01*
X94785714Y-8714285D01*
X94738095Y-8809523D01*
X94642857Y-8904761D01*
X94500000Y-8952380D01*
X94261904Y-8952380D01*
X95166666Y-7952380D02*
X95833333Y-7952380D01*
X95404761Y-8952380D01*
X127787142Y18857142D02*
X127834761Y18809523D01*
X127882380Y18666666D01*
X127882380Y18571428D01*
X127834761Y18428571D01*
X127739523Y18333333D01*
X127644285Y18285714D01*
X127453809Y18238095D01*
X127310952Y18238095D01*
X127120476Y18285714D01*
X127025238Y18333333D01*
X126930000Y18428571D01*
X126882380Y18571428D01*
X126882380Y18666666D01*
X126930000Y18809523D01*
X126977619Y18857142D01*
X126977619Y19238095D02*
X126930000Y19285714D01*
X126882380Y19380952D01*
X126882380Y19619047D01*
X126930000Y19714285D01*
X126977619Y19761904D01*
X127072857Y19809523D01*
X127168095Y19809523D01*
X127310952Y19761904D01*
X127882380Y19190476D01*
X127882380Y19809523D01*
X126882380Y20142857D02*
X126882380Y20761904D01*
X127263333Y20428571D01*
X127263333Y20571428D01*
X127310952Y20666666D01*
X127358571Y20714285D01*
X127453809Y20761904D01*
X127691904Y20761904D01*
X127787142Y20714285D01*
X127834761Y20666666D01*
X127882380Y20571428D01*
X127882380Y20285714D01*
X127834761Y20190476D01*
X127787142Y20142857D01*
X103537142Y20557142D02*
X103584761Y20509523D01*
X103632380Y20366666D01*
X103632380Y20271428D01*
X103584761Y20128571D01*
X103489523Y20033333D01*
X103394285Y19985714D01*
X103203809Y19938095D01*
X103060952Y19938095D01*
X102870476Y19985714D01*
X102775238Y20033333D01*
X102680000Y20128571D01*
X102632380Y20271428D01*
X102632380Y20366666D01*
X102680000Y20509523D01*
X102727619Y20557142D01*
X102632380Y20890476D02*
X102632380Y21509523D01*
X103013333Y21176190D01*
X103013333Y21319047D01*
X103060952Y21414285D01*
X103108571Y21461904D01*
X103203809Y21509523D01*
X103441904Y21509523D01*
X103537142Y21461904D01*
X103584761Y21414285D01*
X103632380Y21319047D01*
X103632380Y21033333D01*
X103584761Y20938095D01*
X103537142Y20890476D01*
X103060952Y22080952D02*
X103013333Y21985714D01*
X102965714Y21938095D01*
X102870476Y21890476D01*
X102822857Y21890476D01*
X102727619Y21938095D01*
X102680000Y21985714D01*
X102632380Y22080952D01*
X102632380Y22271428D01*
X102680000Y22366666D01*
X102727619Y22414285D01*
X102822857Y22461904D01*
X102870476Y22461904D01*
X102965714Y22414285D01*
X103013333Y22366666D01*
X103060952Y22271428D01*
X103060952Y22080952D01*
X103108571Y21985714D01*
X103156190Y21938095D01*
X103251428Y21890476D01*
X103441904Y21890476D01*
X103537142Y21938095D01*
X103584761Y21985714D01*
X103632380Y22080952D01*
X103632380Y22271428D01*
X103584761Y22366666D01*
X103537142Y22414285D01*
X103441904Y22461904D01*
X103251428Y22461904D01*
X103156190Y22414285D01*
X103108571Y22366666D01*
X103060952Y22271428D01*
X106261904Y6477619D02*
X106833333Y6477619D01*
X106547619Y5477619D02*
X106547619Y6477619D01*
X107166666Y5477619D02*
X107166666Y6477619D01*
X107547619Y6477619D01*
X107642857Y6430000D01*
X107690476Y6382380D01*
X107738095Y6287142D01*
X107738095Y6144285D01*
X107690476Y6049047D01*
X107642857Y6001428D01*
X107547619Y5953809D01*
X107166666Y5953809D01*
X108690476Y5477619D02*
X108119047Y5477619D01*
X108404761Y5477619D02*
X108404761Y6477619D01*
X108309523Y6334761D01*
X108214285Y6239523D01*
X108119047Y6191904D01*
X109309523Y6477619D02*
X109404761Y6477619D01*
X109500000Y6430000D01*
X109547619Y6382380D01*
X109595238Y6287142D01*
X109642857Y6096666D01*
X109642857Y5858571D01*
X109595238Y5668095D01*
X109547619Y5572857D01*
X109500000Y5525238D01*
X109404761Y5477619D01*
X109309523Y5477619D01*
X109214285Y5525238D01*
X109166666Y5572857D01*
X109119047Y5668095D01*
X109071428Y5858571D01*
X109071428Y6096666D01*
X109119047Y6287142D01*
X109166666Y6382380D01*
X109214285Y6430000D01*
X109309523Y6477619D01*
X100452380Y16761904D02*
X101261904Y16761904D01*
X101357142Y16809523D01*
X101404761Y16857142D01*
X101452380Y16952380D01*
X101452380Y17142857D01*
X101404761Y17238095D01*
X101357142Y17285714D01*
X101261904Y17333333D01*
X100452380Y17333333D01*
X101452380Y18333333D02*
X101452380Y17761904D01*
X101452380Y18047619D02*
X100452380Y18047619D01*
X100595238Y17952380D01*
X100690476Y17857142D01*
X100738095Y17761904D01*
X100785714Y19190476D02*
X101452380Y19190476D01*
X100404761Y18952380D02*
X101119047Y18714285D01*
X101119047Y19333333D01*
X102607142Y2177619D02*
X102273809Y2653809D01*
X102035714Y2177619D02*
X102035714Y3177619D01*
X102416666Y3177619D01*
X102511904Y3130000D01*
X102559523Y3082380D01*
X102607142Y2987142D01*
X102607142Y2844285D01*
X102559523Y2749047D01*
X102511904Y2701428D01*
X102416666Y2653809D01*
X102035714Y2653809D01*
X103559523Y2177619D02*
X102988095Y2177619D01*
X103273809Y2177619D02*
X103273809Y3177619D01*
X103178571Y3034761D01*
X103083333Y2939523D01*
X102988095Y2891904D01*
X104130952Y2749047D02*
X104035714Y2796666D01*
X103988095Y2844285D01*
X103940476Y2939523D01*
X103940476Y2987142D01*
X103988095Y3082380D01*
X104035714Y3130000D01*
X104130952Y3177619D01*
X104321428Y3177619D01*
X104416666Y3130000D01*
X104464285Y3082380D01*
X104511904Y2987142D01*
X104511904Y2939523D01*
X104464285Y2844285D01*
X104416666Y2796666D01*
X104321428Y2749047D01*
X104130952Y2749047D01*
X104035714Y2701428D01*
X103988095Y2653809D01*
X103940476Y2558571D01*
X103940476Y2368095D01*
X103988095Y2272857D01*
X104035714Y2225238D01*
X104130952Y2177619D01*
X104321428Y2177619D01*
X104416666Y2225238D01*
X104464285Y2272857D01*
X104511904Y2368095D01*
X104511904Y2558571D01*
X104464285Y2653809D01*
X104416666Y2701428D01*
X104321428Y2749047D01*
X119357142Y23977619D02*
X119023809Y24453809D01*
X118785714Y23977619D02*
X118785714Y24977619D01*
X119166666Y24977619D01*
X119261904Y24930000D01*
X119309523Y24882380D01*
X119357142Y24787142D01*
X119357142Y24644285D01*
X119309523Y24549047D01*
X119261904Y24501428D01*
X119166666Y24453809D01*
X118785714Y24453809D01*
X120309523Y23977619D02*
X119738095Y23977619D01*
X120023809Y23977619D02*
X120023809Y24977619D01*
X119928571Y24834761D01*
X119833333Y24739523D01*
X119738095Y24691904D01*
X121261904Y23977619D02*
X120690476Y23977619D01*
X120976190Y23977619D02*
X120976190Y24977619D01*
X120880952Y24834761D01*
X120785714Y24739523D01*
X120690476Y24691904D01*
X112357142Y7457142D02*
X112404761Y7409523D01*
X112452380Y7266666D01*
X112452380Y7171428D01*
X112404761Y7028571D01*
X112309523Y6933333D01*
X112214285Y6885714D01*
X112023809Y6838095D01*
X111880952Y6838095D01*
X111690476Y6885714D01*
X111595238Y6933333D01*
X111500000Y7028571D01*
X111452380Y7171428D01*
X111452380Y7266666D01*
X111500000Y7409523D01*
X111547619Y7457142D01*
X111547619Y7838095D02*
X111500000Y7885714D01*
X111452380Y7980952D01*
X111452380Y8219047D01*
X111500000Y8314285D01*
X111547619Y8361904D01*
X111642857Y8409523D01*
X111738095Y8409523D01*
X111880952Y8361904D01*
X112452380Y7790476D01*
X112452380Y8409523D01*
X111785714Y9266666D02*
X112452380Y9266666D01*
X111404761Y9028571D02*
X112119047Y8790476D01*
X112119047Y9409523D01*
X73607142Y-16642857D02*
X73654761Y-16690476D01*
X73702380Y-16833333D01*
X73702380Y-16928571D01*
X73654761Y-17071428D01*
X73559523Y-17166666D01*
X73464285Y-17214285D01*
X73273809Y-17261904D01*
X73130952Y-17261904D01*
X72940476Y-17214285D01*
X72845238Y-17166666D01*
X72750000Y-17071428D01*
X72702380Y-16928571D01*
X72702380Y-16833333D01*
X72750000Y-16690476D01*
X72797619Y-16642857D01*
X72797619Y-16261904D02*
X72750000Y-16214285D01*
X72702380Y-16119047D01*
X72702380Y-15880952D01*
X72750000Y-15785714D01*
X72797619Y-15738095D01*
X72892857Y-15690476D01*
X72988095Y-15690476D01*
X73130952Y-15738095D01*
X73702380Y-16309523D01*
X73702380Y-15690476D01*
X72702380Y-14833333D02*
X72702380Y-15023809D01*
X72750000Y-15119047D01*
X72797619Y-15166666D01*
X72940476Y-15261904D01*
X73130952Y-15309523D01*
X73511904Y-15309523D01*
X73607142Y-15261904D01*
X73654761Y-15214285D01*
X73702380Y-15119047D01*
X73702380Y-14928571D01*
X73654761Y-14833333D01*
X73607142Y-14785714D01*
X73511904Y-14738095D01*
X73273809Y-14738095D01*
X73178571Y-14785714D01*
X73130952Y-14833333D01*
X73083333Y-14928571D01*
X73083333Y-15119047D01*
X73130952Y-15214285D01*
X73178571Y-15261904D01*
X73273809Y-15309523D01*
X106738095Y-522380D02*
X107309523Y-522380D01*
X107023809Y-1522380D02*
X107023809Y-522380D01*
X107642857Y-1522380D02*
X107642857Y-522380D01*
X108023809Y-522380D01*
X108119047Y-570000D01*
X108166666Y-617619D01*
X108214285Y-712857D01*
X108214285Y-855714D01*
X108166666Y-950952D01*
X108119047Y-998571D01*
X108023809Y-1046190D01*
X107642857Y-1046190D01*
X108690476Y-1522380D02*
X108880952Y-1522380D01*
X108976190Y-1474761D01*
X109023809Y-1427142D01*
X109119047Y-1284285D01*
X109166666Y-1093809D01*
X109166666Y-712857D01*
X109119047Y-617619D01*
X109071428Y-570000D01*
X108976190Y-522380D01*
X108785714Y-522380D01*
X108690476Y-570000D01*
X108642857Y-617619D01*
X108595238Y-712857D01*
X108595238Y-950952D01*
X108642857Y-1046190D01*
X108690476Y-1093809D01*
X108785714Y-1141428D01*
X108976190Y-1141428D01*
X109071428Y-1093809D01*
X109119047Y-1046190D01*
X109166666Y-950952D01*
X141357142Y20357142D02*
X141404761Y20309523D01*
X141452380Y20166666D01*
X141452380Y20071428D01*
X141404761Y19928571D01*
X141309523Y19833333D01*
X141214285Y19785714D01*
X141023809Y19738095D01*
X140880952Y19738095D01*
X140690476Y19785714D01*
X140595238Y19833333D01*
X140500000Y19928571D01*
X140452380Y20071428D01*
X140452380Y20166666D01*
X140500000Y20309523D01*
X140547619Y20357142D01*
X140785714Y21214285D02*
X141452380Y21214285D01*
X140404761Y20976190D02*
X141119047Y20738095D01*
X141119047Y21357142D01*
X141452380Y22261904D02*
X141452380Y21690476D01*
X141452380Y21976190D02*
X140452380Y21976190D01*
X140595238Y21880952D01*
X140690476Y21785714D01*
X140738095Y21690476D01*
X77452380Y-16142857D02*
X76976190Y-16476190D01*
X77452380Y-16714285D02*
X76452380Y-16714285D01*
X76452380Y-16333333D01*
X76500000Y-16238095D01*
X76547619Y-16190476D01*
X76642857Y-16142857D01*
X76785714Y-16142857D01*
X76880952Y-16190476D01*
X76928571Y-16238095D01*
X76976190Y-16333333D01*
X76976190Y-16714285D01*
X77452380Y-15190476D02*
X77452380Y-15761904D01*
X77452380Y-15476190D02*
X76452380Y-15476190D01*
X76595238Y-15571428D01*
X76690476Y-15666666D01*
X76738095Y-15761904D01*
X76452380Y-14333333D02*
X76452380Y-14523809D01*
X76500000Y-14619047D01*
X76547619Y-14666666D01*
X76690476Y-14761904D01*
X76880952Y-14809523D01*
X77261904Y-14809523D01*
X77357142Y-14761904D01*
X77404761Y-14714285D01*
X77452380Y-14619047D01*
X77452380Y-14428571D01*
X77404761Y-14333333D01*
X77357142Y-14285714D01*
X77261904Y-14238095D01*
X77023809Y-14238095D01*
X76928571Y-14285714D01*
X76880952Y-14333333D01*
X76833333Y-14428571D01*
X76833333Y-14619047D01*
X76880952Y-14714285D01*
X76928571Y-14761904D01*
X77023809Y-14809523D01*
X109988095Y17547619D02*
X110559523Y17547619D01*
X110273809Y16547619D02*
X110273809Y17547619D01*
X110892857Y16547619D02*
X110892857Y17547619D01*
X111273809Y17547619D01*
X111369047Y17500000D01*
X111416666Y17452380D01*
X111464285Y17357142D01*
X111464285Y17214285D01*
X111416666Y17119047D01*
X111369047Y17071428D01*
X111273809Y17023809D01*
X110892857Y17023809D01*
X112321428Y17547619D02*
X112130952Y17547619D01*
X112035714Y17500000D01*
X111988095Y17452380D01*
X111892857Y17309523D01*
X111845238Y17119047D01*
X111845238Y16738095D01*
X111892857Y16642857D01*
X111940476Y16595238D01*
X112035714Y16547619D01*
X112226190Y16547619D01*
X112321428Y16595238D01*
X112369047Y16642857D01*
X112416666Y16738095D01*
X112416666Y16976190D01*
X112369047Y17071428D01*
X112321428Y17119047D01*
X112226190Y17166666D01*
X112035714Y17166666D01*
X111940476Y17119047D01*
X111892857Y17071428D01*
X111845238Y16976190D01*
X119357142Y16977619D02*
X119023809Y17453809D01*
X118785714Y16977619D02*
X118785714Y17977619D01*
X119166666Y17977619D01*
X119261904Y17930000D01*
X119309523Y17882380D01*
X119357142Y17787142D01*
X119357142Y17644285D01*
X119309523Y17549047D01*
X119261904Y17501428D01*
X119166666Y17453809D01*
X118785714Y17453809D01*
X120309523Y16977619D02*
X119738095Y16977619D01*
X120023809Y16977619D02*
X120023809Y17977619D01*
X119928571Y17834761D01*
X119833333Y17739523D01*
X119738095Y17691904D01*
X120928571Y17977619D02*
X121023809Y17977619D01*
X121119047Y17930000D01*
X121166666Y17882380D01*
X121214285Y17787142D01*
X121261904Y17596666D01*
X121261904Y17358571D01*
X121214285Y17168095D01*
X121166666Y17072857D01*
X121119047Y17025238D01*
X121023809Y16977619D01*
X120928571Y16977619D01*
X120833333Y17025238D01*
X120785714Y17072857D01*
X120738095Y17168095D01*
X120690476Y17358571D01*
X120690476Y17596666D01*
X120738095Y17787142D01*
X120785714Y17882380D01*
X120833333Y17930000D01*
X120928571Y17977619D01*
X74238095Y31297619D02*
X74809523Y31297619D01*
X74523809Y30297619D02*
X74523809Y31297619D01*
X75142857Y30297619D02*
X75142857Y31297619D01*
X75523809Y31297619D01*
X75619047Y31250000D01*
X75666666Y31202380D01*
X75714285Y31107142D01*
X75714285Y30964285D01*
X75666666Y30869047D01*
X75619047Y30821428D01*
X75523809Y30773809D01*
X75142857Y30773809D01*
X76047619Y31297619D02*
X76714285Y31297619D01*
X76285714Y30297619D01*
X83190476Y34047619D02*
X83190476Y33333333D01*
X83142857Y33190476D01*
X83047619Y33095238D01*
X82904761Y33047619D01*
X82809523Y33047619D01*
X83619047Y33952380D02*
X83666666Y34000000D01*
X83761904Y34047619D01*
X84000000Y34047619D01*
X84095238Y34000000D01*
X84142857Y33952380D01*
X84190476Y33857142D01*
X84190476Y33761904D01*
X84142857Y33619047D01*
X83571428Y33047619D01*
X84190476Y33047619D01*
X85142857Y33047619D02*
X84571428Y33047619D01*
X84857142Y33047619D02*
X84857142Y34047619D01*
X84761904Y33904761D01*
X84666666Y33809523D01*
X84571428Y33761904D01*
X86191904Y-8562380D02*
X86191904Y-9371904D01*
X86239523Y-9467142D01*
X86287142Y-9514761D01*
X86382380Y-9562380D01*
X86572857Y-9562380D01*
X86668095Y-9514761D01*
X86715714Y-9467142D01*
X86763333Y-9371904D01*
X86763333Y-8562380D01*
X87763333Y-9562380D02*
X87191904Y-9562380D01*
X87477619Y-9562380D02*
X87477619Y-8562380D01*
X87382380Y-8705238D01*
X87287142Y-8800476D01*
X87191904Y-8848095D01*
X88144285Y-8657619D02*
X88191904Y-8610000D01*
X88287142Y-8562380D01*
X88525238Y-8562380D01*
X88620476Y-8610000D01*
X88668095Y-8657619D01*
X88715714Y-8752857D01*
X88715714Y-8848095D01*
X88668095Y-8990952D01*
X88096666Y-9562380D01*
X88715714Y-9562380D01*
X116190476Y-20952380D02*
X116190476Y-21666666D01*
X116142857Y-21809523D01*
X116047619Y-21904761D01*
X115904761Y-21952380D01*
X115809523Y-21952380D01*
X117190476Y-21952380D02*
X116619047Y-21952380D01*
X116904761Y-21952380D02*
X116904761Y-20952380D01*
X116809523Y-21095238D01*
X116714285Y-21190476D01*
X116619047Y-21238095D01*
X118047619Y-20952380D02*
X117857142Y-20952380D01*
X117761904Y-21000000D01*
X117714285Y-21047619D01*
X117619047Y-21190476D01*
X117571428Y-21380952D01*
X117571428Y-21761904D01*
X117619047Y-21857142D01*
X117666666Y-21904761D01*
X117761904Y-21952380D01*
X117952380Y-21952380D01*
X118047619Y-21904761D01*
X118095238Y-21857142D01*
X118142857Y-21761904D01*
X118142857Y-21523809D01*
X118095238Y-21428571D01*
X118047619Y-21380952D01*
X117952380Y-21333333D01*
X117761904Y-21333333D01*
X117666666Y-21380952D01*
X117619047Y-21428571D01*
X117571428Y-21523809D01*
X123357142Y14117619D02*
X123023809Y14593809D01*
X122785714Y14117619D02*
X122785714Y15117619D01*
X123166666Y15117619D01*
X123261904Y15070000D01*
X123309523Y15022380D01*
X123357142Y14927142D01*
X123357142Y14784285D01*
X123309523Y14689047D01*
X123261904Y14641428D01*
X123166666Y14593809D01*
X122785714Y14593809D01*
X124309523Y14117619D02*
X123738095Y14117619D01*
X124023809Y14117619D02*
X124023809Y15117619D01*
X123928571Y14974761D01*
X123833333Y14879523D01*
X123738095Y14831904D01*
X124690476Y15022380D02*
X124738095Y15070000D01*
X124833333Y15117619D01*
X125071428Y15117619D01*
X125166666Y15070000D01*
X125214285Y15022380D01*
X125261904Y14927142D01*
X125261904Y14831904D01*
X125214285Y14689047D01*
X124642857Y14117619D01*
X125261904Y14117619D01*
X113177142Y1907142D02*
X113224761Y1859523D01*
X113272380Y1716666D01*
X113272380Y1621428D01*
X113224761Y1478571D01*
X113129523Y1383333D01*
X113034285Y1335714D01*
X112843809Y1288095D01*
X112700952Y1288095D01*
X112510476Y1335714D01*
X112415238Y1383333D01*
X112320000Y1478571D01*
X112272380Y1621428D01*
X112272380Y1716666D01*
X112320000Y1859523D01*
X112367619Y1907142D01*
X112367619Y2288095D02*
X112320000Y2335714D01*
X112272380Y2430952D01*
X112272380Y2669047D01*
X112320000Y2764285D01*
X112367619Y2811904D01*
X112462857Y2859523D01*
X112558095Y2859523D01*
X112700952Y2811904D01*
X113272380Y2240476D01*
X113272380Y2859523D01*
X112272380Y3764285D02*
X112272380Y3288095D01*
X112748571Y3240476D01*
X112700952Y3288095D01*
X112653333Y3383333D01*
X112653333Y3621428D01*
X112700952Y3716666D01*
X112748571Y3764285D01*
X112843809Y3811904D01*
X113081904Y3811904D01*
X113177142Y3764285D01*
X113224761Y3716666D01*
X113272380Y3621428D01*
X113272380Y3383333D01*
X113224761Y3288095D01*
X113177142Y3240476D01*
X62238095Y-34452380D02*
X62238095Y-33452380D01*
X62238095Y-33928571D02*
X62809523Y-33928571D01*
X62809523Y-34452380D02*
X62809523Y-33452380D01*
X63761904Y-33452380D02*
X63285714Y-33452380D01*
X63238095Y-33928571D01*
X63285714Y-33880952D01*
X63380952Y-33833333D01*
X63619047Y-33833333D01*
X63714285Y-33880952D01*
X63761904Y-33928571D01*
X63809523Y-34023809D01*
X63809523Y-34261904D01*
X63761904Y-34357142D01*
X63714285Y-34404761D01*
X63619047Y-34452380D01*
X63380952Y-34452380D01*
X63285714Y-34404761D01*
X63238095Y-34357142D01*
X175738095Y-1952380D02*
X175738095Y-952380D01*
X175738095Y-1428571D02*
X176309523Y-1428571D01*
X176309523Y-1952380D02*
X176309523Y-952380D01*
X177214285Y-952380D02*
X177023809Y-952380D01*
X176928571Y-1000000D01*
X176880952Y-1047619D01*
X176785714Y-1190476D01*
X176738095Y-1380952D01*
X176738095Y-1761904D01*
X176785714Y-1857142D01*
X176833333Y-1904761D01*
X176928571Y-1952380D01*
X177119047Y-1952380D01*
X177214285Y-1904761D01*
X177261904Y-1857142D01*
X177309523Y-1761904D01*
X177309523Y-1523809D01*
X177261904Y-1428571D01*
X177214285Y-1380952D01*
X177119047Y-1333333D01*
X176928571Y-1333333D01*
X176833333Y-1380952D01*
X176785714Y-1428571D01*
X176738095Y-1523809D01*
X128940476Y34247619D02*
X128940476Y33533333D01*
X128892857Y33390476D01*
X128797619Y33295238D01*
X128654761Y33247619D01*
X128559523Y33247619D01*
X129369047Y34152380D02*
X129416666Y34200000D01*
X129511904Y34247619D01*
X129750000Y34247619D01*
X129845238Y34200000D01*
X129892857Y34152380D01*
X129940476Y34057142D01*
X129940476Y33961904D01*
X129892857Y33819047D01*
X129321428Y33247619D01*
X129940476Y33247619D01*
X130559523Y34247619D02*
X130654761Y34247619D01*
X130750000Y34200000D01*
X130797619Y34152380D01*
X130845238Y34057142D01*
X130892857Y33866666D01*
X130892857Y33628571D01*
X130845238Y33438095D01*
X130797619Y33342857D01*
X130750000Y33295238D01*
X130654761Y33247619D01*
X130559523Y33247619D01*
X130464285Y33295238D01*
X130416666Y33342857D01*
X130369047Y33438095D01*
X130321428Y33628571D01*
X130321428Y33866666D01*
X130369047Y34057142D01*
X130416666Y34152380D01*
X130464285Y34200000D01*
X130559523Y34247619D01*
X158452380Y10761904D02*
X157452380Y10761904D01*
X157452380Y11000000D01*
X157500000Y11142857D01*
X157595238Y11238095D01*
X157690476Y11285714D01*
X157880952Y11333333D01*
X158023809Y11333333D01*
X158214285Y11285714D01*
X158309523Y11238095D01*
X158404761Y11142857D01*
X158452380Y11000000D01*
X158452380Y10761904D01*
X158452380Y11809523D02*
X158452380Y12000000D01*
X158404761Y12095238D01*
X158357142Y12142857D01*
X158214285Y12238095D01*
X158023809Y12285714D01*
X157642857Y12285714D01*
X157547619Y12238095D01*
X157500000Y12190476D01*
X157452380Y12095238D01*
X157452380Y11904761D01*
X157500000Y11809523D01*
X157547619Y11761904D01*
X157642857Y11714285D01*
X157880952Y11714285D01*
X157976190Y11761904D01*
X158023809Y11809523D01*
X158071428Y11904761D01*
X158071428Y12095238D01*
X158023809Y12190476D01*
X157976190Y12238095D01*
X157880952Y12285714D01*
X160352380Y7635714D02*
X160352380Y7064285D01*
X160352380Y7350000D02*
X159352380Y7350000D01*
X159495238Y7254761D01*
X159590476Y7159523D01*
X159638095Y7064285D01*
X102690476Y34247619D02*
X102690476Y33533333D01*
X102642857Y33390476D01*
X102547619Y33295238D01*
X102404761Y33247619D01*
X102309523Y33247619D01*
X103690476Y33247619D02*
X103119047Y33247619D01*
X103404761Y33247619D02*
X103404761Y34247619D01*
X103309523Y34104761D01*
X103214285Y34009523D01*
X103119047Y33961904D01*
X104023809Y34247619D02*
X104690476Y34247619D01*
X104261904Y33247619D01*
X75607142Y-16142857D02*
X75654761Y-16190476D01*
X75702380Y-16333333D01*
X75702380Y-16428571D01*
X75654761Y-16571428D01*
X75559523Y-16666666D01*
X75464285Y-16714285D01*
X75273809Y-16761904D01*
X75130952Y-16761904D01*
X74940476Y-16714285D01*
X74845238Y-16666666D01*
X74750000Y-16571428D01*
X74702380Y-16428571D01*
X74702380Y-16333333D01*
X74750000Y-16190476D01*
X74797619Y-16142857D01*
X74797619Y-15761904D02*
X74750000Y-15714285D01*
X74702380Y-15619047D01*
X74702380Y-15380952D01*
X74750000Y-15285714D01*
X74797619Y-15238095D01*
X74892857Y-15190476D01*
X74988095Y-15190476D01*
X75130952Y-15238095D01*
X75702380Y-15809523D01*
X75702380Y-15190476D01*
X75130952Y-14619047D02*
X75083333Y-14714285D01*
X75035714Y-14761904D01*
X74940476Y-14809523D01*
X74892857Y-14809523D01*
X74797619Y-14761904D01*
X74750000Y-14714285D01*
X74702380Y-14619047D01*
X74702380Y-14428571D01*
X74750000Y-14333333D01*
X74797619Y-14285714D01*
X74892857Y-14238095D01*
X74940476Y-14238095D01*
X75035714Y-14285714D01*
X75083333Y-14333333D01*
X75130952Y-14428571D01*
X75130952Y-14619047D01*
X75178571Y-14714285D01*
X75226190Y-14761904D01*
X75321428Y-14809523D01*
X75511904Y-14809523D01*
X75607142Y-14761904D01*
X75654761Y-14714285D01*
X75702380Y-14619047D01*
X75702380Y-14428571D01*
X75654761Y-14333333D01*
X75607142Y-14285714D01*
X75511904Y-14238095D01*
X75321428Y-14238095D01*
X75226190Y-14285714D01*
X75178571Y-14333333D01*
X75130952Y-14428571D01*
X63440476Y31047619D02*
X63440476Y30333333D01*
X63392857Y30190476D01*
X63297619Y30095238D01*
X63154761Y30047619D01*
X63059523Y30047619D01*
X64440476Y30047619D02*
X63869047Y30047619D01*
X64154761Y30047619D02*
X64154761Y31047619D01*
X64059523Y30904761D01*
X63964285Y30809523D01*
X63869047Y30761904D01*
X64773809Y31047619D02*
X65392857Y31047619D01*
X65059523Y30666666D01*
X65202380Y30666666D01*
X65297619Y30619047D01*
X65345238Y30571428D01*
X65392857Y30476190D01*
X65392857Y30238095D01*
X65345238Y30142857D01*
X65297619Y30095238D01*
X65202380Y30047619D01*
X64916666Y30047619D01*
X64821428Y30095238D01*
X64773809Y30142857D01*
X119272380Y19333333D02*
X118796190Y19000000D01*
X119272380Y18761904D02*
X118272380Y18761904D01*
X118272380Y19142857D01*
X118320000Y19238095D01*
X118367619Y19285714D01*
X118462857Y19333333D01*
X118605714Y19333333D01*
X118700952Y19285714D01*
X118748571Y19238095D01*
X118796190Y19142857D01*
X118796190Y18761904D01*
X119272380Y19809523D02*
X119272380Y20000000D01*
X119224761Y20095238D01*
X119177142Y20142857D01*
X119034285Y20238095D01*
X118843809Y20285714D01*
X118462857Y20285714D01*
X118367619Y20238095D01*
X118320000Y20190476D01*
X118272380Y20095238D01*
X118272380Y19904761D01*
X118320000Y19809523D01*
X118367619Y19761904D01*
X118462857Y19714285D01*
X118700952Y19714285D01*
X118796190Y19761904D01*
X118843809Y19809523D01*
X118891428Y19904761D01*
X118891428Y20095238D01*
X118843809Y20190476D01*
X118796190Y20238095D01*
X118700952Y20285714D01*
X100190476Y-33902380D02*
X100190476Y-34616666D01*
X100142857Y-34759523D01*
X100047619Y-34854761D01*
X99904761Y-34902380D01*
X99809523Y-34902380D01*
X101190476Y-34902380D02*
X100619047Y-34902380D01*
X100904761Y-34902380D02*
X100904761Y-33902380D01*
X100809523Y-34045238D01*
X100714285Y-34140476D01*
X100619047Y-34188095D01*
X102095238Y-33902380D02*
X101619047Y-33902380D01*
X101571428Y-34378571D01*
X101619047Y-34330952D01*
X101714285Y-34283333D01*
X101952380Y-34283333D01*
X102047619Y-34330952D01*
X102095238Y-34378571D01*
X102142857Y-34473809D01*
X102142857Y-34711904D01*
X102095238Y-34807142D01*
X102047619Y-34854761D01*
X101952380Y-34902380D01*
X101714285Y-34902380D01*
X101619047Y-34854761D01*
X101571428Y-34807142D01*
X60238095Y32547619D02*
X60238095Y33547619D01*
X60238095Y33071428D02*
X60809523Y33071428D01*
X60809523Y32547619D02*
X60809523Y33547619D01*
X61714285Y33214285D02*
X61714285Y32547619D01*
X61476190Y33595238D02*
X61238095Y32880952D01*
X61857142Y32880952D01*
X125357142Y-14952380D02*
X125023809Y-14476190D01*
X124785714Y-14952380D02*
X124785714Y-13952380D01*
X125166666Y-13952380D01*
X125261904Y-14000000D01*
X125309523Y-14047619D01*
X125357142Y-14142857D01*
X125357142Y-14285714D01*
X125309523Y-14380952D01*
X125261904Y-14428571D01*
X125166666Y-14476190D01*
X124785714Y-14476190D01*
X126309523Y-14952380D02*
X125738095Y-14952380D01*
X126023809Y-14952380D02*
X126023809Y-13952380D01*
X125928571Y-14095238D01*
X125833333Y-14190476D01*
X125738095Y-14238095D01*
X126785714Y-14952380D02*
X126976190Y-14952380D01*
X127071428Y-14904761D01*
X127119047Y-14857142D01*
X127214285Y-14714285D01*
X127261904Y-14523809D01*
X127261904Y-14142857D01*
X127214285Y-14047619D01*
X127166666Y-14000000D01*
X127071428Y-13952380D01*
X126880952Y-13952380D01*
X126785714Y-14000000D01*
X126738095Y-14047619D01*
X126690476Y-14142857D01*
X126690476Y-14380952D01*
X126738095Y-14476190D01*
X126785714Y-14523809D01*
X126880952Y-14571428D01*
X127071428Y-14571428D01*
X127166666Y-14523809D01*
X127214285Y-14476190D01*
X127261904Y-14380952D01*
X132857142Y10142857D02*
X132809523Y10095238D01*
X132666666Y10047619D01*
X132571428Y10047619D01*
X132428571Y10095238D01*
X132333333Y10190476D01*
X132285714Y10285714D01*
X132238095Y10476190D01*
X132238095Y10619047D01*
X132285714Y10809523D01*
X132333333Y10904761D01*
X132428571Y11000000D01*
X132571428Y11047619D01*
X132666666Y11047619D01*
X132809523Y11000000D01*
X132857142Y10952380D01*
X133714285Y10714285D02*
X133714285Y10047619D01*
X133476190Y11095238D02*
X133238095Y10380952D01*
X133857142Y10380952D01*
X134142857Y11047619D02*
X134761904Y11047619D01*
X134428571Y10666666D01*
X134571428Y10666666D01*
X134666666Y10619047D01*
X134714285Y10571428D01*
X134761904Y10476190D01*
X134761904Y10238095D01*
X134714285Y10142857D01*
X134666666Y10095238D01*
X134571428Y10047619D01*
X134285714Y10047619D01*
X134190476Y10095238D01*
X134142857Y10142857D01*
X125857142Y-18857142D02*
X125809523Y-18904761D01*
X125666666Y-18952380D01*
X125571428Y-18952380D01*
X125428571Y-18904761D01*
X125333333Y-18809523D01*
X125285714Y-18714285D01*
X125238095Y-18523809D01*
X125238095Y-18380952D01*
X125285714Y-18190476D01*
X125333333Y-18095238D01*
X125428571Y-18000000D01*
X125571428Y-17952380D01*
X125666666Y-17952380D01*
X125809523Y-18000000D01*
X125857142Y-18047619D01*
X126190476Y-17952380D02*
X126809523Y-17952380D01*
X126476190Y-18333333D01*
X126619047Y-18333333D01*
X126714285Y-18380952D01*
X126761904Y-18428571D01*
X126809523Y-18523809D01*
X126809523Y-18761904D01*
X126761904Y-18857142D01*
X126714285Y-18904761D01*
X126619047Y-18952380D01*
X126333333Y-18952380D01*
X126238095Y-18904761D01*
X126190476Y-18857142D01*
X127666666Y-18285714D02*
X127666666Y-18952380D01*
X127428571Y-17904761D02*
X127190476Y-18619047D01*
X127809523Y-18619047D01*
X125857142Y-10357142D02*
X125809523Y-10404761D01*
X125666666Y-10452380D01*
X125571428Y-10452380D01*
X125428571Y-10404761D01*
X125333333Y-10309523D01*
X125285714Y-10214285D01*
X125238095Y-10023809D01*
X125238095Y-9880952D01*
X125285714Y-9690476D01*
X125333333Y-9595238D01*
X125428571Y-9500000D01*
X125571428Y-9452380D01*
X125666666Y-9452380D01*
X125809523Y-9500000D01*
X125857142Y-9547619D01*
X126190476Y-9452380D02*
X126809523Y-9452380D01*
X126476190Y-9833333D01*
X126619047Y-9833333D01*
X126714285Y-9880952D01*
X126761904Y-9928571D01*
X126809523Y-10023809D01*
X126809523Y-10261904D01*
X126761904Y-10357142D01*
X126714285Y-10404761D01*
X126619047Y-10452380D01*
X126333333Y-10452380D01*
X126238095Y-10404761D01*
X126190476Y-10357142D01*
X127190476Y-9547619D02*
X127238095Y-9500000D01*
X127333333Y-9452380D01*
X127571428Y-9452380D01*
X127666666Y-9500000D01*
X127714285Y-9547619D01*
X127761904Y-9642857D01*
X127761904Y-9738095D01*
X127714285Y-9880952D01*
X127142857Y-10452380D01*
X127761904Y-10452380D01*
X123357142Y21117619D02*
X123023809Y21593809D01*
X122785714Y21117619D02*
X122785714Y22117619D01*
X123166666Y22117619D01*
X123261904Y22070000D01*
X123309523Y22022380D01*
X123357142Y21927142D01*
X123357142Y21784285D01*
X123309523Y21689047D01*
X123261904Y21641428D01*
X123166666Y21593809D01*
X122785714Y21593809D01*
X124309523Y21117619D02*
X123738095Y21117619D01*
X124023809Y21117619D02*
X124023809Y22117619D01*
X123928571Y21974761D01*
X123833333Y21879523D01*
X123738095Y21831904D01*
X124642857Y22117619D02*
X125261904Y22117619D01*
X124928571Y21736666D01*
X125071428Y21736666D01*
X125166666Y21689047D01*
X125214285Y21641428D01*
X125261904Y21546190D01*
X125261904Y21308095D01*
X125214285Y21212857D01*
X125166666Y21165238D01*
X125071428Y21117619D01*
X124785714Y21117619D01*
X124690476Y21165238D01*
X124642857Y21212857D01*
X98857142Y11142857D02*
X98809523Y11095238D01*
X98666666Y11047619D01*
X98571428Y11047619D01*
X98428571Y11095238D01*
X98333333Y11190476D01*
X98285714Y11285714D01*
X98238095Y11476190D01*
X98238095Y11619047D01*
X98285714Y11809523D01*
X98333333Y11904761D01*
X98428571Y12000000D01*
X98571428Y12047619D01*
X98666666Y12047619D01*
X98809523Y12000000D01*
X98857142Y11952380D01*
X99190476Y12047619D02*
X99809523Y12047619D01*
X99476190Y11666666D01*
X99619047Y11666666D01*
X99714285Y11619047D01*
X99761904Y11571428D01*
X99809523Y11476190D01*
X99809523Y11238095D01*
X99761904Y11142857D01*
X99714285Y11095238D01*
X99619047Y11047619D01*
X99333333Y11047619D01*
X99238095Y11095238D01*
X99190476Y11142857D01*
X100285714Y11047619D02*
X100476190Y11047619D01*
X100571428Y11095238D01*
X100619047Y11142857D01*
X100714285Y11285714D01*
X100761904Y11476190D01*
X100761904Y11857142D01*
X100714285Y11952380D01*
X100666666Y12000000D01*
X100571428Y12047619D01*
X100380952Y12047619D01*
X100285714Y12000000D01*
X100238095Y11952380D01*
X100190476Y11857142D01*
X100190476Y11619047D01*
X100238095Y11523809D01*
X100285714Y11476190D01*
X100380952Y11428571D01*
X100571428Y11428571D01*
X100666666Y11476190D01*
X100714285Y11523809D01*
X100761904Y11619047D01*
X94857142Y12747722D02*
X94904761Y12700103D01*
X94952380Y12557246D01*
X94952380Y12462008D01*
X94904761Y12319151D01*
X94809523Y12223913D01*
X94714285Y12176294D01*
X94523809Y12128675D01*
X94380952Y12128675D01*
X94190476Y12176294D01*
X94095238Y12223913D01*
X94000000Y12319151D01*
X93952380Y12462008D01*
X93952380Y12557246D01*
X94000000Y12700103D01*
X94047619Y12747722D01*
X94285714Y13604865D02*
X94952380Y13604865D01*
X93904761Y13366770D02*
X94619047Y13128675D01*
X94619047Y13747722D01*
X93952380Y14319151D02*
X93952380Y14414389D01*
X94000000Y14509627D01*
X94047619Y14557246D01*
X94142857Y14604865D01*
X94333333Y14652484D01*
X94571428Y14652484D01*
X94761904Y14604865D01*
X94857142Y14557246D01*
X94904761Y14509627D01*
X94952380Y14414389D01*
X94952380Y14319151D01*
X94904761Y14223913D01*
X94857142Y14176294D01*
X94761904Y14128675D01*
X94571428Y14081056D01*
X94333333Y14081056D01*
X94142857Y14128675D01*
X94047619Y14176294D01*
X94000000Y14223913D01*
X93952380Y14319151D01*
X102607142Y-822380D02*
X102273809Y-346190D01*
X102035714Y-822380D02*
X102035714Y177619D01*
X102416666Y177619D01*
X102511904Y130000D01*
X102559523Y82380D01*
X102607142Y-12857D01*
X102607142Y-155714D01*
X102559523Y-250952D01*
X102511904Y-298571D01*
X102416666Y-346190D01*
X102035714Y-346190D01*
X103559523Y-822380D02*
X102988095Y-822380D01*
X103273809Y-822380D02*
X103273809Y177619D01*
X103178571Y34761D01*
X103083333Y-60476D01*
X102988095Y-108095D01*
X103892857Y177619D02*
X104559523Y177619D01*
X104130952Y-822380D01*
X91190476Y34247619D02*
X91190476Y33533333D01*
X91142857Y33390476D01*
X91047619Y33295238D01*
X90904761Y33247619D01*
X90809523Y33247619D01*
X92190476Y33247619D02*
X91619047Y33247619D01*
X91904761Y33247619D02*
X91904761Y34247619D01*
X91809523Y34104761D01*
X91714285Y34009523D01*
X91619047Y33961904D01*
X92761904Y33819047D02*
X92666666Y33866666D01*
X92619047Y33914285D01*
X92571428Y34009523D01*
X92571428Y34057142D01*
X92619047Y34152380D01*
X92666666Y34200000D01*
X92761904Y34247619D01*
X92952380Y34247619D01*
X93047619Y34200000D01*
X93095238Y34152380D01*
X93142857Y34057142D01*
X93142857Y34009523D01*
X93095238Y33914285D01*
X93047619Y33866666D01*
X92952380Y33819047D01*
X92761904Y33819047D01*
X92666666Y33771428D01*
X92619047Y33723809D01*
X92571428Y33628571D01*
X92571428Y33438095D01*
X92619047Y33342857D01*
X92666666Y33295238D01*
X92761904Y33247619D01*
X92952380Y33247619D01*
X93047619Y33295238D01*
X93095238Y33342857D01*
X93142857Y33438095D01*
X93142857Y33628571D01*
X93095238Y33723809D01*
X93047619Y33771428D01*
X92952380Y33819047D01*
X165952380Y-714285D02*
X164952380Y-714285D01*
X164952380Y-476190D01*
X165000000Y-333333D01*
X165095238Y-238095D01*
X165190476Y-190476D01*
X165380952Y-142857D01*
X165523809Y-142857D01*
X165714285Y-190476D01*
X165809523Y-238095D01*
X165904761Y-333333D01*
X165952380Y-476190D01*
X165952380Y-714285D01*
X165952380Y809523D02*
X165952380Y238095D01*
X165952380Y523809D02*
X164952380Y523809D01*
X165095238Y428571D01*
X165190476Y333333D01*
X165238095Y238095D01*
X164952380Y1428571D02*
X164952380Y1523809D01*
X165000000Y1619047D01*
X165047619Y1666666D01*
X165142857Y1714285D01*
X165333333Y1761904D01*
X165571428Y1761904D01*
X165761904Y1714285D01*
X165857142Y1666666D01*
X165904761Y1619047D01*
X165952380Y1523809D01*
X165952380Y1428571D01*
X165904761Y1333333D01*
X165857142Y1285714D01*
X165761904Y1238095D01*
X165571428Y1190476D01*
X165333333Y1190476D01*
X165142857Y1238095D01*
X165047619Y1285714D01*
X165000000Y1333333D01*
X164952380Y1428571D01*
X167852380Y-3364285D02*
X167852380Y-3935714D01*
X167852380Y-3650000D02*
X166852380Y-3650000D01*
X166995238Y-3745238D01*
X167090476Y-3840476D01*
X167138095Y-3935714D01*
X152952380Y21261904D02*
X151952380Y21261904D01*
X151952380Y21500000D01*
X152000000Y21642857D01*
X152095238Y21738095D01*
X152190476Y21785714D01*
X152380952Y21833333D01*
X152523809Y21833333D01*
X152714285Y21785714D01*
X152809523Y21738095D01*
X152904761Y21642857D01*
X152952380Y21500000D01*
X152952380Y21261904D01*
X152380952Y22404761D02*
X152333333Y22309523D01*
X152285714Y22261904D01*
X152190476Y22214285D01*
X152142857Y22214285D01*
X152047619Y22261904D01*
X152000000Y22309523D01*
X151952380Y22404761D01*
X151952380Y22595238D01*
X152000000Y22690476D01*
X152047619Y22738095D01*
X152142857Y22785714D01*
X152190476Y22785714D01*
X152285714Y22738095D01*
X152333333Y22690476D01*
X152380952Y22595238D01*
X152380952Y22404761D01*
X152428571Y22309523D01*
X152476190Y22261904D01*
X152571428Y22214285D01*
X152761904Y22214285D01*
X152857142Y22261904D01*
X152904761Y22309523D01*
X152952380Y22404761D01*
X152952380Y22595238D01*
X152904761Y22690476D01*
X152857142Y22738095D01*
X152761904Y22785714D01*
X152571428Y22785714D01*
X152476190Y22738095D01*
X152428571Y22690476D01*
X152380952Y22595238D01*
X154852380Y18135714D02*
X154852380Y17564285D01*
X154852380Y17850000D02*
X153852380Y17850000D01*
X153995238Y17754761D01*
X154090476Y17659523D01*
X154138095Y17564285D01*
X125857142Y-12357142D02*
X125809523Y-12404761D01*
X125666666Y-12452380D01*
X125571428Y-12452380D01*
X125428571Y-12404761D01*
X125333333Y-12309523D01*
X125285714Y-12214285D01*
X125238095Y-12023809D01*
X125238095Y-11880952D01*
X125285714Y-11690476D01*
X125333333Y-11595238D01*
X125428571Y-11500000D01*
X125571428Y-11452380D01*
X125666666Y-11452380D01*
X125809523Y-11500000D01*
X125857142Y-11547619D01*
X126190476Y-11452380D02*
X126809523Y-11452380D01*
X126476190Y-11833333D01*
X126619047Y-11833333D01*
X126714285Y-11880952D01*
X126761904Y-11928571D01*
X126809523Y-12023809D01*
X126809523Y-12261904D01*
X126761904Y-12357142D01*
X126714285Y-12404761D01*
X126619047Y-12452380D01*
X126333333Y-12452380D01*
X126238095Y-12404761D01*
X126190476Y-12357142D01*
X127142857Y-11452380D02*
X127761904Y-11452380D01*
X127428571Y-11833333D01*
X127571428Y-11833333D01*
X127666666Y-11880952D01*
X127714285Y-11928571D01*
X127761904Y-12023809D01*
X127761904Y-12261904D01*
X127714285Y-12357142D01*
X127666666Y-12404761D01*
X127571428Y-12452380D01*
X127285714Y-12452380D01*
X127190476Y-12404761D01*
X127142857Y-12357142D01*
X119882380Y2433333D02*
X119882380Y1957142D01*
X118882380Y1957142D01*
X118977619Y2719047D02*
X118930000Y2766666D01*
X118882380Y2861904D01*
X118882380Y3100000D01*
X118930000Y3195238D01*
X118977619Y3242857D01*
X119072857Y3290476D01*
X119168095Y3290476D01*
X119310952Y3242857D01*
X119882380Y2671428D01*
X119882380Y3290476D01*
X125857142Y-20857142D02*
X125809523Y-20904761D01*
X125666666Y-20952380D01*
X125571428Y-20952380D01*
X125428571Y-20904761D01*
X125333333Y-20809523D01*
X125285714Y-20714285D01*
X125238095Y-20523809D01*
X125238095Y-20380952D01*
X125285714Y-20190476D01*
X125333333Y-20095238D01*
X125428571Y-20000000D01*
X125571428Y-19952380D01*
X125666666Y-19952380D01*
X125809523Y-20000000D01*
X125857142Y-20047619D01*
X126190476Y-19952380D02*
X126809523Y-19952380D01*
X126476190Y-20333333D01*
X126619047Y-20333333D01*
X126714285Y-20380952D01*
X126761904Y-20428571D01*
X126809523Y-20523809D01*
X126809523Y-20761904D01*
X126761904Y-20857142D01*
X126714285Y-20904761D01*
X126619047Y-20952380D01*
X126333333Y-20952380D01*
X126238095Y-20904761D01*
X126190476Y-20857142D01*
X127714285Y-19952380D02*
X127238095Y-19952380D01*
X127190476Y-20428571D01*
X127238095Y-20380952D01*
X127333333Y-20333333D01*
X127571428Y-20333333D01*
X127666666Y-20380952D01*
X127714285Y-20428571D01*
X127761904Y-20523809D01*
X127761904Y-20761904D01*
X127714285Y-20857142D01*
X127666666Y-20904761D01*
X127571428Y-20952380D01*
X127333333Y-20952380D01*
X127238095Y-20904761D01*
X127190476Y-20857142D01*
X99702380Y-108095D02*
X100511904Y-108095D01*
X100607142Y-60476D01*
X100654761Y-12857D01*
X100702380Y82380D01*
X100702380Y272857D01*
X100654761Y368095D01*
X100607142Y415714D01*
X100511904Y463333D01*
X99702380Y463333D01*
X100702380Y1463333D02*
X100702380Y891904D01*
X100702380Y1177619D02*
X99702380Y1177619D01*
X99845238Y1082380D01*
X99940476Y987142D01*
X99988095Y891904D01*
X99702380Y1796666D02*
X99702380Y2415714D01*
X100083333Y2082380D01*
X100083333Y2225238D01*
X100130952Y2320476D01*
X100178571Y2368095D01*
X100273809Y2415714D01*
X100511904Y2415714D01*
X100607142Y2368095D01*
X100654761Y2320476D01*
X100702380Y2225238D01*
X100702380Y1939523D01*
X100654761Y1844285D01*
X100607142Y1796666D01*
X117761904Y10147619D02*
X117761904Y9338095D01*
X117809523Y9242857D01*
X117857142Y9195238D01*
X117952380Y9147619D01*
X118142857Y9147619D01*
X118238095Y9195238D01*
X118285714Y9242857D01*
X118333333Y9338095D01*
X118333333Y10147619D01*
X119333333Y9147619D02*
X118761904Y9147619D01*
X119047619Y9147619D02*
X119047619Y10147619D01*
X118952380Y10004761D01*
X118857142Y9909523D01*
X118761904Y9861904D01*
X120285714Y9147619D02*
X119714285Y9147619D01*
X120000000Y9147619D02*
X120000000Y10147619D01*
X119904761Y10004761D01*
X119809523Y9909523D01*
X119714285Y9861904D01*
X93607142Y-2727142D02*
X93559523Y-2774761D01*
X93416666Y-2822380D01*
X93321428Y-2822380D01*
X93178571Y-2774761D01*
X93083333Y-2679523D01*
X93035714Y-2584285D01*
X92988095Y-2393809D01*
X92988095Y-2250952D01*
X93035714Y-2060476D01*
X93083333Y-1965238D01*
X93178571Y-1870000D01*
X93321428Y-1822380D01*
X93416666Y-1822380D01*
X93559523Y-1870000D01*
X93607142Y-1917619D01*
X93940476Y-1822380D02*
X94559523Y-1822380D01*
X94226190Y-2203333D01*
X94369047Y-2203333D01*
X94464285Y-2250952D01*
X94511904Y-2298571D01*
X94559523Y-2393809D01*
X94559523Y-2631904D01*
X94511904Y-2727142D01*
X94464285Y-2774761D01*
X94369047Y-2822380D01*
X94083333Y-2822380D01*
X93988095Y-2774761D01*
X93940476Y-2727142D01*
X95416666Y-1822380D02*
X95226190Y-1822380D01*
X95130952Y-1870000D01*
X95083333Y-1917619D01*
X94988095Y-2060476D01*
X94940476Y-2250952D01*
X94940476Y-2631904D01*
X94988095Y-2727142D01*
X95035714Y-2774761D01*
X95130952Y-2822380D01*
X95321428Y-2822380D01*
X95416666Y-2774761D01*
X95464285Y-2727142D01*
X95511904Y-2631904D01*
X95511904Y-2393809D01*
X95464285Y-2298571D01*
X95416666Y-2250952D01*
X95321428Y-2203333D01*
X95130952Y-2203333D01*
X95035714Y-2250952D01*
X94988095Y-2298571D01*
X94940476Y-2393809D01*
X125357142Y-5857142D02*
X125309523Y-5904761D01*
X125166666Y-5952380D01*
X125071428Y-5952380D01*
X124928571Y-5904761D01*
X124833333Y-5809523D01*
X124785714Y-5714285D01*
X124738095Y-5523809D01*
X124738095Y-5380952D01*
X124785714Y-5190476D01*
X124833333Y-5095238D01*
X124928571Y-5000000D01*
X125071428Y-4952380D01*
X125166666Y-4952380D01*
X125309523Y-5000000D01*
X125357142Y-5047619D01*
X125690476Y-4952380D02*
X126309523Y-4952380D01*
X125976190Y-5333333D01*
X126119047Y-5333333D01*
X126214285Y-5380952D01*
X126261904Y-5428571D01*
X126309523Y-5523809D01*
X126309523Y-5761904D01*
X126261904Y-5857142D01*
X126214285Y-5904761D01*
X126119047Y-5952380D01*
X125833333Y-5952380D01*
X125738095Y-5904761D01*
X125690476Y-5857142D01*
X126928571Y-4952380D02*
X127023809Y-4952380D01*
X127119047Y-5000000D01*
X127166666Y-5047619D01*
X127214285Y-5142857D01*
X127261904Y-5333333D01*
X127261904Y-5571428D01*
X127214285Y-5761904D01*
X127166666Y-5857142D01*
X127119047Y-5904761D01*
X127023809Y-5952380D01*
X126928571Y-5952380D01*
X126833333Y-5904761D01*
X126785714Y-5857142D01*
X126738095Y-5761904D01*
X126690476Y-5571428D01*
X126690476Y-5333333D01*
X126738095Y-5142857D01*
X126785714Y-5047619D01*
X126833333Y-5000000D01*
X126928571Y-4952380D01*
X120761904Y22447619D02*
X120761904Y21638095D01*
X120809523Y21542857D01*
X120857142Y21495238D01*
X120952380Y21447619D01*
X121142857Y21447619D01*
X121238095Y21495238D01*
X121285714Y21542857D01*
X121333333Y21638095D01*
X121333333Y22447619D01*
X122333333Y21447619D02*
X121761904Y21447619D01*
X122047619Y21447619D02*
X122047619Y22447619D01*
X121952380Y22304761D01*
X121857142Y22209523D01*
X121761904Y22161904D01*
X122952380Y22447619D02*
X123047619Y22447619D01*
X123142857Y22400000D01*
X123190476Y22352380D01*
X123238095Y22257142D01*
X123285714Y22066666D01*
X123285714Y21828571D01*
X123238095Y21638095D01*
X123190476Y21542857D01*
X123142857Y21495238D01*
X123047619Y21447619D01*
X122952380Y21447619D01*
X122857142Y21495238D01*
X122809523Y21542857D01*
X122761904Y21638095D01*
X122714285Y21828571D01*
X122714285Y22066666D01*
X122761904Y22257142D01*
X122809523Y22352380D01*
X122857142Y22400000D01*
X122952380Y22447619D01*
X123857142Y4147619D02*
X123523809Y4623809D01*
X123285714Y4147619D02*
X123285714Y5147619D01*
X123666666Y5147619D01*
X123761904Y5100000D01*
X123809523Y5052380D01*
X123857142Y4957142D01*
X123857142Y4814285D01*
X123809523Y4719047D01*
X123761904Y4671428D01*
X123666666Y4623809D01*
X123285714Y4623809D01*
X124809523Y4147619D02*
X124238095Y4147619D01*
X124523809Y4147619D02*
X124523809Y5147619D01*
X124428571Y5004761D01*
X124333333Y4909523D01*
X124238095Y4861904D01*
X125666666Y4814285D02*
X125666666Y4147619D01*
X125428571Y5195238D02*
X125190476Y4480952D01*
X125809523Y4480952D01*
X115440476Y34247619D02*
X115440476Y33533333D01*
X115392857Y33390476D01*
X115297619Y33295238D01*
X115154761Y33247619D01*
X115059523Y33247619D01*
X116440476Y33247619D02*
X115869047Y33247619D01*
X116154761Y33247619D02*
X116154761Y34247619D01*
X116059523Y34104761D01*
X115964285Y34009523D01*
X115869047Y33961904D01*
X116821428Y34152380D02*
X116869047Y34200000D01*
X116964285Y34247619D01*
X117202380Y34247619D01*
X117297619Y34200000D01*
X117345238Y34152380D01*
X117392857Y34057142D01*
X117392857Y33961904D01*
X117345238Y33819047D01*
X116773809Y33247619D01*
X117392857Y33247619D01*
X63132280Y-64659704D02*
X63941804Y-64659704D01*
X64037042Y-64612085D01*
X64084661Y-64564466D01*
X64132280Y-64469228D01*
X64132280Y-64278752D01*
X64084661Y-64183514D01*
X64037042Y-64135895D01*
X63941804Y-64088276D01*
X63132280Y-64088276D01*
X63227519Y-63659704D02*
X63179900Y-63612085D01*
X63132280Y-63516847D01*
X63132280Y-63278752D01*
X63179900Y-63183514D01*
X63227519Y-63135895D01*
X63322757Y-63088276D01*
X63417995Y-63088276D01*
X63560852Y-63135895D01*
X64132280Y-63707323D01*
X64132280Y-63088276D01*
X91333333Y-104772380D02*
X90857142Y-104772380D01*
X90857142Y-103772380D01*
X92190476Y-104772380D02*
X91619047Y-104772380D01*
X91904761Y-104772380D02*
X91904761Y-103772380D01*
X91809523Y-103915238D01*
X91714285Y-104010476D01*
X91619047Y-104058095D01*
X192238095Y-44452380D02*
X192238095Y-43452380D01*
X192238095Y-43928571D02*
X192809523Y-43928571D01*
X192809523Y-44452380D02*
X192809523Y-43452380D01*
X193809523Y-44452380D02*
X193238095Y-44452380D01*
X193523809Y-44452380D02*
X193523809Y-43452380D01*
X193428571Y-43595238D01*
X193333333Y-43690476D01*
X193238095Y-43738095D01*
X74746566Y-72830180D02*
X74746566Y-73544466D01*
X74698947Y-73687323D01*
X74603709Y-73782561D01*
X74460852Y-73830180D01*
X74365614Y-73830180D01*
X75270376Y-73830180D02*
X75460852Y-73830180D01*
X75556090Y-73782561D01*
X75603709Y-73734942D01*
X75698947Y-73592085D01*
X75746566Y-73401609D01*
X75746566Y-73020657D01*
X75698947Y-72925419D01*
X75651328Y-72877800D01*
X75556090Y-72830180D01*
X75365614Y-72830180D01*
X75270376Y-72877800D01*
X75222757Y-72925419D01*
X75175138Y-73020657D01*
X75175138Y-73258752D01*
X75222757Y-73353990D01*
X75270376Y-73401609D01*
X75365614Y-73449228D01*
X75556090Y-73449228D01*
X75651328Y-73401609D01*
X75698947Y-73353990D01*
X75746566Y-73258752D01*
X65357142Y-98927142D02*
X65309523Y-98974761D01*
X65166666Y-99022380D01*
X65071428Y-99022380D01*
X64928571Y-98974761D01*
X64833333Y-98879523D01*
X64785714Y-98784285D01*
X64738095Y-98593809D01*
X64738095Y-98450952D01*
X64785714Y-98260476D01*
X64833333Y-98165238D01*
X64928571Y-98070000D01*
X65071428Y-98022380D01*
X65166666Y-98022380D01*
X65309523Y-98070000D01*
X65357142Y-98117619D01*
X66309523Y-99022380D02*
X65738095Y-99022380D01*
X66023809Y-99022380D02*
X66023809Y-98022380D01*
X65928571Y-98165238D01*
X65833333Y-98260476D01*
X65738095Y-98308095D01*
X67166666Y-98022380D02*
X66976190Y-98022380D01*
X66880952Y-98070000D01*
X66833333Y-98117619D01*
X66738095Y-98260476D01*
X66690476Y-98450952D01*
X66690476Y-98831904D01*
X66738095Y-98927142D01*
X66785714Y-98974761D01*
X66880952Y-99022380D01*
X67071428Y-99022380D01*
X67166666Y-98974761D01*
X67214285Y-98927142D01*
X67261904Y-98831904D01*
X67261904Y-98593809D01*
X67214285Y-98498571D01*
X67166666Y-98450952D01*
X67071428Y-98403333D01*
X66880952Y-98403333D01*
X66785714Y-98450952D01*
X66738095Y-98498571D01*
X66690476Y-98593809D01*
X107177995Y-72630180D02*
X107749423Y-72630180D01*
X107463709Y-73630180D02*
X107463709Y-72630180D01*
X108082757Y-73630180D02*
X108082757Y-72630180D01*
X108463709Y-72630180D01*
X108558947Y-72677800D01*
X108606566Y-72725419D01*
X108654185Y-72820657D01*
X108654185Y-72963514D01*
X108606566Y-73058752D01*
X108558947Y-73106371D01*
X108463709Y-73153990D01*
X108082757Y-73153990D01*
X109558947Y-72630180D02*
X109082757Y-72630180D01*
X109035138Y-73106371D01*
X109082757Y-73058752D01*
X109177995Y-73011133D01*
X109416090Y-73011133D01*
X109511328Y-73058752D01*
X109558947Y-73106371D01*
X109606566Y-73201609D01*
X109606566Y-73439704D01*
X109558947Y-73534942D01*
X109511328Y-73582561D01*
X109416090Y-73630180D01*
X109177995Y-73630180D01*
X109082757Y-73582561D01*
X109035138Y-73534942D01*
X125976804Y-102577380D02*
X125976804Y-101577380D01*
X126214900Y-101577380D01*
X126357757Y-101625000D01*
X126452995Y-101720238D01*
X126500614Y-101815476D01*
X126548233Y-102005952D01*
X126548233Y-102148809D01*
X126500614Y-102339285D01*
X126452995Y-102434523D01*
X126357757Y-102529761D01*
X126214900Y-102577380D01*
X125976804Y-102577380D01*
X127452995Y-101577380D02*
X126976804Y-101577380D01*
X126929185Y-102053571D01*
X126976804Y-102005952D01*
X127072042Y-101958333D01*
X127310138Y-101958333D01*
X127405376Y-102005952D01*
X127452995Y-102053571D01*
X127500614Y-102148809D01*
X127500614Y-102386904D01*
X127452995Y-102482142D01*
X127405376Y-102529761D01*
X127310138Y-102577380D01*
X127072042Y-102577380D01*
X126976804Y-102529761D01*
X126929185Y-102482142D01*
X122850614Y-104477380D02*
X122279185Y-104477380D01*
X122564900Y-104477380D02*
X122564900Y-103477380D01*
X122469661Y-103620238D01*
X122374423Y-103715476D01*
X122279185Y-103763095D01*
X183703433Y-81907142D02*
X183655814Y-81954761D01*
X183512957Y-82002380D01*
X183417719Y-82002380D01*
X183274861Y-81954761D01*
X183179623Y-81859523D01*
X183132004Y-81764285D01*
X183084385Y-81573809D01*
X183084385Y-81430952D01*
X183132004Y-81240476D01*
X183179623Y-81145238D01*
X183274861Y-81050000D01*
X183417719Y-81002380D01*
X183512957Y-81002380D01*
X183655814Y-81050000D01*
X183703433Y-81097619D01*
X184179623Y-82002380D02*
X184370100Y-82002380D01*
X184465338Y-81954761D01*
X184512957Y-81907142D01*
X184608195Y-81764285D01*
X184655814Y-81573809D01*
X184655814Y-81192857D01*
X184608195Y-81097619D01*
X184560576Y-81050000D01*
X184465338Y-81002380D01*
X184274861Y-81002380D01*
X184179623Y-81050000D01*
X184132004Y-81097619D01*
X184084385Y-81192857D01*
X184084385Y-81430952D01*
X184132004Y-81526190D01*
X184179623Y-81573809D01*
X184274861Y-81621428D01*
X184465338Y-81621428D01*
X184560576Y-81573809D01*
X184608195Y-81526190D01*
X184655814Y-81430952D01*
X85196566Y-72830180D02*
X85196566Y-73544466D01*
X85148947Y-73687323D01*
X85053709Y-73782561D01*
X84910852Y-73830180D01*
X84815614Y-73830180D01*
X86196566Y-73830180D02*
X85625138Y-73830180D01*
X85910852Y-73830180D02*
X85910852Y-72830180D01*
X85815614Y-72973038D01*
X85720376Y-73068276D01*
X85625138Y-73115895D01*
X90946566Y-39340180D02*
X90946566Y-40054466D01*
X90898947Y-40197323D01*
X90803709Y-40292561D01*
X90660852Y-40340180D01*
X90565614Y-40340180D01*
X91375138Y-39435419D02*
X91422757Y-39387800D01*
X91517995Y-39340180D01*
X91756090Y-39340180D01*
X91851328Y-39387800D01*
X91898947Y-39435419D01*
X91946566Y-39530657D01*
X91946566Y-39625895D01*
X91898947Y-39768752D01*
X91327519Y-40340180D01*
X91946566Y-40340180D01*
X134396804Y-95957380D02*
X134396804Y-94957380D01*
X134634900Y-94957380D01*
X134777757Y-95005000D01*
X134872995Y-95100238D01*
X134920614Y-95195476D01*
X134968233Y-95385952D01*
X134968233Y-95528809D01*
X134920614Y-95719285D01*
X134872995Y-95814523D01*
X134777757Y-95909761D01*
X134634900Y-95957380D01*
X134396804Y-95957380D01*
X135825376Y-94957380D02*
X135634900Y-94957380D01*
X135539661Y-95005000D01*
X135492042Y-95052619D01*
X135396804Y-95195476D01*
X135349185Y-95385952D01*
X135349185Y-95766904D01*
X135396804Y-95862142D01*
X135444423Y-95909761D01*
X135539661Y-95957380D01*
X135730138Y-95957380D01*
X135825376Y-95909761D01*
X135872995Y-95862142D01*
X135920614Y-95766904D01*
X135920614Y-95528809D01*
X135872995Y-95433571D01*
X135825376Y-95385952D01*
X135730138Y-95338333D01*
X135539661Y-95338333D01*
X135444423Y-95385952D01*
X135396804Y-95433571D01*
X135349185Y-95528809D01*
X131270614Y-97857380D02*
X130699185Y-97857380D01*
X130984900Y-97857380D02*
X130984900Y-96857380D01*
X130889661Y-97000238D01*
X130794423Y-97095476D01*
X130699185Y-97143095D01*
X155747142Y-78224942D02*
X155699523Y-78272561D01*
X155556666Y-78320180D01*
X155461428Y-78320180D01*
X155318571Y-78272561D01*
X155223333Y-78177323D01*
X155175714Y-78082085D01*
X155128095Y-77891609D01*
X155128095Y-77748752D01*
X155175714Y-77558276D01*
X155223333Y-77463038D01*
X155318571Y-77367800D01*
X155461428Y-77320180D01*
X155556666Y-77320180D01*
X155699523Y-77367800D01*
X155747142Y-77415419D01*
X156699523Y-78320180D02*
X156128095Y-78320180D01*
X156413809Y-78320180D02*
X156413809Y-77320180D01*
X156318571Y-77463038D01*
X156223333Y-77558276D01*
X156128095Y-77605895D01*
X157175714Y-78320180D02*
X157366190Y-78320180D01*
X157461428Y-78272561D01*
X157509047Y-78224942D01*
X157604285Y-78082085D01*
X157651904Y-77891609D01*
X157651904Y-77510657D01*
X157604285Y-77415419D01*
X157556666Y-77367800D01*
X157461428Y-77320180D01*
X157270952Y-77320180D01*
X157175714Y-77367800D01*
X157128095Y-77415419D01*
X157080476Y-77510657D01*
X157080476Y-77748752D01*
X157128095Y-77843990D01*
X157175714Y-77891609D01*
X157270952Y-77939228D01*
X157461428Y-77939228D01*
X157556666Y-77891609D01*
X157604285Y-77843990D01*
X157651904Y-77748752D01*
X172357142Y-49674942D02*
X172309523Y-49722561D01*
X172166666Y-49770180D01*
X172071428Y-49770180D01*
X171928571Y-49722561D01*
X171833333Y-49627323D01*
X171785714Y-49532085D01*
X171738095Y-49341609D01*
X171738095Y-49198752D01*
X171785714Y-49008276D01*
X171833333Y-48913038D01*
X171928571Y-48817800D01*
X172071428Y-48770180D01*
X172166666Y-48770180D01*
X172309523Y-48817800D01*
X172357142Y-48865419D01*
X172738095Y-48865419D02*
X172785714Y-48817800D01*
X172880952Y-48770180D01*
X173119047Y-48770180D01*
X173214285Y-48817800D01*
X173261904Y-48865419D01*
X173309523Y-48960657D01*
X173309523Y-49055895D01*
X173261904Y-49198752D01*
X172690476Y-49770180D01*
X173309523Y-49770180D01*
X173690476Y-48865419D02*
X173738095Y-48817800D01*
X173833333Y-48770180D01*
X174071428Y-48770180D01*
X174166666Y-48817800D01*
X174214285Y-48865419D01*
X174261904Y-48960657D01*
X174261904Y-49055895D01*
X174214285Y-49198752D01*
X173642857Y-49770180D01*
X174261904Y-49770180D01*
X187053433Y-87522380D02*
X186720100Y-87046190D01*
X186482004Y-87522380D02*
X186482004Y-86522380D01*
X186862957Y-86522380D01*
X186958195Y-86570000D01*
X187005814Y-86617619D01*
X187053433Y-86712857D01*
X187053433Y-86855714D01*
X187005814Y-86950952D01*
X186958195Y-86998571D01*
X186862957Y-87046190D01*
X186482004Y-87046190D01*
X187624861Y-86950952D02*
X187529623Y-86903333D01*
X187482004Y-86855714D01*
X187434385Y-86760476D01*
X187434385Y-86712857D01*
X187482004Y-86617619D01*
X187529623Y-86570000D01*
X187624861Y-86522380D01*
X187815338Y-86522380D01*
X187910576Y-86570000D01*
X187958195Y-86617619D01*
X188005814Y-86712857D01*
X188005814Y-86760476D01*
X187958195Y-86855714D01*
X187910576Y-86903333D01*
X187815338Y-86950952D01*
X187624861Y-86950952D01*
X187529623Y-86998571D01*
X187482004Y-87046190D01*
X187434385Y-87141428D01*
X187434385Y-87331904D01*
X187482004Y-87427142D01*
X187529623Y-87474761D01*
X187624861Y-87522380D01*
X187815338Y-87522380D01*
X187910576Y-87474761D01*
X187958195Y-87427142D01*
X188005814Y-87331904D01*
X188005814Y-87141428D01*
X187958195Y-87046190D01*
X187910576Y-86998571D01*
X187815338Y-86950952D01*
X152238095Y-39170180D02*
X152238095Y-39979704D01*
X152285714Y-40074942D01*
X152333333Y-40122561D01*
X152428571Y-40170180D01*
X152619047Y-40170180D01*
X152714285Y-40122561D01*
X152761904Y-40074942D01*
X152809523Y-39979704D01*
X152809523Y-39170180D01*
X153190476Y-39170180D02*
X153809523Y-39170180D01*
X153476190Y-39551133D01*
X153619047Y-39551133D01*
X153714285Y-39598752D01*
X153761904Y-39646371D01*
X153809523Y-39741609D01*
X153809523Y-39979704D01*
X153761904Y-40074942D01*
X153714285Y-40122561D01*
X153619047Y-40170180D01*
X153333333Y-40170180D01*
X153238095Y-40122561D01*
X153190476Y-40074942D01*
X81820376Y-82550180D02*
X81820376Y-83264466D01*
X81772757Y-83407323D01*
X81677519Y-83502561D01*
X81534661Y-83550180D01*
X81439423Y-83550180D01*
X82820376Y-83550180D02*
X82248947Y-83550180D01*
X82534661Y-83550180D02*
X82534661Y-82550180D01*
X82439423Y-82693038D01*
X82344185Y-82788276D01*
X82248947Y-82835895D01*
X83772757Y-83550180D02*
X83201328Y-83550180D01*
X83487042Y-83550180D02*
X83487042Y-82550180D01*
X83391804Y-82693038D01*
X83296566Y-82788276D01*
X83201328Y-82835895D01*
X101833333Y-97512380D02*
X101500000Y-97036190D01*
X101261904Y-97512380D02*
X101261904Y-96512380D01*
X101642857Y-96512380D01*
X101738095Y-96560000D01*
X101785714Y-96607619D01*
X101833333Y-96702857D01*
X101833333Y-96845714D01*
X101785714Y-96940952D01*
X101738095Y-96988571D01*
X101642857Y-97036190D01*
X101261904Y-97036190D01*
X102785714Y-97512380D02*
X102214285Y-97512380D01*
X102500000Y-97512380D02*
X102500000Y-96512380D01*
X102404761Y-96655238D01*
X102309523Y-96750476D01*
X102214285Y-96798095D01*
X74270376Y-82380180D02*
X74270376Y-83094466D01*
X74222757Y-83237323D01*
X74127519Y-83332561D01*
X73984661Y-83380180D01*
X73889423Y-83380180D01*
X75270376Y-83380180D02*
X74698947Y-83380180D01*
X74984661Y-83380180D02*
X74984661Y-82380180D01*
X74889423Y-82523038D01*
X74794185Y-82618276D01*
X74698947Y-82665895D01*
X75889423Y-82380180D02*
X75984661Y-82380180D01*
X76079900Y-82427800D01*
X76127519Y-82475419D01*
X76175138Y-82570657D01*
X76222757Y-82761133D01*
X76222757Y-82999228D01*
X76175138Y-83189704D01*
X76127519Y-83284942D01*
X76079900Y-83332561D01*
X75984661Y-83380180D01*
X75889423Y-83380180D01*
X75794185Y-83332561D01*
X75746566Y-83284942D01*
X75698947Y-83189704D01*
X75651328Y-82999228D01*
X75651328Y-82761133D01*
X75698947Y-82570657D01*
X75746566Y-82475419D01*
X75794185Y-82427800D01*
X75889423Y-82380180D01*
X181427142Y-40074942D02*
X181379523Y-40122561D01*
X181236666Y-40170180D01*
X181141428Y-40170180D01*
X180998571Y-40122561D01*
X180903333Y-40027323D01*
X180855714Y-39932085D01*
X180808095Y-39741609D01*
X180808095Y-39598752D01*
X180855714Y-39408276D01*
X180903333Y-39313038D01*
X180998571Y-39217800D01*
X181141428Y-39170180D01*
X181236666Y-39170180D01*
X181379523Y-39217800D01*
X181427142Y-39265419D01*
X181808095Y-39265419D02*
X181855714Y-39217800D01*
X181950952Y-39170180D01*
X182189047Y-39170180D01*
X182284285Y-39217800D01*
X182331904Y-39265419D01*
X182379523Y-39360657D01*
X182379523Y-39455895D01*
X182331904Y-39598752D01*
X181760476Y-40170180D01*
X182379523Y-40170180D01*
X183331904Y-40170180D02*
X182760476Y-40170180D01*
X183046190Y-40170180D02*
X183046190Y-39170180D01*
X182950952Y-39313038D01*
X182855714Y-39408276D01*
X182760476Y-39455895D01*
X183483433Y-84917142D02*
X183435814Y-84964761D01*
X183292957Y-85012380D01*
X183197719Y-85012380D01*
X183054861Y-84964761D01*
X182959623Y-84869523D01*
X182912004Y-84774285D01*
X182864385Y-84583809D01*
X182864385Y-84440952D01*
X182912004Y-84250476D01*
X182959623Y-84155238D01*
X183054861Y-84060000D01*
X183197719Y-84012380D01*
X183292957Y-84012380D01*
X183435814Y-84060000D01*
X183483433Y-84107619D01*
X184054861Y-84440952D02*
X183959623Y-84393333D01*
X183912004Y-84345714D01*
X183864385Y-84250476D01*
X183864385Y-84202857D01*
X183912004Y-84107619D01*
X183959623Y-84060000D01*
X184054861Y-84012380D01*
X184245338Y-84012380D01*
X184340576Y-84060000D01*
X184388195Y-84107619D01*
X184435814Y-84202857D01*
X184435814Y-84250476D01*
X184388195Y-84345714D01*
X184340576Y-84393333D01*
X184245338Y-84440952D01*
X184054861Y-84440952D01*
X183959623Y-84488571D01*
X183912004Y-84536190D01*
X183864385Y-84631428D01*
X183864385Y-84821904D01*
X183912004Y-84917142D01*
X183959623Y-84964761D01*
X184054861Y-85012380D01*
X184245338Y-85012380D01*
X184340576Y-84964761D01*
X184388195Y-84917142D01*
X184435814Y-84821904D01*
X184435814Y-84631428D01*
X184388195Y-84536190D01*
X184340576Y-84488571D01*
X184245338Y-84440952D01*
X75641804Y-92930180D02*
X75641804Y-91930180D01*
X75879900Y-91930180D01*
X76022757Y-91977800D01*
X76117995Y-92073038D01*
X76165614Y-92168276D01*
X76213233Y-92358752D01*
X76213233Y-92501609D01*
X76165614Y-92692085D01*
X76117995Y-92787323D01*
X76022757Y-92882561D01*
X75879900Y-92930180D01*
X75641804Y-92930180D01*
X77165614Y-92930180D02*
X76594185Y-92930180D01*
X76879900Y-92930180D02*
X76879900Y-91930180D01*
X76784661Y-92073038D01*
X76689423Y-92168276D01*
X76594185Y-92215895D01*
X183606666Y-67720180D02*
X183606666Y-68434466D01*
X183559047Y-68577323D01*
X183463809Y-68672561D01*
X183320952Y-68720180D01*
X183225714Y-68720180D01*
X184511428Y-67720180D02*
X184320952Y-67720180D01*
X184225714Y-67767800D01*
X184178095Y-67815419D01*
X184082857Y-67958276D01*
X184035238Y-68148752D01*
X184035238Y-68529704D01*
X184082857Y-68624942D01*
X184130476Y-68672561D01*
X184225714Y-68720180D01*
X184416190Y-68720180D01*
X184511428Y-68672561D01*
X184559047Y-68624942D01*
X184606666Y-68529704D01*
X184606666Y-68291609D01*
X184559047Y-68196371D01*
X184511428Y-68148752D01*
X184416190Y-68101133D01*
X184225714Y-68101133D01*
X184130476Y-68148752D01*
X184082857Y-68196371D01*
X184035238Y-68291609D01*
X192238095Y-110452380D02*
X192238095Y-109452380D01*
X192238095Y-109928571D02*
X192809523Y-109928571D01*
X192809523Y-110452380D02*
X192809523Y-109452380D01*
X193238095Y-109547619D02*
X193285714Y-109500000D01*
X193380952Y-109452380D01*
X193619047Y-109452380D01*
X193714285Y-109500000D01*
X193761904Y-109547619D01*
X193809523Y-109642857D01*
X193809523Y-109738095D01*
X193761904Y-109880952D01*
X193190476Y-110452380D01*
X193809523Y-110452380D01*
X158048095Y-67740180D02*
X158048095Y-68549704D01*
X158095714Y-68644942D01*
X158143333Y-68692561D01*
X158238571Y-68740180D01*
X158429047Y-68740180D01*
X158524285Y-68692561D01*
X158571904Y-68644942D01*
X158619523Y-68549704D01*
X158619523Y-67740180D01*
X159524285Y-67740180D02*
X159333809Y-67740180D01*
X159238571Y-67787800D01*
X159190952Y-67835419D01*
X159095714Y-67978276D01*
X159048095Y-68168752D01*
X159048095Y-68549704D01*
X159095714Y-68644942D01*
X159143333Y-68692561D01*
X159238571Y-68740180D01*
X159429047Y-68740180D01*
X159524285Y-68692561D01*
X159571904Y-68644942D01*
X159619523Y-68549704D01*
X159619523Y-68311609D01*
X159571904Y-68216371D01*
X159524285Y-68168752D01*
X159429047Y-68121133D01*
X159238571Y-68121133D01*
X159143333Y-68168752D01*
X159095714Y-68216371D01*
X159048095Y-68311609D01*
X107177995Y-76380180D02*
X107749423Y-76380180D01*
X107463709Y-77380180D02*
X107463709Y-76380180D01*
X108082757Y-77380180D02*
X108082757Y-76380180D01*
X108463709Y-76380180D01*
X108558947Y-76427800D01*
X108606566Y-76475419D01*
X108654185Y-76570657D01*
X108654185Y-76713514D01*
X108606566Y-76808752D01*
X108558947Y-76856371D01*
X108463709Y-76903990D01*
X108082757Y-76903990D01*
X109511328Y-76713514D02*
X109511328Y-77380180D01*
X109273233Y-76332561D02*
X109035138Y-77046847D01*
X109654185Y-77046847D01*
X92396566Y-52322561D02*
X92539423Y-52370180D01*
X92777519Y-52370180D01*
X92872757Y-52322561D01*
X92920376Y-52274942D01*
X92967995Y-52179704D01*
X92967995Y-52084466D01*
X92920376Y-51989228D01*
X92872757Y-51941609D01*
X92777519Y-51893990D01*
X92587042Y-51846371D01*
X92491804Y-51798752D01*
X92444185Y-51751133D01*
X92396566Y-51655895D01*
X92396566Y-51560657D01*
X92444185Y-51465419D01*
X92491804Y-51417800D01*
X92587042Y-51370180D01*
X92825138Y-51370180D01*
X92967995Y-51417800D01*
X93301328Y-51370180D02*
X93539423Y-52370180D01*
X93729900Y-51655895D01*
X93920376Y-52370180D01*
X94158471Y-51370180D01*
X95063233Y-52370180D02*
X94491804Y-52370180D01*
X94777519Y-52370180D02*
X94777519Y-51370180D01*
X94682280Y-51513038D01*
X94587042Y-51608276D01*
X94491804Y-51655895D01*
X139153233Y-76340180D02*
X138819900Y-75863990D01*
X138581804Y-76340180D02*
X138581804Y-75340180D01*
X138962757Y-75340180D01*
X139057995Y-75387800D01*
X139105614Y-75435419D01*
X139153233Y-75530657D01*
X139153233Y-75673514D01*
X139105614Y-75768752D01*
X139057995Y-75816371D01*
X138962757Y-75863990D01*
X138581804Y-75863990D01*
X140010376Y-75340180D02*
X139819900Y-75340180D01*
X139724661Y-75387800D01*
X139677042Y-75435419D01*
X139581804Y-75578276D01*
X139534185Y-75768752D01*
X139534185Y-76149704D01*
X139581804Y-76244942D01*
X139629423Y-76292561D01*
X139724661Y-76340180D01*
X139915138Y-76340180D01*
X140010376Y-76292561D01*
X140057995Y-76244942D01*
X140105614Y-76149704D01*
X140105614Y-75911609D01*
X140057995Y-75816371D01*
X140010376Y-75768752D01*
X139915138Y-75721133D01*
X139724661Y-75721133D01*
X139629423Y-75768752D01*
X139581804Y-75816371D01*
X139534185Y-75911609D01*
X159747995Y-88352380D02*
X159747995Y-89161904D01*
X159795614Y-89257142D01*
X159843233Y-89304761D01*
X159938471Y-89352380D01*
X160128947Y-89352380D01*
X160224185Y-89304761D01*
X160271804Y-89257142D01*
X160319423Y-89161904D01*
X160319423Y-88352380D01*
X161224185Y-88685714D02*
X161224185Y-89352380D01*
X160986090Y-88304761D02*
X160747995Y-89019047D01*
X161367042Y-89019047D01*
X64296566Y-82380180D02*
X64296566Y-83094466D01*
X64248947Y-83237323D01*
X64153709Y-83332561D01*
X64010852Y-83380180D01*
X63915614Y-83380180D01*
X64915614Y-82808752D02*
X64820376Y-82761133D01*
X64772757Y-82713514D01*
X64725138Y-82618276D01*
X64725138Y-82570657D01*
X64772757Y-82475419D01*
X64820376Y-82427800D01*
X64915614Y-82380180D01*
X65106090Y-82380180D01*
X65201328Y-82427800D01*
X65248947Y-82475419D01*
X65296566Y-82570657D01*
X65296566Y-82618276D01*
X65248947Y-82713514D01*
X65201328Y-82761133D01*
X65106090Y-82808752D01*
X64915614Y-82808752D01*
X64820376Y-82856371D01*
X64772757Y-82903990D01*
X64725138Y-82999228D01*
X64725138Y-83189704D01*
X64772757Y-83284942D01*
X64820376Y-83332561D01*
X64915614Y-83380180D01*
X65106090Y-83380180D01*
X65201328Y-83332561D01*
X65248947Y-83284942D01*
X65296566Y-83189704D01*
X65296566Y-82999228D01*
X65248947Y-82903990D01*
X65201328Y-82856371D01*
X65106090Y-82808752D01*
X60607142Y-103177142D02*
X60559523Y-103224761D01*
X60416666Y-103272380D01*
X60321428Y-103272380D01*
X60178571Y-103224761D01*
X60083333Y-103129523D01*
X60035714Y-103034285D01*
X59988095Y-102843809D01*
X59988095Y-102700952D01*
X60035714Y-102510476D01*
X60083333Y-102415238D01*
X60178571Y-102320000D01*
X60321428Y-102272380D01*
X60416666Y-102272380D01*
X60559523Y-102320000D01*
X60607142Y-102367619D01*
X61559523Y-103272380D02*
X60988095Y-103272380D01*
X61273809Y-103272380D02*
X61273809Y-102272380D01*
X61178571Y-102415238D01*
X61083333Y-102510476D01*
X60988095Y-102558095D01*
X62464285Y-102272380D02*
X61988095Y-102272380D01*
X61940476Y-102748571D01*
X61988095Y-102700952D01*
X62083333Y-102653333D01*
X62321428Y-102653333D01*
X62416666Y-102700952D01*
X62464285Y-102748571D01*
X62511904Y-102843809D01*
X62511904Y-103081904D01*
X62464285Y-103177142D01*
X62416666Y-103224761D01*
X62321428Y-103272380D01*
X62083333Y-103272380D01*
X61988095Y-103224761D01*
X61940476Y-103177142D01*
X93833333Y-67022380D02*
X93500000Y-66546190D01*
X93261904Y-67022380D02*
X93261904Y-66022380D01*
X93642857Y-66022380D01*
X93738095Y-66070000D01*
X93785714Y-66117619D01*
X93833333Y-66212857D01*
X93833333Y-66355714D01*
X93785714Y-66450952D01*
X93738095Y-66498571D01*
X93642857Y-66546190D01*
X93261904Y-66546190D01*
X94738095Y-66022380D02*
X94261904Y-66022380D01*
X94214285Y-66498571D01*
X94261904Y-66450952D01*
X94357142Y-66403333D01*
X94595238Y-66403333D01*
X94690476Y-66450952D01*
X94738095Y-66498571D01*
X94785714Y-66593809D01*
X94785714Y-66831904D01*
X94738095Y-66927142D01*
X94690476Y-66974761D01*
X94595238Y-67022380D01*
X94357142Y-67022380D01*
X94261904Y-66974761D01*
X94214285Y-66927142D01*
X93833333Y-64417142D02*
X93785714Y-64464761D01*
X93642857Y-64512380D01*
X93547619Y-64512380D01*
X93404761Y-64464761D01*
X93309523Y-64369523D01*
X93261904Y-64274285D01*
X93214285Y-64083809D01*
X93214285Y-63940952D01*
X93261904Y-63750476D01*
X93309523Y-63655238D01*
X93404761Y-63560000D01*
X93547619Y-63512380D01*
X93642857Y-63512380D01*
X93785714Y-63560000D01*
X93833333Y-63607619D01*
X94738095Y-63512380D02*
X94261904Y-63512380D01*
X94214285Y-63988571D01*
X94261904Y-63940952D01*
X94357142Y-63893333D01*
X94595238Y-63893333D01*
X94690476Y-63940952D01*
X94738095Y-63988571D01*
X94785714Y-64083809D01*
X94785714Y-64321904D01*
X94738095Y-64417142D01*
X94690476Y-64464761D01*
X94595238Y-64512380D01*
X94357142Y-64512380D01*
X94261904Y-64464761D01*
X94214285Y-64417142D01*
X139153233Y-73830180D02*
X138819900Y-73353990D01*
X138581804Y-73830180D02*
X138581804Y-72830180D01*
X138962757Y-72830180D01*
X139057995Y-72877800D01*
X139105614Y-72925419D01*
X139153233Y-73020657D01*
X139153233Y-73163514D01*
X139105614Y-73258752D01*
X139057995Y-73306371D01*
X138962757Y-73353990D01*
X138581804Y-73353990D01*
X139486566Y-72830180D02*
X140153233Y-72830180D01*
X139724661Y-73830180D01*
X120586566Y-58270180D02*
X120586566Y-58984466D01*
X120538947Y-59127323D01*
X120443709Y-59222561D01*
X120300852Y-59270180D01*
X120205614Y-59270180D01*
X121538947Y-58270180D02*
X121062757Y-58270180D01*
X121015138Y-58746371D01*
X121062757Y-58698752D01*
X121157995Y-58651133D01*
X121396090Y-58651133D01*
X121491328Y-58698752D01*
X121538947Y-58746371D01*
X121586566Y-58841609D01*
X121586566Y-59079704D01*
X121538947Y-59174942D01*
X121491328Y-59222561D01*
X121396090Y-59270180D01*
X121157995Y-59270180D01*
X121062757Y-59222561D01*
X121015138Y-59174942D01*
X61463233Y-66624942D02*
X61415614Y-66672561D01*
X61272757Y-66720180D01*
X61177519Y-66720180D01*
X61034661Y-66672561D01*
X60939423Y-66577323D01*
X60891804Y-66482085D01*
X60844185Y-66291609D01*
X60844185Y-66148752D01*
X60891804Y-65958276D01*
X60939423Y-65863038D01*
X61034661Y-65767800D01*
X61177519Y-65720180D01*
X61272757Y-65720180D01*
X61415614Y-65767800D01*
X61463233Y-65815419D01*
X61796566Y-65720180D02*
X62415614Y-65720180D01*
X62082280Y-66101133D01*
X62225138Y-66101133D01*
X62320376Y-66148752D01*
X62367995Y-66196371D01*
X62415614Y-66291609D01*
X62415614Y-66529704D01*
X62367995Y-66624942D01*
X62320376Y-66672561D01*
X62225138Y-66720180D01*
X61939423Y-66720180D01*
X61844185Y-66672561D01*
X61796566Y-66624942D01*
X86367995Y-82180180D02*
X86939423Y-82180180D01*
X86653709Y-83180180D02*
X86653709Y-82180180D01*
X87272757Y-83180180D02*
X87272757Y-82180180D01*
X87653709Y-82180180D01*
X87748947Y-82227800D01*
X87796566Y-82275419D01*
X87844185Y-82370657D01*
X87844185Y-82513514D01*
X87796566Y-82608752D01*
X87748947Y-82656371D01*
X87653709Y-82703990D01*
X87272757Y-82703990D01*
X88225138Y-82275419D02*
X88272757Y-82227800D01*
X88367995Y-82180180D01*
X88606090Y-82180180D01*
X88701328Y-82227800D01*
X88748947Y-82275419D01*
X88796566Y-82370657D01*
X88796566Y-82465895D01*
X88748947Y-82608752D01*
X88177519Y-83180180D01*
X88796566Y-83180180D01*
X187017242Y-84917142D02*
X186969623Y-84964761D01*
X186826766Y-85012380D01*
X186731528Y-85012380D01*
X186588671Y-84964761D01*
X186493433Y-84869523D01*
X186445814Y-84774285D01*
X186398195Y-84583809D01*
X186398195Y-84440952D01*
X186445814Y-84250476D01*
X186493433Y-84155238D01*
X186588671Y-84060000D01*
X186731528Y-84012380D01*
X186826766Y-84012380D01*
X186969623Y-84060000D01*
X187017242Y-84107619D01*
X187969623Y-85012380D02*
X187398195Y-85012380D01*
X187683909Y-85012380D02*
X187683909Y-84012380D01*
X187588671Y-84155238D01*
X187493433Y-84250476D01*
X187398195Y-84298095D01*
X188588671Y-84012380D02*
X188683909Y-84012380D01*
X188779147Y-84060000D01*
X188826766Y-84107619D01*
X188874385Y-84202857D01*
X188922004Y-84393333D01*
X188922004Y-84631428D01*
X188874385Y-84821904D01*
X188826766Y-84917142D01*
X188779147Y-84964761D01*
X188683909Y-85012380D01*
X188588671Y-85012380D01*
X188493433Y-84964761D01*
X188445814Y-84917142D01*
X188398195Y-84821904D01*
X188350576Y-84631428D01*
X188350576Y-84393333D01*
X188398195Y-84202857D01*
X188445814Y-84107619D01*
X188493433Y-84060000D01*
X188588671Y-84012380D01*
X164817142Y-68624942D02*
X164769523Y-68672561D01*
X164626666Y-68720180D01*
X164531428Y-68720180D01*
X164388571Y-68672561D01*
X164293333Y-68577323D01*
X164245714Y-68482085D01*
X164198095Y-68291609D01*
X164198095Y-68148752D01*
X164245714Y-67958276D01*
X164293333Y-67863038D01*
X164388571Y-67767800D01*
X164531428Y-67720180D01*
X164626666Y-67720180D01*
X164769523Y-67767800D01*
X164817142Y-67815419D01*
X165769523Y-68720180D02*
X165198095Y-68720180D01*
X165483809Y-68720180D02*
X165483809Y-67720180D01*
X165388571Y-67863038D01*
X165293333Y-67958276D01*
X165198095Y-68005895D01*
X166340952Y-68148752D02*
X166245714Y-68101133D01*
X166198095Y-68053514D01*
X166150476Y-67958276D01*
X166150476Y-67910657D01*
X166198095Y-67815419D01*
X166245714Y-67767800D01*
X166340952Y-67720180D01*
X166531428Y-67720180D01*
X166626666Y-67767800D01*
X166674285Y-67815419D01*
X166721904Y-67910657D01*
X166721904Y-67958276D01*
X166674285Y-68053514D01*
X166626666Y-68101133D01*
X166531428Y-68148752D01*
X166340952Y-68148752D01*
X166245714Y-68196371D01*
X166198095Y-68243990D01*
X166150476Y-68339228D01*
X166150476Y-68529704D01*
X166198095Y-68624942D01*
X166245714Y-68672561D01*
X166340952Y-68720180D01*
X166531428Y-68720180D01*
X166626666Y-68672561D01*
X166674285Y-68624942D01*
X166721904Y-68529704D01*
X166721904Y-68339228D01*
X166674285Y-68243990D01*
X166626666Y-68196371D01*
X166531428Y-68148752D01*
X148383333Y-51924942D02*
X148335714Y-51972561D01*
X148192857Y-52020180D01*
X148097619Y-52020180D01*
X147954761Y-51972561D01*
X147859523Y-51877323D01*
X147811904Y-51782085D01*
X147764285Y-51591609D01*
X147764285Y-51448752D01*
X147811904Y-51258276D01*
X147859523Y-51163038D01*
X147954761Y-51067800D01*
X148097619Y-51020180D01*
X148192857Y-51020180D01*
X148335714Y-51067800D01*
X148383333Y-51115419D01*
X149240476Y-51020180D02*
X149050000Y-51020180D01*
X148954761Y-51067800D01*
X148907142Y-51115419D01*
X148811904Y-51258276D01*
X148764285Y-51448752D01*
X148764285Y-51829704D01*
X148811904Y-51924942D01*
X148859523Y-51972561D01*
X148954761Y-52020180D01*
X149145238Y-52020180D01*
X149240476Y-51972561D01*
X149288095Y-51924942D01*
X149335714Y-51829704D01*
X149335714Y-51591609D01*
X149288095Y-51496371D01*
X149240476Y-51448752D01*
X149145238Y-51401133D01*
X148954761Y-51401133D01*
X148859523Y-51448752D01*
X148811904Y-51496371D01*
X148764285Y-51591609D01*
X178777242Y-84917142D02*
X178729623Y-84964761D01*
X178586766Y-85012380D01*
X178491528Y-85012380D01*
X178348671Y-84964761D01*
X178253433Y-84869523D01*
X178205814Y-84774285D01*
X178158195Y-84583809D01*
X178158195Y-84440952D01*
X178205814Y-84250476D01*
X178253433Y-84155238D01*
X178348671Y-84060000D01*
X178491528Y-84012380D01*
X178586766Y-84012380D01*
X178729623Y-84060000D01*
X178777242Y-84107619D01*
X179729623Y-85012380D02*
X179158195Y-85012380D01*
X179443909Y-85012380D02*
X179443909Y-84012380D01*
X179348671Y-84155238D01*
X179253433Y-84250476D01*
X179158195Y-84298095D01*
X180682004Y-85012380D02*
X180110576Y-85012380D01*
X180396290Y-85012380D02*
X180396290Y-84012380D01*
X180301052Y-84155238D01*
X180205814Y-84250476D01*
X180110576Y-84298095D01*
X179033433Y-87927142D02*
X178985814Y-87974761D01*
X178842957Y-88022380D01*
X178747719Y-88022380D01*
X178604861Y-87974761D01*
X178509623Y-87879523D01*
X178462004Y-87784285D01*
X178414385Y-87593809D01*
X178414385Y-87450952D01*
X178462004Y-87260476D01*
X178509623Y-87165238D01*
X178604861Y-87070000D01*
X178747719Y-87022380D01*
X178842957Y-87022380D01*
X178985814Y-87070000D01*
X179033433Y-87117619D01*
X179366766Y-87022380D02*
X180033433Y-87022380D01*
X179604861Y-88022380D01*
X90793233Y-59074942D02*
X90745614Y-59122561D01*
X90602757Y-59170180D01*
X90507519Y-59170180D01*
X90364661Y-59122561D01*
X90269423Y-59027323D01*
X90221804Y-58932085D01*
X90174185Y-58741609D01*
X90174185Y-58598752D01*
X90221804Y-58408276D01*
X90269423Y-58313038D01*
X90364661Y-58217800D01*
X90507519Y-58170180D01*
X90602757Y-58170180D01*
X90745614Y-58217800D01*
X90793233Y-58265419D01*
X91650376Y-58503514D02*
X91650376Y-59170180D01*
X91412280Y-58122561D02*
X91174185Y-58836847D01*
X91793233Y-58836847D01*
X178777242Y-81907142D02*
X178729623Y-81954761D01*
X178586766Y-82002380D01*
X178491528Y-82002380D01*
X178348671Y-81954761D01*
X178253433Y-81859523D01*
X178205814Y-81764285D01*
X178158195Y-81573809D01*
X178158195Y-81430952D01*
X178205814Y-81240476D01*
X178253433Y-81145238D01*
X178348671Y-81050000D01*
X178491528Y-81002380D01*
X178586766Y-81002380D01*
X178729623Y-81050000D01*
X178777242Y-81097619D01*
X179729623Y-82002380D02*
X179158195Y-82002380D01*
X179443909Y-82002380D02*
X179443909Y-81002380D01*
X179348671Y-81145238D01*
X179253433Y-81240476D01*
X179158195Y-81288095D01*
X180062957Y-81002380D02*
X180682004Y-81002380D01*
X180348671Y-81383333D01*
X180491528Y-81383333D01*
X180586766Y-81430952D01*
X180634385Y-81478571D01*
X180682004Y-81573809D01*
X180682004Y-81811904D01*
X180634385Y-81907142D01*
X180586766Y-81954761D01*
X180491528Y-82002380D01*
X180205814Y-82002380D01*
X180110576Y-81954761D01*
X180062957Y-81907142D01*
X155967142Y-75214942D02*
X155919523Y-75262561D01*
X155776666Y-75310180D01*
X155681428Y-75310180D01*
X155538571Y-75262561D01*
X155443333Y-75167323D01*
X155395714Y-75072085D01*
X155348095Y-74881609D01*
X155348095Y-74738752D01*
X155395714Y-74548276D01*
X155443333Y-74453038D01*
X155538571Y-74357800D01*
X155681428Y-74310180D01*
X155776666Y-74310180D01*
X155919523Y-74357800D01*
X155967142Y-74405419D01*
X156919523Y-75310180D02*
X156348095Y-75310180D01*
X156633809Y-75310180D02*
X156633809Y-74310180D01*
X156538571Y-74453038D01*
X156443333Y-74548276D01*
X156348095Y-74595895D01*
X157252857Y-74310180D02*
X157919523Y-74310180D01*
X157490952Y-75310180D01*
X134396804Y-89337380D02*
X134396804Y-88337380D01*
X134634900Y-88337380D01*
X134777757Y-88385000D01*
X134872995Y-88480238D01*
X134920614Y-88575476D01*
X134968233Y-88765952D01*
X134968233Y-88908809D01*
X134920614Y-89099285D01*
X134872995Y-89194523D01*
X134777757Y-89289761D01*
X134634900Y-89337380D01*
X134396804Y-89337380D01*
X135825376Y-88670714D02*
X135825376Y-89337380D01*
X135587280Y-88289761D02*
X135349185Y-89004047D01*
X135968233Y-89004047D01*
X131270614Y-91237380D02*
X130699185Y-91237380D01*
X130984900Y-91237380D02*
X130984900Y-90237380D01*
X130889661Y-90380238D01*
X130794423Y-90475476D01*
X130699185Y-90523095D01*
X101833333Y-100022380D02*
X101500000Y-99546190D01*
X101261904Y-100022380D02*
X101261904Y-99022380D01*
X101642857Y-99022380D01*
X101738095Y-99070000D01*
X101785714Y-99117619D01*
X101833333Y-99212857D01*
X101833333Y-99355714D01*
X101785714Y-99450952D01*
X101738095Y-99498571D01*
X101642857Y-99546190D01*
X101261904Y-99546190D01*
X102214285Y-99117619D02*
X102261904Y-99070000D01*
X102357142Y-99022380D01*
X102595238Y-99022380D01*
X102690476Y-99070000D01*
X102738095Y-99117619D01*
X102785714Y-99212857D01*
X102785714Y-99308095D01*
X102738095Y-99450952D01*
X102166666Y-100022380D01*
X102785714Y-100022380D01*
X92167995Y-79520180D02*
X92739423Y-79520180D01*
X92453709Y-80520180D02*
X92453709Y-79520180D01*
X93072757Y-80520180D02*
X93072757Y-79520180D01*
X93453709Y-79520180D01*
X93548947Y-79567800D01*
X93596566Y-79615419D01*
X93644185Y-79710657D01*
X93644185Y-79853514D01*
X93596566Y-79948752D01*
X93548947Y-79996371D01*
X93453709Y-80043990D01*
X93072757Y-80043990D01*
X93977519Y-79520180D02*
X94596566Y-79520180D01*
X94263233Y-79901133D01*
X94406090Y-79901133D01*
X94501328Y-79948752D01*
X94548947Y-79996371D01*
X94596566Y-80091609D01*
X94596566Y-80329704D01*
X94548947Y-80424942D01*
X94501328Y-80472561D01*
X94406090Y-80520180D01*
X94120376Y-80520180D01*
X94025138Y-80472561D01*
X93977519Y-80424942D01*
X172577142Y-46664942D02*
X172529523Y-46712561D01*
X172386666Y-46760180D01*
X172291428Y-46760180D01*
X172148571Y-46712561D01*
X172053333Y-46617323D01*
X172005714Y-46522085D01*
X171958095Y-46331609D01*
X171958095Y-46188752D01*
X172005714Y-45998276D01*
X172053333Y-45903038D01*
X172148571Y-45807800D01*
X172291428Y-45760180D01*
X172386666Y-45760180D01*
X172529523Y-45807800D01*
X172577142Y-45855419D01*
X172958095Y-45855419D02*
X173005714Y-45807800D01*
X173100952Y-45760180D01*
X173339047Y-45760180D01*
X173434285Y-45807800D01*
X173481904Y-45855419D01*
X173529523Y-45950657D01*
X173529523Y-46045895D01*
X173481904Y-46188752D01*
X172910476Y-46760180D01*
X173529523Y-46760180D01*
X174148571Y-45760180D02*
X174243809Y-45760180D01*
X174339047Y-45807800D01*
X174386666Y-45855419D01*
X174434285Y-45950657D01*
X174481904Y-46141133D01*
X174481904Y-46379228D01*
X174434285Y-46569704D01*
X174386666Y-46664942D01*
X174339047Y-46712561D01*
X174243809Y-46760180D01*
X174148571Y-46760180D01*
X174053333Y-46712561D01*
X174005714Y-46664942D01*
X173958095Y-46569704D01*
X173910476Y-46379228D01*
X173910476Y-46141133D01*
X173958095Y-45950657D01*
X174005714Y-45855419D01*
X174053333Y-45807800D01*
X174148571Y-45760180D01*
X155417042Y-101107142D02*
X155369423Y-101154761D01*
X155226566Y-101202380D01*
X155131328Y-101202380D01*
X154988471Y-101154761D01*
X154893233Y-101059523D01*
X154845614Y-100964285D01*
X154797995Y-100773809D01*
X154797995Y-100630952D01*
X154845614Y-100440476D01*
X154893233Y-100345238D01*
X154988471Y-100250000D01*
X155131328Y-100202380D01*
X155226566Y-100202380D01*
X155369423Y-100250000D01*
X155417042Y-100297619D01*
X156369423Y-101202380D02*
X155797995Y-101202380D01*
X156083709Y-101202380D02*
X156083709Y-100202380D01*
X155988471Y-100345238D01*
X155893233Y-100440476D01*
X155797995Y-100488095D01*
X157226566Y-100535714D02*
X157226566Y-101202380D01*
X156988471Y-100154761D02*
X156750376Y-100869047D01*
X157369423Y-100869047D01*
X60238095Y-110452380D02*
X60238095Y-109452380D01*
X60238095Y-109928571D02*
X60809523Y-109928571D01*
X60809523Y-110452380D02*
X60809523Y-109452380D01*
X61190476Y-109452380D02*
X61809523Y-109452380D01*
X61476190Y-109833333D01*
X61619047Y-109833333D01*
X61714285Y-109880952D01*
X61761904Y-109928571D01*
X61809523Y-110023809D01*
X61809523Y-110261904D01*
X61761904Y-110357142D01*
X61714285Y-110404761D01*
X61619047Y-110452380D01*
X61333333Y-110452380D01*
X61238095Y-110404761D01*
X61190476Y-110357142D01*
X174658095Y-39190180D02*
X174658095Y-39999704D01*
X174705714Y-40094942D01*
X174753333Y-40142561D01*
X174848571Y-40190180D01*
X175039047Y-40190180D01*
X175134285Y-40142561D01*
X175181904Y-40094942D01*
X175229523Y-39999704D01*
X175229523Y-39190180D01*
X175610476Y-39190180D02*
X176277142Y-39190180D01*
X175848571Y-40190180D01*
X182567242Y-87927142D02*
X182519623Y-87974761D01*
X182376766Y-88022380D01*
X182281528Y-88022380D01*
X182138671Y-87974761D01*
X182043433Y-87879523D01*
X181995814Y-87784285D01*
X181948195Y-87593809D01*
X181948195Y-87450952D01*
X181995814Y-87260476D01*
X182043433Y-87165238D01*
X182138671Y-87070000D01*
X182281528Y-87022380D01*
X182376766Y-87022380D01*
X182519623Y-87070000D01*
X182567242Y-87117619D01*
X183519623Y-88022380D02*
X182948195Y-88022380D01*
X183233909Y-88022380D02*
X183233909Y-87022380D01*
X183138671Y-87165238D01*
X183043433Y-87260476D01*
X182948195Y-87308095D01*
X183900576Y-87117619D02*
X183948195Y-87070000D01*
X184043433Y-87022380D01*
X184281528Y-87022380D01*
X184376766Y-87070000D01*
X184424385Y-87117619D01*
X184472004Y-87212857D01*
X184472004Y-87308095D01*
X184424385Y-87450952D01*
X183852957Y-88022380D01*
X184472004Y-88022380D01*
X125976804Y-89337380D02*
X125976804Y-88337380D01*
X126214900Y-88337380D01*
X126357757Y-88385000D01*
X126452995Y-88480238D01*
X126500614Y-88575476D01*
X126548233Y-88765952D01*
X126548233Y-88908809D01*
X126500614Y-89099285D01*
X126452995Y-89194523D01*
X126357757Y-89289761D01*
X126214900Y-89337380D01*
X125976804Y-89337380D01*
X126929185Y-88432619D02*
X126976804Y-88385000D01*
X127072042Y-88337380D01*
X127310138Y-88337380D01*
X127405376Y-88385000D01*
X127452995Y-88432619D01*
X127500614Y-88527857D01*
X127500614Y-88623095D01*
X127452995Y-88765952D01*
X126881566Y-89337380D01*
X127500614Y-89337380D01*
X122850614Y-91237380D02*
X122279185Y-91237380D01*
X122564900Y-91237380D02*
X122564900Y-90237380D01*
X122469661Y-90380238D01*
X122374423Y-90475476D01*
X122279185Y-90523095D01*
X86367995Y-85930180D02*
X86939423Y-85930180D01*
X86653709Y-86930180D02*
X86653709Y-85930180D01*
X87272757Y-86930180D02*
X87272757Y-85930180D01*
X87653709Y-85930180D01*
X87748947Y-85977800D01*
X87796566Y-86025419D01*
X87844185Y-86120657D01*
X87844185Y-86263514D01*
X87796566Y-86358752D01*
X87748947Y-86406371D01*
X87653709Y-86453990D01*
X87272757Y-86453990D01*
X88796566Y-86930180D02*
X88225138Y-86930180D01*
X88510852Y-86930180D02*
X88510852Y-85930180D01*
X88415614Y-86073038D01*
X88320376Y-86168276D01*
X88225138Y-86215895D01*
X95833333Y-104677142D02*
X95785714Y-104724761D01*
X95642857Y-104772380D01*
X95547619Y-104772380D01*
X95404761Y-104724761D01*
X95309523Y-104629523D01*
X95261904Y-104534285D01*
X95214285Y-104343809D01*
X95214285Y-104200952D01*
X95261904Y-104010476D01*
X95309523Y-103915238D01*
X95404761Y-103820000D01*
X95547619Y-103772380D01*
X95642857Y-103772380D01*
X95785714Y-103820000D01*
X95833333Y-103867619D01*
X96214285Y-103867619D02*
X96261904Y-103820000D01*
X96357142Y-103772380D01*
X96595238Y-103772380D01*
X96690476Y-103820000D01*
X96738095Y-103867619D01*
X96785714Y-103962857D01*
X96785714Y-104058095D01*
X96738095Y-104200952D01*
X96166666Y-104772380D01*
X96785714Y-104772380D01*
X120586566Y-48720180D02*
X120586566Y-49434466D01*
X120538947Y-49577323D01*
X120443709Y-49672561D01*
X120300852Y-49720180D01*
X120205614Y-49720180D01*
X121491328Y-49053514D02*
X121491328Y-49720180D01*
X121253233Y-48672561D02*
X121015138Y-49386847D01*
X121634185Y-49386847D01*
X60858095Y-97822380D02*
X60858095Y-98631904D01*
X60905714Y-98727142D01*
X60953333Y-98774761D01*
X61048571Y-98822380D01*
X61239047Y-98822380D01*
X61334285Y-98774761D01*
X61381904Y-98727142D01*
X61429523Y-98631904D01*
X61429523Y-97822380D01*
X62381904Y-97822380D02*
X61905714Y-97822380D01*
X61858095Y-98298571D01*
X61905714Y-98250952D01*
X62000952Y-98203333D01*
X62239047Y-98203333D01*
X62334285Y-98250952D01*
X62381904Y-98298571D01*
X62429523Y-98393809D01*
X62429523Y-98631904D01*
X62381904Y-98727142D01*
X62334285Y-98774761D01*
X62239047Y-98822380D01*
X62000952Y-98822380D01*
X61905714Y-98774761D01*
X61858095Y-98727142D01*
X65693233Y-66720180D02*
X65359900Y-66243990D01*
X65121804Y-66720180D02*
X65121804Y-65720180D01*
X65502757Y-65720180D01*
X65597995Y-65767800D01*
X65645614Y-65815419D01*
X65693233Y-65910657D01*
X65693233Y-66053514D01*
X65645614Y-66148752D01*
X65597995Y-66196371D01*
X65502757Y-66243990D01*
X65121804Y-66243990D01*
X66026566Y-65720180D02*
X66645614Y-65720180D01*
X66312280Y-66101133D01*
X66455138Y-66101133D01*
X66550376Y-66148752D01*
X66597995Y-66196371D01*
X66645614Y-66291609D01*
X66645614Y-66529704D01*
X66597995Y-66624942D01*
X66550376Y-66672561D01*
X66455138Y-66720180D01*
X66169423Y-66720180D01*
X66074185Y-66672561D01*
X66026566Y-66624942D01*
X64296566Y-72830180D02*
X64296566Y-73544466D01*
X64248947Y-73687323D01*
X64153709Y-73782561D01*
X64010852Y-73830180D01*
X63915614Y-73830180D01*
X64677519Y-72830180D02*
X65344185Y-72830180D01*
X64915614Y-73830180D01*
X92767995Y-97380180D02*
X92767995Y-98189704D01*
X92815614Y-98284942D01*
X92863233Y-98332561D01*
X92958471Y-98380180D01*
X93148947Y-98380180D01*
X93244185Y-98332561D01*
X93291804Y-98284942D01*
X93339423Y-98189704D01*
X93339423Y-97380180D01*
X94339423Y-98380180D02*
X93767995Y-98380180D01*
X94053709Y-98380180D02*
X94053709Y-97380180D01*
X93958471Y-97523038D01*
X93863233Y-97618276D01*
X93767995Y-97665895D01*
X91283333Y-107427142D02*
X91235714Y-107474761D01*
X91092857Y-107522380D01*
X90997619Y-107522380D01*
X90854761Y-107474761D01*
X90759523Y-107379523D01*
X90711904Y-107284285D01*
X90664285Y-107093809D01*
X90664285Y-106950952D01*
X90711904Y-106760476D01*
X90759523Y-106665238D01*
X90854761Y-106570000D01*
X90997619Y-106522380D01*
X91092857Y-106522380D01*
X91235714Y-106570000D01*
X91283333Y-106617619D01*
X92235714Y-107522380D02*
X91664285Y-107522380D01*
X91950000Y-107522380D02*
X91950000Y-106522380D01*
X91854761Y-106665238D01*
X91759523Y-106760476D01*
X91664285Y-106808095D01*
X95443233Y-40170180D02*
X95109900Y-39693990D01*
X94871804Y-40170180D02*
X94871804Y-39170180D01*
X95252757Y-39170180D01*
X95347995Y-39217800D01*
X95395614Y-39265419D01*
X95443233Y-39360657D01*
X95443233Y-39503514D01*
X95395614Y-39598752D01*
X95347995Y-39646371D01*
X95252757Y-39693990D01*
X94871804Y-39693990D01*
X96300376Y-39503514D02*
X96300376Y-40170180D01*
X96062280Y-39122561D02*
X95824185Y-39836847D01*
X96443233Y-39836847D01*
X125976804Y-95957380D02*
X125976804Y-94957380D01*
X126214900Y-94957380D01*
X126357757Y-95005000D01*
X126452995Y-95100238D01*
X126500614Y-95195476D01*
X126548233Y-95385952D01*
X126548233Y-95528809D01*
X126500614Y-95719285D01*
X126452995Y-95814523D01*
X126357757Y-95909761D01*
X126214900Y-95957380D01*
X125976804Y-95957380D01*
X126881566Y-94957380D02*
X127500614Y-94957380D01*
X127167280Y-95338333D01*
X127310138Y-95338333D01*
X127405376Y-95385952D01*
X127452995Y-95433571D01*
X127500614Y-95528809D01*
X127500614Y-95766904D01*
X127452995Y-95862142D01*
X127405376Y-95909761D01*
X127310138Y-95957380D01*
X127024423Y-95957380D01*
X126929185Y-95909761D01*
X126881566Y-95862142D01*
X122850614Y-97857380D02*
X122279185Y-97857380D01*
X122564900Y-97857380D02*
X122564900Y-96857380D01*
X122469661Y-97000238D01*
X122374423Y-97095476D01*
X122279185Y-97143095D01*
X120586566Y-39170180D02*
X120586566Y-39884466D01*
X120538947Y-40027323D01*
X120443709Y-40122561D01*
X120300852Y-40170180D01*
X120205614Y-40170180D01*
X120967519Y-39170180D02*
X121586566Y-39170180D01*
X121253233Y-39551133D01*
X121396090Y-39551133D01*
X121491328Y-39598752D01*
X121538947Y-39646371D01*
X121586566Y-39741609D01*
X121586566Y-39979704D01*
X121538947Y-40074942D01*
X121491328Y-40122561D01*
X121396090Y-40170180D01*
X121110376Y-40170180D01*
X121015138Y-40122561D01*
X120967519Y-40074942D01*
D13*
X87585000Y-33360000D02*
X71415000Y-33360000D01*
X87585000Y-28990000D02*
X87585000Y-28140000D01*
X71415000Y-28140000D02*
X73740000Y-28140000D01*
X87585000Y-28140000D02*
X85260000Y-28140000D01*
X71415000Y-33360000D02*
X71415000Y-32510000D01*
X71415000Y-28990000D02*
X71415000Y-28140000D01*
X87585000Y-32510000D02*
X87585000Y-33360000D01*
X85260000Y-28140000D02*
X85260000Y-25750000D01*
X66720000Y-22200000D02*
X66230000Y-22690000D01*
X66720000Y-19300000D02*
X66230000Y-18810000D01*
X61280000Y-22200000D02*
X61280000Y-19300000D01*
X65040000Y-23470000D02*
X62960000Y-23470000D01*
X61280000Y-19300000D02*
X61770000Y-18810000D01*
X65040000Y-18030000D02*
X62960000Y-18030000D01*
X61280000Y-22200000D02*
X61770000Y-22690000D01*
X66720000Y-22200000D02*
X66720000Y-19300000D01*
X122609420Y-7760000D02*
X122890580Y-7760000D01*
X122609420Y-6740000D02*
X122890580Y-6740000D01*
X70740000Y-12359420D02*
X70740000Y-12640580D01*
X71760000Y-12359420D02*
X71760000Y-12640580D01*
X124262742Y7577500D02*
X124737258Y7577500D01*
X124262742Y8622500D02*
X124737258Y8622500D01*
X132265000Y19750000D02*
X132265000Y17550000D01*
X132265000Y19750000D02*
X132265000Y21950000D01*
X137735000Y19750000D02*
X137735000Y17550000D01*
X137735000Y19750000D02*
X137735000Y23400000D01*
X137511252Y13015000D02*
X136988748Y13015000D01*
X137511252Y14485000D02*
X136988748Y14485000D01*
X94390580Y1870000D02*
X94109420Y1870000D01*
X94390580Y2890000D02*
X94109420Y2890000D01*
D10*
X124900000Y500000D02*
X121100000Y500000D01*
X121100000Y500000D02*
X121100000Y2700000D01*
X121100000Y2700000D02*
X124900000Y2700000D01*
X124900000Y2700000D02*
X124900000Y500000D01*
D13*
X158750000Y-3850000D02*
X158750000Y-11150000D01*
X164250000Y-3850000D02*
X164250000Y-11150000D01*
X158750000Y-11150000D02*
X159900000Y-11150000D01*
X158250000Y-22650000D02*
X158250000Y-15350000D01*
X152750000Y-22650000D02*
X152750000Y-15350000D01*
X158250000Y-15350000D02*
X157100000Y-15350000D01*
X137665000Y27390000D02*
X139990000Y27390000D01*
X145835000Y32610000D02*
X145835000Y31760000D01*
X137665000Y28240000D02*
X137665000Y27390000D01*
X145835000Y27390000D02*
X143510000Y27390000D01*
X139990000Y27390000D02*
X139990000Y25000000D01*
X137665000Y31760000D02*
X137665000Y32610000D01*
X145835000Y28240000D02*
X145835000Y27390000D01*
X137665000Y32610000D02*
X145835000Y32610000D01*
X122488748Y-15515000D02*
X123011252Y-15515000D01*
X122488748Y-16985000D02*
X123011252Y-16985000D01*
X97250000Y-7500000D02*
X97250000Y-5500000D01*
X97250000Y-5500000D02*
X93350000Y-5500000D01*
X97250000Y-7500000D02*
X93350000Y-7500000D01*
X125490000Y19640580D02*
X125490000Y19359420D01*
X126510000Y19640580D02*
X126510000Y19359420D01*
X102235000Y21461252D02*
X102235000Y20938748D01*
X100765000Y21461252D02*
X100765000Y20938748D01*
D10*
X109900000Y2830000D02*
X106100000Y2830000D01*
X106100000Y2830000D02*
X106100000Y5030000D01*
X106100000Y5030000D02*
X109900000Y5030000D01*
X109900000Y5030000D02*
X109900000Y2830000D01*
D13*
X100235000Y19500000D02*
X100235000Y17300000D01*
X94765000Y19500000D02*
X94765000Y17300000D01*
X94765000Y19500000D02*
X94765000Y21700000D01*
X100235000Y19500000D02*
X100235000Y23150000D01*
X103487258Y3607500D02*
X103012742Y3607500D01*
X103487258Y4652500D02*
X103012742Y4652500D01*
X119762742Y22477500D02*
X120237258Y22477500D01*
X119762742Y23522500D02*
X120237258Y23522500D01*
X114735000Y8861252D02*
X114735000Y8338748D01*
X113265000Y8861252D02*
X113265000Y8338748D01*
X74160000Y-11788748D02*
X74160000Y-13211252D01*
X72340000Y-11788748D02*
X72340000Y-13211252D01*
D10*
X106100000Y-170000D02*
X106100000Y2030000D01*
X109900000Y-170000D02*
X106100000Y-170000D01*
X109900000Y2030000D02*
X109900000Y-170000D01*
X106100000Y2030000D02*
X109900000Y2030000D01*
D13*
X138265000Y22011252D02*
X138265000Y21488748D01*
X139735000Y22011252D02*
X139735000Y21488748D01*
X76477500Y-12737258D02*
X76477500Y-12262742D01*
X77522500Y-12737258D02*
X77522500Y-12262742D01*
D10*
X109100000Y20600000D02*
X112900000Y20600000D01*
X112900000Y18400000D02*
X109100000Y18400000D01*
X109100000Y18400000D02*
X109100000Y20600000D01*
X112900000Y20600000D02*
X112900000Y18400000D01*
D13*
X119762742Y16522500D02*
X120237258Y16522500D01*
X119762742Y15477500D02*
X120237258Y15477500D01*
D10*
X73600000Y29600000D02*
X77400000Y29600000D01*
X77400000Y27400000D02*
X73600000Y27400000D01*
X73600000Y27400000D02*
X73600000Y29600000D01*
X77400000Y29600000D02*
X77400000Y27400000D01*
D13*
X85330000Y25960000D02*
X85330000Y24630000D01*
X85330000Y27230000D02*
X82670000Y27230000D01*
X85330000Y24630000D02*
X84000000Y24630000D01*
X82670000Y27230000D02*
X82670000Y32370000D01*
X85330000Y32370000D02*
X82670000Y32370000D01*
X85330000Y27230000D02*
X85330000Y32370000D01*
X69555000Y-7620000D02*
X69555000Y-8000000D01*
X88100000Y-7620000D02*
X88880000Y-7620000D01*
X63135000Y-7620000D02*
X63135000Y10620000D01*
X88880000Y10620000D02*
X88880000Y9620000D01*
X88100000Y10620000D02*
X88880000Y10620000D01*
X63135000Y-7620000D02*
X69555000Y-7620000D01*
X63135000Y10620000D02*
X69555000Y10620000D01*
X88880000Y-7620000D02*
X88880000Y-6620000D01*
X110450000Y-18900000D02*
X112190000Y-18900000D01*
X116250000Y-9590000D02*
X116250000Y-8100000D01*
X112190000Y-8100000D02*
X110450000Y-8100000D01*
X116250000Y-17410000D02*
X116250000Y-18900000D01*
X110450000Y-8100000D02*
X110450000Y-18900000D01*
X116250000Y-8100000D02*
X114910000Y-8100000D01*
X116250000Y-9590000D02*
X117450000Y-9590000D01*
X116250000Y-18900000D02*
X114910000Y-18900000D01*
X124237258Y15477500D02*
X123762742Y15477500D01*
X124237258Y16522500D02*
X123762742Y16522500D01*
X115235000Y2288748D02*
X115235000Y2811252D01*
X113765000Y2288748D02*
X113765000Y2811252D01*
X133835000Y27390000D02*
X131510000Y27390000D01*
X125665000Y27390000D02*
X127990000Y27390000D01*
X133835000Y32610000D02*
X133835000Y31760000D01*
X125665000Y28240000D02*
X125665000Y27390000D01*
X127990000Y27390000D02*
X127990000Y25000000D01*
X125665000Y31760000D02*
X125665000Y32610000D01*
X133835000Y28240000D02*
X133835000Y27390000D01*
X125665000Y32610000D02*
X133835000Y32610000D01*
X164250000Y15150000D02*
X163100000Y15150000D01*
X158750000Y7850000D02*
X158750000Y15150000D01*
X164250000Y7850000D02*
X164250000Y15150000D01*
X99415000Y28240000D02*
X99415000Y27390000D01*
X99415000Y31760000D02*
X99415000Y32610000D01*
X99415000Y32610000D02*
X107585000Y32610000D01*
X107585000Y27390000D02*
X105260000Y27390000D01*
X99415000Y27390000D02*
X101740000Y27390000D01*
X107585000Y28240000D02*
X107585000Y27390000D01*
X101740000Y27390000D02*
X101740000Y25000000D01*
X107585000Y32610000D02*
X107585000Y31760000D01*
X74740000Y-12359420D02*
X74740000Y-12640580D01*
X75760000Y-12359420D02*
X75760000Y-12640580D01*
X62920000Y26780000D02*
X62920000Y19100000D01*
X62920000Y19100000D02*
X65580000Y19100000D01*
X62920000Y28050000D02*
X62920000Y29380000D01*
X62920000Y29380000D02*
X64250000Y29380000D01*
X62920000Y26780000D02*
X65580000Y26780000D01*
X65580000Y26780000D02*
X65580000Y19100000D01*
X116090000Y20227064D02*
X116090000Y18772936D01*
X117910000Y20227064D02*
X117910000Y18772936D01*
X92915000Y-28140000D02*
X95240000Y-28140000D01*
X109085000Y-28140000D02*
X106760000Y-28140000D01*
X109085000Y-28990000D02*
X109085000Y-28140000D01*
X109085000Y-33360000D02*
X92915000Y-33360000D01*
X92915000Y-33360000D02*
X92915000Y-32510000D01*
X92915000Y-28990000D02*
X92915000Y-28140000D01*
X109085000Y-32510000D02*
X109085000Y-33360000D01*
X106760000Y-28140000D02*
X106760000Y-25750000D01*
X122512742Y-14772500D02*
X122987258Y-14772500D01*
X122512742Y-13727500D02*
X122987258Y-13727500D01*
X132740000Y13140580D02*
X132740000Y12859420D01*
X133760000Y13140580D02*
X133760000Y12859420D01*
D14*
X152500000Y-9250000D02*
X152750000Y-9500000D01*
X152500000Y-9750000D02*
X152500000Y-9250000D01*
X152000000Y-8750000D02*
X151000000Y-8750000D01*
X151000000Y-8750000D02*
X150750000Y-9000000D01*
X145750000Y-8750000D02*
X146000000Y-9000000D01*
X146500000Y-10250000D02*
X147500000Y-10250000D01*
X146500000Y-8750000D02*
X146250000Y-9000000D01*
X145750000Y-9250000D02*
X145750000Y-8750000D01*
X149500000Y-8750000D02*
X149250000Y-9000000D01*
X147750000Y-9750000D02*
X147750000Y-9250000D01*
X146250000Y-9000000D02*
X146250000Y-10000000D01*
X152750000Y-9500000D02*
X152500000Y-9750000D01*
X152250000Y-9000000D02*
X152000000Y-8750000D01*
X147750000Y-10000000D02*
X148000000Y-10250000D01*
X148000000Y-8750000D02*
X147750000Y-9000000D01*
X151000000Y-10250000D02*
X152000000Y-10250000D01*
X149000000Y-8750000D02*
X148000000Y-8750000D01*
X147750000Y-9000000D02*
X147500000Y-8750000D01*
X145750000Y-9750000D02*
X146000000Y-10000000D01*
X149500000Y-10250000D02*
X150500000Y-10250000D01*
X149250000Y-10000000D02*
X149500000Y-10250000D01*
X150500000Y-10250000D02*
X150750000Y-10000000D01*
X148000000Y-10250000D02*
X149000000Y-10250000D01*
X152000000Y-10250000D02*
X152250000Y-10000000D01*
X149250000Y-9750000D02*
X149250000Y-9250000D01*
X146000000Y-9000000D02*
X145750000Y-9250000D01*
X145750000Y-10250000D02*
X145750000Y-9750000D01*
X150500000Y-8750000D02*
X149500000Y-8750000D01*
X150750000Y-10000000D02*
X151000000Y-10250000D01*
X150750000Y-9000000D02*
X150500000Y-8750000D01*
X149000000Y-10250000D02*
X149250000Y-10000000D01*
X146000000Y-10000000D02*
X145750000Y-10250000D01*
X150750000Y-9750000D02*
X150750000Y-9250000D01*
X149250000Y-9000000D02*
X149000000Y-8750000D01*
X146250000Y-10000000D02*
X146500000Y-10250000D01*
X147500000Y-8750000D02*
X146500000Y-8750000D01*
X147500000Y-10250000D02*
X147750000Y-10000000D01*
X152250000Y-10000000D02*
X152250000Y-9000000D01*
G36*
X148119353Y9341804D02*
G01*
X148389725Y9341274D01*
X148390963Y9156272D01*
X148220120Y9156272D01*
X148049278Y9156378D01*
X148049278Y9035042D01*
X148362644Y9035042D01*
X148362644Y8865233D01*
X148049278Y8865233D01*
X148049278Y8749995D01*
X148390963Y8749995D01*
X148390963Y8561996D01*
X147849187Y8561996D01*
X147849187Y9342516D01*
X148119353Y9341804D01*
G37*
G36*
X147456549Y9342514D02*
G01*
X147453609Y9264891D01*
X147453036Y9013335D01*
X147453036Y8758363D01*
X147770329Y8758363D01*
X147770434Y8660282D01*
X147770329Y8562200D01*
X147254908Y8562200D01*
X147254908Y9342411D01*
X147456549Y9342516D01*
X147456549Y9342514D01*
G37*
G36*
X149689385Y12451369D02*
G01*
X149863877Y12359785D01*
X149979496Y12233812D01*
X149886354Y12109674D01*
X149727728Y12027520D01*
X149661561Y12134806D01*
X149639610Y12324426D01*
X149674708Y12446925D01*
X149689385Y12451370D01*
X149689385Y12451369D01*
G37*
G36*
X150238822Y12099044D02*
G01*
X150349190Y11928095D01*
X150255304Y11818780D01*
X150138039Y11741956D01*
X149996324Y11776257D01*
X149883688Y11851821D01*
X149940170Y12060564D01*
X150059698Y12232780D01*
X150238822Y12099044D01*
G37*
G36*
X150376800Y12466348D02*
G01*
X150432616Y12273911D01*
X150424740Y12165393D01*
X150259161Y12194128D01*
X150121296Y12254380D01*
X150159831Y12381314D01*
X150275602Y12551830D01*
X150295653Y12563612D01*
X150376800Y12466348D01*
G37*
G36*
X149434838Y9342420D02*
G01*
X149534987Y9342420D01*
X149534881Y9081041D01*
X149535493Y8880798D01*
X149537157Y8807879D01*
X149604646Y8736876D01*
X149728566Y8759303D01*
X149753061Y8798164D01*
X149756753Y8842963D01*
X149757300Y9076493D01*
X149757300Y9342420D01*
X149856829Y9341801D01*
X149956461Y9341272D01*
X149956461Y8781409D01*
X149950879Y8761669D01*
X149945298Y8738724D01*
X149913052Y8674439D01*
X149716372Y8555790D01*
X149593589Y8553001D01*
X149564030Y8557758D01*
X149441557Y8610365D01*
X149361561Y8703589D01*
X149353500Y8721780D01*
X149340374Y8767255D01*
X149335929Y8789475D01*
X149335310Y9065841D01*
X149334781Y9342516D01*
X149434838Y9342420D01*
G37*
G36*
X149213754Y13020899D02*
G01*
X149122533Y12966502D01*
X148929065Y12831961D01*
X148927364Y12830594D01*
X148745308Y12684374D01*
X148655132Y12601193D01*
X148572044Y12524550D01*
X148410056Y12353294D01*
X148408016Y12350818D01*
X148260128Y12171413D01*
X148188908Y12071818D01*
X148123044Y11979714D01*
X148000082Y11779810D01*
X147999587Y11779004D01*
X147890539Y11570090D01*
X147841435Y11456917D01*
X147796685Y11353778D01*
X147749850Y11223938D01*
X147711521Y11081672D01*
X147710105Y11076419D01*
X147722229Y10996343D01*
X147830998Y11068834D01*
X148023472Y11280261D01*
X148232818Y11465181D01*
X148453523Y11620431D01*
X148680069Y11742850D01*
X148906941Y11829276D01*
X149128623Y11876548D01*
X149339601Y11881504D01*
X149534356Y11840983D01*
X149539521Y11839433D01*
X149442941Y12001826D01*
X149373537Y12189179D01*
X149225503Y12390997D01*
X149134831Y12608405D01*
X149134887Y12796361D01*
X149254480Y12796361D01*
X149409524Y12695424D01*
X149522784Y12551104D01*
X149437424Y12426491D01*
X149414263Y12242286D01*
X149332097Y12337681D01*
X149422324Y12223475D01*
X149428836Y12211590D01*
X149520010Y11969853D01*
X149666134Y11778645D01*
X149768970Y11699890D01*
X149868972Y11632142D01*
X149939371Y11539991D01*
X149986278Y11434595D01*
X150015805Y11327110D01*
X150034066Y11228694D01*
X150047171Y11150503D01*
X150061235Y11103695D01*
X150082367Y11099427D01*
X150116682Y11148856D01*
X150170290Y11263139D01*
X150249305Y11453433D01*
X150359838Y11730896D01*
X150362421Y11734515D01*
X150367795Y11743610D01*
X150477358Y11877296D01*
X150560279Y12021109D01*
X150610779Y12206962D01*
X150623077Y12466770D01*
X150627829Y12483927D01*
X150667929Y12596582D01*
X150675784Y12632652D01*
X150623281Y12497879D01*
X150545247Y12644509D01*
X150391564Y12768561D01*
X150466892Y12895974D01*
X150620482Y13062693D01*
X150430945Y12985700D01*
X150243153Y12817338D01*
X150224446Y12803386D01*
X150248321Y12796771D01*
X150272247Y12737325D01*
X150125227Y12702100D01*
X149991474Y12694045D01*
X149807521Y12630890D01*
X149666653Y12570347D01*
X149578869Y12573535D01*
X149644430Y12666547D01*
X149616318Y12669753D01*
X149412295Y12774337D01*
X149254480Y12796361D01*
X149134887Y12796361D01*
X149134895Y12821388D01*
X149155669Y12842369D01*
X149357302Y12848025D01*
X149633676Y12728474D01*
X149853910Y12844046D01*
X150029211Y12874564D01*
X150205527Y12863143D01*
X150399314Y13036156D01*
X150639609Y13128863D01*
X150692836Y13125868D01*
X150712576Y13112845D01*
X150757682Y12960452D01*
X150755675Y12768267D01*
X150726426Y12582335D01*
X150682914Y12463479D01*
X150668455Y12198266D01*
X150614458Y12001944D01*
X150528853Y11848493D01*
X150419571Y11711897D01*
X150404894Y11502223D01*
X150353739Y11298724D01*
X150265780Y11098837D01*
X150140693Y10900003D01*
X150082367Y10828113D01*
X149978151Y10699660D01*
X149992207Y10614186D01*
X150030137Y10456677D01*
X150110872Y10242937D01*
X150194572Y10038925D01*
X150275911Y9839557D01*
X150339886Y9707059D01*
X150441275Y9649077D01*
X150532019Y9607116D01*
X150577184Y9554613D01*
X150617047Y9444342D01*
X150649634Y9299125D01*
X150656456Y9215822D01*
X150651081Y9199079D01*
X150659246Y9178512D01*
X150673303Y9077743D01*
X150657076Y8964262D01*
X150581318Y8858738D01*
X150535131Y8834985D01*
X150527058Y8830833D01*
X150523750Y8828975D01*
X150534086Y8814506D01*
X150559924Y8782156D01*
X150591860Y8741125D01*
X150604469Y8725932D01*
X150633615Y8689242D01*
X150664104Y8650795D01*
X150673406Y8639426D01*
X150691596Y8616172D01*
X150720534Y8579585D01*
X150734280Y8561911D01*
X150487887Y8561911D01*
X150476932Y8577001D01*
X150445926Y8619892D01*
X150412543Y8665265D01*
X150386395Y8701335D01*
X150371099Y8722315D01*
X150345777Y8756938D01*
X150341024Y8763469D01*
X150314565Y8799830D01*
X150306400Y8810372D01*
X150290173Y8809948D01*
X150274050Y8809525D01*
X150272812Y8561891D01*
X150173696Y8561891D01*
X150073650Y8564373D01*
X150073650Y8564479D01*
X150073214Y8679985D01*
X150073333Y8954119D01*
X150073428Y9070596D01*
X150273316Y9070596D01*
X150273845Y8980886D01*
X150341024Y8979129D01*
X150418436Y8984087D01*
X150459364Y9010546D01*
X150475176Y9098602D01*
X150416472Y9153896D01*
X150339577Y9157515D01*
X150273845Y9157515D01*
X150273316Y9070596D01*
X150073428Y9070596D01*
X150073650Y9341175D01*
X150126877Y9341387D01*
X149931437Y9515227D01*
X149886600Y9559558D01*
X149957172Y9559558D01*
X150074189Y9468417D01*
X150194470Y9342826D01*
X150411314Y9308081D01*
X150497875Y9231476D01*
X150535131Y9183390D01*
X150604057Y9234203D01*
X150594239Y9312131D01*
X150529437Y9535787D01*
X150501531Y9568756D01*
X150420399Y9605756D01*
X150299683Y9677277D01*
X150195947Y9570173D01*
X149957172Y9559558D01*
X149886600Y9559558D01*
X149846386Y9599319D01*
X149734515Y9748309D01*
X149586032Y9975147D01*
X149496322Y10113847D01*
X149471517Y10149607D01*
X149413226Y10089352D01*
X149252387Y9954753D01*
X149047770Y9818877D01*
X148958163Y9748701D01*
X149098413Y9698058D01*
X149312250Y9681831D01*
X149470267Y9707115D01*
X149598021Y9705292D01*
X149748812Y9580959D01*
X149730519Y9476159D01*
X149103167Y9398748D01*
X149095621Y9398171D01*
X148789698Y9374770D01*
X148563874Y9368857D01*
X148312424Y9385792D01*
X148034189Y9429651D01*
X148024680Y9429333D01*
X147923441Y9451349D01*
X149095621Y9451349D01*
X149706850Y9526797D01*
X149709226Y9532481D01*
X149704268Y9557182D01*
X149641429Y9626842D01*
X149585929Y9659398D01*
X149525364Y9662187D01*
X149525363Y9662186D01*
X149435446Y9655881D01*
X149435446Y9655987D01*
X149321654Y9636454D01*
X149205321Y9609600D01*
X149190188Y9598007D01*
X149184280Y9559361D01*
X149095621Y9451349D01*
X147923441Y9451349D01*
X147816363Y9474635D01*
X147638388Y9555324D01*
X147492413Y9671179D01*
X147380221Y9821355D01*
X147303041Y10004329D01*
X147261729Y10218845D01*
X147255293Y10435985D01*
X147269120Y10666112D01*
X147301142Y10901585D01*
X147349288Y11134762D01*
X147405469Y11336400D01*
X147440220Y11336400D01*
X147459856Y11330199D01*
X147692814Y11242143D01*
X147711521Y11233668D01*
X147719376Y11252582D01*
X147765781Y11364512D01*
X147772499Y11382186D01*
X147755239Y11389834D01*
X147513703Y11481818D01*
X147502128Y11485538D01*
X147493547Y11476960D01*
X147490346Y11473859D01*
X147488796Y11469932D01*
X147446937Y11355831D01*
X147440220Y11336400D01*
X147405469Y11336400D01*
X147411487Y11358001D01*
X147498592Y11585830D01*
X147540301Y11675914D01*
X147575715Y11675914D01*
X147594629Y11667646D01*
X147822625Y11553131D01*
X147841435Y11542382D01*
X147850634Y11562019D01*
X147902413Y11669196D01*
X147911199Y11686249D01*
X147894455Y11695758D01*
X147663669Y11813373D01*
X147646408Y11821021D01*
X147637830Y11804175D01*
X147584500Y11694518D01*
X147575715Y11675914D01*
X147540301Y11675914D01*
X147601056Y11807136D01*
X147702875Y11993207D01*
X147741700Y11993207D01*
X147761750Y11983906D01*
X147982512Y11857505D01*
X148000082Y11845620D01*
X148010934Y11863810D01*
X148073256Y11965923D01*
X148084004Y11982355D01*
X148067675Y11993311D01*
X147842779Y12123742D01*
X147826863Y12131287D01*
X147817354Y12116404D01*
X147753069Y12012225D01*
X147741700Y11993207D01*
X147702875Y11993207D01*
X147718157Y12021135D01*
X147849170Y12227042D01*
X147902990Y12300579D01*
X147942928Y12300579D01*
X147961738Y12289210D01*
X148172785Y12144413D01*
X148188908Y12132217D01*
X148200897Y12148443D01*
X148273760Y12243425D01*
X148286473Y12259444D01*
X148270350Y12271847D01*
X148055996Y12419745D01*
X148040906Y12428840D01*
X148029951Y12414990D01*
X147955950Y12318252D01*
X147942928Y12300579D01*
X147902990Y12300579D01*
X147993372Y12424073D01*
X148131566Y12589347D01*
X148176402Y12589347D01*
X148194592Y12576324D01*
X148393237Y12415404D01*
X148408016Y12401968D01*
X148421452Y12416748D01*
X148503927Y12503461D01*
X148518397Y12518240D01*
X148503101Y12532193D01*
X148300529Y12697454D01*
X148286473Y12707582D01*
X148274484Y12695077D01*
X148191388Y12605987D01*
X148176402Y12589347D01*
X148131566Y12589347D01*
X148150041Y12611442D01*
X148318452Y12788365D01*
X148385088Y12849899D01*
X148432717Y12849899D01*
X148451424Y12835326D01*
X148641697Y12664174D01*
X148655132Y12650532D01*
X148669292Y12663347D01*
X148760242Y12740758D01*
X148776882Y12754608D01*
X148761690Y12770008D01*
X148568419Y12947568D01*
X148555500Y12958110D01*
X148542891Y12947258D01*
X148450287Y12865816D01*
X148432717Y12849899D01*
X148385088Y12849899D01*
X148497881Y12954057D01*
X148664803Y13089264D01*
X148719521Y13089264D01*
X148736781Y13072935D01*
X148915272Y12886589D01*
X148927364Y12873154D01*
X148941937Y12883799D01*
X149040742Y12952322D01*
X149059655Y12965138D01*
X149044566Y12982191D01*
X148864112Y13172877D01*
X148852330Y13184349D01*
X148838791Y13174944D01*
X148738642Y13103424D01*
X148719521Y13089264D01*
X148664803Y13089264D01*
X148687606Y13107734D01*
X148886903Y13248611D01*
X148957922Y13292043D01*
X149019451Y13292043D01*
X149036814Y13273853D01*
X149203006Y13076449D01*
X149213754Y13062186D01*
X149229154Y13071178D01*
X149334367Y13129882D01*
X149354624Y13140734D01*
X149340982Y13159338D01*
X149173447Y13363253D01*
X149162802Y13374622D01*
X149149159Y13367181D01*
X149041052Y13304859D01*
X149019451Y13292043D01*
X148957922Y13292043D01*
X149095049Y13375903D01*
X149268565Y13466503D01*
X149344082Y13466503D01*
X149362376Y13446969D01*
X149524434Y13242847D01*
X149533735Y13228688D01*
X149549238Y13235612D01*
X149660343Y13283878D01*
X149682770Y13292870D01*
X149669747Y13313127D01*
X149593708Y13421660D01*
X149508517Y13524587D01*
X149499422Y13534819D01*
X149486606Y13529961D01*
X149367854Y13478595D01*
X149344082Y13466503D01*
X149268565Y13466503D01*
X149311320Y13488827D01*
X149501609Y13567532D01*
X149598039Y13609957D01*
X149688765Y13609957D01*
X149706128Y13590526D01*
X149861054Y13387954D01*
X149871079Y13372141D01*
X149887512Y13381133D01*
X149995206Y13449863D01*
X150009882Y13461025D01*
X149999960Y13476528D01*
X149840280Y13681890D01*
X149827981Y13695532D01*
X149813305Y13684371D01*
X149711916Y13621738D01*
X149688765Y13609957D01*
X149598039Y13609957D01*
X149697345Y13653647D01*
X149871906Y13789170D01*
X149887822Y13980166D01*
X149725868Y14070393D01*
X149542532Y14029433D01*
X149369714Y14092407D01*
X149334674Y14244833D01*
X149436480Y14369496D01*
X149563291Y14427589D01*
X149709435Y14447218D01*
X149709540Y14447129D01*
X149885429Y14430566D01*
X150048771Y14364265D01*
X150191680Y14235876D01*
X150284585Y14038211D01*
X150287697Y13822822D01*
X150212493Y13621853D01*
X150070448Y13467447D01*
X149921951Y13368437D01*
X149871079Y13342895D01*
X149753361Y13283789D01*
X149535464Y13193223D01*
X149533735Y13192352D01*
X149324927Y13087192D01*
X149213754Y13020899D01*
G37*
G36*
X148592404Y9341787D02*
G01*
X148691933Y9340236D01*
X148697098Y9327627D01*
X148707020Y9304889D01*
X148719319Y9275537D01*
X148731928Y9247218D01*
X148740403Y9227995D01*
X148759936Y9181486D01*
X148767791Y9163399D01*
X148798384Y9092706D01*
X148809339Y9067798D01*
X148817298Y9048988D01*
X148825359Y9029867D01*
X148833420Y9011264D01*
X148843859Y8986872D01*
X148854401Y8963721D01*
X148859359Y8973540D01*
X148868248Y8994417D01*
X148875379Y9011574D01*
X148905455Y9080200D01*
X148915480Y9103248D01*
X148925298Y9125675D01*
X148956408Y9197609D01*
X148979248Y9251146D01*
X148986897Y9268406D01*
X148993718Y9283598D01*
X149008911Y9318945D01*
X149018936Y9341166D01*
X149216444Y9341166D01*
X149216444Y8562919D01*
X149018419Y8562919D01*
X149017800Y8671026D01*
X149023381Y8852927D01*
X149030616Y8935299D01*
X149028547Y8943878D01*
X149016455Y8922070D01*
X148987103Y8845796D01*
X148981108Y8829673D01*
X148970773Y8802594D01*
X148962608Y8781613D01*
X148953410Y8756189D01*
X148939974Y8721566D01*
X148932222Y8702342D01*
X148926435Y8685702D01*
X148924059Y8677020D01*
X148855226Y8677640D01*
X148786290Y8678259D01*
X148777298Y8701513D01*
X148762622Y8739961D01*
X148750530Y8771173D01*
X148725208Y8835665D01*
X148698750Y8902638D01*
X148689758Y8926409D01*
X148680147Y8944082D01*
X148678702Y8934471D01*
X148684696Y8869772D01*
X148689655Y8688284D01*
X148689655Y8561987D01*
X148491527Y8561987D01*
X148492146Y8951627D01*
X148492972Y9341474D01*
X148592604Y9341897D01*
X148592404Y9341787D01*
G37*
D13*
X122609420Y-17740000D02*
X122890580Y-17740000D01*
X122609420Y-18760000D02*
X122890580Y-18760000D01*
X122609420Y-9240000D02*
X122890580Y-9240000D01*
X122609420Y-10260000D02*
X122890580Y-10260000D01*
X124237258Y23522500D02*
X123762742Y23522500D01*
X124237258Y22477500D02*
X123762742Y22477500D01*
X100011252Y12765000D02*
X99488748Y12765000D01*
X100011252Y14235000D02*
X99488748Y14235000D01*
X95490000Y13390580D02*
X95490000Y13109420D01*
X96510000Y13390580D02*
X96510000Y13109420D01*
X103487258Y607500D02*
X103012742Y607500D01*
X103487258Y1652500D02*
X103012742Y1652500D01*
X96085000Y32610000D02*
X96085000Y31760000D01*
X87915000Y32610000D02*
X96085000Y32610000D01*
X87915000Y28240000D02*
X87915000Y27390000D01*
X87915000Y31760000D02*
X87915000Y32610000D01*
X90240000Y27390000D02*
X90240000Y25000000D01*
X96085000Y28240000D02*
X96085000Y27390000D01*
X96085000Y27390000D02*
X93760000Y27390000D01*
X87915000Y27390000D02*
X90240000Y27390000D01*
X171750000Y4150000D02*
X170600000Y4150000D01*
X171750000Y-3150000D02*
X171750000Y4150000D01*
X166250000Y-3150000D02*
X166250000Y4150000D01*
X158750000Y18350000D02*
X158750000Y25650000D01*
X158750000Y25650000D02*
X157600000Y25650000D01*
X153250000Y18350000D02*
X153250000Y25650000D01*
X122488748Y-12485000D02*
X123011252Y-12485000D01*
X122488748Y-11015000D02*
X123011252Y-11015000D01*
X117490000Y2762779D02*
X117490000Y2437221D01*
X118510000Y2762779D02*
X118510000Y2437221D01*
X122488748Y-19515000D02*
X123011252Y-19515000D01*
X122488748Y-20985000D02*
X123011252Y-20985000D01*
D14*
X96400000Y2730000D02*
X96400000Y2010000D01*
X99100000Y2830000D02*
X99100000Y2010000D01*
X96620000Y-470000D02*
X96400000Y-470000D01*
X96400000Y-470000D02*
X96400000Y250000D01*
X99100000Y250000D02*
X99100000Y-470000D01*
X96400000Y2730000D02*
X96620000Y2730000D01*
X99100000Y-470000D02*
X98880000Y-470000D01*
D13*
X119000000Y5540000D02*
X118200000Y5540000D01*
X119000000Y8660000D02*
X119800000Y8660000D01*
X119000000Y5540000D02*
X119800000Y5540000D01*
X119000000Y8660000D02*
X117200000Y8660000D01*
X94390580Y-1130000D02*
X94109420Y-1130000D01*
X94390580Y-110000D02*
X94109420Y-110000D01*
X122609420Y-5760000D02*
X122890580Y-5760000D01*
X122609420Y-4740000D02*
X122890580Y-4740000D01*
X122000000Y21060000D02*
X120200000Y21060000D01*
X122000000Y17940000D02*
X121200000Y17940000D01*
X122000000Y17940000D02*
X122800000Y17940000D01*
X122000000Y21060000D02*
X122800000Y21060000D01*
X124737258Y5577500D02*
X124262742Y5577500D01*
X124737258Y6622500D02*
X124262742Y6622500D01*
X112165000Y28240000D02*
X112165000Y27390000D01*
X114490000Y27390000D02*
X114490000Y25000000D01*
X120335000Y27390000D02*
X118010000Y27390000D01*
X120335000Y32610000D02*
X120335000Y31760000D01*
X112165000Y27390000D02*
X114490000Y27390000D01*
X112165000Y31760000D02*
X112165000Y32610000D01*
X112165000Y32610000D02*
X120335000Y32610000D01*
X120335000Y28240000D02*
X120335000Y27390000D01*
X65059900Y-51567800D02*
X63179900Y-51567800D01*
X65059900Y-45547800D02*
X83299900Y-45547800D01*
X65059900Y-65787800D02*
X66079900Y-65787800D01*
X65059900Y-65467800D02*
X65059900Y-65787800D01*
X83299900Y-45547800D02*
X83299900Y-52067800D01*
X83299900Y-65467800D02*
X83299900Y-65767800D01*
X82179900Y-65787800D02*
X83299900Y-65787800D01*
X65059900Y-45547800D02*
X65059900Y-51567800D01*
X91100378Y-105310000D02*
X91899622Y-105310000D01*
X91100378Y-106430000D02*
X91899622Y-106430000D01*
X70994900Y-78837800D02*
X70994900Y-79687800D01*
X70994900Y-74467800D02*
X79164900Y-74467800D01*
X70994900Y-79687800D02*
X73319900Y-79687800D01*
X70994900Y-75317800D02*
X70994900Y-74467800D01*
X73319900Y-79687800D02*
X73319900Y-82077800D01*
X79164900Y-79687800D02*
X76839900Y-79687800D01*
X79164900Y-78837800D02*
X79164900Y-79687800D01*
X79164900Y-74467800D02*
X79164900Y-75317800D01*
X65859420Y-100510000D02*
X66140580Y-100510000D01*
X65859420Y-99490000D02*
X66140580Y-99490000D01*
D10*
X110339900Y-76527800D02*
X106539900Y-76527800D01*
X106539900Y-74327800D02*
X110339900Y-74327800D01*
X110339900Y-74327800D02*
X110339900Y-76527800D01*
X106539900Y-76527800D02*
X106539900Y-74327800D01*
D13*
X123064900Y-102875000D02*
X130364900Y-102875000D01*
X123064900Y-108375000D02*
X130364900Y-108375000D01*
X130364900Y-108375000D02*
X130364900Y-107225000D01*
X183608848Y-82495000D02*
X184131352Y-82495000D01*
X183608848Y-83965000D02*
X184131352Y-83965000D01*
X89614900Y-78837800D02*
X89614900Y-79687800D01*
X81444900Y-79687800D02*
X83769900Y-79687800D01*
X81444900Y-75317800D02*
X81444900Y-74467800D01*
X89614900Y-74467800D02*
X89614900Y-75317800D01*
X81444900Y-74467800D02*
X89614900Y-74467800D01*
X89614900Y-79687800D02*
X87289900Y-79687800D01*
X83769900Y-79687800D02*
X83769900Y-82077800D01*
X81444900Y-78837800D02*
X81444900Y-79687800D01*
X89949900Y-51167800D02*
X92609900Y-51167800D01*
X89949900Y-40887800D02*
X91279900Y-40887800D01*
X89949900Y-43487800D02*
X89949900Y-51167800D01*
X92609900Y-43487800D02*
X92609900Y-51167800D01*
X89949900Y-43487800D02*
X92609900Y-43487800D01*
X89949900Y-42217800D02*
X89949900Y-40887800D01*
X131484900Y-96255000D02*
X138784900Y-96255000D01*
X138784900Y-101755000D02*
X138784900Y-100605000D01*
X131484900Y-101755000D02*
X138784900Y-101755000D01*
X156249420Y-78787800D02*
X156530580Y-78787800D01*
X156249420Y-79807800D02*
X156530580Y-79807800D01*
X172859420Y-51257800D02*
X173140580Y-51257800D01*
X172859420Y-50237800D02*
X173140580Y-50237800D01*
X186982842Y-89022500D02*
X187457358Y-89022500D01*
X186982842Y-87977500D02*
X187457358Y-87977500D01*
X149140000Y-40557800D02*
X149140000Y-40812800D01*
X153000000Y-40557800D02*
X149140000Y-40557800D01*
X149140000Y-51077800D02*
X149140000Y-50822800D01*
X153000000Y-51077800D02*
X149140000Y-51077800D01*
X149140000Y-40812800D02*
X147325000Y-40812800D01*
X156860000Y-51077800D02*
X156860000Y-50822800D01*
X156860000Y-40557800D02*
X156860000Y-40812800D01*
X153000000Y-51077800D02*
X156860000Y-51077800D01*
X153000000Y-40557800D02*
X156860000Y-40557800D01*
X81299900Y-86697800D02*
X81299900Y-91837800D01*
X83959900Y-86697800D02*
X83959900Y-91837800D01*
X81299900Y-91837800D02*
X83959900Y-91837800D01*
X81299900Y-84097800D02*
X82629900Y-84097800D01*
X81299900Y-86697800D02*
X83959900Y-86697800D01*
X81299900Y-85427800D02*
X81299900Y-84097800D01*
X101762742Y-97967500D02*
X102237258Y-97967500D01*
X101762742Y-99012500D02*
X102237258Y-99012500D01*
D14*
X180000000Y-105500000D02*
X180000000Y-104500000D01*
X175500000Y-105500000D02*
X175750000Y-105750000D01*
X173500000Y-105250000D02*
X173750000Y-105500000D01*
X175500000Y-104500000D02*
X175250000Y-104250000D01*
X180250000Y-105250000D02*
X180250000Y-104750000D01*
X177250000Y-104250000D02*
X177000000Y-104500000D01*
X174000000Y-105500000D02*
X174250000Y-105750000D01*
X173750000Y-104500000D02*
X173500000Y-104750000D01*
X179750000Y-105750000D02*
X180000000Y-105500000D01*
X180250000Y-104750000D02*
X180500000Y-105000000D01*
X178500000Y-104500000D02*
X178250000Y-104250000D01*
X178500000Y-105250000D02*
X178500000Y-104750000D01*
X176750000Y-104250000D02*
X175750000Y-104250000D01*
X173500000Y-104250000D02*
X173750000Y-104500000D01*
X175250000Y-104250000D02*
X174250000Y-104250000D01*
X173500000Y-105750000D02*
X173500000Y-105250000D01*
X175750000Y-104250000D02*
X175500000Y-104500000D01*
X177000000Y-105250000D02*
X177000000Y-104750000D01*
X178750000Y-105750000D02*
X179750000Y-105750000D01*
X177250000Y-105750000D02*
X178250000Y-105750000D01*
X178250000Y-105750000D02*
X178500000Y-105500000D01*
X180500000Y-105000000D02*
X180250000Y-105250000D01*
X175750000Y-105750000D02*
X176750000Y-105750000D01*
X173750000Y-105500000D02*
X173500000Y-105750000D01*
X178500000Y-105500000D02*
X178750000Y-105750000D01*
X179750000Y-104250000D02*
X178750000Y-104250000D01*
X180000000Y-104500000D02*
X179750000Y-104250000D01*
X176750000Y-105750000D02*
X177000000Y-105500000D01*
X175500000Y-105250000D02*
X175500000Y-104750000D01*
X178750000Y-104250000D02*
X178500000Y-104500000D01*
X177000000Y-104500000D02*
X176750000Y-104250000D01*
X173500000Y-104750000D02*
X173500000Y-104250000D01*
X174000000Y-104500000D02*
X174000000Y-105500000D01*
X174250000Y-105750000D02*
X175250000Y-105750000D01*
X177000000Y-105500000D02*
X177250000Y-105750000D01*
X178250000Y-104250000D02*
X177250000Y-104250000D01*
X174250000Y-104250000D02*
X174000000Y-104500000D01*
X175250000Y-105750000D02*
X175500000Y-105500000D01*
D13*
X70994900Y-88387800D02*
X70994900Y-89237800D01*
X79164900Y-88387800D02*
X79164900Y-89237800D01*
X73319900Y-89237800D02*
X73319900Y-91627800D01*
X70994900Y-84017800D02*
X79164900Y-84017800D01*
X79164900Y-84017800D02*
X79164900Y-84867800D01*
X79164900Y-89237800D02*
X76839900Y-89237800D01*
X70994900Y-84867800D02*
X70994900Y-84017800D01*
X70994900Y-89237800D02*
X73319900Y-89237800D01*
X181808748Y-40662800D02*
X182331252Y-40662800D01*
X181808748Y-42132800D02*
X182331252Y-42132800D01*
X183509520Y-86500000D02*
X183790680Y-86500000D01*
X183509520Y-85480000D02*
X183790680Y-85480000D01*
X74129900Y-93477800D02*
X74129900Y-95477800D01*
X74129900Y-93477800D02*
X78029900Y-93477800D01*
X74129900Y-95477800D02*
X78029900Y-95477800D01*
X189340000Y-70667800D02*
X189340000Y-72007800D01*
X180030000Y-70667800D02*
X180030000Y-69467800D01*
X178540000Y-70667800D02*
X178540000Y-72007800D01*
X189340000Y-76467800D02*
X189340000Y-74727800D01*
X187850000Y-70667800D02*
X189340000Y-70667800D01*
X178540000Y-74727800D02*
X178540000Y-76467800D01*
X178540000Y-76467800D02*
X189340000Y-76467800D01*
X180030000Y-70667800D02*
X178540000Y-70667800D01*
X158810000Y-69002800D02*
X161010000Y-69002800D01*
X158810000Y-74472800D02*
X156610000Y-74472800D01*
X158810000Y-69002800D02*
X155160000Y-69002800D01*
X158810000Y-74472800D02*
X161010000Y-74472800D01*
D10*
X110339900Y-80277800D02*
X106539900Y-80277800D01*
X106539900Y-80277800D02*
X106539900Y-78077800D01*
X110339900Y-78077800D02*
X110339900Y-80277800D01*
X106539900Y-78077800D02*
X110339900Y-78077800D01*
D13*
X91009900Y-56557800D02*
X91009900Y-54477800D01*
X95179900Y-58237800D02*
X95669900Y-57747800D01*
X96449900Y-56557800D02*
X96449900Y-54477800D01*
X92279900Y-52797800D02*
X95179900Y-52797800D01*
X92279900Y-58237800D02*
X91789900Y-57747800D01*
X92279900Y-58237800D02*
X95179900Y-58237800D01*
X95179900Y-52797800D02*
X95669900Y-53287800D01*
X92279900Y-52797800D02*
X91789900Y-53287800D01*
X139082642Y-77840300D02*
X139557158Y-77840300D01*
X139082642Y-76795300D02*
X139557158Y-76795300D01*
X160509900Y-100260000D02*
X156649900Y-100260000D01*
X160509900Y-89740000D02*
X164369900Y-89740000D01*
X156649900Y-89740000D02*
X156649900Y-89995000D01*
X160509900Y-100260000D02*
X164369900Y-100260000D01*
X164369900Y-100260000D02*
X164369900Y-100005000D01*
X164369900Y-89740000D02*
X164369900Y-89995000D01*
X160509900Y-89740000D02*
X156649900Y-89740000D01*
X156649900Y-100260000D02*
X156649900Y-100005000D01*
X156649900Y-89995000D02*
X154834900Y-89995000D01*
X60544900Y-89237800D02*
X62869900Y-89237800D01*
X68714900Y-88387800D02*
X68714900Y-89237800D01*
X68714900Y-89237800D02*
X66389900Y-89237800D01*
X60544900Y-84017800D02*
X68714900Y-84017800D01*
X60544900Y-84867800D02*
X60544900Y-84017800D01*
X68714900Y-84017800D02*
X68714900Y-84867800D01*
X62869900Y-89237800D02*
X62869900Y-91627800D01*
X60544900Y-88387800D02*
X60544900Y-89237800D01*
X61109420Y-103740000D02*
X61390580Y-103740000D01*
X61109420Y-104760000D02*
X61390580Y-104760000D01*
X93762742Y-68522500D02*
X94237258Y-68522500D01*
X93762742Y-67477500D02*
X94237258Y-67477500D01*
X93859420Y-66000000D02*
X94140580Y-66000000D01*
X93859420Y-64980000D02*
X94140580Y-64980000D01*
X139082642Y-74285300D02*
X139557158Y-74285300D01*
X139082642Y-75330300D02*
X139557158Y-75330300D01*
X129004900Y-65127800D02*
X126679900Y-65127800D01*
X112834900Y-64277800D02*
X112834900Y-65127800D01*
X112834900Y-60757800D02*
X112834900Y-59907800D01*
X112834900Y-65127800D02*
X115159900Y-65127800D01*
X115159900Y-65127800D02*
X115159900Y-67517800D01*
X129004900Y-59907800D02*
X129004900Y-60757800D01*
X129004900Y-64277800D02*
X129004900Y-65127800D01*
X112834900Y-59907800D02*
X129004900Y-59907800D01*
X61368648Y-67212800D02*
X61891152Y-67212800D01*
X61368648Y-68682800D02*
X61891152Y-68682800D01*
D10*
X85729900Y-86077800D02*
X85729900Y-83877800D01*
X89529900Y-86077800D02*
X85729900Y-86077800D01*
X85729900Y-83877800D02*
X89529900Y-83877800D01*
X89529900Y-83877800D02*
X89529900Y-86077800D01*
D13*
X187519520Y-86500000D02*
X187800680Y-86500000D01*
X187519520Y-85480000D02*
X187800680Y-85480000D01*
X165198748Y-70682800D02*
X165721252Y-70682800D01*
X165198748Y-69212800D02*
X165721252Y-69212800D01*
G36*
X183213754Y-104479101D02*
G01*
X183122533Y-104533498D01*
X182929065Y-104668039D01*
X182927364Y-104669406D01*
X182745308Y-104815626D01*
X182655132Y-104898807D01*
X182572044Y-104975450D01*
X182410056Y-105146706D01*
X182408016Y-105149182D01*
X182260128Y-105328587D01*
X182188908Y-105428182D01*
X182123044Y-105520286D01*
X182000082Y-105720190D01*
X181999587Y-105720996D01*
X181890539Y-105929910D01*
X181841435Y-106043083D01*
X181796685Y-106146222D01*
X181749850Y-106276062D01*
X181711521Y-106418328D01*
X181710105Y-106423581D01*
X181722229Y-106503657D01*
X181830998Y-106431166D01*
X182023472Y-106219739D01*
X182232818Y-106034819D01*
X182453523Y-105879569D01*
X182680069Y-105757150D01*
X182906941Y-105670724D01*
X183128623Y-105623452D01*
X183339601Y-105618496D01*
X183534356Y-105659017D01*
X183539521Y-105660567D01*
X183442941Y-105498174D01*
X183373537Y-105310821D01*
X183225503Y-105109003D01*
X183134831Y-104891595D01*
X183134887Y-104703639D01*
X183254480Y-104703639D01*
X183409524Y-104804576D01*
X183522784Y-104948896D01*
X183437424Y-105073509D01*
X183414263Y-105257714D01*
X183332097Y-105162319D01*
X183422324Y-105276525D01*
X183428836Y-105288410D01*
X183520010Y-105530147D01*
X183666134Y-105721355D01*
X183768970Y-105800110D01*
X183868972Y-105867858D01*
X183939371Y-105960009D01*
X183986278Y-106065405D01*
X184015805Y-106172890D01*
X184034066Y-106271306D01*
X184047171Y-106349497D01*
X184061235Y-106396305D01*
X184082367Y-106400573D01*
X184116682Y-106351144D01*
X184170290Y-106236861D01*
X184249305Y-106046567D01*
X184359838Y-105769104D01*
X184362421Y-105765485D01*
X184367795Y-105756390D01*
X184477358Y-105622704D01*
X184560279Y-105478891D01*
X184610779Y-105293038D01*
X184623077Y-105033230D01*
X184627829Y-105016073D01*
X184667929Y-104903418D01*
X184675784Y-104867348D01*
X184623281Y-105002121D01*
X184545247Y-104855491D01*
X184391564Y-104731439D01*
X184466892Y-104604026D01*
X184620482Y-104437307D01*
X184430945Y-104514300D01*
X184243153Y-104682662D01*
X184224446Y-104696614D01*
X184248321Y-104703229D01*
X184272247Y-104762675D01*
X184125227Y-104797900D01*
X183991474Y-104805955D01*
X183807521Y-104869110D01*
X183666653Y-104929653D01*
X183578869Y-104926465D01*
X183644430Y-104833453D01*
X183616318Y-104830247D01*
X183412295Y-104725663D01*
X183254480Y-104703639D01*
X183134887Y-104703639D01*
X183134895Y-104678612D01*
X183155669Y-104657631D01*
X183357302Y-104651975D01*
X183633676Y-104771526D01*
X183853910Y-104655954D01*
X184029211Y-104625436D01*
X184205527Y-104636857D01*
X184399314Y-104463844D01*
X184639609Y-104371137D01*
X184692836Y-104374132D01*
X184712576Y-104387155D01*
X184757682Y-104539548D01*
X184755675Y-104731733D01*
X184726426Y-104917665D01*
X184682914Y-105036521D01*
X184668455Y-105301734D01*
X184614458Y-105498056D01*
X184528853Y-105651507D01*
X184419571Y-105788103D01*
X184404894Y-105997777D01*
X184353739Y-106201276D01*
X184265780Y-106401163D01*
X184140693Y-106599997D01*
X184082367Y-106671887D01*
X183978151Y-106800340D01*
X183992207Y-106885814D01*
X184030137Y-107043323D01*
X184110872Y-107257063D01*
X184194572Y-107461075D01*
X184275911Y-107660443D01*
X184339886Y-107792941D01*
X184441275Y-107850923D01*
X184532019Y-107892884D01*
X184577184Y-107945387D01*
X184617047Y-108055658D01*
X184649634Y-108200875D01*
X184656456Y-108284178D01*
X184651081Y-108300921D01*
X184659246Y-108321488D01*
X184673303Y-108422257D01*
X184657076Y-108535738D01*
X184581318Y-108641262D01*
X184535131Y-108665015D01*
X184527058Y-108669167D01*
X184523750Y-108671025D01*
X184534086Y-108685494D01*
X184559924Y-108717844D01*
X184591860Y-108758875D01*
X184604469Y-108774068D01*
X184633615Y-108810758D01*
X184664104Y-108849205D01*
X184673406Y-108860574D01*
X184691596Y-108883828D01*
X184720534Y-108920415D01*
X184734280Y-108938089D01*
X184487887Y-108938089D01*
X184476932Y-108922999D01*
X184445926Y-108880108D01*
X184412543Y-108834735D01*
X184386395Y-108798665D01*
X184371099Y-108777685D01*
X184345777Y-108743062D01*
X184341024Y-108736531D01*
X184314565Y-108700170D01*
X184306400Y-108689628D01*
X184290173Y-108690052D01*
X184274050Y-108690475D01*
X184272812Y-108938109D01*
X184173696Y-108938109D01*
X184073650Y-108935627D01*
X184073650Y-108935521D01*
X184073214Y-108820015D01*
X184073333Y-108545881D01*
X184073428Y-108429404D01*
X184273316Y-108429404D01*
X184273845Y-108519114D01*
X184341024Y-108520871D01*
X184418436Y-108515913D01*
X184459364Y-108489454D01*
X184475176Y-108401398D01*
X184416472Y-108346104D01*
X184339577Y-108342485D01*
X184273845Y-108342485D01*
X184273316Y-108429404D01*
X184073428Y-108429404D01*
X184073650Y-108158825D01*
X184126877Y-108158613D01*
X183931437Y-107984773D01*
X183886600Y-107940442D01*
X183957172Y-107940442D01*
X184074189Y-108031583D01*
X184194470Y-108157174D01*
X184411314Y-108191919D01*
X184497875Y-108268524D01*
X184535131Y-108316610D01*
X184604057Y-108265797D01*
X184594239Y-108187869D01*
X184529437Y-107964213D01*
X184501531Y-107931244D01*
X184420399Y-107894244D01*
X184299683Y-107822723D01*
X184195947Y-107929827D01*
X183957172Y-107940442D01*
X183886600Y-107940442D01*
X183846386Y-107900681D01*
X183734515Y-107751691D01*
X183586032Y-107524853D01*
X183496322Y-107386153D01*
X183471517Y-107350393D01*
X183413226Y-107410648D01*
X183252387Y-107545247D01*
X183047770Y-107681123D01*
X182958163Y-107751299D01*
X183098413Y-107801942D01*
X183312250Y-107818169D01*
X183470267Y-107792885D01*
X183598021Y-107794708D01*
X183748812Y-107919041D01*
X183730519Y-108023841D01*
X183103167Y-108101252D01*
X183095621Y-108101829D01*
X182789698Y-108125230D01*
X182563874Y-108131143D01*
X182312424Y-108114208D01*
X182034189Y-108070349D01*
X182024680Y-108070667D01*
X181923441Y-108048651D01*
X183095621Y-108048651D01*
X183706850Y-107973203D01*
X183709226Y-107967519D01*
X183704268Y-107942818D01*
X183641429Y-107873158D01*
X183585929Y-107840602D01*
X183525364Y-107837813D01*
X183525363Y-107837814D01*
X183435446Y-107844119D01*
X183435446Y-107844013D01*
X183321654Y-107863546D01*
X183205321Y-107890400D01*
X183190188Y-107901993D01*
X183184280Y-107940639D01*
X183095621Y-108048651D01*
X181923441Y-108048651D01*
X181816363Y-108025365D01*
X181638388Y-107944676D01*
X181492413Y-107828821D01*
X181380221Y-107678645D01*
X181303041Y-107495671D01*
X181261729Y-107281155D01*
X181255293Y-107064015D01*
X181269120Y-106833888D01*
X181301142Y-106598415D01*
X181349288Y-106365238D01*
X181405469Y-106163600D01*
X181440220Y-106163600D01*
X181459856Y-106169801D01*
X181692814Y-106257857D01*
X181711521Y-106266332D01*
X181719376Y-106247418D01*
X181765781Y-106135488D01*
X181772499Y-106117814D01*
X181755239Y-106110166D01*
X181513703Y-106018182D01*
X181502128Y-106014462D01*
X181493547Y-106023040D01*
X181490346Y-106026141D01*
X181488796Y-106030068D01*
X181446937Y-106144169D01*
X181440220Y-106163600D01*
X181405469Y-106163600D01*
X181411487Y-106141999D01*
X181498592Y-105914170D01*
X181540301Y-105824086D01*
X181575715Y-105824086D01*
X181594629Y-105832354D01*
X181822625Y-105946869D01*
X181841435Y-105957618D01*
X181850634Y-105937981D01*
X181902413Y-105830804D01*
X181911199Y-105813751D01*
X181894455Y-105804242D01*
X181663669Y-105686627D01*
X181646408Y-105678979D01*
X181637830Y-105695825D01*
X181584500Y-105805482D01*
X181575715Y-105824086D01*
X181540301Y-105824086D01*
X181601056Y-105692864D01*
X181702875Y-105506793D01*
X181741700Y-105506793D01*
X181761750Y-105516094D01*
X181982512Y-105642495D01*
X182000082Y-105654380D01*
X182010934Y-105636190D01*
X182073256Y-105534077D01*
X182084004Y-105517645D01*
X182067675Y-105506689D01*
X181842779Y-105376258D01*
X181826863Y-105368713D01*
X181817354Y-105383596D01*
X181753069Y-105487775D01*
X181741700Y-105506793D01*
X181702875Y-105506793D01*
X181718157Y-105478865D01*
X181849170Y-105272958D01*
X181902990Y-105199421D01*
X181942928Y-105199421D01*
X181961738Y-105210790D01*
X182172785Y-105355587D01*
X182188908Y-105367783D01*
X182200897Y-105351557D01*
X182273760Y-105256575D01*
X182286473Y-105240556D01*
X182270350Y-105228153D01*
X182055996Y-105080255D01*
X182040906Y-105071160D01*
X182029951Y-105085010D01*
X181955950Y-105181748D01*
X181942928Y-105199421D01*
X181902990Y-105199421D01*
X181993372Y-105075927D01*
X182131566Y-104910653D01*
X182176402Y-104910653D01*
X182194592Y-104923676D01*
X182393237Y-105084596D01*
X182408016Y-105098032D01*
X182421452Y-105083252D01*
X182503927Y-104996539D01*
X182518397Y-104981760D01*
X182503101Y-104967807D01*
X182300529Y-104802546D01*
X182286473Y-104792418D01*
X182274484Y-104804923D01*
X182191388Y-104894013D01*
X182176402Y-104910653D01*
X182131566Y-104910653D01*
X182150041Y-104888558D01*
X182318452Y-104711635D01*
X182385088Y-104650101D01*
X182432717Y-104650101D01*
X182451424Y-104664674D01*
X182641697Y-104835826D01*
X182655132Y-104849468D01*
X182669292Y-104836653D01*
X182760242Y-104759242D01*
X182776882Y-104745392D01*
X182761690Y-104729992D01*
X182568419Y-104552432D01*
X182555500Y-104541890D01*
X182542891Y-104552742D01*
X182450287Y-104634184D01*
X182432717Y-104650101D01*
X182385088Y-104650101D01*
X182497881Y-104545943D01*
X182664803Y-104410736D01*
X182719521Y-104410736D01*
X182736781Y-104427065D01*
X182915272Y-104613411D01*
X182927364Y-104626846D01*
X182941937Y-104616201D01*
X183040742Y-104547678D01*
X183059655Y-104534862D01*
X183044566Y-104517809D01*
X182864112Y-104327123D01*
X182852330Y-104315651D01*
X182838791Y-104325056D01*
X182738642Y-104396576D01*
X182719521Y-104410736D01*
X182664803Y-104410736D01*
X182687606Y-104392266D01*
X182886903Y-104251389D01*
X182957922Y-104207957D01*
X183019451Y-104207957D01*
X183036814Y-104226147D01*
X183203006Y-104423551D01*
X183213754Y-104437814D01*
X183229154Y-104428822D01*
X183334367Y-104370118D01*
X183354624Y-104359266D01*
X183340982Y-104340662D01*
X183173447Y-104136747D01*
X183162802Y-104125378D01*
X183149159Y-104132819D01*
X183041052Y-104195141D01*
X183019451Y-104207957D01*
X182957922Y-104207957D01*
X183095049Y-104124097D01*
X183268565Y-104033497D01*
X183344082Y-104033497D01*
X183362376Y-104053031D01*
X183524434Y-104257153D01*
X183533735Y-104271312D01*
X183549238Y-104264388D01*
X183660343Y-104216122D01*
X183682770Y-104207130D01*
X183669747Y-104186873D01*
X183593708Y-104078340D01*
X183508517Y-103975413D01*
X183499422Y-103965181D01*
X183486606Y-103970039D01*
X183367854Y-104021405D01*
X183344082Y-104033497D01*
X183268565Y-104033497D01*
X183311320Y-104011173D01*
X183501609Y-103932468D01*
X183598039Y-103890043D01*
X183688765Y-103890043D01*
X183706128Y-103909474D01*
X183861054Y-104112046D01*
X183871079Y-104127859D01*
X183887512Y-104118867D01*
X183995206Y-104050137D01*
X184009882Y-104038975D01*
X183999960Y-104023472D01*
X183840280Y-103818110D01*
X183827981Y-103804468D01*
X183813305Y-103815629D01*
X183711916Y-103878262D01*
X183688765Y-103890043D01*
X183598039Y-103890043D01*
X183697345Y-103846353D01*
X183871906Y-103710830D01*
X183887822Y-103519834D01*
X183725868Y-103429607D01*
X183542532Y-103470567D01*
X183369714Y-103407593D01*
X183334674Y-103255167D01*
X183436480Y-103130504D01*
X183563291Y-103072411D01*
X183709435Y-103052782D01*
X183709540Y-103052871D01*
X183885429Y-103069434D01*
X184048771Y-103135735D01*
X184191680Y-103264124D01*
X184284585Y-103461789D01*
X184287697Y-103677178D01*
X184212493Y-103878147D01*
X184070448Y-104032553D01*
X183921951Y-104131563D01*
X183871079Y-104157105D01*
X183753361Y-104216211D01*
X183535464Y-104306777D01*
X183533735Y-104307648D01*
X183324927Y-104412808D01*
X183213754Y-104479101D01*
G37*
G36*
X184238822Y-105400956D02*
G01*
X184349190Y-105571905D01*
X184255304Y-105681220D01*
X184138039Y-105758044D01*
X183996324Y-105723743D01*
X183883688Y-105648179D01*
X183940170Y-105439436D01*
X184059698Y-105267220D01*
X184238822Y-105400956D01*
G37*
G36*
X183689385Y-105048631D02*
G01*
X183863877Y-105140215D01*
X183979496Y-105266188D01*
X183886354Y-105390326D01*
X183727728Y-105472480D01*
X183661561Y-105365194D01*
X183639610Y-105175574D01*
X183674708Y-105053075D01*
X183689385Y-105048630D01*
X183689385Y-105048631D01*
G37*
G36*
X183434838Y-108157580D02*
G01*
X183534987Y-108157580D01*
X183534881Y-108418959D01*
X183535493Y-108619202D01*
X183537157Y-108692121D01*
X183604646Y-108763124D01*
X183728566Y-108740697D01*
X183753061Y-108701836D01*
X183756753Y-108657037D01*
X183757300Y-108423507D01*
X183757300Y-108157580D01*
X183856829Y-108158199D01*
X183956461Y-108158728D01*
X183956461Y-108718591D01*
X183950879Y-108738331D01*
X183945298Y-108761276D01*
X183913052Y-108825561D01*
X183716372Y-108944210D01*
X183593589Y-108946999D01*
X183564030Y-108942242D01*
X183441557Y-108889635D01*
X183361561Y-108796411D01*
X183353500Y-108778220D01*
X183340374Y-108732745D01*
X183335929Y-108710525D01*
X183335310Y-108434159D01*
X183334781Y-108157484D01*
X183434838Y-108157580D01*
G37*
G36*
X182592404Y-108158213D02*
G01*
X182691933Y-108159764D01*
X182697098Y-108172373D01*
X182707020Y-108195111D01*
X182719319Y-108224463D01*
X182731928Y-108252782D01*
X182740403Y-108272005D01*
X182759936Y-108318514D01*
X182767791Y-108336601D01*
X182798384Y-108407294D01*
X182809339Y-108432202D01*
X182817298Y-108451012D01*
X182825359Y-108470133D01*
X182833420Y-108488736D01*
X182843859Y-108513128D01*
X182854401Y-108536279D01*
X182859359Y-108526460D01*
X182868248Y-108505583D01*
X182875379Y-108488426D01*
X182905455Y-108419800D01*
X182915480Y-108396752D01*
X182925298Y-108374325D01*
X182956408Y-108302391D01*
X182979248Y-108248854D01*
X182986897Y-108231594D01*
X182993718Y-108216402D01*
X183008911Y-108181055D01*
X183018936Y-108158834D01*
X183216444Y-108158834D01*
X183216444Y-108937081D01*
X183018419Y-108937081D01*
X183017800Y-108828974D01*
X183023381Y-108647073D01*
X183030616Y-108564701D01*
X183028547Y-108556122D01*
X183016455Y-108577930D01*
X182987103Y-108654204D01*
X182981108Y-108670327D01*
X182970773Y-108697406D01*
X182962608Y-108718387D01*
X182953410Y-108743811D01*
X182939974Y-108778434D01*
X182932222Y-108797658D01*
X182926435Y-108814298D01*
X182924059Y-108822980D01*
X182855226Y-108822360D01*
X182786290Y-108821741D01*
X182777298Y-108798487D01*
X182762622Y-108760039D01*
X182750530Y-108728827D01*
X182725208Y-108664335D01*
X182698750Y-108597362D01*
X182689758Y-108573591D01*
X182680147Y-108555918D01*
X182678702Y-108565529D01*
X182684696Y-108630228D01*
X182689655Y-108811716D01*
X182689655Y-108938013D01*
X182491527Y-108938013D01*
X182492146Y-108548373D01*
X182492972Y-108158526D01*
X182592604Y-108158103D01*
X182592404Y-108158213D01*
G37*
G36*
X182119353Y-108158196D02*
G01*
X182389725Y-108158726D01*
X182390963Y-108343728D01*
X182220120Y-108343728D01*
X182049278Y-108343622D01*
X182049278Y-108464958D01*
X182362644Y-108464958D01*
X182362644Y-108634767D01*
X182049278Y-108634767D01*
X182049278Y-108750005D01*
X182390963Y-108750005D01*
X182390963Y-108938004D01*
X181849187Y-108938004D01*
X181849187Y-108157484D01*
X182119353Y-108158196D01*
G37*
G36*
X181456549Y-108157486D02*
G01*
X181453609Y-108235109D01*
X181453036Y-108486665D01*
X181453036Y-108741637D01*
X181770329Y-108741637D01*
X181770434Y-108839718D01*
X181770329Y-108937800D01*
X181254908Y-108937800D01*
X181254908Y-108157589D01*
X181456549Y-108157484D01*
X181456549Y-108157486D01*
G37*
G36*
X184376800Y-105033652D02*
G01*
X184432616Y-105226089D01*
X184424740Y-105334607D01*
X184259161Y-105305872D01*
X184121296Y-105245620D01*
X184159831Y-105118686D01*
X184275602Y-104948170D01*
X184295653Y-104936388D01*
X184376800Y-105033652D01*
G37*
X148409420Y-53507800D02*
X148690580Y-53507800D01*
X148409420Y-52487800D02*
X148690580Y-52487800D01*
X179158848Y-85505000D02*
X179681352Y-85505000D01*
X179158848Y-86975000D02*
X179681352Y-86975000D01*
X179059520Y-88490000D02*
X179340680Y-88490000D01*
X179059520Y-89510000D02*
X179340680Y-89510000D01*
X90819320Y-60657800D02*
X91100480Y-60657800D01*
X90819320Y-59637800D02*
X91100480Y-59637800D01*
X179158848Y-83965000D02*
X179681352Y-83965000D01*
X179158848Y-82495000D02*
X179681352Y-82495000D01*
X156348748Y-77272800D02*
X156871252Y-77272800D01*
X156348748Y-75802800D02*
X156871252Y-75802800D01*
X131484900Y-89635000D02*
X138784900Y-89635000D01*
X131484900Y-95135000D02*
X138784900Y-95135000D01*
X138784900Y-95135000D02*
X138784900Y-93985000D01*
X101762742Y-101522500D02*
X102237258Y-101522500D01*
X101762742Y-100477500D02*
X102237258Y-100477500D01*
D10*
X91529900Y-81217800D02*
X95329900Y-81217800D01*
X91529900Y-83417800D02*
X91529900Y-81217800D01*
X95329900Y-81217800D02*
X95329900Y-83417800D01*
X95329900Y-83417800D02*
X91529900Y-83417800D01*
D13*
X172958748Y-47252800D02*
X173481252Y-47252800D01*
X172958748Y-48722800D02*
X173481252Y-48722800D01*
X155919320Y-101670000D02*
X156200480Y-101670000D01*
X155919320Y-102690000D02*
X156200480Y-102690000D01*
X175420000Y-45922800D02*
X177620000Y-45922800D01*
X175420000Y-40452800D02*
X177620000Y-40452800D01*
X175420000Y-45922800D02*
X173220000Y-45922800D01*
X175420000Y-40452800D02*
X171770000Y-40452800D01*
X183069520Y-88490000D02*
X183350680Y-88490000D01*
X183069520Y-89510000D02*
X183350680Y-89510000D01*
X123064900Y-89635000D02*
X130364900Y-89635000D01*
X123064900Y-95135000D02*
X130364900Y-95135000D01*
X130364900Y-95135000D02*
X130364900Y-93985000D01*
D10*
X85729900Y-89827800D02*
X85729900Y-87627800D01*
X89529900Y-87627800D02*
X89529900Y-89827800D01*
X89529900Y-89827800D02*
X85729900Y-89827800D01*
X85729900Y-87627800D02*
X89529900Y-87627800D01*
D13*
X95738748Y-106735000D02*
X96261252Y-106735000D01*
X95738748Y-105265000D02*
X96261252Y-105265000D01*
X129004900Y-55577800D02*
X126679900Y-55577800D01*
X112834900Y-51207800D02*
X112834900Y-50357800D01*
X112834900Y-50357800D02*
X129004900Y-50357800D01*
X129004900Y-50357800D02*
X129004900Y-51207800D01*
X112834900Y-55577800D02*
X115159900Y-55577800D01*
X112834900Y-54727800D02*
X112834900Y-55577800D01*
X129004900Y-54727800D02*
X129004900Y-55577800D01*
X115159900Y-55577800D02*
X115159900Y-57967800D01*
D14*
X59920000Y-99520000D02*
X60740000Y-99520000D01*
X60020000Y-102220000D02*
X60020000Y-102000000D01*
X63220000Y-102000000D02*
X63220000Y-102220000D01*
X63220000Y-99520000D02*
X63220000Y-99740000D01*
X62500000Y-99520000D02*
X63220000Y-99520000D01*
X60020000Y-102220000D02*
X60740000Y-102220000D01*
X63220000Y-102220000D02*
X62500000Y-102220000D01*
D13*
X65622642Y-67175300D02*
X66097158Y-67175300D01*
X65622642Y-68220300D02*
X66097158Y-68220300D01*
X62869900Y-79687800D02*
X62869900Y-82077800D01*
X68714900Y-78837800D02*
X68714900Y-79687800D01*
X68714900Y-74467800D02*
X68714900Y-75317800D01*
X68714900Y-79687800D02*
X66389900Y-79687800D01*
X60544900Y-78837800D02*
X60544900Y-79687800D01*
X60544900Y-75317800D02*
X60544900Y-74467800D01*
X60544900Y-74467800D02*
X68714900Y-74467800D01*
X60544900Y-79687800D02*
X62869900Y-79687800D01*
X93529900Y-98767800D02*
X94329900Y-98767800D01*
X93529900Y-98767800D02*
X91729900Y-98767800D01*
X93529900Y-101887800D02*
X92729900Y-101887800D01*
X93529900Y-101887800D02*
X94329900Y-101887800D01*
X91188748Y-108015000D02*
X91711252Y-108015000D01*
X91188748Y-109485000D02*
X91711252Y-109485000D01*
X95372642Y-40625300D02*
X95847158Y-40625300D01*
X95372642Y-41670300D02*
X95847158Y-41670300D01*
X130364900Y-101755000D02*
X130364900Y-100605000D01*
X123064900Y-96255000D02*
X130364900Y-96255000D01*
X123064900Y-101755000D02*
X130364900Y-101755000D01*
X112834900Y-45177800D02*
X112834900Y-46027800D01*
X129004900Y-46027800D02*
X126679900Y-46027800D01*
X129004900Y-45177800D02*
X129004900Y-46027800D01*
X129004900Y-40807800D02*
X129004900Y-41657800D01*
X112834900Y-40807800D02*
X129004900Y-40807800D01*
X115159900Y-46027800D02*
X115159900Y-48417800D01*
X112834900Y-41657800D02*
X112834900Y-40807800D01*
X112834900Y-46027800D02*
X115159900Y-46027800D01*
M02*
