G04 #@! TF.GenerationSoftware,KiCad,Pcbnew,(6.0.7)*
G04 #@! TF.CreationDate,2022-08-30T21:45:04-07:00*
G04 #@! TF.ProjectId,CombinedPanel,436f6d62-696e-4656-9450-616e656c2e6b,rev?*
G04 #@! TF.SameCoordinates,Original*
G04 #@! TF.FileFunction,Soldermask,Bot*
G04 #@! TF.FilePolarity,Negative*
%FSLAX46Y46*%
G04 Gerber Fmt 4.6, Leading zero omitted, Abs format (unit mm)*
G04 Created by KiCad (PCBNEW (6.0.7)) date 2022-08-30 21:45:04*
%MOMM*%
%LPD*%
G01*
G04 APERTURE LIST*
%ADD10C,0.650000*%
%ADD11R,1.700000X1.700000*%
%ADD12O,1.700000X1.700000*%
%ADD13C,1.152000*%
%ADD14C,0.380000*%
G04 APERTURE END LIST*
D10*
X63325000Y-32000000D02*
G75*
G03*
X63325000Y-32000000I-325000J0D01*
G01*
X176825000Y500000D02*
G75*
G03*
X176825000Y500000I-325000J0D01*
G01*
X63325000Y33000000D02*
G75*
G03*
X63325000Y33000000I-325000J0D01*
G01*
X193325000Y-42000000D02*
G75*
G03*
X193325000Y-42000000I-325000J0D01*
G01*
X193325000Y-108000000D02*
G75*
G03*
X193325000Y-108000000I-325000J0D01*
G01*
X61325000Y-108000000D02*
G75*
G03*
X61325000Y-108000000I-325000J0D01*
G01*
D11*
X84000000Y25960000D03*
D12*
X84000000Y28500000D03*
X84000000Y31040000D03*
D13*
X63000000Y-32000000D03*
X176500000Y500000D03*
D11*
X64250000Y28050000D03*
D12*
X64250000Y25510000D03*
X64250000Y22970000D03*
X64250000Y20430000D03*
D13*
X63000000Y33000000D03*
D14*
X156540000Y-37000000D03*
X150825000Y-39000000D03*
X152095000Y-37000000D03*
X154635000Y-39000000D03*
X151460000Y-39000000D03*
X156540000Y-39000000D03*
X152730000Y-37000000D03*
X154000000Y-37000000D03*
X151460000Y-37000000D03*
X154000000Y-39000000D03*
X154635000Y-37000000D03*
X153365000Y-37000000D03*
X153365000Y-39000000D03*
X152095000Y-39000000D03*
X155270000Y-37000000D03*
X155270000Y-39000000D03*
X150825000Y-37000000D03*
X155905000Y-37000000D03*
X152730000Y-39000000D03*
X155905000Y-39000000D03*
X157175000Y-39000000D03*
X157175000Y-37000000D03*
X64540000Y-37000000D03*
X58825000Y-39000000D03*
X60095000Y-37000000D03*
X62635000Y-39000000D03*
X59460000Y-39000000D03*
X64540000Y-39000000D03*
X60730000Y-37000000D03*
X62000000Y-37000000D03*
X59460000Y-37000000D03*
X62000000Y-39000000D03*
X62635000Y-37000000D03*
X61365000Y-37000000D03*
X61365000Y-39000000D03*
X60095000Y-39000000D03*
X63270000Y-37000000D03*
X63270000Y-39000000D03*
X58825000Y-37000000D03*
X63905000Y-37000000D03*
X60730000Y-39000000D03*
X63905000Y-39000000D03*
X65175000Y-39000000D03*
X65175000Y-37000000D03*
D13*
X193000000Y-42000000D03*
D11*
X91279900Y-42217800D03*
D12*
X91279900Y-44757800D03*
X91279900Y-47297800D03*
X91279900Y-49837800D03*
D11*
X82629900Y-85427800D03*
D12*
X82629900Y-87967800D03*
X82629900Y-90507800D03*
D13*
X193000000Y-108000000D03*
X61000000Y-108000000D03*
M02*
