M48
; DRILL file {KiCad (6.0.7)} date Tue Aug 30 21:45:07 2022
; FORMAT={-:-/ absolute / inch / decimal}
; #@! TF.CreationDate,2022-08-30T21:45:07-07:00
; #@! TF.GenerationSoftware,Kicad,Pcbnew,(6.0.7)
; #@! TF.FileFunction,Plated,1,2,PTH
FMAT,2
INCH
; #@! TA.AperFunction,Plated,PTH,ViaDrill
T1C0.0118
; #@! TA.AperFunction,Plated,PTH,ComponentDrill
T2C0.0118
; #@! TA.AperFunction,Plated,PTH,ComponentDrill
T3C0.0394
%
G90
G05
T1
X2.4409Y-0.8268
X2.4535Y-3.6372
X2.5966Y-3.7781
X2.6266Y-2.1281
X2.7756Y0.315
X2.7756Y-0.1969
X2.8346Y0.5709
X2.8346Y-0.3543
X2.8839Y-0.5709
X2.95Y-3.0048
X2.9528Y0.0197
X2.9724Y1.0335
X3.0079Y0.4541
X3.1425Y0.4541
X3.2087Y0.0197
X3.248Y-0.9843
X3.2767Y-2.687
X3.3148Y-2.4909
X3.3149Y-2.4318
X3.3209Y-2.0943
X3.3268Y-0.9252
X3.3268Y-0.9843
X3.3544Y-2.1468
X3.378Y0.4541
X3.3797Y-2.1239
X3.3916Y-0.8372
X3.3945Y0.6803
X3.4026Y-0.3707
X3.4032Y0.5374
X3.4055Y-0.1575
X3.5613Y-1.5637
X3.6598Y-3.1109
X3.6832Y-2.7179
X3.7038Y-2.6477
X3.7205Y-0.2559
X3.7402Y0.0346
X3.8386Y-0.0591
X3.8578Y0.1429
X3.8583Y0.9449
X3.8681Y0.5906
X3.9173Y-0.1378
X3.9764Y0.9449
X3.988Y0.6851
X4.0551Y0.7874
X4.0945Y0.2165
X4.0945Y0.0
X4.0945Y-0.9843
X4.1011Y-3.1015
X4.4291Y0.3937
X4.4291Y0.3543
X4.439Y1.0433
X4.4488Y0.1417
X4.5669Y0.2795
X4.5866Y0.5512
X4.6063Y0.5709
X4.7047Y-0.5118
X4.7409Y-2.6791
X4.8031Y0.7677
X4.8052Y0.608
X4.9016Y-0.4134
X4.9016Y-0.748
X4.9213Y-0.5906
X4.9528Y0.671
X4.9606Y0.9055
X4.9606Y0.8465
X4.9606Y0.7087
X4.9802Y-3.5544
X4.9803Y0.2362
X5.0Y0.3189
X5.0394Y0.5315
X5.0591Y0.5512
X5.2347Y0.7623
X5.2953Y0.4921
X5.3047Y-2.9264
X5.3308Y-2.6737
X5.3346Y0.4921
X5.3432Y0.5991
X5.3445Y0.9744
X5.4134Y0.9744
X5.5118Y0.4921
X5.5315Y0.8169
X5.5315Y0.5118
X5.7688Y-2.924
X5.7692Y-3.1029
X5.8316Y-2.8261
X5.8667Y-2.9118
X5.9165Y-1.8604
X6.0644Y-2.7386
X6.1666Y-2.9662
X6.2004Y-3.8004
X6.2205Y-0.3937
X6.2697Y-0.6496
X6.2795Y0.9646
X6.3776Y-3.8652
X6.4862Y0.5512
X6.5244Y-1.9186
X6.6532Y-1.8861
X6.6967Y-1.9112
X6.7418Y-1.7896
X6.753Y-2.0312
X6.8012Y0.1181
X7.0257Y-1.8218
X7.0271Y-1.8572
X7.093Y-2.8068
X7.1352Y-3.5341
X7.1694Y-3.3551
X7.1984Y-3.4479
X7.3161Y-3.4474
X7.3402Y-2.807
T2
X3.7913Y0.815
X3.7913Y0.7205
X3.8858Y0.815
X3.8858Y0.7205
X5.2677Y0.8248
X5.2677Y0.7303
X5.3622Y0.8248
X5.3622Y0.7303
X6.2051Y-2.7771
X6.2051Y-2.8716
X6.2996Y-2.7771
X6.2996Y-2.8716
X6.8591Y-1.6531
X6.8591Y-1.7476
X6.9535Y-1.6531
X6.9535Y-1.7476
T3
X2.5295Y1.1043
X2.5295Y1.0043
X2.5295Y0.9043
X2.5295Y0.8043
X3.2531Y-3.3633
X3.2531Y-3.4633
X3.2531Y-3.5633
X3.3071Y1.222
X3.3071Y1.122
X3.3071Y1.022
X3.5937Y-1.6621
X3.5937Y-1.7621
X3.5937Y-1.8621
X3.5937Y-1.9621
T0
M30
