M48
; DRILL file {KiCad (6.0.7)} date Tue Aug 30 21:45:07 2022
; FORMAT={-:-/ absolute / inch / decimal}
; #@! TF.CreationDate,2022-08-30T21:45:07-07:00
; #@! TF.GenerationSoftware,Kicad,Pcbnew,(6.0.7)
; #@! TF.FileFunction,NonPlated,1,2,NPTH
FMAT,2
INCH
; #@! TA.AperFunction,NonPlated,NPTH,ComponentDrill
T1C0.0150
; #@! TA.AperFunction,NonPlated,NPTH,ComponentDrill
T2C0.0454
%
G90
G05
T1
X2.3159Y-1.4567
X2.3159Y-1.5354
X2.3409Y-1.4567
X2.3409Y-1.5354
X2.3659Y-1.4567
X2.3659Y-1.5354
X2.3909Y-1.4567
X2.3909Y-1.5354
X2.4159Y-1.4567
X2.4159Y-1.5354
X2.4409Y-1.4567
X2.4409Y-1.5354
X2.4659Y-1.4567
X2.4659Y-1.5354
X2.4909Y-1.4567
X2.4909Y-1.5354
X2.5159Y-1.4567
X2.5159Y-1.5354
X2.5409Y-1.4567
X2.5409Y-1.5354
X2.5659Y-1.4567
X2.5659Y-1.5354
X5.938Y-1.4567
X5.938Y-1.5354
X5.963Y-1.4567
X5.963Y-1.5354
X5.988Y-1.4567
X5.988Y-1.5354
X6.013Y-1.4567
X6.013Y-1.5354
X6.038Y-1.4567
X6.038Y-1.5354
X6.063Y-1.4567
X6.063Y-1.5354
X6.088Y-1.4567
X6.088Y-1.5354
X6.113Y-1.4567
X6.113Y-1.5354
X6.138Y-1.4567
X6.138Y-1.5354
X6.163Y-1.4567
X6.163Y-1.5354
X6.188Y-1.4567
X6.188Y-1.5354
T2
X2.4016Y-4.252
X2.4803Y1.2992
X2.4803Y-1.2598
X6.9488Y0.0197
X7.5984Y-1.6535
X7.5984Y-4.252
T0
M30
