M48
; DRILL file {KiCad (6.0.7)} date Wed Sep 14 01:52:14 2022
; FORMAT={-:-/ absolute / inch / decimal}
; #@! TF.CreationDate,2022-09-14T01:52:14-07:00
; #@! TF.GenerationSoftware,Kicad,Pcbnew,(6.0.7)
; #@! TF.FileFunction,Plated,1,2,PTH
FMAT,2
INCH
; #@! TA.AperFunction,Plated,PTH,ComponentDrill
T1C0.0079
; #@! TA.AperFunction,Plated,PTH,ViaDrill
T2C0.0118
; #@! TA.AperFunction,Plated,PTH,ComponentDrill
T3C0.0118
; #@! TA.AperFunction,Plated,PTH,ViaDrill
T4C0.0157
; #@! TA.AperFunction,Plated,PTH,ComponentDrill
T5C0.0295
; #@! TA.AperFunction,Plated,PTH,ComponentDrill
T6C0.0394
%
G90
G05
T1
X7.0059Y-2.5335
X7.0059Y-2.5846
X7.0492Y-2.5335
X7.0492Y-2.5846
T2
X3.9173Y-2.8346
X3.9173Y-3.622
X3.9173Y-3.8386
X3.9961Y-3.878
X4.0255Y-2.9567
X4.035Y-2.79
X4.0913Y-3.4822
X4.1142Y-4.2126
X4.1339Y-3.8386
X4.1732Y-3.4646
X4.1737Y-2.717
X4.2743Y-3.9631
X4.3512Y-3.4594
X4.3556Y-4.2191
X4.3758Y-3.4846
X4.4104Y-3.6226
X4.4681Y-2.9548
X4.4685Y-2.3425
X4.5593Y-3.6226
X4.6236Y-2.7707
X4.629Y-3.6323
X4.6654Y-3.4646
X4.6664Y-3.2461
X4.7328Y-3.5353
X4.7449Y-3.3732
X4.7457Y-2.6864
X4.7991Y-3.5122
X4.8184Y-3.4736
X4.8331Y-3.9879
X4.8478Y-3.6568
X4.8622Y-2.874
X4.8694Y-3.5376
X4.9213Y-3.2677
X4.9213Y-3.3465
X5.0Y-2.4016
X5.0039Y-3.3927
X5.0054Y-4.0906
X5.0121Y-4.2103
X5.0591Y-2.2047
X5.0787Y-2.9075
X5.0787Y-2.9921
X5.0787Y-3.0906
X5.0787Y-3.6024
X5.0796Y-2.6183
X5.1181Y-2.185
X5.1181Y-2.6378
X5.1181Y-2.8346
X5.1181Y-2.9075
X5.1181Y-2.9921
X5.1181Y-3.0906
X5.1181Y-3.3071
X5.1969Y-3.2283
X5.2063Y-2.8061
X5.2444Y-2.7815
X5.2708Y-2.481
X5.315Y-2.5787
X5.315Y-2.6772
X5.3229Y-3.2871
X5.4331Y-3.937
X5.4439Y-2.8149
X5.4528Y-3.622
X5.4947Y-2.6972
X5.5072Y-2.6016
X5.543Y-2.4827
X5.549Y-2.6583
X5.5709Y-2.8937
X5.5906Y-2.874
X5.6092Y-2.833
X5.6556Y-3.4665
X5.6884Y-3.1506
X5.6884Y-3.4988
X5.748Y-3.5441
X5.7677Y-2.6752
X5.7677Y-2.7343
X5.826Y-3.5441
X5.8288Y-3.2455
X5.8968Y-3.1488
X5.9646Y-2.8346
X5.9843Y-2.9724
X5.9843Y-3.0118
X5.9861Y-2.9395
X6.0009Y-2.9921
X6.0039Y-3.189
X6.0129Y-2.7124
X6.0236Y-2.5787
X6.0236Y-2.6772
X6.0236Y-3.3465
X6.0236Y-3.4252
X6.2021Y-2.6976
X6.2205Y-3.2283
X6.2598Y-3.1496
X6.2598Y-3.2283
X6.2929Y-2.7092
X6.4567Y-3.1496
X6.6337Y-3.1901
X6.6535Y-3.2677
X6.749Y-2.8372
X6.8012Y-2.5886
X6.9685Y-2.7165
X6.9685Y-2.7953
X7.1654Y-2.5197
X7.1654Y-2.5984
X7.5197Y-2.3228
X7.5197Y-3.8583
X7.5542Y-3.4709
X7.6772Y-2.7165
X7.6772Y-3.4646
X7.7242Y-3.2569
X7.8346Y-3.1102
T3
X5.6669Y-2.5118
X5.6669Y-2.6063
X5.7614Y-2.5118
X5.7614Y-2.6063
X6.3701Y-2.5118
X6.3701Y-2.6063
X6.4646Y-2.5118
X6.4646Y-2.6063
T4
X4.0551Y-3.2677
X4.3701Y-3.2677
X4.5276Y-2.6772
T5
X4.5669Y-2.2835
X4.6457Y-2.2835
X4.6457Y-4.1555
X4.7244Y-4.1555
X4.8031Y-4.1555
X4.8819Y-4.1555
X4.9606Y-4.1555
X5.0394Y-4.1555
X5.315Y-2.2835
X5.3642Y-4.1555
X5.3937Y-2.2835
X5.4429Y-4.1555
X5.5217Y-4.1555
X5.6004Y-4.1555
X5.6791Y-4.1555
X5.7217Y-2.2835
X5.7579Y-4.1555
X5.8005Y-2.2835
X6.0827Y-4.1555
X6.1342Y-2.2835
X6.1614Y-4.1555
X6.2129Y-2.2835
X6.2402Y-4.1555
X6.3189Y-4.1555
X6.3976Y-4.1555
X6.4764Y-4.1555
X6.5409Y-2.2835
X6.6197Y-2.2835
X6.8504Y-4.1122
X6.9291Y-4.1122
X6.9685Y-2.2835
X7.0079Y-4.1122
X7.0472Y-2.2835
T6
X4.0157Y-2.2472
X4.0157Y-2.3472
X4.0157Y-2.4472
X4.0157Y-2.5472
X4.2913Y-2.2665
X4.2913Y-2.3665
X4.2913Y-2.4665
T0
M30
