M48
; DRILL file {KiCad (5.1.2)-1} date 12/27/2019 2:53:14 PM
; FORMAT={-:-/ absolute / inch / decimal}
; #@! TF.CreationDate,2019-12-27T14:53:14-08:00
; #@! TF.GenerationSoftware,Kicad,Pcbnew,(5.1.2)-1
; #@! TF.FileFunction,Plated,1,2,PTH
FMAT,2
INCH
T1C0.0157
T2C0.0315
T3C0.0354
T4C0.0374
T5C0.0394
T6C0.0512
T7C0.0748
T8C0.0984
%
G90
G05
T1
X5.2362Y-1.5551
X5.2362Y-2.0276
X5.2362Y-2.0669
X5.2362Y-2.5
X5.3346Y-1.6142
X5.3937Y-1.378
X5.4528Y-2.5
X5.4528Y-3.4843
X5.4921Y-2.5
X5.4921Y-3.4843
X5.5118Y-2.5984
X5.5118Y-3.5827
X5.5315Y-1.5551
X5.5315Y-1.5945
X5.5315Y-2.5
X5.5315Y-3.4843
X5.6299Y-2.5984
X5.6299Y-3.5827
X5.689Y-1.9488
X5.7087Y-2.5984
X5.7087Y-3.5827
X5.8661Y-2.7953
X6.0236Y-2.6378
X6.0236Y-2.7953
X6.1024Y-2.7165
X6.1024Y-3.0709
X6.1817Y-2.0047
X6.1817Y-2.2797
X6.1817Y-3.1071
X6.1817Y-3.3821
X6.2567Y-1.9297
X6.2567Y-2.0047
X6.2567Y-2.2797
X6.2567Y-3.1071
X6.2567Y-3.3821
X6.4067Y-2.1547
X6.4067Y-2.2047
X6.4067Y-2.2547
X6.4067Y-3.2571
X6.4067Y-3.3071
X6.4067Y-3.3571
X6.4961Y-2.9724
X6.5067Y-2.0047
X6.5067Y-2.1547
X6.5067Y-2.2547
X6.5067Y-2.4047
X6.5067Y-3.1071
X6.5067Y-3.2571
X6.5067Y-3.3571
X6.5067Y-3.5071
T2
X5.4724Y-2.1457
X5.4724Y-3.1299
X5.5512Y-2.1457
X5.5512Y-3.1299
X5.6693Y-2.4409
X5.6693Y-3.4252
X5.8268Y-2.2244
X5.8268Y-3.2087
X5.9055Y-2.2244
X5.9055Y-3.2087
X5.9843Y-2.2244
X5.9843Y-3.2087
X6.6317Y-2.0047
X6.6317Y-2.1547
X6.6317Y-2.2547
X6.6317Y-2.4047
X6.6317Y-3.1071
X6.6317Y-3.2571
X6.6317Y-3.3571
X6.6317Y-3.5071
X6.8199Y-1.8898
X6.8199Y-1.9685
X6.8199Y-2.9921
X6.8199Y-3.0709
X7.1555Y-3.6827
X7.2047Y-2.3228
X7.2047Y-2.4409
X7.2047Y-3.4252
X7.2047Y-3.5433
X7.2835Y-2.3228
X7.2835Y-2.4409
X7.2835Y-3.4252
X7.2835Y-3.5433
X7.4016Y-1.7717
X7.4016Y-1.8504
X7.4016Y-1.9291
X7.4016Y-2.0079
X7.4016Y-2.0866
X7.4016Y-2.874
X7.4016Y-2.9528
X7.4016Y-3.0315
X7.4016Y-3.1102
X7.4016Y-3.189
T3
X5.2362Y-2.874
X5.2362Y-2.9724
X5.2362Y-3.0512
X5.2362Y-3.1496
T4
X5.1181Y-3.4646
X5.1181Y-3.563
X5.1181Y-3.6614
T5
X5.6693Y-1.2567
X5.6693Y-1.3567
X5.6693Y-1.4567
X5.6693Y-1.5567
X5.6693Y-1.6567
X5.9055Y-1.7504
X5.9055Y-1.8504
X5.9055Y-1.9504
T7
X7.5787Y-3.1594
X7.5787Y-3.4547
X7.7756Y-3.1594
X7.7756Y-3.4547
X7.5787Y-2.0571
X7.5787Y-2.3524
X7.7756Y-2.0571
X7.7756Y-2.3524
X7.0177Y-1.3189
X7.0177Y-1.5157
X7.313Y-1.3189
X7.313Y-1.5157
X6.0335Y-1.3189
X6.0335Y-1.5157
X6.3287Y-1.3189
X6.3287Y-1.5157
T8
X5.5118Y-3.3071
X5.5118Y-2.3228
T6
G00X5.048Y-3.0315
M15
G01X5.048Y-2.9921
M16
G05
G00X5.1929Y-2.7531
M15
G01X5.2323Y-2.7531
M16
G05
G00X5.2323Y-3.2705
M15
G01X5.1929Y-3.2705
M16
G05
T0
M30
