G04 #@! TF.GenerationSoftware,KiCad,Pcbnew,(5.1.2)-1*
G04 #@! TF.CreationDate,2019-12-27T14:53:11-08:00*
G04 #@! TF.ProjectId,design,64657369-676e-42e6-9b69-6361645f7063,rev?*
G04 #@! TF.SameCoordinates,Original*
G04 #@! TF.FileFunction,Legend,Top*
G04 #@! TF.FilePolarity,Positive*
%FSLAX46Y46*%
G04 Gerber Fmt 4.6, Leading zero omitted, Abs format (unit mm)*
G04 Created by KiCad (PCBNEW (5.1.2)-1) date 2019-12-27 14:53:11*
%MOMM*%
%LPD*%
G04 APERTURE LIST*
%ADD10C,0.100000*%
%ADD11C,0.120000*%
%ADD12C,0.150000*%
G04 APERTURE END LIST*
D10*
X154000000Y-92500000D02*
X154250000Y-92750000D01*
X154250000Y-92750000D02*
X155250000Y-92750000D01*
X155250000Y-92750000D02*
X155500000Y-92500000D01*
X155500000Y-92250000D02*
X155500000Y-91750000D01*
X155500000Y-91500000D02*
X155250000Y-91250000D01*
X154250000Y-91250000D02*
X154000000Y-91500000D01*
X155250000Y-91250000D02*
X154250000Y-91250000D01*
X154000000Y-91500000D02*
X154000000Y-92500000D01*
X155500000Y-92500000D02*
X155750000Y-92750000D01*
X156750000Y-92750000D02*
X157000000Y-92500000D01*
X156750000Y-91250000D02*
X155750000Y-91250000D01*
X155750000Y-91250000D02*
X155500000Y-91500000D01*
X157000000Y-91500000D02*
X156750000Y-91250000D01*
X155750000Y-92750000D02*
X156750000Y-92750000D01*
X157000000Y-92250000D02*
X157000000Y-91750000D01*
X157000000Y-92500000D02*
X157250000Y-92750000D01*
X158250000Y-92750000D02*
X158500000Y-92500000D01*
X158250000Y-91250000D02*
X157250000Y-91250000D01*
X157250000Y-91250000D02*
X157000000Y-91500000D01*
X158500000Y-91500000D02*
X158250000Y-91250000D01*
X157250000Y-92750000D02*
X158250000Y-92750000D01*
X158500000Y-92250000D02*
X158500000Y-91750000D01*
X158500000Y-92500000D02*
X158750000Y-92750000D01*
X159750000Y-92750000D02*
X160000000Y-92500000D01*
X159750000Y-91250000D02*
X158750000Y-91250000D01*
X158750000Y-91250000D02*
X158500000Y-91500000D01*
X160000000Y-91500000D02*
X159750000Y-91250000D01*
X158750000Y-92750000D02*
X159750000Y-92750000D01*
X160000000Y-92500000D02*
X160000000Y-91500000D01*
X153500000Y-91250000D02*
X153750000Y-91500000D01*
X153750000Y-91500000D02*
X153500000Y-91750000D01*
X153500000Y-91750000D02*
X153500000Y-91250000D01*
X153750000Y-92500000D02*
X153500000Y-92750000D01*
X153500000Y-92750000D02*
X153500000Y-92250000D01*
X153500000Y-92250000D02*
X153750000Y-92500000D01*
X160500000Y-92000000D02*
X160250000Y-92250000D01*
X160250000Y-92250000D02*
X160250000Y-91750000D01*
X160250000Y-91750000D02*
X160500000Y-92000000D01*
D11*
X143850000Y-89750000D02*
X143850000Y-78250000D01*
X144250000Y-90150000D02*
X147000000Y-90150000D01*
X156150000Y-78250000D02*
X156150000Y-89750000D01*
X144250000Y-77850000D02*
X147000000Y-77850000D01*
X153000000Y-90150000D02*
X155750000Y-90150000D01*
X153000000Y-77850000D02*
X155750000Y-77850000D01*
X144250000Y-90150000D02*
G75*
G02X143850000Y-89750000I0J400000D01*
G01*
X156150000Y-89750000D02*
G75*
G02X155750000Y-90150000I-400000J0D01*
G01*
X155750000Y-77850000D02*
G75*
G02X156150000Y-78250000I0J-400000D01*
G01*
X143850000Y-78250000D02*
G75*
G02X144250000Y-77850000I400000J0D01*
G01*
X138900000Y-38390000D02*
X137100000Y-38390000D01*
X137100000Y-41610000D02*
X139550000Y-41610000D01*
X127990000Y-39940000D02*
X127990000Y-34060000D01*
X131110000Y-32890000D02*
X131110000Y-33940000D01*
X129960000Y-32890000D02*
X131110000Y-32890000D01*
X131110000Y-40060000D02*
X132100000Y-40060000D01*
X131110000Y-41110000D02*
X131110000Y-40060000D01*
X129960000Y-41110000D02*
X131110000Y-41110000D01*
X127540000Y-95560000D02*
X133510000Y-95560000D01*
X133510000Y-95560000D02*
X133510000Y-85440000D01*
X133510000Y-85440000D02*
X127540000Y-85440000D01*
X127540000Y-85440000D02*
X127540000Y-95560000D01*
X127550000Y-92250000D02*
X128300000Y-92250000D01*
X128300000Y-92250000D02*
X128300000Y-88750000D01*
X128300000Y-88750000D02*
X127550000Y-88750000D01*
X127550000Y-88750000D02*
X127550000Y-92250000D01*
X127550000Y-95550000D02*
X128300000Y-95550000D01*
X128300000Y-95550000D02*
X128300000Y-93750000D01*
X128300000Y-93750000D02*
X127550000Y-93750000D01*
X127550000Y-93750000D02*
X127550000Y-95550000D01*
X127550000Y-87250000D02*
X128300000Y-87250000D01*
X128300000Y-87250000D02*
X128300000Y-85450000D01*
X128300000Y-85450000D02*
X127550000Y-85450000D01*
X127550000Y-85450000D02*
X127550000Y-87250000D01*
X129800000Y-95550000D02*
X129800000Y-94800000D01*
X129800000Y-94800000D02*
X132750000Y-94800000D01*
X132750000Y-94800000D02*
X132750000Y-90500000D01*
X129800000Y-85450000D02*
X129800000Y-86200000D01*
X129800000Y-86200000D02*
X132750000Y-86200000D01*
X132750000Y-86200000D02*
X132750000Y-90500000D01*
X127250000Y-94600000D02*
X127250000Y-95850000D01*
X127250000Y-95850000D02*
X128500000Y-95850000D01*
X142670000Y-43410000D02*
X145330000Y-43410000D01*
X142670000Y-33190000D02*
X142670000Y-43410000D01*
X145330000Y-33190000D02*
X145330000Y-43410000D01*
X142670000Y-33190000D02*
X145330000Y-33190000D01*
X142670000Y-31920000D02*
X142670000Y-30590000D01*
X142670000Y-30590000D02*
X144000000Y-30590000D01*
X127990000Y-63940000D02*
X127990000Y-58060000D01*
X131110000Y-56890000D02*
X131110000Y-57940000D01*
X129960000Y-56890000D02*
X131110000Y-56890000D01*
X131110000Y-64060000D02*
X132100000Y-64060000D01*
X131110000Y-65110000D02*
X131110000Y-64060000D01*
X129960000Y-65110000D02*
X131110000Y-65110000D01*
X129960000Y-54110000D02*
X131110000Y-54110000D01*
X131110000Y-54110000D02*
X131110000Y-53060000D01*
X131110000Y-53060000D02*
X132100000Y-53060000D01*
X129960000Y-45890000D02*
X131110000Y-45890000D01*
X131110000Y-45890000D02*
X131110000Y-46940000D01*
X127990000Y-52940000D02*
X127990000Y-47060000D01*
D12*
X161925000Y-50925000D02*
X161925000Y-50950000D01*
X166075000Y-50925000D02*
X166075000Y-51030000D01*
X166075000Y-61075000D02*
X166075000Y-60970000D01*
X161925000Y-61075000D02*
X161925000Y-60970000D01*
X161925000Y-50925000D02*
X166075000Y-50925000D01*
X161925000Y-61075000D02*
X166075000Y-61075000D01*
X161925000Y-50950000D02*
X160550000Y-50950000D01*
X161925000Y-78925000D02*
X161925000Y-78950000D01*
X166075000Y-78925000D02*
X166075000Y-79030000D01*
X166075000Y-89075000D02*
X166075000Y-88970000D01*
X161925000Y-89075000D02*
X161925000Y-88970000D01*
X161925000Y-78925000D02*
X166075000Y-78925000D01*
X161925000Y-89075000D02*
X166075000Y-89075000D01*
X161925000Y-78950000D02*
X160550000Y-78950000D01*
D11*
X176050000Y-52390000D02*
X174950000Y-52390000D01*
X176050000Y-54200000D02*
X176050000Y-52390000D01*
X177550000Y-54200000D02*
X176050000Y-54200000D01*
X176050000Y-45610000D02*
X170925000Y-45610000D01*
X176050000Y-43800000D02*
X176050000Y-45610000D01*
X177550000Y-43800000D02*
X176050000Y-43800000D01*
X180450000Y-68200000D02*
X181950000Y-68200000D01*
X181950000Y-68200000D02*
X181950000Y-66390000D01*
X181950000Y-66390000D02*
X187075000Y-66390000D01*
X180450000Y-57800000D02*
X181950000Y-57800000D01*
X181950000Y-57800000D02*
X181950000Y-59610000D01*
X181950000Y-59610000D02*
X183050000Y-59610000D01*
X177550000Y-71800000D02*
X176050000Y-71800000D01*
X176050000Y-71800000D02*
X176050000Y-73610000D01*
X176050000Y-73610000D02*
X170925000Y-73610000D01*
X177550000Y-82200000D02*
X176050000Y-82200000D01*
X176050000Y-82200000D02*
X176050000Y-80390000D01*
X176050000Y-80390000D02*
X174950000Y-80390000D01*
X181950000Y-87610000D02*
X183050000Y-87610000D01*
X181950000Y-85800000D02*
X181950000Y-87610000D01*
X180450000Y-85800000D02*
X181950000Y-85800000D01*
X181950000Y-94390000D02*
X187075000Y-94390000D01*
X181950000Y-96200000D02*
X181950000Y-94390000D01*
X180450000Y-96200000D02*
X181950000Y-96200000D01*
D10*
X190920000Y-57000000D02*
X190920000Y-57500000D01*
X199080000Y-57000000D02*
X199080000Y-57500000D01*
X200580000Y-57500000D02*
X201770000Y-57500000D01*
X200580000Y-54500000D02*
X200580000Y-57500000D01*
X201770000Y-54500000D02*
X200580000Y-54500000D01*
X190920000Y-54500000D02*
X190920000Y-55000000D01*
X199080000Y-54500000D02*
X199080000Y-55000000D01*
X202580000Y-60150000D02*
X200000000Y-60150000D01*
X202580000Y-51850000D02*
X202580000Y-60150000D01*
X200000000Y-51850000D02*
X202580000Y-51850000D01*
X200000000Y-79850000D02*
X202580000Y-79850000D01*
X202580000Y-79850000D02*
X202580000Y-88150000D01*
X202580000Y-88150000D02*
X200000000Y-88150000D01*
X199080000Y-82500000D02*
X199080000Y-83000000D01*
X190920000Y-82500000D02*
X190920000Y-83000000D01*
X201770000Y-82500000D02*
X200580000Y-82500000D01*
X200580000Y-82500000D02*
X200580000Y-85500000D01*
X200580000Y-85500000D02*
X201770000Y-85500000D01*
X199080000Y-85000000D02*
X199080000Y-85500000D01*
X190920000Y-85000000D02*
X190920000Y-85500000D01*
X158000000Y-40080000D02*
X158500000Y-40080000D01*
X158000000Y-31920000D02*
X158500000Y-31920000D01*
X158500000Y-30420000D02*
X158500000Y-29230000D01*
X155500000Y-30420000D02*
X158500000Y-30420000D01*
X155500000Y-29230000D02*
X155500000Y-30420000D01*
X155500000Y-40080000D02*
X156000000Y-40080000D01*
X155500000Y-31920000D02*
X156000000Y-31920000D01*
X161150000Y-28420000D02*
X161150000Y-31000000D01*
X152850000Y-28420000D02*
X161150000Y-28420000D01*
X152850000Y-31000000D02*
X152850000Y-28420000D01*
X177850000Y-31000000D02*
X177850000Y-28420000D01*
X177850000Y-28420000D02*
X186150000Y-28420000D01*
X186150000Y-28420000D02*
X186150000Y-31000000D01*
X180500000Y-31920000D02*
X181000000Y-31920000D01*
X180500000Y-40080000D02*
X181000000Y-40080000D01*
X180500000Y-29230000D02*
X180500000Y-30420000D01*
X180500000Y-30420000D02*
X183500000Y-30420000D01*
X183500000Y-30420000D02*
X183500000Y-29230000D01*
X183000000Y-31920000D02*
X183500000Y-31920000D01*
X183000000Y-40080000D02*
X183500000Y-40080000D01*
D11*
X140800000Y-89265000D02*
X138515000Y-89265000D01*
X138515000Y-89265000D02*
X138515000Y-90735000D01*
X138515000Y-90735000D02*
X140800000Y-90735000D01*
X128100000Y-83200000D02*
X128100000Y-78250000D01*
X128100000Y-83200000D02*
X130700000Y-83200000D01*
X128100000Y-69800000D02*
X130700000Y-69800000D01*
X128100000Y-69800000D02*
X128100000Y-74750000D01*
X134100000Y-69800000D02*
X134100000Y-83200000D01*
X143850000Y-64750000D02*
X143850000Y-53250000D01*
X144250000Y-65150000D02*
X147000000Y-65150000D01*
X156150000Y-53250000D02*
X156150000Y-64750000D01*
X144250000Y-52850000D02*
X147000000Y-52850000D01*
X153000000Y-65150000D02*
X155750000Y-65150000D01*
X153000000Y-52850000D02*
X155750000Y-52850000D01*
X144250000Y-65150000D02*
G75*
G02X143850000Y-64750000I0J400000D01*
G01*
X156150000Y-64750000D02*
G75*
G02X155750000Y-65150000I-400000J0D01*
G01*
X155750000Y-52850000D02*
G75*
G02X156150000Y-53250000I0J-400000D01*
G01*
X143850000Y-53250000D02*
G75*
G02X144250000Y-52850000I400000J0D01*
G01*
X148670000Y-50870000D02*
X151330000Y-50870000D01*
X148670000Y-45730000D02*
X148670000Y-50870000D01*
X151330000Y-45730000D02*
X151330000Y-50870000D01*
X148670000Y-45730000D02*
X151330000Y-45730000D01*
X148670000Y-44460000D02*
X148670000Y-43130000D01*
X148670000Y-43130000D02*
X150000000Y-43130000D01*
X140800000Y-64265000D02*
X138515000Y-64265000D01*
X138515000Y-64265000D02*
X138515000Y-65735000D01*
X138515000Y-65735000D02*
X140800000Y-65735000D01*
X137440000Y-85586248D02*
X137440000Y-85950000D01*
X137440000Y-82413752D02*
X137440000Y-82050000D01*
X142560000Y-85586248D02*
X142560000Y-85950000D01*
X142560000Y-82413752D02*
X142560000Y-80550000D01*
X142560000Y-57413752D02*
X142560000Y-55550000D01*
X142560000Y-60586248D02*
X142560000Y-60950000D01*
X137440000Y-57413752D02*
X137440000Y-57050000D01*
X137440000Y-60586248D02*
X137440000Y-60950000D01*
D10*
X157339285Y-87485714D02*
X156839285Y-87485714D01*
X156982142Y-87485714D02*
X156910714Y-87457142D01*
X156875000Y-87428571D01*
X156839285Y-87371428D01*
X156839285Y-87314285D01*
X157303571Y-86885714D02*
X157339285Y-86942857D01*
X157339285Y-87057142D01*
X157303571Y-87114285D01*
X157232142Y-87142857D01*
X156946428Y-87142857D01*
X156875000Y-87114285D01*
X156839285Y-87057142D01*
X156839285Y-86942857D01*
X156875000Y-86885714D01*
X156946428Y-86857142D01*
X157017857Y-86857142D01*
X157089285Y-87142857D01*
X156839285Y-86342857D02*
X157446428Y-86342857D01*
X157517857Y-86371428D01*
X157553571Y-86400000D01*
X157589285Y-86457142D01*
X157589285Y-86542857D01*
X157553571Y-86600000D01*
X157303571Y-86342857D02*
X157339285Y-86400000D01*
X157339285Y-86514285D01*
X157303571Y-86571428D01*
X157267857Y-86600000D01*
X157196428Y-86628571D01*
X156982142Y-86628571D01*
X156910714Y-86600000D01*
X156875000Y-86571428D01*
X156839285Y-86514285D01*
X156839285Y-86400000D01*
X156875000Y-86342857D01*
X157410714Y-86200000D02*
X157410714Y-85742857D01*
X157339285Y-85600000D02*
X156589285Y-85600000D01*
X156875000Y-85600000D02*
X156839285Y-85542857D01*
X156839285Y-85428571D01*
X156875000Y-85371428D01*
X156910714Y-85342857D01*
X156982142Y-85314285D01*
X157196428Y-85314285D01*
X157267857Y-85342857D01*
X157303571Y-85371428D01*
X157339285Y-85428571D01*
X157339285Y-85542857D01*
X157303571Y-85600000D01*
X157339285Y-85057142D02*
X156589285Y-85057142D01*
X156875000Y-85057142D02*
X156839285Y-85000000D01*
X156839285Y-84885714D01*
X156875000Y-84828571D01*
X156910714Y-84800000D01*
X156982142Y-84771428D01*
X157196428Y-84771428D01*
X157267857Y-84800000D01*
X157303571Y-84828571D01*
X157339285Y-84885714D01*
X157339285Y-85000000D01*
X157303571Y-85057142D01*
X157339285Y-84428571D02*
X157303571Y-84485714D01*
X157232142Y-84514285D01*
X156589285Y-84514285D01*
X157267857Y-84200000D02*
X157303571Y-84171428D01*
X157339285Y-84200000D01*
X157303571Y-84228571D01*
X157267857Y-84200000D01*
X157339285Y-84200000D01*
X157339285Y-83914285D02*
X156839285Y-83914285D01*
X156589285Y-83914285D02*
X156625000Y-83942857D01*
X156660714Y-83914285D01*
X156625000Y-83885714D01*
X156589285Y-83914285D01*
X156660714Y-83914285D01*
X156839285Y-83628571D02*
X157339285Y-83628571D01*
X156910714Y-83628571D02*
X156875000Y-83600000D01*
X156839285Y-83542857D01*
X156839285Y-83457142D01*
X156875000Y-83400000D01*
X156946428Y-83371428D01*
X157339285Y-83371428D01*
X157339285Y-82828571D02*
X156589285Y-82828571D01*
X157303571Y-82828571D02*
X157339285Y-82885714D01*
X157339285Y-83000000D01*
X157303571Y-83057142D01*
X157267857Y-83085714D01*
X157196428Y-83114285D01*
X156982142Y-83114285D01*
X156910714Y-83085714D01*
X156875000Y-83057142D01*
X156839285Y-83000000D01*
X156839285Y-82885714D01*
X156875000Y-82828571D01*
X156839285Y-82285714D02*
X157339285Y-82285714D01*
X156839285Y-82542857D02*
X157232142Y-82542857D01*
X157303571Y-82514285D01*
X157339285Y-82457142D01*
X157339285Y-82371428D01*
X157303571Y-82314285D01*
X157267857Y-82285714D01*
X157303571Y-81742857D02*
X157339285Y-81800000D01*
X157339285Y-81914285D01*
X157303571Y-81971428D01*
X157267857Y-82000000D01*
X157196428Y-82028571D01*
X156982142Y-82028571D01*
X156910714Y-82000000D01*
X156875000Y-81971428D01*
X156839285Y-81914285D01*
X156839285Y-81800000D01*
X156875000Y-81742857D01*
X156839285Y-81571428D02*
X156839285Y-81342857D01*
X156589285Y-81485714D02*
X157232142Y-81485714D01*
X157303571Y-81457142D01*
X157339285Y-81400000D01*
X157339285Y-81342857D01*
X157339285Y-81057142D02*
X157303571Y-81114285D01*
X157267857Y-81142857D01*
X157196428Y-81171428D01*
X156982142Y-81171428D01*
X156910714Y-81142857D01*
X156875000Y-81114285D01*
X156839285Y-81057142D01*
X156839285Y-80971428D01*
X156875000Y-80914285D01*
X156910714Y-80885714D01*
X156982142Y-80857142D01*
X157196428Y-80857142D01*
X157267857Y-80885714D01*
X157303571Y-80914285D01*
X157339285Y-80971428D01*
X157339285Y-81057142D01*
X157339285Y-80600000D02*
X156839285Y-80600000D01*
X156982142Y-80600000D02*
X156910714Y-80571428D01*
X156875000Y-80542857D01*
X156839285Y-80485714D01*
X156839285Y-80428571D01*
X136057142Y-42339285D02*
X136057142Y-41946428D01*
X136028571Y-41875000D01*
X135971428Y-41839285D01*
X135857142Y-41839285D01*
X135800000Y-41875000D01*
X136057142Y-42303571D02*
X136000000Y-42339285D01*
X135857142Y-42339285D01*
X135800000Y-42303571D01*
X135771428Y-42232142D01*
X135771428Y-42160714D01*
X135800000Y-42089285D01*
X135857142Y-42053571D01*
X136000000Y-42053571D01*
X136057142Y-42017857D01*
X136600000Y-42339285D02*
X136600000Y-41589285D01*
X136600000Y-42303571D02*
X136542857Y-42339285D01*
X136428571Y-42339285D01*
X136371428Y-42303571D01*
X136342857Y-42267857D01*
X136314285Y-42196428D01*
X136314285Y-41982142D01*
X136342857Y-41910714D01*
X136371428Y-41875000D01*
X136428571Y-41839285D01*
X136542857Y-41839285D01*
X136600000Y-41875000D01*
X137142857Y-42303571D02*
X137085714Y-42339285D01*
X136971428Y-42339285D01*
X136914285Y-42303571D01*
X136885714Y-42267857D01*
X136857142Y-42196428D01*
X136857142Y-41982142D01*
X136885714Y-41910714D01*
X136914285Y-41875000D01*
X136971428Y-41839285D01*
X137085714Y-41839285D01*
X137142857Y-41875000D01*
X137257142Y-42410714D02*
X137714285Y-42410714D01*
X137857142Y-41839285D02*
X137857142Y-42589285D01*
X137857142Y-41875000D02*
X137914285Y-41839285D01*
X138028571Y-41839285D01*
X138085714Y-41875000D01*
X138114285Y-41910714D01*
X138142857Y-41982142D01*
X138142857Y-42196428D01*
X138114285Y-42267857D01*
X138085714Y-42303571D01*
X138028571Y-42339285D01*
X137914285Y-42339285D01*
X137857142Y-42303571D01*
X138342857Y-41839285D02*
X138457142Y-42339285D01*
X138571428Y-41982142D01*
X138685714Y-42339285D01*
X138800000Y-41839285D01*
X139028571Y-42339285D02*
X139028571Y-41839285D01*
X139028571Y-41982142D02*
X139057142Y-41910714D01*
X139085714Y-41875000D01*
X139142857Y-41839285D01*
X139200000Y-41839285D01*
X139400000Y-42267857D02*
X139428571Y-42303571D01*
X139400000Y-42339285D01*
X139371428Y-42303571D01*
X139400000Y-42267857D01*
X139400000Y-42339285D01*
X139685714Y-42339285D02*
X139685714Y-41839285D01*
X139685714Y-41589285D02*
X139657142Y-41625000D01*
X139685714Y-41660714D01*
X139714285Y-41625000D01*
X139685714Y-41589285D01*
X139685714Y-41660714D01*
X140228571Y-42303571D02*
X140171428Y-42339285D01*
X140057142Y-42339285D01*
X140000000Y-42303571D01*
X139971428Y-42267857D01*
X139942857Y-42196428D01*
X139942857Y-41982142D01*
X139971428Y-41910714D01*
X140000000Y-41875000D01*
X140057142Y-41839285D01*
X140171428Y-41839285D01*
X140228571Y-41875000D01*
X133339285Y-38700000D02*
X132946428Y-38700000D01*
X132875000Y-38728571D01*
X132839285Y-38785714D01*
X132839285Y-38900000D01*
X132875000Y-38957142D01*
X133303571Y-38700000D02*
X133339285Y-38757142D01*
X133339285Y-38900000D01*
X133303571Y-38957142D01*
X133232142Y-38985714D01*
X133160714Y-38985714D01*
X133089285Y-38957142D01*
X133053571Y-38900000D01*
X133053571Y-38757142D01*
X133017857Y-38700000D01*
X133339285Y-38157142D02*
X132589285Y-38157142D01*
X133303571Y-38157142D02*
X133339285Y-38214285D01*
X133339285Y-38328571D01*
X133303571Y-38385714D01*
X133267857Y-38414285D01*
X133196428Y-38442857D01*
X132982142Y-38442857D01*
X132910714Y-38414285D01*
X132875000Y-38385714D01*
X132839285Y-38328571D01*
X132839285Y-38214285D01*
X132875000Y-38157142D01*
X133303571Y-37614285D02*
X133339285Y-37671428D01*
X133339285Y-37785714D01*
X133303571Y-37842857D01*
X133267857Y-37871428D01*
X133196428Y-37900000D01*
X132982142Y-37900000D01*
X132910714Y-37871428D01*
X132875000Y-37842857D01*
X132839285Y-37785714D01*
X132839285Y-37671428D01*
X132875000Y-37614285D01*
X133410714Y-37500000D02*
X133410714Y-37042857D01*
X133303571Y-36642857D02*
X133339285Y-36700000D01*
X133339285Y-36814285D01*
X133303571Y-36871428D01*
X133267857Y-36900000D01*
X133196428Y-36928571D01*
X132982142Y-36928571D01*
X132910714Y-36900000D01*
X132875000Y-36871428D01*
X132839285Y-36814285D01*
X132839285Y-36700000D01*
X132875000Y-36642857D01*
X133339285Y-36300000D02*
X133303571Y-36357142D01*
X133267857Y-36385714D01*
X133196428Y-36414285D01*
X132982142Y-36414285D01*
X132910714Y-36385714D01*
X132875000Y-36357142D01*
X132839285Y-36300000D01*
X132839285Y-36214285D01*
X132875000Y-36157142D01*
X132910714Y-36128571D01*
X132982142Y-36100000D01*
X133196428Y-36100000D01*
X133267857Y-36128571D01*
X133303571Y-36157142D01*
X133339285Y-36214285D01*
X133339285Y-36300000D01*
X132839285Y-35842857D02*
X133339285Y-35842857D01*
X132910714Y-35842857D02*
X132875000Y-35814285D01*
X132839285Y-35757142D01*
X132839285Y-35671428D01*
X132875000Y-35614285D01*
X132946428Y-35585714D01*
X133339285Y-35585714D01*
X132839285Y-35300000D02*
X133339285Y-35300000D01*
X132910714Y-35300000D02*
X132875000Y-35271428D01*
X132839285Y-35214285D01*
X132839285Y-35128571D01*
X132875000Y-35071428D01*
X132946428Y-35042857D01*
X133339285Y-35042857D01*
X134339285Y-92414285D02*
X134303571Y-92471428D01*
X134232142Y-92500000D01*
X133589285Y-92500000D01*
X134339285Y-92185714D02*
X133839285Y-92185714D01*
X133589285Y-92185714D02*
X133625000Y-92214285D01*
X133660714Y-92185714D01*
X133625000Y-92157142D01*
X133589285Y-92185714D01*
X133660714Y-92185714D01*
X133839285Y-91900000D02*
X134589285Y-91900000D01*
X133875000Y-91900000D02*
X133839285Y-91842857D01*
X133839285Y-91728571D01*
X133875000Y-91671428D01*
X133910714Y-91642857D01*
X133982142Y-91614285D01*
X134196428Y-91614285D01*
X134267857Y-91642857D01*
X134303571Y-91671428D01*
X134339285Y-91728571D01*
X134339285Y-91842857D01*
X134303571Y-91900000D01*
X134339285Y-91271428D02*
X134303571Y-91328571D01*
X134267857Y-91357142D01*
X134196428Y-91385714D01*
X133982142Y-91385714D01*
X133910714Y-91357142D01*
X133875000Y-91328571D01*
X133839285Y-91271428D01*
X133839285Y-91185714D01*
X133875000Y-91128571D01*
X133910714Y-91100000D01*
X133982142Y-91071428D01*
X134196428Y-91071428D01*
X134267857Y-91100000D01*
X134303571Y-91128571D01*
X134339285Y-91185714D01*
X134339285Y-91271428D01*
X134410714Y-90957142D02*
X134410714Y-90500000D01*
X134303571Y-90100000D02*
X134339285Y-90157142D01*
X134339285Y-90271428D01*
X134303571Y-90328571D01*
X134267857Y-90357142D01*
X134196428Y-90385714D01*
X133982142Y-90385714D01*
X133910714Y-90357142D01*
X133875000Y-90328571D01*
X133839285Y-90271428D01*
X133839285Y-90157142D01*
X133875000Y-90100000D01*
X134339285Y-89757142D02*
X134303571Y-89814285D01*
X134267857Y-89842857D01*
X134196428Y-89871428D01*
X133982142Y-89871428D01*
X133910714Y-89842857D01*
X133875000Y-89814285D01*
X133839285Y-89757142D01*
X133839285Y-89671428D01*
X133875000Y-89614285D01*
X133910714Y-89585714D01*
X133982142Y-89557142D01*
X134196428Y-89557142D01*
X134267857Y-89585714D01*
X134303571Y-89614285D01*
X134339285Y-89671428D01*
X134339285Y-89757142D01*
X133839285Y-89300000D02*
X134339285Y-89300000D01*
X133910714Y-89300000D02*
X133875000Y-89271428D01*
X133839285Y-89214285D01*
X133839285Y-89128571D01*
X133875000Y-89071428D01*
X133946428Y-89042857D01*
X134339285Y-89042857D01*
X133839285Y-88757142D02*
X134339285Y-88757142D01*
X133910714Y-88757142D02*
X133875000Y-88728571D01*
X133839285Y-88671428D01*
X133839285Y-88585714D01*
X133875000Y-88528571D01*
X133946428Y-88500000D01*
X134339285Y-88500000D01*
X146303571Y-38828571D02*
X146339285Y-38885714D01*
X146339285Y-39000000D01*
X146303571Y-39057142D01*
X146267857Y-39085714D01*
X146196428Y-39114285D01*
X145982142Y-39114285D01*
X145910714Y-39085714D01*
X145875000Y-39057142D01*
X145839285Y-39000000D01*
X145839285Y-38885714D01*
X145875000Y-38828571D01*
X146339285Y-38314285D02*
X145946428Y-38314285D01*
X145875000Y-38342857D01*
X145839285Y-38400000D01*
X145839285Y-38514285D01*
X145875000Y-38571428D01*
X146303571Y-38314285D02*
X146339285Y-38371428D01*
X146339285Y-38514285D01*
X146303571Y-38571428D01*
X146232142Y-38600000D01*
X146160714Y-38600000D01*
X146089285Y-38571428D01*
X146053571Y-38514285D01*
X146053571Y-38371428D01*
X146017857Y-38314285D01*
X146339285Y-38028571D02*
X145839285Y-38028571D01*
X145910714Y-38028571D02*
X145875000Y-38000000D01*
X145839285Y-37942857D01*
X145839285Y-37857142D01*
X145875000Y-37800000D01*
X145946428Y-37771428D01*
X146339285Y-37771428D01*
X145946428Y-37771428D02*
X145875000Y-37742857D01*
X145839285Y-37685714D01*
X145839285Y-37600000D01*
X145875000Y-37542857D01*
X145946428Y-37514285D01*
X146339285Y-37514285D01*
X146410714Y-37371428D02*
X146410714Y-36914285D01*
X146303571Y-36514285D02*
X146339285Y-36571428D01*
X146339285Y-36685714D01*
X146303571Y-36742857D01*
X146267857Y-36771428D01*
X146196428Y-36800000D01*
X145982142Y-36800000D01*
X145910714Y-36771428D01*
X145875000Y-36742857D01*
X145839285Y-36685714D01*
X145839285Y-36571428D01*
X145875000Y-36514285D01*
X146339285Y-36171428D02*
X146303571Y-36228571D01*
X146267857Y-36257142D01*
X146196428Y-36285714D01*
X145982142Y-36285714D01*
X145910714Y-36257142D01*
X145875000Y-36228571D01*
X145839285Y-36171428D01*
X145839285Y-36085714D01*
X145875000Y-36028571D01*
X145910714Y-36000000D01*
X145982142Y-35971428D01*
X146196428Y-35971428D01*
X146267857Y-36000000D01*
X146303571Y-36028571D01*
X146339285Y-36085714D01*
X146339285Y-36171428D01*
X145839285Y-35714285D02*
X146339285Y-35714285D01*
X145910714Y-35714285D02*
X145875000Y-35685714D01*
X145839285Y-35628571D01*
X145839285Y-35542857D01*
X145875000Y-35485714D01*
X145946428Y-35457142D01*
X146339285Y-35457142D01*
X145839285Y-35171428D02*
X146339285Y-35171428D01*
X145910714Y-35171428D02*
X145875000Y-35142857D01*
X145839285Y-35085714D01*
X145839285Y-35000000D01*
X145875000Y-34942857D01*
X145946428Y-34914285D01*
X146339285Y-34914285D01*
X132839285Y-63142857D02*
X133446428Y-63142857D01*
X133517857Y-63171428D01*
X133553571Y-63200000D01*
X133589285Y-63257142D01*
X133589285Y-63342857D01*
X133553571Y-63400000D01*
X133303571Y-63142857D02*
X133339285Y-63200000D01*
X133339285Y-63314285D01*
X133303571Y-63371428D01*
X133267857Y-63400000D01*
X133196428Y-63428571D01*
X132982142Y-63428571D01*
X132910714Y-63400000D01*
X132875000Y-63371428D01*
X132839285Y-63314285D01*
X132839285Y-63200000D01*
X132875000Y-63142857D01*
X132839285Y-62857142D02*
X133589285Y-62857142D01*
X132875000Y-62857142D02*
X132839285Y-62800000D01*
X132839285Y-62685714D01*
X132875000Y-62628571D01*
X132910714Y-62600000D01*
X132982142Y-62571428D01*
X133196428Y-62571428D01*
X133267857Y-62600000D01*
X133303571Y-62628571D01*
X133339285Y-62685714D01*
X133339285Y-62800000D01*
X133303571Y-62857142D01*
X133339285Y-62314285D02*
X132839285Y-62314285D01*
X132589285Y-62314285D02*
X132625000Y-62342857D01*
X132660714Y-62314285D01*
X132625000Y-62285714D01*
X132589285Y-62314285D01*
X132660714Y-62314285D01*
X133339285Y-61942857D02*
X133303571Y-62000000D01*
X133267857Y-62028571D01*
X133196428Y-62057142D01*
X132982142Y-62057142D01*
X132910714Y-62028571D01*
X132875000Y-62000000D01*
X132839285Y-61942857D01*
X132839285Y-61857142D01*
X132875000Y-61800000D01*
X132910714Y-61771428D01*
X132982142Y-61742857D01*
X133196428Y-61742857D01*
X133267857Y-61771428D01*
X133303571Y-61800000D01*
X133339285Y-61857142D01*
X133339285Y-61942857D01*
X133339285Y-61171428D02*
X133339285Y-61514285D01*
X133339285Y-61342857D02*
X132589285Y-61342857D01*
X132696428Y-61400000D01*
X132767857Y-61457142D01*
X132803571Y-61514285D01*
X133410714Y-61057142D02*
X133410714Y-60600000D01*
X133303571Y-60200000D02*
X133339285Y-60257142D01*
X133339285Y-60371428D01*
X133303571Y-60428571D01*
X133267857Y-60457142D01*
X133196428Y-60485714D01*
X132982142Y-60485714D01*
X132910714Y-60457142D01*
X132875000Y-60428571D01*
X132839285Y-60371428D01*
X132839285Y-60257142D01*
X132875000Y-60200000D01*
X133339285Y-59857142D02*
X133303571Y-59914285D01*
X133267857Y-59942857D01*
X133196428Y-59971428D01*
X132982142Y-59971428D01*
X132910714Y-59942857D01*
X132875000Y-59914285D01*
X132839285Y-59857142D01*
X132839285Y-59771428D01*
X132875000Y-59714285D01*
X132910714Y-59685714D01*
X132982142Y-59657142D01*
X133196428Y-59657142D01*
X133267857Y-59685714D01*
X133303571Y-59714285D01*
X133339285Y-59771428D01*
X133339285Y-59857142D01*
X132839285Y-59400000D02*
X133339285Y-59400000D01*
X132910714Y-59400000D02*
X132875000Y-59371428D01*
X132839285Y-59314285D01*
X132839285Y-59228571D01*
X132875000Y-59171428D01*
X132946428Y-59142857D01*
X133339285Y-59142857D01*
X132839285Y-58857142D02*
X133339285Y-58857142D01*
X132910714Y-58857142D02*
X132875000Y-58828571D01*
X132839285Y-58771428D01*
X132839285Y-58685714D01*
X132875000Y-58628571D01*
X132946428Y-58600000D01*
X133339285Y-58600000D01*
X132839285Y-52142857D02*
X133446428Y-52142857D01*
X133517857Y-52171428D01*
X133553571Y-52200000D01*
X133589285Y-52257142D01*
X133589285Y-52342857D01*
X133553571Y-52400000D01*
X133303571Y-52142857D02*
X133339285Y-52200000D01*
X133339285Y-52314285D01*
X133303571Y-52371428D01*
X133267857Y-52400000D01*
X133196428Y-52428571D01*
X132982142Y-52428571D01*
X132910714Y-52400000D01*
X132875000Y-52371428D01*
X132839285Y-52314285D01*
X132839285Y-52200000D01*
X132875000Y-52142857D01*
X132839285Y-51857142D02*
X133589285Y-51857142D01*
X132875000Y-51857142D02*
X132839285Y-51800000D01*
X132839285Y-51685714D01*
X132875000Y-51628571D01*
X132910714Y-51600000D01*
X132982142Y-51571428D01*
X133196428Y-51571428D01*
X133267857Y-51600000D01*
X133303571Y-51628571D01*
X133339285Y-51685714D01*
X133339285Y-51800000D01*
X133303571Y-51857142D01*
X133339285Y-51314285D02*
X132839285Y-51314285D01*
X132589285Y-51314285D02*
X132625000Y-51342857D01*
X132660714Y-51314285D01*
X132625000Y-51285714D01*
X132589285Y-51314285D01*
X132660714Y-51314285D01*
X133339285Y-50942857D02*
X133303571Y-51000000D01*
X133267857Y-51028571D01*
X133196428Y-51057142D01*
X132982142Y-51057142D01*
X132910714Y-51028571D01*
X132875000Y-51000000D01*
X132839285Y-50942857D01*
X132839285Y-50857142D01*
X132875000Y-50800000D01*
X132910714Y-50771428D01*
X132982142Y-50742857D01*
X133196428Y-50742857D01*
X133267857Y-50771428D01*
X133303571Y-50800000D01*
X133339285Y-50857142D01*
X133339285Y-50942857D01*
X132660714Y-50514285D02*
X132625000Y-50485714D01*
X132589285Y-50428571D01*
X132589285Y-50285714D01*
X132625000Y-50228571D01*
X132660714Y-50200000D01*
X132732142Y-50171428D01*
X132803571Y-50171428D01*
X132910714Y-50200000D01*
X133339285Y-50542857D01*
X133339285Y-50171428D01*
X133410714Y-50057142D02*
X133410714Y-49600000D01*
X133303571Y-49200000D02*
X133339285Y-49257142D01*
X133339285Y-49371428D01*
X133303571Y-49428571D01*
X133267857Y-49457142D01*
X133196428Y-49485714D01*
X132982142Y-49485714D01*
X132910714Y-49457142D01*
X132875000Y-49428571D01*
X132839285Y-49371428D01*
X132839285Y-49257142D01*
X132875000Y-49200000D01*
X133339285Y-48857142D02*
X133303571Y-48914285D01*
X133267857Y-48942857D01*
X133196428Y-48971428D01*
X132982142Y-48971428D01*
X132910714Y-48942857D01*
X132875000Y-48914285D01*
X132839285Y-48857142D01*
X132839285Y-48771428D01*
X132875000Y-48714285D01*
X132910714Y-48685714D01*
X132982142Y-48657142D01*
X133196428Y-48657142D01*
X133267857Y-48685714D01*
X133303571Y-48714285D01*
X133339285Y-48771428D01*
X133339285Y-48857142D01*
X132839285Y-48400000D02*
X133339285Y-48400000D01*
X132910714Y-48400000D02*
X132875000Y-48371428D01*
X132839285Y-48314285D01*
X132839285Y-48228571D01*
X132875000Y-48171428D01*
X132946428Y-48142857D01*
X133339285Y-48142857D01*
X132839285Y-47857142D02*
X133339285Y-47857142D01*
X132910714Y-47857142D02*
X132875000Y-47828571D01*
X132839285Y-47771428D01*
X132839285Y-47685714D01*
X132875000Y-47628571D01*
X132946428Y-47600000D01*
X133339285Y-47600000D01*
X162057142Y-50624285D02*
X162057142Y-49874285D01*
X162057142Y-50588571D02*
X162000000Y-50624285D01*
X161885714Y-50624285D01*
X161828571Y-50588571D01*
X161800000Y-50552857D01*
X161771428Y-50481428D01*
X161771428Y-50267142D01*
X161800000Y-50195714D01*
X161828571Y-50160000D01*
X161885714Y-50124285D01*
X162000000Y-50124285D01*
X162057142Y-50160000D01*
X162342857Y-50624285D02*
X162342857Y-50124285D01*
X162342857Y-50267142D02*
X162371428Y-50195714D01*
X162400000Y-50160000D01*
X162457142Y-50124285D01*
X162514285Y-50124285D01*
X162657142Y-50124285D02*
X162800000Y-50624285D01*
X162942857Y-50124285D01*
X163485714Y-50624285D02*
X163142857Y-50624285D01*
X163314285Y-50624285D02*
X163314285Y-49874285D01*
X163257142Y-49981428D01*
X163200000Y-50052857D01*
X163142857Y-50088571D01*
X163742857Y-50552857D02*
X163771428Y-50588571D01*
X163742857Y-50624285D01*
X163714285Y-50588571D01*
X163742857Y-50552857D01*
X163742857Y-50624285D01*
X164285714Y-50624285D02*
X164285714Y-49874285D01*
X164285714Y-50588571D02*
X164228571Y-50624285D01*
X164114285Y-50624285D01*
X164057142Y-50588571D01*
X164028571Y-50552857D01*
X164000000Y-50481428D01*
X164000000Y-50267142D01*
X164028571Y-50195714D01*
X164057142Y-50160000D01*
X164114285Y-50124285D01*
X164228571Y-50124285D01*
X164285714Y-50160000D01*
X164571428Y-50624285D02*
X164571428Y-50124285D01*
X164571428Y-50267142D02*
X164600000Y-50195714D01*
X164628571Y-50160000D01*
X164685714Y-50124285D01*
X164742857Y-50124285D01*
X164885714Y-50124285D02*
X165028571Y-50624285D01*
X165171428Y-50124285D01*
X165400000Y-50552857D02*
X165428571Y-50588571D01*
X165400000Y-50624285D01*
X165371428Y-50588571D01*
X165400000Y-50552857D01*
X165400000Y-50624285D01*
X165685714Y-50624285D02*
X165685714Y-50124285D01*
X165685714Y-49874285D02*
X165657142Y-49910000D01*
X165685714Y-49945714D01*
X165714285Y-49910000D01*
X165685714Y-49874285D01*
X165685714Y-49945714D01*
X166228571Y-50588571D02*
X166171428Y-50624285D01*
X166057142Y-50624285D01*
X166000000Y-50588571D01*
X165971428Y-50552857D01*
X165942857Y-50481428D01*
X165942857Y-50267142D01*
X165971428Y-50195714D01*
X166000000Y-50160000D01*
X166057142Y-50124285D01*
X166171428Y-50124285D01*
X166228571Y-50160000D01*
X162057142Y-78624285D02*
X162057142Y-77874285D01*
X162057142Y-78588571D02*
X162000000Y-78624285D01*
X161885714Y-78624285D01*
X161828571Y-78588571D01*
X161800000Y-78552857D01*
X161771428Y-78481428D01*
X161771428Y-78267142D01*
X161800000Y-78195714D01*
X161828571Y-78160000D01*
X161885714Y-78124285D01*
X162000000Y-78124285D01*
X162057142Y-78160000D01*
X162342857Y-78624285D02*
X162342857Y-78124285D01*
X162342857Y-78267142D02*
X162371428Y-78195714D01*
X162400000Y-78160000D01*
X162457142Y-78124285D01*
X162514285Y-78124285D01*
X162657142Y-78124285D02*
X162800000Y-78624285D01*
X162942857Y-78124285D01*
X163142857Y-77945714D02*
X163171428Y-77910000D01*
X163228571Y-77874285D01*
X163371428Y-77874285D01*
X163428571Y-77910000D01*
X163457142Y-77945714D01*
X163485714Y-78017142D01*
X163485714Y-78088571D01*
X163457142Y-78195714D01*
X163114285Y-78624285D01*
X163485714Y-78624285D01*
X163742857Y-78552857D02*
X163771428Y-78588571D01*
X163742857Y-78624285D01*
X163714285Y-78588571D01*
X163742857Y-78552857D01*
X163742857Y-78624285D01*
X164285714Y-78624285D02*
X164285714Y-77874285D01*
X164285714Y-78588571D02*
X164228571Y-78624285D01*
X164114285Y-78624285D01*
X164057142Y-78588571D01*
X164028571Y-78552857D01*
X164000000Y-78481428D01*
X164000000Y-78267142D01*
X164028571Y-78195714D01*
X164057142Y-78160000D01*
X164114285Y-78124285D01*
X164228571Y-78124285D01*
X164285714Y-78160000D01*
X164571428Y-78624285D02*
X164571428Y-78124285D01*
X164571428Y-78267142D02*
X164600000Y-78195714D01*
X164628571Y-78160000D01*
X164685714Y-78124285D01*
X164742857Y-78124285D01*
X164885714Y-78124285D02*
X165028571Y-78624285D01*
X165171428Y-78124285D01*
X165400000Y-78552857D02*
X165428571Y-78588571D01*
X165400000Y-78624285D01*
X165371428Y-78588571D01*
X165400000Y-78552857D01*
X165400000Y-78624285D01*
X165685714Y-78624285D02*
X165685714Y-78124285D01*
X165685714Y-77874285D02*
X165657142Y-77910000D01*
X165685714Y-77945714D01*
X165714285Y-77910000D01*
X165685714Y-77874285D01*
X165685714Y-77945714D01*
X166228571Y-78588571D02*
X166171428Y-78624285D01*
X166057142Y-78624285D01*
X166000000Y-78588571D01*
X165971428Y-78552857D01*
X165942857Y-78481428D01*
X165942857Y-78267142D01*
X165971428Y-78195714D01*
X166000000Y-78160000D01*
X166057142Y-78124285D01*
X166171428Y-78124285D01*
X166228571Y-78160000D01*
X176642857Y-55339285D02*
X176642857Y-54589285D01*
X176642857Y-55303571D02*
X176585714Y-55339285D01*
X176471428Y-55339285D01*
X176414285Y-55303571D01*
X176385714Y-55267857D01*
X176357142Y-55196428D01*
X176357142Y-54982142D01*
X176385714Y-54910714D01*
X176414285Y-54875000D01*
X176471428Y-54839285D01*
X176585714Y-54839285D01*
X176642857Y-54875000D01*
X176928571Y-55339285D02*
X176928571Y-54839285D01*
X176928571Y-54982142D02*
X176957142Y-54910714D01*
X176985714Y-54875000D01*
X177042857Y-54839285D01*
X177100000Y-54839285D01*
X177242857Y-54839285D02*
X177385714Y-55339285D01*
X177528571Y-54839285D01*
X178071428Y-55339285D02*
X177728571Y-55339285D01*
X177900000Y-55339285D02*
X177900000Y-54589285D01*
X177842857Y-54696428D01*
X177785714Y-54767857D01*
X177728571Y-54803571D01*
X178328571Y-55267857D02*
X178357142Y-55303571D01*
X178328571Y-55339285D01*
X178300000Y-55303571D01*
X178328571Y-55267857D01*
X178328571Y-55339285D01*
X178614285Y-55339285D02*
X178614285Y-54589285D01*
X178871428Y-55339285D02*
X178871428Y-54946428D01*
X178842857Y-54875000D01*
X178785714Y-54839285D01*
X178700000Y-54839285D01*
X178642857Y-54875000D01*
X178614285Y-54910714D01*
X179157142Y-55339285D02*
X179157142Y-54589285D01*
X179157142Y-54875000D02*
X179214285Y-54839285D01*
X179328571Y-54839285D01*
X179385714Y-54875000D01*
X179414285Y-54910714D01*
X179442857Y-54982142D01*
X179442857Y-55196428D01*
X179414285Y-55267857D01*
X179385714Y-55303571D01*
X179328571Y-55339285D01*
X179214285Y-55339285D01*
X179157142Y-55303571D01*
X179700000Y-55267857D02*
X179728571Y-55303571D01*
X179700000Y-55339285D01*
X179671428Y-55303571D01*
X179700000Y-55267857D01*
X179700000Y-55339285D01*
X179985714Y-55339285D02*
X179985714Y-54589285D01*
X180242857Y-55339285D02*
X180242857Y-54946428D01*
X180214285Y-54875000D01*
X180157142Y-54839285D01*
X180071428Y-54839285D01*
X180014285Y-54875000D01*
X179985714Y-54910714D01*
X180528571Y-55339285D02*
X180528571Y-54839285D01*
X180528571Y-54589285D02*
X180500000Y-54625000D01*
X180528571Y-54660714D01*
X180557142Y-54625000D01*
X180528571Y-54589285D01*
X180528571Y-54660714D01*
X181071428Y-54839285D02*
X181071428Y-55446428D01*
X181042857Y-55517857D01*
X181014285Y-55553571D01*
X180957142Y-55589285D01*
X180871428Y-55589285D01*
X180814285Y-55553571D01*
X181071428Y-55303571D02*
X181014285Y-55339285D01*
X180900000Y-55339285D01*
X180842857Y-55303571D01*
X180814285Y-55267857D01*
X180785714Y-55196428D01*
X180785714Y-54982142D01*
X180814285Y-54910714D01*
X180842857Y-54875000D01*
X180900000Y-54839285D01*
X181014285Y-54839285D01*
X181071428Y-54875000D01*
X181357142Y-55339285D02*
X181357142Y-54589285D01*
X181614285Y-55339285D02*
X181614285Y-54946428D01*
X181585714Y-54875000D01*
X181528571Y-54839285D01*
X181442857Y-54839285D01*
X181385714Y-54875000D01*
X181357142Y-54910714D01*
X176857142Y-57339285D02*
X176857142Y-56589285D01*
X176857142Y-57303571D02*
X176800000Y-57339285D01*
X176685714Y-57339285D01*
X176628571Y-57303571D01*
X176600000Y-57267857D01*
X176571428Y-57196428D01*
X176571428Y-56982142D01*
X176600000Y-56910714D01*
X176628571Y-56875000D01*
X176685714Y-56839285D01*
X176800000Y-56839285D01*
X176857142Y-56875000D01*
X177142857Y-57339285D02*
X177142857Y-56839285D01*
X177142857Y-56982142D02*
X177171428Y-56910714D01*
X177200000Y-56875000D01*
X177257142Y-56839285D01*
X177314285Y-56839285D01*
X177457142Y-56839285D02*
X177600000Y-57339285D01*
X177742857Y-56839285D01*
X178285714Y-57339285D02*
X177942857Y-57339285D01*
X178114285Y-57339285D02*
X178114285Y-56589285D01*
X178057142Y-56696428D01*
X178000000Y-56767857D01*
X177942857Y-56803571D01*
X178542857Y-57267857D02*
X178571428Y-57303571D01*
X178542857Y-57339285D01*
X178514285Y-57303571D01*
X178542857Y-57267857D01*
X178542857Y-57339285D01*
X178828571Y-57339285D02*
X178828571Y-56589285D01*
X179085714Y-57339285D02*
X179085714Y-56946428D01*
X179057142Y-56875000D01*
X179000000Y-56839285D01*
X178914285Y-56839285D01*
X178857142Y-56875000D01*
X178828571Y-56910714D01*
X179371428Y-57339285D02*
X179371428Y-56589285D01*
X179371428Y-56875000D02*
X179428571Y-56839285D01*
X179542857Y-56839285D01*
X179600000Y-56875000D01*
X179628571Y-56910714D01*
X179657142Y-56982142D01*
X179657142Y-57196428D01*
X179628571Y-57267857D01*
X179600000Y-57303571D01*
X179542857Y-57339285D01*
X179428571Y-57339285D01*
X179371428Y-57303571D01*
X179914285Y-57267857D02*
X179942857Y-57303571D01*
X179914285Y-57339285D01*
X179885714Y-57303571D01*
X179914285Y-57267857D01*
X179914285Y-57339285D01*
X180285714Y-57339285D02*
X180228571Y-57303571D01*
X180200000Y-57232142D01*
X180200000Y-56589285D01*
X180600000Y-57339285D02*
X180542857Y-57303571D01*
X180514285Y-57267857D01*
X180485714Y-57196428D01*
X180485714Y-56982142D01*
X180514285Y-56910714D01*
X180542857Y-56875000D01*
X180600000Y-56839285D01*
X180685714Y-56839285D01*
X180742857Y-56875000D01*
X180771428Y-56910714D01*
X180800000Y-56982142D01*
X180800000Y-57196428D01*
X180771428Y-57267857D01*
X180742857Y-57303571D01*
X180685714Y-57339285D01*
X180600000Y-57339285D01*
X181000000Y-56839285D02*
X181114285Y-57339285D01*
X181228571Y-56982142D01*
X181342857Y-57339285D01*
X181457142Y-56839285D01*
X176642857Y-83339285D02*
X176642857Y-82589285D01*
X176642857Y-83303571D02*
X176585714Y-83339285D01*
X176471428Y-83339285D01*
X176414285Y-83303571D01*
X176385714Y-83267857D01*
X176357142Y-83196428D01*
X176357142Y-82982142D01*
X176385714Y-82910714D01*
X176414285Y-82875000D01*
X176471428Y-82839285D01*
X176585714Y-82839285D01*
X176642857Y-82875000D01*
X176928571Y-83339285D02*
X176928571Y-82839285D01*
X176928571Y-82982142D02*
X176957142Y-82910714D01*
X176985714Y-82875000D01*
X177042857Y-82839285D01*
X177100000Y-82839285D01*
X177242857Y-82839285D02*
X177385714Y-83339285D01*
X177528571Y-82839285D01*
X177728571Y-82660714D02*
X177757142Y-82625000D01*
X177814285Y-82589285D01*
X177957142Y-82589285D01*
X178014285Y-82625000D01*
X178042857Y-82660714D01*
X178071428Y-82732142D01*
X178071428Y-82803571D01*
X178042857Y-82910714D01*
X177700000Y-83339285D01*
X178071428Y-83339285D01*
X178328571Y-83267857D02*
X178357142Y-83303571D01*
X178328571Y-83339285D01*
X178300000Y-83303571D01*
X178328571Y-83267857D01*
X178328571Y-83339285D01*
X178614285Y-83339285D02*
X178614285Y-82589285D01*
X178871428Y-83339285D02*
X178871428Y-82946428D01*
X178842857Y-82875000D01*
X178785714Y-82839285D01*
X178700000Y-82839285D01*
X178642857Y-82875000D01*
X178614285Y-82910714D01*
X179157142Y-83339285D02*
X179157142Y-82589285D01*
X179157142Y-82875000D02*
X179214285Y-82839285D01*
X179328571Y-82839285D01*
X179385714Y-82875000D01*
X179414285Y-82910714D01*
X179442857Y-82982142D01*
X179442857Y-83196428D01*
X179414285Y-83267857D01*
X179385714Y-83303571D01*
X179328571Y-83339285D01*
X179214285Y-83339285D01*
X179157142Y-83303571D01*
X179700000Y-83267857D02*
X179728571Y-83303571D01*
X179700000Y-83339285D01*
X179671428Y-83303571D01*
X179700000Y-83267857D01*
X179700000Y-83339285D01*
X179985714Y-83339285D02*
X179985714Y-82589285D01*
X180242857Y-83339285D02*
X180242857Y-82946428D01*
X180214285Y-82875000D01*
X180157142Y-82839285D01*
X180071428Y-82839285D01*
X180014285Y-82875000D01*
X179985714Y-82910714D01*
X180528571Y-83339285D02*
X180528571Y-82839285D01*
X180528571Y-82589285D02*
X180500000Y-82625000D01*
X180528571Y-82660714D01*
X180557142Y-82625000D01*
X180528571Y-82589285D01*
X180528571Y-82660714D01*
X181071428Y-82839285D02*
X181071428Y-83446428D01*
X181042857Y-83517857D01*
X181014285Y-83553571D01*
X180957142Y-83589285D01*
X180871428Y-83589285D01*
X180814285Y-83553571D01*
X181071428Y-83303571D02*
X181014285Y-83339285D01*
X180900000Y-83339285D01*
X180842857Y-83303571D01*
X180814285Y-83267857D01*
X180785714Y-83196428D01*
X180785714Y-82982142D01*
X180814285Y-82910714D01*
X180842857Y-82875000D01*
X180900000Y-82839285D01*
X181014285Y-82839285D01*
X181071428Y-82875000D01*
X181357142Y-83339285D02*
X181357142Y-82589285D01*
X181614285Y-83339285D02*
X181614285Y-82946428D01*
X181585714Y-82875000D01*
X181528571Y-82839285D01*
X181442857Y-82839285D01*
X181385714Y-82875000D01*
X181357142Y-82910714D01*
X176857142Y-85339285D02*
X176857142Y-84589285D01*
X176857142Y-85303571D02*
X176800000Y-85339285D01*
X176685714Y-85339285D01*
X176628571Y-85303571D01*
X176600000Y-85267857D01*
X176571428Y-85196428D01*
X176571428Y-84982142D01*
X176600000Y-84910714D01*
X176628571Y-84875000D01*
X176685714Y-84839285D01*
X176800000Y-84839285D01*
X176857142Y-84875000D01*
X177142857Y-85339285D02*
X177142857Y-84839285D01*
X177142857Y-84982142D02*
X177171428Y-84910714D01*
X177200000Y-84875000D01*
X177257142Y-84839285D01*
X177314285Y-84839285D01*
X177457142Y-84839285D02*
X177600000Y-85339285D01*
X177742857Y-84839285D01*
X177942857Y-84660714D02*
X177971428Y-84625000D01*
X178028571Y-84589285D01*
X178171428Y-84589285D01*
X178228571Y-84625000D01*
X178257142Y-84660714D01*
X178285714Y-84732142D01*
X178285714Y-84803571D01*
X178257142Y-84910714D01*
X177914285Y-85339285D01*
X178285714Y-85339285D01*
X178542857Y-85267857D02*
X178571428Y-85303571D01*
X178542857Y-85339285D01*
X178514285Y-85303571D01*
X178542857Y-85267857D01*
X178542857Y-85339285D01*
X178828571Y-85339285D02*
X178828571Y-84589285D01*
X179085714Y-85339285D02*
X179085714Y-84946428D01*
X179057142Y-84875000D01*
X179000000Y-84839285D01*
X178914285Y-84839285D01*
X178857142Y-84875000D01*
X178828571Y-84910714D01*
X179371428Y-85339285D02*
X179371428Y-84589285D01*
X179371428Y-84875000D02*
X179428571Y-84839285D01*
X179542857Y-84839285D01*
X179600000Y-84875000D01*
X179628571Y-84910714D01*
X179657142Y-84982142D01*
X179657142Y-85196428D01*
X179628571Y-85267857D01*
X179600000Y-85303571D01*
X179542857Y-85339285D01*
X179428571Y-85339285D01*
X179371428Y-85303571D01*
X179914285Y-85267857D02*
X179942857Y-85303571D01*
X179914285Y-85339285D01*
X179885714Y-85303571D01*
X179914285Y-85267857D01*
X179914285Y-85339285D01*
X180285714Y-85339285D02*
X180228571Y-85303571D01*
X180200000Y-85232142D01*
X180200000Y-84589285D01*
X180600000Y-85339285D02*
X180542857Y-85303571D01*
X180514285Y-85267857D01*
X180485714Y-85196428D01*
X180485714Y-84982142D01*
X180514285Y-84910714D01*
X180542857Y-84875000D01*
X180600000Y-84839285D01*
X180685714Y-84839285D01*
X180742857Y-84875000D01*
X180771428Y-84910714D01*
X180800000Y-84982142D01*
X180800000Y-85196428D01*
X180771428Y-85267857D01*
X180742857Y-85303571D01*
X180685714Y-85339285D01*
X180600000Y-85339285D01*
X181000000Y-84839285D02*
X181114285Y-85339285D01*
X181228571Y-84982142D01*
X181342857Y-85339285D01*
X181457142Y-84839285D01*
X192128571Y-49839285D02*
X192128571Y-49339285D01*
X192128571Y-49410714D02*
X192157142Y-49375000D01*
X192214285Y-49339285D01*
X192300000Y-49339285D01*
X192357142Y-49375000D01*
X192385714Y-49446428D01*
X192385714Y-49839285D01*
X192385714Y-49446428D02*
X192414285Y-49375000D01*
X192471428Y-49339285D01*
X192557142Y-49339285D01*
X192614285Y-49375000D01*
X192642857Y-49446428D01*
X192642857Y-49839285D01*
X193014285Y-49839285D02*
X192957142Y-49803571D01*
X192928571Y-49767857D01*
X192900000Y-49696428D01*
X192900000Y-49482142D01*
X192928571Y-49410714D01*
X192957142Y-49375000D01*
X193014285Y-49339285D01*
X193100000Y-49339285D01*
X193157142Y-49375000D01*
X193185714Y-49410714D01*
X193214285Y-49482142D01*
X193214285Y-49696428D01*
X193185714Y-49767857D01*
X193157142Y-49803571D01*
X193100000Y-49839285D01*
X193014285Y-49839285D01*
X193385714Y-49339285D02*
X193614285Y-49339285D01*
X193471428Y-49089285D02*
X193471428Y-49732142D01*
X193500000Y-49803571D01*
X193557142Y-49839285D01*
X193614285Y-49839285D01*
X193900000Y-49839285D02*
X193842857Y-49803571D01*
X193814285Y-49767857D01*
X193785714Y-49696428D01*
X193785714Y-49482142D01*
X193814285Y-49410714D01*
X193842857Y-49375000D01*
X193900000Y-49339285D01*
X193985714Y-49339285D01*
X194042857Y-49375000D01*
X194071428Y-49410714D01*
X194100000Y-49482142D01*
X194100000Y-49696428D01*
X194071428Y-49767857D01*
X194042857Y-49803571D01*
X193985714Y-49839285D01*
X193900000Y-49839285D01*
X194357142Y-49839285D02*
X194357142Y-49339285D01*
X194357142Y-49482142D02*
X194385714Y-49410714D01*
X194414285Y-49375000D01*
X194471428Y-49339285D01*
X194528571Y-49339285D01*
X194728571Y-49767857D02*
X194757142Y-49803571D01*
X194728571Y-49839285D01*
X194700000Y-49803571D01*
X194728571Y-49767857D01*
X194728571Y-49839285D01*
X195271428Y-49839285D02*
X195271428Y-49446428D01*
X195242857Y-49375000D01*
X195185714Y-49339285D01*
X195071428Y-49339285D01*
X195014285Y-49375000D01*
X195271428Y-49803571D02*
X195214285Y-49839285D01*
X195071428Y-49839285D01*
X195014285Y-49803571D01*
X194985714Y-49732142D01*
X194985714Y-49660714D01*
X195014285Y-49589285D01*
X195071428Y-49553571D01*
X195214285Y-49553571D01*
X195271428Y-49517857D01*
X195414285Y-49910714D02*
X195871428Y-49910714D01*
X196271428Y-49803571D02*
X196214285Y-49839285D01*
X196100000Y-49839285D01*
X196042857Y-49803571D01*
X196014285Y-49767857D01*
X195985714Y-49696428D01*
X195985714Y-49482142D01*
X196014285Y-49410714D01*
X196042857Y-49375000D01*
X196100000Y-49339285D01*
X196214285Y-49339285D01*
X196271428Y-49375000D01*
X196614285Y-49839285D02*
X196557142Y-49803571D01*
X196528571Y-49767857D01*
X196500000Y-49696428D01*
X196500000Y-49482142D01*
X196528571Y-49410714D01*
X196557142Y-49375000D01*
X196614285Y-49339285D01*
X196700000Y-49339285D01*
X196757142Y-49375000D01*
X196785714Y-49410714D01*
X196814285Y-49482142D01*
X196814285Y-49696428D01*
X196785714Y-49767857D01*
X196757142Y-49803571D01*
X196700000Y-49839285D01*
X196614285Y-49839285D01*
X197071428Y-49339285D02*
X197071428Y-49839285D01*
X197071428Y-49410714D02*
X197100000Y-49375000D01*
X197157142Y-49339285D01*
X197242857Y-49339285D01*
X197300000Y-49375000D01*
X197328571Y-49446428D01*
X197328571Y-49839285D01*
X197614285Y-49339285D02*
X197614285Y-49839285D01*
X197614285Y-49410714D02*
X197642857Y-49375000D01*
X197700000Y-49339285D01*
X197785714Y-49339285D01*
X197842857Y-49375000D01*
X197871428Y-49446428D01*
X197871428Y-49839285D01*
X192128571Y-77839285D02*
X192128571Y-77339285D01*
X192128571Y-77410714D02*
X192157142Y-77375000D01*
X192214285Y-77339285D01*
X192300000Y-77339285D01*
X192357142Y-77375000D01*
X192385714Y-77446428D01*
X192385714Y-77839285D01*
X192385714Y-77446428D02*
X192414285Y-77375000D01*
X192471428Y-77339285D01*
X192557142Y-77339285D01*
X192614285Y-77375000D01*
X192642857Y-77446428D01*
X192642857Y-77839285D01*
X193014285Y-77839285D02*
X192957142Y-77803571D01*
X192928571Y-77767857D01*
X192900000Y-77696428D01*
X192900000Y-77482142D01*
X192928571Y-77410714D01*
X192957142Y-77375000D01*
X193014285Y-77339285D01*
X193100000Y-77339285D01*
X193157142Y-77375000D01*
X193185714Y-77410714D01*
X193214285Y-77482142D01*
X193214285Y-77696428D01*
X193185714Y-77767857D01*
X193157142Y-77803571D01*
X193100000Y-77839285D01*
X193014285Y-77839285D01*
X193385714Y-77339285D02*
X193614285Y-77339285D01*
X193471428Y-77089285D02*
X193471428Y-77732142D01*
X193500000Y-77803571D01*
X193557142Y-77839285D01*
X193614285Y-77839285D01*
X193900000Y-77839285D02*
X193842857Y-77803571D01*
X193814285Y-77767857D01*
X193785714Y-77696428D01*
X193785714Y-77482142D01*
X193814285Y-77410714D01*
X193842857Y-77375000D01*
X193900000Y-77339285D01*
X193985714Y-77339285D01*
X194042857Y-77375000D01*
X194071428Y-77410714D01*
X194100000Y-77482142D01*
X194100000Y-77696428D01*
X194071428Y-77767857D01*
X194042857Y-77803571D01*
X193985714Y-77839285D01*
X193900000Y-77839285D01*
X194357142Y-77839285D02*
X194357142Y-77339285D01*
X194357142Y-77482142D02*
X194385714Y-77410714D01*
X194414285Y-77375000D01*
X194471428Y-77339285D01*
X194528571Y-77339285D01*
X194728571Y-77767857D02*
X194757142Y-77803571D01*
X194728571Y-77839285D01*
X194700000Y-77803571D01*
X194728571Y-77767857D01*
X194728571Y-77839285D01*
X195014285Y-77839285D02*
X195014285Y-77089285D01*
X195014285Y-77375000D02*
X195071428Y-77339285D01*
X195185714Y-77339285D01*
X195242857Y-77375000D01*
X195271428Y-77410714D01*
X195300000Y-77482142D01*
X195300000Y-77696428D01*
X195271428Y-77767857D01*
X195242857Y-77803571D01*
X195185714Y-77839285D01*
X195071428Y-77839285D01*
X195014285Y-77803571D01*
X195414285Y-77910714D02*
X195871428Y-77910714D01*
X196271428Y-77803571D02*
X196214285Y-77839285D01*
X196100000Y-77839285D01*
X196042857Y-77803571D01*
X196014285Y-77767857D01*
X195985714Y-77696428D01*
X195985714Y-77482142D01*
X196014285Y-77410714D01*
X196042857Y-77375000D01*
X196100000Y-77339285D01*
X196214285Y-77339285D01*
X196271428Y-77375000D01*
X196614285Y-77839285D02*
X196557142Y-77803571D01*
X196528571Y-77767857D01*
X196500000Y-77696428D01*
X196500000Y-77482142D01*
X196528571Y-77410714D01*
X196557142Y-77375000D01*
X196614285Y-77339285D01*
X196700000Y-77339285D01*
X196757142Y-77375000D01*
X196785714Y-77410714D01*
X196814285Y-77482142D01*
X196814285Y-77696428D01*
X196785714Y-77767857D01*
X196757142Y-77803571D01*
X196700000Y-77839285D01*
X196614285Y-77839285D01*
X197071428Y-77339285D02*
X197071428Y-77839285D01*
X197071428Y-77410714D02*
X197100000Y-77375000D01*
X197157142Y-77339285D01*
X197242857Y-77339285D01*
X197300000Y-77375000D01*
X197328571Y-77446428D01*
X197328571Y-77839285D01*
X197614285Y-77339285D02*
X197614285Y-77839285D01*
X197614285Y-77410714D02*
X197642857Y-77375000D01*
X197700000Y-77339285D01*
X197785714Y-77339285D01*
X197842857Y-77375000D01*
X197871428Y-77446428D01*
X197871428Y-77839285D01*
X153471428Y-40839285D02*
X153471428Y-41589285D01*
X153471428Y-40875000D02*
X153528571Y-40839285D01*
X153642857Y-40839285D01*
X153700000Y-40875000D01*
X153728571Y-40910714D01*
X153757142Y-40982142D01*
X153757142Y-41196428D01*
X153728571Y-41267857D01*
X153700000Y-41303571D01*
X153642857Y-41339285D01*
X153528571Y-41339285D01*
X153471428Y-41303571D01*
X153957142Y-40839285D02*
X154071428Y-41339285D01*
X154185714Y-40982142D01*
X154300000Y-41339285D01*
X154414285Y-40839285D01*
X154642857Y-41339285D02*
X154642857Y-40839285D01*
X154642857Y-40982142D02*
X154671428Y-40910714D01*
X154700000Y-40875000D01*
X154757142Y-40839285D01*
X154814285Y-40839285D01*
X154871428Y-41410714D02*
X155328571Y-41410714D01*
X155471428Y-41339285D02*
X155471428Y-40839285D01*
X155471428Y-40589285D02*
X155442857Y-40625000D01*
X155471428Y-40660714D01*
X155500000Y-40625000D01*
X155471428Y-40589285D01*
X155471428Y-40660714D01*
X155757142Y-40839285D02*
X155757142Y-41339285D01*
X155757142Y-40910714D02*
X155785714Y-40875000D01*
X155842857Y-40839285D01*
X155928571Y-40839285D01*
X155985714Y-40875000D01*
X156014285Y-40946428D01*
X156014285Y-41339285D01*
X156300000Y-41267857D02*
X156328571Y-41303571D01*
X156300000Y-41339285D01*
X156271428Y-41303571D01*
X156300000Y-41267857D01*
X156300000Y-41339285D01*
X156842857Y-40839285D02*
X156842857Y-41446428D01*
X156814285Y-41517857D01*
X156785714Y-41553571D01*
X156728571Y-41589285D01*
X156642857Y-41589285D01*
X156585714Y-41553571D01*
X156842857Y-41303571D02*
X156785714Y-41339285D01*
X156671428Y-41339285D01*
X156614285Y-41303571D01*
X156585714Y-41267857D01*
X156557142Y-41196428D01*
X156557142Y-40982142D01*
X156585714Y-40910714D01*
X156614285Y-40875000D01*
X156671428Y-40839285D01*
X156785714Y-40839285D01*
X156842857Y-40875000D01*
X157128571Y-40839285D02*
X157128571Y-41339285D01*
X157128571Y-40910714D02*
X157157142Y-40875000D01*
X157214285Y-40839285D01*
X157300000Y-40839285D01*
X157357142Y-40875000D01*
X157385714Y-40946428D01*
X157385714Y-41339285D01*
X157928571Y-41339285D02*
X157928571Y-40589285D01*
X157928571Y-41303571D02*
X157871428Y-41339285D01*
X157757142Y-41339285D01*
X157700000Y-41303571D01*
X157671428Y-41267857D01*
X157642857Y-41196428D01*
X157642857Y-40982142D01*
X157671428Y-40910714D01*
X157700000Y-40875000D01*
X157757142Y-40839285D01*
X157871428Y-40839285D01*
X157928571Y-40875000D01*
X158071428Y-41410714D02*
X158528571Y-41410714D01*
X158928571Y-41303571D02*
X158871428Y-41339285D01*
X158757142Y-41339285D01*
X158700000Y-41303571D01*
X158671428Y-41267857D01*
X158642857Y-41196428D01*
X158642857Y-40982142D01*
X158671428Y-40910714D01*
X158700000Y-40875000D01*
X158757142Y-40839285D01*
X158871428Y-40839285D01*
X158928571Y-40875000D01*
X159271428Y-41339285D02*
X159214285Y-41303571D01*
X159185714Y-41267857D01*
X159157142Y-41196428D01*
X159157142Y-40982142D01*
X159185714Y-40910714D01*
X159214285Y-40875000D01*
X159271428Y-40839285D01*
X159357142Y-40839285D01*
X159414285Y-40875000D01*
X159442857Y-40910714D01*
X159471428Y-40982142D01*
X159471428Y-41196428D01*
X159442857Y-41267857D01*
X159414285Y-41303571D01*
X159357142Y-41339285D01*
X159271428Y-41339285D01*
X159728571Y-40839285D02*
X159728571Y-41339285D01*
X159728571Y-40910714D02*
X159757142Y-40875000D01*
X159814285Y-40839285D01*
X159900000Y-40839285D01*
X159957142Y-40875000D01*
X159985714Y-40946428D01*
X159985714Y-41339285D01*
X160271428Y-40839285D02*
X160271428Y-41339285D01*
X160271428Y-40910714D02*
X160300000Y-40875000D01*
X160357142Y-40839285D01*
X160442857Y-40839285D01*
X160500000Y-40875000D01*
X160528571Y-40946428D01*
X160528571Y-41339285D01*
X178514285Y-40839285D02*
X178514285Y-41589285D01*
X178514285Y-40875000D02*
X178571428Y-40839285D01*
X178685714Y-40839285D01*
X178742857Y-40875000D01*
X178771428Y-40910714D01*
X178800000Y-40982142D01*
X178800000Y-41196428D01*
X178771428Y-41267857D01*
X178742857Y-41303571D01*
X178685714Y-41339285D01*
X178571428Y-41339285D01*
X178514285Y-41303571D01*
X179000000Y-40839285D02*
X179114285Y-41339285D01*
X179228571Y-40982142D01*
X179342857Y-41339285D01*
X179457142Y-40839285D01*
X179685714Y-41339285D02*
X179685714Y-40839285D01*
X179685714Y-40982142D02*
X179714285Y-40910714D01*
X179742857Y-40875000D01*
X179800000Y-40839285D01*
X179857142Y-40839285D01*
X179914285Y-41410714D02*
X180371428Y-41410714D01*
X180514285Y-41339285D02*
X180514285Y-40839285D01*
X180514285Y-40589285D02*
X180485714Y-40625000D01*
X180514285Y-40660714D01*
X180542857Y-40625000D01*
X180514285Y-40589285D01*
X180514285Y-40660714D01*
X180800000Y-40839285D02*
X180800000Y-41339285D01*
X180800000Y-40910714D02*
X180828571Y-40875000D01*
X180885714Y-40839285D01*
X180971428Y-40839285D01*
X181028571Y-40875000D01*
X181057142Y-40946428D01*
X181057142Y-41339285D01*
X181342857Y-41267857D02*
X181371428Y-41303571D01*
X181342857Y-41339285D01*
X181314285Y-41303571D01*
X181342857Y-41267857D01*
X181342857Y-41339285D01*
X181628571Y-40839285D02*
X181628571Y-41589285D01*
X181628571Y-40875000D02*
X181685714Y-40839285D01*
X181800000Y-40839285D01*
X181857142Y-40875000D01*
X181885714Y-40910714D01*
X181914285Y-40982142D01*
X181914285Y-41196428D01*
X181885714Y-41267857D01*
X181857142Y-41303571D01*
X181800000Y-41339285D01*
X181685714Y-41339285D01*
X181628571Y-41303571D01*
X182114285Y-40839285D02*
X182228571Y-41339285D01*
X182342857Y-40982142D01*
X182457142Y-41339285D01*
X182571428Y-40839285D01*
X182800000Y-41339285D02*
X182800000Y-40839285D01*
X182800000Y-40982142D02*
X182828571Y-40910714D01*
X182857142Y-40875000D01*
X182914285Y-40839285D01*
X182971428Y-40839285D01*
X183028571Y-41410714D02*
X183485714Y-41410714D01*
X183885714Y-41303571D02*
X183828571Y-41339285D01*
X183714285Y-41339285D01*
X183657142Y-41303571D01*
X183628571Y-41267857D01*
X183600000Y-41196428D01*
X183600000Y-40982142D01*
X183628571Y-40910714D01*
X183657142Y-40875000D01*
X183714285Y-40839285D01*
X183828571Y-40839285D01*
X183885714Y-40875000D01*
X184228571Y-41339285D02*
X184171428Y-41303571D01*
X184142857Y-41267857D01*
X184114285Y-41196428D01*
X184114285Y-40982142D01*
X184142857Y-40910714D01*
X184171428Y-40875000D01*
X184228571Y-40839285D01*
X184314285Y-40839285D01*
X184371428Y-40875000D01*
X184400000Y-40910714D01*
X184428571Y-40982142D01*
X184428571Y-41196428D01*
X184400000Y-41267857D01*
X184371428Y-41303571D01*
X184314285Y-41339285D01*
X184228571Y-41339285D01*
X184685714Y-40839285D02*
X184685714Y-41339285D01*
X184685714Y-40910714D02*
X184714285Y-40875000D01*
X184771428Y-40839285D01*
X184857142Y-40839285D01*
X184914285Y-40875000D01*
X184942857Y-40946428D01*
X184942857Y-41339285D01*
X185228571Y-40839285D02*
X185228571Y-41339285D01*
X185228571Y-40910714D02*
X185257142Y-40875000D01*
X185314285Y-40839285D01*
X185400000Y-40839285D01*
X185457142Y-40875000D01*
X185485714Y-40946428D01*
X185485714Y-41339285D01*
X136542857Y-91339285D02*
X136542857Y-90589285D01*
X136542857Y-90875000D02*
X136600000Y-90839285D01*
X136714285Y-90839285D01*
X136771428Y-90875000D01*
X136800000Y-90910714D01*
X136828571Y-90982142D01*
X136828571Y-91196428D01*
X136800000Y-91267857D01*
X136771428Y-91303571D01*
X136714285Y-91339285D01*
X136600000Y-91339285D01*
X136542857Y-91303571D01*
X137085714Y-91339285D02*
X137085714Y-90589285D01*
X137085714Y-90875000D02*
X137142857Y-90839285D01*
X137257142Y-90839285D01*
X137314285Y-90875000D01*
X137342857Y-90910714D01*
X137371428Y-90982142D01*
X137371428Y-91196428D01*
X137342857Y-91267857D01*
X137314285Y-91303571D01*
X137257142Y-91339285D01*
X137142857Y-91339285D01*
X137085714Y-91303571D01*
X137714285Y-91339285D02*
X137657142Y-91303571D01*
X137628571Y-91232142D01*
X137628571Y-90589285D01*
X137800000Y-91410714D02*
X138257142Y-91410714D01*
X138485714Y-91339285D02*
X138428571Y-91303571D01*
X138400000Y-91232142D01*
X138400000Y-90589285D01*
X138942857Y-91303571D02*
X138885714Y-91339285D01*
X138771428Y-91339285D01*
X138714285Y-91303571D01*
X138685714Y-91232142D01*
X138685714Y-90946428D01*
X138714285Y-90875000D01*
X138771428Y-90839285D01*
X138885714Y-90839285D01*
X138942857Y-90875000D01*
X138971428Y-90946428D01*
X138971428Y-91017857D01*
X138685714Y-91089285D01*
X139485714Y-91339285D02*
X139485714Y-90589285D01*
X139485714Y-91303571D02*
X139428571Y-91339285D01*
X139314285Y-91339285D01*
X139257142Y-91303571D01*
X139228571Y-91267857D01*
X139200000Y-91196428D01*
X139200000Y-90982142D01*
X139228571Y-90910714D01*
X139257142Y-90875000D01*
X139314285Y-90839285D01*
X139428571Y-90839285D01*
X139485714Y-90875000D01*
X139771428Y-91267857D02*
X139800000Y-91303571D01*
X139771428Y-91339285D01*
X139742857Y-91303571D01*
X139771428Y-91267857D01*
X139771428Y-91339285D01*
X140057142Y-90839285D02*
X140057142Y-91589285D01*
X140057142Y-90875000D02*
X140114285Y-90839285D01*
X140228571Y-90839285D01*
X140285714Y-90875000D01*
X140314285Y-90910714D01*
X140342857Y-90982142D01*
X140342857Y-91196428D01*
X140314285Y-91267857D01*
X140285714Y-91303571D01*
X140228571Y-91339285D01*
X140114285Y-91339285D01*
X140057142Y-91303571D01*
X140857142Y-91339285D02*
X140857142Y-90946428D01*
X140828571Y-90875000D01*
X140771428Y-90839285D01*
X140657142Y-90839285D01*
X140600000Y-90875000D01*
X140857142Y-91303571D02*
X140800000Y-91339285D01*
X140657142Y-91339285D01*
X140600000Y-91303571D01*
X140571428Y-91232142D01*
X140571428Y-91160714D01*
X140600000Y-91089285D01*
X140657142Y-91053571D01*
X140800000Y-91053571D01*
X140857142Y-91017857D01*
X141400000Y-91303571D02*
X141342857Y-91339285D01*
X141228571Y-91339285D01*
X141171428Y-91303571D01*
X141142857Y-91267857D01*
X141114285Y-91196428D01*
X141114285Y-90982142D01*
X141142857Y-90910714D01*
X141171428Y-90875000D01*
X141228571Y-90839285D01*
X141342857Y-90839285D01*
X141400000Y-90875000D01*
X141657142Y-91339285D02*
X141657142Y-90589285D01*
X141714285Y-91053571D02*
X141885714Y-91339285D01*
X141885714Y-90839285D02*
X141657142Y-91125000D01*
X142400000Y-91339285D02*
X142400000Y-90946428D01*
X142371428Y-90875000D01*
X142314285Y-90839285D01*
X142200000Y-90839285D01*
X142142857Y-90875000D01*
X142400000Y-91303571D02*
X142342857Y-91339285D01*
X142200000Y-91339285D01*
X142142857Y-91303571D01*
X142114285Y-91232142D01*
X142114285Y-91160714D01*
X142142857Y-91089285D01*
X142200000Y-91053571D01*
X142342857Y-91053571D01*
X142400000Y-91017857D01*
X142942857Y-90839285D02*
X142942857Y-91446428D01*
X142914285Y-91517857D01*
X142885714Y-91553571D01*
X142828571Y-91589285D01*
X142742857Y-91589285D01*
X142685714Y-91553571D01*
X142942857Y-91303571D02*
X142885714Y-91339285D01*
X142771428Y-91339285D01*
X142714285Y-91303571D01*
X142685714Y-91267857D01*
X142657142Y-91196428D01*
X142657142Y-90982142D01*
X142685714Y-90910714D01*
X142714285Y-90875000D01*
X142771428Y-90839285D01*
X142885714Y-90839285D01*
X142942857Y-90875000D01*
X143457142Y-91303571D02*
X143400000Y-91339285D01*
X143285714Y-91339285D01*
X143228571Y-91303571D01*
X143200000Y-91232142D01*
X143200000Y-90946428D01*
X143228571Y-90875000D01*
X143285714Y-90839285D01*
X143400000Y-90839285D01*
X143457142Y-90875000D01*
X143485714Y-90946428D01*
X143485714Y-91017857D01*
X143200000Y-91089285D01*
X134839285Y-77685714D02*
X135339285Y-77685714D01*
X134839285Y-77942857D02*
X135232142Y-77942857D01*
X135303571Y-77914285D01*
X135339285Y-77857142D01*
X135339285Y-77771428D01*
X135303571Y-77714285D01*
X135267857Y-77685714D01*
X135303571Y-77428571D02*
X135339285Y-77371428D01*
X135339285Y-77257142D01*
X135303571Y-77200000D01*
X135232142Y-77171428D01*
X135196428Y-77171428D01*
X135125000Y-77200000D01*
X135089285Y-77257142D01*
X135089285Y-77342857D01*
X135053571Y-77400000D01*
X134982142Y-77428571D01*
X134946428Y-77428571D01*
X134875000Y-77400000D01*
X134839285Y-77342857D01*
X134839285Y-77257142D01*
X134875000Y-77200000D01*
X135339285Y-76914285D02*
X134589285Y-76914285D01*
X134875000Y-76914285D02*
X134839285Y-76857142D01*
X134839285Y-76742857D01*
X134875000Y-76685714D01*
X134910714Y-76657142D01*
X134982142Y-76628571D01*
X135196428Y-76628571D01*
X135267857Y-76657142D01*
X135303571Y-76685714D01*
X135339285Y-76742857D01*
X135339285Y-76857142D01*
X135303571Y-76914285D01*
X135410714Y-76514285D02*
X135410714Y-76057142D01*
X135303571Y-75657142D02*
X135339285Y-75714285D01*
X135339285Y-75828571D01*
X135303571Y-75885714D01*
X135267857Y-75914285D01*
X135196428Y-75942857D01*
X134982142Y-75942857D01*
X134910714Y-75914285D01*
X134875000Y-75885714D01*
X134839285Y-75828571D01*
X134839285Y-75714285D01*
X134875000Y-75657142D01*
X135339285Y-75314285D02*
X135303571Y-75371428D01*
X135267857Y-75400000D01*
X135196428Y-75428571D01*
X134982142Y-75428571D01*
X134910714Y-75400000D01*
X134875000Y-75371428D01*
X134839285Y-75314285D01*
X134839285Y-75228571D01*
X134875000Y-75171428D01*
X134910714Y-75142857D01*
X134982142Y-75114285D01*
X135196428Y-75114285D01*
X135267857Y-75142857D01*
X135303571Y-75171428D01*
X135339285Y-75228571D01*
X135339285Y-75314285D01*
X134839285Y-74857142D02*
X135339285Y-74857142D01*
X134910714Y-74857142D02*
X134875000Y-74828571D01*
X134839285Y-74771428D01*
X134839285Y-74685714D01*
X134875000Y-74628571D01*
X134946428Y-74600000D01*
X135339285Y-74600000D01*
X134839285Y-74314285D02*
X135339285Y-74314285D01*
X134910714Y-74314285D02*
X134875000Y-74285714D01*
X134839285Y-74228571D01*
X134839285Y-74142857D01*
X134875000Y-74085714D01*
X134946428Y-74057142D01*
X135339285Y-74057142D01*
X157339285Y-62442857D02*
X156839285Y-62442857D01*
X156982142Y-62442857D02*
X156910714Y-62414285D01*
X156875000Y-62385714D01*
X156839285Y-62328571D01*
X156839285Y-62271428D01*
X157303571Y-61842857D02*
X157339285Y-61900000D01*
X157339285Y-62014285D01*
X157303571Y-62071428D01*
X157232142Y-62100000D01*
X156946428Y-62100000D01*
X156875000Y-62071428D01*
X156839285Y-62014285D01*
X156839285Y-61900000D01*
X156875000Y-61842857D01*
X156946428Y-61814285D01*
X157017857Y-61814285D01*
X157089285Y-62100000D01*
X156839285Y-61300000D02*
X157446428Y-61300000D01*
X157517857Y-61328571D01*
X157553571Y-61357142D01*
X157589285Y-61414285D01*
X157589285Y-61500000D01*
X157553571Y-61557142D01*
X157303571Y-61300000D02*
X157339285Y-61357142D01*
X157339285Y-61471428D01*
X157303571Y-61528571D01*
X157267857Y-61557142D01*
X157196428Y-61585714D01*
X156982142Y-61585714D01*
X156910714Y-61557142D01*
X156875000Y-61528571D01*
X156839285Y-61471428D01*
X156839285Y-61357142D01*
X156875000Y-61300000D01*
X157410714Y-61157142D02*
X157410714Y-60700000D01*
X157303571Y-60585714D02*
X157339285Y-60528571D01*
X157339285Y-60414285D01*
X157303571Y-60357142D01*
X157232142Y-60328571D01*
X157196428Y-60328571D01*
X157125000Y-60357142D01*
X157089285Y-60414285D01*
X157089285Y-60500000D01*
X157053571Y-60557142D01*
X156982142Y-60585714D01*
X156946428Y-60585714D01*
X156875000Y-60557142D01*
X156839285Y-60500000D01*
X156839285Y-60414285D01*
X156875000Y-60357142D01*
X157339285Y-60071428D02*
X156839285Y-60071428D01*
X156982142Y-60071428D02*
X156910714Y-60042857D01*
X156875000Y-60014285D01*
X156839285Y-59957142D01*
X156839285Y-59900000D01*
X156839285Y-59757142D02*
X157339285Y-59614285D01*
X156839285Y-59471428D01*
X157267857Y-59242857D02*
X157303571Y-59214285D01*
X157339285Y-59242857D01*
X157303571Y-59271428D01*
X157267857Y-59242857D01*
X157339285Y-59242857D01*
X157339285Y-58957142D02*
X156839285Y-58957142D01*
X156589285Y-58957142D02*
X156625000Y-58985714D01*
X156660714Y-58957142D01*
X156625000Y-58928571D01*
X156589285Y-58957142D01*
X156660714Y-58957142D01*
X156839285Y-58671428D02*
X157339285Y-58671428D01*
X156910714Y-58671428D02*
X156875000Y-58642857D01*
X156839285Y-58585714D01*
X156839285Y-58500000D01*
X156875000Y-58442857D01*
X156946428Y-58414285D01*
X157339285Y-58414285D01*
X157339285Y-57871428D02*
X156589285Y-57871428D01*
X157303571Y-57871428D02*
X157339285Y-57928571D01*
X157339285Y-58042857D01*
X157303571Y-58100000D01*
X157267857Y-58128571D01*
X157196428Y-58157142D01*
X156982142Y-58157142D01*
X156910714Y-58128571D01*
X156875000Y-58100000D01*
X156839285Y-58042857D01*
X156839285Y-57928571D01*
X156875000Y-57871428D01*
X156839285Y-57328571D02*
X157339285Y-57328571D01*
X156839285Y-57585714D02*
X157232142Y-57585714D01*
X157303571Y-57557142D01*
X157339285Y-57500000D01*
X157339285Y-57414285D01*
X157303571Y-57357142D01*
X157267857Y-57328571D01*
X157303571Y-56785714D02*
X157339285Y-56842857D01*
X157339285Y-56957142D01*
X157303571Y-57014285D01*
X157267857Y-57042857D01*
X157196428Y-57071428D01*
X156982142Y-57071428D01*
X156910714Y-57042857D01*
X156875000Y-57014285D01*
X156839285Y-56957142D01*
X156839285Y-56842857D01*
X156875000Y-56785714D01*
X156839285Y-56614285D02*
X156839285Y-56385714D01*
X156589285Y-56528571D02*
X157232142Y-56528571D01*
X157303571Y-56500000D01*
X157339285Y-56442857D01*
X157339285Y-56385714D01*
X157339285Y-56100000D02*
X157303571Y-56157142D01*
X157267857Y-56185714D01*
X157196428Y-56214285D01*
X156982142Y-56214285D01*
X156910714Y-56185714D01*
X156875000Y-56157142D01*
X156839285Y-56100000D01*
X156839285Y-56014285D01*
X156875000Y-55957142D01*
X156910714Y-55928571D01*
X156982142Y-55900000D01*
X157196428Y-55900000D01*
X157267857Y-55928571D01*
X157303571Y-55957142D01*
X157339285Y-56014285D01*
X157339285Y-56100000D01*
X157339285Y-55642857D02*
X156839285Y-55642857D01*
X156982142Y-55642857D02*
X156910714Y-55614285D01*
X156875000Y-55585714D01*
X156839285Y-55528571D01*
X156839285Y-55471428D01*
X149457142Y-42433571D02*
X149514285Y-42469285D01*
X149628571Y-42469285D01*
X149685714Y-42433571D01*
X149714285Y-42362142D01*
X149714285Y-42326428D01*
X149685714Y-42255000D01*
X149628571Y-42219285D01*
X149542857Y-42219285D01*
X149485714Y-42183571D01*
X149457142Y-42112142D01*
X149457142Y-42076428D01*
X149485714Y-42005000D01*
X149542857Y-41969285D01*
X149628571Y-41969285D01*
X149685714Y-42005000D01*
X149971428Y-42469285D02*
X149971428Y-41969285D01*
X149971428Y-42112142D02*
X150000000Y-42040714D01*
X150028571Y-42005000D01*
X150085714Y-41969285D01*
X150142857Y-41969285D01*
X150285714Y-41969285D02*
X150428571Y-42469285D01*
X150571428Y-41969285D01*
X136557142Y-66303571D02*
X136614285Y-66339285D01*
X136728571Y-66339285D01*
X136785714Y-66303571D01*
X136814285Y-66232142D01*
X136814285Y-66196428D01*
X136785714Y-66125000D01*
X136728571Y-66089285D01*
X136642857Y-66089285D01*
X136585714Y-66053571D01*
X136557142Y-65982142D01*
X136557142Y-65946428D01*
X136585714Y-65875000D01*
X136642857Y-65839285D01*
X136728571Y-65839285D01*
X136785714Y-65875000D01*
X137071428Y-66339285D02*
X137071428Y-65839285D01*
X137071428Y-65982142D02*
X137100000Y-65910714D01*
X137128571Y-65875000D01*
X137185714Y-65839285D01*
X137242857Y-65839285D01*
X137385714Y-65839285D02*
X137528571Y-66339285D01*
X137671428Y-65839285D01*
X137757142Y-66410714D02*
X138214285Y-66410714D01*
X138442857Y-66339285D02*
X138385714Y-66303571D01*
X138357142Y-66232142D01*
X138357142Y-65589285D01*
X138900000Y-66303571D02*
X138842857Y-66339285D01*
X138728571Y-66339285D01*
X138671428Y-66303571D01*
X138642857Y-66232142D01*
X138642857Y-65946428D01*
X138671428Y-65875000D01*
X138728571Y-65839285D01*
X138842857Y-65839285D01*
X138900000Y-65875000D01*
X138928571Y-65946428D01*
X138928571Y-66017857D01*
X138642857Y-66089285D01*
X139442857Y-66339285D02*
X139442857Y-65589285D01*
X139442857Y-66303571D02*
X139385714Y-66339285D01*
X139271428Y-66339285D01*
X139214285Y-66303571D01*
X139185714Y-66267857D01*
X139157142Y-66196428D01*
X139157142Y-65982142D01*
X139185714Y-65910714D01*
X139214285Y-65875000D01*
X139271428Y-65839285D01*
X139385714Y-65839285D01*
X139442857Y-65875000D01*
X139728571Y-66267857D02*
X139757142Y-66303571D01*
X139728571Y-66339285D01*
X139700000Y-66303571D01*
X139728571Y-66267857D01*
X139728571Y-66339285D01*
X140014285Y-65839285D02*
X140014285Y-66589285D01*
X140014285Y-65875000D02*
X140071428Y-65839285D01*
X140185714Y-65839285D01*
X140242857Y-65875000D01*
X140271428Y-65910714D01*
X140300000Y-65982142D01*
X140300000Y-66196428D01*
X140271428Y-66267857D01*
X140242857Y-66303571D01*
X140185714Y-66339285D01*
X140071428Y-66339285D01*
X140014285Y-66303571D01*
X140814285Y-66339285D02*
X140814285Y-65946428D01*
X140785714Y-65875000D01*
X140728571Y-65839285D01*
X140614285Y-65839285D01*
X140557142Y-65875000D01*
X140814285Y-66303571D02*
X140757142Y-66339285D01*
X140614285Y-66339285D01*
X140557142Y-66303571D01*
X140528571Y-66232142D01*
X140528571Y-66160714D01*
X140557142Y-66089285D01*
X140614285Y-66053571D01*
X140757142Y-66053571D01*
X140814285Y-66017857D01*
X141357142Y-66303571D02*
X141300000Y-66339285D01*
X141185714Y-66339285D01*
X141128571Y-66303571D01*
X141100000Y-66267857D01*
X141071428Y-66196428D01*
X141071428Y-65982142D01*
X141100000Y-65910714D01*
X141128571Y-65875000D01*
X141185714Y-65839285D01*
X141300000Y-65839285D01*
X141357142Y-65875000D01*
X141614285Y-66339285D02*
X141614285Y-65589285D01*
X141671428Y-66053571D02*
X141842857Y-66339285D01*
X141842857Y-65839285D02*
X141614285Y-66125000D01*
X142357142Y-66339285D02*
X142357142Y-65946428D01*
X142328571Y-65875000D01*
X142271428Y-65839285D01*
X142157142Y-65839285D01*
X142100000Y-65875000D01*
X142357142Y-66303571D02*
X142300000Y-66339285D01*
X142157142Y-66339285D01*
X142100000Y-66303571D01*
X142071428Y-66232142D01*
X142071428Y-66160714D01*
X142100000Y-66089285D01*
X142157142Y-66053571D01*
X142300000Y-66053571D01*
X142357142Y-66017857D01*
X142900000Y-65839285D02*
X142900000Y-66446428D01*
X142871428Y-66517857D01*
X142842857Y-66553571D01*
X142785714Y-66589285D01*
X142700000Y-66589285D01*
X142642857Y-66553571D01*
X142900000Y-66303571D02*
X142842857Y-66339285D01*
X142728571Y-66339285D01*
X142671428Y-66303571D01*
X142642857Y-66267857D01*
X142614285Y-66196428D01*
X142614285Y-65982142D01*
X142642857Y-65910714D01*
X142671428Y-65875000D01*
X142728571Y-65839285D01*
X142842857Y-65839285D01*
X142900000Y-65875000D01*
X143414285Y-66303571D02*
X143357142Y-66339285D01*
X143242857Y-66339285D01*
X143185714Y-66303571D01*
X143157142Y-66232142D01*
X143157142Y-65946428D01*
X143185714Y-65875000D01*
X143242857Y-65839285D01*
X143357142Y-65839285D01*
X143414285Y-65875000D01*
X143442857Y-65946428D01*
X143442857Y-66017857D01*
X143157142Y-66089285D01*
D12*
X143852380Y-87404761D02*
X143185714Y-87404761D01*
X143376190Y-87404761D02*
X143280952Y-87357142D01*
X143233333Y-87309523D01*
X143185714Y-87214285D01*
X143185714Y-87119047D01*
X143804761Y-86404761D02*
X143852380Y-86500000D01*
X143852380Y-86690476D01*
X143804761Y-86785714D01*
X143709523Y-86833333D01*
X143328571Y-86833333D01*
X143233333Y-86785714D01*
X143185714Y-86690476D01*
X143185714Y-86500000D01*
X143233333Y-86404761D01*
X143328571Y-86357142D01*
X143423809Y-86357142D01*
X143519047Y-86833333D01*
X143185714Y-85500000D02*
X143995238Y-85500000D01*
X144090476Y-85547619D01*
X144138095Y-85595238D01*
X144185714Y-85690476D01*
X144185714Y-85833333D01*
X144138095Y-85928571D01*
X143804761Y-85500000D02*
X143852380Y-85595238D01*
X143852380Y-85785714D01*
X143804761Y-85880952D01*
X143757142Y-85928571D01*
X143661904Y-85976190D01*
X143376190Y-85976190D01*
X143280952Y-85928571D01*
X143233333Y-85880952D01*
X143185714Y-85785714D01*
X143185714Y-85595238D01*
X143233333Y-85500000D01*
X143947619Y-85261904D02*
X143947619Y-84500000D01*
X143852380Y-84261904D02*
X142852380Y-84261904D01*
X143233333Y-84261904D02*
X143185714Y-84166666D01*
X143185714Y-83976190D01*
X143233333Y-83880952D01*
X143280952Y-83833333D01*
X143376190Y-83785714D01*
X143661904Y-83785714D01*
X143757142Y-83833333D01*
X143804761Y-83880952D01*
X143852380Y-83976190D01*
X143852380Y-84166666D01*
X143804761Y-84261904D01*
X143852380Y-83357142D02*
X142852380Y-83357142D01*
X143233333Y-83357142D02*
X143185714Y-83261904D01*
X143185714Y-83071428D01*
X143233333Y-82976190D01*
X143280952Y-82928571D01*
X143376190Y-82880952D01*
X143661904Y-82880952D01*
X143757142Y-82928571D01*
X143804761Y-82976190D01*
X143852380Y-83071428D01*
X143852380Y-83261904D01*
X143804761Y-83357142D01*
X143852380Y-82309523D02*
X143804761Y-82404761D01*
X143709523Y-82452380D01*
X142852380Y-82452380D01*
X143757142Y-81928571D02*
X143804761Y-81880952D01*
X143852380Y-81928571D01*
X143804761Y-81976190D01*
X143757142Y-81928571D01*
X143852380Y-81928571D01*
X143852380Y-81452380D02*
X143185714Y-81452380D01*
X142852380Y-81452380D02*
X142900000Y-81500000D01*
X142947619Y-81452380D01*
X142900000Y-81404761D01*
X142852380Y-81452380D01*
X142947619Y-81452380D01*
X143804761Y-80547619D02*
X143852380Y-80642857D01*
X143852380Y-80833333D01*
X143804761Y-80928571D01*
X143757142Y-80976190D01*
X143661904Y-81023809D01*
X143376190Y-81023809D01*
X143280952Y-80976190D01*
X143233333Y-80928571D01*
X143185714Y-80833333D01*
X143185714Y-80642857D01*
X143233333Y-80547619D01*
X143852380Y-62333333D02*
X143185714Y-62333333D01*
X143376190Y-62333333D02*
X143280952Y-62285714D01*
X143233333Y-62238095D01*
X143185714Y-62142857D01*
X143185714Y-62047619D01*
X143804761Y-61333333D02*
X143852380Y-61428571D01*
X143852380Y-61619047D01*
X143804761Y-61714285D01*
X143709523Y-61761904D01*
X143328571Y-61761904D01*
X143233333Y-61714285D01*
X143185714Y-61619047D01*
X143185714Y-61428571D01*
X143233333Y-61333333D01*
X143328571Y-61285714D01*
X143423809Y-61285714D01*
X143519047Y-61761904D01*
X143185714Y-60428571D02*
X143995238Y-60428571D01*
X144090476Y-60476190D01*
X144138095Y-60523809D01*
X144185714Y-60619047D01*
X144185714Y-60761904D01*
X144138095Y-60857142D01*
X143804761Y-60428571D02*
X143852380Y-60523809D01*
X143852380Y-60714285D01*
X143804761Y-60809523D01*
X143757142Y-60857142D01*
X143661904Y-60904761D01*
X143376190Y-60904761D01*
X143280952Y-60857142D01*
X143233333Y-60809523D01*
X143185714Y-60714285D01*
X143185714Y-60523809D01*
X143233333Y-60428571D01*
X143947619Y-60190476D02*
X143947619Y-59428571D01*
X143804761Y-59238095D02*
X143852380Y-59142857D01*
X143852380Y-58952380D01*
X143804761Y-58857142D01*
X143709523Y-58809523D01*
X143661904Y-58809523D01*
X143566666Y-58857142D01*
X143519047Y-58952380D01*
X143519047Y-59095238D01*
X143471428Y-59190476D01*
X143376190Y-59238095D01*
X143328571Y-59238095D01*
X143233333Y-59190476D01*
X143185714Y-59095238D01*
X143185714Y-58952380D01*
X143233333Y-58857142D01*
X143852380Y-58380952D02*
X143185714Y-58380952D01*
X143376190Y-58380952D02*
X143280952Y-58333333D01*
X143233333Y-58285714D01*
X143185714Y-58190476D01*
X143185714Y-58095238D01*
X143185714Y-57857142D02*
X143852380Y-57619047D01*
X143185714Y-57380952D01*
X143757142Y-57000000D02*
X143804761Y-56952380D01*
X143852380Y-57000000D01*
X143804761Y-57047619D01*
X143757142Y-57000000D01*
X143852380Y-57000000D01*
X143852380Y-56523809D02*
X143185714Y-56523809D01*
X142852380Y-56523809D02*
X142900000Y-56571428D01*
X142947619Y-56523809D01*
X142900000Y-56476190D01*
X142852380Y-56523809D01*
X142947619Y-56523809D01*
X143804761Y-55619047D02*
X143852380Y-55714285D01*
X143852380Y-55904761D01*
X143804761Y-56000000D01*
X143757142Y-56047619D01*
X143661904Y-56095238D01*
X143376190Y-56095238D01*
X143280952Y-56047619D01*
X143233333Y-56000000D01*
X143185714Y-55904761D01*
X143185714Y-55714285D01*
X143233333Y-55619047D01*
M02*
