G04 #@! TF.GenerationSoftware,KiCad,Pcbnew,(5.1.2)-1*
G04 #@! TF.CreationDate,2019-12-27T14:53:11-08:00*
G04 #@! TF.ProjectId,design,64657369-676e-42e6-9b69-6361645f7063,rev?*
G04 #@! TF.SameCoordinates,Original*
G04 #@! TF.FileFunction,Soldermask,Top*
G04 #@! TF.FilePolarity,Negative*
%FSLAX46Y46*%
G04 Gerber Fmt 4.6, Leading zero omitted, Abs format (unit mm)*
G04 Created by KiCad (PCBNEW (5.1.2)-1) date 2019-12-27 14:53:11*
%MOMM*%
%LPD*%
G04 APERTURE LIST*
%ADD10C,2.500000*%
%ADD11C,0.700000*%
%ADD12C,1.500000*%
%ADD13C,0.100000*%
G04 APERTURE END LIST*
D10*
X165250000Y-94000000D02*
G75*
G03X165250000Y-94000000I-1250000J0D01*
G01*
D11*
X155000000Y-92000000D02*
G75*
G03X155000000Y-92000000I-250000J0D01*
G01*
X156500000Y-92000000D02*
G75*
G03X156500000Y-92000000I-250000J0D01*
G01*
X158000000Y-92000000D02*
G75*
G03X158000000Y-92000000I-250000J0D01*
G01*
X159500000Y-92000000D02*
G75*
G03X159500000Y-92000000I-250000J0D01*
G01*
D12*
X156250000Y-95000000D02*
G75*
G03X156250000Y-95000000I-500000J0D01*
G01*
X158750000Y-95000000D02*
G75*
G03X158750000Y-95000000I-500000J0D01*
G01*
D13*
G36*
X180376000Y-96451000D02*
G01*
X170874000Y-96451000D01*
X170874000Y-85549000D01*
X180376000Y-85549000D01*
X180376000Y-96451000D01*
X180376000Y-96451000D01*
G37*
G36*
X187126000Y-94141000D02*
G01*
X182424000Y-94141000D01*
X182424000Y-92939000D01*
X187126000Y-92939000D01*
X187126000Y-94141000D01*
X187126000Y-94141000D01*
G37*
G36*
X130883600Y-92102989D02*
G01*
X130916652Y-92113015D01*
X130947103Y-92129292D01*
X130973799Y-92151201D01*
X130995708Y-92177897D01*
X131011985Y-92208348D01*
X131022011Y-92241400D01*
X131026000Y-92281903D01*
X131026000Y-93718097D01*
X131022011Y-93758600D01*
X131011985Y-93791652D01*
X130995708Y-93822103D01*
X130973799Y-93848799D01*
X130947103Y-93870708D01*
X130916652Y-93886985D01*
X130883600Y-93897011D01*
X130843097Y-93901000D01*
X129156903Y-93901000D01*
X129116400Y-93897011D01*
X129083348Y-93886985D01*
X129052897Y-93870708D01*
X129026201Y-93848799D01*
X129004292Y-93822103D01*
X128988015Y-93791652D01*
X128977989Y-93758600D01*
X128974000Y-93718097D01*
X128974000Y-92281903D01*
X128977989Y-92241400D01*
X128988015Y-92208348D01*
X129004292Y-92177897D01*
X129026201Y-92151201D01*
X129052897Y-92129292D01*
X129083348Y-92113015D01*
X129116400Y-92102989D01*
X129156903Y-92099000D01*
X130843097Y-92099000D01*
X130883600Y-92102989D01*
X130883600Y-92102989D01*
G37*
G36*
X130235442Y-89605518D02*
G01*
X130301627Y-89612037D01*
X130471466Y-89663557D01*
X130627991Y-89747222D01*
X130632594Y-89751000D01*
X130765186Y-89859814D01*
X130848448Y-89961271D01*
X130877778Y-89997009D01*
X130961443Y-90153534D01*
X131012963Y-90323373D01*
X131030359Y-90500000D01*
X131012963Y-90676627D01*
X130961443Y-90846466D01*
X130877778Y-91002991D01*
X130848448Y-91038729D01*
X130765186Y-91140186D01*
X130663729Y-91223448D01*
X130627991Y-91252778D01*
X130471466Y-91336443D01*
X130301627Y-91387963D01*
X130235442Y-91394482D01*
X130169260Y-91401000D01*
X129830740Y-91401000D01*
X129764558Y-91394482D01*
X129698373Y-91387963D01*
X129528534Y-91336443D01*
X129372009Y-91252778D01*
X129336271Y-91223448D01*
X129234814Y-91140186D01*
X129151552Y-91038729D01*
X129122222Y-91002991D01*
X129038557Y-90846466D01*
X128987037Y-90676627D01*
X128969641Y-90500000D01*
X128987037Y-90323373D01*
X129038557Y-90153534D01*
X129122222Y-89997009D01*
X129151552Y-89961271D01*
X129234814Y-89859814D01*
X129367406Y-89751000D01*
X129372009Y-89747222D01*
X129528534Y-89663557D01*
X129698373Y-89612037D01*
X129764558Y-89605518D01*
X129830740Y-89599000D01*
X130169260Y-89599000D01*
X130235442Y-89605518D01*
X130235442Y-89605518D01*
G37*
G36*
X141129591Y-89478085D02*
G01*
X141163569Y-89488393D01*
X141194890Y-89505134D01*
X141222339Y-89527661D01*
X141244866Y-89555110D01*
X141261607Y-89586431D01*
X141271915Y-89620409D01*
X141276000Y-89661890D01*
X141276000Y-90338110D01*
X141271915Y-90379591D01*
X141261607Y-90413569D01*
X141244866Y-90444890D01*
X141222339Y-90472339D01*
X141194890Y-90494866D01*
X141163569Y-90511607D01*
X141129591Y-90521915D01*
X141088110Y-90526000D01*
X140486890Y-90526000D01*
X140445409Y-90521915D01*
X140411431Y-90511607D01*
X140380110Y-90494866D01*
X140352661Y-90472339D01*
X140330134Y-90444890D01*
X140313393Y-90413569D01*
X140303085Y-90379591D01*
X140299000Y-90338110D01*
X140299000Y-89661890D01*
X140303085Y-89620409D01*
X140313393Y-89586431D01*
X140330134Y-89555110D01*
X140352661Y-89527661D01*
X140380110Y-89505134D01*
X140411431Y-89488393D01*
X140445409Y-89478085D01*
X140486890Y-89474000D01*
X141088110Y-89474000D01*
X141129591Y-89478085D01*
X141129591Y-89478085D01*
G37*
G36*
X139554591Y-89478085D02*
G01*
X139588569Y-89488393D01*
X139619890Y-89505134D01*
X139647339Y-89527661D01*
X139669866Y-89555110D01*
X139686607Y-89586431D01*
X139696915Y-89620409D01*
X139701000Y-89661890D01*
X139701000Y-90338110D01*
X139696915Y-90379591D01*
X139686607Y-90413569D01*
X139669866Y-90444890D01*
X139647339Y-90472339D01*
X139619890Y-90494866D01*
X139588569Y-90511607D01*
X139554591Y-90521915D01*
X139513110Y-90526000D01*
X138911890Y-90526000D01*
X138870409Y-90521915D01*
X138836431Y-90511607D01*
X138805110Y-90494866D01*
X138777661Y-90472339D01*
X138755134Y-90444890D01*
X138738393Y-90413569D01*
X138728085Y-90379591D01*
X138724000Y-90338110D01*
X138724000Y-89661890D01*
X138728085Y-89620409D01*
X138738393Y-89586431D01*
X138755134Y-89555110D01*
X138777661Y-89527661D01*
X138805110Y-89505134D01*
X138836431Y-89488393D01*
X138870409Y-89478085D01*
X138911890Y-89474000D01*
X139513110Y-89474000D01*
X139554591Y-89478085D01*
X139554591Y-89478085D01*
G37*
G36*
X152701000Y-90501000D02*
G01*
X147299000Y-90501000D01*
X147299000Y-87599000D01*
X152701000Y-87599000D01*
X152701000Y-90501000D01*
X152701000Y-90501000D01*
G37*
G36*
X197892263Y-85777953D02*
G01*
X198269457Y-85892374D01*
X198581399Y-86059111D01*
X198617075Y-86078180D01*
X198696446Y-86143318D01*
X198921767Y-86328233D01*
X199106682Y-86553554D01*
X199171820Y-86632925D01*
X199171821Y-86632927D01*
X199357626Y-86980543D01*
X199472047Y-87357737D01*
X199510681Y-87750000D01*
X199472047Y-88142263D01*
X199357626Y-88519457D01*
X199209810Y-88796000D01*
X199171820Y-88867075D01*
X199143978Y-88901000D01*
X198921767Y-89171767D01*
X198696446Y-89356682D01*
X198617075Y-89421820D01*
X198617073Y-89421821D01*
X198269457Y-89607626D01*
X197892263Y-89722047D01*
X197598296Y-89751000D01*
X197401704Y-89751000D01*
X197107737Y-89722047D01*
X196730543Y-89607626D01*
X196382927Y-89421821D01*
X196382925Y-89421820D01*
X196303554Y-89356682D01*
X196078233Y-89171767D01*
X195856022Y-88901000D01*
X195828180Y-88867075D01*
X195790190Y-88796000D01*
X195642374Y-88519457D01*
X195527953Y-88142263D01*
X195489319Y-87750000D01*
X195527953Y-87357737D01*
X195642374Y-86980543D01*
X195828179Y-86632927D01*
X195828180Y-86632925D01*
X195893318Y-86553554D01*
X196078233Y-86328233D01*
X196303554Y-86143318D01*
X196382925Y-86078180D01*
X196418601Y-86059111D01*
X196730543Y-85892374D01*
X197107737Y-85777953D01*
X197401704Y-85749000D01*
X197598296Y-85749000D01*
X197892263Y-85777953D01*
X197892263Y-85777953D01*
G37*
G36*
X192892263Y-85777953D02*
G01*
X193269457Y-85892374D01*
X193581399Y-86059111D01*
X193617075Y-86078180D01*
X193696446Y-86143318D01*
X193921767Y-86328233D01*
X194106682Y-86553554D01*
X194171820Y-86632925D01*
X194171821Y-86632927D01*
X194357626Y-86980543D01*
X194472047Y-87357737D01*
X194510681Y-87750000D01*
X194472047Y-88142263D01*
X194357626Y-88519457D01*
X194209810Y-88796000D01*
X194171820Y-88867075D01*
X194143978Y-88901000D01*
X193921767Y-89171767D01*
X193696446Y-89356682D01*
X193617075Y-89421820D01*
X193617073Y-89421821D01*
X193269457Y-89607626D01*
X192892263Y-89722047D01*
X192598296Y-89751000D01*
X192401704Y-89751000D01*
X192107737Y-89722047D01*
X191730543Y-89607626D01*
X191382927Y-89421821D01*
X191382925Y-89421820D01*
X191303554Y-89356682D01*
X191078233Y-89171767D01*
X190856022Y-88901000D01*
X190828180Y-88867075D01*
X190790190Y-88796000D01*
X190642374Y-88519457D01*
X190527953Y-88142263D01*
X190489319Y-87750000D01*
X190527953Y-87357737D01*
X190642374Y-86980543D01*
X190828179Y-86632927D01*
X190828180Y-86632925D01*
X190893318Y-86553554D01*
X191078233Y-86328233D01*
X191303554Y-86143318D01*
X191382925Y-86078180D01*
X191418601Y-86059111D01*
X191730543Y-85892374D01*
X192107737Y-85777953D01*
X192401704Y-85749000D01*
X192598296Y-85749000D01*
X192892263Y-85777953D01*
X192892263Y-85777953D01*
G37*
G36*
X187126000Y-89061000D02*
G01*
X182424000Y-89061000D01*
X182424000Y-87859000D01*
X187126000Y-87859000D01*
X187126000Y-89061000D01*
X187126000Y-89061000D01*
G37*
G36*
X130235443Y-87105519D02*
G01*
X130301627Y-87112037D01*
X130471466Y-87163557D01*
X130627991Y-87247222D01*
X130663729Y-87276552D01*
X130765186Y-87359814D01*
X130823613Y-87431009D01*
X130877778Y-87497009D01*
X130961443Y-87653534D01*
X131012963Y-87823373D01*
X131030359Y-88000000D01*
X131012963Y-88176627D01*
X130961443Y-88346466D01*
X130877778Y-88502991D01*
X130848448Y-88538729D01*
X130765186Y-88640186D01*
X130663729Y-88723448D01*
X130627991Y-88752778D01*
X130471466Y-88836443D01*
X130301627Y-88887963D01*
X130235442Y-88894482D01*
X130169260Y-88901000D01*
X129830740Y-88901000D01*
X129764558Y-88894482D01*
X129698373Y-88887963D01*
X129528534Y-88836443D01*
X129372009Y-88752778D01*
X129336271Y-88723448D01*
X129234814Y-88640186D01*
X129151552Y-88538729D01*
X129122222Y-88502991D01*
X129038557Y-88346466D01*
X128987037Y-88176627D01*
X128969641Y-88000000D01*
X128987037Y-87823373D01*
X129038557Y-87653534D01*
X129122222Y-87497009D01*
X129176387Y-87431009D01*
X129234814Y-87359814D01*
X129336271Y-87276552D01*
X129372009Y-87247222D01*
X129528534Y-87163557D01*
X129698373Y-87112037D01*
X129764557Y-87105519D01*
X129830740Y-87099000D01*
X130169260Y-87099000D01*
X130235443Y-87105519D01*
X130235443Y-87105519D01*
G37*
G36*
X162101000Y-88796000D02*
G01*
X160499000Y-88796000D01*
X160499000Y-88094000D01*
X162101000Y-88094000D01*
X162101000Y-88796000D01*
X162101000Y-88796000D01*
G37*
G36*
X167501000Y-88796000D02*
G01*
X165899000Y-88796000D01*
X165899000Y-88094000D01*
X167501000Y-88094000D01*
X167501000Y-88796000D01*
X167501000Y-88796000D01*
G37*
G36*
X162101000Y-87526000D02*
G01*
X160499000Y-87526000D01*
X160499000Y-86824000D01*
X162101000Y-86824000D01*
X162101000Y-87526000D01*
X162101000Y-87526000D01*
G37*
G36*
X167501000Y-87526000D02*
G01*
X165899000Y-87526000D01*
X165899000Y-86824000D01*
X167501000Y-86824000D01*
X167501000Y-87526000D01*
X167501000Y-87526000D01*
G37*
G36*
X138354928Y-85626764D02*
G01*
X138376009Y-85633160D01*
X138395445Y-85643548D01*
X138412476Y-85657524D01*
X138426452Y-85674555D01*
X138436840Y-85693991D01*
X138443236Y-85715072D01*
X138446000Y-85743140D01*
X138446000Y-87381860D01*
X138443236Y-87409928D01*
X138436840Y-87431009D01*
X138426452Y-87450445D01*
X138412476Y-87467476D01*
X138395445Y-87481452D01*
X138376009Y-87491840D01*
X138354928Y-87498236D01*
X138326860Y-87501000D01*
X137863140Y-87501000D01*
X137835072Y-87498236D01*
X137813991Y-87491840D01*
X137794555Y-87481452D01*
X137777524Y-87467476D01*
X137763548Y-87450445D01*
X137753160Y-87431009D01*
X137746764Y-87409928D01*
X137744000Y-87381860D01*
X137744000Y-85743140D01*
X137746764Y-85715072D01*
X137753160Y-85693991D01*
X137763548Y-85674555D01*
X137777524Y-85657524D01*
X137794555Y-85643548D01*
X137813991Y-85633160D01*
X137835072Y-85626764D01*
X137863140Y-85624000D01*
X138326860Y-85624000D01*
X138354928Y-85626764D01*
X138354928Y-85626764D01*
G37*
G36*
X139624928Y-80501764D02*
G01*
X139646009Y-80508160D01*
X139665445Y-80518548D01*
X139682476Y-80532524D01*
X139696452Y-80549555D01*
X139706840Y-80568991D01*
X139713236Y-80590072D01*
X139716000Y-80618140D01*
X139716000Y-82256860D01*
X139713236Y-82284928D01*
X139706841Y-82306008D01*
X139698708Y-82321223D01*
X139689331Y-82343862D01*
X139684550Y-82367895D01*
X139684550Y-82392399D01*
X139689330Y-82416432D01*
X139698707Y-82439071D01*
X139712321Y-82459446D01*
X139729648Y-82476773D01*
X139750022Y-82490387D01*
X139772661Y-82499764D01*
X139796694Y-82504545D01*
X139833331Y-82502746D01*
X139838627Y-82501693D01*
X139852164Y-82499000D01*
X140147836Y-82499000D01*
X140161373Y-82501693D01*
X140166669Y-82502746D01*
X140191055Y-82505147D01*
X140215441Y-82502745D01*
X140238890Y-82495631D01*
X140260501Y-82484080D01*
X140279442Y-82468534D01*
X140294987Y-82449592D01*
X140306538Y-82427981D01*
X140313651Y-82404532D01*
X140316052Y-82380146D01*
X140313650Y-82355760D01*
X140301292Y-82321223D01*
X140293159Y-82306008D01*
X140286764Y-82284928D01*
X140284000Y-82256860D01*
X140284000Y-80618140D01*
X140286764Y-80590072D01*
X140293160Y-80568991D01*
X140303548Y-80549555D01*
X140317524Y-80532524D01*
X140334555Y-80518548D01*
X140353991Y-80508160D01*
X140375072Y-80501764D01*
X140403140Y-80499000D01*
X140866860Y-80499000D01*
X140894928Y-80501764D01*
X140916009Y-80508160D01*
X140935445Y-80518548D01*
X140952476Y-80532524D01*
X140966452Y-80549555D01*
X140976840Y-80568991D01*
X140983236Y-80590072D01*
X140986000Y-80618140D01*
X140986000Y-82256860D01*
X140983236Y-82284928D01*
X140976840Y-82306009D01*
X140966452Y-82325445D01*
X140952476Y-82342476D01*
X140935445Y-82356452D01*
X140916009Y-82366840D01*
X140894928Y-82373236D01*
X140866860Y-82376000D01*
X140630033Y-82376000D01*
X140605647Y-82378402D01*
X140582198Y-82385515D01*
X140560587Y-82397066D01*
X140541645Y-82412611D01*
X140526100Y-82431553D01*
X140514549Y-82453164D01*
X140507436Y-82476613D01*
X140505034Y-82500999D01*
X140507436Y-82525385D01*
X140514549Y-82548834D01*
X140526100Y-82570445D01*
X140541645Y-82589387D01*
X140560587Y-82604932D01*
X140582198Y-82616483D01*
X140628073Y-82635485D01*
X140651522Y-82642598D01*
X140675908Y-82645000D01*
X141545797Y-82645000D01*
X141580706Y-82648438D01*
X141608365Y-82656829D01*
X141633862Y-82670457D01*
X141656206Y-82688794D01*
X141674543Y-82711138D01*
X141688171Y-82736635D01*
X141696562Y-82764294D01*
X141700000Y-82799203D01*
X141700000Y-85200797D01*
X141696562Y-85235706D01*
X141688171Y-85263365D01*
X141674543Y-85288862D01*
X141656206Y-85311206D01*
X141633862Y-85329543D01*
X141608365Y-85343171D01*
X141580706Y-85351562D01*
X141545797Y-85355000D01*
X140675908Y-85355000D01*
X140651522Y-85357402D01*
X140628073Y-85364515D01*
X140582198Y-85383517D01*
X140560587Y-85395068D01*
X140541645Y-85410613D01*
X140526100Y-85429555D01*
X140514549Y-85451166D01*
X140507436Y-85474615D01*
X140505034Y-85499001D01*
X140507436Y-85523387D01*
X140514549Y-85546836D01*
X140526100Y-85568447D01*
X140541645Y-85587389D01*
X140560587Y-85602934D01*
X140582198Y-85614485D01*
X140605647Y-85621598D01*
X140630033Y-85624000D01*
X140866860Y-85624000D01*
X140894928Y-85626764D01*
X140916009Y-85633160D01*
X140935445Y-85643548D01*
X140952476Y-85657524D01*
X140966452Y-85674555D01*
X140976840Y-85693991D01*
X140983236Y-85715072D01*
X140986000Y-85743140D01*
X140986000Y-87381860D01*
X140983236Y-87409928D01*
X140976840Y-87431009D01*
X140966452Y-87450445D01*
X140952476Y-87467476D01*
X140935445Y-87481452D01*
X140916009Y-87491840D01*
X140894928Y-87498236D01*
X140866860Y-87501000D01*
X140403140Y-87501000D01*
X140375072Y-87498236D01*
X140353991Y-87491840D01*
X140334555Y-87481452D01*
X140317524Y-87467476D01*
X140303548Y-87450445D01*
X140293160Y-87431009D01*
X140286764Y-87409928D01*
X140284000Y-87381860D01*
X140284000Y-85743140D01*
X140286764Y-85715072D01*
X140293159Y-85693992D01*
X140301292Y-85678777D01*
X140310669Y-85656138D01*
X140315450Y-85632105D01*
X140315450Y-85607601D01*
X140310670Y-85583568D01*
X140301293Y-85560929D01*
X140287679Y-85540554D01*
X140270352Y-85523227D01*
X140249978Y-85509613D01*
X140227339Y-85500236D01*
X140203306Y-85495455D01*
X140166668Y-85497254D01*
X140147836Y-85501000D01*
X139852164Y-85501000D01*
X139833332Y-85497254D01*
X139808945Y-85494853D01*
X139784559Y-85497255D01*
X139761110Y-85504369D01*
X139739499Y-85515920D01*
X139720558Y-85531466D01*
X139705013Y-85550408D01*
X139693462Y-85572019D01*
X139686349Y-85595468D01*
X139683948Y-85619854D01*
X139686350Y-85644240D01*
X139698708Y-85678777D01*
X139706841Y-85693992D01*
X139713236Y-85715072D01*
X139716000Y-85743140D01*
X139716000Y-87381860D01*
X139713236Y-87409928D01*
X139706840Y-87431009D01*
X139696452Y-87450445D01*
X139682476Y-87467476D01*
X139665445Y-87481452D01*
X139646009Y-87491840D01*
X139624928Y-87498236D01*
X139596860Y-87501000D01*
X139133140Y-87501000D01*
X139105072Y-87498236D01*
X139083991Y-87491840D01*
X139064555Y-87481452D01*
X139047524Y-87467476D01*
X139033548Y-87450445D01*
X139023160Y-87431009D01*
X139016764Y-87409928D01*
X139014000Y-87381860D01*
X139014000Y-85743140D01*
X139016764Y-85715072D01*
X139023160Y-85693991D01*
X139033548Y-85674555D01*
X139047524Y-85657524D01*
X139064555Y-85643548D01*
X139083991Y-85633160D01*
X139105072Y-85626764D01*
X139133140Y-85624000D01*
X139369967Y-85624000D01*
X139394353Y-85621598D01*
X139417802Y-85614485D01*
X139439413Y-85602934D01*
X139458355Y-85587389D01*
X139473900Y-85568447D01*
X139485451Y-85546836D01*
X139492564Y-85523387D01*
X139494966Y-85499001D01*
X139492564Y-85474615D01*
X139485451Y-85451166D01*
X139473900Y-85429555D01*
X139458355Y-85410613D01*
X139439413Y-85395068D01*
X139417802Y-85383517D01*
X139371927Y-85364515D01*
X139348478Y-85357402D01*
X139324092Y-85355000D01*
X138454203Y-85355000D01*
X138419294Y-85351562D01*
X138391635Y-85343171D01*
X138366138Y-85329543D01*
X138343794Y-85311206D01*
X138325457Y-85288862D01*
X138311829Y-85263365D01*
X138303438Y-85235706D01*
X138300000Y-85200797D01*
X138300000Y-82799203D01*
X138303438Y-82764294D01*
X138311829Y-82736635D01*
X138325457Y-82711138D01*
X138343794Y-82688794D01*
X138366138Y-82670457D01*
X138391635Y-82656829D01*
X138419294Y-82648438D01*
X138454203Y-82645000D01*
X139324092Y-82645000D01*
X139348478Y-82642598D01*
X139371927Y-82635485D01*
X139417802Y-82616483D01*
X139439413Y-82604932D01*
X139458355Y-82589387D01*
X139473900Y-82570445D01*
X139485451Y-82548834D01*
X139492564Y-82525385D01*
X139494966Y-82500999D01*
X139492564Y-82476613D01*
X139485451Y-82453164D01*
X139473900Y-82431553D01*
X139458355Y-82412611D01*
X139439413Y-82397066D01*
X139417802Y-82385515D01*
X139394353Y-82378402D01*
X139369967Y-82376000D01*
X139133140Y-82376000D01*
X139105072Y-82373236D01*
X139083991Y-82366840D01*
X139064555Y-82356452D01*
X139047524Y-82342476D01*
X139033548Y-82325445D01*
X139023160Y-82306009D01*
X139016764Y-82284928D01*
X139014000Y-82256860D01*
X139014000Y-80618140D01*
X139016764Y-80590072D01*
X139023160Y-80568991D01*
X139033548Y-80549555D01*
X139047524Y-80532524D01*
X139064555Y-80518548D01*
X139083991Y-80508160D01*
X139105072Y-80501764D01*
X139133140Y-80499000D01*
X139596860Y-80499000D01*
X139624928Y-80501764D01*
X139624928Y-80501764D01*
G37*
G36*
X142164928Y-85626764D02*
G01*
X142186009Y-85633160D01*
X142205445Y-85643548D01*
X142222476Y-85657524D01*
X142236452Y-85674555D01*
X142246840Y-85693991D01*
X142253236Y-85715072D01*
X142256000Y-85743140D01*
X142256000Y-87381860D01*
X142253236Y-87409928D01*
X142246840Y-87431009D01*
X142236452Y-87450445D01*
X142222476Y-87467476D01*
X142205445Y-87481452D01*
X142186009Y-87491840D01*
X142164928Y-87498236D01*
X142136860Y-87501000D01*
X141673140Y-87501000D01*
X141645072Y-87498236D01*
X141623991Y-87491840D01*
X141604555Y-87481452D01*
X141587524Y-87467476D01*
X141573548Y-87450445D01*
X141563160Y-87431009D01*
X141556764Y-87409928D01*
X141554000Y-87381860D01*
X141554000Y-85743140D01*
X141556764Y-85715072D01*
X141563160Y-85693991D01*
X141573548Y-85674555D01*
X141587524Y-85657524D01*
X141604555Y-85643548D01*
X141623991Y-85633160D01*
X141645072Y-85626764D01*
X141673140Y-85624000D01*
X142136860Y-85624000D01*
X142164928Y-85626764D01*
X142164928Y-85626764D01*
G37*
G36*
X162101000Y-86256000D02*
G01*
X160499000Y-86256000D01*
X160499000Y-85554000D01*
X162101000Y-85554000D01*
X162101000Y-86256000D01*
X162101000Y-86256000D01*
G37*
G36*
X167501000Y-86256000D02*
G01*
X165899000Y-86256000D01*
X165899000Y-85554000D01*
X167501000Y-85554000D01*
X167501000Y-86256000D01*
X167501000Y-86256000D01*
G37*
G36*
X167501000Y-84986000D02*
G01*
X165899000Y-84986000D01*
X165899000Y-84284000D01*
X167501000Y-84284000D01*
X167501000Y-84986000D01*
X167501000Y-84986000D01*
G37*
G36*
X162101000Y-84986000D02*
G01*
X160499000Y-84986000D01*
X160499000Y-84284000D01*
X162101000Y-84284000D01*
X162101000Y-84986000D01*
X162101000Y-84986000D01*
G37*
G36*
X133096228Y-82083483D02*
G01*
X133284922Y-82140723D01*
X133458815Y-82233671D01*
X133611239Y-82358761D01*
X133736329Y-82511185D01*
X133829277Y-82685078D01*
X133886517Y-82873772D01*
X133905843Y-83070000D01*
X133886517Y-83266228D01*
X133829277Y-83454922D01*
X133736329Y-83628815D01*
X133611239Y-83781239D01*
X133458815Y-83906329D01*
X133284922Y-83999277D01*
X133096228Y-84056517D01*
X132949175Y-84071000D01*
X131850825Y-84071000D01*
X131703772Y-84056517D01*
X131515078Y-83999277D01*
X131341185Y-83906329D01*
X131188761Y-83781239D01*
X131063671Y-83628815D01*
X130970723Y-83454922D01*
X130913483Y-83266228D01*
X130894157Y-83070000D01*
X130913483Y-82873772D01*
X130970723Y-82685078D01*
X131063671Y-82511185D01*
X131188761Y-82358761D01*
X131341185Y-82233671D01*
X131515078Y-82140723D01*
X131703772Y-82083483D01*
X131850825Y-82069000D01*
X132949175Y-82069000D01*
X133096228Y-82083483D01*
X133096228Y-82083483D01*
G37*
G36*
X162101000Y-83716000D02*
G01*
X160499000Y-83716000D01*
X160499000Y-83014000D01*
X162101000Y-83014000D01*
X162101000Y-83716000D01*
X162101000Y-83716000D01*
G37*
G36*
X167501000Y-83716000D02*
G01*
X165899000Y-83716000D01*
X165899000Y-83014000D01*
X167501000Y-83014000D01*
X167501000Y-83716000D01*
X167501000Y-83716000D01*
G37*
G36*
X187126000Y-82451000D02*
G01*
X177624000Y-82451000D01*
X177624000Y-71549000D01*
X187126000Y-71549000D01*
X187126000Y-82451000D01*
X187126000Y-82451000D01*
G37*
G36*
X162101000Y-82446000D02*
G01*
X160499000Y-82446000D01*
X160499000Y-81744000D01*
X162101000Y-81744000D01*
X162101000Y-82446000D01*
X162101000Y-82446000D01*
G37*
G36*
X167501000Y-82446000D02*
G01*
X165899000Y-82446000D01*
X165899000Y-81744000D01*
X167501000Y-81744000D01*
X167501000Y-82446000D01*
X167501000Y-82446000D01*
G37*
G36*
X142164928Y-80501764D02*
G01*
X142186009Y-80508160D01*
X142205445Y-80518548D01*
X142222476Y-80532524D01*
X142236452Y-80549555D01*
X142246840Y-80568991D01*
X142253236Y-80590072D01*
X142256000Y-80618140D01*
X142256000Y-82256860D01*
X142253236Y-82284928D01*
X142246840Y-82306009D01*
X142236452Y-82325445D01*
X142222476Y-82342476D01*
X142205445Y-82356452D01*
X142186009Y-82366840D01*
X142164928Y-82373236D01*
X142136860Y-82376000D01*
X141673140Y-82376000D01*
X141645072Y-82373236D01*
X141623991Y-82366840D01*
X141604555Y-82356452D01*
X141587524Y-82342476D01*
X141573548Y-82325445D01*
X141563160Y-82306009D01*
X141556764Y-82284928D01*
X141554000Y-82256860D01*
X141554000Y-80618140D01*
X141556764Y-80590072D01*
X141563160Y-80568991D01*
X141573548Y-80549555D01*
X141587524Y-80532524D01*
X141604555Y-80518548D01*
X141623991Y-80508160D01*
X141645072Y-80501764D01*
X141673140Y-80499000D01*
X142136860Y-80499000D01*
X142164928Y-80501764D01*
X142164928Y-80501764D01*
G37*
G36*
X138354928Y-80501764D02*
G01*
X138376009Y-80508160D01*
X138395445Y-80518548D01*
X138412476Y-80532524D01*
X138426452Y-80549555D01*
X138436840Y-80568991D01*
X138443236Y-80590072D01*
X138446000Y-80618140D01*
X138446000Y-82256860D01*
X138443236Y-82284928D01*
X138436840Y-82306009D01*
X138426452Y-82325445D01*
X138412476Y-82342476D01*
X138395445Y-82356452D01*
X138376009Y-82366840D01*
X138354928Y-82373236D01*
X138326860Y-82376000D01*
X137863140Y-82376000D01*
X137835072Y-82373236D01*
X137813991Y-82366840D01*
X137794555Y-82356452D01*
X137777524Y-82342476D01*
X137763548Y-82325445D01*
X137753160Y-82306009D01*
X137746764Y-82284928D01*
X137744000Y-82256860D01*
X137744000Y-80618140D01*
X137746764Y-80590072D01*
X137753160Y-80568991D01*
X137763548Y-80549555D01*
X137777524Y-80532524D01*
X137794555Y-80518548D01*
X137813991Y-80508160D01*
X137835072Y-80501764D01*
X137863140Y-80499000D01*
X138326860Y-80499000D01*
X138354928Y-80501764D01*
X138354928Y-80501764D01*
G37*
G36*
X197892263Y-78277953D02*
G01*
X198269457Y-78392374D01*
X198581399Y-78559111D01*
X198617075Y-78578180D01*
X198696446Y-78643318D01*
X198921767Y-78828233D01*
X199012670Y-78939000D01*
X199171820Y-79132925D01*
X199171821Y-79132927D01*
X199357626Y-79480543D01*
X199472047Y-79857737D01*
X199510681Y-80250000D01*
X199472047Y-80642263D01*
X199357626Y-81019457D01*
X199273952Y-81176000D01*
X199171820Y-81367075D01*
X199106682Y-81446446D01*
X198921767Y-81671767D01*
X198696446Y-81856682D01*
X198617075Y-81921820D01*
X198617073Y-81921821D01*
X198269457Y-82107626D01*
X197892263Y-82222047D01*
X197598296Y-82251000D01*
X197401704Y-82251000D01*
X197107737Y-82222047D01*
X196730543Y-82107626D01*
X196382927Y-81921821D01*
X196382925Y-81921820D01*
X196303554Y-81856682D01*
X196078233Y-81671767D01*
X195893318Y-81446446D01*
X195828180Y-81367075D01*
X195726048Y-81176000D01*
X195642374Y-81019457D01*
X195527953Y-80642263D01*
X195489319Y-80250000D01*
X195527953Y-79857737D01*
X195642374Y-79480543D01*
X195828179Y-79132927D01*
X195828180Y-79132925D01*
X195987330Y-78939000D01*
X196078233Y-78828233D01*
X196303554Y-78643318D01*
X196382925Y-78578180D01*
X196418601Y-78559111D01*
X196730543Y-78392374D01*
X197107737Y-78277953D01*
X197401704Y-78249000D01*
X197598296Y-78249000D01*
X197892263Y-78277953D01*
X197892263Y-78277953D01*
G37*
G36*
X192892263Y-78277953D02*
G01*
X193269457Y-78392374D01*
X193581399Y-78559111D01*
X193617075Y-78578180D01*
X193696446Y-78643318D01*
X193921767Y-78828233D01*
X194012670Y-78939000D01*
X194171820Y-79132925D01*
X194171821Y-79132927D01*
X194357626Y-79480543D01*
X194472047Y-79857737D01*
X194510681Y-80250000D01*
X194472047Y-80642263D01*
X194357626Y-81019457D01*
X194273952Y-81176000D01*
X194171820Y-81367075D01*
X194106682Y-81446446D01*
X193921767Y-81671767D01*
X193696446Y-81856682D01*
X193617075Y-81921820D01*
X193617073Y-81921821D01*
X193269457Y-82107626D01*
X192892263Y-82222047D01*
X192598296Y-82251000D01*
X192401704Y-82251000D01*
X192107737Y-82222047D01*
X191730543Y-82107626D01*
X191382927Y-81921821D01*
X191382925Y-81921820D01*
X191303554Y-81856682D01*
X191078233Y-81671767D01*
X190893318Y-81446446D01*
X190828180Y-81367075D01*
X190726048Y-81176000D01*
X190642374Y-81019457D01*
X190527953Y-80642263D01*
X190489319Y-80250000D01*
X190527953Y-79857737D01*
X190642374Y-79480543D01*
X190828179Y-79132927D01*
X190828180Y-79132925D01*
X190987330Y-78939000D01*
X191078233Y-78828233D01*
X191303554Y-78643318D01*
X191382925Y-78578180D01*
X191418601Y-78559111D01*
X191730543Y-78392374D01*
X192107737Y-78277953D01*
X192401704Y-78249000D01*
X192598296Y-78249000D01*
X192892263Y-78277953D01*
X192892263Y-78277953D01*
G37*
G36*
X167501000Y-81176000D02*
G01*
X165899000Y-81176000D01*
X165899000Y-80474000D01*
X167501000Y-80474000D01*
X167501000Y-81176000D01*
X167501000Y-81176000D01*
G37*
G36*
X162101000Y-81176000D02*
G01*
X160499000Y-81176000D01*
X160499000Y-80474000D01*
X162101000Y-80474000D01*
X162101000Y-81176000D01*
X162101000Y-81176000D01*
G37*
G36*
X133701000Y-80701000D02*
G01*
X132299000Y-80701000D01*
X132299000Y-79299000D01*
X133701000Y-79299000D01*
X133701000Y-80701000D01*
X133701000Y-80701000D01*
G37*
G36*
X152701000Y-80401000D02*
G01*
X147299000Y-80401000D01*
X147299000Y-77499000D01*
X152701000Y-77499000D01*
X152701000Y-80401000D01*
X152701000Y-80401000D01*
G37*
G36*
X175576000Y-80141000D02*
G01*
X170874000Y-80141000D01*
X170874000Y-78939000D01*
X175576000Y-78939000D01*
X175576000Y-80141000D01*
X175576000Y-80141000D01*
G37*
G36*
X167501000Y-79906000D02*
G01*
X165899000Y-79906000D01*
X165899000Y-79204000D01*
X167501000Y-79204000D01*
X167501000Y-79906000D01*
X167501000Y-79906000D01*
G37*
G36*
X162101000Y-79906000D02*
G01*
X160499000Y-79906000D01*
X160499000Y-79204000D01*
X162101000Y-79204000D01*
X162101000Y-79906000D01*
X162101000Y-79906000D01*
G37*
G36*
X133204473Y-76825938D02*
G01*
X133332049Y-76878782D01*
X133446859Y-76955495D01*
X133544505Y-77053141D01*
X133621218Y-77167951D01*
X133674062Y-77295527D01*
X133701000Y-77430956D01*
X133701000Y-77569044D01*
X133674062Y-77704473D01*
X133621218Y-77832049D01*
X133544505Y-77946859D01*
X133446859Y-78044505D01*
X133332049Y-78121218D01*
X133204473Y-78174062D01*
X133069044Y-78201000D01*
X132930956Y-78201000D01*
X132795527Y-78174062D01*
X132667951Y-78121218D01*
X132553141Y-78044505D01*
X132455495Y-77946859D01*
X132378782Y-77832049D01*
X132325938Y-77704473D01*
X132299000Y-77569044D01*
X132299000Y-77430956D01*
X132325938Y-77295527D01*
X132378782Y-77167951D01*
X132455495Y-77053141D01*
X132553141Y-76955495D01*
X132667951Y-76878782D01*
X132795527Y-76825938D01*
X132930956Y-76799000D01*
X133069044Y-76799000D01*
X133204473Y-76825938D01*
X133204473Y-76825938D01*
G37*
G36*
X128416228Y-75013483D02*
G01*
X128604922Y-75070723D01*
X128778815Y-75163671D01*
X128931239Y-75288761D01*
X129056329Y-75441185D01*
X129149277Y-75615078D01*
X129206517Y-75803772D01*
X129221000Y-75950825D01*
X129221000Y-77049175D01*
X129206517Y-77196228D01*
X129149277Y-77384922D01*
X129056329Y-77558815D01*
X128931239Y-77711239D01*
X128778815Y-77836329D01*
X128604921Y-77929277D01*
X128416227Y-77986517D01*
X128220000Y-78005843D01*
X128023772Y-77986517D01*
X127835078Y-77929277D01*
X127661185Y-77836329D01*
X127508761Y-77711239D01*
X127383671Y-77558815D01*
X127290723Y-77384921D01*
X127233483Y-77196227D01*
X127219000Y-77049174D01*
X127219000Y-75950825D01*
X127233483Y-75803769D01*
X127290722Y-75615081D01*
X127383672Y-75441185D01*
X127508762Y-75288761D01*
X127661186Y-75163671D01*
X127835079Y-75070723D01*
X128023773Y-75013483D01*
X128220000Y-74994157D01*
X128416228Y-75013483D01*
X128416228Y-75013483D01*
G37*
G36*
X133204473Y-74825938D02*
G01*
X133332049Y-74878782D01*
X133446859Y-74955495D01*
X133544505Y-75053141D01*
X133621218Y-75167951D01*
X133674062Y-75295527D01*
X133701000Y-75430956D01*
X133701000Y-75569044D01*
X133674062Y-75704473D01*
X133621218Y-75832049D01*
X133544505Y-75946859D01*
X133446859Y-76044505D01*
X133332049Y-76121218D01*
X133204473Y-76174062D01*
X133069044Y-76201000D01*
X132930956Y-76201000D01*
X132795527Y-76174062D01*
X132667951Y-76121218D01*
X132553141Y-76044505D01*
X132455495Y-75946859D01*
X132378782Y-75832049D01*
X132325938Y-75704473D01*
X132299000Y-75569044D01*
X132299000Y-75430956D01*
X132325938Y-75295527D01*
X132378782Y-75167951D01*
X132455495Y-75053141D01*
X132553141Y-74955495D01*
X132667951Y-74878782D01*
X132795527Y-74825938D01*
X132930956Y-74799000D01*
X133069044Y-74799000D01*
X133204473Y-74825938D01*
X133204473Y-74825938D01*
G37*
G36*
X175576000Y-75061000D02*
G01*
X170874000Y-75061000D01*
X170874000Y-73859000D01*
X175576000Y-73859000D01*
X175576000Y-75061000D01*
X175576000Y-75061000D01*
G37*
G36*
X133204473Y-72325938D02*
G01*
X133332049Y-72378782D01*
X133446859Y-72455495D01*
X133544505Y-72553141D01*
X133621218Y-72667951D01*
X133674062Y-72795527D01*
X133701000Y-72930956D01*
X133701000Y-73069044D01*
X133674062Y-73204473D01*
X133621218Y-73332049D01*
X133544505Y-73446859D01*
X133446859Y-73544505D01*
X133332049Y-73621218D01*
X133204473Y-73674062D01*
X133069044Y-73701000D01*
X132930956Y-73701000D01*
X132795527Y-73674062D01*
X132667951Y-73621218D01*
X132553141Y-73544505D01*
X132455495Y-73446859D01*
X132378782Y-73332049D01*
X132325938Y-73204473D01*
X132299000Y-73069044D01*
X132299000Y-72930956D01*
X132325938Y-72795527D01*
X132378782Y-72667951D01*
X132455495Y-72553141D01*
X132553141Y-72455495D01*
X132667951Y-72378782D01*
X132795527Y-72325938D01*
X132930956Y-72299000D01*
X133069044Y-72299000D01*
X133204473Y-72325938D01*
X133204473Y-72325938D01*
G37*
G36*
X133096228Y-68943483D02*
G01*
X133284922Y-69000723D01*
X133458815Y-69093671D01*
X133611239Y-69218761D01*
X133736329Y-69371185D01*
X133829277Y-69545078D01*
X133886517Y-69733772D01*
X133905843Y-69930000D01*
X133886517Y-70126228D01*
X133829277Y-70314922D01*
X133736329Y-70488815D01*
X133611239Y-70641239D01*
X133458815Y-70766329D01*
X133284922Y-70859277D01*
X133096228Y-70916517D01*
X132949175Y-70931000D01*
X131850825Y-70931000D01*
X131703772Y-70916517D01*
X131515078Y-70859277D01*
X131341185Y-70766329D01*
X131188761Y-70641239D01*
X131063671Y-70488815D01*
X130970723Y-70314922D01*
X130913483Y-70126228D01*
X130894157Y-69930000D01*
X130913483Y-69733772D01*
X130970723Y-69545078D01*
X131063671Y-69371185D01*
X131188761Y-69218761D01*
X131341185Y-69093671D01*
X131515078Y-69000723D01*
X131703772Y-68943483D01*
X131850825Y-68929000D01*
X132949175Y-68929000D01*
X133096228Y-68943483D01*
X133096228Y-68943483D01*
G37*
G36*
X180376000Y-68451000D02*
G01*
X170874000Y-68451000D01*
X170874000Y-57549000D01*
X180376000Y-57549000D01*
X180376000Y-68451000D01*
X180376000Y-68451000D01*
G37*
G36*
X187126000Y-66141000D02*
G01*
X182424000Y-66141000D01*
X182424000Y-64939000D01*
X187126000Y-64939000D01*
X187126000Y-66141000D01*
X187126000Y-66141000D01*
G37*
G36*
X139554591Y-64478085D02*
G01*
X139588569Y-64488393D01*
X139619890Y-64505134D01*
X139647339Y-64527661D01*
X139669866Y-64555110D01*
X139686607Y-64586431D01*
X139696915Y-64620409D01*
X139701000Y-64661890D01*
X139701000Y-65338110D01*
X139696915Y-65379591D01*
X139686607Y-65413569D01*
X139669866Y-65444890D01*
X139647339Y-65472339D01*
X139619890Y-65494866D01*
X139588569Y-65511607D01*
X139554591Y-65521915D01*
X139513110Y-65526000D01*
X138911890Y-65526000D01*
X138870409Y-65521915D01*
X138836431Y-65511607D01*
X138805110Y-65494866D01*
X138777661Y-65472339D01*
X138755134Y-65444890D01*
X138738393Y-65413569D01*
X138728085Y-65379591D01*
X138724000Y-65338110D01*
X138724000Y-64661890D01*
X138728085Y-64620409D01*
X138738393Y-64586431D01*
X138755134Y-64555110D01*
X138777661Y-64527661D01*
X138805110Y-64505134D01*
X138836431Y-64488393D01*
X138870409Y-64478085D01*
X138911890Y-64474000D01*
X139513110Y-64474000D01*
X139554591Y-64478085D01*
X139554591Y-64478085D01*
G37*
G36*
X141129591Y-64478085D02*
G01*
X141163569Y-64488393D01*
X141194890Y-64505134D01*
X141222339Y-64527661D01*
X141244866Y-64555110D01*
X141261607Y-64586431D01*
X141271915Y-64620409D01*
X141276000Y-64661890D01*
X141276000Y-65338110D01*
X141271915Y-65379591D01*
X141261607Y-65413569D01*
X141244866Y-65444890D01*
X141222339Y-65472339D01*
X141194890Y-65494866D01*
X141163569Y-65511607D01*
X141129591Y-65521915D01*
X141088110Y-65526000D01*
X140486890Y-65526000D01*
X140445409Y-65521915D01*
X140411431Y-65511607D01*
X140380110Y-65494866D01*
X140352661Y-65472339D01*
X140330134Y-65444890D01*
X140313393Y-65413569D01*
X140303085Y-65379591D01*
X140299000Y-65338110D01*
X140299000Y-64661890D01*
X140303085Y-64620409D01*
X140313393Y-64586431D01*
X140330134Y-64555110D01*
X140352661Y-64527661D01*
X140380110Y-64505134D01*
X140411431Y-64488393D01*
X140445409Y-64478085D01*
X140486890Y-64474000D01*
X141088110Y-64474000D01*
X141129591Y-64478085D01*
X141129591Y-64478085D01*
G37*
G36*
X152701000Y-65501000D02*
G01*
X147299000Y-65501000D01*
X147299000Y-62599000D01*
X152701000Y-62599000D01*
X152701000Y-65501000D01*
X152701000Y-65501000D01*
G37*
G36*
X129591242Y-64153404D02*
G01*
X129628337Y-64164657D01*
X129662515Y-64182925D01*
X129692481Y-64207519D01*
X129717075Y-64237485D01*
X129735343Y-64271663D01*
X129746596Y-64308758D01*
X129751000Y-64353474D01*
X129751000Y-65246526D01*
X129746596Y-65291242D01*
X129735343Y-65328337D01*
X129717075Y-65362515D01*
X129692481Y-65392481D01*
X129662515Y-65417075D01*
X129628337Y-65435343D01*
X129591242Y-65446596D01*
X129546526Y-65451000D01*
X128053474Y-65451000D01*
X128008758Y-65446596D01*
X127971663Y-65435343D01*
X127937485Y-65417075D01*
X127907519Y-65392481D01*
X127882925Y-65362515D01*
X127864657Y-65328337D01*
X127853404Y-65291242D01*
X127849000Y-65246526D01*
X127849000Y-64353474D01*
X127853404Y-64308758D01*
X127864657Y-64271663D01*
X127882925Y-64237485D01*
X127907519Y-64207519D01*
X127937485Y-64182925D01*
X127971663Y-64164657D01*
X128008758Y-64153404D01*
X128053474Y-64149000D01*
X129546526Y-64149000D01*
X129591242Y-64153404D01*
X129591242Y-64153404D01*
G37*
G36*
X132059928Y-63151764D02*
G01*
X132081009Y-63158160D01*
X132100445Y-63168548D01*
X132117476Y-63182524D01*
X132131452Y-63199555D01*
X132141840Y-63218991D01*
X132148236Y-63240072D01*
X132151000Y-63268140D01*
X132151000Y-63731860D01*
X132148236Y-63759928D01*
X132141840Y-63781009D01*
X132131452Y-63800445D01*
X132117476Y-63817476D01*
X132100445Y-63831452D01*
X132081009Y-63841840D01*
X132059928Y-63848236D01*
X132031860Y-63851000D01*
X130618140Y-63851000D01*
X130590072Y-63848236D01*
X130568991Y-63841840D01*
X130549555Y-63831452D01*
X130532524Y-63817476D01*
X130518548Y-63800445D01*
X130508160Y-63781009D01*
X130501764Y-63759928D01*
X130499000Y-63731860D01*
X130499000Y-63268140D01*
X130501764Y-63240072D01*
X130508160Y-63218991D01*
X130518548Y-63199555D01*
X130532524Y-63182524D01*
X130549555Y-63168548D01*
X130568991Y-63158160D01*
X130590072Y-63151764D01*
X130618140Y-63149000D01*
X132031860Y-63149000D01*
X132059928Y-63151764D01*
X132059928Y-63151764D01*
G37*
G36*
X132059928Y-62151764D02*
G01*
X132081009Y-62158160D01*
X132100445Y-62168548D01*
X132117476Y-62182524D01*
X132131452Y-62199555D01*
X132141840Y-62218991D01*
X132148236Y-62240072D01*
X132151000Y-62268140D01*
X132151000Y-62731860D01*
X132148236Y-62759928D01*
X132141840Y-62781009D01*
X132131452Y-62800445D01*
X132117476Y-62817476D01*
X132100445Y-62831452D01*
X132081009Y-62841840D01*
X132059928Y-62848236D01*
X132031860Y-62851000D01*
X130618140Y-62851000D01*
X130590072Y-62848236D01*
X130568991Y-62841840D01*
X130549555Y-62831452D01*
X130532524Y-62817476D01*
X130518548Y-62800445D01*
X130508160Y-62781009D01*
X130501764Y-62759928D01*
X130499000Y-62731860D01*
X130499000Y-62268140D01*
X130501764Y-62240072D01*
X130508160Y-62218991D01*
X130518548Y-62199555D01*
X130532524Y-62182524D01*
X130549555Y-62168548D01*
X130568991Y-62158160D01*
X130590072Y-62151764D01*
X130618140Y-62149000D01*
X132031860Y-62149000D01*
X132059928Y-62151764D01*
X132059928Y-62151764D01*
G37*
G36*
X139624928Y-55501764D02*
G01*
X139646009Y-55508160D01*
X139665445Y-55518548D01*
X139682476Y-55532524D01*
X139696452Y-55549555D01*
X139706840Y-55568991D01*
X139713236Y-55590072D01*
X139716000Y-55618140D01*
X139716000Y-57256860D01*
X139713236Y-57284928D01*
X139706841Y-57306008D01*
X139698708Y-57321223D01*
X139689331Y-57343862D01*
X139684550Y-57367895D01*
X139684550Y-57392399D01*
X139689330Y-57416432D01*
X139698707Y-57439071D01*
X139712321Y-57459446D01*
X139729648Y-57476773D01*
X139750022Y-57490387D01*
X139772661Y-57499764D01*
X139796694Y-57504545D01*
X139833331Y-57502746D01*
X139838627Y-57501693D01*
X139852164Y-57499000D01*
X140147836Y-57499000D01*
X140161373Y-57501693D01*
X140166669Y-57502746D01*
X140191055Y-57505147D01*
X140215441Y-57502745D01*
X140238890Y-57495631D01*
X140260501Y-57484080D01*
X140279442Y-57468534D01*
X140294987Y-57449592D01*
X140306538Y-57427981D01*
X140313651Y-57404532D01*
X140316052Y-57380146D01*
X140313650Y-57355760D01*
X140301292Y-57321223D01*
X140293159Y-57306008D01*
X140286764Y-57284928D01*
X140284000Y-57256860D01*
X140284000Y-55618140D01*
X140286764Y-55590072D01*
X140293160Y-55568991D01*
X140303548Y-55549555D01*
X140317524Y-55532524D01*
X140334555Y-55518548D01*
X140353991Y-55508160D01*
X140375072Y-55501764D01*
X140403140Y-55499000D01*
X140866860Y-55499000D01*
X140894928Y-55501764D01*
X140916009Y-55508160D01*
X140935445Y-55518548D01*
X140952476Y-55532524D01*
X140966452Y-55549555D01*
X140976840Y-55568991D01*
X140983236Y-55590072D01*
X140986000Y-55618140D01*
X140986000Y-57256860D01*
X140983236Y-57284928D01*
X140976840Y-57306009D01*
X140966452Y-57325445D01*
X140952476Y-57342476D01*
X140935445Y-57356452D01*
X140916009Y-57366840D01*
X140894928Y-57373236D01*
X140866860Y-57376000D01*
X140630033Y-57376000D01*
X140605647Y-57378402D01*
X140582198Y-57385515D01*
X140560587Y-57397066D01*
X140541645Y-57412611D01*
X140526100Y-57431553D01*
X140514549Y-57453164D01*
X140507436Y-57476613D01*
X140505034Y-57500999D01*
X140507436Y-57525385D01*
X140514549Y-57548834D01*
X140526100Y-57570445D01*
X140541645Y-57589387D01*
X140560587Y-57604932D01*
X140582198Y-57616483D01*
X140628073Y-57635485D01*
X140651522Y-57642598D01*
X140675908Y-57645000D01*
X141545797Y-57645000D01*
X141580706Y-57648438D01*
X141608365Y-57656829D01*
X141633862Y-57670457D01*
X141656206Y-57688794D01*
X141674543Y-57711138D01*
X141688171Y-57736635D01*
X141696562Y-57764294D01*
X141700000Y-57799203D01*
X141700000Y-60200797D01*
X141696562Y-60235706D01*
X141688171Y-60263365D01*
X141674543Y-60288862D01*
X141656206Y-60311206D01*
X141633862Y-60329543D01*
X141608365Y-60343171D01*
X141580706Y-60351562D01*
X141545797Y-60355000D01*
X140675908Y-60355000D01*
X140651522Y-60357402D01*
X140628073Y-60364515D01*
X140582198Y-60383517D01*
X140560587Y-60395068D01*
X140541645Y-60410613D01*
X140526100Y-60429555D01*
X140514549Y-60451166D01*
X140507436Y-60474615D01*
X140505034Y-60499001D01*
X140507436Y-60523387D01*
X140514549Y-60546836D01*
X140526100Y-60568447D01*
X140541645Y-60587389D01*
X140560587Y-60602934D01*
X140582198Y-60614485D01*
X140605647Y-60621598D01*
X140630033Y-60624000D01*
X140866860Y-60624000D01*
X140894928Y-60626764D01*
X140916009Y-60633160D01*
X140935445Y-60643548D01*
X140952476Y-60657524D01*
X140966452Y-60674555D01*
X140976840Y-60693991D01*
X140983236Y-60715072D01*
X140986000Y-60743140D01*
X140986000Y-62381860D01*
X140983236Y-62409928D01*
X140976840Y-62431009D01*
X140966452Y-62450445D01*
X140952476Y-62467476D01*
X140935445Y-62481452D01*
X140916009Y-62491840D01*
X140894928Y-62498236D01*
X140866860Y-62501000D01*
X140403140Y-62501000D01*
X140375072Y-62498236D01*
X140353991Y-62491840D01*
X140334555Y-62481452D01*
X140317524Y-62467476D01*
X140303548Y-62450445D01*
X140293160Y-62431009D01*
X140286764Y-62409928D01*
X140284000Y-62381860D01*
X140284000Y-60743140D01*
X140286764Y-60715072D01*
X140293159Y-60693992D01*
X140301292Y-60678777D01*
X140310669Y-60656138D01*
X140315450Y-60632105D01*
X140315450Y-60607601D01*
X140310670Y-60583568D01*
X140301293Y-60560929D01*
X140287679Y-60540554D01*
X140270352Y-60523227D01*
X140249978Y-60509613D01*
X140227339Y-60500236D01*
X140203306Y-60495455D01*
X140166668Y-60497254D01*
X140147836Y-60501000D01*
X139852164Y-60501000D01*
X139833332Y-60497254D01*
X139808945Y-60494853D01*
X139784559Y-60497255D01*
X139761110Y-60504369D01*
X139739499Y-60515920D01*
X139720558Y-60531466D01*
X139705013Y-60550408D01*
X139693462Y-60572019D01*
X139686349Y-60595468D01*
X139683948Y-60619854D01*
X139686350Y-60644240D01*
X139698708Y-60678777D01*
X139706841Y-60693992D01*
X139713236Y-60715072D01*
X139716000Y-60743140D01*
X139716000Y-62381860D01*
X139713236Y-62409928D01*
X139706840Y-62431009D01*
X139696452Y-62450445D01*
X139682476Y-62467476D01*
X139665445Y-62481452D01*
X139646009Y-62491840D01*
X139624928Y-62498236D01*
X139596860Y-62501000D01*
X139133140Y-62501000D01*
X139105072Y-62498236D01*
X139083991Y-62491840D01*
X139064555Y-62481452D01*
X139047524Y-62467476D01*
X139033548Y-62450445D01*
X139023160Y-62431009D01*
X139016764Y-62409928D01*
X139014000Y-62381860D01*
X139014000Y-60743140D01*
X139016764Y-60715072D01*
X139023160Y-60693991D01*
X139033548Y-60674555D01*
X139047524Y-60657524D01*
X139064555Y-60643548D01*
X139083991Y-60633160D01*
X139105072Y-60626764D01*
X139133140Y-60624000D01*
X139369967Y-60624000D01*
X139394353Y-60621598D01*
X139417802Y-60614485D01*
X139439413Y-60602934D01*
X139458355Y-60587389D01*
X139473900Y-60568447D01*
X139485451Y-60546836D01*
X139492564Y-60523387D01*
X139494966Y-60499001D01*
X139492564Y-60474615D01*
X139485451Y-60451166D01*
X139473900Y-60429555D01*
X139458355Y-60410613D01*
X139439413Y-60395068D01*
X139417802Y-60383517D01*
X139371927Y-60364515D01*
X139348478Y-60357402D01*
X139324092Y-60355000D01*
X138454203Y-60355000D01*
X138419294Y-60351562D01*
X138391635Y-60343171D01*
X138366138Y-60329543D01*
X138343794Y-60311206D01*
X138325457Y-60288862D01*
X138311829Y-60263365D01*
X138303438Y-60235706D01*
X138300000Y-60200797D01*
X138300000Y-57799203D01*
X138303438Y-57764294D01*
X138311829Y-57736635D01*
X138325457Y-57711138D01*
X138343794Y-57688794D01*
X138366138Y-57670457D01*
X138391635Y-57656829D01*
X138419294Y-57648438D01*
X138454203Y-57645000D01*
X139324092Y-57645000D01*
X139348478Y-57642598D01*
X139371927Y-57635485D01*
X139417802Y-57616483D01*
X139439413Y-57604932D01*
X139458355Y-57589387D01*
X139473900Y-57570445D01*
X139485451Y-57548834D01*
X139492564Y-57525385D01*
X139494966Y-57500999D01*
X139492564Y-57476613D01*
X139485451Y-57453164D01*
X139473900Y-57431553D01*
X139458355Y-57412611D01*
X139439413Y-57397066D01*
X139417802Y-57385515D01*
X139394353Y-57378402D01*
X139369967Y-57376000D01*
X139133140Y-57376000D01*
X139105072Y-57373236D01*
X139083991Y-57366840D01*
X139064555Y-57356452D01*
X139047524Y-57342476D01*
X139033548Y-57325445D01*
X139023160Y-57306009D01*
X139016764Y-57284928D01*
X139014000Y-57256860D01*
X139014000Y-55618140D01*
X139016764Y-55590072D01*
X139023160Y-55568991D01*
X139033548Y-55549555D01*
X139047524Y-55532524D01*
X139064555Y-55518548D01*
X139083991Y-55508160D01*
X139105072Y-55501764D01*
X139133140Y-55499000D01*
X139596860Y-55499000D01*
X139624928Y-55501764D01*
X139624928Y-55501764D01*
G37*
G36*
X142164928Y-60626764D02*
G01*
X142186009Y-60633160D01*
X142205445Y-60643548D01*
X142222476Y-60657524D01*
X142236452Y-60674555D01*
X142246840Y-60693991D01*
X142253236Y-60715072D01*
X142256000Y-60743140D01*
X142256000Y-62381860D01*
X142253236Y-62409928D01*
X142246840Y-62431009D01*
X142236452Y-62450445D01*
X142222476Y-62467476D01*
X142205445Y-62481452D01*
X142186009Y-62491840D01*
X142164928Y-62498236D01*
X142136860Y-62501000D01*
X141673140Y-62501000D01*
X141645072Y-62498236D01*
X141623991Y-62491840D01*
X141604555Y-62481452D01*
X141587524Y-62467476D01*
X141573548Y-62450445D01*
X141563160Y-62431009D01*
X141556764Y-62409928D01*
X141554000Y-62381860D01*
X141554000Y-60743140D01*
X141556764Y-60715072D01*
X141563160Y-60693991D01*
X141573548Y-60674555D01*
X141587524Y-60657524D01*
X141604555Y-60643548D01*
X141623991Y-60633160D01*
X141645072Y-60626764D01*
X141673140Y-60624000D01*
X142136860Y-60624000D01*
X142164928Y-60626764D01*
X142164928Y-60626764D01*
G37*
G36*
X138354928Y-60626764D02*
G01*
X138376009Y-60633160D01*
X138395445Y-60643548D01*
X138412476Y-60657524D01*
X138426452Y-60674555D01*
X138436840Y-60693991D01*
X138443236Y-60715072D01*
X138446000Y-60743140D01*
X138446000Y-62381860D01*
X138443236Y-62409928D01*
X138436840Y-62431009D01*
X138426452Y-62450445D01*
X138412476Y-62467476D01*
X138395445Y-62481452D01*
X138376009Y-62491840D01*
X138354928Y-62498236D01*
X138326860Y-62501000D01*
X137863140Y-62501000D01*
X137835072Y-62498236D01*
X137813991Y-62491840D01*
X137794555Y-62481452D01*
X137777524Y-62467476D01*
X137763548Y-62450445D01*
X137753160Y-62431009D01*
X137746764Y-62409928D01*
X137744000Y-62381860D01*
X137744000Y-60743140D01*
X137746764Y-60715072D01*
X137753160Y-60693991D01*
X137763548Y-60674555D01*
X137777524Y-60657524D01*
X137794555Y-60643548D01*
X137813991Y-60633160D01*
X137835072Y-60626764D01*
X137863140Y-60624000D01*
X138326860Y-60624000D01*
X138354928Y-60626764D01*
X138354928Y-60626764D01*
G37*
G36*
X132059928Y-61151764D02*
G01*
X132081009Y-61158160D01*
X132100445Y-61168548D01*
X132117476Y-61182524D01*
X132131452Y-61199555D01*
X132141840Y-61218991D01*
X132148236Y-61240072D01*
X132151000Y-61268140D01*
X132151000Y-61731860D01*
X132148236Y-61759928D01*
X132141840Y-61781009D01*
X132131452Y-61800445D01*
X132117476Y-61817476D01*
X132100445Y-61831452D01*
X132081009Y-61841840D01*
X132059928Y-61848236D01*
X132031860Y-61851000D01*
X130618140Y-61851000D01*
X130590072Y-61848236D01*
X130568991Y-61841840D01*
X130549555Y-61831452D01*
X130532524Y-61817476D01*
X130518548Y-61800445D01*
X130508160Y-61781009D01*
X130501764Y-61759928D01*
X130499000Y-61731860D01*
X130499000Y-61268140D01*
X130501764Y-61240072D01*
X130508160Y-61218991D01*
X130518548Y-61199555D01*
X130532524Y-61182524D01*
X130549555Y-61168548D01*
X130568991Y-61158160D01*
X130590072Y-61151764D01*
X130618140Y-61149000D01*
X132031860Y-61149000D01*
X132059928Y-61151764D01*
X132059928Y-61151764D01*
G37*
G36*
X197892263Y-57777953D02*
G01*
X198269457Y-57892374D01*
X198551572Y-58043168D01*
X198617075Y-58078180D01*
X198696446Y-58143318D01*
X198921767Y-58328233D01*
X199106682Y-58553554D01*
X199171820Y-58632925D01*
X199171821Y-58632927D01*
X199357626Y-58980543D01*
X199472047Y-59357737D01*
X199510681Y-59750000D01*
X199472047Y-60142263D01*
X199357626Y-60519457D01*
X199217823Y-60781009D01*
X199171820Y-60867075D01*
X199106682Y-60946446D01*
X198921767Y-61171767D01*
X198696446Y-61356682D01*
X198617075Y-61421820D01*
X198617073Y-61421821D01*
X198269457Y-61607626D01*
X197892263Y-61722047D01*
X197598296Y-61751000D01*
X197401704Y-61751000D01*
X197107737Y-61722047D01*
X196730543Y-61607626D01*
X196382927Y-61421821D01*
X196382925Y-61421820D01*
X196303554Y-61356682D01*
X196078233Y-61171767D01*
X195893318Y-60946446D01*
X195828180Y-60867075D01*
X195782177Y-60781009D01*
X195642374Y-60519457D01*
X195527953Y-60142263D01*
X195489319Y-59750000D01*
X195527953Y-59357737D01*
X195642374Y-58980543D01*
X195828179Y-58632927D01*
X195828180Y-58632925D01*
X195893318Y-58553554D01*
X196078233Y-58328233D01*
X196303554Y-58143318D01*
X196382925Y-58078180D01*
X196448428Y-58043168D01*
X196730543Y-57892374D01*
X197107737Y-57777953D01*
X197401704Y-57749000D01*
X197598296Y-57749000D01*
X197892263Y-57777953D01*
X197892263Y-57777953D01*
G37*
G36*
X192892263Y-57777953D02*
G01*
X193269457Y-57892374D01*
X193551572Y-58043168D01*
X193617075Y-58078180D01*
X193696446Y-58143318D01*
X193921767Y-58328233D01*
X194106682Y-58553554D01*
X194171820Y-58632925D01*
X194171821Y-58632927D01*
X194357626Y-58980543D01*
X194472047Y-59357737D01*
X194510681Y-59750000D01*
X194472047Y-60142263D01*
X194357626Y-60519457D01*
X194217823Y-60781009D01*
X194171820Y-60867075D01*
X194106682Y-60946446D01*
X193921767Y-61171767D01*
X193696446Y-61356682D01*
X193617075Y-61421820D01*
X193617073Y-61421821D01*
X193269457Y-61607626D01*
X192892263Y-61722047D01*
X192598296Y-61751000D01*
X192401704Y-61751000D01*
X192107737Y-61722047D01*
X191730543Y-61607626D01*
X191382927Y-61421821D01*
X191382925Y-61421820D01*
X191303554Y-61356682D01*
X191078233Y-61171767D01*
X190893318Y-60946446D01*
X190828180Y-60867075D01*
X190782177Y-60781009D01*
X190642374Y-60519457D01*
X190527953Y-60142263D01*
X190489319Y-59750000D01*
X190527953Y-59357737D01*
X190642374Y-58980543D01*
X190828179Y-58632927D01*
X190828180Y-58632925D01*
X190893318Y-58553554D01*
X191078233Y-58328233D01*
X191303554Y-58143318D01*
X191382925Y-58078180D01*
X191448428Y-58043168D01*
X191730543Y-57892374D01*
X192107737Y-57777953D01*
X192401704Y-57749000D01*
X192598296Y-57749000D01*
X192892263Y-57777953D01*
X192892263Y-57777953D01*
G37*
G36*
X187126000Y-61061000D02*
G01*
X182424000Y-61061000D01*
X182424000Y-59859000D01*
X187126000Y-59859000D01*
X187126000Y-61061000D01*
X187126000Y-61061000D01*
G37*
G36*
X132059928Y-60151764D02*
G01*
X132081009Y-60158160D01*
X132100445Y-60168548D01*
X132117476Y-60182524D01*
X132131452Y-60199555D01*
X132141840Y-60218991D01*
X132148236Y-60240072D01*
X132151000Y-60268140D01*
X132151000Y-60731860D01*
X132148236Y-60759928D01*
X132141840Y-60781009D01*
X132131452Y-60800445D01*
X132117476Y-60817476D01*
X132100445Y-60831452D01*
X132081009Y-60841840D01*
X132059928Y-60848236D01*
X132031860Y-60851000D01*
X130618140Y-60851000D01*
X130590072Y-60848236D01*
X130568991Y-60841840D01*
X130549555Y-60831452D01*
X130532524Y-60817476D01*
X130518548Y-60800445D01*
X130508160Y-60781009D01*
X130501764Y-60759928D01*
X130499000Y-60731860D01*
X130499000Y-60268140D01*
X130501764Y-60240072D01*
X130508160Y-60218991D01*
X130518548Y-60199555D01*
X130532524Y-60182524D01*
X130549555Y-60168548D01*
X130568991Y-60158160D01*
X130590072Y-60151764D01*
X130618140Y-60149000D01*
X132031860Y-60149000D01*
X132059928Y-60151764D01*
X132059928Y-60151764D01*
G37*
G36*
X167501000Y-60796000D02*
G01*
X165899000Y-60796000D01*
X165899000Y-60094000D01*
X167501000Y-60094000D01*
X167501000Y-60796000D01*
X167501000Y-60796000D01*
G37*
G36*
X162101000Y-60796000D02*
G01*
X160499000Y-60796000D01*
X160499000Y-60094000D01*
X162101000Y-60094000D01*
X162101000Y-60796000D01*
X162101000Y-60796000D01*
G37*
G36*
X132059928Y-59151764D02*
G01*
X132081009Y-59158160D01*
X132100445Y-59168548D01*
X132117476Y-59182524D01*
X132131452Y-59199555D01*
X132141840Y-59218991D01*
X132148236Y-59240072D01*
X132151000Y-59268140D01*
X132151000Y-59731860D01*
X132148236Y-59759928D01*
X132141840Y-59781009D01*
X132131452Y-59800445D01*
X132117476Y-59817476D01*
X132100445Y-59831452D01*
X132081009Y-59841840D01*
X132059928Y-59848236D01*
X132031860Y-59851000D01*
X130618140Y-59851000D01*
X130590072Y-59848236D01*
X130568991Y-59841840D01*
X130549555Y-59831452D01*
X130532524Y-59817476D01*
X130518548Y-59800445D01*
X130508160Y-59781009D01*
X130501764Y-59759928D01*
X130499000Y-59731860D01*
X130499000Y-59268140D01*
X130501764Y-59240072D01*
X130508160Y-59218991D01*
X130518548Y-59199555D01*
X130532524Y-59182524D01*
X130549555Y-59168548D01*
X130568991Y-59158160D01*
X130590072Y-59151764D01*
X130618140Y-59149000D01*
X132031860Y-59149000D01*
X132059928Y-59151764D01*
X132059928Y-59151764D01*
G37*
G36*
X162101000Y-59526000D02*
G01*
X160499000Y-59526000D01*
X160499000Y-58824000D01*
X162101000Y-58824000D01*
X162101000Y-59526000D01*
X162101000Y-59526000D01*
G37*
G36*
X167501000Y-59526000D02*
G01*
X165899000Y-59526000D01*
X165899000Y-58824000D01*
X167501000Y-58824000D01*
X167501000Y-59526000D01*
X167501000Y-59526000D01*
G37*
G36*
X132059928Y-58151764D02*
G01*
X132081009Y-58158160D01*
X132100445Y-58168548D01*
X132117476Y-58182524D01*
X132131452Y-58199555D01*
X132141840Y-58218991D01*
X132148236Y-58240072D01*
X132151000Y-58268140D01*
X132151000Y-58731860D01*
X132148236Y-58759928D01*
X132141840Y-58781009D01*
X132131452Y-58800445D01*
X132117476Y-58817476D01*
X132100445Y-58831452D01*
X132081009Y-58841840D01*
X132059928Y-58848236D01*
X132031860Y-58851000D01*
X130618140Y-58851000D01*
X130590072Y-58848236D01*
X130568991Y-58841840D01*
X130549555Y-58831452D01*
X130532524Y-58817476D01*
X130518548Y-58800445D01*
X130508160Y-58781009D01*
X130501764Y-58759928D01*
X130499000Y-58731860D01*
X130499000Y-58268140D01*
X130501764Y-58240072D01*
X130508160Y-58218991D01*
X130518548Y-58199555D01*
X130532524Y-58182524D01*
X130549555Y-58168548D01*
X130568991Y-58158160D01*
X130590072Y-58151764D01*
X130618140Y-58149000D01*
X132031860Y-58149000D01*
X132059928Y-58151764D01*
X132059928Y-58151764D01*
G37*
G36*
X162101000Y-58256000D02*
G01*
X160499000Y-58256000D01*
X160499000Y-57554000D01*
X162101000Y-57554000D01*
X162101000Y-58256000D01*
X162101000Y-58256000D01*
G37*
G36*
X167501000Y-58256000D02*
G01*
X165899000Y-58256000D01*
X165899000Y-57554000D01*
X167501000Y-57554000D01*
X167501000Y-58256000D01*
X167501000Y-58256000D01*
G37*
G36*
X129591242Y-56553404D02*
G01*
X129628337Y-56564657D01*
X129662515Y-56582925D01*
X129692481Y-56607519D01*
X129717075Y-56637485D01*
X129735343Y-56671663D01*
X129746596Y-56708758D01*
X129751000Y-56753474D01*
X129751000Y-57646526D01*
X129746596Y-57691242D01*
X129735343Y-57728337D01*
X129717075Y-57762515D01*
X129692481Y-57792481D01*
X129662515Y-57817075D01*
X129628337Y-57835343D01*
X129591242Y-57846596D01*
X129546526Y-57851000D01*
X128053474Y-57851000D01*
X128008758Y-57846596D01*
X127971663Y-57835343D01*
X127937485Y-57817075D01*
X127907519Y-57792481D01*
X127882925Y-57762515D01*
X127864657Y-57728337D01*
X127853404Y-57691242D01*
X127849000Y-57646526D01*
X127849000Y-56753474D01*
X127853404Y-56708758D01*
X127864657Y-56671663D01*
X127882925Y-56637485D01*
X127907519Y-56607519D01*
X127937485Y-56582925D01*
X127971663Y-56564657D01*
X128008758Y-56553404D01*
X128053474Y-56549000D01*
X129546526Y-56549000D01*
X129591242Y-56553404D01*
X129591242Y-56553404D01*
G37*
G36*
X142164928Y-55501764D02*
G01*
X142186009Y-55508160D01*
X142205445Y-55518548D01*
X142222476Y-55532524D01*
X142236452Y-55549555D01*
X142246840Y-55568991D01*
X142253236Y-55590072D01*
X142256000Y-55618140D01*
X142256000Y-57256860D01*
X142253236Y-57284928D01*
X142246840Y-57306009D01*
X142236452Y-57325445D01*
X142222476Y-57342476D01*
X142205445Y-57356452D01*
X142186009Y-57366840D01*
X142164928Y-57373236D01*
X142136860Y-57376000D01*
X141673140Y-57376000D01*
X141645072Y-57373236D01*
X141623991Y-57366840D01*
X141604555Y-57356452D01*
X141587524Y-57342476D01*
X141573548Y-57325445D01*
X141563160Y-57306009D01*
X141556764Y-57284928D01*
X141554000Y-57256860D01*
X141554000Y-55618140D01*
X141556764Y-55590072D01*
X141563160Y-55568991D01*
X141573548Y-55549555D01*
X141587524Y-55532524D01*
X141604555Y-55518548D01*
X141623991Y-55508160D01*
X141645072Y-55501764D01*
X141673140Y-55499000D01*
X142136860Y-55499000D01*
X142164928Y-55501764D01*
X142164928Y-55501764D01*
G37*
G36*
X138354928Y-55501764D02*
G01*
X138376009Y-55508160D01*
X138395445Y-55518548D01*
X138412476Y-55532524D01*
X138426452Y-55549555D01*
X138436840Y-55568991D01*
X138443236Y-55590072D01*
X138446000Y-55618140D01*
X138446000Y-57256860D01*
X138443236Y-57284928D01*
X138436840Y-57306009D01*
X138426452Y-57325445D01*
X138412476Y-57342476D01*
X138395445Y-57356452D01*
X138376009Y-57366840D01*
X138354928Y-57373236D01*
X138326860Y-57376000D01*
X137863140Y-57376000D01*
X137835072Y-57373236D01*
X137813991Y-57366840D01*
X137794555Y-57356452D01*
X137777524Y-57342476D01*
X137763548Y-57325445D01*
X137753160Y-57306009D01*
X137746764Y-57284928D01*
X137744000Y-57256860D01*
X137744000Y-55618140D01*
X137746764Y-55590072D01*
X137753160Y-55568991D01*
X137763548Y-55549555D01*
X137777524Y-55532524D01*
X137794555Y-55518548D01*
X137813991Y-55508160D01*
X137835072Y-55501764D01*
X137863140Y-55499000D01*
X138326860Y-55499000D01*
X138354928Y-55501764D01*
X138354928Y-55501764D01*
G37*
G36*
X167501000Y-56986000D02*
G01*
X165899000Y-56986000D01*
X165899000Y-56284000D01*
X167501000Y-56284000D01*
X167501000Y-56986000D01*
X167501000Y-56986000D01*
G37*
G36*
X162101000Y-56986000D02*
G01*
X160499000Y-56986000D01*
X160499000Y-56284000D01*
X162101000Y-56284000D01*
X162101000Y-56986000D01*
X162101000Y-56986000D01*
G37*
G36*
X162101000Y-55716000D02*
G01*
X160499000Y-55716000D01*
X160499000Y-55014000D01*
X162101000Y-55014000D01*
X162101000Y-55716000D01*
X162101000Y-55716000D01*
G37*
G36*
X167501000Y-55716000D02*
G01*
X165899000Y-55716000D01*
X165899000Y-55014000D01*
X167501000Y-55014000D01*
X167501000Y-55716000D01*
X167501000Y-55716000D01*
G37*
G36*
X152701000Y-55401000D02*
G01*
X147299000Y-55401000D01*
X147299000Y-52499000D01*
X152701000Y-52499000D01*
X152701000Y-55401000D01*
X152701000Y-55401000D01*
G37*
G36*
X187126000Y-54451000D02*
G01*
X177624000Y-54451000D01*
X177624000Y-43549000D01*
X187126000Y-43549000D01*
X187126000Y-54451000D01*
X187126000Y-54451000D01*
G37*
G36*
X129591242Y-53153404D02*
G01*
X129628337Y-53164657D01*
X129662515Y-53182925D01*
X129692481Y-53207519D01*
X129717075Y-53237485D01*
X129735343Y-53271663D01*
X129746596Y-53308758D01*
X129751000Y-53353474D01*
X129751000Y-54246526D01*
X129746596Y-54291242D01*
X129735343Y-54328337D01*
X129717075Y-54362515D01*
X129692481Y-54392481D01*
X129662515Y-54417075D01*
X129628337Y-54435343D01*
X129591242Y-54446596D01*
X129546526Y-54451000D01*
X128053474Y-54451000D01*
X128008758Y-54446596D01*
X127971663Y-54435343D01*
X127937485Y-54417075D01*
X127907519Y-54392481D01*
X127882925Y-54362515D01*
X127864657Y-54328337D01*
X127853404Y-54291242D01*
X127849000Y-54246526D01*
X127849000Y-53353474D01*
X127853404Y-53308758D01*
X127864657Y-53271663D01*
X127882925Y-53237485D01*
X127907519Y-53207519D01*
X127937485Y-53182925D01*
X127971663Y-53164657D01*
X128008758Y-53153404D01*
X128053474Y-53149000D01*
X129546526Y-53149000D01*
X129591242Y-53153404D01*
X129591242Y-53153404D01*
G37*
G36*
X167501000Y-54446000D02*
G01*
X165899000Y-54446000D01*
X165899000Y-53744000D01*
X167501000Y-53744000D01*
X167501000Y-54446000D01*
X167501000Y-54446000D01*
G37*
G36*
X162101000Y-54446000D02*
G01*
X160499000Y-54446000D01*
X160499000Y-53744000D01*
X162101000Y-53744000D01*
X162101000Y-54446000D01*
X162101000Y-54446000D01*
G37*
G36*
X197892263Y-50277953D02*
G01*
X198269457Y-50392374D01*
X198581399Y-50559111D01*
X198617075Y-50578180D01*
X198696446Y-50643318D01*
X198921767Y-50828233D01*
X199012670Y-50939000D01*
X199171820Y-51132925D01*
X199171821Y-51132927D01*
X199357626Y-51480543D01*
X199472047Y-51857737D01*
X199510681Y-52250000D01*
X199472047Y-52642263D01*
X199357626Y-53019457D01*
X199245918Y-53228447D01*
X199171820Y-53367075D01*
X199128181Y-53420249D01*
X198921767Y-53671767D01*
X198696446Y-53856682D01*
X198617075Y-53921820D01*
X198617073Y-53921821D01*
X198269457Y-54107626D01*
X197892263Y-54222047D01*
X197598296Y-54251000D01*
X197401704Y-54251000D01*
X197107737Y-54222047D01*
X196730543Y-54107626D01*
X196382927Y-53921821D01*
X196382925Y-53921820D01*
X196303554Y-53856682D01*
X196078233Y-53671767D01*
X195871819Y-53420249D01*
X195828180Y-53367075D01*
X195754082Y-53228447D01*
X195642374Y-53019457D01*
X195527953Y-52642263D01*
X195489319Y-52250000D01*
X195527953Y-51857737D01*
X195642374Y-51480543D01*
X195828179Y-51132927D01*
X195828180Y-51132925D01*
X195987330Y-50939000D01*
X196078233Y-50828233D01*
X196303554Y-50643318D01*
X196382925Y-50578180D01*
X196418601Y-50559111D01*
X196730543Y-50392374D01*
X197107737Y-50277953D01*
X197401704Y-50249000D01*
X197598296Y-50249000D01*
X197892263Y-50277953D01*
X197892263Y-50277953D01*
G37*
G36*
X192892263Y-50277953D02*
G01*
X193269457Y-50392374D01*
X193581399Y-50559111D01*
X193617075Y-50578180D01*
X193696446Y-50643318D01*
X193921767Y-50828233D01*
X194012670Y-50939000D01*
X194171820Y-51132925D01*
X194171821Y-51132927D01*
X194357626Y-51480543D01*
X194472047Y-51857737D01*
X194510681Y-52250000D01*
X194472047Y-52642263D01*
X194357626Y-53019457D01*
X194245918Y-53228447D01*
X194171820Y-53367075D01*
X194128181Y-53420249D01*
X193921767Y-53671767D01*
X193696446Y-53856682D01*
X193617075Y-53921820D01*
X193617073Y-53921821D01*
X193269457Y-54107626D01*
X192892263Y-54222047D01*
X192598296Y-54251000D01*
X192401704Y-54251000D01*
X192107737Y-54222047D01*
X191730543Y-54107626D01*
X191382927Y-53921821D01*
X191382925Y-53921820D01*
X191303554Y-53856682D01*
X191078233Y-53671767D01*
X190871819Y-53420249D01*
X190828180Y-53367075D01*
X190754082Y-53228447D01*
X190642374Y-53019457D01*
X190527953Y-52642263D01*
X190489319Y-52250000D01*
X190527953Y-51857737D01*
X190642374Y-51480543D01*
X190828179Y-51132927D01*
X190828180Y-51132925D01*
X190987330Y-50939000D01*
X191078233Y-50828233D01*
X191303554Y-50643318D01*
X191382925Y-50578180D01*
X191418601Y-50559111D01*
X191730543Y-50392374D01*
X192107737Y-50277953D01*
X192401704Y-50249000D01*
X192598296Y-50249000D01*
X192892263Y-50277953D01*
X192892263Y-50277953D01*
G37*
G36*
X162101000Y-53176000D02*
G01*
X160499000Y-53176000D01*
X160499000Y-52474000D01*
X162101000Y-52474000D01*
X162101000Y-53176000D01*
X162101000Y-53176000D01*
G37*
G36*
X167501000Y-53176000D02*
G01*
X165899000Y-53176000D01*
X165899000Y-52474000D01*
X167501000Y-52474000D01*
X167501000Y-53176000D01*
X167501000Y-53176000D01*
G37*
G36*
X132059928Y-52151764D02*
G01*
X132081009Y-52158160D01*
X132100445Y-52168548D01*
X132117476Y-52182524D01*
X132131452Y-52199555D01*
X132141840Y-52218991D01*
X132148236Y-52240072D01*
X132151000Y-52268140D01*
X132151000Y-52731860D01*
X132148236Y-52759928D01*
X132141840Y-52781009D01*
X132131452Y-52800445D01*
X132117476Y-52817476D01*
X132100445Y-52831452D01*
X132081009Y-52841840D01*
X132059928Y-52848236D01*
X132031860Y-52851000D01*
X130618140Y-52851000D01*
X130590072Y-52848236D01*
X130568991Y-52841840D01*
X130549555Y-52831452D01*
X130532524Y-52817476D01*
X130518548Y-52800445D01*
X130508160Y-52781009D01*
X130501764Y-52759928D01*
X130499000Y-52731860D01*
X130499000Y-52268140D01*
X130501764Y-52240072D01*
X130508160Y-52218991D01*
X130518548Y-52199555D01*
X130532524Y-52182524D01*
X130549555Y-52168548D01*
X130568991Y-52158160D01*
X130590072Y-52151764D01*
X130618140Y-52149000D01*
X132031860Y-52149000D01*
X132059928Y-52151764D01*
X132059928Y-52151764D01*
G37*
G36*
X175576000Y-52141000D02*
G01*
X170874000Y-52141000D01*
X170874000Y-50939000D01*
X175576000Y-50939000D01*
X175576000Y-52141000D01*
X175576000Y-52141000D01*
G37*
G36*
X162101000Y-51906000D02*
G01*
X160499000Y-51906000D01*
X160499000Y-51204000D01*
X162101000Y-51204000D01*
X162101000Y-51906000D01*
X162101000Y-51906000D01*
G37*
G36*
X167501000Y-51906000D02*
G01*
X165899000Y-51906000D01*
X165899000Y-51204000D01*
X167501000Y-51204000D01*
X167501000Y-51906000D01*
X167501000Y-51906000D01*
G37*
G36*
X132059928Y-51151764D02*
G01*
X132081009Y-51158160D01*
X132100445Y-51168548D01*
X132117476Y-51182524D01*
X132131452Y-51199555D01*
X132141840Y-51218991D01*
X132148236Y-51240072D01*
X132151000Y-51268140D01*
X132151000Y-51731860D01*
X132148236Y-51759928D01*
X132141840Y-51781009D01*
X132131452Y-51800445D01*
X132117476Y-51817476D01*
X132100445Y-51831452D01*
X132081009Y-51841840D01*
X132059928Y-51848236D01*
X132031860Y-51851000D01*
X130618140Y-51851000D01*
X130590072Y-51848236D01*
X130568991Y-51841840D01*
X130549555Y-51831452D01*
X130532524Y-51817476D01*
X130518548Y-51800445D01*
X130508160Y-51781009D01*
X130501764Y-51759928D01*
X130499000Y-51731860D01*
X130499000Y-51268140D01*
X130501764Y-51240072D01*
X130508160Y-51218991D01*
X130518548Y-51199555D01*
X130532524Y-51182524D01*
X130549555Y-51168548D01*
X130568991Y-51158160D01*
X130590072Y-51151764D01*
X130618140Y-51149000D01*
X132031860Y-51149000D01*
X132059928Y-51151764D01*
X132059928Y-51151764D01*
G37*
G36*
X132059928Y-50151764D02*
G01*
X132081009Y-50158160D01*
X132100445Y-50168548D01*
X132117476Y-50182524D01*
X132131452Y-50199555D01*
X132141840Y-50218991D01*
X132148236Y-50240072D01*
X132151000Y-50268140D01*
X132151000Y-50731860D01*
X132148236Y-50759928D01*
X132141840Y-50781009D01*
X132131452Y-50800445D01*
X132117476Y-50817476D01*
X132100445Y-50831452D01*
X132081009Y-50841840D01*
X132059928Y-50848236D01*
X132031860Y-50851000D01*
X130618140Y-50851000D01*
X130590072Y-50848236D01*
X130568991Y-50841840D01*
X130549555Y-50831452D01*
X130532524Y-50817476D01*
X130518548Y-50800445D01*
X130508160Y-50781009D01*
X130501764Y-50759928D01*
X130499000Y-50731860D01*
X130499000Y-50268140D01*
X130501764Y-50240072D01*
X130508160Y-50218991D01*
X130518548Y-50199555D01*
X130532524Y-50182524D01*
X130549555Y-50168548D01*
X130568991Y-50158160D01*
X130590072Y-50151764D01*
X130618140Y-50149000D01*
X132031860Y-50149000D01*
X132059928Y-50151764D01*
X132059928Y-50151764D01*
G37*
G36*
X150110443Y-48645519D02*
G01*
X150176627Y-48652037D01*
X150346466Y-48703557D01*
X150502991Y-48787222D01*
X150519103Y-48800445D01*
X150640186Y-48899814D01*
X150723448Y-49001271D01*
X150752778Y-49037009D01*
X150752779Y-49037011D01*
X150819780Y-49162359D01*
X150836443Y-49193534D01*
X150887963Y-49363373D01*
X150905359Y-49540000D01*
X150887963Y-49716627D01*
X150836443Y-49886466D01*
X150752778Y-50042991D01*
X150723448Y-50078729D01*
X150640186Y-50180186D01*
X150546173Y-50257339D01*
X150502991Y-50292778D01*
X150346466Y-50376443D01*
X150176627Y-50427963D01*
X150110442Y-50434482D01*
X150044260Y-50441000D01*
X149955740Y-50441000D01*
X149889557Y-50434481D01*
X149823373Y-50427963D01*
X149653534Y-50376443D01*
X149497009Y-50292778D01*
X149453827Y-50257339D01*
X149359814Y-50180186D01*
X149276552Y-50078729D01*
X149247222Y-50042991D01*
X149163557Y-49886466D01*
X149112037Y-49716627D01*
X149094641Y-49540000D01*
X149112037Y-49363373D01*
X149163557Y-49193534D01*
X149180221Y-49162359D01*
X149247221Y-49037011D01*
X149247222Y-49037009D01*
X149276552Y-49001271D01*
X149359814Y-48899814D01*
X149480897Y-48800445D01*
X149497009Y-48787222D01*
X149653534Y-48703557D01*
X149823373Y-48652037D01*
X149889557Y-48645519D01*
X149955740Y-48639000D01*
X150044260Y-48639000D01*
X150110443Y-48645519D01*
X150110443Y-48645519D01*
G37*
G36*
X132059928Y-49151764D02*
G01*
X132081009Y-49158160D01*
X132100445Y-49168548D01*
X132117476Y-49182524D01*
X132131452Y-49199555D01*
X132141840Y-49218991D01*
X132148236Y-49240072D01*
X132151000Y-49268140D01*
X132151000Y-49731860D01*
X132148236Y-49759928D01*
X132141840Y-49781009D01*
X132131452Y-49800445D01*
X132117476Y-49817476D01*
X132100445Y-49831452D01*
X132081009Y-49841840D01*
X132059928Y-49848236D01*
X132031860Y-49851000D01*
X130618140Y-49851000D01*
X130590072Y-49848236D01*
X130568991Y-49841840D01*
X130549555Y-49831452D01*
X130532524Y-49817476D01*
X130518548Y-49800445D01*
X130508160Y-49781009D01*
X130501764Y-49759928D01*
X130499000Y-49731860D01*
X130499000Y-49268140D01*
X130501764Y-49240072D01*
X130508160Y-49218991D01*
X130518548Y-49199555D01*
X130532524Y-49182524D01*
X130549555Y-49168548D01*
X130568991Y-49158160D01*
X130590072Y-49151764D01*
X130618140Y-49149000D01*
X132031860Y-49149000D01*
X132059928Y-49151764D01*
X132059928Y-49151764D01*
G37*
G36*
X132059928Y-48151764D02*
G01*
X132081009Y-48158160D01*
X132100445Y-48168548D01*
X132117476Y-48182524D01*
X132131452Y-48199555D01*
X132141840Y-48218991D01*
X132148236Y-48240072D01*
X132151000Y-48268140D01*
X132151000Y-48731860D01*
X132148236Y-48759928D01*
X132141840Y-48781009D01*
X132131452Y-48800445D01*
X132117476Y-48817476D01*
X132100445Y-48831452D01*
X132081009Y-48841840D01*
X132059928Y-48848236D01*
X132031860Y-48851000D01*
X130618140Y-48851000D01*
X130590072Y-48848236D01*
X130568991Y-48841840D01*
X130549555Y-48831452D01*
X130532524Y-48817476D01*
X130518548Y-48800445D01*
X130508160Y-48781009D01*
X130501764Y-48759928D01*
X130499000Y-48731860D01*
X130499000Y-48268140D01*
X130501764Y-48240072D01*
X130508160Y-48218991D01*
X130518548Y-48199555D01*
X130532524Y-48182524D01*
X130549555Y-48168548D01*
X130568991Y-48158160D01*
X130590072Y-48151764D01*
X130618140Y-48149000D01*
X132031860Y-48149000D01*
X132059928Y-48151764D01*
X132059928Y-48151764D01*
G37*
G36*
X150110442Y-46105518D02*
G01*
X150176627Y-46112037D01*
X150346466Y-46163557D01*
X150502991Y-46247222D01*
X150538729Y-46276552D01*
X150640186Y-46359814D01*
X150723448Y-46461271D01*
X150752778Y-46497009D01*
X150836443Y-46653534D01*
X150887963Y-46823373D01*
X150905359Y-47000000D01*
X150887963Y-47176627D01*
X150836443Y-47346466D01*
X150752778Y-47502991D01*
X150723448Y-47538729D01*
X150640186Y-47640186D01*
X150555435Y-47709738D01*
X150502991Y-47752778D01*
X150502989Y-47752779D01*
X150355804Y-47831452D01*
X150346466Y-47836443D01*
X150176627Y-47887963D01*
X150110442Y-47894482D01*
X150044260Y-47901000D01*
X149955740Y-47901000D01*
X149889558Y-47894482D01*
X149823373Y-47887963D01*
X149653534Y-47836443D01*
X149644197Y-47831452D01*
X149497011Y-47752779D01*
X149497009Y-47752778D01*
X149444565Y-47709738D01*
X149359814Y-47640186D01*
X149276552Y-47538729D01*
X149247222Y-47502991D01*
X149163557Y-47346466D01*
X149112037Y-47176627D01*
X149094641Y-47000000D01*
X149112037Y-46823373D01*
X149163557Y-46653534D01*
X149247222Y-46497009D01*
X149276552Y-46461271D01*
X149359814Y-46359814D01*
X149461271Y-46276552D01*
X149497009Y-46247222D01*
X149653534Y-46163557D01*
X149823373Y-46112037D01*
X149889558Y-46105518D01*
X149955740Y-46099000D01*
X150044260Y-46099000D01*
X150110442Y-46105518D01*
X150110442Y-46105518D01*
G37*
G36*
X132059928Y-47151764D02*
G01*
X132081009Y-47158160D01*
X132100445Y-47168548D01*
X132117476Y-47182524D01*
X132131452Y-47199555D01*
X132141840Y-47218991D01*
X132148236Y-47240072D01*
X132151000Y-47268140D01*
X132151000Y-47731860D01*
X132148236Y-47759928D01*
X132141840Y-47781009D01*
X132131452Y-47800445D01*
X132117476Y-47817476D01*
X132100445Y-47831452D01*
X132081009Y-47841840D01*
X132059928Y-47848236D01*
X132031860Y-47851000D01*
X130618140Y-47851000D01*
X130590072Y-47848236D01*
X130568991Y-47841840D01*
X130549555Y-47831452D01*
X130532524Y-47817476D01*
X130518548Y-47800445D01*
X130508160Y-47781009D01*
X130501764Y-47759928D01*
X130499000Y-47731860D01*
X130499000Y-47268140D01*
X130501764Y-47240072D01*
X130508160Y-47218991D01*
X130518548Y-47199555D01*
X130532524Y-47182524D01*
X130549555Y-47168548D01*
X130568991Y-47158160D01*
X130590072Y-47151764D01*
X130618140Y-47149000D01*
X132031860Y-47149000D01*
X132059928Y-47151764D01*
X132059928Y-47151764D01*
G37*
G36*
X175576000Y-47061000D02*
G01*
X170874000Y-47061000D01*
X170874000Y-45859000D01*
X175576000Y-45859000D01*
X175576000Y-47061000D01*
X175576000Y-47061000D01*
G37*
G36*
X129591242Y-45553404D02*
G01*
X129628337Y-45564657D01*
X129662515Y-45582925D01*
X129692481Y-45607519D01*
X129717075Y-45637485D01*
X129735343Y-45671663D01*
X129746596Y-45708758D01*
X129751000Y-45753474D01*
X129751000Y-46646526D01*
X129746596Y-46691242D01*
X129735343Y-46728337D01*
X129717075Y-46762515D01*
X129692481Y-46792481D01*
X129662515Y-46817075D01*
X129628337Y-46835343D01*
X129591242Y-46846596D01*
X129546526Y-46851000D01*
X128053474Y-46851000D01*
X128008758Y-46846596D01*
X127971663Y-46835343D01*
X127937485Y-46817075D01*
X127907519Y-46792481D01*
X127882925Y-46762515D01*
X127864657Y-46728337D01*
X127853404Y-46691242D01*
X127849000Y-46646526D01*
X127849000Y-45753474D01*
X127853404Y-45708758D01*
X127864657Y-45671663D01*
X127882925Y-45637485D01*
X127907519Y-45607519D01*
X127937485Y-45582925D01*
X127971663Y-45564657D01*
X128008758Y-45553404D01*
X128053474Y-45549000D01*
X129546526Y-45549000D01*
X129591242Y-45553404D01*
X129591242Y-45553404D01*
G37*
G36*
X150901000Y-45361000D02*
G01*
X149099000Y-45361000D01*
X149099000Y-43559000D01*
X150901000Y-43559000D01*
X150901000Y-45361000D01*
X150901000Y-45361000D01*
G37*
G36*
X144110443Y-41185519D02*
G01*
X144176627Y-41192037D01*
X144346466Y-41243557D01*
X144502991Y-41327222D01*
X144538729Y-41356552D01*
X144640186Y-41439814D01*
X144723448Y-41541271D01*
X144752778Y-41577009D01*
X144836443Y-41733534D01*
X144887963Y-41903373D01*
X144905359Y-42080000D01*
X144887963Y-42256627D01*
X144836443Y-42426466D01*
X144752778Y-42582991D01*
X144723448Y-42618729D01*
X144640186Y-42720186D01*
X144538729Y-42803448D01*
X144502991Y-42832778D01*
X144346466Y-42916443D01*
X144176627Y-42967963D01*
X144110442Y-42974482D01*
X144044260Y-42981000D01*
X143955740Y-42981000D01*
X143889557Y-42974481D01*
X143823373Y-42967963D01*
X143653534Y-42916443D01*
X143497009Y-42832778D01*
X143461271Y-42803448D01*
X143359814Y-42720186D01*
X143276552Y-42618729D01*
X143247222Y-42582991D01*
X143163557Y-42426466D01*
X143112037Y-42256627D01*
X143094641Y-42080000D01*
X143112037Y-41903373D01*
X143163557Y-41733534D01*
X143247222Y-41577009D01*
X143276552Y-41541271D01*
X143359814Y-41439814D01*
X143461271Y-41356552D01*
X143497009Y-41327222D01*
X143653534Y-41243557D01*
X143823373Y-41192037D01*
X143889558Y-41185518D01*
X143955740Y-41179000D01*
X144044260Y-41179000D01*
X144110443Y-41185519D01*
X144110443Y-41185519D01*
G37*
G36*
X129591242Y-40153404D02*
G01*
X129628337Y-40164657D01*
X129662515Y-40182925D01*
X129692481Y-40207519D01*
X129717075Y-40237485D01*
X129735343Y-40271663D01*
X129746596Y-40308758D01*
X129751000Y-40353474D01*
X129751000Y-41246526D01*
X129746596Y-41291242D01*
X129735343Y-41328337D01*
X129717075Y-41362515D01*
X129692481Y-41392481D01*
X129662515Y-41417075D01*
X129628337Y-41435343D01*
X129591242Y-41446596D01*
X129546526Y-41451000D01*
X128053474Y-41451000D01*
X128008758Y-41446596D01*
X127971663Y-41435343D01*
X127937485Y-41417075D01*
X127907519Y-41392481D01*
X127882925Y-41362515D01*
X127864657Y-41328337D01*
X127853404Y-41291242D01*
X127849000Y-41246526D01*
X127849000Y-40353474D01*
X127853404Y-40308758D01*
X127864657Y-40271663D01*
X127882925Y-40237485D01*
X127907519Y-40207519D01*
X127937485Y-40182925D01*
X127971663Y-40164657D01*
X128008758Y-40153404D01*
X128053474Y-40149000D01*
X129546526Y-40149000D01*
X129591242Y-40153404D01*
X129591242Y-40153404D01*
G37*
G36*
X139681000Y-41326000D02*
G01*
X138519000Y-41326000D01*
X138519000Y-38674000D01*
X139681000Y-38674000D01*
X139681000Y-41326000D01*
X139681000Y-41326000D01*
G37*
G36*
X137481000Y-41326000D02*
G01*
X136319000Y-41326000D01*
X136319000Y-40574000D01*
X137481000Y-40574000D01*
X137481000Y-41326000D01*
X137481000Y-41326000D01*
G37*
G36*
X186142263Y-36527953D02*
G01*
X186519457Y-36642374D01*
X186763846Y-36773003D01*
X186867075Y-36828180D01*
X186890772Y-36847628D01*
X187171767Y-37078233D01*
X187318754Y-37257339D01*
X187421820Y-37382925D01*
X187421821Y-37382927D01*
X187607626Y-37730543D01*
X187722047Y-38107737D01*
X187760681Y-38500000D01*
X187722047Y-38892263D01*
X187607626Y-39269457D01*
X187523952Y-39426000D01*
X187421820Y-39617075D01*
X187373872Y-39675500D01*
X187171767Y-39921767D01*
X186946446Y-40106682D01*
X186867075Y-40171820D01*
X186867073Y-40171821D01*
X186519457Y-40357626D01*
X186142263Y-40472047D01*
X185848296Y-40501000D01*
X185651704Y-40501000D01*
X185357737Y-40472047D01*
X184980543Y-40357626D01*
X184632927Y-40171821D01*
X184632925Y-40171820D01*
X184553554Y-40106682D01*
X184328233Y-39921767D01*
X184126128Y-39675500D01*
X184078180Y-39617075D01*
X183976048Y-39426000D01*
X183892374Y-39269457D01*
X183777953Y-38892263D01*
X183739319Y-38500000D01*
X183777953Y-38107737D01*
X183892374Y-37730543D01*
X184078179Y-37382927D01*
X184078180Y-37382925D01*
X184181246Y-37257339D01*
X184328233Y-37078233D01*
X184609228Y-36847628D01*
X184632925Y-36828180D01*
X184736154Y-36773003D01*
X184980543Y-36642374D01*
X185357737Y-36527953D01*
X185651704Y-36499000D01*
X185848296Y-36499000D01*
X186142263Y-36527953D01*
X186142263Y-36527953D01*
G37*
G36*
X178642263Y-36527953D02*
G01*
X179019457Y-36642374D01*
X179263846Y-36773003D01*
X179367075Y-36828180D01*
X179390772Y-36847628D01*
X179671767Y-37078233D01*
X179818754Y-37257339D01*
X179921820Y-37382925D01*
X179921821Y-37382927D01*
X180107626Y-37730543D01*
X180222047Y-38107737D01*
X180260681Y-38500000D01*
X180222047Y-38892263D01*
X180107626Y-39269457D01*
X180023952Y-39426000D01*
X179921820Y-39617075D01*
X179873872Y-39675500D01*
X179671767Y-39921767D01*
X179446446Y-40106682D01*
X179367075Y-40171820D01*
X179367073Y-40171821D01*
X179019457Y-40357626D01*
X178642263Y-40472047D01*
X178348296Y-40501000D01*
X178151704Y-40501000D01*
X177857737Y-40472047D01*
X177480543Y-40357626D01*
X177132927Y-40171821D01*
X177132925Y-40171820D01*
X177053554Y-40106682D01*
X176828233Y-39921767D01*
X176626128Y-39675500D01*
X176578180Y-39617075D01*
X176476048Y-39426000D01*
X176392374Y-39269457D01*
X176277953Y-38892263D01*
X176239319Y-38500000D01*
X176277953Y-38107737D01*
X176392374Y-37730543D01*
X176578179Y-37382927D01*
X176578180Y-37382925D01*
X176681246Y-37257339D01*
X176828233Y-37078233D01*
X177109228Y-36847628D01*
X177132925Y-36828180D01*
X177236154Y-36773003D01*
X177480543Y-36642374D01*
X177857737Y-36527953D01*
X178151704Y-36499000D01*
X178348296Y-36499000D01*
X178642263Y-36527953D01*
X178642263Y-36527953D01*
G37*
G36*
X161142263Y-36527953D02*
G01*
X161519457Y-36642374D01*
X161763846Y-36773003D01*
X161867075Y-36828180D01*
X161890772Y-36847628D01*
X162171767Y-37078233D01*
X162318754Y-37257339D01*
X162421820Y-37382925D01*
X162421821Y-37382927D01*
X162607626Y-37730543D01*
X162722047Y-38107737D01*
X162760681Y-38500000D01*
X162722047Y-38892263D01*
X162607626Y-39269457D01*
X162523952Y-39426000D01*
X162421820Y-39617075D01*
X162373872Y-39675500D01*
X162171767Y-39921767D01*
X161946446Y-40106682D01*
X161867075Y-40171820D01*
X161867073Y-40171821D01*
X161519457Y-40357626D01*
X161142263Y-40472047D01*
X160848296Y-40501000D01*
X160651704Y-40501000D01*
X160357737Y-40472047D01*
X159980543Y-40357626D01*
X159632927Y-40171821D01*
X159632925Y-40171820D01*
X159553554Y-40106682D01*
X159328233Y-39921767D01*
X159126128Y-39675500D01*
X159078180Y-39617075D01*
X158976048Y-39426000D01*
X158892374Y-39269457D01*
X158777953Y-38892263D01*
X158739319Y-38500000D01*
X158777953Y-38107737D01*
X158892374Y-37730543D01*
X159078179Y-37382927D01*
X159078180Y-37382925D01*
X159181246Y-37257339D01*
X159328233Y-37078233D01*
X159609228Y-36847628D01*
X159632925Y-36828180D01*
X159736154Y-36773003D01*
X159980543Y-36642374D01*
X160357737Y-36527953D01*
X160651704Y-36499000D01*
X160848296Y-36499000D01*
X161142263Y-36527953D01*
X161142263Y-36527953D01*
G37*
G36*
X153642263Y-36527953D02*
G01*
X154019457Y-36642374D01*
X154263846Y-36773003D01*
X154367075Y-36828180D01*
X154390772Y-36847628D01*
X154671767Y-37078233D01*
X154818754Y-37257339D01*
X154921820Y-37382925D01*
X154921821Y-37382927D01*
X155107626Y-37730543D01*
X155222047Y-38107737D01*
X155260681Y-38500000D01*
X155222047Y-38892263D01*
X155107626Y-39269457D01*
X155023952Y-39426000D01*
X154921820Y-39617075D01*
X154873872Y-39675500D01*
X154671767Y-39921767D01*
X154446446Y-40106682D01*
X154367075Y-40171820D01*
X154367073Y-40171821D01*
X154019457Y-40357626D01*
X153642263Y-40472047D01*
X153348296Y-40501000D01*
X153151704Y-40501000D01*
X152857737Y-40472047D01*
X152480543Y-40357626D01*
X152132927Y-40171821D01*
X152132925Y-40171820D01*
X152053554Y-40106682D01*
X151828233Y-39921767D01*
X151626128Y-39675500D01*
X151578180Y-39617075D01*
X151476048Y-39426000D01*
X151392374Y-39269457D01*
X151277953Y-38892263D01*
X151239319Y-38500000D01*
X151277953Y-38107737D01*
X151392374Y-37730543D01*
X151578179Y-37382927D01*
X151578180Y-37382925D01*
X151681246Y-37257339D01*
X151828233Y-37078233D01*
X152109228Y-36847628D01*
X152132925Y-36828180D01*
X152236154Y-36773003D01*
X152480543Y-36642374D01*
X152857737Y-36527953D01*
X153151704Y-36499000D01*
X153348296Y-36499000D01*
X153642263Y-36527953D01*
X153642263Y-36527953D01*
G37*
G36*
X144110443Y-38645519D02*
G01*
X144176627Y-38652037D01*
X144346466Y-38703557D01*
X144502991Y-38787222D01*
X144519103Y-38800445D01*
X144640186Y-38899814D01*
X144723448Y-39001271D01*
X144752778Y-39037009D01*
X144752779Y-39037011D01*
X144819780Y-39162359D01*
X144836443Y-39193534D01*
X144887963Y-39363373D01*
X144905359Y-39540000D01*
X144887963Y-39716627D01*
X144836443Y-39886466D01*
X144752778Y-40042991D01*
X144723448Y-40078729D01*
X144640186Y-40180186D01*
X144538729Y-40263448D01*
X144502991Y-40292778D01*
X144346466Y-40376443D01*
X144176627Y-40427963D01*
X144110442Y-40434482D01*
X144044260Y-40441000D01*
X143955740Y-40441000D01*
X143889558Y-40434482D01*
X143823373Y-40427963D01*
X143653534Y-40376443D01*
X143497009Y-40292778D01*
X143461271Y-40263448D01*
X143359814Y-40180186D01*
X143276552Y-40078729D01*
X143247222Y-40042991D01*
X143163557Y-39886466D01*
X143112037Y-39716627D01*
X143094641Y-39540000D01*
X143112037Y-39363373D01*
X143163557Y-39193534D01*
X143180221Y-39162359D01*
X143247221Y-39037011D01*
X143247222Y-39037009D01*
X143276552Y-39001271D01*
X143359814Y-38899814D01*
X143480897Y-38800445D01*
X143497009Y-38787222D01*
X143653534Y-38703557D01*
X143823373Y-38652037D01*
X143889557Y-38645519D01*
X143955740Y-38639000D01*
X144044260Y-38639000D01*
X144110443Y-38645519D01*
X144110443Y-38645519D01*
G37*
G36*
X132059928Y-39151764D02*
G01*
X132081009Y-39158160D01*
X132100445Y-39168548D01*
X132117476Y-39182524D01*
X132131452Y-39199555D01*
X132141840Y-39218991D01*
X132148236Y-39240072D01*
X132151000Y-39268140D01*
X132151000Y-39731860D01*
X132148236Y-39759928D01*
X132141840Y-39781009D01*
X132131452Y-39800445D01*
X132117476Y-39817476D01*
X132100445Y-39831452D01*
X132081009Y-39841840D01*
X132059928Y-39848236D01*
X132031860Y-39851000D01*
X130618140Y-39851000D01*
X130590072Y-39848236D01*
X130568991Y-39841840D01*
X130549555Y-39831452D01*
X130532524Y-39817476D01*
X130518548Y-39800445D01*
X130508160Y-39781009D01*
X130501764Y-39759928D01*
X130499000Y-39731860D01*
X130499000Y-39268140D01*
X130501764Y-39240072D01*
X130508160Y-39218991D01*
X130518548Y-39199555D01*
X130532524Y-39182524D01*
X130549555Y-39168548D01*
X130568991Y-39158160D01*
X130590072Y-39151764D01*
X130618140Y-39149000D01*
X132031860Y-39149000D01*
X132059928Y-39151764D01*
X132059928Y-39151764D01*
G37*
G36*
X137481000Y-39426000D02*
G01*
X136319000Y-39426000D01*
X136319000Y-38674000D01*
X137481000Y-38674000D01*
X137481000Y-39426000D01*
X137481000Y-39426000D01*
G37*
G36*
X132059928Y-38151764D02*
G01*
X132081009Y-38158160D01*
X132100445Y-38168548D01*
X132117476Y-38182524D01*
X132131452Y-38199555D01*
X132141840Y-38218991D01*
X132148236Y-38240072D01*
X132151000Y-38268140D01*
X132151000Y-38731860D01*
X132148236Y-38759928D01*
X132141840Y-38781009D01*
X132131452Y-38800445D01*
X132117476Y-38817476D01*
X132100445Y-38831452D01*
X132081009Y-38841840D01*
X132059928Y-38848236D01*
X132031860Y-38851000D01*
X130618140Y-38851000D01*
X130590072Y-38848236D01*
X130568991Y-38841840D01*
X130549555Y-38831452D01*
X130532524Y-38817476D01*
X130518548Y-38800445D01*
X130508160Y-38781009D01*
X130501764Y-38759928D01*
X130499000Y-38731860D01*
X130499000Y-38268140D01*
X130501764Y-38240072D01*
X130508160Y-38218991D01*
X130518548Y-38199555D01*
X130532524Y-38182524D01*
X130549555Y-38168548D01*
X130568991Y-38158160D01*
X130590072Y-38151764D01*
X130618140Y-38149000D01*
X132031860Y-38149000D01*
X132059928Y-38151764D01*
X132059928Y-38151764D01*
G37*
G36*
X144110442Y-36105518D02*
G01*
X144176627Y-36112037D01*
X144346466Y-36163557D01*
X144346468Y-36163558D01*
X144424729Y-36205390D01*
X144502991Y-36247222D01*
X144528479Y-36268140D01*
X144640186Y-36359814D01*
X144723448Y-36461271D01*
X144752778Y-36497009D01*
X144836443Y-36653534D01*
X144887963Y-36823373D01*
X144905359Y-37000000D01*
X144887963Y-37176627D01*
X144836443Y-37346466D01*
X144752778Y-37502991D01*
X144723448Y-37538729D01*
X144640186Y-37640186D01*
X144555435Y-37709738D01*
X144502991Y-37752778D01*
X144502989Y-37752779D01*
X144355804Y-37831452D01*
X144346466Y-37836443D01*
X144176627Y-37887963D01*
X144110443Y-37894481D01*
X144044260Y-37901000D01*
X143955740Y-37901000D01*
X143889557Y-37894481D01*
X143823373Y-37887963D01*
X143653534Y-37836443D01*
X143644197Y-37831452D01*
X143497011Y-37752779D01*
X143497009Y-37752778D01*
X143444565Y-37709738D01*
X143359814Y-37640186D01*
X143276552Y-37538729D01*
X143247222Y-37502991D01*
X143163557Y-37346466D01*
X143112037Y-37176627D01*
X143094641Y-37000000D01*
X143112037Y-36823373D01*
X143163557Y-36653534D01*
X143247222Y-36497009D01*
X143276552Y-36461271D01*
X143359814Y-36359814D01*
X143471521Y-36268140D01*
X143497009Y-36247222D01*
X143575271Y-36205390D01*
X143653532Y-36163558D01*
X143653534Y-36163557D01*
X143823373Y-36112037D01*
X143889558Y-36105518D01*
X143955740Y-36099000D01*
X144044260Y-36099000D01*
X144110442Y-36105518D01*
X144110442Y-36105518D01*
G37*
G36*
X132059928Y-37151764D02*
G01*
X132081009Y-37158160D01*
X132100445Y-37168548D01*
X132117476Y-37182524D01*
X132131452Y-37199555D01*
X132141840Y-37218991D01*
X132148236Y-37240072D01*
X132151000Y-37268140D01*
X132151000Y-37731860D01*
X132148236Y-37759928D01*
X132141840Y-37781009D01*
X132131452Y-37800445D01*
X132117476Y-37817476D01*
X132100445Y-37831452D01*
X132081009Y-37841840D01*
X132059928Y-37848236D01*
X132031860Y-37851000D01*
X130618140Y-37851000D01*
X130590072Y-37848236D01*
X130568991Y-37841840D01*
X130549555Y-37831452D01*
X130532524Y-37817476D01*
X130518548Y-37800445D01*
X130508160Y-37781009D01*
X130501764Y-37759928D01*
X130499000Y-37731860D01*
X130499000Y-37268140D01*
X130501764Y-37240072D01*
X130508160Y-37218991D01*
X130518548Y-37199555D01*
X130532524Y-37182524D01*
X130549555Y-37168548D01*
X130568991Y-37158160D01*
X130590072Y-37151764D01*
X130618140Y-37149000D01*
X132031860Y-37149000D01*
X132059928Y-37151764D01*
X132059928Y-37151764D01*
G37*
G36*
X132059928Y-36151764D02*
G01*
X132081009Y-36158160D01*
X132100445Y-36168548D01*
X132117476Y-36182524D01*
X132131452Y-36199555D01*
X132141840Y-36218991D01*
X132148236Y-36240072D01*
X132151000Y-36268140D01*
X132151000Y-36731860D01*
X132148236Y-36759928D01*
X132141840Y-36781009D01*
X132131452Y-36800445D01*
X132117476Y-36817476D01*
X132100445Y-36831452D01*
X132081009Y-36841840D01*
X132059928Y-36848236D01*
X132031860Y-36851000D01*
X130618140Y-36851000D01*
X130590072Y-36848236D01*
X130568991Y-36841840D01*
X130549555Y-36831452D01*
X130532524Y-36817476D01*
X130518548Y-36800445D01*
X130508160Y-36781009D01*
X130501764Y-36759928D01*
X130499000Y-36731860D01*
X130499000Y-36268140D01*
X130501764Y-36240072D01*
X130508160Y-36218991D01*
X130518548Y-36199555D01*
X130532524Y-36182524D01*
X130549555Y-36168548D01*
X130568991Y-36158160D01*
X130590072Y-36151764D01*
X130618140Y-36149000D01*
X132031860Y-36149000D01*
X132059928Y-36151764D01*
X132059928Y-36151764D01*
G37*
G36*
X132059928Y-35151764D02*
G01*
X132081009Y-35158160D01*
X132100445Y-35168548D01*
X132117476Y-35182524D01*
X132131452Y-35199555D01*
X132141840Y-35218991D01*
X132148236Y-35240072D01*
X132151000Y-35268140D01*
X132151000Y-35731860D01*
X132148236Y-35759928D01*
X132141840Y-35781009D01*
X132131452Y-35800445D01*
X132117476Y-35817476D01*
X132100445Y-35831452D01*
X132081009Y-35841840D01*
X132059928Y-35848236D01*
X132031860Y-35851000D01*
X130618140Y-35851000D01*
X130590072Y-35848236D01*
X130568991Y-35841840D01*
X130549555Y-35831452D01*
X130532524Y-35817476D01*
X130518548Y-35800445D01*
X130508160Y-35781009D01*
X130501764Y-35759928D01*
X130499000Y-35731860D01*
X130499000Y-35268140D01*
X130501764Y-35240072D01*
X130508160Y-35218991D01*
X130518548Y-35199555D01*
X130532524Y-35182524D01*
X130549555Y-35168548D01*
X130568991Y-35158160D01*
X130590072Y-35151764D01*
X130618140Y-35149000D01*
X132031860Y-35149000D01*
X132059928Y-35151764D01*
X132059928Y-35151764D01*
G37*
G36*
X153642263Y-31527953D02*
G01*
X154019457Y-31642374D01*
X154331399Y-31809111D01*
X154367075Y-31828180D01*
X154446446Y-31893318D01*
X154671767Y-32078233D01*
X154856682Y-32303554D01*
X154921820Y-32382925D01*
X154921821Y-32382927D01*
X155107626Y-32730543D01*
X155222047Y-33107737D01*
X155260681Y-33500000D01*
X155222047Y-33892263D01*
X155107626Y-34269457D01*
X155005778Y-34460000D01*
X154921820Y-34617075D01*
X154905774Y-34636627D01*
X154671767Y-34921767D01*
X154454362Y-35100185D01*
X154367075Y-35171820D01*
X154347049Y-35182524D01*
X154019457Y-35357626D01*
X154019454Y-35357627D01*
X153976319Y-35370712D01*
X153642263Y-35472047D01*
X153348296Y-35501000D01*
X153151704Y-35501000D01*
X152857737Y-35472047D01*
X152523681Y-35370712D01*
X152480546Y-35357627D01*
X152480543Y-35357626D01*
X152152951Y-35182524D01*
X152132925Y-35171820D01*
X152045638Y-35100185D01*
X151828233Y-34921767D01*
X151594226Y-34636627D01*
X151578180Y-34617075D01*
X151494222Y-34460000D01*
X151392374Y-34269457D01*
X151277953Y-33892263D01*
X151239319Y-33500000D01*
X151277953Y-33107737D01*
X151392374Y-32730543D01*
X151578179Y-32382927D01*
X151578180Y-32382925D01*
X151643318Y-32303554D01*
X151828233Y-32078233D01*
X152053554Y-31893318D01*
X152132925Y-31828180D01*
X152168601Y-31809111D01*
X152480543Y-31642374D01*
X152857737Y-31527953D01*
X153151704Y-31499000D01*
X153348296Y-31499000D01*
X153642263Y-31527953D01*
X153642263Y-31527953D01*
G37*
G36*
X161142263Y-31527953D02*
G01*
X161519457Y-31642374D01*
X161831399Y-31809111D01*
X161867075Y-31828180D01*
X161946446Y-31893318D01*
X162171767Y-32078233D01*
X162356682Y-32303554D01*
X162421820Y-32382925D01*
X162421821Y-32382927D01*
X162607626Y-32730543D01*
X162722047Y-33107737D01*
X162760681Y-33500000D01*
X162722047Y-33892263D01*
X162607626Y-34269457D01*
X162505778Y-34460000D01*
X162421820Y-34617075D01*
X162405774Y-34636627D01*
X162171767Y-34921767D01*
X161954362Y-35100185D01*
X161867075Y-35171820D01*
X161847049Y-35182524D01*
X161519457Y-35357626D01*
X161519454Y-35357627D01*
X161476319Y-35370712D01*
X161142263Y-35472047D01*
X160848296Y-35501000D01*
X160651704Y-35501000D01*
X160357737Y-35472047D01*
X160023681Y-35370712D01*
X159980546Y-35357627D01*
X159980543Y-35357626D01*
X159652951Y-35182524D01*
X159632925Y-35171820D01*
X159545638Y-35100185D01*
X159328233Y-34921767D01*
X159094226Y-34636627D01*
X159078180Y-34617075D01*
X158994222Y-34460000D01*
X158892374Y-34269457D01*
X158777953Y-33892263D01*
X158739319Y-33500000D01*
X158777953Y-33107737D01*
X158892374Y-32730543D01*
X159078179Y-32382927D01*
X159078180Y-32382925D01*
X159143318Y-32303554D01*
X159328233Y-32078233D01*
X159553554Y-31893318D01*
X159632925Y-31828180D01*
X159668601Y-31809111D01*
X159980543Y-31642374D01*
X160357737Y-31527953D01*
X160651704Y-31499000D01*
X160848296Y-31499000D01*
X161142263Y-31527953D01*
X161142263Y-31527953D01*
G37*
G36*
X186142263Y-31527953D02*
G01*
X186519457Y-31642374D01*
X186831399Y-31809111D01*
X186867075Y-31828180D01*
X186946446Y-31893318D01*
X187171767Y-32078233D01*
X187356682Y-32303554D01*
X187421820Y-32382925D01*
X187421821Y-32382927D01*
X187607626Y-32730543D01*
X187722047Y-33107737D01*
X187760681Y-33500000D01*
X187722047Y-33892263D01*
X187607626Y-34269457D01*
X187505778Y-34460000D01*
X187421820Y-34617075D01*
X187405774Y-34636627D01*
X187171767Y-34921767D01*
X186954362Y-35100185D01*
X186867075Y-35171820D01*
X186847049Y-35182524D01*
X186519457Y-35357626D01*
X186519454Y-35357627D01*
X186476319Y-35370712D01*
X186142263Y-35472047D01*
X185848296Y-35501000D01*
X185651704Y-35501000D01*
X185357737Y-35472047D01*
X185023681Y-35370712D01*
X184980546Y-35357627D01*
X184980543Y-35357626D01*
X184652951Y-35182524D01*
X184632925Y-35171820D01*
X184545638Y-35100185D01*
X184328233Y-34921767D01*
X184094226Y-34636627D01*
X184078180Y-34617075D01*
X183994222Y-34460000D01*
X183892374Y-34269457D01*
X183777953Y-33892263D01*
X183739319Y-33500000D01*
X183777953Y-33107737D01*
X183892374Y-32730543D01*
X184078179Y-32382927D01*
X184078180Y-32382925D01*
X184143318Y-32303554D01*
X184328233Y-32078233D01*
X184553554Y-31893318D01*
X184632925Y-31828180D01*
X184668601Y-31809111D01*
X184980543Y-31642374D01*
X185357737Y-31527953D01*
X185651704Y-31499000D01*
X185848296Y-31499000D01*
X186142263Y-31527953D01*
X186142263Y-31527953D01*
G37*
G36*
X178642263Y-31527953D02*
G01*
X179019457Y-31642374D01*
X179331399Y-31809111D01*
X179367075Y-31828180D01*
X179446446Y-31893318D01*
X179671767Y-32078233D01*
X179856682Y-32303554D01*
X179921820Y-32382925D01*
X179921821Y-32382927D01*
X180107626Y-32730543D01*
X180222047Y-33107737D01*
X180260681Y-33500000D01*
X180222047Y-33892263D01*
X180107626Y-34269457D01*
X180005778Y-34460000D01*
X179921820Y-34617075D01*
X179905774Y-34636627D01*
X179671767Y-34921767D01*
X179454362Y-35100185D01*
X179367075Y-35171820D01*
X179347049Y-35182524D01*
X179019457Y-35357626D01*
X179019454Y-35357627D01*
X178976319Y-35370712D01*
X178642263Y-35472047D01*
X178348296Y-35501000D01*
X178151704Y-35501000D01*
X177857737Y-35472047D01*
X177523681Y-35370712D01*
X177480546Y-35357627D01*
X177480543Y-35357626D01*
X177152951Y-35182524D01*
X177132925Y-35171820D01*
X177045638Y-35100185D01*
X176828233Y-34921767D01*
X176594226Y-34636627D01*
X176578180Y-34617075D01*
X176494222Y-34460000D01*
X176392374Y-34269457D01*
X176277953Y-33892263D01*
X176239319Y-33500000D01*
X176277953Y-33107737D01*
X176392374Y-32730543D01*
X176578179Y-32382927D01*
X176578180Y-32382925D01*
X176643318Y-32303554D01*
X176828233Y-32078233D01*
X177053554Y-31893318D01*
X177132925Y-31828180D01*
X177168601Y-31809111D01*
X177480543Y-31642374D01*
X177857737Y-31527953D01*
X178151704Y-31499000D01*
X178348296Y-31499000D01*
X178642263Y-31527953D01*
X178642263Y-31527953D01*
G37*
G36*
X144110443Y-33565519D02*
G01*
X144176627Y-33572037D01*
X144346466Y-33623557D01*
X144502991Y-33707222D01*
X144531293Y-33730449D01*
X144640186Y-33819814D01*
X144699642Y-33892263D01*
X144752778Y-33957009D01*
X144836443Y-34113534D01*
X144887963Y-34283373D01*
X144905359Y-34460000D01*
X144887963Y-34636627D01*
X144838269Y-34800445D01*
X144836442Y-34806468D01*
X144817535Y-34841840D01*
X144752778Y-34962991D01*
X144723448Y-34998729D01*
X144640186Y-35100186D01*
X144556885Y-35168548D01*
X144502991Y-35212778D01*
X144346466Y-35296443D01*
X144176627Y-35347963D01*
X144110442Y-35354482D01*
X144044260Y-35361000D01*
X143955740Y-35361000D01*
X143889558Y-35354482D01*
X143823373Y-35347963D01*
X143653534Y-35296443D01*
X143497009Y-35212778D01*
X143443115Y-35168548D01*
X143359814Y-35100186D01*
X143276552Y-34998729D01*
X143247222Y-34962991D01*
X143182465Y-34841840D01*
X143163558Y-34806468D01*
X143161731Y-34800445D01*
X143112037Y-34636627D01*
X143094641Y-34460000D01*
X143112037Y-34283373D01*
X143163557Y-34113534D01*
X143247222Y-33957009D01*
X143300358Y-33892263D01*
X143359814Y-33819814D01*
X143468707Y-33730449D01*
X143497009Y-33707222D01*
X143653534Y-33623557D01*
X143823373Y-33572037D01*
X143889557Y-33565519D01*
X143955740Y-33559000D01*
X144044260Y-33559000D01*
X144110443Y-33565519D01*
X144110443Y-33565519D01*
G37*
G36*
X132059928Y-34151764D02*
G01*
X132081009Y-34158160D01*
X132100445Y-34168548D01*
X132117476Y-34182524D01*
X132131452Y-34199555D01*
X132141840Y-34218991D01*
X132148236Y-34240072D01*
X132151000Y-34268140D01*
X132151000Y-34731860D01*
X132148236Y-34759928D01*
X132141840Y-34781009D01*
X132131452Y-34800445D01*
X132117476Y-34817476D01*
X132100445Y-34831452D01*
X132081009Y-34841840D01*
X132059928Y-34848236D01*
X132031860Y-34851000D01*
X130618140Y-34851000D01*
X130590072Y-34848236D01*
X130568991Y-34841840D01*
X130549555Y-34831452D01*
X130532524Y-34817476D01*
X130518548Y-34800445D01*
X130508160Y-34781009D01*
X130501764Y-34759928D01*
X130499000Y-34731860D01*
X130499000Y-34268140D01*
X130501764Y-34240072D01*
X130508160Y-34218991D01*
X130518548Y-34199555D01*
X130532524Y-34182524D01*
X130549555Y-34168548D01*
X130568991Y-34158160D01*
X130590072Y-34151764D01*
X130618140Y-34149000D01*
X132031860Y-34149000D01*
X132059928Y-34151764D01*
X132059928Y-34151764D01*
G37*
G36*
X129591242Y-32553404D02*
G01*
X129628337Y-32564657D01*
X129662515Y-32582925D01*
X129692481Y-32607519D01*
X129717075Y-32637485D01*
X129735343Y-32671663D01*
X129746596Y-32708758D01*
X129751000Y-32753474D01*
X129751000Y-33646526D01*
X129746596Y-33691242D01*
X129735343Y-33728337D01*
X129717075Y-33762515D01*
X129692481Y-33792481D01*
X129662515Y-33817075D01*
X129628337Y-33835343D01*
X129591242Y-33846596D01*
X129546526Y-33851000D01*
X128053474Y-33851000D01*
X128008758Y-33846596D01*
X127971663Y-33835343D01*
X127937485Y-33817075D01*
X127907519Y-33792481D01*
X127882925Y-33762515D01*
X127864657Y-33728337D01*
X127853404Y-33691242D01*
X127849000Y-33646526D01*
X127849000Y-32753474D01*
X127853404Y-32708758D01*
X127864657Y-32671663D01*
X127882925Y-32637485D01*
X127907519Y-32607519D01*
X127937485Y-32582925D01*
X127971663Y-32564657D01*
X128008758Y-32553404D01*
X128053474Y-32549000D01*
X129546526Y-32549000D01*
X129591242Y-32553404D01*
X129591242Y-32553404D01*
G37*
G36*
X144901000Y-32821000D02*
G01*
X143099000Y-32821000D01*
X143099000Y-31019000D01*
X144901000Y-31019000D01*
X144901000Y-32821000D01*
X144901000Y-32821000D01*
G37*
M02*
