G04 #@! TF.GenerationSoftware,KiCad,Pcbnew,(6.0.7)*
G04 #@! TF.CreationDate,2023-01-27T22:08:51-08:00*
G04 #@! TF.ProjectId,FcmlPanel,46636d6c-5061-46e6-956c-2e6b69636164,rev?*
G04 #@! TF.SameCoordinates,Original*
G04 #@! TF.FileFunction,Legend,Bot*
G04 #@! TF.FilePolarity,Positive*
%FSLAX46Y46*%
G04 Gerber Fmt 4.6, Leading zero omitted, Abs format (unit mm)*
G04 Created by KiCad (PCBNEW (6.0.7)) date 2023-01-27 22:08:51*
%MOMM*%
%LPD*%
G01*
G04 APERTURE LIST*
%ADD10C,0.150000*%
%ADD11C,0.100000*%
G04 APERTURE END LIST*
D10*
X116681428Y-133333333D02*
X116681428Y-133600000D01*
X116157619Y-133600000D02*
X117157619Y-133600000D01*
X117157619Y-133219047D01*
X117157619Y-133028571D02*
X117157619Y-132571428D01*
X116157619Y-132800000D02*
X117157619Y-132800000D01*
X117062380Y-132342857D02*
X117110000Y-132304761D01*
X117157619Y-132228571D01*
X117157619Y-132038095D01*
X117110000Y-131961904D01*
X117062380Y-131923809D01*
X116967142Y-131885714D01*
X116871904Y-131885714D01*
X116729047Y-131923809D01*
X116157619Y-132380952D01*
X116157619Y-131885714D01*
X117157619Y-131619047D02*
X117157619Y-131123809D01*
X116776666Y-131390476D01*
X116776666Y-131276190D01*
X116729047Y-131200000D01*
X116681428Y-131161904D01*
X116586190Y-131123809D01*
X116348095Y-131123809D01*
X116252857Y-131161904D01*
X116205238Y-131200000D01*
X116157619Y-131276190D01*
X116157619Y-131504761D01*
X116205238Y-131580952D01*
X116252857Y-131619047D01*
X117062380Y-130819047D02*
X117110000Y-130780952D01*
X117157619Y-130704761D01*
X117157619Y-130514285D01*
X117110000Y-130438095D01*
X117062380Y-130400000D01*
X116967142Y-130361904D01*
X116871904Y-130361904D01*
X116729047Y-130400000D01*
X116157619Y-130857142D01*
X116157619Y-130361904D01*
X115071428Y-134704761D02*
X115071428Y-134971428D01*
X114547619Y-134971428D02*
X115547619Y-134971428D01*
X115547619Y-134590476D01*
X114547619Y-134285714D02*
X115547619Y-134285714D01*
X115547619Y-133980952D01*
X115500000Y-133904761D01*
X115452380Y-133866666D01*
X115357142Y-133828571D01*
X115214285Y-133828571D01*
X115119047Y-133866666D01*
X115071428Y-133904761D01*
X115023809Y-133980952D01*
X115023809Y-134285714D01*
X115500000Y-133066666D02*
X115547619Y-133142857D01*
X115547619Y-133257142D01*
X115500000Y-133371428D01*
X115404761Y-133447619D01*
X115309523Y-133485714D01*
X115119047Y-133523809D01*
X114976190Y-133523809D01*
X114785714Y-133485714D01*
X114690476Y-133447619D01*
X114595238Y-133371428D01*
X114547619Y-133257142D01*
X114547619Y-133180952D01*
X114595238Y-133066666D01*
X114642857Y-133028571D01*
X114976190Y-133028571D01*
X114976190Y-133180952D01*
X114833333Y-132723809D02*
X114833333Y-132342857D01*
X114547619Y-132800000D02*
X115547619Y-132533333D01*
X114547619Y-132266666D01*
X114547619Y-131390476D02*
X115547619Y-131390476D01*
X115547619Y-131085714D01*
X115500000Y-131009523D01*
X115452380Y-130971428D01*
X115357142Y-130933333D01*
X115214285Y-130933333D01*
X115119047Y-130971428D01*
X115071428Y-131009523D01*
X115023809Y-131085714D01*
X115023809Y-131390476D01*
X114547619Y-130590476D02*
X115214285Y-130590476D01*
X115023809Y-130590476D02*
X115119047Y-130552380D01*
X115166666Y-130514285D01*
X115214285Y-130438095D01*
X115214285Y-130361904D01*
X114547619Y-129980952D02*
X114595238Y-130057142D01*
X114642857Y-130095238D01*
X114738095Y-130133333D01*
X115023809Y-130133333D01*
X115119047Y-130095238D01*
X115166666Y-130057142D01*
X115214285Y-129980952D01*
X115214285Y-129866666D01*
X115166666Y-129790476D01*
X115119047Y-129752380D01*
X115023809Y-129714285D01*
X114738095Y-129714285D01*
X114642857Y-129752380D01*
X114595238Y-129790476D01*
X114547619Y-129866666D01*
X114547619Y-129980952D01*
X115214285Y-129028571D02*
X114404761Y-129028571D01*
X114309523Y-129066666D01*
X114261904Y-129104761D01*
X114214285Y-129180952D01*
X114214285Y-129295238D01*
X114261904Y-129371428D01*
X114595238Y-129028571D02*
X114547619Y-129104761D01*
X114547619Y-129257142D01*
X114595238Y-129333333D01*
X114642857Y-129371428D01*
X114738095Y-129409523D01*
X115023809Y-129409523D01*
X115119047Y-129371428D01*
X115166666Y-129333333D01*
X115214285Y-129257142D01*
X115214285Y-129104761D01*
X115166666Y-129028571D01*
X113937619Y-133866666D02*
X113223333Y-133866666D01*
X113080476Y-133904761D01*
X112985238Y-133980952D01*
X112937619Y-134095238D01*
X112937619Y-134171428D01*
X112937619Y-133142857D02*
X113461428Y-133142857D01*
X113556666Y-133180952D01*
X113604285Y-133257142D01*
X113604285Y-133409523D01*
X113556666Y-133485714D01*
X112985238Y-133142857D02*
X112937619Y-133219047D01*
X112937619Y-133409523D01*
X112985238Y-133485714D01*
X113080476Y-133523809D01*
X113175714Y-133523809D01*
X113270952Y-133485714D01*
X113318571Y-133409523D01*
X113318571Y-133219047D01*
X113366190Y-133142857D01*
X113604285Y-132761904D02*
X112937619Y-132761904D01*
X113509047Y-132761904D02*
X113556666Y-132723809D01*
X113604285Y-132647619D01*
X113604285Y-132533333D01*
X113556666Y-132457142D01*
X113461428Y-132419047D01*
X112937619Y-132419047D01*
X113937619Y-131390476D02*
X113747142Y-131466666D01*
X113842380Y-131085714D02*
X113890000Y-131047619D01*
X113937619Y-130971428D01*
X113937619Y-130780952D01*
X113890000Y-130704761D01*
X113842380Y-130666666D01*
X113747142Y-130628571D01*
X113651904Y-130628571D01*
X113509047Y-130666666D01*
X112937619Y-131123809D01*
X112937619Y-130628571D01*
X113937619Y-130361904D02*
X113937619Y-129866666D01*
X113556666Y-130133333D01*
X113556666Y-130019047D01*
X113509047Y-129942857D01*
X113461428Y-129904761D01*
X113366190Y-129866666D01*
X113128095Y-129866666D01*
X113032857Y-129904761D01*
X112985238Y-129942857D01*
X112937619Y-130019047D01*
X112937619Y-130247619D01*
X112985238Y-130323809D01*
X113032857Y-130361904D01*
X126676190Y-157747142D02*
X126714285Y-157794761D01*
X126828571Y-157842380D01*
X126904761Y-157842380D01*
X127019047Y-157794761D01*
X127095238Y-157699523D01*
X127133333Y-157604285D01*
X127171428Y-157413809D01*
X127171428Y-157270952D01*
X127133333Y-157080476D01*
X127095238Y-156985238D01*
X127019047Y-156890000D01*
X126904761Y-156842380D01*
X126828571Y-156842380D01*
X126714285Y-156890000D01*
X126676190Y-156937619D01*
X126333333Y-157842380D02*
X126333333Y-156842380D01*
X126028571Y-156842380D01*
X125952380Y-156890000D01*
X125914285Y-156937619D01*
X125876190Y-157032857D01*
X125876190Y-157175714D01*
X125914285Y-157270952D01*
X125952380Y-157318571D01*
X126028571Y-157366190D01*
X126333333Y-157366190D01*
X125571428Y-156937619D02*
X125533333Y-156890000D01*
X125457142Y-156842380D01*
X125266666Y-156842380D01*
X125190476Y-156890000D01*
X125152380Y-156937619D01*
X125114285Y-157032857D01*
X125114285Y-157128095D01*
X125152380Y-157270952D01*
X125609523Y-157842380D01*
X125114285Y-157842380D01*
X124352380Y-157842380D02*
X124809523Y-157842380D01*
X124580952Y-157842380D02*
X124580952Y-156842380D01*
X124657142Y-156985238D01*
X124733333Y-157080476D01*
X124809523Y-157128095D01*
X123857142Y-156842380D02*
X123780952Y-156842380D01*
X123704761Y-156890000D01*
X123666666Y-156937619D01*
X123628571Y-157032857D01*
X123590476Y-157223333D01*
X123590476Y-157461428D01*
X123628571Y-157651904D01*
X123666666Y-157747142D01*
X123704761Y-157794761D01*
X123780952Y-157842380D01*
X123857142Y-157842380D01*
X123933333Y-157794761D01*
X123971428Y-157747142D01*
X124009523Y-157651904D01*
X124047619Y-157461428D01*
X124047619Y-157223333D01*
X124009523Y-157032857D01*
X123971428Y-156937619D01*
X123933333Y-156890000D01*
X123857142Y-156842380D01*
X123285714Y-156937619D02*
X123247619Y-156890000D01*
X123171428Y-156842380D01*
X122980952Y-156842380D01*
X122904761Y-156890000D01*
X122866666Y-156937619D01*
X122828571Y-157032857D01*
X122828571Y-157128095D01*
X122866666Y-157270952D01*
X123323809Y-157842380D01*
X122828571Y-157842380D01*
X127971428Y-158452380D02*
X127971428Y-159261904D01*
X127933333Y-159357142D01*
X127895238Y-159404761D01*
X127819047Y-159452380D01*
X127666666Y-159452380D01*
X127590476Y-159404761D01*
X127552380Y-159357142D01*
X127514285Y-159261904D01*
X127514285Y-158452380D01*
X127171428Y-159404761D02*
X127057142Y-159452380D01*
X126866666Y-159452380D01*
X126790476Y-159404761D01*
X126752380Y-159357142D01*
X126714285Y-159261904D01*
X126714285Y-159166666D01*
X126752380Y-159071428D01*
X126790476Y-159023809D01*
X126866666Y-158976190D01*
X127019047Y-158928571D01*
X127095238Y-158880952D01*
X127133333Y-158833333D01*
X127171428Y-158738095D01*
X127171428Y-158642857D01*
X127133333Y-158547619D01*
X127095238Y-158500000D01*
X127019047Y-158452380D01*
X126828571Y-158452380D01*
X126714285Y-158500000D01*
X126104761Y-158928571D02*
X125990476Y-158976190D01*
X125952380Y-159023809D01*
X125914285Y-159119047D01*
X125914285Y-159261904D01*
X125952380Y-159357142D01*
X125990476Y-159404761D01*
X126066666Y-159452380D01*
X126371428Y-159452380D01*
X126371428Y-158452380D01*
X126104761Y-158452380D01*
X126028571Y-158500000D01*
X125990476Y-158547619D01*
X125952380Y-158642857D01*
X125952380Y-158738095D01*
X125990476Y-158833333D01*
X126028571Y-158880952D01*
X126104761Y-158928571D01*
X126371428Y-158928571D01*
X125571428Y-159071428D02*
X124961904Y-159071428D01*
X124580952Y-158452380D02*
X124580952Y-159261904D01*
X124542857Y-159357142D01*
X124504761Y-159404761D01*
X124428571Y-159452380D01*
X124276190Y-159452380D01*
X124200000Y-159404761D01*
X124161904Y-159357142D01*
X124123809Y-159261904D01*
X124123809Y-158452380D01*
X123780952Y-159166666D02*
X123400000Y-159166666D01*
X123857142Y-159452380D02*
X123590476Y-158452380D01*
X123323809Y-159452380D01*
X122600000Y-159452380D02*
X122866666Y-158976190D01*
X123057142Y-159452380D02*
X123057142Y-158452380D01*
X122752380Y-158452380D01*
X122676190Y-158500000D01*
X122638095Y-158547619D01*
X122600000Y-158642857D01*
X122600000Y-158785714D01*
X122638095Y-158880952D01*
X122676190Y-158928571D01*
X122752380Y-158976190D01*
X123057142Y-158976190D01*
X122371428Y-158452380D02*
X121914285Y-158452380D01*
X122142857Y-159452380D02*
X122142857Y-158452380D01*
X126866666Y-160062380D02*
X126866666Y-160776666D01*
X126904761Y-160919523D01*
X126980952Y-161014761D01*
X127095238Y-161062380D01*
X127171428Y-161062380D01*
X126142857Y-161062380D02*
X126142857Y-160538571D01*
X126180952Y-160443333D01*
X126257142Y-160395714D01*
X126409523Y-160395714D01*
X126485714Y-160443333D01*
X126142857Y-161014761D02*
X126219047Y-161062380D01*
X126409523Y-161062380D01*
X126485714Y-161014761D01*
X126523809Y-160919523D01*
X126523809Y-160824285D01*
X126485714Y-160729047D01*
X126409523Y-160681428D01*
X126219047Y-160681428D01*
X126142857Y-160633809D01*
X125761904Y-160395714D02*
X125761904Y-161062380D01*
X125761904Y-160490952D02*
X125723809Y-160443333D01*
X125647619Y-160395714D01*
X125533333Y-160395714D01*
X125457142Y-160443333D01*
X125419047Y-160538571D01*
X125419047Y-161062380D01*
X124390476Y-160062380D02*
X124466666Y-160252857D01*
X124085714Y-160157619D02*
X124047619Y-160110000D01*
X123971428Y-160062380D01*
X123780952Y-160062380D01*
X123704761Y-160110000D01*
X123666666Y-160157619D01*
X123628571Y-160252857D01*
X123628571Y-160348095D01*
X123666666Y-160490952D01*
X124123809Y-161062380D01*
X123628571Y-161062380D01*
X123361904Y-160062380D02*
X122866666Y-160062380D01*
X123133333Y-160443333D01*
X123019047Y-160443333D01*
X122942857Y-160490952D01*
X122904761Y-160538571D01*
X122866666Y-160633809D01*
X122866666Y-160871904D01*
X122904761Y-160967142D01*
X122942857Y-161014761D01*
X123019047Y-161062380D01*
X123247619Y-161062380D01*
X123323809Y-161014761D01*
X123361904Y-160967142D01*
G36*
X117150813Y-161938004D02*
G01*
X116609037Y-161938004D01*
X116609037Y-161750005D01*
X116950722Y-161750005D01*
X116950722Y-161634767D01*
X116637356Y-161634767D01*
X116637356Y-161464958D01*
X116950722Y-161464958D01*
X116950722Y-161343622D01*
X116779880Y-161343728D01*
X116609037Y-161343728D01*
X116610275Y-161158726D01*
X116880647Y-161158196D01*
X117150813Y-161157484D01*
X117150813Y-161938004D01*
G37*
G36*
X114724398Y-157948170D02*
G01*
X114840169Y-158118686D01*
X114878704Y-158245620D01*
X114740839Y-158305872D01*
X114575260Y-158334607D01*
X114567384Y-158226089D01*
X114623200Y-158033652D01*
X114704347Y-157936388D01*
X114724398Y-157948170D01*
G37*
G36*
X117745092Y-161157589D02*
G01*
X117745092Y-161937800D01*
X117229671Y-161937800D01*
X117229566Y-161839718D01*
X117229671Y-161741637D01*
X117546964Y-161741637D01*
X117546964Y-161486665D01*
X117546391Y-161235109D01*
X117543451Y-161157486D01*
X117543451Y-161157484D01*
X117745092Y-161157589D01*
G37*
G36*
X114342924Y-161535738D02*
G01*
X114326697Y-161422257D01*
X114329607Y-161401398D01*
X114524824Y-161401398D01*
X114540636Y-161489454D01*
X114581564Y-161515913D01*
X114658976Y-161520871D01*
X114726155Y-161519114D01*
X114726684Y-161429404D01*
X114726155Y-161342485D01*
X114660423Y-161342485D01*
X114583528Y-161346104D01*
X114524824Y-161401398D01*
X114329607Y-161401398D01*
X114340754Y-161321488D01*
X114348919Y-161300921D01*
X114343544Y-161284178D01*
X114345049Y-161265797D01*
X114395943Y-161265797D01*
X114464869Y-161316610D01*
X114502125Y-161268524D01*
X114588686Y-161191919D01*
X114805530Y-161157174D01*
X114925811Y-161031583D01*
X115042828Y-160940442D01*
X114804053Y-160929827D01*
X114700317Y-160822723D01*
X114579601Y-160894244D01*
X114498469Y-160931244D01*
X114470563Y-160964213D01*
X114405761Y-161187869D01*
X114395943Y-161265797D01*
X114345049Y-161265797D01*
X114350366Y-161200875D01*
X114382953Y-161055658D01*
X114422816Y-160945387D01*
X114467981Y-160892884D01*
X114558725Y-160850923D01*
X114660114Y-160792941D01*
X114724089Y-160660443D01*
X114805428Y-160461075D01*
X114889128Y-160257063D01*
X114969863Y-160043323D01*
X115007793Y-159885814D01*
X115021849Y-159800340D01*
X114917633Y-159671887D01*
X114859307Y-159599997D01*
X114734220Y-159401163D01*
X114646261Y-159201276D01*
X114595106Y-158997777D01*
X114580429Y-158788103D01*
X114471147Y-158651507D01*
X114385542Y-158498056D01*
X114331545Y-158301734D01*
X114317086Y-158036521D01*
X114273574Y-157917665D01*
X114265659Y-157867348D01*
X114324216Y-157867348D01*
X114332071Y-157903418D01*
X114372171Y-158016073D01*
X114376923Y-158033230D01*
X114389221Y-158293038D01*
X114439721Y-158478891D01*
X114522642Y-158622704D01*
X114632205Y-158756390D01*
X114637579Y-158765485D01*
X114640162Y-158769104D01*
X114750695Y-159046567D01*
X114829710Y-159236861D01*
X114883318Y-159351144D01*
X114917633Y-159400573D01*
X114938765Y-159396305D01*
X114952829Y-159349497D01*
X114965934Y-159271306D01*
X114984195Y-159172890D01*
X115013722Y-159065405D01*
X115060629Y-158960009D01*
X115131028Y-158867858D01*
X115231030Y-158800110D01*
X115333866Y-158721355D01*
X115479990Y-158530147D01*
X115571164Y-158288410D01*
X115577676Y-158276525D01*
X115667903Y-158162319D01*
X115585737Y-158257714D01*
X115562576Y-158073509D01*
X115477216Y-157948896D01*
X115590476Y-157804576D01*
X115745520Y-157703639D01*
X115587705Y-157725663D01*
X115383682Y-157830247D01*
X115355570Y-157833453D01*
X115421131Y-157926465D01*
X115333347Y-157929653D01*
X115192479Y-157869110D01*
X115008526Y-157805955D01*
X114874773Y-157797900D01*
X114727753Y-157762675D01*
X114751679Y-157703229D01*
X114775554Y-157696614D01*
X114756847Y-157682662D01*
X114569055Y-157514300D01*
X114379518Y-157437307D01*
X114533108Y-157604026D01*
X114608436Y-157731439D01*
X114454753Y-157855491D01*
X114376719Y-158002121D01*
X114324216Y-157867348D01*
X114265659Y-157867348D01*
X114244325Y-157731733D01*
X114242318Y-157539548D01*
X114287424Y-157387155D01*
X114307164Y-157374132D01*
X114360391Y-157371137D01*
X114600686Y-157463844D01*
X114794473Y-157636857D01*
X114970789Y-157625436D01*
X115146090Y-157655954D01*
X115366324Y-157771526D01*
X115642698Y-157651975D01*
X115844331Y-157657631D01*
X115865105Y-157678612D01*
X115865169Y-157891595D01*
X115774497Y-158109003D01*
X115626463Y-158310821D01*
X115557059Y-158498174D01*
X115460479Y-158660567D01*
X115465644Y-158659017D01*
X115660399Y-158618496D01*
X115871377Y-158623452D01*
X116093059Y-158670724D01*
X116319931Y-158757150D01*
X116546477Y-158879569D01*
X116767182Y-159034819D01*
X116976528Y-159219739D01*
X117169002Y-159431166D01*
X117277771Y-159503657D01*
X117289895Y-159423581D01*
X117288479Y-159418328D01*
X117250150Y-159276062D01*
X117203315Y-159146222D01*
X117190989Y-159117814D01*
X117227501Y-159117814D01*
X117234219Y-159135488D01*
X117280624Y-159247418D01*
X117288479Y-159266332D01*
X117307186Y-159257857D01*
X117540144Y-159169801D01*
X117559780Y-159163600D01*
X117553063Y-159144169D01*
X117511204Y-159030068D01*
X117509654Y-159026141D01*
X117506453Y-159023040D01*
X117497872Y-159014462D01*
X117486297Y-159018182D01*
X117244761Y-159110166D01*
X117227501Y-159117814D01*
X117190989Y-159117814D01*
X117158565Y-159043083D01*
X117109461Y-158929910D01*
X117048829Y-158813751D01*
X117088801Y-158813751D01*
X117097587Y-158830804D01*
X117149366Y-158937981D01*
X117158565Y-158957618D01*
X117177375Y-158946869D01*
X117405371Y-158832354D01*
X117424285Y-158824086D01*
X117415500Y-158805482D01*
X117362170Y-158695825D01*
X117353592Y-158678979D01*
X117336331Y-158686627D01*
X117105545Y-158804242D01*
X117088801Y-158813751D01*
X117048829Y-158813751D01*
X117000413Y-158720996D01*
X116999918Y-158720190D01*
X116876956Y-158520286D01*
X116875067Y-158517645D01*
X116915996Y-158517645D01*
X116926744Y-158534077D01*
X116989066Y-158636190D01*
X116999918Y-158654380D01*
X117017488Y-158642495D01*
X117238250Y-158516094D01*
X117258300Y-158506793D01*
X117246931Y-158487775D01*
X117182646Y-158383596D01*
X117173137Y-158368713D01*
X117157221Y-158376258D01*
X116932325Y-158506689D01*
X116915996Y-158517645D01*
X116875067Y-158517645D01*
X116811092Y-158428182D01*
X116739872Y-158328587D01*
X116667306Y-158240556D01*
X116713527Y-158240556D01*
X116726240Y-158256575D01*
X116799103Y-158351557D01*
X116811092Y-158367783D01*
X116827215Y-158355587D01*
X117038262Y-158210790D01*
X117057072Y-158199421D01*
X117044050Y-158181748D01*
X116970049Y-158085010D01*
X116959094Y-158071160D01*
X116944004Y-158080255D01*
X116729650Y-158228153D01*
X116713527Y-158240556D01*
X116667306Y-158240556D01*
X116591984Y-158149182D01*
X116589944Y-158146706D01*
X116433925Y-157981760D01*
X116481603Y-157981760D01*
X116496073Y-157996539D01*
X116578548Y-158083252D01*
X116591984Y-158098032D01*
X116606763Y-158084596D01*
X116805408Y-157923676D01*
X116823598Y-157910653D01*
X116808612Y-157894013D01*
X116725516Y-157804923D01*
X116713527Y-157792418D01*
X116699471Y-157802546D01*
X116496899Y-157967807D01*
X116481603Y-157981760D01*
X116433925Y-157981760D01*
X116427956Y-157975450D01*
X116344868Y-157898807D01*
X116254692Y-157815626D01*
X116167245Y-157745392D01*
X116223118Y-157745392D01*
X116239758Y-157759242D01*
X116330708Y-157836653D01*
X116344868Y-157849468D01*
X116358303Y-157835826D01*
X116548576Y-157664674D01*
X116567283Y-157650101D01*
X116549713Y-157634184D01*
X116457109Y-157552742D01*
X116444500Y-157541890D01*
X116431581Y-157552432D01*
X116238310Y-157729992D01*
X116223118Y-157745392D01*
X116167245Y-157745392D01*
X116072636Y-157669406D01*
X116070935Y-157668039D01*
X115879428Y-157534862D01*
X115940345Y-157534862D01*
X115959258Y-157547678D01*
X116058063Y-157616201D01*
X116072636Y-157626846D01*
X116084728Y-157613411D01*
X116263219Y-157427065D01*
X116280479Y-157410736D01*
X116261358Y-157396576D01*
X116161209Y-157325056D01*
X116147670Y-157315651D01*
X116135888Y-157327123D01*
X115955434Y-157517809D01*
X115940345Y-157534862D01*
X115879428Y-157534862D01*
X115877467Y-157533498D01*
X115786246Y-157479101D01*
X115675073Y-157412808D01*
X115568759Y-157359266D01*
X115645376Y-157359266D01*
X115665633Y-157370118D01*
X115770846Y-157428822D01*
X115786246Y-157437814D01*
X115796994Y-157423551D01*
X115963186Y-157226147D01*
X115980549Y-157207957D01*
X115958948Y-157195141D01*
X115850841Y-157132819D01*
X115837198Y-157125378D01*
X115826553Y-157136747D01*
X115659018Y-157340662D01*
X115645376Y-157359266D01*
X115568759Y-157359266D01*
X115466265Y-157307648D01*
X115464536Y-157306777D01*
X115246639Y-157216211D01*
X115228553Y-157207130D01*
X115317230Y-157207130D01*
X115339657Y-157216122D01*
X115450762Y-157264388D01*
X115466265Y-157271312D01*
X115475566Y-157257153D01*
X115637624Y-157053031D01*
X115655918Y-157033497D01*
X115632146Y-157021405D01*
X115513394Y-156970039D01*
X115500578Y-156965181D01*
X115491483Y-156975413D01*
X115406292Y-157078340D01*
X115330253Y-157186873D01*
X115317230Y-157207130D01*
X115228553Y-157207130D01*
X115128921Y-157157105D01*
X115078049Y-157131563D01*
X114939184Y-157038975D01*
X114990118Y-157038975D01*
X115004794Y-157050137D01*
X115112488Y-157118867D01*
X115128921Y-157127859D01*
X115138946Y-157112046D01*
X115293872Y-156909474D01*
X115311235Y-156890043D01*
X115288084Y-156878262D01*
X115186695Y-156815629D01*
X115172019Y-156804468D01*
X115159720Y-156818110D01*
X115000040Y-157023472D01*
X114990118Y-157038975D01*
X114939184Y-157038975D01*
X114929552Y-157032553D01*
X114787507Y-156878147D01*
X114712303Y-156677178D01*
X114715415Y-156461789D01*
X114808320Y-156264124D01*
X114951229Y-156135735D01*
X115114571Y-156069434D01*
X115290460Y-156052871D01*
X115290565Y-156052782D01*
X115436709Y-156072411D01*
X115563520Y-156130504D01*
X115665326Y-156255167D01*
X115630286Y-156407593D01*
X115457468Y-156470567D01*
X115274132Y-156429607D01*
X115112178Y-156519834D01*
X115128094Y-156710830D01*
X115302655Y-156846353D01*
X115498391Y-156932468D01*
X115688680Y-157011173D01*
X115904951Y-157124097D01*
X116113097Y-157251389D01*
X116312394Y-157392266D01*
X116502119Y-157545943D01*
X116681548Y-157711635D01*
X116849959Y-157888558D01*
X117006628Y-158075927D01*
X117150830Y-158272958D01*
X117281843Y-158478865D01*
X117398944Y-158692864D01*
X117501408Y-158914170D01*
X117588513Y-159141999D01*
X117650712Y-159365238D01*
X117698858Y-159598415D01*
X117730880Y-159833888D01*
X117744707Y-160064015D01*
X117738271Y-160281155D01*
X117696959Y-160495671D01*
X117619779Y-160678645D01*
X117507587Y-160828821D01*
X117361612Y-160944676D01*
X117183637Y-161025365D01*
X116975320Y-161070667D01*
X116965811Y-161070349D01*
X116687576Y-161114208D01*
X116436126Y-161131143D01*
X116210302Y-161125230D01*
X115904379Y-161101829D01*
X115896833Y-161101252D01*
X115269481Y-161023841D01*
X115259650Y-160967519D01*
X115290774Y-160967519D01*
X115293150Y-160973203D01*
X115904379Y-161048651D01*
X115815720Y-160940639D01*
X115809812Y-160901993D01*
X115794679Y-160890400D01*
X115678346Y-160863546D01*
X115564554Y-160844013D01*
X115564554Y-160844119D01*
X115474637Y-160837814D01*
X115474636Y-160837813D01*
X115414071Y-160840602D01*
X115358571Y-160873158D01*
X115295732Y-160942818D01*
X115290774Y-160967519D01*
X115259650Y-160967519D01*
X115251188Y-160919041D01*
X115401979Y-160794708D01*
X115529733Y-160792885D01*
X115687750Y-160818169D01*
X115901587Y-160801942D01*
X116041837Y-160751299D01*
X115952230Y-160681123D01*
X115747613Y-160545247D01*
X115586774Y-160410648D01*
X115528483Y-160350393D01*
X115503678Y-160386153D01*
X115413968Y-160524853D01*
X115265485Y-160751691D01*
X115153614Y-160900681D01*
X115068563Y-160984773D01*
X114873123Y-161158613D01*
X114926350Y-161158825D01*
X114926667Y-161545881D01*
X114926786Y-161820015D01*
X114926350Y-161935521D01*
X114926350Y-161935627D01*
X114826304Y-161938109D01*
X114727188Y-161938109D01*
X114725950Y-161690475D01*
X114709827Y-161690052D01*
X114693600Y-161689628D01*
X114685435Y-161700170D01*
X114658976Y-161736531D01*
X114654223Y-161743062D01*
X114628901Y-161777685D01*
X114613605Y-161798665D01*
X114587457Y-161834735D01*
X114554074Y-161880108D01*
X114523068Y-161922999D01*
X114512113Y-161938089D01*
X114265720Y-161938089D01*
X114279466Y-161920415D01*
X114308404Y-161883828D01*
X114326594Y-161860574D01*
X114335896Y-161849205D01*
X114366385Y-161810758D01*
X114395531Y-161774068D01*
X114408140Y-161758875D01*
X114440076Y-161717844D01*
X114465914Y-161685494D01*
X114476250Y-161671025D01*
X114472942Y-161669167D01*
X114464869Y-161665015D01*
X114418682Y-161641262D01*
X114342924Y-161535738D01*
G37*
G36*
X115325292Y-158053075D02*
G01*
X115360390Y-158175574D01*
X115338439Y-158365194D01*
X115272272Y-158472480D01*
X115113646Y-158390326D01*
X115020504Y-158266188D01*
X115136123Y-158140215D01*
X115310615Y-158048631D01*
X115310615Y-158048630D01*
X115325292Y-158053075D01*
G37*
G36*
X116507028Y-161158526D02*
G01*
X116507854Y-161548373D01*
X116508473Y-161938013D01*
X116310345Y-161938013D01*
X116310345Y-161811716D01*
X116315304Y-161630228D01*
X116321298Y-161565529D01*
X116319853Y-161555918D01*
X116310242Y-161573591D01*
X116301250Y-161597362D01*
X116274792Y-161664335D01*
X116249470Y-161728827D01*
X116237378Y-161760039D01*
X116222702Y-161798487D01*
X116213710Y-161821741D01*
X116144774Y-161822360D01*
X116075941Y-161822980D01*
X116073565Y-161814298D01*
X116067778Y-161797658D01*
X116060026Y-161778434D01*
X116046590Y-161743811D01*
X116037392Y-161718387D01*
X116029227Y-161697406D01*
X116018892Y-161670327D01*
X116012897Y-161654204D01*
X115983545Y-161577930D01*
X115971453Y-161556122D01*
X115969384Y-161564701D01*
X115976619Y-161647073D01*
X115982200Y-161828974D01*
X115981581Y-161937081D01*
X115783556Y-161937081D01*
X115783556Y-161158834D01*
X115981064Y-161158834D01*
X115991089Y-161181055D01*
X116006282Y-161216402D01*
X116013103Y-161231594D01*
X116020752Y-161248854D01*
X116043592Y-161302391D01*
X116074702Y-161374325D01*
X116084520Y-161396752D01*
X116094545Y-161419800D01*
X116124621Y-161488426D01*
X116131752Y-161505583D01*
X116140641Y-161526460D01*
X116145599Y-161536279D01*
X116156141Y-161513128D01*
X116166580Y-161488736D01*
X116174641Y-161470133D01*
X116182702Y-161451012D01*
X116190661Y-161432202D01*
X116201616Y-161407294D01*
X116232209Y-161336601D01*
X116240064Y-161318514D01*
X116259597Y-161272005D01*
X116268072Y-161252782D01*
X116280681Y-161224463D01*
X116292980Y-161195111D01*
X116302902Y-161172373D01*
X116308067Y-161159764D01*
X116407596Y-161158213D01*
X116407396Y-161158103D01*
X116507028Y-161158526D01*
G37*
G36*
X115664690Y-161434159D02*
G01*
X115664071Y-161710525D01*
X115659626Y-161732745D01*
X115646500Y-161778220D01*
X115638439Y-161796411D01*
X115558443Y-161889635D01*
X115435970Y-161942242D01*
X115406411Y-161946999D01*
X115283628Y-161944210D01*
X115086948Y-161825561D01*
X115054702Y-161761276D01*
X115049121Y-161738331D01*
X115043539Y-161718591D01*
X115043539Y-161158728D01*
X115143171Y-161158199D01*
X115242700Y-161157580D01*
X115242700Y-161423507D01*
X115243247Y-161657037D01*
X115246939Y-161701836D01*
X115271434Y-161740697D01*
X115395354Y-161763124D01*
X115462843Y-161692121D01*
X115464507Y-161619202D01*
X115465119Y-161418959D01*
X115465013Y-161157580D01*
X115565162Y-161157580D01*
X115665219Y-161157484D01*
X115664690Y-161434159D01*
G37*
G36*
X115059830Y-158439436D02*
G01*
X115116312Y-158648179D01*
X115003676Y-158723743D01*
X114861961Y-158758044D01*
X114744696Y-158681220D01*
X114650810Y-158571905D01*
X114761178Y-158400956D01*
X114940302Y-158267220D01*
X115059830Y-158439436D01*
G37*
D11*
X116500000Y-101500000D02*
X116750000Y-101250000D01*
X118500000Y-102000000D02*
X118250000Y-101750000D01*
X113250000Y-102750000D02*
X112250000Y-102750000D01*
X113500000Y-101500000D02*
X113750000Y-101250000D01*
X113500000Y-101750000D02*
X113500000Y-102250000D01*
X111500000Y-102750000D02*
X111750000Y-102500000D01*
X117750000Y-102750000D02*
X116750000Y-102750000D01*
X113750000Y-101250000D02*
X114750000Y-101250000D01*
X115000000Y-101500000D02*
X115250000Y-101250000D01*
X113250000Y-101250000D02*
X113500000Y-101500000D01*
X114750000Y-101250000D02*
X115000000Y-101500000D01*
X118250000Y-101750000D02*
X118250000Y-102250000D01*
X114750000Y-102750000D02*
X113750000Y-102750000D01*
X116750000Y-101250000D02*
X117750000Y-101250000D01*
X116500000Y-101750000D02*
X116500000Y-102250000D01*
X112000000Y-102500000D02*
X112000000Y-101500000D01*
X116250000Y-102750000D02*
X115250000Y-102750000D01*
X115250000Y-102750000D02*
X115000000Y-102500000D01*
X113750000Y-102750000D02*
X113500000Y-102500000D01*
X118000000Y-102500000D02*
X117750000Y-102750000D01*
X116500000Y-102500000D02*
X116250000Y-102750000D01*
X116750000Y-102750000D02*
X116500000Y-102500000D01*
X111500000Y-102250000D02*
X111500000Y-102750000D01*
X111500000Y-101250000D02*
X111500000Y-101750000D01*
X112250000Y-102750000D02*
X112000000Y-102500000D01*
X118250000Y-102250000D02*
X118500000Y-102000000D01*
X113500000Y-102500000D02*
X113250000Y-102750000D01*
X117750000Y-101250000D02*
X118000000Y-101500000D01*
X115000000Y-102500000D02*
X114750000Y-102750000D01*
X115000000Y-101750000D02*
X115000000Y-102250000D01*
X111750000Y-102500000D02*
X111500000Y-102250000D01*
X112250000Y-101250000D02*
X113250000Y-101250000D01*
X116250000Y-101250000D02*
X116500000Y-101500000D01*
X118000000Y-101500000D02*
X118000000Y-102500000D01*
X112000000Y-101500000D02*
X112250000Y-101250000D01*
X111750000Y-101500000D02*
X111500000Y-101250000D01*
X115250000Y-101250000D02*
X116250000Y-101250000D01*
X111500000Y-101750000D02*
X111750000Y-101500000D01*
X106500000Y-157500000D02*
X106250000Y-157250000D01*
X107000000Y-155500000D02*
X106750000Y-155750000D01*
X107750000Y-160750000D02*
X107750000Y-161750000D01*
X106500000Y-160500000D02*
X106250000Y-160250000D01*
X106750000Y-160500000D02*
X107250000Y-160500000D01*
X107750000Y-162500000D02*
X107500000Y-162250000D01*
X107750000Y-156250000D02*
X107750000Y-157250000D01*
X106250000Y-160250000D02*
X106250000Y-159250000D01*
X106500000Y-159000000D02*
X106250000Y-158750000D01*
X106250000Y-160750000D02*
X106500000Y-160500000D01*
X106250000Y-159250000D02*
X106500000Y-159000000D01*
X106750000Y-155750000D02*
X107250000Y-155750000D01*
X107750000Y-159250000D02*
X107750000Y-160250000D01*
X106250000Y-157250000D02*
X106250000Y-156250000D01*
X106750000Y-157500000D02*
X107250000Y-157500000D01*
X107500000Y-162000000D02*
X106500000Y-162000000D01*
X107750000Y-157750000D02*
X107750000Y-158750000D01*
X107750000Y-158750000D02*
X107500000Y-159000000D01*
X107750000Y-160250000D02*
X107500000Y-160500000D01*
X107500000Y-156000000D02*
X107750000Y-156250000D01*
X107500000Y-157500000D02*
X107750000Y-157750000D01*
X107750000Y-157250000D02*
X107500000Y-157500000D01*
X107250000Y-162500000D02*
X107750000Y-162500000D01*
X106250000Y-162500000D02*
X106750000Y-162500000D01*
X107750000Y-161750000D02*
X107500000Y-162000000D01*
X107250000Y-155750000D02*
X107000000Y-155500000D01*
X107500000Y-160500000D02*
X107750000Y-160750000D01*
X106250000Y-156250000D02*
X106500000Y-156000000D01*
X107500000Y-159000000D02*
X107750000Y-159250000D01*
X106750000Y-159000000D02*
X107250000Y-159000000D01*
X107500000Y-162250000D02*
X107250000Y-162500000D01*
X106250000Y-161750000D02*
X106250000Y-160750000D01*
X106250000Y-157750000D02*
X106500000Y-157500000D01*
X106500000Y-156000000D02*
X107500000Y-156000000D01*
X106500000Y-162000000D02*
X106250000Y-161750000D01*
X106500000Y-162250000D02*
X106250000Y-162500000D01*
X106250000Y-158750000D02*
X106250000Y-157750000D01*
X106750000Y-162500000D02*
X106500000Y-162250000D01*
G36*
X112841801Y-110143171D02*
G01*
X112842420Y-110242700D01*
X112576493Y-110242700D01*
X112342963Y-110243247D01*
X112298164Y-110246939D01*
X112259303Y-110271434D01*
X112236876Y-110395354D01*
X112307879Y-110462843D01*
X112380798Y-110464507D01*
X112581041Y-110465119D01*
X112842420Y-110465013D01*
X112842420Y-110565162D01*
X112842516Y-110665219D01*
X112565841Y-110664690D01*
X112289475Y-110664071D01*
X112267255Y-110659626D01*
X112221780Y-110646500D01*
X112203589Y-110638439D01*
X112110365Y-110558443D01*
X112057758Y-110435970D01*
X112053001Y-110406411D01*
X112055790Y-110283628D01*
X112174439Y-110086948D01*
X112238724Y-110054702D01*
X112261669Y-110049121D01*
X112281409Y-110043539D01*
X112841272Y-110043539D01*
X112841801Y-110143171D01*
G37*
G36*
X114598837Y-109734220D02*
G01*
X114798724Y-109646261D01*
X115002223Y-109595106D01*
X115211897Y-109580429D01*
X115348493Y-109471147D01*
X115501944Y-109385542D01*
X115698266Y-109331545D01*
X115963479Y-109317086D01*
X116082335Y-109273574D01*
X116268267Y-109244325D01*
X116460452Y-109242318D01*
X116612845Y-109287424D01*
X116625868Y-109307164D01*
X116628863Y-109360391D01*
X116536156Y-109600686D01*
X116363143Y-109794473D01*
X116374564Y-109970789D01*
X116344046Y-110146090D01*
X116228474Y-110366324D01*
X116348025Y-110642698D01*
X116342369Y-110844331D01*
X116321388Y-110865105D01*
X116108405Y-110865169D01*
X115890997Y-110774497D01*
X115689179Y-110626463D01*
X115501826Y-110557059D01*
X115339433Y-110460479D01*
X115340983Y-110465644D01*
X115381504Y-110660399D01*
X115376548Y-110871377D01*
X115329276Y-111093059D01*
X115242850Y-111319931D01*
X115120431Y-111546477D01*
X114965181Y-111767182D01*
X114780261Y-111976528D01*
X114568834Y-112169002D01*
X114496343Y-112277771D01*
X114576419Y-112289895D01*
X114581672Y-112288479D01*
X114733668Y-112288479D01*
X114742143Y-112307186D01*
X114830199Y-112540144D01*
X114836400Y-112559780D01*
X114855831Y-112553063D01*
X114969932Y-112511204D01*
X114973859Y-112509654D01*
X114976960Y-112506453D01*
X114985538Y-112497872D01*
X114981818Y-112486297D01*
X114889834Y-112244761D01*
X114882186Y-112227501D01*
X114864512Y-112234219D01*
X114752582Y-112280624D01*
X114733668Y-112288479D01*
X114581672Y-112288479D01*
X114723938Y-112250150D01*
X114853778Y-112203315D01*
X114956917Y-112158565D01*
X115042382Y-112158565D01*
X115053131Y-112177375D01*
X115167646Y-112405371D01*
X115175914Y-112424285D01*
X115194518Y-112415500D01*
X115304175Y-112362170D01*
X115321021Y-112353592D01*
X115313373Y-112336331D01*
X115195758Y-112105545D01*
X115186249Y-112088801D01*
X115169196Y-112097587D01*
X115062019Y-112149366D01*
X115042382Y-112158565D01*
X114956917Y-112158565D01*
X115070090Y-112109461D01*
X115279004Y-112000413D01*
X115279810Y-111999918D01*
X115345620Y-111999918D01*
X115357505Y-112017488D01*
X115483906Y-112238250D01*
X115493207Y-112258300D01*
X115512225Y-112246931D01*
X115616404Y-112182646D01*
X115631287Y-112173137D01*
X115623742Y-112157221D01*
X115493311Y-111932325D01*
X115482355Y-111915996D01*
X115465923Y-111926744D01*
X115363810Y-111989066D01*
X115345620Y-111999918D01*
X115279810Y-111999918D01*
X115479714Y-111876956D01*
X115571818Y-111811092D01*
X115632217Y-111811092D01*
X115644413Y-111827215D01*
X115789210Y-112038262D01*
X115800579Y-112057072D01*
X115818252Y-112044050D01*
X115914990Y-111970049D01*
X115928840Y-111959094D01*
X115919745Y-111944004D01*
X115771847Y-111729650D01*
X115759444Y-111713527D01*
X115743425Y-111726240D01*
X115648443Y-111799103D01*
X115632217Y-111811092D01*
X115571818Y-111811092D01*
X115671413Y-111739872D01*
X115850818Y-111591984D01*
X115901968Y-111591984D01*
X115915404Y-111606763D01*
X116076324Y-111805408D01*
X116089347Y-111823598D01*
X116105987Y-111808612D01*
X116195077Y-111725516D01*
X116207582Y-111713527D01*
X116197454Y-111699471D01*
X116032193Y-111496899D01*
X116018240Y-111481603D01*
X116003461Y-111496073D01*
X115916748Y-111578548D01*
X115901968Y-111591984D01*
X115850818Y-111591984D01*
X115853294Y-111589944D01*
X116024550Y-111427956D01*
X116101193Y-111344868D01*
X116150532Y-111344868D01*
X116164174Y-111358303D01*
X116335326Y-111548576D01*
X116349899Y-111567283D01*
X116365816Y-111549713D01*
X116447258Y-111457109D01*
X116458110Y-111444500D01*
X116447568Y-111431581D01*
X116270008Y-111238310D01*
X116254608Y-111223118D01*
X116240758Y-111239758D01*
X116163347Y-111330708D01*
X116150532Y-111344868D01*
X116101193Y-111344868D01*
X116184374Y-111254692D01*
X116330594Y-111072636D01*
X116373154Y-111072636D01*
X116386589Y-111084728D01*
X116572935Y-111263219D01*
X116589264Y-111280479D01*
X116603424Y-111261358D01*
X116674944Y-111161209D01*
X116684349Y-111147670D01*
X116672877Y-111135888D01*
X116482191Y-110955434D01*
X116465138Y-110940345D01*
X116452322Y-110959258D01*
X116383799Y-111058063D01*
X116373154Y-111072636D01*
X116330594Y-111072636D01*
X116331961Y-111070935D01*
X116466502Y-110877467D01*
X116520899Y-110786246D01*
X116562186Y-110786246D01*
X116576449Y-110796994D01*
X116773853Y-110963186D01*
X116792043Y-110980549D01*
X116804859Y-110958948D01*
X116867181Y-110850841D01*
X116874622Y-110837198D01*
X116863253Y-110826553D01*
X116659338Y-110659018D01*
X116640734Y-110645376D01*
X116629882Y-110665633D01*
X116571178Y-110770846D01*
X116562186Y-110786246D01*
X116520899Y-110786246D01*
X116587192Y-110675073D01*
X116692352Y-110466265D01*
X116728688Y-110466265D01*
X116742847Y-110475566D01*
X116946969Y-110637624D01*
X116966503Y-110655918D01*
X116978595Y-110632146D01*
X117029961Y-110513394D01*
X117034819Y-110500578D01*
X117024587Y-110491483D01*
X116921660Y-110406292D01*
X116813127Y-110330253D01*
X116792870Y-110317230D01*
X116783878Y-110339657D01*
X116735612Y-110450762D01*
X116728688Y-110466265D01*
X116692352Y-110466265D01*
X116693223Y-110464536D01*
X116783789Y-110246639D01*
X116842895Y-110128921D01*
X116872141Y-110128921D01*
X116887954Y-110138946D01*
X117090526Y-110293872D01*
X117109957Y-110311235D01*
X117121738Y-110288084D01*
X117184371Y-110186695D01*
X117195532Y-110172019D01*
X117181890Y-110159720D01*
X116976528Y-110000040D01*
X116961025Y-109990118D01*
X116949863Y-110004794D01*
X116881133Y-110112488D01*
X116872141Y-110128921D01*
X116842895Y-110128921D01*
X116868437Y-110078049D01*
X116967447Y-109929552D01*
X117121853Y-109787507D01*
X117322822Y-109712303D01*
X117538211Y-109715415D01*
X117735876Y-109808320D01*
X117864265Y-109951229D01*
X117930566Y-110114571D01*
X117947129Y-110290460D01*
X117947218Y-110290565D01*
X117927589Y-110436709D01*
X117869496Y-110563520D01*
X117744833Y-110665326D01*
X117592407Y-110630286D01*
X117529433Y-110457468D01*
X117570393Y-110274132D01*
X117480166Y-110112178D01*
X117289170Y-110128094D01*
X117153647Y-110302655D01*
X117067532Y-110498391D01*
X116988827Y-110688680D01*
X116875903Y-110904951D01*
X116748611Y-111113097D01*
X116607734Y-111312394D01*
X116454057Y-111502119D01*
X116288365Y-111681548D01*
X116111442Y-111849959D01*
X115924073Y-112006628D01*
X115727042Y-112150830D01*
X115521135Y-112281843D01*
X115307136Y-112398944D01*
X115085830Y-112501408D01*
X114858001Y-112588513D01*
X114634762Y-112650712D01*
X114401585Y-112698858D01*
X114166112Y-112730880D01*
X113935985Y-112744707D01*
X113718845Y-112738271D01*
X113504329Y-112696959D01*
X113321355Y-112619779D01*
X113171179Y-112507587D01*
X113055324Y-112361612D01*
X112974635Y-112183637D01*
X112929333Y-111975320D01*
X112929651Y-111965811D01*
X112885792Y-111687576D01*
X112868857Y-111436126D01*
X112874770Y-111210302D01*
X112898171Y-110904379D01*
X112951349Y-110904379D01*
X113059361Y-110815720D01*
X113098007Y-110809812D01*
X113109600Y-110794679D01*
X113136454Y-110678346D01*
X113155987Y-110564554D01*
X113155881Y-110564554D01*
X113162186Y-110474637D01*
X113162187Y-110474636D01*
X113159398Y-110414071D01*
X113126842Y-110358571D01*
X113057182Y-110295732D01*
X113032481Y-110290774D01*
X113026797Y-110293150D01*
X112951349Y-110904379D01*
X112898171Y-110904379D01*
X112898748Y-110896833D01*
X112976159Y-110269481D01*
X113080959Y-110251188D01*
X113205292Y-110401979D01*
X113207115Y-110529733D01*
X113181831Y-110687750D01*
X113198058Y-110901587D01*
X113248701Y-111041837D01*
X113318877Y-110952230D01*
X113454753Y-110747613D01*
X113589352Y-110586774D01*
X113649607Y-110528483D01*
X113613847Y-110503678D01*
X113475147Y-110413968D01*
X113248309Y-110265485D01*
X113099319Y-110153614D01*
X113015227Y-110068563D01*
X112841387Y-109873123D01*
X112841175Y-109926350D01*
X112454119Y-109926667D01*
X112179985Y-109926786D01*
X112064479Y-109926350D01*
X112064373Y-109926350D01*
X112061891Y-109826304D01*
X112061891Y-109727188D01*
X112309525Y-109725950D01*
X112309948Y-109709827D01*
X112310372Y-109693600D01*
X112299830Y-109685435D01*
X112263469Y-109658976D01*
X112479129Y-109658976D01*
X112480886Y-109726155D01*
X112570596Y-109726684D01*
X112657515Y-109726155D01*
X112657515Y-109660423D01*
X112653896Y-109583528D01*
X112598602Y-109524824D01*
X112510546Y-109540636D01*
X112484087Y-109581564D01*
X112479129Y-109658976D01*
X112263469Y-109658976D01*
X112256938Y-109654223D01*
X112222315Y-109628901D01*
X112201335Y-109613605D01*
X112165265Y-109587457D01*
X112119892Y-109554074D01*
X112077001Y-109523068D01*
X112061911Y-109512113D01*
X112061911Y-109265720D01*
X112079585Y-109279466D01*
X112116172Y-109308404D01*
X112139426Y-109326594D01*
X112150795Y-109335896D01*
X112189242Y-109366385D01*
X112225932Y-109395531D01*
X112241125Y-109408140D01*
X112282156Y-109440076D01*
X112314506Y-109465914D01*
X112328975Y-109476250D01*
X112330833Y-109472942D01*
X112334985Y-109464869D01*
X112683390Y-109464869D01*
X112731476Y-109502125D01*
X112808081Y-109588686D01*
X112842826Y-109805530D01*
X112968417Y-109925811D01*
X113059558Y-110042828D01*
X113070173Y-109804053D01*
X113177277Y-109700317D01*
X113105756Y-109579601D01*
X113068756Y-109498469D01*
X113035787Y-109470563D01*
X112812131Y-109405761D01*
X112734203Y-109395943D01*
X112683390Y-109464869D01*
X112334985Y-109464869D01*
X112358738Y-109418682D01*
X112464262Y-109342924D01*
X112577743Y-109326697D01*
X112678512Y-109340754D01*
X112699079Y-109348919D01*
X112715822Y-109343544D01*
X112799125Y-109350366D01*
X112944342Y-109382953D01*
X113054613Y-109422816D01*
X113107116Y-109467981D01*
X113149077Y-109558725D01*
X113207059Y-109660114D01*
X113339557Y-109724089D01*
X113538925Y-109805428D01*
X113742937Y-109889128D01*
X113956677Y-109969863D01*
X114114186Y-110007793D01*
X114199660Y-110021849D01*
X114328113Y-109917633D01*
X114599427Y-109917633D01*
X114603695Y-109938765D01*
X114650503Y-109952829D01*
X114728694Y-109965934D01*
X114827110Y-109984195D01*
X114934595Y-110013722D01*
X115039991Y-110060629D01*
X115132142Y-110131028D01*
X115199890Y-110231030D01*
X115278645Y-110333866D01*
X115469853Y-110479990D01*
X115711590Y-110571164D01*
X115723475Y-110577676D01*
X115837681Y-110667903D01*
X115742286Y-110585737D01*
X115926491Y-110562576D01*
X116051104Y-110477216D01*
X116195424Y-110590476D01*
X116296361Y-110745520D01*
X116274337Y-110587705D01*
X116169753Y-110383682D01*
X116166547Y-110355570D01*
X116073535Y-110421131D01*
X116070347Y-110333347D01*
X116130890Y-110192479D01*
X116194045Y-110008526D01*
X116202100Y-109874773D01*
X116237325Y-109727753D01*
X116296771Y-109751679D01*
X116303386Y-109775554D01*
X116317338Y-109756847D01*
X116485700Y-109569055D01*
X116562693Y-109379518D01*
X116395974Y-109533108D01*
X116268561Y-109608436D01*
X116144509Y-109454753D01*
X115997879Y-109376719D01*
X116132652Y-109324216D01*
X116096582Y-109332071D01*
X115983927Y-109372171D01*
X115966770Y-109376923D01*
X115706962Y-109389221D01*
X115521109Y-109439721D01*
X115377296Y-109522642D01*
X115243610Y-109632205D01*
X115234515Y-109637579D01*
X115230896Y-109640162D01*
X114953433Y-109750695D01*
X114763139Y-109829710D01*
X114648856Y-109883318D01*
X114599427Y-109917633D01*
X114328113Y-109917633D01*
X114400003Y-109859307D01*
X114598837Y-109734220D01*
G37*
G36*
X112258363Y-112229671D02*
G01*
X112258363Y-112546964D01*
X112513335Y-112546964D01*
X112764891Y-112546391D01*
X112842514Y-112543451D01*
X112842516Y-112543451D01*
X112842411Y-112745092D01*
X112062200Y-112745092D01*
X112062200Y-112229671D01*
X112160282Y-112229566D01*
X112258363Y-112229671D01*
G37*
G36*
X115599044Y-109761178D02*
G01*
X115732780Y-109940302D01*
X115560564Y-110059830D01*
X115351821Y-110116312D01*
X115276257Y-110003676D01*
X115241956Y-109861961D01*
X115318780Y-109744696D01*
X115428095Y-109650810D01*
X115599044Y-109761178D01*
G37*
G36*
X115859785Y-110136123D02*
G01*
X115951369Y-110310615D01*
X115951370Y-110310615D01*
X115946925Y-110325292D01*
X115824426Y-110360390D01*
X115634806Y-110338439D01*
X115527520Y-110272272D01*
X115609674Y-110113646D01*
X115733812Y-110020504D01*
X115859785Y-110136123D01*
G37*
G36*
X112841166Y-110981064D02*
G01*
X112818945Y-110991089D01*
X112783598Y-111006282D01*
X112768406Y-111013103D01*
X112751146Y-111020752D01*
X112697609Y-111043592D01*
X112625675Y-111074702D01*
X112603248Y-111084520D01*
X112580200Y-111094545D01*
X112511574Y-111124621D01*
X112494417Y-111131752D01*
X112473540Y-111140641D01*
X112463721Y-111145599D01*
X112486872Y-111156141D01*
X112511264Y-111166580D01*
X112529867Y-111174641D01*
X112548988Y-111182702D01*
X112567798Y-111190661D01*
X112592706Y-111201616D01*
X112663399Y-111232209D01*
X112681486Y-111240064D01*
X112727995Y-111259597D01*
X112747218Y-111268072D01*
X112775537Y-111280681D01*
X112804889Y-111292980D01*
X112827627Y-111302902D01*
X112840236Y-111308067D01*
X112841787Y-111407596D01*
X112841897Y-111407396D01*
X112841474Y-111507028D01*
X112451627Y-111507854D01*
X112061987Y-111508473D01*
X112061987Y-111310345D01*
X112188284Y-111310345D01*
X112369772Y-111315304D01*
X112434471Y-111321298D01*
X112444082Y-111319853D01*
X112426409Y-111310242D01*
X112402638Y-111301250D01*
X112335665Y-111274792D01*
X112271173Y-111249470D01*
X112239961Y-111237378D01*
X112201513Y-111222702D01*
X112178259Y-111213710D01*
X112177640Y-111144774D01*
X112177020Y-111075941D01*
X112185702Y-111073565D01*
X112202342Y-111067778D01*
X112221566Y-111060026D01*
X112256189Y-111046590D01*
X112281613Y-111037392D01*
X112302594Y-111029227D01*
X112329673Y-111018892D01*
X112345796Y-111012897D01*
X112422070Y-110983545D01*
X112443878Y-110971453D01*
X112435299Y-110969384D01*
X112352927Y-110976619D01*
X112171026Y-110982200D01*
X112062919Y-110981581D01*
X112062919Y-110783556D01*
X112841166Y-110783556D01*
X112841166Y-110981064D01*
G37*
G36*
X112249995Y-111950722D02*
G01*
X112365233Y-111950722D01*
X112365233Y-111637356D01*
X112535042Y-111637356D01*
X112535042Y-111950722D01*
X112656378Y-111950722D01*
X112656272Y-111779880D01*
X112656272Y-111609037D01*
X112841274Y-111610275D01*
X112841804Y-111880647D01*
X112842516Y-112150813D01*
X112061996Y-112150813D01*
X112061996Y-111609037D01*
X112249995Y-111609037D01*
X112249995Y-111950722D01*
G37*
G36*
X115966348Y-109623200D02*
G01*
X116063612Y-109704347D01*
X116051830Y-109724398D01*
X115881314Y-109840169D01*
X115754380Y-109878704D01*
X115694128Y-109740839D01*
X115665393Y-109575260D01*
X115773911Y-109567384D01*
X115966348Y-109623200D01*
G37*
M02*
