G04 #@! TF.GenerationSoftware,KiCad,Pcbnew,(6.0.7)*
G04 #@! TF.CreationDate,2023-01-27T22:08:51-08:00*
G04 #@! TF.ProjectId,FcmlPanel,46636d6c-5061-46e6-956c-2e6b69636164,rev?*
G04 #@! TF.SameCoordinates,Original*
G04 #@! TF.FileFunction,Soldermask,Top*
G04 #@! TF.FilePolarity,Negative*
%FSLAX46Y46*%
G04 Gerber Fmt 4.6, Leading zero omitted, Abs format (unit mm)*
G04 Created by KiCad (PCBNEW (6.0.7)) date 2023-01-27 22:08:51*
%MOMM*%
%LPD*%
G01*
G04 APERTURE LIST*
G04 Aperture macros list*
%AMRoundRect*
0 Rectangle with rounded corners*
0 $1 Rounding radius*
0 $2 $3 $4 $5 $6 $7 $8 $9 X,Y pos of 4 corners*
0 Add a 4 corners polygon primitive as box body*
4,1,4,$2,$3,$4,$5,$6,$7,$8,$9,$2,$3,0*
0 Add four circle primitives for the rounded corners*
1,1,$1+$1,$2,$3*
1,1,$1+$1,$4,$5*
1,1,$1+$1,$6,$7*
1,1,$1+$1,$8,$9*
0 Add four rect primitives between the rounded corners*
20,1,$1+$1,$2,$3,$4,$5,0*
20,1,$1+$1,$4,$5,$6,$7,0*
20,1,$1+$1,$6,$7,$8,$9,0*
20,1,$1+$1,$8,$9,$2,$3,0*%
%AMFreePoly0*
4,1,6,1.000000,0.000000,0.500000,-0.750000,-0.500000,-0.750000,-0.500000,0.750000,0.500000,0.750000,1.000000,0.000000,1.000000,0.000000,$1*%
%AMFreePoly1*
4,1,6,0.500000,-0.750000,-0.650000,-0.750000,-0.150000,0.000000,-0.650000,0.750000,0.500000,0.750000,0.500000,-0.750000,0.500000,-0.750000,$1*%
G04 Aperture macros list end*
%ADD10C,0.650000*%
%ADD11C,0.700000*%
%ADD12C,2.500000*%
%ADD13RoundRect,0.150000X0.650000X0.150000X-0.650000X0.150000X-0.650000X-0.150000X0.650000X-0.150000X0*%
%ADD14RoundRect,0.150000X-0.825000X-0.150000X0.825000X-0.150000X0.825000X0.150000X-0.825000X0.150000X0*%
%ADD15RoundRect,0.225000X0.225000X0.250000X-0.225000X0.250000X-0.225000X-0.250000X0.225000X-0.250000X0*%
%ADD16R,0.900000X1.200000*%
%ADD17R,2.000000X1.500000*%
%ADD18R,2.000000X3.800000*%
%ADD19RoundRect,0.250000X-1.175000X-0.450000X1.175000X-0.450000X1.175000X0.450000X-1.175000X0.450000X0*%
%ADD20RoundRect,0.200000X-0.200000X-0.275000X0.200000X-0.275000X0.200000X0.275000X-0.200000X0.275000X0*%
%ADD21RoundRect,0.250000X0.350000X0.625000X-0.350000X0.625000X-0.350000X-0.625000X0.350000X-0.625000X0*%
%ADD22O,1.200000X1.750000*%
%ADD23RoundRect,0.250000X-0.650000X0.325000X-0.650000X-0.325000X0.650000X-0.325000X0.650000X0.325000X0*%
%ADD24RoundRect,0.200000X0.200000X0.275000X-0.200000X0.275000X-0.200000X-0.275000X0.200000X-0.275000X0*%
%ADD25RoundRect,0.225000X0.250000X-0.225000X0.250000X0.225000X-0.250000X0.225000X-0.250000X-0.225000X0*%
%ADD26RoundRect,0.250000X-0.325000X-0.650000X0.325000X-0.650000X0.325000X0.650000X-0.325000X0.650000X0*%
%ADD27RoundRect,0.150000X0.587500X0.150000X-0.587500X0.150000X-0.587500X-0.150000X0.587500X-0.150000X0*%
%ADD28RoundRect,0.050000X0.387500X0.050000X-0.387500X0.050000X-0.387500X-0.050000X0.387500X-0.050000X0*%
%ADD29RoundRect,0.050000X0.050000X0.387500X-0.050000X0.387500X-0.050000X-0.387500X0.050000X-0.387500X0*%
%ADD30R,3.200000X3.200000*%
%ADD31RoundRect,0.225000X-0.250000X0.225000X-0.250000X-0.225000X0.250000X-0.225000X0.250000X0.225000X0*%
%ADD32RoundRect,0.250000X0.475000X-0.250000X0.475000X0.250000X-0.475000X0.250000X-0.475000X-0.250000X0*%
%ADD33RoundRect,0.225000X-0.225000X-0.250000X0.225000X-0.250000X0.225000X0.250000X-0.225000X0.250000X0*%
%ADD34RoundRect,0.218750X-0.218750X-0.256250X0.218750X-0.256250X0.218750X0.256250X-0.218750X0.256250X0*%
%ADD35R,1.800000X1.100000*%
%ADD36R,2.400000X0.740000*%
%ADD37RoundRect,0.250000X-0.250000X-0.475000X0.250000X-0.475000X0.250000X0.475000X-0.250000X0.475000X0*%
%ADD38C,1.152000*%
%ADD39RoundRect,0.150000X-0.512500X-0.150000X0.512500X-0.150000X0.512500X0.150000X-0.512500X0.150000X0*%
%ADD40RoundRect,0.150000X0.825000X0.150000X-0.825000X0.150000X-0.825000X-0.150000X0.825000X-0.150000X0*%
%ADD41R,1.000000X1.150000*%
%ADD42RoundRect,0.218750X0.218750X0.256250X-0.218750X0.256250X-0.218750X-0.256250X0.218750X-0.256250X0*%
%ADD43RoundRect,0.150000X0.512500X0.150000X-0.512500X0.150000X-0.512500X-0.150000X0.512500X-0.150000X0*%
%ADD44FreePoly0,270.000000*%
%ADD45FreePoly1,270.000000*%
%ADD46RoundRect,0.062500X-0.337500X-0.062500X0.337500X-0.062500X0.337500X0.062500X-0.337500X0.062500X0*%
%ADD47RoundRect,0.062500X-0.062500X-0.337500X0.062500X-0.337500X0.062500X0.337500X-0.062500X0.337500X0*%
%ADD48R,5.300000X5.300000*%
%ADD49C,0.650000*%
%ADD50R,1.150000X0.300000*%
%ADD51O,1.600000X1.000000*%
%ADD52O,2.100000X1.000000*%
%ADD53RoundRect,0.250000X-0.375000X-1.075000X0.375000X-1.075000X0.375000X1.075000X-0.375000X1.075000X0*%
%ADD54RoundRect,0.150000X-0.587500X-0.150000X0.587500X-0.150000X0.587500X0.150000X-0.587500X0.150000X0*%
%ADD55R,1.800000X7.500000*%
%ADD56RoundRect,0.250000X0.250000X0.475000X-0.250000X0.475000X-0.250000X-0.475000X0.250000X-0.475000X0*%
%ADD57R,1.200000X1.400000*%
%ADD58C,0.380000*%
%ADD59RoundRect,0.200000X0.275000X-0.200000X0.275000X0.200000X-0.275000X0.200000X-0.275000X-0.200000X0*%
%ADD60RoundRect,0.218750X-0.256250X0.218750X-0.256250X-0.218750X0.256250X-0.218750X0.256250X0.218750X0*%
%ADD61RoundRect,0.250000X0.650000X-0.325000X0.650000X0.325000X-0.650000X0.325000X-0.650000X-0.325000X0*%
%ADD62RoundRect,0.150000X0.150000X-0.512500X0.150000X0.512500X-0.150000X0.512500X-0.150000X-0.512500X0*%
%ADD63RoundRect,0.150000X-0.150000X0.587500X-0.150000X-0.587500X0.150000X-0.587500X0.150000X0.587500X0*%
%ADD64RoundRect,0.200000X-0.275000X0.200000X-0.275000X-0.200000X0.275000X-0.200000X0.275000X0.200000X0*%
%ADD65RoundRect,0.218750X0.256250X-0.218750X0.256250X0.218750X-0.256250X0.218750X-0.256250X-0.218750X0*%
%ADD66R,0.740000X2.400000*%
%ADD67R,3.350000X3.350000*%
%ADD68RoundRect,0.250000X0.325000X0.650000X-0.325000X0.650000X-0.325000X-0.650000X0.325000X-0.650000X0*%
%ADD69R,0.300000X1.150000*%
%ADD70O,1.000000X2.100000*%
%ADD71O,1.000000X1.600000*%
%ADD72R,1.700000X1.700000*%
%ADD73O,1.700000X1.700000*%
%ADD74RoundRect,0.075000X-0.521491X0.415425X0.415425X-0.521491X0.521491X-0.415425X-0.415425X0.521491X0*%
%ADD75RoundRect,0.075000X-0.521491X-0.415425X-0.415425X-0.521491X0.521491X0.415425X0.415425X0.521491X0*%
%ADD76R,1.200000X0.900000*%
G04 APERTURE END LIST*
D10*
X100350000Y-160000000D02*
G75*
G03*
X100350000Y-160000000I-325000J0D01*
G01*
D11*
X56000000Y-170957228D02*
G75*
G03*
X56000000Y-170957228I-250000J0D01*
G01*
X59000000Y-170957228D02*
G75*
G03*
X59000000Y-170957228I-250000J0D01*
G01*
X60500000Y-170957228D02*
G75*
G03*
X60500000Y-170957228I-250000J0D01*
G01*
X57500000Y-170957228D02*
G75*
G03*
X57500000Y-170957228I-250000J0D01*
G01*
D10*
X100325000Y-130000000D02*
G75*
G03*
X100325000Y-130000000I-325000J0D01*
G01*
D12*
X66250000Y-169000000D02*
G75*
G03*
X66250000Y-169000000I-1250000J0D01*
G01*
D10*
X30325000Y-160000000D02*
G75*
G03*
X30325000Y-160000000I-325000J0D01*
G01*
X137032107Y-154000000D02*
G75*
G03*
X137032107Y-154000000I-325000J0D01*
G01*
X137032107Y-164000000D02*
G75*
G03*
X137032107Y-164000000I-325000J0D01*
G01*
X109325000Y-144000000D02*
G75*
G03*
X109325000Y-144000000I-325000J0D01*
G01*
X115325000Y-164000000D02*
G75*
G03*
X115325000Y-164000000I-325000J0D01*
G01*
X109325000Y-118000000D02*
G75*
G03*
X109325000Y-118000000I-325000J0D01*
G01*
X121325000Y-144000000D02*
G75*
G03*
X121325000Y-144000000I-325000J0D01*
G01*
D13*
X53600000Y-159905000D03*
X53600000Y-158635000D03*
X53600000Y-157365000D03*
X53600000Y-156095000D03*
X46400000Y-156095000D03*
X46400000Y-157365000D03*
X46400000Y-158635000D03*
X46400000Y-159905000D03*
X83600000Y-159905000D03*
X83600000Y-158635000D03*
X83600000Y-157365000D03*
X83600000Y-156095000D03*
X76400000Y-156095000D03*
X76400000Y-157365000D03*
X76400000Y-158635000D03*
X76400000Y-159905000D03*
D14*
X42525000Y-120095000D03*
X42525000Y-121365000D03*
X42525000Y-122635000D03*
X42525000Y-123905000D03*
X47475000Y-123905000D03*
X47475000Y-122635000D03*
X47475000Y-121365000D03*
X47475000Y-120095000D03*
D15*
X63775000Y-126000000D03*
X62225000Y-126000000D03*
D16*
X88350000Y-103000000D03*
X91650000Y-103000000D03*
D17*
X99150000Y-151300000D03*
D18*
X92850000Y-149000000D03*
D17*
X99150000Y-149000000D03*
X99150000Y-146700000D03*
D19*
X63000000Y-140000000D03*
D20*
X53175000Y-113000000D03*
X54825000Y-113000000D03*
D16*
X51650000Y-115000000D03*
X48350000Y-115000000D03*
D21*
X33000000Y-119000000D03*
D22*
X31000000Y-119000000D03*
D23*
X54000000Y-107525000D03*
X54000000Y-110475000D03*
D24*
X38825000Y-165000000D03*
X37175000Y-165000000D03*
D25*
X54500000Y-137775000D03*
X54500000Y-136225000D03*
D19*
X37000000Y-125000000D03*
D26*
X95525000Y-107000000D03*
X98475000Y-107000000D03*
D23*
X31000000Y-104525000D03*
X31000000Y-107475000D03*
D26*
X95525000Y-110000000D03*
X98475000Y-110000000D03*
D27*
X92937500Y-168950000D03*
X92937500Y-167050000D03*
X91062500Y-168000000D03*
D28*
X53437500Y-147600000D03*
X53437500Y-147200000D03*
X53437500Y-146800000D03*
X53437500Y-146400000D03*
X53437500Y-146000000D03*
X53437500Y-145600000D03*
X53437500Y-145200000D03*
X53437500Y-144800000D03*
X53437500Y-144400000D03*
X53437500Y-144000000D03*
X53437500Y-143600000D03*
X53437500Y-143200000D03*
X53437500Y-142800000D03*
X53437500Y-142400000D03*
D29*
X52600000Y-141562500D03*
X52200000Y-141562500D03*
X51800000Y-141562500D03*
X51400000Y-141562500D03*
X51000000Y-141562500D03*
X50600000Y-141562500D03*
X50200000Y-141562500D03*
X49800000Y-141562500D03*
X49400000Y-141562500D03*
X49000000Y-141562500D03*
X48600000Y-141562500D03*
X48200000Y-141562500D03*
X47800000Y-141562500D03*
X47400000Y-141562500D03*
D28*
X46562500Y-142400000D03*
X46562500Y-142800000D03*
X46562500Y-143200000D03*
X46562500Y-143600000D03*
X46562500Y-144000000D03*
X46562500Y-144400000D03*
X46562500Y-144800000D03*
X46562500Y-145200000D03*
X46562500Y-145600000D03*
X46562500Y-146000000D03*
X46562500Y-146400000D03*
X46562500Y-146800000D03*
X46562500Y-147200000D03*
X46562500Y-147600000D03*
D29*
X47400000Y-148437500D03*
X47800000Y-148437500D03*
X48200000Y-148437500D03*
X48600000Y-148437500D03*
X49000000Y-148437500D03*
X49400000Y-148437500D03*
X49800000Y-148437500D03*
X50200000Y-148437500D03*
X50600000Y-148437500D03*
X51000000Y-148437500D03*
X51400000Y-148437500D03*
X51800000Y-148437500D03*
X52200000Y-148437500D03*
X52600000Y-148437500D03*
D30*
X50000000Y-145000000D03*
D19*
X77000000Y-132000000D03*
D31*
X56000000Y-116225000D03*
X56000000Y-117775000D03*
D26*
X83525000Y-117000000D03*
X86475000Y-117000000D03*
D32*
X28000000Y-126950000D03*
X28000000Y-125050000D03*
D33*
X49225000Y-105000000D03*
X50775000Y-105000000D03*
D20*
X87175000Y-169000000D03*
X88825000Y-169000000D03*
D16*
X38650000Y-130000000D03*
X35350000Y-130000000D03*
D20*
X91175000Y-157000000D03*
X92825000Y-157000000D03*
D34*
X41212500Y-161000000D03*
X42787500Y-161000000D03*
D20*
X91175000Y-159000000D03*
X92825000Y-159000000D03*
D34*
X71212500Y-146000000D03*
X72787500Y-146000000D03*
D33*
X76225000Y-126000000D03*
X77775000Y-126000000D03*
D15*
X83775000Y-126000000D03*
X82225000Y-126000000D03*
D14*
X77525000Y-110095000D03*
X77525000Y-111365000D03*
X77525000Y-112635000D03*
X77525000Y-113905000D03*
X82475000Y-113905000D03*
X82475000Y-112635000D03*
X82475000Y-111365000D03*
X82475000Y-110095000D03*
D35*
X86900000Y-135150000D03*
X93100000Y-135150000D03*
X86900000Y-138850000D03*
X93100000Y-138850000D03*
D36*
X61950000Y-160540000D03*
X58050000Y-160540000D03*
X61950000Y-159270000D03*
X58050000Y-159270000D03*
X61950000Y-158000000D03*
X58050000Y-158000000D03*
X61950000Y-156730000D03*
X58050000Y-156730000D03*
X61950000Y-155460000D03*
X58050000Y-155460000D03*
D19*
X73000000Y-132000000D03*
D15*
X70775000Y-113000000D03*
X69225000Y-113000000D03*
D37*
X33050000Y-150000000D03*
X34950000Y-150000000D03*
D33*
X49225000Y-162000000D03*
X50775000Y-162000000D03*
D24*
X34825000Y-138000000D03*
X33175000Y-138000000D03*
D38*
X100025000Y-160000000D03*
D31*
X46000000Y-152225000D03*
X46000000Y-153775000D03*
D19*
X30000000Y-150000000D03*
D33*
X57225000Y-149000000D03*
X58775000Y-149000000D03*
D19*
X30000000Y-140000000D03*
D24*
X42825000Y-142000000D03*
X41175000Y-142000000D03*
D19*
X57000000Y-132000000D03*
D39*
X78862500Y-116050000D03*
X78862500Y-117000000D03*
X78862500Y-117950000D03*
X81137500Y-117950000D03*
X81137500Y-116050000D03*
D31*
X52000000Y-152225000D03*
X52000000Y-153775000D03*
D40*
X62475000Y-107905000D03*
X62475000Y-106635000D03*
X62475000Y-105365000D03*
X62475000Y-104095000D03*
X57525000Y-104095000D03*
X57525000Y-105365000D03*
X57525000Y-106635000D03*
X57525000Y-107905000D03*
D33*
X77225000Y-162000000D03*
X78775000Y-162000000D03*
D17*
X35150000Y-147300000D03*
X35150000Y-145000000D03*
D18*
X28850000Y-145000000D03*
D17*
X35150000Y-142700000D03*
D41*
X82300000Y-136125000D03*
X82300000Y-137875000D03*
X83700000Y-137875000D03*
X83700000Y-136125000D03*
D39*
X58862500Y-116050000D03*
X58862500Y-117000000D03*
X58862500Y-117950000D03*
X61137500Y-117950000D03*
X61137500Y-116050000D03*
D16*
X30350000Y-153000000D03*
X33650000Y-153000000D03*
D42*
X88787500Y-157000000D03*
X87212500Y-157000000D03*
D31*
X82000000Y-152225000D03*
X82000000Y-153775000D03*
D15*
X73775000Y-126000000D03*
X72225000Y-126000000D03*
X42775000Y-149000000D03*
X41225000Y-149000000D03*
D43*
X33137500Y-126950000D03*
X33137500Y-126000000D03*
X33137500Y-125050000D03*
X30862500Y-125050000D03*
X30862500Y-126950000D03*
D44*
X78000000Y-152275000D03*
D45*
X78000000Y-153725000D03*
D20*
X87175000Y-165000000D03*
X88825000Y-165000000D03*
D24*
X43825000Y-130000000D03*
X42175000Y-130000000D03*
D16*
X71650000Y-115000000D03*
X68350000Y-115000000D03*
D24*
X40825000Y-116000000D03*
X39175000Y-116000000D03*
D25*
X45500000Y-137775000D03*
X45500000Y-136225000D03*
D24*
X38825000Y-155000000D03*
X37175000Y-155000000D03*
D46*
X76550000Y-142250000D03*
X76550000Y-142750000D03*
X76550000Y-143250000D03*
X76550000Y-143750000D03*
X76550000Y-144250000D03*
X76550000Y-144750000D03*
X76550000Y-145250000D03*
X76550000Y-145750000D03*
X76550000Y-146250000D03*
X76550000Y-146750000D03*
X76550000Y-147250000D03*
X76550000Y-147750000D03*
D47*
X77250000Y-148450000D03*
X77750000Y-148450000D03*
X78250000Y-148450000D03*
X78750000Y-148450000D03*
X79250000Y-148450000D03*
X79750000Y-148450000D03*
X80250000Y-148450000D03*
X80750000Y-148450000D03*
X81250000Y-148450000D03*
X81750000Y-148450000D03*
X82250000Y-148450000D03*
X82750000Y-148450000D03*
D46*
X83450000Y-147750000D03*
X83450000Y-147250000D03*
X83450000Y-146750000D03*
X83450000Y-146250000D03*
X83450000Y-145750000D03*
X83450000Y-145250000D03*
X83450000Y-144750000D03*
X83450000Y-144250000D03*
X83450000Y-143750000D03*
X83450000Y-143250000D03*
X83450000Y-142750000D03*
X83450000Y-142250000D03*
D47*
X82750000Y-141550000D03*
X82250000Y-141550000D03*
X81750000Y-141550000D03*
X81250000Y-141550000D03*
X80750000Y-141550000D03*
X80250000Y-141550000D03*
X79750000Y-141550000D03*
X79250000Y-141550000D03*
X78750000Y-141550000D03*
X78250000Y-141550000D03*
X77750000Y-141550000D03*
X77250000Y-141550000D03*
D48*
X80000000Y-145000000D03*
D33*
X86225000Y-126000000D03*
X87775000Y-126000000D03*
D14*
X62505000Y-120095000D03*
X62505000Y-121365000D03*
X62505000Y-122635000D03*
X62505000Y-123905000D03*
X67455000Y-123905000D03*
X67455000Y-122635000D03*
X67455000Y-121365000D03*
X67455000Y-120095000D03*
D15*
X42775000Y-144000000D03*
X41225000Y-144000000D03*
X72775000Y-141000000D03*
X71225000Y-141000000D03*
D24*
X38825000Y-161000000D03*
X37175000Y-161000000D03*
D31*
X48000000Y-152225000D03*
X48000000Y-153775000D03*
D23*
X28000000Y-104525000D03*
X28000000Y-107475000D03*
D20*
X73175000Y-113000000D03*
X74825000Y-113000000D03*
D49*
X32605000Y-170890000D03*
X32605000Y-165110000D03*
D50*
X33670000Y-164650000D03*
X33670000Y-165450000D03*
X33670000Y-166750000D03*
X33670000Y-167750000D03*
X33670000Y-168250000D03*
X33670000Y-169250000D03*
X33670000Y-170550000D03*
X33670000Y-171350000D03*
X33670000Y-171050000D03*
X33670000Y-170250000D03*
X33670000Y-169750000D03*
X33670000Y-168750000D03*
X33670000Y-167250000D03*
X33670000Y-166250000D03*
X33670000Y-165750000D03*
X33670000Y-164950000D03*
D51*
X28925000Y-172320000D03*
D52*
X33105000Y-163680000D03*
D51*
X28925000Y-163680000D03*
D52*
X33105000Y-172320000D03*
D23*
X46000000Y-107525000D03*
X46000000Y-110475000D03*
D33*
X46225000Y-126000000D03*
X47775000Y-126000000D03*
X87225000Y-146000000D03*
X88775000Y-146000000D03*
X42225000Y-128000000D03*
X43775000Y-128000000D03*
D24*
X46825000Y-105000000D03*
X45175000Y-105000000D03*
X38825000Y-159000000D03*
X37175000Y-159000000D03*
D23*
X34000000Y-110525000D03*
X34000000Y-113475000D03*
D42*
X88787500Y-155000000D03*
X87212500Y-155000000D03*
D33*
X56225000Y-126000000D03*
X57775000Y-126000000D03*
D36*
X68050000Y-155460000D03*
X71950000Y-155460000D03*
X68050000Y-156730000D03*
X71950000Y-156730000D03*
X68050000Y-158000000D03*
X71950000Y-158000000D03*
X68050000Y-159270000D03*
X71950000Y-159270000D03*
X68050000Y-160540000D03*
X71950000Y-160540000D03*
D24*
X42825000Y-169000000D03*
X41175000Y-169000000D03*
X38825000Y-157000000D03*
X37175000Y-157000000D03*
D37*
X95050000Y-154000000D03*
X96950000Y-154000000D03*
D21*
X98000000Y-119000000D03*
D22*
X96000000Y-119000000D03*
D14*
X52505000Y-120095000D03*
X52505000Y-121365000D03*
X52505000Y-122635000D03*
X52505000Y-123905000D03*
X57455000Y-123905000D03*
X57455000Y-122635000D03*
X57455000Y-121365000D03*
X57455000Y-120095000D03*
D34*
X41212500Y-157000000D03*
X42787500Y-157000000D03*
D19*
X43000000Y-132000000D03*
D53*
X30600000Y-130000000D03*
X33400000Y-130000000D03*
D14*
X57525000Y-110095000D03*
X57525000Y-111365000D03*
X57525000Y-112635000D03*
X57525000Y-113905000D03*
X62475000Y-113905000D03*
X62475000Y-112635000D03*
X62475000Y-111365000D03*
X62475000Y-110095000D03*
D15*
X53775000Y-126000000D03*
X52225000Y-126000000D03*
D26*
X95525000Y-104000000D03*
X98475000Y-104000000D03*
D15*
X72775000Y-144000000D03*
X71225000Y-144000000D03*
D40*
X82475000Y-107905000D03*
X82475000Y-106635000D03*
X82475000Y-105365000D03*
X82475000Y-104095000D03*
X77525000Y-104095000D03*
X77525000Y-105365000D03*
X77525000Y-106635000D03*
X77525000Y-107905000D03*
D15*
X50775000Y-113000000D03*
X49225000Y-113000000D03*
D24*
X88825000Y-144000000D03*
X87175000Y-144000000D03*
D34*
X41212500Y-159000000D03*
X42787500Y-159000000D03*
D49*
X97395000Y-165110000D03*
X97395000Y-170890000D03*
D50*
X96330000Y-171350000D03*
X96330000Y-170550000D03*
X96330000Y-169250000D03*
X96330000Y-168250000D03*
X96330000Y-167750000D03*
X96330000Y-166750000D03*
X96330000Y-165450000D03*
X96330000Y-164650000D03*
X96330000Y-164950000D03*
X96330000Y-165750000D03*
X96330000Y-166250000D03*
X96330000Y-167250000D03*
X96330000Y-168750000D03*
X96330000Y-169750000D03*
X96330000Y-170250000D03*
X96330000Y-171050000D03*
D52*
X96895000Y-163680000D03*
D51*
X101075000Y-172320000D03*
D52*
X96895000Y-172320000D03*
D51*
X101075000Y-163680000D03*
D24*
X42825000Y-167000000D03*
X41175000Y-167000000D03*
D33*
X57225000Y-144000000D03*
X58775000Y-144000000D03*
X87225000Y-149000000D03*
X88775000Y-149000000D03*
D24*
X30825000Y-123000000D03*
X29175000Y-123000000D03*
D35*
X36900000Y-135150000D03*
X43100000Y-135150000D03*
X36900000Y-138850000D03*
X43100000Y-138850000D03*
D33*
X46225000Y-128000000D03*
X47775000Y-128000000D03*
D20*
X91175000Y-171000000D03*
X92825000Y-171000000D03*
D14*
X82505000Y-120095000D03*
X82505000Y-121365000D03*
X82505000Y-122635000D03*
X82505000Y-123905000D03*
X87455000Y-123905000D03*
X87455000Y-122635000D03*
X87455000Y-121365000D03*
X87455000Y-120095000D03*
D23*
X34000000Y-104525000D03*
X34000000Y-107475000D03*
D24*
X47825000Y-130000000D03*
X46175000Y-130000000D03*
D23*
X31000000Y-110525000D03*
X31000000Y-113475000D03*
D19*
X63000000Y-146000000D03*
D54*
X37062500Y-167050000D03*
X37062500Y-168950000D03*
X38937500Y-168000000D03*
D20*
X71175000Y-148000000D03*
X72825000Y-148000000D03*
D19*
X63000000Y-142000000D03*
D33*
X87225000Y-141000000D03*
X88775000Y-141000000D03*
D23*
X74000000Y-107525000D03*
X74000000Y-110475000D03*
D24*
X34825000Y-123000000D03*
X33175000Y-123000000D03*
D20*
X91175000Y-161000000D03*
X92825000Y-161000000D03*
D33*
X72225000Y-128000000D03*
X73775000Y-128000000D03*
D19*
X30000000Y-156000000D03*
D23*
X66000000Y-107525000D03*
X66000000Y-110475000D03*
D25*
X47500000Y-137775000D03*
X47500000Y-136225000D03*
D33*
X52225000Y-128000000D03*
X53775000Y-128000000D03*
D26*
X63525000Y-117000000D03*
X66475000Y-117000000D03*
D55*
X87200000Y-111000000D03*
X92800000Y-111000000D03*
D33*
X76225000Y-128000000D03*
X77775000Y-128000000D03*
X89225000Y-105000000D03*
X90775000Y-105000000D03*
D19*
X100000000Y-123000000D03*
D24*
X86825000Y-105000000D03*
X85175000Y-105000000D03*
D33*
X66225000Y-126000000D03*
X67775000Y-126000000D03*
D20*
X87175000Y-167000000D03*
X88825000Y-167000000D03*
D33*
X56225000Y-128000000D03*
X57775000Y-128000000D03*
D15*
X42775000Y-151000000D03*
X41225000Y-151000000D03*
D20*
X81175000Y-162000000D03*
X82825000Y-162000000D03*
D42*
X88787500Y-161000000D03*
X87212500Y-161000000D03*
D37*
X91050000Y-144000000D03*
X92950000Y-144000000D03*
D38*
X100000000Y-130000000D03*
D56*
X37950000Y-127000000D03*
X36050000Y-127000000D03*
D31*
X50000000Y-152225000D03*
X50000000Y-153775000D03*
D33*
X69225000Y-105000000D03*
X70775000Y-105000000D03*
D57*
X52850000Y-138100000D03*
X52850000Y-135900000D03*
X51150000Y-135900000D03*
X51150000Y-138100000D03*
D24*
X57825000Y-130000000D03*
X56175000Y-130000000D03*
D20*
X91175000Y-165000000D03*
X92825000Y-165000000D03*
D42*
X88787500Y-159000000D03*
X87212500Y-159000000D03*
D24*
X77825000Y-130000000D03*
X76175000Y-130000000D03*
D15*
X43775000Y-126000000D03*
X42225000Y-126000000D03*
D24*
X38825000Y-142000000D03*
X37175000Y-142000000D03*
D40*
X42475000Y-107905000D03*
X42475000Y-106635000D03*
X42475000Y-105365000D03*
X42475000Y-104095000D03*
X37525000Y-104095000D03*
X37525000Y-105365000D03*
X37525000Y-106635000D03*
X37525000Y-107905000D03*
D24*
X66825000Y-105000000D03*
X65175000Y-105000000D03*
D31*
X49500000Y-136225000D03*
X49500000Y-137775000D03*
D16*
X48350000Y-103000000D03*
X51650000Y-103000000D03*
D24*
X38825000Y-171000000D03*
X37175000Y-171000000D03*
X73825000Y-130000000D03*
X72175000Y-130000000D03*
D19*
X53000000Y-132000000D03*
D26*
X95525000Y-113000000D03*
X98475000Y-113000000D03*
D31*
X76000000Y-116225000D03*
X76000000Y-117775000D03*
D14*
X72505000Y-120095000D03*
X72505000Y-121365000D03*
X72505000Y-122635000D03*
X72505000Y-123905000D03*
X77455000Y-123905000D03*
X77455000Y-122635000D03*
X77455000Y-121365000D03*
X77455000Y-120095000D03*
D24*
X53825000Y-130000000D03*
X52175000Y-130000000D03*
D33*
X95225000Y-144000000D03*
X96775000Y-144000000D03*
D24*
X68825000Y-146000000D03*
X67175000Y-146000000D03*
D19*
X94000000Y-123000000D03*
D20*
X91175000Y-155000000D03*
X92825000Y-155000000D03*
D33*
X33225000Y-140000000D03*
X34775000Y-140000000D03*
D19*
X63000000Y-144000000D03*
D31*
X80000000Y-136225000D03*
X80000000Y-137775000D03*
D14*
X37525000Y-110095000D03*
X37525000Y-111365000D03*
X37525000Y-112635000D03*
X37525000Y-113905000D03*
X42475000Y-113905000D03*
X42475000Y-112635000D03*
X42475000Y-111365000D03*
X42475000Y-110095000D03*
D16*
X68350000Y-103000000D03*
X71650000Y-103000000D03*
D34*
X41212500Y-155000000D03*
X42787500Y-155000000D03*
D19*
X47000000Y-132000000D03*
D20*
X33175000Y-136000000D03*
X34825000Y-136000000D03*
D38*
X30000000Y-160000000D03*
D31*
X121000000Y-136225000D03*
X121000000Y-137775000D03*
D58*
X111825000Y-150810000D03*
X116270000Y-150810000D03*
X113730000Y-150810000D03*
X115000000Y-150810000D03*
X116905000Y-150810000D03*
X113095000Y-150810000D03*
X117540000Y-150810000D03*
X118175000Y-150810000D03*
X115635000Y-150810000D03*
X114365000Y-150810000D03*
X112460000Y-150810000D03*
D59*
X123000000Y-141825000D03*
X123000000Y-140175000D03*
D60*
X107000000Y-131212500D03*
X107000000Y-132787500D03*
D58*
X103810000Y-122000000D03*
X103810000Y-118825000D03*
X103810000Y-123905000D03*
X103810000Y-123270000D03*
X103810000Y-120095000D03*
X103810000Y-122635000D03*
X103810000Y-119460000D03*
X103810000Y-121365000D03*
X103810000Y-124540000D03*
X103810000Y-120730000D03*
X103810000Y-125175000D03*
D39*
X130862500Y-158050000D03*
X130862500Y-159000000D03*
X130862500Y-159950000D03*
X133137500Y-159950000D03*
X133137500Y-158050000D03*
D25*
X120000000Y-113775000D03*
X120000000Y-112225000D03*
D61*
X122000000Y-122475000D03*
X122000000Y-119525000D03*
D15*
X127775000Y-164000000D03*
X126225000Y-164000000D03*
D62*
X117050000Y-119137500D03*
X118000000Y-119137500D03*
X118950000Y-119137500D03*
X118950000Y-116862500D03*
X118000000Y-116862500D03*
X117050000Y-116862500D03*
D38*
X136707107Y-154000000D03*
D57*
X112850000Y-119100000D03*
X112850000Y-116900000D03*
X111150000Y-116900000D03*
X111150000Y-119100000D03*
D31*
X115000000Y-140225000D03*
X115000000Y-141775000D03*
X123000000Y-136225000D03*
X123000000Y-137775000D03*
D38*
X136707107Y-164000000D03*
D15*
X118775000Y-164000000D03*
X117225000Y-164000000D03*
D31*
X123000000Y-131225000D03*
X123000000Y-132775000D03*
D63*
X115950000Y-112062500D03*
X114050000Y-112062500D03*
X115000000Y-113937500D03*
D38*
X109000000Y-144000000D03*
D64*
X109000000Y-126175000D03*
X109000000Y-127825000D03*
D31*
X107000000Y-136225000D03*
X107000000Y-137775000D03*
X113000000Y-122225000D03*
X113000000Y-123775000D03*
X111000000Y-122225000D03*
X111000000Y-123775000D03*
D24*
X118825000Y-162000000D03*
X117175000Y-162000000D03*
D34*
X126212500Y-154000000D03*
X127787500Y-154000000D03*
D24*
X118825000Y-156000000D03*
X117175000Y-156000000D03*
D54*
X117062500Y-158050000D03*
X117062500Y-159950000D03*
X118937500Y-159000000D03*
D65*
X111000000Y-141787500D03*
X111000000Y-140212500D03*
D58*
X103810000Y-161540000D03*
X103810000Y-157095000D03*
X103810000Y-162175000D03*
X103810000Y-159635000D03*
X103810000Y-157730000D03*
X103810000Y-158365000D03*
X103810000Y-160905000D03*
X103810000Y-155825000D03*
X103810000Y-156460000D03*
X103810000Y-160270000D03*
X103810000Y-159000000D03*
D31*
X109000000Y-136225000D03*
X109000000Y-137775000D03*
D33*
X131225000Y-156000000D03*
X132775000Y-156000000D03*
D38*
X115000000Y-164000000D03*
D58*
X117540000Y-153000000D03*
X113095000Y-153000000D03*
X115000000Y-153000000D03*
X114365000Y-153000000D03*
X118175000Y-153000000D03*
X115635000Y-153000000D03*
X116270000Y-153000000D03*
X116905000Y-153000000D03*
X111825000Y-153000000D03*
X112460000Y-153000000D03*
X113730000Y-153000000D03*
D66*
X117540000Y-145050000D03*
X117540000Y-148950000D03*
X116270000Y-145050000D03*
X116270000Y-148950000D03*
X115000000Y-145050000D03*
X115000000Y-148950000D03*
X113730000Y-145050000D03*
X113730000Y-148950000D03*
X112460000Y-145050000D03*
X112460000Y-148950000D03*
D46*
X122550000Y-157500000D03*
X122550000Y-158000000D03*
X122550000Y-158500000D03*
X122550000Y-159000000D03*
X122550000Y-159500000D03*
X122550000Y-160000000D03*
X122550000Y-160500000D03*
D47*
X123500000Y-161450000D03*
X124000000Y-161450000D03*
X124500000Y-161450000D03*
X125000000Y-161450000D03*
X125500000Y-161450000D03*
X126000000Y-161450000D03*
X126500000Y-161450000D03*
D46*
X127450000Y-160500000D03*
X127450000Y-160000000D03*
X127450000Y-159500000D03*
X127450000Y-159000000D03*
X127450000Y-158500000D03*
X127450000Y-158000000D03*
X127450000Y-157500000D03*
D47*
X126500000Y-156550000D03*
X126000000Y-156550000D03*
X125500000Y-156550000D03*
X125000000Y-156550000D03*
X124500000Y-156550000D03*
X124000000Y-156550000D03*
X123500000Y-156550000D03*
D67*
X125000000Y-159000000D03*
D68*
X133475000Y-163000000D03*
X130525000Y-163000000D03*
D64*
X119000000Y-122175000D03*
X119000000Y-123825000D03*
D60*
X123000000Y-126212500D03*
X123000000Y-127787500D03*
D59*
X112000000Y-113825000D03*
X112000000Y-112175000D03*
D49*
X117890000Y-107605000D03*
X112110000Y-107605000D03*
D69*
X118350000Y-108670000D03*
X117550000Y-108670000D03*
X116250000Y-108670000D03*
X115250000Y-108670000D03*
X114750000Y-108670000D03*
X113750000Y-108670000D03*
X112450000Y-108670000D03*
X111650000Y-108670000D03*
X111950000Y-108670000D03*
X112750000Y-108670000D03*
X113250000Y-108670000D03*
X114250000Y-108670000D03*
X115750000Y-108670000D03*
X116750000Y-108670000D03*
X117250000Y-108670000D03*
X118050000Y-108670000D03*
D70*
X110680000Y-108105000D03*
D71*
X110680000Y-103925000D03*
D70*
X119320000Y-108105000D03*
D71*
X119320000Y-103925000D03*
D58*
X106190000Y-119460000D03*
X106190000Y-120095000D03*
X106190000Y-120730000D03*
X106190000Y-123270000D03*
X106190000Y-123905000D03*
X106190000Y-125175000D03*
X106190000Y-121365000D03*
X106190000Y-122635000D03*
X106190000Y-118825000D03*
X106190000Y-122000000D03*
X106190000Y-124540000D03*
X106000000Y-155825000D03*
X106000000Y-160270000D03*
X106000000Y-159000000D03*
X106000000Y-157730000D03*
X106000000Y-159635000D03*
X106000000Y-162175000D03*
X106000000Y-156460000D03*
X106000000Y-161540000D03*
X106000000Y-158365000D03*
X106000000Y-160905000D03*
X106000000Y-157095000D03*
D72*
X138707107Y-155200000D03*
D73*
X138707107Y-157740000D03*
X138707107Y-160280000D03*
X138707107Y-162820000D03*
D65*
X121000000Y-141787500D03*
X121000000Y-140212500D03*
D74*
X114001212Y-127112124D03*
X113647658Y-127465678D03*
X113294105Y-127819231D03*
X112940551Y-128172785D03*
X112586998Y-128526338D03*
X112233445Y-128879891D03*
X111879891Y-129233445D03*
X111526338Y-129586998D03*
X111172785Y-129940551D03*
X110819231Y-130294105D03*
X110465678Y-130647658D03*
X110112124Y-131001212D03*
D75*
X110112124Y-132998788D03*
X110465678Y-133352342D03*
X110819231Y-133705895D03*
X111172785Y-134059449D03*
X111526338Y-134413002D03*
X111879891Y-134766555D03*
X112233445Y-135120109D03*
X112586998Y-135473662D03*
X112940551Y-135827215D03*
X113294105Y-136180769D03*
X113647658Y-136534322D03*
X114001212Y-136887876D03*
D74*
X115998788Y-136887876D03*
X116352342Y-136534322D03*
X116705895Y-136180769D03*
X117059449Y-135827215D03*
X117413002Y-135473662D03*
X117766555Y-135120109D03*
X118120109Y-134766555D03*
X118473662Y-134413002D03*
X118827215Y-134059449D03*
X119180769Y-133705895D03*
X119534322Y-133352342D03*
X119887876Y-132998788D03*
D75*
X119887876Y-131001212D03*
X119534322Y-130647658D03*
X119180769Y-130294105D03*
X118827215Y-129940551D03*
X118473662Y-129586998D03*
X118120109Y-129233445D03*
X117766555Y-128879891D03*
X117413002Y-128526338D03*
X117059449Y-128172785D03*
X116705895Y-127819231D03*
X116352342Y-127465678D03*
X115998788Y-127112124D03*
D31*
X107000000Y-126225000D03*
X107000000Y-127775000D03*
D49*
X112605000Y-161890000D03*
X112605000Y-156110000D03*
D50*
X113670000Y-155650000D03*
X113670000Y-156450000D03*
X113670000Y-157750000D03*
X113670000Y-158750000D03*
X113670000Y-159250000D03*
X113670000Y-160250000D03*
X113670000Y-161550000D03*
X113670000Y-162350000D03*
X113670000Y-162050000D03*
X113670000Y-161250000D03*
X113670000Y-160750000D03*
X113670000Y-159750000D03*
X113670000Y-158250000D03*
X113670000Y-157250000D03*
X113670000Y-156750000D03*
X113670000Y-155950000D03*
D52*
X113105000Y-163320000D03*
D51*
X108925000Y-163320000D03*
X108925000Y-154680000D03*
D52*
X113105000Y-154680000D03*
D38*
X109000000Y-118000000D03*
D60*
X109000000Y-122212500D03*
X109000000Y-123787500D03*
D38*
X121000000Y-144000000D03*
D25*
X121000000Y-127775000D03*
X121000000Y-126225000D03*
D24*
X123825000Y-154000000D03*
X122175000Y-154000000D03*
D59*
X113000000Y-141825000D03*
X113000000Y-140175000D03*
D65*
X119000000Y-141787500D03*
X119000000Y-140212500D03*
D33*
X122225000Y-164000000D03*
X123775000Y-164000000D03*
D59*
X118000000Y-113825000D03*
X118000000Y-112175000D03*
X117000000Y-141825000D03*
X117000000Y-140175000D03*
D76*
X110000000Y-111350000D03*
X110000000Y-114650000D03*
D16*
X116350000Y-154000000D03*
X119650000Y-154000000D03*
D59*
X117000000Y-123825000D03*
X117000000Y-122175000D03*
D25*
X115000000Y-123775000D03*
X115000000Y-122225000D03*
M02*
