M48
; DRILL file {KiCad (6.0.7)} date Sat Jan 28 01:31:09 2023
; FORMAT={-:-/ absolute / inch / decimal}
; #@! TF.CreationDate,2023-01-28T01:31:09-08:00
; #@! TF.GenerationSoftware,Kicad,Pcbnew,(6.0.7)
; #@! TF.FileFunction,Plated,1,2,PTH
FMAT,2
INCH
; #@! TA.AperFunction,Plated,PTH,ViaDrill
T1C0.0118
; #@! TA.AperFunction,Plated,PTH,ViaDrill
T2C0.0197
; #@! TA.AperFunction,Plated,PTH,ComponentDrill
T3C0.0236
; #@! TA.AperFunction,Plated,PTH,ComponentDrill
T4C0.0295
; #@! TA.AperFunction,Plated,PTH,ComponentDrill
T5C0.0394
%
G90
G05
T1
X1.1024Y-5.3543
X1.378Y-5.3937
X1.4567Y-6.1417
X1.4567Y-6.2992
X1.4961Y-5.6693
X1.4961Y-5.748
X1.4961Y-5.7874
X1.5945Y-5.6693
X1.5945Y-5.8661
X1.5945Y-5.9449
X1.6142Y-4.8819
X1.6535Y-4.5669
X1.7323Y-5.0787
X1.7323Y-5.5906
X1.7323Y-5.7874
X1.7323Y-5.8268
X1.7323Y-6.4567
X1.7717Y-4.0551
X1.7913Y-5.2756
X1.7913Y-5.3346
X1.811Y-6.0827
X1.811Y-6.4567
X1.8307Y-5.315
X1.8406Y-5.5217
X1.8701Y-5.3346
X1.8701Y-5.6693
X1.8799Y-5.5217
X1.8799Y-5.7972
X1.8898Y-5.0787
X1.8898Y-6.0827
X1.8898Y-6.2795
X1.9193Y-5.5217
X1.9291Y-4.7244
X1.9291Y-4.7835
X1.9291Y-4.8228
X1.9291Y-4.8819
X1.9291Y-5.0
X1.9488Y-5.4528
X1.9488Y-5.8071
X1.9685Y-5.1181
X1.9685Y-5.1969
X1.9685Y-5.6102
X1.9685Y-6.0827
X1.9685Y-6.122
X2.0087Y-4.7244
X2.0087Y-4.8819
X2.0276Y-6.378
X2.0472Y-4.4488
X2.0472Y-6.0827
X2.0472Y-6.1614
X2.0571Y-5.7972
X2.0669Y-5.6693
X2.0965Y-6.1122
X2.126Y-5.0787
X2.1457Y-5.3346
X2.2441Y-5.9449
X2.2835Y-5.0787
X2.3228Y-4.685
X2.3228Y-4.7244
X2.3228Y-4.8819
X2.3228Y-6.0236
X2.3425Y-5.6693
X2.3425Y-5.8661
X2.3622Y-6.1417
X2.3622Y-6.2598
X2.3622Y-6.2992
X2.4016Y-4.7244
X2.4016Y-4.8819
X2.4409Y-5.1969
X2.4409Y-5.4331
X2.4803Y-5.3937
X2.5591Y-4.0551
X2.5984Y-5.1969
X2.5984Y-5.3937
X2.6181Y-5.748
X2.7165Y-4.7244
X2.7165Y-4.7835
X2.7165Y-4.8228
X2.7165Y-4.8819
X2.7165Y-5.9449
X2.7165Y-6.0236
X2.7559Y-5.1969
X2.7559Y-5.3937
X2.7559Y-6.2598
X2.7756Y-5.5512
X2.7756Y-5.6693
X2.7756Y-5.8268
X2.7953Y-4.7244
X2.7953Y-4.8819
X2.7953Y-5.9449
X2.7953Y-6.0236
X2.8346Y-4.4488
X2.8937Y-5.5512
X2.8937Y-5.6693
X2.8937Y-5.8268
X2.9134Y-5.0787
X2.9134Y-6.122
X2.9134Y-6.2205
X2.9528Y-5.3543
X3.0709Y-5.0787
X3.0709Y-5.9646
X3.0709Y-6.1614
X3.0709Y-6.2795
X3.1102Y-4.685
X3.1102Y-4.7244
X3.1102Y-4.8819
X3.1132Y-5.2756
X3.1299Y-6.378
X3.1398Y-6.0827
X3.1496Y-5.3346
X3.1496Y-5.4528
X3.1496Y-6.2795
X3.1693Y-6.1122
X3.189Y-4.7244
X3.189Y-4.8819
X3.2283Y-5.9646
X3.2283Y-6.0827
X3.2283Y-6.1614
X3.2283Y-6.2008
X3.2283Y-6.2402
X3.3268Y-5.8268
X3.3465Y-4.0551
X3.3661Y-5.7087
X3.3661Y-5.7874
X3.3661Y-5.8268
X3.4055Y-5.5512
X3.4055Y-5.8661
X3.4055Y-6.2598
X3.4055Y-6.3386
X3.4055Y-6.4961
X3.4055Y-6.5748
X3.4055Y-6.6535
X3.5039Y-4.7244
X3.5039Y-4.7835
X3.5039Y-4.8228
X3.5039Y-4.8819
X3.5236Y-5.5512
X3.5236Y-5.6693
X3.5236Y-5.748
X3.5236Y-5.8661
X3.6614Y-6.1417
X3.6614Y-6.2992
X3.6811Y-5.7874
X3.7205Y-5.6693
X3.7205Y-5.7874
X3.7795Y-5.7874
X3.8386Y-5.9055
X3.878Y-5.7677
X3.878Y-5.8071
X4.2126Y-5.1181
X4.2126Y-5.4528
X4.252Y-5.0591
X4.2913Y-4.7835
X4.2913Y-5.0591
X4.2913Y-5.1969
X4.2913Y-5.4528
X4.3504Y-5.0492
X4.3701Y-4.9016
X4.3701Y-5.4528
X4.3799Y-5.0197
X4.3898Y-5.6299
X4.4083Y-5.4149
X4.4094Y-4.5079
X4.4094Y-5.4496
X4.4094Y-5.7874
X4.4291Y-5.6299
X4.4488Y-4.9016
X4.4685Y-5.7874
X4.4882Y-4.6457
X4.5108Y-4.685
X4.5276Y-4.7835
X4.5276Y-5.6102
X4.5276Y-5.7874
X4.5443Y-4.685
X4.5669Y-4.6457
X4.5866Y-5.7874
X4.6063Y-4.6447
X4.6063Y-4.9016
X4.6457Y-4.5079
X4.6457Y-4.6447
X4.6457Y-4.7441
X4.6457Y-4.9606
X4.6457Y-5.7874
X4.6457Y-6.4173
X4.6654Y-6.2992
X4.685Y-4.6447
X4.685Y-4.9606
X4.7047Y-6.4567
X4.7638Y-4.9409
X4.7638Y-5.4528
X4.7638Y-6.2402
X4.7638Y-6.378
X4.7835Y-6.063
X4.8425Y-5.2559
X4.8425Y-5.4528
X4.8425Y-5.4921
X4.8819Y-6.2205
X4.8819Y-6.4173
X4.9213Y-6.2205
X4.9213Y-6.3976
X4.9606Y-6.2205
X4.9606Y-6.4173
X5.0591Y-6.063
X5.0591Y-6.4567
X5.0984Y-6.4173
X5.1181Y-6.1811
X5.1575Y-6.1811
X5.1969Y-6.2598
X5.2559Y-6.1417
T2
X1.0827Y-4.2717
X1.1024Y-4.8819
X1.1024Y-5.0394
X1.122Y-4.0748
X1.1614Y-5.0984
X1.1614Y-5.1378
X1.2008Y-4.2717
X1.2008Y-4.5079
X1.2205Y-5.7087
X1.2402Y-4.0748
X1.2402Y-4.311
X1.2598Y-5.5906
X1.2638Y-5.8228
X1.2992Y-5.5906
X1.2992Y-5.7087
X1.2992Y-5.8268
X1.3189Y-4.2717
X1.3189Y-4.5079
X1.3583Y-4.0748
X1.3583Y-4.311
X1.378Y-6.5157
X1.378Y-6.7126
X1.4764Y-6.6142
X1.5945Y-6.6142
X1.8504Y-4.0551
X1.9291Y-5.6693
X1.9291Y-5.748
X1.9685Y-4.2126
X1.9685Y-4.3701
X2.0079Y-5.6693
X2.0079Y-5.748
X2.126Y-4.6063
X2.2638Y-4.6457
X2.3228Y-5.0
X2.3622Y-6.1024
X2.3622Y-6.2205
X2.3622Y-6.3386
X2.4016Y-4.6063
X2.6378Y-4.0551
X2.7165Y-5.0
X2.7559Y-4.2126
X2.7559Y-4.3701
X2.7559Y-6.1024
X2.7559Y-6.2205
X2.7559Y-6.3386
X2.9134Y-4.6063
X2.9134Y-5.4331
X2.9921Y-5.5118
X3.0512Y-4.6457
X3.0709Y-5.6299
X3.0709Y-5.7874
X3.189Y-4.6063
X3.2283Y-5.6299
X3.2283Y-5.7874
X3.3858Y-4.1732
X3.4252Y-4.0551
X3.5236Y-6.6142
X3.5433Y-4.5276
X3.6417Y-6.6142
X3.6614Y-4.0551
X3.7402Y-6.5157
X3.7402Y-6.7126
X3.937Y-4.0945
X3.937Y-4.1535
X3.937Y-4.2126
X3.937Y-4.2717
X3.937Y-4.3307
X3.937Y-4.3898
X3.937Y-4.4488
X4.4094Y-5.1969
X4.4291Y-4.3307
X4.4685Y-5.1378
X4.5276Y-4.4291
X4.5276Y-5.0787
X4.5276Y-5.315
X4.5276Y-6.1614
X4.5276Y-6.3583
X4.5866Y-5.1378
X4.626Y-4.3307
X4.626Y-6.2598
X4.6457Y-5.1969
X4.8425Y-4.9213
T4
X1.2205Y-4.685
X1.2992Y-4.685
X3.7795Y-4.685
X3.8583Y-4.685
T5
X5.4609Y-6.1102
X5.4609Y-6.2102
X5.4609Y-6.3102
X5.4609Y-6.4102
T3
G00X1.1506Y-6.4441
M15
G01X1.127Y-6.4441
M16
G05
G00X1.1506Y-6.7843
M15
G01X1.127Y-6.7843
M16
G05
G00X1.325Y-6.4441
M15
G01X1.2817Y-6.4441
M16
G05
G00X1.325Y-6.7843
M15
G01X1.2817Y-6.7843
M16
G05
G00X3.7931Y-6.4441
M15
G01X3.8364Y-6.4441
M16
G05
G00X3.7931Y-6.7843
M15
G01X3.8364Y-6.7843
M16
G05
G00X3.9675Y-6.4441
M15
G01X3.9911Y-6.4441
M16
G05
G00X3.9675Y-6.7843
M15
G01X3.9911Y-6.7843
M16
G05
G00X4.3002Y-6.0898
M15
G01X4.2766Y-6.0898
M16
G05
G00X4.3002Y-6.4299
M15
G01X4.2766Y-6.4299
M16
G05
G00X4.3575Y-4.1033
M15
G01X4.3575Y-4.0797
M16
G05
G00X4.3575Y-4.2778
M15
G01X4.3575Y-4.2344
M16
G05
G00X4.4746Y-6.0898
M15
G01X4.4313Y-6.0898
M16
G05
G00X4.4746Y-6.4299
M15
G01X4.4313Y-6.4299
M16
G05
G00X4.6976Y-4.1033
M15
G01X4.6976Y-4.0797
M16
G05
G00X4.6976Y-4.2778
M15
G01X4.6976Y-4.2344
M16
G05
T0
M30
