G04 #@! TF.GenerationSoftware,KiCad,Pcbnew,(6.0.7)*
G04 #@! TF.CreationDate,2023-01-27T22:08:51-08:00*
G04 #@! TF.ProjectId,FcmlPanel,46636d6c-5061-46e6-956c-2e6b69636164,rev?*
G04 #@! TF.SameCoordinates,Original*
G04 #@! TF.FileFunction,Soldermask,Bot*
G04 #@! TF.FilePolarity,Negative*
%FSLAX46Y46*%
G04 Gerber Fmt 4.6, Leading zero omitted, Abs format (unit mm)*
G04 Created by KiCad (PCBNEW (6.0.7)) date 2023-01-27 22:08:51*
%MOMM*%
%LPD*%
G01*
G04 APERTURE LIST*
G04 Aperture macros list*
%AMRoundRect*
0 Rectangle with rounded corners*
0 $1 Rounding radius*
0 $2 $3 $4 $5 $6 $7 $8 $9 X,Y pos of 4 corners*
0 Add a 4 corners polygon primitive as box body*
4,1,4,$2,$3,$4,$5,$6,$7,$8,$9,$2,$3,0*
0 Add four circle primitives for the rounded corners*
1,1,$1+$1,$2,$3*
1,1,$1+$1,$4,$5*
1,1,$1+$1,$6,$7*
1,1,$1+$1,$8,$9*
0 Add four rect primitives between the rounded corners*
20,1,$1+$1,$2,$3,$4,$5,0*
20,1,$1+$1,$4,$5,$6,$7,0*
20,1,$1+$1,$6,$7,$8,$9,0*
20,1,$1+$1,$8,$9,$2,$3,0*%
G04 Aperture macros list end*
%ADD10C,0.650000*%
%ADD11C,0.700000*%
%ADD12C,2.500000*%
%ADD13RoundRect,0.250000X0.350000X0.625000X-0.350000X0.625000X-0.350000X-0.625000X0.350000X-0.625000X0*%
%ADD14O,1.200000X1.750000*%
%ADD15C,1.152000*%
%ADD16C,0.650000*%
%ADD17O,1.600000X1.000000*%
%ADD18O,2.100000X1.000000*%
%ADD19C,0.380000*%
%ADD20O,1.000000X2.100000*%
%ADD21O,1.000000X1.600000*%
%ADD22R,1.700000X1.700000*%
%ADD23O,1.700000X1.700000*%
G04 APERTURE END LIST*
D10*
X100350000Y-160000000D02*
G75*
G03*
X100350000Y-160000000I-325000J0D01*
G01*
X100325000Y-130000000D02*
G75*
G03*
X100325000Y-130000000I-325000J0D01*
G01*
X30325000Y-160000000D02*
G75*
G03*
X30325000Y-160000000I-325000J0D01*
G01*
X137032107Y-154000000D02*
G75*
G03*
X137032107Y-154000000I-325000J0D01*
G01*
X137032107Y-164000000D02*
G75*
G03*
X137032107Y-164000000I-325000J0D01*
G01*
X109325000Y-144000000D02*
G75*
G03*
X109325000Y-144000000I-325000J0D01*
G01*
X115325000Y-164000000D02*
G75*
G03*
X115325000Y-164000000I-325000J0D01*
G01*
X109325000Y-118000000D02*
G75*
G03*
X109325000Y-118000000I-325000J0D01*
G01*
X121325000Y-144000000D02*
G75*
G03*
X121325000Y-144000000I-325000J0D01*
G01*
D11*
X116000000Y-102000000D02*
G75*
G03*
X116000000Y-102000000I-250000J0D01*
G01*
X114500000Y-102000000D02*
G75*
G03*
X114500000Y-102000000I-250000J0D01*
G01*
X117500000Y-102000000D02*
G75*
G03*
X117500000Y-102000000I-250000J0D01*
G01*
X113000000Y-102000000D02*
G75*
G03*
X113000000Y-102000000I-250000J0D01*
G01*
D12*
X116250000Y-106000000D02*
G75*
G03*
X116250000Y-106000000I-1250000J0D01*
G01*
D11*
X107250000Y-158250000D02*
G75*
G03*
X107250000Y-158250000I-250000J0D01*
G01*
X107250000Y-159750000D02*
G75*
G03*
X107250000Y-159750000I-250000J0D01*
G01*
X107250000Y-156750000D02*
G75*
G03*
X107250000Y-156750000I-250000J0D01*
G01*
X107250000Y-161250000D02*
G75*
G03*
X107250000Y-161250000I-250000J0D01*
G01*
D12*
X112250000Y-159000000D02*
G75*
G03*
X112250000Y-159000000I-1250000J0D01*
G01*
D13*
X33000000Y-119000000D03*
D14*
X31000000Y-119000000D03*
D15*
X100025000Y-160000000D03*
D16*
X32605000Y-170890000D03*
X32605000Y-165110000D03*
D17*
X28925000Y-172320000D03*
D18*
X33105000Y-163680000D03*
D17*
X28925000Y-163680000D03*
D18*
X33105000Y-172320000D03*
D13*
X98000000Y-119000000D03*
D14*
X96000000Y-119000000D03*
D16*
X97395000Y-165110000D03*
X97395000Y-170890000D03*
D18*
X96895000Y-163680000D03*
D17*
X101075000Y-172320000D03*
D18*
X96895000Y-172320000D03*
D17*
X101075000Y-163680000D03*
D15*
X100000000Y-130000000D03*
X30000000Y-160000000D03*
D19*
X111825000Y-150810000D03*
X116270000Y-150810000D03*
X113730000Y-150810000D03*
X115000000Y-150810000D03*
X116905000Y-150810000D03*
X113095000Y-150810000D03*
X117540000Y-150810000D03*
X118175000Y-150810000D03*
X115635000Y-150810000D03*
X114365000Y-150810000D03*
X112460000Y-150810000D03*
X103810000Y-122000000D03*
X103810000Y-118825000D03*
X103810000Y-123905000D03*
X103810000Y-123270000D03*
X103810000Y-120095000D03*
X103810000Y-122635000D03*
X103810000Y-119460000D03*
X103810000Y-121365000D03*
X103810000Y-124540000D03*
X103810000Y-120730000D03*
X103810000Y-125175000D03*
D15*
X136707107Y-154000000D03*
X136707107Y-164000000D03*
X109000000Y-144000000D03*
D19*
X103810000Y-161540000D03*
X103810000Y-157095000D03*
X103810000Y-162175000D03*
X103810000Y-159635000D03*
X103810000Y-157730000D03*
X103810000Y-158365000D03*
X103810000Y-160905000D03*
X103810000Y-155825000D03*
X103810000Y-156460000D03*
X103810000Y-160270000D03*
X103810000Y-159000000D03*
D15*
X115000000Y-164000000D03*
D19*
X117540000Y-153000000D03*
X113095000Y-153000000D03*
X115000000Y-153000000D03*
X114365000Y-153000000D03*
X118175000Y-153000000D03*
X115635000Y-153000000D03*
X116270000Y-153000000D03*
X116905000Y-153000000D03*
X111825000Y-153000000D03*
X112460000Y-153000000D03*
X113730000Y-153000000D03*
D16*
X117890000Y-107605000D03*
X112110000Y-107605000D03*
D20*
X110680000Y-108105000D03*
D21*
X110680000Y-103925000D03*
D20*
X119320000Y-108105000D03*
D21*
X119320000Y-103925000D03*
D19*
X106190000Y-119460000D03*
X106190000Y-120095000D03*
X106190000Y-120730000D03*
X106190000Y-123270000D03*
X106190000Y-123905000D03*
X106190000Y-125175000D03*
X106190000Y-121365000D03*
X106190000Y-122635000D03*
X106190000Y-118825000D03*
X106190000Y-122000000D03*
X106190000Y-124540000D03*
X106000000Y-155825000D03*
X106000000Y-160270000D03*
X106000000Y-159000000D03*
X106000000Y-157730000D03*
X106000000Y-159635000D03*
X106000000Y-162175000D03*
X106000000Y-156460000D03*
X106000000Y-161540000D03*
X106000000Y-158365000D03*
X106000000Y-160905000D03*
X106000000Y-157095000D03*
D22*
X138707107Y-155200000D03*
D23*
X138707107Y-157740000D03*
X138707107Y-160280000D03*
X138707107Y-162820000D03*
D16*
X112605000Y-161890000D03*
X112605000Y-156110000D03*
D18*
X113105000Y-163320000D03*
D17*
X108925000Y-163320000D03*
X108925000Y-154680000D03*
D18*
X113105000Y-154680000D03*
D15*
X109000000Y-118000000D03*
X121000000Y-144000000D03*
M02*
