M48
; DRILL file {KiCad (6.0.7)} date Sat Jan 28 01:31:09 2023
; FORMAT={-:-/ absolute / inch / decimal}
; #@! TF.CreationDate,2023-01-28T01:31:09-08:00
; #@! TF.GenerationSoftware,Kicad,Pcbnew,(6.0.7)
; #@! TF.FileFunction,NonPlated,1,2,NPTH
FMAT,2
INCH
; #@! TA.AperFunction,NonPlated,NPTH,ComponentDrill
T1C0.0150
; #@! TA.AperFunction,NonPlated,NPTH,ComponentDrill
T2C0.0256
; #@! TA.AperFunction,NonPlated,NPTH,ComponentDrill
T3C0.0454
%
G90
G05
T1
X4.087Y-4.6781
X4.087Y-4.7031
X4.087Y-4.7281
X4.087Y-4.7531
X4.087Y-4.7781
X4.087Y-4.8031
X4.087Y-4.8281
X4.087Y-4.8531
X4.087Y-4.8781
X4.087Y-4.9031
X4.087Y-4.9281
X4.087Y-6.1348
X4.087Y-6.1598
X4.087Y-6.1848
X4.087Y-6.2098
X4.087Y-6.2348
X4.087Y-6.2598
X4.087Y-6.2848
X4.087Y-6.3098
X4.087Y-6.3348
X4.087Y-6.3598
X4.087Y-6.3848
X4.1732Y-6.1348
X4.1732Y-6.1598
X4.1732Y-6.1848
X4.1732Y-6.2098
X4.1732Y-6.2348
X4.1732Y-6.2598
X4.1732Y-6.2848
X4.1732Y-6.3098
X4.1732Y-6.3348
X4.1732Y-6.3598
X4.1732Y-6.3848
X4.1807Y-4.6781
X4.1807Y-4.7031
X4.1807Y-4.7281
X4.1807Y-4.7531
X4.1807Y-4.7781
X4.1807Y-4.8031
X4.1807Y-4.8281
X4.1807Y-4.8531
X4.1807Y-4.8781
X4.1807Y-4.9031
X4.1807Y-4.9281
X4.4026Y-5.9374
X4.4026Y-6.0236
X4.4276Y-5.9374
X4.4276Y-6.0236
X4.4526Y-5.9374
X4.4526Y-6.0236
X4.4776Y-5.9374
X4.4776Y-6.0236
X4.5026Y-5.9374
X4.5026Y-6.0236
X4.5276Y-5.9374
X4.5276Y-6.0236
X4.5526Y-5.9374
X4.5526Y-6.0236
X4.5776Y-5.9374
X4.5776Y-6.0236
X4.6026Y-5.9374
X4.6026Y-6.0236
X4.6276Y-5.9374
X4.6276Y-6.0236
X4.6526Y-5.9374
X4.6526Y-6.0236
T2
X1.2837Y-6.5004
X1.2837Y-6.728
X3.8344Y-6.5004
X3.8344Y-6.728
X4.4138Y-4.2364
X4.4333Y-6.1461
X4.4333Y-6.3736
X4.6413Y-4.2364
T3
X1.1811Y-6.2992
X3.937Y-5.1181
X3.938Y-6.2992
X4.2913Y-4.6457
X4.2913Y-5.6693
X4.5276Y-6.4567
X4.7638Y-5.6693
X5.3822Y-6.063
X5.3822Y-6.4567
T0
M30
