G04 #@! TF.GenerationSoftware,KiCad,Pcbnew,(6.0.6-0)*
G04 #@! TF.CreationDate,2022-08-30T17:18:48-07:00*
G04 #@! TF.ProjectId,RobotDriver,526f626f-7444-4726-9976-65722e6b6963,rev?*
G04 #@! TF.SameCoordinates,Original*
G04 #@! TF.FileFunction,Legend,Top*
G04 #@! TF.FilePolarity,Positive*
%FSLAX46Y46*%
G04 Gerber Fmt 4.6, Leading zero omitted, Abs format (unit mm)*
G04 Created by KiCad (PCBNEW (6.0.6-0)) date 2022-08-30 17:18:48*
%MOMM*%
%LPD*%
G01*
G04 APERTURE LIST*
%ADD10C,0.152400*%
%ADD11C,0.150000*%
%ADD12C,0.154000*%
%ADD13C,0.120000*%
%ADD14C,0.100000*%
G04 APERTURE END LIST*
D10*
X108523809Y-56821428D02*
X109476190Y-56821428D01*
X108714285Y-57250000D02*
X109285714Y-57250000D01*
X109000000Y-56178571D02*
X109000000Y-56821428D01*
X109095238Y-57678571D02*
X108904761Y-57678571D01*
X118023809Y-54321428D02*
X118976190Y-54321428D01*
X118214285Y-54750000D02*
X118785714Y-54750000D01*
X118500000Y-53678571D02*
X118500000Y-54321428D01*
X118595238Y-55178571D02*
X118404761Y-55178571D01*
D11*
X173835595Y-52178571D02*
X173835595Y-50678571D01*
X174168928Y-51750000D01*
X174502261Y-50678571D01*
X174502261Y-52178571D01*
X174930833Y-50821428D02*
X174978452Y-50750000D01*
X175073690Y-50678571D01*
X175311785Y-50678571D01*
X175407023Y-50750000D01*
X175454642Y-50821428D01*
X175502261Y-50964285D01*
X175502261Y-51107142D01*
X175454642Y-51321428D01*
X174883214Y-52178571D01*
X175502261Y-52178571D01*
X175883214Y-51750000D02*
X176359404Y-51750000D01*
X175787976Y-52178571D02*
X176121309Y-50678571D01*
X176454642Y-52178571D01*
X124335595Y-52178571D02*
X124335595Y-50678571D01*
X124668928Y-51750000D01*
X125002261Y-50678571D01*
X125002261Y-52178571D01*
X126002261Y-52178571D02*
X125430833Y-52178571D01*
X125716547Y-52178571D02*
X125716547Y-50678571D01*
X125621309Y-50892857D01*
X125526071Y-51035714D01*
X125430833Y-51107142D01*
X126764166Y-51392857D02*
X126907023Y-51464285D01*
X126954642Y-51535714D01*
X127002261Y-51678571D01*
X127002261Y-51892857D01*
X126954642Y-52035714D01*
X126907023Y-52107142D01*
X126811785Y-52178571D01*
X126430833Y-52178571D01*
X126430833Y-50678571D01*
X126764166Y-50678571D01*
X126859404Y-50750000D01*
X126907023Y-50821428D01*
X126954642Y-50964285D01*
X126954642Y-51107142D01*
X126907023Y-51250000D01*
X126859404Y-51321428D01*
X126764166Y-51392857D01*
X126430833Y-51392857D01*
D10*
X118119047Y-57107142D02*
X118880952Y-57107142D01*
X118500000Y-57678571D02*
X118500000Y-56535714D01*
X149523809Y-59321428D02*
X150476190Y-59321428D01*
X149714285Y-59750000D02*
X150285714Y-59750000D01*
X150000000Y-58678571D02*
X150000000Y-59321428D01*
X150095238Y-60178571D02*
X149904761Y-60178571D01*
D11*
X179435714Y-115762214D02*
X179735714Y-115762214D01*
X179864285Y-116233642D02*
X179435714Y-116233642D01*
X179435714Y-115333642D01*
X179864285Y-115333642D01*
X180250000Y-116233642D02*
X180250000Y-115333642D01*
X180464285Y-115333642D01*
X180592857Y-115376500D01*
X180678571Y-115462214D01*
X180721428Y-115547928D01*
X180764285Y-115719357D01*
X180764285Y-115847928D01*
X180721428Y-116019357D01*
X180678571Y-116105071D01*
X180592857Y-116190785D01*
X180464285Y-116233642D01*
X180250000Y-116233642D01*
X181621428Y-115376500D02*
X181535714Y-115333642D01*
X181407142Y-115333642D01*
X181278571Y-115376500D01*
X181192857Y-115462214D01*
X181150000Y-115547928D01*
X181107142Y-115719357D01*
X181107142Y-115847928D01*
X181150000Y-116019357D01*
X181192857Y-116105071D01*
X181278571Y-116190785D01*
X181407142Y-116233642D01*
X181492857Y-116233642D01*
X181621428Y-116190785D01*
X181664285Y-116147928D01*
X181664285Y-115847928D01*
X181492857Y-115847928D01*
X183250000Y-116233642D02*
X182950000Y-115805071D01*
X182735714Y-116233642D02*
X182735714Y-115333642D01*
X183078571Y-115333642D01*
X183164285Y-115376500D01*
X183207142Y-115419357D01*
X183250000Y-115505071D01*
X183250000Y-115633642D01*
X183207142Y-115719357D01*
X183164285Y-115762214D01*
X183078571Y-115805071D01*
X182735714Y-115805071D01*
X183764285Y-116233642D02*
X183678571Y-116190785D01*
X183635714Y-116147928D01*
X183592857Y-116062214D01*
X183592857Y-115805071D01*
X183635714Y-115719357D01*
X183678571Y-115676500D01*
X183764285Y-115633642D01*
X183892857Y-115633642D01*
X183978571Y-115676500D01*
X184021428Y-115719357D01*
X184064285Y-115805071D01*
X184064285Y-116062214D01*
X184021428Y-116147928D01*
X183978571Y-116190785D01*
X183892857Y-116233642D01*
X183764285Y-116233642D01*
X184450000Y-116233642D02*
X184450000Y-115333642D01*
X184450000Y-115676500D02*
X184535714Y-115633642D01*
X184707142Y-115633642D01*
X184792857Y-115676500D01*
X184835714Y-115719357D01*
X184878571Y-115805071D01*
X184878571Y-116062214D01*
X184835714Y-116147928D01*
X184792857Y-116190785D01*
X184707142Y-116233642D01*
X184535714Y-116233642D01*
X184450000Y-116190785D01*
X185392857Y-116233642D02*
X185307142Y-116190785D01*
X185264285Y-116147928D01*
X185221428Y-116062214D01*
X185221428Y-115805071D01*
X185264285Y-115719357D01*
X185307142Y-115676500D01*
X185392857Y-115633642D01*
X185521428Y-115633642D01*
X185607142Y-115676500D01*
X185650000Y-115719357D01*
X185692857Y-115805071D01*
X185692857Y-116062214D01*
X185650000Y-116147928D01*
X185607142Y-116190785D01*
X185521428Y-116233642D01*
X185392857Y-116233642D01*
X185950000Y-115633642D02*
X186292857Y-115633642D01*
X186078571Y-115333642D02*
X186078571Y-116105071D01*
X186121428Y-116190785D01*
X186207142Y-116233642D01*
X186292857Y-116233642D01*
X187278571Y-116233642D02*
X187278571Y-115333642D01*
X187492857Y-115333642D01*
X187621428Y-115376500D01*
X187707142Y-115462214D01*
X187750000Y-115547928D01*
X187792857Y-115719357D01*
X187792857Y-115847928D01*
X187750000Y-116019357D01*
X187707142Y-116105071D01*
X187621428Y-116190785D01*
X187492857Y-116233642D01*
X187278571Y-116233642D01*
X188178571Y-116233642D02*
X188178571Y-115633642D01*
X188178571Y-115805071D02*
X188221428Y-115719357D01*
X188264285Y-115676500D01*
X188350000Y-115633642D01*
X188435714Y-115633642D01*
X188735714Y-116233642D02*
X188735714Y-115633642D01*
X188735714Y-115333642D02*
X188692857Y-115376500D01*
X188735714Y-115419357D01*
X188778571Y-115376500D01*
X188735714Y-115333642D01*
X188735714Y-115419357D01*
X189078571Y-115633642D02*
X189292857Y-116233642D01*
X189507142Y-115633642D01*
X190192857Y-116190785D02*
X190107142Y-116233642D01*
X189935714Y-116233642D01*
X189850000Y-116190785D01*
X189807142Y-116105071D01*
X189807142Y-115762214D01*
X189850000Y-115676500D01*
X189935714Y-115633642D01*
X190107142Y-115633642D01*
X190192857Y-115676500D01*
X190235714Y-115762214D01*
X190235714Y-115847928D01*
X189807142Y-115933642D01*
X190621428Y-116233642D02*
X190621428Y-115633642D01*
X190621428Y-115805071D02*
X190664285Y-115719357D01*
X190707142Y-115676500D01*
X190792857Y-115633642D01*
X190878571Y-115633642D01*
X192164285Y-115762214D02*
X192292857Y-115805071D01*
X192335714Y-115847928D01*
X192378571Y-115933642D01*
X192378571Y-116062214D01*
X192335714Y-116147928D01*
X192292857Y-116190785D01*
X192207142Y-116233642D01*
X191864285Y-116233642D01*
X191864285Y-115333642D01*
X192164285Y-115333642D01*
X192250000Y-115376500D01*
X192292857Y-115419357D01*
X192335714Y-115505071D01*
X192335714Y-115590785D01*
X192292857Y-115676500D01*
X192250000Y-115719357D01*
X192164285Y-115762214D01*
X191864285Y-115762214D01*
X192892857Y-116233642D02*
X192807142Y-116190785D01*
X192764285Y-116147928D01*
X192721428Y-116062214D01*
X192721428Y-115805071D01*
X192764285Y-115719357D01*
X192807142Y-115676500D01*
X192892857Y-115633642D01*
X193021428Y-115633642D01*
X193107142Y-115676500D01*
X193150000Y-115719357D01*
X193192857Y-115805071D01*
X193192857Y-116062214D01*
X193150000Y-116147928D01*
X193107142Y-116190785D01*
X193021428Y-116233642D01*
X192892857Y-116233642D01*
X193964285Y-116233642D02*
X193964285Y-115762214D01*
X193921428Y-115676500D01*
X193835714Y-115633642D01*
X193664285Y-115633642D01*
X193578571Y-115676500D01*
X193964285Y-116190785D02*
X193878571Y-116233642D01*
X193664285Y-116233642D01*
X193578571Y-116190785D01*
X193535714Y-116105071D01*
X193535714Y-116019357D01*
X193578571Y-115933642D01*
X193664285Y-115890785D01*
X193878571Y-115890785D01*
X193964285Y-115847928D01*
X194392857Y-116233642D02*
X194392857Y-115633642D01*
X194392857Y-115805071D02*
X194435714Y-115719357D01*
X194478571Y-115676500D01*
X194564285Y-115633642D01*
X194650000Y-115633642D01*
X195335714Y-116233642D02*
X195335714Y-115333642D01*
X195335714Y-116190785D02*
X195250000Y-116233642D01*
X195078571Y-116233642D01*
X194992857Y-116190785D01*
X194950000Y-116147928D01*
X194907142Y-116062214D01*
X194907142Y-115805071D01*
X194950000Y-115719357D01*
X194992857Y-115676500D01*
X195078571Y-115633642D01*
X195250000Y-115633642D01*
X195335714Y-115676500D01*
X196364285Y-115633642D02*
X196578571Y-116233642D01*
X196792857Y-115633642D01*
X197607142Y-116233642D02*
X197092857Y-116233642D01*
X197350000Y-116233642D02*
X197350000Y-115333642D01*
X197264285Y-115462214D01*
X197178571Y-115547928D01*
X197092857Y-115590785D01*
X185435714Y-117682642D02*
X185435714Y-116782642D01*
X185650000Y-116782642D01*
X185778571Y-116825500D01*
X185864285Y-116911214D01*
X185907142Y-116996928D01*
X185950000Y-117168357D01*
X185950000Y-117296928D01*
X185907142Y-117468357D01*
X185864285Y-117554071D01*
X185778571Y-117639785D01*
X185650000Y-117682642D01*
X185435714Y-117682642D01*
X186721428Y-117082642D02*
X186721428Y-117682642D01*
X186335714Y-117082642D02*
X186335714Y-117554071D01*
X186378571Y-117639785D01*
X186464285Y-117682642D01*
X186592857Y-117682642D01*
X186678571Y-117639785D01*
X186721428Y-117596928D01*
X187535714Y-117639785D02*
X187450000Y-117682642D01*
X187278571Y-117682642D01*
X187192857Y-117639785D01*
X187150000Y-117596928D01*
X187107142Y-117511214D01*
X187107142Y-117254071D01*
X187150000Y-117168357D01*
X187192857Y-117125500D01*
X187278571Y-117082642D01*
X187450000Y-117082642D01*
X187535714Y-117125500D01*
X187921428Y-117682642D02*
X187921428Y-116782642D01*
X188007142Y-117339785D02*
X188264285Y-117682642D01*
X188264285Y-117082642D02*
X187921428Y-117425500D01*
X188564285Y-117082642D02*
X188778571Y-117682642D01*
X188992857Y-117082642D02*
X188778571Y-117682642D01*
X188692857Y-117896928D01*
X188650000Y-117939785D01*
X188564285Y-117982642D01*
X190450000Y-117682642D02*
X190021428Y-117682642D01*
X190021428Y-116782642D01*
X190750000Y-117682642D02*
X190750000Y-117082642D01*
X190750000Y-116782642D02*
X190707142Y-116825500D01*
X190750000Y-116868357D01*
X190792857Y-116825500D01*
X190750000Y-116782642D01*
X190750000Y-116868357D01*
X191178571Y-117082642D02*
X191178571Y-117682642D01*
X191178571Y-117168357D02*
X191221428Y-117125500D01*
X191307142Y-117082642D01*
X191435714Y-117082642D01*
X191521428Y-117125500D01*
X191564285Y-117211214D01*
X191564285Y-117682642D01*
X182157142Y-119131642D02*
X182157142Y-118231642D01*
X182671428Y-119131642D01*
X182671428Y-118231642D01*
X183485714Y-119131642D02*
X183485714Y-118660214D01*
X183442857Y-118574500D01*
X183357142Y-118531642D01*
X183185714Y-118531642D01*
X183100000Y-118574500D01*
X183485714Y-119088785D02*
X183400000Y-119131642D01*
X183185714Y-119131642D01*
X183100000Y-119088785D01*
X183057142Y-119003071D01*
X183057142Y-118917357D01*
X183100000Y-118831642D01*
X183185714Y-118788785D01*
X183400000Y-118788785D01*
X183485714Y-118745928D01*
X183785714Y-118531642D02*
X184128571Y-118531642D01*
X183914285Y-118231642D02*
X183914285Y-119003071D01*
X183957142Y-119088785D01*
X184042857Y-119131642D01*
X184128571Y-119131642D01*
X184428571Y-119131642D02*
X184428571Y-118231642D01*
X184814285Y-119131642D02*
X184814285Y-118660214D01*
X184771428Y-118574500D01*
X184685714Y-118531642D01*
X184557142Y-118531642D01*
X184471428Y-118574500D01*
X184428571Y-118617357D01*
X185628571Y-119131642D02*
X185628571Y-118660214D01*
X185585714Y-118574500D01*
X185500000Y-118531642D01*
X185328571Y-118531642D01*
X185242857Y-118574500D01*
X185628571Y-119088785D02*
X185542857Y-119131642D01*
X185328571Y-119131642D01*
X185242857Y-119088785D01*
X185200000Y-119003071D01*
X185200000Y-118917357D01*
X185242857Y-118831642D01*
X185328571Y-118788785D01*
X185542857Y-118788785D01*
X185628571Y-118745928D01*
X186057142Y-118531642D02*
X186057142Y-119131642D01*
X186057142Y-118617357D02*
X186100000Y-118574500D01*
X186185714Y-118531642D01*
X186314285Y-118531642D01*
X186400000Y-118574500D01*
X186442857Y-118660214D01*
X186442857Y-119131642D01*
X187557142Y-119131642D02*
X187557142Y-118231642D01*
X188071428Y-119131642D01*
X188071428Y-118231642D01*
X188885714Y-118531642D02*
X188885714Y-119260214D01*
X188842857Y-119345928D01*
X188800000Y-119388785D01*
X188714285Y-119431642D01*
X188585714Y-119431642D01*
X188500000Y-119388785D01*
X188885714Y-119088785D02*
X188800000Y-119131642D01*
X188628571Y-119131642D01*
X188542857Y-119088785D01*
X188500000Y-119045928D01*
X188457142Y-118960214D01*
X188457142Y-118703071D01*
X188500000Y-118617357D01*
X188542857Y-118574500D01*
X188628571Y-118531642D01*
X188800000Y-118531642D01*
X188885714Y-118574500D01*
X189700000Y-118531642D02*
X189700000Y-119131642D01*
X189314285Y-118531642D02*
X189314285Y-119003071D01*
X189357142Y-119088785D01*
X189442857Y-119131642D01*
X189571428Y-119131642D01*
X189657142Y-119088785D01*
X189700000Y-119045928D01*
X190042857Y-118531642D02*
X190257142Y-119131642D01*
X190471428Y-118531642D02*
X190257142Y-119131642D01*
X190171428Y-119345928D01*
X190128571Y-119388785D01*
X190042857Y-119431642D01*
X191157142Y-119088785D02*
X191071428Y-119131642D01*
X190900000Y-119131642D01*
X190814285Y-119088785D01*
X190771428Y-119003071D01*
X190771428Y-118660214D01*
X190814285Y-118574500D01*
X190900000Y-118531642D01*
X191071428Y-118531642D01*
X191157142Y-118574500D01*
X191200000Y-118660214D01*
X191200000Y-118745928D01*
X190771428Y-118831642D01*
X191585714Y-118531642D02*
X191585714Y-119131642D01*
X191585714Y-118617357D02*
X191628571Y-118574500D01*
X191714285Y-118531642D01*
X191842857Y-118531642D01*
X191928571Y-118574500D01*
X191971428Y-118660214D01*
X191971428Y-119131642D01*
X192785714Y-119131642D02*
X192785714Y-118231642D01*
X192785714Y-119088785D02*
X192700000Y-119131642D01*
X192528571Y-119131642D01*
X192442857Y-119088785D01*
X192400000Y-119045928D01*
X192357142Y-118960214D01*
X192357142Y-118703071D01*
X192400000Y-118617357D01*
X192442857Y-118574500D01*
X192528571Y-118531642D01*
X192700000Y-118531642D01*
X192785714Y-118574500D01*
X193214285Y-119131642D02*
X193214285Y-118531642D01*
X193214285Y-118231642D02*
X193171428Y-118274500D01*
X193214285Y-118317357D01*
X193257142Y-118274500D01*
X193214285Y-118231642D01*
X193214285Y-118317357D01*
X193642857Y-118531642D02*
X193642857Y-119131642D01*
X193642857Y-118617357D02*
X193685714Y-118574500D01*
X193771428Y-118531642D01*
X193900000Y-118531642D01*
X193985714Y-118574500D01*
X194028571Y-118660214D01*
X194028571Y-119131642D01*
X194457142Y-119131642D02*
X194457142Y-118231642D01*
X194842857Y-119131642D02*
X194842857Y-118660214D01*
X194800000Y-118574500D01*
X194714285Y-118531642D01*
X194585714Y-118531642D01*
X194500000Y-118574500D01*
X194457142Y-118617357D01*
X184707142Y-120580642D02*
X184707142Y-119680642D01*
X185221428Y-120580642D02*
X184835714Y-120066357D01*
X185221428Y-119680642D02*
X184707142Y-120194928D01*
X185992857Y-120580642D02*
X185992857Y-120109214D01*
X185950000Y-120023500D01*
X185864285Y-119980642D01*
X185692857Y-119980642D01*
X185607142Y-120023500D01*
X185992857Y-120537785D02*
X185907142Y-120580642D01*
X185692857Y-120580642D01*
X185607142Y-120537785D01*
X185564285Y-120452071D01*
X185564285Y-120366357D01*
X185607142Y-120280642D01*
X185692857Y-120237785D01*
X185907142Y-120237785D01*
X185992857Y-120194928D01*
X186421428Y-120580642D02*
X186421428Y-119980642D01*
X186421428Y-119680642D02*
X186378571Y-119723500D01*
X186421428Y-119766357D01*
X186464285Y-119723500D01*
X186421428Y-119680642D01*
X186421428Y-119766357D01*
X187792857Y-119680642D02*
X187792857Y-120323500D01*
X187750000Y-120452071D01*
X187664285Y-120537785D01*
X187535714Y-120580642D01*
X187450000Y-120580642D01*
X188607142Y-119980642D02*
X188607142Y-120580642D01*
X188221428Y-119980642D02*
X188221428Y-120452071D01*
X188264285Y-120537785D01*
X188350000Y-120580642D01*
X188478571Y-120580642D01*
X188564285Y-120537785D01*
X188607142Y-120494928D01*
X189035714Y-119980642D02*
X189035714Y-120580642D01*
X189035714Y-120066357D02*
X189078571Y-120023500D01*
X189164285Y-119980642D01*
X189292857Y-119980642D01*
X189378571Y-120023500D01*
X189421428Y-120109214D01*
X189421428Y-120580642D01*
X190407142Y-119680642D02*
X190921428Y-119680642D01*
X190664285Y-120580642D02*
X190664285Y-119680642D01*
X191607142Y-120580642D02*
X191607142Y-120109214D01*
X191564285Y-120023500D01*
X191478571Y-119980642D01*
X191307142Y-119980642D01*
X191221428Y-120023500D01*
X191607142Y-120537785D02*
X191521428Y-120580642D01*
X191307142Y-120580642D01*
X191221428Y-120537785D01*
X191178571Y-120452071D01*
X191178571Y-120366357D01*
X191221428Y-120280642D01*
X191307142Y-120237785D01*
X191521428Y-120237785D01*
X191607142Y-120194928D01*
X191950000Y-119980642D02*
X192164285Y-120580642D01*
X192378571Y-119980642D02*
X192164285Y-120580642D01*
X192078571Y-120794928D01*
X192035714Y-120837785D01*
X191950000Y-120880642D01*
D10*
X144809523Y-83607142D02*
X144952380Y-83678571D01*
X145190476Y-83678571D01*
X145285714Y-83607142D01*
X145333333Y-83535714D01*
X145380952Y-83392857D01*
X145380952Y-83250000D01*
X145333333Y-83107142D01*
X145285714Y-83035714D01*
X145190476Y-82964285D01*
X145000000Y-82892857D01*
X144904761Y-82821428D01*
X144857142Y-82750000D01*
X144809523Y-82607142D01*
X144809523Y-82464285D01*
X144857142Y-82321428D01*
X144904761Y-82250000D01*
X145000000Y-82178571D01*
X145238095Y-82178571D01*
X145380952Y-82250000D01*
X146380952Y-83535714D02*
X146333333Y-83607142D01*
X146190476Y-83678571D01*
X146095238Y-83678571D01*
X145952380Y-83607142D01*
X145857142Y-83464285D01*
X145809523Y-83321428D01*
X145761904Y-83035714D01*
X145761904Y-82821428D01*
X145809523Y-82535714D01*
X145857142Y-82392857D01*
X145952380Y-82250000D01*
X146095238Y-82178571D01*
X146190476Y-82178571D01*
X146333333Y-82250000D01*
X146380952Y-82321428D01*
X147285714Y-83678571D02*
X146809523Y-83678571D01*
X146809523Y-82178571D01*
X149619047Y-64607142D02*
X150380952Y-64607142D01*
X150000000Y-65178571D02*
X150000000Y-64035714D01*
D11*
X135835595Y-52178571D02*
X135835595Y-50678571D01*
X136168928Y-51750000D01*
X136502261Y-50678571D01*
X136502261Y-52178571D01*
X137502261Y-52178571D02*
X136930833Y-52178571D01*
X137216547Y-52178571D02*
X137216547Y-50678571D01*
X137121309Y-50892857D01*
X137026071Y-51035714D01*
X136930833Y-51107142D01*
X137883214Y-51750000D02*
X138359404Y-51750000D01*
X137787976Y-52178571D02*
X138121309Y-50678571D01*
X138454642Y-52178571D01*
X161835595Y-52178571D02*
X161835595Y-50678571D01*
X162168928Y-51750000D01*
X162502261Y-50678571D01*
X162502261Y-52178571D01*
X162930833Y-50821428D02*
X162978452Y-50750000D01*
X163073690Y-50678571D01*
X163311785Y-50678571D01*
X163407023Y-50750000D01*
X163454642Y-50821428D01*
X163502261Y-50964285D01*
X163502261Y-51107142D01*
X163454642Y-51321428D01*
X162883214Y-52178571D01*
X163502261Y-52178571D01*
X164264166Y-51392857D02*
X164407023Y-51464285D01*
X164454642Y-51535714D01*
X164502261Y-51678571D01*
X164502261Y-51892857D01*
X164454642Y-52035714D01*
X164407023Y-52107142D01*
X164311785Y-52178571D01*
X163930833Y-52178571D01*
X163930833Y-50678571D01*
X164264166Y-50678571D01*
X164359404Y-50750000D01*
X164407023Y-50821428D01*
X164454642Y-50964285D01*
X164454642Y-51107142D01*
X164407023Y-51250000D01*
X164359404Y-51321428D01*
X164264166Y-51392857D01*
X163930833Y-51392857D01*
D10*
X96761904Y-56678571D02*
X97380952Y-56678571D01*
X97047619Y-57250000D01*
X97190476Y-57250000D01*
X97285714Y-57321428D01*
X97333333Y-57392857D01*
X97380952Y-57535714D01*
X97380952Y-57892857D01*
X97333333Y-58035714D01*
X97285714Y-58107142D01*
X97190476Y-58178571D01*
X96904761Y-58178571D01*
X96809523Y-58107142D01*
X96761904Y-58035714D01*
X97666666Y-56678571D02*
X98000000Y-58178571D01*
X98333333Y-56678571D01*
X98571428Y-56678571D02*
X99190476Y-56678571D01*
X98857142Y-57250000D01*
X99000000Y-57250000D01*
X99095238Y-57321428D01*
X99142857Y-57392857D01*
X99190476Y-57535714D01*
X99190476Y-57892857D01*
X99142857Y-58035714D01*
X99095238Y-58107142D01*
X99000000Y-58178571D01*
X98714285Y-58178571D01*
X98619047Y-58107142D01*
X98571428Y-58035714D01*
X159261904Y-78678571D02*
X159880952Y-78678571D01*
X159547619Y-79250000D01*
X159690476Y-79250000D01*
X159785714Y-79321428D01*
X159833333Y-79392857D01*
X159880952Y-79535714D01*
X159880952Y-79892857D01*
X159833333Y-80035714D01*
X159785714Y-80107142D01*
X159690476Y-80178571D01*
X159404761Y-80178571D01*
X159309523Y-80107142D01*
X159261904Y-80035714D01*
X160166666Y-78678571D02*
X160500000Y-80178571D01*
X160833333Y-78678571D01*
X161071428Y-78678571D02*
X161690476Y-78678571D01*
X161357142Y-79250000D01*
X161500000Y-79250000D01*
X161595238Y-79321428D01*
X161642857Y-79392857D01*
X161690476Y-79535714D01*
X161690476Y-79892857D01*
X161642857Y-80035714D01*
X161595238Y-80107142D01*
X161500000Y-80178571D01*
X161214285Y-80178571D01*
X161119047Y-80107142D01*
X161071428Y-80035714D01*
D11*
X167692738Y-119678571D02*
X168264166Y-119678571D01*
X167978452Y-121178571D02*
X167978452Y-119678571D01*
X168740357Y-121178571D02*
X168645119Y-121107142D01*
X168597500Y-121035714D01*
X168549880Y-120892857D01*
X168549880Y-120464285D01*
X168597500Y-120321428D01*
X168645119Y-120250000D01*
X168740357Y-120178571D01*
X168883214Y-120178571D01*
X168978452Y-120250000D01*
X169026071Y-120321428D01*
X169073690Y-120464285D01*
X169073690Y-120892857D01*
X169026071Y-121035714D01*
X168978452Y-121107142D01*
X168883214Y-121178571D01*
X168740357Y-121178571D01*
X169835595Y-120392857D02*
X169502261Y-120392857D01*
X169502261Y-121178571D02*
X169502261Y-119678571D01*
X169978452Y-119678571D01*
X171073690Y-119821428D02*
X171121309Y-119750000D01*
X171216547Y-119678571D01*
X171454642Y-119678571D01*
X171549880Y-119750000D01*
X171597500Y-119821428D01*
X171645119Y-119964285D01*
X171645119Y-120107142D01*
X171597500Y-120321428D01*
X171026071Y-121178571D01*
X171645119Y-121178571D01*
D10*
X98023809Y-64821428D02*
X98976190Y-64821428D01*
X98214285Y-65250000D02*
X98785714Y-65250000D01*
X98500000Y-64178571D02*
X98500000Y-64821428D01*
X98595238Y-65678571D02*
X98404761Y-65678571D01*
X156119047Y-59607142D02*
X156880952Y-59607142D01*
X156500000Y-60178571D02*
X156500000Y-59035714D01*
D11*
X142692738Y-119678571D02*
X143264166Y-119678571D01*
X142978452Y-121178571D02*
X142978452Y-119678571D01*
X143740357Y-121178571D02*
X143645119Y-121107142D01*
X143597500Y-121035714D01*
X143549880Y-120892857D01*
X143549880Y-120464285D01*
X143597500Y-120321428D01*
X143645119Y-120250000D01*
X143740357Y-120178571D01*
X143883214Y-120178571D01*
X143978452Y-120250000D01*
X144026071Y-120321428D01*
X144073690Y-120464285D01*
X144073690Y-120892857D01*
X144026071Y-121035714D01*
X143978452Y-121107142D01*
X143883214Y-121178571D01*
X143740357Y-121178571D01*
X144835595Y-120392857D02*
X144502261Y-120392857D01*
X144502261Y-121178571D02*
X144502261Y-119678571D01*
X144978452Y-119678571D01*
X146645119Y-121178571D02*
X146073690Y-121178571D01*
X146359404Y-121178571D02*
X146359404Y-119678571D01*
X146264166Y-119892857D01*
X146168928Y-120035714D01*
X146073690Y-120107142D01*
D10*
X118071428Y-60178571D02*
X118309523Y-60178571D01*
X118309523Y-59035714D01*
X118690476Y-59035714D01*
X118690476Y-60178571D01*
X118928571Y-60178571D01*
X97214285Y-63178571D02*
X96880952Y-62464285D01*
X96642857Y-63178571D02*
X96642857Y-61678571D01*
X97023809Y-61678571D01*
X97119047Y-61750000D01*
X97166666Y-61821428D01*
X97214285Y-61964285D01*
X97214285Y-62178571D01*
X97166666Y-62321428D01*
X97119047Y-62392857D01*
X97023809Y-62464285D01*
X96642857Y-62464285D01*
X97547619Y-61678571D02*
X98214285Y-63178571D01*
X98214285Y-61678571D02*
X97547619Y-63178571D01*
X98595238Y-62178571D02*
X99357142Y-62607142D01*
X98595238Y-63035714D01*
X136785714Y-79107142D02*
X136928571Y-79178571D01*
X137166666Y-79178571D01*
X137261904Y-79107142D01*
X137309523Y-79035714D01*
X137357142Y-78892857D01*
X137357142Y-78750000D01*
X137309523Y-78607142D01*
X137261904Y-78535714D01*
X137166666Y-78464285D01*
X136976190Y-78392857D01*
X136880952Y-78321428D01*
X136833333Y-78250000D01*
X136785714Y-78107142D01*
X136785714Y-77964285D01*
X136833333Y-77821428D01*
X136880952Y-77750000D01*
X136976190Y-77678571D01*
X137214285Y-77678571D01*
X137357142Y-77750000D01*
X137785714Y-79178571D02*
X137785714Y-77678571D01*
X138023809Y-77678571D01*
X138166666Y-77750000D01*
X138261904Y-77892857D01*
X138309523Y-78035714D01*
X138357142Y-78321428D01*
X138357142Y-78535714D01*
X138309523Y-78821428D01*
X138261904Y-78964285D01*
X138166666Y-79107142D01*
X138023809Y-79178571D01*
X137785714Y-79178571D01*
X138738095Y-78750000D02*
X139214285Y-78750000D01*
X138642857Y-79178571D02*
X138976190Y-77678571D01*
X139309523Y-79178571D01*
D11*
X121192738Y-119678571D02*
X121764166Y-119678571D01*
X121478452Y-121178571D02*
X121478452Y-119678571D01*
X122240357Y-121178571D02*
X122145119Y-121107142D01*
X122097500Y-121035714D01*
X122049880Y-120892857D01*
X122049880Y-120464285D01*
X122097500Y-120321428D01*
X122145119Y-120250000D01*
X122240357Y-120178571D01*
X122383214Y-120178571D01*
X122478452Y-120250000D01*
X122526071Y-120321428D01*
X122573690Y-120464285D01*
X122573690Y-120892857D01*
X122526071Y-121035714D01*
X122478452Y-121107142D01*
X122383214Y-121178571D01*
X122240357Y-121178571D01*
X123335595Y-120392857D02*
X123002261Y-120392857D01*
X123002261Y-121178571D02*
X123002261Y-119678571D01*
X123478452Y-119678571D01*
X124811785Y-119678571D02*
X124907023Y-119678571D01*
X125002261Y-119750000D01*
X125049880Y-119821428D01*
X125097500Y-119964285D01*
X125145119Y-120250000D01*
X125145119Y-120607142D01*
X125097500Y-120892857D01*
X125049880Y-121035714D01*
X125002261Y-121107142D01*
X124907023Y-121178571D01*
X124811785Y-121178571D01*
X124716547Y-121107142D01*
X124668928Y-121035714D01*
X124621309Y-120892857D01*
X124573690Y-120607142D01*
X124573690Y-120250000D01*
X124621309Y-119964285D01*
X124668928Y-119821428D01*
X124716547Y-119750000D01*
X124811785Y-119678571D01*
D12*
X96619047Y-59178571D02*
X97190476Y-59178571D01*
X96904761Y-60678571D02*
X96904761Y-59178571D01*
X97428571Y-59178571D02*
X98095238Y-60678571D01*
X98095238Y-59178571D02*
X97428571Y-60678571D01*
X99238095Y-59678571D02*
X98476190Y-60107142D01*
X99238095Y-60535714D01*
D11*
X162857142Y-99357142D02*
X162809523Y-99404761D01*
X162666666Y-99452380D01*
X162571428Y-99452380D01*
X162428571Y-99404761D01*
X162333333Y-99309523D01*
X162285714Y-99214285D01*
X162238095Y-99023809D01*
X162238095Y-98880952D01*
X162285714Y-98690476D01*
X162333333Y-98595238D01*
X162428571Y-98500000D01*
X162571428Y-98452380D01*
X162666666Y-98452380D01*
X162809523Y-98500000D01*
X162857142Y-98547619D01*
X163809523Y-99452380D02*
X163238095Y-99452380D01*
X163523809Y-99452380D02*
X163523809Y-98452380D01*
X163428571Y-98595238D01*
X163333333Y-98690476D01*
X163238095Y-98738095D01*
X164190476Y-98547619D02*
X164238095Y-98500000D01*
X164333333Y-98452380D01*
X164571428Y-98452380D01*
X164666666Y-98500000D01*
X164714285Y-98547619D01*
X164761904Y-98642857D01*
X164761904Y-98738095D01*
X164714285Y-98880952D01*
X164142857Y-99452380D01*
X164761904Y-99452380D01*
X137333333Y-86952380D02*
X137000000Y-86476190D01*
X136761904Y-86952380D02*
X136761904Y-85952380D01*
X137142857Y-85952380D01*
X137238095Y-86000000D01*
X137285714Y-86047619D01*
X137333333Y-86142857D01*
X137333333Y-86285714D01*
X137285714Y-86380952D01*
X137238095Y-86428571D01*
X137142857Y-86476190D01*
X136761904Y-86476190D01*
X138190476Y-85952380D02*
X138000000Y-85952380D01*
X137904761Y-86000000D01*
X137857142Y-86047619D01*
X137761904Y-86190476D01*
X137714285Y-86380952D01*
X137714285Y-86761904D01*
X137761904Y-86857142D01*
X137809523Y-86904761D01*
X137904761Y-86952380D01*
X138095238Y-86952380D01*
X138190476Y-86904761D01*
X138238095Y-86857142D01*
X138285714Y-86761904D01*
X138285714Y-86523809D01*
X138238095Y-86428571D01*
X138190476Y-86380952D01*
X138095238Y-86333333D01*
X137904761Y-86333333D01*
X137809523Y-86380952D01*
X137761904Y-86428571D01*
X137714285Y-86523809D01*
X162833333Y-95452380D02*
X162500000Y-94976190D01*
X162261904Y-95452380D02*
X162261904Y-94452380D01*
X162642857Y-94452380D01*
X162738095Y-94500000D01*
X162785714Y-94547619D01*
X162833333Y-94642857D01*
X162833333Y-94785714D01*
X162785714Y-94880952D01*
X162738095Y-94928571D01*
X162642857Y-94976190D01*
X162261904Y-94976190D01*
X163404761Y-94880952D02*
X163309523Y-94833333D01*
X163261904Y-94785714D01*
X163214285Y-94690476D01*
X163214285Y-94642857D01*
X163261904Y-94547619D01*
X163309523Y-94500000D01*
X163404761Y-94452380D01*
X163595238Y-94452380D01*
X163690476Y-94500000D01*
X163738095Y-94547619D01*
X163785714Y-94642857D01*
X163785714Y-94690476D01*
X163738095Y-94785714D01*
X163690476Y-94833333D01*
X163595238Y-94880952D01*
X163404761Y-94880952D01*
X163309523Y-94928571D01*
X163261904Y-94976190D01*
X163214285Y-95071428D01*
X163214285Y-95261904D01*
X163261904Y-95357142D01*
X163309523Y-95404761D01*
X163404761Y-95452380D01*
X163595238Y-95452380D01*
X163690476Y-95404761D01*
X163738095Y-95357142D01*
X163785714Y-95261904D01*
X163785714Y-95071428D01*
X163738095Y-94976190D01*
X163690476Y-94928571D01*
X163595238Y-94880952D01*
X131857142Y-72752277D02*
X131904761Y-72799896D01*
X131952380Y-72942753D01*
X131952380Y-73037991D01*
X131904761Y-73180848D01*
X131809523Y-73276086D01*
X131714285Y-73323705D01*
X131523809Y-73371324D01*
X131380952Y-73371324D01*
X131190476Y-73323705D01*
X131095238Y-73276086D01*
X131000000Y-73180848D01*
X130952380Y-73037991D01*
X130952380Y-72942753D01*
X131000000Y-72799896D01*
X131047619Y-72752277D01*
X131952380Y-71799896D02*
X131952380Y-72371324D01*
X131952380Y-72085610D02*
X130952380Y-72085610D01*
X131095238Y-72180848D01*
X131190476Y-72276086D01*
X131238095Y-72371324D01*
X131952380Y-71323705D02*
X131952380Y-71133229D01*
X131904761Y-71037991D01*
X131857142Y-70990372D01*
X131714285Y-70895134D01*
X131523809Y-70847515D01*
X131142857Y-70847515D01*
X131047619Y-70895134D01*
X131000000Y-70942753D01*
X130952380Y-71037991D01*
X130952380Y-71228467D01*
X131000000Y-71323705D01*
X131047619Y-71371324D01*
X131142857Y-71418943D01*
X131380952Y-71418943D01*
X131476190Y-71371324D01*
X131523809Y-71323705D01*
X131571428Y-71228467D01*
X131571428Y-71037991D01*
X131523809Y-70942753D01*
X131476190Y-70895134D01*
X131380952Y-70847515D01*
X97238095Y-52952380D02*
X97238095Y-51952380D01*
X97238095Y-52428571D02*
X97809523Y-52428571D01*
X97809523Y-52952380D02*
X97809523Y-51952380D01*
X98809523Y-52952380D02*
X98238095Y-52952380D01*
X98523809Y-52952380D02*
X98523809Y-51952380D01*
X98428571Y-52095238D01*
X98333333Y-52190476D01*
X98238095Y-52238095D01*
X202952380Y-85738095D02*
X201952380Y-85738095D01*
X201952380Y-85500000D01*
X202000000Y-85357142D01*
X202095238Y-85261904D01*
X202190476Y-85214285D01*
X202380952Y-85166666D01*
X202523809Y-85166666D01*
X202714285Y-85214285D01*
X202809523Y-85261904D01*
X202904761Y-85357142D01*
X202952380Y-85500000D01*
X202952380Y-85738095D01*
X202285714Y-84309523D02*
X202952380Y-84309523D01*
X201904761Y-84547619D02*
X202619047Y-84785714D01*
X202619047Y-84166666D01*
X204852380Y-88864285D02*
X204852380Y-89435714D01*
X204852380Y-89150000D02*
X203852380Y-89150000D01*
X203995238Y-89245238D01*
X204090476Y-89340476D01*
X204138095Y-89435714D01*
X135857142Y-74357142D02*
X135809523Y-74404761D01*
X135666666Y-74452380D01*
X135571428Y-74452380D01*
X135428571Y-74404761D01*
X135333333Y-74309523D01*
X135285714Y-74214285D01*
X135238095Y-74023809D01*
X135238095Y-73880952D01*
X135285714Y-73690476D01*
X135333333Y-73595238D01*
X135428571Y-73500000D01*
X135571428Y-73452380D01*
X135666666Y-73452380D01*
X135809523Y-73500000D01*
X135857142Y-73547619D01*
X136809523Y-74452380D02*
X136238095Y-74452380D01*
X136523809Y-74452380D02*
X136523809Y-73452380D01*
X136428571Y-73595238D01*
X136333333Y-73690476D01*
X136238095Y-73738095D01*
X137380952Y-73880952D02*
X137285714Y-73833333D01*
X137238095Y-73785714D01*
X137190476Y-73690476D01*
X137190476Y-73642857D01*
X137238095Y-73547619D01*
X137285714Y-73500000D01*
X137380952Y-73452380D01*
X137571428Y-73452380D01*
X137666666Y-73500000D01*
X137714285Y-73547619D01*
X137761904Y-73642857D01*
X137761904Y-73690476D01*
X137714285Y-73785714D01*
X137666666Y-73833333D01*
X137571428Y-73880952D01*
X137380952Y-73880952D01*
X137285714Y-73928571D01*
X137238095Y-73976190D01*
X137190476Y-74071428D01*
X137190476Y-74261904D01*
X137238095Y-74357142D01*
X137285714Y-74404761D01*
X137380952Y-74452380D01*
X137571428Y-74452380D01*
X137666666Y-74404761D01*
X137714285Y-74357142D01*
X137761904Y-74261904D01*
X137761904Y-74071428D01*
X137714285Y-73976190D01*
X137666666Y-73928571D01*
X137571428Y-73880952D01*
X212738095Y-87452380D02*
X212738095Y-86452380D01*
X212738095Y-86928571D02*
X213309523Y-86928571D01*
X213309523Y-87452380D02*
X213309523Y-86452380D01*
X213690476Y-86452380D02*
X214309523Y-86452380D01*
X213976190Y-86833333D01*
X214119047Y-86833333D01*
X214214285Y-86880952D01*
X214261904Y-86928571D01*
X214309523Y-87023809D01*
X214309523Y-87261904D01*
X214261904Y-87357142D01*
X214214285Y-87404761D01*
X214119047Y-87452380D01*
X213833333Y-87452380D01*
X213738095Y-87404761D01*
X213690476Y-87357142D01*
X178857142Y-87892857D02*
X178904761Y-87940476D01*
X178952380Y-88083333D01*
X178952380Y-88178571D01*
X178904761Y-88321428D01*
X178809523Y-88416666D01*
X178714285Y-88464285D01*
X178523809Y-88511904D01*
X178380952Y-88511904D01*
X178190476Y-88464285D01*
X178095238Y-88416666D01*
X178000000Y-88321428D01*
X177952380Y-88178571D01*
X177952380Y-88083333D01*
X178000000Y-87940476D01*
X178047619Y-87892857D01*
X178952380Y-86940476D02*
X178952380Y-87511904D01*
X178952380Y-87226190D02*
X177952380Y-87226190D01*
X178095238Y-87321428D01*
X178190476Y-87416666D01*
X178238095Y-87511904D01*
X178285714Y-86083333D02*
X178952380Y-86083333D01*
X177904761Y-86321428D02*
X178619047Y-86559523D01*
X178619047Y-85940476D01*
X140166666Y-51252380D02*
X140166666Y-51966666D01*
X140119047Y-52109523D01*
X140023809Y-52204761D01*
X139880952Y-52252380D01*
X139785714Y-52252380D01*
X140547619Y-51252380D02*
X141214285Y-51252380D01*
X140785714Y-52252380D01*
X165940476Y-51252380D02*
X165940476Y-51966666D01*
X165892857Y-52109523D01*
X165797619Y-52204761D01*
X165654761Y-52252380D01*
X165559523Y-52252380D01*
X166940476Y-52252380D02*
X166369047Y-52252380D01*
X166654761Y-52252380D02*
X166654761Y-51252380D01*
X166559523Y-51395238D01*
X166464285Y-51490476D01*
X166369047Y-51538095D01*
X167559523Y-51252380D02*
X167654761Y-51252380D01*
X167750000Y-51300000D01*
X167797619Y-51347619D01*
X167845238Y-51442857D01*
X167892857Y-51633333D01*
X167892857Y-51871428D01*
X167845238Y-52061904D01*
X167797619Y-52157142D01*
X167750000Y-52204761D01*
X167654761Y-52252380D01*
X167559523Y-52252380D01*
X167464285Y-52204761D01*
X167416666Y-52157142D01*
X167369047Y-52061904D01*
X167321428Y-51871428D01*
X167321428Y-51633333D01*
X167369047Y-51442857D01*
X167416666Y-51347619D01*
X167464285Y-51300000D01*
X167559523Y-51252380D01*
X162857142Y-90857142D02*
X162809523Y-90904761D01*
X162666666Y-90952380D01*
X162571428Y-90952380D01*
X162428571Y-90904761D01*
X162333333Y-90809523D01*
X162285714Y-90714285D01*
X162238095Y-90523809D01*
X162238095Y-90380952D01*
X162285714Y-90190476D01*
X162333333Y-90095238D01*
X162428571Y-90000000D01*
X162571428Y-89952380D01*
X162666666Y-89952380D01*
X162809523Y-90000000D01*
X162857142Y-90047619D01*
X163809523Y-90952380D02*
X163238095Y-90952380D01*
X163523809Y-90952380D02*
X163523809Y-89952380D01*
X163428571Y-90095238D01*
X163333333Y-90190476D01*
X163238095Y-90238095D01*
X164428571Y-89952380D02*
X164523809Y-89952380D01*
X164619047Y-90000000D01*
X164666666Y-90047619D01*
X164714285Y-90142857D01*
X164761904Y-90333333D01*
X164761904Y-90571428D01*
X164714285Y-90761904D01*
X164666666Y-90857142D01*
X164619047Y-90904761D01*
X164523809Y-90952380D01*
X164428571Y-90952380D01*
X164333333Y-90904761D01*
X164285714Y-90857142D01*
X164238095Y-90761904D01*
X164190476Y-90571428D01*
X164190476Y-90333333D01*
X164238095Y-90142857D01*
X164285714Y-90047619D01*
X164333333Y-90000000D01*
X164428571Y-89952380D01*
X195452380Y-74738095D02*
X194452380Y-74738095D01*
X194452380Y-74500000D01*
X194500000Y-74357142D01*
X194595238Y-74261904D01*
X194690476Y-74214285D01*
X194880952Y-74166666D01*
X195023809Y-74166666D01*
X195214285Y-74214285D01*
X195309523Y-74261904D01*
X195404761Y-74357142D01*
X195452380Y-74500000D01*
X195452380Y-74738095D01*
X194452380Y-73833333D02*
X194452380Y-73214285D01*
X194833333Y-73547619D01*
X194833333Y-73404761D01*
X194880952Y-73309523D01*
X194928571Y-73261904D01*
X195023809Y-73214285D01*
X195261904Y-73214285D01*
X195357142Y-73261904D01*
X195404761Y-73309523D01*
X195452380Y-73404761D01*
X195452380Y-73690476D01*
X195404761Y-73785714D01*
X195357142Y-73833333D01*
X197352380Y-77864285D02*
X197352380Y-78435714D01*
X197352380Y-78150000D02*
X196352380Y-78150000D01*
X196495238Y-78245238D01*
X196590476Y-78340476D01*
X196638095Y-78435714D01*
X100916666Y-54452380D02*
X100916666Y-55166666D01*
X100869047Y-55309523D01*
X100773809Y-55404761D01*
X100630952Y-55452380D01*
X100535714Y-55452380D01*
X101345238Y-54547619D02*
X101392857Y-54500000D01*
X101488095Y-54452380D01*
X101726190Y-54452380D01*
X101821428Y-54500000D01*
X101869047Y-54547619D01*
X101916666Y-54642857D01*
X101916666Y-54738095D01*
X101869047Y-54880952D01*
X101297619Y-55452380D01*
X101916666Y-55452380D01*
X128666666Y-51252380D02*
X128666666Y-51966666D01*
X128619047Y-52109523D01*
X128523809Y-52204761D01*
X128380952Y-52252380D01*
X128285714Y-52252380D01*
X129285714Y-51680952D02*
X129190476Y-51633333D01*
X129142857Y-51585714D01*
X129095238Y-51490476D01*
X129095238Y-51442857D01*
X129142857Y-51347619D01*
X129190476Y-51300000D01*
X129285714Y-51252380D01*
X129476190Y-51252380D01*
X129571428Y-51300000D01*
X129619047Y-51347619D01*
X129666666Y-51442857D01*
X129666666Y-51490476D01*
X129619047Y-51585714D01*
X129571428Y-51633333D01*
X129476190Y-51680952D01*
X129285714Y-51680952D01*
X129190476Y-51728571D01*
X129142857Y-51776190D01*
X129095238Y-51871428D01*
X129095238Y-52061904D01*
X129142857Y-52157142D01*
X129190476Y-52204761D01*
X129285714Y-52252380D01*
X129476190Y-52252380D01*
X129571428Y-52204761D01*
X129619047Y-52157142D01*
X129666666Y-52061904D01*
X129666666Y-51871428D01*
X129619047Y-51776190D01*
X129571428Y-51728571D01*
X129476190Y-51680952D01*
X112357142Y-101166666D02*
X112404761Y-101214285D01*
X112452380Y-101357142D01*
X112452380Y-101452380D01*
X112404761Y-101595238D01*
X112309523Y-101690476D01*
X112214285Y-101738095D01*
X112023809Y-101785714D01*
X111880952Y-101785714D01*
X111690476Y-101738095D01*
X111595238Y-101690476D01*
X111500000Y-101595238D01*
X111452380Y-101452380D01*
X111452380Y-101357142D01*
X111500000Y-101214285D01*
X111547619Y-101166666D01*
X111452380Y-100261904D02*
X111452380Y-100738095D01*
X111928571Y-100785714D01*
X111880952Y-100738095D01*
X111833333Y-100642857D01*
X111833333Y-100404761D01*
X111880952Y-100309523D01*
X111928571Y-100261904D01*
X112023809Y-100214285D01*
X112261904Y-100214285D01*
X112357142Y-100261904D01*
X112404761Y-100309523D01*
X112452380Y-100404761D01*
X112452380Y-100642857D01*
X112404761Y-100738095D01*
X112357142Y-100785714D01*
X99238095Y-119952380D02*
X99238095Y-118952380D01*
X99238095Y-119428571D02*
X99809523Y-119428571D01*
X99809523Y-119952380D02*
X99809523Y-118952380D01*
X100238095Y-119047619D02*
X100285714Y-119000000D01*
X100380952Y-118952380D01*
X100619047Y-118952380D01*
X100714285Y-119000000D01*
X100761904Y-119047619D01*
X100809523Y-119142857D01*
X100809523Y-119238095D01*
X100761904Y-119380952D01*
X100190476Y-119952380D01*
X100809523Y-119952380D01*
X118888095Y-93952380D02*
X118888095Y-94761904D01*
X118935714Y-94857142D01*
X118983333Y-94904761D01*
X119078571Y-94952380D01*
X119269047Y-94952380D01*
X119364285Y-94904761D01*
X119411904Y-94857142D01*
X119459523Y-94761904D01*
X119459523Y-93952380D01*
X119888095Y-94047619D02*
X119935714Y-94000000D01*
X120030952Y-93952380D01*
X120269047Y-93952380D01*
X120364285Y-94000000D01*
X120411904Y-94047619D01*
X120459523Y-94142857D01*
X120459523Y-94238095D01*
X120411904Y-94380952D01*
X119840476Y-94952380D01*
X120459523Y-94952380D01*
X152238095Y-66452380D02*
X152809523Y-66452380D01*
X152523809Y-67452380D02*
X152523809Y-66452380D01*
X153142857Y-67452380D02*
X153142857Y-66452380D01*
X153523809Y-66452380D01*
X153619047Y-66500000D01*
X153666666Y-66547619D01*
X153714285Y-66642857D01*
X153714285Y-66785714D01*
X153666666Y-66880952D01*
X153619047Y-66928571D01*
X153523809Y-66976190D01*
X153142857Y-66976190D01*
X154666666Y-67452380D02*
X154095238Y-67452380D01*
X154380952Y-67452380D02*
X154380952Y-66452380D01*
X154285714Y-66595238D01*
X154190476Y-66690476D01*
X154095238Y-66738095D01*
X146677142Y-78716666D02*
X146724761Y-78764285D01*
X146772380Y-78907142D01*
X146772380Y-79002380D01*
X146724761Y-79145238D01*
X146629523Y-79240476D01*
X146534285Y-79288095D01*
X146343809Y-79335714D01*
X146200952Y-79335714D01*
X146010476Y-79288095D01*
X145915238Y-79240476D01*
X145820000Y-79145238D01*
X145772380Y-79002380D01*
X145772380Y-78907142D01*
X145820000Y-78764285D01*
X145867619Y-78716666D01*
X145867619Y-78335714D02*
X145820000Y-78288095D01*
X145772380Y-78192857D01*
X145772380Y-77954761D01*
X145820000Y-77859523D01*
X145867619Y-77811904D01*
X145962857Y-77764285D01*
X146058095Y-77764285D01*
X146200952Y-77811904D01*
X146772380Y-78383333D01*
X146772380Y-77764285D01*
X153666666Y-101452380D02*
X153666666Y-102166666D01*
X153619047Y-102309523D01*
X153523809Y-102404761D01*
X153380952Y-102452380D01*
X153285714Y-102452380D01*
X154571428Y-101452380D02*
X154380952Y-101452380D01*
X154285714Y-101500000D01*
X154238095Y-101547619D01*
X154142857Y-101690476D01*
X154095238Y-101880952D01*
X154095238Y-102261904D01*
X154142857Y-102357142D01*
X154190476Y-102404761D01*
X154285714Y-102452380D01*
X154476190Y-102452380D01*
X154571428Y-102404761D01*
X154619047Y-102357142D01*
X154666666Y-102261904D01*
X154666666Y-102023809D01*
X154619047Y-101928571D01*
X154571428Y-101880952D01*
X154476190Y-101833333D01*
X154285714Y-101833333D01*
X154190476Y-101880952D01*
X154142857Y-101928571D01*
X154095238Y-102023809D01*
X162416666Y-119402380D02*
X162416666Y-120116666D01*
X162369047Y-120259523D01*
X162273809Y-120354761D01*
X162130952Y-120402380D01*
X162035714Y-120402380D01*
X163369047Y-119402380D02*
X162892857Y-119402380D01*
X162845238Y-119878571D01*
X162892857Y-119830952D01*
X162988095Y-119783333D01*
X163226190Y-119783333D01*
X163321428Y-119830952D01*
X163369047Y-119878571D01*
X163416666Y-119973809D01*
X163416666Y-120211904D01*
X163369047Y-120307142D01*
X163321428Y-120354761D01*
X163226190Y-120402380D01*
X162988095Y-120402380D01*
X162892857Y-120354761D01*
X162845238Y-120307142D01*
X120190476Y-51452380D02*
X120190476Y-52166666D01*
X120142857Y-52309523D01*
X120047619Y-52404761D01*
X119904761Y-52452380D01*
X119809523Y-52452380D01*
X121190476Y-52452380D02*
X120619047Y-52452380D01*
X120904761Y-52452380D02*
X120904761Y-51452380D01*
X120809523Y-51595238D01*
X120714285Y-51690476D01*
X120619047Y-51738095D01*
X122142857Y-52452380D02*
X121571428Y-52452380D01*
X121857142Y-52452380D02*
X121857142Y-51452380D01*
X121761904Y-51595238D01*
X121666666Y-51690476D01*
X121571428Y-51738095D01*
X111238095Y-54202380D02*
X111809523Y-54202380D01*
X111523809Y-55202380D02*
X111523809Y-54202380D01*
X112142857Y-55202380D02*
X112142857Y-54202380D01*
X112523809Y-54202380D01*
X112619047Y-54250000D01*
X112666666Y-54297619D01*
X112714285Y-54392857D01*
X112714285Y-54535714D01*
X112666666Y-54630952D01*
X112619047Y-54678571D01*
X112523809Y-54726190D01*
X112142857Y-54726190D01*
X113095238Y-54297619D02*
X113142857Y-54250000D01*
X113238095Y-54202380D01*
X113476190Y-54202380D01*
X113571428Y-54250000D01*
X113619047Y-54297619D01*
X113666666Y-54392857D01*
X113666666Y-54488095D01*
X113619047Y-54630952D01*
X113047619Y-55202380D01*
X113666666Y-55202380D01*
X169857142Y-75357142D02*
X169809523Y-75404761D01*
X169666666Y-75452380D01*
X169571428Y-75452380D01*
X169428571Y-75404761D01*
X169333333Y-75309523D01*
X169285714Y-75214285D01*
X169238095Y-75023809D01*
X169238095Y-74880952D01*
X169285714Y-74690476D01*
X169333333Y-74595238D01*
X169428571Y-74500000D01*
X169571428Y-74452380D01*
X169666666Y-74452380D01*
X169809523Y-74500000D01*
X169857142Y-74547619D01*
X170238095Y-74547619D02*
X170285714Y-74500000D01*
X170380952Y-74452380D01*
X170619047Y-74452380D01*
X170714285Y-74500000D01*
X170761904Y-74547619D01*
X170809523Y-74642857D01*
X170809523Y-74738095D01*
X170761904Y-74880952D01*
X170190476Y-75452380D01*
X170809523Y-75452380D01*
X171190476Y-74547619D02*
X171238095Y-74500000D01*
X171333333Y-74452380D01*
X171571428Y-74452380D01*
X171666666Y-74500000D01*
X171714285Y-74547619D01*
X171761904Y-74642857D01*
X171761904Y-74738095D01*
X171714285Y-74880952D01*
X171142857Y-75452380D01*
X171761904Y-75452380D01*
X114452380Y-101166666D02*
X113976190Y-101500000D01*
X114452380Y-101738095D02*
X113452380Y-101738095D01*
X113452380Y-101357142D01*
X113500000Y-101261904D01*
X113547619Y-101214285D01*
X113642857Y-101166666D01*
X113785714Y-101166666D01*
X113880952Y-101214285D01*
X113928571Y-101261904D01*
X113976190Y-101357142D01*
X113976190Y-101738095D01*
X113452380Y-100261904D02*
X113452380Y-100738095D01*
X113928571Y-100785714D01*
X113880952Y-100738095D01*
X113833333Y-100642857D01*
X113833333Y-100404761D01*
X113880952Y-100309523D01*
X113928571Y-100261904D01*
X114023809Y-100214285D01*
X114261904Y-100214285D01*
X114357142Y-100261904D01*
X114404761Y-100309523D01*
X114452380Y-100404761D01*
X114452380Y-100642857D01*
X114404761Y-100738095D01*
X114357142Y-100785714D01*
X178357142Y-65142857D02*
X178404761Y-65190476D01*
X178452380Y-65333333D01*
X178452380Y-65428571D01*
X178404761Y-65571428D01*
X178309523Y-65666666D01*
X178214285Y-65714285D01*
X178023809Y-65761904D01*
X177880952Y-65761904D01*
X177690476Y-65714285D01*
X177595238Y-65666666D01*
X177500000Y-65571428D01*
X177452380Y-65428571D01*
X177452380Y-65333333D01*
X177500000Y-65190476D01*
X177547619Y-65142857D01*
X177547619Y-64761904D02*
X177500000Y-64714285D01*
X177452380Y-64619047D01*
X177452380Y-64380952D01*
X177500000Y-64285714D01*
X177547619Y-64238095D01*
X177642857Y-64190476D01*
X177738095Y-64190476D01*
X177880952Y-64238095D01*
X178452380Y-64809523D01*
X178452380Y-64190476D01*
X177452380Y-63571428D02*
X177452380Y-63476190D01*
X177500000Y-63380952D01*
X177547619Y-63333333D01*
X177642857Y-63285714D01*
X177833333Y-63238095D01*
X178071428Y-63238095D01*
X178261904Y-63285714D01*
X178357142Y-63333333D01*
X178404761Y-63380952D01*
X178452380Y-63476190D01*
X178452380Y-63571428D01*
X178404761Y-63666666D01*
X178357142Y-63714285D01*
X178261904Y-63761904D01*
X178071428Y-63809523D01*
X177833333Y-63809523D01*
X177642857Y-63761904D01*
X177547619Y-63714285D01*
X177500000Y-63666666D01*
X177452380Y-63571428D01*
X140738095Y-84452380D02*
X141309523Y-84452380D01*
X141023809Y-85452380D02*
X141023809Y-84452380D01*
X141642857Y-85452380D02*
X141642857Y-84452380D01*
X142023809Y-84452380D01*
X142119047Y-84500000D01*
X142166666Y-84547619D01*
X142214285Y-84642857D01*
X142214285Y-84785714D01*
X142166666Y-84880952D01*
X142119047Y-84928571D01*
X142023809Y-84976190D01*
X141642857Y-84976190D01*
X143071428Y-84785714D02*
X143071428Y-85452380D01*
X142833333Y-84404761D02*
X142595238Y-85119047D01*
X143214285Y-85119047D01*
X137552380Y-99761904D02*
X138361904Y-99761904D01*
X138457142Y-99714285D01*
X138504761Y-99666666D01*
X138552380Y-99571428D01*
X138552380Y-99380952D01*
X138504761Y-99285714D01*
X138457142Y-99238095D01*
X138361904Y-99190476D01*
X137552380Y-99190476D01*
X137552380Y-98809523D02*
X137552380Y-98190476D01*
X137933333Y-98523809D01*
X137933333Y-98380952D01*
X137980952Y-98285714D01*
X138028571Y-98238095D01*
X138123809Y-98190476D01*
X138361904Y-98190476D01*
X138457142Y-98238095D01*
X138504761Y-98285714D01*
X138552380Y-98380952D01*
X138552380Y-98666666D01*
X138504761Y-98761904D01*
X138457142Y-98809523D01*
X117952380Y-101166666D02*
X117476190Y-101500000D01*
X117952380Y-101738095D02*
X116952380Y-101738095D01*
X116952380Y-101357142D01*
X117000000Y-101261904D01*
X117047619Y-101214285D01*
X117142857Y-101166666D01*
X117285714Y-101166666D01*
X117380952Y-101214285D01*
X117428571Y-101261904D01*
X117476190Y-101357142D01*
X117476190Y-101738095D01*
X116952380Y-100833333D02*
X116952380Y-100214285D01*
X117333333Y-100547619D01*
X117333333Y-100404761D01*
X117380952Y-100309523D01*
X117428571Y-100261904D01*
X117523809Y-100214285D01*
X117761904Y-100214285D01*
X117857142Y-100261904D01*
X117904761Y-100309523D01*
X117952380Y-100404761D01*
X117952380Y-100690476D01*
X117904761Y-100785714D01*
X117857142Y-100833333D01*
X137666666Y-119402380D02*
X137666666Y-120116666D01*
X137619047Y-120259523D01*
X137523809Y-120354761D01*
X137380952Y-120402380D01*
X137285714Y-120402380D01*
X138571428Y-119735714D02*
X138571428Y-120402380D01*
X138333333Y-119354761D02*
X138095238Y-120069047D01*
X138714285Y-120069047D01*
X202952380Y-93738095D02*
X201952380Y-93738095D01*
X201952380Y-93500000D01*
X202000000Y-93357142D01*
X202095238Y-93261904D01*
X202190476Y-93214285D01*
X202380952Y-93166666D01*
X202523809Y-93166666D01*
X202714285Y-93214285D01*
X202809523Y-93261904D01*
X202904761Y-93357142D01*
X202952380Y-93500000D01*
X202952380Y-93738095D01*
X201952380Y-92261904D02*
X201952380Y-92738095D01*
X202428571Y-92785714D01*
X202380952Y-92738095D01*
X202333333Y-92642857D01*
X202333333Y-92404761D01*
X202380952Y-92309523D01*
X202428571Y-92261904D01*
X202523809Y-92214285D01*
X202761904Y-92214285D01*
X202857142Y-92261904D01*
X202904761Y-92309523D01*
X202952380Y-92404761D01*
X202952380Y-92642857D01*
X202904761Y-92738095D01*
X202857142Y-92785714D01*
X200552380Y-88564285D02*
X200552380Y-89135714D01*
X200552380Y-88850000D02*
X199552380Y-88850000D01*
X199695238Y-88945238D01*
X199790476Y-89040476D01*
X199838095Y-89135714D01*
X137333333Y-83952380D02*
X137000000Y-83476190D01*
X136761904Y-83952380D02*
X136761904Y-82952380D01*
X137142857Y-82952380D01*
X137238095Y-83000000D01*
X137285714Y-83047619D01*
X137333333Y-83142857D01*
X137333333Y-83285714D01*
X137285714Y-83380952D01*
X137238095Y-83428571D01*
X137142857Y-83476190D01*
X136761904Y-83476190D01*
X137666666Y-82952380D02*
X138333333Y-82952380D01*
X137904761Y-83952380D01*
X110357142Y-101166666D02*
X110404761Y-101214285D01*
X110452380Y-101357142D01*
X110452380Y-101452380D01*
X110404761Y-101595238D01*
X110309523Y-101690476D01*
X110214285Y-101738095D01*
X110023809Y-101785714D01*
X109880952Y-101785714D01*
X109690476Y-101738095D01*
X109595238Y-101690476D01*
X109500000Y-101595238D01*
X109452380Y-101452380D01*
X109452380Y-101357142D01*
X109500000Y-101214285D01*
X109547619Y-101166666D01*
X109452380Y-100833333D02*
X109452380Y-100214285D01*
X109833333Y-100547619D01*
X109833333Y-100404761D01*
X109880952Y-100309523D01*
X109928571Y-100261904D01*
X110023809Y-100214285D01*
X110261904Y-100214285D01*
X110357142Y-100261904D01*
X110404761Y-100309523D01*
X110452380Y-100404761D01*
X110452380Y-100690476D01*
X110404761Y-100785714D01*
X110357142Y-100833333D01*
X174357142Y-73857142D02*
X174309523Y-73904761D01*
X174166666Y-73952380D01*
X174071428Y-73952380D01*
X173928571Y-73904761D01*
X173833333Y-73809523D01*
X173785714Y-73714285D01*
X173738095Y-73523809D01*
X173738095Y-73380952D01*
X173785714Y-73190476D01*
X173833333Y-73095238D01*
X173928571Y-73000000D01*
X174071428Y-72952380D01*
X174166666Y-72952380D01*
X174309523Y-73000000D01*
X174357142Y-73047619D01*
X174738095Y-73047619D02*
X174785714Y-73000000D01*
X174880952Y-72952380D01*
X175119047Y-72952380D01*
X175214285Y-73000000D01*
X175261904Y-73047619D01*
X175309523Y-73142857D01*
X175309523Y-73238095D01*
X175261904Y-73380952D01*
X174690476Y-73952380D01*
X175309523Y-73952380D01*
X176261904Y-73952380D02*
X175690476Y-73952380D01*
X175976190Y-73952380D02*
X175976190Y-72952380D01*
X175880952Y-73095238D01*
X175785714Y-73190476D01*
X175690476Y-73238095D01*
X108357142Y-101166666D02*
X108404761Y-101214285D01*
X108452380Y-101357142D01*
X108452380Y-101452380D01*
X108404761Y-101595238D01*
X108309523Y-101690476D01*
X108214285Y-101738095D01*
X108023809Y-101785714D01*
X107880952Y-101785714D01*
X107690476Y-101738095D01*
X107595238Y-101690476D01*
X107500000Y-101595238D01*
X107452380Y-101452380D01*
X107452380Y-101357142D01*
X107500000Y-101214285D01*
X107547619Y-101166666D01*
X107785714Y-100309523D02*
X108452380Y-100309523D01*
X107404761Y-100547619D02*
X108119047Y-100785714D01*
X108119047Y-100166666D01*
X97804761Y-107583333D02*
X97852380Y-107440476D01*
X97852380Y-107202380D01*
X97804761Y-107107142D01*
X97757142Y-107059523D01*
X97661904Y-107011904D01*
X97566666Y-107011904D01*
X97471428Y-107059523D01*
X97423809Y-107107142D01*
X97376190Y-107202380D01*
X97328571Y-107392857D01*
X97280952Y-107488095D01*
X97233333Y-107535714D01*
X97138095Y-107583333D01*
X97042857Y-107583333D01*
X96947619Y-107535714D01*
X96900000Y-107488095D01*
X96852380Y-107392857D01*
X96852380Y-107154761D01*
X96900000Y-107011904D01*
X96852380Y-106678571D02*
X97852380Y-106440476D01*
X97138095Y-106250000D01*
X97852380Y-106059523D01*
X96852380Y-105821428D01*
X97852380Y-104916666D02*
X97852380Y-105488095D01*
X97852380Y-105202380D02*
X96852380Y-105202380D01*
X96995238Y-105297619D01*
X97090476Y-105392857D01*
X97138095Y-105488095D01*
X145857142Y-73166666D02*
X145904761Y-73214285D01*
X145952380Y-73357142D01*
X145952380Y-73452380D01*
X145904761Y-73595238D01*
X145809523Y-73690476D01*
X145714285Y-73738095D01*
X145523809Y-73785714D01*
X145380952Y-73785714D01*
X145190476Y-73738095D01*
X145095238Y-73690476D01*
X145000000Y-73595238D01*
X144952380Y-73452380D01*
X144952380Y-73357142D01*
X145000000Y-73214285D01*
X145047619Y-73166666D01*
X145952380Y-72214285D02*
X145952380Y-72785714D01*
X145952380Y-72500000D02*
X144952380Y-72500000D01*
X145095238Y-72595238D01*
X145190476Y-72690476D01*
X145238095Y-72785714D01*
X116166666Y-119402380D02*
X116166666Y-120116666D01*
X116119047Y-120259523D01*
X116023809Y-120354761D01*
X115880952Y-120402380D01*
X115785714Y-120402380D01*
X116547619Y-119402380D02*
X117166666Y-119402380D01*
X116833333Y-119783333D01*
X116976190Y-119783333D01*
X117071428Y-119830952D01*
X117119047Y-119878571D01*
X117166666Y-119973809D01*
X117166666Y-120211904D01*
X117119047Y-120307142D01*
X117071428Y-120354761D01*
X116976190Y-120402380D01*
X116690476Y-120402380D01*
X116595238Y-120354761D01*
X116547619Y-120307142D01*
X162833333Y-88357142D02*
X162785714Y-88404761D01*
X162642857Y-88452380D01*
X162547619Y-88452380D01*
X162404761Y-88404761D01*
X162309523Y-88309523D01*
X162261904Y-88214285D01*
X162214285Y-88023809D01*
X162214285Y-87880952D01*
X162261904Y-87690476D01*
X162309523Y-87595238D01*
X162404761Y-87500000D01*
X162547619Y-87452380D01*
X162642857Y-87452380D01*
X162785714Y-87500000D01*
X162833333Y-87547619D01*
X163166666Y-87452380D02*
X163833333Y-87452380D01*
X163404761Y-88452380D01*
X140857142Y-102666666D02*
X140904761Y-102714285D01*
X140952380Y-102857142D01*
X140952380Y-102952380D01*
X140904761Y-103095238D01*
X140809523Y-103190476D01*
X140714285Y-103238095D01*
X140523809Y-103285714D01*
X140380952Y-103285714D01*
X140190476Y-103238095D01*
X140095238Y-103190476D01*
X140000000Y-103095238D01*
X139952380Y-102952380D01*
X139952380Y-102857142D01*
X140000000Y-102714285D01*
X140047619Y-102666666D01*
X139952380Y-101809523D02*
X139952380Y-102000000D01*
X140000000Y-102095238D01*
X140047619Y-102142857D01*
X140190476Y-102238095D01*
X140380952Y-102285714D01*
X140761904Y-102285714D01*
X140857142Y-102238095D01*
X140904761Y-102190476D01*
X140952380Y-102095238D01*
X140952380Y-101904761D01*
X140904761Y-101809523D01*
X140857142Y-101761904D01*
X140761904Y-101714285D01*
X140523809Y-101714285D01*
X140428571Y-101761904D01*
X140380952Y-101809523D01*
X140333333Y-101904761D01*
X140333333Y-102095238D01*
X140380952Y-102190476D01*
X140428571Y-102238095D01*
X140523809Y-102285714D01*
X188952380Y-105238095D02*
X187952380Y-105238095D01*
X187952380Y-105000000D01*
X188000000Y-104857142D01*
X188095238Y-104761904D01*
X188190476Y-104714285D01*
X188380952Y-104666666D01*
X188523809Y-104666666D01*
X188714285Y-104714285D01*
X188809523Y-104761904D01*
X188904761Y-104857142D01*
X188952380Y-105000000D01*
X188952380Y-105238095D01*
X187952380Y-103809523D02*
X187952380Y-104000000D01*
X188000000Y-104095238D01*
X188047619Y-104142857D01*
X188190476Y-104238095D01*
X188380952Y-104285714D01*
X188761904Y-104285714D01*
X188857142Y-104238095D01*
X188904761Y-104190476D01*
X188952380Y-104095238D01*
X188952380Y-103904761D01*
X188904761Y-103809523D01*
X188857142Y-103761904D01*
X188761904Y-103714285D01*
X188523809Y-103714285D01*
X188428571Y-103761904D01*
X188380952Y-103809523D01*
X188333333Y-103904761D01*
X188333333Y-104095238D01*
X188380952Y-104190476D01*
X188428571Y-104238095D01*
X188523809Y-104285714D01*
X190952380Y-108714285D02*
X190952380Y-109285714D01*
X190952380Y-109000000D02*
X189952380Y-109000000D01*
X190095238Y-109095238D01*
X190190476Y-109190476D01*
X190238095Y-109285714D01*
X175452380Y-68761904D02*
X176261904Y-68761904D01*
X176357142Y-68714285D01*
X176404761Y-68666666D01*
X176452380Y-68571428D01*
X176452380Y-68380952D01*
X176404761Y-68285714D01*
X176357142Y-68238095D01*
X176261904Y-68190476D01*
X175452380Y-68190476D01*
X175452380Y-67809523D02*
X175452380Y-67142857D01*
X176452380Y-67571428D01*
X112333333Y-69452380D02*
X112000000Y-68976190D01*
X111761904Y-69452380D02*
X111761904Y-68452380D01*
X112142857Y-68452380D01*
X112238095Y-68500000D01*
X112285714Y-68547619D01*
X112333333Y-68642857D01*
X112333333Y-68785714D01*
X112285714Y-68880952D01*
X112238095Y-68928571D01*
X112142857Y-68976190D01*
X111761904Y-68976190D01*
X113190476Y-68785714D02*
X113190476Y-69452380D01*
X112952380Y-68404761D02*
X112714285Y-69119047D01*
X113333333Y-69119047D01*
X178416666Y-51252380D02*
X178416666Y-51966666D01*
X178369047Y-52109523D01*
X178273809Y-52204761D01*
X178130952Y-52252380D01*
X178035714Y-52252380D01*
X178940476Y-52252380D02*
X179130952Y-52252380D01*
X179226190Y-52204761D01*
X179273809Y-52157142D01*
X179369047Y-52014285D01*
X179416666Y-51823809D01*
X179416666Y-51442857D01*
X179369047Y-51347619D01*
X179321428Y-51300000D01*
X179226190Y-51252380D01*
X179035714Y-51252380D01*
X178940476Y-51300000D01*
X178892857Y-51347619D01*
X178845238Y-51442857D01*
X178845238Y-51680952D01*
X178892857Y-51776190D01*
X178940476Y-51823809D01*
X179035714Y-51871428D01*
X179226190Y-51871428D01*
X179321428Y-51823809D01*
X179369047Y-51776190D01*
X179416666Y-51680952D01*
X137452380Y-68261904D02*
X138261904Y-68261904D01*
X138357142Y-68214285D01*
X138404761Y-68166666D01*
X138452380Y-68071428D01*
X138452380Y-67880952D01*
X138404761Y-67785714D01*
X138357142Y-67738095D01*
X138261904Y-67690476D01*
X137452380Y-67690476D01*
X137452380Y-66785714D02*
X137452380Y-66976190D01*
X137500000Y-67071428D01*
X137547619Y-67119047D01*
X137690476Y-67214285D01*
X137880952Y-67261904D01*
X138261904Y-67261904D01*
X138357142Y-67214285D01*
X138404761Y-67166666D01*
X138452380Y-67071428D01*
X138452380Y-66880952D01*
X138404761Y-66785714D01*
X138357142Y-66738095D01*
X138261904Y-66690476D01*
X138023809Y-66690476D01*
X137928571Y-66738095D01*
X137880952Y-66785714D01*
X137833333Y-66880952D01*
X137833333Y-67071428D01*
X137880952Y-67166666D01*
X137928571Y-67214285D01*
X138023809Y-67261904D01*
X140537142Y-64942857D02*
X140584761Y-64990476D01*
X140632380Y-65133333D01*
X140632380Y-65228571D01*
X140584761Y-65371428D01*
X140489523Y-65466666D01*
X140394285Y-65514285D01*
X140203809Y-65561904D01*
X140060952Y-65561904D01*
X139870476Y-65514285D01*
X139775238Y-65466666D01*
X139680000Y-65371428D01*
X139632380Y-65228571D01*
X139632380Y-65133333D01*
X139680000Y-64990476D01*
X139727619Y-64942857D01*
X140632380Y-63990476D02*
X140632380Y-64561904D01*
X140632380Y-64276190D02*
X139632380Y-64276190D01*
X139775238Y-64371428D01*
X139870476Y-64466666D01*
X139918095Y-64561904D01*
X139632380Y-63657142D02*
X139632380Y-62990476D01*
X140632380Y-63419047D01*
X162833333Y-97357142D02*
X162785714Y-97404761D01*
X162642857Y-97452380D01*
X162547619Y-97452380D01*
X162404761Y-97404761D01*
X162309523Y-97309523D01*
X162261904Y-97214285D01*
X162214285Y-97023809D01*
X162214285Y-96880952D01*
X162261904Y-96690476D01*
X162309523Y-96595238D01*
X162404761Y-96500000D01*
X162547619Y-96452380D01*
X162642857Y-96452380D01*
X162785714Y-96500000D01*
X162833333Y-96547619D01*
X163309523Y-97452380D02*
X163500000Y-97452380D01*
X163595238Y-97404761D01*
X163642857Y-97357142D01*
X163738095Y-97214285D01*
X163785714Y-97023809D01*
X163785714Y-96642857D01*
X163738095Y-96547619D01*
X163690476Y-96500000D01*
X163595238Y-96452380D01*
X163404761Y-96452380D01*
X163309523Y-96500000D01*
X163261904Y-96547619D01*
X163214285Y-96642857D01*
X163214285Y-96880952D01*
X163261904Y-96976190D01*
X163309523Y-97023809D01*
X163404761Y-97071428D01*
X163595238Y-97071428D01*
X163690476Y-97023809D01*
X163738095Y-96976190D01*
X163785714Y-96880952D01*
X140738095Y-77452380D02*
X141309523Y-77452380D01*
X141023809Y-78452380D02*
X141023809Y-77452380D01*
X141642857Y-78452380D02*
X141642857Y-77452380D01*
X142023809Y-77452380D01*
X142119047Y-77500000D01*
X142166666Y-77547619D01*
X142214285Y-77642857D01*
X142214285Y-77785714D01*
X142166666Y-77880952D01*
X142119047Y-77928571D01*
X142023809Y-77976190D01*
X141642857Y-77976190D01*
X143119047Y-77452380D02*
X142642857Y-77452380D01*
X142595238Y-77928571D01*
X142642857Y-77880952D01*
X142738095Y-77833333D01*
X142976190Y-77833333D01*
X143071428Y-77880952D01*
X143119047Y-77928571D01*
X143166666Y-78023809D01*
X143166666Y-78261904D01*
X143119047Y-78357142D01*
X143071428Y-78404761D01*
X142976190Y-78452380D01*
X142738095Y-78452380D01*
X142642857Y-78404761D01*
X142595238Y-78357142D01*
X155238095Y-81452380D02*
X155809523Y-81452380D01*
X155523809Y-82452380D02*
X155523809Y-81452380D01*
X156142857Y-82452380D02*
X156142857Y-81452380D01*
X156523809Y-81452380D01*
X156619047Y-81500000D01*
X156666666Y-81547619D01*
X156714285Y-81642857D01*
X156714285Y-81785714D01*
X156666666Y-81880952D01*
X156619047Y-81928571D01*
X156523809Y-81976190D01*
X156142857Y-81976190D01*
X157047619Y-81452380D02*
X157666666Y-81452380D01*
X157333333Y-81833333D01*
X157476190Y-81833333D01*
X157571428Y-81880952D01*
X157619047Y-81928571D01*
X157666666Y-82023809D01*
X157666666Y-82261904D01*
X157619047Y-82357142D01*
X157571428Y-82404761D01*
X157476190Y-82452380D01*
X157190476Y-82452380D01*
X157095238Y-82404761D01*
X157047619Y-82357142D01*
X157833333Y-69952380D02*
X157500000Y-69476190D01*
X157261904Y-69952380D02*
X157261904Y-68952380D01*
X157642857Y-68952380D01*
X157738095Y-69000000D01*
X157785714Y-69047619D01*
X157833333Y-69142857D01*
X157833333Y-69285714D01*
X157785714Y-69380952D01*
X157738095Y-69428571D01*
X157642857Y-69476190D01*
X157261904Y-69476190D01*
X158214285Y-69047619D02*
X158261904Y-69000000D01*
X158357142Y-68952380D01*
X158595238Y-68952380D01*
X158690476Y-69000000D01*
X158738095Y-69047619D01*
X158785714Y-69142857D01*
X158785714Y-69238095D01*
X158738095Y-69380952D01*
X158166666Y-69952380D01*
X158785714Y-69952380D01*
X120952380Y-84238095D02*
X119952380Y-84238095D01*
X119952380Y-84000000D01*
X120000000Y-83857142D01*
X120095238Y-83761904D01*
X120190476Y-83714285D01*
X120380952Y-83666666D01*
X120523809Y-83666666D01*
X120714285Y-83714285D01*
X120809523Y-83761904D01*
X120904761Y-83857142D01*
X120952380Y-84000000D01*
X120952380Y-84238095D01*
X120952380Y-82714285D02*
X120952380Y-83285714D01*
X120952380Y-83000000D02*
X119952380Y-83000000D01*
X120095238Y-83095238D01*
X120190476Y-83190476D01*
X120238095Y-83285714D01*
X127716562Y-82357142D02*
X127668943Y-82404761D01*
X127526086Y-82452380D01*
X127430848Y-82452380D01*
X127287991Y-82404761D01*
X127192753Y-82309523D01*
X127145134Y-82214285D01*
X127097515Y-82023809D01*
X127097515Y-81880952D01*
X127145134Y-81690476D01*
X127192753Y-81595238D01*
X127287991Y-81500000D01*
X127430848Y-81452380D01*
X127526086Y-81452380D01*
X127668943Y-81500000D01*
X127716562Y-81547619D01*
X128668943Y-82452380D02*
X128097515Y-82452380D01*
X128383229Y-82452380D02*
X128383229Y-81452380D01*
X128287991Y-81595238D01*
X128192753Y-81690476D01*
X128097515Y-81738095D01*
X129526086Y-81452380D02*
X129335610Y-81452380D01*
X129240372Y-81500000D01*
X129192753Y-81547619D01*
X129097515Y-81690476D01*
X129049896Y-81880952D01*
X129049896Y-82261904D01*
X129097515Y-82357142D01*
X129145134Y-82404761D01*
X129240372Y-82452380D01*
X129430848Y-82452380D01*
X129526086Y-82404761D01*
X129573705Y-82357142D01*
X129621324Y-82261904D01*
X129621324Y-82023809D01*
X129573705Y-81928571D01*
X129526086Y-81880952D01*
X129430848Y-81833333D01*
X129240372Y-81833333D01*
X129145134Y-81880952D01*
X129097515Y-81928571D01*
X129049896Y-82023809D01*
X127857142Y-88857142D02*
X127809523Y-88904761D01*
X127666666Y-88952380D01*
X127571428Y-88952380D01*
X127428571Y-88904761D01*
X127333333Y-88809523D01*
X127285714Y-88714285D01*
X127238095Y-88523809D01*
X127238095Y-88380952D01*
X127285714Y-88190476D01*
X127333333Y-88095238D01*
X127428571Y-88000000D01*
X127571428Y-87952380D01*
X127666666Y-87952380D01*
X127809523Y-88000000D01*
X127857142Y-88047619D01*
X128809523Y-88952380D02*
X128238095Y-88952380D01*
X128523809Y-88952380D02*
X128523809Y-87952380D01*
X128428571Y-88095238D01*
X128333333Y-88190476D01*
X128238095Y-88238095D01*
X129714285Y-87952380D02*
X129238095Y-87952380D01*
X129190476Y-88428571D01*
X129238095Y-88380952D01*
X129333333Y-88333333D01*
X129571428Y-88333333D01*
X129666666Y-88380952D01*
X129714285Y-88428571D01*
X129761904Y-88523809D01*
X129761904Y-88761904D01*
X129714285Y-88857142D01*
X129666666Y-88904761D01*
X129571428Y-88952380D01*
X129333333Y-88952380D01*
X129238095Y-88904761D01*
X129190476Y-88857142D01*
X162857142Y-92857142D02*
X162809523Y-92904761D01*
X162666666Y-92952380D01*
X162571428Y-92952380D01*
X162428571Y-92904761D01*
X162333333Y-92809523D01*
X162285714Y-92714285D01*
X162238095Y-92523809D01*
X162238095Y-92380952D01*
X162285714Y-92190476D01*
X162333333Y-92095238D01*
X162428571Y-92000000D01*
X162571428Y-91952380D01*
X162666666Y-91952380D01*
X162809523Y-92000000D01*
X162857142Y-92047619D01*
X163809523Y-92952380D02*
X163238095Y-92952380D01*
X163523809Y-92952380D02*
X163523809Y-91952380D01*
X163428571Y-92095238D01*
X163333333Y-92190476D01*
X163238095Y-92238095D01*
X164761904Y-92952380D02*
X164190476Y-92952380D01*
X164476190Y-92952380D02*
X164476190Y-91952380D01*
X164380952Y-92095238D01*
X164285714Y-92190476D01*
X164190476Y-92238095D01*
X189952380Y-64238095D02*
X188952380Y-64238095D01*
X188952380Y-64000000D01*
X189000000Y-63857142D01*
X189095238Y-63761904D01*
X189190476Y-63714285D01*
X189380952Y-63666666D01*
X189523809Y-63666666D01*
X189714285Y-63714285D01*
X189809523Y-63761904D01*
X189904761Y-63857142D01*
X189952380Y-64000000D01*
X189952380Y-64238095D01*
X189047619Y-63285714D02*
X189000000Y-63238095D01*
X188952380Y-63142857D01*
X188952380Y-62904761D01*
X189000000Y-62809523D01*
X189047619Y-62761904D01*
X189142857Y-62714285D01*
X189238095Y-62714285D01*
X189380952Y-62761904D01*
X189952380Y-63333333D01*
X189952380Y-62714285D01*
X191852380Y-67364285D02*
X191852380Y-67935714D01*
X191852380Y-67650000D02*
X190852380Y-67650000D01*
X190995238Y-67745238D01*
X191090476Y-67840476D01*
X191138095Y-67935714D01*
X150452380Y-78666666D02*
X150452380Y-79142857D01*
X149452380Y-79142857D01*
X150452380Y-77809523D02*
X150452380Y-78380952D01*
X150452380Y-78095238D02*
X149452380Y-78095238D01*
X149595238Y-78190476D01*
X149690476Y-78285714D01*
X149738095Y-78380952D01*
X151738095Y-70952380D02*
X151738095Y-71761904D01*
X151785714Y-71857142D01*
X151833333Y-71904761D01*
X151928571Y-71952380D01*
X152119047Y-71952380D01*
X152214285Y-71904761D01*
X152261904Y-71857142D01*
X152309523Y-71761904D01*
X152309523Y-70952380D01*
X153309523Y-71952380D02*
X152738095Y-71952380D01*
X153023809Y-71952380D02*
X153023809Y-70952380D01*
X152928571Y-71095238D01*
X152833333Y-71190476D01*
X152738095Y-71238095D01*
X162857142Y-101357142D02*
X162809523Y-101404761D01*
X162666666Y-101452380D01*
X162571428Y-101452380D01*
X162428571Y-101404761D01*
X162333333Y-101309523D01*
X162285714Y-101214285D01*
X162238095Y-101023809D01*
X162238095Y-100880952D01*
X162285714Y-100690476D01*
X162333333Y-100595238D01*
X162428571Y-100500000D01*
X162571428Y-100452380D01*
X162666666Y-100452380D01*
X162809523Y-100500000D01*
X162857142Y-100547619D01*
X163809523Y-101452380D02*
X163238095Y-101452380D01*
X163523809Y-101452380D02*
X163523809Y-100452380D01*
X163428571Y-100595238D01*
X163333333Y-100690476D01*
X163238095Y-100738095D01*
X164142857Y-100452380D02*
X164761904Y-100452380D01*
X164428571Y-100833333D01*
X164571428Y-100833333D01*
X164666666Y-100880952D01*
X164714285Y-100928571D01*
X164761904Y-101023809D01*
X164761904Y-101261904D01*
X164714285Y-101357142D01*
X164666666Y-101404761D01*
X164571428Y-101452380D01*
X164285714Y-101452380D01*
X164190476Y-101404761D01*
X164142857Y-101357142D01*
X152916666Y-51252380D02*
X152916666Y-51966666D01*
X152869047Y-52109523D01*
X152773809Y-52204761D01*
X152630952Y-52252380D01*
X152535714Y-52252380D01*
X153916666Y-52252380D02*
X153345238Y-52252380D01*
X153630952Y-52252380D02*
X153630952Y-51252380D01*
X153535714Y-51395238D01*
X153440476Y-51490476D01*
X153345238Y-51538095D01*
X175952380Y-84761904D02*
X176761904Y-84761904D01*
X176857142Y-84714285D01*
X176904761Y-84666666D01*
X176952380Y-84571428D01*
X176952380Y-84380952D01*
X176904761Y-84285714D01*
X176857142Y-84238095D01*
X176761904Y-84190476D01*
X175952380Y-84190476D01*
X176285714Y-83285714D02*
X176952380Y-83285714D01*
X175904761Y-83523809D02*
X176619047Y-83761904D01*
X176619047Y-83142857D01*
X162833333Y-86357142D02*
X162785714Y-86404761D01*
X162642857Y-86452380D01*
X162547619Y-86452380D01*
X162404761Y-86404761D01*
X162309523Y-86309523D01*
X162261904Y-86214285D01*
X162214285Y-86023809D01*
X162214285Y-85880952D01*
X162261904Y-85690476D01*
X162309523Y-85595238D01*
X162404761Y-85500000D01*
X162547619Y-85452380D01*
X162642857Y-85452380D01*
X162785714Y-85500000D01*
X162833333Y-85547619D01*
X163404761Y-85880952D02*
X163309523Y-85833333D01*
X163261904Y-85785714D01*
X163214285Y-85690476D01*
X163214285Y-85642857D01*
X163261904Y-85547619D01*
X163309523Y-85500000D01*
X163404761Y-85452380D01*
X163595238Y-85452380D01*
X163690476Y-85500000D01*
X163738095Y-85547619D01*
X163785714Y-85642857D01*
X163785714Y-85690476D01*
X163738095Y-85785714D01*
X163690476Y-85833333D01*
X163595238Y-85880952D01*
X163404761Y-85880952D01*
X163309523Y-85928571D01*
X163261904Y-85976190D01*
X163214285Y-86071428D01*
X163214285Y-86261904D01*
X163261904Y-86357142D01*
X163309523Y-86404761D01*
X163404761Y-86452380D01*
X163595238Y-86452380D01*
X163690476Y-86404761D01*
X163738095Y-86357142D01*
X163785714Y-86261904D01*
X163785714Y-86071428D01*
X163738095Y-85976190D01*
X163690476Y-85928571D01*
X163595238Y-85880952D01*
X157833333Y-74952380D02*
X157500000Y-74476190D01*
X157261904Y-74952380D02*
X157261904Y-73952380D01*
X157642857Y-73952380D01*
X157738095Y-74000000D01*
X157785714Y-74047619D01*
X157833333Y-74142857D01*
X157833333Y-74285714D01*
X157785714Y-74380952D01*
X157738095Y-74428571D01*
X157642857Y-74476190D01*
X157261904Y-74476190D01*
X158785714Y-74952380D02*
X158214285Y-74952380D01*
X158500000Y-74952380D02*
X158500000Y-73952380D01*
X158404761Y-74095238D01*
X158309523Y-74190476D01*
X158214285Y-74238095D01*
X133952380Y-85761904D02*
X134761904Y-85761904D01*
X134857142Y-85714285D01*
X134904761Y-85666666D01*
X134952380Y-85571428D01*
X134952380Y-85380952D01*
X134904761Y-85285714D01*
X134857142Y-85238095D01*
X134761904Y-85190476D01*
X133952380Y-85190476D01*
X133952380Y-84238095D02*
X133952380Y-84714285D01*
X134428571Y-84761904D01*
X134380952Y-84714285D01*
X134333333Y-84619047D01*
X134333333Y-84380952D01*
X134380952Y-84285714D01*
X134428571Y-84238095D01*
X134523809Y-84190476D01*
X134761904Y-84190476D01*
X134857142Y-84238095D01*
X134904761Y-84285714D01*
X134952380Y-84380952D01*
X134952380Y-84619047D01*
X134904761Y-84714285D01*
X134857142Y-84761904D01*
D13*
X159609420Y-98240000D02*
X159890580Y-98240000D01*
X159609420Y-99260000D02*
X159890580Y-99260000D01*
X137737258Y-85522500D02*
X137262742Y-85522500D01*
X137737258Y-84477500D02*
X137262742Y-84477500D01*
X159512742Y-95272500D02*
X159987258Y-95272500D01*
X159512742Y-94227500D02*
X159987258Y-94227500D01*
X132490000Y-72109420D02*
X132490000Y-72390580D01*
X133510000Y-72109420D02*
X133510000Y-72390580D01*
X208750000Y-81350000D02*
X207600000Y-81350000D01*
X208750000Y-88650000D02*
X208750000Y-81350000D01*
X203250000Y-88650000D02*
X203250000Y-81350000D01*
X137011252Y-72735000D02*
X136488748Y-72735000D01*
X137011252Y-71265000D02*
X136488748Y-71265000D01*
X175990000Y-87390580D02*
X175990000Y-87109420D01*
X177010000Y-87390580D02*
X177010000Y-87109420D01*
X136415000Y-57260000D02*
X136415000Y-58110000D01*
X136415000Y-53740000D02*
X136415000Y-52890000D01*
X136415000Y-52890000D02*
X144585000Y-52890000D01*
X144585000Y-58110000D02*
X142260000Y-58110000D01*
X136415000Y-58110000D02*
X138740000Y-58110000D01*
X144585000Y-57260000D02*
X144585000Y-58110000D01*
X138740000Y-58110000D02*
X138740000Y-60500000D01*
X144585000Y-52890000D02*
X144585000Y-53740000D01*
X170835000Y-58110000D02*
X168510000Y-58110000D01*
X162665000Y-58110000D02*
X164990000Y-58110000D01*
X170835000Y-52890000D02*
X170835000Y-53740000D01*
X162665000Y-57260000D02*
X162665000Y-58110000D01*
X164990000Y-58110000D02*
X164990000Y-60500000D01*
X162665000Y-53740000D02*
X162665000Y-52890000D01*
X170835000Y-57260000D02*
X170835000Y-58110000D01*
X162665000Y-52890000D02*
X170835000Y-52890000D01*
D14*
X189500000Y-94750000D02*
X189750000Y-95000000D01*
X189500000Y-95250000D02*
X189500000Y-94750000D01*
X189000000Y-94250000D02*
X188000000Y-94250000D01*
X188000000Y-94250000D02*
X187750000Y-94500000D01*
X182750000Y-94250000D02*
X183000000Y-94500000D01*
X183500000Y-95750000D02*
X184500000Y-95750000D01*
X183500000Y-94250000D02*
X183250000Y-94500000D01*
X182750000Y-94750000D02*
X182750000Y-94250000D01*
X186500000Y-94250000D02*
X186250000Y-94500000D01*
X184750000Y-95250000D02*
X184750000Y-94750000D01*
X183250000Y-94500000D02*
X183250000Y-95500000D01*
X189750000Y-95000000D02*
X189500000Y-95250000D01*
X189250000Y-94500000D02*
X189000000Y-94250000D01*
X184750000Y-95500000D02*
X185000000Y-95750000D01*
X185000000Y-94250000D02*
X184750000Y-94500000D01*
X188000000Y-95750000D02*
X189000000Y-95750000D01*
X186000000Y-94250000D02*
X185000000Y-94250000D01*
X184750000Y-94500000D02*
X184500000Y-94250000D01*
X182750000Y-95250000D02*
X183000000Y-95500000D01*
X186500000Y-95750000D02*
X187500000Y-95750000D01*
X186250000Y-95500000D02*
X186500000Y-95750000D01*
X187500000Y-95750000D02*
X187750000Y-95500000D01*
X185000000Y-95750000D02*
X186000000Y-95750000D01*
X189000000Y-95750000D02*
X189250000Y-95500000D01*
X186250000Y-95250000D02*
X186250000Y-94750000D01*
X183000000Y-94500000D02*
X182750000Y-94750000D01*
X182750000Y-95750000D02*
X182750000Y-95250000D01*
X187500000Y-94250000D02*
X186500000Y-94250000D01*
X187750000Y-95500000D02*
X188000000Y-95750000D01*
X187750000Y-94500000D02*
X187500000Y-94250000D01*
X186000000Y-95750000D02*
X186250000Y-95500000D01*
X183000000Y-95500000D02*
X182750000Y-95750000D01*
X187750000Y-95250000D02*
X187750000Y-94750000D01*
X186250000Y-94500000D02*
X186000000Y-94250000D01*
X183250000Y-95500000D02*
X183500000Y-95750000D01*
X184500000Y-94250000D02*
X183500000Y-94250000D01*
X184500000Y-95750000D02*
X184750000Y-95500000D01*
X189250000Y-95500000D02*
X189250000Y-94500000D01*
D13*
X159609420Y-89740000D02*
X159890580Y-89740000D01*
X159609420Y-90760000D02*
X159890580Y-90760000D01*
X201250000Y-70350000D02*
X200100000Y-70350000D01*
X195750000Y-77650000D02*
X195750000Y-70350000D01*
X201250000Y-77650000D02*
X201250000Y-70350000D01*
X99920000Y-58720000D02*
X99920000Y-66400000D01*
X99920000Y-66400000D02*
X102580000Y-66400000D01*
X99920000Y-57450000D02*
X99920000Y-56120000D01*
X99920000Y-56120000D02*
X101250000Y-56120000D01*
X99920000Y-58720000D02*
X102580000Y-58720000D01*
X102580000Y-58720000D02*
X102580000Y-66400000D01*
G36*
X185119353Y-76158196D02*
G01*
X185389725Y-76158726D01*
X185390963Y-76343728D01*
X185220120Y-76343728D01*
X185049278Y-76343622D01*
X185049278Y-76464958D01*
X185362644Y-76464958D01*
X185362644Y-76634767D01*
X185049278Y-76634767D01*
X185049278Y-76750005D01*
X185390963Y-76750005D01*
X185390963Y-76938004D01*
X184849187Y-76938004D01*
X184849187Y-76157484D01*
X185119353Y-76158196D01*
G37*
G36*
X184456549Y-76157486D02*
G01*
X184453609Y-76235109D01*
X184453036Y-76486665D01*
X184453036Y-76741637D01*
X184770329Y-76741637D01*
X184770434Y-76839718D01*
X184770329Y-76937800D01*
X184254908Y-76937800D01*
X184254908Y-76157589D01*
X184456549Y-76157484D01*
X184456549Y-76157486D01*
G37*
G36*
X186689385Y-73048631D02*
G01*
X186863877Y-73140215D01*
X186979496Y-73266188D01*
X186886354Y-73390326D01*
X186727728Y-73472480D01*
X186661561Y-73365194D01*
X186639610Y-73175574D01*
X186674708Y-73053075D01*
X186689385Y-73048630D01*
X186689385Y-73048631D01*
G37*
G36*
X187238822Y-73400956D02*
G01*
X187349190Y-73571905D01*
X187255304Y-73681220D01*
X187138039Y-73758044D01*
X186996324Y-73723743D01*
X186883688Y-73648179D01*
X186940170Y-73439436D01*
X187059698Y-73267220D01*
X187238822Y-73400956D01*
G37*
G36*
X187376800Y-73033652D02*
G01*
X187432616Y-73226089D01*
X187424740Y-73334607D01*
X187259161Y-73305872D01*
X187121296Y-73245620D01*
X187159831Y-73118686D01*
X187275602Y-72948170D01*
X187295653Y-72936388D01*
X187376800Y-73033652D01*
G37*
G36*
X186434838Y-76157580D02*
G01*
X186534987Y-76157580D01*
X186534881Y-76418959D01*
X186535493Y-76619202D01*
X186537157Y-76692121D01*
X186604646Y-76763124D01*
X186728566Y-76740697D01*
X186753061Y-76701836D01*
X186756753Y-76657037D01*
X186757300Y-76423507D01*
X186757300Y-76157580D01*
X186856829Y-76158199D01*
X186956461Y-76158728D01*
X186956461Y-76718591D01*
X186950879Y-76738331D01*
X186945298Y-76761276D01*
X186913052Y-76825561D01*
X186716372Y-76944210D01*
X186593589Y-76946999D01*
X186564030Y-76942242D01*
X186441557Y-76889635D01*
X186361561Y-76796411D01*
X186353500Y-76778220D01*
X186340374Y-76732745D01*
X186335929Y-76710525D01*
X186335310Y-76434159D01*
X186334781Y-76157484D01*
X186434838Y-76157580D01*
G37*
G36*
X186213754Y-72479101D02*
G01*
X186122533Y-72533498D01*
X185929065Y-72668039D01*
X185927364Y-72669406D01*
X185745308Y-72815626D01*
X185655132Y-72898807D01*
X185572044Y-72975450D01*
X185410056Y-73146706D01*
X185408016Y-73149182D01*
X185260128Y-73328587D01*
X185188908Y-73428182D01*
X185123044Y-73520286D01*
X185000082Y-73720190D01*
X184999587Y-73720996D01*
X184890539Y-73929910D01*
X184841435Y-74043083D01*
X184796685Y-74146222D01*
X184749850Y-74276062D01*
X184711521Y-74418328D01*
X184710105Y-74423581D01*
X184722229Y-74503657D01*
X184830998Y-74431166D01*
X185023472Y-74219739D01*
X185232818Y-74034819D01*
X185453523Y-73879569D01*
X185680069Y-73757150D01*
X185906941Y-73670724D01*
X186128623Y-73623452D01*
X186339601Y-73618496D01*
X186534356Y-73659017D01*
X186539521Y-73660567D01*
X186442941Y-73498174D01*
X186373537Y-73310821D01*
X186225503Y-73109003D01*
X186134831Y-72891595D01*
X186134887Y-72703639D01*
X186254480Y-72703639D01*
X186409524Y-72804576D01*
X186522784Y-72948896D01*
X186437424Y-73073509D01*
X186414263Y-73257714D01*
X186332097Y-73162319D01*
X186422324Y-73276525D01*
X186428836Y-73288410D01*
X186520010Y-73530147D01*
X186666134Y-73721355D01*
X186768970Y-73800110D01*
X186868972Y-73867858D01*
X186939371Y-73960009D01*
X186986278Y-74065405D01*
X187015805Y-74172890D01*
X187034066Y-74271306D01*
X187047171Y-74349497D01*
X187061235Y-74396305D01*
X187082367Y-74400573D01*
X187116682Y-74351144D01*
X187170290Y-74236861D01*
X187249305Y-74046567D01*
X187359838Y-73769104D01*
X187362421Y-73765485D01*
X187367795Y-73756390D01*
X187477358Y-73622704D01*
X187560279Y-73478891D01*
X187610779Y-73293038D01*
X187623077Y-73033230D01*
X187627829Y-73016073D01*
X187667929Y-72903418D01*
X187675784Y-72867348D01*
X187623281Y-73002121D01*
X187545247Y-72855491D01*
X187391564Y-72731439D01*
X187466892Y-72604026D01*
X187620482Y-72437307D01*
X187430945Y-72514300D01*
X187243153Y-72682662D01*
X187224446Y-72696614D01*
X187248321Y-72703229D01*
X187272247Y-72762675D01*
X187125227Y-72797900D01*
X186991474Y-72805955D01*
X186807521Y-72869110D01*
X186666653Y-72929653D01*
X186578869Y-72926465D01*
X186644430Y-72833453D01*
X186616318Y-72830247D01*
X186412295Y-72725663D01*
X186254480Y-72703639D01*
X186134887Y-72703639D01*
X186134895Y-72678612D01*
X186155669Y-72657631D01*
X186357302Y-72651975D01*
X186633676Y-72771526D01*
X186853910Y-72655954D01*
X187029211Y-72625436D01*
X187205527Y-72636857D01*
X187399314Y-72463844D01*
X187639609Y-72371137D01*
X187692836Y-72374132D01*
X187712576Y-72387155D01*
X187757682Y-72539548D01*
X187755675Y-72731733D01*
X187726426Y-72917665D01*
X187682914Y-73036521D01*
X187668455Y-73301734D01*
X187614458Y-73498056D01*
X187528853Y-73651507D01*
X187419571Y-73788103D01*
X187404894Y-73997777D01*
X187353739Y-74201276D01*
X187265780Y-74401163D01*
X187140693Y-74599997D01*
X187082367Y-74671887D01*
X186978151Y-74800340D01*
X186992207Y-74885814D01*
X187030137Y-75043323D01*
X187110872Y-75257063D01*
X187194572Y-75461075D01*
X187275911Y-75660443D01*
X187339886Y-75792941D01*
X187441275Y-75850923D01*
X187532019Y-75892884D01*
X187577184Y-75945387D01*
X187617047Y-76055658D01*
X187649634Y-76200875D01*
X187656456Y-76284178D01*
X187651081Y-76300921D01*
X187659246Y-76321488D01*
X187673303Y-76422257D01*
X187657076Y-76535738D01*
X187581318Y-76641262D01*
X187535131Y-76665015D01*
X187527058Y-76669167D01*
X187523750Y-76671025D01*
X187534086Y-76685494D01*
X187559924Y-76717844D01*
X187591860Y-76758875D01*
X187604469Y-76774068D01*
X187633615Y-76810758D01*
X187664104Y-76849205D01*
X187673406Y-76860574D01*
X187691596Y-76883828D01*
X187720534Y-76920415D01*
X187734280Y-76938089D01*
X187487887Y-76938089D01*
X187476932Y-76922999D01*
X187445926Y-76880108D01*
X187412543Y-76834735D01*
X187386395Y-76798665D01*
X187371099Y-76777685D01*
X187345777Y-76743062D01*
X187341024Y-76736531D01*
X187314565Y-76700170D01*
X187306400Y-76689628D01*
X187290173Y-76690052D01*
X187274050Y-76690475D01*
X187272812Y-76938109D01*
X187173696Y-76938109D01*
X187073650Y-76935627D01*
X187073650Y-76935521D01*
X187073214Y-76820015D01*
X187073333Y-76545881D01*
X187073428Y-76429404D01*
X187273316Y-76429404D01*
X187273845Y-76519114D01*
X187341024Y-76520871D01*
X187418436Y-76515913D01*
X187459364Y-76489454D01*
X187475176Y-76401398D01*
X187416472Y-76346104D01*
X187339577Y-76342485D01*
X187273845Y-76342485D01*
X187273316Y-76429404D01*
X187073428Y-76429404D01*
X187073650Y-76158825D01*
X187126877Y-76158613D01*
X186931437Y-75984773D01*
X186886600Y-75940442D01*
X186957172Y-75940442D01*
X187074189Y-76031583D01*
X187194470Y-76157174D01*
X187411314Y-76191919D01*
X187497875Y-76268524D01*
X187535131Y-76316610D01*
X187604057Y-76265797D01*
X187594239Y-76187869D01*
X187529437Y-75964213D01*
X187501531Y-75931244D01*
X187420399Y-75894244D01*
X187299683Y-75822723D01*
X187195947Y-75929827D01*
X186957172Y-75940442D01*
X186886600Y-75940442D01*
X186846386Y-75900681D01*
X186734515Y-75751691D01*
X186586032Y-75524853D01*
X186496322Y-75386153D01*
X186471517Y-75350393D01*
X186413226Y-75410648D01*
X186252387Y-75545247D01*
X186047770Y-75681123D01*
X185958163Y-75751299D01*
X186098413Y-75801942D01*
X186312250Y-75818169D01*
X186470267Y-75792885D01*
X186598021Y-75794708D01*
X186748812Y-75919041D01*
X186730519Y-76023841D01*
X186103167Y-76101252D01*
X186095621Y-76101829D01*
X185789698Y-76125230D01*
X185563874Y-76131143D01*
X185312424Y-76114208D01*
X185034189Y-76070349D01*
X185024680Y-76070667D01*
X184923441Y-76048651D01*
X186095621Y-76048651D01*
X186706850Y-75973203D01*
X186709226Y-75967519D01*
X186704268Y-75942818D01*
X186641429Y-75873158D01*
X186585929Y-75840602D01*
X186525364Y-75837813D01*
X186525363Y-75837814D01*
X186435446Y-75844119D01*
X186435446Y-75844013D01*
X186321654Y-75863546D01*
X186205321Y-75890400D01*
X186190188Y-75901993D01*
X186184280Y-75940639D01*
X186095621Y-76048651D01*
X184923441Y-76048651D01*
X184816363Y-76025365D01*
X184638388Y-75944676D01*
X184492413Y-75828821D01*
X184380221Y-75678645D01*
X184303041Y-75495671D01*
X184261729Y-75281155D01*
X184255293Y-75064015D01*
X184269120Y-74833888D01*
X184301142Y-74598415D01*
X184349288Y-74365238D01*
X184405469Y-74163600D01*
X184440220Y-74163600D01*
X184459856Y-74169801D01*
X184692814Y-74257857D01*
X184711521Y-74266332D01*
X184719376Y-74247418D01*
X184765781Y-74135488D01*
X184772499Y-74117814D01*
X184755239Y-74110166D01*
X184513703Y-74018182D01*
X184502128Y-74014462D01*
X184493547Y-74023040D01*
X184490346Y-74026141D01*
X184488796Y-74030068D01*
X184446937Y-74144169D01*
X184440220Y-74163600D01*
X184405469Y-74163600D01*
X184411487Y-74141999D01*
X184498592Y-73914170D01*
X184540301Y-73824086D01*
X184575715Y-73824086D01*
X184594629Y-73832354D01*
X184822625Y-73946869D01*
X184841435Y-73957618D01*
X184850634Y-73937981D01*
X184902413Y-73830804D01*
X184911199Y-73813751D01*
X184894455Y-73804242D01*
X184663669Y-73686627D01*
X184646408Y-73678979D01*
X184637830Y-73695825D01*
X184584500Y-73805482D01*
X184575715Y-73824086D01*
X184540301Y-73824086D01*
X184601056Y-73692864D01*
X184702875Y-73506793D01*
X184741700Y-73506793D01*
X184761750Y-73516094D01*
X184982512Y-73642495D01*
X185000082Y-73654380D01*
X185010934Y-73636190D01*
X185073256Y-73534077D01*
X185084004Y-73517645D01*
X185067675Y-73506689D01*
X184842779Y-73376258D01*
X184826863Y-73368713D01*
X184817354Y-73383596D01*
X184753069Y-73487775D01*
X184741700Y-73506793D01*
X184702875Y-73506793D01*
X184718157Y-73478865D01*
X184849170Y-73272958D01*
X184902990Y-73199421D01*
X184942928Y-73199421D01*
X184961738Y-73210790D01*
X185172785Y-73355587D01*
X185188908Y-73367783D01*
X185200897Y-73351557D01*
X185273760Y-73256575D01*
X185286473Y-73240556D01*
X185270350Y-73228153D01*
X185055996Y-73080255D01*
X185040906Y-73071160D01*
X185029951Y-73085010D01*
X184955950Y-73181748D01*
X184942928Y-73199421D01*
X184902990Y-73199421D01*
X184993372Y-73075927D01*
X185131566Y-72910653D01*
X185176402Y-72910653D01*
X185194592Y-72923676D01*
X185393237Y-73084596D01*
X185408016Y-73098032D01*
X185421452Y-73083252D01*
X185503927Y-72996539D01*
X185518397Y-72981760D01*
X185503101Y-72967807D01*
X185300529Y-72802546D01*
X185286473Y-72792418D01*
X185274484Y-72804923D01*
X185191388Y-72894013D01*
X185176402Y-72910653D01*
X185131566Y-72910653D01*
X185150041Y-72888558D01*
X185318452Y-72711635D01*
X185385088Y-72650101D01*
X185432717Y-72650101D01*
X185451424Y-72664674D01*
X185641697Y-72835826D01*
X185655132Y-72849468D01*
X185669292Y-72836653D01*
X185760242Y-72759242D01*
X185776882Y-72745392D01*
X185761690Y-72729992D01*
X185568419Y-72552432D01*
X185555500Y-72541890D01*
X185542891Y-72552742D01*
X185450287Y-72634184D01*
X185432717Y-72650101D01*
X185385088Y-72650101D01*
X185497881Y-72545943D01*
X185664803Y-72410736D01*
X185719521Y-72410736D01*
X185736781Y-72427065D01*
X185915272Y-72613411D01*
X185927364Y-72626846D01*
X185941937Y-72616201D01*
X186040742Y-72547678D01*
X186059655Y-72534862D01*
X186044566Y-72517809D01*
X185864112Y-72327123D01*
X185852330Y-72315651D01*
X185838791Y-72325056D01*
X185738642Y-72396576D01*
X185719521Y-72410736D01*
X185664803Y-72410736D01*
X185687606Y-72392266D01*
X185886903Y-72251389D01*
X185957922Y-72207957D01*
X186019451Y-72207957D01*
X186036814Y-72226147D01*
X186203006Y-72423551D01*
X186213754Y-72437814D01*
X186229154Y-72428822D01*
X186334367Y-72370118D01*
X186354624Y-72359266D01*
X186340982Y-72340662D01*
X186173447Y-72136747D01*
X186162802Y-72125378D01*
X186149159Y-72132819D01*
X186041052Y-72195141D01*
X186019451Y-72207957D01*
X185957922Y-72207957D01*
X186095049Y-72124097D01*
X186268565Y-72033497D01*
X186344082Y-72033497D01*
X186362376Y-72053031D01*
X186524434Y-72257153D01*
X186533735Y-72271312D01*
X186549238Y-72264388D01*
X186660343Y-72216122D01*
X186682770Y-72207130D01*
X186669747Y-72186873D01*
X186593708Y-72078340D01*
X186508517Y-71975413D01*
X186499422Y-71965181D01*
X186486606Y-71970039D01*
X186367854Y-72021405D01*
X186344082Y-72033497D01*
X186268565Y-72033497D01*
X186311320Y-72011173D01*
X186501609Y-71932468D01*
X186598039Y-71890043D01*
X186688765Y-71890043D01*
X186706128Y-71909474D01*
X186861054Y-72112046D01*
X186871079Y-72127859D01*
X186887512Y-72118867D01*
X186995206Y-72050137D01*
X187009882Y-72038975D01*
X186999960Y-72023472D01*
X186840280Y-71818110D01*
X186827981Y-71804468D01*
X186813305Y-71815629D01*
X186711916Y-71878262D01*
X186688765Y-71890043D01*
X186598039Y-71890043D01*
X186697345Y-71846353D01*
X186871906Y-71710830D01*
X186887822Y-71519834D01*
X186725868Y-71429607D01*
X186542532Y-71470567D01*
X186369714Y-71407593D01*
X186334674Y-71255167D01*
X186436480Y-71130504D01*
X186563291Y-71072411D01*
X186709435Y-71052782D01*
X186709540Y-71052871D01*
X186885429Y-71069434D01*
X187048771Y-71135735D01*
X187191680Y-71264124D01*
X187284585Y-71461789D01*
X187287697Y-71677178D01*
X187212493Y-71878147D01*
X187070448Y-72032553D01*
X186921951Y-72131563D01*
X186871079Y-72157105D01*
X186753361Y-72216211D01*
X186535464Y-72306777D01*
X186533735Y-72307648D01*
X186324927Y-72412808D01*
X186213754Y-72479101D01*
G37*
G36*
X185592404Y-76158213D02*
G01*
X185691933Y-76159764D01*
X185697098Y-76172373D01*
X185707020Y-76195111D01*
X185719319Y-76224463D01*
X185731928Y-76252782D01*
X185740403Y-76272005D01*
X185759936Y-76318514D01*
X185767791Y-76336601D01*
X185798384Y-76407294D01*
X185809339Y-76432202D01*
X185817298Y-76451012D01*
X185825359Y-76470133D01*
X185833420Y-76488736D01*
X185843859Y-76513128D01*
X185854401Y-76536279D01*
X185859359Y-76526460D01*
X185868248Y-76505583D01*
X185875379Y-76488426D01*
X185905455Y-76419800D01*
X185915480Y-76396752D01*
X185925298Y-76374325D01*
X185956408Y-76302391D01*
X185979248Y-76248854D01*
X185986897Y-76231594D01*
X185993718Y-76216402D01*
X186008911Y-76181055D01*
X186018936Y-76158834D01*
X186216444Y-76158834D01*
X186216444Y-76937081D01*
X186018419Y-76937081D01*
X186017800Y-76828974D01*
X186023381Y-76647073D01*
X186030616Y-76564701D01*
X186028547Y-76556122D01*
X186016455Y-76577930D01*
X185987103Y-76654204D01*
X185981108Y-76670327D01*
X185970773Y-76697406D01*
X185962608Y-76718387D01*
X185953410Y-76743811D01*
X185939974Y-76778434D01*
X185932222Y-76797658D01*
X185926435Y-76814298D01*
X185924059Y-76822980D01*
X185855226Y-76822360D01*
X185786290Y-76821741D01*
X185777298Y-76798487D01*
X185762622Y-76760039D01*
X185750530Y-76728827D01*
X185725208Y-76664335D01*
X185698750Y-76597362D01*
X185689758Y-76573591D01*
X185680147Y-76555918D01*
X185678702Y-76565529D01*
X185684696Y-76630228D01*
X185689655Y-76811716D01*
X185689655Y-76938013D01*
X185491527Y-76938013D01*
X185492146Y-76548373D01*
X185492972Y-76158526D01*
X185592604Y-76158103D01*
X185592404Y-76158213D01*
G37*
X133085000Y-52890000D02*
X133085000Y-53740000D01*
X124915000Y-52890000D02*
X133085000Y-52890000D01*
X124915000Y-57260000D02*
X124915000Y-58110000D01*
X124915000Y-53740000D02*
X124915000Y-52890000D01*
X127240000Y-58110000D02*
X127240000Y-60500000D01*
X133085000Y-57260000D02*
X133085000Y-58110000D01*
X133085000Y-58110000D02*
X130760000Y-58110000D01*
X124915000Y-58110000D02*
X127240000Y-58110000D01*
X111740000Y-97859420D02*
X111740000Y-98140580D01*
X112760000Y-97859420D02*
X112760000Y-98140580D01*
X100280000Y-93120000D02*
X106300000Y-93120000D01*
X100280000Y-74880000D02*
X106800000Y-74880000D01*
X120200000Y-74880000D02*
X120500000Y-74880000D01*
X120520000Y-93120000D02*
X120520000Y-92100000D01*
X106300000Y-93120000D02*
X106300000Y-95000000D01*
X100280000Y-93120000D02*
X100280000Y-74880000D01*
X120200000Y-93120000D02*
X120520000Y-93120000D01*
X120520000Y-76000000D02*
X120520000Y-74880000D01*
D11*
X151350000Y-63400000D02*
X155150000Y-63400000D01*
X155150000Y-65600000D02*
X151350000Y-65600000D01*
X151350000Y-65600000D02*
X151350000Y-63400000D01*
X155150000Y-63400000D02*
X155150000Y-65600000D01*
D13*
X148735000Y-78811252D02*
X148735000Y-78288748D01*
X147265000Y-78811252D02*
X147265000Y-78288748D01*
X147450000Y-99400000D02*
X149190000Y-99400000D01*
X153250000Y-90090000D02*
X153250000Y-88600000D01*
X149190000Y-88600000D02*
X147450000Y-88600000D01*
X153250000Y-97910000D02*
X153250000Y-99400000D01*
X147450000Y-88600000D02*
X147450000Y-99400000D01*
X153250000Y-88600000D02*
X151910000Y-88600000D01*
X153250000Y-90090000D02*
X154450000Y-90090000D01*
X153250000Y-99400000D02*
X151910000Y-99400000D01*
X154665000Y-113640000D02*
X156990000Y-113640000D01*
X170835000Y-118010000D02*
X170835000Y-118860000D01*
X170835000Y-118860000D02*
X154665000Y-118860000D01*
X170835000Y-114490000D02*
X170835000Y-113640000D01*
X168510000Y-113640000D02*
X168510000Y-111250000D01*
X154665000Y-114490000D02*
X154665000Y-113640000D01*
X154665000Y-118860000D02*
X154665000Y-118010000D01*
X170835000Y-113640000D02*
X168510000Y-113640000D01*
X122330000Y-59540000D02*
X122330000Y-60870000D01*
X122330000Y-58270000D02*
X119670000Y-58270000D01*
X122330000Y-60870000D02*
X121000000Y-60870000D01*
X119670000Y-58270000D02*
X119670000Y-53130000D01*
X122330000Y-53130000D02*
X119670000Y-53130000D01*
X122330000Y-58270000D02*
X122330000Y-53130000D01*
D11*
X110600000Y-55900000D02*
X114400000Y-55900000D01*
X114400000Y-58100000D02*
X110600000Y-58100000D01*
X110600000Y-58100000D02*
X110600000Y-55900000D01*
X114400000Y-55900000D02*
X114400000Y-58100000D01*
D13*
X169740000Y-72359420D02*
X169740000Y-72640580D01*
X170760000Y-72359420D02*
X170760000Y-72640580D01*
X113477500Y-98237258D02*
X113477500Y-97762742D01*
X114522500Y-98237258D02*
X114522500Y-97762742D01*
X175265000Y-63488748D02*
X175265000Y-64011252D01*
X176735000Y-63488748D02*
X176735000Y-64011252D01*
D11*
X140100000Y-84100000D02*
X140100000Y-81900000D01*
X143900000Y-84100000D02*
X140100000Y-84100000D01*
X143900000Y-81900000D02*
X143900000Y-84100000D01*
X140100000Y-81900000D02*
X143900000Y-81900000D01*
D13*
X137260000Y-97500000D02*
X137260000Y-93640000D01*
X137260000Y-93640000D02*
X137005000Y-93640000D01*
X126740000Y-93640000D02*
X126995000Y-93640000D01*
X137260000Y-97500000D02*
X137260000Y-101360000D01*
X126740000Y-97500000D02*
X126740000Y-101360000D01*
X137260000Y-101360000D02*
X137005000Y-101360000D01*
X126740000Y-101360000D02*
X126995000Y-101360000D01*
X126740000Y-97500000D02*
X126740000Y-93640000D01*
X137005000Y-93640000D02*
X137005000Y-91825000D01*
X117772500Y-98237258D02*
X117772500Y-97762742D01*
X116727500Y-98237258D02*
X116727500Y-97762742D01*
X129915000Y-113640000D02*
X132240000Y-113640000D01*
X146085000Y-113640000D02*
X143760000Y-113640000D01*
X146085000Y-114490000D02*
X146085000Y-113640000D01*
X146085000Y-118860000D02*
X129915000Y-118860000D01*
X129915000Y-118860000D02*
X129915000Y-118010000D01*
X129915000Y-114490000D02*
X129915000Y-113640000D01*
X146085000Y-118010000D02*
X146085000Y-118860000D01*
X143760000Y-113640000D02*
X143760000Y-111250000D01*
X195750000Y-89350000D02*
X195750000Y-96650000D01*
X201250000Y-89350000D02*
X201250000Y-96650000D01*
X195750000Y-96650000D02*
X196900000Y-96650000D01*
X137737258Y-82522500D02*
X137262742Y-82522500D01*
X137737258Y-81477500D02*
X137262742Y-81477500D01*
X110985000Y-97738748D02*
X110985000Y-98261252D01*
X109515000Y-97738748D02*
X109515000Y-98261252D01*
X174511252Y-72485000D02*
X173988748Y-72485000D01*
X174511252Y-71015000D02*
X173988748Y-71015000D01*
X107740000Y-97859420D02*
X107740000Y-98140580D01*
X108760000Y-97859420D02*
X108760000Y-98140580D01*
X103720000Y-107700000D02*
X103230000Y-108190000D01*
X103720000Y-104800000D02*
X103230000Y-104310000D01*
X98280000Y-107700000D02*
X98280000Y-104800000D01*
X102040000Y-108970000D02*
X99960000Y-108970000D01*
X98280000Y-104800000D02*
X98770000Y-104310000D01*
X102040000Y-103530000D02*
X99960000Y-103530000D01*
X98280000Y-107700000D02*
X98770000Y-108190000D01*
X103720000Y-107700000D02*
X103720000Y-104800000D01*
X148235000Y-72238748D02*
X148235000Y-72761252D01*
X146765000Y-72238748D02*
X146765000Y-72761252D01*
X124585000Y-118860000D02*
X108415000Y-118860000D01*
X124585000Y-114490000D02*
X124585000Y-113640000D01*
X108415000Y-113640000D02*
X110740000Y-113640000D01*
X124585000Y-113640000D02*
X122260000Y-113640000D01*
X108415000Y-118860000D02*
X108415000Y-118010000D01*
X108415000Y-114490000D02*
X108415000Y-113640000D01*
X124585000Y-118010000D02*
X124585000Y-118860000D01*
X122260000Y-113640000D02*
X122260000Y-111250000D01*
X159609420Y-88260000D02*
X159890580Y-88260000D01*
X159609420Y-87240000D02*
X159890580Y-87240000D01*
X139510000Y-102140580D02*
X139510000Y-101859420D01*
X138490000Y-102140580D02*
X138490000Y-101859420D01*
X195250000Y-108150000D02*
X195250000Y-100850000D01*
X189750000Y-108150000D02*
X189750000Y-100850000D01*
X195250000Y-100850000D02*
X194100000Y-100850000D01*
X169265000Y-65750000D02*
X169265000Y-67950000D01*
X169265000Y-65750000D02*
X169265000Y-63550000D01*
X174735000Y-65750000D02*
X174735000Y-67950000D01*
X174735000Y-65750000D02*
X174735000Y-62100000D01*
X109977500Y-70262742D02*
X109977500Y-70737258D01*
X111022500Y-70262742D02*
X111022500Y-70737258D01*
X174665000Y-58110000D02*
X176990000Y-58110000D01*
X182835000Y-52890000D02*
X182835000Y-53740000D01*
X174665000Y-57260000D02*
X174665000Y-58110000D01*
X182835000Y-58110000D02*
X180510000Y-58110000D01*
X176990000Y-58110000D02*
X176990000Y-60500000D01*
X174665000Y-53740000D02*
X174665000Y-52890000D01*
X182835000Y-57260000D02*
X182835000Y-58110000D01*
X174665000Y-52890000D02*
X182835000Y-52890000D01*
X137235000Y-66000000D02*
X137235000Y-68200000D01*
X131765000Y-66000000D02*
X131765000Y-68200000D01*
X131765000Y-66000000D02*
X131765000Y-63800000D01*
X137235000Y-66000000D02*
X137235000Y-62350000D01*
X139235000Y-64038748D02*
X139235000Y-64561252D01*
X137765000Y-64038748D02*
X137765000Y-64561252D01*
X159488748Y-96015000D02*
X160011252Y-96015000D01*
X159488748Y-97485000D02*
X160011252Y-97485000D01*
D11*
X143900000Y-81100000D02*
X140100000Y-81100000D01*
X140100000Y-81100000D02*
X140100000Y-78900000D01*
X140100000Y-78900000D02*
X143900000Y-78900000D01*
X143900000Y-78900000D02*
X143900000Y-81100000D01*
X158400000Y-80600000D02*
X154600000Y-80600000D01*
X154600000Y-80600000D02*
X154600000Y-78400000D01*
X154600000Y-78400000D02*
X158400000Y-78400000D01*
X158400000Y-78400000D02*
X158400000Y-80600000D01*
D13*
X157762742Y-71522500D02*
X158237258Y-71522500D01*
X157762742Y-70477500D02*
X158237258Y-70477500D01*
X121500000Y-85750000D02*
X123500000Y-85750000D01*
X123500000Y-85750000D02*
X123500000Y-81850000D01*
X121500000Y-85750000D02*
X121500000Y-81850000D01*
X128640580Y-84260000D02*
X128359420Y-84260000D01*
X128640580Y-83240000D02*
X128359420Y-83240000D01*
X128640580Y-87260000D02*
X128359420Y-87260000D01*
X128640580Y-86240000D02*
X128359420Y-86240000D01*
X159488748Y-92985000D02*
X160011252Y-92985000D01*
X159488748Y-91515000D02*
X160011252Y-91515000D01*
X195750000Y-67150000D02*
X195750000Y-59850000D01*
X195750000Y-59850000D02*
X194600000Y-59850000D01*
X190250000Y-67150000D02*
X190250000Y-59850000D01*
X152060000Y-78100378D02*
X152060000Y-78899622D01*
X150940000Y-78100378D02*
X150940000Y-78899622D01*
X152500000Y-75560000D02*
X151700000Y-75560000D01*
X152500000Y-72440000D02*
X153300000Y-72440000D01*
X152500000Y-75560000D02*
X153300000Y-75560000D01*
X152500000Y-72440000D02*
X150700000Y-72440000D01*
X159488748Y-100015000D02*
X160011252Y-100015000D01*
X159488748Y-101485000D02*
X160011252Y-101485000D01*
X149165000Y-57260000D02*
X149165000Y-58110000D01*
X151490000Y-58110000D02*
X151490000Y-60500000D01*
X157335000Y-58110000D02*
X155010000Y-58110000D01*
X157335000Y-52890000D02*
X157335000Y-53740000D01*
X149165000Y-58110000D02*
X151490000Y-58110000D01*
X149165000Y-53740000D02*
X149165000Y-52890000D01*
X149165000Y-52890000D02*
X157335000Y-52890000D01*
X157335000Y-57260000D02*
X157335000Y-58110000D01*
X164740000Y-86610000D02*
X164995000Y-86610000D01*
X175260000Y-78890000D02*
X175005000Y-78890000D01*
X164740000Y-82750000D02*
X164740000Y-86610000D01*
X175260000Y-82750000D02*
X175260000Y-86610000D01*
X164740000Y-78890000D02*
X164995000Y-78890000D01*
X164740000Y-82750000D02*
X164740000Y-78890000D01*
X175260000Y-82750000D02*
X175260000Y-78890000D01*
X175260000Y-86610000D02*
X175005000Y-86610000D01*
X175005000Y-78890000D02*
X175005000Y-77075000D01*
X159609420Y-86260000D02*
X159890580Y-86260000D01*
X159609420Y-85240000D02*
X159890580Y-85240000D01*
X158237258Y-73522500D02*
X157762742Y-73522500D01*
X158237258Y-72477500D02*
X157762742Y-72477500D01*
D14*
X130650000Y-83400000D02*
X130650000Y-84120000D01*
X133350000Y-83300000D02*
X133350000Y-84120000D01*
X130870000Y-86600000D02*
X130650000Y-86600000D01*
X130650000Y-86600000D02*
X130650000Y-85880000D01*
X133350000Y-85880000D02*
X133350000Y-86600000D01*
X130650000Y-83400000D02*
X130870000Y-83400000D01*
X133350000Y-86600000D02*
X133130000Y-86600000D01*
M02*
