G04 #@! TF.GenerationSoftware,KiCad,Pcbnew,(6.0.7)*
G04 #@! TF.CreationDate,2022-09-14T01:52:13-07:00*
G04 #@! TF.ProjectId,RobotDriver2_Blimp,526f626f-7444-4726-9976-6572325f426c,rev?*
G04 #@! TF.SameCoordinates,Original*
G04 #@! TF.FileFunction,Soldermask,Top*
G04 #@! TF.FilePolarity,Negative*
%FSLAX46Y46*%
G04 Gerber Fmt 4.6, Leading zero omitted, Abs format (unit mm)*
G04 Created by KiCad (PCBNEW (6.0.7)) date 2022-09-14 01:52:13*
%MOMM*%
%LPD*%
G01*
G04 APERTURE LIST*
G04 Aperture macros list*
%AMRoundRect*
0 Rectangle with rounded corners*
0 $1 Rounding radius*
0 $2 $3 $4 $5 $6 $7 $8 $9 X,Y pos of 4 corners*
0 Add a 4 corners polygon primitive as box body*
4,1,4,$2,$3,$4,$5,$6,$7,$8,$9,$2,$3,0*
0 Add four circle primitives for the rounded corners*
1,1,$1+$1,$2,$3*
1,1,$1+$1,$4,$5*
1,1,$1+$1,$6,$7*
1,1,$1+$1,$8,$9*
0 Add four rect primitives between the rounded corners*
20,1,$1+$1,$2,$3,$4,$5,0*
20,1,$1+$1,$4,$5,$6,$7,0*
20,1,$1+$1,$6,$7,$8,$9,0*
20,1,$1+$1,$8,$9,$2,$3,0*%
G04 Aperture macros list end*
%ADD10C,0.650000*%
%ADD11C,0.700000*%
%ADD12C,1.500000*%
%ADD13C,2.500000*%
%ADD14RoundRect,0.218750X0.218750X0.256250X-0.218750X0.256250X-0.218750X-0.256250X0.218750X-0.256250X0*%
%ADD15R,0.900000X0.400000*%
%ADD16RoundRect,0.250000X-1.425000X0.362500X-1.425000X-0.362500X1.425000X-0.362500X1.425000X0.362500X0*%
%ADD17RoundRect,0.225000X0.225000X0.250000X-0.225000X0.250000X-0.225000X-0.250000X0.225000X-0.250000X0*%
%ADD18RoundRect,0.250000X-0.350000X-0.625000X0.350000X-0.625000X0.350000X0.625000X-0.350000X0.625000X0*%
%ADD19O,1.200000X1.750000*%
%ADD20RoundRect,0.200000X-0.200000X-0.275000X0.200000X-0.275000X0.200000X0.275000X-0.200000X0.275000X0*%
%ADD21RoundRect,0.225000X-0.225000X-0.250000X0.225000X-0.250000X0.225000X0.250000X-0.225000X0.250000X0*%
%ADD22RoundRect,0.200000X0.200000X0.275000X-0.200000X0.275000X-0.200000X-0.275000X0.200000X-0.275000X0*%
%ADD23C,1.152000*%
%ADD24R,1.000000X1.500000*%
%ADD25RoundRect,0.250000X0.250000X0.475000X-0.250000X0.475000X-0.250000X-0.475000X0.250000X-0.475000X0*%
%ADD26R,1.700000X1.700000*%
%ADD27O,1.700000X1.700000*%
%ADD28RoundRect,0.225000X-0.250000X0.225000X-0.250000X-0.225000X0.250000X-0.225000X0.250000X0.225000X0*%
%ADD29R,0.900000X2.000000*%
%ADD30R,2.000000X0.900000*%
%ADD31R,5.000000X5.000000*%
%ADD32RoundRect,0.200000X1.025000X0.275000X-1.025000X0.275000X-1.025000X-0.275000X1.025000X-0.275000X0*%
%ADD33RoundRect,0.250000X-0.250000X-0.475000X0.250000X-0.475000X0.250000X0.475000X-0.250000X0.475000X0*%
%ADD34R,1.300000X0.300000*%
%ADD35R,2.200000X1.800000*%
%ADD36RoundRect,0.200000X-1.025000X-0.275000X1.025000X-0.275000X1.025000X0.275000X-1.025000X0.275000X0*%
%ADD37RoundRect,0.200000X0.275000X-0.200000X0.275000X0.200000X-0.275000X0.200000X-0.275000X-0.200000X0*%
%ADD38RoundRect,0.250000X0.350000X0.625000X-0.350000X0.625000X-0.350000X-0.625000X0.350000X-0.625000X0*%
%ADD39RoundRect,0.100000X-0.625000X-0.100000X0.625000X-0.100000X0.625000X0.100000X-0.625000X0.100000X0*%
%ADD40R,1.680000X1.880000*%
%ADD41RoundRect,0.250000X-0.650000X0.325000X-0.650000X-0.325000X0.650000X-0.325000X0.650000X0.325000X0*%
%ADD42R,1.800000X1.100000*%
%ADD43RoundRect,0.250000X-0.475000X0.250000X-0.475000X-0.250000X0.475000X-0.250000X0.475000X0.250000X0*%
%ADD44RoundRect,0.100000X0.675000X0.100000X-0.675000X0.100000X-0.675000X-0.100000X0.675000X-0.100000X0*%
%ADD45R,3.000000X3.000000*%
%ADD46RoundRect,0.150000X-0.875000X-0.150000X0.875000X-0.150000X0.875000X0.150000X-0.875000X0.150000X0*%
%ADD47RoundRect,0.225000X0.250000X-0.225000X0.250000X0.225000X-0.250000X0.225000X-0.250000X-0.225000X0*%
%ADD48R,0.900000X1.200000*%
%ADD49RoundRect,0.218750X-0.218750X-0.381250X0.218750X-0.381250X0.218750X0.381250X-0.218750X0.381250X0*%
%ADD50RoundRect,0.150000X-0.512500X-0.150000X0.512500X-0.150000X0.512500X0.150000X-0.512500X0.150000X0*%
%ADD51R,0.250000X0.675000*%
%ADD52R,0.675000X0.250000*%
G04 APERTURE END LIST*
D10*
X100825000Y-48000000D02*
G75*
G03*
X100825000Y-48000000I-325000J0D01*
G01*
X190325000Y-82000000D02*
G75*
G03*
X190325000Y-82000000I-325000J0D01*
G01*
D11*
X147000000Y-117000000D02*
G75*
G03*
X147000000Y-117000000I-250000J0D01*
G01*
X148500000Y-117000000D02*
G75*
G03*
X148500000Y-117000000I-250000J0D01*
G01*
X150000000Y-117000000D02*
G75*
G03*
X150000000Y-117000000I-250000J0D01*
G01*
X151500000Y-117000000D02*
G75*
G03*
X151500000Y-117000000I-250000J0D01*
G01*
D12*
X148250000Y-114500000D02*
G75*
G03*
X148250000Y-114500000I-500000J0D01*
G01*
X150750000Y-114500000D02*
G75*
G03*
X150750000Y-114500000I-500000J0D01*
G01*
D10*
X100825000Y-113500000D02*
G75*
G03*
X100825000Y-113500000I-325000J0D01*
G01*
D13*
X143250000Y-115500000D02*
G75*
G03*
X143250000Y-115500000I-1250000J0D01*
G01*
D14*
X126787500Y-100000000D03*
X125212500Y-100000000D03*
X126787500Y-98000000D03*
X125212500Y-98000000D03*
X126787500Y-94000000D03*
X125212500Y-94000000D03*
X126787500Y-96000000D03*
X125212500Y-96000000D03*
D15*
X130150000Y-95800000D03*
X130150000Y-96600000D03*
X130150000Y-97400000D03*
X130150000Y-98200000D03*
X131850000Y-98200000D03*
X131850000Y-97400000D03*
X131850000Y-96600000D03*
X131850000Y-95800000D03*
D16*
X123000000Y-58037500D03*
X123000000Y-63962500D03*
D17*
X161775000Y-82166700D03*
X160225000Y-82166700D03*
D18*
X177000000Y-58000000D03*
D19*
X179000000Y-58000000D03*
D20*
X170175000Y-67500000D03*
X171825000Y-67500000D03*
D21*
X170225000Y-69250000D03*
X171775000Y-69250000D03*
D22*
X141825000Y-85000000D03*
X140175000Y-85000000D03*
X155825000Y-82000000D03*
X154175000Y-82000000D03*
D17*
X137775000Y-63000000D03*
X136225000Y-63000000D03*
D23*
X100500000Y-48000000D03*
D24*
X195400000Y-84700000D03*
X198600000Y-84700000D03*
X198600000Y-79800000D03*
X195400000Y-79800000D03*
D25*
X137950000Y-68000000D03*
X136050000Y-68000000D03*
D23*
X190000000Y-82000000D03*
D25*
X179950000Y-71000000D03*
X178050000Y-71000000D03*
D18*
X145332300Y-58000000D03*
D19*
X147332300Y-58000000D03*
D18*
X155807500Y-58000000D03*
D19*
X157807500Y-58000000D03*
D22*
X127825000Y-56000000D03*
X126175000Y-56000000D03*
D17*
X155775000Y-87000000D03*
X154225000Y-87000000D03*
D24*
X191400000Y-74825000D03*
X194600000Y-74825000D03*
X194600000Y-69925000D03*
X191400000Y-69925000D03*
D26*
X102000000Y-64700000D03*
D27*
X102000000Y-62160000D03*
X102000000Y-59620000D03*
X102000000Y-57080000D03*
D21*
X126225000Y-91500000D03*
X127775000Y-91500000D03*
D20*
X170175000Y-64000000D03*
X171825000Y-64000000D03*
D18*
X135000000Y-58000000D03*
D19*
X137000000Y-58000000D03*
D21*
X170225000Y-65750000D03*
X171775000Y-65750000D03*
D28*
X105000000Y-95225000D03*
X105000000Y-96775000D03*
D23*
X100500000Y-113500000D03*
D29*
X99500000Y-90500000D03*
X100770000Y-90500000D03*
X102040000Y-90500000D03*
X103310000Y-90500000D03*
X104580000Y-90500000D03*
X105850000Y-90500000D03*
X107120000Y-90500000D03*
X108390000Y-90500000D03*
X109660000Y-90500000D03*
X110930000Y-90500000D03*
X112200000Y-90500000D03*
X113470000Y-90500000D03*
X114740000Y-90500000D03*
X116010000Y-90500000D03*
D30*
X117010000Y-87715000D03*
X117010000Y-86445000D03*
X117010000Y-85175000D03*
X117010000Y-83905000D03*
X117010000Y-82635000D03*
X117010000Y-81365000D03*
X117010000Y-80095000D03*
X117010000Y-78825000D03*
X117010000Y-77555000D03*
X117010000Y-76285000D03*
D29*
X116010000Y-73500000D03*
X114740000Y-73500000D03*
X113470000Y-73500000D03*
X112200000Y-73500000D03*
X110930000Y-73500000D03*
X109660000Y-73500000D03*
X108390000Y-73500000D03*
X107120000Y-73500000D03*
X105850000Y-73500000D03*
X104580000Y-73500000D03*
X103310000Y-73500000D03*
X102040000Y-73500000D03*
X100770000Y-73500000D03*
X99500000Y-73500000D03*
D31*
X107000000Y-83000000D03*
D32*
X117000000Y-64000000D03*
D33*
X149050000Y-76000000D03*
X150950000Y-76000000D03*
D22*
X127825000Y-66000000D03*
X126175000Y-66000000D03*
D34*
X166975000Y-85500000D03*
X166975000Y-85000000D03*
X166975000Y-84500000D03*
X166975000Y-84000000D03*
X166975000Y-83500000D03*
X166975000Y-83000000D03*
X166975000Y-82500000D03*
X166975000Y-82000000D03*
X166975000Y-81500000D03*
X166975000Y-81000000D03*
X166975000Y-80500000D03*
X166975000Y-80000000D03*
X166975000Y-79500000D03*
X166975000Y-79000000D03*
X166975000Y-78500000D03*
D35*
X170225000Y-87400000D03*
X170225000Y-76600000D03*
D20*
X126175000Y-64000000D03*
X127825000Y-64000000D03*
D26*
X109000000Y-62650000D03*
D27*
X109000000Y-60110000D03*
X109000000Y-57570000D03*
D36*
X117000000Y-68000000D03*
D17*
X179775000Y-69000000D03*
X178225000Y-69000000D03*
X155775000Y-63000000D03*
X154225000Y-63000000D03*
D37*
X107000000Y-96825000D03*
X107000000Y-95175000D03*
D25*
X155950000Y-65500000D03*
X154050000Y-65500000D03*
D32*
X137000000Y-85000000D03*
D38*
X164500000Y-105550000D03*
D19*
X162500000Y-105550000D03*
X160500000Y-105550000D03*
X158500000Y-105550000D03*
X156500000Y-105550000D03*
X154500000Y-105550000D03*
D39*
X176350000Y-64025000D03*
X176350000Y-64675000D03*
X176350000Y-65325000D03*
X176350000Y-65975000D03*
X180650000Y-65975000D03*
X180650000Y-65325000D03*
X180650000Y-64675000D03*
X180650000Y-64025000D03*
D40*
X178500000Y-65000000D03*
D36*
X171000000Y-71000000D03*
D18*
X174000000Y-104450000D03*
D19*
X176000000Y-104450000D03*
X178000000Y-104450000D03*
D38*
X146250000Y-105550000D03*
D19*
X144250000Y-105550000D03*
X142250000Y-105550000D03*
X140250000Y-105550000D03*
X138250000Y-105550000D03*
X136250000Y-105550000D03*
D24*
X191400000Y-94575000D03*
X194600000Y-94575000D03*
X194600000Y-89675000D03*
X191400000Y-89675000D03*
D22*
X141825000Y-83000000D03*
X140175000Y-83000000D03*
D41*
X101500000Y-94525000D03*
X101500000Y-97475000D03*
D25*
X155950000Y-68000000D03*
X154050000Y-68000000D03*
D28*
X99500000Y-95225000D03*
X99500000Y-96775000D03*
D42*
X105900000Y-106850000D03*
X112100000Y-106850000D03*
X112100000Y-103150000D03*
X105900000Y-103150000D03*
D43*
X140000000Y-72100000D03*
X140000000Y-74000000D03*
D38*
X128000000Y-105550000D03*
D19*
X126000000Y-105550000D03*
X124000000Y-105550000D03*
X122000000Y-105550000D03*
X120000000Y-105550000D03*
X118000000Y-105550000D03*
D17*
X161775000Y-85000000D03*
X160225000Y-85000000D03*
D20*
X126175000Y-58000000D03*
X127825000Y-58000000D03*
D24*
X187400000Y-104450000D03*
X190600000Y-104450000D03*
X190600000Y-99550000D03*
X187400000Y-99550000D03*
D44*
X165875000Y-67275000D03*
X165875000Y-66625000D03*
X165875000Y-65975000D03*
X165875000Y-65325000D03*
X165875000Y-64675000D03*
X165875000Y-64025000D03*
X165875000Y-63375000D03*
X165875000Y-62725000D03*
X160125000Y-62725000D03*
X160125000Y-63375000D03*
X160125000Y-64025000D03*
X160125000Y-64675000D03*
X160125000Y-65325000D03*
X160125000Y-65975000D03*
X160125000Y-66625000D03*
X160125000Y-67275000D03*
D45*
X163000000Y-65000000D03*
D46*
X136350000Y-91055000D03*
X136350000Y-92325000D03*
X136350000Y-93595000D03*
X136350000Y-94865000D03*
X136350000Y-96135000D03*
X136350000Y-97405000D03*
X136350000Y-98675000D03*
X136350000Y-99945000D03*
X145650000Y-99945000D03*
X145650000Y-98675000D03*
X145650000Y-97405000D03*
X145650000Y-96135000D03*
X145650000Y-94865000D03*
X145650000Y-93595000D03*
X145650000Y-92325000D03*
X145650000Y-91055000D03*
D18*
X166139800Y-58000000D03*
D19*
X168139800Y-58000000D03*
D44*
X148014800Y-67275000D03*
X148014800Y-66625000D03*
X148014800Y-65975000D03*
X148014800Y-65325000D03*
X148014800Y-64675000D03*
X148014800Y-64025000D03*
X148014800Y-63375000D03*
X148014800Y-62725000D03*
X142264800Y-62725000D03*
X142264800Y-63375000D03*
X142264800Y-64025000D03*
X142264800Y-64675000D03*
X142264800Y-65325000D03*
X142264800Y-65975000D03*
X142264800Y-66625000D03*
X142264800Y-67275000D03*
D45*
X145139800Y-65000000D03*
D25*
X137950000Y-65500000D03*
X136050000Y-65500000D03*
X161950000Y-80000000D03*
X160050000Y-80000000D03*
D32*
X137000000Y-83000000D03*
D47*
X130000000Y-57775000D03*
X130000000Y-56225000D03*
D36*
X126000000Y-76000000D03*
D20*
X149175000Y-72000000D03*
X150825000Y-72000000D03*
D48*
X127650000Y-73000000D03*
X124350000Y-73000000D03*
D17*
X127275000Y-83000000D03*
X125725000Y-83000000D03*
X127275000Y-85000000D03*
X125725000Y-85000000D03*
D25*
X155950000Y-85000000D03*
X154050000Y-85000000D03*
D24*
X187400000Y-64950000D03*
X190600000Y-64950000D03*
X190600000Y-60050000D03*
X187400000Y-60050000D03*
D49*
X143937500Y-76000000D03*
X146062500Y-76000000D03*
D50*
X143862500Y-72050000D03*
X143862500Y-73000000D03*
X143862500Y-73950000D03*
X146137500Y-73950000D03*
X146137500Y-72050000D03*
D25*
X155950000Y-80000000D03*
X154050000Y-80000000D03*
D18*
X116000000Y-58000000D03*
D19*
X118000000Y-58000000D03*
D17*
X161775000Y-86916700D03*
X160225000Y-86916700D03*
D22*
X150825000Y-74000000D03*
X149175000Y-74000000D03*
D50*
X127862500Y-60050000D03*
X127862500Y-61000000D03*
X127862500Y-61950000D03*
X130137500Y-61950000D03*
X130137500Y-60050000D03*
D51*
X132750000Y-82737500D03*
X132250000Y-82737500D03*
X131750000Y-82737500D03*
X131250000Y-82737500D03*
D52*
X130987500Y-83500000D03*
X130987500Y-84000000D03*
X130987500Y-84500000D03*
D51*
X131250000Y-85262500D03*
X131750000Y-85262500D03*
X132250000Y-85262500D03*
X132750000Y-85262500D03*
D52*
X133012500Y-84500000D03*
X133012500Y-84000000D03*
X133012500Y-83500000D03*
M02*
