G04 #@! TF.GenerationSoftware,KiCad,Pcbnew,(6.0.6-0)*
G04 #@! TF.CreationDate,2022-08-30T17:18:48-07:00*
G04 #@! TF.ProjectId,RobotDriver,526f626f-7444-4726-9976-65722e6b6963,rev?*
G04 #@! TF.SameCoordinates,Original*
G04 #@! TF.FileFunction,Soldermask,Top*
G04 #@! TF.FilePolarity,Negative*
%FSLAX46Y46*%
G04 Gerber Fmt 4.6, Leading zero omitted, Abs format (unit mm)*
G04 Created by KiCad (PCBNEW (6.0.6-0)) date 2022-08-30 17:18:48*
%MOMM*%
%LPD*%
G01*
G04 APERTURE LIST*
G04 Aperture macros list*
%AMRoundRect*
0 Rectangle with rounded corners*
0 $1 Rounding radius*
0 $2 $3 $4 $5 $6 $7 $8 $9 X,Y pos of 4 corners*
0 Add a 4 corners polygon primitive as box body*
4,1,4,$2,$3,$4,$5,$6,$7,$8,$9,$2,$3,0*
0 Add four circle primitives for the rounded corners*
1,1,$1+$1,$2,$3*
1,1,$1+$1,$4,$5*
1,1,$1+$1,$6,$7*
1,1,$1+$1,$8,$9*
0 Add four rect primitives between the rounded corners*
20,1,$1+$1,$2,$3,$4,$5,0*
20,1,$1+$1,$4,$5,$6,$7,0*
20,1,$1+$1,$6,$7,$8,$9,0*
20,1,$1+$1,$8,$9,$2,$3,0*%
G04 Aperture macros list end*
%ADD10C,0.650000*%
%ADD11C,0.700000*%
%ADD12C,1.500000*%
%ADD13C,2.500000*%
%ADD14RoundRect,0.225000X-0.225000X-0.250000X0.225000X-0.250000X0.225000X0.250000X-0.225000X0.250000X0*%
%ADD15RoundRect,0.200000X0.200000X0.275000X-0.200000X0.275000X-0.200000X-0.275000X0.200000X-0.275000X0*%
%ADD16RoundRect,0.200000X-0.200000X-0.275000X0.200000X-0.275000X0.200000X0.275000X-0.200000X0.275000X0*%
%ADD17RoundRect,0.225000X-0.250000X0.225000X-0.250000X-0.225000X0.250000X-0.225000X0.250000X0.225000X0*%
%ADD18C,1.152000*%
%ADD19R,1.000000X1.500000*%
%ADD20RoundRect,0.250000X0.250000X0.475000X-0.250000X0.475000X-0.250000X-0.475000X0.250000X-0.475000X0*%
%ADD21RoundRect,0.225000X0.250000X-0.225000X0.250000X0.225000X-0.250000X0.225000X-0.250000X-0.225000X0*%
%ADD22RoundRect,0.250000X-0.250000X-2.500000X0.250000X-2.500000X0.250000X2.500000X-0.250000X2.500000X0*%
%ADD23RoundRect,0.250000X-0.550000X-1.250000X0.550000X-1.250000X0.550000X1.250000X-0.550000X1.250000X0*%
%ADD24R,1.700000X1.700000*%
%ADD25O,1.700000X1.700000*%
%ADD26R,0.900000X1.500000*%
%ADD27R,4.000000X4.000000*%
%ADD28R,3.400000X1.800000*%
%ADD29RoundRect,0.250000X0.475000X-0.250000X0.475000X0.250000X-0.475000X0.250000X-0.475000X-0.250000X0*%
%ADD30R,1.300000X0.300000*%
%ADD31R,2.200000X1.800000*%
%ADD32RoundRect,0.250000X0.250000X2.500000X-0.250000X2.500000X-0.250000X-2.500000X0.250000X-2.500000X0*%
%ADD33RoundRect,0.250000X0.550000X1.250000X-0.550000X1.250000X-0.550000X-1.250000X0.550000X-1.250000X0*%
%ADD34RoundRect,0.200000X0.275000X-0.200000X0.275000X0.200000X-0.275000X0.200000X-0.275000X-0.200000X0*%
%ADD35RoundRect,0.250000X-0.475000X0.250000X-0.475000X-0.250000X0.475000X-0.250000X0.475000X0.250000X0*%
%ADD36RoundRect,0.150000X-0.150000X0.875000X-0.150000X-0.875000X0.150000X-0.875000X0.150000X0.875000X0*%
%ADD37R,1.100000X1.800000*%
%ADD38RoundRect,0.100000X-0.100000X0.675000X-0.100000X-0.675000X0.100000X-0.675000X0.100000X0.675000X0*%
%ADD39R,3.000000X3.000000*%
%ADD40RoundRect,0.200000X-0.275000X0.200000X-0.275000X-0.200000X0.275000X-0.200000X0.275000X0.200000X0*%
%ADD41RoundRect,0.250000X-0.250000X-0.475000X0.250000X-0.475000X0.250000X0.475000X-0.250000X0.475000X0*%
%ADD42R,1.200000X0.900000*%
%ADD43RoundRect,0.225000X0.225000X0.250000X-0.225000X0.250000X-0.225000X-0.250000X0.225000X-0.250000X0*%
%ADD44RoundRect,0.218750X-0.381250X0.218750X-0.381250X-0.218750X0.381250X-0.218750X0.381250X0.218750X0*%
%ADD45RoundRect,0.150000X-0.512500X-0.150000X0.512500X-0.150000X0.512500X0.150000X-0.512500X0.150000X0*%
%ADD46R,0.250000X0.675000*%
%ADD47R,0.675000X0.250000*%
G04 APERTURE END LIST*
D10*
X100325000Y-52500000D02*
G75*
G03*
X100325000Y-52500000I-325000J0D01*
G01*
X213825000Y-85000000D02*
G75*
G03*
X213825000Y-85000000I-325000J0D01*
G01*
D11*
X187250000Y-95000000D02*
G75*
G03*
X187250000Y-95000000I-250000J0D01*
G01*
X188750000Y-95000000D02*
G75*
G03*
X188750000Y-95000000I-250000J0D01*
G01*
X185750000Y-95000000D02*
G75*
G03*
X185750000Y-95000000I-250000J0D01*
G01*
X184250000Y-95000000D02*
G75*
G03*
X184250000Y-95000000I-250000J0D01*
G01*
D12*
X185250000Y-91500000D02*
G75*
G03*
X185250000Y-91500000I-500000J0D01*
G01*
X187750000Y-91500000D02*
G75*
G03*
X187750000Y-91500000I-500000J0D01*
G01*
D10*
X100325000Y-117500000D02*
G75*
G03*
X100325000Y-117500000I-325000J0D01*
G01*
D13*
X187218806Y-83691835D02*
G75*
G03*
X187218806Y-83691835I-1250000J0D01*
G01*
D14*
X158975000Y-98750000D03*
X160525000Y-98750000D03*
D15*
X138325000Y-85000000D03*
X136675000Y-85000000D03*
D16*
X158925000Y-94750000D03*
X160575000Y-94750000D03*
D17*
X133000000Y-71475000D03*
X133000000Y-73025000D03*
D18*
X100000000Y-52500000D03*
D19*
X204400000Y-87450000D03*
X207600000Y-87450000D03*
X207600000Y-82550000D03*
X204400000Y-82550000D03*
D20*
X137700000Y-72000000D03*
X135800000Y-72000000D03*
D18*
X213500000Y-85000000D03*
D21*
X176500000Y-88025000D03*
X176500000Y-86475000D03*
D22*
X139500000Y-57750000D03*
X141500000Y-57750000D03*
D23*
X137100000Y-55500000D03*
X143900000Y-55500000D03*
D22*
X165750000Y-57750000D03*
X167750000Y-57750000D03*
D23*
X163350000Y-55500000D03*
X170150000Y-55500000D03*
D14*
X158975000Y-90250000D03*
X160525000Y-90250000D03*
D19*
X196900000Y-76450000D03*
X200100000Y-76450000D03*
X200100000Y-71550000D03*
X196900000Y-71550000D03*
D24*
X101250000Y-57450000D03*
D25*
X101250000Y-59990000D03*
X101250000Y-62530000D03*
X101250000Y-65070000D03*
D22*
X128000000Y-57750000D03*
X130000000Y-57750000D03*
D23*
X125600000Y-55500000D03*
X132400000Y-55500000D03*
D17*
X112250000Y-97225000D03*
X112250000Y-98775000D03*
D18*
X100000000Y-117500000D03*
D26*
X107500000Y-92750000D03*
X109000000Y-92750000D03*
X110500000Y-92750000D03*
X112000000Y-92750000D03*
X113500000Y-92750000D03*
X115000000Y-92750000D03*
X116500000Y-92750000D03*
X118000000Y-92750000D03*
X119500000Y-92750000D03*
X119500000Y-75250000D03*
X118000000Y-75250000D03*
X116500000Y-75250000D03*
X115000000Y-75250000D03*
X113500000Y-75250000D03*
X112000000Y-75250000D03*
X110500000Y-75250000D03*
X109000000Y-75250000D03*
X107500000Y-75250000D03*
D27*
X114110000Y-82900000D03*
D28*
X153250000Y-64500000D03*
D29*
X148000000Y-79500000D03*
X148000000Y-77600000D03*
D30*
X153800000Y-90500000D03*
X153800000Y-91000000D03*
X153800000Y-91500000D03*
X153800000Y-92000000D03*
X153800000Y-92500000D03*
X153800000Y-93000000D03*
X153800000Y-93500000D03*
X153800000Y-94000000D03*
X153800000Y-94500000D03*
X153800000Y-95000000D03*
X153800000Y-95500000D03*
X153800000Y-96000000D03*
X153800000Y-96500000D03*
X153800000Y-97000000D03*
X153800000Y-97500000D03*
D31*
X150550000Y-88600000D03*
X150550000Y-99400000D03*
D32*
X167750000Y-114000000D03*
X165750000Y-114000000D03*
X163750000Y-114000000D03*
X161750000Y-114000000D03*
X159750000Y-114000000D03*
X157750000Y-114000000D03*
D33*
X170150000Y-116250000D03*
X155350000Y-116250000D03*
D24*
X121000000Y-59540000D03*
D25*
X121000000Y-57000000D03*
X121000000Y-54460000D03*
D28*
X112500000Y-57000000D03*
D17*
X170250000Y-71725000D03*
X170250000Y-73275000D03*
D34*
X114000000Y-98825000D03*
X114000000Y-97175000D03*
D35*
X176000000Y-62800000D03*
X176000000Y-64700000D03*
D28*
X142000000Y-83000000D03*
D36*
X136445000Y-92850000D03*
X135175000Y-92850000D03*
X133905000Y-92850000D03*
X132635000Y-92850000D03*
X131365000Y-92850000D03*
X130095000Y-92850000D03*
X128825000Y-92850000D03*
X127555000Y-92850000D03*
X127555000Y-102150000D03*
X128825000Y-102150000D03*
X130095000Y-102150000D03*
X131365000Y-102150000D03*
X132635000Y-102150000D03*
X133905000Y-102150000D03*
X135175000Y-102150000D03*
X136445000Y-102150000D03*
D34*
X117250000Y-98825000D03*
X117250000Y-97175000D03*
D32*
X143000000Y-114000000D03*
X141000000Y-114000000D03*
X139000000Y-114000000D03*
X137000000Y-114000000D03*
X135000000Y-114000000D03*
X133000000Y-114000000D03*
D33*
X145400000Y-116250000D03*
X130600000Y-116250000D03*
D19*
X200100000Y-90550000D03*
X196900000Y-90550000D03*
X196900000Y-95450000D03*
X200100000Y-95450000D03*
D15*
X138325000Y-82000000D03*
X136675000Y-82000000D03*
D35*
X110250000Y-97050000D03*
X110250000Y-98950000D03*
D20*
X175200000Y-71750000D03*
X173300000Y-71750000D03*
D17*
X108250000Y-97225000D03*
X108250000Y-98775000D03*
D37*
X99150000Y-109350000D03*
X99150000Y-103150000D03*
X102850000Y-109350000D03*
X102850000Y-103150000D03*
D35*
X147500000Y-71550000D03*
X147500000Y-73450000D03*
D32*
X121500000Y-114000000D03*
X119500000Y-114000000D03*
X117500000Y-114000000D03*
X115500000Y-114000000D03*
X113500000Y-114000000D03*
X111500000Y-114000000D03*
D33*
X123900000Y-116250000D03*
X109100000Y-116250000D03*
D14*
X158975000Y-87750000D03*
X160525000Y-87750000D03*
D21*
X139000000Y-102775000D03*
X139000000Y-101225000D03*
D19*
X190900000Y-106950000D03*
X194100000Y-106950000D03*
X194100000Y-102050000D03*
X190900000Y-102050000D03*
D38*
X174275000Y-62875000D03*
X173625000Y-62875000D03*
X172975000Y-62875000D03*
X172325000Y-62875000D03*
X171675000Y-62875000D03*
X171025000Y-62875000D03*
X170375000Y-62875000D03*
X169725000Y-62875000D03*
X169725000Y-68625000D03*
X170375000Y-68625000D03*
X171025000Y-68625000D03*
X171675000Y-68625000D03*
X172325000Y-68625000D03*
X172975000Y-68625000D03*
X173625000Y-68625000D03*
X174275000Y-68625000D03*
D39*
X172000000Y-65750000D03*
D40*
X110500000Y-69675000D03*
X110500000Y-71325000D03*
D22*
X177750000Y-57750000D03*
X179750000Y-57750000D03*
D23*
X182150000Y-55500000D03*
X175350000Y-55500000D03*
D38*
X136775000Y-63125000D03*
X136125000Y-63125000D03*
X135475000Y-63125000D03*
X134825000Y-63125000D03*
X134175000Y-63125000D03*
X133525000Y-63125000D03*
X132875000Y-63125000D03*
X132225000Y-63125000D03*
X132225000Y-68875000D03*
X132875000Y-68875000D03*
X133525000Y-68875000D03*
X134175000Y-68875000D03*
X134825000Y-68875000D03*
X135475000Y-68875000D03*
X136125000Y-68875000D03*
X136775000Y-68875000D03*
D39*
X134500000Y-66000000D03*
D35*
X138500000Y-63350000D03*
X138500000Y-65250000D03*
D41*
X158800000Y-96750000D03*
X160700000Y-96750000D03*
D28*
X142000000Y-80000000D03*
X156500000Y-79500000D03*
D16*
X157175000Y-71000000D03*
X158825000Y-71000000D03*
D42*
X122500000Y-85150000D03*
X122500000Y-81850000D03*
D43*
X129275000Y-83750000D03*
X127725000Y-83750000D03*
X129275000Y-86750000D03*
X127725000Y-86750000D03*
D41*
X158800000Y-92250000D03*
X160700000Y-92250000D03*
D19*
X191400000Y-65950000D03*
X194600000Y-65950000D03*
X194600000Y-61050000D03*
X191400000Y-61050000D03*
D44*
X151500000Y-77437500D03*
X151500000Y-79562500D03*
D45*
X151362500Y-73050000D03*
X151362500Y-74000000D03*
X151362500Y-74950000D03*
X153637500Y-74950000D03*
X153637500Y-73050000D03*
D41*
X158800000Y-100750000D03*
X160700000Y-100750000D03*
D22*
X152250000Y-57750000D03*
X154250000Y-57750000D03*
D23*
X156650000Y-55500000D03*
X149850000Y-55500000D03*
D36*
X174445000Y-78100000D03*
X173175000Y-78100000D03*
X171905000Y-78100000D03*
X170635000Y-78100000D03*
X169365000Y-78100000D03*
X168095000Y-78100000D03*
X166825000Y-78100000D03*
X165555000Y-78100000D03*
X165555000Y-87400000D03*
X166825000Y-87400000D03*
X168095000Y-87400000D03*
X169365000Y-87400000D03*
X170635000Y-87400000D03*
X171905000Y-87400000D03*
X173175000Y-87400000D03*
X174445000Y-87400000D03*
D14*
X158975000Y-85750000D03*
X160525000Y-85750000D03*
D15*
X158825000Y-73000000D03*
X157175000Y-73000000D03*
D46*
X132750000Y-83737500D03*
X132250000Y-83737500D03*
X131750000Y-83737500D03*
X131250000Y-83737500D03*
D47*
X130987500Y-84500000D03*
X130987500Y-85000000D03*
X130987500Y-85500000D03*
D46*
X131250000Y-86262500D03*
X131750000Y-86262500D03*
X132250000Y-86262500D03*
X132750000Y-86262500D03*
D47*
X133012500Y-85500000D03*
X133012500Y-85000000D03*
X133012500Y-84500000D03*
M02*
