M48
; DRILL file {KiCad (5.1.2)-1} date 9/5/2019 9:25:21 PM
; FORMAT={-:-/ absolute / inch / decimal}
; #@! TF.CreationDate,2019-09-05T21:25:21-07:00
; #@! TF.GenerationSoftware,Kicad,Pcbnew,(5.1.2)-1
; #@! TF.FileFunction,Plated,1,2,PTH
FMAT,2
INCH
T1C0.0157
T2C0.0236
T3C0.0315
T4C0.1693
%
G90
G05
T1
X3.8976Y-3.5433
X3.937Y-3.4252
X3.9764Y-3.7795
X4.1339Y-3.5433
X4.2126Y-3.7795
X4.6063Y-3.5433
X4.6457Y-3.4252
X4.6457Y-4.252
X4.6457Y-4.3307
X4.6457Y-4.4094
X4.685Y-3.7795
X4.8031Y-4.252
X4.8031Y-4.3307
X4.8031Y-4.4094
X4.8425Y-3.5433
X4.9213Y-3.7795
X5.0Y-3.7402
X5.0787Y-4.2913
X5.1969Y-4.7244
X5.315Y-3.5433
X5.3543Y-3.4252
X5.3937Y-3.7795
X5.4724Y-4.1929
X5.4999Y-4.2333
X5.5277Y-4.456
X5.5512Y-3.5433
X5.5764Y-4.3516
X5.614Y-4.2917
X5.6299Y-3.7795
X5.646Y-4.3933
X5.653Y-4.275
X5.6878Y-4.4629
X5.689Y-4.626
X5.7087Y-4.3307
X5.7087Y-4.813
X5.7283Y-4.626
X5.7295Y-4.1985
X5.7574Y-4.4351
X5.7713Y-4.2681
X5.7991Y-4.2959
X5.8131Y-4.3794
X5.8268Y-5.1181
X5.8268Y-5.4724
X5.8409Y-4.3098
X5.8687Y-4.5047
X5.9055Y-5.1181
X5.9055Y-5.6299
X5.9843Y-5.1181
X5.9843Y-5.4724
X6.0236Y-3.5433
X6.063Y-3.4252
X6.1024Y-3.7795
X6.1402Y-4.4307
X6.1417Y-4.2126
X6.1417Y-4.3307
X6.1417Y-4.3898
X6.2598Y-3.5433
X6.3386Y-3.7795
X6.3386Y-5.4331
X6.378Y-4.8031
X6.378Y-4.9606
X6.4173Y-5.4331
X6.4173Y-5.5512
X6.4567Y-4.2126
X6.4567Y-4.3307
X6.4567Y-4.3701
X6.4567Y-4.4488
X6.4567Y-4.6063
X6.4961Y-5.4331
X6.5354Y-4.4488
X6.5354Y-4.6063
X6.6142Y-4.4488
X6.6142Y-4.9606
X6.6535Y-4.8031
X6.7323Y-4.0157
X6.7323Y-5.2756
X6.8504Y-3.4252
X6.8504Y-4.0945
X7.0472Y-4.0157
X7.1654Y-4.0945
X7.5197Y-4.0157
X7.5197Y-4.9213
X7.6378Y-3.4252
X7.6378Y-4.1732
X7.8346Y-4.0157
X7.9528Y-4.2126
T2
X8.1722Y-5.4724
X8.2094Y-5.3827
X8.2094Y-5.5622
X8.2992Y-5.3455
X8.2992Y-5.5994
X8.389Y-5.3827
X8.389Y-5.5622
X8.4262Y-5.4724
X8.1722Y-3.189
X8.2094Y-3.0992
X8.2094Y-3.2788
X8.2992Y-3.062
X8.2992Y-3.3159
X8.389Y-3.0992
X8.389Y-3.2788
X8.4262Y-3.189
X3.3848Y-5.4724
X3.422Y-5.3827
X3.422Y-5.5622
X3.5118Y-5.3455
X3.5118Y-5.5994
X3.6016Y-5.3827
X3.6016Y-5.5622
X3.6388Y-5.4724
X3.3848Y-3.189
X3.422Y-3.0992
X3.422Y-3.2788
X3.5118Y-3.062
X3.5118Y-3.3159
X3.6016Y-3.0992
X3.6016Y-3.2788
X3.6388Y-3.189
T3
X4.1732Y-3.248
X4.1732Y-3.4055
X4.8819Y-3.248
X4.8819Y-3.4055
X5.5906Y-3.248
X5.5906Y-3.4055
X6.2992Y-3.248
X6.2992Y-3.4055
X7.0472Y-3.2087
X7.0866Y-3.248
X7.0866Y-3.4055
X7.126Y-3.4449
X7.5394Y-5.4134
X7.5394Y-5.2559
X7.5394Y-5.3346
X7.5984Y-5.2559
X7.5984Y-5.4134
X7.6181Y-5.1969
X7.6772Y-5.1969
X7.6772Y-5.2559
X7.7362Y-5.1969
X7.7559Y-5.2559
X7.7559Y-5.4134
X7.7953Y-5.0394
X7.815Y-5.2559
X7.815Y-5.3346
X7.815Y-5.4134
X7.8346Y-3.2087
X7.874Y-3.248
X7.874Y-3.4055
X7.874Y-4.9606
X7.874Y-5.0394
X7.9134Y-3.4449
X7.9528Y-4.9606
T4
X8.2992Y-5.4724
X8.2992Y-3.189
X3.5118Y-5.4724
X3.5118Y-3.189
T0
M30
