G04 #@! TF.GenerationSoftware,KiCad,Pcbnew,(5.1.2)-1*
G04 #@! TF.CreationDate,2019-09-05T21:25:15-07:00*
G04 #@! TF.ProjectId,design,64657369-676e-42e6-9b69-6361645f7063,rev?*
G04 #@! TF.SameCoordinates,Original*
G04 #@! TF.FileFunction,Soldermask,Top*
G04 #@! TF.FilePolarity,Negative*
%FSLAX46Y46*%
G04 Gerber Fmt 4.6, Leading zero omitted, Abs format (unit mm)*
G04 Created by KiCad (PCBNEW (5.1.2)-1) date 2019-09-05 21:25:15*
%MOMM*%
%LPD*%
G04 APERTURE LIST*
%ADD10C,0.100000*%
G04 APERTURE END LIST*
D10*
G36*
X105220951Y-138893715D02*
G01*
X105222033Y-138925188D01*
X105222888Y-138956620D01*
X105223518Y-138988012D01*
X105223923Y-139019362D01*
X105224103Y-139050671D01*
X105224060Y-139081937D01*
X105223795Y-139113159D01*
X105223307Y-139144339D01*
X105222599Y-139175473D01*
X105221671Y-139206563D01*
X105220524Y-139237608D01*
X105219158Y-139268606D01*
X105217574Y-139299558D01*
X105215774Y-139330462D01*
X105213758Y-139361318D01*
X105211526Y-139392126D01*
X105209081Y-139422884D01*
X105206421Y-139453593D01*
X105203549Y-139484252D01*
X105200466Y-139514859D01*
X105197171Y-139545415D01*
X105193666Y-139575919D01*
X105189952Y-139606370D01*
X105186029Y-139636768D01*
X105181898Y-139667111D01*
X105177560Y-139697401D01*
X105173017Y-139727635D01*
X105168268Y-139757813D01*
X105163314Y-139787935D01*
X105158157Y-139818000D01*
X105152798Y-139848007D01*
X105147236Y-139877956D01*
X105141473Y-139907846D01*
X105135510Y-139937677D01*
X105129347Y-139967448D01*
X105122985Y-139997158D01*
X105116426Y-140026807D01*
X105109670Y-140056395D01*
X105102717Y-140085920D01*
X105095569Y-140115381D01*
X105088226Y-140144780D01*
X105080690Y-140174114D01*
X105072961Y-140203383D01*
X105065039Y-140232587D01*
X105056927Y-140261724D01*
X105048624Y-140290796D01*
X105040131Y-140319799D01*
X105031449Y-140348735D01*
X105022580Y-140377603D01*
X105013523Y-140406402D01*
X105004280Y-140435131D01*
X104994851Y-140463789D01*
X104985238Y-140492377D01*
X104975441Y-140520893D01*
X104965461Y-140549338D01*
X104955298Y-140577709D01*
X104944954Y-140606008D01*
X104934430Y-140634232D01*
X104923726Y-140662382D01*
X104912843Y-140690457D01*
X104901781Y-140718456D01*
X104890543Y-140746379D01*
X104879128Y-140774226D01*
X104867537Y-140801994D01*
X104855771Y-140829685D01*
X104843832Y-140857297D01*
X104831719Y-140884829D01*
X104819434Y-140912282D01*
X104806978Y-140939654D01*
X104794350Y-140966945D01*
X104781553Y-140994154D01*
X104768587Y-141021281D01*
X104755452Y-141048325D01*
X104742150Y-141075286D01*
X104728682Y-141102162D01*
X104715048Y-141128954D01*
X104701248Y-141155661D01*
X104687285Y-141182281D01*
X104673158Y-141208815D01*
X104658869Y-141235262D01*
X104644418Y-141261621D01*
X104629806Y-141287892D01*
X104615035Y-141314073D01*
X104600104Y-141340166D01*
X104585015Y-141366168D01*
X104569768Y-141392079D01*
X104554364Y-141417899D01*
X104538805Y-141443627D01*
X104523090Y-141469263D01*
X104507221Y-141494805D01*
X104491199Y-141520253D01*
X104475024Y-141545607D01*
X104458698Y-141570867D01*
X104442220Y-141596030D01*
X104425592Y-141621098D01*
X104408815Y-141646068D01*
X104391890Y-141670941D01*
X104374817Y-141695717D01*
X104357596Y-141720393D01*
X104340230Y-141744971D01*
X104322719Y-141769448D01*
X104305063Y-141793826D01*
X104287264Y-141818102D01*
X104269322Y-141842276D01*
X104251238Y-141866349D01*
X104233013Y-141890318D01*
X104214648Y-141914185D01*
X104196143Y-141937947D01*
X104177500Y-141961604D01*
X104158719Y-141985156D01*
X104139800Y-142008603D01*
X104120746Y-142031943D01*
X104101557Y-142055176D01*
X104082232Y-142078301D01*
X104062775Y-142101318D01*
X104043184Y-142124227D01*
X104023461Y-142147025D01*
X104003607Y-142169714D01*
X103983623Y-142192292D01*
X103963509Y-142214759D01*
X103943266Y-142237114D01*
X103922896Y-142259357D01*
X103902398Y-142281486D01*
X103881774Y-142303502D01*
X103861025Y-142325403D01*
X103840151Y-142347190D01*
X103819153Y-142368861D01*
X103798032Y-142390416D01*
X103776789Y-142411854D01*
X103755424Y-142433175D01*
X103733939Y-142454379D01*
X103712335Y-142475463D01*
X103690611Y-142496429D01*
X103668770Y-142517275D01*
X103646811Y-142538000D01*
X103624736Y-142558605D01*
X103602545Y-142579088D01*
X103580239Y-142599449D01*
X103557820Y-142619687D01*
X103535287Y-142639802D01*
X103512642Y-142659793D01*
X103489886Y-142679660D01*
X103467019Y-142699401D01*
X103444042Y-142719017D01*
X103420956Y-142738506D01*
X103397762Y-142757869D01*
X103374461Y-142777103D01*
X103351053Y-142796210D01*
X103327539Y-142815188D01*
X103303920Y-142834037D01*
X103280198Y-142852755D01*
X103256372Y-142871343D01*
X103232444Y-142889800D01*
X103208414Y-142908125D01*
X103184283Y-142926318D01*
X103160053Y-142944378D01*
X103135723Y-142962304D01*
X103111295Y-142980096D01*
X103086769Y-142997754D01*
X103062147Y-143015276D01*
X103037429Y-143032661D01*
X103012616Y-143049911D01*
X102987709Y-143067023D01*
X102962708Y-143083997D01*
X102937615Y-143100833D01*
X102912430Y-143117530D01*
X102887154Y-143134087D01*
X102861788Y-143150505D01*
X102836333Y-143166781D01*
X102810790Y-143182916D01*
X102785158Y-143198909D01*
X102759440Y-143214759D01*
X102733637Y-143230466D01*
X102707747Y-143246029D01*
X102681774Y-143261448D01*
X102655717Y-143276722D01*
X102629578Y-143291850D01*
X102603356Y-143306832D01*
X102577054Y-143321667D01*
X102550671Y-143336354D01*
X102524209Y-143350894D01*
X102497668Y-143365285D01*
X102471050Y-143379526D01*
X102444355Y-143393618D01*
X102417583Y-143407559D01*
X102390737Y-143421350D01*
X102363816Y-143434988D01*
X102336821Y-143448475D01*
X102309753Y-143461808D01*
X102282614Y-143474988D01*
X102255403Y-143488014D01*
X102228122Y-143500885D01*
X102200772Y-143513601D01*
X102173353Y-143526161D01*
X102145866Y-143538565D01*
X102118311Y-143550811D01*
X102090691Y-143562900D01*
X102063005Y-143574830D01*
X102035255Y-143586602D01*
X102007441Y-143598214D01*
X101979564Y-143609666D01*
X101951625Y-143620957D01*
X101923625Y-143632087D01*
X101895564Y-143643055D01*
X101867444Y-143653860D01*
X101839264Y-143664503D01*
X101811027Y-143674981D01*
X101782733Y-143685296D01*
X101754382Y-143695445D01*
X101725976Y-143705429D01*
X101697515Y-143715246D01*
X101669000Y-143724897D01*
X101640432Y-143734381D01*
X101611812Y-143743696D01*
X101583140Y-143752844D01*
X101554418Y-143761821D01*
X101525646Y-143770630D01*
X101496825Y-143779267D01*
X101467956Y-143787734D01*
X101439040Y-143796030D01*
X101410077Y-143804153D01*
X101381069Y-143812103D01*
X101352015Y-143819880D01*
X101322918Y-143827483D01*
X101293778Y-143834911D01*
X101264595Y-143842164D01*
X101235371Y-143849242D01*
X101206106Y-143856143D01*
X101176801Y-143862867D01*
X101147457Y-143869413D01*
X101118075Y-143875781D01*
X101088655Y-143881971D01*
X101059199Y-143887981D01*
X101029707Y-143893811D01*
X101000180Y-143899460D01*
X100970619Y-143904928D01*
X100941024Y-143910215D01*
X100911397Y-143915318D01*
X100881739Y-143920239D01*
X100852049Y-143924977D01*
X100822330Y-143929530D01*
X100792581Y-143933898D01*
X100762804Y-143938080D01*
X100733000Y-143942077D01*
X100703168Y-143945887D01*
X100673311Y-143949510D01*
X100643429Y-143952945D01*
X100613523Y-143956191D01*
X100583593Y-143959249D01*
X100553640Y-143962117D01*
X100523666Y-143964794D01*
X100493670Y-143967281D01*
X100463655Y-143969576D01*
X100433620Y-143971679D01*
X100403567Y-143973589D01*
X100373496Y-143975307D01*
X100343408Y-143976830D01*
X100313304Y-143978159D01*
X100283185Y-143979292D01*
X100253052Y-143980230D01*
X100222905Y-143980972D01*
X100192745Y-143981517D01*
X100162573Y-143981864D01*
X100132391Y-143982013D01*
X100102198Y-143981964D01*
X100071995Y-143981715D01*
X100041784Y-143981266D01*
X100011565Y-143980617D01*
X99981339Y-143979766D01*
X99951107Y-143978714D01*
X99920870Y-143977460D01*
X99890628Y-143976003D01*
X99860383Y-143974342D01*
X99830134Y-143972477D01*
X99799884Y-143970407D01*
X99769632Y-143968132D01*
X99739380Y-143965651D01*
X99709128Y-143962963D01*
X99678878Y-143960068D01*
X99648630Y-143956966D01*
X99618384Y-143953655D01*
X99588142Y-143950135D01*
X99557905Y-143946406D01*
X99527673Y-143942466D01*
X99497448Y-143938316D01*
X99467229Y-143933954D01*
X99437018Y-143929381D01*
X99406816Y-143924595D01*
X99376624Y-143919595D01*
X99346441Y-143914382D01*
X99316270Y-143908954D01*
X99286111Y-143903312D01*
X99255964Y-143897454D01*
X99225831Y-143891379D01*
X99195713Y-143885088D01*
X99165609Y-143878579D01*
X99135522Y-143871853D01*
X99105452Y-143864908D01*
X99075399Y-143857743D01*
X99045365Y-143850359D01*
X99015350Y-143842754D01*
X98985356Y-143834929D01*
X98955382Y-143826881D01*
X98925430Y-143818612D01*
X98895501Y-143810120D01*
X98865595Y-143801404D01*
X98835714Y-143792464D01*
X98805858Y-143783300D01*
X98776027Y-143773910D01*
X98746224Y-143764294D01*
X98716448Y-143754452D01*
X98686700Y-143744383D01*
X98656982Y-143734087D01*
X98626615Y-143725814D01*
X98596353Y-143717336D01*
X98566196Y-143708655D01*
X98536145Y-143699772D01*
X98506200Y-143690687D01*
X98476360Y-143681401D01*
X98446628Y-143671915D01*
X98417002Y-143662230D01*
X98387483Y-143652348D01*
X98358072Y-143642269D01*
X98328768Y-143631994D01*
X98299573Y-143621524D01*
X98270486Y-143610860D01*
X98241508Y-143600003D01*
X98212640Y-143588954D01*
X98183880Y-143577714D01*
X98155231Y-143566284D01*
X98126692Y-143554665D01*
X98098264Y-143542858D01*
X98069946Y-143530863D01*
X98041739Y-143518682D01*
X98013644Y-143506316D01*
X97985661Y-143493765D01*
X97957791Y-143481032D01*
X97930032Y-143468115D01*
X97902387Y-143455018D01*
X97874855Y-143441739D01*
X97847436Y-143428282D01*
X97820131Y-143414646D01*
X97792941Y-143400832D01*
X97765865Y-143386841D01*
X97738904Y-143372675D01*
X97712058Y-143358335D01*
X97685328Y-143343820D01*
X97658714Y-143329133D01*
X97632216Y-143314274D01*
X97605834Y-143299244D01*
X97579570Y-143284044D01*
X97553423Y-143268675D01*
X97527393Y-143253139D01*
X97501481Y-143237435D01*
X97475688Y-143221566D01*
X97450013Y-143205531D01*
X97424457Y-143189332D01*
X97399020Y-143172970D01*
X97373703Y-143156446D01*
X97348506Y-143139761D01*
X97323430Y-143122915D01*
X97298474Y-143105910D01*
X97273638Y-143088747D01*
X97248925Y-143071427D01*
X97224332Y-143053950D01*
X97199862Y-143036318D01*
X97175514Y-143018531D01*
X97151289Y-143000591D01*
X97127186Y-142982498D01*
X97103207Y-142964254D01*
X97079352Y-142945859D01*
X97055621Y-142927314D01*
X97032014Y-142908621D01*
X97008531Y-142889780D01*
X96985174Y-142870792D01*
X96961942Y-142851658D01*
X96938835Y-142832380D01*
X96915855Y-142812958D01*
X96893001Y-142793393D01*
X96870273Y-142773685D01*
X96847673Y-142753837D01*
X96825200Y-142733849D01*
X96802855Y-142713722D01*
X96780637Y-142693457D01*
X96758548Y-142673055D01*
X96736588Y-142652516D01*
X96714757Y-142631842D01*
X96693055Y-142611034D01*
X96671483Y-142590093D01*
X96650041Y-142569020D01*
X96628729Y-142547815D01*
X96607548Y-142526480D01*
X96586498Y-142505015D01*
X96565579Y-142483422D01*
X96544793Y-142461701D01*
X96524138Y-142439854D01*
X96503615Y-142417882D01*
X96483226Y-142395784D01*
X96462969Y-142373563D01*
X96442846Y-142351220D01*
X96422856Y-142328755D01*
X96403001Y-142306169D01*
X96383280Y-142283463D01*
X96363694Y-142260638D01*
X96344243Y-142237696D01*
X96324927Y-142214636D01*
X96305747Y-142191461D01*
X96286703Y-142168171D01*
X96267796Y-142144766D01*
X96249025Y-142121249D01*
X96230391Y-142097620D01*
X96211895Y-142073879D01*
X96193537Y-142050029D01*
X96175317Y-142026069D01*
X96157235Y-142002001D01*
X96139292Y-141977825D01*
X96121488Y-141953544D01*
X96103824Y-141929157D01*
X96086299Y-141904665D01*
X96068915Y-141880071D01*
X96051670Y-141855374D01*
X96034567Y-141830575D01*
X96017605Y-141805676D01*
X96000785Y-141780677D01*
X95984106Y-141755580D01*
X95967569Y-141730385D01*
X95951175Y-141705093D01*
X95934924Y-141679706D01*
X95918815Y-141654224D01*
X95902851Y-141628648D01*
X95887030Y-141602979D01*
X95871353Y-141577219D01*
X95855821Y-141551368D01*
X95840434Y-141525426D01*
X95825191Y-141499396D01*
X95810095Y-141473278D01*
X95795144Y-141447073D01*
X95780339Y-141420781D01*
X95765681Y-141394405D01*
X95751170Y-141367944D01*
X95736806Y-141341401D01*
X95722589Y-141314775D01*
X95708520Y-141288068D01*
X95694600Y-141261280D01*
X95680828Y-141234413D01*
X95667205Y-141207468D01*
X95653731Y-141180446D01*
X95640407Y-141153347D01*
X95627232Y-141126172D01*
X95614208Y-141098923D01*
X95601335Y-141071601D01*
X95588612Y-141044205D01*
X95576040Y-141016739D01*
X95563620Y-140989201D01*
X95551352Y-140961594D01*
X95539236Y-140933919D01*
X95527273Y-140906175D01*
X95515463Y-140878365D01*
X95503806Y-140850489D01*
X95492302Y-140822547D01*
X95480953Y-140794542D01*
X95469757Y-140766475D01*
X95458717Y-140738345D01*
X95447831Y-140710154D01*
X95437100Y-140681903D01*
X95426525Y-140653593D01*
X95416106Y-140625225D01*
X95405844Y-140596799D01*
X95395737Y-140568318D01*
X95385788Y-140539781D01*
X95375996Y-140511190D01*
X95366362Y-140482545D01*
X95356886Y-140453849D01*
X95347568Y-140425100D01*
X95338408Y-140396302D01*
X95329408Y-140367454D01*
X95320567Y-140338557D01*
X95311885Y-140309613D01*
X95303364Y-140280623D01*
X95295002Y-140251586D01*
X95286802Y-140222506D01*
X95278762Y-140193381D01*
X95270884Y-140164214D01*
X95263167Y-140135005D01*
X95255613Y-140105755D01*
X95248220Y-140076465D01*
X95240991Y-140047137D01*
X95233924Y-140017770D01*
X95227021Y-139988367D01*
X95220281Y-139958928D01*
X95213705Y-139929453D01*
X95207294Y-139899945D01*
X95201048Y-139870403D01*
X95194966Y-139840830D01*
X95189050Y-139811225D01*
X95183299Y-139781590D01*
X95177715Y-139751926D01*
X95172297Y-139722234D01*
X95167045Y-139692514D01*
X95161961Y-139662768D01*
X95157044Y-139632996D01*
X95152294Y-139603200D01*
X95147713Y-139573381D01*
X95143300Y-139543539D01*
X95139056Y-139513676D01*
X95134981Y-139483792D01*
X95131075Y-139453889D01*
X95127339Y-139423966D01*
X95123773Y-139394027D01*
X95120377Y-139364070D01*
X95117153Y-139334098D01*
X95114099Y-139304111D01*
X95111216Y-139274110D01*
X95108506Y-139244096D01*
X95105967Y-139214071D01*
X95103601Y-139184034D01*
X95101408Y-139153988D01*
X95099388Y-139123932D01*
X95097541Y-139093869D01*
X95095868Y-139063798D01*
X95094369Y-139033721D01*
X95093044Y-139003639D01*
X95091894Y-138973553D01*
X95090920Y-138943464D01*
X95090120Y-138913373D01*
X95089497Y-138883280D01*
X95089050Y-138853187D01*
X95088779Y-138823094D01*
X95088685Y-138793003D01*
X95088768Y-138762915D01*
X95089028Y-138732830D01*
X95089466Y-138702750D01*
X95090083Y-138672675D01*
X95090878Y-138642606D01*
X95091851Y-138612545D01*
X95093004Y-138582492D01*
X95094337Y-138552449D01*
X95095849Y-138522416D01*
X95097541Y-138492394D01*
X95099414Y-138462384D01*
X95101467Y-138432387D01*
X95103702Y-138402405D01*
X95106118Y-138372437D01*
X95108717Y-138342486D01*
X95111497Y-138312551D01*
X95114460Y-138282635D01*
X95117605Y-138252737D01*
X95120934Y-138222860D01*
X95124446Y-138193003D01*
X95128142Y-138163168D01*
X95132023Y-138133356D01*
X95136088Y-138103568D01*
X95140337Y-138073804D01*
X95144772Y-138044066D01*
X95149393Y-138014355D01*
X95154199Y-137984671D01*
X95159192Y-137955016D01*
X95164371Y-137925390D01*
X95169737Y-137895795D01*
X95175290Y-137866232D01*
X95181030Y-137836700D01*
X95186959Y-137807202D01*
X95193076Y-137777739D01*
X95199381Y-137748311D01*
X95205875Y-137718919D01*
X95212559Y-137689564D01*
X95219432Y-137660248D01*
X95226495Y-137630970D01*
X95233748Y-137601733D01*
X95241192Y-137572537D01*
X95248827Y-137543383D01*
X95256653Y-137514272D01*
X95264670Y-137485205D01*
X95272880Y-137456183D01*
X95281281Y-137427206D01*
X95289876Y-137398277D01*
X95298663Y-137369396D01*
X95307644Y-137340563D01*
X95316818Y-137311780D01*
X95326186Y-137283048D01*
X95335748Y-137254367D01*
X95345505Y-137225739D01*
X95355457Y-137197165D01*
X95365604Y-137168645D01*
X95375947Y-137140181D01*
X95386486Y-137111774D01*
X95397221Y-137083423D01*
X95408153Y-137055132D01*
X95419281Y-137026899D01*
X95430607Y-136998727D01*
X95442131Y-136970617D01*
X95453852Y-136942568D01*
X95465772Y-136914583D01*
X95477891Y-136886662D01*
X95490208Y-136858806D01*
X95502725Y-136831017D01*
X95515442Y-136803294D01*
X95528358Y-136775640D01*
X95541475Y-136748054D01*
X95554793Y-136720539D01*
X95568311Y-136693094D01*
X95582031Y-136665722D01*
X95595952Y-136638422D01*
X95610076Y-136611196D01*
X95624402Y-136584045D01*
X95638930Y-136556970D01*
X95653662Y-136529971D01*
X95668597Y-136503051D01*
X95683736Y-136476208D01*
X95699078Y-136449446D01*
X95714625Y-136422764D01*
X95730377Y-136396164D01*
X95746334Y-136369646D01*
X95762496Y-136343211D01*
X95778864Y-136316861D01*
X95795438Y-136290597D01*
X95812218Y-136264418D01*
X95829205Y-136238328D01*
X95846399Y-136212325D01*
X95863801Y-136186412D01*
X95881410Y-136160588D01*
X95899227Y-136134857D01*
X95917253Y-136109217D01*
X95935487Y-136083670D01*
X95953931Y-136058218D01*
X95972584Y-136032860D01*
X95989461Y-136006284D01*
X96006503Y-135979868D01*
X96023709Y-135953614D01*
X96041077Y-135927520D01*
X96058606Y-135901587D01*
X96076296Y-135875814D01*
X96094145Y-135850203D01*
X96112152Y-135824753D01*
X96130317Y-135799463D01*
X96148638Y-135774335D01*
X96167114Y-135749367D01*
X96185744Y-135724561D01*
X96204528Y-135699916D01*
X96223463Y-135675432D01*
X96242550Y-135651109D01*
X96261787Y-135626947D01*
X96281173Y-135602946D01*
X96300708Y-135579107D01*
X96320389Y-135555429D01*
X96340216Y-135531913D01*
X96360189Y-135508558D01*
X96380305Y-135485364D01*
X96400565Y-135462332D01*
X96420966Y-135439461D01*
X96441509Y-135416752D01*
X96462191Y-135394204D01*
X96483013Y-135371818D01*
X96503972Y-135349593D01*
X96525068Y-135327531D01*
X96546300Y-135305630D01*
X96567667Y-135283890D01*
X96589168Y-135262313D01*
X96610801Y-135240897D01*
X96632566Y-135219644D01*
X96654463Y-135198552D01*
X96676488Y-135177622D01*
X96698643Y-135156854D01*
X96720925Y-135136248D01*
X96743334Y-135115804D01*
X96765869Y-135095522D01*
X96788528Y-135075402D01*
X96811311Y-135055445D01*
X96834217Y-135035649D01*
X96857244Y-135016016D01*
X96880392Y-134996545D01*
X96903659Y-134977237D01*
X96927045Y-134958090D01*
X96950549Y-134939106D01*
X96974168Y-134920285D01*
X96997904Y-134901626D01*
X97021754Y-134883129D01*
X97045717Y-134864795D01*
X97069793Y-134846624D01*
X97093980Y-134828615D01*
X97118277Y-134810768D01*
X97142684Y-134793085D01*
X97167200Y-134775564D01*
X97191822Y-134758205D01*
X97216551Y-134741010D01*
X97241385Y-134723977D01*
X97266324Y-134707107D01*
X97291365Y-134690400D01*
X97316509Y-134673856D01*
X97341754Y-134657475D01*
X97367100Y-134641257D01*
X97392544Y-134625202D01*
X97418087Y-134609310D01*
X97443727Y-134593581D01*
X97469463Y-134578015D01*
X97495294Y-134562612D01*
X97521219Y-134547372D01*
X97547237Y-134532296D01*
X97573347Y-134517383D01*
X97599548Y-134502633D01*
X97625839Y-134488047D01*
X97652219Y-134473624D01*
X97678688Y-134459364D01*
X97705243Y-134445268D01*
X97731884Y-134431336D01*
X97758609Y-134417566D01*
X97785419Y-134403961D01*
X97812312Y-134390519D01*
X97839286Y-134377241D01*
X97866342Y-134364126D01*
X97893477Y-134351175D01*
X97920690Y-134338388D01*
X97947982Y-134325764D01*
X97975350Y-134313305D01*
X98002795Y-134301009D01*
X98030313Y-134288877D01*
X98057906Y-134276909D01*
X98085571Y-134265105D01*
X98113308Y-134253465D01*
X98141115Y-134241989D01*
X98168992Y-134230677D01*
X98196938Y-134219529D01*
X98224951Y-134208545D01*
X98253031Y-134197726D01*
X98281176Y-134187070D01*
X98309386Y-134176579D01*
X98337659Y-134166252D01*
X98365995Y-134156090D01*
X98394392Y-134146092D01*
X98422850Y-134136258D01*
X98451367Y-134126588D01*
X98479942Y-134117084D01*
X98508575Y-134107743D01*
X98537264Y-134098567D01*
X98566008Y-134089556D01*
X98594807Y-134080709D01*
X98623659Y-134072027D01*
X98652564Y-134063510D01*
X98681519Y-134055157D01*
X98710525Y-134046969D01*
X98739580Y-134038946D01*
X98768683Y-134031088D01*
X98797834Y-134023394D01*
X98827031Y-134015866D01*
X98856272Y-134008502D01*
X98885558Y-134001304D01*
X98914887Y-133994270D01*
X98944258Y-133987401D01*
X98973670Y-133980698D01*
X99003123Y-133974159D01*
X99032614Y-133967786D01*
X99062143Y-133961578D01*
X99091709Y-133955535D01*
X99121311Y-133949658D01*
X99150948Y-133943945D01*
X99180619Y-133938398D01*
X99210323Y-133933017D01*
X99240059Y-133927800D01*
X99269826Y-133922749D01*
X99299622Y-133917864D01*
X99329448Y-133913144D01*
X99359301Y-133908590D01*
X99389181Y-133904201D01*
X99419086Y-133899978D01*
X99449017Y-133895921D01*
X99478971Y-133892029D01*
X99508948Y-133888303D01*
X99538947Y-133884743D01*
X99568966Y-133881348D01*
X99599005Y-133878120D01*
X99629062Y-133875057D01*
X99659138Y-133872160D01*
X99689229Y-133869429D01*
X99719337Y-133866864D01*
X99749459Y-133864465D01*
X99779594Y-133862232D01*
X99809742Y-133860166D01*
X99839901Y-133858265D01*
X99870071Y-133856530D01*
X99900251Y-133854962D01*
X99930438Y-133853560D01*
X99960634Y-133852324D01*
X99990835Y-133851255D01*
X100021042Y-133850351D01*
X100051254Y-133849615D01*
X100081468Y-133849044D01*
X100111686Y-133848640D01*
X100141904Y-133848403D01*
X100172122Y-133848332D01*
X100202340Y-133848427D01*
X100232556Y-133848690D01*
X100262770Y-133849118D01*
X100292979Y-133849714D01*
X100323184Y-133850476D01*
X100353383Y-133851405D01*
X100383575Y-133852501D01*
X100413759Y-133853763D01*
X100443935Y-133855192D01*
X100474100Y-133856789D01*
X100504254Y-133858552D01*
X100534397Y-133860482D01*
X100564526Y-133862579D01*
X100594642Y-133864843D01*
X100624743Y-133867274D01*
X100654827Y-133869872D01*
X100684895Y-133872638D01*
X100714944Y-133875570D01*
X100744974Y-133878670D01*
X100774984Y-133881937D01*
X100804973Y-133885371D01*
X100834940Y-133888973D01*
X100864884Y-133892742D01*
X100894804Y-133896678D01*
X100924698Y-133900782D01*
X100954566Y-133905053D01*
X100984407Y-133909492D01*
X101014220Y-133914098D01*
X101044003Y-133918872D01*
X101073756Y-133923813D01*
X101103478Y-133928922D01*
X101133167Y-133934199D01*
X101162823Y-133939643D01*
X101192445Y-133945255D01*
X101222031Y-133951035D01*
X101251581Y-133956983D01*
X101281093Y-133963099D01*
X101310567Y-133969382D01*
X101340002Y-133975833D01*
X101369396Y-133982453D01*
X101398748Y-133989240D01*
X101428058Y-133996196D01*
X101457324Y-134003319D01*
X101486546Y-134010611D01*
X101515722Y-134018070D01*
X101544852Y-134025698D01*
X101573934Y-134033495D01*
X101602967Y-134041459D01*
X101631951Y-134049592D01*
X101660884Y-134057893D01*
X101689765Y-134066362D01*
X101718594Y-134075000D01*
X101747368Y-134083806D01*
X101776088Y-134092780D01*
X101804752Y-134101924D01*
X101833360Y-134111235D01*
X101861909Y-134120716D01*
X101890400Y-134130364D01*
X101918831Y-134140182D01*
X101947201Y-134150168D01*
X101975509Y-134160323D01*
X102003754Y-134170647D01*
X102031935Y-134181139D01*
X102060051Y-134191801D01*
X102088101Y-134202631D01*
X102116085Y-134213630D01*
X102144000Y-134224798D01*
X102171846Y-134236135D01*
X102199622Y-134247641D01*
X102227327Y-134259316D01*
X102254960Y-134271160D01*
X102282520Y-134283173D01*
X102310005Y-134295356D01*
X102337416Y-134307707D01*
X102364750Y-134320228D01*
X102392007Y-134332918D01*
X102419186Y-134345778D01*
X102446286Y-134358806D01*
X102473305Y-134372004D01*
X102500243Y-134385372D01*
X102527099Y-134398909D01*
X102553872Y-134412615D01*
X102580560Y-134426491D01*
X102607163Y-134440537D01*
X102633679Y-134454752D01*
X102660108Y-134469136D01*
X102686449Y-134483691D01*
X102712700Y-134498415D01*
X102738861Y-134513308D01*
X102764930Y-134528372D01*
X102790907Y-134543605D01*
X102816790Y-134559009D01*
X102842579Y-134574582D01*
X102868272Y-134590325D01*
X102893869Y-134606238D01*
X102919368Y-134622320D01*
X102944769Y-134638573D01*
X102970069Y-134654996D01*
X102995270Y-134671589D01*
X103020368Y-134688353D01*
X103045364Y-134705286D01*
X103070256Y-134722390D01*
X103095044Y-134739663D01*
X103119725Y-134757107D01*
X103144300Y-134774722D01*
X103168767Y-134792507D01*
X103193126Y-134810462D01*
X103217374Y-134828587D01*
X103241512Y-134846883D01*
X103265537Y-134865350D01*
X103289450Y-134883987D01*
X103313249Y-134902794D01*
X103336933Y-134921772D01*
X103360502Y-134940921D01*
X103383953Y-134960241D01*
X103407286Y-134979731D01*
X103430500Y-134999392D01*
X103453595Y-135019223D01*
X103476568Y-135039226D01*
X103499419Y-135059399D01*
X103522147Y-135079743D01*
X103544751Y-135100259D01*
X103567230Y-135120945D01*
X103589582Y-135141802D01*
X103611808Y-135162830D01*
X103633905Y-135184029D01*
X103655874Y-135205400D01*
X103677712Y-135226941D01*
X103699418Y-135248654D01*
X103720993Y-135270538D01*
X103742434Y-135292593D01*
X103763741Y-135314819D01*
X103784913Y-135337217D01*
X103805948Y-135359786D01*
X103826846Y-135382526D01*
X103847605Y-135405438D01*
X103868226Y-135428521D01*
X103888705Y-135451776D01*
X103909044Y-135475203D01*
X103929240Y-135498801D01*
X103949292Y-135522570D01*
X103969200Y-135546511D01*
X103988963Y-135570624D01*
X104008579Y-135594909D01*
X104028047Y-135619365D01*
X104047367Y-135643993D01*
X104066537Y-135668793D01*
X104085557Y-135693765D01*
X104104425Y-135718909D01*
X104123140Y-135744225D01*
X104144476Y-135771167D01*
X104165619Y-135798256D01*
X104186569Y-135825491D01*
X104207325Y-135852869D01*
X104227887Y-135880390D01*
X104248254Y-135908051D01*
X104268426Y-135935852D01*
X104288402Y-135963791D01*
X104308182Y-135991867D01*
X104327765Y-136020078D01*
X104347151Y-136048422D01*
X104366339Y-136076898D01*
X104385329Y-136105505D01*
X104404120Y-136134241D01*
X104422712Y-136163105D01*
X104441104Y-136192095D01*
X104459295Y-136221210D01*
X104477286Y-136250449D01*
X104495076Y-136279809D01*
X104512663Y-136309289D01*
X104530049Y-136338889D01*
X104547231Y-136368606D01*
X104564210Y-136398439D01*
X104580986Y-136428386D01*
X104597556Y-136458447D01*
X104613922Y-136488619D01*
X104630083Y-136518901D01*
X104646038Y-136549292D01*
X104661786Y-136579790D01*
X104677327Y-136610394D01*
X104692661Y-136641103D01*
X104707788Y-136671914D01*
X104722705Y-136702826D01*
X104737414Y-136733838D01*
X104751913Y-136764949D01*
X104766202Y-136796157D01*
X104780281Y-136827460D01*
X104794149Y-136858857D01*
X104807805Y-136890347D01*
X104821249Y-136921928D01*
X104834481Y-136953598D01*
X104847500Y-136985357D01*
X104860305Y-137017202D01*
X104872897Y-137049133D01*
X104885273Y-137081148D01*
X104897435Y-137113244D01*
X104909381Y-137145422D01*
X104921111Y-137177679D01*
X104932625Y-137210014D01*
X104943921Y-137242425D01*
X104955000Y-137274911D01*
X104965861Y-137307471D01*
X104976503Y-137340103D01*
X104986926Y-137372805D01*
X104997129Y-137405577D01*
X105007113Y-137438416D01*
X105016875Y-137471321D01*
X105026417Y-137504291D01*
X105035737Y-137537325D01*
X105044835Y-137570420D01*
X105053710Y-137603575D01*
X105062362Y-137636790D01*
X105070790Y-137670062D01*
X105078994Y-137703389D01*
X105086973Y-137736771D01*
X105094727Y-137770207D01*
X105102256Y-137803693D01*
X105109558Y-137837230D01*
X105116634Y-137870816D01*
X105123482Y-137904448D01*
X105130102Y-137938126D01*
X105136495Y-137971849D01*
X105142658Y-138005614D01*
X105148592Y-138039421D01*
X105154297Y-138073267D01*
X105159771Y-138107151D01*
X105165014Y-138141073D01*
X105170027Y-138175030D01*
X105174807Y-138209021D01*
X105179355Y-138243044D01*
X105183670Y-138277099D01*
X105187752Y-138311183D01*
X105191600Y-138345295D01*
X105195213Y-138379434D01*
X105198592Y-138413598D01*
X105201736Y-138447785D01*
X105204643Y-138481995D01*
X105207314Y-138516226D01*
X105209749Y-138550476D01*
X105211945Y-138584744D01*
X105213904Y-138619028D01*
X105215625Y-138653327D01*
X105217107Y-138687640D01*
X105218349Y-138721964D01*
X105219351Y-138756299D01*
X105220113Y-138790643D01*
X105220634Y-138824995D01*
X105220913Y-138859353D01*
X105220951Y-138893715D01*
X105220951Y-138893715D01*
G37*
G36*
X211348156Y-134672794D02*
G01*
X212069140Y-134816206D01*
X212860972Y-135144193D01*
X213573601Y-135620357D01*
X214179643Y-136226399D01*
X214655807Y-136939028D01*
X214983794Y-137730860D01*
X215151000Y-138571464D01*
X215151000Y-139428536D01*
X214983794Y-140269140D01*
X214655807Y-141060972D01*
X214179643Y-141773601D01*
X213573601Y-142379643D01*
X212860972Y-142855807D01*
X212069140Y-143183794D01*
X211348156Y-143327206D01*
X211228537Y-143351000D01*
X210371463Y-143351000D01*
X210251844Y-143327206D01*
X209530860Y-143183794D01*
X208739028Y-142855807D01*
X208026399Y-142379643D01*
X207420357Y-141773601D01*
X206944193Y-141060972D01*
X206616206Y-140269140D01*
X206449000Y-139428536D01*
X206449000Y-138571464D01*
X206616206Y-137730860D01*
X206944193Y-136939028D01*
X207420357Y-136226399D01*
X208026399Y-135620357D01*
X208739028Y-135144193D01*
X209530860Y-134816206D01*
X210251844Y-134672794D01*
X210371463Y-134649000D01*
X211228537Y-134649000D01*
X211348156Y-134672794D01*
X211348156Y-134672794D01*
G37*
G36*
X89748156Y-134672794D02*
G01*
X90469140Y-134816206D01*
X91260972Y-135144193D01*
X91973601Y-135620357D01*
X92579643Y-136226399D01*
X93055807Y-136939028D01*
X93383794Y-137730860D01*
X93551000Y-138571464D01*
X93551000Y-139428536D01*
X93383794Y-140269140D01*
X93055807Y-141060972D01*
X92579643Y-141773601D01*
X91973601Y-142379643D01*
X91260972Y-142855807D01*
X90469140Y-143183794D01*
X89748156Y-143327206D01*
X89628537Y-143351000D01*
X88771463Y-143351000D01*
X88651844Y-143327206D01*
X87930860Y-143183794D01*
X87139028Y-142855807D01*
X86426399Y-142379643D01*
X85820357Y-141773601D01*
X85344193Y-141060972D01*
X85016206Y-140269140D01*
X84849000Y-139428536D01*
X84849000Y-138571464D01*
X85016206Y-137730860D01*
X85344193Y-136939028D01*
X85820357Y-136226399D01*
X86426399Y-135620357D01*
X87139028Y-135144193D01*
X87930860Y-134816206D01*
X88651844Y-134672794D01*
X88771463Y-134649000D01*
X89628537Y-134649000D01*
X89748156Y-134672794D01*
X89748156Y-134672794D01*
G37*
G36*
X190451000Y-143151000D02*
G01*
X188349000Y-143151000D01*
X188349000Y-138849000D01*
X190451000Y-138849000D01*
X190451000Y-143151000D01*
X190451000Y-143151000D01*
G37*
G36*
X158451000Y-143151000D02*
G01*
X156349000Y-143151000D01*
X156349000Y-138849000D01*
X158451000Y-138849000D01*
X158451000Y-143151000D01*
X158451000Y-143151000D01*
G37*
G36*
X173651000Y-143151000D02*
G01*
X171549000Y-143151000D01*
X171549000Y-138849000D01*
X173651000Y-138849000D01*
X173651000Y-143151000D01*
X173651000Y-143151000D01*
G37*
G36*
X201651000Y-143151000D02*
G01*
X199549000Y-143151000D01*
X199549000Y-138849000D01*
X201651000Y-138849000D01*
X201651000Y-143151000D01*
X201651000Y-143151000D01*
G37*
G36*
X151251000Y-141751000D02*
G01*
X150349000Y-141751000D01*
X150349000Y-141149000D01*
X151251000Y-141149000D01*
X151251000Y-141751000D01*
X151251000Y-141751000D01*
G37*
G36*
X149651000Y-141751000D02*
G01*
X148749000Y-141751000D01*
X148749000Y-141149000D01*
X149651000Y-141149000D01*
X149651000Y-141751000D01*
X149651000Y-141751000D01*
G37*
G36*
X149651000Y-140851000D02*
G01*
X148749000Y-140851000D01*
X148749000Y-140249000D01*
X149651000Y-140249000D01*
X149651000Y-140851000D01*
X149651000Y-140851000D01*
G37*
G36*
X151251000Y-140851000D02*
G01*
X150349000Y-140851000D01*
X150349000Y-140249000D01*
X151251000Y-140249000D01*
X151251000Y-140851000D01*
X151251000Y-140851000D01*
G37*
G36*
X195651000Y-136571000D02*
G01*
X194349000Y-136571000D01*
X194349000Y-134269000D01*
X195651000Y-134269000D01*
X195651000Y-136571000D01*
X195651000Y-136571000D01*
G37*
G36*
X169651000Y-136571000D02*
G01*
X168349000Y-136571000D01*
X168349000Y-134269000D01*
X169651000Y-134269000D01*
X169651000Y-136571000D01*
X169651000Y-136571000D01*
G37*
G36*
X167651000Y-136571000D02*
G01*
X166349000Y-136571000D01*
X166349000Y-134269000D01*
X167651000Y-134269000D01*
X167651000Y-136571000D01*
X167651000Y-136571000D01*
G37*
G36*
X165651000Y-136571000D02*
G01*
X164349000Y-136571000D01*
X164349000Y-134269000D01*
X165651000Y-134269000D01*
X165651000Y-136571000D01*
X165651000Y-136571000D01*
G37*
G36*
X163651000Y-136571000D02*
G01*
X162349000Y-136571000D01*
X162349000Y-134269000D01*
X163651000Y-134269000D01*
X163651000Y-136571000D01*
X163651000Y-136571000D01*
G37*
G36*
X161651000Y-136571000D02*
G01*
X160349000Y-136571000D01*
X160349000Y-134269000D01*
X161651000Y-134269000D01*
X161651000Y-136571000D01*
X161651000Y-136571000D01*
G37*
G36*
X193651000Y-136571000D02*
G01*
X192349000Y-136571000D01*
X192349000Y-134269000D01*
X193651000Y-134269000D01*
X193651000Y-136571000D01*
X193651000Y-136571000D01*
G37*
G36*
X197651000Y-136571000D02*
G01*
X196349000Y-136571000D01*
X196349000Y-134269000D01*
X197651000Y-134269000D01*
X197651000Y-136571000D01*
X197651000Y-136571000D01*
G37*
G36*
X203001000Y-130201000D02*
G01*
X196999000Y-130201000D01*
X196999000Y-128499000D01*
X203001000Y-128499000D01*
X203001000Y-130201000D01*
X203001000Y-130201000D01*
G37*
G36*
X166544867Y-127302004D02*
G01*
X166568292Y-127309110D01*
X166589889Y-127320654D01*
X166608814Y-127336186D01*
X166624346Y-127355111D01*
X166635890Y-127376708D01*
X166642996Y-127400133D01*
X166646000Y-127430638D01*
X166646000Y-129619362D01*
X166642996Y-129649867D01*
X166635890Y-129673292D01*
X166624346Y-129694889D01*
X166608814Y-129713814D01*
X166589889Y-129729346D01*
X166568292Y-129740890D01*
X166544867Y-129747996D01*
X166514362Y-129751000D01*
X166025638Y-129751000D01*
X165995133Y-129747996D01*
X165971708Y-129740890D01*
X165950111Y-129729346D01*
X165931186Y-129713814D01*
X165915654Y-129694889D01*
X165904110Y-129673292D01*
X165897004Y-129649867D01*
X165894000Y-129619362D01*
X165894000Y-127430638D01*
X165897004Y-127400133D01*
X165904110Y-127376708D01*
X165915654Y-127355111D01*
X165931186Y-127336186D01*
X165950111Y-127320654D01*
X165971708Y-127309110D01*
X165995133Y-127302004D01*
X166025638Y-127299000D01*
X166514362Y-127299000D01*
X166544867Y-127302004D01*
X166544867Y-127302004D01*
G37*
G36*
X161464867Y-127302004D02*
G01*
X161488292Y-127309110D01*
X161509889Y-127320654D01*
X161528814Y-127336186D01*
X161544346Y-127355111D01*
X161555890Y-127376708D01*
X161562996Y-127400133D01*
X161566000Y-127430638D01*
X161566000Y-129619362D01*
X161562996Y-129649867D01*
X161555890Y-129673292D01*
X161544346Y-129694889D01*
X161528814Y-129713814D01*
X161509889Y-129729346D01*
X161488292Y-129740890D01*
X161464867Y-129747996D01*
X161434362Y-129751000D01*
X160945638Y-129751000D01*
X160915133Y-129747996D01*
X160891708Y-129740890D01*
X160870111Y-129729346D01*
X160851186Y-129713814D01*
X160835654Y-129694889D01*
X160824110Y-129673292D01*
X160817004Y-129649867D01*
X160814000Y-129619362D01*
X160814000Y-127430638D01*
X160817004Y-127400133D01*
X160824110Y-127376708D01*
X160835654Y-127355111D01*
X160851186Y-127336186D01*
X160870111Y-127320654D01*
X160891708Y-127309110D01*
X160915133Y-127302004D01*
X160945638Y-127299000D01*
X161434362Y-127299000D01*
X161464867Y-127302004D01*
X161464867Y-127302004D01*
G37*
G36*
X164004867Y-127302004D02*
G01*
X164028292Y-127309110D01*
X164049889Y-127320654D01*
X164068814Y-127336186D01*
X164084346Y-127355111D01*
X164095890Y-127376708D01*
X164102996Y-127400133D01*
X164106000Y-127430638D01*
X164106000Y-129619362D01*
X164102996Y-129649867D01*
X164095890Y-129673292D01*
X164084346Y-129694889D01*
X164068814Y-129713814D01*
X164049889Y-129729346D01*
X164028292Y-129740890D01*
X164004867Y-129747996D01*
X163974362Y-129751000D01*
X163485638Y-129751000D01*
X163455133Y-129747996D01*
X163431708Y-129740890D01*
X163410111Y-129729346D01*
X163391186Y-129713814D01*
X163375654Y-129694889D01*
X163364110Y-129673292D01*
X163357004Y-129649867D01*
X163354000Y-129619362D01*
X163354000Y-127430638D01*
X163357004Y-127400133D01*
X163364110Y-127376708D01*
X163375654Y-127355111D01*
X163391186Y-127336186D01*
X163410111Y-127320654D01*
X163431708Y-127309110D01*
X163455133Y-127302004D01*
X163485638Y-127299000D01*
X163974362Y-127299000D01*
X164004867Y-127302004D01*
X164004867Y-127302004D01*
G37*
G36*
X169084867Y-127302004D02*
G01*
X169108292Y-127309110D01*
X169129889Y-127320654D01*
X169148814Y-127336186D01*
X169164346Y-127355111D01*
X169175890Y-127376708D01*
X169182996Y-127400133D01*
X169186000Y-127430638D01*
X169186000Y-129619362D01*
X169182996Y-129649867D01*
X169175890Y-129673292D01*
X169164346Y-129694889D01*
X169148814Y-129713814D01*
X169129889Y-129729346D01*
X169108292Y-129740890D01*
X169084867Y-129747996D01*
X169054362Y-129751000D01*
X168565638Y-129751000D01*
X168535133Y-129747996D01*
X168511708Y-129740890D01*
X168490111Y-129729346D01*
X168471186Y-129713814D01*
X168455654Y-129694889D01*
X168444110Y-129673292D01*
X168437004Y-129649867D01*
X168434000Y-129619362D01*
X168434000Y-127430638D01*
X168437004Y-127400133D01*
X168444110Y-127376708D01*
X168455654Y-127355111D01*
X168471186Y-127336186D01*
X168490111Y-127320654D01*
X168511708Y-127309110D01*
X168535133Y-127302004D01*
X168565638Y-127299000D01*
X169054362Y-127299000D01*
X169084867Y-127302004D01*
X169084867Y-127302004D01*
G37*
G36*
X203001000Y-125501000D02*
G01*
X196999000Y-125501000D01*
X196999000Y-123799000D01*
X203001000Y-123799000D01*
X203001000Y-125501000D01*
X203001000Y-125501000D01*
G37*
G36*
X144776000Y-121751000D02*
G01*
X143574000Y-121751000D01*
X143574000Y-120349000D01*
X144776000Y-120349000D01*
X144776000Y-121751000D01*
X144776000Y-121751000D01*
G37*
G36*
X146426000Y-121751000D02*
G01*
X145224000Y-121751000D01*
X145224000Y-120349000D01*
X146426000Y-120349000D01*
X146426000Y-121751000D01*
X146426000Y-121751000D01*
G37*
G36*
X166544867Y-118252004D02*
G01*
X166568292Y-118259110D01*
X166589889Y-118270654D01*
X166608814Y-118286186D01*
X166624346Y-118305111D01*
X166635890Y-118326708D01*
X166642996Y-118350133D01*
X166646000Y-118380638D01*
X166646000Y-120569362D01*
X166642996Y-120599867D01*
X166635890Y-120623292D01*
X166624346Y-120644889D01*
X166608814Y-120663814D01*
X166589889Y-120679346D01*
X166568292Y-120690890D01*
X166544867Y-120697996D01*
X166514362Y-120701000D01*
X166025638Y-120701000D01*
X165995133Y-120697996D01*
X165971708Y-120690890D01*
X165950111Y-120679346D01*
X165931186Y-120663814D01*
X165915654Y-120644889D01*
X165904110Y-120623292D01*
X165897004Y-120599867D01*
X165894000Y-120569362D01*
X165894000Y-118380638D01*
X165897004Y-118350133D01*
X165904110Y-118326708D01*
X165915654Y-118305111D01*
X165931186Y-118286186D01*
X165950111Y-118270654D01*
X165971708Y-118259110D01*
X165995133Y-118252004D01*
X166025638Y-118249000D01*
X166514362Y-118249000D01*
X166544867Y-118252004D01*
X166544867Y-118252004D01*
G37*
G36*
X161464867Y-118252004D02*
G01*
X161488292Y-118259110D01*
X161509889Y-118270654D01*
X161528814Y-118286186D01*
X161544346Y-118305111D01*
X161555890Y-118326708D01*
X161562996Y-118350133D01*
X161566000Y-118380638D01*
X161566000Y-120569362D01*
X161562996Y-120599867D01*
X161555890Y-120623292D01*
X161544346Y-120644889D01*
X161528814Y-120663814D01*
X161509889Y-120679346D01*
X161488292Y-120690890D01*
X161464867Y-120697996D01*
X161434362Y-120701000D01*
X160945638Y-120701000D01*
X160915133Y-120697996D01*
X160891708Y-120690890D01*
X160870111Y-120679346D01*
X160851186Y-120663814D01*
X160835654Y-120644889D01*
X160824110Y-120623292D01*
X160817004Y-120599867D01*
X160814000Y-120569362D01*
X160814000Y-118380638D01*
X160817004Y-118350133D01*
X160824110Y-118326708D01*
X160835654Y-118305111D01*
X160851186Y-118286186D01*
X160870111Y-118270654D01*
X160891708Y-118259110D01*
X160915133Y-118252004D01*
X160945638Y-118249000D01*
X161434362Y-118249000D01*
X161464867Y-118252004D01*
X161464867Y-118252004D01*
G37*
G36*
X164004867Y-118252004D02*
G01*
X164028292Y-118259110D01*
X164049889Y-118270654D01*
X164068814Y-118286186D01*
X164084346Y-118305111D01*
X164095890Y-118326708D01*
X164102996Y-118350133D01*
X164106000Y-118380638D01*
X164106000Y-120569362D01*
X164102996Y-120599867D01*
X164095890Y-120623292D01*
X164084346Y-120644889D01*
X164068814Y-120663814D01*
X164049889Y-120679346D01*
X164028292Y-120690890D01*
X164004867Y-120697996D01*
X163974362Y-120701000D01*
X163485638Y-120701000D01*
X163455133Y-120697996D01*
X163431708Y-120690890D01*
X163410111Y-120679346D01*
X163391186Y-120663814D01*
X163375654Y-120644889D01*
X163364110Y-120623292D01*
X163357004Y-120599867D01*
X163354000Y-120569362D01*
X163354000Y-118380638D01*
X163357004Y-118350133D01*
X163364110Y-118326708D01*
X163375654Y-118305111D01*
X163391186Y-118286186D01*
X163410111Y-118270654D01*
X163431708Y-118259110D01*
X163455133Y-118252004D01*
X163485638Y-118249000D01*
X163974362Y-118249000D01*
X164004867Y-118252004D01*
X164004867Y-118252004D01*
G37*
G36*
X169084867Y-118252004D02*
G01*
X169108292Y-118259110D01*
X169129889Y-118270654D01*
X169148814Y-118286186D01*
X169164346Y-118305111D01*
X169175890Y-118326708D01*
X169182996Y-118350133D01*
X169186000Y-118380638D01*
X169186000Y-120569362D01*
X169182996Y-120599867D01*
X169175890Y-120623292D01*
X169164346Y-120644889D01*
X169148814Y-120663814D01*
X169129889Y-120679346D01*
X169108292Y-120690890D01*
X169084867Y-120697996D01*
X169054362Y-120701000D01*
X168565638Y-120701000D01*
X168535133Y-120697996D01*
X168511708Y-120690890D01*
X168490111Y-120679346D01*
X168471186Y-120663814D01*
X168455654Y-120644889D01*
X168444110Y-120623292D01*
X168437004Y-120599867D01*
X168434000Y-120569362D01*
X168434000Y-118380638D01*
X168437004Y-118350133D01*
X168444110Y-118326708D01*
X168455654Y-118305111D01*
X168471186Y-118286186D01*
X168490111Y-118270654D01*
X168511708Y-118259110D01*
X168535133Y-118252004D01*
X168565638Y-118249000D01*
X169054362Y-118249000D01*
X169084867Y-118252004D01*
X169084867Y-118252004D01*
G37*
G36*
X146426000Y-119651000D02*
G01*
X145224000Y-119651000D01*
X145224000Y-118249000D01*
X146426000Y-118249000D01*
X146426000Y-119651000D01*
X146426000Y-119651000D01*
G37*
G36*
X144776000Y-119651000D02*
G01*
X143574000Y-119651000D01*
X143574000Y-118249000D01*
X144776000Y-118249000D01*
X144776000Y-119651000D01*
X144776000Y-119651000D01*
G37*
G36*
X149479746Y-110316169D02*
G01*
X149486761Y-110318297D01*
X149493227Y-110321754D01*
X149503661Y-110330316D01*
X150556348Y-111383003D01*
X150564910Y-111393437D01*
X150568367Y-111399903D01*
X150570495Y-111406918D01*
X150571213Y-111414213D01*
X150570495Y-111421508D01*
X150568367Y-111428523D01*
X150564910Y-111434989D01*
X150556348Y-111445423D01*
X150334511Y-111667260D01*
X150324077Y-111675822D01*
X150317610Y-111679279D01*
X150302674Y-111683810D01*
X150280035Y-111693187D01*
X150259661Y-111706801D01*
X150242334Y-111724128D01*
X150228720Y-111744503D01*
X150219344Y-111767140D01*
X150214813Y-111782076D01*
X150211356Y-111788543D01*
X150202794Y-111798977D01*
X149980957Y-112020814D01*
X149970523Y-112029376D01*
X149964057Y-112032833D01*
X149949120Y-112037364D01*
X149926481Y-112046742D01*
X149906107Y-112060356D01*
X149888780Y-112077683D01*
X149875167Y-112098058D01*
X149865791Y-112120693D01*
X149861260Y-112135630D01*
X149857803Y-112142096D01*
X149849241Y-112152530D01*
X149627404Y-112374367D01*
X149616970Y-112382929D01*
X149610503Y-112386386D01*
X149595567Y-112390917D01*
X149572928Y-112400294D01*
X149552554Y-112413908D01*
X149535227Y-112431235D01*
X149521613Y-112451610D01*
X149512237Y-112474247D01*
X149507706Y-112489183D01*
X149504249Y-112495650D01*
X149495687Y-112506084D01*
X149273850Y-112727921D01*
X149263416Y-112736483D01*
X149256950Y-112739940D01*
X149242013Y-112744471D01*
X149219374Y-112753849D01*
X149199000Y-112767463D01*
X149181673Y-112784790D01*
X149168060Y-112805165D01*
X149158684Y-112827800D01*
X149154153Y-112842737D01*
X149150696Y-112849203D01*
X149142134Y-112859637D01*
X148920297Y-113081474D01*
X148909863Y-113090036D01*
X148903397Y-113093493D01*
X148888460Y-113098024D01*
X148865821Y-113107402D01*
X148845447Y-113121016D01*
X148828120Y-113138343D01*
X148814507Y-113158718D01*
X148805131Y-113181353D01*
X148800600Y-113196290D01*
X148797143Y-113202756D01*
X148788581Y-113213190D01*
X148566744Y-113435027D01*
X148556310Y-113443589D01*
X148549843Y-113447046D01*
X148534907Y-113451577D01*
X148512268Y-113460954D01*
X148491894Y-113474568D01*
X148474567Y-113491895D01*
X148460953Y-113512270D01*
X148451577Y-113534907D01*
X148447046Y-113549843D01*
X148443589Y-113556310D01*
X148435027Y-113566744D01*
X148213190Y-113788581D01*
X148202756Y-113797143D01*
X148196290Y-113800600D01*
X148181353Y-113805131D01*
X148158714Y-113814509D01*
X148138340Y-113828123D01*
X148121013Y-113845450D01*
X148107400Y-113865825D01*
X148098024Y-113888460D01*
X148093493Y-113903397D01*
X148090036Y-113909863D01*
X148081474Y-113920297D01*
X147859637Y-114142134D01*
X147849203Y-114150696D01*
X147842737Y-114154153D01*
X147827800Y-114158684D01*
X147805161Y-114168062D01*
X147784787Y-114181676D01*
X147767460Y-114199003D01*
X147753847Y-114219378D01*
X147744471Y-114242013D01*
X147739940Y-114256950D01*
X147736483Y-114263416D01*
X147727921Y-114273850D01*
X147506084Y-114495687D01*
X147495650Y-114504249D01*
X147489183Y-114507706D01*
X147474247Y-114512237D01*
X147451608Y-114521614D01*
X147431234Y-114535228D01*
X147413907Y-114552555D01*
X147400293Y-114572930D01*
X147390917Y-114595567D01*
X147386386Y-114610503D01*
X147382929Y-114616970D01*
X147374367Y-114627404D01*
X147152530Y-114849241D01*
X147142096Y-114857803D01*
X147135630Y-114861260D01*
X147120693Y-114865791D01*
X147098054Y-114875169D01*
X147077680Y-114888783D01*
X147060353Y-114906110D01*
X147046740Y-114926485D01*
X147037364Y-114949120D01*
X147032833Y-114964057D01*
X147029376Y-114970523D01*
X147020814Y-114980957D01*
X146798977Y-115202794D01*
X146788543Y-115211356D01*
X146782076Y-115214813D01*
X146767140Y-115219344D01*
X146744501Y-115228721D01*
X146724127Y-115242335D01*
X146706800Y-115259662D01*
X146693186Y-115280037D01*
X146683810Y-115302674D01*
X146679279Y-115317610D01*
X146675822Y-115324077D01*
X146667260Y-115334511D01*
X146445423Y-115556348D01*
X146434989Y-115564910D01*
X146428523Y-115568367D01*
X146421508Y-115570495D01*
X146414213Y-115571213D01*
X146406918Y-115570495D01*
X146399903Y-115568367D01*
X146393437Y-115564910D01*
X146383003Y-115556348D01*
X145330316Y-114503661D01*
X145321754Y-114493227D01*
X145318297Y-114486761D01*
X145316169Y-114479746D01*
X145315451Y-114472451D01*
X145316169Y-114465156D01*
X145318297Y-114458141D01*
X145321754Y-114451675D01*
X145330316Y-114441241D01*
X145552153Y-114219404D01*
X145562587Y-114210842D01*
X145569054Y-114207385D01*
X145583990Y-114202854D01*
X145606629Y-114193477D01*
X145627003Y-114179863D01*
X145644330Y-114162536D01*
X145657944Y-114142161D01*
X145667320Y-114119524D01*
X145671851Y-114104588D01*
X145675308Y-114098121D01*
X145683870Y-114087687D01*
X145905707Y-113865850D01*
X145916141Y-113857288D01*
X145922607Y-113853831D01*
X145937544Y-113849300D01*
X145960183Y-113839922D01*
X145980557Y-113826308D01*
X145997884Y-113808981D01*
X146011497Y-113788606D01*
X146020873Y-113765971D01*
X146025404Y-113751034D01*
X146028861Y-113744568D01*
X146037423Y-113734134D01*
X146259260Y-113512297D01*
X146269694Y-113503735D01*
X146276161Y-113500278D01*
X146291097Y-113495747D01*
X146313736Y-113486370D01*
X146334110Y-113472756D01*
X146351437Y-113455429D01*
X146365051Y-113435054D01*
X146374427Y-113412417D01*
X146378958Y-113397481D01*
X146382415Y-113391014D01*
X146390977Y-113380580D01*
X146612814Y-113158743D01*
X146623248Y-113150181D01*
X146629714Y-113146724D01*
X146644651Y-113142193D01*
X146667290Y-113132815D01*
X146687664Y-113119201D01*
X146704991Y-113101874D01*
X146718604Y-113081499D01*
X146727980Y-113058864D01*
X146732511Y-113043927D01*
X146735968Y-113037461D01*
X146744530Y-113027027D01*
X146966367Y-112805190D01*
X146976801Y-112796628D01*
X146983267Y-112793171D01*
X146998204Y-112788640D01*
X147020843Y-112779262D01*
X147041217Y-112765648D01*
X147058544Y-112748321D01*
X147072157Y-112727946D01*
X147081533Y-112705311D01*
X147086064Y-112690374D01*
X147089521Y-112683908D01*
X147098083Y-112673474D01*
X147319920Y-112451637D01*
X147330354Y-112443075D01*
X147336821Y-112439618D01*
X147351757Y-112435087D01*
X147374396Y-112425710D01*
X147394770Y-112412096D01*
X147412097Y-112394769D01*
X147425711Y-112374394D01*
X147435087Y-112351757D01*
X147439618Y-112336821D01*
X147443075Y-112330354D01*
X147451637Y-112319920D01*
X147673474Y-112098083D01*
X147683908Y-112089521D01*
X147690374Y-112086064D01*
X147705311Y-112081533D01*
X147727950Y-112072155D01*
X147748324Y-112058541D01*
X147765651Y-112041214D01*
X147779264Y-112020839D01*
X147788640Y-111998204D01*
X147793171Y-111983267D01*
X147796628Y-111976801D01*
X147805190Y-111966367D01*
X148027027Y-111744530D01*
X148037461Y-111735968D01*
X148043927Y-111732511D01*
X148058864Y-111727980D01*
X148081503Y-111718602D01*
X148101877Y-111704988D01*
X148119204Y-111687661D01*
X148132817Y-111667286D01*
X148142193Y-111644651D01*
X148146724Y-111629714D01*
X148150181Y-111623248D01*
X148158743Y-111612814D01*
X148380580Y-111390977D01*
X148391014Y-111382415D01*
X148397481Y-111378958D01*
X148412417Y-111374427D01*
X148435056Y-111365050D01*
X148455430Y-111351436D01*
X148472757Y-111334109D01*
X148486371Y-111313734D01*
X148495747Y-111291097D01*
X148500278Y-111276161D01*
X148503735Y-111269694D01*
X148512297Y-111259260D01*
X148734134Y-111037423D01*
X148744568Y-111028861D01*
X148751034Y-111025404D01*
X148765971Y-111020873D01*
X148788610Y-111011495D01*
X148808984Y-110997881D01*
X148826311Y-110980554D01*
X148839924Y-110960179D01*
X148849300Y-110937544D01*
X148853831Y-110922607D01*
X148857288Y-110916141D01*
X148865850Y-110905707D01*
X149087687Y-110683870D01*
X149098121Y-110675308D01*
X149104588Y-110671851D01*
X149119524Y-110667320D01*
X149142163Y-110657943D01*
X149162537Y-110644329D01*
X149179864Y-110627002D01*
X149193478Y-110606627D01*
X149202854Y-110583990D01*
X149207385Y-110569054D01*
X149210842Y-110562587D01*
X149219404Y-110552153D01*
X149441241Y-110330316D01*
X149451675Y-110321754D01*
X149458141Y-110318297D01*
X149465156Y-110316169D01*
X149472451Y-110315451D01*
X149479746Y-110316169D01*
X149479746Y-110316169D01*
G37*
G36*
X140534844Y-110316169D02*
G01*
X140541859Y-110318297D01*
X140548325Y-110321754D01*
X140558759Y-110330316D01*
X140780596Y-110552153D01*
X140789158Y-110562587D01*
X140792615Y-110569054D01*
X140797146Y-110583990D01*
X140806523Y-110606629D01*
X140820137Y-110627003D01*
X140837464Y-110644330D01*
X140857839Y-110657944D01*
X140880476Y-110667320D01*
X140895412Y-110671851D01*
X140901879Y-110675308D01*
X140912313Y-110683870D01*
X141134150Y-110905707D01*
X141142712Y-110916141D01*
X141146169Y-110922607D01*
X141150700Y-110937544D01*
X141160078Y-110960183D01*
X141173692Y-110980557D01*
X141191019Y-110997884D01*
X141211394Y-111011497D01*
X141234029Y-111020873D01*
X141248966Y-111025404D01*
X141255432Y-111028861D01*
X141265866Y-111037423D01*
X141487703Y-111259260D01*
X141496265Y-111269694D01*
X141499722Y-111276161D01*
X141504253Y-111291097D01*
X141513630Y-111313736D01*
X141527244Y-111334110D01*
X141544571Y-111351437D01*
X141564946Y-111365051D01*
X141587583Y-111374427D01*
X141602519Y-111378958D01*
X141608986Y-111382415D01*
X141619420Y-111390977D01*
X141841257Y-111612814D01*
X141849819Y-111623248D01*
X141853276Y-111629714D01*
X141857807Y-111644651D01*
X141867185Y-111667290D01*
X141880799Y-111687664D01*
X141898126Y-111704991D01*
X141918501Y-111718604D01*
X141941136Y-111727980D01*
X141956073Y-111732511D01*
X141962539Y-111735968D01*
X141972973Y-111744530D01*
X142194810Y-111966367D01*
X142203372Y-111976801D01*
X142206829Y-111983267D01*
X142211360Y-111998204D01*
X142220738Y-112020843D01*
X142234352Y-112041217D01*
X142251679Y-112058544D01*
X142272054Y-112072157D01*
X142294689Y-112081533D01*
X142309626Y-112086064D01*
X142316092Y-112089521D01*
X142326526Y-112098083D01*
X142548363Y-112319920D01*
X142556925Y-112330354D01*
X142560382Y-112336821D01*
X142564913Y-112351757D01*
X142574290Y-112374396D01*
X142587904Y-112394770D01*
X142605231Y-112412097D01*
X142625606Y-112425711D01*
X142648243Y-112435087D01*
X142663179Y-112439618D01*
X142669646Y-112443075D01*
X142680080Y-112451637D01*
X142901917Y-112673474D01*
X142910479Y-112683908D01*
X142913936Y-112690374D01*
X142918467Y-112705311D01*
X142927845Y-112727950D01*
X142941459Y-112748324D01*
X142958786Y-112765651D01*
X142979161Y-112779264D01*
X143001796Y-112788640D01*
X143016733Y-112793171D01*
X143023199Y-112796628D01*
X143033633Y-112805190D01*
X143255470Y-113027027D01*
X143264032Y-113037461D01*
X143267489Y-113043927D01*
X143272020Y-113058864D01*
X143281398Y-113081503D01*
X143295012Y-113101877D01*
X143312339Y-113119204D01*
X143332714Y-113132817D01*
X143355349Y-113142193D01*
X143370286Y-113146724D01*
X143376752Y-113150181D01*
X143387186Y-113158743D01*
X143609023Y-113380580D01*
X143617585Y-113391014D01*
X143621042Y-113397481D01*
X143625573Y-113412417D01*
X143634950Y-113435056D01*
X143648564Y-113455430D01*
X143665891Y-113472757D01*
X143686266Y-113486371D01*
X143708903Y-113495747D01*
X143723839Y-113500278D01*
X143730306Y-113503735D01*
X143740740Y-113512297D01*
X143962577Y-113734134D01*
X143971139Y-113744568D01*
X143974596Y-113751034D01*
X143979127Y-113765971D01*
X143988505Y-113788610D01*
X144002119Y-113808984D01*
X144019446Y-113826311D01*
X144039821Y-113839924D01*
X144062456Y-113849300D01*
X144077393Y-113853831D01*
X144083859Y-113857288D01*
X144094293Y-113865850D01*
X144316130Y-114087687D01*
X144324692Y-114098121D01*
X144328149Y-114104588D01*
X144332680Y-114119524D01*
X144342057Y-114142163D01*
X144355671Y-114162537D01*
X144372998Y-114179864D01*
X144393373Y-114193478D01*
X144416010Y-114202854D01*
X144430946Y-114207385D01*
X144437413Y-114210842D01*
X144447847Y-114219404D01*
X144669684Y-114441241D01*
X144678246Y-114451675D01*
X144681703Y-114458141D01*
X144683831Y-114465156D01*
X144684549Y-114472451D01*
X144683831Y-114479746D01*
X144681703Y-114486761D01*
X144678246Y-114493227D01*
X144669684Y-114503661D01*
X143616997Y-115556348D01*
X143606563Y-115564910D01*
X143600097Y-115568367D01*
X143593082Y-115570495D01*
X143585787Y-115571213D01*
X143578492Y-115570495D01*
X143571477Y-115568367D01*
X143565011Y-115564910D01*
X143554577Y-115556348D01*
X143332740Y-115334511D01*
X143324178Y-115324077D01*
X143320721Y-115317610D01*
X143316190Y-115302674D01*
X143306813Y-115280035D01*
X143293199Y-115259661D01*
X143275872Y-115242334D01*
X143255497Y-115228720D01*
X143232860Y-115219344D01*
X143217924Y-115214813D01*
X143211457Y-115211356D01*
X143201023Y-115202794D01*
X142979186Y-114980957D01*
X142970624Y-114970523D01*
X142967167Y-114964057D01*
X142962636Y-114949120D01*
X142953258Y-114926481D01*
X142939644Y-114906107D01*
X142922317Y-114888780D01*
X142901942Y-114875167D01*
X142879307Y-114865791D01*
X142864370Y-114861260D01*
X142857904Y-114857803D01*
X142847470Y-114849241D01*
X142625633Y-114627404D01*
X142617071Y-114616970D01*
X142613614Y-114610503D01*
X142609083Y-114595567D01*
X142599706Y-114572928D01*
X142586092Y-114552554D01*
X142568765Y-114535227D01*
X142548390Y-114521613D01*
X142525753Y-114512237D01*
X142510817Y-114507706D01*
X142504350Y-114504249D01*
X142493916Y-114495687D01*
X142272079Y-114273850D01*
X142263517Y-114263416D01*
X142260060Y-114256950D01*
X142255529Y-114242013D01*
X142246151Y-114219374D01*
X142232537Y-114199000D01*
X142215210Y-114181673D01*
X142194835Y-114168060D01*
X142172200Y-114158684D01*
X142157263Y-114154153D01*
X142150797Y-114150696D01*
X142140363Y-114142134D01*
X141918526Y-113920297D01*
X141909964Y-113909863D01*
X141906507Y-113903397D01*
X141901976Y-113888460D01*
X141892598Y-113865821D01*
X141878984Y-113845447D01*
X141861657Y-113828120D01*
X141841282Y-113814507D01*
X141818647Y-113805131D01*
X141803710Y-113800600D01*
X141797244Y-113797143D01*
X141786810Y-113788581D01*
X141564973Y-113566744D01*
X141556411Y-113556310D01*
X141552954Y-113549843D01*
X141548423Y-113534907D01*
X141539046Y-113512268D01*
X141525432Y-113491894D01*
X141508105Y-113474567D01*
X141487730Y-113460953D01*
X141465093Y-113451577D01*
X141450157Y-113447046D01*
X141443690Y-113443589D01*
X141433256Y-113435027D01*
X141211419Y-113213190D01*
X141202857Y-113202756D01*
X141199400Y-113196290D01*
X141194869Y-113181353D01*
X141185491Y-113158714D01*
X141171877Y-113138340D01*
X141154550Y-113121013D01*
X141134175Y-113107400D01*
X141111540Y-113098024D01*
X141096603Y-113093493D01*
X141090137Y-113090036D01*
X141079703Y-113081474D01*
X140857866Y-112859637D01*
X140849304Y-112849203D01*
X140845847Y-112842737D01*
X140841316Y-112827800D01*
X140831938Y-112805161D01*
X140818324Y-112784787D01*
X140800997Y-112767460D01*
X140780622Y-112753847D01*
X140757987Y-112744471D01*
X140743050Y-112739940D01*
X140736584Y-112736483D01*
X140726150Y-112727921D01*
X140504313Y-112506084D01*
X140495751Y-112495650D01*
X140492294Y-112489183D01*
X140487763Y-112474247D01*
X140478386Y-112451608D01*
X140464772Y-112431234D01*
X140447445Y-112413907D01*
X140427070Y-112400293D01*
X140404433Y-112390917D01*
X140389497Y-112386386D01*
X140383030Y-112382929D01*
X140372596Y-112374367D01*
X140150759Y-112152530D01*
X140142197Y-112142096D01*
X140138740Y-112135630D01*
X140134209Y-112120693D01*
X140124831Y-112098054D01*
X140111217Y-112077680D01*
X140093890Y-112060353D01*
X140073515Y-112046740D01*
X140050880Y-112037364D01*
X140035943Y-112032833D01*
X140029477Y-112029376D01*
X140019043Y-112020814D01*
X139797206Y-111798977D01*
X139788644Y-111788543D01*
X139785187Y-111782076D01*
X139780656Y-111767140D01*
X139771279Y-111744501D01*
X139757665Y-111724127D01*
X139740338Y-111706800D01*
X139719963Y-111693186D01*
X139697326Y-111683810D01*
X139682390Y-111679279D01*
X139675923Y-111675822D01*
X139665489Y-111667260D01*
X139443652Y-111445423D01*
X139435090Y-111434989D01*
X139431633Y-111428523D01*
X139429505Y-111421508D01*
X139428787Y-111414213D01*
X139429505Y-111406918D01*
X139431633Y-111399903D01*
X139435090Y-111393437D01*
X139443652Y-111383003D01*
X140496339Y-110330316D01*
X140506773Y-110321754D01*
X140513239Y-110318297D01*
X140520254Y-110316169D01*
X140527549Y-110315451D01*
X140534844Y-110316169D01*
X140534844Y-110316169D01*
G37*
G36*
X159301000Y-112961000D02*
G01*
X156799000Y-112961000D01*
X156799000Y-112119000D01*
X159301000Y-112119000D01*
X159301000Y-112961000D01*
X159301000Y-112961000D01*
G37*
G36*
X163201000Y-112961000D02*
G01*
X160699000Y-112961000D01*
X160699000Y-112119000D01*
X163201000Y-112119000D01*
X163201000Y-112961000D01*
X163201000Y-112961000D01*
G37*
G36*
X159301000Y-111691000D02*
G01*
X156799000Y-111691000D01*
X156799000Y-110849000D01*
X159301000Y-110849000D01*
X159301000Y-111691000D01*
X159301000Y-111691000D01*
G37*
G36*
X163201000Y-111691000D02*
G01*
X160699000Y-111691000D01*
X160699000Y-110849000D01*
X163201000Y-110849000D01*
X163201000Y-111691000D01*
X163201000Y-111691000D01*
G37*
G36*
X119851000Y-111251000D02*
G01*
X119249000Y-111251000D01*
X119249000Y-110349000D01*
X119851000Y-110349000D01*
X119851000Y-111251000D01*
X119851000Y-111251000D01*
G37*
G36*
X120751000Y-111251000D02*
G01*
X120149000Y-111251000D01*
X120149000Y-110349000D01*
X120751000Y-110349000D01*
X120751000Y-111251000D01*
X120751000Y-111251000D01*
G37*
G36*
X163201000Y-110421000D02*
G01*
X160699000Y-110421000D01*
X160699000Y-109579000D01*
X163201000Y-109579000D01*
X163201000Y-110421000D01*
X163201000Y-110421000D01*
G37*
G36*
X159301000Y-110421000D02*
G01*
X156799000Y-110421000D01*
X156799000Y-109579000D01*
X159301000Y-109579000D01*
X159301000Y-110421000D01*
X159301000Y-110421000D01*
G37*
G36*
X146421508Y-104429505D02*
G01*
X146428523Y-104431633D01*
X146434989Y-104435090D01*
X146445423Y-104443652D01*
X146667260Y-104665489D01*
X146675822Y-104675923D01*
X146679279Y-104682390D01*
X146683810Y-104697326D01*
X146693187Y-104719965D01*
X146706801Y-104740339D01*
X146724128Y-104757666D01*
X146744503Y-104771280D01*
X146767140Y-104780656D01*
X146782076Y-104785187D01*
X146788543Y-104788644D01*
X146798977Y-104797206D01*
X147020814Y-105019043D01*
X147029376Y-105029477D01*
X147032833Y-105035943D01*
X147037364Y-105050880D01*
X147046742Y-105073519D01*
X147060356Y-105093893D01*
X147077683Y-105111220D01*
X147098058Y-105124833D01*
X147120693Y-105134209D01*
X147135630Y-105138740D01*
X147142096Y-105142197D01*
X147152530Y-105150759D01*
X147374367Y-105372596D01*
X147382929Y-105383030D01*
X147386386Y-105389497D01*
X147390917Y-105404433D01*
X147400294Y-105427072D01*
X147413908Y-105447446D01*
X147431235Y-105464773D01*
X147451610Y-105478387D01*
X147474247Y-105487763D01*
X147489183Y-105492294D01*
X147495650Y-105495751D01*
X147506084Y-105504313D01*
X147727921Y-105726150D01*
X147736483Y-105736584D01*
X147739940Y-105743050D01*
X147744471Y-105757987D01*
X147753849Y-105780626D01*
X147767463Y-105801000D01*
X147784790Y-105818327D01*
X147805165Y-105831940D01*
X147827800Y-105841316D01*
X147842737Y-105845847D01*
X147849203Y-105849304D01*
X147859637Y-105857866D01*
X148081474Y-106079703D01*
X148090036Y-106090137D01*
X148093493Y-106096603D01*
X148098024Y-106111540D01*
X148107402Y-106134179D01*
X148121016Y-106154553D01*
X148138343Y-106171880D01*
X148158718Y-106185493D01*
X148181353Y-106194869D01*
X148196290Y-106199400D01*
X148202756Y-106202857D01*
X148213190Y-106211419D01*
X148435027Y-106433256D01*
X148443589Y-106443690D01*
X148447046Y-106450157D01*
X148451577Y-106465093D01*
X148460954Y-106487732D01*
X148474568Y-106508106D01*
X148491895Y-106525433D01*
X148512270Y-106539047D01*
X148534907Y-106548423D01*
X148549843Y-106552954D01*
X148556310Y-106556411D01*
X148566744Y-106564973D01*
X148788581Y-106786810D01*
X148797143Y-106797244D01*
X148800600Y-106803710D01*
X148805131Y-106818647D01*
X148814509Y-106841286D01*
X148828123Y-106861660D01*
X148845450Y-106878987D01*
X148865825Y-106892600D01*
X148888460Y-106901976D01*
X148903397Y-106906507D01*
X148909863Y-106909964D01*
X148920297Y-106918526D01*
X149142134Y-107140363D01*
X149150696Y-107150797D01*
X149154153Y-107157263D01*
X149158684Y-107172200D01*
X149168062Y-107194839D01*
X149181676Y-107215213D01*
X149199003Y-107232540D01*
X149219378Y-107246153D01*
X149242013Y-107255529D01*
X149256950Y-107260060D01*
X149263416Y-107263517D01*
X149273850Y-107272079D01*
X149495687Y-107493916D01*
X149504249Y-107504350D01*
X149507706Y-107510817D01*
X149512237Y-107525753D01*
X149521614Y-107548392D01*
X149535228Y-107568766D01*
X149552555Y-107586093D01*
X149572930Y-107599707D01*
X149595567Y-107609083D01*
X149610503Y-107613614D01*
X149616970Y-107617071D01*
X149627404Y-107625633D01*
X149849241Y-107847470D01*
X149857803Y-107857904D01*
X149861260Y-107864370D01*
X149865791Y-107879307D01*
X149875169Y-107901946D01*
X149888783Y-107922320D01*
X149906110Y-107939647D01*
X149926485Y-107953260D01*
X149949120Y-107962636D01*
X149964057Y-107967167D01*
X149970523Y-107970624D01*
X149980957Y-107979186D01*
X150202794Y-108201023D01*
X150211356Y-108211457D01*
X150214813Y-108217924D01*
X150219344Y-108232860D01*
X150228721Y-108255499D01*
X150242335Y-108275873D01*
X150259662Y-108293200D01*
X150280037Y-108306814D01*
X150302674Y-108316190D01*
X150317610Y-108320721D01*
X150324077Y-108324178D01*
X150334511Y-108332740D01*
X150556348Y-108554577D01*
X150564910Y-108565011D01*
X150568367Y-108571477D01*
X150570495Y-108578492D01*
X150571213Y-108585787D01*
X150570495Y-108593082D01*
X150568367Y-108600097D01*
X150564910Y-108606563D01*
X150556348Y-108616997D01*
X149503661Y-109669684D01*
X149493227Y-109678246D01*
X149486761Y-109681703D01*
X149479746Y-109683831D01*
X149472451Y-109684549D01*
X149465156Y-109683831D01*
X149458141Y-109681703D01*
X149451675Y-109678246D01*
X149441241Y-109669684D01*
X149219404Y-109447847D01*
X149210842Y-109437413D01*
X149207385Y-109430946D01*
X149202854Y-109416010D01*
X149193477Y-109393371D01*
X149179863Y-109372997D01*
X149162536Y-109355670D01*
X149142161Y-109342056D01*
X149119524Y-109332680D01*
X149104588Y-109328149D01*
X149098121Y-109324692D01*
X149087687Y-109316130D01*
X148865850Y-109094293D01*
X148857288Y-109083859D01*
X148853831Y-109077393D01*
X148849300Y-109062456D01*
X148839922Y-109039817D01*
X148826308Y-109019443D01*
X148808981Y-109002116D01*
X148788606Y-108988503D01*
X148765971Y-108979127D01*
X148751034Y-108974596D01*
X148744568Y-108971139D01*
X148734134Y-108962577D01*
X148512297Y-108740740D01*
X148503735Y-108730306D01*
X148500278Y-108723839D01*
X148495747Y-108708903D01*
X148486370Y-108686264D01*
X148472756Y-108665890D01*
X148455429Y-108648563D01*
X148435054Y-108634949D01*
X148412417Y-108625573D01*
X148397481Y-108621042D01*
X148391014Y-108617585D01*
X148380580Y-108609023D01*
X148158743Y-108387186D01*
X148150181Y-108376752D01*
X148146724Y-108370286D01*
X148142193Y-108355349D01*
X148132815Y-108332710D01*
X148119201Y-108312336D01*
X148101874Y-108295009D01*
X148081499Y-108281396D01*
X148058864Y-108272020D01*
X148043927Y-108267489D01*
X148037461Y-108264032D01*
X148027027Y-108255470D01*
X147805190Y-108033633D01*
X147796628Y-108023199D01*
X147793171Y-108016733D01*
X147788640Y-108001796D01*
X147779262Y-107979157D01*
X147765648Y-107958783D01*
X147748321Y-107941456D01*
X147727946Y-107927843D01*
X147705311Y-107918467D01*
X147690374Y-107913936D01*
X147683908Y-107910479D01*
X147673474Y-107901917D01*
X147451637Y-107680080D01*
X147443075Y-107669646D01*
X147439618Y-107663179D01*
X147435087Y-107648243D01*
X147425710Y-107625604D01*
X147412096Y-107605230D01*
X147394769Y-107587903D01*
X147374394Y-107574289D01*
X147351757Y-107564913D01*
X147336821Y-107560382D01*
X147330354Y-107556925D01*
X147319920Y-107548363D01*
X147098083Y-107326526D01*
X147089521Y-107316092D01*
X147086064Y-107309626D01*
X147081533Y-107294689D01*
X147072155Y-107272050D01*
X147058541Y-107251676D01*
X147041214Y-107234349D01*
X147020839Y-107220736D01*
X146998204Y-107211360D01*
X146983267Y-107206829D01*
X146976801Y-107203372D01*
X146966367Y-107194810D01*
X146744530Y-106972973D01*
X146735968Y-106962539D01*
X146732511Y-106956073D01*
X146727980Y-106941136D01*
X146718602Y-106918497D01*
X146704988Y-106898123D01*
X146687661Y-106880796D01*
X146667286Y-106867183D01*
X146644651Y-106857807D01*
X146629714Y-106853276D01*
X146623248Y-106849819D01*
X146612814Y-106841257D01*
X146390977Y-106619420D01*
X146382415Y-106608986D01*
X146378958Y-106602519D01*
X146374427Y-106587583D01*
X146365050Y-106564944D01*
X146351436Y-106544570D01*
X146334109Y-106527243D01*
X146313734Y-106513629D01*
X146291097Y-106504253D01*
X146276161Y-106499722D01*
X146269694Y-106496265D01*
X146259260Y-106487703D01*
X146037423Y-106265866D01*
X146028861Y-106255432D01*
X146025404Y-106248966D01*
X146020873Y-106234029D01*
X146011495Y-106211390D01*
X145997881Y-106191016D01*
X145980554Y-106173689D01*
X145960179Y-106160076D01*
X145937544Y-106150700D01*
X145922607Y-106146169D01*
X145916141Y-106142712D01*
X145905707Y-106134150D01*
X145683870Y-105912313D01*
X145675308Y-105901879D01*
X145671851Y-105895412D01*
X145667320Y-105880476D01*
X145657943Y-105857837D01*
X145644329Y-105837463D01*
X145627002Y-105820136D01*
X145606627Y-105806522D01*
X145583990Y-105797146D01*
X145569054Y-105792615D01*
X145562587Y-105789158D01*
X145552153Y-105780596D01*
X145330316Y-105558759D01*
X145321754Y-105548325D01*
X145318297Y-105541859D01*
X145316169Y-105534844D01*
X145315451Y-105527549D01*
X145316169Y-105520254D01*
X145318297Y-105513239D01*
X145321754Y-105506773D01*
X145330316Y-105496339D01*
X146383003Y-104443652D01*
X146393437Y-104435090D01*
X146399903Y-104431633D01*
X146406918Y-104429505D01*
X146414213Y-104428787D01*
X146421508Y-104429505D01*
X146421508Y-104429505D01*
G37*
G36*
X143593082Y-104429505D02*
G01*
X143600097Y-104431633D01*
X143606563Y-104435090D01*
X143616997Y-104443652D01*
X144669684Y-105496339D01*
X144678246Y-105506773D01*
X144681703Y-105513239D01*
X144683831Y-105520254D01*
X144684549Y-105527549D01*
X144683831Y-105534844D01*
X144681703Y-105541859D01*
X144678246Y-105548325D01*
X144669684Y-105558759D01*
X144447847Y-105780596D01*
X144437413Y-105789158D01*
X144430946Y-105792615D01*
X144416010Y-105797146D01*
X144393371Y-105806523D01*
X144372997Y-105820137D01*
X144355670Y-105837464D01*
X144342056Y-105857839D01*
X144332680Y-105880476D01*
X144328149Y-105895412D01*
X144324692Y-105901879D01*
X144316130Y-105912313D01*
X144094293Y-106134150D01*
X144083859Y-106142712D01*
X144077393Y-106146169D01*
X144062456Y-106150700D01*
X144039817Y-106160078D01*
X144019443Y-106173692D01*
X144002116Y-106191019D01*
X143988503Y-106211394D01*
X143979127Y-106234029D01*
X143974596Y-106248966D01*
X143971139Y-106255432D01*
X143962577Y-106265866D01*
X143740740Y-106487703D01*
X143730306Y-106496265D01*
X143723839Y-106499722D01*
X143708903Y-106504253D01*
X143686264Y-106513630D01*
X143665890Y-106527244D01*
X143648563Y-106544571D01*
X143634949Y-106564946D01*
X143625573Y-106587583D01*
X143621042Y-106602519D01*
X143617585Y-106608986D01*
X143609023Y-106619420D01*
X143387186Y-106841257D01*
X143376752Y-106849819D01*
X143370286Y-106853276D01*
X143355349Y-106857807D01*
X143332710Y-106867185D01*
X143312336Y-106880799D01*
X143295009Y-106898126D01*
X143281396Y-106918501D01*
X143272020Y-106941136D01*
X143267489Y-106956073D01*
X143264032Y-106962539D01*
X143255470Y-106972973D01*
X143033633Y-107194810D01*
X143023199Y-107203372D01*
X143016733Y-107206829D01*
X143001796Y-107211360D01*
X142979157Y-107220738D01*
X142958783Y-107234352D01*
X142941456Y-107251679D01*
X142927843Y-107272054D01*
X142918467Y-107294689D01*
X142913936Y-107309626D01*
X142910479Y-107316092D01*
X142901917Y-107326526D01*
X142680080Y-107548363D01*
X142669646Y-107556925D01*
X142663179Y-107560382D01*
X142648243Y-107564913D01*
X142625604Y-107574290D01*
X142605230Y-107587904D01*
X142587903Y-107605231D01*
X142574289Y-107625606D01*
X142564913Y-107648243D01*
X142560382Y-107663179D01*
X142556925Y-107669646D01*
X142548363Y-107680080D01*
X142326526Y-107901917D01*
X142316092Y-107910479D01*
X142309626Y-107913936D01*
X142294689Y-107918467D01*
X142272050Y-107927845D01*
X142251676Y-107941459D01*
X142234349Y-107958786D01*
X142220736Y-107979161D01*
X142211360Y-108001796D01*
X142206829Y-108016733D01*
X142203372Y-108023199D01*
X142194810Y-108033633D01*
X141972973Y-108255470D01*
X141962539Y-108264032D01*
X141956073Y-108267489D01*
X141941136Y-108272020D01*
X141918497Y-108281398D01*
X141898123Y-108295012D01*
X141880796Y-108312339D01*
X141867183Y-108332714D01*
X141857807Y-108355349D01*
X141853276Y-108370286D01*
X141849819Y-108376752D01*
X141841257Y-108387186D01*
X141619420Y-108609023D01*
X141608986Y-108617585D01*
X141602519Y-108621042D01*
X141587583Y-108625573D01*
X141564944Y-108634950D01*
X141544570Y-108648564D01*
X141527243Y-108665891D01*
X141513629Y-108686266D01*
X141504253Y-108708903D01*
X141499722Y-108723839D01*
X141496265Y-108730306D01*
X141487703Y-108740740D01*
X141265866Y-108962577D01*
X141255432Y-108971139D01*
X141248966Y-108974596D01*
X141234029Y-108979127D01*
X141211390Y-108988505D01*
X141191016Y-109002119D01*
X141173689Y-109019446D01*
X141160076Y-109039821D01*
X141150700Y-109062456D01*
X141146169Y-109077393D01*
X141142712Y-109083859D01*
X141134150Y-109094293D01*
X140912313Y-109316130D01*
X140901879Y-109324692D01*
X140895412Y-109328149D01*
X140880476Y-109332680D01*
X140857837Y-109342057D01*
X140837463Y-109355671D01*
X140820136Y-109372998D01*
X140806522Y-109393373D01*
X140797146Y-109416010D01*
X140792615Y-109430946D01*
X140789158Y-109437413D01*
X140780596Y-109447847D01*
X140558759Y-109669684D01*
X140548325Y-109678246D01*
X140541859Y-109681703D01*
X140534844Y-109683831D01*
X140527549Y-109684549D01*
X140520254Y-109683831D01*
X140513239Y-109681703D01*
X140506773Y-109678246D01*
X140496339Y-109669684D01*
X139443652Y-108616997D01*
X139435090Y-108606563D01*
X139431633Y-108600097D01*
X139429505Y-108593082D01*
X139428787Y-108585787D01*
X139429505Y-108578492D01*
X139431633Y-108571477D01*
X139435090Y-108565011D01*
X139443652Y-108554577D01*
X139665489Y-108332740D01*
X139675923Y-108324178D01*
X139682390Y-108320721D01*
X139697326Y-108316190D01*
X139719965Y-108306813D01*
X139740339Y-108293199D01*
X139757666Y-108275872D01*
X139771280Y-108255497D01*
X139780656Y-108232860D01*
X139785187Y-108217924D01*
X139788644Y-108211457D01*
X139797206Y-108201023D01*
X140019043Y-107979186D01*
X140029477Y-107970624D01*
X140035943Y-107967167D01*
X140050880Y-107962636D01*
X140073519Y-107953258D01*
X140093893Y-107939644D01*
X140111220Y-107922317D01*
X140124833Y-107901942D01*
X140134209Y-107879307D01*
X140138740Y-107864370D01*
X140142197Y-107857904D01*
X140150759Y-107847470D01*
X140372596Y-107625633D01*
X140383030Y-107617071D01*
X140389497Y-107613614D01*
X140404433Y-107609083D01*
X140427072Y-107599706D01*
X140447446Y-107586092D01*
X140464773Y-107568765D01*
X140478387Y-107548390D01*
X140487763Y-107525753D01*
X140492294Y-107510817D01*
X140495751Y-107504350D01*
X140504313Y-107493916D01*
X140726150Y-107272079D01*
X140736584Y-107263517D01*
X140743050Y-107260060D01*
X140757987Y-107255529D01*
X140780626Y-107246151D01*
X140801000Y-107232537D01*
X140818327Y-107215210D01*
X140831940Y-107194835D01*
X140841316Y-107172200D01*
X140845847Y-107157263D01*
X140849304Y-107150797D01*
X140857866Y-107140363D01*
X141079703Y-106918526D01*
X141090137Y-106909964D01*
X141096603Y-106906507D01*
X141111540Y-106901976D01*
X141134179Y-106892598D01*
X141154553Y-106878984D01*
X141171880Y-106861657D01*
X141185493Y-106841282D01*
X141194869Y-106818647D01*
X141199400Y-106803710D01*
X141202857Y-106797244D01*
X141211419Y-106786810D01*
X141433256Y-106564973D01*
X141443690Y-106556411D01*
X141450157Y-106552954D01*
X141465093Y-106548423D01*
X141487732Y-106539046D01*
X141508106Y-106525432D01*
X141525433Y-106508105D01*
X141539047Y-106487730D01*
X141548423Y-106465093D01*
X141552954Y-106450157D01*
X141556411Y-106443690D01*
X141564973Y-106433256D01*
X141786810Y-106211419D01*
X141797244Y-106202857D01*
X141803710Y-106199400D01*
X141818647Y-106194869D01*
X141841286Y-106185491D01*
X141861660Y-106171877D01*
X141878987Y-106154550D01*
X141892600Y-106134175D01*
X141901976Y-106111540D01*
X141906507Y-106096603D01*
X141909964Y-106090137D01*
X141918526Y-106079703D01*
X142140363Y-105857866D01*
X142150797Y-105849304D01*
X142157263Y-105845847D01*
X142172200Y-105841316D01*
X142194839Y-105831938D01*
X142215213Y-105818324D01*
X142232540Y-105800997D01*
X142246153Y-105780622D01*
X142255529Y-105757987D01*
X142260060Y-105743050D01*
X142263517Y-105736584D01*
X142272079Y-105726150D01*
X142493916Y-105504313D01*
X142504350Y-105495751D01*
X142510817Y-105492294D01*
X142525753Y-105487763D01*
X142548392Y-105478386D01*
X142568766Y-105464772D01*
X142586093Y-105447445D01*
X142599707Y-105427070D01*
X142609083Y-105404433D01*
X142613614Y-105389497D01*
X142617071Y-105383030D01*
X142625633Y-105372596D01*
X142847470Y-105150759D01*
X142857904Y-105142197D01*
X142864370Y-105138740D01*
X142879307Y-105134209D01*
X142901946Y-105124831D01*
X142922320Y-105111217D01*
X142939647Y-105093890D01*
X142953260Y-105073515D01*
X142962636Y-105050880D01*
X142967167Y-105035943D01*
X142970624Y-105029477D01*
X142979186Y-105019043D01*
X143201023Y-104797206D01*
X143211457Y-104788644D01*
X143217924Y-104785187D01*
X143232860Y-104780656D01*
X143255499Y-104771279D01*
X143275873Y-104757665D01*
X143293200Y-104740338D01*
X143306814Y-104719963D01*
X143316190Y-104697326D01*
X143320721Y-104682390D01*
X143324178Y-104675923D01*
X143332740Y-104665489D01*
X143554577Y-104443652D01*
X143565011Y-104435090D01*
X143571477Y-104431633D01*
X143578492Y-104429505D01*
X143585787Y-104428787D01*
X143593082Y-104429505D01*
X143593082Y-104429505D01*
G37*
G36*
X120751000Y-109651000D02*
G01*
X120149000Y-109651000D01*
X120149000Y-108749000D01*
X120751000Y-108749000D01*
X120751000Y-109651000D01*
X120751000Y-109651000D01*
G37*
G36*
X119851000Y-109651000D02*
G01*
X119249000Y-109651000D01*
X119249000Y-108749000D01*
X119851000Y-108749000D01*
X119851000Y-109651000D01*
X119851000Y-109651000D01*
G37*
G36*
X159301000Y-109151000D02*
G01*
X156799000Y-109151000D01*
X156799000Y-108309000D01*
X159301000Y-108309000D01*
X159301000Y-109151000D01*
X159301000Y-109151000D01*
G37*
G36*
X163201000Y-109151000D02*
G01*
X160699000Y-109151000D01*
X160699000Y-108309000D01*
X163201000Y-108309000D01*
X163201000Y-109151000D01*
X163201000Y-109151000D01*
G37*
G36*
X163201000Y-107881000D02*
G01*
X160699000Y-107881000D01*
X160699000Y-107039000D01*
X163201000Y-107039000D01*
X163201000Y-107881000D01*
X163201000Y-107881000D01*
G37*
G36*
X159301000Y-107881000D02*
G01*
X156799000Y-107881000D01*
X156799000Y-107039000D01*
X159301000Y-107039000D01*
X159301000Y-107881000D01*
X159301000Y-107881000D01*
G37*
G36*
X191371000Y-101351000D02*
G01*
X190069000Y-101351000D01*
X190069000Y-99049000D01*
X191371000Y-99049000D01*
X191371000Y-101351000D01*
X191371000Y-101351000D01*
G37*
G36*
X171371000Y-101351000D02*
G01*
X170069000Y-101351000D01*
X170069000Y-99049000D01*
X171371000Y-99049000D01*
X171371000Y-101351000D01*
X171371000Y-101351000D01*
G37*
G36*
X183931000Y-101351000D02*
G01*
X182629000Y-101351000D01*
X182629000Y-99049000D01*
X183931000Y-99049000D01*
X183931000Y-101351000D01*
X183931000Y-101351000D01*
G37*
G36*
X179371000Y-101351000D02*
G01*
X178069000Y-101351000D01*
X178069000Y-99049000D01*
X179371000Y-99049000D01*
X179371000Y-101351000D01*
X179371000Y-101351000D01*
G37*
G36*
X175931000Y-101351000D02*
G01*
X174629000Y-101351000D01*
X174629000Y-99049000D01*
X175931000Y-99049000D01*
X175931000Y-101351000D01*
X175931000Y-101351000D01*
G37*
G36*
X203931000Y-101351000D02*
G01*
X202629000Y-101351000D01*
X202629000Y-99049000D01*
X203931000Y-99049000D01*
X203931000Y-101351000D01*
X203931000Y-101351000D01*
G37*
G36*
X199371000Y-101351000D02*
G01*
X198069000Y-101351000D01*
X198069000Y-99049000D01*
X199371000Y-99049000D01*
X199371000Y-101351000D01*
X199371000Y-101351000D01*
G37*
G36*
X195931000Y-101351000D02*
G01*
X194629000Y-101351000D01*
X194629000Y-99049000D01*
X195931000Y-99049000D01*
X195931000Y-101351000D01*
X195931000Y-101351000D01*
G37*
G36*
X175951000Y-97151000D02*
G01*
X170049000Y-97151000D01*
X170049000Y-90649000D01*
X175951000Y-90649000D01*
X175951000Y-97151000D01*
X175951000Y-97151000D01*
G37*
G36*
X183951000Y-97151000D02*
G01*
X178049000Y-97151000D01*
X178049000Y-90649000D01*
X183951000Y-90649000D01*
X183951000Y-97151000D01*
X183951000Y-97151000D01*
G37*
G36*
X195951000Y-97151000D02*
G01*
X190049000Y-97151000D01*
X190049000Y-90649000D01*
X195951000Y-90649000D01*
X195951000Y-97151000D01*
X195951000Y-97151000D01*
G37*
G36*
X203951000Y-97151000D02*
G01*
X198049000Y-97151000D01*
X198049000Y-90649000D01*
X203951000Y-90649000D01*
X203951000Y-97151000D01*
X203951000Y-97151000D01*
G37*
G36*
X135501000Y-93501000D02*
G01*
X134599000Y-93501000D01*
X134599000Y-92499000D01*
X135501000Y-92499000D01*
X135501000Y-93501000D01*
X135501000Y-93501000D01*
G37*
G36*
X123501000Y-93501000D02*
G01*
X122599000Y-93501000D01*
X122599000Y-92499000D01*
X123501000Y-92499000D01*
X123501000Y-93501000D01*
X123501000Y-93501000D01*
G37*
G36*
X125401000Y-93501000D02*
G01*
X124499000Y-93501000D01*
X124499000Y-92499000D01*
X125401000Y-92499000D01*
X125401000Y-93501000D01*
X125401000Y-93501000D01*
G37*
G36*
X117501000Y-93501000D02*
G01*
X116599000Y-93501000D01*
X116599000Y-92499000D01*
X117501000Y-92499000D01*
X117501000Y-93501000D01*
X117501000Y-93501000D01*
G37*
G36*
X119401000Y-93501000D02*
G01*
X118499000Y-93501000D01*
X118499000Y-92499000D01*
X119401000Y-92499000D01*
X119401000Y-93501000D01*
X119401000Y-93501000D01*
G37*
G36*
X107401000Y-93501000D02*
G01*
X106499000Y-93501000D01*
X106499000Y-92499000D01*
X107401000Y-92499000D01*
X107401000Y-93501000D01*
X107401000Y-93501000D01*
G37*
G36*
X105501000Y-93501000D02*
G01*
X104599000Y-93501000D01*
X104599000Y-92499000D01*
X105501000Y-92499000D01*
X105501000Y-93501000D01*
X105501000Y-93501000D01*
G37*
G36*
X101401000Y-93501000D02*
G01*
X100499000Y-93501000D01*
X100499000Y-92499000D01*
X101401000Y-92499000D01*
X101401000Y-93501000D01*
X101401000Y-93501000D01*
G37*
G36*
X161401000Y-93501000D02*
G01*
X160499000Y-93501000D01*
X160499000Y-92499000D01*
X161401000Y-92499000D01*
X161401000Y-93501000D01*
X161401000Y-93501000D01*
G37*
G36*
X99501000Y-93501000D02*
G01*
X98599000Y-93501000D01*
X98599000Y-92499000D01*
X99501000Y-92499000D01*
X99501000Y-93501000D01*
X99501000Y-93501000D01*
G37*
G36*
X137401000Y-93501000D02*
G01*
X136499000Y-93501000D01*
X136499000Y-92499000D01*
X137401000Y-92499000D01*
X137401000Y-93501000D01*
X137401000Y-93501000D01*
G37*
G36*
X141501000Y-93501000D02*
G01*
X140599000Y-93501000D01*
X140599000Y-92499000D01*
X141501000Y-92499000D01*
X141501000Y-93501000D01*
X141501000Y-93501000D01*
G37*
G36*
X143401000Y-93501000D02*
G01*
X142499000Y-93501000D01*
X142499000Y-92499000D01*
X143401000Y-92499000D01*
X143401000Y-93501000D01*
X143401000Y-93501000D01*
G37*
G36*
X155401000Y-93501000D02*
G01*
X154499000Y-93501000D01*
X154499000Y-92499000D01*
X155401000Y-92499000D01*
X155401000Y-93501000D01*
X155401000Y-93501000D01*
G37*
G36*
X159501000Y-93501000D02*
G01*
X158599000Y-93501000D01*
X158599000Y-92499000D01*
X159501000Y-92499000D01*
X159501000Y-93501000D01*
X159501000Y-93501000D01*
G37*
G36*
X153501000Y-93501000D02*
G01*
X152599000Y-93501000D01*
X152599000Y-92499000D01*
X153501000Y-92499000D01*
X153501000Y-93501000D01*
X153501000Y-93501000D01*
G37*
G36*
X100451000Y-91501000D02*
G01*
X99549000Y-91501000D01*
X99549000Y-90499000D01*
X100451000Y-90499000D01*
X100451000Y-91501000D01*
X100451000Y-91501000D01*
G37*
G36*
X154451000Y-91501000D02*
G01*
X153549000Y-91501000D01*
X153549000Y-90499000D01*
X154451000Y-90499000D01*
X154451000Y-91501000D01*
X154451000Y-91501000D01*
G37*
G36*
X160451000Y-91501000D02*
G01*
X159549000Y-91501000D01*
X159549000Y-90499000D01*
X160451000Y-90499000D01*
X160451000Y-91501000D01*
X160451000Y-91501000D01*
G37*
G36*
X142451000Y-91501000D02*
G01*
X141549000Y-91501000D01*
X141549000Y-90499000D01*
X142451000Y-90499000D01*
X142451000Y-91501000D01*
X142451000Y-91501000D01*
G37*
G36*
X118451000Y-91501000D02*
G01*
X117549000Y-91501000D01*
X117549000Y-90499000D01*
X118451000Y-90499000D01*
X118451000Y-91501000D01*
X118451000Y-91501000D01*
G37*
G36*
X136451000Y-91501000D02*
G01*
X135549000Y-91501000D01*
X135549000Y-90499000D01*
X136451000Y-90499000D01*
X136451000Y-91501000D01*
X136451000Y-91501000D01*
G37*
G36*
X124451000Y-91501000D02*
G01*
X123549000Y-91501000D01*
X123549000Y-90499000D01*
X124451000Y-90499000D01*
X124451000Y-91501000D01*
X124451000Y-91501000D01*
G37*
G36*
X106451000Y-91501000D02*
G01*
X105549000Y-91501000D01*
X105549000Y-90499000D01*
X106451000Y-90499000D01*
X106451000Y-91501000D01*
X106451000Y-91501000D01*
G37*
G36*
X138651000Y-85731000D02*
G01*
X137349000Y-85731000D01*
X137349000Y-83429000D01*
X138651000Y-83429000D01*
X138651000Y-85731000D01*
X138651000Y-85731000D01*
G37*
G36*
X102651000Y-85731000D02*
G01*
X101349000Y-85731000D01*
X101349000Y-83429000D01*
X102651000Y-83429000D01*
X102651000Y-85731000D01*
X102651000Y-85731000D01*
G37*
G36*
X118651000Y-85731000D02*
G01*
X117349000Y-85731000D01*
X117349000Y-83429000D01*
X118651000Y-83429000D01*
X118651000Y-85731000D01*
X118651000Y-85731000D01*
G37*
G36*
X106651000Y-85731000D02*
G01*
X105349000Y-85731000D01*
X105349000Y-83429000D01*
X106651000Y-83429000D01*
X106651000Y-85731000D01*
X106651000Y-85731000D01*
G37*
G36*
X174651000Y-85731000D02*
G01*
X173349000Y-85731000D01*
X173349000Y-83429000D01*
X174651000Y-83429000D01*
X174651000Y-85731000D01*
X174651000Y-85731000D01*
G37*
G36*
X156651000Y-85731000D02*
G01*
X155349000Y-85731000D01*
X155349000Y-83429000D01*
X156651000Y-83429000D01*
X156651000Y-85731000D01*
X156651000Y-85731000D01*
G37*
G36*
X158651000Y-85731000D02*
G01*
X157349000Y-85731000D01*
X157349000Y-83429000D01*
X158651000Y-83429000D01*
X158651000Y-85731000D01*
X158651000Y-85731000D01*
G37*
G36*
X160651000Y-85731000D02*
G01*
X159349000Y-85731000D01*
X159349000Y-83429000D01*
X160651000Y-83429000D01*
X160651000Y-85731000D01*
X160651000Y-85731000D01*
G37*
G36*
X136651000Y-85731000D02*
G01*
X135349000Y-85731000D01*
X135349000Y-83429000D01*
X136651000Y-83429000D01*
X136651000Y-85731000D01*
X136651000Y-85731000D01*
G37*
G36*
X176651000Y-85731000D02*
G01*
X175349000Y-85731000D01*
X175349000Y-83429000D01*
X176651000Y-83429000D01*
X176651000Y-85731000D01*
X176651000Y-85731000D01*
G37*
G36*
X178651000Y-85731000D02*
G01*
X177349000Y-85731000D01*
X177349000Y-83429000D01*
X178651000Y-83429000D01*
X178651000Y-85731000D01*
X178651000Y-85731000D01*
G37*
G36*
X180651000Y-85731000D02*
G01*
X179349000Y-85731000D01*
X179349000Y-83429000D01*
X180651000Y-83429000D01*
X180651000Y-85731000D01*
X180651000Y-85731000D01*
G37*
G36*
X140651000Y-85731000D02*
G01*
X139349000Y-85731000D01*
X139349000Y-83429000D01*
X140651000Y-83429000D01*
X140651000Y-85731000D01*
X140651000Y-85731000D01*
G37*
G36*
X142651000Y-85731000D02*
G01*
X141349000Y-85731000D01*
X141349000Y-83429000D01*
X142651000Y-83429000D01*
X142651000Y-85731000D01*
X142651000Y-85731000D01*
G37*
G36*
X104651000Y-85731000D02*
G01*
X103349000Y-85731000D01*
X103349000Y-83429000D01*
X104651000Y-83429000D01*
X104651000Y-85731000D01*
X104651000Y-85731000D01*
G37*
G36*
X122651000Y-85731000D02*
G01*
X121349000Y-85731000D01*
X121349000Y-83429000D01*
X122651000Y-83429000D01*
X122651000Y-85731000D01*
X122651000Y-85731000D01*
G37*
G36*
X154651000Y-85731000D02*
G01*
X153349000Y-85731000D01*
X153349000Y-83429000D01*
X154651000Y-83429000D01*
X154651000Y-85731000D01*
X154651000Y-85731000D01*
G37*
G36*
X124651000Y-85731000D02*
G01*
X123349000Y-85731000D01*
X123349000Y-83429000D01*
X124651000Y-83429000D01*
X124651000Y-85731000D01*
X124651000Y-85731000D01*
G37*
G36*
X200651000Y-85731000D02*
G01*
X199349000Y-85731000D01*
X199349000Y-83429000D01*
X200651000Y-83429000D01*
X200651000Y-85731000D01*
X200651000Y-85731000D01*
G37*
G36*
X198651000Y-85731000D02*
G01*
X197349000Y-85731000D01*
X197349000Y-83429000D01*
X198651000Y-83429000D01*
X198651000Y-85731000D01*
X198651000Y-85731000D01*
G37*
G36*
X196651000Y-85731000D02*
G01*
X195349000Y-85731000D01*
X195349000Y-83429000D01*
X196651000Y-83429000D01*
X196651000Y-85731000D01*
X196651000Y-85731000D01*
G37*
G36*
X194651000Y-85731000D02*
G01*
X193349000Y-85731000D01*
X193349000Y-83429000D01*
X194651000Y-83429000D01*
X194651000Y-85731000D01*
X194651000Y-85731000D01*
G37*
G36*
X120651000Y-85731000D02*
G01*
X119349000Y-85731000D01*
X119349000Y-83429000D01*
X120651000Y-83429000D01*
X120651000Y-85731000D01*
X120651000Y-85731000D01*
G37*
G36*
X100651000Y-85731000D02*
G01*
X99349000Y-85731000D01*
X99349000Y-83429000D01*
X100651000Y-83429000D01*
X100651000Y-85731000D01*
X100651000Y-85731000D01*
G37*
G36*
X89748156Y-76672794D02*
G01*
X90469140Y-76816206D01*
X91260972Y-77144193D01*
X91973601Y-77620357D01*
X92579643Y-78226399D01*
X93055807Y-78939028D01*
X93383794Y-79730860D01*
X93551000Y-80571464D01*
X93551000Y-81428536D01*
X93383794Y-82269140D01*
X93055807Y-83060972D01*
X92579643Y-83773601D01*
X91973601Y-84379643D01*
X91260972Y-84855807D01*
X90469140Y-85183794D01*
X89748156Y-85327206D01*
X89628537Y-85351000D01*
X88771463Y-85351000D01*
X88651844Y-85327206D01*
X87930860Y-85183794D01*
X87139028Y-84855807D01*
X86426399Y-84379643D01*
X85820357Y-83773601D01*
X85344193Y-83060972D01*
X85016206Y-82269140D01*
X84849000Y-81428536D01*
X84849000Y-80571464D01*
X85016206Y-79730860D01*
X85344193Y-78939028D01*
X85820357Y-78226399D01*
X86426399Y-77620357D01*
X87139028Y-77144193D01*
X87930860Y-76816206D01*
X88651844Y-76672794D01*
X88771463Y-76649000D01*
X89628537Y-76649000D01*
X89748156Y-76672794D01*
X89748156Y-76672794D01*
G37*
G36*
X211348156Y-76672794D02*
G01*
X212069140Y-76816206D01*
X212860972Y-77144193D01*
X213573601Y-77620357D01*
X214179643Y-78226399D01*
X214655807Y-78939028D01*
X214983794Y-79730860D01*
X215151000Y-80571464D01*
X215151000Y-81428536D01*
X214983794Y-82269140D01*
X214655807Y-83060972D01*
X214179643Y-83773601D01*
X213573601Y-84379643D01*
X212860972Y-84855807D01*
X212069140Y-85183794D01*
X211348156Y-85327206D01*
X211228537Y-85351000D01*
X210371463Y-85351000D01*
X210251844Y-85327206D01*
X209530860Y-85183794D01*
X208739028Y-84855807D01*
X208026399Y-84379643D01*
X207420357Y-83773601D01*
X206944193Y-83060972D01*
X206616206Y-82269140D01*
X206449000Y-81428536D01*
X206449000Y-80571464D01*
X206616206Y-79730860D01*
X206944193Y-78939028D01*
X207420357Y-78226399D01*
X208026399Y-77620357D01*
X208739028Y-77144193D01*
X209530860Y-76816206D01*
X210251844Y-76672794D01*
X210371463Y-76649000D01*
X211228537Y-76649000D01*
X211348156Y-76672794D01*
X211348156Y-76672794D01*
G37*
G36*
X128651000Y-81151000D02*
G01*
X126549000Y-81151000D01*
X126549000Y-76849000D01*
X128651000Y-76849000D01*
X128651000Y-81151000D01*
X128651000Y-81151000D01*
G37*
G36*
X204651000Y-81151000D02*
G01*
X202549000Y-81151000D01*
X202549000Y-76849000D01*
X204651000Y-76849000D01*
X204651000Y-81151000D01*
X204651000Y-81151000D01*
G37*
G36*
X191451000Y-81151000D02*
G01*
X189349000Y-81151000D01*
X189349000Y-76849000D01*
X191451000Y-76849000D01*
X191451000Y-81151000D01*
X191451000Y-81151000D01*
G37*
G36*
X184651000Y-81151000D02*
G01*
X182549000Y-81151000D01*
X182549000Y-76849000D01*
X184651000Y-76849000D01*
X184651000Y-81151000D01*
X184651000Y-81151000D01*
G37*
G36*
X171451000Y-81151000D02*
G01*
X169349000Y-81151000D01*
X169349000Y-76849000D01*
X171451000Y-76849000D01*
X171451000Y-81151000D01*
X171451000Y-81151000D01*
G37*
G36*
X164651000Y-81151000D02*
G01*
X162549000Y-81151000D01*
X162549000Y-76849000D01*
X164651000Y-76849000D01*
X164651000Y-81151000D01*
X164651000Y-81151000D01*
G37*
G36*
X97451000Y-81151000D02*
G01*
X95349000Y-81151000D01*
X95349000Y-76849000D01*
X97451000Y-76849000D01*
X97451000Y-81151000D01*
X97451000Y-81151000D01*
G37*
G36*
X151451000Y-81151000D02*
G01*
X149349000Y-81151000D01*
X149349000Y-76849000D01*
X151451000Y-76849000D01*
X151451000Y-81151000D01*
X151451000Y-81151000D01*
G37*
G36*
X146651000Y-81151000D02*
G01*
X144549000Y-81151000D01*
X144549000Y-76849000D01*
X146651000Y-76849000D01*
X146651000Y-81151000D01*
X146651000Y-81151000D01*
G37*
G36*
X133451000Y-81151000D02*
G01*
X131349000Y-81151000D01*
X131349000Y-76849000D01*
X133451000Y-76849000D01*
X133451000Y-81151000D01*
X133451000Y-81151000D01*
G37*
G36*
X115451000Y-81151000D02*
G01*
X113349000Y-81151000D01*
X113349000Y-76849000D01*
X115451000Y-76849000D01*
X115451000Y-81151000D01*
X115451000Y-81151000D01*
G37*
G36*
X110651000Y-81151000D02*
G01*
X108549000Y-81151000D01*
X108549000Y-76849000D01*
X110651000Y-76849000D01*
X110651000Y-81151000D01*
X110651000Y-81151000D01*
G37*
M02*
