G04 #@! TF.GenerationSoftware,KiCad,Pcbnew,(5.1.2)-1*
G04 #@! TF.CreationDate,2019-09-05T21:25:15-07:00*
G04 #@! TF.ProjectId,design,64657369-676e-42e6-9b69-6361645f7063,rev?*
G04 #@! TF.SameCoordinates,Original*
G04 #@! TF.FileFunction,Soldermask,Bot*
G04 #@! TF.FilePolarity,Negative*
%FSLAX46Y46*%
G04 Gerber Fmt 4.6, Leading zero omitted, Abs format (unit mm)*
G04 Created by KiCad (PCBNEW (5.1.2)-1) date 2019-09-05 21:25:15*
%MOMM*%
%LPD*%
G04 APERTURE LIST*
%ADD10C,0.100000*%
G04 APERTURE END LIST*
D10*
G36*
X211348156Y-134672794D02*
G01*
X212069140Y-134816206D01*
X212860972Y-135144193D01*
X213573601Y-135620357D01*
X214179643Y-136226399D01*
X214655807Y-136939028D01*
X214983794Y-137730860D01*
X215151000Y-138571464D01*
X215151000Y-139428536D01*
X214983794Y-140269140D01*
X214655807Y-141060972D01*
X214179643Y-141773601D01*
X213573601Y-142379643D01*
X212860972Y-142855807D01*
X212069140Y-143183794D01*
X211348156Y-143327206D01*
X211228537Y-143351000D01*
X210371463Y-143351000D01*
X210251844Y-143327206D01*
X209530860Y-143183794D01*
X208739028Y-142855807D01*
X208026399Y-142379643D01*
X207420357Y-141773601D01*
X206944193Y-141060972D01*
X206616206Y-140269140D01*
X206449000Y-139428536D01*
X206449000Y-138571464D01*
X206616206Y-137730860D01*
X206944193Y-136939028D01*
X207420357Y-136226399D01*
X208026399Y-135620357D01*
X208739028Y-135144193D01*
X209530860Y-134816206D01*
X210251844Y-134672794D01*
X210371463Y-134649000D01*
X211228537Y-134649000D01*
X211348156Y-134672794D01*
X211348156Y-134672794D01*
G37*
G36*
X89748156Y-134672794D02*
G01*
X90469140Y-134816206D01*
X91260972Y-135144193D01*
X91973601Y-135620357D01*
X92579643Y-136226399D01*
X93055807Y-136939028D01*
X93383794Y-137730860D01*
X93551000Y-138571464D01*
X93551000Y-139428536D01*
X93383794Y-140269140D01*
X93055807Y-141060972D01*
X92579643Y-141773601D01*
X91973601Y-142379643D01*
X91260972Y-142855807D01*
X90469140Y-143183794D01*
X89748156Y-143327206D01*
X89628537Y-143351000D01*
X88771463Y-143351000D01*
X88651844Y-143327206D01*
X87930860Y-143183794D01*
X87139028Y-142855807D01*
X86426399Y-142379643D01*
X85820357Y-141773601D01*
X85344193Y-141060972D01*
X85016206Y-140269140D01*
X84849000Y-139428536D01*
X84849000Y-138571464D01*
X85016206Y-137730860D01*
X85344193Y-136939028D01*
X85820357Y-136226399D01*
X86426399Y-135620357D01*
X87139028Y-135144193D01*
X87930860Y-134816206D01*
X88651844Y-134672794D01*
X88771463Y-134649000D01*
X89628537Y-134649000D01*
X89748156Y-134672794D01*
X89748156Y-134672794D01*
G37*
G36*
X169326000Y-141681000D02*
G01*
X166674000Y-141681000D01*
X166674000Y-140519000D01*
X169326000Y-140519000D01*
X169326000Y-141681000D01*
X169326000Y-141681000D01*
G37*
G36*
X162451000Y-141501000D02*
G01*
X161549000Y-141501000D01*
X161549000Y-140499000D01*
X162451000Y-140499000D01*
X162451000Y-141501000D01*
X162451000Y-141501000D01*
G37*
G36*
X165379591Y-140303085D02*
G01*
X165413569Y-140313393D01*
X165444890Y-140330134D01*
X165472339Y-140352661D01*
X165494866Y-140380110D01*
X165511607Y-140411431D01*
X165521915Y-140445409D01*
X165526000Y-140486890D01*
X165526000Y-141088110D01*
X165521915Y-141129591D01*
X165511607Y-141163569D01*
X165494866Y-141194890D01*
X165472339Y-141222339D01*
X165444890Y-141244866D01*
X165413569Y-141261607D01*
X165379591Y-141271915D01*
X165338110Y-141276000D01*
X164661890Y-141276000D01*
X164620409Y-141271915D01*
X164586431Y-141261607D01*
X164555110Y-141244866D01*
X164527661Y-141222339D01*
X164505134Y-141194890D01*
X164488393Y-141163569D01*
X164478085Y-141129591D01*
X164474000Y-141088110D01*
X164474000Y-140486890D01*
X164478085Y-140445409D01*
X164488393Y-140411431D01*
X164505134Y-140380110D01*
X164527661Y-140352661D01*
X164555110Y-140330134D01*
X164586431Y-140313393D01*
X164620409Y-140303085D01*
X164661890Y-140299000D01*
X165338110Y-140299000D01*
X165379591Y-140303085D01*
X165379591Y-140303085D01*
G37*
G36*
X171379591Y-140303085D02*
G01*
X171413569Y-140313393D01*
X171444890Y-140330134D01*
X171472339Y-140352661D01*
X171494866Y-140380110D01*
X171511607Y-140411431D01*
X171521915Y-140445409D01*
X171526000Y-140486890D01*
X171526000Y-141088110D01*
X171521915Y-141129591D01*
X171511607Y-141163569D01*
X171494866Y-141194890D01*
X171472339Y-141222339D01*
X171444890Y-141244866D01*
X171413569Y-141261607D01*
X171379591Y-141271915D01*
X171338110Y-141276000D01*
X170661890Y-141276000D01*
X170620409Y-141271915D01*
X170586431Y-141261607D01*
X170555110Y-141244866D01*
X170527661Y-141222339D01*
X170505134Y-141194890D01*
X170488393Y-141163569D01*
X170478085Y-141129591D01*
X170474000Y-141088110D01*
X170474000Y-140486890D01*
X170478085Y-140445409D01*
X170488393Y-140411431D01*
X170505134Y-140380110D01*
X170527661Y-140352661D01*
X170555110Y-140330134D01*
X170586431Y-140313393D01*
X170620409Y-140303085D01*
X170661890Y-140299000D01*
X171338110Y-140299000D01*
X171379591Y-140303085D01*
X171379591Y-140303085D01*
G37*
G36*
X165379591Y-138728085D02*
G01*
X165413569Y-138738393D01*
X165444890Y-138755134D01*
X165472339Y-138777661D01*
X165494866Y-138805110D01*
X165511607Y-138836431D01*
X165521915Y-138870409D01*
X165526000Y-138911890D01*
X165526000Y-139513110D01*
X165521915Y-139554591D01*
X165511607Y-139588569D01*
X165494866Y-139619890D01*
X165472339Y-139647339D01*
X165444890Y-139669866D01*
X165413569Y-139686607D01*
X165379591Y-139696915D01*
X165338110Y-139701000D01*
X164661890Y-139701000D01*
X164620409Y-139696915D01*
X164586431Y-139686607D01*
X164555110Y-139669866D01*
X164527661Y-139647339D01*
X164505134Y-139619890D01*
X164488393Y-139588569D01*
X164478085Y-139554591D01*
X164474000Y-139513110D01*
X164474000Y-138911890D01*
X164478085Y-138870409D01*
X164488393Y-138836431D01*
X164505134Y-138805110D01*
X164527661Y-138777661D01*
X164555110Y-138755134D01*
X164586431Y-138738393D01*
X164620409Y-138728085D01*
X164661890Y-138724000D01*
X165338110Y-138724000D01*
X165379591Y-138728085D01*
X165379591Y-138728085D01*
G37*
G36*
X171379591Y-138728085D02*
G01*
X171413569Y-138738393D01*
X171444890Y-138755134D01*
X171472339Y-138777661D01*
X171494866Y-138805110D01*
X171511607Y-138836431D01*
X171521915Y-138870409D01*
X171526000Y-138911890D01*
X171526000Y-139513110D01*
X171521915Y-139554591D01*
X171511607Y-139588569D01*
X171494866Y-139619890D01*
X171472339Y-139647339D01*
X171444890Y-139669866D01*
X171413569Y-139686607D01*
X171379591Y-139696915D01*
X171338110Y-139701000D01*
X170661890Y-139701000D01*
X170620409Y-139696915D01*
X170586431Y-139686607D01*
X170555110Y-139669866D01*
X170527661Y-139647339D01*
X170505134Y-139619890D01*
X170488393Y-139588569D01*
X170478085Y-139554591D01*
X170474000Y-139513110D01*
X170474000Y-138911890D01*
X170478085Y-138870409D01*
X170488393Y-138836431D01*
X170505134Y-138805110D01*
X170527661Y-138777661D01*
X170555110Y-138755134D01*
X170586431Y-138738393D01*
X170620409Y-138728085D01*
X170661890Y-138724000D01*
X171338110Y-138724000D01*
X171379591Y-138728085D01*
X171379591Y-138728085D01*
G37*
G36*
X161501000Y-139501000D02*
G01*
X160599000Y-139501000D01*
X160599000Y-138499000D01*
X161501000Y-138499000D01*
X161501000Y-139501000D01*
X161501000Y-139501000D01*
G37*
G36*
X163401000Y-139501000D02*
G01*
X162499000Y-139501000D01*
X162499000Y-138499000D01*
X163401000Y-138499000D01*
X163401000Y-139501000D01*
X163401000Y-139501000D01*
G37*
G36*
X167426000Y-139481000D02*
G01*
X166674000Y-139481000D01*
X166674000Y-138319000D01*
X167426000Y-138319000D01*
X167426000Y-139481000D01*
X167426000Y-139481000D01*
G37*
G36*
X169326000Y-139481000D02*
G01*
X168574000Y-139481000D01*
X168574000Y-138319000D01*
X169326000Y-138319000D01*
X169326000Y-139481000D01*
X169326000Y-139481000D01*
G37*
G36*
X169309468Y-135253565D02*
G01*
X169348138Y-135265296D01*
X169383777Y-135284346D01*
X169415017Y-135309983D01*
X169440654Y-135341223D01*
X169459704Y-135376862D01*
X169471435Y-135415532D01*
X169476000Y-135461888D01*
X169476000Y-136538112D01*
X169471435Y-136584468D01*
X169459704Y-136623138D01*
X169440654Y-136658777D01*
X169415017Y-136690017D01*
X169383777Y-136715654D01*
X169348138Y-136734704D01*
X169309468Y-136746435D01*
X169263112Y-136751000D01*
X168611888Y-136751000D01*
X168565532Y-136746435D01*
X168526862Y-136734704D01*
X168491223Y-136715654D01*
X168459983Y-136690017D01*
X168434346Y-136658777D01*
X168415296Y-136623138D01*
X168403565Y-136584468D01*
X168399000Y-136538112D01*
X168399000Y-135461888D01*
X168403565Y-135415532D01*
X168415296Y-135376862D01*
X168434346Y-135341223D01*
X168459983Y-135309983D01*
X168491223Y-135284346D01*
X168526862Y-135265296D01*
X168565532Y-135253565D01*
X168611888Y-135249000D01*
X169263112Y-135249000D01*
X169309468Y-135253565D01*
X169309468Y-135253565D01*
G37*
G36*
X167434468Y-135253565D02*
G01*
X167473138Y-135265296D01*
X167508777Y-135284346D01*
X167540017Y-135309983D01*
X167565654Y-135341223D01*
X167584704Y-135376862D01*
X167596435Y-135415532D01*
X167601000Y-135461888D01*
X167601000Y-136538112D01*
X167596435Y-136584468D01*
X167584704Y-136623138D01*
X167565654Y-136658777D01*
X167540017Y-136690017D01*
X167508777Y-136715654D01*
X167473138Y-136734704D01*
X167434468Y-136746435D01*
X167388112Y-136751000D01*
X166736888Y-136751000D01*
X166690532Y-136746435D01*
X166651862Y-136734704D01*
X166616223Y-136715654D01*
X166584983Y-136690017D01*
X166559346Y-136658777D01*
X166540296Y-136623138D01*
X166528565Y-136584468D01*
X166524000Y-136538112D01*
X166524000Y-135461888D01*
X166528565Y-135415532D01*
X166540296Y-135376862D01*
X166559346Y-135341223D01*
X166584983Y-135309983D01*
X166616223Y-135284346D01*
X166651862Y-135265296D01*
X166690532Y-135253565D01*
X166736888Y-135249000D01*
X167388112Y-135249000D01*
X167434468Y-135253565D01*
X167434468Y-135253565D01*
G37*
G36*
X150379591Y-133303085D02*
G01*
X150413569Y-133313393D01*
X150444890Y-133330134D01*
X150472339Y-133352661D01*
X150494866Y-133380110D01*
X150511607Y-133411431D01*
X150521915Y-133445409D01*
X150526000Y-133486890D01*
X150526000Y-134088110D01*
X150521915Y-134129591D01*
X150511607Y-134163569D01*
X150494866Y-134194890D01*
X150472339Y-134222339D01*
X150444890Y-134244866D01*
X150413569Y-134261607D01*
X150379591Y-134271915D01*
X150338110Y-134276000D01*
X149661890Y-134276000D01*
X149620409Y-134271915D01*
X149586431Y-134261607D01*
X149555110Y-134244866D01*
X149527661Y-134222339D01*
X149505134Y-134194890D01*
X149488393Y-134163569D01*
X149478085Y-134129591D01*
X149474000Y-134088110D01*
X149474000Y-133486890D01*
X149478085Y-133445409D01*
X149488393Y-133411431D01*
X149505134Y-133380110D01*
X149527661Y-133352661D01*
X149555110Y-133330134D01*
X149586431Y-133313393D01*
X149620409Y-133303085D01*
X149661890Y-133299000D01*
X150338110Y-133299000D01*
X150379591Y-133303085D01*
X150379591Y-133303085D01*
G37*
G36*
X152379591Y-133303085D02*
G01*
X152413569Y-133313393D01*
X152444890Y-133330134D01*
X152472339Y-133352661D01*
X152494866Y-133380110D01*
X152511607Y-133411431D01*
X152521915Y-133445409D01*
X152526000Y-133486890D01*
X152526000Y-134088110D01*
X152521915Y-134129591D01*
X152511607Y-134163569D01*
X152494866Y-134194890D01*
X152472339Y-134222339D01*
X152444890Y-134244866D01*
X152413569Y-134261607D01*
X152379591Y-134271915D01*
X152338110Y-134276000D01*
X151661890Y-134276000D01*
X151620409Y-134271915D01*
X151586431Y-134261607D01*
X151555110Y-134244866D01*
X151527661Y-134222339D01*
X151505134Y-134194890D01*
X151488393Y-134163569D01*
X151478085Y-134129591D01*
X151474000Y-134088110D01*
X151474000Y-133486890D01*
X151478085Y-133445409D01*
X151488393Y-133411431D01*
X151505134Y-133380110D01*
X151527661Y-133352661D01*
X151555110Y-133330134D01*
X151586431Y-133313393D01*
X151620409Y-133303085D01*
X151661890Y-133299000D01*
X152338110Y-133299000D01*
X152379591Y-133303085D01*
X152379591Y-133303085D01*
G37*
G36*
X148379591Y-133303085D02*
G01*
X148413569Y-133313393D01*
X148444890Y-133330134D01*
X148472339Y-133352661D01*
X148494866Y-133380110D01*
X148511607Y-133411431D01*
X148521915Y-133445409D01*
X148526000Y-133486890D01*
X148526000Y-134088110D01*
X148521915Y-134129591D01*
X148511607Y-134163569D01*
X148494866Y-134194890D01*
X148472339Y-134222339D01*
X148444890Y-134244866D01*
X148413569Y-134261607D01*
X148379591Y-134271915D01*
X148338110Y-134276000D01*
X147661890Y-134276000D01*
X147620409Y-134271915D01*
X147586431Y-134261607D01*
X147555110Y-134244866D01*
X147527661Y-134222339D01*
X147505134Y-134194890D01*
X147488393Y-134163569D01*
X147478085Y-134129591D01*
X147474000Y-134088110D01*
X147474000Y-133486890D01*
X147478085Y-133445409D01*
X147488393Y-133411431D01*
X147505134Y-133380110D01*
X147527661Y-133352661D01*
X147555110Y-133330134D01*
X147586431Y-133313393D01*
X147620409Y-133303085D01*
X147661890Y-133299000D01*
X148338110Y-133299000D01*
X148379591Y-133303085D01*
X148379591Y-133303085D01*
G37*
G36*
X152379591Y-131728085D02*
G01*
X152413569Y-131738393D01*
X152444890Y-131755134D01*
X152472339Y-131777661D01*
X152494866Y-131805110D01*
X152511607Y-131836431D01*
X152521915Y-131870409D01*
X152526000Y-131911890D01*
X152526000Y-132513110D01*
X152521915Y-132554591D01*
X152511607Y-132588569D01*
X152494866Y-132619890D01*
X152472339Y-132647339D01*
X152444890Y-132669866D01*
X152413569Y-132686607D01*
X152379591Y-132696915D01*
X152338110Y-132701000D01*
X151661890Y-132701000D01*
X151620409Y-132696915D01*
X151586431Y-132686607D01*
X151555110Y-132669866D01*
X151527661Y-132647339D01*
X151505134Y-132619890D01*
X151488393Y-132588569D01*
X151478085Y-132554591D01*
X151474000Y-132513110D01*
X151474000Y-131911890D01*
X151478085Y-131870409D01*
X151488393Y-131836431D01*
X151505134Y-131805110D01*
X151527661Y-131777661D01*
X151555110Y-131755134D01*
X151586431Y-131738393D01*
X151620409Y-131728085D01*
X151661890Y-131724000D01*
X152338110Y-131724000D01*
X152379591Y-131728085D01*
X152379591Y-131728085D01*
G37*
G36*
X150379591Y-131728085D02*
G01*
X150413569Y-131738393D01*
X150444890Y-131755134D01*
X150472339Y-131777661D01*
X150494866Y-131805110D01*
X150511607Y-131836431D01*
X150521915Y-131870409D01*
X150526000Y-131911890D01*
X150526000Y-132513110D01*
X150521915Y-132554591D01*
X150511607Y-132588569D01*
X150494866Y-132619890D01*
X150472339Y-132647339D01*
X150444890Y-132669866D01*
X150413569Y-132686607D01*
X150379591Y-132696915D01*
X150338110Y-132701000D01*
X149661890Y-132701000D01*
X149620409Y-132696915D01*
X149586431Y-132686607D01*
X149555110Y-132669866D01*
X149527661Y-132647339D01*
X149505134Y-132619890D01*
X149488393Y-132588569D01*
X149478085Y-132554591D01*
X149474000Y-132513110D01*
X149474000Y-131911890D01*
X149478085Y-131870409D01*
X149488393Y-131836431D01*
X149505134Y-131805110D01*
X149527661Y-131777661D01*
X149555110Y-131755134D01*
X149586431Y-131738393D01*
X149620409Y-131728085D01*
X149661890Y-131724000D01*
X150338110Y-131724000D01*
X150379591Y-131728085D01*
X150379591Y-131728085D01*
G37*
G36*
X148379591Y-131728085D02*
G01*
X148413569Y-131738393D01*
X148444890Y-131755134D01*
X148472339Y-131777661D01*
X148494866Y-131805110D01*
X148511607Y-131836431D01*
X148521915Y-131870409D01*
X148526000Y-131911890D01*
X148526000Y-132513110D01*
X148521915Y-132554591D01*
X148511607Y-132588569D01*
X148494866Y-132619890D01*
X148472339Y-132647339D01*
X148444890Y-132669866D01*
X148413569Y-132686607D01*
X148379591Y-132696915D01*
X148338110Y-132701000D01*
X147661890Y-132701000D01*
X147620409Y-132696915D01*
X147586431Y-132686607D01*
X147555110Y-132669866D01*
X147527661Y-132647339D01*
X147505134Y-132619890D01*
X147488393Y-132588569D01*
X147478085Y-132554591D01*
X147474000Y-132513110D01*
X147474000Y-131911890D01*
X147478085Y-131870409D01*
X147488393Y-131836431D01*
X147505134Y-131805110D01*
X147527661Y-131777661D01*
X147555110Y-131755134D01*
X147586431Y-131738393D01*
X147620409Y-131728085D01*
X147661890Y-131724000D01*
X148338110Y-131724000D01*
X148379591Y-131728085D01*
X148379591Y-131728085D01*
G37*
G36*
X201918604Y-129078347D02*
G01*
X201955144Y-129089432D01*
X201988821Y-129107433D01*
X202018341Y-129131659D01*
X202042567Y-129161179D01*
X202060568Y-129194856D01*
X202071653Y-129231396D01*
X202076000Y-129275538D01*
X202076000Y-130724462D01*
X202071653Y-130768604D01*
X202060568Y-130805144D01*
X202042567Y-130838821D01*
X202018341Y-130868341D01*
X201988821Y-130892567D01*
X201955144Y-130910568D01*
X201918604Y-130921653D01*
X201874462Y-130926000D01*
X200925538Y-130926000D01*
X200881396Y-130921653D01*
X200844856Y-130910568D01*
X200811179Y-130892567D01*
X200781659Y-130868341D01*
X200757433Y-130838821D01*
X200739432Y-130805144D01*
X200728347Y-130768604D01*
X200724000Y-130724462D01*
X200724000Y-129275538D01*
X200728347Y-129231396D01*
X200739432Y-129194856D01*
X200757433Y-129161179D01*
X200781659Y-129131659D01*
X200811179Y-129107433D01*
X200844856Y-129089432D01*
X200881396Y-129078347D01*
X200925538Y-129074000D01*
X201874462Y-129074000D01*
X201918604Y-129078347D01*
X201918604Y-129078347D01*
G37*
G36*
X199118604Y-129078347D02*
G01*
X199155144Y-129089432D01*
X199188821Y-129107433D01*
X199218341Y-129131659D01*
X199242567Y-129161179D01*
X199260568Y-129194856D01*
X199271653Y-129231396D01*
X199276000Y-129275538D01*
X199276000Y-130724462D01*
X199271653Y-130768604D01*
X199260568Y-130805144D01*
X199242567Y-130838821D01*
X199218341Y-130868341D01*
X199188821Y-130892567D01*
X199155144Y-130910568D01*
X199118604Y-130921653D01*
X199074462Y-130926000D01*
X198125538Y-130926000D01*
X198081396Y-130921653D01*
X198044856Y-130910568D01*
X198011179Y-130892567D01*
X197981659Y-130868341D01*
X197957433Y-130838821D01*
X197939432Y-130805144D01*
X197928347Y-130768604D01*
X197924000Y-130724462D01*
X197924000Y-129275538D01*
X197928347Y-129231396D01*
X197939432Y-129194856D01*
X197957433Y-129161179D01*
X197981659Y-129131659D01*
X198011179Y-129107433D01*
X198044856Y-129089432D01*
X198081396Y-129078347D01*
X198125538Y-129074000D01*
X199074462Y-129074000D01*
X199118604Y-129078347D01*
X199118604Y-129078347D01*
G37*
G36*
X196129591Y-129478085D02*
G01*
X196163569Y-129488393D01*
X196194890Y-129505134D01*
X196222339Y-129527661D01*
X196244866Y-129555110D01*
X196261607Y-129586431D01*
X196271915Y-129620409D01*
X196276000Y-129661890D01*
X196276000Y-130338110D01*
X196271915Y-130379591D01*
X196261607Y-130413569D01*
X196244866Y-130444890D01*
X196222339Y-130472339D01*
X196194890Y-130494866D01*
X196163569Y-130511607D01*
X196129591Y-130521915D01*
X196088110Y-130526000D01*
X195486890Y-130526000D01*
X195445409Y-130521915D01*
X195411431Y-130511607D01*
X195380110Y-130494866D01*
X195352661Y-130472339D01*
X195330134Y-130444890D01*
X195313393Y-130413569D01*
X195303085Y-130379591D01*
X195299000Y-130338110D01*
X195299000Y-129661890D01*
X195303085Y-129620409D01*
X195313393Y-129586431D01*
X195330134Y-129555110D01*
X195352661Y-129527661D01*
X195380110Y-129505134D01*
X195411431Y-129488393D01*
X195445409Y-129478085D01*
X195486890Y-129474000D01*
X196088110Y-129474000D01*
X196129591Y-129478085D01*
X196129591Y-129478085D01*
G37*
G36*
X194554591Y-129478085D02*
G01*
X194588569Y-129488393D01*
X194619890Y-129505134D01*
X194647339Y-129527661D01*
X194669866Y-129555110D01*
X194686607Y-129586431D01*
X194696915Y-129620409D01*
X194701000Y-129661890D01*
X194701000Y-130338110D01*
X194696915Y-130379591D01*
X194686607Y-130413569D01*
X194669866Y-130444890D01*
X194647339Y-130472339D01*
X194619890Y-130494866D01*
X194588569Y-130511607D01*
X194554591Y-130521915D01*
X194513110Y-130526000D01*
X193911890Y-130526000D01*
X193870409Y-130521915D01*
X193836431Y-130511607D01*
X193805110Y-130494866D01*
X193777661Y-130472339D01*
X193755134Y-130444890D01*
X193738393Y-130413569D01*
X193728085Y-130379591D01*
X193724000Y-130338110D01*
X193724000Y-129661890D01*
X193728085Y-129620409D01*
X193738393Y-129586431D01*
X193755134Y-129555110D01*
X193777661Y-129527661D01*
X193805110Y-129505134D01*
X193836431Y-129488393D01*
X193870409Y-129478085D01*
X193911890Y-129474000D01*
X194513110Y-129474000D01*
X194554591Y-129478085D01*
X194554591Y-129478085D01*
G37*
G36*
X196681000Y-128326000D02*
G01*
X195519000Y-128326000D01*
X195519000Y-125674000D01*
X196681000Y-125674000D01*
X196681000Y-128326000D01*
X196681000Y-128326000D01*
G37*
G36*
X194481000Y-128326000D02*
G01*
X193319000Y-128326000D01*
X193319000Y-125674000D01*
X194481000Y-125674000D01*
X194481000Y-128326000D01*
X194481000Y-128326000D01*
G37*
G36*
X191379591Y-127303085D02*
G01*
X191413569Y-127313393D01*
X191444890Y-127330134D01*
X191472339Y-127352661D01*
X191494866Y-127380110D01*
X191511607Y-127411431D01*
X191521915Y-127445409D01*
X191526000Y-127486890D01*
X191526000Y-128088110D01*
X191521915Y-128129591D01*
X191511607Y-128163569D01*
X191494866Y-128194890D01*
X191472339Y-128222339D01*
X191444890Y-128244866D01*
X191413569Y-128261607D01*
X191379591Y-128271915D01*
X191338110Y-128276000D01*
X190661890Y-128276000D01*
X190620409Y-128271915D01*
X190586431Y-128261607D01*
X190555110Y-128244866D01*
X190527661Y-128222339D01*
X190505134Y-128194890D01*
X190488393Y-128163569D01*
X190478085Y-128129591D01*
X190474000Y-128088110D01*
X190474000Y-127486890D01*
X190478085Y-127445409D01*
X190488393Y-127411431D01*
X190505134Y-127380110D01*
X190527661Y-127352661D01*
X190555110Y-127330134D01*
X190586431Y-127313393D01*
X190620409Y-127303085D01*
X190661890Y-127299000D01*
X191338110Y-127299000D01*
X191379591Y-127303085D01*
X191379591Y-127303085D01*
G37*
G36*
X189379591Y-127303085D02*
G01*
X189413569Y-127313393D01*
X189444890Y-127330134D01*
X189472339Y-127352661D01*
X189494866Y-127380110D01*
X189511607Y-127411431D01*
X189521915Y-127445409D01*
X189526000Y-127486890D01*
X189526000Y-128088110D01*
X189521915Y-128129591D01*
X189511607Y-128163569D01*
X189494866Y-128194890D01*
X189472339Y-128222339D01*
X189444890Y-128244866D01*
X189413569Y-128261607D01*
X189379591Y-128271915D01*
X189338110Y-128276000D01*
X188661890Y-128276000D01*
X188620409Y-128271915D01*
X188586431Y-128261607D01*
X188555110Y-128244866D01*
X188527661Y-128222339D01*
X188505134Y-128194890D01*
X188488393Y-128163569D01*
X188478085Y-128129591D01*
X188474000Y-128088110D01*
X188474000Y-127486890D01*
X188478085Y-127445409D01*
X188488393Y-127411431D01*
X188505134Y-127380110D01*
X188527661Y-127352661D01*
X188555110Y-127330134D01*
X188586431Y-127313393D01*
X188620409Y-127303085D01*
X188661890Y-127299000D01*
X189338110Y-127299000D01*
X189379591Y-127303085D01*
X189379591Y-127303085D01*
G37*
G36*
X189379591Y-125728085D02*
G01*
X189413569Y-125738393D01*
X189444890Y-125755134D01*
X189472339Y-125777661D01*
X189494866Y-125805110D01*
X189511607Y-125836431D01*
X189521915Y-125870409D01*
X189526000Y-125911890D01*
X189526000Y-126513110D01*
X189521915Y-126554591D01*
X189511607Y-126588569D01*
X189494866Y-126619890D01*
X189472339Y-126647339D01*
X189444890Y-126669866D01*
X189413569Y-126686607D01*
X189379591Y-126696915D01*
X189338110Y-126701000D01*
X188661890Y-126701000D01*
X188620409Y-126696915D01*
X188586431Y-126686607D01*
X188555110Y-126669866D01*
X188527661Y-126647339D01*
X188505134Y-126619890D01*
X188488393Y-126588569D01*
X188478085Y-126554591D01*
X188474000Y-126513110D01*
X188474000Y-125911890D01*
X188478085Y-125870409D01*
X188488393Y-125836431D01*
X188505134Y-125805110D01*
X188527661Y-125777661D01*
X188555110Y-125755134D01*
X188586431Y-125738393D01*
X188620409Y-125728085D01*
X188661890Y-125724000D01*
X189338110Y-125724000D01*
X189379591Y-125728085D01*
X189379591Y-125728085D01*
G37*
G36*
X191379591Y-125728085D02*
G01*
X191413569Y-125738393D01*
X191444890Y-125755134D01*
X191472339Y-125777661D01*
X191494866Y-125805110D01*
X191511607Y-125836431D01*
X191521915Y-125870409D01*
X191526000Y-125911890D01*
X191526000Y-126513110D01*
X191521915Y-126554591D01*
X191511607Y-126588569D01*
X191494866Y-126619890D01*
X191472339Y-126647339D01*
X191444890Y-126669866D01*
X191413569Y-126686607D01*
X191379591Y-126696915D01*
X191338110Y-126701000D01*
X190661890Y-126701000D01*
X190620409Y-126696915D01*
X190586431Y-126686607D01*
X190555110Y-126669866D01*
X190527661Y-126647339D01*
X190505134Y-126619890D01*
X190488393Y-126588569D01*
X190478085Y-126554591D01*
X190474000Y-126513110D01*
X190474000Y-125911890D01*
X190478085Y-125870409D01*
X190488393Y-125836431D01*
X190505134Y-125805110D01*
X190527661Y-125777661D01*
X190555110Y-125755134D01*
X190586431Y-125738393D01*
X190620409Y-125728085D01*
X190661890Y-125724000D01*
X191338110Y-125724000D01*
X191379591Y-125728085D01*
X191379591Y-125728085D01*
G37*
G36*
X164554591Y-125478085D02*
G01*
X164588569Y-125488393D01*
X164619890Y-125505134D01*
X164647339Y-125527661D01*
X164669866Y-125555110D01*
X164686607Y-125586431D01*
X164696915Y-125620409D01*
X164701000Y-125661890D01*
X164701000Y-126338110D01*
X164696915Y-126379591D01*
X164686607Y-126413569D01*
X164669866Y-126444890D01*
X164647339Y-126472339D01*
X164619890Y-126494866D01*
X164588569Y-126511607D01*
X164554591Y-126521915D01*
X164513110Y-126526000D01*
X163911890Y-126526000D01*
X163870409Y-126521915D01*
X163836431Y-126511607D01*
X163805110Y-126494866D01*
X163777661Y-126472339D01*
X163755134Y-126444890D01*
X163738393Y-126413569D01*
X163728085Y-126379591D01*
X163724000Y-126338110D01*
X163724000Y-125661890D01*
X163728085Y-125620409D01*
X163738393Y-125586431D01*
X163755134Y-125555110D01*
X163777661Y-125527661D01*
X163805110Y-125505134D01*
X163836431Y-125488393D01*
X163870409Y-125478085D01*
X163911890Y-125474000D01*
X164513110Y-125474000D01*
X164554591Y-125478085D01*
X164554591Y-125478085D01*
G37*
G36*
X166129591Y-125478085D02*
G01*
X166163569Y-125488393D01*
X166194890Y-125505134D01*
X166222339Y-125527661D01*
X166244866Y-125555110D01*
X166261607Y-125586431D01*
X166271915Y-125620409D01*
X166276000Y-125661890D01*
X166276000Y-126338110D01*
X166271915Y-126379591D01*
X166261607Y-126413569D01*
X166244866Y-126444890D01*
X166222339Y-126472339D01*
X166194890Y-126494866D01*
X166163569Y-126511607D01*
X166129591Y-126521915D01*
X166088110Y-126526000D01*
X165486890Y-126526000D01*
X165445409Y-126521915D01*
X165411431Y-126511607D01*
X165380110Y-126494866D01*
X165352661Y-126472339D01*
X165330134Y-126444890D01*
X165313393Y-126413569D01*
X165303085Y-126379591D01*
X165299000Y-126338110D01*
X165299000Y-125661890D01*
X165303085Y-125620409D01*
X165313393Y-125586431D01*
X165330134Y-125555110D01*
X165352661Y-125527661D01*
X165380110Y-125505134D01*
X165411431Y-125488393D01*
X165445409Y-125478085D01*
X165486890Y-125474000D01*
X166088110Y-125474000D01*
X166129591Y-125478085D01*
X166129591Y-125478085D01*
G37*
G36*
X199118604Y-123078347D02*
G01*
X199155144Y-123089432D01*
X199188821Y-123107433D01*
X199218341Y-123131659D01*
X199242567Y-123161179D01*
X199260568Y-123194856D01*
X199271653Y-123231396D01*
X199276000Y-123275538D01*
X199276000Y-124724462D01*
X199271653Y-124768604D01*
X199260568Y-124805144D01*
X199242567Y-124838821D01*
X199218341Y-124868341D01*
X199188821Y-124892567D01*
X199155144Y-124910568D01*
X199118604Y-124921653D01*
X199074462Y-124926000D01*
X198125538Y-124926000D01*
X198081396Y-124921653D01*
X198044856Y-124910568D01*
X198011179Y-124892567D01*
X197981659Y-124868341D01*
X197957433Y-124838821D01*
X197939432Y-124805144D01*
X197928347Y-124768604D01*
X197924000Y-124724462D01*
X197924000Y-123275538D01*
X197928347Y-123231396D01*
X197939432Y-123194856D01*
X197957433Y-123161179D01*
X197981659Y-123131659D01*
X198011179Y-123107433D01*
X198044856Y-123089432D01*
X198081396Y-123078347D01*
X198125538Y-123074000D01*
X199074462Y-123074000D01*
X199118604Y-123078347D01*
X199118604Y-123078347D01*
G37*
G36*
X201918604Y-123078347D02*
G01*
X201955144Y-123089432D01*
X201988821Y-123107433D01*
X202018341Y-123131659D01*
X202042567Y-123161179D01*
X202060568Y-123194856D01*
X202071653Y-123231396D01*
X202076000Y-123275538D01*
X202076000Y-124724462D01*
X202071653Y-124768604D01*
X202060568Y-124805144D01*
X202042567Y-124838821D01*
X202018341Y-124868341D01*
X201988821Y-124892567D01*
X201955144Y-124910568D01*
X201918604Y-124921653D01*
X201874462Y-124926000D01*
X200925538Y-124926000D01*
X200881396Y-124921653D01*
X200844856Y-124910568D01*
X200811179Y-124892567D01*
X200781659Y-124868341D01*
X200757433Y-124838821D01*
X200739432Y-124805144D01*
X200728347Y-124768604D01*
X200724000Y-124724462D01*
X200724000Y-123275538D01*
X200728347Y-123231396D01*
X200739432Y-123194856D01*
X200757433Y-123161179D01*
X200781659Y-123131659D01*
X200811179Y-123107433D01*
X200844856Y-123089432D01*
X200881396Y-123078347D01*
X200925538Y-123074000D01*
X201874462Y-123074000D01*
X201918604Y-123078347D01*
X201918604Y-123078347D01*
G37*
G36*
X196129591Y-123478085D02*
G01*
X196163569Y-123488393D01*
X196194890Y-123505134D01*
X196222339Y-123527661D01*
X196244866Y-123555110D01*
X196261607Y-123586431D01*
X196271915Y-123620409D01*
X196276000Y-123661890D01*
X196276000Y-124338110D01*
X196271915Y-124379591D01*
X196261607Y-124413569D01*
X196244866Y-124444890D01*
X196222339Y-124472339D01*
X196194890Y-124494866D01*
X196163569Y-124511607D01*
X196129591Y-124521915D01*
X196088110Y-124526000D01*
X195486890Y-124526000D01*
X195445409Y-124521915D01*
X195411431Y-124511607D01*
X195380110Y-124494866D01*
X195352661Y-124472339D01*
X195330134Y-124444890D01*
X195313393Y-124413569D01*
X195303085Y-124379591D01*
X195299000Y-124338110D01*
X195299000Y-123661890D01*
X195303085Y-123620409D01*
X195313393Y-123586431D01*
X195330134Y-123555110D01*
X195352661Y-123527661D01*
X195380110Y-123505134D01*
X195411431Y-123488393D01*
X195445409Y-123478085D01*
X195486890Y-123474000D01*
X196088110Y-123474000D01*
X196129591Y-123478085D01*
X196129591Y-123478085D01*
G37*
G36*
X194554591Y-123478085D02*
G01*
X194588569Y-123488393D01*
X194619890Y-123505134D01*
X194647339Y-123527661D01*
X194669866Y-123555110D01*
X194686607Y-123586431D01*
X194696915Y-123620409D01*
X194701000Y-123661890D01*
X194701000Y-124338110D01*
X194696915Y-124379591D01*
X194686607Y-124413569D01*
X194669866Y-124444890D01*
X194647339Y-124472339D01*
X194619890Y-124494866D01*
X194588569Y-124511607D01*
X194554591Y-124521915D01*
X194513110Y-124526000D01*
X193911890Y-124526000D01*
X193870409Y-124521915D01*
X193836431Y-124511607D01*
X193805110Y-124494866D01*
X193777661Y-124472339D01*
X193755134Y-124444890D01*
X193738393Y-124413569D01*
X193728085Y-124379591D01*
X193724000Y-124338110D01*
X193724000Y-123661890D01*
X193728085Y-123620409D01*
X193738393Y-123586431D01*
X193755134Y-123555110D01*
X193777661Y-123527661D01*
X193805110Y-123505134D01*
X193836431Y-123488393D01*
X193870409Y-123478085D01*
X193911890Y-123474000D01*
X194513110Y-123474000D01*
X194554591Y-123478085D01*
X194554591Y-123478085D01*
G37*
G36*
X166129591Y-121478085D02*
G01*
X166163569Y-121488393D01*
X166194890Y-121505134D01*
X166222339Y-121527661D01*
X166244866Y-121555110D01*
X166261607Y-121586431D01*
X166271915Y-121620409D01*
X166276000Y-121661890D01*
X166276000Y-122338110D01*
X166271915Y-122379591D01*
X166261607Y-122413569D01*
X166244866Y-122444890D01*
X166222339Y-122472339D01*
X166194890Y-122494866D01*
X166163569Y-122511607D01*
X166129591Y-122521915D01*
X166088110Y-122526000D01*
X165486890Y-122526000D01*
X165445409Y-122521915D01*
X165411431Y-122511607D01*
X165380110Y-122494866D01*
X165352661Y-122472339D01*
X165330134Y-122444890D01*
X165313393Y-122413569D01*
X165303085Y-122379591D01*
X165299000Y-122338110D01*
X165299000Y-121661890D01*
X165303085Y-121620409D01*
X165313393Y-121586431D01*
X165330134Y-121555110D01*
X165352661Y-121527661D01*
X165380110Y-121505134D01*
X165411431Y-121488393D01*
X165445409Y-121478085D01*
X165486890Y-121474000D01*
X166088110Y-121474000D01*
X166129591Y-121478085D01*
X166129591Y-121478085D01*
G37*
G36*
X164554591Y-121478085D02*
G01*
X164588569Y-121488393D01*
X164619890Y-121505134D01*
X164647339Y-121527661D01*
X164669866Y-121555110D01*
X164686607Y-121586431D01*
X164696915Y-121620409D01*
X164701000Y-121661890D01*
X164701000Y-122338110D01*
X164696915Y-122379591D01*
X164686607Y-122413569D01*
X164669866Y-122444890D01*
X164647339Y-122472339D01*
X164619890Y-122494866D01*
X164588569Y-122511607D01*
X164554591Y-122521915D01*
X164513110Y-122526000D01*
X163911890Y-122526000D01*
X163870409Y-122521915D01*
X163836431Y-122511607D01*
X163805110Y-122494866D01*
X163777661Y-122472339D01*
X163755134Y-122444890D01*
X163738393Y-122413569D01*
X163728085Y-122379591D01*
X163724000Y-122338110D01*
X163724000Y-121661890D01*
X163728085Y-121620409D01*
X163738393Y-121586431D01*
X163755134Y-121555110D01*
X163777661Y-121527661D01*
X163805110Y-121505134D01*
X163836431Y-121488393D01*
X163870409Y-121478085D01*
X163911890Y-121474000D01*
X164513110Y-121474000D01*
X164554591Y-121478085D01*
X164554591Y-121478085D01*
G37*
G36*
X131129591Y-120478085D02*
G01*
X131163569Y-120488393D01*
X131194890Y-120505134D01*
X131222339Y-120527661D01*
X131244866Y-120555110D01*
X131261607Y-120586431D01*
X131271915Y-120620409D01*
X131276000Y-120661890D01*
X131276000Y-121338110D01*
X131271915Y-121379591D01*
X131261607Y-121413569D01*
X131244866Y-121444890D01*
X131222339Y-121472339D01*
X131194890Y-121494866D01*
X131163569Y-121511607D01*
X131129591Y-121521915D01*
X131088110Y-121526000D01*
X130486890Y-121526000D01*
X130445409Y-121521915D01*
X130411431Y-121511607D01*
X130380110Y-121494866D01*
X130352661Y-121472339D01*
X130330134Y-121444890D01*
X130313393Y-121413569D01*
X130303085Y-121379591D01*
X130299000Y-121338110D01*
X130299000Y-120661890D01*
X130303085Y-120620409D01*
X130313393Y-120586431D01*
X130330134Y-120555110D01*
X130352661Y-120527661D01*
X130380110Y-120505134D01*
X130411431Y-120488393D01*
X130445409Y-120478085D01*
X130486890Y-120474000D01*
X131088110Y-120474000D01*
X131129591Y-120478085D01*
X131129591Y-120478085D01*
G37*
G36*
X129554591Y-120478085D02*
G01*
X129588569Y-120488393D01*
X129619890Y-120505134D01*
X129647339Y-120527661D01*
X129669866Y-120555110D01*
X129686607Y-120586431D01*
X129696915Y-120620409D01*
X129701000Y-120661890D01*
X129701000Y-121338110D01*
X129696915Y-121379591D01*
X129686607Y-121413569D01*
X129669866Y-121444890D01*
X129647339Y-121472339D01*
X129619890Y-121494866D01*
X129588569Y-121511607D01*
X129554591Y-121521915D01*
X129513110Y-121526000D01*
X128911890Y-121526000D01*
X128870409Y-121521915D01*
X128836431Y-121511607D01*
X128805110Y-121494866D01*
X128777661Y-121472339D01*
X128755134Y-121444890D01*
X128738393Y-121413569D01*
X128728085Y-121379591D01*
X128724000Y-121338110D01*
X128724000Y-120661890D01*
X128728085Y-120620409D01*
X128738393Y-120586431D01*
X128755134Y-120555110D01*
X128777661Y-120527661D01*
X128805110Y-120505134D01*
X128836431Y-120488393D01*
X128870409Y-120478085D01*
X128911890Y-120474000D01*
X129513110Y-120474000D01*
X129554591Y-120478085D01*
X129554591Y-120478085D01*
G37*
G36*
X144379591Y-120303085D02*
G01*
X144413569Y-120313393D01*
X144444890Y-120330134D01*
X144472339Y-120352661D01*
X144494866Y-120380110D01*
X144511607Y-120411431D01*
X144521915Y-120445409D01*
X144526000Y-120486890D01*
X144526000Y-121088110D01*
X144521915Y-121129591D01*
X144511607Y-121163569D01*
X144494866Y-121194890D01*
X144472339Y-121222339D01*
X144444890Y-121244866D01*
X144413569Y-121261607D01*
X144379591Y-121271915D01*
X144338110Y-121276000D01*
X143661890Y-121276000D01*
X143620409Y-121271915D01*
X143586431Y-121261607D01*
X143555110Y-121244866D01*
X143527661Y-121222339D01*
X143505134Y-121194890D01*
X143488393Y-121163569D01*
X143478085Y-121129591D01*
X143474000Y-121088110D01*
X143474000Y-120486890D01*
X143478085Y-120445409D01*
X143488393Y-120411431D01*
X143505134Y-120380110D01*
X143527661Y-120352661D01*
X143555110Y-120330134D01*
X143586431Y-120313393D01*
X143620409Y-120303085D01*
X143661890Y-120299000D01*
X144338110Y-120299000D01*
X144379591Y-120303085D01*
X144379591Y-120303085D01*
G37*
G36*
X146379591Y-120303085D02*
G01*
X146413569Y-120313393D01*
X146444890Y-120330134D01*
X146472339Y-120352661D01*
X146494866Y-120380110D01*
X146511607Y-120411431D01*
X146521915Y-120445409D01*
X146526000Y-120486890D01*
X146526000Y-121088110D01*
X146521915Y-121129591D01*
X146511607Y-121163569D01*
X146494866Y-121194890D01*
X146472339Y-121222339D01*
X146444890Y-121244866D01*
X146413569Y-121261607D01*
X146379591Y-121271915D01*
X146338110Y-121276000D01*
X145661890Y-121276000D01*
X145620409Y-121271915D01*
X145586431Y-121261607D01*
X145555110Y-121244866D01*
X145527661Y-121222339D01*
X145505134Y-121194890D01*
X145488393Y-121163569D01*
X145478085Y-121129591D01*
X145474000Y-121088110D01*
X145474000Y-120486890D01*
X145478085Y-120445409D01*
X145488393Y-120411431D01*
X145505134Y-120380110D01*
X145527661Y-120352661D01*
X145555110Y-120330134D01*
X145586431Y-120313393D01*
X145620409Y-120303085D01*
X145661890Y-120299000D01*
X146338110Y-120299000D01*
X146379591Y-120303085D01*
X146379591Y-120303085D01*
G37*
G36*
X144379591Y-118728085D02*
G01*
X144413569Y-118738393D01*
X144444890Y-118755134D01*
X144472339Y-118777661D01*
X144494866Y-118805110D01*
X144511607Y-118836431D01*
X144521915Y-118870409D01*
X144526000Y-118911890D01*
X144526000Y-119513110D01*
X144521915Y-119554591D01*
X144511607Y-119588569D01*
X144494866Y-119619890D01*
X144472339Y-119647339D01*
X144444890Y-119669866D01*
X144413569Y-119686607D01*
X144379591Y-119696915D01*
X144338110Y-119701000D01*
X143661890Y-119701000D01*
X143620409Y-119696915D01*
X143586431Y-119686607D01*
X143555110Y-119669866D01*
X143527661Y-119647339D01*
X143505134Y-119619890D01*
X143488393Y-119588569D01*
X143478085Y-119554591D01*
X143474000Y-119513110D01*
X143474000Y-118911890D01*
X143478085Y-118870409D01*
X143488393Y-118836431D01*
X143505134Y-118805110D01*
X143527661Y-118777661D01*
X143555110Y-118755134D01*
X143586431Y-118738393D01*
X143620409Y-118728085D01*
X143661890Y-118724000D01*
X144338110Y-118724000D01*
X144379591Y-118728085D01*
X144379591Y-118728085D01*
G37*
G36*
X146379591Y-118728085D02*
G01*
X146413569Y-118738393D01*
X146444890Y-118755134D01*
X146472339Y-118777661D01*
X146494866Y-118805110D01*
X146511607Y-118836431D01*
X146521915Y-118870409D01*
X146526000Y-118911890D01*
X146526000Y-119513110D01*
X146521915Y-119554591D01*
X146511607Y-119588569D01*
X146494866Y-119619890D01*
X146472339Y-119647339D01*
X146444890Y-119669866D01*
X146413569Y-119686607D01*
X146379591Y-119696915D01*
X146338110Y-119701000D01*
X145661890Y-119701000D01*
X145620409Y-119696915D01*
X145586431Y-119686607D01*
X145555110Y-119669866D01*
X145527661Y-119647339D01*
X145505134Y-119619890D01*
X145488393Y-119588569D01*
X145478085Y-119554591D01*
X145474000Y-119513110D01*
X145474000Y-118911890D01*
X145478085Y-118870409D01*
X145488393Y-118836431D01*
X145505134Y-118805110D01*
X145527661Y-118777661D01*
X145555110Y-118755134D01*
X145586431Y-118738393D01*
X145620409Y-118728085D01*
X145661890Y-118724000D01*
X146338110Y-118724000D01*
X146379591Y-118728085D01*
X146379591Y-118728085D01*
G37*
G36*
X131129591Y-118478085D02*
G01*
X131163569Y-118488393D01*
X131194890Y-118505134D01*
X131222339Y-118527661D01*
X131244866Y-118555110D01*
X131261607Y-118586431D01*
X131271915Y-118620409D01*
X131276000Y-118661890D01*
X131276000Y-119338110D01*
X131271915Y-119379591D01*
X131261607Y-119413569D01*
X131244866Y-119444890D01*
X131222339Y-119472339D01*
X131194890Y-119494866D01*
X131163569Y-119511607D01*
X131129591Y-119521915D01*
X131088110Y-119526000D01*
X130486890Y-119526000D01*
X130445409Y-119521915D01*
X130411431Y-119511607D01*
X130380110Y-119494866D01*
X130352661Y-119472339D01*
X130330134Y-119444890D01*
X130313393Y-119413569D01*
X130303085Y-119379591D01*
X130299000Y-119338110D01*
X130299000Y-118661890D01*
X130303085Y-118620409D01*
X130313393Y-118586431D01*
X130330134Y-118555110D01*
X130352661Y-118527661D01*
X130380110Y-118505134D01*
X130411431Y-118488393D01*
X130445409Y-118478085D01*
X130486890Y-118474000D01*
X131088110Y-118474000D01*
X131129591Y-118478085D01*
X131129591Y-118478085D01*
G37*
G36*
X129554591Y-118478085D02*
G01*
X129588569Y-118488393D01*
X129619890Y-118505134D01*
X129647339Y-118527661D01*
X129669866Y-118555110D01*
X129686607Y-118586431D01*
X129696915Y-118620409D01*
X129701000Y-118661890D01*
X129701000Y-119338110D01*
X129696915Y-119379591D01*
X129686607Y-119413569D01*
X129669866Y-119444890D01*
X129647339Y-119472339D01*
X129619890Y-119494866D01*
X129588569Y-119511607D01*
X129554591Y-119521915D01*
X129513110Y-119526000D01*
X128911890Y-119526000D01*
X128870409Y-119521915D01*
X128836431Y-119511607D01*
X128805110Y-119494866D01*
X128777661Y-119472339D01*
X128755134Y-119444890D01*
X128738393Y-119413569D01*
X128728085Y-119379591D01*
X128724000Y-119338110D01*
X128724000Y-118661890D01*
X128728085Y-118620409D01*
X128738393Y-118586431D01*
X128755134Y-118555110D01*
X128777661Y-118527661D01*
X128805110Y-118505134D01*
X128836431Y-118488393D01*
X128870409Y-118478085D01*
X128911890Y-118474000D01*
X129513110Y-118474000D01*
X129554591Y-118478085D01*
X129554591Y-118478085D01*
G37*
G36*
X143744870Y-114868602D02*
G01*
X143778848Y-114878910D01*
X143810169Y-114895651D01*
X143842383Y-114922089D01*
X143882234Y-114961940D01*
X143882240Y-114961945D01*
X144280695Y-115360400D01*
X144280700Y-115360406D01*
X144320551Y-115400257D01*
X144346989Y-115432471D01*
X144363730Y-115463792D01*
X144374038Y-115497770D01*
X144377518Y-115533111D01*
X144374038Y-115568452D01*
X144363730Y-115602430D01*
X144346989Y-115633751D01*
X144320551Y-115665965D01*
X144280700Y-115705816D01*
X144280695Y-115705822D01*
X143935274Y-116051243D01*
X143935268Y-116051248D01*
X143895417Y-116091099D01*
X143863203Y-116117537D01*
X143831882Y-116134278D01*
X143797904Y-116144586D01*
X143762563Y-116148066D01*
X143727222Y-116144586D01*
X143693244Y-116134278D01*
X143661923Y-116117537D01*
X143629709Y-116091099D01*
X143589858Y-116051248D01*
X143589852Y-116051243D01*
X143191397Y-115652788D01*
X143191392Y-115652782D01*
X143151541Y-115612931D01*
X143125103Y-115580717D01*
X143108362Y-115549396D01*
X143098054Y-115515418D01*
X143094574Y-115480077D01*
X143098054Y-115444736D01*
X143108362Y-115410758D01*
X143125103Y-115379437D01*
X143151541Y-115347223D01*
X143191392Y-115307372D01*
X143191397Y-115307366D01*
X143536818Y-114961945D01*
X143536824Y-114961940D01*
X143576675Y-114922089D01*
X143608889Y-114895651D01*
X143640210Y-114878910D01*
X143674188Y-114868602D01*
X143709529Y-114865122D01*
X143744870Y-114868602D01*
X143744870Y-114868602D01*
G37*
G36*
X144858564Y-113754908D02*
G01*
X144892542Y-113765216D01*
X144923863Y-113781957D01*
X144956077Y-113808395D01*
X144995928Y-113848246D01*
X144995934Y-113848251D01*
X145394389Y-114246706D01*
X145394394Y-114246712D01*
X145434245Y-114286563D01*
X145460683Y-114318777D01*
X145477424Y-114350098D01*
X145487732Y-114384076D01*
X145491212Y-114419417D01*
X145487732Y-114454758D01*
X145477424Y-114488736D01*
X145460683Y-114520057D01*
X145434245Y-114552271D01*
X145394394Y-114592122D01*
X145394389Y-114592128D01*
X145048968Y-114937549D01*
X145048962Y-114937554D01*
X145009111Y-114977405D01*
X144976897Y-115003843D01*
X144945576Y-115020584D01*
X144911598Y-115030892D01*
X144876257Y-115034372D01*
X144840916Y-115030892D01*
X144806938Y-115020584D01*
X144775617Y-115003843D01*
X144743403Y-114977405D01*
X144703552Y-114937554D01*
X144703546Y-114937549D01*
X144305091Y-114539094D01*
X144305086Y-114539088D01*
X144265235Y-114499237D01*
X144238797Y-114467023D01*
X144222056Y-114435702D01*
X144211748Y-114401724D01*
X144208268Y-114366383D01*
X144211748Y-114331042D01*
X144222056Y-114297064D01*
X144238797Y-114265743D01*
X144265235Y-114233529D01*
X144305086Y-114193678D01*
X144305091Y-114193672D01*
X144650512Y-113848251D01*
X144650518Y-113848246D01*
X144690369Y-113808395D01*
X144722583Y-113781957D01*
X144753904Y-113765216D01*
X144787882Y-113754908D01*
X144823223Y-113751428D01*
X144858564Y-113754908D01*
X144858564Y-113754908D01*
G37*
G36*
X142330657Y-113454389D02*
G01*
X142364635Y-113464697D01*
X142395956Y-113481438D01*
X142428170Y-113507876D01*
X142468021Y-113547727D01*
X142468027Y-113547732D01*
X142866482Y-113946187D01*
X142866487Y-113946193D01*
X142906338Y-113986044D01*
X142932776Y-114018258D01*
X142949517Y-114049579D01*
X142959825Y-114083557D01*
X142963305Y-114118898D01*
X142959825Y-114154239D01*
X142949517Y-114188217D01*
X142932776Y-114219538D01*
X142906338Y-114251752D01*
X142866487Y-114291603D01*
X142866482Y-114291609D01*
X142521061Y-114637030D01*
X142521055Y-114637035D01*
X142481204Y-114676886D01*
X142448990Y-114703324D01*
X142417669Y-114720065D01*
X142383691Y-114730373D01*
X142348350Y-114733853D01*
X142313009Y-114730373D01*
X142279031Y-114720065D01*
X142247710Y-114703324D01*
X142215496Y-114676886D01*
X142175645Y-114637035D01*
X142175639Y-114637030D01*
X141777184Y-114238575D01*
X141777179Y-114238569D01*
X141737328Y-114198718D01*
X141710890Y-114166504D01*
X141694149Y-114135183D01*
X141683841Y-114101205D01*
X141680361Y-114065864D01*
X141683841Y-114030523D01*
X141694149Y-113996545D01*
X141710890Y-113965224D01*
X141737328Y-113933010D01*
X141777179Y-113893159D01*
X141777184Y-113893153D01*
X142122605Y-113547732D01*
X142122611Y-113547727D01*
X142162462Y-113507876D01*
X142194676Y-113481438D01*
X142225997Y-113464697D01*
X142259975Y-113454389D01*
X142295316Y-113450909D01*
X142330657Y-113454389D01*
X142330657Y-113454389D01*
G37*
G36*
X148447132Y-112747282D02*
G01*
X148481110Y-112757590D01*
X148512431Y-112774331D01*
X148544645Y-112800769D01*
X148584496Y-112840620D01*
X148584502Y-112840625D01*
X148929923Y-113186046D01*
X148929928Y-113186052D01*
X148969779Y-113225903D01*
X148996217Y-113258117D01*
X149012958Y-113289438D01*
X149023266Y-113323416D01*
X149026746Y-113358757D01*
X149023266Y-113394098D01*
X149012958Y-113428076D01*
X148996217Y-113459397D01*
X148969779Y-113491611D01*
X148929928Y-113531462D01*
X148929923Y-113531468D01*
X148531468Y-113929923D01*
X148531462Y-113929928D01*
X148491611Y-113969779D01*
X148459397Y-113996217D01*
X148428076Y-114012958D01*
X148394098Y-114023266D01*
X148358757Y-114026746D01*
X148323416Y-114023266D01*
X148289438Y-114012958D01*
X148258117Y-113996217D01*
X148225903Y-113969779D01*
X148186052Y-113929928D01*
X148186046Y-113929923D01*
X147840625Y-113584502D01*
X147840620Y-113584496D01*
X147800769Y-113544645D01*
X147774331Y-113512431D01*
X147757590Y-113481110D01*
X147747282Y-113447132D01*
X147743802Y-113411791D01*
X147747282Y-113376450D01*
X147757590Y-113342472D01*
X147774331Y-113311151D01*
X147800769Y-113278937D01*
X147840620Y-113239086D01*
X147840625Y-113239080D01*
X148239080Y-112840625D01*
X148239086Y-112840620D01*
X148278937Y-112800769D01*
X148311151Y-112774331D01*
X148342472Y-112757590D01*
X148376450Y-112747282D01*
X148411791Y-112743802D01*
X148447132Y-112747282D01*
X148447132Y-112747282D01*
G37*
G36*
X143444351Y-112340695D02*
G01*
X143478329Y-112351003D01*
X143509650Y-112367744D01*
X143541864Y-112394182D01*
X143581715Y-112434033D01*
X143581721Y-112434038D01*
X143980176Y-112832493D01*
X143980181Y-112832499D01*
X144020032Y-112872350D01*
X144046470Y-112904564D01*
X144063211Y-112935885D01*
X144073519Y-112969863D01*
X144076999Y-113005204D01*
X144073519Y-113040545D01*
X144063211Y-113074523D01*
X144046470Y-113105844D01*
X144020032Y-113138058D01*
X143980181Y-113177909D01*
X143980176Y-113177915D01*
X143634755Y-113523336D01*
X143634749Y-113523341D01*
X143594898Y-113563192D01*
X143562684Y-113589630D01*
X143531363Y-113606371D01*
X143497385Y-113616679D01*
X143462044Y-113620159D01*
X143426703Y-113616679D01*
X143392725Y-113606371D01*
X143361404Y-113589630D01*
X143329190Y-113563192D01*
X143289339Y-113523341D01*
X143289333Y-113523336D01*
X142890878Y-113124881D01*
X142890873Y-113124875D01*
X142851022Y-113085024D01*
X142824584Y-113052810D01*
X142807843Y-113021489D01*
X142797535Y-112987511D01*
X142794055Y-112952170D01*
X142797535Y-112916829D01*
X142807843Y-112882851D01*
X142824584Y-112851530D01*
X142851022Y-112819316D01*
X142890873Y-112779465D01*
X142890878Y-112779459D01*
X143236299Y-112434038D01*
X143236305Y-112434033D01*
X143276156Y-112394182D01*
X143308370Y-112367744D01*
X143339691Y-112351003D01*
X143373669Y-112340695D01*
X143409010Y-112337215D01*
X143444351Y-112340695D01*
X143444351Y-112340695D01*
G37*
G36*
X140916443Y-112040175D02*
G01*
X140950421Y-112050483D01*
X140981742Y-112067224D01*
X141013956Y-112093662D01*
X141053807Y-112133513D01*
X141053813Y-112133518D01*
X141452268Y-112531973D01*
X141452273Y-112531979D01*
X141492124Y-112571830D01*
X141518562Y-112604044D01*
X141535303Y-112635365D01*
X141545611Y-112669343D01*
X141549091Y-112704684D01*
X141545611Y-112740025D01*
X141535303Y-112774003D01*
X141518562Y-112805324D01*
X141492124Y-112837538D01*
X141452273Y-112877389D01*
X141452268Y-112877395D01*
X141106847Y-113222816D01*
X141106841Y-113222821D01*
X141066990Y-113262672D01*
X141034776Y-113289110D01*
X141003455Y-113305851D01*
X140969477Y-113316159D01*
X140934136Y-113319639D01*
X140898795Y-113316159D01*
X140864817Y-113305851D01*
X140833496Y-113289110D01*
X140801282Y-113262672D01*
X140761431Y-113222821D01*
X140761425Y-113222816D01*
X140362970Y-112824361D01*
X140362965Y-112824355D01*
X140323114Y-112784504D01*
X140296676Y-112752290D01*
X140279935Y-112720969D01*
X140269627Y-112686991D01*
X140266147Y-112651650D01*
X140269627Y-112616309D01*
X140279935Y-112582331D01*
X140296676Y-112551010D01*
X140323114Y-112518796D01*
X140362965Y-112478945D01*
X140362970Y-112478939D01*
X140708391Y-112133518D01*
X140708397Y-112133513D01*
X140748248Y-112093662D01*
X140780462Y-112067224D01*
X140811783Y-112050483D01*
X140845761Y-112040175D01*
X140881102Y-112036695D01*
X140916443Y-112040175D01*
X140916443Y-112040175D01*
G37*
G36*
X147333438Y-111633588D02*
G01*
X147367416Y-111643896D01*
X147398737Y-111660637D01*
X147430951Y-111687075D01*
X147470802Y-111726926D01*
X147470808Y-111726931D01*
X147816229Y-112072352D01*
X147816234Y-112072358D01*
X147856085Y-112112209D01*
X147882523Y-112144423D01*
X147899264Y-112175744D01*
X147909572Y-112209722D01*
X147913052Y-112245063D01*
X147909572Y-112280404D01*
X147899264Y-112314382D01*
X147882523Y-112345703D01*
X147856085Y-112377917D01*
X147816234Y-112417768D01*
X147816229Y-112417774D01*
X147417774Y-112816229D01*
X147417768Y-112816234D01*
X147377917Y-112856085D01*
X147345703Y-112882523D01*
X147314382Y-112899264D01*
X147280404Y-112909572D01*
X147245063Y-112913052D01*
X147209722Y-112909572D01*
X147175744Y-112899264D01*
X147144423Y-112882523D01*
X147112209Y-112856085D01*
X147072358Y-112816234D01*
X147072352Y-112816229D01*
X146726931Y-112470808D01*
X146726926Y-112470802D01*
X146687075Y-112430951D01*
X146660637Y-112398737D01*
X146643896Y-112367416D01*
X146633588Y-112333438D01*
X146630108Y-112298097D01*
X146633588Y-112262756D01*
X146643896Y-112228778D01*
X146660637Y-112197457D01*
X146687075Y-112165243D01*
X146726926Y-112125392D01*
X146726931Y-112125386D01*
X147125386Y-111726931D01*
X147125392Y-111726926D01*
X147165243Y-111687075D01*
X147197457Y-111660637D01*
X147228778Y-111643896D01*
X147262756Y-111633588D01*
X147298097Y-111630108D01*
X147333438Y-111633588D01*
X147333438Y-111633588D01*
G37*
G36*
X121129591Y-111478085D02*
G01*
X121163569Y-111488393D01*
X121194890Y-111505134D01*
X121222339Y-111527661D01*
X121244866Y-111555110D01*
X121261607Y-111586431D01*
X121271915Y-111620409D01*
X121276000Y-111661890D01*
X121276000Y-112338110D01*
X121271915Y-112379591D01*
X121261607Y-112413569D01*
X121244866Y-112444890D01*
X121222339Y-112472339D01*
X121194890Y-112494866D01*
X121163569Y-112511607D01*
X121129591Y-112521915D01*
X121088110Y-112526000D01*
X120486890Y-112526000D01*
X120445409Y-112521915D01*
X120411431Y-112511607D01*
X120380110Y-112494866D01*
X120352661Y-112472339D01*
X120330134Y-112444890D01*
X120313393Y-112413569D01*
X120303085Y-112379591D01*
X120299000Y-112338110D01*
X120299000Y-111661890D01*
X120303085Y-111620409D01*
X120313393Y-111586431D01*
X120330134Y-111555110D01*
X120352661Y-111527661D01*
X120380110Y-111505134D01*
X120411431Y-111488393D01*
X120445409Y-111478085D01*
X120486890Y-111474000D01*
X121088110Y-111474000D01*
X121129591Y-111478085D01*
X121129591Y-111478085D01*
G37*
G36*
X161129591Y-111478085D02*
G01*
X161163569Y-111488393D01*
X161194890Y-111505134D01*
X161222339Y-111527661D01*
X161244866Y-111555110D01*
X161261607Y-111586431D01*
X161271915Y-111620409D01*
X161276000Y-111661890D01*
X161276000Y-112338110D01*
X161271915Y-112379591D01*
X161261607Y-112413569D01*
X161244866Y-112444890D01*
X161222339Y-112472339D01*
X161194890Y-112494866D01*
X161163569Y-112511607D01*
X161129591Y-112521915D01*
X161088110Y-112526000D01*
X160486890Y-112526000D01*
X160445409Y-112521915D01*
X160411431Y-112511607D01*
X160380110Y-112494866D01*
X160352661Y-112472339D01*
X160330134Y-112444890D01*
X160313393Y-112413569D01*
X160303085Y-112379591D01*
X160299000Y-112338110D01*
X160299000Y-111661890D01*
X160303085Y-111620409D01*
X160313393Y-111586431D01*
X160330134Y-111555110D01*
X160352661Y-111527661D01*
X160380110Y-111505134D01*
X160411431Y-111488393D01*
X160445409Y-111478085D01*
X160486890Y-111474000D01*
X161088110Y-111474000D01*
X161129591Y-111478085D01*
X161129591Y-111478085D01*
G37*
G36*
X119554591Y-111478085D02*
G01*
X119588569Y-111488393D01*
X119619890Y-111505134D01*
X119647339Y-111527661D01*
X119669866Y-111555110D01*
X119686607Y-111586431D01*
X119696915Y-111620409D01*
X119701000Y-111661890D01*
X119701000Y-112338110D01*
X119696915Y-112379591D01*
X119686607Y-112413569D01*
X119669866Y-112444890D01*
X119647339Y-112472339D01*
X119619890Y-112494866D01*
X119588569Y-112511607D01*
X119554591Y-112521915D01*
X119513110Y-112526000D01*
X118911890Y-112526000D01*
X118870409Y-112521915D01*
X118836431Y-112511607D01*
X118805110Y-112494866D01*
X118777661Y-112472339D01*
X118755134Y-112444890D01*
X118738393Y-112413569D01*
X118728085Y-112379591D01*
X118724000Y-112338110D01*
X118724000Y-111661890D01*
X118728085Y-111620409D01*
X118738393Y-111586431D01*
X118755134Y-111555110D01*
X118777661Y-111527661D01*
X118805110Y-111505134D01*
X118836431Y-111488393D01*
X118870409Y-111478085D01*
X118911890Y-111474000D01*
X119513110Y-111474000D01*
X119554591Y-111478085D01*
X119554591Y-111478085D01*
G37*
G36*
X159554591Y-111478085D02*
G01*
X159588569Y-111488393D01*
X159619890Y-111505134D01*
X159647339Y-111527661D01*
X159669866Y-111555110D01*
X159686607Y-111586431D01*
X159696915Y-111620409D01*
X159701000Y-111661890D01*
X159701000Y-112338110D01*
X159696915Y-112379591D01*
X159686607Y-112413569D01*
X159669866Y-112444890D01*
X159647339Y-112472339D01*
X159619890Y-112494866D01*
X159588569Y-112511607D01*
X159554591Y-112521915D01*
X159513110Y-112526000D01*
X158911890Y-112526000D01*
X158870409Y-112521915D01*
X158836431Y-112511607D01*
X158805110Y-112494866D01*
X158777661Y-112472339D01*
X158755134Y-112444890D01*
X158738393Y-112413569D01*
X158728085Y-112379591D01*
X158724000Y-112338110D01*
X158724000Y-111661890D01*
X158728085Y-111620409D01*
X158738393Y-111586431D01*
X158755134Y-111555110D01*
X158777661Y-111527661D01*
X158805110Y-111505134D01*
X158836431Y-111488393D01*
X158870409Y-111478085D01*
X158911890Y-111474000D01*
X159513110Y-111474000D01*
X159554591Y-111478085D01*
X159554591Y-111478085D01*
G37*
G36*
X142030137Y-110926481D02*
G01*
X142064115Y-110936789D01*
X142095436Y-110953530D01*
X142127650Y-110979968D01*
X142167501Y-111019819D01*
X142167507Y-111019824D01*
X142565962Y-111418279D01*
X142565967Y-111418285D01*
X142605818Y-111458136D01*
X142632256Y-111490350D01*
X142648997Y-111521671D01*
X142659305Y-111555649D01*
X142662785Y-111590990D01*
X142659305Y-111626331D01*
X142648997Y-111660309D01*
X142632256Y-111691630D01*
X142605818Y-111723844D01*
X142565967Y-111763695D01*
X142565962Y-111763701D01*
X142220541Y-112109122D01*
X142220535Y-112109127D01*
X142180684Y-112148978D01*
X142148470Y-112175416D01*
X142117149Y-112192157D01*
X142083171Y-112202465D01*
X142047830Y-112205945D01*
X142012489Y-112202465D01*
X141978511Y-112192157D01*
X141947190Y-112175416D01*
X141914976Y-112148978D01*
X141875125Y-112109127D01*
X141875119Y-112109122D01*
X141476664Y-111710667D01*
X141476659Y-111710661D01*
X141436808Y-111670810D01*
X141410370Y-111638596D01*
X141393629Y-111607275D01*
X141383321Y-111573297D01*
X141379841Y-111537956D01*
X141383321Y-111502615D01*
X141393629Y-111468637D01*
X141410370Y-111437316D01*
X141436808Y-111405102D01*
X141476659Y-111365251D01*
X141476664Y-111365245D01*
X141822085Y-111019824D01*
X141822091Y-111019819D01*
X141861942Y-110979968D01*
X141894156Y-110953530D01*
X141925477Y-110936789D01*
X141959455Y-110926481D01*
X141994796Y-110923001D01*
X142030137Y-110926481D01*
X142030137Y-110926481D01*
G37*
G36*
X144934152Y-110548409D02*
G01*
X144972822Y-110560140D01*
X145008461Y-110579190D01*
X145044467Y-110608739D01*
X145084317Y-110648589D01*
X145084323Y-110648594D01*
X145765620Y-111329891D01*
X145765625Y-111329897D01*
X145805475Y-111369747D01*
X145835024Y-111405753D01*
X145854074Y-111441392D01*
X145865805Y-111480062D01*
X145869765Y-111520280D01*
X145865805Y-111560498D01*
X145854074Y-111599168D01*
X145835024Y-111634807D01*
X145805475Y-111670813D01*
X145765625Y-111710663D01*
X145765620Y-111710669D01*
X145384843Y-112091446D01*
X145384837Y-112091451D01*
X145344987Y-112131301D01*
X145308981Y-112160850D01*
X145273342Y-112179900D01*
X145234672Y-112191631D01*
X145194454Y-112195591D01*
X145154236Y-112191631D01*
X145115566Y-112179900D01*
X145079927Y-112160850D01*
X145043921Y-112131301D01*
X145004071Y-112091451D01*
X145004065Y-112091446D01*
X144322768Y-111410149D01*
X144322763Y-111410143D01*
X144282913Y-111370293D01*
X144253364Y-111334287D01*
X144234314Y-111298648D01*
X144222583Y-111259978D01*
X144218623Y-111219760D01*
X144222583Y-111179542D01*
X144234314Y-111140872D01*
X144253364Y-111105233D01*
X144282913Y-111069227D01*
X144322763Y-111029377D01*
X144322768Y-111029371D01*
X144703545Y-110648594D01*
X144703551Y-110648589D01*
X144743401Y-110608739D01*
X144779407Y-110579190D01*
X144815046Y-110560140D01*
X144853716Y-110548409D01*
X144893934Y-110544449D01*
X144934152Y-110548409D01*
X144934152Y-110548409D01*
G37*
G36*
X139502230Y-110625962D02*
G01*
X139536208Y-110636270D01*
X139567529Y-110653011D01*
X139599743Y-110679449D01*
X139639594Y-110719300D01*
X139639600Y-110719305D01*
X140038055Y-111117760D01*
X140038060Y-111117766D01*
X140077911Y-111157617D01*
X140104349Y-111189831D01*
X140121090Y-111221152D01*
X140131398Y-111255130D01*
X140134878Y-111290471D01*
X140131398Y-111325812D01*
X140121090Y-111359790D01*
X140104349Y-111391111D01*
X140077911Y-111423325D01*
X140038060Y-111463176D01*
X140038055Y-111463182D01*
X139692634Y-111808603D01*
X139692628Y-111808608D01*
X139652777Y-111848459D01*
X139620563Y-111874897D01*
X139589242Y-111891638D01*
X139555264Y-111901946D01*
X139519923Y-111905426D01*
X139484582Y-111901946D01*
X139450604Y-111891638D01*
X139419283Y-111874897D01*
X139387069Y-111848459D01*
X139347218Y-111808608D01*
X139347212Y-111808603D01*
X138948757Y-111410148D01*
X138948752Y-111410142D01*
X138908901Y-111370291D01*
X138882463Y-111338077D01*
X138865722Y-111306756D01*
X138855414Y-111272778D01*
X138851934Y-111237437D01*
X138855414Y-111202096D01*
X138865722Y-111168118D01*
X138882463Y-111136797D01*
X138908901Y-111104583D01*
X138948752Y-111064732D01*
X138948757Y-111064726D01*
X139294178Y-110719305D01*
X139294184Y-110719300D01*
X139334035Y-110679449D01*
X139366249Y-110653011D01*
X139397570Y-110636270D01*
X139431548Y-110625962D01*
X139466889Y-110622482D01*
X139502230Y-110625962D01*
X139502230Y-110625962D01*
G37*
G36*
X146259978Y-109222583D02*
G01*
X146298648Y-109234314D01*
X146334287Y-109253364D01*
X146370293Y-109282913D01*
X146410143Y-109322763D01*
X146410149Y-109322768D01*
X147091446Y-110004065D01*
X147091451Y-110004071D01*
X147131301Y-110043921D01*
X147160850Y-110079927D01*
X147179900Y-110115566D01*
X147191631Y-110154236D01*
X147195591Y-110194454D01*
X147191631Y-110234672D01*
X147179900Y-110273342D01*
X147160850Y-110308981D01*
X147131301Y-110344987D01*
X147091451Y-110384837D01*
X147091446Y-110384843D01*
X146710669Y-110765620D01*
X146710663Y-110765625D01*
X146670813Y-110805475D01*
X146634807Y-110835024D01*
X146599168Y-110854074D01*
X146560498Y-110865805D01*
X146520280Y-110869765D01*
X146480062Y-110865805D01*
X146441392Y-110854074D01*
X146405753Y-110835024D01*
X146369747Y-110805475D01*
X146329897Y-110765625D01*
X146329891Y-110765620D01*
X145648594Y-110084323D01*
X145648589Y-110084317D01*
X145608739Y-110044467D01*
X145579190Y-110008461D01*
X145560140Y-109972822D01*
X145548409Y-109934152D01*
X145544449Y-109893934D01*
X145548409Y-109853716D01*
X145560140Y-109815046D01*
X145579190Y-109779407D01*
X145608739Y-109743401D01*
X145648589Y-109703551D01*
X145648594Y-109703545D01*
X146029371Y-109322768D01*
X146029377Y-109322763D01*
X146069227Y-109282913D01*
X146105233Y-109253364D01*
X146140872Y-109234314D01*
X146179542Y-109222583D01*
X146219760Y-109218623D01*
X146259978Y-109222583D01*
X146259978Y-109222583D01*
G37*
G36*
X140615924Y-109512268D02*
G01*
X140649902Y-109522576D01*
X140681223Y-109539317D01*
X140713437Y-109565755D01*
X140753288Y-109605606D01*
X140753294Y-109605611D01*
X141151749Y-110004066D01*
X141151754Y-110004072D01*
X141191605Y-110043923D01*
X141218043Y-110076137D01*
X141234784Y-110107458D01*
X141245092Y-110141436D01*
X141248572Y-110176777D01*
X141245092Y-110212118D01*
X141234784Y-110246096D01*
X141218043Y-110277417D01*
X141191605Y-110309631D01*
X141151754Y-110349482D01*
X141151749Y-110349488D01*
X140806328Y-110694909D01*
X140806322Y-110694914D01*
X140766471Y-110734765D01*
X140734257Y-110761203D01*
X140702936Y-110777944D01*
X140668958Y-110788252D01*
X140633617Y-110791732D01*
X140598276Y-110788252D01*
X140564298Y-110777944D01*
X140532977Y-110761203D01*
X140500763Y-110734765D01*
X140460912Y-110694914D01*
X140460906Y-110694909D01*
X140062451Y-110296454D01*
X140062446Y-110296448D01*
X140022595Y-110256597D01*
X139996157Y-110224383D01*
X139979416Y-110193062D01*
X139969108Y-110159084D01*
X139965628Y-110123743D01*
X139969108Y-110088402D01*
X139979416Y-110054424D01*
X139996157Y-110023103D01*
X140022595Y-109990889D01*
X140062446Y-109951038D01*
X140062451Y-109951032D01*
X140407872Y-109605611D01*
X140407878Y-109605606D01*
X140447729Y-109565755D01*
X140479943Y-109539317D01*
X140511264Y-109522576D01*
X140545242Y-109512268D01*
X140580583Y-109508788D01*
X140615924Y-109512268D01*
X140615924Y-109512268D01*
G37*
G36*
X143519938Y-109134195D02*
G01*
X143558608Y-109145926D01*
X143594247Y-109164976D01*
X143630253Y-109194525D01*
X143670103Y-109234375D01*
X143670109Y-109234380D01*
X144351406Y-109915677D01*
X144351411Y-109915683D01*
X144391261Y-109955533D01*
X144420810Y-109991539D01*
X144439860Y-110027178D01*
X144451591Y-110065848D01*
X144455551Y-110106066D01*
X144451591Y-110146284D01*
X144439860Y-110184954D01*
X144420810Y-110220593D01*
X144391261Y-110256599D01*
X144351411Y-110296449D01*
X144351406Y-110296455D01*
X143970629Y-110677232D01*
X143970623Y-110677237D01*
X143930773Y-110717087D01*
X143894767Y-110746636D01*
X143859128Y-110765686D01*
X143820458Y-110777417D01*
X143780240Y-110781377D01*
X143740022Y-110777417D01*
X143701352Y-110765686D01*
X143665713Y-110746636D01*
X143629707Y-110717087D01*
X143589857Y-110677237D01*
X143589851Y-110677232D01*
X142908554Y-109995935D01*
X142908549Y-109995929D01*
X142868699Y-109956079D01*
X142839150Y-109920073D01*
X142820100Y-109884434D01*
X142808369Y-109845764D01*
X142804409Y-109805546D01*
X142808369Y-109765328D01*
X142820100Y-109726658D01*
X142839150Y-109691019D01*
X142868699Y-109655013D01*
X142908549Y-109615163D01*
X142908554Y-109615157D01*
X143289331Y-109234380D01*
X143289337Y-109234375D01*
X143329187Y-109194525D01*
X143365193Y-109164976D01*
X143400832Y-109145926D01*
X143439502Y-109134195D01*
X143479720Y-109130235D01*
X143519938Y-109134195D01*
X143519938Y-109134195D01*
G37*
G36*
X119554591Y-109478085D02*
G01*
X119588569Y-109488393D01*
X119619890Y-109505134D01*
X119647339Y-109527661D01*
X119669866Y-109555110D01*
X119686607Y-109586431D01*
X119696915Y-109620409D01*
X119701000Y-109661890D01*
X119701000Y-110338110D01*
X119696915Y-110379591D01*
X119686607Y-110413569D01*
X119669866Y-110444890D01*
X119647339Y-110472339D01*
X119619890Y-110494866D01*
X119588569Y-110511607D01*
X119554591Y-110521915D01*
X119513110Y-110526000D01*
X118911890Y-110526000D01*
X118870409Y-110521915D01*
X118836431Y-110511607D01*
X118805110Y-110494866D01*
X118777661Y-110472339D01*
X118755134Y-110444890D01*
X118738393Y-110413569D01*
X118728085Y-110379591D01*
X118724000Y-110338110D01*
X118724000Y-109661890D01*
X118728085Y-109620409D01*
X118738393Y-109586431D01*
X118755134Y-109555110D01*
X118777661Y-109527661D01*
X118805110Y-109505134D01*
X118836431Y-109488393D01*
X118870409Y-109478085D01*
X118911890Y-109474000D01*
X119513110Y-109474000D01*
X119554591Y-109478085D01*
X119554591Y-109478085D01*
G37*
G36*
X159554591Y-109478085D02*
G01*
X159588569Y-109488393D01*
X159619890Y-109505134D01*
X159647339Y-109527661D01*
X159669866Y-109555110D01*
X159686607Y-109586431D01*
X159696915Y-109620409D01*
X159701000Y-109661890D01*
X159701000Y-110338110D01*
X159696915Y-110379591D01*
X159686607Y-110413569D01*
X159669866Y-110444890D01*
X159647339Y-110472339D01*
X159619890Y-110494866D01*
X159588569Y-110511607D01*
X159554591Y-110521915D01*
X159513110Y-110526000D01*
X158911890Y-110526000D01*
X158870409Y-110521915D01*
X158836431Y-110511607D01*
X158805110Y-110494866D01*
X158777661Y-110472339D01*
X158755134Y-110444890D01*
X158738393Y-110413569D01*
X158728085Y-110379591D01*
X158724000Y-110338110D01*
X158724000Y-109661890D01*
X158728085Y-109620409D01*
X158738393Y-109586431D01*
X158755134Y-109555110D01*
X158777661Y-109527661D01*
X158805110Y-109505134D01*
X158836431Y-109488393D01*
X158870409Y-109478085D01*
X158911890Y-109474000D01*
X159513110Y-109474000D01*
X159554591Y-109478085D01*
X159554591Y-109478085D01*
G37*
G36*
X121129591Y-109478085D02*
G01*
X121163569Y-109488393D01*
X121194890Y-109505134D01*
X121222339Y-109527661D01*
X121244866Y-109555110D01*
X121261607Y-109586431D01*
X121271915Y-109620409D01*
X121276000Y-109661890D01*
X121276000Y-110338110D01*
X121271915Y-110379591D01*
X121261607Y-110413569D01*
X121244866Y-110444890D01*
X121222339Y-110472339D01*
X121194890Y-110494866D01*
X121163569Y-110511607D01*
X121129591Y-110521915D01*
X121088110Y-110526000D01*
X120486890Y-110526000D01*
X120445409Y-110521915D01*
X120411431Y-110511607D01*
X120380110Y-110494866D01*
X120352661Y-110472339D01*
X120330134Y-110444890D01*
X120313393Y-110413569D01*
X120303085Y-110379591D01*
X120299000Y-110338110D01*
X120299000Y-109661890D01*
X120303085Y-109620409D01*
X120313393Y-109586431D01*
X120330134Y-109555110D01*
X120352661Y-109527661D01*
X120380110Y-109505134D01*
X120411431Y-109488393D01*
X120445409Y-109478085D01*
X120486890Y-109474000D01*
X121088110Y-109474000D01*
X121129591Y-109478085D01*
X121129591Y-109478085D01*
G37*
G36*
X161129591Y-109478085D02*
G01*
X161163569Y-109488393D01*
X161194890Y-109505134D01*
X161222339Y-109527661D01*
X161244866Y-109555110D01*
X161261607Y-109586431D01*
X161271915Y-109620409D01*
X161276000Y-109661890D01*
X161276000Y-110338110D01*
X161271915Y-110379591D01*
X161261607Y-110413569D01*
X161244866Y-110444890D01*
X161222339Y-110472339D01*
X161194890Y-110494866D01*
X161163569Y-110511607D01*
X161129591Y-110521915D01*
X161088110Y-110526000D01*
X160486890Y-110526000D01*
X160445409Y-110521915D01*
X160411431Y-110511607D01*
X160380110Y-110494866D01*
X160352661Y-110472339D01*
X160330134Y-110444890D01*
X160313393Y-110413569D01*
X160303085Y-110379591D01*
X160299000Y-110338110D01*
X160299000Y-109661890D01*
X160303085Y-109620409D01*
X160313393Y-109586431D01*
X160330134Y-109555110D01*
X160352661Y-109527661D01*
X160380110Y-109505134D01*
X160411431Y-109488393D01*
X160445409Y-109478085D01*
X160486890Y-109474000D01*
X161088110Y-109474000D01*
X161129591Y-109478085D01*
X161129591Y-109478085D01*
G37*
G36*
X149401724Y-109211748D02*
G01*
X149435702Y-109222056D01*
X149467023Y-109238797D01*
X149499237Y-109265235D01*
X149539088Y-109305086D01*
X149539094Y-109305091D01*
X149937549Y-109703546D01*
X149937554Y-109703552D01*
X149977405Y-109743403D01*
X150003843Y-109775617D01*
X150020584Y-109806938D01*
X150030892Y-109840916D01*
X150034372Y-109876257D01*
X150030892Y-109911598D01*
X150020584Y-109945576D01*
X150003843Y-109976897D01*
X149977405Y-110009111D01*
X149937554Y-110048962D01*
X149937549Y-110048968D01*
X149592128Y-110394389D01*
X149592122Y-110394394D01*
X149552271Y-110434245D01*
X149520057Y-110460683D01*
X149488736Y-110477424D01*
X149454758Y-110487732D01*
X149419417Y-110491212D01*
X149384076Y-110487732D01*
X149350098Y-110477424D01*
X149318777Y-110460683D01*
X149286563Y-110434245D01*
X149246712Y-110394394D01*
X149246706Y-110394389D01*
X148848251Y-109995934D01*
X148848246Y-109995928D01*
X148808395Y-109956077D01*
X148781957Y-109923863D01*
X148765216Y-109892542D01*
X148754908Y-109858564D01*
X148751428Y-109823223D01*
X148754908Y-109787882D01*
X148765216Y-109753904D01*
X148781957Y-109722583D01*
X148808395Y-109690369D01*
X148848246Y-109650518D01*
X148848251Y-109650512D01*
X149193672Y-109305091D01*
X149193678Y-109305086D01*
X149233529Y-109265235D01*
X149265743Y-109238797D01*
X149297064Y-109222056D01*
X149331042Y-109211748D01*
X149366383Y-109208268D01*
X149401724Y-109211748D01*
X149401724Y-109211748D01*
G37*
G36*
X144845764Y-107808369D02*
G01*
X144884434Y-107820100D01*
X144920073Y-107839150D01*
X144956079Y-107868699D01*
X144995929Y-107908549D01*
X144995935Y-107908554D01*
X145677232Y-108589851D01*
X145677237Y-108589857D01*
X145717087Y-108629707D01*
X145746636Y-108665713D01*
X145765686Y-108701352D01*
X145777417Y-108740022D01*
X145781377Y-108780240D01*
X145777417Y-108820458D01*
X145765686Y-108859128D01*
X145746636Y-108894767D01*
X145717087Y-108930773D01*
X145677237Y-108970623D01*
X145677232Y-108970629D01*
X145296455Y-109351406D01*
X145296449Y-109351411D01*
X145256599Y-109391261D01*
X145220593Y-109420810D01*
X145184954Y-109439860D01*
X145146284Y-109451591D01*
X145106066Y-109455551D01*
X145065848Y-109451591D01*
X145027178Y-109439860D01*
X144991539Y-109420810D01*
X144955533Y-109391261D01*
X144915683Y-109351411D01*
X144915677Y-109351406D01*
X144234380Y-108670109D01*
X144234375Y-108670103D01*
X144194525Y-108630253D01*
X144164976Y-108594247D01*
X144145926Y-108558608D01*
X144134195Y-108519938D01*
X144130235Y-108479720D01*
X144134195Y-108439502D01*
X144145926Y-108400832D01*
X144164976Y-108365193D01*
X144194525Y-108329187D01*
X144234375Y-108289337D01*
X144234380Y-108289331D01*
X144615157Y-107908554D01*
X144615163Y-107908549D01*
X144655013Y-107868699D01*
X144691019Y-107839150D01*
X144726658Y-107820100D01*
X144765328Y-107808369D01*
X144805546Y-107804409D01*
X144845764Y-107808369D01*
X144845764Y-107808369D01*
G37*
G36*
X150515418Y-108098054D02*
G01*
X150549396Y-108108362D01*
X150580717Y-108125103D01*
X150612931Y-108151541D01*
X150652782Y-108191392D01*
X150652788Y-108191397D01*
X151051243Y-108589852D01*
X151051248Y-108589858D01*
X151091099Y-108629709D01*
X151117537Y-108661923D01*
X151134278Y-108693244D01*
X151144586Y-108727222D01*
X151148066Y-108762563D01*
X151144586Y-108797904D01*
X151134278Y-108831882D01*
X151117537Y-108863203D01*
X151091099Y-108895417D01*
X151051248Y-108935268D01*
X151051243Y-108935274D01*
X150705822Y-109280695D01*
X150705816Y-109280700D01*
X150665965Y-109320551D01*
X150633751Y-109346989D01*
X150602430Y-109363730D01*
X150568452Y-109374038D01*
X150533111Y-109377518D01*
X150497770Y-109374038D01*
X150463792Y-109363730D01*
X150432471Y-109346989D01*
X150400257Y-109320551D01*
X150360406Y-109280700D01*
X150360400Y-109280695D01*
X149961945Y-108882240D01*
X149961940Y-108882234D01*
X149922089Y-108842383D01*
X149895651Y-108810169D01*
X149878910Y-108778848D01*
X149868602Y-108744870D01*
X149865122Y-108709529D01*
X149868602Y-108674188D01*
X149878910Y-108640210D01*
X149895651Y-108608889D01*
X149922089Y-108576675D01*
X149961940Y-108536824D01*
X149961945Y-108536818D01*
X150307366Y-108191397D01*
X150307372Y-108191392D01*
X150347223Y-108151541D01*
X150379437Y-108125103D01*
X150410758Y-108108362D01*
X150444736Y-108098054D01*
X150480077Y-108094574D01*
X150515418Y-108098054D01*
X150515418Y-108098054D01*
G37*
G36*
X147987511Y-107797535D02*
G01*
X148021489Y-107807843D01*
X148052810Y-107824584D01*
X148085024Y-107851022D01*
X148124875Y-107890873D01*
X148124881Y-107890878D01*
X148523336Y-108289333D01*
X148523341Y-108289339D01*
X148563192Y-108329190D01*
X148589630Y-108361404D01*
X148606371Y-108392725D01*
X148616679Y-108426703D01*
X148620159Y-108462044D01*
X148616679Y-108497385D01*
X148606371Y-108531363D01*
X148589630Y-108562684D01*
X148563192Y-108594898D01*
X148523341Y-108634749D01*
X148523336Y-108634755D01*
X148177915Y-108980176D01*
X148177909Y-108980181D01*
X148138058Y-109020032D01*
X148105844Y-109046470D01*
X148074523Y-109063211D01*
X148040545Y-109073519D01*
X148005204Y-109076999D01*
X147969863Y-109073519D01*
X147935885Y-109063211D01*
X147904564Y-109046470D01*
X147872350Y-109020032D01*
X147832499Y-108980181D01*
X147832493Y-108980176D01*
X147434038Y-108581721D01*
X147434033Y-108581715D01*
X147394182Y-108541864D01*
X147367744Y-108509650D01*
X147351003Y-108478329D01*
X147340695Y-108444351D01*
X147337215Y-108409010D01*
X147340695Y-108373669D01*
X147351003Y-108339691D01*
X147367744Y-108308370D01*
X147394182Y-108276156D01*
X147434033Y-108236305D01*
X147434038Y-108236299D01*
X147779459Y-107890878D01*
X147779465Y-107890873D01*
X147819316Y-107851022D01*
X147851530Y-107824584D01*
X147882851Y-107807843D01*
X147916829Y-107797535D01*
X147952170Y-107794055D01*
X147987511Y-107797535D01*
X147987511Y-107797535D01*
G37*
G36*
X159554591Y-107478085D02*
G01*
X159588569Y-107488393D01*
X159619890Y-107505134D01*
X159647339Y-107527661D01*
X159669866Y-107555110D01*
X159686607Y-107586431D01*
X159696915Y-107620409D01*
X159701000Y-107661890D01*
X159701000Y-108338110D01*
X159696915Y-108379591D01*
X159686607Y-108413569D01*
X159669866Y-108444890D01*
X159647339Y-108472339D01*
X159619890Y-108494866D01*
X159588569Y-108511607D01*
X159554591Y-108521915D01*
X159513110Y-108526000D01*
X158911890Y-108526000D01*
X158870409Y-108521915D01*
X158836431Y-108511607D01*
X158805110Y-108494866D01*
X158777661Y-108472339D01*
X158755134Y-108444890D01*
X158738393Y-108413569D01*
X158728085Y-108379591D01*
X158724000Y-108338110D01*
X158724000Y-107661890D01*
X158728085Y-107620409D01*
X158738393Y-107586431D01*
X158755134Y-107555110D01*
X158777661Y-107527661D01*
X158805110Y-107505134D01*
X158836431Y-107488393D01*
X158870409Y-107478085D01*
X158911890Y-107474000D01*
X159513110Y-107474000D01*
X159554591Y-107478085D01*
X159554591Y-107478085D01*
G37*
G36*
X119554591Y-107478085D02*
G01*
X119588569Y-107488393D01*
X119619890Y-107505134D01*
X119647339Y-107527661D01*
X119669866Y-107555110D01*
X119686607Y-107586431D01*
X119696915Y-107620409D01*
X119701000Y-107661890D01*
X119701000Y-108338110D01*
X119696915Y-108379591D01*
X119686607Y-108413569D01*
X119669866Y-108444890D01*
X119647339Y-108472339D01*
X119619890Y-108494866D01*
X119588569Y-108511607D01*
X119554591Y-108521915D01*
X119513110Y-108526000D01*
X118911890Y-108526000D01*
X118870409Y-108521915D01*
X118836431Y-108511607D01*
X118805110Y-108494866D01*
X118777661Y-108472339D01*
X118755134Y-108444890D01*
X118738393Y-108413569D01*
X118728085Y-108379591D01*
X118724000Y-108338110D01*
X118724000Y-107661890D01*
X118728085Y-107620409D01*
X118738393Y-107586431D01*
X118755134Y-107555110D01*
X118777661Y-107527661D01*
X118805110Y-107505134D01*
X118836431Y-107488393D01*
X118870409Y-107478085D01*
X118911890Y-107474000D01*
X119513110Y-107474000D01*
X119554591Y-107478085D01*
X119554591Y-107478085D01*
G37*
G36*
X121129591Y-107478085D02*
G01*
X121163569Y-107488393D01*
X121194890Y-107505134D01*
X121222339Y-107527661D01*
X121244866Y-107555110D01*
X121261607Y-107586431D01*
X121271915Y-107620409D01*
X121276000Y-107661890D01*
X121276000Y-108338110D01*
X121271915Y-108379591D01*
X121261607Y-108413569D01*
X121244866Y-108444890D01*
X121222339Y-108472339D01*
X121194890Y-108494866D01*
X121163569Y-108511607D01*
X121129591Y-108521915D01*
X121088110Y-108526000D01*
X120486890Y-108526000D01*
X120445409Y-108521915D01*
X120411431Y-108511607D01*
X120380110Y-108494866D01*
X120352661Y-108472339D01*
X120330134Y-108444890D01*
X120313393Y-108413569D01*
X120303085Y-108379591D01*
X120299000Y-108338110D01*
X120299000Y-107661890D01*
X120303085Y-107620409D01*
X120313393Y-107586431D01*
X120330134Y-107555110D01*
X120352661Y-107527661D01*
X120380110Y-107505134D01*
X120411431Y-107488393D01*
X120445409Y-107478085D01*
X120486890Y-107474000D01*
X121088110Y-107474000D01*
X121129591Y-107478085D01*
X121129591Y-107478085D01*
G37*
G36*
X161129591Y-107478085D02*
G01*
X161163569Y-107488393D01*
X161194890Y-107505134D01*
X161222339Y-107527661D01*
X161244866Y-107555110D01*
X161261607Y-107586431D01*
X161271915Y-107620409D01*
X161276000Y-107661890D01*
X161276000Y-108338110D01*
X161271915Y-108379591D01*
X161261607Y-108413569D01*
X161244866Y-108444890D01*
X161222339Y-108472339D01*
X161194890Y-108494866D01*
X161163569Y-108511607D01*
X161129591Y-108521915D01*
X161088110Y-108526000D01*
X160486890Y-108526000D01*
X160445409Y-108521915D01*
X160411431Y-108511607D01*
X160380110Y-108494866D01*
X160352661Y-108472339D01*
X160330134Y-108444890D01*
X160313393Y-108413569D01*
X160303085Y-108379591D01*
X160299000Y-108338110D01*
X160299000Y-107661890D01*
X160303085Y-107620409D01*
X160313393Y-107586431D01*
X160330134Y-107555110D01*
X160352661Y-107527661D01*
X160380110Y-107505134D01*
X160411431Y-107488393D01*
X160445409Y-107478085D01*
X160486890Y-107474000D01*
X161088110Y-107474000D01*
X161129591Y-107478085D01*
X161129591Y-107478085D01*
G37*
G36*
X142790278Y-107090428D02*
G01*
X142824256Y-107100736D01*
X142855577Y-107117477D01*
X142887791Y-107143915D01*
X142927642Y-107183766D01*
X142927648Y-107183771D01*
X143273069Y-107529192D01*
X143273074Y-107529198D01*
X143312925Y-107569049D01*
X143339363Y-107601263D01*
X143356104Y-107632584D01*
X143366412Y-107666562D01*
X143369892Y-107701903D01*
X143366412Y-107737244D01*
X143356104Y-107771222D01*
X143339363Y-107802543D01*
X143312925Y-107834757D01*
X143273074Y-107874608D01*
X143273069Y-107874614D01*
X142874614Y-108273069D01*
X142874608Y-108273074D01*
X142834757Y-108312925D01*
X142802543Y-108339363D01*
X142771222Y-108356104D01*
X142737244Y-108366412D01*
X142701903Y-108369892D01*
X142666562Y-108366412D01*
X142632584Y-108356104D01*
X142601263Y-108339363D01*
X142569049Y-108312925D01*
X142529198Y-108273074D01*
X142529192Y-108273069D01*
X142183771Y-107927648D01*
X142183766Y-107927642D01*
X142143915Y-107887791D01*
X142117477Y-107855577D01*
X142100736Y-107824256D01*
X142090428Y-107790278D01*
X142086948Y-107754937D01*
X142090428Y-107719596D01*
X142100736Y-107685618D01*
X142117477Y-107654297D01*
X142143915Y-107622083D01*
X142183766Y-107582232D01*
X142183771Y-107582226D01*
X142582226Y-107183771D01*
X142582232Y-107183766D01*
X142622083Y-107143915D01*
X142654297Y-107117477D01*
X142685618Y-107100736D01*
X142719596Y-107090428D01*
X142754937Y-107086948D01*
X142790278Y-107090428D01*
X142790278Y-107090428D01*
G37*
G36*
X149101205Y-106683841D02*
G01*
X149135183Y-106694149D01*
X149166504Y-106710890D01*
X149198718Y-106737328D01*
X149238569Y-106777179D01*
X149238575Y-106777184D01*
X149637030Y-107175639D01*
X149637035Y-107175645D01*
X149676886Y-107215496D01*
X149703324Y-107247710D01*
X149720065Y-107279031D01*
X149730373Y-107313009D01*
X149733853Y-107348350D01*
X149730373Y-107383691D01*
X149720065Y-107417669D01*
X149703324Y-107448990D01*
X149676886Y-107481204D01*
X149637035Y-107521055D01*
X149637030Y-107521061D01*
X149291609Y-107866482D01*
X149291603Y-107866487D01*
X149251752Y-107906338D01*
X149219538Y-107932776D01*
X149188217Y-107949517D01*
X149154239Y-107959825D01*
X149118898Y-107963305D01*
X149083557Y-107959825D01*
X149049579Y-107949517D01*
X149018258Y-107932776D01*
X148986044Y-107906338D01*
X148946193Y-107866487D01*
X148946187Y-107866482D01*
X148547732Y-107468027D01*
X148547727Y-107468021D01*
X148507876Y-107428170D01*
X148481438Y-107395956D01*
X148464697Y-107364635D01*
X148454389Y-107330657D01*
X148450909Y-107295316D01*
X148454389Y-107259975D01*
X148464697Y-107225997D01*
X148481438Y-107194676D01*
X148507876Y-107162462D01*
X148547727Y-107122611D01*
X148547732Y-107122605D01*
X148893153Y-106777184D01*
X148893159Y-106777179D01*
X148933010Y-106737328D01*
X148965224Y-106710890D01*
X148996545Y-106694149D01*
X149030523Y-106683841D01*
X149065864Y-106680361D01*
X149101205Y-106683841D01*
X149101205Y-106683841D01*
G37*
G36*
X146573297Y-106383321D02*
G01*
X146607275Y-106393629D01*
X146638596Y-106410370D01*
X146670810Y-106436808D01*
X146710661Y-106476659D01*
X146710667Y-106476664D01*
X147109122Y-106875119D01*
X147109127Y-106875125D01*
X147148978Y-106914976D01*
X147175416Y-106947190D01*
X147192157Y-106978511D01*
X147202465Y-107012489D01*
X147205945Y-107047830D01*
X147202465Y-107083171D01*
X147192157Y-107117149D01*
X147175416Y-107148470D01*
X147148978Y-107180684D01*
X147109127Y-107220535D01*
X147109122Y-107220541D01*
X146763701Y-107565962D01*
X146763695Y-107565967D01*
X146723844Y-107605818D01*
X146691630Y-107632256D01*
X146660309Y-107648997D01*
X146626331Y-107659305D01*
X146590990Y-107662785D01*
X146555649Y-107659305D01*
X146521671Y-107648997D01*
X146490350Y-107632256D01*
X146458136Y-107605818D01*
X146418285Y-107565967D01*
X146418279Y-107565962D01*
X146019824Y-107167507D01*
X146019819Y-107167501D01*
X145979968Y-107127650D01*
X145953530Y-107095436D01*
X145936789Y-107064115D01*
X145926481Y-107030137D01*
X145923001Y-106994796D01*
X145926481Y-106959455D01*
X145936789Y-106925477D01*
X145953530Y-106894156D01*
X145979968Y-106861942D01*
X146019819Y-106822091D01*
X146019824Y-106822085D01*
X146365245Y-106476664D01*
X146365251Y-106476659D01*
X146405102Y-106436808D01*
X146437316Y-106410370D01*
X146468637Y-106393629D01*
X146502615Y-106383321D01*
X146537956Y-106379841D01*
X146573297Y-106383321D01*
X146573297Y-106383321D01*
G37*
G36*
X141676584Y-105976734D02*
G01*
X141710562Y-105987042D01*
X141741883Y-106003783D01*
X141774097Y-106030221D01*
X141813948Y-106070072D01*
X141813954Y-106070077D01*
X142159375Y-106415498D01*
X142159380Y-106415504D01*
X142199231Y-106455355D01*
X142225669Y-106487569D01*
X142242410Y-106518890D01*
X142252718Y-106552868D01*
X142256198Y-106588209D01*
X142252718Y-106623550D01*
X142242410Y-106657528D01*
X142225669Y-106688849D01*
X142199231Y-106721063D01*
X142159380Y-106760914D01*
X142159375Y-106760920D01*
X141760920Y-107159375D01*
X141760914Y-107159380D01*
X141721063Y-107199231D01*
X141688849Y-107225669D01*
X141657528Y-107242410D01*
X141623550Y-107252718D01*
X141588209Y-107256198D01*
X141552868Y-107252718D01*
X141518890Y-107242410D01*
X141487569Y-107225669D01*
X141455355Y-107199231D01*
X141415504Y-107159380D01*
X141415498Y-107159375D01*
X141070077Y-106813954D01*
X141070072Y-106813948D01*
X141030221Y-106774097D01*
X141003783Y-106741883D01*
X140987042Y-106710562D01*
X140976734Y-106676584D01*
X140973254Y-106641243D01*
X140976734Y-106605902D01*
X140987042Y-106571924D01*
X141003783Y-106540603D01*
X141030221Y-106508389D01*
X141070072Y-106468538D01*
X141070077Y-106468532D01*
X141468532Y-106070077D01*
X141468538Y-106070072D01*
X141508389Y-106030221D01*
X141540603Y-106003783D01*
X141571924Y-105987042D01*
X141605902Y-105976734D01*
X141641243Y-105973254D01*
X141676584Y-105976734D01*
X141676584Y-105976734D01*
G37*
G36*
X147686991Y-105269627D02*
G01*
X147720969Y-105279935D01*
X147752290Y-105296676D01*
X147784504Y-105323114D01*
X147824355Y-105362965D01*
X147824361Y-105362970D01*
X148222816Y-105761425D01*
X148222821Y-105761431D01*
X148262672Y-105801282D01*
X148289110Y-105833496D01*
X148305851Y-105864817D01*
X148316159Y-105898795D01*
X148319639Y-105934136D01*
X148316159Y-105969477D01*
X148305851Y-106003455D01*
X148289110Y-106034776D01*
X148262672Y-106066990D01*
X148222821Y-106106841D01*
X148222816Y-106106847D01*
X147877395Y-106452268D01*
X147877389Y-106452273D01*
X147837538Y-106492124D01*
X147805324Y-106518562D01*
X147774003Y-106535303D01*
X147740025Y-106545611D01*
X147704684Y-106549091D01*
X147669343Y-106545611D01*
X147635365Y-106535303D01*
X147604044Y-106518562D01*
X147571830Y-106492124D01*
X147531979Y-106452273D01*
X147531973Y-106452268D01*
X147133518Y-106053813D01*
X147133513Y-106053807D01*
X147093662Y-106013956D01*
X147067224Y-105981742D01*
X147050483Y-105950421D01*
X147040175Y-105916443D01*
X147036695Y-105881102D01*
X147040175Y-105845761D01*
X147050483Y-105811783D01*
X147067224Y-105780462D01*
X147093662Y-105748248D01*
X147133513Y-105708397D01*
X147133518Y-105708391D01*
X147478939Y-105362970D01*
X147478945Y-105362965D01*
X147518796Y-105323114D01*
X147551010Y-105296676D01*
X147582331Y-105279935D01*
X147616309Y-105269627D01*
X147651650Y-105266147D01*
X147686991Y-105269627D01*
X147686991Y-105269627D01*
G37*
G36*
X145159084Y-104969108D02*
G01*
X145193062Y-104979416D01*
X145224383Y-104996157D01*
X145256597Y-105022595D01*
X145296448Y-105062446D01*
X145296454Y-105062451D01*
X145694909Y-105460906D01*
X145694914Y-105460912D01*
X145734765Y-105500763D01*
X145761203Y-105532977D01*
X145777944Y-105564298D01*
X145788252Y-105598276D01*
X145791732Y-105633617D01*
X145788252Y-105668958D01*
X145777944Y-105702936D01*
X145761203Y-105734257D01*
X145734765Y-105766471D01*
X145694914Y-105806322D01*
X145694909Y-105806328D01*
X145349488Y-106151749D01*
X145349482Y-106151754D01*
X145309631Y-106191605D01*
X145277417Y-106218043D01*
X145246096Y-106234784D01*
X145212118Y-106245092D01*
X145176777Y-106248572D01*
X145141436Y-106245092D01*
X145107458Y-106234784D01*
X145076137Y-106218043D01*
X145043923Y-106191605D01*
X145004072Y-106151754D01*
X145004066Y-106151749D01*
X144605611Y-105753294D01*
X144605606Y-105753288D01*
X144565755Y-105713437D01*
X144539317Y-105681223D01*
X144522576Y-105649902D01*
X144512268Y-105615924D01*
X144508788Y-105580583D01*
X144512268Y-105545242D01*
X144522576Y-105511264D01*
X144539317Y-105479943D01*
X144565755Y-105447729D01*
X144605606Y-105407878D01*
X144605611Y-105407872D01*
X144951032Y-105062451D01*
X144951038Y-105062446D01*
X144990889Y-105022595D01*
X145023103Y-104996157D01*
X145054424Y-104979416D01*
X145088402Y-104969108D01*
X145123743Y-104965628D01*
X145159084Y-104969108D01*
X145159084Y-104969108D01*
G37*
G36*
X146272778Y-103855414D02*
G01*
X146306756Y-103865722D01*
X146338077Y-103882463D01*
X146370291Y-103908901D01*
X146410142Y-103948752D01*
X146410148Y-103948757D01*
X146808603Y-104347212D01*
X146808608Y-104347218D01*
X146848459Y-104387069D01*
X146874897Y-104419283D01*
X146891638Y-104450604D01*
X146901946Y-104484582D01*
X146905426Y-104519923D01*
X146901946Y-104555264D01*
X146891638Y-104589242D01*
X146874897Y-104620563D01*
X146848459Y-104652777D01*
X146808608Y-104692628D01*
X146808603Y-104692634D01*
X146463182Y-105038055D01*
X146463176Y-105038060D01*
X146423325Y-105077911D01*
X146391111Y-105104349D01*
X146359790Y-105121090D01*
X146325812Y-105131398D01*
X146290471Y-105134878D01*
X146255130Y-105131398D01*
X146221152Y-105121090D01*
X146189831Y-105104349D01*
X146157617Y-105077911D01*
X146117766Y-105038060D01*
X146117760Y-105038055D01*
X145719305Y-104639600D01*
X145719300Y-104639594D01*
X145679449Y-104599743D01*
X145653011Y-104567529D01*
X145636270Y-104536208D01*
X145625962Y-104502230D01*
X145622482Y-104466889D01*
X145625962Y-104431548D01*
X145636270Y-104397570D01*
X145653011Y-104366249D01*
X145679449Y-104334035D01*
X145719300Y-104294184D01*
X145719305Y-104294178D01*
X146064726Y-103948757D01*
X146064732Y-103948752D01*
X146104583Y-103908901D01*
X146136797Y-103882463D01*
X146168118Y-103865722D01*
X146202096Y-103855414D01*
X146237437Y-103851934D01*
X146272778Y-103855414D01*
X146272778Y-103855414D01*
G37*
G36*
X202401000Y-100501000D02*
G01*
X201499000Y-100501000D01*
X201499000Y-99499000D01*
X202401000Y-99499000D01*
X202401000Y-100501000D01*
X202401000Y-100501000D01*
G37*
G36*
X182401000Y-100501000D02*
G01*
X181499000Y-100501000D01*
X181499000Y-99499000D01*
X182401000Y-99499000D01*
X182401000Y-100501000D01*
X182401000Y-100501000D01*
G37*
G36*
X194401000Y-100501000D02*
G01*
X193499000Y-100501000D01*
X193499000Y-99499000D01*
X194401000Y-99499000D01*
X194401000Y-100501000D01*
X194401000Y-100501000D01*
G37*
G36*
X180501000Y-100501000D02*
G01*
X179599000Y-100501000D01*
X179599000Y-99499000D01*
X180501000Y-99499000D01*
X180501000Y-100501000D01*
X180501000Y-100501000D01*
G37*
G36*
X172501000Y-100501000D02*
G01*
X171599000Y-100501000D01*
X171599000Y-99499000D01*
X172501000Y-99499000D01*
X172501000Y-100501000D01*
X172501000Y-100501000D01*
G37*
G36*
X200501000Y-100501000D02*
G01*
X199599000Y-100501000D01*
X199599000Y-99499000D01*
X200501000Y-99499000D01*
X200501000Y-100501000D01*
X200501000Y-100501000D01*
G37*
G36*
X192501000Y-100501000D02*
G01*
X191599000Y-100501000D01*
X191599000Y-99499000D01*
X192501000Y-99499000D01*
X192501000Y-100501000D01*
X192501000Y-100501000D01*
G37*
G36*
X174401000Y-100501000D02*
G01*
X173499000Y-100501000D01*
X173499000Y-99499000D01*
X174401000Y-99499000D01*
X174401000Y-100501000D01*
X174401000Y-100501000D01*
G37*
G36*
X181451000Y-98501000D02*
G01*
X180549000Y-98501000D01*
X180549000Y-97499000D01*
X181451000Y-97499000D01*
X181451000Y-98501000D01*
X181451000Y-98501000D01*
G37*
G36*
X201451000Y-98501000D02*
G01*
X200549000Y-98501000D01*
X200549000Y-97499000D01*
X201451000Y-97499000D01*
X201451000Y-98501000D01*
X201451000Y-98501000D01*
G37*
G36*
X173451000Y-98501000D02*
G01*
X172549000Y-98501000D01*
X172549000Y-97499000D01*
X173451000Y-97499000D01*
X173451000Y-98501000D01*
X173451000Y-98501000D01*
G37*
G36*
X193451000Y-98501000D02*
G01*
X192549000Y-98501000D01*
X192549000Y-97499000D01*
X193451000Y-97499000D01*
X193451000Y-98501000D01*
X193451000Y-98501000D01*
G37*
G36*
X174129591Y-94478085D02*
G01*
X174163569Y-94488393D01*
X174194890Y-94505134D01*
X174222339Y-94527661D01*
X174244866Y-94555110D01*
X174261607Y-94586431D01*
X174271915Y-94620409D01*
X174276000Y-94661890D01*
X174276000Y-95338110D01*
X174271915Y-95379591D01*
X174261607Y-95413569D01*
X174244866Y-95444890D01*
X174222339Y-95472339D01*
X174194890Y-95494866D01*
X174163569Y-95511607D01*
X174129591Y-95521915D01*
X174088110Y-95526000D01*
X173486890Y-95526000D01*
X173445409Y-95521915D01*
X173411431Y-95511607D01*
X173380110Y-95494866D01*
X173352661Y-95472339D01*
X173330134Y-95444890D01*
X173313393Y-95413569D01*
X173303085Y-95379591D01*
X173299000Y-95338110D01*
X173299000Y-94661890D01*
X173303085Y-94620409D01*
X173313393Y-94586431D01*
X173330134Y-94555110D01*
X173352661Y-94527661D01*
X173380110Y-94505134D01*
X173411431Y-94488393D01*
X173445409Y-94478085D01*
X173486890Y-94474000D01*
X174088110Y-94474000D01*
X174129591Y-94478085D01*
X174129591Y-94478085D01*
G37*
G36*
X172554591Y-94478085D02*
G01*
X172588569Y-94488393D01*
X172619890Y-94505134D01*
X172647339Y-94527661D01*
X172669866Y-94555110D01*
X172686607Y-94586431D01*
X172696915Y-94620409D01*
X172701000Y-94661890D01*
X172701000Y-95338110D01*
X172696915Y-95379591D01*
X172686607Y-95413569D01*
X172669866Y-95444890D01*
X172647339Y-95472339D01*
X172619890Y-95494866D01*
X172588569Y-95511607D01*
X172554591Y-95521915D01*
X172513110Y-95526000D01*
X171911890Y-95526000D01*
X171870409Y-95521915D01*
X171836431Y-95511607D01*
X171805110Y-95494866D01*
X171777661Y-95472339D01*
X171755134Y-95444890D01*
X171738393Y-95413569D01*
X171728085Y-95379591D01*
X171724000Y-95338110D01*
X171724000Y-94661890D01*
X171728085Y-94620409D01*
X171738393Y-94586431D01*
X171755134Y-94555110D01*
X171777661Y-94527661D01*
X171805110Y-94505134D01*
X171836431Y-94488393D01*
X171870409Y-94478085D01*
X171911890Y-94474000D01*
X172513110Y-94474000D01*
X172554591Y-94478085D01*
X172554591Y-94478085D01*
G37*
G36*
X180554591Y-94478085D02*
G01*
X180588569Y-94488393D01*
X180619890Y-94505134D01*
X180647339Y-94527661D01*
X180669866Y-94555110D01*
X180686607Y-94586431D01*
X180696915Y-94620409D01*
X180701000Y-94661890D01*
X180701000Y-95338110D01*
X180696915Y-95379591D01*
X180686607Y-95413569D01*
X180669866Y-95444890D01*
X180647339Y-95472339D01*
X180619890Y-95494866D01*
X180588569Y-95511607D01*
X180554591Y-95521915D01*
X180513110Y-95526000D01*
X179911890Y-95526000D01*
X179870409Y-95521915D01*
X179836431Y-95511607D01*
X179805110Y-95494866D01*
X179777661Y-95472339D01*
X179755134Y-95444890D01*
X179738393Y-95413569D01*
X179728085Y-95379591D01*
X179724000Y-95338110D01*
X179724000Y-94661890D01*
X179728085Y-94620409D01*
X179738393Y-94586431D01*
X179755134Y-94555110D01*
X179777661Y-94527661D01*
X179805110Y-94505134D01*
X179836431Y-94488393D01*
X179870409Y-94478085D01*
X179911890Y-94474000D01*
X180513110Y-94474000D01*
X180554591Y-94478085D01*
X180554591Y-94478085D01*
G37*
G36*
X182129591Y-94478085D02*
G01*
X182163569Y-94488393D01*
X182194890Y-94505134D01*
X182222339Y-94527661D01*
X182244866Y-94555110D01*
X182261607Y-94586431D01*
X182271915Y-94620409D01*
X182276000Y-94661890D01*
X182276000Y-95338110D01*
X182271915Y-95379591D01*
X182261607Y-95413569D01*
X182244866Y-95444890D01*
X182222339Y-95472339D01*
X182194890Y-95494866D01*
X182163569Y-95511607D01*
X182129591Y-95521915D01*
X182088110Y-95526000D01*
X181486890Y-95526000D01*
X181445409Y-95521915D01*
X181411431Y-95511607D01*
X181380110Y-95494866D01*
X181352661Y-95472339D01*
X181330134Y-95444890D01*
X181313393Y-95413569D01*
X181303085Y-95379591D01*
X181299000Y-95338110D01*
X181299000Y-94661890D01*
X181303085Y-94620409D01*
X181313393Y-94586431D01*
X181330134Y-94555110D01*
X181352661Y-94527661D01*
X181380110Y-94505134D01*
X181411431Y-94488393D01*
X181445409Y-94478085D01*
X181486890Y-94474000D01*
X182088110Y-94474000D01*
X182129591Y-94478085D01*
X182129591Y-94478085D01*
G37*
G36*
X202129591Y-94478085D02*
G01*
X202163569Y-94488393D01*
X202194890Y-94505134D01*
X202222339Y-94527661D01*
X202244866Y-94555110D01*
X202261607Y-94586431D01*
X202271915Y-94620409D01*
X202276000Y-94661890D01*
X202276000Y-95338110D01*
X202271915Y-95379591D01*
X202261607Y-95413569D01*
X202244866Y-95444890D01*
X202222339Y-95472339D01*
X202194890Y-95494866D01*
X202163569Y-95511607D01*
X202129591Y-95521915D01*
X202088110Y-95526000D01*
X201486890Y-95526000D01*
X201445409Y-95521915D01*
X201411431Y-95511607D01*
X201380110Y-95494866D01*
X201352661Y-95472339D01*
X201330134Y-95444890D01*
X201313393Y-95413569D01*
X201303085Y-95379591D01*
X201299000Y-95338110D01*
X201299000Y-94661890D01*
X201303085Y-94620409D01*
X201313393Y-94586431D01*
X201330134Y-94555110D01*
X201352661Y-94527661D01*
X201380110Y-94505134D01*
X201411431Y-94488393D01*
X201445409Y-94478085D01*
X201486890Y-94474000D01*
X202088110Y-94474000D01*
X202129591Y-94478085D01*
X202129591Y-94478085D01*
G37*
G36*
X200554591Y-94478085D02*
G01*
X200588569Y-94488393D01*
X200619890Y-94505134D01*
X200647339Y-94527661D01*
X200669866Y-94555110D01*
X200686607Y-94586431D01*
X200696915Y-94620409D01*
X200701000Y-94661890D01*
X200701000Y-95338110D01*
X200696915Y-95379591D01*
X200686607Y-95413569D01*
X200669866Y-95444890D01*
X200647339Y-95472339D01*
X200619890Y-95494866D01*
X200588569Y-95511607D01*
X200554591Y-95521915D01*
X200513110Y-95526000D01*
X199911890Y-95526000D01*
X199870409Y-95521915D01*
X199836431Y-95511607D01*
X199805110Y-95494866D01*
X199777661Y-95472339D01*
X199755134Y-95444890D01*
X199738393Y-95413569D01*
X199728085Y-95379591D01*
X199724000Y-95338110D01*
X199724000Y-94661890D01*
X199728085Y-94620409D01*
X199738393Y-94586431D01*
X199755134Y-94555110D01*
X199777661Y-94527661D01*
X199805110Y-94505134D01*
X199836431Y-94488393D01*
X199870409Y-94478085D01*
X199911890Y-94474000D01*
X200513110Y-94474000D01*
X200554591Y-94478085D01*
X200554591Y-94478085D01*
G37*
G36*
X192554591Y-94478085D02*
G01*
X192588569Y-94488393D01*
X192619890Y-94505134D01*
X192647339Y-94527661D01*
X192669866Y-94555110D01*
X192686607Y-94586431D01*
X192696915Y-94620409D01*
X192701000Y-94661890D01*
X192701000Y-95338110D01*
X192696915Y-95379591D01*
X192686607Y-95413569D01*
X192669866Y-95444890D01*
X192647339Y-95472339D01*
X192619890Y-95494866D01*
X192588569Y-95511607D01*
X192554591Y-95521915D01*
X192513110Y-95526000D01*
X191911890Y-95526000D01*
X191870409Y-95521915D01*
X191836431Y-95511607D01*
X191805110Y-95494866D01*
X191777661Y-95472339D01*
X191755134Y-95444890D01*
X191738393Y-95413569D01*
X191728085Y-95379591D01*
X191724000Y-95338110D01*
X191724000Y-94661890D01*
X191728085Y-94620409D01*
X191738393Y-94586431D01*
X191755134Y-94555110D01*
X191777661Y-94527661D01*
X191805110Y-94505134D01*
X191836431Y-94488393D01*
X191870409Y-94478085D01*
X191911890Y-94474000D01*
X192513110Y-94474000D01*
X192554591Y-94478085D01*
X192554591Y-94478085D01*
G37*
G36*
X194129591Y-94478085D02*
G01*
X194163569Y-94488393D01*
X194194890Y-94505134D01*
X194222339Y-94527661D01*
X194244866Y-94555110D01*
X194261607Y-94586431D01*
X194271915Y-94620409D01*
X194276000Y-94661890D01*
X194276000Y-95338110D01*
X194271915Y-95379591D01*
X194261607Y-95413569D01*
X194244866Y-95444890D01*
X194222339Y-95472339D01*
X194194890Y-95494866D01*
X194163569Y-95511607D01*
X194129591Y-95521915D01*
X194088110Y-95526000D01*
X193486890Y-95526000D01*
X193445409Y-95521915D01*
X193411431Y-95511607D01*
X193380110Y-95494866D01*
X193352661Y-95472339D01*
X193330134Y-95444890D01*
X193313393Y-95413569D01*
X193303085Y-95379591D01*
X193299000Y-95338110D01*
X193299000Y-94661890D01*
X193303085Y-94620409D01*
X193313393Y-94586431D01*
X193330134Y-94555110D01*
X193352661Y-94527661D01*
X193380110Y-94505134D01*
X193411431Y-94488393D01*
X193445409Y-94478085D01*
X193486890Y-94474000D01*
X194088110Y-94474000D01*
X194129591Y-94478085D01*
X194129591Y-94478085D01*
G37*
G36*
X123501000Y-93501000D02*
G01*
X122599000Y-93501000D01*
X122599000Y-92499000D01*
X123501000Y-92499000D01*
X123501000Y-93501000D01*
X123501000Y-93501000D01*
G37*
G36*
X99501000Y-93501000D02*
G01*
X98599000Y-93501000D01*
X98599000Y-92499000D01*
X99501000Y-92499000D01*
X99501000Y-93501000D01*
X99501000Y-93501000D01*
G37*
G36*
X107401000Y-93501000D02*
G01*
X106499000Y-93501000D01*
X106499000Y-92499000D01*
X107401000Y-92499000D01*
X107401000Y-93501000D01*
X107401000Y-93501000D01*
G37*
G36*
X105501000Y-93501000D02*
G01*
X104599000Y-93501000D01*
X104599000Y-92499000D01*
X105501000Y-92499000D01*
X105501000Y-93501000D01*
X105501000Y-93501000D01*
G37*
G36*
X119401000Y-93501000D02*
G01*
X118499000Y-93501000D01*
X118499000Y-92499000D01*
X119401000Y-92499000D01*
X119401000Y-93501000D01*
X119401000Y-93501000D01*
G37*
G36*
X117501000Y-93501000D02*
G01*
X116599000Y-93501000D01*
X116599000Y-92499000D01*
X117501000Y-92499000D01*
X117501000Y-93501000D01*
X117501000Y-93501000D01*
G37*
G36*
X125401000Y-93501000D02*
G01*
X124499000Y-93501000D01*
X124499000Y-92499000D01*
X125401000Y-92499000D01*
X125401000Y-93501000D01*
X125401000Y-93501000D01*
G37*
G36*
X141501000Y-93501000D02*
G01*
X140599000Y-93501000D01*
X140599000Y-92499000D01*
X141501000Y-92499000D01*
X141501000Y-93501000D01*
X141501000Y-93501000D01*
G37*
G36*
X137401000Y-93501000D02*
G01*
X136499000Y-93501000D01*
X136499000Y-92499000D01*
X137401000Y-92499000D01*
X137401000Y-93501000D01*
X137401000Y-93501000D01*
G37*
G36*
X143401000Y-93501000D02*
G01*
X142499000Y-93501000D01*
X142499000Y-92499000D01*
X143401000Y-92499000D01*
X143401000Y-93501000D01*
X143401000Y-93501000D01*
G37*
G36*
X153501000Y-93501000D02*
G01*
X152599000Y-93501000D01*
X152599000Y-92499000D01*
X153501000Y-92499000D01*
X153501000Y-93501000D01*
X153501000Y-93501000D01*
G37*
G36*
X155401000Y-93501000D02*
G01*
X154499000Y-93501000D01*
X154499000Y-92499000D01*
X155401000Y-92499000D01*
X155401000Y-93501000D01*
X155401000Y-93501000D01*
G37*
G36*
X159501000Y-93501000D02*
G01*
X158599000Y-93501000D01*
X158599000Y-92499000D01*
X159501000Y-92499000D01*
X159501000Y-93501000D01*
X159501000Y-93501000D01*
G37*
G36*
X161401000Y-93501000D02*
G01*
X160499000Y-93501000D01*
X160499000Y-92499000D01*
X161401000Y-92499000D01*
X161401000Y-93501000D01*
X161401000Y-93501000D01*
G37*
G36*
X101401000Y-93501000D02*
G01*
X100499000Y-93501000D01*
X100499000Y-92499000D01*
X101401000Y-92499000D01*
X101401000Y-93501000D01*
X101401000Y-93501000D01*
G37*
G36*
X135501000Y-93501000D02*
G01*
X134599000Y-93501000D01*
X134599000Y-92499000D01*
X135501000Y-92499000D01*
X135501000Y-93501000D01*
X135501000Y-93501000D01*
G37*
G36*
X124451000Y-91501000D02*
G01*
X123549000Y-91501000D01*
X123549000Y-90499000D01*
X124451000Y-90499000D01*
X124451000Y-91501000D01*
X124451000Y-91501000D01*
G37*
G36*
X160451000Y-91501000D02*
G01*
X159549000Y-91501000D01*
X159549000Y-90499000D01*
X160451000Y-90499000D01*
X160451000Y-91501000D01*
X160451000Y-91501000D01*
G37*
G36*
X154451000Y-91501000D02*
G01*
X153549000Y-91501000D01*
X153549000Y-90499000D01*
X154451000Y-90499000D01*
X154451000Y-91501000D01*
X154451000Y-91501000D01*
G37*
G36*
X142451000Y-91501000D02*
G01*
X141549000Y-91501000D01*
X141549000Y-90499000D01*
X142451000Y-90499000D01*
X142451000Y-91501000D01*
X142451000Y-91501000D01*
G37*
G36*
X118451000Y-91501000D02*
G01*
X117549000Y-91501000D01*
X117549000Y-90499000D01*
X118451000Y-90499000D01*
X118451000Y-91501000D01*
X118451000Y-91501000D01*
G37*
G36*
X106451000Y-91501000D02*
G01*
X105549000Y-91501000D01*
X105549000Y-90499000D01*
X106451000Y-90499000D01*
X106451000Y-91501000D01*
X106451000Y-91501000D01*
G37*
G36*
X100451000Y-91501000D02*
G01*
X99549000Y-91501000D01*
X99549000Y-90499000D01*
X100451000Y-90499000D01*
X100451000Y-91501000D01*
X100451000Y-91501000D01*
G37*
G36*
X136451000Y-91501000D02*
G01*
X135549000Y-91501000D01*
X135549000Y-90499000D01*
X136451000Y-90499000D01*
X136451000Y-91501000D01*
X136451000Y-91501000D01*
G37*
G36*
X117554591Y-87478085D02*
G01*
X117588569Y-87488393D01*
X117619890Y-87505134D01*
X117647339Y-87527661D01*
X117669866Y-87555110D01*
X117686607Y-87586431D01*
X117696915Y-87620409D01*
X117701000Y-87661890D01*
X117701000Y-88338110D01*
X117696915Y-88379591D01*
X117686607Y-88413569D01*
X117669866Y-88444890D01*
X117647339Y-88472339D01*
X117619890Y-88494866D01*
X117588569Y-88511607D01*
X117554591Y-88521915D01*
X117513110Y-88526000D01*
X116911890Y-88526000D01*
X116870409Y-88521915D01*
X116836431Y-88511607D01*
X116805110Y-88494866D01*
X116777661Y-88472339D01*
X116755134Y-88444890D01*
X116738393Y-88413569D01*
X116728085Y-88379591D01*
X116724000Y-88338110D01*
X116724000Y-87661890D01*
X116728085Y-87620409D01*
X116738393Y-87586431D01*
X116755134Y-87555110D01*
X116777661Y-87527661D01*
X116805110Y-87505134D01*
X116836431Y-87488393D01*
X116870409Y-87478085D01*
X116911890Y-87474000D01*
X117513110Y-87474000D01*
X117554591Y-87478085D01*
X117554591Y-87478085D01*
G37*
G36*
X105554591Y-87478085D02*
G01*
X105588569Y-87488393D01*
X105619890Y-87505134D01*
X105647339Y-87527661D01*
X105669866Y-87555110D01*
X105686607Y-87586431D01*
X105696915Y-87620409D01*
X105701000Y-87661890D01*
X105701000Y-88338110D01*
X105696915Y-88379591D01*
X105686607Y-88413569D01*
X105669866Y-88444890D01*
X105647339Y-88472339D01*
X105619890Y-88494866D01*
X105588569Y-88511607D01*
X105554591Y-88521915D01*
X105513110Y-88526000D01*
X104911890Y-88526000D01*
X104870409Y-88521915D01*
X104836431Y-88511607D01*
X104805110Y-88494866D01*
X104777661Y-88472339D01*
X104755134Y-88444890D01*
X104738393Y-88413569D01*
X104728085Y-88379591D01*
X104724000Y-88338110D01*
X104724000Y-87661890D01*
X104728085Y-87620409D01*
X104738393Y-87586431D01*
X104755134Y-87555110D01*
X104777661Y-87527661D01*
X104805110Y-87505134D01*
X104836431Y-87488393D01*
X104870409Y-87478085D01*
X104911890Y-87474000D01*
X105513110Y-87474000D01*
X105554591Y-87478085D01*
X105554591Y-87478085D01*
G37*
G36*
X99554591Y-87478085D02*
G01*
X99588569Y-87488393D01*
X99619890Y-87505134D01*
X99647339Y-87527661D01*
X99669866Y-87555110D01*
X99686607Y-87586431D01*
X99696915Y-87620409D01*
X99701000Y-87661890D01*
X99701000Y-88338110D01*
X99696915Y-88379591D01*
X99686607Y-88413569D01*
X99669866Y-88444890D01*
X99647339Y-88472339D01*
X99619890Y-88494866D01*
X99588569Y-88511607D01*
X99554591Y-88521915D01*
X99513110Y-88526000D01*
X98911890Y-88526000D01*
X98870409Y-88521915D01*
X98836431Y-88511607D01*
X98805110Y-88494866D01*
X98777661Y-88472339D01*
X98755134Y-88444890D01*
X98738393Y-88413569D01*
X98728085Y-88379591D01*
X98724000Y-88338110D01*
X98724000Y-87661890D01*
X98728085Y-87620409D01*
X98738393Y-87586431D01*
X98755134Y-87555110D01*
X98777661Y-87527661D01*
X98805110Y-87505134D01*
X98836431Y-87488393D01*
X98870409Y-87478085D01*
X98911890Y-87474000D01*
X99513110Y-87474000D01*
X99554591Y-87478085D01*
X99554591Y-87478085D01*
G37*
G36*
X101129591Y-87478085D02*
G01*
X101163569Y-87488393D01*
X101194890Y-87505134D01*
X101222339Y-87527661D01*
X101244866Y-87555110D01*
X101261607Y-87586431D01*
X101271915Y-87620409D01*
X101276000Y-87661890D01*
X101276000Y-88338110D01*
X101271915Y-88379591D01*
X101261607Y-88413569D01*
X101244866Y-88444890D01*
X101222339Y-88472339D01*
X101194890Y-88494866D01*
X101163569Y-88511607D01*
X101129591Y-88521915D01*
X101088110Y-88526000D01*
X100486890Y-88526000D01*
X100445409Y-88521915D01*
X100411431Y-88511607D01*
X100380110Y-88494866D01*
X100352661Y-88472339D01*
X100330134Y-88444890D01*
X100313393Y-88413569D01*
X100303085Y-88379591D01*
X100299000Y-88338110D01*
X100299000Y-87661890D01*
X100303085Y-87620409D01*
X100313393Y-87586431D01*
X100330134Y-87555110D01*
X100352661Y-87527661D01*
X100380110Y-87505134D01*
X100411431Y-87488393D01*
X100445409Y-87478085D01*
X100486890Y-87474000D01*
X101088110Y-87474000D01*
X101129591Y-87478085D01*
X101129591Y-87478085D01*
G37*
G36*
X119129591Y-87478085D02*
G01*
X119163569Y-87488393D01*
X119194890Y-87505134D01*
X119222339Y-87527661D01*
X119244866Y-87555110D01*
X119261607Y-87586431D01*
X119271915Y-87620409D01*
X119276000Y-87661890D01*
X119276000Y-88338110D01*
X119271915Y-88379591D01*
X119261607Y-88413569D01*
X119244866Y-88444890D01*
X119222339Y-88472339D01*
X119194890Y-88494866D01*
X119163569Y-88511607D01*
X119129591Y-88521915D01*
X119088110Y-88526000D01*
X118486890Y-88526000D01*
X118445409Y-88521915D01*
X118411431Y-88511607D01*
X118380110Y-88494866D01*
X118352661Y-88472339D01*
X118330134Y-88444890D01*
X118313393Y-88413569D01*
X118303085Y-88379591D01*
X118299000Y-88338110D01*
X118299000Y-87661890D01*
X118303085Y-87620409D01*
X118313393Y-87586431D01*
X118330134Y-87555110D01*
X118352661Y-87527661D01*
X118380110Y-87505134D01*
X118411431Y-87488393D01*
X118445409Y-87478085D01*
X118486890Y-87474000D01*
X119088110Y-87474000D01*
X119129591Y-87478085D01*
X119129591Y-87478085D01*
G37*
G36*
X161129591Y-87478085D02*
G01*
X161163569Y-87488393D01*
X161194890Y-87505134D01*
X161222339Y-87527661D01*
X161244866Y-87555110D01*
X161261607Y-87586431D01*
X161271915Y-87620409D01*
X161276000Y-87661890D01*
X161276000Y-88338110D01*
X161271915Y-88379591D01*
X161261607Y-88413569D01*
X161244866Y-88444890D01*
X161222339Y-88472339D01*
X161194890Y-88494866D01*
X161163569Y-88511607D01*
X161129591Y-88521915D01*
X161088110Y-88526000D01*
X160486890Y-88526000D01*
X160445409Y-88521915D01*
X160411431Y-88511607D01*
X160380110Y-88494866D01*
X160352661Y-88472339D01*
X160330134Y-88444890D01*
X160313393Y-88413569D01*
X160303085Y-88379591D01*
X160299000Y-88338110D01*
X160299000Y-87661890D01*
X160303085Y-87620409D01*
X160313393Y-87586431D01*
X160330134Y-87555110D01*
X160352661Y-87527661D01*
X160380110Y-87505134D01*
X160411431Y-87488393D01*
X160445409Y-87478085D01*
X160486890Y-87474000D01*
X161088110Y-87474000D01*
X161129591Y-87478085D01*
X161129591Y-87478085D01*
G37*
G36*
X159554591Y-87478085D02*
G01*
X159588569Y-87488393D01*
X159619890Y-87505134D01*
X159647339Y-87527661D01*
X159669866Y-87555110D01*
X159686607Y-87586431D01*
X159696915Y-87620409D01*
X159701000Y-87661890D01*
X159701000Y-88338110D01*
X159696915Y-88379591D01*
X159686607Y-88413569D01*
X159669866Y-88444890D01*
X159647339Y-88472339D01*
X159619890Y-88494866D01*
X159588569Y-88511607D01*
X159554591Y-88521915D01*
X159513110Y-88526000D01*
X158911890Y-88526000D01*
X158870409Y-88521915D01*
X158836431Y-88511607D01*
X158805110Y-88494866D01*
X158777661Y-88472339D01*
X158755134Y-88444890D01*
X158738393Y-88413569D01*
X158728085Y-88379591D01*
X158724000Y-88338110D01*
X158724000Y-87661890D01*
X158728085Y-87620409D01*
X158738393Y-87586431D01*
X158755134Y-87555110D01*
X158777661Y-87527661D01*
X158805110Y-87505134D01*
X158836431Y-87488393D01*
X158870409Y-87478085D01*
X158911890Y-87474000D01*
X159513110Y-87474000D01*
X159554591Y-87478085D01*
X159554591Y-87478085D01*
G37*
G36*
X155129591Y-87478085D02*
G01*
X155163569Y-87488393D01*
X155194890Y-87505134D01*
X155222339Y-87527661D01*
X155244866Y-87555110D01*
X155261607Y-87586431D01*
X155271915Y-87620409D01*
X155276000Y-87661890D01*
X155276000Y-88338110D01*
X155271915Y-88379591D01*
X155261607Y-88413569D01*
X155244866Y-88444890D01*
X155222339Y-88472339D01*
X155194890Y-88494866D01*
X155163569Y-88511607D01*
X155129591Y-88521915D01*
X155088110Y-88526000D01*
X154486890Y-88526000D01*
X154445409Y-88521915D01*
X154411431Y-88511607D01*
X154380110Y-88494866D01*
X154352661Y-88472339D01*
X154330134Y-88444890D01*
X154313393Y-88413569D01*
X154303085Y-88379591D01*
X154299000Y-88338110D01*
X154299000Y-87661890D01*
X154303085Y-87620409D01*
X154313393Y-87586431D01*
X154330134Y-87555110D01*
X154352661Y-87527661D01*
X154380110Y-87505134D01*
X154411431Y-87488393D01*
X154445409Y-87478085D01*
X154486890Y-87474000D01*
X155088110Y-87474000D01*
X155129591Y-87478085D01*
X155129591Y-87478085D01*
G37*
G36*
X107129591Y-87478085D02*
G01*
X107163569Y-87488393D01*
X107194890Y-87505134D01*
X107222339Y-87527661D01*
X107244866Y-87555110D01*
X107261607Y-87586431D01*
X107271915Y-87620409D01*
X107276000Y-87661890D01*
X107276000Y-88338110D01*
X107271915Y-88379591D01*
X107261607Y-88413569D01*
X107244866Y-88444890D01*
X107222339Y-88472339D01*
X107194890Y-88494866D01*
X107163569Y-88511607D01*
X107129591Y-88521915D01*
X107088110Y-88526000D01*
X106486890Y-88526000D01*
X106445409Y-88521915D01*
X106411431Y-88511607D01*
X106380110Y-88494866D01*
X106352661Y-88472339D01*
X106330134Y-88444890D01*
X106313393Y-88413569D01*
X106303085Y-88379591D01*
X106299000Y-88338110D01*
X106299000Y-87661890D01*
X106303085Y-87620409D01*
X106313393Y-87586431D01*
X106330134Y-87555110D01*
X106352661Y-87527661D01*
X106380110Y-87505134D01*
X106411431Y-87488393D01*
X106445409Y-87478085D01*
X106486890Y-87474000D01*
X107088110Y-87474000D01*
X107129591Y-87478085D01*
X107129591Y-87478085D01*
G37*
G36*
X123554591Y-87478085D02*
G01*
X123588569Y-87488393D01*
X123619890Y-87505134D01*
X123647339Y-87527661D01*
X123669866Y-87555110D01*
X123686607Y-87586431D01*
X123696915Y-87620409D01*
X123701000Y-87661890D01*
X123701000Y-88338110D01*
X123696915Y-88379591D01*
X123686607Y-88413569D01*
X123669866Y-88444890D01*
X123647339Y-88472339D01*
X123619890Y-88494866D01*
X123588569Y-88511607D01*
X123554591Y-88521915D01*
X123513110Y-88526000D01*
X122911890Y-88526000D01*
X122870409Y-88521915D01*
X122836431Y-88511607D01*
X122805110Y-88494866D01*
X122777661Y-88472339D01*
X122755134Y-88444890D01*
X122738393Y-88413569D01*
X122728085Y-88379591D01*
X122724000Y-88338110D01*
X122724000Y-87661890D01*
X122728085Y-87620409D01*
X122738393Y-87586431D01*
X122755134Y-87555110D01*
X122777661Y-87527661D01*
X122805110Y-87505134D01*
X122836431Y-87488393D01*
X122870409Y-87478085D01*
X122911890Y-87474000D01*
X123513110Y-87474000D01*
X123554591Y-87478085D01*
X123554591Y-87478085D01*
G37*
G36*
X125129591Y-87478085D02*
G01*
X125163569Y-87488393D01*
X125194890Y-87505134D01*
X125222339Y-87527661D01*
X125244866Y-87555110D01*
X125261607Y-87586431D01*
X125271915Y-87620409D01*
X125276000Y-87661890D01*
X125276000Y-88338110D01*
X125271915Y-88379591D01*
X125261607Y-88413569D01*
X125244866Y-88444890D01*
X125222339Y-88472339D01*
X125194890Y-88494866D01*
X125163569Y-88511607D01*
X125129591Y-88521915D01*
X125088110Y-88526000D01*
X124486890Y-88526000D01*
X124445409Y-88521915D01*
X124411431Y-88511607D01*
X124380110Y-88494866D01*
X124352661Y-88472339D01*
X124330134Y-88444890D01*
X124313393Y-88413569D01*
X124303085Y-88379591D01*
X124299000Y-88338110D01*
X124299000Y-87661890D01*
X124303085Y-87620409D01*
X124313393Y-87586431D01*
X124330134Y-87555110D01*
X124352661Y-87527661D01*
X124380110Y-87505134D01*
X124411431Y-87488393D01*
X124445409Y-87478085D01*
X124486890Y-87474000D01*
X125088110Y-87474000D01*
X125129591Y-87478085D01*
X125129591Y-87478085D01*
G37*
G36*
X135554591Y-87478085D02*
G01*
X135588569Y-87488393D01*
X135619890Y-87505134D01*
X135647339Y-87527661D01*
X135669866Y-87555110D01*
X135686607Y-87586431D01*
X135696915Y-87620409D01*
X135701000Y-87661890D01*
X135701000Y-88338110D01*
X135696915Y-88379591D01*
X135686607Y-88413569D01*
X135669866Y-88444890D01*
X135647339Y-88472339D01*
X135619890Y-88494866D01*
X135588569Y-88511607D01*
X135554591Y-88521915D01*
X135513110Y-88526000D01*
X134911890Y-88526000D01*
X134870409Y-88521915D01*
X134836431Y-88511607D01*
X134805110Y-88494866D01*
X134777661Y-88472339D01*
X134755134Y-88444890D01*
X134738393Y-88413569D01*
X134728085Y-88379591D01*
X134724000Y-88338110D01*
X134724000Y-87661890D01*
X134728085Y-87620409D01*
X134738393Y-87586431D01*
X134755134Y-87555110D01*
X134777661Y-87527661D01*
X134805110Y-87505134D01*
X134836431Y-87488393D01*
X134870409Y-87478085D01*
X134911890Y-87474000D01*
X135513110Y-87474000D01*
X135554591Y-87478085D01*
X135554591Y-87478085D01*
G37*
G36*
X137129591Y-87478085D02*
G01*
X137163569Y-87488393D01*
X137194890Y-87505134D01*
X137222339Y-87527661D01*
X137244866Y-87555110D01*
X137261607Y-87586431D01*
X137271915Y-87620409D01*
X137276000Y-87661890D01*
X137276000Y-88338110D01*
X137271915Y-88379591D01*
X137261607Y-88413569D01*
X137244866Y-88444890D01*
X137222339Y-88472339D01*
X137194890Y-88494866D01*
X137163569Y-88511607D01*
X137129591Y-88521915D01*
X137088110Y-88526000D01*
X136486890Y-88526000D01*
X136445409Y-88521915D01*
X136411431Y-88511607D01*
X136380110Y-88494866D01*
X136352661Y-88472339D01*
X136330134Y-88444890D01*
X136313393Y-88413569D01*
X136303085Y-88379591D01*
X136299000Y-88338110D01*
X136299000Y-87661890D01*
X136303085Y-87620409D01*
X136313393Y-87586431D01*
X136330134Y-87555110D01*
X136352661Y-87527661D01*
X136380110Y-87505134D01*
X136411431Y-87488393D01*
X136445409Y-87478085D01*
X136486890Y-87474000D01*
X137088110Y-87474000D01*
X137129591Y-87478085D01*
X137129591Y-87478085D01*
G37*
G36*
X141554591Y-87478085D02*
G01*
X141588569Y-87488393D01*
X141619890Y-87505134D01*
X141647339Y-87527661D01*
X141669866Y-87555110D01*
X141686607Y-87586431D01*
X141696915Y-87620409D01*
X141701000Y-87661890D01*
X141701000Y-88338110D01*
X141696915Y-88379591D01*
X141686607Y-88413569D01*
X141669866Y-88444890D01*
X141647339Y-88472339D01*
X141619890Y-88494866D01*
X141588569Y-88511607D01*
X141554591Y-88521915D01*
X141513110Y-88526000D01*
X140911890Y-88526000D01*
X140870409Y-88521915D01*
X140836431Y-88511607D01*
X140805110Y-88494866D01*
X140777661Y-88472339D01*
X140755134Y-88444890D01*
X140738393Y-88413569D01*
X140728085Y-88379591D01*
X140724000Y-88338110D01*
X140724000Y-87661890D01*
X140728085Y-87620409D01*
X140738393Y-87586431D01*
X140755134Y-87555110D01*
X140777661Y-87527661D01*
X140805110Y-87505134D01*
X140836431Y-87488393D01*
X140870409Y-87478085D01*
X140911890Y-87474000D01*
X141513110Y-87474000D01*
X141554591Y-87478085D01*
X141554591Y-87478085D01*
G37*
G36*
X143129591Y-87478085D02*
G01*
X143163569Y-87488393D01*
X143194890Y-87505134D01*
X143222339Y-87527661D01*
X143244866Y-87555110D01*
X143261607Y-87586431D01*
X143271915Y-87620409D01*
X143276000Y-87661890D01*
X143276000Y-88338110D01*
X143271915Y-88379591D01*
X143261607Y-88413569D01*
X143244866Y-88444890D01*
X143222339Y-88472339D01*
X143194890Y-88494866D01*
X143163569Y-88511607D01*
X143129591Y-88521915D01*
X143088110Y-88526000D01*
X142486890Y-88526000D01*
X142445409Y-88521915D01*
X142411431Y-88511607D01*
X142380110Y-88494866D01*
X142352661Y-88472339D01*
X142330134Y-88444890D01*
X142313393Y-88413569D01*
X142303085Y-88379591D01*
X142299000Y-88338110D01*
X142299000Y-87661890D01*
X142303085Y-87620409D01*
X142313393Y-87586431D01*
X142330134Y-87555110D01*
X142352661Y-87527661D01*
X142380110Y-87505134D01*
X142411431Y-87488393D01*
X142445409Y-87478085D01*
X142486890Y-87474000D01*
X143088110Y-87474000D01*
X143129591Y-87478085D01*
X143129591Y-87478085D01*
G37*
G36*
X153554591Y-87478085D02*
G01*
X153588569Y-87488393D01*
X153619890Y-87505134D01*
X153647339Y-87527661D01*
X153669866Y-87555110D01*
X153686607Y-87586431D01*
X153696915Y-87620409D01*
X153701000Y-87661890D01*
X153701000Y-88338110D01*
X153696915Y-88379591D01*
X153686607Y-88413569D01*
X153669866Y-88444890D01*
X153647339Y-88472339D01*
X153619890Y-88494866D01*
X153588569Y-88511607D01*
X153554591Y-88521915D01*
X153513110Y-88526000D01*
X152911890Y-88526000D01*
X152870409Y-88521915D01*
X152836431Y-88511607D01*
X152805110Y-88494866D01*
X152777661Y-88472339D01*
X152755134Y-88444890D01*
X152738393Y-88413569D01*
X152728085Y-88379591D01*
X152724000Y-88338110D01*
X152724000Y-87661890D01*
X152728085Y-87620409D01*
X152738393Y-87586431D01*
X152755134Y-87555110D01*
X152777661Y-87527661D01*
X152805110Y-87505134D01*
X152836431Y-87488393D01*
X152870409Y-87478085D01*
X152911890Y-87474000D01*
X153513110Y-87474000D01*
X153554591Y-87478085D01*
X153554591Y-87478085D01*
G37*
G36*
X211348156Y-76672794D02*
G01*
X212069140Y-76816206D01*
X212860972Y-77144193D01*
X213573601Y-77620357D01*
X214179643Y-78226399D01*
X214655807Y-78939028D01*
X214983794Y-79730860D01*
X215151000Y-80571464D01*
X215151000Y-81428536D01*
X214983794Y-82269140D01*
X214655807Y-83060972D01*
X214179643Y-83773601D01*
X213573601Y-84379643D01*
X212860972Y-84855807D01*
X212069140Y-85183794D01*
X211348156Y-85327206D01*
X211228537Y-85351000D01*
X210371463Y-85351000D01*
X210251844Y-85327206D01*
X209530860Y-85183794D01*
X208739028Y-84855807D01*
X208026399Y-84379643D01*
X207420357Y-83773601D01*
X206944193Y-83060972D01*
X206616206Y-82269140D01*
X206449000Y-81428536D01*
X206449000Y-80571464D01*
X206616206Y-79730860D01*
X206944193Y-78939028D01*
X207420357Y-78226399D01*
X208026399Y-77620357D01*
X208739028Y-77144193D01*
X209530860Y-76816206D01*
X210251844Y-76672794D01*
X210371463Y-76649000D01*
X211228537Y-76649000D01*
X211348156Y-76672794D01*
X211348156Y-76672794D01*
G37*
G36*
X89748156Y-76672794D02*
G01*
X90469140Y-76816206D01*
X91260972Y-77144193D01*
X91973601Y-77620357D01*
X92579643Y-78226399D01*
X93055807Y-78939028D01*
X93383794Y-79730860D01*
X93551000Y-80571464D01*
X93551000Y-81428536D01*
X93383794Y-82269140D01*
X93055807Y-83060972D01*
X92579643Y-83773601D01*
X91973601Y-84379643D01*
X91260972Y-84855807D01*
X90469140Y-85183794D01*
X89748156Y-85327206D01*
X89628537Y-85351000D01*
X88771463Y-85351000D01*
X88651844Y-85327206D01*
X87930860Y-85183794D01*
X87139028Y-84855807D01*
X86426399Y-84379643D01*
X85820357Y-83773601D01*
X85344193Y-83060972D01*
X85016206Y-82269140D01*
X84849000Y-81428536D01*
X84849000Y-80571464D01*
X85016206Y-79730860D01*
X85344193Y-78939028D01*
X85820357Y-78226399D01*
X86426399Y-77620357D01*
X87139028Y-77144193D01*
X87930860Y-76816206D01*
X88651844Y-76672794D01*
X88771463Y-76649000D01*
X89628537Y-76649000D01*
X89748156Y-76672794D01*
X89748156Y-76672794D01*
G37*
M02*
