G04 #@! TF.GenerationSoftware,KiCad,Pcbnew,(5.1.2)-1*
G04 #@! TF.CreationDate,2019-09-05T21:25:15-07:00*
G04 #@! TF.ProjectId,design,64657369-676e-42e6-9b69-6361645f7063,rev?*
G04 #@! TF.SameCoordinates,Original*
G04 #@! TF.FileFunction,Legend,Top*
G04 #@! TF.FilePolarity,Positive*
%FSLAX46Y46*%
G04 Gerber Fmt 4.6, Leading zero omitted, Abs format (unit mm)*
G04 Created by KiCad (PCBNEW (5.1.2)-1) date 2019-09-05 21:25:15*
%MOMM*%
%LPD*%
G04 APERTURE LIST*
%ADD10C,0.300000*%
%ADD11C,0.100000*%
%ADD12C,0.120000*%
%ADD13C,0.150000*%
%ADD14C,0.080000*%
G04 APERTURE END LIST*
D10*
X106552142Y-137128571D02*
X106552142Y-135628571D01*
X106552142Y-136342857D02*
X107409285Y-136342857D01*
X107409285Y-137128571D02*
X107409285Y-135628571D01*
X108123571Y-137128571D02*
X108123571Y-136128571D01*
X108123571Y-135628571D02*
X108052142Y-135700000D01*
X108123571Y-135771428D01*
X108195000Y-135700000D01*
X108123571Y-135628571D01*
X108123571Y-135771428D01*
X109480714Y-136128571D02*
X109480714Y-137342857D01*
X109409285Y-137485714D01*
X109337857Y-137557142D01*
X109195000Y-137628571D01*
X108980714Y-137628571D01*
X108837857Y-137557142D01*
X109480714Y-137057142D02*
X109337857Y-137128571D01*
X109052142Y-137128571D01*
X108909285Y-137057142D01*
X108837857Y-136985714D01*
X108766428Y-136842857D01*
X108766428Y-136414285D01*
X108837857Y-136271428D01*
X108909285Y-136200000D01*
X109052142Y-136128571D01*
X109337857Y-136128571D01*
X109480714Y-136200000D01*
X110195000Y-137128571D02*
X110195000Y-135628571D01*
X110837857Y-137128571D02*
X110837857Y-136342857D01*
X110766428Y-136200000D01*
X110623571Y-136128571D01*
X110409285Y-136128571D01*
X110266428Y-136200000D01*
X110195000Y-136271428D01*
X111552142Y-136557142D02*
X112695000Y-136557142D01*
X113337857Y-137057142D02*
X113480714Y-137128571D01*
X113766428Y-137128571D01*
X113909285Y-137057142D01*
X113980714Y-136914285D01*
X113980714Y-136842857D01*
X113909285Y-136700000D01*
X113766428Y-136628571D01*
X113552142Y-136628571D01*
X113409285Y-136557142D01*
X113337857Y-136414285D01*
X113337857Y-136342857D01*
X113409285Y-136200000D01*
X113552142Y-136128571D01*
X113766428Y-136128571D01*
X113909285Y-136200000D01*
X114623571Y-137128571D02*
X114623571Y-136128571D01*
X114623571Y-135628571D02*
X114552142Y-135700000D01*
X114623571Y-135771428D01*
X114695000Y-135700000D01*
X114623571Y-135628571D01*
X114623571Y-135771428D01*
X115980714Y-137128571D02*
X115980714Y-135628571D01*
X115980714Y-137057142D02*
X115837857Y-137128571D01*
X115552142Y-137128571D01*
X115409285Y-137057142D01*
X115337857Y-136985714D01*
X115266428Y-136842857D01*
X115266428Y-136414285D01*
X115337857Y-136271428D01*
X115409285Y-136200000D01*
X115552142Y-136128571D01*
X115837857Y-136128571D01*
X115980714Y-136200000D01*
X117266428Y-137057142D02*
X117123571Y-137128571D01*
X116837857Y-137128571D01*
X116695000Y-137057142D01*
X116623571Y-136914285D01*
X116623571Y-136342857D01*
X116695000Y-136200000D01*
X116837857Y-136128571D01*
X117123571Y-136128571D01*
X117266428Y-136200000D01*
X117337857Y-136342857D01*
X117337857Y-136485714D01*
X116623571Y-136628571D01*
X119837857Y-137128571D02*
X119123571Y-137128571D01*
X119123571Y-135628571D01*
X120337857Y-137128571D02*
X120337857Y-136128571D01*
X120337857Y-135628571D02*
X120266428Y-135700000D01*
X120337857Y-135771428D01*
X120409285Y-135700000D01*
X120337857Y-135628571D01*
X120337857Y-135771428D01*
X121695000Y-136128571D02*
X121695000Y-137342857D01*
X121623571Y-137485714D01*
X121552142Y-137557142D01*
X121409285Y-137628571D01*
X121195000Y-137628571D01*
X121052142Y-137557142D01*
X121695000Y-137057142D02*
X121552142Y-137128571D01*
X121266428Y-137128571D01*
X121123571Y-137057142D01*
X121052142Y-136985714D01*
X120980714Y-136842857D01*
X120980714Y-136414285D01*
X121052142Y-136271428D01*
X121123571Y-136200000D01*
X121266428Y-136128571D01*
X121552142Y-136128571D01*
X121695000Y-136200000D01*
X122409285Y-137128571D02*
X122409285Y-135628571D01*
X123052142Y-137128571D02*
X123052142Y-136342857D01*
X122980714Y-136200000D01*
X122837857Y-136128571D01*
X122623571Y-136128571D01*
X122480714Y-136200000D01*
X122409285Y-136271428D01*
X123552142Y-136128571D02*
X124123571Y-136128571D01*
X123766428Y-135628571D02*
X123766428Y-136914285D01*
X123837857Y-137057142D01*
X123980714Y-137128571D01*
X124123571Y-137128571D01*
X124552142Y-137057142D02*
X124695000Y-137128571D01*
X124980714Y-137128571D01*
X125123571Y-137057142D01*
X125195000Y-136914285D01*
X125195000Y-136842857D01*
X125123571Y-136700000D01*
X124980714Y-136628571D01*
X124766428Y-136628571D01*
X124623571Y-136557142D01*
X124552142Y-136414285D01*
X124552142Y-136342857D01*
X124623571Y-136200000D01*
X124766428Y-136128571D01*
X124980714Y-136128571D01*
X125123571Y-136200000D01*
X127837857Y-136985714D02*
X127766428Y-137057142D01*
X127552142Y-137128571D01*
X127409285Y-137128571D01*
X127195000Y-137057142D01*
X127052142Y-136914285D01*
X126980714Y-136771428D01*
X126909285Y-136485714D01*
X126909285Y-136271428D01*
X126980714Y-135985714D01*
X127052142Y-135842857D01*
X127195000Y-135700000D01*
X127409285Y-135628571D01*
X127552142Y-135628571D01*
X127766428Y-135700000D01*
X127837857Y-135771428D01*
X128695000Y-137128571D02*
X128552142Y-137057142D01*
X128480714Y-136985714D01*
X128409285Y-136842857D01*
X128409285Y-136414285D01*
X128480714Y-136271428D01*
X128552142Y-136200000D01*
X128695000Y-136128571D01*
X128909285Y-136128571D01*
X129052142Y-136200000D01*
X129123571Y-136271428D01*
X129195000Y-136414285D01*
X129195000Y-136842857D01*
X129123571Y-136985714D01*
X129052142Y-137057142D01*
X128909285Y-137128571D01*
X128695000Y-137128571D01*
X129837857Y-136128571D02*
X129837857Y-137128571D01*
X129837857Y-136271428D02*
X129909285Y-136200000D01*
X130052142Y-136128571D01*
X130266428Y-136128571D01*
X130409285Y-136200000D01*
X130480714Y-136342857D01*
X130480714Y-137128571D01*
X130980714Y-136128571D02*
X131552142Y-136128571D01*
X131195000Y-135628571D02*
X131195000Y-136914285D01*
X131266428Y-137057142D01*
X131409285Y-137128571D01*
X131552142Y-137128571D01*
X132052142Y-137128571D02*
X132052142Y-136128571D01*
X132052142Y-136414285D02*
X132123571Y-136271428D01*
X132195000Y-136200000D01*
X132337857Y-136128571D01*
X132480714Y-136128571D01*
X133195000Y-137128571D02*
X133052142Y-137057142D01*
X132980714Y-136985714D01*
X132909285Y-136842857D01*
X132909285Y-136414285D01*
X132980714Y-136271428D01*
X133052142Y-136200000D01*
X133195000Y-136128571D01*
X133409285Y-136128571D01*
X133552142Y-136200000D01*
X133623571Y-136271428D01*
X133695000Y-136414285D01*
X133695000Y-136842857D01*
X133623571Y-136985714D01*
X133552142Y-137057142D01*
X133409285Y-137128571D01*
X133195000Y-137128571D01*
X134552142Y-137128571D02*
X134409285Y-137057142D01*
X134337857Y-136914285D01*
X134337857Y-135628571D01*
X135337857Y-137128571D02*
X135195000Y-137057142D01*
X135123571Y-136914285D01*
X135123571Y-135628571D01*
X136480714Y-137057142D02*
X136337857Y-137128571D01*
X136052142Y-137128571D01*
X135909285Y-137057142D01*
X135837857Y-136914285D01*
X135837857Y-136342857D01*
X135909285Y-136200000D01*
X136052142Y-136128571D01*
X136337857Y-136128571D01*
X136480714Y-136200000D01*
X136552142Y-136342857D01*
X136552142Y-136485714D01*
X135837857Y-136628571D01*
X137195000Y-137128571D02*
X137195000Y-136128571D01*
X137195000Y-136414285D02*
X137266428Y-136271428D01*
X137337857Y-136200000D01*
X137480714Y-136128571D01*
X137623571Y-136128571D01*
X106480714Y-139250000D02*
X107195000Y-139250000D01*
X106337857Y-139678571D02*
X106837857Y-138178571D01*
X107337857Y-139678571D01*
X108480714Y-138678571D02*
X108480714Y-139678571D01*
X107837857Y-138678571D02*
X107837857Y-139464285D01*
X107909285Y-139607142D01*
X108052142Y-139678571D01*
X108266428Y-139678571D01*
X108409285Y-139607142D01*
X108480714Y-139535714D01*
X109837857Y-138678571D02*
X109837857Y-139892857D01*
X109766428Y-140035714D01*
X109695000Y-140107142D01*
X109552142Y-140178571D01*
X109337857Y-140178571D01*
X109195000Y-140107142D01*
X109837857Y-139607142D02*
X109695000Y-139678571D01*
X109409285Y-139678571D01*
X109266428Y-139607142D01*
X109195000Y-139535714D01*
X109123571Y-139392857D01*
X109123571Y-138964285D01*
X109195000Y-138821428D01*
X109266428Y-138750000D01*
X109409285Y-138678571D01*
X109695000Y-138678571D01*
X109837857Y-138750000D01*
X111623571Y-138321428D02*
X111695000Y-138250000D01*
X111837857Y-138178571D01*
X112195000Y-138178571D01*
X112337857Y-138250000D01*
X112409285Y-138321428D01*
X112480714Y-138464285D01*
X112480714Y-138607142D01*
X112409285Y-138821428D01*
X111552142Y-139678571D01*
X112480714Y-139678571D01*
X113409285Y-138178571D02*
X113552142Y-138178571D01*
X113695000Y-138250000D01*
X113766428Y-138321428D01*
X113837857Y-138464285D01*
X113909285Y-138750000D01*
X113909285Y-139107142D01*
X113837857Y-139392857D01*
X113766428Y-139535714D01*
X113695000Y-139607142D01*
X113552142Y-139678571D01*
X113409285Y-139678571D01*
X113266428Y-139607142D01*
X113195000Y-139535714D01*
X113123571Y-139392857D01*
X113052142Y-139107142D01*
X113052142Y-138750000D01*
X113123571Y-138464285D01*
X113195000Y-138321428D01*
X113266428Y-138250000D01*
X113409285Y-138178571D01*
X115337857Y-139678571D02*
X114480714Y-139678571D01*
X114909285Y-139678571D02*
X114909285Y-138178571D01*
X114766428Y-138392857D01*
X114623571Y-138535714D01*
X114480714Y-138607142D01*
X116052142Y-139678571D02*
X116337857Y-139678571D01*
X116480714Y-139607142D01*
X116552142Y-139535714D01*
X116695000Y-139321428D01*
X116766428Y-139035714D01*
X116766428Y-138464285D01*
X116695000Y-138321428D01*
X116623571Y-138250000D01*
X116480714Y-138178571D01*
X116195000Y-138178571D01*
X116052142Y-138250000D01*
X115980714Y-138321428D01*
X115909285Y-138464285D01*
X115909285Y-138821428D01*
X115980714Y-138964285D01*
X116052142Y-139035714D01*
X116195000Y-139107142D01*
X116480714Y-139107142D01*
X116623571Y-139035714D01*
X116695000Y-138964285D01*
X116766428Y-138821428D01*
X106552142Y-142228571D02*
X106552142Y-141228571D01*
X106552142Y-141514285D02*
X106623571Y-141371428D01*
X106695000Y-141300000D01*
X106837857Y-141228571D01*
X106980714Y-141228571D01*
X107337857Y-141228571D02*
X107695000Y-142228571D01*
X108052142Y-141228571D01*
X109409285Y-142228571D02*
X108552142Y-142228571D01*
X108980714Y-142228571D02*
X108980714Y-140728571D01*
X108837857Y-140942857D01*
X108695000Y-141085714D01*
X108552142Y-141157142D01*
D11*
X91450000Y-81000000D02*
G75*
G03X91450000Y-81000000I-2250000J0D01*
G01*
X213050000Y-139000000D02*
G75*
G03X213050000Y-139000000I-2250000J0D01*
G01*
D12*
X144681802Y-114787113D02*
X145000000Y-115105311D01*
X145000000Y-115105311D02*
X145318198Y-114787113D01*
X140212887Y-110318198D02*
X139894689Y-110000000D01*
X139894689Y-110000000D02*
X140212887Y-109681802D01*
X149787113Y-109681802D02*
X150105311Y-110000000D01*
X150105311Y-110000000D02*
X149787113Y-110318198D01*
X145318198Y-105212887D02*
X145000000Y-104894689D01*
X145000000Y-104894689D02*
X144681802Y-105212887D01*
X144681802Y-105212887D02*
X143769634Y-104300719D01*
X161765000Y-113235000D02*
X158235000Y-113235000D01*
X161765000Y-106765000D02*
X158235000Y-106765000D01*
X163090000Y-113170000D02*
X161765000Y-113170000D01*
X161765000Y-113235000D02*
X161765000Y-113170000D01*
X158235000Y-113235000D02*
X158235000Y-113170000D01*
X161765000Y-106830000D02*
X161765000Y-106765000D01*
X158235000Y-106830000D02*
X158235000Y-106765000D01*
D13*
X188600000Y-144000000D02*
X201400000Y-144000000D01*
X201400000Y-144000000D02*
X201400000Y-136200000D01*
X201400000Y-136200000D02*
X188600000Y-136200000D01*
X188600000Y-136200000D02*
X188600000Y-144000000D01*
X148600000Y-140100000D02*
X151400000Y-140100000D01*
X148600000Y-140600000D02*
X148600000Y-140100000D01*
X148600000Y-141900000D02*
X151400000Y-141900000D01*
X119100000Y-108600000D02*
X119100000Y-111400000D01*
X120400000Y-108600000D02*
X120900000Y-108600000D01*
X120900000Y-108600000D02*
X120900000Y-111400000D01*
D12*
X160315000Y-124000000D02*
X160315000Y-127420000D01*
X160315000Y-127420000D02*
X160605000Y-127420000D01*
X160315000Y-124000000D02*
X160315000Y-120580000D01*
X160315000Y-120580000D02*
X160605000Y-120580000D01*
X169685000Y-124000000D02*
X169685000Y-127420000D01*
X169685000Y-127420000D02*
X169395000Y-127420000D01*
X169685000Y-124000000D02*
X169685000Y-120580000D01*
X169685000Y-120580000D02*
X169395000Y-120580000D01*
X169395000Y-120580000D02*
X169395000Y-118300000D01*
X143425000Y-121900000D02*
X146575000Y-121900000D01*
X146575000Y-121900000D02*
X146575000Y-118100000D01*
X196900000Y-130150000D02*
X196900000Y-123850000D01*
X203100000Y-130150000D02*
X203100000Y-123850000D01*
D13*
X156600000Y-144000000D02*
X173400000Y-144000000D01*
X173400000Y-144000000D02*
X173400000Y-136200000D01*
X173400000Y-136200000D02*
X156600000Y-136200000D01*
X156600000Y-136200000D02*
X156600000Y-144000000D01*
X110400000Y-76000000D02*
X95600000Y-76000000D01*
X95600000Y-76000000D02*
X95600000Y-83800000D01*
X95600000Y-83800000D02*
X110400000Y-83800000D01*
X110400000Y-83800000D02*
X110400000Y-76000000D01*
X128400000Y-83800000D02*
X128400000Y-76000000D01*
X113600000Y-83800000D02*
X128400000Y-83800000D01*
X113600000Y-76000000D02*
X113600000Y-83800000D01*
X128400000Y-76000000D02*
X113600000Y-76000000D01*
X146400000Y-83800000D02*
X146400000Y-76000000D01*
X131600000Y-83800000D02*
X146400000Y-83800000D01*
X131600000Y-76000000D02*
X131600000Y-83800000D01*
X146400000Y-76000000D02*
X131600000Y-76000000D01*
X164400000Y-76000000D02*
X149600000Y-76000000D01*
X149600000Y-76000000D02*
X149600000Y-83800000D01*
X149600000Y-83800000D02*
X164400000Y-83800000D01*
X164400000Y-83800000D02*
X164400000Y-76000000D01*
X184400000Y-83800000D02*
X184400000Y-76000000D01*
X169600000Y-83800000D02*
X184400000Y-83800000D01*
X169600000Y-76000000D02*
X169600000Y-83800000D01*
X184400000Y-76000000D02*
X169600000Y-76000000D01*
X204400000Y-76000000D02*
X189600000Y-76000000D01*
X189600000Y-76000000D02*
X189600000Y-83800000D01*
X189600000Y-83800000D02*
X204400000Y-83800000D01*
X204400000Y-83800000D02*
X204400000Y-76000000D01*
D12*
X101580000Y-91240000D02*
X100650000Y-91240000D01*
X98420000Y-91240000D02*
X99350000Y-91240000D01*
X98420000Y-91240000D02*
X98420000Y-93400000D01*
X101580000Y-91240000D02*
X101580000Y-92700000D01*
X107580000Y-91240000D02*
X106650000Y-91240000D01*
X104420000Y-91240000D02*
X105350000Y-91240000D01*
X104420000Y-91240000D02*
X104420000Y-93400000D01*
X107580000Y-91240000D02*
X107580000Y-92700000D01*
X119580000Y-91240000D02*
X119580000Y-92700000D01*
X116420000Y-91240000D02*
X116420000Y-93400000D01*
X116420000Y-91240000D02*
X117350000Y-91240000D01*
X119580000Y-91240000D02*
X118650000Y-91240000D01*
X125580000Y-91240000D02*
X125580000Y-92700000D01*
X122420000Y-91240000D02*
X122420000Y-93400000D01*
X122420000Y-91240000D02*
X123350000Y-91240000D01*
X125580000Y-91240000D02*
X124650000Y-91240000D01*
X137580000Y-91240000D02*
X137580000Y-92700000D01*
X134420000Y-91240000D02*
X134420000Y-93400000D01*
X134420000Y-91240000D02*
X135350000Y-91240000D01*
X137580000Y-91240000D02*
X136650000Y-91240000D01*
X143580000Y-91240000D02*
X142650000Y-91240000D01*
X140420000Y-91240000D02*
X141350000Y-91240000D01*
X140420000Y-91240000D02*
X140420000Y-93400000D01*
X143580000Y-91240000D02*
X143580000Y-92700000D01*
X155580000Y-91240000D02*
X154650000Y-91240000D01*
X152420000Y-91240000D02*
X153350000Y-91240000D01*
X152420000Y-91240000D02*
X152420000Y-93400000D01*
X155580000Y-91240000D02*
X155580000Y-92700000D01*
X161580000Y-91240000D02*
X160650000Y-91240000D01*
X158420000Y-91240000D02*
X159350000Y-91240000D01*
X158420000Y-91240000D02*
X158420000Y-93400000D01*
X161580000Y-91240000D02*
X161580000Y-92700000D01*
X176180000Y-98470000D02*
X176180000Y-99570000D01*
X176450000Y-98470000D02*
X176180000Y-98470000D01*
X176450000Y-96970000D02*
X176450000Y-98470000D01*
X169820000Y-98470000D02*
X169820000Y-101300000D01*
X169550000Y-98470000D02*
X169820000Y-98470000D01*
X169550000Y-96970000D02*
X169550000Y-98470000D01*
X184180000Y-98470000D02*
X184180000Y-99570000D01*
X184450000Y-98470000D02*
X184180000Y-98470000D01*
X184450000Y-96970000D02*
X184450000Y-98470000D01*
X177820000Y-98470000D02*
X177820000Y-101300000D01*
X177550000Y-98470000D02*
X177820000Y-98470000D01*
X177550000Y-96970000D02*
X177550000Y-98470000D01*
X189550000Y-96970000D02*
X189550000Y-98470000D01*
X189550000Y-98470000D02*
X189820000Y-98470000D01*
X189820000Y-98470000D02*
X189820000Y-101300000D01*
X196450000Y-96970000D02*
X196450000Y-98470000D01*
X196450000Y-98470000D02*
X196180000Y-98470000D01*
X196180000Y-98470000D02*
X196180000Y-99570000D01*
X197550000Y-96970000D02*
X197550000Y-98470000D01*
X197550000Y-98470000D02*
X197820000Y-98470000D01*
X197820000Y-98470000D02*
X197820000Y-101300000D01*
X204450000Y-96970000D02*
X204450000Y-98470000D01*
X204450000Y-98470000D02*
X204180000Y-98470000D01*
X204180000Y-98470000D02*
X204180000Y-99570000D01*
D14*
X84904761Y-146226190D02*
X84857142Y-146202380D01*
X84833333Y-146178571D01*
X84809523Y-146130952D01*
X84809523Y-145988095D01*
X84833333Y-145940476D01*
X84857142Y-145916666D01*
X84904761Y-145892857D01*
X84976190Y-145892857D01*
X85023809Y-145916666D01*
X85047619Y-145940476D01*
X85071428Y-145988095D01*
X85071428Y-146130952D01*
X85047619Y-146178571D01*
X85023809Y-146202380D01*
X84976190Y-146226190D01*
X84904761Y-146226190D01*
X85500000Y-145892857D02*
X85500000Y-146226190D01*
X85285714Y-145892857D02*
X85285714Y-146154761D01*
X85309523Y-146202380D01*
X85357142Y-146226190D01*
X85428571Y-146226190D01*
X85476190Y-146202380D01*
X85500000Y-146178571D01*
X85666666Y-145892857D02*
X85857142Y-145892857D01*
X85738095Y-145726190D02*
X85738095Y-146154761D01*
X85761904Y-146202380D01*
X85809523Y-146226190D01*
X85857142Y-146226190D01*
X86095238Y-146226190D02*
X86047619Y-146202380D01*
X86023809Y-146154761D01*
X86023809Y-145726190D01*
X86285714Y-146226190D02*
X86285714Y-145892857D01*
X86285714Y-145726190D02*
X86261904Y-145750000D01*
X86285714Y-145773809D01*
X86309523Y-145750000D01*
X86285714Y-145726190D01*
X86285714Y-145773809D01*
X86523809Y-145892857D02*
X86523809Y-146226190D01*
X86523809Y-145940476D02*
X86547619Y-145916666D01*
X86595238Y-145892857D01*
X86666666Y-145892857D01*
X86714285Y-145916666D01*
X86738095Y-145964285D01*
X86738095Y-146226190D01*
X87166666Y-146202380D02*
X87119047Y-146226190D01*
X87023809Y-146226190D01*
X86976190Y-146202380D01*
X86952380Y-146154761D01*
X86952380Y-145964285D01*
X86976190Y-145916666D01*
X87023809Y-145892857D01*
X87119047Y-145892857D01*
X87166666Y-145916666D01*
X87190476Y-145964285D01*
X87190476Y-146011904D01*
X86952380Y-146059523D01*
X148193765Y-105240497D02*
X148429468Y-105004795D01*
X148395796Y-105038467D02*
X148429468Y-105038467D01*
X148479975Y-105055302D01*
X148530483Y-105105810D01*
X148547319Y-105156318D01*
X148530483Y-105206825D01*
X148345288Y-105392020D01*
X148530483Y-105206825D02*
X148580991Y-105189989D01*
X148631498Y-105206825D01*
X148682006Y-105257333D01*
X148698842Y-105307841D01*
X148682006Y-105358348D01*
X148496811Y-105543543D01*
X148833529Y-105846589D02*
X148783021Y-105829753D01*
X148715678Y-105762409D01*
X148698842Y-105711902D01*
X148698842Y-105678230D01*
X148715678Y-105627722D01*
X148816693Y-105526707D01*
X148867200Y-105509871D01*
X148900872Y-105509871D01*
X148951380Y-105526707D01*
X149018723Y-105594050D01*
X149035559Y-105644558D01*
X149355441Y-105930768D02*
X149119739Y-106166470D01*
X149203918Y-105779245D02*
X149018723Y-105964440D01*
X149001887Y-106014947D01*
X149018723Y-106065455D01*
X149069231Y-106115963D01*
X149119739Y-106132799D01*
X149153410Y-106132799D01*
X149321769Y-106301157D02*
X149321769Y-106334829D01*
X149288097Y-106334829D01*
X149288097Y-106301157D01*
X149321769Y-106301157D01*
X149288097Y-106334829D01*
X149456456Y-106503188D02*
X149692158Y-106267486D01*
X149810010Y-106149634D02*
X149776338Y-106149634D01*
X149776338Y-106183306D01*
X149810010Y-106183306D01*
X149810010Y-106149634D01*
X149776338Y-106183306D01*
X149793174Y-106806234D02*
X149742666Y-106789398D01*
X149675323Y-106722054D01*
X149658487Y-106671547D01*
X149658487Y-106637875D01*
X149675323Y-106587367D01*
X149776338Y-106486352D01*
X149826845Y-106469516D01*
X149860517Y-106469516D01*
X149911025Y-106486352D01*
X149978368Y-106553695D01*
X149995204Y-106604203D01*
X159404761Y-114202380D02*
X159452380Y-114226190D01*
X159547619Y-114226190D01*
X159595238Y-114202380D01*
X159619047Y-114154761D01*
X159619047Y-114130952D01*
X159595238Y-114083333D01*
X159547619Y-114059523D01*
X159476190Y-114059523D01*
X159428571Y-114035714D01*
X159404761Y-113988095D01*
X159404761Y-113964285D01*
X159428571Y-113916666D01*
X159476190Y-113892857D01*
X159547619Y-113892857D01*
X159595238Y-113916666D01*
X159785714Y-113892857D02*
X159880952Y-114226190D01*
X159976190Y-113988095D01*
X160071428Y-114226190D01*
X160166666Y-113892857D01*
X160571428Y-114226190D02*
X160571428Y-113726190D01*
X160571428Y-114202380D02*
X160523809Y-114226190D01*
X160428571Y-114226190D01*
X160380952Y-114202380D01*
X160357142Y-114178571D01*
X160333333Y-114130952D01*
X160333333Y-113988095D01*
X160357142Y-113940476D01*
X160380952Y-113916666D01*
X160428571Y-113892857D01*
X160523809Y-113892857D01*
X160571428Y-113916666D01*
X188392857Y-135392857D02*
X188392857Y-135892857D01*
X188392857Y-135416666D02*
X188440476Y-135392857D01*
X188535714Y-135392857D01*
X188583333Y-135416666D01*
X188607142Y-135440476D01*
X188630952Y-135488095D01*
X188630952Y-135630952D01*
X188607142Y-135678571D01*
X188583333Y-135702380D01*
X188535714Y-135726190D01*
X188440476Y-135726190D01*
X188392857Y-135702380D01*
X188797619Y-135392857D02*
X188892857Y-135726190D01*
X188988095Y-135488095D01*
X189083333Y-135726190D01*
X189178571Y-135392857D01*
X189369047Y-135726190D02*
X189369047Y-135392857D01*
X189369047Y-135488095D02*
X189392857Y-135440476D01*
X189416666Y-135416666D01*
X189464285Y-135392857D01*
X189511904Y-135392857D01*
X189559523Y-135773809D02*
X189940476Y-135773809D01*
X190273809Y-135702380D02*
X190226190Y-135726190D01*
X190130952Y-135726190D01*
X190083333Y-135702380D01*
X190059523Y-135678571D01*
X190035714Y-135630952D01*
X190035714Y-135488095D01*
X190059523Y-135440476D01*
X190083333Y-135416666D01*
X190130952Y-135392857D01*
X190226190Y-135392857D01*
X190273809Y-135416666D01*
X190559523Y-135726190D02*
X190511904Y-135702380D01*
X190488095Y-135678571D01*
X190464285Y-135630952D01*
X190464285Y-135488095D01*
X190488095Y-135440476D01*
X190511904Y-135416666D01*
X190559523Y-135392857D01*
X190630952Y-135392857D01*
X190678571Y-135416666D01*
X190702380Y-135440476D01*
X190726190Y-135488095D01*
X190726190Y-135630952D01*
X190702380Y-135678571D01*
X190678571Y-135702380D01*
X190630952Y-135726190D01*
X190559523Y-135726190D01*
X190940476Y-135392857D02*
X190940476Y-135726190D01*
X190940476Y-135440476D02*
X190964285Y-135416666D01*
X191011904Y-135392857D01*
X191083333Y-135392857D01*
X191130952Y-135416666D01*
X191154761Y-135464285D01*
X191154761Y-135726190D01*
X191392857Y-135392857D02*
X191392857Y-135726190D01*
X191392857Y-135440476D02*
X191416666Y-135416666D01*
X191464285Y-135392857D01*
X191535714Y-135392857D01*
X191583333Y-135416666D01*
X191607142Y-135464285D01*
X191607142Y-135726190D01*
X147619047Y-142926190D02*
X147619047Y-142592857D01*
X147619047Y-142688095D02*
X147642857Y-142640476D01*
X147666666Y-142616666D01*
X147714285Y-142592857D01*
X147761904Y-142592857D01*
X148142857Y-142592857D02*
X148142857Y-142997619D01*
X148119047Y-143045238D01*
X148095238Y-143069047D01*
X148047619Y-143092857D01*
X147976190Y-143092857D01*
X147928571Y-143069047D01*
X148142857Y-142902380D02*
X148095238Y-142926190D01*
X148000000Y-142926190D01*
X147952380Y-142902380D01*
X147928571Y-142878571D01*
X147904761Y-142830952D01*
X147904761Y-142688095D01*
X147928571Y-142640476D01*
X147952380Y-142616666D01*
X148000000Y-142592857D01*
X148095238Y-142592857D01*
X148142857Y-142616666D01*
X148380952Y-142926190D02*
X148380952Y-142426190D01*
X148380952Y-142616666D02*
X148428571Y-142592857D01*
X148523809Y-142592857D01*
X148571428Y-142616666D01*
X148595238Y-142640476D01*
X148619047Y-142688095D01*
X148619047Y-142830952D01*
X148595238Y-142878571D01*
X148571428Y-142902380D01*
X148523809Y-142926190D01*
X148428571Y-142926190D01*
X148380952Y-142902380D01*
X149095238Y-142926190D02*
X148809523Y-142926190D01*
X148952380Y-142926190D02*
X148952380Y-142426190D01*
X148904761Y-142497619D01*
X148857142Y-142545238D01*
X148809523Y-142569047D01*
X149309523Y-142878571D02*
X149333333Y-142902380D01*
X149309523Y-142926190D01*
X149285714Y-142902380D01*
X149309523Y-142878571D01*
X149309523Y-142926190D01*
X149547619Y-142592857D02*
X149547619Y-143092857D01*
X149547619Y-142616666D02*
X149595238Y-142592857D01*
X149690476Y-142592857D01*
X149738095Y-142616666D01*
X149761904Y-142640476D01*
X149785714Y-142688095D01*
X149785714Y-142830952D01*
X149761904Y-142878571D01*
X149738095Y-142902380D01*
X149690476Y-142926190D01*
X149595238Y-142926190D01*
X149547619Y-142902380D01*
X150214285Y-142926190D02*
X150214285Y-142664285D01*
X150190476Y-142616666D01*
X150142857Y-142592857D01*
X150047619Y-142592857D01*
X150000000Y-142616666D01*
X150214285Y-142902380D02*
X150166666Y-142926190D01*
X150047619Y-142926190D01*
X150000000Y-142902380D01*
X149976190Y-142854761D01*
X149976190Y-142807142D01*
X150000000Y-142759523D01*
X150047619Y-142735714D01*
X150166666Y-142735714D01*
X150214285Y-142711904D01*
X150666666Y-142902380D02*
X150619047Y-142926190D01*
X150523809Y-142926190D01*
X150476190Y-142902380D01*
X150452380Y-142878571D01*
X150428571Y-142830952D01*
X150428571Y-142688095D01*
X150452380Y-142640476D01*
X150476190Y-142616666D01*
X150523809Y-142592857D01*
X150619047Y-142592857D01*
X150666666Y-142616666D01*
X150880952Y-142926190D02*
X150880952Y-142426190D01*
X150928571Y-142735714D02*
X151071428Y-142926190D01*
X151071428Y-142592857D02*
X150880952Y-142783333D01*
X151500000Y-142926190D02*
X151500000Y-142664285D01*
X151476190Y-142616666D01*
X151428571Y-142592857D01*
X151333333Y-142592857D01*
X151285714Y-142616666D01*
X151500000Y-142902380D02*
X151452380Y-142926190D01*
X151333333Y-142926190D01*
X151285714Y-142902380D01*
X151261904Y-142854761D01*
X151261904Y-142807142D01*
X151285714Y-142759523D01*
X151333333Y-142735714D01*
X151452380Y-142735714D01*
X151500000Y-142711904D01*
X151952380Y-142592857D02*
X151952380Y-142997619D01*
X151928571Y-143045238D01*
X151904761Y-143069047D01*
X151857142Y-143092857D01*
X151785714Y-143092857D01*
X151738095Y-143069047D01*
X151952380Y-142902380D02*
X151904761Y-142926190D01*
X151809523Y-142926190D01*
X151761904Y-142902380D01*
X151738095Y-142878571D01*
X151714285Y-142830952D01*
X151714285Y-142688095D01*
X151738095Y-142640476D01*
X151761904Y-142616666D01*
X151809523Y-142592857D01*
X151904761Y-142592857D01*
X151952380Y-142616666D01*
X152380952Y-142902380D02*
X152333333Y-142926190D01*
X152238095Y-142926190D01*
X152190476Y-142902380D01*
X152166666Y-142854761D01*
X152166666Y-142664285D01*
X152190476Y-142616666D01*
X152238095Y-142592857D01*
X152333333Y-142592857D01*
X152380952Y-142616666D01*
X152404761Y-142664285D01*
X152404761Y-142711904D01*
X152166666Y-142759523D01*
X118526190Y-112380952D02*
X118192857Y-112380952D01*
X118288095Y-112380952D02*
X118240476Y-112357142D01*
X118216666Y-112333333D01*
X118192857Y-112285714D01*
X118192857Y-112238095D01*
X118192857Y-111857142D02*
X118597619Y-111857142D01*
X118645238Y-111880952D01*
X118669047Y-111904761D01*
X118692857Y-111952380D01*
X118692857Y-112023809D01*
X118669047Y-112071428D01*
X118502380Y-111857142D02*
X118526190Y-111904761D01*
X118526190Y-112000000D01*
X118502380Y-112047619D01*
X118478571Y-112071428D01*
X118430952Y-112095238D01*
X118288095Y-112095238D01*
X118240476Y-112071428D01*
X118216666Y-112047619D01*
X118192857Y-112000000D01*
X118192857Y-111904761D01*
X118216666Y-111857142D01*
X118526190Y-111619047D02*
X118026190Y-111619047D01*
X118216666Y-111619047D02*
X118192857Y-111571428D01*
X118192857Y-111476190D01*
X118216666Y-111428571D01*
X118240476Y-111404761D01*
X118288095Y-111380952D01*
X118430952Y-111380952D01*
X118478571Y-111404761D01*
X118502380Y-111428571D01*
X118526190Y-111476190D01*
X118526190Y-111571428D01*
X118502380Y-111619047D01*
X118073809Y-111190476D02*
X118050000Y-111166666D01*
X118026190Y-111119047D01*
X118026190Y-111000000D01*
X118050000Y-110952380D01*
X118073809Y-110928571D01*
X118121428Y-110904761D01*
X118169047Y-110904761D01*
X118240476Y-110928571D01*
X118526190Y-111214285D01*
X118526190Y-110904761D01*
X118478571Y-110690476D02*
X118502380Y-110666666D01*
X118526190Y-110690476D01*
X118502380Y-110714285D01*
X118478571Y-110690476D01*
X118526190Y-110690476D01*
X118192857Y-110452380D02*
X118692857Y-110452380D01*
X118216666Y-110452380D02*
X118192857Y-110404761D01*
X118192857Y-110309523D01*
X118216666Y-110261904D01*
X118240476Y-110238095D01*
X118288095Y-110214285D01*
X118430952Y-110214285D01*
X118478571Y-110238095D01*
X118502380Y-110261904D01*
X118526190Y-110309523D01*
X118526190Y-110404761D01*
X118502380Y-110452380D01*
X118526190Y-109785714D02*
X118264285Y-109785714D01*
X118216666Y-109809523D01*
X118192857Y-109857142D01*
X118192857Y-109952380D01*
X118216666Y-110000000D01*
X118502380Y-109785714D02*
X118526190Y-109833333D01*
X118526190Y-109952380D01*
X118502380Y-110000000D01*
X118454761Y-110023809D01*
X118407142Y-110023809D01*
X118359523Y-110000000D01*
X118335714Y-109952380D01*
X118335714Y-109833333D01*
X118311904Y-109785714D01*
X118502380Y-109333333D02*
X118526190Y-109380952D01*
X118526190Y-109476190D01*
X118502380Y-109523809D01*
X118478571Y-109547619D01*
X118430952Y-109571428D01*
X118288095Y-109571428D01*
X118240476Y-109547619D01*
X118216666Y-109523809D01*
X118192857Y-109476190D01*
X118192857Y-109380952D01*
X118216666Y-109333333D01*
X118526190Y-109119047D02*
X118026190Y-109119047D01*
X118335714Y-109071428D02*
X118526190Y-108928571D01*
X118192857Y-108928571D02*
X118383333Y-109119047D01*
X118526190Y-108500000D02*
X118264285Y-108500000D01*
X118216666Y-108523809D01*
X118192857Y-108571428D01*
X118192857Y-108666666D01*
X118216666Y-108714285D01*
X118502380Y-108500000D02*
X118526190Y-108547619D01*
X118526190Y-108666666D01*
X118502380Y-108714285D01*
X118454761Y-108738095D01*
X118407142Y-108738095D01*
X118359523Y-108714285D01*
X118335714Y-108666666D01*
X118335714Y-108547619D01*
X118311904Y-108500000D01*
X118192857Y-108047619D02*
X118597619Y-108047619D01*
X118645238Y-108071428D01*
X118669047Y-108095238D01*
X118692857Y-108142857D01*
X118692857Y-108214285D01*
X118669047Y-108261904D01*
X118502380Y-108047619D02*
X118526190Y-108095238D01*
X118526190Y-108190476D01*
X118502380Y-108238095D01*
X118478571Y-108261904D01*
X118430952Y-108285714D01*
X118288095Y-108285714D01*
X118240476Y-108261904D01*
X118216666Y-108238095D01*
X118192857Y-108190476D01*
X118192857Y-108095238D01*
X118216666Y-108047619D01*
X118502380Y-107619047D02*
X118526190Y-107666666D01*
X118526190Y-107761904D01*
X118502380Y-107809523D01*
X118454761Y-107833333D01*
X118264285Y-107833333D01*
X118216666Y-107809523D01*
X118192857Y-107761904D01*
X118192857Y-107666666D01*
X118216666Y-107619047D01*
X118264285Y-107595238D01*
X118311904Y-107595238D01*
X118359523Y-107833333D01*
X170202380Y-126964285D02*
X170226190Y-127011904D01*
X170226190Y-127107142D01*
X170202380Y-127154761D01*
X170178571Y-127178571D01*
X170130952Y-127202380D01*
X169988095Y-127202380D01*
X169940476Y-127178571D01*
X169916666Y-127154761D01*
X169892857Y-127107142D01*
X169892857Y-127011904D01*
X169916666Y-126964285D01*
X170226190Y-126535714D02*
X169964285Y-126535714D01*
X169916666Y-126559523D01*
X169892857Y-126607142D01*
X169892857Y-126702380D01*
X169916666Y-126750000D01*
X170202380Y-126535714D02*
X170226190Y-126583333D01*
X170226190Y-126702380D01*
X170202380Y-126750000D01*
X170154761Y-126773809D01*
X170107142Y-126773809D01*
X170059523Y-126750000D01*
X170035714Y-126702380D01*
X170035714Y-126583333D01*
X170011904Y-126535714D01*
X169892857Y-126297619D02*
X170226190Y-126297619D01*
X169940476Y-126297619D02*
X169916666Y-126273809D01*
X169892857Y-126226190D01*
X169892857Y-126154761D01*
X169916666Y-126107142D01*
X169964285Y-126083333D01*
X170226190Y-126083333D01*
X170178571Y-125845238D02*
X170202380Y-125821428D01*
X170226190Y-125845238D01*
X170202380Y-125869047D01*
X170178571Y-125845238D01*
X170226190Y-125845238D01*
X169892857Y-125678571D02*
X169892857Y-125488095D01*
X169726190Y-125607142D02*
X170154761Y-125607142D01*
X170202380Y-125583333D01*
X170226190Y-125535714D01*
X170226190Y-125488095D01*
X170226190Y-125321428D02*
X169892857Y-125321428D01*
X169988095Y-125321428D02*
X169940476Y-125297619D01*
X169916666Y-125273809D01*
X169892857Y-125226190D01*
X169892857Y-125178571D01*
X170226190Y-124797619D02*
X169964285Y-124797619D01*
X169916666Y-124821428D01*
X169892857Y-124869047D01*
X169892857Y-124964285D01*
X169916666Y-125011904D01*
X170202380Y-124797619D02*
X170226190Y-124845238D01*
X170226190Y-124964285D01*
X170202380Y-125011904D01*
X170154761Y-125035714D01*
X170107142Y-125035714D01*
X170059523Y-125011904D01*
X170035714Y-124964285D01*
X170035714Y-124845238D01*
X170011904Y-124797619D01*
X169892857Y-124559523D02*
X170226190Y-124559523D01*
X169940476Y-124559523D02*
X169916666Y-124535714D01*
X169892857Y-124488095D01*
X169892857Y-124416666D01*
X169916666Y-124369047D01*
X169964285Y-124345238D01*
X170226190Y-124345238D01*
X170202380Y-124130952D02*
X170226190Y-124083333D01*
X170226190Y-123988095D01*
X170202380Y-123940476D01*
X170154761Y-123916666D01*
X170130952Y-123916666D01*
X170083333Y-123940476D01*
X170059523Y-123988095D01*
X170059523Y-124059523D01*
X170035714Y-124107142D01*
X169988095Y-124130952D01*
X169964285Y-124130952D01*
X169916666Y-124107142D01*
X169892857Y-124059523D01*
X169892857Y-123988095D01*
X169916666Y-123940476D01*
X170202380Y-123488095D02*
X170226190Y-123535714D01*
X170226190Y-123630952D01*
X170202380Y-123678571D01*
X170178571Y-123702380D01*
X170130952Y-123726190D01*
X169988095Y-123726190D01*
X169940476Y-123702380D01*
X169916666Y-123678571D01*
X169892857Y-123630952D01*
X169892857Y-123535714D01*
X169916666Y-123488095D01*
X170202380Y-123083333D02*
X170226190Y-123130952D01*
X170226190Y-123226190D01*
X170202380Y-123273809D01*
X170154761Y-123297619D01*
X169964285Y-123297619D01*
X169916666Y-123273809D01*
X169892857Y-123226190D01*
X169892857Y-123130952D01*
X169916666Y-123083333D01*
X169964285Y-123059523D01*
X170011904Y-123059523D01*
X170059523Y-123297619D01*
X170226190Y-122845238D02*
X169892857Y-122845238D01*
X169726190Y-122845238D02*
X169750000Y-122869047D01*
X169773809Y-122845238D01*
X169750000Y-122821428D01*
X169726190Y-122845238D01*
X169773809Y-122845238D01*
X169892857Y-122654761D02*
X170226190Y-122535714D01*
X169892857Y-122416666D01*
X170202380Y-122035714D02*
X170226190Y-122083333D01*
X170226190Y-122178571D01*
X170202380Y-122226190D01*
X170154761Y-122250000D01*
X169964285Y-122250000D01*
X169916666Y-122226190D01*
X169892857Y-122178571D01*
X169892857Y-122083333D01*
X169916666Y-122035714D01*
X169964285Y-122011904D01*
X170011904Y-122011904D01*
X170059523Y-122250000D01*
X170226190Y-121797619D02*
X169892857Y-121797619D01*
X169988095Y-121797619D02*
X169940476Y-121773809D01*
X169916666Y-121750000D01*
X169892857Y-121702380D01*
X169892857Y-121654761D01*
X170178571Y-121488095D02*
X170202380Y-121464285D01*
X170226190Y-121488095D01*
X170202380Y-121511904D01*
X170178571Y-121488095D01*
X170226190Y-121488095D01*
X170226190Y-121250000D02*
X169892857Y-121250000D01*
X169726190Y-121250000D02*
X169750000Y-121273809D01*
X169773809Y-121250000D01*
X169750000Y-121226190D01*
X169726190Y-121250000D01*
X169773809Y-121250000D01*
X170202380Y-120797619D02*
X170226190Y-120845238D01*
X170226190Y-120940476D01*
X170202380Y-120988095D01*
X170178571Y-121011904D01*
X170130952Y-121035714D01*
X169988095Y-121035714D01*
X169940476Y-121011904D01*
X169916666Y-120988095D01*
X169892857Y-120940476D01*
X169892857Y-120845238D01*
X169916666Y-120797619D01*
X142752380Y-122583333D02*
X142776190Y-122630952D01*
X142776190Y-122726190D01*
X142752380Y-122773809D01*
X142728571Y-122797619D01*
X142680952Y-122821428D01*
X142538095Y-122821428D01*
X142490476Y-122797619D01*
X142466666Y-122773809D01*
X142442857Y-122726190D01*
X142442857Y-122630952D01*
X142466666Y-122583333D01*
X142776190Y-122369047D02*
X142442857Y-122369047D01*
X142538095Y-122369047D02*
X142490476Y-122345238D01*
X142466666Y-122321428D01*
X142442857Y-122273809D01*
X142442857Y-122226190D01*
X142442857Y-122107142D02*
X142776190Y-121988095D01*
X142442857Y-121869047D02*
X142776190Y-121988095D01*
X142895238Y-122035714D01*
X142919047Y-122059523D01*
X142942857Y-122107142D01*
X142752380Y-121702380D02*
X142776190Y-121654761D01*
X142776190Y-121559523D01*
X142752380Y-121511904D01*
X142704761Y-121488095D01*
X142680952Y-121488095D01*
X142633333Y-121511904D01*
X142609523Y-121559523D01*
X142609523Y-121630952D01*
X142585714Y-121678571D01*
X142538095Y-121702380D01*
X142514285Y-121702380D01*
X142466666Y-121678571D01*
X142442857Y-121630952D01*
X142442857Y-121559523D01*
X142466666Y-121511904D01*
X142442857Y-121345238D02*
X142442857Y-121154761D01*
X142276190Y-121273809D02*
X142704761Y-121273809D01*
X142752380Y-121250000D01*
X142776190Y-121202380D01*
X142776190Y-121154761D01*
X142776190Y-120773809D02*
X142514285Y-120773809D01*
X142466666Y-120797619D01*
X142442857Y-120845238D01*
X142442857Y-120940476D01*
X142466666Y-120988095D01*
X142752380Y-120773809D02*
X142776190Y-120821428D01*
X142776190Y-120940476D01*
X142752380Y-120988095D01*
X142704761Y-121011904D01*
X142657142Y-121011904D01*
X142609523Y-120988095D01*
X142585714Y-120940476D01*
X142585714Y-120821428D01*
X142561904Y-120773809D01*
X142776190Y-120464285D02*
X142752380Y-120511904D01*
X142704761Y-120535714D01*
X142276190Y-120535714D01*
X142728571Y-120273809D02*
X142752380Y-120250000D01*
X142776190Y-120273809D01*
X142752380Y-120297619D01*
X142728571Y-120273809D01*
X142776190Y-120273809D01*
X142442857Y-120035714D02*
X142942857Y-120035714D01*
X142466666Y-120035714D02*
X142442857Y-119988095D01*
X142442857Y-119892857D01*
X142466666Y-119845238D01*
X142490476Y-119821428D01*
X142538095Y-119797619D01*
X142680952Y-119797619D01*
X142728571Y-119821428D01*
X142752380Y-119845238D01*
X142776190Y-119892857D01*
X142776190Y-119988095D01*
X142752380Y-120035714D01*
X142776190Y-119369047D02*
X142514285Y-119369047D01*
X142466666Y-119392857D01*
X142442857Y-119440476D01*
X142442857Y-119535714D01*
X142466666Y-119583333D01*
X142752380Y-119369047D02*
X142776190Y-119416666D01*
X142776190Y-119535714D01*
X142752380Y-119583333D01*
X142704761Y-119607142D01*
X142657142Y-119607142D01*
X142609523Y-119583333D01*
X142585714Y-119535714D01*
X142585714Y-119416666D01*
X142561904Y-119369047D01*
X142752380Y-118916666D02*
X142776190Y-118964285D01*
X142776190Y-119059523D01*
X142752380Y-119107142D01*
X142728571Y-119130952D01*
X142680952Y-119154761D01*
X142538095Y-119154761D01*
X142490476Y-119130952D01*
X142466666Y-119107142D01*
X142442857Y-119059523D01*
X142442857Y-118964285D01*
X142466666Y-118916666D01*
X142776190Y-118702380D02*
X142276190Y-118702380D01*
X142585714Y-118654761D02*
X142776190Y-118511904D01*
X142442857Y-118511904D02*
X142633333Y-118702380D01*
X142776190Y-118083333D02*
X142514285Y-118083333D01*
X142466666Y-118107142D01*
X142442857Y-118154761D01*
X142442857Y-118250000D01*
X142466666Y-118297619D01*
X142752380Y-118083333D02*
X142776190Y-118130952D01*
X142776190Y-118250000D01*
X142752380Y-118297619D01*
X142704761Y-118321428D01*
X142657142Y-118321428D01*
X142609523Y-118297619D01*
X142585714Y-118250000D01*
X142585714Y-118130952D01*
X142561904Y-118083333D01*
X142442857Y-117630952D02*
X142847619Y-117630952D01*
X142895238Y-117654761D01*
X142919047Y-117678571D01*
X142942857Y-117726190D01*
X142942857Y-117797619D01*
X142919047Y-117845238D01*
X142752380Y-117630952D02*
X142776190Y-117678571D01*
X142776190Y-117773809D01*
X142752380Y-117821428D01*
X142728571Y-117845238D01*
X142680952Y-117869047D01*
X142538095Y-117869047D01*
X142490476Y-117845238D01*
X142466666Y-117821428D01*
X142442857Y-117773809D01*
X142442857Y-117678571D01*
X142466666Y-117630952D01*
X142752380Y-117202380D02*
X142776190Y-117250000D01*
X142776190Y-117345238D01*
X142752380Y-117392857D01*
X142704761Y-117416666D01*
X142514285Y-117416666D01*
X142466666Y-117392857D01*
X142442857Y-117345238D01*
X142442857Y-117250000D01*
X142466666Y-117202380D01*
X142514285Y-117178571D01*
X142561904Y-117178571D01*
X142609523Y-117416666D01*
X197821428Y-130892857D02*
X197821428Y-131392857D01*
X197821428Y-130916666D02*
X197869047Y-130892857D01*
X197964285Y-130892857D01*
X198011904Y-130916666D01*
X198035714Y-130940476D01*
X198059523Y-130988095D01*
X198059523Y-131130952D01*
X198035714Y-131178571D01*
X198011904Y-131202380D01*
X197964285Y-131226190D01*
X197869047Y-131226190D01*
X197821428Y-131202380D01*
X198226190Y-130892857D02*
X198321428Y-131226190D01*
X198416666Y-130988095D01*
X198511904Y-131226190D01*
X198607142Y-130892857D01*
X198797619Y-131226190D02*
X198797619Y-130892857D01*
X198797619Y-130988095D02*
X198821428Y-130940476D01*
X198845238Y-130916666D01*
X198892857Y-130892857D01*
X198940476Y-130892857D01*
X199107142Y-131178571D02*
X199130952Y-131202380D01*
X199107142Y-131226190D01*
X199083333Y-131202380D01*
X199107142Y-131178571D01*
X199107142Y-131226190D01*
X199345238Y-131226190D02*
X199345238Y-130892857D01*
X199345238Y-130726190D02*
X199321428Y-130750000D01*
X199345238Y-130773809D01*
X199369047Y-130750000D01*
X199345238Y-130726190D01*
X199345238Y-130773809D01*
X199583333Y-130892857D02*
X199583333Y-131226190D01*
X199583333Y-130940476D02*
X199607142Y-130916666D01*
X199654761Y-130892857D01*
X199726190Y-130892857D01*
X199773809Y-130916666D01*
X199797619Y-130964285D01*
X199797619Y-131226190D01*
X200250000Y-131226190D02*
X200250000Y-130726190D01*
X200250000Y-131202380D02*
X200202380Y-131226190D01*
X200107142Y-131226190D01*
X200059523Y-131202380D01*
X200035714Y-131178571D01*
X200011904Y-131130952D01*
X200011904Y-130988095D01*
X200035714Y-130940476D01*
X200059523Y-130916666D01*
X200107142Y-130892857D01*
X200202380Y-130892857D01*
X200250000Y-130916666D01*
X200702380Y-130892857D02*
X200702380Y-131226190D01*
X200488095Y-130892857D02*
X200488095Y-131154761D01*
X200511904Y-131202380D01*
X200559523Y-131226190D01*
X200630952Y-131226190D01*
X200678571Y-131202380D01*
X200702380Y-131178571D01*
X201154761Y-131202380D02*
X201107142Y-131226190D01*
X201011904Y-131226190D01*
X200964285Y-131202380D01*
X200940476Y-131178571D01*
X200916666Y-131130952D01*
X200916666Y-130988095D01*
X200940476Y-130940476D01*
X200964285Y-130916666D01*
X201011904Y-130892857D01*
X201107142Y-130892857D01*
X201154761Y-130916666D01*
X201297619Y-130892857D02*
X201488095Y-130892857D01*
X201369047Y-130726190D02*
X201369047Y-131154761D01*
X201392857Y-131202380D01*
X201440476Y-131226190D01*
X201488095Y-131226190D01*
X201726190Y-131226190D02*
X201678571Y-131202380D01*
X201654761Y-131178571D01*
X201630952Y-131130952D01*
X201630952Y-130988095D01*
X201654761Y-130940476D01*
X201678571Y-130916666D01*
X201726190Y-130892857D01*
X201797619Y-130892857D01*
X201845238Y-130916666D01*
X201869047Y-130940476D01*
X201892857Y-130988095D01*
X201892857Y-131130952D01*
X201869047Y-131178571D01*
X201845238Y-131202380D01*
X201797619Y-131226190D01*
X201726190Y-131226190D01*
X202107142Y-131226190D02*
X202107142Y-130892857D01*
X202107142Y-130988095D02*
X202130952Y-130940476D01*
X202154761Y-130916666D01*
X202202380Y-130892857D01*
X202250000Y-130892857D01*
X156654761Y-135702380D02*
X156607142Y-135726190D01*
X156511904Y-135726190D01*
X156464285Y-135702380D01*
X156440476Y-135678571D01*
X156416666Y-135630952D01*
X156416666Y-135488095D01*
X156440476Y-135440476D01*
X156464285Y-135416666D01*
X156511904Y-135392857D01*
X156607142Y-135392857D01*
X156654761Y-135416666D01*
X157083333Y-135726190D02*
X157083333Y-135464285D01*
X157059523Y-135416666D01*
X157011904Y-135392857D01*
X156916666Y-135392857D01*
X156869047Y-135416666D01*
X157083333Y-135702380D02*
X157035714Y-135726190D01*
X156916666Y-135726190D01*
X156869047Y-135702380D01*
X156845238Y-135654761D01*
X156845238Y-135607142D01*
X156869047Y-135559523D01*
X156916666Y-135535714D01*
X157035714Y-135535714D01*
X157083333Y-135511904D01*
X157321428Y-135392857D02*
X157321428Y-135726190D01*
X157321428Y-135440476D02*
X157345238Y-135416666D01*
X157392857Y-135392857D01*
X157464285Y-135392857D01*
X157511904Y-135416666D01*
X157535714Y-135464285D01*
X157535714Y-135726190D01*
X157773809Y-135678571D02*
X157797619Y-135702380D01*
X157773809Y-135726190D01*
X157750000Y-135702380D01*
X157773809Y-135678571D01*
X157773809Y-135726190D01*
X158226190Y-135702380D02*
X158178571Y-135726190D01*
X158083333Y-135726190D01*
X158035714Y-135702380D01*
X158011904Y-135678571D01*
X157988095Y-135630952D01*
X157988095Y-135488095D01*
X158011904Y-135440476D01*
X158035714Y-135416666D01*
X158083333Y-135392857D01*
X158178571Y-135392857D01*
X158226190Y-135416666D01*
X158511904Y-135726190D02*
X158464285Y-135702380D01*
X158440476Y-135678571D01*
X158416666Y-135630952D01*
X158416666Y-135488095D01*
X158440476Y-135440476D01*
X158464285Y-135416666D01*
X158511904Y-135392857D01*
X158583333Y-135392857D01*
X158630952Y-135416666D01*
X158654761Y-135440476D01*
X158678571Y-135488095D01*
X158678571Y-135630952D01*
X158654761Y-135678571D01*
X158630952Y-135702380D01*
X158583333Y-135726190D01*
X158511904Y-135726190D01*
X158892857Y-135392857D02*
X158892857Y-135726190D01*
X158892857Y-135440476D02*
X158916666Y-135416666D01*
X158964285Y-135392857D01*
X159035714Y-135392857D01*
X159083333Y-135416666D01*
X159107142Y-135464285D01*
X159107142Y-135726190D01*
X159345238Y-135392857D02*
X159345238Y-135726190D01*
X159345238Y-135440476D02*
X159369047Y-135416666D01*
X159416666Y-135392857D01*
X159488095Y-135392857D01*
X159535714Y-135416666D01*
X159559523Y-135464285D01*
X159559523Y-135726190D01*
X94404761Y-84726190D02*
X94357142Y-84702380D01*
X94333333Y-84654761D01*
X94333333Y-84226190D01*
X94595238Y-84726190D02*
X94595238Y-84392857D01*
X94595238Y-84226190D02*
X94571428Y-84250000D01*
X94595238Y-84273809D01*
X94619047Y-84250000D01*
X94595238Y-84226190D01*
X94595238Y-84273809D01*
X95047619Y-84392857D02*
X95047619Y-84797619D01*
X95023809Y-84845238D01*
X95000000Y-84869047D01*
X94952380Y-84892857D01*
X94880952Y-84892857D01*
X94833333Y-84869047D01*
X95047619Y-84702380D02*
X95000000Y-84726190D01*
X94904761Y-84726190D01*
X94857142Y-84702380D01*
X94833333Y-84678571D01*
X94809523Y-84630952D01*
X94809523Y-84488095D01*
X94833333Y-84440476D01*
X94857142Y-84416666D01*
X94904761Y-84392857D01*
X95000000Y-84392857D01*
X95047619Y-84416666D01*
X95285714Y-84726190D02*
X95285714Y-84226190D01*
X95500000Y-84726190D02*
X95500000Y-84464285D01*
X95476190Y-84416666D01*
X95428571Y-84392857D01*
X95357142Y-84392857D01*
X95309523Y-84416666D01*
X95285714Y-84440476D01*
X95666666Y-84392857D02*
X95857142Y-84392857D01*
X95738095Y-84226190D02*
X95738095Y-84654761D01*
X95761904Y-84702380D01*
X95809523Y-84726190D01*
X95857142Y-84726190D01*
X95904761Y-84773809D02*
X96285714Y-84773809D01*
X96500000Y-84226190D02*
X96547619Y-84226190D01*
X96595238Y-84250000D01*
X96619047Y-84273809D01*
X96642857Y-84321428D01*
X96666666Y-84416666D01*
X96666666Y-84535714D01*
X96642857Y-84630952D01*
X96619047Y-84678571D01*
X96595238Y-84702380D01*
X96547619Y-84726190D01*
X96500000Y-84726190D01*
X96452380Y-84702380D01*
X96428571Y-84678571D01*
X96404761Y-84630952D01*
X96380952Y-84535714D01*
X96380952Y-84416666D01*
X96404761Y-84321428D01*
X96428571Y-84273809D01*
X96452380Y-84250000D01*
X96500000Y-84226190D01*
X96880952Y-84678571D02*
X96904761Y-84702380D01*
X96880952Y-84726190D01*
X96857142Y-84702380D01*
X96880952Y-84678571D01*
X96880952Y-84726190D01*
X97333333Y-84702380D02*
X97285714Y-84726190D01*
X97190476Y-84726190D01*
X97142857Y-84702380D01*
X97119047Y-84678571D01*
X97095238Y-84630952D01*
X97095238Y-84488095D01*
X97119047Y-84440476D01*
X97142857Y-84416666D01*
X97190476Y-84392857D01*
X97285714Y-84392857D01*
X97333333Y-84416666D01*
X97619047Y-84726190D02*
X97571428Y-84702380D01*
X97547619Y-84678571D01*
X97523809Y-84630952D01*
X97523809Y-84488095D01*
X97547619Y-84440476D01*
X97571428Y-84416666D01*
X97619047Y-84392857D01*
X97690476Y-84392857D01*
X97738095Y-84416666D01*
X97761904Y-84440476D01*
X97785714Y-84488095D01*
X97785714Y-84630952D01*
X97761904Y-84678571D01*
X97738095Y-84702380D01*
X97690476Y-84726190D01*
X97619047Y-84726190D01*
X98000000Y-84392857D02*
X98000000Y-84726190D01*
X98000000Y-84440476D02*
X98023809Y-84416666D01*
X98071428Y-84392857D01*
X98142857Y-84392857D01*
X98190476Y-84416666D01*
X98214285Y-84464285D01*
X98214285Y-84726190D01*
X98452380Y-84392857D02*
X98452380Y-84726190D01*
X98452380Y-84440476D02*
X98476190Y-84416666D01*
X98523809Y-84392857D01*
X98595238Y-84392857D01*
X98642857Y-84416666D01*
X98666666Y-84464285D01*
X98666666Y-84726190D01*
X112404761Y-84726190D02*
X112357142Y-84702380D01*
X112333333Y-84654761D01*
X112333333Y-84226190D01*
X112595238Y-84726190D02*
X112595238Y-84392857D01*
X112595238Y-84226190D02*
X112571428Y-84250000D01*
X112595238Y-84273809D01*
X112619047Y-84250000D01*
X112595238Y-84226190D01*
X112595238Y-84273809D01*
X113047619Y-84392857D02*
X113047619Y-84797619D01*
X113023809Y-84845238D01*
X113000000Y-84869047D01*
X112952380Y-84892857D01*
X112880952Y-84892857D01*
X112833333Y-84869047D01*
X113047619Y-84702380D02*
X113000000Y-84726190D01*
X112904761Y-84726190D01*
X112857142Y-84702380D01*
X112833333Y-84678571D01*
X112809523Y-84630952D01*
X112809523Y-84488095D01*
X112833333Y-84440476D01*
X112857142Y-84416666D01*
X112904761Y-84392857D01*
X113000000Y-84392857D01*
X113047619Y-84416666D01*
X113285714Y-84726190D02*
X113285714Y-84226190D01*
X113500000Y-84726190D02*
X113500000Y-84464285D01*
X113476190Y-84416666D01*
X113428571Y-84392857D01*
X113357142Y-84392857D01*
X113309523Y-84416666D01*
X113285714Y-84440476D01*
X113666666Y-84392857D02*
X113857142Y-84392857D01*
X113738095Y-84226190D02*
X113738095Y-84654761D01*
X113761904Y-84702380D01*
X113809523Y-84726190D01*
X113857142Y-84726190D01*
X113904761Y-84773809D02*
X114285714Y-84773809D01*
X114666666Y-84726190D02*
X114380952Y-84726190D01*
X114523809Y-84726190D02*
X114523809Y-84226190D01*
X114476190Y-84297619D01*
X114428571Y-84345238D01*
X114380952Y-84369047D01*
X114880952Y-84678571D02*
X114904761Y-84702380D01*
X114880952Y-84726190D01*
X114857142Y-84702380D01*
X114880952Y-84678571D01*
X114880952Y-84726190D01*
X115333333Y-84702380D02*
X115285714Y-84726190D01*
X115190476Y-84726190D01*
X115142857Y-84702380D01*
X115119047Y-84678571D01*
X115095238Y-84630952D01*
X115095238Y-84488095D01*
X115119047Y-84440476D01*
X115142857Y-84416666D01*
X115190476Y-84392857D01*
X115285714Y-84392857D01*
X115333333Y-84416666D01*
X115619047Y-84726190D02*
X115571428Y-84702380D01*
X115547619Y-84678571D01*
X115523809Y-84630952D01*
X115523809Y-84488095D01*
X115547619Y-84440476D01*
X115571428Y-84416666D01*
X115619047Y-84392857D01*
X115690476Y-84392857D01*
X115738095Y-84416666D01*
X115761904Y-84440476D01*
X115785714Y-84488095D01*
X115785714Y-84630952D01*
X115761904Y-84678571D01*
X115738095Y-84702380D01*
X115690476Y-84726190D01*
X115619047Y-84726190D01*
X116000000Y-84392857D02*
X116000000Y-84726190D01*
X116000000Y-84440476D02*
X116023809Y-84416666D01*
X116071428Y-84392857D01*
X116142857Y-84392857D01*
X116190476Y-84416666D01*
X116214285Y-84464285D01*
X116214285Y-84726190D01*
X116452380Y-84392857D02*
X116452380Y-84726190D01*
X116452380Y-84440476D02*
X116476190Y-84416666D01*
X116523809Y-84392857D01*
X116595238Y-84392857D01*
X116642857Y-84416666D01*
X116666666Y-84464285D01*
X116666666Y-84726190D01*
X130404761Y-84726190D02*
X130357142Y-84702380D01*
X130333333Y-84654761D01*
X130333333Y-84226190D01*
X130595238Y-84726190D02*
X130595238Y-84392857D01*
X130595238Y-84226190D02*
X130571428Y-84250000D01*
X130595238Y-84273809D01*
X130619047Y-84250000D01*
X130595238Y-84226190D01*
X130595238Y-84273809D01*
X131047619Y-84392857D02*
X131047619Y-84797619D01*
X131023809Y-84845238D01*
X131000000Y-84869047D01*
X130952380Y-84892857D01*
X130880952Y-84892857D01*
X130833333Y-84869047D01*
X131047619Y-84702380D02*
X131000000Y-84726190D01*
X130904761Y-84726190D01*
X130857142Y-84702380D01*
X130833333Y-84678571D01*
X130809523Y-84630952D01*
X130809523Y-84488095D01*
X130833333Y-84440476D01*
X130857142Y-84416666D01*
X130904761Y-84392857D01*
X131000000Y-84392857D01*
X131047619Y-84416666D01*
X131285714Y-84726190D02*
X131285714Y-84226190D01*
X131500000Y-84726190D02*
X131500000Y-84464285D01*
X131476190Y-84416666D01*
X131428571Y-84392857D01*
X131357142Y-84392857D01*
X131309523Y-84416666D01*
X131285714Y-84440476D01*
X131666666Y-84392857D02*
X131857142Y-84392857D01*
X131738095Y-84226190D02*
X131738095Y-84654761D01*
X131761904Y-84702380D01*
X131809523Y-84726190D01*
X131857142Y-84726190D01*
X131904761Y-84773809D02*
X132285714Y-84773809D01*
X132380952Y-84273809D02*
X132404761Y-84250000D01*
X132452380Y-84226190D01*
X132571428Y-84226190D01*
X132619047Y-84250000D01*
X132642857Y-84273809D01*
X132666666Y-84321428D01*
X132666666Y-84369047D01*
X132642857Y-84440476D01*
X132357142Y-84726190D01*
X132666666Y-84726190D01*
X132880952Y-84678571D02*
X132904761Y-84702380D01*
X132880952Y-84726190D01*
X132857142Y-84702380D01*
X132880952Y-84678571D01*
X132880952Y-84726190D01*
X133333333Y-84702380D02*
X133285714Y-84726190D01*
X133190476Y-84726190D01*
X133142857Y-84702380D01*
X133119047Y-84678571D01*
X133095238Y-84630952D01*
X133095238Y-84488095D01*
X133119047Y-84440476D01*
X133142857Y-84416666D01*
X133190476Y-84392857D01*
X133285714Y-84392857D01*
X133333333Y-84416666D01*
X133619047Y-84726190D02*
X133571428Y-84702380D01*
X133547619Y-84678571D01*
X133523809Y-84630952D01*
X133523809Y-84488095D01*
X133547619Y-84440476D01*
X133571428Y-84416666D01*
X133619047Y-84392857D01*
X133690476Y-84392857D01*
X133738095Y-84416666D01*
X133761904Y-84440476D01*
X133785714Y-84488095D01*
X133785714Y-84630952D01*
X133761904Y-84678571D01*
X133738095Y-84702380D01*
X133690476Y-84726190D01*
X133619047Y-84726190D01*
X134000000Y-84392857D02*
X134000000Y-84726190D01*
X134000000Y-84440476D02*
X134023809Y-84416666D01*
X134071428Y-84392857D01*
X134142857Y-84392857D01*
X134190476Y-84416666D01*
X134214285Y-84464285D01*
X134214285Y-84726190D01*
X134452380Y-84392857D02*
X134452380Y-84726190D01*
X134452380Y-84440476D02*
X134476190Y-84416666D01*
X134523809Y-84392857D01*
X134595238Y-84392857D01*
X134642857Y-84416666D01*
X134666666Y-84464285D01*
X134666666Y-84726190D01*
X148404761Y-84726190D02*
X148357142Y-84702380D01*
X148333333Y-84654761D01*
X148333333Y-84226190D01*
X148595238Y-84726190D02*
X148595238Y-84392857D01*
X148595238Y-84226190D02*
X148571428Y-84250000D01*
X148595238Y-84273809D01*
X148619047Y-84250000D01*
X148595238Y-84226190D01*
X148595238Y-84273809D01*
X149047619Y-84392857D02*
X149047619Y-84797619D01*
X149023809Y-84845238D01*
X149000000Y-84869047D01*
X148952380Y-84892857D01*
X148880952Y-84892857D01*
X148833333Y-84869047D01*
X149047619Y-84702380D02*
X149000000Y-84726190D01*
X148904761Y-84726190D01*
X148857142Y-84702380D01*
X148833333Y-84678571D01*
X148809523Y-84630952D01*
X148809523Y-84488095D01*
X148833333Y-84440476D01*
X148857142Y-84416666D01*
X148904761Y-84392857D01*
X149000000Y-84392857D01*
X149047619Y-84416666D01*
X149285714Y-84726190D02*
X149285714Y-84226190D01*
X149500000Y-84726190D02*
X149500000Y-84464285D01*
X149476190Y-84416666D01*
X149428571Y-84392857D01*
X149357142Y-84392857D01*
X149309523Y-84416666D01*
X149285714Y-84440476D01*
X149666666Y-84392857D02*
X149857142Y-84392857D01*
X149738095Y-84226190D02*
X149738095Y-84654761D01*
X149761904Y-84702380D01*
X149809523Y-84726190D01*
X149857142Y-84726190D01*
X149904761Y-84773809D02*
X150285714Y-84773809D01*
X150357142Y-84226190D02*
X150666666Y-84226190D01*
X150500000Y-84416666D01*
X150571428Y-84416666D01*
X150619047Y-84440476D01*
X150642857Y-84464285D01*
X150666666Y-84511904D01*
X150666666Y-84630952D01*
X150642857Y-84678571D01*
X150619047Y-84702380D01*
X150571428Y-84726190D01*
X150428571Y-84726190D01*
X150380952Y-84702380D01*
X150357142Y-84678571D01*
X150880952Y-84678571D02*
X150904761Y-84702380D01*
X150880952Y-84726190D01*
X150857142Y-84702380D01*
X150880952Y-84678571D01*
X150880952Y-84726190D01*
X151333333Y-84702380D02*
X151285714Y-84726190D01*
X151190476Y-84726190D01*
X151142857Y-84702380D01*
X151119047Y-84678571D01*
X151095238Y-84630952D01*
X151095238Y-84488095D01*
X151119047Y-84440476D01*
X151142857Y-84416666D01*
X151190476Y-84392857D01*
X151285714Y-84392857D01*
X151333333Y-84416666D01*
X151619047Y-84726190D02*
X151571428Y-84702380D01*
X151547619Y-84678571D01*
X151523809Y-84630952D01*
X151523809Y-84488095D01*
X151547619Y-84440476D01*
X151571428Y-84416666D01*
X151619047Y-84392857D01*
X151690476Y-84392857D01*
X151738095Y-84416666D01*
X151761904Y-84440476D01*
X151785714Y-84488095D01*
X151785714Y-84630952D01*
X151761904Y-84678571D01*
X151738095Y-84702380D01*
X151690476Y-84726190D01*
X151619047Y-84726190D01*
X152000000Y-84392857D02*
X152000000Y-84726190D01*
X152000000Y-84440476D02*
X152023809Y-84416666D01*
X152071428Y-84392857D01*
X152142857Y-84392857D01*
X152190476Y-84416666D01*
X152214285Y-84464285D01*
X152214285Y-84726190D01*
X152452380Y-84392857D02*
X152452380Y-84726190D01*
X152452380Y-84440476D02*
X152476190Y-84416666D01*
X152523809Y-84392857D01*
X152595238Y-84392857D01*
X152642857Y-84416666D01*
X152666666Y-84464285D01*
X152666666Y-84726190D01*
X168404761Y-84726190D02*
X168357142Y-84702380D01*
X168333333Y-84654761D01*
X168333333Y-84226190D01*
X168595238Y-84726190D02*
X168595238Y-84392857D01*
X168595238Y-84226190D02*
X168571428Y-84250000D01*
X168595238Y-84273809D01*
X168619047Y-84250000D01*
X168595238Y-84226190D01*
X168595238Y-84273809D01*
X169047619Y-84392857D02*
X169047619Y-84797619D01*
X169023809Y-84845238D01*
X169000000Y-84869047D01*
X168952380Y-84892857D01*
X168880952Y-84892857D01*
X168833333Y-84869047D01*
X169047619Y-84702380D02*
X169000000Y-84726190D01*
X168904761Y-84726190D01*
X168857142Y-84702380D01*
X168833333Y-84678571D01*
X168809523Y-84630952D01*
X168809523Y-84488095D01*
X168833333Y-84440476D01*
X168857142Y-84416666D01*
X168904761Y-84392857D01*
X169000000Y-84392857D01*
X169047619Y-84416666D01*
X169285714Y-84726190D02*
X169285714Y-84226190D01*
X169500000Y-84726190D02*
X169500000Y-84464285D01*
X169476190Y-84416666D01*
X169428571Y-84392857D01*
X169357142Y-84392857D01*
X169309523Y-84416666D01*
X169285714Y-84440476D01*
X169666666Y-84392857D02*
X169857142Y-84392857D01*
X169738095Y-84226190D02*
X169738095Y-84654761D01*
X169761904Y-84702380D01*
X169809523Y-84726190D01*
X169857142Y-84726190D01*
X169904761Y-84773809D02*
X170285714Y-84773809D01*
X170619047Y-84392857D02*
X170619047Y-84726190D01*
X170500000Y-84202380D02*
X170380952Y-84559523D01*
X170690476Y-84559523D01*
X170880952Y-84678571D02*
X170904761Y-84702380D01*
X170880952Y-84726190D01*
X170857142Y-84702380D01*
X170880952Y-84678571D01*
X170880952Y-84726190D01*
X171333333Y-84702380D02*
X171285714Y-84726190D01*
X171190476Y-84726190D01*
X171142857Y-84702380D01*
X171119047Y-84678571D01*
X171095238Y-84630952D01*
X171095238Y-84488095D01*
X171119047Y-84440476D01*
X171142857Y-84416666D01*
X171190476Y-84392857D01*
X171285714Y-84392857D01*
X171333333Y-84416666D01*
X171619047Y-84726190D02*
X171571428Y-84702380D01*
X171547619Y-84678571D01*
X171523809Y-84630952D01*
X171523809Y-84488095D01*
X171547619Y-84440476D01*
X171571428Y-84416666D01*
X171619047Y-84392857D01*
X171690476Y-84392857D01*
X171738095Y-84416666D01*
X171761904Y-84440476D01*
X171785714Y-84488095D01*
X171785714Y-84630952D01*
X171761904Y-84678571D01*
X171738095Y-84702380D01*
X171690476Y-84726190D01*
X171619047Y-84726190D01*
X172000000Y-84392857D02*
X172000000Y-84726190D01*
X172000000Y-84440476D02*
X172023809Y-84416666D01*
X172071428Y-84392857D01*
X172142857Y-84392857D01*
X172190476Y-84416666D01*
X172214285Y-84464285D01*
X172214285Y-84726190D01*
X172452380Y-84392857D02*
X172452380Y-84726190D01*
X172452380Y-84440476D02*
X172476190Y-84416666D01*
X172523809Y-84392857D01*
X172595238Y-84392857D01*
X172642857Y-84416666D01*
X172666666Y-84464285D01*
X172666666Y-84726190D01*
X188404761Y-84726190D02*
X188357142Y-84702380D01*
X188333333Y-84654761D01*
X188333333Y-84226190D01*
X188595238Y-84726190D02*
X188595238Y-84392857D01*
X188595238Y-84226190D02*
X188571428Y-84250000D01*
X188595238Y-84273809D01*
X188619047Y-84250000D01*
X188595238Y-84226190D01*
X188595238Y-84273809D01*
X189047619Y-84392857D02*
X189047619Y-84797619D01*
X189023809Y-84845238D01*
X189000000Y-84869047D01*
X188952380Y-84892857D01*
X188880952Y-84892857D01*
X188833333Y-84869047D01*
X189047619Y-84702380D02*
X189000000Y-84726190D01*
X188904761Y-84726190D01*
X188857142Y-84702380D01*
X188833333Y-84678571D01*
X188809523Y-84630952D01*
X188809523Y-84488095D01*
X188833333Y-84440476D01*
X188857142Y-84416666D01*
X188904761Y-84392857D01*
X189000000Y-84392857D01*
X189047619Y-84416666D01*
X189285714Y-84726190D02*
X189285714Y-84226190D01*
X189500000Y-84726190D02*
X189500000Y-84464285D01*
X189476190Y-84416666D01*
X189428571Y-84392857D01*
X189357142Y-84392857D01*
X189309523Y-84416666D01*
X189285714Y-84440476D01*
X189666666Y-84392857D02*
X189857142Y-84392857D01*
X189738095Y-84226190D02*
X189738095Y-84654761D01*
X189761904Y-84702380D01*
X189809523Y-84726190D01*
X189857142Y-84726190D01*
X189904761Y-84773809D02*
X190285714Y-84773809D01*
X190642857Y-84226190D02*
X190404761Y-84226190D01*
X190380952Y-84464285D01*
X190404761Y-84440476D01*
X190452380Y-84416666D01*
X190571428Y-84416666D01*
X190619047Y-84440476D01*
X190642857Y-84464285D01*
X190666666Y-84511904D01*
X190666666Y-84630952D01*
X190642857Y-84678571D01*
X190619047Y-84702380D01*
X190571428Y-84726190D01*
X190452380Y-84726190D01*
X190404761Y-84702380D01*
X190380952Y-84678571D01*
X190880952Y-84678571D02*
X190904761Y-84702380D01*
X190880952Y-84726190D01*
X190857142Y-84702380D01*
X190880952Y-84678571D01*
X190880952Y-84726190D01*
X191333333Y-84702380D02*
X191285714Y-84726190D01*
X191190476Y-84726190D01*
X191142857Y-84702380D01*
X191119047Y-84678571D01*
X191095238Y-84630952D01*
X191095238Y-84488095D01*
X191119047Y-84440476D01*
X191142857Y-84416666D01*
X191190476Y-84392857D01*
X191285714Y-84392857D01*
X191333333Y-84416666D01*
X191619047Y-84726190D02*
X191571428Y-84702380D01*
X191547619Y-84678571D01*
X191523809Y-84630952D01*
X191523809Y-84488095D01*
X191547619Y-84440476D01*
X191571428Y-84416666D01*
X191619047Y-84392857D01*
X191690476Y-84392857D01*
X191738095Y-84416666D01*
X191761904Y-84440476D01*
X191785714Y-84488095D01*
X191785714Y-84630952D01*
X191761904Y-84678571D01*
X191738095Y-84702380D01*
X191690476Y-84726190D01*
X191619047Y-84726190D01*
X192000000Y-84392857D02*
X192000000Y-84726190D01*
X192000000Y-84440476D02*
X192023809Y-84416666D01*
X192071428Y-84392857D01*
X192142857Y-84392857D01*
X192190476Y-84416666D01*
X192214285Y-84464285D01*
X192214285Y-84726190D01*
X192452380Y-84392857D02*
X192452380Y-84726190D01*
X192452380Y-84440476D02*
X192476190Y-84416666D01*
X192523809Y-84392857D01*
X192595238Y-84392857D01*
X192642857Y-84416666D01*
X192666666Y-84464285D01*
X192666666Y-84726190D01*
X102226190Y-94892857D02*
X102202380Y-94940476D01*
X102154761Y-94964285D01*
X101726190Y-94964285D01*
X102226190Y-94702380D02*
X101892857Y-94702380D01*
X101726190Y-94702380D02*
X101750000Y-94726190D01*
X101773809Y-94702380D01*
X101750000Y-94678571D01*
X101726190Y-94702380D01*
X101773809Y-94702380D01*
X101892857Y-94250000D02*
X102297619Y-94250000D01*
X102345238Y-94273809D01*
X102369047Y-94297619D01*
X102392857Y-94345238D01*
X102392857Y-94416666D01*
X102369047Y-94464285D01*
X102202380Y-94250000D02*
X102226190Y-94297619D01*
X102226190Y-94392857D01*
X102202380Y-94440476D01*
X102178571Y-94464285D01*
X102130952Y-94488095D01*
X101988095Y-94488095D01*
X101940476Y-94464285D01*
X101916666Y-94440476D01*
X101892857Y-94392857D01*
X101892857Y-94297619D01*
X101916666Y-94250000D01*
X102226190Y-94011904D02*
X101726190Y-94011904D01*
X102226190Y-93797619D02*
X101964285Y-93797619D01*
X101916666Y-93821428D01*
X101892857Y-93869047D01*
X101892857Y-93940476D01*
X101916666Y-93988095D01*
X101940476Y-94011904D01*
X101892857Y-93630952D02*
X101892857Y-93440476D01*
X101726190Y-93559523D02*
X102154761Y-93559523D01*
X102202380Y-93535714D01*
X102226190Y-93488095D01*
X102226190Y-93440476D01*
X102273809Y-93392857D02*
X102273809Y-93011904D01*
X101726190Y-92797619D02*
X101726190Y-92750000D01*
X101750000Y-92702380D01*
X101773809Y-92678571D01*
X101821428Y-92654761D01*
X101916666Y-92630952D01*
X102035714Y-92630952D01*
X102130952Y-92654761D01*
X102178571Y-92678571D01*
X102202380Y-92702380D01*
X102226190Y-92750000D01*
X102226190Y-92797619D01*
X102202380Y-92845238D01*
X102178571Y-92869047D01*
X102130952Y-92892857D01*
X102035714Y-92916666D01*
X101916666Y-92916666D01*
X101821428Y-92892857D01*
X101773809Y-92869047D01*
X101750000Y-92845238D01*
X101726190Y-92797619D01*
X102178571Y-92416666D02*
X102202380Y-92392857D01*
X102226190Y-92416666D01*
X102202380Y-92440476D01*
X102178571Y-92416666D01*
X102226190Y-92416666D01*
X102226190Y-91964285D02*
X101726190Y-91964285D01*
X102202380Y-91964285D02*
X102226190Y-92011904D01*
X102226190Y-92107142D01*
X102202380Y-92154761D01*
X102178571Y-92178571D01*
X102130952Y-92202380D01*
X101988095Y-92202380D01*
X101940476Y-92178571D01*
X101916666Y-92154761D01*
X101892857Y-92107142D01*
X101892857Y-92011904D01*
X101916666Y-91964285D01*
X102226190Y-91726190D02*
X101892857Y-91726190D01*
X101988095Y-91726190D02*
X101940476Y-91702380D01*
X101916666Y-91678571D01*
X101892857Y-91630952D01*
X101892857Y-91583333D01*
X101892857Y-91464285D02*
X102226190Y-91345238D01*
X101892857Y-91226190D01*
X102273809Y-91154761D02*
X102273809Y-90773809D01*
X101726190Y-90559523D02*
X101726190Y-90511904D01*
X101750000Y-90464285D01*
X101773809Y-90440476D01*
X101821428Y-90416666D01*
X101916666Y-90392857D01*
X102035714Y-90392857D01*
X102130952Y-90416666D01*
X102178571Y-90440476D01*
X102202380Y-90464285D01*
X102226190Y-90511904D01*
X102226190Y-90559523D01*
X102202380Y-90607142D01*
X102178571Y-90630952D01*
X102130952Y-90654761D01*
X102035714Y-90678571D01*
X101916666Y-90678571D01*
X101821428Y-90654761D01*
X101773809Y-90630952D01*
X101750000Y-90607142D01*
X101726190Y-90559523D01*
X102178571Y-90178571D02*
X102202380Y-90154761D01*
X102226190Y-90178571D01*
X102202380Y-90202380D01*
X102178571Y-90178571D01*
X102226190Y-90178571D01*
X102226190Y-89726190D02*
X101726190Y-89726190D01*
X102202380Y-89726190D02*
X102226190Y-89773809D01*
X102226190Y-89869047D01*
X102202380Y-89916666D01*
X102178571Y-89940476D01*
X102130952Y-89964285D01*
X101988095Y-89964285D01*
X101940476Y-89940476D01*
X101916666Y-89916666D01*
X101892857Y-89869047D01*
X101892857Y-89773809D01*
X101916666Y-89726190D01*
X102226190Y-89488095D02*
X101892857Y-89488095D01*
X101988095Y-89488095D02*
X101940476Y-89464285D01*
X101916666Y-89440476D01*
X101892857Y-89392857D01*
X101892857Y-89345238D01*
X101892857Y-89226190D02*
X102226190Y-89107142D01*
X101892857Y-88988095D01*
X104226190Y-94892857D02*
X104202380Y-94940476D01*
X104154761Y-94964285D01*
X103726190Y-94964285D01*
X104226190Y-94702380D02*
X103892857Y-94702380D01*
X103726190Y-94702380D02*
X103750000Y-94726190D01*
X103773809Y-94702380D01*
X103750000Y-94678571D01*
X103726190Y-94702380D01*
X103773809Y-94702380D01*
X103892857Y-94250000D02*
X104297619Y-94250000D01*
X104345238Y-94273809D01*
X104369047Y-94297619D01*
X104392857Y-94345238D01*
X104392857Y-94416666D01*
X104369047Y-94464285D01*
X104202380Y-94250000D02*
X104226190Y-94297619D01*
X104226190Y-94392857D01*
X104202380Y-94440476D01*
X104178571Y-94464285D01*
X104130952Y-94488095D01*
X103988095Y-94488095D01*
X103940476Y-94464285D01*
X103916666Y-94440476D01*
X103892857Y-94392857D01*
X103892857Y-94297619D01*
X103916666Y-94250000D01*
X104226190Y-94011904D02*
X103726190Y-94011904D01*
X104226190Y-93797619D02*
X103964285Y-93797619D01*
X103916666Y-93821428D01*
X103892857Y-93869047D01*
X103892857Y-93940476D01*
X103916666Y-93988095D01*
X103940476Y-94011904D01*
X103892857Y-93630952D02*
X103892857Y-93440476D01*
X103726190Y-93559523D02*
X104154761Y-93559523D01*
X104202380Y-93535714D01*
X104226190Y-93488095D01*
X104226190Y-93440476D01*
X104273809Y-93392857D02*
X104273809Y-93011904D01*
X103726190Y-92797619D02*
X103726190Y-92750000D01*
X103750000Y-92702380D01*
X103773809Y-92678571D01*
X103821428Y-92654761D01*
X103916666Y-92630952D01*
X104035714Y-92630952D01*
X104130952Y-92654761D01*
X104178571Y-92678571D01*
X104202380Y-92702380D01*
X104226190Y-92750000D01*
X104226190Y-92797619D01*
X104202380Y-92845238D01*
X104178571Y-92869047D01*
X104130952Y-92892857D01*
X104035714Y-92916666D01*
X103916666Y-92916666D01*
X103821428Y-92892857D01*
X103773809Y-92869047D01*
X103750000Y-92845238D01*
X103726190Y-92797619D01*
X104178571Y-92416666D02*
X104202380Y-92392857D01*
X104226190Y-92416666D01*
X104202380Y-92440476D01*
X104178571Y-92416666D01*
X104226190Y-92416666D01*
X104226190Y-91964285D02*
X103726190Y-91964285D01*
X104202380Y-91964285D02*
X104226190Y-92011904D01*
X104226190Y-92107142D01*
X104202380Y-92154761D01*
X104178571Y-92178571D01*
X104130952Y-92202380D01*
X103988095Y-92202380D01*
X103940476Y-92178571D01*
X103916666Y-92154761D01*
X103892857Y-92107142D01*
X103892857Y-92011904D01*
X103916666Y-91964285D01*
X104226190Y-91726190D02*
X103892857Y-91726190D01*
X103988095Y-91726190D02*
X103940476Y-91702380D01*
X103916666Y-91678571D01*
X103892857Y-91630952D01*
X103892857Y-91583333D01*
X103892857Y-91464285D02*
X104226190Y-91345238D01*
X103892857Y-91226190D01*
X104273809Y-91154761D02*
X104273809Y-90773809D01*
X104226190Y-90392857D02*
X104226190Y-90678571D01*
X104226190Y-90535714D02*
X103726190Y-90535714D01*
X103797619Y-90583333D01*
X103845238Y-90630952D01*
X103869047Y-90678571D01*
X104178571Y-90178571D02*
X104202380Y-90154761D01*
X104226190Y-90178571D01*
X104202380Y-90202380D01*
X104178571Y-90178571D01*
X104226190Y-90178571D01*
X104226190Y-89726190D02*
X103726190Y-89726190D01*
X104202380Y-89726190D02*
X104226190Y-89773809D01*
X104226190Y-89869047D01*
X104202380Y-89916666D01*
X104178571Y-89940476D01*
X104130952Y-89964285D01*
X103988095Y-89964285D01*
X103940476Y-89940476D01*
X103916666Y-89916666D01*
X103892857Y-89869047D01*
X103892857Y-89773809D01*
X103916666Y-89726190D01*
X104226190Y-89488095D02*
X103892857Y-89488095D01*
X103988095Y-89488095D02*
X103940476Y-89464285D01*
X103916666Y-89440476D01*
X103892857Y-89392857D01*
X103892857Y-89345238D01*
X103892857Y-89226190D02*
X104226190Y-89107142D01*
X103892857Y-88988095D01*
X120226190Y-94892857D02*
X120202380Y-94940476D01*
X120154761Y-94964285D01*
X119726190Y-94964285D01*
X120226190Y-94702380D02*
X119892857Y-94702380D01*
X119726190Y-94702380D02*
X119750000Y-94726190D01*
X119773809Y-94702380D01*
X119750000Y-94678571D01*
X119726190Y-94702380D01*
X119773809Y-94702380D01*
X119892857Y-94250000D02*
X120297619Y-94250000D01*
X120345238Y-94273809D01*
X120369047Y-94297619D01*
X120392857Y-94345238D01*
X120392857Y-94416666D01*
X120369047Y-94464285D01*
X120202380Y-94250000D02*
X120226190Y-94297619D01*
X120226190Y-94392857D01*
X120202380Y-94440476D01*
X120178571Y-94464285D01*
X120130952Y-94488095D01*
X119988095Y-94488095D01*
X119940476Y-94464285D01*
X119916666Y-94440476D01*
X119892857Y-94392857D01*
X119892857Y-94297619D01*
X119916666Y-94250000D01*
X120226190Y-94011904D02*
X119726190Y-94011904D01*
X120226190Y-93797619D02*
X119964285Y-93797619D01*
X119916666Y-93821428D01*
X119892857Y-93869047D01*
X119892857Y-93940476D01*
X119916666Y-93988095D01*
X119940476Y-94011904D01*
X119892857Y-93630952D02*
X119892857Y-93440476D01*
X119726190Y-93559523D02*
X120154761Y-93559523D01*
X120202380Y-93535714D01*
X120226190Y-93488095D01*
X120226190Y-93440476D01*
X120273809Y-93392857D02*
X120273809Y-93011904D01*
X120226190Y-92630952D02*
X120226190Y-92916666D01*
X120226190Y-92773809D02*
X119726190Y-92773809D01*
X119797619Y-92821428D01*
X119845238Y-92869047D01*
X119869047Y-92916666D01*
X120178571Y-92416666D02*
X120202380Y-92392857D01*
X120226190Y-92416666D01*
X120202380Y-92440476D01*
X120178571Y-92416666D01*
X120226190Y-92416666D01*
X120226190Y-91964285D02*
X119726190Y-91964285D01*
X120202380Y-91964285D02*
X120226190Y-92011904D01*
X120226190Y-92107142D01*
X120202380Y-92154761D01*
X120178571Y-92178571D01*
X120130952Y-92202380D01*
X119988095Y-92202380D01*
X119940476Y-92178571D01*
X119916666Y-92154761D01*
X119892857Y-92107142D01*
X119892857Y-92011904D01*
X119916666Y-91964285D01*
X120226190Y-91726190D02*
X119892857Y-91726190D01*
X119988095Y-91726190D02*
X119940476Y-91702380D01*
X119916666Y-91678571D01*
X119892857Y-91630952D01*
X119892857Y-91583333D01*
X119892857Y-91464285D02*
X120226190Y-91345238D01*
X119892857Y-91226190D01*
X120273809Y-91154761D02*
X120273809Y-90773809D01*
X119726190Y-90559523D02*
X119726190Y-90511904D01*
X119750000Y-90464285D01*
X119773809Y-90440476D01*
X119821428Y-90416666D01*
X119916666Y-90392857D01*
X120035714Y-90392857D01*
X120130952Y-90416666D01*
X120178571Y-90440476D01*
X120202380Y-90464285D01*
X120226190Y-90511904D01*
X120226190Y-90559523D01*
X120202380Y-90607142D01*
X120178571Y-90630952D01*
X120130952Y-90654761D01*
X120035714Y-90678571D01*
X119916666Y-90678571D01*
X119821428Y-90654761D01*
X119773809Y-90630952D01*
X119750000Y-90607142D01*
X119726190Y-90559523D01*
X120178571Y-90178571D02*
X120202380Y-90154761D01*
X120226190Y-90178571D01*
X120202380Y-90202380D01*
X120178571Y-90178571D01*
X120226190Y-90178571D01*
X120226190Y-89726190D02*
X119726190Y-89726190D01*
X120202380Y-89726190D02*
X120226190Y-89773809D01*
X120226190Y-89869047D01*
X120202380Y-89916666D01*
X120178571Y-89940476D01*
X120130952Y-89964285D01*
X119988095Y-89964285D01*
X119940476Y-89940476D01*
X119916666Y-89916666D01*
X119892857Y-89869047D01*
X119892857Y-89773809D01*
X119916666Y-89726190D01*
X120226190Y-89488095D02*
X119892857Y-89488095D01*
X119988095Y-89488095D02*
X119940476Y-89464285D01*
X119916666Y-89440476D01*
X119892857Y-89392857D01*
X119892857Y-89345238D01*
X119892857Y-89226190D02*
X120226190Y-89107142D01*
X119892857Y-88988095D01*
X122226190Y-94892857D02*
X122202380Y-94940476D01*
X122154761Y-94964285D01*
X121726190Y-94964285D01*
X122226190Y-94702380D02*
X121892857Y-94702380D01*
X121726190Y-94702380D02*
X121750000Y-94726190D01*
X121773809Y-94702380D01*
X121750000Y-94678571D01*
X121726190Y-94702380D01*
X121773809Y-94702380D01*
X121892857Y-94250000D02*
X122297619Y-94250000D01*
X122345238Y-94273809D01*
X122369047Y-94297619D01*
X122392857Y-94345238D01*
X122392857Y-94416666D01*
X122369047Y-94464285D01*
X122202380Y-94250000D02*
X122226190Y-94297619D01*
X122226190Y-94392857D01*
X122202380Y-94440476D01*
X122178571Y-94464285D01*
X122130952Y-94488095D01*
X121988095Y-94488095D01*
X121940476Y-94464285D01*
X121916666Y-94440476D01*
X121892857Y-94392857D01*
X121892857Y-94297619D01*
X121916666Y-94250000D01*
X122226190Y-94011904D02*
X121726190Y-94011904D01*
X122226190Y-93797619D02*
X121964285Y-93797619D01*
X121916666Y-93821428D01*
X121892857Y-93869047D01*
X121892857Y-93940476D01*
X121916666Y-93988095D01*
X121940476Y-94011904D01*
X121892857Y-93630952D02*
X121892857Y-93440476D01*
X121726190Y-93559523D02*
X122154761Y-93559523D01*
X122202380Y-93535714D01*
X122226190Y-93488095D01*
X122226190Y-93440476D01*
X122273809Y-93392857D02*
X122273809Y-93011904D01*
X122226190Y-92630952D02*
X122226190Y-92916666D01*
X122226190Y-92773809D02*
X121726190Y-92773809D01*
X121797619Y-92821428D01*
X121845238Y-92869047D01*
X121869047Y-92916666D01*
X122178571Y-92416666D02*
X122202380Y-92392857D01*
X122226190Y-92416666D01*
X122202380Y-92440476D01*
X122178571Y-92416666D01*
X122226190Y-92416666D01*
X122226190Y-91964285D02*
X121726190Y-91964285D01*
X122202380Y-91964285D02*
X122226190Y-92011904D01*
X122226190Y-92107142D01*
X122202380Y-92154761D01*
X122178571Y-92178571D01*
X122130952Y-92202380D01*
X121988095Y-92202380D01*
X121940476Y-92178571D01*
X121916666Y-92154761D01*
X121892857Y-92107142D01*
X121892857Y-92011904D01*
X121916666Y-91964285D01*
X122226190Y-91726190D02*
X121892857Y-91726190D01*
X121988095Y-91726190D02*
X121940476Y-91702380D01*
X121916666Y-91678571D01*
X121892857Y-91630952D01*
X121892857Y-91583333D01*
X121892857Y-91464285D02*
X122226190Y-91345238D01*
X121892857Y-91226190D01*
X122273809Y-91154761D02*
X122273809Y-90773809D01*
X122226190Y-90392857D02*
X122226190Y-90678571D01*
X122226190Y-90535714D02*
X121726190Y-90535714D01*
X121797619Y-90583333D01*
X121845238Y-90630952D01*
X121869047Y-90678571D01*
X122178571Y-90178571D02*
X122202380Y-90154761D01*
X122226190Y-90178571D01*
X122202380Y-90202380D01*
X122178571Y-90178571D01*
X122226190Y-90178571D01*
X122226190Y-89726190D02*
X121726190Y-89726190D01*
X122202380Y-89726190D02*
X122226190Y-89773809D01*
X122226190Y-89869047D01*
X122202380Y-89916666D01*
X122178571Y-89940476D01*
X122130952Y-89964285D01*
X121988095Y-89964285D01*
X121940476Y-89940476D01*
X121916666Y-89916666D01*
X121892857Y-89869047D01*
X121892857Y-89773809D01*
X121916666Y-89726190D01*
X122226190Y-89488095D02*
X121892857Y-89488095D01*
X121988095Y-89488095D02*
X121940476Y-89464285D01*
X121916666Y-89440476D01*
X121892857Y-89392857D01*
X121892857Y-89345238D01*
X121892857Y-89226190D02*
X122226190Y-89107142D01*
X121892857Y-88988095D01*
X138226190Y-94892857D02*
X138202380Y-94940476D01*
X138154761Y-94964285D01*
X137726190Y-94964285D01*
X138226190Y-94702380D02*
X137892857Y-94702380D01*
X137726190Y-94702380D02*
X137750000Y-94726190D01*
X137773809Y-94702380D01*
X137750000Y-94678571D01*
X137726190Y-94702380D01*
X137773809Y-94702380D01*
X137892857Y-94250000D02*
X138297619Y-94250000D01*
X138345238Y-94273809D01*
X138369047Y-94297619D01*
X138392857Y-94345238D01*
X138392857Y-94416666D01*
X138369047Y-94464285D01*
X138202380Y-94250000D02*
X138226190Y-94297619D01*
X138226190Y-94392857D01*
X138202380Y-94440476D01*
X138178571Y-94464285D01*
X138130952Y-94488095D01*
X137988095Y-94488095D01*
X137940476Y-94464285D01*
X137916666Y-94440476D01*
X137892857Y-94392857D01*
X137892857Y-94297619D01*
X137916666Y-94250000D01*
X138226190Y-94011904D02*
X137726190Y-94011904D01*
X138226190Y-93797619D02*
X137964285Y-93797619D01*
X137916666Y-93821428D01*
X137892857Y-93869047D01*
X137892857Y-93940476D01*
X137916666Y-93988095D01*
X137940476Y-94011904D01*
X137892857Y-93630952D02*
X137892857Y-93440476D01*
X137726190Y-93559523D02*
X138154761Y-93559523D01*
X138202380Y-93535714D01*
X138226190Y-93488095D01*
X138226190Y-93440476D01*
X138273809Y-93392857D02*
X138273809Y-93011904D01*
X137773809Y-92916666D02*
X137750000Y-92892857D01*
X137726190Y-92845238D01*
X137726190Y-92726190D01*
X137750000Y-92678571D01*
X137773809Y-92654761D01*
X137821428Y-92630952D01*
X137869047Y-92630952D01*
X137940476Y-92654761D01*
X138226190Y-92940476D01*
X138226190Y-92630952D01*
X138178571Y-92416666D02*
X138202380Y-92392857D01*
X138226190Y-92416666D01*
X138202380Y-92440476D01*
X138178571Y-92416666D01*
X138226190Y-92416666D01*
X138226190Y-91964285D02*
X137726190Y-91964285D01*
X138202380Y-91964285D02*
X138226190Y-92011904D01*
X138226190Y-92107142D01*
X138202380Y-92154761D01*
X138178571Y-92178571D01*
X138130952Y-92202380D01*
X137988095Y-92202380D01*
X137940476Y-92178571D01*
X137916666Y-92154761D01*
X137892857Y-92107142D01*
X137892857Y-92011904D01*
X137916666Y-91964285D01*
X138226190Y-91726190D02*
X137892857Y-91726190D01*
X137988095Y-91726190D02*
X137940476Y-91702380D01*
X137916666Y-91678571D01*
X137892857Y-91630952D01*
X137892857Y-91583333D01*
X137892857Y-91464285D02*
X138226190Y-91345238D01*
X137892857Y-91226190D01*
X138273809Y-91154761D02*
X138273809Y-90773809D01*
X137726190Y-90559523D02*
X137726190Y-90511904D01*
X137750000Y-90464285D01*
X137773809Y-90440476D01*
X137821428Y-90416666D01*
X137916666Y-90392857D01*
X138035714Y-90392857D01*
X138130952Y-90416666D01*
X138178571Y-90440476D01*
X138202380Y-90464285D01*
X138226190Y-90511904D01*
X138226190Y-90559523D01*
X138202380Y-90607142D01*
X138178571Y-90630952D01*
X138130952Y-90654761D01*
X138035714Y-90678571D01*
X137916666Y-90678571D01*
X137821428Y-90654761D01*
X137773809Y-90630952D01*
X137750000Y-90607142D01*
X137726190Y-90559523D01*
X138178571Y-90178571D02*
X138202380Y-90154761D01*
X138226190Y-90178571D01*
X138202380Y-90202380D01*
X138178571Y-90178571D01*
X138226190Y-90178571D01*
X138226190Y-89726190D02*
X137726190Y-89726190D01*
X138202380Y-89726190D02*
X138226190Y-89773809D01*
X138226190Y-89869047D01*
X138202380Y-89916666D01*
X138178571Y-89940476D01*
X138130952Y-89964285D01*
X137988095Y-89964285D01*
X137940476Y-89940476D01*
X137916666Y-89916666D01*
X137892857Y-89869047D01*
X137892857Y-89773809D01*
X137916666Y-89726190D01*
X138226190Y-89488095D02*
X137892857Y-89488095D01*
X137988095Y-89488095D02*
X137940476Y-89464285D01*
X137916666Y-89440476D01*
X137892857Y-89392857D01*
X137892857Y-89345238D01*
X137892857Y-89226190D02*
X138226190Y-89107142D01*
X137892857Y-88988095D01*
X140226190Y-94892857D02*
X140202380Y-94940476D01*
X140154761Y-94964285D01*
X139726190Y-94964285D01*
X140226190Y-94702380D02*
X139892857Y-94702380D01*
X139726190Y-94702380D02*
X139750000Y-94726190D01*
X139773809Y-94702380D01*
X139750000Y-94678571D01*
X139726190Y-94702380D01*
X139773809Y-94702380D01*
X139892857Y-94250000D02*
X140297619Y-94250000D01*
X140345238Y-94273809D01*
X140369047Y-94297619D01*
X140392857Y-94345238D01*
X140392857Y-94416666D01*
X140369047Y-94464285D01*
X140202380Y-94250000D02*
X140226190Y-94297619D01*
X140226190Y-94392857D01*
X140202380Y-94440476D01*
X140178571Y-94464285D01*
X140130952Y-94488095D01*
X139988095Y-94488095D01*
X139940476Y-94464285D01*
X139916666Y-94440476D01*
X139892857Y-94392857D01*
X139892857Y-94297619D01*
X139916666Y-94250000D01*
X140226190Y-94011904D02*
X139726190Y-94011904D01*
X140226190Y-93797619D02*
X139964285Y-93797619D01*
X139916666Y-93821428D01*
X139892857Y-93869047D01*
X139892857Y-93940476D01*
X139916666Y-93988095D01*
X139940476Y-94011904D01*
X139892857Y-93630952D02*
X139892857Y-93440476D01*
X139726190Y-93559523D02*
X140154761Y-93559523D01*
X140202380Y-93535714D01*
X140226190Y-93488095D01*
X140226190Y-93440476D01*
X140273809Y-93392857D02*
X140273809Y-93011904D01*
X139773809Y-92916666D02*
X139750000Y-92892857D01*
X139726190Y-92845238D01*
X139726190Y-92726190D01*
X139750000Y-92678571D01*
X139773809Y-92654761D01*
X139821428Y-92630952D01*
X139869047Y-92630952D01*
X139940476Y-92654761D01*
X140226190Y-92940476D01*
X140226190Y-92630952D01*
X140178571Y-92416666D02*
X140202380Y-92392857D01*
X140226190Y-92416666D01*
X140202380Y-92440476D01*
X140178571Y-92416666D01*
X140226190Y-92416666D01*
X140226190Y-91964285D02*
X139726190Y-91964285D01*
X140202380Y-91964285D02*
X140226190Y-92011904D01*
X140226190Y-92107142D01*
X140202380Y-92154761D01*
X140178571Y-92178571D01*
X140130952Y-92202380D01*
X139988095Y-92202380D01*
X139940476Y-92178571D01*
X139916666Y-92154761D01*
X139892857Y-92107142D01*
X139892857Y-92011904D01*
X139916666Y-91964285D01*
X140226190Y-91726190D02*
X139892857Y-91726190D01*
X139988095Y-91726190D02*
X139940476Y-91702380D01*
X139916666Y-91678571D01*
X139892857Y-91630952D01*
X139892857Y-91583333D01*
X139892857Y-91464285D02*
X140226190Y-91345238D01*
X139892857Y-91226190D01*
X140273809Y-91154761D02*
X140273809Y-90773809D01*
X140226190Y-90392857D02*
X140226190Y-90678571D01*
X140226190Y-90535714D02*
X139726190Y-90535714D01*
X139797619Y-90583333D01*
X139845238Y-90630952D01*
X139869047Y-90678571D01*
X140178571Y-90178571D02*
X140202380Y-90154761D01*
X140226190Y-90178571D01*
X140202380Y-90202380D01*
X140178571Y-90178571D01*
X140226190Y-90178571D01*
X140226190Y-89726190D02*
X139726190Y-89726190D01*
X140202380Y-89726190D02*
X140226190Y-89773809D01*
X140226190Y-89869047D01*
X140202380Y-89916666D01*
X140178571Y-89940476D01*
X140130952Y-89964285D01*
X139988095Y-89964285D01*
X139940476Y-89940476D01*
X139916666Y-89916666D01*
X139892857Y-89869047D01*
X139892857Y-89773809D01*
X139916666Y-89726190D01*
X140226190Y-89488095D02*
X139892857Y-89488095D01*
X139988095Y-89488095D02*
X139940476Y-89464285D01*
X139916666Y-89440476D01*
X139892857Y-89392857D01*
X139892857Y-89345238D01*
X139892857Y-89226190D02*
X140226190Y-89107142D01*
X139892857Y-88988095D01*
X156226190Y-94892857D02*
X156202380Y-94940476D01*
X156154761Y-94964285D01*
X155726190Y-94964285D01*
X156226190Y-94702380D02*
X155892857Y-94702380D01*
X155726190Y-94702380D02*
X155750000Y-94726190D01*
X155773809Y-94702380D01*
X155750000Y-94678571D01*
X155726190Y-94702380D01*
X155773809Y-94702380D01*
X155892857Y-94250000D02*
X156297619Y-94250000D01*
X156345238Y-94273809D01*
X156369047Y-94297619D01*
X156392857Y-94345238D01*
X156392857Y-94416666D01*
X156369047Y-94464285D01*
X156202380Y-94250000D02*
X156226190Y-94297619D01*
X156226190Y-94392857D01*
X156202380Y-94440476D01*
X156178571Y-94464285D01*
X156130952Y-94488095D01*
X155988095Y-94488095D01*
X155940476Y-94464285D01*
X155916666Y-94440476D01*
X155892857Y-94392857D01*
X155892857Y-94297619D01*
X155916666Y-94250000D01*
X156226190Y-94011904D02*
X155726190Y-94011904D01*
X156226190Y-93797619D02*
X155964285Y-93797619D01*
X155916666Y-93821428D01*
X155892857Y-93869047D01*
X155892857Y-93940476D01*
X155916666Y-93988095D01*
X155940476Y-94011904D01*
X155892857Y-93630952D02*
X155892857Y-93440476D01*
X155726190Y-93559523D02*
X156154761Y-93559523D01*
X156202380Y-93535714D01*
X156226190Y-93488095D01*
X156226190Y-93440476D01*
X156273809Y-93392857D02*
X156273809Y-93011904D01*
X155726190Y-92940476D02*
X155726190Y-92630952D01*
X155916666Y-92797619D01*
X155916666Y-92726190D01*
X155940476Y-92678571D01*
X155964285Y-92654761D01*
X156011904Y-92630952D01*
X156130952Y-92630952D01*
X156178571Y-92654761D01*
X156202380Y-92678571D01*
X156226190Y-92726190D01*
X156226190Y-92869047D01*
X156202380Y-92916666D01*
X156178571Y-92940476D01*
X156178571Y-92416666D02*
X156202380Y-92392857D01*
X156226190Y-92416666D01*
X156202380Y-92440476D01*
X156178571Y-92416666D01*
X156226190Y-92416666D01*
X156226190Y-91964285D02*
X155726190Y-91964285D01*
X156202380Y-91964285D02*
X156226190Y-92011904D01*
X156226190Y-92107142D01*
X156202380Y-92154761D01*
X156178571Y-92178571D01*
X156130952Y-92202380D01*
X155988095Y-92202380D01*
X155940476Y-92178571D01*
X155916666Y-92154761D01*
X155892857Y-92107142D01*
X155892857Y-92011904D01*
X155916666Y-91964285D01*
X156226190Y-91726190D02*
X155892857Y-91726190D01*
X155988095Y-91726190D02*
X155940476Y-91702380D01*
X155916666Y-91678571D01*
X155892857Y-91630952D01*
X155892857Y-91583333D01*
X155892857Y-91464285D02*
X156226190Y-91345238D01*
X155892857Y-91226190D01*
X156273809Y-91154761D02*
X156273809Y-90773809D01*
X155726190Y-90559523D02*
X155726190Y-90511904D01*
X155750000Y-90464285D01*
X155773809Y-90440476D01*
X155821428Y-90416666D01*
X155916666Y-90392857D01*
X156035714Y-90392857D01*
X156130952Y-90416666D01*
X156178571Y-90440476D01*
X156202380Y-90464285D01*
X156226190Y-90511904D01*
X156226190Y-90559523D01*
X156202380Y-90607142D01*
X156178571Y-90630952D01*
X156130952Y-90654761D01*
X156035714Y-90678571D01*
X155916666Y-90678571D01*
X155821428Y-90654761D01*
X155773809Y-90630952D01*
X155750000Y-90607142D01*
X155726190Y-90559523D01*
X156178571Y-90178571D02*
X156202380Y-90154761D01*
X156226190Y-90178571D01*
X156202380Y-90202380D01*
X156178571Y-90178571D01*
X156226190Y-90178571D01*
X156226190Y-89726190D02*
X155726190Y-89726190D01*
X156202380Y-89726190D02*
X156226190Y-89773809D01*
X156226190Y-89869047D01*
X156202380Y-89916666D01*
X156178571Y-89940476D01*
X156130952Y-89964285D01*
X155988095Y-89964285D01*
X155940476Y-89940476D01*
X155916666Y-89916666D01*
X155892857Y-89869047D01*
X155892857Y-89773809D01*
X155916666Y-89726190D01*
X156226190Y-89488095D02*
X155892857Y-89488095D01*
X155988095Y-89488095D02*
X155940476Y-89464285D01*
X155916666Y-89440476D01*
X155892857Y-89392857D01*
X155892857Y-89345238D01*
X155892857Y-89226190D02*
X156226190Y-89107142D01*
X155892857Y-88988095D01*
X158226190Y-94892857D02*
X158202380Y-94940476D01*
X158154761Y-94964285D01*
X157726190Y-94964285D01*
X158226190Y-94702380D02*
X157892857Y-94702380D01*
X157726190Y-94702380D02*
X157750000Y-94726190D01*
X157773809Y-94702380D01*
X157750000Y-94678571D01*
X157726190Y-94702380D01*
X157773809Y-94702380D01*
X157892857Y-94250000D02*
X158297619Y-94250000D01*
X158345238Y-94273809D01*
X158369047Y-94297619D01*
X158392857Y-94345238D01*
X158392857Y-94416666D01*
X158369047Y-94464285D01*
X158202380Y-94250000D02*
X158226190Y-94297619D01*
X158226190Y-94392857D01*
X158202380Y-94440476D01*
X158178571Y-94464285D01*
X158130952Y-94488095D01*
X157988095Y-94488095D01*
X157940476Y-94464285D01*
X157916666Y-94440476D01*
X157892857Y-94392857D01*
X157892857Y-94297619D01*
X157916666Y-94250000D01*
X158226190Y-94011904D02*
X157726190Y-94011904D01*
X158226190Y-93797619D02*
X157964285Y-93797619D01*
X157916666Y-93821428D01*
X157892857Y-93869047D01*
X157892857Y-93940476D01*
X157916666Y-93988095D01*
X157940476Y-94011904D01*
X157892857Y-93630952D02*
X157892857Y-93440476D01*
X157726190Y-93559523D02*
X158154761Y-93559523D01*
X158202380Y-93535714D01*
X158226190Y-93488095D01*
X158226190Y-93440476D01*
X158273809Y-93392857D02*
X158273809Y-93011904D01*
X157726190Y-92940476D02*
X157726190Y-92630952D01*
X157916666Y-92797619D01*
X157916666Y-92726190D01*
X157940476Y-92678571D01*
X157964285Y-92654761D01*
X158011904Y-92630952D01*
X158130952Y-92630952D01*
X158178571Y-92654761D01*
X158202380Y-92678571D01*
X158226190Y-92726190D01*
X158226190Y-92869047D01*
X158202380Y-92916666D01*
X158178571Y-92940476D01*
X158178571Y-92416666D02*
X158202380Y-92392857D01*
X158226190Y-92416666D01*
X158202380Y-92440476D01*
X158178571Y-92416666D01*
X158226190Y-92416666D01*
X158226190Y-91964285D02*
X157726190Y-91964285D01*
X158202380Y-91964285D02*
X158226190Y-92011904D01*
X158226190Y-92107142D01*
X158202380Y-92154761D01*
X158178571Y-92178571D01*
X158130952Y-92202380D01*
X157988095Y-92202380D01*
X157940476Y-92178571D01*
X157916666Y-92154761D01*
X157892857Y-92107142D01*
X157892857Y-92011904D01*
X157916666Y-91964285D01*
X158226190Y-91726190D02*
X157892857Y-91726190D01*
X157988095Y-91726190D02*
X157940476Y-91702380D01*
X157916666Y-91678571D01*
X157892857Y-91630952D01*
X157892857Y-91583333D01*
X157892857Y-91464285D02*
X158226190Y-91345238D01*
X157892857Y-91226190D01*
X158273809Y-91154761D02*
X158273809Y-90773809D01*
X158226190Y-90392857D02*
X158226190Y-90678571D01*
X158226190Y-90535714D02*
X157726190Y-90535714D01*
X157797619Y-90583333D01*
X157845238Y-90630952D01*
X157869047Y-90678571D01*
X158178571Y-90178571D02*
X158202380Y-90154761D01*
X158226190Y-90178571D01*
X158202380Y-90202380D01*
X158178571Y-90178571D01*
X158226190Y-90178571D01*
X158226190Y-89726190D02*
X157726190Y-89726190D01*
X158202380Y-89726190D02*
X158226190Y-89773809D01*
X158226190Y-89869047D01*
X158202380Y-89916666D01*
X158178571Y-89940476D01*
X158130952Y-89964285D01*
X157988095Y-89964285D01*
X157940476Y-89940476D01*
X157916666Y-89916666D01*
X157892857Y-89869047D01*
X157892857Y-89773809D01*
X157916666Y-89726190D01*
X158226190Y-89488095D02*
X157892857Y-89488095D01*
X157988095Y-89488095D02*
X157940476Y-89464285D01*
X157916666Y-89440476D01*
X157892857Y-89392857D01*
X157892857Y-89345238D01*
X157892857Y-89226190D02*
X158226190Y-89107142D01*
X157892857Y-88988095D01*
X176726190Y-98892857D02*
X176702380Y-98940476D01*
X176654761Y-98964285D01*
X176226190Y-98964285D01*
X176726190Y-98702380D02*
X176392857Y-98702380D01*
X176226190Y-98702380D02*
X176250000Y-98726190D01*
X176273809Y-98702380D01*
X176250000Y-98678571D01*
X176226190Y-98702380D01*
X176273809Y-98702380D01*
X176392857Y-98250000D02*
X176797619Y-98250000D01*
X176845238Y-98273809D01*
X176869047Y-98297619D01*
X176892857Y-98345238D01*
X176892857Y-98416666D01*
X176869047Y-98464285D01*
X176702380Y-98250000D02*
X176726190Y-98297619D01*
X176726190Y-98392857D01*
X176702380Y-98440476D01*
X176678571Y-98464285D01*
X176630952Y-98488095D01*
X176488095Y-98488095D01*
X176440476Y-98464285D01*
X176416666Y-98440476D01*
X176392857Y-98392857D01*
X176392857Y-98297619D01*
X176416666Y-98250000D01*
X176726190Y-98011904D02*
X176226190Y-98011904D01*
X176726190Y-97797619D02*
X176464285Y-97797619D01*
X176416666Y-97821428D01*
X176392857Y-97869047D01*
X176392857Y-97940476D01*
X176416666Y-97988095D01*
X176440476Y-98011904D01*
X176392857Y-97630952D02*
X176392857Y-97440476D01*
X176226190Y-97559523D02*
X176654761Y-97559523D01*
X176702380Y-97535714D01*
X176726190Y-97488095D01*
X176726190Y-97440476D01*
X176773809Y-97392857D02*
X176773809Y-97011904D01*
X176392857Y-96678571D02*
X176726190Y-96678571D01*
X176202380Y-96797619D02*
X176559523Y-96916666D01*
X176559523Y-96607142D01*
X176678571Y-96416666D02*
X176702380Y-96392857D01*
X176726190Y-96416666D01*
X176702380Y-96440476D01*
X176678571Y-96416666D01*
X176726190Y-96416666D01*
X176726190Y-95964285D02*
X176226190Y-95964285D01*
X176702380Y-95964285D02*
X176726190Y-96011904D01*
X176726190Y-96107142D01*
X176702380Y-96154761D01*
X176678571Y-96178571D01*
X176630952Y-96202380D01*
X176488095Y-96202380D01*
X176440476Y-96178571D01*
X176416666Y-96154761D01*
X176392857Y-96107142D01*
X176392857Y-96011904D01*
X176416666Y-95964285D01*
X176726190Y-95726190D02*
X176392857Y-95726190D01*
X176488095Y-95726190D02*
X176440476Y-95702380D01*
X176416666Y-95678571D01*
X176392857Y-95630952D01*
X176392857Y-95583333D01*
X176392857Y-95464285D02*
X176726190Y-95345238D01*
X176392857Y-95226190D01*
X176773809Y-95154761D02*
X176773809Y-94773809D01*
X176226190Y-94559523D02*
X176226190Y-94511904D01*
X176250000Y-94464285D01*
X176273809Y-94440476D01*
X176321428Y-94416666D01*
X176416666Y-94392857D01*
X176535714Y-94392857D01*
X176630952Y-94416666D01*
X176678571Y-94440476D01*
X176702380Y-94464285D01*
X176726190Y-94511904D01*
X176726190Y-94559523D01*
X176702380Y-94607142D01*
X176678571Y-94630952D01*
X176630952Y-94654761D01*
X176535714Y-94678571D01*
X176416666Y-94678571D01*
X176321428Y-94654761D01*
X176273809Y-94630952D01*
X176250000Y-94607142D01*
X176226190Y-94559523D01*
X176678571Y-94178571D02*
X176702380Y-94154761D01*
X176726190Y-94178571D01*
X176702380Y-94202380D01*
X176678571Y-94178571D01*
X176726190Y-94178571D01*
X176726190Y-93726190D02*
X176226190Y-93726190D01*
X176702380Y-93726190D02*
X176726190Y-93773809D01*
X176726190Y-93869047D01*
X176702380Y-93916666D01*
X176678571Y-93940476D01*
X176630952Y-93964285D01*
X176488095Y-93964285D01*
X176440476Y-93940476D01*
X176416666Y-93916666D01*
X176392857Y-93869047D01*
X176392857Y-93773809D01*
X176416666Y-93726190D01*
X176726190Y-93488095D02*
X176392857Y-93488095D01*
X176488095Y-93488095D02*
X176440476Y-93464285D01*
X176416666Y-93440476D01*
X176392857Y-93392857D01*
X176392857Y-93345238D01*
X176392857Y-93226190D02*
X176726190Y-93107142D01*
X176392857Y-92988095D01*
X177726190Y-98892857D02*
X177702380Y-98940476D01*
X177654761Y-98964285D01*
X177226190Y-98964285D01*
X177726190Y-98702380D02*
X177392857Y-98702380D01*
X177226190Y-98702380D02*
X177250000Y-98726190D01*
X177273809Y-98702380D01*
X177250000Y-98678571D01*
X177226190Y-98702380D01*
X177273809Y-98702380D01*
X177392857Y-98250000D02*
X177797619Y-98250000D01*
X177845238Y-98273809D01*
X177869047Y-98297619D01*
X177892857Y-98345238D01*
X177892857Y-98416666D01*
X177869047Y-98464285D01*
X177702380Y-98250000D02*
X177726190Y-98297619D01*
X177726190Y-98392857D01*
X177702380Y-98440476D01*
X177678571Y-98464285D01*
X177630952Y-98488095D01*
X177488095Y-98488095D01*
X177440476Y-98464285D01*
X177416666Y-98440476D01*
X177392857Y-98392857D01*
X177392857Y-98297619D01*
X177416666Y-98250000D01*
X177726190Y-98011904D02*
X177226190Y-98011904D01*
X177726190Y-97797619D02*
X177464285Y-97797619D01*
X177416666Y-97821428D01*
X177392857Y-97869047D01*
X177392857Y-97940476D01*
X177416666Y-97988095D01*
X177440476Y-98011904D01*
X177392857Y-97630952D02*
X177392857Y-97440476D01*
X177226190Y-97559523D02*
X177654761Y-97559523D01*
X177702380Y-97535714D01*
X177726190Y-97488095D01*
X177726190Y-97440476D01*
X177773809Y-97392857D02*
X177773809Y-97011904D01*
X177392857Y-96678571D02*
X177726190Y-96678571D01*
X177202380Y-96797619D02*
X177559523Y-96916666D01*
X177559523Y-96607142D01*
X177678571Y-96416666D02*
X177702380Y-96392857D01*
X177726190Y-96416666D01*
X177702380Y-96440476D01*
X177678571Y-96416666D01*
X177726190Y-96416666D01*
X177726190Y-95964285D02*
X177226190Y-95964285D01*
X177702380Y-95964285D02*
X177726190Y-96011904D01*
X177726190Y-96107142D01*
X177702380Y-96154761D01*
X177678571Y-96178571D01*
X177630952Y-96202380D01*
X177488095Y-96202380D01*
X177440476Y-96178571D01*
X177416666Y-96154761D01*
X177392857Y-96107142D01*
X177392857Y-96011904D01*
X177416666Y-95964285D01*
X177726190Y-95726190D02*
X177392857Y-95726190D01*
X177488095Y-95726190D02*
X177440476Y-95702380D01*
X177416666Y-95678571D01*
X177392857Y-95630952D01*
X177392857Y-95583333D01*
X177392857Y-95464285D02*
X177726190Y-95345238D01*
X177392857Y-95226190D01*
X177773809Y-95154761D02*
X177773809Y-94773809D01*
X177726190Y-94392857D02*
X177726190Y-94678571D01*
X177726190Y-94535714D02*
X177226190Y-94535714D01*
X177297619Y-94583333D01*
X177345238Y-94630952D01*
X177369047Y-94678571D01*
X177678571Y-94178571D02*
X177702380Y-94154761D01*
X177726190Y-94178571D01*
X177702380Y-94202380D01*
X177678571Y-94178571D01*
X177726190Y-94178571D01*
X177726190Y-93726190D02*
X177226190Y-93726190D01*
X177702380Y-93726190D02*
X177726190Y-93773809D01*
X177726190Y-93869047D01*
X177702380Y-93916666D01*
X177678571Y-93940476D01*
X177630952Y-93964285D01*
X177488095Y-93964285D01*
X177440476Y-93940476D01*
X177416666Y-93916666D01*
X177392857Y-93869047D01*
X177392857Y-93773809D01*
X177416666Y-93726190D01*
X177726190Y-93488095D02*
X177392857Y-93488095D01*
X177488095Y-93488095D02*
X177440476Y-93464285D01*
X177416666Y-93440476D01*
X177392857Y-93392857D01*
X177392857Y-93345238D01*
X177392857Y-93226190D02*
X177726190Y-93107142D01*
X177392857Y-92988095D01*
X196726190Y-98892857D02*
X196702380Y-98940476D01*
X196654761Y-98964285D01*
X196226190Y-98964285D01*
X196726190Y-98702380D02*
X196392857Y-98702380D01*
X196226190Y-98702380D02*
X196250000Y-98726190D01*
X196273809Y-98702380D01*
X196250000Y-98678571D01*
X196226190Y-98702380D01*
X196273809Y-98702380D01*
X196392857Y-98250000D02*
X196797619Y-98250000D01*
X196845238Y-98273809D01*
X196869047Y-98297619D01*
X196892857Y-98345238D01*
X196892857Y-98416666D01*
X196869047Y-98464285D01*
X196702380Y-98250000D02*
X196726190Y-98297619D01*
X196726190Y-98392857D01*
X196702380Y-98440476D01*
X196678571Y-98464285D01*
X196630952Y-98488095D01*
X196488095Y-98488095D01*
X196440476Y-98464285D01*
X196416666Y-98440476D01*
X196392857Y-98392857D01*
X196392857Y-98297619D01*
X196416666Y-98250000D01*
X196726190Y-98011904D02*
X196226190Y-98011904D01*
X196726190Y-97797619D02*
X196464285Y-97797619D01*
X196416666Y-97821428D01*
X196392857Y-97869047D01*
X196392857Y-97940476D01*
X196416666Y-97988095D01*
X196440476Y-98011904D01*
X196392857Y-97630952D02*
X196392857Y-97440476D01*
X196226190Y-97559523D02*
X196654761Y-97559523D01*
X196702380Y-97535714D01*
X196726190Y-97488095D01*
X196726190Y-97440476D01*
X196773809Y-97392857D02*
X196773809Y-97011904D01*
X196226190Y-96654761D02*
X196226190Y-96892857D01*
X196464285Y-96916666D01*
X196440476Y-96892857D01*
X196416666Y-96845238D01*
X196416666Y-96726190D01*
X196440476Y-96678571D01*
X196464285Y-96654761D01*
X196511904Y-96630952D01*
X196630952Y-96630952D01*
X196678571Y-96654761D01*
X196702380Y-96678571D01*
X196726190Y-96726190D01*
X196726190Y-96845238D01*
X196702380Y-96892857D01*
X196678571Y-96916666D01*
X196678571Y-96416666D02*
X196702380Y-96392857D01*
X196726190Y-96416666D01*
X196702380Y-96440476D01*
X196678571Y-96416666D01*
X196726190Y-96416666D01*
X196726190Y-95964285D02*
X196226190Y-95964285D01*
X196702380Y-95964285D02*
X196726190Y-96011904D01*
X196726190Y-96107142D01*
X196702380Y-96154761D01*
X196678571Y-96178571D01*
X196630952Y-96202380D01*
X196488095Y-96202380D01*
X196440476Y-96178571D01*
X196416666Y-96154761D01*
X196392857Y-96107142D01*
X196392857Y-96011904D01*
X196416666Y-95964285D01*
X196726190Y-95726190D02*
X196392857Y-95726190D01*
X196488095Y-95726190D02*
X196440476Y-95702380D01*
X196416666Y-95678571D01*
X196392857Y-95630952D01*
X196392857Y-95583333D01*
X196392857Y-95464285D02*
X196726190Y-95345238D01*
X196392857Y-95226190D01*
X196773809Y-95154761D02*
X196773809Y-94773809D01*
X196226190Y-94559523D02*
X196226190Y-94511904D01*
X196250000Y-94464285D01*
X196273809Y-94440476D01*
X196321428Y-94416666D01*
X196416666Y-94392857D01*
X196535714Y-94392857D01*
X196630952Y-94416666D01*
X196678571Y-94440476D01*
X196702380Y-94464285D01*
X196726190Y-94511904D01*
X196726190Y-94559523D01*
X196702380Y-94607142D01*
X196678571Y-94630952D01*
X196630952Y-94654761D01*
X196535714Y-94678571D01*
X196416666Y-94678571D01*
X196321428Y-94654761D01*
X196273809Y-94630952D01*
X196250000Y-94607142D01*
X196226190Y-94559523D01*
X196678571Y-94178571D02*
X196702380Y-94154761D01*
X196726190Y-94178571D01*
X196702380Y-94202380D01*
X196678571Y-94178571D01*
X196726190Y-94178571D01*
X196726190Y-93726190D02*
X196226190Y-93726190D01*
X196702380Y-93726190D02*
X196726190Y-93773809D01*
X196726190Y-93869047D01*
X196702380Y-93916666D01*
X196678571Y-93940476D01*
X196630952Y-93964285D01*
X196488095Y-93964285D01*
X196440476Y-93940476D01*
X196416666Y-93916666D01*
X196392857Y-93869047D01*
X196392857Y-93773809D01*
X196416666Y-93726190D01*
X196726190Y-93488095D02*
X196392857Y-93488095D01*
X196488095Y-93488095D02*
X196440476Y-93464285D01*
X196416666Y-93440476D01*
X196392857Y-93392857D01*
X196392857Y-93345238D01*
X196392857Y-93226190D02*
X196726190Y-93107142D01*
X196392857Y-92988095D01*
X197726190Y-98892857D02*
X197702380Y-98940476D01*
X197654761Y-98964285D01*
X197226190Y-98964285D01*
X197726190Y-98702380D02*
X197392857Y-98702380D01*
X197226190Y-98702380D02*
X197250000Y-98726190D01*
X197273809Y-98702380D01*
X197250000Y-98678571D01*
X197226190Y-98702380D01*
X197273809Y-98702380D01*
X197392857Y-98250000D02*
X197797619Y-98250000D01*
X197845238Y-98273809D01*
X197869047Y-98297619D01*
X197892857Y-98345238D01*
X197892857Y-98416666D01*
X197869047Y-98464285D01*
X197702380Y-98250000D02*
X197726190Y-98297619D01*
X197726190Y-98392857D01*
X197702380Y-98440476D01*
X197678571Y-98464285D01*
X197630952Y-98488095D01*
X197488095Y-98488095D01*
X197440476Y-98464285D01*
X197416666Y-98440476D01*
X197392857Y-98392857D01*
X197392857Y-98297619D01*
X197416666Y-98250000D01*
X197726190Y-98011904D02*
X197226190Y-98011904D01*
X197726190Y-97797619D02*
X197464285Y-97797619D01*
X197416666Y-97821428D01*
X197392857Y-97869047D01*
X197392857Y-97940476D01*
X197416666Y-97988095D01*
X197440476Y-98011904D01*
X197392857Y-97630952D02*
X197392857Y-97440476D01*
X197226190Y-97559523D02*
X197654761Y-97559523D01*
X197702380Y-97535714D01*
X197726190Y-97488095D01*
X197726190Y-97440476D01*
X197773809Y-97392857D02*
X197773809Y-97011904D01*
X197226190Y-96654761D02*
X197226190Y-96892857D01*
X197464285Y-96916666D01*
X197440476Y-96892857D01*
X197416666Y-96845238D01*
X197416666Y-96726190D01*
X197440476Y-96678571D01*
X197464285Y-96654761D01*
X197511904Y-96630952D01*
X197630952Y-96630952D01*
X197678571Y-96654761D01*
X197702380Y-96678571D01*
X197726190Y-96726190D01*
X197726190Y-96845238D01*
X197702380Y-96892857D01*
X197678571Y-96916666D01*
X197678571Y-96416666D02*
X197702380Y-96392857D01*
X197726190Y-96416666D01*
X197702380Y-96440476D01*
X197678571Y-96416666D01*
X197726190Y-96416666D01*
X197726190Y-95964285D02*
X197226190Y-95964285D01*
X197702380Y-95964285D02*
X197726190Y-96011904D01*
X197726190Y-96107142D01*
X197702380Y-96154761D01*
X197678571Y-96178571D01*
X197630952Y-96202380D01*
X197488095Y-96202380D01*
X197440476Y-96178571D01*
X197416666Y-96154761D01*
X197392857Y-96107142D01*
X197392857Y-96011904D01*
X197416666Y-95964285D01*
X197726190Y-95726190D02*
X197392857Y-95726190D01*
X197488095Y-95726190D02*
X197440476Y-95702380D01*
X197416666Y-95678571D01*
X197392857Y-95630952D01*
X197392857Y-95583333D01*
X197392857Y-95464285D02*
X197726190Y-95345238D01*
X197392857Y-95226190D01*
X197773809Y-95154761D02*
X197773809Y-94773809D01*
X197726190Y-94392857D02*
X197726190Y-94678571D01*
X197726190Y-94535714D02*
X197226190Y-94535714D01*
X197297619Y-94583333D01*
X197345238Y-94630952D01*
X197369047Y-94678571D01*
X197678571Y-94178571D02*
X197702380Y-94154761D01*
X197726190Y-94178571D01*
X197702380Y-94202380D01*
X197678571Y-94178571D01*
X197726190Y-94178571D01*
X197726190Y-93726190D02*
X197226190Y-93726190D01*
X197702380Y-93726190D02*
X197726190Y-93773809D01*
X197726190Y-93869047D01*
X197702380Y-93916666D01*
X197678571Y-93940476D01*
X197630952Y-93964285D01*
X197488095Y-93964285D01*
X197440476Y-93940476D01*
X197416666Y-93916666D01*
X197392857Y-93869047D01*
X197392857Y-93773809D01*
X197416666Y-93726190D01*
X197726190Y-93488095D02*
X197392857Y-93488095D01*
X197488095Y-93488095D02*
X197440476Y-93464285D01*
X197416666Y-93440476D01*
X197392857Y-93392857D01*
X197392857Y-93345238D01*
X197392857Y-93226190D02*
X197726190Y-93107142D01*
X197392857Y-92988095D01*
X88092857Y-75926190D02*
X88092857Y-75426190D01*
X88307142Y-75926190D02*
X88307142Y-75664285D01*
X88283333Y-75616666D01*
X88235714Y-75592857D01*
X88164285Y-75592857D01*
X88116666Y-75616666D01*
X88092857Y-75640476D01*
X88616666Y-75926190D02*
X88569047Y-75902380D01*
X88545238Y-75878571D01*
X88521428Y-75830952D01*
X88521428Y-75688095D01*
X88545238Y-75640476D01*
X88569047Y-75616666D01*
X88616666Y-75592857D01*
X88688095Y-75592857D01*
X88735714Y-75616666D01*
X88759523Y-75640476D01*
X88783333Y-75688095D01*
X88783333Y-75830952D01*
X88759523Y-75878571D01*
X88735714Y-75902380D01*
X88688095Y-75926190D01*
X88616666Y-75926190D01*
X89069047Y-75926190D02*
X89021428Y-75902380D01*
X88997619Y-75854761D01*
X88997619Y-75426190D01*
X89450000Y-75902380D02*
X89402380Y-75926190D01*
X89307142Y-75926190D01*
X89259523Y-75902380D01*
X89235714Y-75854761D01*
X89235714Y-75664285D01*
X89259523Y-75616666D01*
X89307142Y-75592857D01*
X89402380Y-75592857D01*
X89450000Y-75616666D01*
X89473809Y-75664285D01*
X89473809Y-75711904D01*
X89235714Y-75759523D01*
X89569047Y-75973809D02*
X89950000Y-75973809D01*
X90164285Y-75426190D02*
X90211904Y-75426190D01*
X90259523Y-75450000D01*
X90283333Y-75473809D01*
X90307142Y-75521428D01*
X90330952Y-75616666D01*
X90330952Y-75735714D01*
X90307142Y-75830952D01*
X90283333Y-75878571D01*
X90259523Y-75902380D01*
X90211904Y-75926190D01*
X90164285Y-75926190D01*
X90116666Y-75902380D01*
X90092857Y-75878571D01*
X90069047Y-75830952D01*
X90045238Y-75735714D01*
X90045238Y-75616666D01*
X90069047Y-75521428D01*
X90092857Y-75473809D01*
X90116666Y-75450000D01*
X90164285Y-75426190D01*
X209692857Y-133926190D02*
X209692857Y-133426190D01*
X209907142Y-133926190D02*
X209907142Y-133664285D01*
X209883333Y-133616666D01*
X209835714Y-133592857D01*
X209764285Y-133592857D01*
X209716666Y-133616666D01*
X209692857Y-133640476D01*
X210216666Y-133926190D02*
X210169047Y-133902380D01*
X210145238Y-133878571D01*
X210121428Y-133830952D01*
X210121428Y-133688095D01*
X210145238Y-133640476D01*
X210169047Y-133616666D01*
X210216666Y-133592857D01*
X210288095Y-133592857D01*
X210335714Y-133616666D01*
X210359523Y-133640476D01*
X210383333Y-133688095D01*
X210383333Y-133830952D01*
X210359523Y-133878571D01*
X210335714Y-133902380D01*
X210288095Y-133926190D01*
X210216666Y-133926190D01*
X210669047Y-133926190D02*
X210621428Y-133902380D01*
X210597619Y-133854761D01*
X210597619Y-133426190D01*
X211050000Y-133902380D02*
X211002380Y-133926190D01*
X210907142Y-133926190D01*
X210859523Y-133902380D01*
X210835714Y-133854761D01*
X210835714Y-133664285D01*
X210859523Y-133616666D01*
X210907142Y-133592857D01*
X211002380Y-133592857D01*
X211050000Y-133616666D01*
X211073809Y-133664285D01*
X211073809Y-133711904D01*
X210835714Y-133759523D01*
X211169047Y-133973809D02*
X211550000Y-133973809D01*
X211930952Y-133926190D02*
X211645238Y-133926190D01*
X211788095Y-133926190D02*
X211788095Y-133426190D01*
X211740476Y-133497619D01*
X211692857Y-133545238D01*
X211645238Y-133569047D01*
X209692857Y-75926190D02*
X209692857Y-75426190D01*
X209907142Y-75926190D02*
X209907142Y-75664285D01*
X209883333Y-75616666D01*
X209835714Y-75592857D01*
X209764285Y-75592857D01*
X209716666Y-75616666D01*
X209692857Y-75640476D01*
X210216666Y-75926190D02*
X210169047Y-75902380D01*
X210145238Y-75878571D01*
X210121428Y-75830952D01*
X210121428Y-75688095D01*
X210145238Y-75640476D01*
X210169047Y-75616666D01*
X210216666Y-75592857D01*
X210288095Y-75592857D01*
X210335714Y-75616666D01*
X210359523Y-75640476D01*
X210383333Y-75688095D01*
X210383333Y-75830952D01*
X210359523Y-75878571D01*
X210335714Y-75902380D01*
X210288095Y-75926190D01*
X210216666Y-75926190D01*
X210669047Y-75926190D02*
X210621428Y-75902380D01*
X210597619Y-75854761D01*
X210597619Y-75426190D01*
X211050000Y-75902380D02*
X211002380Y-75926190D01*
X210907142Y-75926190D01*
X210859523Y-75902380D01*
X210835714Y-75854761D01*
X210835714Y-75664285D01*
X210859523Y-75616666D01*
X210907142Y-75592857D01*
X211002380Y-75592857D01*
X211050000Y-75616666D01*
X211073809Y-75664285D01*
X211073809Y-75711904D01*
X210835714Y-75759523D01*
X211169047Y-75973809D02*
X211550000Y-75973809D01*
X211645238Y-75473809D02*
X211669047Y-75450000D01*
X211716666Y-75426190D01*
X211835714Y-75426190D01*
X211883333Y-75450000D01*
X211907142Y-75473809D01*
X211930952Y-75521428D01*
X211930952Y-75569047D01*
X211907142Y-75640476D01*
X211621428Y-75926190D01*
X211930952Y-75926190D01*
X88092857Y-133926190D02*
X88092857Y-133426190D01*
X88307142Y-133926190D02*
X88307142Y-133664285D01*
X88283333Y-133616666D01*
X88235714Y-133592857D01*
X88164285Y-133592857D01*
X88116666Y-133616666D01*
X88092857Y-133640476D01*
X88616666Y-133926190D02*
X88569047Y-133902380D01*
X88545238Y-133878571D01*
X88521428Y-133830952D01*
X88521428Y-133688095D01*
X88545238Y-133640476D01*
X88569047Y-133616666D01*
X88616666Y-133592857D01*
X88688095Y-133592857D01*
X88735714Y-133616666D01*
X88759523Y-133640476D01*
X88783333Y-133688095D01*
X88783333Y-133830952D01*
X88759523Y-133878571D01*
X88735714Y-133902380D01*
X88688095Y-133926190D01*
X88616666Y-133926190D01*
X89069047Y-133926190D02*
X89021428Y-133902380D01*
X88997619Y-133854761D01*
X88997619Y-133426190D01*
X89450000Y-133902380D02*
X89402380Y-133926190D01*
X89307142Y-133926190D01*
X89259523Y-133902380D01*
X89235714Y-133854761D01*
X89235714Y-133664285D01*
X89259523Y-133616666D01*
X89307142Y-133592857D01*
X89402380Y-133592857D01*
X89450000Y-133616666D01*
X89473809Y-133664285D01*
X89473809Y-133711904D01*
X89235714Y-133759523D01*
X89569047Y-133973809D02*
X89950000Y-133973809D01*
X90021428Y-133426190D02*
X90330952Y-133426190D01*
X90164285Y-133616666D01*
X90235714Y-133616666D01*
X90283333Y-133640476D01*
X90307142Y-133664285D01*
X90330952Y-133711904D01*
X90330952Y-133830952D01*
X90307142Y-133878571D01*
X90283333Y-133902380D01*
X90235714Y-133926190D01*
X90092857Y-133926190D01*
X90045238Y-133902380D01*
X90021428Y-133878571D01*
M02*
