G04 #@! TF.GenerationSoftware,KiCad,Pcbnew,(6.0.7)*
G04 #@! TF.CreationDate,2023-02-23T11:47:35-08:00*
G04 #@! TF.ProjectId,SwitchControllerBoard,53776974-6368-4436-9f6e-74726f6c6c65,rev?*
G04 #@! TF.SameCoordinates,Original*
G04 #@! TF.FileFunction,Copper,L2,Bot*
G04 #@! TF.FilePolarity,Positive*
%FSLAX46Y46*%
G04 Gerber Fmt 4.6, Leading zero omitted, Abs format (unit mm)*
G04 Created by KiCad (PCBNEW (6.0.7)) date 2023-02-23 11:47:35*
%MOMM*%
%LPD*%
G01*
G04 APERTURE LIST*
G04 #@! TA.AperFunction,ComponentPad*
%ADD10R,1.700000X1.700000*%
G04 #@! TD*
G04 #@! TA.AperFunction,ComponentPad*
%ADD11O,1.700000X1.700000*%
G04 #@! TD*
G04 #@! TA.AperFunction,ComponentPad*
%ADD12O,2.100000X1.000000*%
G04 #@! TD*
G04 #@! TA.AperFunction,ComponentPad*
%ADD13O,1.600000X1.000000*%
G04 #@! TD*
G04 #@! TA.AperFunction,ViaPad*
%ADD14C,0.800000*%
G04 #@! TD*
G04 #@! TA.AperFunction,ViaPad*
%ADD15C,0.600000*%
G04 #@! TD*
G04 #@! TA.AperFunction,Conductor*
%ADD16C,0.250000*%
G04 #@! TD*
G04 #@! TA.AperFunction,Conductor*
%ADD17C,0.160000*%
G04 #@! TD*
G04 APERTURE END LIST*
D10*
X152200000Y-37000000D03*
D11*
X154740000Y-37000000D03*
X157280000Y-37000000D03*
X159820000Y-37000000D03*
D12*
X111105000Y-47320000D03*
X111105000Y-38680000D03*
D13*
X106925000Y-47320000D03*
X106925000Y-38680000D03*
D10*
X166000000Y-61200000D03*
D11*
X166000000Y-63740000D03*
X166000000Y-66280000D03*
X166000000Y-68820000D03*
D14*
X109793200Y-60900000D03*
X145919100Y-69952100D03*
X161632000Y-58150000D03*
X143295700Y-43700000D03*
X148954700Y-35745000D03*
X155099300Y-42912500D03*
X131411000Y-35745000D03*
X148967200Y-41750700D03*
X138271700Y-63737500D03*
X126235800Y-57412000D03*
X133926500Y-43142400D03*
X138266800Y-57956700D03*
X136973100Y-68937900D03*
X132285000Y-51701100D03*
X160636100Y-48970900D03*
X106000000Y-58637400D03*
X115051900Y-51447400D03*
X144536300Y-69550300D03*
X110419900Y-52823300D03*
D15*
X152451400Y-55706300D03*
X151859000Y-69050000D03*
D14*
X151980100Y-35019800D03*
X140198600Y-70092100D03*
X143000000Y-66087200D03*
D15*
X117031900Y-52022500D03*
X117262800Y-43850000D03*
X151447800Y-45403500D03*
X149841700Y-38087500D03*
X117823600Y-53066300D03*
X117899600Y-55080400D03*
D16*
X135275900Y-54965800D02*
X132285000Y-54965800D01*
X160636100Y-48970900D02*
X159820000Y-48154800D01*
X136973100Y-68937900D02*
X138271700Y-67639300D01*
X106925000Y-38680000D02*
X108000100Y-38680000D01*
X148967200Y-41750700D02*
X148967200Y-35757500D01*
X144536300Y-69550300D02*
X145517300Y-69550300D01*
X138271700Y-63737500D02*
X138266800Y-63732600D01*
X111105000Y-47320000D02*
X112430100Y-47320000D01*
X132285000Y-54965800D02*
X128682000Y-54965800D01*
X112430100Y-48825600D02*
X115051900Y-51447400D01*
X106000000Y-58637400D02*
X107530600Y-58637400D01*
X148967200Y-35757500D02*
X148954700Y-35745000D01*
X145245000Y-41750700D02*
X143295700Y-43700000D01*
X109779900Y-47320000D02*
X109779900Y-52183300D01*
X161632000Y-61020100D02*
X165766800Y-65154900D01*
X128682000Y-54965800D02*
X126235800Y-57412000D01*
X159820000Y-42912500D02*
X159820000Y-37000000D01*
X132285000Y-44783900D02*
X132285000Y-51701100D01*
X161632000Y-58150000D02*
X161632000Y-49966800D01*
X133926500Y-43142400D02*
X132285000Y-44783900D01*
X133926500Y-38260500D02*
X131411000Y-35745000D01*
X138266800Y-63732600D02*
X138266800Y-57956700D01*
X109779900Y-52183300D02*
X110419900Y-52823300D01*
X106000000Y-57243200D02*
X106000000Y-58637400D01*
X108000100Y-38680000D02*
X108000100Y-47320000D01*
X132285000Y-54965800D02*
X132285000Y-51701100D01*
X133926500Y-43142400D02*
X133926500Y-38260500D01*
X110419900Y-52823300D02*
X106000000Y-57243200D01*
X159820000Y-48154800D02*
X159820000Y-42912500D01*
X107530600Y-58637400D02*
X109793200Y-60900000D01*
X166000000Y-66280000D02*
X166000000Y-65154900D01*
X161632000Y-58150000D02*
X161632000Y-61020100D01*
X159820000Y-42912500D02*
X155099300Y-42912500D01*
X111105000Y-47320000D02*
X109779900Y-47320000D01*
X165766800Y-65154900D02*
X166000000Y-65154900D01*
X161632000Y-49966800D02*
X160636100Y-48970900D01*
X138266800Y-57956700D02*
X135275900Y-54965800D01*
X148967200Y-41750700D02*
X145245000Y-41750700D01*
X138271700Y-67639300D02*
X138271700Y-63737500D01*
X106925000Y-47320000D02*
X108000100Y-47320000D01*
X145517300Y-69550300D02*
X145919100Y-69952100D01*
X112430100Y-47320000D02*
X112430100Y-48825600D01*
D17*
X151859000Y-69050000D02*
X152451400Y-68457600D01*
X152451400Y-68457600D02*
X152451400Y-55706300D01*
D16*
X152200000Y-35874900D02*
X151980100Y-35655000D01*
X143000000Y-54664700D02*
X152200000Y-45464700D01*
X152200000Y-45464700D02*
X152200000Y-38125100D01*
X152200000Y-37000000D02*
X152200000Y-38125100D01*
X140198600Y-68888600D02*
X143000000Y-66087200D01*
X140198600Y-70092100D02*
X140198600Y-68888600D01*
X143000000Y-66087200D02*
X143000000Y-54664700D01*
X152200000Y-36437400D02*
X152200000Y-37000000D01*
X151980100Y-35655000D02*
X151980100Y-35019800D01*
X152200000Y-36437400D02*
X152200000Y-35874900D01*
D17*
X117031900Y-44080900D02*
X117262800Y-43850000D01*
X117031900Y-52022500D02*
X117031900Y-44080900D01*
X149841700Y-43797400D02*
X149841700Y-38087500D01*
X151447800Y-45403500D02*
X149841700Y-43797400D01*
X117823600Y-55004400D02*
X117899600Y-55080400D01*
X117823600Y-53066300D02*
X117823600Y-55004400D01*
G04 #@! TA.AperFunction,Conductor*
G36*
X151686287Y-34273407D02*
G01*
X151722251Y-34322907D01*
X151722251Y-34384093D01*
X151686287Y-34433593D01*
X151673506Y-34441471D01*
X151609514Y-34474500D01*
X151490139Y-34578638D01*
X151399050Y-34708244D01*
X151341506Y-34855837D01*
X151320829Y-35012896D01*
X151321484Y-35018829D01*
X151321484Y-35018833D01*
X151324996Y-35050641D01*
X151338213Y-35170353D01*
X151343866Y-35185800D01*
X151390601Y-35313513D01*
X151390603Y-35313517D01*
X151392653Y-35319119D01*
X151481008Y-35450605D01*
X151485419Y-35454619D01*
X151485421Y-35454621D01*
X151568228Y-35529969D01*
X151598543Y-35583117D01*
X151600600Y-35603193D01*
X151600600Y-35603953D01*
X151598382Y-35624790D01*
X151595780Y-35636876D01*
X151599914Y-35671802D01*
X151600395Y-35679969D01*
X151600600Y-35682446D01*
X151600600Y-35686524D01*
X151601271Y-35690553D01*
X151603872Y-35706182D01*
X151604530Y-35710801D01*
X151610630Y-35762341D01*
X151613767Y-35768874D01*
X151615775Y-35777697D01*
X151616096Y-35779626D01*
X151616097Y-35779627D01*
X151616099Y-35779641D01*
X151612570Y-35780228D01*
X151613263Y-35825655D01*
X151578057Y-35875698D01*
X151518653Y-35895501D01*
X151324934Y-35895501D01*
X151320168Y-35896449D01*
X151320167Y-35896449D01*
X151313727Y-35897730D01*
X151250699Y-35910266D01*
X151166516Y-35966516D01*
X151110266Y-36050699D01*
X151095500Y-36124933D01*
X151095501Y-37875066D01*
X151110266Y-37949301D01*
X151166516Y-38033484D01*
X151250699Y-38089734D01*
X151260262Y-38091636D01*
X151260264Y-38091637D01*
X151291181Y-38097786D01*
X151324933Y-38104500D01*
X151721500Y-38104500D01*
X151779691Y-38123407D01*
X151815655Y-38172907D01*
X151820500Y-38203500D01*
X151820500Y-44809526D01*
X151801593Y-44867717D01*
X151752093Y-44903681D01*
X151690907Y-44903681D01*
X151683615Y-44900990D01*
X151598554Y-44865757D01*
X151598552Y-44865756D01*
X151592554Y-44863272D01*
X151447800Y-44844215D01*
X151441367Y-44845062D01*
X151441365Y-44845062D01*
X151420004Y-44847874D01*
X151359843Y-44836723D01*
X151337079Y-44819725D01*
X150205196Y-43687842D01*
X150177419Y-43633325D01*
X150176200Y-43617838D01*
X150176200Y-38578582D01*
X150195107Y-38520391D01*
X150214933Y-38500040D01*
X150232021Y-38486928D01*
X150237174Y-38482974D01*
X150326055Y-38367142D01*
X150381928Y-38232254D01*
X150400985Y-38087500D01*
X150381928Y-37942746D01*
X150326055Y-37807858D01*
X150237174Y-37692026D01*
X150232021Y-37688072D01*
X150126489Y-37607093D01*
X150126485Y-37607091D01*
X150121343Y-37603145D01*
X149986454Y-37547272D01*
X149841700Y-37528215D01*
X149696946Y-37547272D01*
X149562058Y-37603145D01*
X149446226Y-37692026D01*
X149357345Y-37807858D01*
X149301472Y-37942746D01*
X149282415Y-38087500D01*
X149301472Y-38232254D01*
X149357345Y-38367142D01*
X149446226Y-38482974D01*
X149451379Y-38486928D01*
X149468467Y-38500040D01*
X149503123Y-38550464D01*
X149507200Y-38578582D01*
X149507200Y-43778476D01*
X149506823Y-43787105D01*
X149503332Y-43827004D01*
X149505573Y-43835367D01*
X149513701Y-43865702D01*
X149515570Y-43874133D01*
X149522524Y-43913571D01*
X149526854Y-43921071D01*
X149528984Y-43926924D01*
X149531620Y-43932578D01*
X149533863Y-43940946D01*
X149538832Y-43948042D01*
X149556838Y-43973758D01*
X149561476Y-43981037D01*
X149581505Y-44015729D01*
X149588143Y-44021299D01*
X149612182Y-44041470D01*
X149618550Y-44047304D01*
X150864025Y-45292779D01*
X150891802Y-45347296D01*
X150892174Y-45375704D01*
X150890587Y-45387759D01*
X150888515Y-45403500D01*
X150907572Y-45548254D01*
X150963445Y-45683142D01*
X151052326Y-45798974D01*
X151057471Y-45802922D01*
X151057475Y-45802926D01*
X151119332Y-45850390D01*
X151153988Y-45900814D01*
X151152387Y-45961979D01*
X151129069Y-45998936D01*
X142767746Y-54360260D01*
X142751445Y-54373423D01*
X142741060Y-54380129D01*
X142735996Y-54386553D01*
X142719288Y-54407747D01*
X142713852Y-54413865D01*
X142712249Y-54415757D01*
X142709362Y-54418644D01*
X142706987Y-54421968D01*
X142697773Y-54434861D01*
X142694973Y-54438591D01*
X142662844Y-54479347D01*
X142660317Y-54486544D01*
X142658927Y-54489219D01*
X142654486Y-54495434D01*
X142652142Y-54503272D01*
X142639615Y-54545159D01*
X142638174Y-54549594D01*
X142624938Y-54587287D01*
X142620982Y-54598551D01*
X142620500Y-54604116D01*
X142620500Y-54606259D01*
X142620452Y-54607373D01*
X142620232Y-54609974D01*
X142618287Y-54616478D01*
X142618608Y-54624654D01*
X142618608Y-54624656D01*
X142620424Y-54670870D01*
X142620500Y-54674757D01*
X142620500Y-65504664D01*
X142601593Y-65562855D01*
X142586582Y-65579265D01*
X142510039Y-65646038D01*
X142418950Y-65775644D01*
X142361406Y-65923237D01*
X142340729Y-66080296D01*
X142341384Y-66086229D01*
X142341384Y-66086233D01*
X142348386Y-66149650D01*
X142335979Y-66209564D01*
X142319988Y-66230518D01*
X139966346Y-68584160D01*
X139950045Y-68597323D01*
X139939660Y-68604029D01*
X139925196Y-68622377D01*
X139917888Y-68631647D01*
X139912452Y-68637765D01*
X139910849Y-68639657D01*
X139907962Y-68642544D01*
X139897605Y-68657037D01*
X139896373Y-68658761D01*
X139893573Y-68662491D01*
X139882980Y-68675929D01*
X139861444Y-68703247D01*
X139858917Y-68710444D01*
X139857527Y-68713119D01*
X139853086Y-68719334D01*
X139850742Y-68727172D01*
X139838215Y-68769059D01*
X139836774Y-68773494D01*
X139819582Y-68822451D01*
X139819100Y-68828016D01*
X139819100Y-68830159D01*
X139819052Y-68831273D01*
X139818832Y-68833874D01*
X139816887Y-68840378D01*
X139817208Y-68848554D01*
X139817208Y-68848556D01*
X139819024Y-68894770D01*
X139819100Y-68898657D01*
X139819100Y-69509564D01*
X139800193Y-69567755D01*
X139785182Y-69584165D01*
X139708639Y-69650938D01*
X139617550Y-69780544D01*
X139560006Y-69928137D01*
X139539329Y-70085196D01*
X139539984Y-70091129D01*
X139539984Y-70091133D01*
X139550247Y-70184091D01*
X139556713Y-70242653D01*
X139564064Y-70262741D01*
X139609101Y-70385813D01*
X139609103Y-70385817D01*
X139611153Y-70391419D01*
X139699508Y-70522905D01*
X139703919Y-70526919D01*
X139703921Y-70526921D01*
X139792812Y-70607805D01*
X139816676Y-70629519D01*
X139831136Y-70637370D01*
X139950647Y-70702260D01*
X139950649Y-70702261D01*
X139955893Y-70705108D01*
X139961667Y-70706623D01*
X139961670Y-70706624D01*
X140103343Y-70743791D01*
X140109122Y-70745307D01*
X140115091Y-70745401D01*
X140115093Y-70745401D01*
X140173102Y-70746312D01*
X140267516Y-70747795D01*
X140278379Y-70745307D01*
X140416109Y-70713763D01*
X140416112Y-70713762D01*
X140421932Y-70712429D01*
X140436489Y-70705108D01*
X140558118Y-70643935D01*
X140563455Y-70641251D01*
X140683914Y-70538369D01*
X140776355Y-70409724D01*
X140782263Y-70395029D01*
X140833218Y-70268274D01*
X140833219Y-70268272D01*
X140835442Y-70262741D01*
X140837503Y-70248260D01*
X140857306Y-70109114D01*
X140857306Y-70109108D01*
X140857762Y-70105907D01*
X140857907Y-70092100D01*
X140838876Y-69934833D01*
X140834245Y-69922576D01*
X140784990Y-69792230D01*
X140782880Y-69786646D01*
X140775333Y-69775665D01*
X140696533Y-69661009D01*
X140696530Y-69661006D01*
X140693153Y-69656092D01*
X140611242Y-69583112D01*
X140580372Y-69530285D01*
X140578100Y-69509195D01*
X140578100Y-69086802D01*
X140590057Y-69050000D01*
X151299715Y-69050000D01*
X151318772Y-69194754D01*
X151374645Y-69329642D01*
X151463526Y-69445474D01*
X151468671Y-69449422D01*
X151468672Y-69449423D01*
X151574211Y-69530407D01*
X151574215Y-69530409D01*
X151579357Y-69534355D01*
X151625780Y-69553584D01*
X151697067Y-69583112D01*
X151714246Y-69590228D01*
X151859000Y-69609285D01*
X152003754Y-69590228D01*
X152020934Y-69583112D01*
X152092220Y-69553584D01*
X152138643Y-69534355D01*
X152143785Y-69530409D01*
X152143789Y-69530407D01*
X152249328Y-69449423D01*
X152249329Y-69449422D01*
X152254474Y-69445474D01*
X152343355Y-69329642D01*
X152399228Y-69194754D01*
X152418285Y-69050000D01*
X152414626Y-69022204D01*
X152425777Y-68962043D01*
X152442775Y-68939279D01*
X152542636Y-68839418D01*
X152591090Y-68790964D01*
X164891148Y-68790964D01*
X164904424Y-68993522D01*
X164905540Y-68997915D01*
X164905540Y-68997917D01*
X164928114Y-69086802D01*
X164954392Y-69190269D01*
X164956294Y-69194394D01*
X164956294Y-69194395D01*
X164993511Y-69275124D01*
X165039377Y-69374616D01*
X165156533Y-69540389D01*
X165301938Y-69682035D01*
X165470720Y-69794812D01*
X165657228Y-69874942D01*
X165728499Y-69891069D01*
X165850790Y-69918741D01*
X165850795Y-69918742D01*
X165855216Y-69919742D01*
X165956634Y-69923727D01*
X166053520Y-69927534D01*
X166053521Y-69927534D01*
X166058053Y-69927712D01*
X166158499Y-69913148D01*
X166254451Y-69899236D01*
X166254455Y-69899235D01*
X166258945Y-69898584D01*
X166333871Y-69873150D01*
X166446868Y-69834793D01*
X166446871Y-69834791D01*
X166451165Y-69833334D01*
X166628276Y-69734147D01*
X166784345Y-69604345D01*
X166914147Y-69448276D01*
X167013334Y-69271165D01*
X167037237Y-69200751D01*
X167077125Y-69083243D01*
X167078584Y-69078945D01*
X167093830Y-68973801D01*
X167107292Y-68880952D01*
X167107292Y-68880946D01*
X167107712Y-68878053D01*
X167108485Y-68848556D01*
X167109156Y-68822913D01*
X167109156Y-68822908D01*
X167109232Y-68820000D01*
X167105222Y-68776353D01*
X167092487Y-68637765D01*
X167090658Y-68617859D01*
X167056168Y-68495567D01*
X167036789Y-68426854D01*
X167036788Y-68426850D01*
X167035557Y-68422487D01*
X166945776Y-68240428D01*
X166924774Y-68212302D01*
X166827036Y-68081416D01*
X166827035Y-68081415D01*
X166824320Y-68077779D01*
X166675258Y-67939987D01*
X166652471Y-67925609D01*
X166507418Y-67834088D01*
X166503581Y-67831667D01*
X166315039Y-67756446D01*
X166115946Y-67716844D01*
X166014459Y-67715516D01*
X165917510Y-67714246D01*
X165917505Y-67714246D01*
X165912971Y-67714187D01*
X165908496Y-67714956D01*
X165908495Y-67714956D01*
X165897508Y-67716844D01*
X165712910Y-67748564D01*
X165522463Y-67818824D01*
X165518564Y-67821143D01*
X165518559Y-67821146D01*
X165351916Y-67920288D01*
X165348010Y-67922612D01*
X165344595Y-67925606D01*
X165344592Y-67925609D01*
X165324688Y-67943065D01*
X165195392Y-68056455D01*
X165069720Y-68215869D01*
X165067607Y-68219884D01*
X165067607Y-68219885D01*
X165054660Y-68244494D01*
X164975203Y-68395515D01*
X164973859Y-68399844D01*
X164933424Y-68530067D01*
X164915007Y-68589378D01*
X164914473Y-68593888D01*
X164914473Y-68593889D01*
X164893216Y-68773494D01*
X164891148Y-68790964D01*
X152591090Y-68790964D01*
X152674562Y-68707493D01*
X152680918Y-68701670D01*
X152711595Y-68675929D01*
X152715923Y-68668432D01*
X152715926Y-68668429D01*
X152731626Y-68641236D01*
X152736265Y-68633954D01*
X152754271Y-68608238D01*
X152759237Y-68601146D01*
X152761478Y-68592782D01*
X152764110Y-68587137D01*
X152766245Y-68581272D01*
X152770576Y-68573771D01*
X152777531Y-68534327D01*
X152779400Y-68525895D01*
X152787526Y-68495567D01*
X152789767Y-68487204D01*
X152786277Y-68447312D01*
X152785900Y-68438684D01*
X152785900Y-66389846D01*
X164955483Y-66389846D01*
X164961847Y-66465644D01*
X164963585Y-66475111D01*
X165017674Y-66663743D01*
X165021225Y-66672711D01*
X165110919Y-66847236D01*
X165116142Y-66855341D01*
X165238037Y-67009134D01*
X165244720Y-67016055D01*
X165394164Y-67143241D01*
X165402078Y-67148742D01*
X165573373Y-67244475D01*
X165582201Y-67248332D01*
X165768838Y-67308974D01*
X165778238Y-67311041D01*
X165884432Y-67323704D01*
X165897514Y-67321113D01*
X165898955Y-67319557D01*
X165900000Y-67314803D01*
X165900000Y-67309775D01*
X166100000Y-67309775D01*
X166104122Y-67322460D01*
X166106735Y-67324359D01*
X166109679Y-67324710D01*
X166178385Y-67319424D01*
X166187876Y-67317750D01*
X166376882Y-67264978D01*
X166385862Y-67261496D01*
X166561020Y-67173017D01*
X166569155Y-67167854D01*
X166723787Y-67047042D01*
X166730771Y-67040391D01*
X166858990Y-66891848D01*
X166864546Y-66883973D01*
X166961471Y-66713353D01*
X166965392Y-66704546D01*
X167027334Y-66518346D01*
X167029469Y-66508944D01*
X167043794Y-66395556D01*
X167041294Y-66382455D01*
X167039884Y-66381130D01*
X167034829Y-66380000D01*
X166115680Y-66380000D01*
X166102995Y-66384122D01*
X166100000Y-66388243D01*
X166100000Y-67309775D01*
X165900000Y-67309775D01*
X165900000Y-66395680D01*
X165895878Y-66382995D01*
X165891757Y-66380000D01*
X164970336Y-66380000D01*
X164957651Y-66384122D01*
X164955860Y-66386586D01*
X164955483Y-66389846D01*
X152785900Y-66389846D01*
X152785900Y-66164417D01*
X164956334Y-66164417D01*
X164959016Y-66177484D01*
X164960719Y-66179039D01*
X164965165Y-66180000D01*
X165884320Y-66180000D01*
X165897005Y-66175878D01*
X165900000Y-66171757D01*
X165900000Y-66164320D01*
X166100000Y-66164320D01*
X166104122Y-66177005D01*
X166108243Y-66180000D01*
X167029596Y-66180000D01*
X167042281Y-66175878D01*
X167043854Y-66173713D01*
X167044278Y-66169818D01*
X167035459Y-66079885D01*
X167033589Y-66070437D01*
X166976869Y-65882572D01*
X166973199Y-65873668D01*
X166881072Y-65700401D01*
X166875740Y-65692376D01*
X166751716Y-65540307D01*
X166744922Y-65533466D01*
X166593721Y-65408381D01*
X166585738Y-65402997D01*
X166413114Y-65309660D01*
X166404243Y-65305931D01*
X166216775Y-65247900D01*
X166207341Y-65245963D01*
X166115594Y-65236320D01*
X166102548Y-65239093D01*
X166100881Y-65240945D01*
X166100000Y-65245088D01*
X166100000Y-66164320D01*
X165900000Y-66164320D01*
X165900000Y-65250396D01*
X165895878Y-65237711D01*
X165893563Y-65236028D01*
X165889987Y-65235627D01*
X165807117Y-65243168D01*
X165797654Y-65244974D01*
X165609407Y-65300378D01*
X165600466Y-65303991D01*
X165426573Y-65394899D01*
X165418497Y-65400184D01*
X165265571Y-65523140D01*
X165258687Y-65529881D01*
X165132551Y-65680205D01*
X165127104Y-65688159D01*
X165032573Y-65860111D01*
X165028773Y-65868976D01*
X164969440Y-66056019D01*
X164967435Y-66065450D01*
X164956334Y-66164417D01*
X152785900Y-66164417D01*
X152785900Y-63710964D01*
X164891148Y-63710964D01*
X164904424Y-63913522D01*
X164905540Y-63917915D01*
X164905540Y-63917917D01*
X164953274Y-64105867D01*
X164954392Y-64110269D01*
X164956294Y-64114394D01*
X164956294Y-64114395D01*
X164993511Y-64195124D01*
X165039377Y-64294616D01*
X165156533Y-64460389D01*
X165301938Y-64602035D01*
X165470720Y-64714812D01*
X165657228Y-64794942D01*
X165728499Y-64811069D01*
X165850790Y-64838741D01*
X165850795Y-64838742D01*
X165855216Y-64839742D01*
X165956634Y-64843727D01*
X166053520Y-64847534D01*
X166053521Y-64847534D01*
X166058053Y-64847712D01*
X166158499Y-64833148D01*
X166254451Y-64819236D01*
X166254455Y-64819235D01*
X166258945Y-64818584D01*
X166333871Y-64793150D01*
X166446868Y-64754793D01*
X166446871Y-64754791D01*
X166451165Y-64753334D01*
X166628276Y-64654147D01*
X166784345Y-64524345D01*
X166914147Y-64368276D01*
X167013334Y-64191165D01*
X167078584Y-63998945D01*
X167107712Y-63798053D01*
X167109232Y-63740000D01*
X167090658Y-63537859D01*
X167035557Y-63342487D01*
X166945776Y-63160428D01*
X166924774Y-63132302D01*
X166827036Y-63001416D01*
X166827035Y-63001415D01*
X166824320Y-62997779D01*
X166675258Y-62859987D01*
X166652471Y-62845609D01*
X166507418Y-62754088D01*
X166503581Y-62751667D01*
X166315039Y-62676446D01*
X166115946Y-62636844D01*
X166014459Y-62635516D01*
X165917510Y-62634246D01*
X165917505Y-62634246D01*
X165912971Y-62634187D01*
X165908496Y-62634956D01*
X165908495Y-62634956D01*
X165897508Y-62636844D01*
X165712910Y-62668564D01*
X165522463Y-62738824D01*
X165518564Y-62741143D01*
X165518559Y-62741146D01*
X165351916Y-62840288D01*
X165348010Y-62842612D01*
X165344595Y-62845606D01*
X165344592Y-62845609D01*
X165324688Y-62863065D01*
X165195392Y-62976455D01*
X165069720Y-63135869D01*
X165067607Y-63139884D01*
X165067607Y-63139885D01*
X165054660Y-63164494D01*
X164975203Y-63315515D01*
X164915007Y-63509378D01*
X164891148Y-63710964D01*
X152785900Y-63710964D01*
X152785900Y-60324933D01*
X164895500Y-60324933D01*
X164895501Y-62075066D01*
X164910266Y-62149301D01*
X164966516Y-62233484D01*
X165050699Y-62289734D01*
X165060262Y-62291636D01*
X165060264Y-62291637D01*
X165091181Y-62297786D01*
X165124933Y-62304500D01*
X165999819Y-62304500D01*
X166875066Y-62304499D01*
X166879832Y-62303551D01*
X166879833Y-62303551D01*
X166939738Y-62291636D01*
X166949301Y-62289734D01*
X167033484Y-62233484D01*
X167089734Y-62149301D01*
X167104500Y-62075067D01*
X167104499Y-60324934D01*
X167089734Y-60250699D01*
X167033484Y-60166516D01*
X166949301Y-60110266D01*
X166939738Y-60108364D01*
X166939736Y-60108363D01*
X166908819Y-60102214D01*
X166875067Y-60095500D01*
X166000181Y-60095500D01*
X165124934Y-60095501D01*
X165120168Y-60096449D01*
X165120167Y-60096449D01*
X165073116Y-60105807D01*
X165050699Y-60110266D01*
X164966516Y-60166516D01*
X164910266Y-60250699D01*
X164895500Y-60324933D01*
X152785900Y-60324933D01*
X152785900Y-56197382D01*
X152804807Y-56139191D01*
X152824633Y-56118840D01*
X152841721Y-56105728D01*
X152846874Y-56101774D01*
X152935755Y-55985942D01*
X152991628Y-55851054D01*
X153010685Y-55706300D01*
X152991628Y-55561546D01*
X152935755Y-55426658D01*
X152846874Y-55310826D01*
X152841721Y-55306872D01*
X152736189Y-55225893D01*
X152736185Y-55225891D01*
X152731043Y-55221945D01*
X152596154Y-55166072D01*
X152451400Y-55147015D01*
X152306646Y-55166072D01*
X152171758Y-55221945D01*
X152055926Y-55310826D01*
X151967045Y-55426658D01*
X151911172Y-55561546D01*
X151892115Y-55706300D01*
X151911172Y-55851054D01*
X151967045Y-55985942D01*
X152055926Y-56101774D01*
X152061079Y-56105728D01*
X152078167Y-56118840D01*
X152112823Y-56169264D01*
X152116900Y-56197382D01*
X152116900Y-68278038D01*
X152097993Y-68336229D01*
X152087909Y-68348036D01*
X152017527Y-68418419D01*
X151969721Y-68466225D01*
X151915204Y-68494002D01*
X151886796Y-68494374D01*
X151865435Y-68491562D01*
X151865433Y-68491562D01*
X151859000Y-68490715D01*
X151714246Y-68509772D01*
X151579358Y-68565645D01*
X151463526Y-68654526D01*
X151374645Y-68770358D01*
X151318772Y-68905246D01*
X151299715Y-69050000D01*
X140590057Y-69050000D01*
X140597007Y-69028611D01*
X140607096Y-69016798D01*
X142854263Y-66769631D01*
X142908780Y-66741854D01*
X142925818Y-66740647D01*
X143068916Y-66742895D01*
X143074732Y-66741563D01*
X143217509Y-66708863D01*
X143217512Y-66708862D01*
X143223332Y-66707529D01*
X143364855Y-66636351D01*
X143485314Y-66533469D01*
X143577755Y-66404824D01*
X143586078Y-66384122D01*
X143634618Y-66263374D01*
X143634619Y-66263372D01*
X143636842Y-66257841D01*
X143643713Y-66209564D01*
X143658706Y-66104214D01*
X143658706Y-66104208D01*
X143659162Y-66101007D01*
X143659307Y-66087200D01*
X143640276Y-65929933D01*
X143635645Y-65917676D01*
X143586390Y-65787330D01*
X143584280Y-65781746D01*
X143576733Y-65770765D01*
X143497933Y-65656109D01*
X143497930Y-65656106D01*
X143494553Y-65651192D01*
X143412642Y-65578212D01*
X143381772Y-65525385D01*
X143379500Y-65504295D01*
X143379500Y-54862902D01*
X143398407Y-54804711D01*
X143408496Y-54792898D01*
X152432254Y-45769140D01*
X152448555Y-45755977D01*
X152458940Y-45749271D01*
X152480712Y-45721653D01*
X152486148Y-45715535D01*
X152487751Y-45713643D01*
X152490638Y-45710756D01*
X152502227Y-45694539D01*
X152505027Y-45690809D01*
X152532092Y-45656477D01*
X152532093Y-45656476D01*
X152537156Y-45650053D01*
X152539683Y-45642856D01*
X152541073Y-45640181D01*
X152545514Y-45633966D01*
X152560386Y-45584237D01*
X152561826Y-45579806D01*
X152576956Y-45536722D01*
X152576957Y-45536719D01*
X152579018Y-45530849D01*
X152579500Y-45525284D01*
X152579500Y-45523141D01*
X152579548Y-45522027D01*
X152579768Y-45519426D01*
X152581713Y-45512922D01*
X152579576Y-45458530D01*
X152579500Y-45454643D01*
X152579500Y-38203499D01*
X152598407Y-38145308D01*
X152647907Y-38109344D01*
X152678500Y-38104499D01*
X153075066Y-38104499D01*
X153079832Y-38103551D01*
X153079833Y-38103551D01*
X153139738Y-38091636D01*
X153149301Y-38089734D01*
X153233484Y-38033484D01*
X153289734Y-37949301D01*
X153304500Y-37875067D01*
X153304499Y-36970964D01*
X153631148Y-36970964D01*
X153631445Y-36975492D01*
X153640251Y-37109846D01*
X153644424Y-37173522D01*
X153645540Y-37177915D01*
X153645540Y-37177917D01*
X153693274Y-37365867D01*
X153694392Y-37370269D01*
X153696294Y-37374394D01*
X153696294Y-37374395D01*
X153777137Y-37549756D01*
X153779377Y-37554616D01*
X153896533Y-37720389D01*
X154041938Y-37862035D01*
X154210720Y-37974812D01*
X154397228Y-38054942D01*
X154468499Y-38071069D01*
X154590790Y-38098741D01*
X154590795Y-38098742D01*
X154595216Y-38099742D01*
X154692155Y-38103551D01*
X154793520Y-38107534D01*
X154793521Y-38107534D01*
X154798053Y-38107712D01*
X154908927Y-38091636D01*
X154994451Y-38079236D01*
X154994455Y-38079235D01*
X154998945Y-38078584D01*
X155047841Y-38061986D01*
X155186868Y-38014793D01*
X155186871Y-38014791D01*
X155191165Y-38013334D01*
X155222689Y-37995680D01*
X155305504Y-37949301D01*
X155368276Y-37914147D01*
X155524345Y-37784345D01*
X155654147Y-37628276D01*
X155753334Y-37451165D01*
X155759381Y-37433353D01*
X155817125Y-37263243D01*
X155818584Y-37258945D01*
X155829213Y-37185644D01*
X155847292Y-37060952D01*
X155847292Y-37060946D01*
X155847712Y-37058053D01*
X155849232Y-37000000D01*
X155846564Y-36970964D01*
X156171148Y-36970964D01*
X156171445Y-36975492D01*
X156180251Y-37109846D01*
X156184424Y-37173522D01*
X156185540Y-37177915D01*
X156185540Y-37177917D01*
X156233274Y-37365867D01*
X156234392Y-37370269D01*
X156236294Y-37374394D01*
X156236294Y-37374395D01*
X156317137Y-37549756D01*
X156319377Y-37554616D01*
X156436533Y-37720389D01*
X156581938Y-37862035D01*
X156750720Y-37974812D01*
X156937228Y-38054942D01*
X157008499Y-38071069D01*
X157130790Y-38098741D01*
X157130795Y-38098742D01*
X157135216Y-38099742D01*
X157232155Y-38103551D01*
X157333520Y-38107534D01*
X157333521Y-38107534D01*
X157338053Y-38107712D01*
X157448927Y-38091636D01*
X157534451Y-38079236D01*
X157534455Y-38079235D01*
X157538945Y-38078584D01*
X157587841Y-38061986D01*
X157726868Y-38014793D01*
X157726871Y-38014791D01*
X157731165Y-38013334D01*
X157762689Y-37995680D01*
X157845504Y-37949301D01*
X157908276Y-37914147D01*
X158064345Y-37784345D01*
X158194147Y-37628276D01*
X158293334Y-37451165D01*
X158299381Y-37433353D01*
X158357125Y-37263243D01*
X158358584Y-37258945D01*
X158369213Y-37185644D01*
X158380203Y-37109846D01*
X158775483Y-37109846D01*
X158781847Y-37185644D01*
X158783585Y-37195111D01*
X158837674Y-37383743D01*
X158841225Y-37392711D01*
X158930919Y-37567236D01*
X158936142Y-37575341D01*
X159058037Y-37729134D01*
X159064720Y-37736055D01*
X159214164Y-37863241D01*
X159222078Y-37868742D01*
X159393373Y-37964475D01*
X159402201Y-37968332D01*
X159588838Y-38028974D01*
X159598238Y-38031041D01*
X159704432Y-38043704D01*
X159717514Y-38041113D01*
X159718955Y-38039557D01*
X159720000Y-38034803D01*
X159720000Y-38029775D01*
X159920000Y-38029775D01*
X159924122Y-38042460D01*
X159926735Y-38044359D01*
X159929679Y-38044710D01*
X159998385Y-38039424D01*
X160007876Y-38037750D01*
X160196882Y-37984978D01*
X160205862Y-37981496D01*
X160381020Y-37893017D01*
X160389155Y-37887854D01*
X160543787Y-37767042D01*
X160550771Y-37760391D01*
X160678990Y-37611848D01*
X160684546Y-37603973D01*
X160781471Y-37433353D01*
X160785392Y-37424546D01*
X160847334Y-37238346D01*
X160849469Y-37228944D01*
X160863794Y-37115556D01*
X160861294Y-37102455D01*
X160859884Y-37101130D01*
X160854829Y-37100000D01*
X159935680Y-37100000D01*
X159922995Y-37104122D01*
X159920000Y-37108243D01*
X159920000Y-38029775D01*
X159720000Y-38029775D01*
X159720000Y-37115680D01*
X159715878Y-37102995D01*
X159711757Y-37100000D01*
X158790336Y-37100000D01*
X158777651Y-37104122D01*
X158775860Y-37106586D01*
X158775483Y-37109846D01*
X158380203Y-37109846D01*
X158387292Y-37060952D01*
X158387292Y-37060946D01*
X158387712Y-37058053D01*
X158389232Y-37000000D01*
X158378612Y-36884417D01*
X158776334Y-36884417D01*
X158779016Y-36897484D01*
X158780719Y-36899039D01*
X158785165Y-36900000D01*
X159704320Y-36900000D01*
X159717005Y-36895878D01*
X159720000Y-36891757D01*
X159720000Y-36884320D01*
X159920000Y-36884320D01*
X159924122Y-36897005D01*
X159928243Y-36900000D01*
X160849596Y-36900000D01*
X160862281Y-36895878D01*
X160863854Y-36893713D01*
X160864278Y-36889818D01*
X160855459Y-36799885D01*
X160853589Y-36790437D01*
X160796869Y-36602572D01*
X160793199Y-36593668D01*
X160701072Y-36420401D01*
X160695740Y-36412376D01*
X160571716Y-36260307D01*
X160564922Y-36253466D01*
X160413721Y-36128381D01*
X160405738Y-36122997D01*
X160233114Y-36029660D01*
X160224243Y-36025931D01*
X160036775Y-35967900D01*
X160027341Y-35965963D01*
X159935594Y-35956320D01*
X159922548Y-35959093D01*
X159920881Y-35960945D01*
X159920000Y-35965088D01*
X159920000Y-36884320D01*
X159720000Y-36884320D01*
X159720000Y-35970396D01*
X159715878Y-35957711D01*
X159713563Y-35956028D01*
X159709987Y-35955627D01*
X159627117Y-35963168D01*
X159617654Y-35964974D01*
X159429407Y-36020378D01*
X159420466Y-36023991D01*
X159246573Y-36114899D01*
X159238497Y-36120184D01*
X159085571Y-36243140D01*
X159078687Y-36249881D01*
X158952551Y-36400205D01*
X158947104Y-36408159D01*
X158852573Y-36580111D01*
X158848773Y-36588976D01*
X158789440Y-36776019D01*
X158787435Y-36785450D01*
X158776334Y-36884417D01*
X158378612Y-36884417D01*
X158373629Y-36830191D01*
X158370658Y-36797859D01*
X158346249Y-36711312D01*
X158316789Y-36606854D01*
X158316788Y-36606850D01*
X158315557Y-36602487D01*
X158304523Y-36580111D01*
X158273343Y-36516884D01*
X158225776Y-36420428D01*
X158219764Y-36412376D01*
X158107036Y-36261416D01*
X158107035Y-36261415D01*
X158104320Y-36257779D01*
X158062762Y-36219363D01*
X157958588Y-36123065D01*
X157958587Y-36123064D01*
X157955258Y-36119987D01*
X157932471Y-36105609D01*
X157787418Y-36014088D01*
X157783581Y-36011667D01*
X157637452Y-35953367D01*
X165165906Y-35953367D01*
X165167020Y-35974626D01*
X165174897Y-36124934D01*
X165175349Y-36133564D01*
X165223268Y-36307530D01*
X165307424Y-36467148D01*
X165310884Y-36471242D01*
X165402886Y-36580111D01*
X165423894Y-36604971D01*
X165428153Y-36608227D01*
X165562981Y-36711312D01*
X165562986Y-36711315D01*
X165567242Y-36714569D01*
X165730780Y-36790828D01*
X165906879Y-36830191D01*
X165910968Y-36830420D01*
X165911020Y-36830423D01*
X165911037Y-36830423D01*
X165912406Y-36830500D01*
X166045077Y-36830500D01*
X166074497Y-36827304D01*
X166174064Y-36816488D01*
X166174069Y-36816487D01*
X166179389Y-36815909D01*
X166350409Y-36758355D01*
X166505080Y-36665419D01*
X166636187Y-36541437D01*
X166737612Y-36392195D01*
X166804623Y-36224655D01*
X166834094Y-36046633D01*
X166828320Y-35936446D01*
X166824932Y-35871790D01*
X166824931Y-35871786D01*
X166824651Y-35866436D01*
X166813885Y-35827349D01*
X166781781Y-35710801D01*
X166776732Y-35692470D01*
X166692576Y-35532852D01*
X166576106Y-35395029D01*
X166507104Y-35342273D01*
X166437019Y-35288688D01*
X166437014Y-35288685D01*
X166432758Y-35285431D01*
X166269220Y-35209172D01*
X166093121Y-35169809D01*
X166089032Y-35169580D01*
X166088980Y-35169577D01*
X166088963Y-35169577D01*
X166087594Y-35169500D01*
X165954923Y-35169500D01*
X165925503Y-35172696D01*
X165825936Y-35183512D01*
X165825931Y-35183513D01*
X165820611Y-35184091D01*
X165649591Y-35241645D01*
X165494920Y-35334581D01*
X165363813Y-35458563D01*
X165262388Y-35607805D01*
X165195377Y-35775345D01*
X165165906Y-35953367D01*
X157637452Y-35953367D01*
X157595039Y-35936446D01*
X157395946Y-35896844D01*
X157293351Y-35895501D01*
X157197510Y-35894246D01*
X157197505Y-35894246D01*
X157192971Y-35894187D01*
X157188496Y-35894956D01*
X157188495Y-35894956D01*
X157177508Y-35896844D01*
X156992910Y-35928564D01*
X156802463Y-35998824D01*
X156798564Y-36001143D01*
X156798559Y-36001146D01*
X156631916Y-36100288D01*
X156628010Y-36102612D01*
X156624595Y-36105606D01*
X156624592Y-36105609D01*
X156598821Y-36128210D01*
X156475392Y-36236455D01*
X156349720Y-36395869D01*
X156347607Y-36399884D01*
X156347607Y-36399885D01*
X156271195Y-36545120D01*
X156255203Y-36575515D01*
X156248091Y-36598419D01*
X156198430Y-36758355D01*
X156195007Y-36769378D01*
X156194473Y-36773888D01*
X156194473Y-36773889D01*
X156179902Y-36897005D01*
X156171148Y-36970964D01*
X155846564Y-36970964D01*
X155838612Y-36884417D01*
X155833629Y-36830191D01*
X155830658Y-36797859D01*
X155806249Y-36711312D01*
X155776789Y-36606854D01*
X155776788Y-36606850D01*
X155775557Y-36602487D01*
X155764523Y-36580111D01*
X155733343Y-36516884D01*
X155685776Y-36420428D01*
X155679764Y-36412376D01*
X155567036Y-36261416D01*
X155567035Y-36261415D01*
X155564320Y-36257779D01*
X155522762Y-36219363D01*
X155418588Y-36123065D01*
X155418587Y-36123064D01*
X155415258Y-36119987D01*
X155392471Y-36105609D01*
X155247418Y-36014088D01*
X155243581Y-36011667D01*
X155055039Y-35936446D01*
X154855946Y-35896844D01*
X154753351Y-35895501D01*
X154657510Y-35894246D01*
X154657505Y-35894246D01*
X154652971Y-35894187D01*
X154648496Y-35894956D01*
X154648495Y-35894956D01*
X154637508Y-35896844D01*
X154452910Y-35928564D01*
X154262463Y-35998824D01*
X154258564Y-36001143D01*
X154258559Y-36001146D01*
X154091916Y-36100288D01*
X154088010Y-36102612D01*
X154084595Y-36105606D01*
X154084592Y-36105609D01*
X154058821Y-36128210D01*
X153935392Y-36236455D01*
X153809720Y-36395869D01*
X153807607Y-36399884D01*
X153807607Y-36399885D01*
X153731195Y-36545120D01*
X153715203Y-36575515D01*
X153708091Y-36598419D01*
X153658430Y-36758355D01*
X153655007Y-36769378D01*
X153654473Y-36773888D01*
X153654473Y-36773889D01*
X153639902Y-36897005D01*
X153631148Y-36970964D01*
X153304499Y-36970964D01*
X153304499Y-36124934D01*
X153289734Y-36050699D01*
X153233484Y-35966516D01*
X153149301Y-35910266D01*
X153139738Y-35908364D01*
X153139736Y-35908363D01*
X153108819Y-35902214D01*
X153075067Y-35895500D01*
X152672587Y-35895500D01*
X152614396Y-35876593D01*
X152578432Y-35827093D01*
X152574273Y-35808137D01*
X152570432Y-35775686D01*
X152569470Y-35767559D01*
X152566164Y-35760675D01*
X152565258Y-35757810D01*
X152564004Y-35750274D01*
X152539354Y-35704590D01*
X152537245Y-35700450D01*
X152517479Y-35659286D01*
X152517476Y-35659282D01*
X152514781Y-35653669D01*
X152511187Y-35649393D01*
X152509692Y-35647898D01*
X152508898Y-35647032D01*
X152507233Y-35645059D01*
X152504010Y-35639086D01*
X152469132Y-35606845D01*
X152439235Y-35553461D01*
X152446427Y-35492700D01*
X152462527Y-35468535D01*
X152465414Y-35466069D01*
X152516462Y-35395029D01*
X152554371Y-35342273D01*
X152554372Y-35342271D01*
X152557855Y-35337424D01*
X152567468Y-35313513D01*
X152614718Y-35195974D01*
X152614719Y-35195972D01*
X152616942Y-35190441D01*
X152619003Y-35175960D01*
X152638806Y-35036814D01*
X152638806Y-35036808D01*
X152639262Y-35033607D01*
X152639407Y-35019800D01*
X152620376Y-34862533D01*
X152616373Y-34851938D01*
X152566490Y-34719930D01*
X152564380Y-34714346D01*
X152544790Y-34685842D01*
X152478033Y-34588709D01*
X152478030Y-34588706D01*
X152474653Y-34583792D01*
X152412256Y-34528199D01*
X152360829Y-34482379D01*
X152360827Y-34482378D01*
X152356375Y-34478411D01*
X152348989Y-34474500D01*
X152285705Y-34440993D01*
X152243125Y-34397054D01*
X152234504Y-34336479D01*
X152263135Y-34282405D01*
X152318081Y-34255488D01*
X152332030Y-34254500D01*
X165965182Y-34254500D01*
X165984496Y-34256402D01*
X166000000Y-34259486D01*
X166009563Y-34257584D01*
X166018721Y-34257584D01*
X166031734Y-34256770D01*
X166241348Y-34271762D01*
X166255329Y-34273772D01*
X166484848Y-34323701D01*
X166498401Y-34327681D01*
X166718473Y-34409763D01*
X166731321Y-34415631D01*
X166937475Y-34528199D01*
X166949354Y-34535833D01*
X167130497Y-34671435D01*
X167137387Y-34676593D01*
X167148062Y-34685842D01*
X167314158Y-34851938D01*
X167323407Y-34862613D01*
X167464167Y-35050646D01*
X167471801Y-35062525D01*
X167584369Y-35268679D01*
X167590237Y-35281527D01*
X167672319Y-35501599D01*
X167676299Y-35515152D01*
X167726228Y-35744671D01*
X167728238Y-35758652D01*
X167743230Y-35968266D01*
X167742416Y-35981279D01*
X167742416Y-35990437D01*
X167740514Y-36000000D01*
X167742416Y-36009562D01*
X167743598Y-36015505D01*
X167745500Y-36034818D01*
X167745500Y-70965182D01*
X167743598Y-70984495D01*
X167740514Y-71000000D01*
X167742416Y-71009563D01*
X167742416Y-71018721D01*
X167743230Y-71031734D01*
X167728238Y-71241348D01*
X167726228Y-71255329D01*
X167676299Y-71484848D01*
X167672319Y-71498401D01*
X167590237Y-71718473D01*
X167584369Y-71731321D01*
X167471801Y-71937475D01*
X167464167Y-71949354D01*
X167328565Y-72130497D01*
X167323407Y-72137387D01*
X167314158Y-72148062D01*
X167148062Y-72314158D01*
X167137387Y-72323407D01*
X166949354Y-72464167D01*
X166937475Y-72471801D01*
X166731321Y-72584369D01*
X166718473Y-72590237D01*
X166498401Y-72672319D01*
X166484848Y-72676299D01*
X166255329Y-72726228D01*
X166241348Y-72728238D01*
X166031734Y-72743230D01*
X166018721Y-72742416D01*
X166009563Y-72742416D01*
X166000000Y-72740514D01*
X165990438Y-72742416D01*
X165984495Y-72743598D01*
X165965182Y-72745500D01*
X106034818Y-72745500D01*
X106015505Y-72743598D01*
X106009562Y-72742416D01*
X106000000Y-72740514D01*
X105990437Y-72742416D01*
X105981279Y-72742416D01*
X105968266Y-72743230D01*
X105758652Y-72728238D01*
X105744671Y-72726228D01*
X105515152Y-72676299D01*
X105501599Y-72672319D01*
X105281527Y-72590237D01*
X105268679Y-72584369D01*
X105062525Y-72471801D01*
X105050646Y-72464167D01*
X104862613Y-72323407D01*
X104851938Y-72314158D01*
X104685842Y-72148062D01*
X104676593Y-72137387D01*
X104671435Y-72130497D01*
X104535833Y-71949354D01*
X104528199Y-71937475D01*
X104415631Y-71731321D01*
X104409763Y-71718473D01*
X104327681Y-71498401D01*
X104323701Y-71484848D01*
X104273772Y-71255329D01*
X104271762Y-71241348D01*
X104256770Y-71031734D01*
X104257584Y-71018721D01*
X104257584Y-71009563D01*
X104259486Y-71000000D01*
X104256402Y-70984495D01*
X104254500Y-70965182D01*
X104254500Y-70953367D01*
X105165906Y-70953367D01*
X105175349Y-71133564D01*
X105223268Y-71307530D01*
X105307424Y-71467148D01*
X105423894Y-71604971D01*
X105428153Y-71608227D01*
X105562981Y-71711312D01*
X105562986Y-71711315D01*
X105567242Y-71714569D01*
X105730780Y-71790828D01*
X105906879Y-71830191D01*
X105910968Y-71830420D01*
X105911020Y-71830423D01*
X105911037Y-71830423D01*
X105912406Y-71830500D01*
X106045077Y-71830500D01*
X106074497Y-71827304D01*
X106174064Y-71816488D01*
X106174069Y-71816487D01*
X106179389Y-71815909D01*
X106350409Y-71758355D01*
X106505080Y-71665419D01*
X106636187Y-71541437D01*
X106737612Y-71392195D01*
X106804623Y-71224655D01*
X106834094Y-71046633D01*
X106824651Y-70866436D01*
X106776732Y-70692470D01*
X106692576Y-70532852D01*
X106592622Y-70414573D01*
X106579566Y-70399123D01*
X106579565Y-70399122D01*
X106576106Y-70395029D01*
X106538650Y-70366392D01*
X106437019Y-70288688D01*
X106437014Y-70288685D01*
X106432758Y-70285431D01*
X106269220Y-70209172D01*
X106093121Y-70169809D01*
X106089032Y-70169580D01*
X106088980Y-70169577D01*
X106088963Y-70169577D01*
X106087594Y-70169500D01*
X105954923Y-70169500D01*
X105925503Y-70172696D01*
X105825936Y-70183512D01*
X105825931Y-70183513D01*
X105820611Y-70184091D01*
X105649591Y-70241645D01*
X105494920Y-70334581D01*
X105363813Y-70458563D01*
X105262388Y-70607805D01*
X105195377Y-70775345D01*
X105165906Y-70953367D01*
X104254500Y-70953367D01*
X104254500Y-53066300D01*
X117264315Y-53066300D01*
X117283372Y-53211054D01*
X117339245Y-53345942D01*
X117428126Y-53461774D01*
X117433279Y-53465728D01*
X117450367Y-53478840D01*
X117485023Y-53529264D01*
X117489100Y-53557382D01*
X117489100Y-54670902D01*
X117468642Y-54731169D01*
X117415245Y-54800758D01*
X117359372Y-54935646D01*
X117340315Y-55080400D01*
X117359372Y-55225154D01*
X117415245Y-55360042D01*
X117504126Y-55475874D01*
X117509271Y-55479822D01*
X117509272Y-55479823D01*
X117614811Y-55560807D01*
X117614815Y-55560809D01*
X117619957Y-55564755D01*
X117754846Y-55620628D01*
X117899600Y-55639685D01*
X118044354Y-55620628D01*
X118179243Y-55564755D01*
X118184385Y-55560809D01*
X118184389Y-55560807D01*
X118289928Y-55479823D01*
X118289929Y-55479822D01*
X118295074Y-55475874D01*
X118383955Y-55360042D01*
X118439828Y-55225154D01*
X118458885Y-55080400D01*
X118439828Y-54935646D01*
X118383955Y-54800758D01*
X118295074Y-54684926D01*
X118196831Y-54609541D01*
X118162177Y-54559117D01*
X118158100Y-54531000D01*
X118158100Y-53557382D01*
X118177007Y-53499191D01*
X118196833Y-53478840D01*
X118213921Y-53465728D01*
X118219074Y-53461774D01*
X118307955Y-53345942D01*
X118363828Y-53211054D01*
X118382885Y-53066300D01*
X118363828Y-52921546D01*
X118307955Y-52786658D01*
X118219074Y-52670826D01*
X118213921Y-52666872D01*
X118108389Y-52585893D01*
X118108385Y-52585891D01*
X118103243Y-52581945D01*
X117968354Y-52526072D01*
X117823600Y-52507015D01*
X117678846Y-52526072D01*
X117543958Y-52581945D01*
X117428126Y-52670826D01*
X117339245Y-52786658D01*
X117283372Y-52921546D01*
X117264315Y-53066300D01*
X104254500Y-53066300D01*
X104254500Y-52022500D01*
X116472615Y-52022500D01*
X116491672Y-52167254D01*
X116547545Y-52302142D01*
X116636426Y-52417974D01*
X116641571Y-52421922D01*
X116641572Y-52421923D01*
X116747111Y-52502907D01*
X116747115Y-52502909D01*
X116752257Y-52506855D01*
X116887146Y-52562728D01*
X117031900Y-52581785D01*
X117176654Y-52562728D01*
X117311543Y-52506855D01*
X117316685Y-52502909D01*
X117316689Y-52502907D01*
X117422228Y-52421923D01*
X117422229Y-52421922D01*
X117427374Y-52417974D01*
X117516255Y-52302142D01*
X117572128Y-52167254D01*
X117591185Y-52022500D01*
X117572128Y-51877746D01*
X117516255Y-51742858D01*
X117427374Y-51627026D01*
X117405133Y-51609960D01*
X117370477Y-51559536D01*
X117366400Y-51531418D01*
X117366400Y-44473424D01*
X117385307Y-44415233D01*
X117427513Y-44381961D01*
X117542443Y-44334355D01*
X117547585Y-44330409D01*
X117547589Y-44330407D01*
X117653128Y-44249423D01*
X117653129Y-44249422D01*
X117658274Y-44245474D01*
X117747155Y-44129642D01*
X117803028Y-43994754D01*
X117822085Y-43850000D01*
X117803028Y-43705246D01*
X117747155Y-43570358D01*
X117658274Y-43454526D01*
X117653121Y-43450572D01*
X117547589Y-43369593D01*
X117547585Y-43369591D01*
X117542443Y-43365645D01*
X117407554Y-43309772D01*
X117262800Y-43290715D01*
X117118046Y-43309772D01*
X116983158Y-43365645D01*
X116867326Y-43454526D01*
X116778445Y-43570358D01*
X116722572Y-43705246D01*
X116703515Y-43850000D01*
X116713643Y-43926924D01*
X116714317Y-43932044D01*
X116710774Y-43964386D01*
X116712724Y-43964730D01*
X116705770Y-44004167D01*
X116703901Y-44012598D01*
X116693532Y-44051296D01*
X116694287Y-44059923D01*
X116697023Y-44091195D01*
X116697400Y-44099824D01*
X116697400Y-51531418D01*
X116678493Y-51589609D01*
X116658667Y-51609960D01*
X116636426Y-51627026D01*
X116547545Y-51742858D01*
X116491672Y-51877746D01*
X116472615Y-52022500D01*
X104254500Y-52022500D01*
X104254500Y-47433315D01*
X105932279Y-47433315D01*
X105962691Y-47559990D01*
X105966822Y-47571096D01*
X106039053Y-47711042D01*
X106045716Y-47720846D01*
X106149248Y-47839527D01*
X106158048Y-47847451D01*
X106286906Y-47938014D01*
X106297344Y-47943610D01*
X106444078Y-48000820D01*
X106455555Y-48003767D01*
X106575648Y-48019577D01*
X106582102Y-48020000D01*
X106809320Y-48020000D01*
X106822005Y-48015878D01*
X106825000Y-48011757D01*
X106825000Y-48004320D01*
X107025000Y-48004320D01*
X107029122Y-48017005D01*
X107033243Y-48020000D01*
X107264495Y-48020000D01*
X107270451Y-48019641D01*
X107387273Y-48005504D01*
X107398783Y-48002677D01*
X107546108Y-47947007D01*
X107556606Y-47941518D01*
X107686401Y-47852314D01*
X107695288Y-47844478D01*
X107800058Y-47726887D01*
X107806817Y-47717163D01*
X107880513Y-47577974D01*
X107884760Y-47566910D01*
X107917842Y-47435209D01*
X107917713Y-47433315D01*
X109862279Y-47433315D01*
X109892691Y-47559990D01*
X109896822Y-47571096D01*
X109969053Y-47711042D01*
X109975716Y-47720846D01*
X110079248Y-47839527D01*
X110088048Y-47847451D01*
X110216906Y-47938014D01*
X110227344Y-47943610D01*
X110374078Y-48000820D01*
X110385555Y-48003767D01*
X110505648Y-48019577D01*
X110512102Y-48020000D01*
X110989320Y-48020000D01*
X111002005Y-48015878D01*
X111005000Y-48011757D01*
X111005000Y-48004320D01*
X111205000Y-48004320D01*
X111209122Y-48017005D01*
X111213243Y-48020000D01*
X111694495Y-48020000D01*
X111700451Y-48019641D01*
X111817273Y-48005504D01*
X111828783Y-48002677D01*
X111976108Y-47947007D01*
X111986606Y-47941518D01*
X112116401Y-47852314D01*
X112125288Y-47844478D01*
X112230058Y-47726887D01*
X112236817Y-47717163D01*
X112310513Y-47577974D01*
X112314760Y-47566910D01*
X112347842Y-47435209D01*
X112346987Y-47422670D01*
X112337705Y-47420000D01*
X111220680Y-47420000D01*
X111207995Y-47424122D01*
X111205000Y-47428243D01*
X111205000Y-48004320D01*
X111005000Y-48004320D01*
X111005000Y-47435680D01*
X111000878Y-47422995D01*
X110996757Y-47420000D01*
X109874762Y-47420000D01*
X109862647Y-47423936D01*
X109862279Y-47433315D01*
X107917713Y-47433315D01*
X107916987Y-47422670D01*
X107907705Y-47420000D01*
X107040680Y-47420000D01*
X107027995Y-47424122D01*
X107025000Y-47428243D01*
X107025000Y-48004320D01*
X106825000Y-48004320D01*
X106825000Y-47435680D01*
X106820878Y-47422995D01*
X106816757Y-47420000D01*
X105944762Y-47420000D01*
X105932647Y-47423936D01*
X105932279Y-47433315D01*
X104254500Y-47433315D01*
X104254500Y-47204791D01*
X105932158Y-47204791D01*
X105933013Y-47217330D01*
X105942295Y-47220000D01*
X106809320Y-47220000D01*
X106822005Y-47215878D01*
X106825000Y-47211757D01*
X106825000Y-47204320D01*
X107025000Y-47204320D01*
X107029122Y-47217005D01*
X107033243Y-47220000D01*
X107905238Y-47220000D01*
X107917353Y-47216064D01*
X107917721Y-47206685D01*
X107917266Y-47204791D01*
X109862158Y-47204791D01*
X109863013Y-47217330D01*
X109872295Y-47220000D01*
X110989320Y-47220000D01*
X111002005Y-47215878D01*
X111005000Y-47211757D01*
X111005000Y-47204320D01*
X111205000Y-47204320D01*
X111209122Y-47217005D01*
X111213243Y-47220000D01*
X112335238Y-47220000D01*
X112347353Y-47216064D01*
X112347721Y-47206685D01*
X112317309Y-47080010D01*
X112313178Y-47068904D01*
X112240947Y-46928958D01*
X112234284Y-46919154D01*
X112130752Y-46800473D01*
X112121952Y-46792549D01*
X111993094Y-46701986D01*
X111982656Y-46696390D01*
X111835922Y-46639180D01*
X111824445Y-46636233D01*
X111704352Y-46620423D01*
X111697898Y-46620000D01*
X111220680Y-46620000D01*
X111207995Y-46624122D01*
X111205000Y-46628243D01*
X111205000Y-47204320D01*
X111005000Y-47204320D01*
X111005000Y-46635680D01*
X111000878Y-46622995D01*
X110996757Y-46620000D01*
X110854637Y-46620000D01*
X110796446Y-46601093D01*
X110760482Y-46551593D01*
X110760482Y-46490407D01*
X110796446Y-46440907D01*
X110816751Y-46429536D01*
X110828782Y-46424553D01*
X110897250Y-46396192D01*
X111018304Y-46303304D01*
X111111192Y-46182250D01*
X111169584Y-46041280D01*
X111189500Y-45890000D01*
X111169584Y-45738720D01*
X111111192Y-45597750D01*
X111018304Y-45476696D01*
X110897250Y-45383808D01*
X110756280Y-45325416D01*
X110642980Y-45310500D01*
X110567020Y-45310500D01*
X110453720Y-45325416D01*
X110312750Y-45383808D01*
X110191696Y-45476696D01*
X110098808Y-45597750D01*
X110040416Y-45738720D01*
X110020500Y-45890000D01*
X110040416Y-46041280D01*
X110098808Y-46182250D01*
X110191696Y-46303304D01*
X110312750Y-46396192D01*
X110363548Y-46417233D01*
X110427431Y-46443695D01*
X110473957Y-46483432D01*
X110488240Y-46542927D01*
X110464825Y-46599455D01*
X110412656Y-46631424D01*
X110401436Y-46633442D01*
X110392728Y-46634496D01*
X110381217Y-46637323D01*
X110233892Y-46692993D01*
X110223394Y-46698482D01*
X110093599Y-46787686D01*
X110084712Y-46795522D01*
X109979942Y-46913113D01*
X109973183Y-46922837D01*
X109899487Y-47062026D01*
X109895240Y-47073090D01*
X109862158Y-47204791D01*
X107917266Y-47204791D01*
X107887309Y-47080010D01*
X107883178Y-47068904D01*
X107810947Y-46928958D01*
X107804284Y-46919154D01*
X107700752Y-46800473D01*
X107691952Y-46792549D01*
X107563094Y-46701986D01*
X107552656Y-46696390D01*
X107405922Y-46639180D01*
X107394445Y-46636233D01*
X107274352Y-46620423D01*
X107267898Y-46620000D01*
X107040680Y-46620000D01*
X107027995Y-46624122D01*
X107025000Y-46628243D01*
X107025000Y-47204320D01*
X106825000Y-47204320D01*
X106825000Y-46635680D01*
X106820878Y-46622995D01*
X106816757Y-46620000D01*
X106585505Y-46620000D01*
X106579549Y-46620359D01*
X106462727Y-46634496D01*
X106451217Y-46637323D01*
X106303892Y-46692993D01*
X106293394Y-46698482D01*
X106163599Y-46787686D01*
X106154712Y-46795522D01*
X106049942Y-46913113D01*
X106043183Y-46922837D01*
X105969487Y-47062026D01*
X105965240Y-47073090D01*
X105932158Y-47204791D01*
X104254500Y-47204791D01*
X104254500Y-38793315D01*
X105932279Y-38793315D01*
X105962691Y-38919990D01*
X105966822Y-38931096D01*
X106039053Y-39071042D01*
X106045716Y-39080846D01*
X106149248Y-39199527D01*
X106158048Y-39207451D01*
X106286906Y-39298014D01*
X106297344Y-39303610D01*
X106444078Y-39360820D01*
X106455555Y-39363767D01*
X106575648Y-39379577D01*
X106582102Y-39380000D01*
X106809320Y-39380000D01*
X106822005Y-39375878D01*
X106825000Y-39371757D01*
X106825000Y-39364320D01*
X107025000Y-39364320D01*
X107029122Y-39377005D01*
X107033243Y-39380000D01*
X107264495Y-39380000D01*
X107270451Y-39379641D01*
X107387273Y-39365504D01*
X107398783Y-39362677D01*
X107546108Y-39307007D01*
X107556606Y-39301518D01*
X107686401Y-39212314D01*
X107695288Y-39204478D01*
X107800058Y-39086887D01*
X107806817Y-39077163D01*
X107880513Y-38937974D01*
X107884760Y-38926910D01*
X107917842Y-38795209D01*
X107917713Y-38793315D01*
X109862279Y-38793315D01*
X109892691Y-38919990D01*
X109896822Y-38931096D01*
X109969053Y-39071042D01*
X109975716Y-39080846D01*
X110079248Y-39199527D01*
X110088048Y-39207451D01*
X110216906Y-39298014D01*
X110227344Y-39303610D01*
X110374078Y-39360820D01*
X110385555Y-39363767D01*
X110403740Y-39366161D01*
X110458965Y-39392502D01*
X110488160Y-39446273D01*
X110480174Y-39506935D01*
X110438057Y-39551317D01*
X110428704Y-39555778D01*
X110312750Y-39603808D01*
X110191696Y-39696696D01*
X110098808Y-39817750D01*
X110040416Y-39958720D01*
X110020500Y-40110000D01*
X110040416Y-40261280D01*
X110098808Y-40402250D01*
X110191696Y-40523304D01*
X110312750Y-40616192D01*
X110453720Y-40674584D01*
X110567020Y-40689500D01*
X110642980Y-40689500D01*
X110756280Y-40674584D01*
X110897250Y-40616192D01*
X111018304Y-40523304D01*
X111111192Y-40402250D01*
X111169584Y-40261280D01*
X111189500Y-40110000D01*
X111169584Y-39958720D01*
X111111192Y-39817750D01*
X111018304Y-39696696D01*
X110897250Y-39603808D01*
X110816751Y-39570464D01*
X110770226Y-39530727D01*
X110755942Y-39471232D01*
X110779357Y-39414704D01*
X110831526Y-39382735D01*
X110854637Y-39380000D01*
X110989320Y-39380000D01*
X111002005Y-39375878D01*
X111005000Y-39371757D01*
X111005000Y-39364320D01*
X111205000Y-39364320D01*
X111209122Y-39377005D01*
X111213243Y-39380000D01*
X111694495Y-39380000D01*
X111700451Y-39379641D01*
X111817273Y-39365504D01*
X111828783Y-39362677D01*
X111976108Y-39307007D01*
X111986606Y-39301518D01*
X112116401Y-39212314D01*
X112125288Y-39204478D01*
X112230058Y-39086887D01*
X112236817Y-39077163D01*
X112310513Y-38937974D01*
X112314760Y-38926910D01*
X112347842Y-38795209D01*
X112346987Y-38782670D01*
X112337705Y-38780000D01*
X111220680Y-38780000D01*
X111207995Y-38784122D01*
X111205000Y-38788243D01*
X111205000Y-39364320D01*
X111005000Y-39364320D01*
X111005000Y-38795680D01*
X111000878Y-38782995D01*
X110996757Y-38780000D01*
X109874762Y-38780000D01*
X109862647Y-38783936D01*
X109862279Y-38793315D01*
X107917713Y-38793315D01*
X107916987Y-38782670D01*
X107907705Y-38780000D01*
X107040680Y-38780000D01*
X107027995Y-38784122D01*
X107025000Y-38788243D01*
X107025000Y-39364320D01*
X106825000Y-39364320D01*
X106825000Y-38795680D01*
X106820878Y-38782995D01*
X106816757Y-38780000D01*
X105944762Y-38780000D01*
X105932647Y-38783936D01*
X105932279Y-38793315D01*
X104254500Y-38793315D01*
X104254500Y-38564791D01*
X105932158Y-38564791D01*
X105933013Y-38577330D01*
X105942295Y-38580000D01*
X106809320Y-38580000D01*
X106822005Y-38575878D01*
X106825000Y-38571757D01*
X106825000Y-38564320D01*
X107025000Y-38564320D01*
X107029122Y-38577005D01*
X107033243Y-38580000D01*
X107905238Y-38580000D01*
X107917353Y-38576064D01*
X107917721Y-38566685D01*
X107917266Y-38564791D01*
X109862158Y-38564791D01*
X109863013Y-38577330D01*
X109872295Y-38580000D01*
X110989320Y-38580000D01*
X111002005Y-38575878D01*
X111005000Y-38571757D01*
X111005000Y-38564320D01*
X111205000Y-38564320D01*
X111209122Y-38577005D01*
X111213243Y-38580000D01*
X112335238Y-38580000D01*
X112347353Y-38576064D01*
X112347721Y-38566685D01*
X112317309Y-38440010D01*
X112313178Y-38428904D01*
X112240947Y-38288958D01*
X112234284Y-38279154D01*
X112130752Y-38160473D01*
X112121952Y-38152549D01*
X111993094Y-38061986D01*
X111982656Y-38056390D01*
X111835922Y-37999180D01*
X111824445Y-37996233D01*
X111704352Y-37980423D01*
X111697898Y-37980000D01*
X111220680Y-37980000D01*
X111207995Y-37984122D01*
X111205000Y-37988243D01*
X111205000Y-38564320D01*
X111005000Y-38564320D01*
X111005000Y-37995680D01*
X111000878Y-37982995D01*
X110996757Y-37980000D01*
X110515505Y-37980000D01*
X110509549Y-37980359D01*
X110392727Y-37994496D01*
X110381217Y-37997323D01*
X110233892Y-38052993D01*
X110223394Y-38058482D01*
X110093599Y-38147686D01*
X110084712Y-38155522D01*
X109979942Y-38273113D01*
X109973183Y-38282837D01*
X109899487Y-38422026D01*
X109895240Y-38433090D01*
X109862158Y-38564791D01*
X107917266Y-38564791D01*
X107887309Y-38440010D01*
X107883178Y-38428904D01*
X107810947Y-38288958D01*
X107804284Y-38279154D01*
X107700752Y-38160473D01*
X107691952Y-38152549D01*
X107563094Y-38061986D01*
X107552656Y-38056390D01*
X107405922Y-37999180D01*
X107394445Y-37996233D01*
X107274352Y-37980423D01*
X107267898Y-37980000D01*
X107040680Y-37980000D01*
X107027995Y-37984122D01*
X107025000Y-37988243D01*
X107025000Y-38564320D01*
X106825000Y-38564320D01*
X106825000Y-37995680D01*
X106820878Y-37982995D01*
X106816757Y-37980000D01*
X106585505Y-37980000D01*
X106579549Y-37980359D01*
X106462727Y-37994496D01*
X106451217Y-37997323D01*
X106303892Y-38052993D01*
X106293394Y-38058482D01*
X106163599Y-38147686D01*
X106154712Y-38155522D01*
X106049942Y-38273113D01*
X106043183Y-38282837D01*
X105969487Y-38422026D01*
X105965240Y-38433090D01*
X105932158Y-38564791D01*
X104254500Y-38564791D01*
X104254500Y-36034818D01*
X104256402Y-36015505D01*
X104257584Y-36009562D01*
X104259486Y-36000000D01*
X104257584Y-35990437D01*
X104257584Y-35981279D01*
X104256770Y-35968266D01*
X104257836Y-35953367D01*
X105165906Y-35953367D01*
X105167020Y-35974626D01*
X105174897Y-36124934D01*
X105175349Y-36133564D01*
X105223268Y-36307530D01*
X105307424Y-36467148D01*
X105310884Y-36471242D01*
X105402886Y-36580111D01*
X105423894Y-36604971D01*
X105428153Y-36608227D01*
X105562981Y-36711312D01*
X105562986Y-36711315D01*
X105567242Y-36714569D01*
X105730780Y-36790828D01*
X105906879Y-36830191D01*
X105910968Y-36830420D01*
X105911020Y-36830423D01*
X105911037Y-36830423D01*
X105912406Y-36830500D01*
X106045077Y-36830500D01*
X106074497Y-36827304D01*
X106174064Y-36816488D01*
X106174069Y-36816487D01*
X106179389Y-36815909D01*
X106350409Y-36758355D01*
X106505080Y-36665419D01*
X106636187Y-36541437D01*
X106737612Y-36392195D01*
X106804623Y-36224655D01*
X106834094Y-36046633D01*
X106828320Y-35936446D01*
X106824932Y-35871790D01*
X106824931Y-35871786D01*
X106824651Y-35866436D01*
X106813885Y-35827349D01*
X106781781Y-35710801D01*
X106776732Y-35692470D01*
X106692576Y-35532852D01*
X106576106Y-35395029D01*
X106507104Y-35342273D01*
X106437019Y-35288688D01*
X106437014Y-35288685D01*
X106432758Y-35285431D01*
X106269220Y-35209172D01*
X106093121Y-35169809D01*
X106089032Y-35169580D01*
X106088980Y-35169577D01*
X106088963Y-35169577D01*
X106087594Y-35169500D01*
X105954923Y-35169500D01*
X105925503Y-35172696D01*
X105825936Y-35183512D01*
X105825931Y-35183513D01*
X105820611Y-35184091D01*
X105649591Y-35241645D01*
X105494920Y-35334581D01*
X105363813Y-35458563D01*
X105262388Y-35607805D01*
X105195377Y-35775345D01*
X105165906Y-35953367D01*
X104257836Y-35953367D01*
X104271762Y-35758652D01*
X104273772Y-35744671D01*
X104323701Y-35515152D01*
X104327681Y-35501599D01*
X104409763Y-35281527D01*
X104415631Y-35268679D01*
X104528199Y-35062525D01*
X104535833Y-35050646D01*
X104676593Y-34862613D01*
X104685842Y-34851938D01*
X104851938Y-34685842D01*
X104862613Y-34676593D01*
X104869503Y-34671435D01*
X105050646Y-34535833D01*
X105062525Y-34528199D01*
X105268679Y-34415631D01*
X105281527Y-34409763D01*
X105501599Y-34327681D01*
X105515152Y-34323701D01*
X105744671Y-34273772D01*
X105758652Y-34271762D01*
X105968266Y-34256770D01*
X105981279Y-34257584D01*
X105990437Y-34257584D01*
X106000000Y-34259486D01*
X106009562Y-34257584D01*
X106015505Y-34256402D01*
X106034818Y-34254500D01*
X151628096Y-34254500D01*
X151686287Y-34273407D01*
G37*
G04 #@! TD.AperFunction*
M02*
