G04 #@! TF.GenerationSoftware,KiCad,Pcbnew,(6.0.7)*
G04 #@! TF.CreationDate,2023-02-18T12:54:12-08:00*
G04 #@! TF.ProjectId,SwitchControllerBoard,53776974-6368-4436-9f6e-74726f6c6c65,rev?*
G04 #@! TF.SameCoordinates,Original*
G04 #@! TF.FileFunction,Soldermask,Top*
G04 #@! TF.FilePolarity,Negative*
%FSLAX46Y46*%
G04 Gerber Fmt 4.6, Leading zero omitted, Abs format (unit mm)*
G04 Created by KiCad (PCBNEW (6.0.7)) date 2023-02-18 12:54:12*
%MOMM*%
%LPD*%
G01*
G04 APERTURE LIST*
G04 Aperture macros list*
%AMRoundRect*
0 Rectangle with rounded corners*
0 $1 Rounding radius*
0 $2 $3 $4 $5 $6 $7 $8 $9 X,Y pos of 4 corners*
0 Add a 4 corners polygon primitive as box body*
4,1,4,$2,$3,$4,$5,$6,$7,$8,$9,$2,$3,0*
0 Add four circle primitives for the rounded corners*
1,1,$1+$1,$2,$3*
1,1,$1+$1,$4,$5*
1,1,$1+$1,$6,$7*
1,1,$1+$1,$8,$9*
0 Add four rect primitives between the rounded corners*
20,1,$1+$1,$2,$3,$4,$5,0*
20,1,$1+$1,$4,$5,$6,$7,0*
20,1,$1+$1,$6,$7,$8,$9,0*
20,1,$1+$1,$8,$9,$2,$3,0*%
G04 Aperture macros list end*
%ADD10C,0.650000*%
%ADD11C,0.700000*%
%ADD12C,2.500000*%
%ADD13RoundRect,0.250000X-0.312500X-0.625000X0.312500X-0.625000X0.312500X0.625000X-0.312500X0.625000X0*%
%ADD14RoundRect,0.200000X-0.200000X-0.275000X0.200000X-0.275000X0.200000X0.275000X-0.200000X0.275000X0*%
%ADD15R,2.000000X0.900000*%
%ADD16R,0.900000X2.000000*%
%ADD17R,5.000000X5.000000*%
%ADD18R,3.400000X1.800000*%
%ADD19RoundRect,0.250000X0.250000X0.475000X-0.250000X0.475000X-0.250000X-0.475000X0.250000X-0.475000X0*%
%ADD20RoundRect,0.150000X0.150000X-0.512500X0.150000X0.512500X-0.150000X0.512500X-0.150000X-0.512500X0*%
%ADD21RoundRect,0.218750X0.218750X0.256250X-0.218750X0.256250X-0.218750X-0.256250X0.218750X-0.256250X0*%
%ADD22R,1.200000X0.900000*%
%ADD23RoundRect,0.150000X-0.587500X-0.150000X0.587500X-0.150000X0.587500X0.150000X-0.587500X0.150000X0*%
%ADD24RoundRect,0.200000X0.275000X-0.200000X0.275000X0.200000X-0.275000X0.200000X-0.275000X-0.200000X0*%
%ADD25RoundRect,0.225000X0.225000X0.250000X-0.225000X0.250000X-0.225000X-0.250000X0.225000X-0.250000X0*%
%ADD26RoundRect,0.062500X-0.337500X-0.062500X0.337500X-0.062500X0.337500X0.062500X-0.337500X0.062500X0*%
%ADD27RoundRect,0.062500X-0.062500X-0.337500X0.062500X-0.337500X0.062500X0.337500X-0.062500X0.337500X0*%
%ADD28R,3.350000X3.350000*%
%ADD29R,1.300000X0.300000*%
%ADD30R,2.200000X1.800000*%
%ADD31R,1.700000X1.700000*%
%ADD32O,1.700000X1.700000*%
%ADD33C,1.152000*%
%ADD34C,0.650000*%
%ADD35R,1.150000X0.300000*%
%ADD36O,2.100000X1.000000*%
%ADD37O,1.600000X1.000000*%
%ADD38RoundRect,0.225000X-0.225000X-0.250000X0.225000X-0.250000X0.225000X0.250000X-0.225000X0.250000X0*%
%ADD39R,1.800000X1.100000*%
%ADD40RoundRect,0.250000X0.325000X0.650000X-0.325000X0.650000X-0.325000X-0.650000X0.325000X-0.650000X0*%
%ADD41R,2.000000X1.500000*%
%ADD42R,2.000000X3.800000*%
%ADD43RoundRect,0.200000X0.200000X0.275000X-0.200000X0.275000X-0.200000X-0.275000X0.200000X-0.275000X0*%
%ADD44RoundRect,0.250000X-0.250000X-0.475000X0.250000X-0.475000X0.250000X0.475000X-0.250000X0.475000X0*%
G04 APERTURE END LIST*
D10*
X106325000Y-71000000D02*
G75*
G03*
X106325000Y-71000000I-325000J0D01*
G01*
X166325000Y-36000000D02*
G75*
G03*
X166325000Y-36000000I-325000J0D01*
G01*
D11*
X122500000Y-72000000D02*
G75*
G03*
X122500000Y-72000000I-250000J0D01*
G01*
X121000000Y-72000000D02*
G75*
G03*
X121000000Y-72000000I-250000J0D01*
G01*
X118000000Y-72000000D02*
G75*
G03*
X118000000Y-72000000I-250000J0D01*
G01*
X119500000Y-72000000D02*
G75*
G03*
X119500000Y-72000000I-250000J0D01*
G01*
D10*
X106325000Y-36000000D02*
G75*
G03*
X106325000Y-36000000I-325000J0D01*
G01*
D12*
X112250000Y-70000000D02*
G75*
G03*
X112250000Y-70000000I-1250000J0D01*
G01*
D13*
X141537500Y-71000000D03*
X144462500Y-71000000D03*
D14*
X133175000Y-58000000D03*
X134825000Y-58000000D03*
X153175000Y-67000000D03*
X154825000Y-67000000D03*
D15*
X129500000Y-35745000D03*
X129500000Y-37015000D03*
X129500000Y-38285000D03*
X129500000Y-39555000D03*
X129500000Y-40825000D03*
X129500000Y-42095000D03*
X129500000Y-43365000D03*
X129500000Y-44635000D03*
X129500000Y-45905000D03*
X129500000Y-47175000D03*
X129500000Y-48445000D03*
X129500000Y-49715000D03*
X129500000Y-50985000D03*
X129500000Y-52255000D03*
D16*
X132285000Y-53255000D03*
X133555000Y-53255000D03*
X134825000Y-53255000D03*
X136095000Y-53255000D03*
X137365000Y-53255000D03*
X138635000Y-53255000D03*
X139905000Y-53255000D03*
X141175000Y-53255000D03*
X142445000Y-53255000D03*
X143715000Y-53255000D03*
D15*
X146500000Y-52255000D03*
X146500000Y-50985000D03*
X146500000Y-49715000D03*
X146500000Y-48445000D03*
X146500000Y-47175000D03*
X146500000Y-45905000D03*
X146500000Y-44635000D03*
X146500000Y-43365000D03*
X146500000Y-42095000D03*
X146500000Y-40825000D03*
X146500000Y-39555000D03*
X146500000Y-38285000D03*
X146500000Y-37015000D03*
X146500000Y-35745000D03*
D17*
X137000000Y-43245000D03*
D18*
X107000000Y-52000000D03*
D19*
X151950000Y-42000000D03*
X150050000Y-42000000D03*
X151950000Y-50000000D03*
X150050000Y-50000000D03*
D18*
X117000000Y-64000000D03*
D20*
X142050000Y-68137500D03*
X143000000Y-68137500D03*
X143950000Y-68137500D03*
X143950000Y-65862500D03*
X142050000Y-65862500D03*
D21*
X130787500Y-60000000D03*
X129212500Y-60000000D03*
D22*
X106000000Y-56350000D03*
X106000000Y-59650000D03*
D23*
X116062500Y-42050000D03*
X116062500Y-43950000D03*
X117937500Y-43000000D03*
D24*
X146000000Y-68825000D03*
X146000000Y-67175000D03*
D25*
X124775000Y-36000000D03*
X123225000Y-36000000D03*
D26*
X119550000Y-50500000D03*
X119550000Y-51000000D03*
X119550000Y-51500000D03*
X119550000Y-52000000D03*
X119550000Y-52500000D03*
X119550000Y-53000000D03*
X119550000Y-53500000D03*
D27*
X120500000Y-54450000D03*
X121000000Y-54450000D03*
X121500000Y-54450000D03*
X122000000Y-54450000D03*
X122500000Y-54450000D03*
X123000000Y-54450000D03*
X123500000Y-54450000D03*
D26*
X124450000Y-53500000D03*
X124450000Y-53000000D03*
X124450000Y-52500000D03*
X124450000Y-52000000D03*
X124450000Y-51500000D03*
X124450000Y-51000000D03*
X124450000Y-50500000D03*
D27*
X123500000Y-49550000D03*
X123000000Y-49550000D03*
X122500000Y-49550000D03*
X122000000Y-49550000D03*
X121500000Y-49550000D03*
X121000000Y-49550000D03*
X120500000Y-49550000D03*
D28*
X122000000Y-52000000D03*
D29*
X159150000Y-51500000D03*
X159150000Y-51000000D03*
X159150000Y-50500000D03*
X159150000Y-50000000D03*
X159150000Y-49500000D03*
X159150000Y-49000000D03*
X159150000Y-48500000D03*
X159150000Y-48000000D03*
X159150000Y-47500000D03*
X159150000Y-47000000D03*
X159150000Y-46500000D03*
X159150000Y-46000000D03*
X159150000Y-45500000D03*
X159150000Y-45000000D03*
X159150000Y-44500000D03*
D30*
X162400000Y-53400000D03*
X162400000Y-42600000D03*
D14*
X133175000Y-60000000D03*
X134825000Y-60000000D03*
D31*
X152200000Y-37000000D03*
D32*
X154740000Y-37000000D03*
X157280000Y-37000000D03*
X159820000Y-37000000D03*
D25*
X139775000Y-65000000D03*
X138225000Y-65000000D03*
D33*
X106000000Y-71000000D03*
X166000000Y-36000000D03*
D34*
X110605000Y-45890000D03*
X110605000Y-40110000D03*
D35*
X111670000Y-39650000D03*
X111670000Y-40450000D03*
X111670000Y-41750000D03*
X111670000Y-42750000D03*
X111670000Y-43250000D03*
X111670000Y-44250000D03*
X111670000Y-45550000D03*
X111670000Y-46350000D03*
X111670000Y-46050000D03*
X111670000Y-45250000D03*
X111670000Y-44750000D03*
X111670000Y-43750000D03*
X111670000Y-42250000D03*
X111670000Y-41250000D03*
X111670000Y-40750000D03*
X111670000Y-39950000D03*
D36*
X111105000Y-47320000D03*
X111105000Y-38680000D03*
D37*
X106925000Y-47320000D03*
X106925000Y-38680000D03*
D19*
X155950000Y-44000000D03*
X154050000Y-44000000D03*
D24*
X148000000Y-68825000D03*
X148000000Y-67175000D03*
D14*
X123175000Y-43000000D03*
X124825000Y-43000000D03*
D25*
X155775000Y-54000000D03*
X154225000Y-54000000D03*
D23*
X153062500Y-69050000D03*
X153062500Y-70950000D03*
X154937500Y-70000000D03*
D21*
X130787500Y-62000000D03*
X129212500Y-62000000D03*
D38*
X123225000Y-57000000D03*
X124775000Y-57000000D03*
D24*
X138000000Y-68825000D03*
X138000000Y-67175000D03*
D25*
X155775000Y-52000000D03*
X154225000Y-52000000D03*
X155775000Y-50000000D03*
X154225000Y-50000000D03*
D39*
X139900000Y-58150000D03*
X146100000Y-58150000D03*
X139900000Y-61850000D03*
X146100000Y-61850000D03*
D24*
X140000000Y-68825000D03*
X140000000Y-67175000D03*
D14*
X133175000Y-62000000D03*
X134825000Y-62000000D03*
D39*
X160100000Y-58150000D03*
X153900000Y-58150000D03*
X153900000Y-61850000D03*
X160100000Y-61850000D03*
D40*
X125475000Y-38500000D03*
X122525000Y-38500000D03*
D41*
X115150000Y-60300000D03*
X115150000Y-58000000D03*
D42*
X108850000Y-58000000D03*
D41*
X115150000Y-55700000D03*
D25*
X124775000Y-41000000D03*
X123225000Y-41000000D03*
X155775000Y-42000000D03*
X154225000Y-42000000D03*
D33*
X106000000Y-36000000D03*
D31*
X166000000Y-61200000D03*
D32*
X166000000Y-63740000D03*
X166000000Y-66280000D03*
X166000000Y-68820000D03*
D38*
X123225000Y-59000000D03*
X124775000Y-59000000D03*
D43*
X117825000Y-46000000D03*
X116175000Y-46000000D03*
D25*
X112775000Y-52000000D03*
X111225000Y-52000000D03*
D23*
X158062500Y-67050000D03*
X158062500Y-68950000D03*
X159937500Y-68000000D03*
D38*
X119225000Y-57000000D03*
X120775000Y-57000000D03*
D44*
X111050000Y-64000000D03*
X112950000Y-64000000D03*
D18*
X107000000Y-64000000D03*
D21*
X130787500Y-58000000D03*
X129212500Y-58000000D03*
D43*
X155825000Y-46000000D03*
X154175000Y-46000000D03*
X117825000Y-40000000D03*
X116175000Y-40000000D03*
M02*
