M48
; DRILL file {KiCad (6.0.7)} date Thu Feb 23 11:47:36 2023
; FORMAT={-:-/ absolute / inch / decimal}
; #@! TF.CreationDate,2023-02-23T11:47:36-08:00
; #@! TF.GenerationSoftware,Kicad,Pcbnew,(6.0.7)
; #@! TF.FileFunction,Plated,1,2,PTH
FMAT,2
INCH
; #@! TA.AperFunction,Plated,PTH,ViaDrill
T1C0.0118
; #@! TA.AperFunction,Plated,PTH,ViaDrill
T2C0.0197
; #@! TA.AperFunction,Plated,PTH,ComponentDrill
T3C0.0236
; #@! TA.AperFunction,Plated,PTH,ComponentDrill
T4C0.0394
%
G90
G05
T1
X4.6076Y-2.0481
X4.6166Y-1.7264
X4.6387Y-2.0892
X4.6417Y-2.1685
X5.8993Y-1.4995
X5.9625Y-1.7875
X5.9787Y-2.7185
X6.002Y-2.1932
T2
X4.1732Y-2.3086
X4.3226Y-2.3976
X4.3472Y-2.0797
X4.5296Y-2.0255
X4.9699Y-2.2603
X5.1737Y-1.4073
X5.2081Y-2.0355
X5.2727Y-1.6985
X5.3926Y-2.7141
X5.4436Y-2.2818
X5.4438Y-2.5094
X5.5196Y-2.7595
X5.6299Y-2.6019
X5.6416Y-1.7205
X5.6904Y-2.7382
X5.7448Y-2.754
X5.8644Y-1.4073
X5.8649Y-1.6437
X5.9835Y-1.3787
X6.1063Y-1.6895
X6.3243Y-1.928
X6.3635Y-2.2894
T4
X5.9921Y-1.4567
X6.0921Y-1.4567
X6.1921Y-1.4567
X6.2921Y-1.4567
X6.5354Y-2.4094
X6.5354Y-2.5094
X6.5354Y-2.6094
X6.5354Y-2.7094
T3
G00X4.2215Y-1.5228
M15
G01X4.1978Y-1.5228
M16
G05
G00X4.2215Y-1.863
M15
G01X4.1978Y-1.863
M16
G05
G00X4.3959Y-1.5228
M15
G01X4.3526Y-1.5228
M16
G05
G00X4.3959Y-1.863
M15
G01X4.3526Y-1.863
M16
G05
T0
M30
