G04 #@! TF.GenerationSoftware,KiCad,Pcbnew,(6.0.7)*
G04 #@! TF.CreationDate,2023-01-30T12:15:34-08:00*
G04 #@! TF.ProjectId,RobotDriver3,526f626f-7444-4726-9976-6572332e6b69,rev?*
G04 #@! TF.SameCoordinates,Original*
G04 #@! TF.FileFunction,Soldermask,Bot*
G04 #@! TF.FilePolarity,Negative*
%FSLAX46Y46*%
G04 Gerber Fmt 4.6, Leading zero omitted, Abs format (unit mm)*
G04 Created by KiCad (PCBNEW (6.0.7)) date 2023-01-30 12:15:34*
%MOMM*%
%LPD*%
G01*
G04 APERTURE LIST*
G04 Aperture macros list*
%AMRoundRect*
0 Rectangle with rounded corners*
0 $1 Rounding radius*
0 $2 $3 $4 $5 $6 $7 $8 $9 X,Y pos of 4 corners*
0 Add a 4 corners polygon primitive as box body*
4,1,4,$2,$3,$4,$5,$6,$7,$8,$9,$2,$3,0*
0 Add four circle primitives for the rounded corners*
1,1,$1+$1,$2,$3*
1,1,$1+$1,$4,$5*
1,1,$1+$1,$6,$7*
1,1,$1+$1,$8,$9*
0 Add four rect primitives between the rounded corners*
20,1,$1+$1,$2,$3,$4,$5,0*
20,1,$1+$1,$4,$5,$6,$7,0*
20,1,$1+$1,$6,$7,$8,$9,0*
20,1,$1+$1,$8,$9,$2,$3,0*%
G04 Aperture macros list end*
%ADD10C,0.650000*%
%ADD11R,1.700000X1.700000*%
%ADD12O,1.700000X1.700000*%
%ADD13C,0.800000*%
%ADD14C,6.400000*%
%ADD15R,1.524000X1.524000*%
%ADD16C,1.524000*%
%ADD17C,2.000000*%
%ADD18RoundRect,0.250000X-0.625000X0.350000X-0.625000X-0.350000X0.625000X-0.350000X0.625000X0.350000X0*%
%ADD19O,1.750000X1.200000*%
%ADD20C,1.152000*%
G04 APERTURE END LIST*
D10*
X87325000Y-63000000D02*
G75*
G03*
X87325000Y-63000000I-325000J0D01*
G01*
X192325000Y-106000000D02*
G75*
G03*
X192325000Y-106000000I-325000J0D01*
G01*
X192325000Y-14000000D02*
G75*
G03*
X192325000Y-14000000I-325000J0D01*
G01*
D11*
X187975000Y-42475000D03*
D12*
X187975000Y-45015000D03*
X187975000Y-47555000D03*
D13*
X183697056Y-101302944D03*
D14*
X182000000Y-103000000D03*
D13*
X182000000Y-100600000D03*
X183697056Y-104697056D03*
X184400000Y-103000000D03*
X180302944Y-101302944D03*
X179600000Y-103000000D03*
X180302944Y-104697056D03*
X182000000Y-105400000D03*
D15*
X171020000Y-47300000D03*
X171020000Y-44760000D03*
X171020000Y-42220000D03*
D16*
X168480000Y-47300000D03*
X168480000Y-42220000D03*
X168480000Y-44760000D03*
X165940000Y-44760000D03*
X165940000Y-42220000D03*
X165940000Y-47300000D03*
X163400000Y-47300000D03*
X163400000Y-44760000D03*
X163400000Y-42220000D03*
X160860000Y-47300000D03*
X160860000Y-42220000D03*
X160860000Y-44760000D03*
X158320000Y-42220000D03*
X158320000Y-47300000D03*
X158320000Y-44760000D03*
X155780000Y-42220000D03*
X155780000Y-44760000D03*
X155780000Y-47300000D03*
X153240000Y-42220000D03*
X153240000Y-44760000D03*
X153240000Y-47300000D03*
X150700000Y-44760000D03*
X150700000Y-42220000D03*
X150700000Y-47300000D03*
X148160000Y-44760000D03*
X148160000Y-42220000D03*
X148160000Y-47300000D03*
X145620000Y-47300000D03*
X145620000Y-42220000D03*
X145620000Y-44760000D03*
X143080000Y-47300000D03*
X143080000Y-44760000D03*
X143080000Y-42220000D03*
X140540000Y-47300000D03*
X140540000Y-42220000D03*
X140540000Y-44760000D03*
X138000000Y-44760000D03*
X138000000Y-47300000D03*
X138000000Y-42220000D03*
X135460000Y-44760000D03*
X135460000Y-42220000D03*
X135460000Y-47300000D03*
X132920000Y-42220000D03*
X132920000Y-44760000D03*
X132920000Y-47300000D03*
X130380000Y-44760000D03*
X130380000Y-47300000D03*
X130380000Y-42220000D03*
X127840000Y-44760000D03*
X127840000Y-47300000D03*
X127840000Y-42220000D03*
X125300000Y-42220000D03*
X125300000Y-44760000D03*
X125300000Y-47300000D03*
X122760000Y-47300000D03*
X122760000Y-44760000D03*
X122760000Y-42220000D03*
X122760000Y-77780000D03*
X122760000Y-75240000D03*
X122760000Y-72700000D03*
X125300000Y-72700000D03*
X125300000Y-77780000D03*
X125300000Y-75240000D03*
X127840000Y-77780000D03*
X127840000Y-75240000D03*
X127840000Y-72700000D03*
X130380000Y-77780000D03*
X130380000Y-75240000D03*
X130380000Y-72700000D03*
X132920000Y-77780000D03*
X132920000Y-75240000D03*
X132920000Y-72700000D03*
X135460000Y-72700000D03*
X135460000Y-75240000D03*
X135460000Y-77780000D03*
X138000000Y-72700000D03*
X138000000Y-77780000D03*
X138000000Y-75240000D03*
X140540000Y-72700000D03*
X140540000Y-75240000D03*
X140540000Y-77780000D03*
X143080000Y-77780000D03*
X143080000Y-75240000D03*
X143080000Y-72700000D03*
X145620000Y-75240000D03*
X145620000Y-72700000D03*
X145620000Y-77780000D03*
X148160000Y-75240000D03*
X148160000Y-72700000D03*
X148160000Y-77780000D03*
X150700000Y-77780000D03*
X150700000Y-75240000D03*
X150700000Y-72700000D03*
X153240000Y-72700000D03*
X153240000Y-75240000D03*
X153240000Y-77780000D03*
X155780000Y-75240000D03*
X155780000Y-77780000D03*
X155780000Y-72700000D03*
X158320000Y-72700000D03*
X158320000Y-75240000D03*
X158320000Y-77780000D03*
X160860000Y-72700000D03*
X160860000Y-77780000D03*
X160860000Y-75240000D03*
X163400000Y-75240000D03*
X163400000Y-77780000D03*
X163400000Y-72700000D03*
X165940000Y-77780000D03*
X165940000Y-72700000D03*
X165940000Y-75240000D03*
X168480000Y-72700000D03*
X168480000Y-77780000D03*
X168480000Y-75240000D03*
X171020000Y-72700000D03*
X171020000Y-77780000D03*
X171020000Y-75240000D03*
D11*
X191975000Y-72475000D03*
D12*
X191975000Y-75015000D03*
X191975000Y-77555000D03*
D17*
X135300000Y-90000000D03*
D18*
X190000000Y-87000000D03*
D19*
X190000000Y-89000000D03*
D20*
X87000000Y-63000000D03*
D17*
X144000000Y-90000000D03*
D11*
X100025000Y-53675000D03*
D12*
X100025000Y-56215000D03*
X100025000Y-58755000D03*
X100025000Y-61295000D03*
X100025000Y-63835000D03*
X100025000Y-66375000D03*
D13*
X182000000Y-14600000D03*
X180302944Y-18697056D03*
X184400000Y-17000000D03*
X182000000Y-19400000D03*
X183697056Y-15302944D03*
X183697056Y-18697056D03*
X179600000Y-17000000D03*
D14*
X182000000Y-17000000D03*
D13*
X180302944Y-15302944D03*
D11*
X191975000Y-42475000D03*
D12*
X191975000Y-45015000D03*
X191975000Y-47555000D03*
D11*
X191975000Y-66350000D03*
D12*
X191975000Y-63810000D03*
X191975000Y-61270000D03*
X191975000Y-58730000D03*
X191975000Y-56190000D03*
X191975000Y-53650000D03*
D11*
X159675000Y-102975000D03*
D12*
X162215000Y-102975000D03*
X164755000Y-102975000D03*
X167295000Y-102975000D03*
X169835000Y-102975000D03*
X172375000Y-102975000D03*
D20*
X192000000Y-106000000D03*
D11*
X187975000Y-72475000D03*
D12*
X187975000Y-75015000D03*
X187975000Y-77555000D03*
D20*
X192000000Y-14000000D03*
D11*
X172325000Y-17025000D03*
D12*
X169785000Y-17025000D03*
X167245000Y-17025000D03*
X164705000Y-17025000D03*
X162165000Y-17025000D03*
X159625000Y-17025000D03*
D17*
X139650000Y-90000000D03*
M02*
