G04 #@! TF.GenerationSoftware,KiCad,Pcbnew,(6.0.7)*
G04 #@! TF.CreationDate,2023-01-30T12:15:33-08:00*
G04 #@! TF.ProjectId,RobotDriver3,526f626f-7444-4726-9976-6572332e6b69,rev?*
G04 #@! TF.SameCoordinates,Original*
G04 #@! TF.FileFunction,Legend,Top*
G04 #@! TF.FilePolarity,Positive*
%FSLAX46Y46*%
G04 Gerber Fmt 4.6, Leading zero omitted, Abs format (unit mm)*
G04 Created by KiCad (PCBNEW (6.0.7)) date 2023-01-30 12:15:33*
%MOMM*%
%LPD*%
G01*
G04 APERTURE LIST*
%ADD10C,0.152400*%
%ADD11C,0.150000*%
%ADD12C,0.125000*%
%ADD13C,0.120000*%
%ADD14C,0.100000*%
G04 APERTURE END LIST*
D10*
X149696838Y-63180647D02*
X149696838Y-63567695D01*
X149425904Y-62754895D02*
X149696838Y-63180647D01*
X149967771Y-62754895D01*
X150238704Y-63490285D02*
X150277409Y-63528990D01*
X150238704Y-63567695D01*
X150200000Y-63528990D01*
X150238704Y-63490285D01*
X150238704Y-63567695D01*
X150509638Y-62754895D02*
X150974095Y-62754895D01*
X150741866Y-63567695D02*
X150741866Y-62754895D01*
X192525828Y-90501504D02*
X193338628Y-90501504D01*
X192564533Y-90501504D02*
X192525828Y-90424095D01*
X192525828Y-90269276D01*
X192564533Y-90191866D01*
X192603238Y-90153161D01*
X192680647Y-90114457D01*
X192912876Y-90114457D01*
X192990285Y-90153161D01*
X193028990Y-90191866D01*
X193067695Y-90269276D01*
X193067695Y-90424095D01*
X193028990Y-90501504D01*
X192525828Y-89843523D02*
X193067695Y-89688704D01*
X192680647Y-89533885D01*
X193067695Y-89379066D01*
X192525828Y-89224247D01*
X193067695Y-88914609D02*
X192525828Y-88914609D01*
X192680647Y-88914609D02*
X192603238Y-88875904D01*
X192564533Y-88837200D01*
X192525828Y-88759790D01*
X192525828Y-88682380D01*
X169846171Y-13916780D02*
X169188190Y-13916780D01*
X169110780Y-13878076D01*
X169072076Y-13839371D01*
X169033371Y-13761961D01*
X169033371Y-13645847D01*
X169072076Y-13568438D01*
X169343009Y-13916780D02*
X169304304Y-13839371D01*
X169304304Y-13684552D01*
X169343009Y-13607142D01*
X169381714Y-13568438D01*
X169459123Y-13529733D01*
X169691352Y-13529733D01*
X169768761Y-13568438D01*
X169807466Y-13607142D01*
X169846171Y-13684552D01*
X169846171Y-13839371D01*
X169807466Y-13916780D01*
X169846171Y-14303828D02*
X169304304Y-14303828D01*
X169768761Y-14303828D02*
X169807466Y-14342533D01*
X169846171Y-14419942D01*
X169846171Y-14536057D01*
X169807466Y-14613466D01*
X169730057Y-14652171D01*
X169304304Y-14652171D01*
X169304304Y-15387561D02*
X170117104Y-15387561D01*
X169343009Y-15387561D02*
X169304304Y-15310152D01*
X169304304Y-15155333D01*
X169343009Y-15077923D01*
X169381714Y-15039219D01*
X169459123Y-15000514D01*
X169691352Y-15000514D01*
X169768761Y-15039219D01*
X169807466Y-15077923D01*
X169846171Y-15155333D01*
X169846171Y-15310152D01*
X169807466Y-15387561D01*
X183770209Y-41989828D02*
X183770209Y-42802628D01*
X183770209Y-42028533D02*
X183847619Y-41989828D01*
X184002438Y-41989828D01*
X184079847Y-42028533D01*
X184118552Y-42067238D01*
X184157257Y-42144647D01*
X184157257Y-42376876D01*
X184118552Y-42454285D01*
X184079847Y-42492990D01*
X184002438Y-42531695D01*
X183847619Y-42531695D01*
X183770209Y-42492990D01*
X184428190Y-41989828D02*
X184583009Y-42531695D01*
X184737828Y-42144647D01*
X184892647Y-42531695D01*
X185047466Y-41989828D01*
X185357104Y-42531695D02*
X185357104Y-41989828D01*
X185357104Y-42067238D02*
X185395809Y-42028533D01*
X185473219Y-41989828D01*
X185589333Y-41989828D01*
X185666742Y-42028533D01*
X185705447Y-42105942D01*
X185705447Y-42531695D01*
X185705447Y-42105942D02*
X185744152Y-42028533D01*
X185821561Y-41989828D01*
X185937676Y-41989828D01*
X186015085Y-42028533D01*
X186053790Y-42105942D01*
X186053790Y-42531695D01*
X192775828Y-86561219D02*
X193433809Y-86561219D01*
X193511219Y-86599923D01*
X193549923Y-86638628D01*
X193588628Y-86716038D01*
X193588628Y-86832152D01*
X193549923Y-86909561D01*
X193278990Y-86561219D02*
X193317695Y-86638628D01*
X193317695Y-86793447D01*
X193278990Y-86870857D01*
X193240285Y-86909561D01*
X193162876Y-86948266D01*
X192930647Y-86948266D01*
X192853238Y-86909561D01*
X192814533Y-86870857D01*
X192775828Y-86793447D01*
X192775828Y-86638628D01*
X192814533Y-86561219D01*
X192775828Y-86174171D02*
X193317695Y-86174171D01*
X192853238Y-86174171D02*
X192814533Y-86135466D01*
X192775828Y-86058057D01*
X192775828Y-85941942D01*
X192814533Y-85864533D01*
X192891942Y-85825828D01*
X193317695Y-85825828D01*
X193317695Y-85090438D02*
X192504895Y-85090438D01*
X193278990Y-85090438D02*
X193317695Y-85167847D01*
X193317695Y-85322666D01*
X193278990Y-85400076D01*
X193240285Y-85438780D01*
X193162876Y-85477485D01*
X192930647Y-85477485D01*
X192853238Y-85438780D01*
X192814533Y-85400076D01*
X192775828Y-85322666D01*
X192775828Y-85167847D01*
X192814533Y-85090438D01*
X95604152Y-63603600D02*
X95526742Y-63564895D01*
X95410628Y-63564895D01*
X95294514Y-63603600D01*
X95217104Y-63681009D01*
X95178400Y-63758419D01*
X95139695Y-63913238D01*
X95139695Y-64029352D01*
X95178400Y-64184171D01*
X95217104Y-64261580D01*
X95294514Y-64338990D01*
X95410628Y-64377695D01*
X95488038Y-64377695D01*
X95604152Y-64338990D01*
X95642857Y-64300285D01*
X95642857Y-64029352D01*
X95488038Y-64029352D01*
X95991200Y-64377695D02*
X95991200Y-63564895D01*
X96300838Y-63564895D01*
X96378247Y-63603600D01*
X96416952Y-63642304D01*
X96455657Y-63719714D01*
X96455657Y-63835828D01*
X96416952Y-63913238D01*
X96378247Y-63951942D01*
X96300838Y-63990647D01*
X95991200Y-63990647D01*
X96804000Y-64377695D02*
X96804000Y-63564895D01*
X97345866Y-63564895D02*
X97500685Y-63564895D01*
X97578095Y-63603600D01*
X97655504Y-63681009D01*
X97694209Y-63835828D01*
X97694209Y-64106761D01*
X97655504Y-64261580D01*
X97578095Y-64338990D01*
X97500685Y-64377695D01*
X97345866Y-64377695D01*
X97268457Y-64338990D01*
X97191047Y-64261580D01*
X97152342Y-64106761D01*
X97152342Y-63835828D01*
X97191047Y-63681009D01*
X97268457Y-63603600D01*
X97345866Y-63564895D01*
X98468304Y-64377695D02*
X98003847Y-64377695D01*
X98236076Y-64377695D02*
X98236076Y-63564895D01*
X98158666Y-63681009D01*
X98081257Y-63758419D01*
X98003847Y-63797123D01*
X143638780Y-91775828D02*
X143638780Y-92433809D01*
X143600076Y-92511219D01*
X143561371Y-92549923D01*
X143483961Y-92588628D01*
X143367847Y-92588628D01*
X143290438Y-92549923D01*
X143638780Y-92278990D02*
X143561371Y-92317695D01*
X143406552Y-92317695D01*
X143329142Y-92278990D01*
X143290438Y-92240285D01*
X143251733Y-92162876D01*
X143251733Y-91930647D01*
X143290438Y-91853238D01*
X143329142Y-91814533D01*
X143406552Y-91775828D01*
X143561371Y-91775828D01*
X143638780Y-91814533D01*
X144025828Y-91775828D02*
X144025828Y-92317695D01*
X144025828Y-91853238D02*
X144064533Y-91814533D01*
X144141942Y-91775828D01*
X144258057Y-91775828D01*
X144335466Y-91814533D01*
X144374171Y-91891942D01*
X144374171Y-92317695D01*
X145109561Y-92317695D02*
X145109561Y-91504895D01*
X145109561Y-92278990D02*
X145032152Y-92317695D01*
X144877333Y-92317695D01*
X144799923Y-92278990D01*
X144761219Y-92240285D01*
X144722514Y-92162876D01*
X144722514Y-91930647D01*
X144761219Y-91853238D01*
X144799923Y-91814533D01*
X144877333Y-91775828D01*
X145032152Y-91775828D01*
X145109561Y-91814533D01*
X118090438Y-50878990D02*
X118167847Y-50917695D01*
X118322666Y-50917695D01*
X118400076Y-50878990D01*
X118438780Y-50801580D01*
X118438780Y-50762876D01*
X118400076Y-50685466D01*
X118322666Y-50646761D01*
X118206552Y-50646761D01*
X118129142Y-50608057D01*
X118090438Y-50530647D01*
X118090438Y-50491942D01*
X118129142Y-50414533D01*
X118206552Y-50375828D01*
X118322666Y-50375828D01*
X118400076Y-50414533D01*
X119135466Y-50917695D02*
X119135466Y-50104895D01*
X119135466Y-50878990D02*
X119058057Y-50917695D01*
X118903238Y-50917695D01*
X118825828Y-50878990D01*
X118787123Y-50840285D01*
X118748419Y-50762876D01*
X118748419Y-50530647D01*
X118787123Y-50453238D01*
X118825828Y-50414533D01*
X118903238Y-50375828D01*
X119058057Y-50375828D01*
X119135466Y-50414533D01*
X119870857Y-50917695D02*
X119870857Y-50491942D01*
X119832152Y-50414533D01*
X119754742Y-50375828D01*
X119599923Y-50375828D01*
X119522514Y-50414533D01*
X119870857Y-50878990D02*
X119793447Y-50917695D01*
X119599923Y-50917695D01*
X119522514Y-50878990D01*
X119483809Y-50801580D01*
X119483809Y-50724171D01*
X119522514Y-50646761D01*
X119599923Y-50608057D01*
X119793447Y-50608057D01*
X119870857Y-50569352D01*
X166803009Y-13510380D02*
X166764304Y-13626495D01*
X166764304Y-13820019D01*
X166803009Y-13897428D01*
X166841714Y-13936133D01*
X166919123Y-13974838D01*
X166996533Y-13974838D01*
X167073942Y-13936133D01*
X167112647Y-13897428D01*
X167151352Y-13820019D01*
X167190057Y-13665200D01*
X167228761Y-13587790D01*
X167267466Y-13549085D01*
X167344876Y-13510380D01*
X167422285Y-13510380D01*
X167499695Y-13549085D01*
X167538400Y-13587790D01*
X167577104Y-13665200D01*
X167577104Y-13858723D01*
X167538400Y-13974838D01*
X166841714Y-14787638D02*
X166803009Y-14748933D01*
X166764304Y-14632819D01*
X166764304Y-14555409D01*
X166803009Y-14439295D01*
X166880419Y-14361885D01*
X166957828Y-14323180D01*
X167112647Y-14284476D01*
X167228761Y-14284476D01*
X167383580Y-14323180D01*
X167460990Y-14361885D01*
X167538400Y-14439295D01*
X167577104Y-14555409D01*
X167577104Y-14632819D01*
X167538400Y-14748933D01*
X167499695Y-14787638D01*
X166764304Y-15523028D02*
X166764304Y-15135980D01*
X167577104Y-15135980D01*
X94730876Y-66104895D02*
X95272742Y-66917695D01*
X95272742Y-66104895D02*
X94730876Y-66917695D01*
X95543676Y-66878990D02*
X95659790Y-66917695D01*
X95853314Y-66917695D01*
X95930723Y-66878990D01*
X95969428Y-66840285D01*
X96008133Y-66762876D01*
X96008133Y-66685466D01*
X95969428Y-66608057D01*
X95930723Y-66569352D01*
X95853314Y-66530647D01*
X95698495Y-66491942D01*
X95621085Y-66453238D01*
X95582380Y-66414533D01*
X95543676Y-66337123D01*
X95543676Y-66259714D01*
X95582380Y-66182304D01*
X95621085Y-66143600D01*
X95698495Y-66104895D01*
X95892019Y-66104895D01*
X96008133Y-66143600D01*
X96356476Y-66917695D02*
X96356476Y-66104895D01*
X96356476Y-66491942D02*
X96820933Y-66491942D01*
X96820933Y-66917695D02*
X96820933Y-66104895D01*
X97207980Y-66104895D02*
X97207980Y-66762876D01*
X97246685Y-66840285D01*
X97285390Y-66878990D01*
X97362800Y-66917695D01*
X97517619Y-66917695D01*
X97595028Y-66878990D01*
X97633733Y-66840285D01*
X97672438Y-66762876D01*
X97672438Y-66104895D01*
X97943371Y-66104895D02*
X98407828Y-66104895D01*
X98175600Y-66917695D02*
X98175600Y-66104895D01*
X162458400Y-12600152D02*
X162497104Y-12522742D01*
X162497104Y-12406628D01*
X162458400Y-12290514D01*
X162380990Y-12213104D01*
X162303580Y-12174400D01*
X162148761Y-12135695D01*
X162032647Y-12135695D01*
X161877828Y-12174400D01*
X161800419Y-12213104D01*
X161723009Y-12290514D01*
X161684304Y-12406628D01*
X161684304Y-12484038D01*
X161723009Y-12600152D01*
X161761714Y-12638857D01*
X162032647Y-12638857D01*
X162032647Y-12484038D01*
X161684304Y-12987200D02*
X162497104Y-12987200D01*
X162497104Y-13296838D01*
X162458400Y-13374247D01*
X162419695Y-13412952D01*
X162342285Y-13451657D01*
X162226171Y-13451657D01*
X162148761Y-13412952D01*
X162110057Y-13374247D01*
X162071352Y-13296838D01*
X162071352Y-12987200D01*
X161684304Y-13800000D02*
X162497104Y-13800000D01*
X162497104Y-14341866D02*
X162497104Y-14496685D01*
X162458400Y-14574095D01*
X162380990Y-14651504D01*
X162226171Y-14690209D01*
X161955238Y-14690209D01*
X161800419Y-14651504D01*
X161723009Y-14574095D01*
X161684304Y-14496685D01*
X161684304Y-14341866D01*
X161723009Y-14264457D01*
X161800419Y-14187047D01*
X161955238Y-14148342D01*
X162226171Y-14148342D01*
X162380990Y-14187047D01*
X162458400Y-14264457D01*
X162497104Y-14341866D01*
X161684304Y-15464304D02*
X161684304Y-14999847D01*
X161684304Y-15232076D02*
X162497104Y-15232076D01*
X162380990Y-15154666D01*
X162303580Y-15077257D01*
X162264876Y-14999847D01*
X188692971Y-58345009D02*
X188576857Y-58306304D01*
X188383333Y-58306304D01*
X188305923Y-58345009D01*
X188267219Y-58383714D01*
X188228514Y-58461123D01*
X188228514Y-58538533D01*
X188267219Y-58615942D01*
X188305923Y-58654647D01*
X188383333Y-58693352D01*
X188538152Y-58732057D01*
X188615561Y-58770761D01*
X188654266Y-58809466D01*
X188692971Y-58886876D01*
X188692971Y-58964285D01*
X188654266Y-59041695D01*
X188615561Y-59080400D01*
X188538152Y-59119104D01*
X188344628Y-59119104D01*
X188228514Y-59080400D01*
X187880171Y-58306304D02*
X187880171Y-59119104D01*
X187686647Y-59119104D01*
X187570533Y-59080400D01*
X187493123Y-59002990D01*
X187454419Y-58925580D01*
X187415714Y-58770761D01*
X187415714Y-58654647D01*
X187454419Y-58499828D01*
X187493123Y-58422419D01*
X187570533Y-58345009D01*
X187686647Y-58306304D01*
X187880171Y-58306304D01*
X187106076Y-58538533D02*
X186719028Y-58538533D01*
X187183485Y-58306304D02*
X186912552Y-59119104D01*
X186641619Y-58306304D01*
X138738857Y-91654895D02*
X139242019Y-91654895D01*
X138971085Y-91964533D01*
X139087200Y-91964533D01*
X139164609Y-92003238D01*
X139203314Y-92041942D01*
X139242019Y-92119352D01*
X139242019Y-92312876D01*
X139203314Y-92390285D01*
X139164609Y-92428990D01*
X139087200Y-92467695D01*
X138854971Y-92467695D01*
X138777561Y-92428990D01*
X138738857Y-92390285D01*
X139590361Y-92390285D02*
X139629066Y-92428990D01*
X139590361Y-92467695D01*
X139551657Y-92428990D01*
X139590361Y-92390285D01*
X139590361Y-92467695D01*
X139900000Y-91654895D02*
X140403161Y-91654895D01*
X140132228Y-91964533D01*
X140248342Y-91964533D01*
X140325752Y-92003238D01*
X140364457Y-92041942D01*
X140403161Y-92119352D01*
X140403161Y-92312876D01*
X140364457Y-92390285D01*
X140325752Y-92428990D01*
X140248342Y-92467695D01*
X140016114Y-92467695D01*
X139938704Y-92428990D01*
X139900000Y-92390285D01*
X140674095Y-91925828D02*
X140867619Y-92467695D01*
X141061142Y-91925828D01*
X167714990Y-99792971D02*
X167753695Y-99676857D01*
X167753695Y-99483333D01*
X167714990Y-99405923D01*
X167676285Y-99367219D01*
X167598876Y-99328514D01*
X167521466Y-99328514D01*
X167444057Y-99367219D01*
X167405352Y-99405923D01*
X167366647Y-99483333D01*
X167327942Y-99638152D01*
X167289238Y-99715561D01*
X167250533Y-99754266D01*
X167173123Y-99792971D01*
X167095714Y-99792971D01*
X167018304Y-99754266D01*
X166979600Y-99715561D01*
X166940895Y-99638152D01*
X166940895Y-99444628D01*
X166979600Y-99328514D01*
X167753695Y-98980171D02*
X166940895Y-98980171D01*
X166940895Y-98786647D01*
X166979600Y-98670533D01*
X167057009Y-98593123D01*
X167134419Y-98554419D01*
X167289238Y-98515714D01*
X167405352Y-98515714D01*
X167560171Y-98554419D01*
X167637580Y-98593123D01*
X167714990Y-98670533D01*
X167753695Y-98786647D01*
X167753695Y-98980171D01*
X167521466Y-98206076D02*
X167521466Y-97819028D01*
X167753695Y-98283485D02*
X166940895Y-98012552D01*
X167753695Y-97741619D01*
X148938857Y-89604895D02*
X149442019Y-89604895D01*
X149171085Y-89914533D01*
X149287200Y-89914533D01*
X149364609Y-89953238D01*
X149403314Y-89991942D01*
X149442019Y-90069352D01*
X149442019Y-90262876D01*
X149403314Y-90340285D01*
X149364609Y-90378990D01*
X149287200Y-90417695D01*
X149054971Y-90417695D01*
X148977561Y-90378990D01*
X148938857Y-90340285D01*
X149790361Y-90340285D02*
X149829066Y-90378990D01*
X149790361Y-90417695D01*
X149751657Y-90378990D01*
X149790361Y-90340285D01*
X149790361Y-90417695D01*
X150100000Y-89604895D02*
X150603161Y-89604895D01*
X150332228Y-89914533D01*
X150448342Y-89914533D01*
X150525752Y-89953238D01*
X150564457Y-89991942D01*
X150603161Y-90069352D01*
X150603161Y-90262876D01*
X150564457Y-90340285D01*
X150525752Y-90378990D01*
X150448342Y-90417695D01*
X150216114Y-90417695D01*
X150138704Y-90378990D01*
X150100000Y-90340285D01*
X150874095Y-89875828D02*
X151067619Y-90417695D01*
X151261142Y-89875828D01*
X169519600Y-100513847D02*
X169480895Y-100591257D01*
X169480895Y-100707371D01*
X169519600Y-100823485D01*
X169597009Y-100900895D01*
X169674419Y-100939600D01*
X169829238Y-100978304D01*
X169945352Y-100978304D01*
X170100171Y-100939600D01*
X170177580Y-100900895D01*
X170254990Y-100823485D01*
X170293695Y-100707371D01*
X170293695Y-100629961D01*
X170254990Y-100513847D01*
X170216285Y-100475142D01*
X169945352Y-100475142D01*
X169945352Y-100629961D01*
X170293695Y-100126800D02*
X169480895Y-100126800D01*
X169480895Y-99817161D01*
X169519600Y-99739752D01*
X169558304Y-99701047D01*
X169635714Y-99662342D01*
X169751828Y-99662342D01*
X169829238Y-99701047D01*
X169867942Y-99739752D01*
X169906647Y-99817161D01*
X169906647Y-100126800D01*
X170293695Y-99314000D02*
X169480895Y-99314000D01*
X169480895Y-98772133D02*
X169480895Y-98617314D01*
X169519600Y-98539904D01*
X169597009Y-98462495D01*
X169751828Y-98423790D01*
X170022761Y-98423790D01*
X170177580Y-98462495D01*
X170254990Y-98539904D01*
X170293695Y-98617314D01*
X170293695Y-98772133D01*
X170254990Y-98849542D01*
X170177580Y-98926952D01*
X170022761Y-98965657D01*
X169751828Y-98965657D01*
X169597009Y-98926952D01*
X169519600Y-98849542D01*
X169480895Y-98772133D01*
X170293695Y-97649695D02*
X170293695Y-98114152D01*
X170293695Y-97881923D02*
X169480895Y-97881923D01*
X169597009Y-97959333D01*
X169674419Y-98036742D01*
X169713123Y-98114152D01*
X133956628Y-91775828D02*
X134150152Y-92317695D01*
X134343676Y-91775828D01*
X134653314Y-92317695D02*
X134653314Y-91504895D01*
X134653314Y-91814533D02*
X134730723Y-91775828D01*
X134885542Y-91775828D01*
X134962952Y-91814533D01*
X135001657Y-91853238D01*
X135040361Y-91930647D01*
X135040361Y-92162876D01*
X135001657Y-92240285D01*
X134962952Y-92278990D01*
X134885542Y-92317695D01*
X134730723Y-92317695D01*
X134653314Y-92278990D01*
X135737047Y-92317695D02*
X135737047Y-91891942D01*
X135698342Y-91814533D01*
X135620933Y-91775828D01*
X135466114Y-91775828D01*
X135388704Y-91814533D01*
X135737047Y-92278990D02*
X135659638Y-92317695D01*
X135466114Y-92317695D01*
X135388704Y-92278990D01*
X135350000Y-92201580D01*
X135350000Y-92124171D01*
X135388704Y-92046761D01*
X135466114Y-92008057D01*
X135659638Y-92008057D01*
X135737047Y-91969352D01*
X136007980Y-91775828D02*
X136317619Y-91775828D01*
X136124095Y-91504895D02*
X136124095Y-92201580D01*
X136162800Y-92278990D01*
X136240209Y-92317695D01*
X136317619Y-92317695D01*
X136472438Y-91775828D02*
X136782076Y-91775828D01*
X136588552Y-91504895D02*
X136588552Y-92201580D01*
X136627257Y-92278990D01*
X136704666Y-92317695D01*
X136782076Y-92317695D01*
X189413847Y-56540400D02*
X189491257Y-56579104D01*
X189607371Y-56579104D01*
X189723485Y-56540400D01*
X189800895Y-56462990D01*
X189839600Y-56385580D01*
X189878304Y-56230761D01*
X189878304Y-56114647D01*
X189839600Y-55959828D01*
X189800895Y-55882419D01*
X189723485Y-55805009D01*
X189607371Y-55766304D01*
X189529961Y-55766304D01*
X189413847Y-55805009D01*
X189375142Y-55843714D01*
X189375142Y-56114647D01*
X189529961Y-56114647D01*
X189026800Y-55766304D02*
X189026800Y-56579104D01*
X188717161Y-56579104D01*
X188639752Y-56540400D01*
X188601047Y-56501695D01*
X188562342Y-56424285D01*
X188562342Y-56308171D01*
X188601047Y-56230761D01*
X188639752Y-56192057D01*
X188717161Y-56153352D01*
X189026800Y-56153352D01*
X188214000Y-55766304D02*
X188214000Y-56579104D01*
X187672133Y-56579104D02*
X187517314Y-56579104D01*
X187439904Y-56540400D01*
X187362495Y-56462990D01*
X187323790Y-56308171D01*
X187323790Y-56037238D01*
X187362495Y-55882419D01*
X187439904Y-55805009D01*
X187517314Y-55766304D01*
X187672133Y-55766304D01*
X187749542Y-55805009D01*
X187826952Y-55882419D01*
X187865657Y-56037238D01*
X187865657Y-56308171D01*
X187826952Y-56462990D01*
X187749542Y-56540400D01*
X187672133Y-56579104D01*
X186549695Y-55766304D02*
X187014152Y-55766304D01*
X186781923Y-55766304D02*
X186781923Y-56579104D01*
X186859333Y-56462990D01*
X186936742Y-56385580D01*
X187014152Y-56346876D01*
X190287123Y-54039104D02*
X189745257Y-53226304D01*
X189745257Y-54039104D02*
X190287123Y-53226304D01*
X189474323Y-53265009D02*
X189358209Y-53226304D01*
X189164685Y-53226304D01*
X189087276Y-53265009D01*
X189048571Y-53303714D01*
X189009866Y-53381123D01*
X189009866Y-53458533D01*
X189048571Y-53535942D01*
X189087276Y-53574647D01*
X189164685Y-53613352D01*
X189319504Y-53652057D01*
X189396914Y-53690761D01*
X189435619Y-53729466D01*
X189474323Y-53806876D01*
X189474323Y-53884285D01*
X189435619Y-53961695D01*
X189396914Y-54000400D01*
X189319504Y-54039104D01*
X189125980Y-54039104D01*
X189009866Y-54000400D01*
X188661523Y-53226304D02*
X188661523Y-54039104D01*
X188661523Y-53652057D02*
X188197066Y-53652057D01*
X188197066Y-53226304D02*
X188197066Y-54039104D01*
X187810019Y-54039104D02*
X187810019Y-53381123D01*
X187771314Y-53303714D01*
X187732609Y-53265009D01*
X187655200Y-53226304D01*
X187500380Y-53226304D01*
X187422971Y-53265009D01*
X187384266Y-53303714D01*
X187345561Y-53381123D01*
X187345561Y-54039104D01*
X187074628Y-54039104D02*
X186610171Y-54039104D01*
X186842400Y-53226304D02*
X186842400Y-54039104D01*
X183770209Y-71961828D02*
X183770209Y-72774628D01*
X183770209Y-72000533D02*
X183847619Y-71961828D01*
X184002438Y-71961828D01*
X184079847Y-72000533D01*
X184118552Y-72039238D01*
X184157257Y-72116647D01*
X184157257Y-72348876D01*
X184118552Y-72426285D01*
X184079847Y-72464990D01*
X184002438Y-72503695D01*
X183847619Y-72503695D01*
X183770209Y-72464990D01*
X184428190Y-71961828D02*
X184583009Y-72503695D01*
X184737828Y-72116647D01*
X184892647Y-72503695D01*
X185047466Y-71961828D01*
X185357104Y-72503695D02*
X185357104Y-71961828D01*
X185357104Y-72039238D02*
X185395809Y-72000533D01*
X185473219Y-71961828D01*
X185589333Y-71961828D01*
X185666742Y-72000533D01*
X185705447Y-72077942D01*
X185705447Y-72503695D01*
X185705447Y-72077942D02*
X185744152Y-72000533D01*
X185821561Y-71961828D01*
X185937676Y-71961828D01*
X186015085Y-72000533D01*
X186053790Y-72077942D01*
X186053790Y-72503695D01*
X141914609Y-61228990D02*
X141992019Y-61267695D01*
X142146838Y-61267695D01*
X142224247Y-61228990D01*
X142262952Y-61151580D01*
X142262952Y-61112876D01*
X142224247Y-61035466D01*
X142146838Y-60996761D01*
X142030723Y-60996761D01*
X141953314Y-60958057D01*
X141914609Y-60880647D01*
X141914609Y-60841942D01*
X141953314Y-60764533D01*
X142030723Y-60725828D01*
X142146838Y-60725828D01*
X142224247Y-60764533D01*
X142959638Y-61228990D02*
X142882228Y-61267695D01*
X142727409Y-61267695D01*
X142650000Y-61228990D01*
X142611295Y-61190285D01*
X142572590Y-61112876D01*
X142572590Y-60880647D01*
X142611295Y-60803238D01*
X142650000Y-60764533D01*
X142727409Y-60725828D01*
X142882228Y-60725828D01*
X142959638Y-60764533D01*
X143424095Y-61267695D02*
X143346685Y-61228990D01*
X143307980Y-61151580D01*
X143307980Y-60454895D01*
X137254895Y-60961142D02*
X137254895Y-60457980D01*
X137564533Y-60728914D01*
X137564533Y-60612800D01*
X137603238Y-60535390D01*
X137641942Y-60496685D01*
X137719352Y-60457980D01*
X137912876Y-60457980D01*
X137990285Y-60496685D01*
X138028990Y-60535390D01*
X138067695Y-60612800D01*
X138067695Y-60845028D01*
X138028990Y-60922438D01*
X137990285Y-60961142D01*
X137990285Y-60109638D02*
X138028990Y-60070933D01*
X138067695Y-60109638D01*
X138028990Y-60148342D01*
X137990285Y-60109638D01*
X138067695Y-60109638D01*
X137254895Y-59800000D02*
X137254895Y-59296838D01*
X137564533Y-59567771D01*
X137564533Y-59451657D01*
X137603238Y-59374247D01*
X137641942Y-59335542D01*
X137719352Y-59296838D01*
X137912876Y-59296838D01*
X137990285Y-59335542D01*
X138028990Y-59374247D01*
X138067695Y-59451657D01*
X138067695Y-59683885D01*
X138028990Y-59761295D01*
X137990285Y-59800000D01*
X137525828Y-59025904D02*
X138067695Y-58832380D01*
X137525828Y-58638857D01*
X118264609Y-47828990D02*
X118342019Y-47867695D01*
X118496838Y-47867695D01*
X118574247Y-47828990D01*
X118612952Y-47751580D01*
X118612952Y-47712876D01*
X118574247Y-47635466D01*
X118496838Y-47596761D01*
X118380723Y-47596761D01*
X118303314Y-47558057D01*
X118264609Y-47480647D01*
X118264609Y-47441942D01*
X118303314Y-47364533D01*
X118380723Y-47325828D01*
X118496838Y-47325828D01*
X118574247Y-47364533D01*
X119309638Y-47828990D02*
X119232228Y-47867695D01*
X119077409Y-47867695D01*
X119000000Y-47828990D01*
X118961295Y-47790285D01*
X118922590Y-47712876D01*
X118922590Y-47480647D01*
X118961295Y-47403238D01*
X119000000Y-47364533D01*
X119077409Y-47325828D01*
X119232228Y-47325828D01*
X119309638Y-47364533D01*
X119774095Y-47867695D02*
X119696685Y-47828990D01*
X119657980Y-47751580D01*
X119657980Y-47054895D01*
X96344380Y-59258990D02*
X96460495Y-59297695D01*
X96654019Y-59297695D01*
X96731428Y-59258990D01*
X96770133Y-59220285D01*
X96808838Y-59142876D01*
X96808838Y-59065466D01*
X96770133Y-58988057D01*
X96731428Y-58949352D01*
X96654019Y-58910647D01*
X96499200Y-58871942D01*
X96421790Y-58833238D01*
X96383085Y-58794533D01*
X96344380Y-58717123D01*
X96344380Y-58639714D01*
X96383085Y-58562304D01*
X96421790Y-58523600D01*
X96499200Y-58484895D01*
X96692723Y-58484895D01*
X96808838Y-58523600D01*
X97621638Y-59220285D02*
X97582933Y-59258990D01*
X97466819Y-59297695D01*
X97389409Y-59297695D01*
X97273295Y-59258990D01*
X97195885Y-59181580D01*
X97157180Y-59104171D01*
X97118476Y-58949352D01*
X97118476Y-58833238D01*
X97157180Y-58678419D01*
X97195885Y-58601009D01*
X97273295Y-58523600D01*
X97389409Y-58484895D01*
X97466819Y-58484895D01*
X97582933Y-58523600D01*
X97621638Y-58562304D01*
X98357028Y-59297695D02*
X97969980Y-59297695D01*
X97969980Y-58484895D01*
X184604780Y-47323828D02*
X184604780Y-47981809D01*
X184566076Y-48059219D01*
X184527371Y-48097923D01*
X184449961Y-48136628D01*
X184333847Y-48136628D01*
X184256438Y-48097923D01*
X184604780Y-47826990D02*
X184527371Y-47865695D01*
X184372552Y-47865695D01*
X184295142Y-47826990D01*
X184256438Y-47788285D01*
X184217733Y-47710876D01*
X184217733Y-47478647D01*
X184256438Y-47401238D01*
X184295142Y-47362533D01*
X184372552Y-47323828D01*
X184527371Y-47323828D01*
X184604780Y-47362533D01*
X184991828Y-47323828D02*
X184991828Y-47865695D01*
X184991828Y-47401238D02*
X185030533Y-47362533D01*
X185107942Y-47323828D01*
X185224057Y-47323828D01*
X185301466Y-47362533D01*
X185340171Y-47439942D01*
X185340171Y-47865695D01*
X186075561Y-47865695D02*
X186075561Y-47052895D01*
X186075561Y-47826990D02*
X185998152Y-47865695D01*
X185843333Y-47865695D01*
X185765923Y-47826990D01*
X185727219Y-47788285D01*
X185688514Y-47710876D01*
X185688514Y-47478647D01*
X185727219Y-47401238D01*
X185765923Y-47362533D01*
X185843333Y-47323828D01*
X185998152Y-47323828D01*
X186075561Y-47362533D01*
X188673619Y-60885009D02*
X188557504Y-60846304D01*
X188363980Y-60846304D01*
X188286571Y-60885009D01*
X188247866Y-60923714D01*
X188209161Y-61001123D01*
X188209161Y-61078533D01*
X188247866Y-61155942D01*
X188286571Y-61194647D01*
X188363980Y-61233352D01*
X188518800Y-61272057D01*
X188596209Y-61310761D01*
X188634914Y-61349466D01*
X188673619Y-61426876D01*
X188673619Y-61504285D01*
X188634914Y-61581695D01*
X188596209Y-61620400D01*
X188518800Y-61659104D01*
X188325276Y-61659104D01*
X188209161Y-61620400D01*
X187396361Y-60923714D02*
X187435066Y-60885009D01*
X187551180Y-60846304D01*
X187628590Y-60846304D01*
X187744704Y-60885009D01*
X187822114Y-60962419D01*
X187860819Y-61039828D01*
X187899523Y-61194647D01*
X187899523Y-61310761D01*
X187860819Y-61465580D01*
X187822114Y-61542990D01*
X187744704Y-61620400D01*
X187628590Y-61659104D01*
X187551180Y-61659104D01*
X187435066Y-61620400D01*
X187396361Y-61581695D01*
X186660971Y-60846304D02*
X187048019Y-60846304D01*
X187048019Y-61659104D01*
X184604780Y-77295828D02*
X184604780Y-77953809D01*
X184566076Y-78031219D01*
X184527371Y-78069923D01*
X184449961Y-78108628D01*
X184333847Y-78108628D01*
X184256438Y-78069923D01*
X184604780Y-77798990D02*
X184527371Y-77837695D01*
X184372552Y-77837695D01*
X184295142Y-77798990D01*
X184256438Y-77760285D01*
X184217733Y-77682876D01*
X184217733Y-77450647D01*
X184256438Y-77373238D01*
X184295142Y-77334533D01*
X184372552Y-77295828D01*
X184527371Y-77295828D01*
X184604780Y-77334533D01*
X184991828Y-77295828D02*
X184991828Y-77837695D01*
X184991828Y-77373238D02*
X185030533Y-77334533D01*
X185107942Y-77295828D01*
X185224057Y-77295828D01*
X185301466Y-77334533D01*
X185340171Y-77411942D01*
X185340171Y-77837695D01*
X186075561Y-77837695D02*
X186075561Y-77024895D01*
X186075561Y-77798990D02*
X185998152Y-77837695D01*
X185843333Y-77837695D01*
X185765923Y-77798990D01*
X185727219Y-77760285D01*
X185688514Y-77682876D01*
X185688514Y-77450647D01*
X185727219Y-77373238D01*
X185765923Y-77334533D01*
X185843333Y-77295828D01*
X185998152Y-77295828D01*
X186075561Y-77334533D01*
D11*
X95599428Y-53300380D02*
X96218476Y-53300380D01*
X95885142Y-53681333D01*
X96028000Y-53681333D01*
X96123238Y-53728952D01*
X96170857Y-53776571D01*
X96218476Y-53871809D01*
X96218476Y-54109904D01*
X96170857Y-54205142D01*
X96123238Y-54252761D01*
X96028000Y-54300380D01*
X95742285Y-54300380D01*
X95647047Y-54252761D01*
X95599428Y-54205142D01*
X96647047Y-54205142D02*
X96694666Y-54252761D01*
X96647047Y-54300380D01*
X96599428Y-54252761D01*
X96647047Y-54205142D01*
X96647047Y-54300380D01*
X97028000Y-53300380D02*
X97647047Y-53300380D01*
X97313714Y-53681333D01*
X97456571Y-53681333D01*
X97551809Y-53728952D01*
X97599428Y-53776571D01*
X97647047Y-53871809D01*
X97647047Y-54109904D01*
X97599428Y-54205142D01*
X97551809Y-54252761D01*
X97456571Y-54300380D01*
X97170857Y-54300380D01*
X97075619Y-54252761D01*
X97028000Y-54205142D01*
X97980380Y-53633714D02*
X98218476Y-54300380D01*
X98456571Y-53633714D01*
X159218380Y-100742571D02*
X159218380Y-100123523D01*
X159599333Y-100456857D01*
X159599333Y-100314000D01*
X159646952Y-100218761D01*
X159694571Y-100171142D01*
X159789809Y-100123523D01*
X160027904Y-100123523D01*
X160123142Y-100171142D01*
X160170761Y-100218761D01*
X160218380Y-100314000D01*
X160218380Y-100599714D01*
X160170761Y-100694952D01*
X160123142Y-100742571D01*
X160123142Y-99694952D02*
X160170761Y-99647333D01*
X160218380Y-99694952D01*
X160170761Y-99742571D01*
X160123142Y-99694952D01*
X160218380Y-99694952D01*
X159218380Y-99314000D02*
X159218380Y-98694952D01*
X159599333Y-99028285D01*
X159599333Y-98885428D01*
X159646952Y-98790190D01*
X159694571Y-98742571D01*
X159789809Y-98694952D01*
X160027904Y-98694952D01*
X160123142Y-98742571D01*
X160170761Y-98790190D01*
X160218380Y-98885428D01*
X160218380Y-99171142D01*
X160170761Y-99266380D01*
X160123142Y-99314000D01*
X159551714Y-98361619D02*
X160218380Y-98123523D01*
X159551714Y-97885428D01*
X189642571Y-66841619D02*
X189023523Y-66841619D01*
X189356857Y-66460666D01*
X189214000Y-66460666D01*
X189118761Y-66413047D01*
X189071142Y-66365428D01*
X189023523Y-66270190D01*
X189023523Y-66032095D01*
X189071142Y-65936857D01*
X189118761Y-65889238D01*
X189214000Y-65841619D01*
X189499714Y-65841619D01*
X189594952Y-65889238D01*
X189642571Y-65936857D01*
X188594952Y-65936857D02*
X188547333Y-65889238D01*
X188594952Y-65841619D01*
X188642571Y-65889238D01*
X188594952Y-65936857D01*
X188594952Y-65841619D01*
X188214000Y-66841619D02*
X187594952Y-66841619D01*
X187928285Y-66460666D01*
X187785428Y-66460666D01*
X187690190Y-66413047D01*
X187642571Y-66365428D01*
X187594952Y-66270190D01*
X187594952Y-66032095D01*
X187642571Y-65936857D01*
X187690190Y-65889238D01*
X187785428Y-65841619D01*
X188071142Y-65841619D01*
X188166380Y-65889238D01*
X188214000Y-65936857D01*
X187261619Y-66508285D02*
X187023523Y-65841619D01*
X186785428Y-66508285D01*
D10*
X141740438Y-59178990D02*
X141817847Y-59217695D01*
X141972666Y-59217695D01*
X142050076Y-59178990D01*
X142088780Y-59101580D01*
X142088780Y-59062876D01*
X142050076Y-58985466D01*
X141972666Y-58946761D01*
X141856552Y-58946761D01*
X141779142Y-58908057D01*
X141740438Y-58830647D01*
X141740438Y-58791942D01*
X141779142Y-58714533D01*
X141856552Y-58675828D01*
X141972666Y-58675828D01*
X142050076Y-58714533D01*
X142785466Y-59217695D02*
X142785466Y-58404895D01*
X142785466Y-59178990D02*
X142708057Y-59217695D01*
X142553238Y-59217695D01*
X142475828Y-59178990D01*
X142437123Y-59140285D01*
X142398419Y-59062876D01*
X142398419Y-58830647D01*
X142437123Y-58753238D01*
X142475828Y-58714533D01*
X142553238Y-58675828D01*
X142708057Y-58675828D01*
X142785466Y-58714533D01*
X143520857Y-59217695D02*
X143520857Y-58791942D01*
X143482152Y-58714533D01*
X143404742Y-58675828D01*
X143249923Y-58675828D01*
X143172514Y-58714533D01*
X143520857Y-59178990D02*
X143443447Y-59217695D01*
X143249923Y-59217695D01*
X143172514Y-59178990D01*
X143133809Y-59101580D01*
X143133809Y-59024171D01*
X143172514Y-58946761D01*
X143249923Y-58908057D01*
X143443447Y-58908057D01*
X143520857Y-58869352D01*
X188267219Y-63928171D02*
X188267219Y-63270190D01*
X188305923Y-63192780D01*
X188344628Y-63154076D01*
X188422038Y-63115371D01*
X188538152Y-63115371D01*
X188615561Y-63154076D01*
X188267219Y-63425009D02*
X188344628Y-63386304D01*
X188499447Y-63386304D01*
X188576857Y-63425009D01*
X188615561Y-63463714D01*
X188654266Y-63541123D01*
X188654266Y-63773352D01*
X188615561Y-63850761D01*
X188576857Y-63889466D01*
X188499447Y-63928171D01*
X188344628Y-63928171D01*
X188267219Y-63889466D01*
X187880171Y-63928171D02*
X187880171Y-63386304D01*
X187880171Y-63850761D02*
X187841466Y-63889466D01*
X187764057Y-63928171D01*
X187647942Y-63928171D01*
X187570533Y-63889466D01*
X187531828Y-63812057D01*
X187531828Y-63386304D01*
X186796438Y-63386304D02*
X186796438Y-64199104D01*
X186796438Y-63425009D02*
X186873847Y-63386304D01*
X187028666Y-63386304D01*
X187106076Y-63425009D01*
X187144780Y-63463714D01*
X187183485Y-63541123D01*
X187183485Y-63773352D01*
X187144780Y-63850761D01*
X187106076Y-63889466D01*
X187028666Y-63928171D01*
X186873847Y-63928171D01*
X186796438Y-63889466D01*
X183264628Y-74755828D02*
X183458152Y-75297695D01*
X183651676Y-74755828D01*
X183961314Y-75297695D02*
X183961314Y-74484895D01*
X183961314Y-74794533D02*
X184038723Y-74755828D01*
X184193542Y-74755828D01*
X184270952Y-74794533D01*
X184309657Y-74833238D01*
X184348361Y-74910647D01*
X184348361Y-75142876D01*
X184309657Y-75220285D01*
X184270952Y-75258990D01*
X184193542Y-75297695D01*
X184038723Y-75297695D01*
X183961314Y-75258990D01*
X185045047Y-75297695D02*
X185045047Y-74871942D01*
X185006342Y-74794533D01*
X184928933Y-74755828D01*
X184774114Y-74755828D01*
X184696704Y-74794533D01*
X185045047Y-75258990D02*
X184967638Y-75297695D01*
X184774114Y-75297695D01*
X184696704Y-75258990D01*
X184658000Y-75181580D01*
X184658000Y-75104171D01*
X184696704Y-75026761D01*
X184774114Y-74988057D01*
X184967638Y-74988057D01*
X185045047Y-74949352D01*
X185315980Y-74755828D02*
X185625619Y-74755828D01*
X185432095Y-74484895D02*
X185432095Y-75181580D01*
X185470800Y-75258990D01*
X185548209Y-75297695D01*
X185625619Y-75297695D01*
X185780438Y-74755828D02*
X186090076Y-74755828D01*
X185896552Y-74484895D02*
X185896552Y-75181580D01*
X185935257Y-75258990D01*
X186012666Y-75297695D01*
X186090076Y-75297695D01*
X183264628Y-44783828D02*
X183458152Y-45325695D01*
X183651676Y-44783828D01*
X183961314Y-45325695D02*
X183961314Y-44512895D01*
X183961314Y-44822533D02*
X184038723Y-44783828D01*
X184193542Y-44783828D01*
X184270952Y-44822533D01*
X184309657Y-44861238D01*
X184348361Y-44938647D01*
X184348361Y-45170876D01*
X184309657Y-45248285D01*
X184270952Y-45286990D01*
X184193542Y-45325695D01*
X184038723Y-45325695D01*
X183961314Y-45286990D01*
X185045047Y-45325695D02*
X185045047Y-44899942D01*
X185006342Y-44822533D01*
X184928933Y-44783828D01*
X184774114Y-44783828D01*
X184696704Y-44822533D01*
X185045047Y-45286990D02*
X184967638Y-45325695D01*
X184774114Y-45325695D01*
X184696704Y-45286990D01*
X184658000Y-45209580D01*
X184658000Y-45132171D01*
X184696704Y-45054761D01*
X184774114Y-45016057D01*
X184967638Y-45016057D01*
X185045047Y-44977352D01*
X185315980Y-44783828D02*
X185625619Y-44783828D01*
X185432095Y-44512895D02*
X185432095Y-45209580D01*
X185470800Y-45286990D01*
X185548209Y-45325695D01*
X185625619Y-45325695D01*
X185780438Y-44783828D02*
X186090076Y-44783828D01*
X185896552Y-44512895D02*
X185896552Y-45209580D01*
X185935257Y-45286990D01*
X186012666Y-45325695D01*
X186090076Y-45325695D01*
D12*
X146395638Y-59800591D02*
X146473047Y-59800591D01*
X146550457Y-59839296D01*
X146589161Y-59878000D01*
X146627866Y-59955410D01*
X146666571Y-60110229D01*
X146666571Y-60303753D01*
X146627866Y-60458572D01*
X146589161Y-60535981D01*
X146550457Y-60574686D01*
X146473047Y-60613391D01*
X146395638Y-60613391D01*
X146318228Y-60574686D01*
X146279523Y-60535981D01*
X146240819Y-60458572D01*
X146202114Y-60303753D01*
X146202114Y-60110229D01*
X146240819Y-59955410D01*
X146279523Y-59878000D01*
X146318228Y-59839296D01*
X146395638Y-59800591D01*
X147440666Y-60613391D02*
X146976209Y-60613391D01*
X147208438Y-60613391D02*
X147208438Y-59800591D01*
X147131028Y-59916705D01*
X147053619Y-59994115D01*
X146976209Y-60032819D01*
X147789009Y-60303753D02*
X148408285Y-60303753D01*
X148756628Y-59878000D02*
X148795333Y-59839296D01*
X148872742Y-59800591D01*
X149066266Y-59800591D01*
X149143676Y-59839296D01*
X149182380Y-59878000D01*
X149221085Y-59955410D01*
X149221085Y-60032819D01*
X149182380Y-60148934D01*
X148717923Y-60613391D01*
X149221085Y-60613391D01*
X149608133Y-60613391D02*
X149762952Y-60613391D01*
X149840361Y-60574686D01*
X149879066Y-60535981D01*
X149956476Y-60419867D01*
X149995180Y-60265048D01*
X149995180Y-59955410D01*
X149956476Y-59878000D01*
X149917771Y-59839296D01*
X149840361Y-59800591D01*
X149685542Y-59800591D01*
X149608133Y-59839296D01*
X149569428Y-59878000D01*
X149530723Y-59955410D01*
X149530723Y-60148934D01*
X149569428Y-60226343D01*
X149608133Y-60265048D01*
X149685542Y-60303753D01*
X149840361Y-60303753D01*
X149917771Y-60265048D01*
X149956476Y-60226343D01*
X149995180Y-60148934D01*
X150343523Y-60303753D02*
X150962800Y-60303753D01*
X151311142Y-59878000D02*
X151349847Y-59839296D01*
X151427257Y-59800591D01*
X151620780Y-59800591D01*
X151698190Y-59839296D01*
X151736895Y-59878000D01*
X151775600Y-59955410D01*
X151775600Y-60032819D01*
X151736895Y-60148934D01*
X151272438Y-60613391D01*
X151775600Y-60613391D01*
X152278761Y-59800591D02*
X152356171Y-59800591D01*
X152433580Y-59839296D01*
X152472285Y-59878000D01*
X152510990Y-59955410D01*
X152549695Y-60110229D01*
X152549695Y-60303753D01*
X152510990Y-60458572D01*
X152472285Y-60535981D01*
X152433580Y-60574686D01*
X152356171Y-60613391D01*
X152278761Y-60613391D01*
X152201352Y-60574686D01*
X152162647Y-60535981D01*
X152123942Y-60458572D01*
X152085238Y-60303753D01*
X152085238Y-60110229D01*
X152123942Y-59955410D01*
X152162647Y-59878000D01*
X152201352Y-59839296D01*
X152278761Y-59800591D01*
X152859333Y-59878000D02*
X152898038Y-59839296D01*
X152975447Y-59800591D01*
X153168971Y-59800591D01*
X153246380Y-59839296D01*
X153285085Y-59878000D01*
X153323790Y-59955410D01*
X153323790Y-60032819D01*
X153285085Y-60148934D01*
X152820628Y-60613391D01*
X153323790Y-60613391D01*
X153594723Y-59800591D02*
X154097885Y-59800591D01*
X153826952Y-60110229D01*
X153943066Y-60110229D01*
X154020476Y-60148934D01*
X154059180Y-60187638D01*
X154097885Y-60265048D01*
X154097885Y-60458572D01*
X154059180Y-60535981D01*
X154020476Y-60574686D01*
X153943066Y-60613391D01*
X153710838Y-60613391D01*
X153633428Y-60574686D01*
X153594723Y-60535981D01*
X148466342Y-61921999D02*
X148195409Y-61534951D01*
X148001885Y-61921999D02*
X148001885Y-61109199D01*
X148311523Y-61109199D01*
X148388933Y-61147904D01*
X148427638Y-61186608D01*
X148466342Y-61264018D01*
X148466342Y-61380132D01*
X148427638Y-61457542D01*
X148388933Y-61496246D01*
X148311523Y-61534951D01*
X148001885Y-61534951D01*
X149124323Y-61883294D02*
X149046914Y-61921999D01*
X148892095Y-61921999D01*
X148814685Y-61883294D01*
X148775980Y-61805884D01*
X148775980Y-61496246D01*
X148814685Y-61418837D01*
X148892095Y-61380132D01*
X149046914Y-61380132D01*
X149124323Y-61418837D01*
X149163028Y-61496246D01*
X149163028Y-61573656D01*
X148775980Y-61651065D01*
X149433961Y-61380132D02*
X149627485Y-61921999D01*
X149821009Y-61380132D01*
X151175676Y-61921999D02*
X150711219Y-61921999D01*
X150943447Y-61921999D02*
X150943447Y-61109199D01*
X150866038Y-61225313D01*
X150788628Y-61302723D01*
X150711219Y-61341427D01*
X151524019Y-61844589D02*
X151562723Y-61883294D01*
X151524019Y-61921999D01*
X151485314Y-61883294D01*
X151524019Y-61844589D01*
X151524019Y-61921999D01*
X152065885Y-61109199D02*
X152143295Y-61109199D01*
X152220704Y-61147904D01*
X152259409Y-61186608D01*
X152298114Y-61264018D01*
X152336819Y-61418837D01*
X152336819Y-61612361D01*
X152298114Y-61767180D01*
X152259409Y-61844589D01*
X152220704Y-61883294D01*
X152143295Y-61921999D01*
X152065885Y-61921999D01*
X151988476Y-61883294D01*
X151949771Y-61844589D01*
X151911066Y-61767180D01*
X151872361Y-61612361D01*
X151872361Y-61418837D01*
X151911066Y-61264018D01*
X151949771Y-61186608D01*
X151988476Y-61147904D01*
X152065885Y-61109199D01*
D10*
X165174990Y-99773619D02*
X165213695Y-99657504D01*
X165213695Y-99463980D01*
X165174990Y-99386571D01*
X165136285Y-99347866D01*
X165058876Y-99309161D01*
X164981466Y-99309161D01*
X164904057Y-99347866D01*
X164865352Y-99386571D01*
X164826647Y-99463980D01*
X164787942Y-99618800D01*
X164749238Y-99696209D01*
X164710533Y-99734914D01*
X164633123Y-99773619D01*
X164555714Y-99773619D01*
X164478304Y-99734914D01*
X164439600Y-99696209D01*
X164400895Y-99618800D01*
X164400895Y-99425276D01*
X164439600Y-99309161D01*
X165136285Y-98496361D02*
X165174990Y-98535066D01*
X165213695Y-98651180D01*
X165213695Y-98728590D01*
X165174990Y-98844704D01*
X165097580Y-98922114D01*
X165020171Y-98960819D01*
X164865352Y-98999523D01*
X164749238Y-98999523D01*
X164594419Y-98960819D01*
X164517009Y-98922114D01*
X164439600Y-98844704D01*
X164400895Y-98728590D01*
X164400895Y-98651180D01*
X164439600Y-98535066D01*
X164478304Y-98496361D01*
X165213695Y-97760971D02*
X165213695Y-98148019D01*
X164400895Y-98148019D01*
X170288780Y-84275828D02*
X170288780Y-84933809D01*
X170250076Y-85011219D01*
X170211371Y-85049923D01*
X170133961Y-85088628D01*
X170017847Y-85088628D01*
X169940438Y-85049923D01*
X170288780Y-84778990D02*
X170211371Y-84817695D01*
X170056552Y-84817695D01*
X169979142Y-84778990D01*
X169940438Y-84740285D01*
X169901733Y-84662876D01*
X169901733Y-84430647D01*
X169940438Y-84353238D01*
X169979142Y-84314533D01*
X170056552Y-84275828D01*
X170211371Y-84275828D01*
X170288780Y-84314533D01*
X170675828Y-84275828D02*
X170675828Y-84817695D01*
X170675828Y-84353238D02*
X170714533Y-84314533D01*
X170791942Y-84275828D01*
X170908057Y-84275828D01*
X170985466Y-84314533D01*
X171024171Y-84391942D01*
X171024171Y-84817695D01*
X171759561Y-84817695D02*
X171759561Y-84004895D01*
X171759561Y-84778990D02*
X171682152Y-84817695D01*
X171527333Y-84817695D01*
X171449923Y-84778990D01*
X171411219Y-84740285D01*
X171372514Y-84662876D01*
X171372514Y-84430647D01*
X171411219Y-84353238D01*
X171449923Y-84314533D01*
X171527333Y-84275828D01*
X171682152Y-84275828D01*
X171759561Y-84314533D01*
X159945104Y-11830876D02*
X159132304Y-12372742D01*
X159945104Y-12372742D02*
X159132304Y-11830876D01*
X159171009Y-12643676D02*
X159132304Y-12759790D01*
X159132304Y-12953314D01*
X159171009Y-13030723D01*
X159209714Y-13069428D01*
X159287123Y-13108133D01*
X159364533Y-13108133D01*
X159441942Y-13069428D01*
X159480647Y-13030723D01*
X159519352Y-12953314D01*
X159558057Y-12798495D01*
X159596761Y-12721085D01*
X159635466Y-12682380D01*
X159712876Y-12643676D01*
X159790285Y-12643676D01*
X159867695Y-12682380D01*
X159906400Y-12721085D01*
X159945104Y-12798495D01*
X159945104Y-12992019D01*
X159906400Y-13108133D01*
X159132304Y-13456476D02*
X159945104Y-13456476D01*
X159558057Y-13456476D02*
X159558057Y-13920933D01*
X159132304Y-13920933D02*
X159945104Y-13920933D01*
X159945104Y-14307980D02*
X159287123Y-14307980D01*
X159209714Y-14346685D01*
X159171009Y-14385390D01*
X159132304Y-14462800D01*
X159132304Y-14617619D01*
X159171009Y-14695028D01*
X159209714Y-14733733D01*
X159287123Y-14772438D01*
X159945104Y-14772438D01*
X159945104Y-15043371D02*
X159945104Y-15507828D01*
X159132304Y-15275600D02*
X159945104Y-15275600D01*
D11*
X172759619Y-12541428D02*
X172759619Y-13160476D01*
X172378666Y-12827142D01*
X172378666Y-12970000D01*
X172331047Y-13065238D01*
X172283428Y-13112857D01*
X172188190Y-13160476D01*
X171950095Y-13160476D01*
X171854857Y-13112857D01*
X171807238Y-13065238D01*
X171759619Y-12970000D01*
X171759619Y-12684285D01*
X171807238Y-12589047D01*
X171854857Y-12541428D01*
X171854857Y-13589047D02*
X171807238Y-13636666D01*
X171759619Y-13589047D01*
X171807238Y-13541428D01*
X171854857Y-13589047D01*
X171759619Y-13589047D01*
X172759619Y-13970000D02*
X172759619Y-14589047D01*
X172378666Y-14255714D01*
X172378666Y-14398571D01*
X172331047Y-14493809D01*
X172283428Y-14541428D01*
X172188190Y-14589047D01*
X171950095Y-14589047D01*
X171854857Y-14541428D01*
X171807238Y-14493809D01*
X171759619Y-14398571D01*
X171759619Y-14112857D01*
X171807238Y-14017619D01*
X171854857Y-13970000D01*
X172426285Y-14922380D02*
X171759619Y-15160476D01*
X172426285Y-15398571D01*
D10*
X169656628Y-91425828D02*
X169850152Y-91967695D01*
X170043676Y-91425828D01*
X170353314Y-91967695D02*
X170353314Y-91154895D01*
X170353314Y-91464533D02*
X170430723Y-91425828D01*
X170585542Y-91425828D01*
X170662952Y-91464533D01*
X170701657Y-91503238D01*
X170740361Y-91580647D01*
X170740361Y-91812876D01*
X170701657Y-91890285D01*
X170662952Y-91928990D01*
X170585542Y-91967695D01*
X170430723Y-91967695D01*
X170353314Y-91928990D01*
X171437047Y-91967695D02*
X171437047Y-91541942D01*
X171398342Y-91464533D01*
X171320933Y-91425828D01*
X171166114Y-91425828D01*
X171088704Y-91464533D01*
X171437047Y-91928990D02*
X171359638Y-91967695D01*
X171166114Y-91967695D01*
X171088704Y-91928990D01*
X171050000Y-91851580D01*
X171050000Y-91774171D01*
X171088704Y-91696761D01*
X171166114Y-91658057D01*
X171359638Y-91658057D01*
X171437047Y-91619352D01*
X171707980Y-91425828D02*
X172017619Y-91425828D01*
X171824095Y-91154895D02*
X171824095Y-91851580D01*
X171862800Y-91928990D01*
X171940209Y-91967695D01*
X172017619Y-91967695D01*
X172172438Y-91425828D02*
X172482076Y-91425828D01*
X172288552Y-91154895D02*
X172288552Y-91851580D01*
X172327257Y-91928990D01*
X172404666Y-91967695D01*
X172482076Y-91967695D01*
X164263009Y-13491028D02*
X164224304Y-13607142D01*
X164224304Y-13800666D01*
X164263009Y-13878076D01*
X164301714Y-13916780D01*
X164379123Y-13955485D01*
X164456533Y-13955485D01*
X164533942Y-13916780D01*
X164572647Y-13878076D01*
X164611352Y-13800666D01*
X164650057Y-13645847D01*
X164688761Y-13568438D01*
X164727466Y-13529733D01*
X164804876Y-13491028D01*
X164882285Y-13491028D01*
X164959695Y-13529733D01*
X164998400Y-13568438D01*
X165037104Y-13645847D01*
X165037104Y-13839371D01*
X164998400Y-13955485D01*
X164224304Y-14303828D02*
X165037104Y-14303828D01*
X165037104Y-14497352D01*
X164998400Y-14613466D01*
X164920990Y-14690876D01*
X164843580Y-14729580D01*
X164688761Y-14768285D01*
X164572647Y-14768285D01*
X164417828Y-14729580D01*
X164340419Y-14690876D01*
X164263009Y-14613466D01*
X164224304Y-14497352D01*
X164224304Y-14303828D01*
X164456533Y-15077923D02*
X164456533Y-15464971D01*
X164224304Y-15000514D02*
X165037104Y-15271447D01*
X164224304Y-15542380D01*
X162131828Y-99367219D02*
X162789809Y-99367219D01*
X162867219Y-99405923D01*
X162905923Y-99444628D01*
X162944628Y-99522038D01*
X162944628Y-99638152D01*
X162905923Y-99715561D01*
X162634990Y-99367219D02*
X162673695Y-99444628D01*
X162673695Y-99599447D01*
X162634990Y-99676857D01*
X162596285Y-99715561D01*
X162518876Y-99754266D01*
X162286647Y-99754266D01*
X162209238Y-99715561D01*
X162170533Y-99676857D01*
X162131828Y-99599447D01*
X162131828Y-99444628D01*
X162170533Y-99367219D01*
X162131828Y-98980171D02*
X162673695Y-98980171D01*
X162209238Y-98980171D02*
X162170533Y-98941466D01*
X162131828Y-98864057D01*
X162131828Y-98747942D01*
X162170533Y-98670533D01*
X162247942Y-98631828D01*
X162673695Y-98631828D01*
X162673695Y-97896438D02*
X161860895Y-97896438D01*
X162634990Y-97896438D02*
X162673695Y-97973847D01*
X162673695Y-98128666D01*
X162634990Y-98206076D01*
X162596285Y-98244780D01*
X162518876Y-98283485D01*
X162286647Y-98283485D01*
X162209238Y-98244780D01*
X162170533Y-98206076D01*
X162131828Y-98128666D01*
X162131828Y-97973847D01*
X162170533Y-97896438D01*
X96974780Y-56213828D02*
X96974780Y-56871809D01*
X96936076Y-56949219D01*
X96897371Y-56987923D01*
X96819961Y-57026628D01*
X96703847Y-57026628D01*
X96626438Y-56987923D01*
X96974780Y-56716990D02*
X96897371Y-56755695D01*
X96742552Y-56755695D01*
X96665142Y-56716990D01*
X96626438Y-56678285D01*
X96587733Y-56600876D01*
X96587733Y-56368647D01*
X96626438Y-56291238D01*
X96665142Y-56252533D01*
X96742552Y-56213828D01*
X96897371Y-56213828D01*
X96974780Y-56252533D01*
X97361828Y-56213828D02*
X97361828Y-56755695D01*
X97361828Y-56291238D02*
X97400533Y-56252533D01*
X97477942Y-56213828D01*
X97594057Y-56213828D01*
X97671466Y-56252533D01*
X97710171Y-56329942D01*
X97710171Y-56755695D01*
X98445561Y-56755695D02*
X98445561Y-55942895D01*
X98445561Y-56716990D02*
X98368152Y-56755695D01*
X98213333Y-56755695D01*
X98135923Y-56716990D01*
X98097219Y-56678285D01*
X98058514Y-56600876D01*
X98058514Y-56368647D01*
X98097219Y-56291238D01*
X98135923Y-56252533D01*
X98213333Y-56213828D01*
X98368152Y-56213828D01*
X98445561Y-56252533D01*
X172020895Y-101387123D02*
X172833695Y-100845257D01*
X172020895Y-100845257D02*
X172833695Y-101387123D01*
X172794990Y-100574323D02*
X172833695Y-100458209D01*
X172833695Y-100264685D01*
X172794990Y-100187276D01*
X172756285Y-100148571D01*
X172678876Y-100109866D01*
X172601466Y-100109866D01*
X172524057Y-100148571D01*
X172485352Y-100187276D01*
X172446647Y-100264685D01*
X172407942Y-100419504D01*
X172369238Y-100496914D01*
X172330533Y-100535619D01*
X172253123Y-100574323D01*
X172175714Y-100574323D01*
X172098304Y-100535619D01*
X172059600Y-100496914D01*
X172020895Y-100419504D01*
X172020895Y-100225980D01*
X172059600Y-100109866D01*
X172833695Y-99761523D02*
X172020895Y-99761523D01*
X172407942Y-99761523D02*
X172407942Y-99297066D01*
X172833695Y-99297066D02*
X172020895Y-99297066D01*
X172020895Y-98910019D02*
X172678876Y-98910019D01*
X172756285Y-98871314D01*
X172794990Y-98832609D01*
X172833695Y-98755200D01*
X172833695Y-98600380D01*
X172794990Y-98522971D01*
X172756285Y-98484266D01*
X172678876Y-98445561D01*
X172020895Y-98445561D01*
X172020895Y-98174628D02*
X172020895Y-97710171D01*
X172833695Y-97942400D02*
X172020895Y-97942400D01*
X96325028Y-61798990D02*
X96441142Y-61837695D01*
X96634666Y-61837695D01*
X96712076Y-61798990D01*
X96750780Y-61760285D01*
X96789485Y-61682876D01*
X96789485Y-61605466D01*
X96750780Y-61528057D01*
X96712076Y-61489352D01*
X96634666Y-61450647D01*
X96479847Y-61411942D01*
X96402438Y-61373238D01*
X96363733Y-61334533D01*
X96325028Y-61257123D01*
X96325028Y-61179714D01*
X96363733Y-61102304D01*
X96402438Y-61063600D01*
X96479847Y-61024895D01*
X96673371Y-61024895D01*
X96789485Y-61063600D01*
X97137828Y-61837695D02*
X97137828Y-61024895D01*
X97331352Y-61024895D01*
X97447466Y-61063600D01*
X97524876Y-61141009D01*
X97563580Y-61218419D01*
X97602285Y-61373238D01*
X97602285Y-61489352D01*
X97563580Y-61644171D01*
X97524876Y-61721580D01*
X97447466Y-61798990D01*
X97331352Y-61837695D01*
X97137828Y-61837695D01*
X97911923Y-61605466D02*
X98298971Y-61605466D01*
X97834514Y-61837695D02*
X98105447Y-61024895D01*
X98376380Y-61837695D01*
D11*
X161238095Y-89852380D02*
X161238095Y-90661904D01*
X161285714Y-90757142D01*
X161333333Y-90804761D01*
X161428571Y-90852380D01*
X161619047Y-90852380D01*
X161714285Y-90804761D01*
X161761904Y-90757142D01*
X161809523Y-90661904D01*
X161809523Y-89852380D01*
X162809523Y-90852380D02*
X162238095Y-90852380D01*
X162523809Y-90852380D02*
X162523809Y-89852380D01*
X162428571Y-89995238D01*
X162333333Y-90090476D01*
X162238095Y-90138095D01*
X166638095Y-85002380D02*
X167209523Y-85002380D01*
X166923809Y-86002380D02*
X166923809Y-85002380D01*
X167542857Y-86002380D02*
X167542857Y-85002380D01*
X167923809Y-85002380D01*
X168019047Y-85050000D01*
X168066666Y-85097619D01*
X168114285Y-85192857D01*
X168114285Y-85335714D01*
X168066666Y-85430952D01*
X168019047Y-85478571D01*
X167923809Y-85526190D01*
X167542857Y-85526190D01*
X169066666Y-86002380D02*
X168495238Y-86002380D01*
X168780952Y-86002380D02*
X168780952Y-85002380D01*
X168685714Y-85145238D01*
X168590476Y-85240476D01*
X168495238Y-85288095D01*
X115833333Y-62927142D02*
X115785714Y-62974761D01*
X115642857Y-63022380D01*
X115547619Y-63022380D01*
X115404761Y-62974761D01*
X115309523Y-62879523D01*
X115261904Y-62784285D01*
X115214285Y-62593809D01*
X115214285Y-62450952D01*
X115261904Y-62260476D01*
X115309523Y-62165238D01*
X115404761Y-62070000D01*
X115547619Y-62022380D01*
X115642857Y-62022380D01*
X115785714Y-62070000D01*
X115833333Y-62117619D01*
X116690476Y-62022380D02*
X116500000Y-62022380D01*
X116404761Y-62070000D01*
X116357142Y-62117619D01*
X116261904Y-62260476D01*
X116214285Y-62450952D01*
X116214285Y-62831904D01*
X116261904Y-62927142D01*
X116309523Y-62974761D01*
X116404761Y-63022380D01*
X116595238Y-63022380D01*
X116690476Y-62974761D01*
X116738095Y-62927142D01*
X116785714Y-62831904D01*
X116785714Y-62593809D01*
X116738095Y-62498571D01*
X116690476Y-62450952D01*
X116595238Y-62403333D01*
X116404761Y-62403333D01*
X116309523Y-62450952D01*
X116261904Y-62498571D01*
X116214285Y-62593809D01*
X114638095Y-48552380D02*
X115209523Y-48552380D01*
X114923809Y-49552380D02*
X114923809Y-48552380D01*
X115542857Y-49552380D02*
X115542857Y-48552380D01*
X115923809Y-48552380D01*
X116019047Y-48600000D01*
X116066666Y-48647619D01*
X116114285Y-48742857D01*
X116114285Y-48885714D01*
X116066666Y-48980952D01*
X116019047Y-49028571D01*
X115923809Y-49076190D01*
X115542857Y-49076190D01*
X116447619Y-48552380D02*
X117114285Y-48552380D01*
X116685714Y-49552380D01*
X187641666Y-39597380D02*
X187641666Y-40311666D01*
X187594047Y-40454523D01*
X187498809Y-40549761D01*
X187355952Y-40597380D01*
X187260714Y-40597380D01*
X188546428Y-39597380D02*
X188355952Y-39597380D01*
X188260714Y-39645000D01*
X188213095Y-39692619D01*
X188117857Y-39835476D01*
X188070238Y-40025952D01*
X188070238Y-40406904D01*
X188117857Y-40502142D01*
X188165476Y-40549761D01*
X188260714Y-40597380D01*
X188451190Y-40597380D01*
X188546428Y-40549761D01*
X188594047Y-40502142D01*
X188641666Y-40406904D01*
X188641666Y-40168809D01*
X188594047Y-40073571D01*
X188546428Y-40025952D01*
X188451190Y-39978333D01*
X188260714Y-39978333D01*
X188165476Y-40025952D01*
X188117857Y-40073571D01*
X188070238Y-40168809D01*
X139833333Y-58022380D02*
X139500000Y-57546190D01*
X139261904Y-58022380D02*
X139261904Y-57022380D01*
X139642857Y-57022380D01*
X139738095Y-57070000D01*
X139785714Y-57117619D01*
X139833333Y-57212857D01*
X139833333Y-57355714D01*
X139785714Y-57450952D01*
X139738095Y-57498571D01*
X139642857Y-57546190D01*
X139261904Y-57546190D01*
X140690476Y-57355714D02*
X140690476Y-58022380D01*
X140452380Y-56974761D02*
X140214285Y-57689047D01*
X140833333Y-57689047D01*
X139883333Y-63052380D02*
X139550000Y-62576190D01*
X139311904Y-63052380D02*
X139311904Y-62052380D01*
X139692857Y-62052380D01*
X139788095Y-62100000D01*
X139835714Y-62147619D01*
X139883333Y-62242857D01*
X139883333Y-62385714D01*
X139835714Y-62480952D01*
X139788095Y-62528571D01*
X139692857Y-62576190D01*
X139311904Y-62576190D01*
X140216666Y-62052380D02*
X140835714Y-62052380D01*
X140502380Y-62433333D01*
X140645238Y-62433333D01*
X140740476Y-62480952D01*
X140788095Y-62528571D01*
X140835714Y-62623809D01*
X140835714Y-62861904D01*
X140788095Y-62957142D01*
X140740476Y-63004761D01*
X140645238Y-63052380D01*
X140359523Y-63052380D01*
X140264285Y-63004761D01*
X140216666Y-62957142D01*
X161833333Y-83952380D02*
X161357142Y-83952380D01*
X161357142Y-82952380D01*
X162690476Y-83952380D02*
X162119047Y-83952380D01*
X162404761Y-83952380D02*
X162404761Y-82952380D01*
X162309523Y-83095238D01*
X162214285Y-83190476D01*
X162119047Y-83238095D01*
X132833333Y-57927142D02*
X132785714Y-57974761D01*
X132642857Y-58022380D01*
X132547619Y-58022380D01*
X132404761Y-57974761D01*
X132309523Y-57879523D01*
X132261904Y-57784285D01*
X132214285Y-57593809D01*
X132214285Y-57450952D01*
X132261904Y-57260476D01*
X132309523Y-57165238D01*
X132404761Y-57070000D01*
X132547619Y-57022380D01*
X132642857Y-57022380D01*
X132785714Y-57070000D01*
X132833333Y-57117619D01*
X133166666Y-57022380D02*
X133785714Y-57022380D01*
X133452380Y-57403333D01*
X133595238Y-57403333D01*
X133690476Y-57450952D01*
X133738095Y-57498571D01*
X133785714Y-57593809D01*
X133785714Y-57831904D01*
X133738095Y-57927142D01*
X133690476Y-57974761D01*
X133595238Y-58022380D01*
X133309523Y-58022380D01*
X133214285Y-57974761D01*
X133166666Y-57927142D01*
X181238095Y-99252380D02*
X181238095Y-98252380D01*
X181238095Y-98728571D02*
X181809523Y-98728571D01*
X181809523Y-99252380D02*
X181809523Y-98252380D01*
X182761904Y-98252380D02*
X182285714Y-98252380D01*
X182238095Y-98728571D01*
X182285714Y-98680952D01*
X182380952Y-98633333D01*
X182619047Y-98633333D01*
X182714285Y-98680952D01*
X182761904Y-98728571D01*
X182809523Y-98823809D01*
X182809523Y-99061904D01*
X182761904Y-99157142D01*
X182714285Y-99204761D01*
X182619047Y-99252380D01*
X182380952Y-99252380D01*
X182285714Y-99204761D01*
X182238095Y-99157142D01*
X175666666Y-91748571D02*
X175333333Y-91748571D01*
X175333333Y-92272380D02*
X175333333Y-91272380D01*
X175809523Y-91272380D01*
X176714285Y-92272380D02*
X176142857Y-92272380D01*
X176428571Y-92272380D02*
X176428571Y-91272380D01*
X176333333Y-91415238D01*
X176238095Y-91510476D01*
X176142857Y-91558095D01*
X160283333Y-34502380D02*
X159950000Y-34026190D01*
X159711904Y-34502380D02*
X159711904Y-33502380D01*
X160092857Y-33502380D01*
X160188095Y-33550000D01*
X160235714Y-33597619D01*
X160283333Y-33692857D01*
X160283333Y-33835714D01*
X160235714Y-33930952D01*
X160188095Y-33978571D01*
X160092857Y-34026190D01*
X159711904Y-34026190D01*
X160616666Y-33502380D02*
X161283333Y-33502380D01*
X160854761Y-34502380D01*
X179362380Y-60761904D02*
X180171904Y-60761904D01*
X180267142Y-60714285D01*
X180314761Y-60666666D01*
X180362380Y-60571428D01*
X180362380Y-60380952D01*
X180314761Y-60285714D01*
X180267142Y-60238095D01*
X180171904Y-60190476D01*
X179362380Y-60190476D01*
X179457619Y-59761904D02*
X179410000Y-59714285D01*
X179362380Y-59619047D01*
X179362380Y-59380952D01*
X179410000Y-59285714D01*
X179457619Y-59238095D01*
X179552857Y-59190476D01*
X179648095Y-59190476D01*
X179790952Y-59238095D01*
X180362380Y-59809523D01*
X180362380Y-59190476D01*
X166487619Y-39442976D02*
X165487619Y-39709642D01*
X166487619Y-39976309D01*
X165487619Y-40242976D02*
X166487619Y-40242976D01*
X166487619Y-40547738D01*
X166440000Y-40623928D01*
X166392380Y-40662023D01*
X166297142Y-40700119D01*
X166154285Y-40700119D01*
X166059047Y-40662023D01*
X166011428Y-40623928D01*
X165963809Y-40547738D01*
X165963809Y-40242976D01*
X129975238Y-79299880D02*
X129927619Y-79414166D01*
X129927619Y-79604642D01*
X129975238Y-79680833D01*
X130022857Y-79718928D01*
X130118095Y-79757023D01*
X130213333Y-79757023D01*
X130308571Y-79718928D01*
X130356190Y-79680833D01*
X130403809Y-79604642D01*
X130451428Y-79452261D01*
X130499047Y-79376071D01*
X130546666Y-79337976D01*
X130641904Y-79299880D01*
X130737142Y-79299880D01*
X130832380Y-79337976D01*
X130880000Y-79376071D01*
X130927619Y-79452261D01*
X130927619Y-79642738D01*
X130880000Y-79757023D01*
X129927619Y-80099880D02*
X130927619Y-80099880D01*
X130927619Y-80290357D01*
X130880000Y-80404642D01*
X130784761Y-80480833D01*
X130689523Y-80518928D01*
X130499047Y-80557023D01*
X130356190Y-80557023D01*
X130165714Y-80518928D01*
X130070476Y-80480833D01*
X129975238Y-80404642D01*
X129927619Y-80290357D01*
X129927619Y-80099880D01*
X129927619Y-81318928D02*
X129927619Y-80861785D01*
X129927619Y-81090357D02*
X130927619Y-81090357D01*
X130784761Y-81014166D01*
X130689523Y-80937976D01*
X130641904Y-80861785D01*
X163947619Y-39404880D02*
X162947619Y-39671547D01*
X163947619Y-39938214D01*
X162947619Y-40204880D02*
X163947619Y-40204880D01*
X162947619Y-40662023D01*
X163947619Y-40662023D01*
X144850000Y-80392023D02*
X144897619Y-80315833D01*
X144897619Y-80201547D01*
X144850000Y-80087261D01*
X144754761Y-80011071D01*
X144659523Y-79972976D01*
X144469047Y-79934880D01*
X144326190Y-79934880D01*
X144135714Y-79972976D01*
X144040476Y-80011071D01*
X143945238Y-80087261D01*
X143897619Y-80201547D01*
X143897619Y-80277738D01*
X143945238Y-80392023D01*
X143992857Y-80430119D01*
X144326190Y-80430119D01*
X144326190Y-80277738D01*
X143897619Y-80772976D02*
X144897619Y-80772976D01*
X143897619Y-81230119D01*
X144897619Y-81230119D01*
X143897619Y-81611071D02*
X144897619Y-81611071D01*
X144897619Y-81801547D01*
X144850000Y-81915833D01*
X144754761Y-81992023D01*
X144659523Y-82030119D01*
X144469047Y-82068214D01*
X144326190Y-82068214D01*
X144135714Y-82030119D01*
X144040476Y-81992023D01*
X143945238Y-81915833D01*
X143897619Y-81801547D01*
X143897619Y-81611071D01*
X163947619Y-79223690D02*
X163947619Y-79680833D01*
X162947619Y-79452261D02*
X163947619Y-79452261D01*
X163947619Y-79871309D02*
X162947619Y-80404642D01*
X163947619Y-80404642D02*
X162947619Y-79871309D01*
X124942857Y-79795119D02*
X124895238Y-79757023D01*
X124847619Y-79642738D01*
X124847619Y-79566547D01*
X124895238Y-79452261D01*
X124990476Y-79376071D01*
X125085714Y-79337976D01*
X125276190Y-79299880D01*
X125419047Y-79299880D01*
X125609523Y-79337976D01*
X125704761Y-79376071D01*
X125800000Y-79452261D01*
X125847619Y-79566547D01*
X125847619Y-79642738D01*
X125800000Y-79757023D01*
X125752380Y-79795119D01*
X124847619Y-80518928D02*
X124847619Y-80137976D01*
X125847619Y-80137976D01*
X124847619Y-80785595D02*
X125847619Y-80785595D01*
X124847619Y-81242738D02*
X125419047Y-80899880D01*
X125847619Y-81242738D02*
X125276190Y-80785595D01*
X150247619Y-79757023D02*
X150247619Y-79299880D01*
X150247619Y-79528452D02*
X151247619Y-79528452D01*
X151104761Y-79452261D01*
X151009523Y-79376071D01*
X150961904Y-79299880D01*
X150819047Y-80214166D02*
X150866666Y-80137976D01*
X150914285Y-80099880D01*
X151009523Y-80061785D01*
X151057142Y-80061785D01*
X151152380Y-80099880D01*
X151200000Y-80137976D01*
X151247619Y-80214166D01*
X151247619Y-80366547D01*
X151200000Y-80442738D01*
X151152380Y-80480833D01*
X151057142Y-80518928D01*
X151009523Y-80518928D01*
X150914285Y-80480833D01*
X150866666Y-80442738D01*
X150819047Y-80366547D01*
X150819047Y-80214166D01*
X150771428Y-80137976D01*
X150723809Y-80099880D01*
X150628571Y-80061785D01*
X150438095Y-80061785D01*
X150342857Y-80099880D01*
X150295238Y-80137976D01*
X150247619Y-80214166D01*
X150247619Y-80366547D01*
X150295238Y-80442738D01*
X150342857Y-80480833D01*
X150438095Y-80518928D01*
X150628571Y-80518928D01*
X150723809Y-80480833D01*
X150771428Y-80442738D01*
X150819047Y-80366547D01*
X146072380Y-39481071D02*
X146120000Y-39519166D01*
X146167619Y-39595357D01*
X146167619Y-39785833D01*
X146120000Y-39862023D01*
X146072380Y-39900119D01*
X145977142Y-39938214D01*
X145881904Y-39938214D01*
X145739047Y-39900119D01*
X145167619Y-39442976D01*
X145167619Y-39938214D01*
X146167619Y-40204880D02*
X146167619Y-40738214D01*
X145167619Y-40395357D01*
X156327619Y-39442976D02*
X156327619Y-39938214D01*
X155946666Y-39671547D01*
X155946666Y-39785833D01*
X155899047Y-39862023D01*
X155851428Y-39900119D01*
X155756190Y-39938214D01*
X155518095Y-39938214D01*
X155422857Y-39900119D01*
X155375238Y-39862023D01*
X155327619Y-39785833D01*
X155327619Y-39557261D01*
X155375238Y-39481071D01*
X155422857Y-39442976D01*
X156232380Y-40242976D02*
X156280000Y-40281071D01*
X156327619Y-40357261D01*
X156327619Y-40547738D01*
X156280000Y-40623928D01*
X156232380Y-40662023D01*
X156137142Y-40700119D01*
X156041904Y-40700119D01*
X155899047Y-40662023D01*
X155327619Y-40204880D01*
X155327619Y-40700119D01*
X161408053Y-39409767D02*
X161408053Y-39905005D01*
X161027100Y-39638338D01*
X161027100Y-39752624D01*
X160979481Y-39828814D01*
X160931862Y-39866910D01*
X160836624Y-39905005D01*
X160598529Y-39905005D01*
X160503291Y-39866910D01*
X160455672Y-39828814D01*
X160408053Y-39752624D01*
X160408053Y-39524052D01*
X160455672Y-39447862D01*
X160503291Y-39409767D01*
X161074719Y-40590719D02*
X160408053Y-40590719D01*
X161455672Y-40400243D02*
X160741386Y-40209767D01*
X160741386Y-40705005D01*
X160407619Y-79795119D02*
X160883809Y-79528452D01*
X160407619Y-79337976D02*
X161407619Y-79337976D01*
X161407619Y-79642738D01*
X161360000Y-79718928D01*
X161312380Y-79757023D01*
X161217142Y-79795119D01*
X161074285Y-79795119D01*
X160979047Y-79757023D01*
X160931428Y-79718928D01*
X160883809Y-79642738D01*
X160883809Y-79337976D01*
X161407619Y-80061785D02*
X160407619Y-80595119D01*
X161407619Y-80595119D02*
X160407619Y-80061785D01*
X168932380Y-79299880D02*
X168980000Y-79337976D01*
X169027619Y-79414166D01*
X169027619Y-79604642D01*
X168980000Y-79680833D01*
X168932380Y-79718928D01*
X168837142Y-79757023D01*
X168741904Y-79757023D01*
X168599047Y-79718928D01*
X168027619Y-79261785D01*
X168027619Y-79757023D01*
X169027619Y-80023690D02*
X169027619Y-80518928D01*
X168646666Y-80252261D01*
X168646666Y-80366547D01*
X168599047Y-80442738D01*
X168551428Y-80480833D01*
X168456190Y-80518928D01*
X168218095Y-80518928D01*
X168122857Y-80480833D01*
X168075238Y-80442738D01*
X168027619Y-80366547D01*
X168027619Y-80137976D01*
X168075238Y-80061785D01*
X168122857Y-80023690D01*
X129975238Y-38681071D02*
X129927619Y-38795357D01*
X129927619Y-38985833D01*
X129975238Y-39062023D01*
X130022857Y-39100119D01*
X130118095Y-39138214D01*
X130213333Y-39138214D01*
X130308571Y-39100119D01*
X130356190Y-39062023D01*
X130403809Y-38985833D01*
X130451428Y-38833452D01*
X130499047Y-38757261D01*
X130546666Y-38719166D01*
X130641904Y-38681071D01*
X130737142Y-38681071D01*
X130832380Y-38719166D01*
X130880000Y-38757261D01*
X130927619Y-38833452D01*
X130927619Y-39023928D01*
X130880000Y-39138214D01*
X129927619Y-39481071D02*
X130927619Y-39481071D01*
X130927619Y-39671547D01*
X130880000Y-39785833D01*
X130784761Y-39862023D01*
X130689523Y-39900119D01*
X130499047Y-39938214D01*
X130356190Y-39938214D01*
X130165714Y-39900119D01*
X130070476Y-39862023D01*
X129975238Y-39785833D01*
X129927619Y-39671547D01*
X129927619Y-39481071D01*
X130927619Y-40204880D02*
X130927619Y-40700119D01*
X130546666Y-40433452D01*
X130546666Y-40547738D01*
X130499047Y-40623928D01*
X130451428Y-40662023D01*
X130356190Y-40700119D01*
X130118095Y-40700119D01*
X130022857Y-40662023D01*
X129975238Y-40623928D01*
X129927619Y-40547738D01*
X129927619Y-40319166D01*
X129975238Y-40242976D01*
X130022857Y-40204880D01*
X140087619Y-39938214D02*
X140087619Y-39481071D01*
X140087619Y-39709642D02*
X141087619Y-39709642D01*
X140944761Y-39633452D01*
X140849523Y-39557261D01*
X140801904Y-39481071D01*
X140992380Y-40242976D02*
X141040000Y-40281071D01*
X141087619Y-40357261D01*
X141087619Y-40547738D01*
X141040000Y-40623928D01*
X140992380Y-40662023D01*
X140897142Y-40700119D01*
X140801904Y-40700119D01*
X140659047Y-40662023D01*
X140087619Y-40204880D01*
X140087619Y-40700119D01*
X142627619Y-39938214D02*
X142627619Y-39481071D01*
X142627619Y-39709642D02*
X143627619Y-39709642D01*
X143484761Y-39633452D01*
X143389523Y-39557261D01*
X143341904Y-39481071D01*
X143294285Y-40623928D02*
X142627619Y-40623928D01*
X143675238Y-40433452D02*
X142960952Y-40242976D01*
X142960952Y-40738214D01*
X132467619Y-79757023D02*
X132467619Y-79299880D01*
X132467619Y-79528452D02*
X133467619Y-79528452D01*
X133324761Y-79452261D01*
X133229523Y-79376071D01*
X133181904Y-79299880D01*
X133467619Y-80480833D02*
X133467619Y-80099880D01*
X132991428Y-80061785D01*
X133039047Y-80099880D01*
X133086666Y-80176071D01*
X133086666Y-80366547D01*
X133039047Y-80442738D01*
X132991428Y-80480833D01*
X132896190Y-80518928D01*
X132658095Y-80518928D01*
X132562857Y-80480833D01*
X132515238Y-80442738D01*
X132467619Y-80366547D01*
X132467619Y-80176071D01*
X132515238Y-80099880D01*
X132562857Y-80061785D01*
X168551428Y-39481071D02*
X168551428Y-39747738D01*
X168027619Y-39862023D02*
X168027619Y-39481071D01*
X169027619Y-39481071D01*
X169027619Y-39862023D01*
X168027619Y-40204880D02*
X169027619Y-40204880D01*
X168027619Y-40662023D01*
X169027619Y-40662023D01*
X151152380Y-39481071D02*
X151200000Y-39519166D01*
X151247619Y-39595357D01*
X151247619Y-39785833D01*
X151200000Y-39862023D01*
X151152380Y-39900119D01*
X151057142Y-39938214D01*
X150961904Y-39938214D01*
X150819047Y-39900119D01*
X150247619Y-39442976D01*
X150247619Y-39938214D01*
X151247619Y-40662023D02*
X151247619Y-40281071D01*
X150771428Y-40242976D01*
X150819047Y-40281071D01*
X150866666Y-40357261D01*
X150866666Y-40547738D01*
X150819047Y-40623928D01*
X150771428Y-40662023D01*
X150676190Y-40700119D01*
X150438095Y-40700119D01*
X150342857Y-40662023D01*
X150295238Y-40623928D01*
X150247619Y-40547738D01*
X150247619Y-40357261D01*
X150295238Y-40281071D01*
X150342857Y-40242976D01*
X138500000Y-39023928D02*
X138547619Y-38947738D01*
X138547619Y-38833452D01*
X138500000Y-38719166D01*
X138404761Y-38642976D01*
X138309523Y-38604880D01*
X138119047Y-38566785D01*
X137976190Y-38566785D01*
X137785714Y-38604880D01*
X137690476Y-38642976D01*
X137595238Y-38719166D01*
X137547619Y-38833452D01*
X137547619Y-38909642D01*
X137595238Y-39023928D01*
X137642857Y-39062023D01*
X137976190Y-39062023D01*
X137976190Y-38909642D01*
X137547619Y-39404880D02*
X138547619Y-39404880D01*
X137547619Y-39862023D01*
X138547619Y-39862023D01*
X137547619Y-40242976D02*
X138547619Y-40242976D01*
X138547619Y-40433452D01*
X138500000Y-40547738D01*
X138404761Y-40623928D01*
X138309523Y-40662023D01*
X138119047Y-40700119D01*
X137976190Y-40700119D01*
X137785714Y-40662023D01*
X137690476Y-40623928D01*
X137595238Y-40547738D01*
X137547619Y-40433452D01*
X137547619Y-40242976D01*
X140754285Y-79680833D02*
X140087619Y-79680833D01*
X141135238Y-79490357D02*
X140420952Y-79299880D01*
X140420952Y-79795119D01*
X158867619Y-39442976D02*
X158867619Y-39938214D01*
X158486666Y-39671547D01*
X158486666Y-39785833D01*
X158439047Y-39862023D01*
X158391428Y-39900119D01*
X158296190Y-39938214D01*
X158058095Y-39938214D01*
X157962857Y-39900119D01*
X157915238Y-39862023D01*
X157867619Y-39785833D01*
X157867619Y-39557261D01*
X157915238Y-39481071D01*
X157962857Y-39442976D01*
X158867619Y-40662023D02*
X158867619Y-40281071D01*
X158391428Y-40242976D01*
X158439047Y-40281071D01*
X158486666Y-40357261D01*
X158486666Y-40547738D01*
X158439047Y-40623928D01*
X158391428Y-40662023D01*
X158296190Y-40700119D01*
X158058095Y-40700119D01*
X157962857Y-40662023D01*
X157915238Y-40623928D01*
X157867619Y-40547738D01*
X157867619Y-40357261D01*
X157915238Y-40281071D01*
X157962857Y-40242976D01*
X153787619Y-39442976D02*
X153787619Y-39938214D01*
X153406666Y-39671547D01*
X153406666Y-39785833D01*
X153359047Y-39862023D01*
X153311428Y-39900119D01*
X153216190Y-39938214D01*
X152978095Y-39938214D01*
X152882857Y-39900119D01*
X152835238Y-39862023D01*
X152787619Y-39785833D01*
X152787619Y-39557261D01*
X152835238Y-39481071D01*
X152882857Y-39442976D01*
X153787619Y-40204880D02*
X153787619Y-40700119D01*
X153406666Y-40433452D01*
X153406666Y-40547738D01*
X153359047Y-40623928D01*
X153311428Y-40662023D01*
X153216190Y-40700119D01*
X152978095Y-40700119D01*
X152882857Y-40662023D01*
X152835238Y-40623928D01*
X152787619Y-40547738D01*
X152787619Y-40319166D01*
X152835238Y-40242976D01*
X152882857Y-40204880D01*
X127435238Y-79299880D02*
X127387619Y-79414166D01*
X127387619Y-79604642D01*
X127435238Y-79680833D01*
X127482857Y-79718928D01*
X127578095Y-79757023D01*
X127673333Y-79757023D01*
X127768571Y-79718928D01*
X127816190Y-79680833D01*
X127863809Y-79604642D01*
X127911428Y-79452261D01*
X127959047Y-79376071D01*
X128006666Y-79337976D01*
X128101904Y-79299880D01*
X128197142Y-79299880D01*
X128292380Y-79337976D01*
X128340000Y-79376071D01*
X128387619Y-79452261D01*
X128387619Y-79642738D01*
X128340000Y-79757023D01*
X127387619Y-80099880D02*
X128387619Y-80099880D01*
X128387619Y-80290357D01*
X128340000Y-80404642D01*
X128244761Y-80480833D01*
X128149523Y-80518928D01*
X127959047Y-80557023D01*
X127816190Y-80557023D01*
X127625714Y-80518928D01*
X127530476Y-80480833D01*
X127435238Y-80404642D01*
X127387619Y-80290357D01*
X127387619Y-80099880D01*
X128387619Y-81052261D02*
X128387619Y-81128452D01*
X128340000Y-81204642D01*
X128292380Y-81242738D01*
X128197142Y-81280833D01*
X128006666Y-81318928D01*
X127768571Y-81318928D01*
X127578095Y-81280833D01*
X127482857Y-81242738D01*
X127435238Y-81204642D01*
X127387619Y-81128452D01*
X127387619Y-81052261D01*
X127435238Y-80976071D01*
X127482857Y-80937976D01*
X127578095Y-80899880D01*
X127768571Y-80861785D01*
X128006666Y-80861785D01*
X128197142Y-80899880D01*
X128292380Y-80937976D01*
X128340000Y-80976071D01*
X128387619Y-81052261D01*
X148707619Y-79718928D02*
X148707619Y-79337976D01*
X148231428Y-79299880D01*
X148279047Y-79337976D01*
X148326666Y-79414166D01*
X148326666Y-79604642D01*
X148279047Y-79680833D01*
X148231428Y-79718928D01*
X148136190Y-79757023D01*
X147898095Y-79757023D01*
X147802857Y-79718928D01*
X147755238Y-79680833D01*
X147707619Y-79604642D01*
X147707619Y-79414166D01*
X147755238Y-79337976D01*
X147802857Y-79299880D01*
X132474962Y-38606286D02*
X132427343Y-38720572D01*
X132427343Y-38911048D01*
X132474962Y-38987238D01*
X132522581Y-39025334D01*
X132617819Y-39063429D01*
X132713057Y-39063429D01*
X132808295Y-39025334D01*
X132855914Y-38987238D01*
X132903533Y-38911048D01*
X132951152Y-38758667D01*
X132998771Y-38682476D01*
X133046390Y-38644381D01*
X133141628Y-38606286D01*
X133236866Y-38606286D01*
X133332104Y-38644381D01*
X133379724Y-38682476D01*
X133427343Y-38758667D01*
X133427343Y-38949143D01*
X133379724Y-39063429D01*
X132427343Y-39406286D02*
X133427343Y-39406286D01*
X133427343Y-39596762D01*
X133379724Y-39711048D01*
X133284485Y-39787238D01*
X133189247Y-39825334D01*
X132998771Y-39863429D01*
X132855914Y-39863429D01*
X132665438Y-39825334D01*
X132570200Y-39787238D01*
X132474962Y-39711048D01*
X132427343Y-39596762D01*
X132427343Y-39406286D01*
X133332104Y-40168191D02*
X133379724Y-40206286D01*
X133427343Y-40282476D01*
X133427343Y-40472953D01*
X133379724Y-40549143D01*
X133332104Y-40587238D01*
X133236866Y-40625334D01*
X133141628Y-40625334D01*
X132998771Y-40587238D01*
X132427343Y-40130095D01*
X132427343Y-40625334D01*
X171520000Y-79757023D02*
X171567619Y-79680833D01*
X171567619Y-79566547D01*
X171520000Y-79452261D01*
X171424761Y-79376071D01*
X171329523Y-79337976D01*
X171139047Y-79299880D01*
X170996190Y-79299880D01*
X170805714Y-79337976D01*
X170710476Y-79376071D01*
X170615238Y-79452261D01*
X170567619Y-79566547D01*
X170567619Y-79642738D01*
X170615238Y-79757023D01*
X170662857Y-79795119D01*
X170996190Y-79795119D01*
X170996190Y-79642738D01*
X170567619Y-80137976D02*
X171567619Y-80137976D01*
X170567619Y-80595119D01*
X171567619Y-80595119D01*
X170567619Y-80976071D02*
X171567619Y-80976071D01*
X171567619Y-81166547D01*
X171520000Y-81280833D01*
X171424761Y-81357023D01*
X171329523Y-81395119D01*
X171139047Y-81433214D01*
X170996190Y-81433214D01*
X170805714Y-81395119D01*
X170710476Y-81357023D01*
X170615238Y-81280833D01*
X170567619Y-81166547D01*
X170567619Y-80976071D01*
X123260000Y-79757023D02*
X123307619Y-79680833D01*
X123307619Y-79566547D01*
X123260000Y-79452261D01*
X123164761Y-79376071D01*
X123069523Y-79337976D01*
X122879047Y-79299880D01*
X122736190Y-79299880D01*
X122545714Y-79337976D01*
X122450476Y-79376071D01*
X122355238Y-79452261D01*
X122307619Y-79566547D01*
X122307619Y-79642738D01*
X122355238Y-79757023D01*
X122402857Y-79795119D01*
X122736190Y-79795119D01*
X122736190Y-79642738D01*
X122307619Y-80137976D02*
X123307619Y-80137976D01*
X122307619Y-80595119D01*
X123307619Y-80595119D01*
X122307619Y-80976071D02*
X123307619Y-80976071D01*
X123307619Y-81166547D01*
X123260000Y-81280833D01*
X123164761Y-81357023D01*
X123069523Y-81395119D01*
X122879047Y-81433214D01*
X122736190Y-81433214D01*
X122545714Y-81395119D01*
X122450476Y-81357023D01*
X122355238Y-81280833D01*
X122307619Y-81166547D01*
X122307619Y-80976071D01*
X171567619Y-38452500D02*
X171567619Y-38947738D01*
X171186666Y-38681071D01*
X171186666Y-38795357D01*
X171139047Y-38871547D01*
X171091428Y-38909642D01*
X170996190Y-38947738D01*
X170758095Y-38947738D01*
X170662857Y-38909642D01*
X170615238Y-38871547D01*
X170567619Y-38795357D01*
X170567619Y-38566785D01*
X170615238Y-38490595D01*
X170662857Y-38452500D01*
X170662857Y-39290595D02*
X170615238Y-39328690D01*
X170567619Y-39290595D01*
X170615238Y-39252500D01*
X170662857Y-39290595D01*
X170567619Y-39290595D01*
X171567619Y-39595357D02*
X171567619Y-40090595D01*
X171186666Y-39823928D01*
X171186666Y-39938214D01*
X171139047Y-40014404D01*
X171091428Y-40052500D01*
X170996190Y-40090595D01*
X170758095Y-40090595D01*
X170662857Y-40052500D01*
X170615238Y-40014404D01*
X170567619Y-39938214D01*
X170567619Y-39709642D01*
X170615238Y-39633452D01*
X170662857Y-39595357D01*
X171234285Y-40357261D02*
X170567619Y-40547738D01*
X171234285Y-40738214D01*
X156280000Y-79757023D02*
X156327619Y-79680833D01*
X156327619Y-79566547D01*
X156280000Y-79452261D01*
X156184761Y-79376071D01*
X156089523Y-79337976D01*
X155899047Y-79299880D01*
X155756190Y-79299880D01*
X155565714Y-79337976D01*
X155470476Y-79376071D01*
X155375238Y-79452261D01*
X155327619Y-79566547D01*
X155327619Y-79642738D01*
X155375238Y-79757023D01*
X155422857Y-79795119D01*
X155756190Y-79795119D01*
X155756190Y-79642738D01*
X155327619Y-80137976D02*
X156327619Y-80137976D01*
X155327619Y-80595119D01*
X156327619Y-80595119D01*
X155327619Y-80976071D02*
X156327619Y-80976071D01*
X156327619Y-81166547D01*
X156280000Y-81280833D01*
X156184761Y-81357023D01*
X156089523Y-81395119D01*
X155899047Y-81433214D01*
X155756190Y-81433214D01*
X155565714Y-81395119D01*
X155470476Y-81357023D01*
X155375238Y-81280833D01*
X155327619Y-81166547D01*
X155327619Y-80976071D01*
X135046637Y-39905005D02*
X135046637Y-39447862D01*
X135046637Y-39676433D02*
X136046637Y-39676433D01*
X135903779Y-39600243D01*
X135808541Y-39524052D01*
X135760922Y-39447862D01*
X136046637Y-40171671D02*
X136046637Y-40666910D01*
X135665684Y-40400243D01*
X135665684Y-40514529D01*
X135618065Y-40590719D01*
X135570446Y-40628814D01*
X135475208Y-40666910D01*
X135237113Y-40666910D01*
X135141875Y-40628814D01*
X135094256Y-40590719D01*
X135046637Y-40514529D01*
X135046637Y-40285957D01*
X135094256Y-40209767D01*
X135141875Y-40171671D01*
X166392380Y-79299880D02*
X166440000Y-79337976D01*
X166487619Y-79414166D01*
X166487619Y-79604642D01*
X166440000Y-79680833D01*
X166392380Y-79718928D01*
X166297142Y-79757023D01*
X166201904Y-79757023D01*
X166059047Y-79718928D01*
X165487619Y-79261785D01*
X165487619Y-79757023D01*
X166392380Y-80061785D02*
X166440000Y-80099880D01*
X166487619Y-80176071D01*
X166487619Y-80366547D01*
X166440000Y-80442738D01*
X166392380Y-80480833D01*
X166297142Y-80518928D01*
X166201904Y-80518928D01*
X166059047Y-80480833D01*
X165487619Y-80023690D01*
X165487619Y-80518928D01*
X148612380Y-39481071D02*
X148660000Y-39519166D01*
X148707619Y-39595357D01*
X148707619Y-39785833D01*
X148660000Y-39862023D01*
X148612380Y-39900119D01*
X148517142Y-39938214D01*
X148421904Y-39938214D01*
X148279047Y-39900119D01*
X147707619Y-39442976D01*
X147707619Y-39938214D01*
X148707619Y-40623928D02*
X148707619Y-40471547D01*
X148660000Y-40395357D01*
X148612380Y-40357261D01*
X148469523Y-40281071D01*
X148279047Y-40242976D01*
X147898095Y-40242976D01*
X147802857Y-40281071D01*
X147755238Y-40319166D01*
X147707619Y-40395357D01*
X147707619Y-40547738D01*
X147755238Y-40623928D01*
X147802857Y-40662023D01*
X147898095Y-40700119D01*
X148136190Y-40700119D01*
X148231428Y-40662023D01*
X148279047Y-40623928D01*
X148326666Y-40547738D01*
X148326666Y-40395357D01*
X148279047Y-40319166D01*
X148231428Y-40281071D01*
X148136190Y-40242976D01*
X127482857Y-38985833D02*
X127435238Y-38947738D01*
X127387619Y-38833452D01*
X127387619Y-38757261D01*
X127435238Y-38642976D01*
X127530476Y-38566785D01*
X127625714Y-38528690D01*
X127816190Y-38490595D01*
X127959047Y-38490595D01*
X128149523Y-38528690D01*
X128244761Y-38566785D01*
X128340000Y-38642976D01*
X128387619Y-38757261D01*
X128387619Y-38833452D01*
X128340000Y-38947738D01*
X128292380Y-38985833D01*
X127387619Y-39328690D02*
X128387619Y-39328690D01*
X127673333Y-39595357D01*
X128387619Y-39862023D01*
X127387619Y-39862023D01*
X127387619Y-40242976D02*
X128387619Y-40242976D01*
X128387619Y-40433452D01*
X128340000Y-40547738D01*
X128244761Y-40623928D01*
X128149523Y-40662023D01*
X127959047Y-40700119D01*
X127816190Y-40700119D01*
X127625714Y-40662023D01*
X127530476Y-40623928D01*
X127435238Y-40547738D01*
X127387619Y-40433452D01*
X127387619Y-40242976D01*
X158772380Y-79299880D02*
X158820000Y-79337976D01*
X158867619Y-79414166D01*
X158867619Y-79604642D01*
X158820000Y-79680833D01*
X158772380Y-79718928D01*
X158677142Y-79757023D01*
X158581904Y-79757023D01*
X158439047Y-79718928D01*
X157867619Y-79261785D01*
X157867619Y-79757023D01*
X157867619Y-80518928D02*
X157867619Y-80061785D01*
X157867619Y-80290357D02*
X158867619Y-80290357D01*
X158724761Y-80214166D01*
X158629523Y-80137976D01*
X158581904Y-80061785D01*
X138547619Y-79490357D02*
X138547619Y-79566547D01*
X138500000Y-79642738D01*
X138452380Y-79680833D01*
X138357142Y-79718928D01*
X138166666Y-79757023D01*
X137928571Y-79757023D01*
X137738095Y-79718928D01*
X137642857Y-79680833D01*
X137595238Y-79642738D01*
X137547619Y-79566547D01*
X137547619Y-79490357D01*
X137595238Y-79414166D01*
X137642857Y-79376071D01*
X137738095Y-79337976D01*
X137928571Y-79299880D01*
X138166666Y-79299880D01*
X138357142Y-79337976D01*
X138452380Y-79376071D01*
X138500000Y-79414166D01*
X138547619Y-79490357D01*
X135912380Y-79299880D02*
X135960000Y-79337976D01*
X136007619Y-79414166D01*
X136007619Y-79604642D01*
X135960000Y-79680833D01*
X135912380Y-79718928D01*
X135817142Y-79757023D01*
X135721904Y-79757023D01*
X135579047Y-79718928D01*
X135007619Y-79261785D01*
X135007619Y-79757023D01*
X152787619Y-79757023D02*
X152787619Y-79299880D01*
X152787619Y-79528452D02*
X153787619Y-79528452D01*
X153644761Y-79452261D01*
X153549523Y-79376071D01*
X153501904Y-79299880D01*
X152787619Y-80137976D02*
X152787619Y-80290357D01*
X152835238Y-80366547D01*
X152882857Y-80404642D01*
X153025714Y-80480833D01*
X153216190Y-80518928D01*
X153597142Y-80518928D01*
X153692380Y-80480833D01*
X153740000Y-80442738D01*
X153787619Y-80366547D01*
X153787619Y-80214166D01*
X153740000Y-80137976D01*
X153692380Y-80099880D01*
X153597142Y-80061785D01*
X153359047Y-80061785D01*
X153263809Y-80099880D01*
X153216190Y-80137976D01*
X153168571Y-80214166D01*
X153168571Y-80366547D01*
X153216190Y-80442738D01*
X153263809Y-80480833D01*
X153359047Y-80518928D01*
X124577619Y-38236547D02*
X123577619Y-38503214D01*
X124577619Y-38769880D01*
X123625238Y-39379404D02*
X123577619Y-39303214D01*
X123577619Y-39150833D01*
X123625238Y-39074642D01*
X123672857Y-39036547D01*
X123768095Y-38998452D01*
X124053809Y-38998452D01*
X124149047Y-39036547D01*
X124196666Y-39074642D01*
X124244285Y-39150833D01*
X124244285Y-39303214D01*
X124196666Y-39379404D01*
X123625238Y-40065119D02*
X123577619Y-39988928D01*
X123577619Y-39836547D01*
X123625238Y-39760357D01*
X123672857Y-39722261D01*
X123768095Y-39684166D01*
X124053809Y-39684166D01*
X124149047Y-39722261D01*
X124196666Y-39760357D01*
X124244285Y-39836547D01*
X124244285Y-39988928D01*
X124196666Y-40065119D01*
X191641666Y-69597380D02*
X191641666Y-70311666D01*
X191594047Y-70454523D01*
X191498809Y-70549761D01*
X191355952Y-70597380D01*
X191260714Y-70597380D01*
X192165476Y-70597380D02*
X192355952Y-70597380D01*
X192451190Y-70549761D01*
X192498809Y-70502142D01*
X192594047Y-70359285D01*
X192641666Y-70168809D01*
X192641666Y-69787857D01*
X192594047Y-69692619D01*
X192546428Y-69645000D01*
X192451190Y-69597380D01*
X192260714Y-69597380D01*
X192165476Y-69645000D01*
X192117857Y-69692619D01*
X192070238Y-69787857D01*
X192070238Y-70025952D01*
X192117857Y-70121190D01*
X192165476Y-70168809D01*
X192260714Y-70216428D01*
X192451190Y-70216428D01*
X192546428Y-70168809D01*
X192594047Y-70121190D01*
X192641666Y-70025952D01*
X157783333Y-83707142D02*
X157735714Y-83754761D01*
X157592857Y-83802380D01*
X157497619Y-83802380D01*
X157354761Y-83754761D01*
X157259523Y-83659523D01*
X157211904Y-83564285D01*
X157164285Y-83373809D01*
X157164285Y-83230952D01*
X157211904Y-83040476D01*
X157259523Y-82945238D01*
X157354761Y-82850000D01*
X157497619Y-82802380D01*
X157592857Y-82802380D01*
X157735714Y-82850000D01*
X157783333Y-82897619D01*
X158164285Y-82897619D02*
X158211904Y-82850000D01*
X158307142Y-82802380D01*
X158545238Y-82802380D01*
X158640476Y-82850000D01*
X158688095Y-82897619D01*
X158735714Y-82992857D01*
X158735714Y-83088095D01*
X158688095Y-83230952D01*
X158116666Y-83802380D01*
X158735714Y-83802380D01*
X98785714Y-69952380D02*
X98785714Y-68952380D01*
X99023809Y-68952380D01*
X99166666Y-69000000D01*
X99261904Y-69095238D01*
X99309523Y-69190476D01*
X99357142Y-69380952D01*
X99357142Y-69523809D01*
X99309523Y-69714285D01*
X99261904Y-69809523D01*
X99166666Y-69904761D01*
X99023809Y-69952380D01*
X98785714Y-69952380D01*
X100309523Y-69952380D02*
X99738095Y-69952380D01*
X100023809Y-69952380D02*
X100023809Y-68952380D01*
X99928571Y-69095238D01*
X99833333Y-69190476D01*
X99738095Y-69238095D01*
X100928571Y-68952380D02*
X101023809Y-68952380D01*
X101119047Y-69000000D01*
X101166666Y-69047619D01*
X101214285Y-69142857D01*
X101261904Y-69333333D01*
X101261904Y-69571428D01*
X101214285Y-69761904D01*
X101166666Y-69857142D01*
X101119047Y-69904761D01*
X101023809Y-69952380D01*
X100928571Y-69952380D01*
X100833333Y-69904761D01*
X100785714Y-69857142D01*
X100738095Y-69761904D01*
X100690476Y-69571428D01*
X100690476Y-69333333D01*
X100738095Y-69142857D01*
X100785714Y-69047619D01*
X100833333Y-69000000D01*
X100928571Y-68952380D01*
X96135714Y-71852380D02*
X95564285Y-71852380D01*
X95850000Y-71852380D02*
X95850000Y-70852380D01*
X95754761Y-70995238D01*
X95659523Y-71090476D01*
X95564285Y-71138095D01*
X119261904Y-30952380D02*
X119261904Y-29952380D01*
X119500000Y-29952380D01*
X119642857Y-30000000D01*
X119738095Y-30095238D01*
X119785714Y-30190476D01*
X119833333Y-30380952D01*
X119833333Y-30523809D01*
X119785714Y-30714285D01*
X119738095Y-30809523D01*
X119642857Y-30904761D01*
X119500000Y-30952380D01*
X119261904Y-30952380D01*
X120404761Y-30380952D02*
X120309523Y-30333333D01*
X120261904Y-30285714D01*
X120214285Y-30190476D01*
X120214285Y-30142857D01*
X120261904Y-30047619D01*
X120309523Y-30000000D01*
X120404761Y-29952380D01*
X120595238Y-29952380D01*
X120690476Y-30000000D01*
X120738095Y-30047619D01*
X120785714Y-30142857D01*
X120785714Y-30190476D01*
X120738095Y-30285714D01*
X120690476Y-30333333D01*
X120595238Y-30380952D01*
X120404761Y-30380952D01*
X120309523Y-30428571D01*
X120261904Y-30476190D01*
X120214285Y-30571428D01*
X120214285Y-30761904D01*
X120261904Y-30857142D01*
X120309523Y-30904761D01*
X120404761Y-30952380D01*
X120595238Y-30952380D01*
X120690476Y-30904761D01*
X120738095Y-30857142D01*
X120785714Y-30761904D01*
X120785714Y-30571428D01*
X120738095Y-30476190D01*
X120690476Y-30428571D01*
X120595238Y-30380952D01*
X115935714Y-34402380D02*
X115364285Y-34402380D01*
X115650000Y-34402380D02*
X115650000Y-33402380D01*
X115554761Y-33545238D01*
X115459523Y-33640476D01*
X115364285Y-33688095D01*
X160333333Y-30452380D02*
X160000000Y-29976190D01*
X159761904Y-30452380D02*
X159761904Y-29452380D01*
X160142857Y-29452380D01*
X160238095Y-29500000D01*
X160285714Y-29547619D01*
X160333333Y-29642857D01*
X160333333Y-29785714D01*
X160285714Y-29880952D01*
X160238095Y-29928571D01*
X160142857Y-29976190D01*
X159761904Y-29976190D01*
X161238095Y-29452380D02*
X160761904Y-29452380D01*
X160714285Y-29928571D01*
X160761904Y-29880952D01*
X160857142Y-29833333D01*
X161095238Y-29833333D01*
X161190476Y-29880952D01*
X161238095Y-29928571D01*
X161285714Y-30023809D01*
X161285714Y-30261904D01*
X161238095Y-30357142D01*
X161190476Y-30404761D01*
X161095238Y-30452380D01*
X160857142Y-30452380D01*
X160761904Y-30404761D01*
X160714285Y-30357142D01*
X115238095Y-56752380D02*
X115238095Y-57561904D01*
X115285714Y-57657142D01*
X115333333Y-57704761D01*
X115428571Y-57752380D01*
X115619047Y-57752380D01*
X115714285Y-57704761D01*
X115761904Y-57657142D01*
X115809523Y-57561904D01*
X115809523Y-56752380D01*
X116714285Y-57085714D02*
X116714285Y-57752380D01*
X116476190Y-56704761D02*
X116238095Y-57419047D01*
X116857142Y-57419047D01*
X132833333Y-62907142D02*
X132785714Y-62954761D01*
X132642857Y-63002380D01*
X132547619Y-63002380D01*
X132404761Y-62954761D01*
X132309523Y-62859523D01*
X132261904Y-62764285D01*
X132214285Y-62573809D01*
X132214285Y-62430952D01*
X132261904Y-62240476D01*
X132309523Y-62145238D01*
X132404761Y-62050000D01*
X132547619Y-62002380D01*
X132642857Y-62002380D01*
X132785714Y-62050000D01*
X132833333Y-62097619D01*
X133690476Y-62335714D02*
X133690476Y-63002380D01*
X133452380Y-61954761D02*
X133214285Y-62669047D01*
X133833333Y-62669047D01*
X134038095Y-86952380D02*
X134609523Y-86952380D01*
X134323809Y-87952380D02*
X134323809Y-86952380D01*
X134942857Y-87952380D02*
X134942857Y-86952380D01*
X135323809Y-86952380D01*
X135419047Y-87000000D01*
X135466666Y-87047619D01*
X135514285Y-87142857D01*
X135514285Y-87285714D01*
X135466666Y-87380952D01*
X135419047Y-87428571D01*
X135323809Y-87476190D01*
X134942857Y-87476190D01*
X136371428Y-87285714D02*
X136371428Y-87952380D01*
X136133333Y-86904761D02*
X135895238Y-87619047D01*
X136514285Y-87619047D01*
X185402380Y-88083333D02*
X186116666Y-88083333D01*
X186259523Y-88130952D01*
X186354761Y-88226190D01*
X186402380Y-88369047D01*
X186402380Y-88464285D01*
X186402380Y-87083333D02*
X186402380Y-87654761D01*
X186402380Y-87369047D02*
X185402380Y-87369047D01*
X185545238Y-87464285D01*
X185640476Y-87559523D01*
X185688095Y-87654761D01*
X175261904Y-84452380D02*
X175261904Y-83452380D01*
X175500000Y-83452380D01*
X175642857Y-83500000D01*
X175738095Y-83595238D01*
X175785714Y-83690476D01*
X175833333Y-83880952D01*
X175833333Y-84023809D01*
X175785714Y-84214285D01*
X175738095Y-84309523D01*
X175642857Y-84404761D01*
X175500000Y-84452380D01*
X175261904Y-84452380D01*
X176785714Y-84452380D02*
X176214285Y-84452380D01*
X176500000Y-84452380D02*
X176500000Y-83452380D01*
X176404761Y-83595238D01*
X176309523Y-83690476D01*
X176214285Y-83738095D01*
X88188095Y-63452380D02*
X88188095Y-62452380D01*
X88188095Y-62928571D02*
X88759523Y-62928571D01*
X88759523Y-63452380D02*
X88759523Y-62452380D01*
X89759523Y-63452380D02*
X89188095Y-63452380D01*
X89473809Y-63452380D02*
X89473809Y-62452380D01*
X89378571Y-62595238D01*
X89283333Y-62690476D01*
X89188095Y-62738095D01*
X160283333Y-32552380D02*
X159950000Y-32076190D01*
X159711904Y-32552380D02*
X159711904Y-31552380D01*
X160092857Y-31552380D01*
X160188095Y-31600000D01*
X160235714Y-31647619D01*
X160283333Y-31742857D01*
X160283333Y-31885714D01*
X160235714Y-31980952D01*
X160188095Y-32028571D01*
X160092857Y-32076190D01*
X159711904Y-32076190D01*
X161140476Y-31552380D02*
X160950000Y-31552380D01*
X160854761Y-31600000D01*
X160807142Y-31647619D01*
X160711904Y-31790476D01*
X160664285Y-31980952D01*
X160664285Y-32361904D01*
X160711904Y-32457142D01*
X160759523Y-32504761D01*
X160854761Y-32552380D01*
X161045238Y-32552380D01*
X161140476Y-32504761D01*
X161188095Y-32457142D01*
X161235714Y-32361904D01*
X161235714Y-32123809D01*
X161188095Y-32028571D01*
X161140476Y-31980952D01*
X161045238Y-31933333D01*
X160854761Y-31933333D01*
X160759523Y-31980952D01*
X160711904Y-32028571D01*
X160664285Y-32123809D01*
X142738095Y-86952380D02*
X143309523Y-86952380D01*
X143023809Y-87952380D02*
X143023809Y-86952380D01*
X143642857Y-87952380D02*
X143642857Y-86952380D01*
X144023809Y-86952380D01*
X144119047Y-87000000D01*
X144166666Y-87047619D01*
X144214285Y-87142857D01*
X144214285Y-87285714D01*
X144166666Y-87380952D01*
X144119047Y-87428571D01*
X144023809Y-87476190D01*
X143642857Y-87476190D01*
X144595238Y-87047619D02*
X144642857Y-87000000D01*
X144738095Y-86952380D01*
X144976190Y-86952380D01*
X145071428Y-87000000D01*
X145119047Y-87047619D01*
X145166666Y-87142857D01*
X145166666Y-87238095D01*
X145119047Y-87380952D01*
X144547619Y-87952380D01*
X145166666Y-87952380D01*
X118785714Y-82952380D02*
X118785714Y-81952380D01*
X119023809Y-81952380D01*
X119166666Y-82000000D01*
X119261904Y-82095238D01*
X119309523Y-82190476D01*
X119357142Y-82380952D01*
X119357142Y-82523809D01*
X119309523Y-82714285D01*
X119261904Y-82809523D01*
X119166666Y-82904761D01*
X119023809Y-82952380D01*
X118785714Y-82952380D01*
X120309523Y-82952380D02*
X119738095Y-82952380D01*
X120023809Y-82952380D02*
X120023809Y-81952380D01*
X119928571Y-82095238D01*
X119833333Y-82190476D01*
X119738095Y-82238095D01*
X121261904Y-82952380D02*
X120690476Y-82952380D01*
X120976190Y-82952380D02*
X120976190Y-81952380D01*
X120880952Y-82095238D01*
X120785714Y-82190476D01*
X120690476Y-82238095D01*
X116135714Y-84852380D02*
X115564285Y-84852380D01*
X115850000Y-84852380D02*
X115850000Y-83852380D01*
X115754761Y-83995238D01*
X115659523Y-84090476D01*
X115564285Y-84138095D01*
X99261904Y-43952380D02*
X99261904Y-42952380D01*
X99500000Y-42952380D01*
X99642857Y-43000000D01*
X99738095Y-43095238D01*
X99785714Y-43190476D01*
X99833333Y-43380952D01*
X99833333Y-43523809D01*
X99785714Y-43714285D01*
X99738095Y-43809523D01*
X99642857Y-43904761D01*
X99500000Y-43952380D01*
X99261904Y-43952380D01*
X100309523Y-43952380D02*
X100500000Y-43952380D01*
X100595238Y-43904761D01*
X100642857Y-43857142D01*
X100738095Y-43714285D01*
X100785714Y-43523809D01*
X100785714Y-43142857D01*
X100738095Y-43047619D01*
X100690476Y-43000000D01*
X100595238Y-42952380D01*
X100404761Y-42952380D01*
X100309523Y-43000000D01*
X100261904Y-43047619D01*
X100214285Y-43142857D01*
X100214285Y-43380952D01*
X100261904Y-43476190D01*
X100309523Y-43523809D01*
X100404761Y-43571428D01*
X100595238Y-43571428D01*
X100690476Y-43523809D01*
X100738095Y-43476190D01*
X100785714Y-43380952D01*
X95735714Y-47352380D02*
X95164285Y-47352380D01*
X95450000Y-47352380D02*
X95450000Y-46352380D01*
X95354761Y-46495238D01*
X95259523Y-46590476D01*
X95164285Y-46638095D01*
X99691666Y-50357380D02*
X99691666Y-51071666D01*
X99644047Y-51214523D01*
X99548809Y-51309761D01*
X99405952Y-51357380D01*
X99310714Y-51357380D01*
X100120238Y-50452619D02*
X100167857Y-50405000D01*
X100263095Y-50357380D01*
X100501190Y-50357380D01*
X100596428Y-50405000D01*
X100644047Y-50452619D01*
X100691666Y-50547857D01*
X100691666Y-50643095D01*
X100644047Y-50785952D01*
X100072619Y-51357380D01*
X100691666Y-51357380D01*
X157833333Y-90882380D02*
X157500000Y-90406190D01*
X157261904Y-90882380D02*
X157261904Y-89882380D01*
X157642857Y-89882380D01*
X157738095Y-89930000D01*
X157785714Y-89977619D01*
X157833333Y-90072857D01*
X157833333Y-90215714D01*
X157785714Y-90310952D01*
X157738095Y-90358571D01*
X157642857Y-90406190D01*
X157261904Y-90406190D01*
X158214285Y-89977619D02*
X158261904Y-89930000D01*
X158357142Y-89882380D01*
X158595238Y-89882380D01*
X158690476Y-89930000D01*
X158738095Y-89977619D01*
X158785714Y-90072857D01*
X158785714Y-90168095D01*
X158738095Y-90310952D01*
X158166666Y-90882380D01*
X158785714Y-90882380D01*
X169738095Y-87802380D02*
X170309523Y-87802380D01*
X170023809Y-88802380D02*
X170023809Y-87802380D01*
X170642857Y-88802380D02*
X170642857Y-87802380D01*
X171023809Y-87802380D01*
X171119047Y-87850000D01*
X171166666Y-87897619D01*
X171214285Y-87992857D01*
X171214285Y-88135714D01*
X171166666Y-88230952D01*
X171119047Y-88278571D01*
X171023809Y-88326190D01*
X170642857Y-88326190D01*
X171547619Y-87802380D02*
X172166666Y-87802380D01*
X171833333Y-88183333D01*
X171976190Y-88183333D01*
X172071428Y-88230952D01*
X172119047Y-88278571D01*
X172166666Y-88373809D01*
X172166666Y-88611904D01*
X172119047Y-88707142D01*
X172071428Y-88754761D01*
X171976190Y-88802380D01*
X171690476Y-88802380D01*
X171595238Y-88754761D01*
X171547619Y-88707142D01*
X150761904Y-34452380D02*
X150761904Y-33452380D01*
X151000000Y-33452380D01*
X151142857Y-33500000D01*
X151238095Y-33595238D01*
X151285714Y-33690476D01*
X151333333Y-33880952D01*
X151333333Y-34023809D01*
X151285714Y-34214285D01*
X151238095Y-34309523D01*
X151142857Y-34404761D01*
X151000000Y-34452380D01*
X150761904Y-34452380D01*
X152238095Y-33452380D02*
X151761904Y-33452380D01*
X151714285Y-33928571D01*
X151761904Y-33880952D01*
X151857142Y-33833333D01*
X152095238Y-33833333D01*
X152190476Y-33880952D01*
X152238095Y-33928571D01*
X152285714Y-34023809D01*
X152285714Y-34261904D01*
X152238095Y-34357142D01*
X152190476Y-34404761D01*
X152095238Y-34452380D01*
X151857142Y-34452380D01*
X151761904Y-34404761D01*
X151714285Y-34357142D01*
X167238095Y-26352380D02*
X167238095Y-27161904D01*
X167285714Y-27257142D01*
X167333333Y-27304761D01*
X167428571Y-27352380D01*
X167619047Y-27352380D01*
X167714285Y-27304761D01*
X167761904Y-27257142D01*
X167809523Y-27161904D01*
X167809523Y-26352380D01*
X168761904Y-26352380D02*
X168285714Y-26352380D01*
X168238095Y-26828571D01*
X168285714Y-26780952D01*
X168380952Y-26733333D01*
X168619047Y-26733333D01*
X168714285Y-26780952D01*
X168761904Y-26828571D01*
X168809523Y-26923809D01*
X168809523Y-27161904D01*
X168761904Y-27257142D01*
X168714285Y-27304761D01*
X168619047Y-27352380D01*
X168380952Y-27352380D01*
X168285714Y-27304761D01*
X168238095Y-27257142D01*
X150711904Y-30502380D02*
X150711904Y-29502380D01*
X150950000Y-29502380D01*
X151092857Y-29550000D01*
X151188095Y-29645238D01*
X151235714Y-29740476D01*
X151283333Y-29930952D01*
X151283333Y-30073809D01*
X151235714Y-30264285D01*
X151188095Y-30359523D01*
X151092857Y-30454761D01*
X150950000Y-30502380D01*
X150711904Y-30502380D01*
X151616666Y-29502380D02*
X152235714Y-29502380D01*
X151902380Y-29883333D01*
X152045238Y-29883333D01*
X152140476Y-29930952D01*
X152188095Y-29978571D01*
X152235714Y-30073809D01*
X152235714Y-30311904D01*
X152188095Y-30407142D01*
X152140476Y-30454761D01*
X152045238Y-30502380D01*
X151759523Y-30502380D01*
X151664285Y-30454761D01*
X151616666Y-30407142D01*
X181238095Y-13252380D02*
X181238095Y-12252380D01*
X181238095Y-12728571D02*
X181809523Y-12728571D01*
X181809523Y-13252380D02*
X181809523Y-12252380D01*
X182714285Y-12585714D02*
X182714285Y-13252380D01*
X182476190Y-12204761D02*
X182238095Y-12919047D01*
X182857142Y-12919047D01*
X191641666Y-39597380D02*
X191641666Y-40311666D01*
X191594047Y-40454523D01*
X191498809Y-40549761D01*
X191355952Y-40597380D01*
X191260714Y-40597380D01*
X192022619Y-39597380D02*
X192689285Y-39597380D01*
X192260714Y-40597380D01*
X118677142Y-60166666D02*
X118724761Y-60214285D01*
X118772380Y-60357142D01*
X118772380Y-60452380D01*
X118724761Y-60595238D01*
X118629523Y-60690476D01*
X118534285Y-60738095D01*
X118343809Y-60785714D01*
X118200952Y-60785714D01*
X118010476Y-60738095D01*
X117915238Y-60690476D01*
X117820000Y-60595238D01*
X117772380Y-60452380D01*
X117772380Y-60357142D01*
X117820000Y-60214285D01*
X117867619Y-60166666D01*
X117772380Y-59833333D02*
X117772380Y-59166666D01*
X118772380Y-59595238D01*
X191766666Y-68002380D02*
X191766666Y-68716666D01*
X191719047Y-68859523D01*
X191623809Y-68954761D01*
X191480952Y-69002380D01*
X191385714Y-69002380D01*
X192719047Y-68002380D02*
X192242857Y-68002380D01*
X192195238Y-68478571D01*
X192242857Y-68430952D01*
X192338095Y-68383333D01*
X192576190Y-68383333D01*
X192671428Y-68430952D01*
X192719047Y-68478571D01*
X192766666Y-68573809D01*
X192766666Y-68811904D01*
X192719047Y-68907142D01*
X192671428Y-68954761D01*
X192576190Y-69002380D01*
X192338095Y-69002380D01*
X192242857Y-68954761D01*
X192195238Y-68907142D01*
X114588095Y-51502380D02*
X115159523Y-51502380D01*
X114873809Y-52502380D02*
X114873809Y-51502380D01*
X115492857Y-52502380D02*
X115492857Y-51502380D01*
X115873809Y-51502380D01*
X115969047Y-51550000D01*
X116016666Y-51597619D01*
X116064285Y-51692857D01*
X116064285Y-51835714D01*
X116016666Y-51930952D01*
X115969047Y-51978571D01*
X115873809Y-52026190D01*
X115492857Y-52026190D01*
X116635714Y-51930952D02*
X116540476Y-51883333D01*
X116492857Y-51835714D01*
X116445238Y-51740476D01*
X116445238Y-51692857D01*
X116492857Y-51597619D01*
X116540476Y-51550000D01*
X116635714Y-51502380D01*
X116826190Y-51502380D01*
X116921428Y-51550000D01*
X116969047Y-51597619D01*
X117016666Y-51692857D01*
X117016666Y-51740476D01*
X116969047Y-51835714D01*
X116921428Y-51883333D01*
X116826190Y-51930952D01*
X116635714Y-51930952D01*
X116540476Y-51978571D01*
X116492857Y-52026190D01*
X116445238Y-52121428D01*
X116445238Y-52311904D01*
X116492857Y-52407142D01*
X116540476Y-52454761D01*
X116635714Y-52502380D01*
X116826190Y-52502380D01*
X116921428Y-52454761D01*
X116969047Y-52407142D01*
X117016666Y-52311904D01*
X117016666Y-52121428D01*
X116969047Y-52026190D01*
X116921428Y-51978571D01*
X116826190Y-51930952D01*
X177833333Y-28927142D02*
X177785714Y-28974761D01*
X177642857Y-29022380D01*
X177547619Y-29022380D01*
X177404761Y-28974761D01*
X177309523Y-28879523D01*
X177261904Y-28784285D01*
X177214285Y-28593809D01*
X177214285Y-28450952D01*
X177261904Y-28260476D01*
X177309523Y-28165238D01*
X177404761Y-28070000D01*
X177547619Y-28022380D01*
X177642857Y-28022380D01*
X177785714Y-28070000D01*
X177833333Y-28117619D01*
X178404761Y-28450952D02*
X178309523Y-28403333D01*
X178261904Y-28355714D01*
X178214285Y-28260476D01*
X178214285Y-28212857D01*
X178261904Y-28117619D01*
X178309523Y-28070000D01*
X178404761Y-28022380D01*
X178595238Y-28022380D01*
X178690476Y-28070000D01*
X178738095Y-28117619D01*
X178785714Y-28212857D01*
X178785714Y-28260476D01*
X178738095Y-28355714D01*
X178690476Y-28403333D01*
X178595238Y-28450952D01*
X178404761Y-28450952D01*
X178309523Y-28498571D01*
X178261904Y-28546190D01*
X178214285Y-28641428D01*
X178214285Y-28831904D01*
X178261904Y-28927142D01*
X178309523Y-28974761D01*
X178404761Y-29022380D01*
X178595238Y-29022380D01*
X178690476Y-28974761D01*
X178738095Y-28927142D01*
X178785714Y-28831904D01*
X178785714Y-28641428D01*
X178738095Y-28546190D01*
X178690476Y-28498571D01*
X178595238Y-28450952D01*
X156357380Y-103308333D02*
X157071666Y-103308333D01*
X157214523Y-103355952D01*
X157309761Y-103451190D01*
X157357380Y-103594047D01*
X157357380Y-103689285D01*
X156690714Y-102403571D02*
X157357380Y-102403571D01*
X156309761Y-102641666D02*
X157024047Y-102879761D01*
X157024047Y-102260714D01*
X115833333Y-54927142D02*
X115785714Y-54974761D01*
X115642857Y-55022380D01*
X115547619Y-55022380D01*
X115404761Y-54974761D01*
X115309523Y-54879523D01*
X115261904Y-54784285D01*
X115214285Y-54593809D01*
X115214285Y-54450952D01*
X115261904Y-54260476D01*
X115309523Y-54165238D01*
X115404761Y-54070000D01*
X115547619Y-54022380D01*
X115642857Y-54022380D01*
X115785714Y-54070000D01*
X115833333Y-54117619D01*
X116738095Y-54022380D02*
X116261904Y-54022380D01*
X116214285Y-54498571D01*
X116261904Y-54450952D01*
X116357142Y-54403333D01*
X116595238Y-54403333D01*
X116690476Y-54450952D01*
X116738095Y-54498571D01*
X116785714Y-54593809D01*
X116785714Y-54831904D01*
X116738095Y-54927142D01*
X116690476Y-54974761D01*
X116595238Y-55022380D01*
X116357142Y-55022380D01*
X116261904Y-54974761D01*
X116214285Y-54927142D01*
X189038095Y-106452380D02*
X189038095Y-105452380D01*
X189038095Y-105928571D02*
X189609523Y-105928571D01*
X189609523Y-106452380D02*
X189609523Y-105452380D01*
X189990476Y-105452380D02*
X190609523Y-105452380D01*
X190276190Y-105833333D01*
X190419047Y-105833333D01*
X190514285Y-105880952D01*
X190561904Y-105928571D01*
X190609523Y-106023809D01*
X190609523Y-106261904D01*
X190561904Y-106357142D01*
X190514285Y-106404761D01*
X190419047Y-106452380D01*
X190133333Y-106452380D01*
X190038095Y-106404761D01*
X189990476Y-106357142D01*
X187641666Y-69597380D02*
X187641666Y-70311666D01*
X187594047Y-70454523D01*
X187498809Y-70549761D01*
X187355952Y-70597380D01*
X187260714Y-70597380D01*
X188260714Y-70025952D02*
X188165476Y-69978333D01*
X188117857Y-69930714D01*
X188070238Y-69835476D01*
X188070238Y-69787857D01*
X188117857Y-69692619D01*
X188165476Y-69645000D01*
X188260714Y-69597380D01*
X188451190Y-69597380D01*
X188546428Y-69645000D01*
X188594047Y-69692619D01*
X188641666Y-69787857D01*
X188641666Y-69835476D01*
X188594047Y-69930714D01*
X188546428Y-69978333D01*
X188451190Y-70025952D01*
X188260714Y-70025952D01*
X188165476Y-70073571D01*
X188117857Y-70121190D01*
X188070238Y-70216428D01*
X188070238Y-70406904D01*
X188117857Y-70502142D01*
X188165476Y-70549761D01*
X188260714Y-70597380D01*
X188451190Y-70597380D01*
X188546428Y-70549761D01*
X188594047Y-70502142D01*
X188641666Y-70406904D01*
X188641666Y-70216428D01*
X188594047Y-70121190D01*
X188546428Y-70073571D01*
X188451190Y-70025952D01*
X167357142Y-90716666D02*
X167404761Y-90764285D01*
X167452380Y-90907142D01*
X167452380Y-91002380D01*
X167404761Y-91145238D01*
X167309523Y-91240476D01*
X167214285Y-91288095D01*
X167023809Y-91335714D01*
X166880952Y-91335714D01*
X166690476Y-91288095D01*
X166595238Y-91240476D01*
X166500000Y-91145238D01*
X166452380Y-91002380D01*
X166452380Y-90907142D01*
X166500000Y-90764285D01*
X166547619Y-90716666D01*
X167452380Y-89764285D02*
X167452380Y-90335714D01*
X167452380Y-90050000D02*
X166452380Y-90050000D01*
X166595238Y-90145238D01*
X166690476Y-90240476D01*
X166738095Y-90335714D01*
X152311904Y-83502380D02*
X152311904Y-82502380D01*
X152550000Y-82502380D01*
X152692857Y-82550000D01*
X152788095Y-82645238D01*
X152835714Y-82740476D01*
X152883333Y-82930952D01*
X152883333Y-83073809D01*
X152835714Y-83264285D01*
X152788095Y-83359523D01*
X152692857Y-83454761D01*
X152550000Y-83502380D01*
X152311904Y-83502380D01*
X153264285Y-82597619D02*
X153311904Y-82550000D01*
X153407142Y-82502380D01*
X153645238Y-82502380D01*
X153740476Y-82550000D01*
X153788095Y-82597619D01*
X153835714Y-82692857D01*
X153835714Y-82788095D01*
X153788095Y-82930952D01*
X153216666Y-83502380D01*
X153835714Y-83502380D01*
X191238095Y-16452380D02*
X191238095Y-15452380D01*
X191238095Y-15928571D02*
X191809523Y-15928571D01*
X191809523Y-16452380D02*
X191809523Y-15452380D01*
X192238095Y-15547619D02*
X192285714Y-15500000D01*
X192380952Y-15452380D01*
X192619047Y-15452380D01*
X192714285Y-15500000D01*
X192761904Y-15547619D01*
X192809523Y-15642857D01*
X192809523Y-15738095D01*
X192761904Y-15880952D01*
X192190476Y-16452380D01*
X192809523Y-16452380D01*
X150761904Y-32402380D02*
X150761904Y-31402380D01*
X151000000Y-31402380D01*
X151142857Y-31450000D01*
X151238095Y-31545238D01*
X151285714Y-31640476D01*
X151333333Y-31830952D01*
X151333333Y-31973809D01*
X151285714Y-32164285D01*
X151238095Y-32259523D01*
X151142857Y-32354761D01*
X151000000Y-32402380D01*
X150761904Y-32402380D01*
X152190476Y-31735714D02*
X152190476Y-32402380D01*
X151952380Y-31354761D02*
X151714285Y-32069047D01*
X152333333Y-32069047D01*
X155733333Y-87452380D02*
X155400000Y-86976190D01*
X155161904Y-87452380D02*
X155161904Y-86452380D01*
X155542857Y-86452380D01*
X155638095Y-86500000D01*
X155685714Y-86547619D01*
X155733333Y-86642857D01*
X155733333Y-86785714D01*
X155685714Y-86880952D01*
X155638095Y-86928571D01*
X155542857Y-86976190D01*
X155161904Y-86976190D01*
X156685714Y-87452380D02*
X156114285Y-87452380D01*
X156400000Y-87452380D02*
X156400000Y-86452380D01*
X156304761Y-86595238D01*
X156209523Y-86690476D01*
X156114285Y-86738095D01*
X125952380Y-60761904D02*
X126761904Y-60761904D01*
X126857142Y-60714285D01*
X126904761Y-60666666D01*
X126952380Y-60571428D01*
X126952380Y-60380952D01*
X126904761Y-60285714D01*
X126857142Y-60238095D01*
X126761904Y-60190476D01*
X125952380Y-60190476D01*
X125952380Y-59809523D02*
X125952380Y-59190476D01*
X126333333Y-59523809D01*
X126333333Y-59380952D01*
X126380952Y-59285714D01*
X126428571Y-59238095D01*
X126523809Y-59190476D01*
X126761904Y-59190476D01*
X126857142Y-59238095D01*
X126904761Y-59285714D01*
X126952380Y-59380952D01*
X126952380Y-59666666D01*
X126904761Y-59761904D01*
X126857142Y-59809523D01*
X139261904Y-18952380D02*
X139261904Y-17952380D01*
X139500000Y-17952380D01*
X139642857Y-18000000D01*
X139738095Y-18095238D01*
X139785714Y-18190476D01*
X139833333Y-18380952D01*
X139833333Y-18523809D01*
X139785714Y-18714285D01*
X139738095Y-18809523D01*
X139642857Y-18904761D01*
X139500000Y-18952380D01*
X139261904Y-18952380D01*
X140166666Y-17952380D02*
X140833333Y-17952380D01*
X140404761Y-18952380D01*
X135435714Y-22452380D02*
X134864285Y-22452380D01*
X135150000Y-22452380D02*
X135150000Y-21452380D01*
X135054761Y-21595238D01*
X134959523Y-21690476D01*
X134864285Y-21738095D01*
X151688095Y-90952380D02*
X152259523Y-90952380D01*
X151973809Y-91952380D02*
X151973809Y-90952380D01*
X152592857Y-91952380D02*
X152592857Y-90952380D01*
X152973809Y-90952380D01*
X153069047Y-91000000D01*
X153116666Y-91047619D01*
X153164285Y-91142857D01*
X153164285Y-91285714D01*
X153116666Y-91380952D01*
X153069047Y-91428571D01*
X152973809Y-91476190D01*
X152592857Y-91476190D01*
X154069047Y-90952380D02*
X153592857Y-90952380D01*
X153545238Y-91428571D01*
X153592857Y-91380952D01*
X153688095Y-91333333D01*
X153926190Y-91333333D01*
X154021428Y-91380952D01*
X154069047Y-91428571D01*
X154116666Y-91523809D01*
X154116666Y-91761904D01*
X154069047Y-91857142D01*
X154021428Y-91904761D01*
X153926190Y-91952380D01*
X153688095Y-91952380D01*
X153592857Y-91904761D01*
X153545238Y-91857142D01*
X174547380Y-17358333D02*
X175261666Y-17358333D01*
X175404523Y-17405952D01*
X175499761Y-17501190D01*
X175547380Y-17644047D01*
X175547380Y-17739285D01*
X174547380Y-16977380D02*
X174547380Y-16358333D01*
X174928333Y-16691666D01*
X174928333Y-16548809D01*
X174975952Y-16453571D01*
X175023571Y-16405952D01*
X175118809Y-16358333D01*
X175356904Y-16358333D01*
X175452142Y-16405952D01*
X175499761Y-16453571D01*
X175547380Y-16548809D01*
X175547380Y-16834523D01*
X175499761Y-16929761D01*
X175452142Y-16977380D01*
X160333333Y-36452380D02*
X160000000Y-35976190D01*
X159761904Y-36452380D02*
X159761904Y-35452380D01*
X160142857Y-35452380D01*
X160238095Y-35500000D01*
X160285714Y-35547619D01*
X160333333Y-35642857D01*
X160333333Y-35785714D01*
X160285714Y-35880952D01*
X160238095Y-35928571D01*
X160142857Y-35976190D01*
X159761904Y-35976190D01*
X160904761Y-35880952D02*
X160809523Y-35833333D01*
X160761904Y-35785714D01*
X160714285Y-35690476D01*
X160714285Y-35642857D01*
X160761904Y-35547619D01*
X160809523Y-35500000D01*
X160904761Y-35452380D01*
X161095238Y-35452380D01*
X161190476Y-35500000D01*
X161238095Y-35547619D01*
X161285714Y-35642857D01*
X161285714Y-35690476D01*
X161238095Y-35785714D01*
X161190476Y-35833333D01*
X161095238Y-35880952D01*
X160904761Y-35880952D01*
X160809523Y-35928571D01*
X160761904Y-35976190D01*
X160714285Y-36071428D01*
X160714285Y-36261904D01*
X160761904Y-36357142D01*
X160809523Y-36404761D01*
X160904761Y-36452380D01*
X161095238Y-36452380D01*
X161190476Y-36404761D01*
X161238095Y-36357142D01*
X161285714Y-36261904D01*
X161285714Y-36071428D01*
X161238095Y-35976190D01*
X161190476Y-35928571D01*
X161095238Y-35880952D01*
X150811904Y-36452380D02*
X150811904Y-35452380D01*
X151050000Y-35452380D01*
X151192857Y-35500000D01*
X151288095Y-35595238D01*
X151335714Y-35690476D01*
X151383333Y-35880952D01*
X151383333Y-36023809D01*
X151335714Y-36214285D01*
X151288095Y-36309523D01*
X151192857Y-36404761D01*
X151050000Y-36452380D01*
X150811904Y-36452380D01*
X152240476Y-35452380D02*
X152050000Y-35452380D01*
X151954761Y-35500000D01*
X151907142Y-35547619D01*
X151811904Y-35690476D01*
X151764285Y-35880952D01*
X151764285Y-36261904D01*
X151811904Y-36357142D01*
X151859523Y-36404761D01*
X151954761Y-36452380D01*
X152145238Y-36452380D01*
X152240476Y-36404761D01*
X152288095Y-36357142D01*
X152335714Y-36261904D01*
X152335714Y-36023809D01*
X152288095Y-35928571D01*
X152240476Y-35880952D01*
X152145238Y-35833333D01*
X151954761Y-35833333D01*
X151859523Y-35880952D01*
X151811904Y-35928571D01*
X151764285Y-36023809D01*
X138388095Y-86952380D02*
X138959523Y-86952380D01*
X138673809Y-87952380D02*
X138673809Y-86952380D01*
X139292857Y-87952380D02*
X139292857Y-86952380D01*
X139673809Y-86952380D01*
X139769047Y-87000000D01*
X139816666Y-87047619D01*
X139864285Y-87142857D01*
X139864285Y-87285714D01*
X139816666Y-87380952D01*
X139769047Y-87428571D01*
X139673809Y-87476190D01*
X139292857Y-87476190D01*
X140721428Y-86952380D02*
X140530952Y-86952380D01*
X140435714Y-87000000D01*
X140388095Y-87047619D01*
X140292857Y-87190476D01*
X140245238Y-87380952D01*
X140245238Y-87761904D01*
X140292857Y-87857142D01*
X140340476Y-87904761D01*
X140435714Y-87952380D01*
X140626190Y-87952380D01*
X140721428Y-87904761D01*
X140769047Y-87857142D01*
X140816666Y-87761904D01*
X140816666Y-87523809D01*
X140769047Y-87428571D01*
X140721428Y-87380952D01*
X140626190Y-87333333D01*
X140435714Y-87333333D01*
X140340476Y-87380952D01*
X140292857Y-87428571D01*
X140245238Y-87523809D01*
X138785714Y-95952380D02*
X138785714Y-94952380D01*
X139023809Y-94952380D01*
X139166666Y-95000000D01*
X139261904Y-95095238D01*
X139309523Y-95190476D01*
X139357142Y-95380952D01*
X139357142Y-95523809D01*
X139309523Y-95714285D01*
X139261904Y-95809523D01*
X139166666Y-95904761D01*
X139023809Y-95952380D01*
X138785714Y-95952380D01*
X140309523Y-95952380D02*
X139738095Y-95952380D01*
X140023809Y-95952380D02*
X140023809Y-94952380D01*
X139928571Y-95095238D01*
X139833333Y-95190476D01*
X139738095Y-95238095D01*
X140690476Y-95047619D02*
X140738095Y-95000000D01*
X140833333Y-94952380D01*
X141071428Y-94952380D01*
X141166666Y-95000000D01*
X141214285Y-95047619D01*
X141261904Y-95142857D01*
X141261904Y-95238095D01*
X141214285Y-95380952D01*
X140642857Y-95952380D01*
X141261904Y-95952380D01*
X136135714Y-97852380D02*
X135564285Y-97852380D01*
X135850000Y-97852380D02*
X135850000Y-96852380D01*
X135754761Y-96995238D01*
X135659523Y-97090476D01*
X135564285Y-97138095D01*
D13*
X162000000Y-89560000D02*
X161200000Y-89560000D01*
X162000000Y-86440000D02*
X161200000Y-86440000D01*
X162000000Y-89560000D02*
X163800000Y-89560000D01*
X162000000Y-86440000D02*
X162800000Y-86440000D01*
X115859420Y-64510000D02*
X116140580Y-64510000D01*
X115859420Y-63490000D02*
X116140580Y-63490000D01*
X186645000Y-43745000D02*
X189305000Y-43745000D01*
X186645000Y-41145000D02*
X187975000Y-41145000D01*
X186645000Y-43745000D02*
X186645000Y-48885000D01*
X189305000Y-43745000D02*
X189305000Y-48885000D01*
X186645000Y-48885000D02*
X189305000Y-48885000D01*
X186645000Y-42475000D02*
X186645000Y-41145000D01*
X139762742Y-58477500D02*
X140237258Y-58477500D01*
X139762742Y-59522500D02*
X140237258Y-59522500D01*
X139762742Y-61522500D02*
X140237258Y-61522500D01*
X139762742Y-60477500D02*
X140237258Y-60477500D01*
X162162779Y-84490000D02*
X161837221Y-84490000D01*
X162162779Y-85510000D02*
X161837221Y-85510000D01*
X132859420Y-58490000D02*
X133140580Y-58490000D01*
X132859420Y-59510000D02*
X133140580Y-59510000D01*
X176727064Y-90910000D02*
X175272936Y-90910000D01*
X176727064Y-89090000D02*
X175272936Y-89090000D01*
X157762742Y-33477500D02*
X158237258Y-33477500D01*
X157762742Y-34522500D02*
X158237258Y-34522500D01*
X178570000Y-50940000D02*
X172350000Y-50940000D01*
X172350000Y-48630000D02*
X172350000Y-74030000D01*
X121430000Y-74030000D02*
X121430000Y-45970000D01*
X172350000Y-45970000D02*
X171020000Y-45970000D01*
D11*
X125935000Y-40950000D02*
X122125000Y-40950000D01*
D13*
X121430000Y-71370000D02*
X172350000Y-71370000D01*
X172350000Y-74030000D02*
X121430000Y-74030000D01*
X121430000Y-45970000D02*
X169750000Y-45970000D01*
D11*
X146255000Y-79050000D02*
X142445000Y-79050000D01*
D13*
X169750000Y-45970000D02*
X169750000Y-48630000D01*
X178570000Y-69060000D02*
X172350000Y-69060000D01*
X172350000Y-48630000D02*
X121430000Y-48630000D01*
X172350000Y-47300000D02*
X172350000Y-45970000D01*
X178570000Y-50940000D02*
X178570000Y-69060000D01*
X190645000Y-78885000D02*
X193305000Y-78885000D01*
X193305000Y-73745000D02*
X193305000Y-78885000D01*
X190645000Y-73745000D02*
X193305000Y-73745000D01*
X190645000Y-71145000D02*
X191975000Y-71145000D01*
X190645000Y-72475000D02*
X190645000Y-71145000D01*
X190645000Y-73745000D02*
X190645000Y-78885000D01*
X158261252Y-85735000D02*
X157738748Y-85735000D01*
X158261252Y-84265000D02*
X157738748Y-84265000D01*
X96350000Y-70250000D02*
X103650000Y-70250000D01*
X103650000Y-75750000D02*
X103650000Y-74600000D01*
X96350000Y-75750000D02*
X103650000Y-75750000D01*
X116350000Y-31250000D02*
X123650000Y-31250000D01*
X123650000Y-36750000D02*
X123650000Y-35600000D01*
X116350000Y-36750000D02*
X123650000Y-36750000D01*
X157762742Y-29477500D02*
X158237258Y-29477500D01*
X157762742Y-30522500D02*
X158237258Y-30522500D01*
D14*
X117600000Y-58400000D02*
X117600000Y-58900000D01*
X117600000Y-61600000D02*
X117600000Y-61100000D01*
X114400000Y-58400000D02*
X114400000Y-58900000D01*
X114400000Y-61600000D02*
X114400000Y-61100000D01*
X114400000Y-61600000D02*
X114900000Y-61600000D01*
X117600000Y-61100000D02*
X117600000Y-61600000D01*
X117100000Y-58400000D02*
X117600000Y-58400000D01*
X117600000Y-61600000D02*
X117100000Y-61600000D01*
D13*
X132859420Y-61510000D02*
X133140580Y-61510000D01*
X132859420Y-60490000D02*
X133140580Y-60490000D01*
D11*
X136700000Y-90000000D02*
G75*
G03*
X136700000Y-90000000I-1400000J0D01*
G01*
D13*
X191200000Y-87500000D02*
X191200000Y-85550000D01*
X192110000Y-85890000D02*
X192110000Y-84640000D01*
X187090000Y-84940000D02*
X187090000Y-91060000D01*
X187700000Y-88000000D02*
X188200000Y-88000000D01*
X188200000Y-88100000D02*
X187700000Y-88100000D01*
X191810000Y-91060000D02*
X191810000Y-84940000D01*
X187700000Y-90450000D02*
X191200000Y-90450000D01*
X190500000Y-91060000D02*
X190500000Y-90450000D01*
X189200000Y-84940000D02*
X189200000Y-85550000D01*
X191910000Y-86700000D02*
X191910000Y-86400000D01*
X191810000Y-86700000D02*
X192010000Y-86700000D01*
X190500000Y-84940000D02*
X190500000Y-85550000D01*
X189200000Y-91060000D02*
X189200000Y-90450000D01*
X191810000Y-84940000D02*
X187090000Y-84940000D01*
X187090000Y-91060000D02*
X191810000Y-91060000D01*
X192110000Y-84640000D02*
X190860000Y-84640000D01*
X191200000Y-88500000D02*
X191810000Y-88500000D01*
X188200000Y-87900000D02*
X188200000Y-88100000D01*
X192010000Y-86700000D02*
X192010000Y-86400000D01*
X187700000Y-87900000D02*
X188200000Y-87900000D01*
X191810000Y-87500000D02*
X191200000Y-87500000D01*
X187700000Y-85550000D02*
X187700000Y-90450000D01*
X191200000Y-90450000D02*
X191200000Y-88500000D01*
X192010000Y-86400000D02*
X191810000Y-86400000D01*
X191200000Y-85550000D02*
X187700000Y-85550000D01*
G36*
X167238822Y-59400956D02*
G01*
X167349190Y-59571905D01*
X167255304Y-59681220D01*
X167138039Y-59758044D01*
X166996324Y-59723743D01*
X166883688Y-59648179D01*
X166940170Y-59439436D01*
X167059698Y-59267220D01*
X167238822Y-59400956D01*
G37*
G36*
X166434838Y-62157580D02*
G01*
X166534987Y-62157580D01*
X166534881Y-62418959D01*
X166535493Y-62619202D01*
X166537157Y-62692121D01*
X166604646Y-62763124D01*
X166728566Y-62740697D01*
X166753061Y-62701836D01*
X166756753Y-62657037D01*
X166757300Y-62423507D01*
X166757300Y-62157580D01*
X166856829Y-62158199D01*
X166956461Y-62158728D01*
X166956461Y-62718591D01*
X166950879Y-62738331D01*
X166945298Y-62761276D01*
X166913052Y-62825561D01*
X166716372Y-62944210D01*
X166593589Y-62946999D01*
X166564030Y-62942242D01*
X166441557Y-62889635D01*
X166361561Y-62796411D01*
X166353500Y-62778220D01*
X166340374Y-62732745D01*
X166335929Y-62710525D01*
X166335310Y-62434159D01*
X166334781Y-62157484D01*
X166434838Y-62157580D01*
G37*
G36*
X167376800Y-59033652D02*
G01*
X167432616Y-59226089D01*
X167424740Y-59334607D01*
X167259161Y-59305872D01*
X167121296Y-59245620D01*
X167159831Y-59118686D01*
X167275602Y-58948170D01*
X167295653Y-58936388D01*
X167376800Y-59033652D01*
G37*
G36*
X166689385Y-59048631D02*
G01*
X166863877Y-59140215D01*
X166979496Y-59266188D01*
X166886354Y-59390326D01*
X166727728Y-59472480D01*
X166661561Y-59365194D01*
X166639610Y-59175574D01*
X166674708Y-59053075D01*
X166689385Y-59048630D01*
X166689385Y-59048631D01*
G37*
G36*
X165119353Y-62158196D02*
G01*
X165389725Y-62158726D01*
X165390963Y-62343728D01*
X165220120Y-62343728D01*
X165049278Y-62343622D01*
X165049278Y-62464958D01*
X165362644Y-62464958D01*
X165362644Y-62634767D01*
X165049278Y-62634767D01*
X165049278Y-62750005D01*
X165390963Y-62750005D01*
X165390963Y-62938004D01*
X164849187Y-62938004D01*
X164849187Y-62157484D01*
X165119353Y-62158196D01*
G37*
G36*
X164456549Y-62157486D02*
G01*
X164453609Y-62235109D01*
X164453036Y-62486665D01*
X164453036Y-62741637D01*
X164770329Y-62741637D01*
X164770434Y-62839718D01*
X164770329Y-62937800D01*
X164254908Y-62937800D01*
X164254908Y-62157589D01*
X164456549Y-62157484D01*
X164456549Y-62157486D01*
G37*
G36*
X166213754Y-58479101D02*
G01*
X166122533Y-58533498D01*
X165929065Y-58668039D01*
X165927364Y-58669406D01*
X165745308Y-58815626D01*
X165655132Y-58898807D01*
X165572044Y-58975450D01*
X165410056Y-59146706D01*
X165408016Y-59149182D01*
X165260128Y-59328587D01*
X165188908Y-59428182D01*
X165123044Y-59520286D01*
X165000082Y-59720190D01*
X164999587Y-59720996D01*
X164890539Y-59929910D01*
X164841435Y-60043083D01*
X164796685Y-60146222D01*
X164749850Y-60276062D01*
X164711521Y-60418328D01*
X164710105Y-60423581D01*
X164722229Y-60503657D01*
X164830998Y-60431166D01*
X165023472Y-60219739D01*
X165232818Y-60034819D01*
X165453523Y-59879569D01*
X165680069Y-59757150D01*
X165906941Y-59670724D01*
X166128623Y-59623452D01*
X166339601Y-59618496D01*
X166534356Y-59659017D01*
X166539521Y-59660567D01*
X166442941Y-59498174D01*
X166373537Y-59310821D01*
X166225503Y-59109003D01*
X166134831Y-58891595D01*
X166134887Y-58703639D01*
X166254480Y-58703639D01*
X166409524Y-58804576D01*
X166522784Y-58948896D01*
X166437424Y-59073509D01*
X166414263Y-59257714D01*
X166332097Y-59162319D01*
X166422324Y-59276525D01*
X166428836Y-59288410D01*
X166520010Y-59530147D01*
X166666134Y-59721355D01*
X166768970Y-59800110D01*
X166868972Y-59867858D01*
X166939371Y-59960009D01*
X166986278Y-60065405D01*
X167015805Y-60172890D01*
X167034066Y-60271306D01*
X167047171Y-60349497D01*
X167061235Y-60396305D01*
X167082367Y-60400573D01*
X167116682Y-60351144D01*
X167170290Y-60236861D01*
X167249305Y-60046567D01*
X167359838Y-59769104D01*
X167362421Y-59765485D01*
X167367795Y-59756390D01*
X167477358Y-59622704D01*
X167560279Y-59478891D01*
X167610779Y-59293038D01*
X167623077Y-59033230D01*
X167627829Y-59016073D01*
X167667929Y-58903418D01*
X167675784Y-58867348D01*
X167623281Y-59002121D01*
X167545247Y-58855491D01*
X167391564Y-58731439D01*
X167466892Y-58604026D01*
X167620482Y-58437307D01*
X167430945Y-58514300D01*
X167243153Y-58682662D01*
X167224446Y-58696614D01*
X167248321Y-58703229D01*
X167272247Y-58762675D01*
X167125227Y-58797900D01*
X166991474Y-58805955D01*
X166807521Y-58869110D01*
X166666653Y-58929653D01*
X166578869Y-58926465D01*
X166644430Y-58833453D01*
X166616318Y-58830247D01*
X166412295Y-58725663D01*
X166254480Y-58703639D01*
X166134887Y-58703639D01*
X166134895Y-58678612D01*
X166155669Y-58657631D01*
X166357302Y-58651975D01*
X166633676Y-58771526D01*
X166853910Y-58655954D01*
X167029211Y-58625436D01*
X167205527Y-58636857D01*
X167399314Y-58463844D01*
X167639609Y-58371137D01*
X167692836Y-58374132D01*
X167712576Y-58387155D01*
X167757682Y-58539548D01*
X167755675Y-58731733D01*
X167726426Y-58917665D01*
X167682914Y-59036521D01*
X167668455Y-59301734D01*
X167614458Y-59498056D01*
X167528853Y-59651507D01*
X167419571Y-59788103D01*
X167404894Y-59997777D01*
X167353739Y-60201276D01*
X167265780Y-60401163D01*
X167140693Y-60599997D01*
X167082367Y-60671887D01*
X166978151Y-60800340D01*
X166992207Y-60885814D01*
X167030137Y-61043323D01*
X167110872Y-61257063D01*
X167194572Y-61461075D01*
X167275911Y-61660443D01*
X167339886Y-61792941D01*
X167441275Y-61850923D01*
X167532019Y-61892884D01*
X167577184Y-61945387D01*
X167617047Y-62055658D01*
X167649634Y-62200875D01*
X167656456Y-62284178D01*
X167651081Y-62300921D01*
X167659246Y-62321488D01*
X167673303Y-62422257D01*
X167657076Y-62535738D01*
X167581318Y-62641262D01*
X167535131Y-62665015D01*
X167527058Y-62669167D01*
X167523750Y-62671025D01*
X167534086Y-62685494D01*
X167559924Y-62717844D01*
X167591860Y-62758875D01*
X167604469Y-62774068D01*
X167633615Y-62810758D01*
X167664104Y-62849205D01*
X167673406Y-62860574D01*
X167691596Y-62883828D01*
X167720534Y-62920415D01*
X167734280Y-62938089D01*
X167487887Y-62938089D01*
X167476932Y-62922999D01*
X167445926Y-62880108D01*
X167412543Y-62834735D01*
X167386395Y-62798665D01*
X167371099Y-62777685D01*
X167345777Y-62743062D01*
X167341024Y-62736531D01*
X167314565Y-62700170D01*
X167306400Y-62689628D01*
X167290173Y-62690052D01*
X167274050Y-62690475D01*
X167272812Y-62938109D01*
X167173696Y-62938109D01*
X167073650Y-62935627D01*
X167073650Y-62935521D01*
X167073214Y-62820015D01*
X167073333Y-62545881D01*
X167073428Y-62429404D01*
X167273316Y-62429404D01*
X167273845Y-62519114D01*
X167341024Y-62520871D01*
X167418436Y-62515913D01*
X167459364Y-62489454D01*
X167475176Y-62401398D01*
X167416472Y-62346104D01*
X167339577Y-62342485D01*
X167273845Y-62342485D01*
X167273316Y-62429404D01*
X167073428Y-62429404D01*
X167073650Y-62158825D01*
X167126877Y-62158613D01*
X166931437Y-61984773D01*
X166886600Y-61940442D01*
X166957172Y-61940442D01*
X167074189Y-62031583D01*
X167194470Y-62157174D01*
X167411314Y-62191919D01*
X167497875Y-62268524D01*
X167535131Y-62316610D01*
X167604057Y-62265797D01*
X167594239Y-62187869D01*
X167529437Y-61964213D01*
X167501531Y-61931244D01*
X167420399Y-61894244D01*
X167299683Y-61822723D01*
X167195947Y-61929827D01*
X166957172Y-61940442D01*
X166886600Y-61940442D01*
X166846386Y-61900681D01*
X166734515Y-61751691D01*
X166586032Y-61524853D01*
X166496322Y-61386153D01*
X166471517Y-61350393D01*
X166413226Y-61410648D01*
X166252387Y-61545247D01*
X166047770Y-61681123D01*
X165958163Y-61751299D01*
X166098413Y-61801942D01*
X166312250Y-61818169D01*
X166470267Y-61792885D01*
X166598021Y-61794708D01*
X166748812Y-61919041D01*
X166730519Y-62023841D01*
X166103167Y-62101252D01*
X166095621Y-62101829D01*
X165789698Y-62125230D01*
X165563874Y-62131143D01*
X165312424Y-62114208D01*
X165034189Y-62070349D01*
X165024680Y-62070667D01*
X164923441Y-62048651D01*
X166095621Y-62048651D01*
X166706850Y-61973203D01*
X166709226Y-61967519D01*
X166704268Y-61942818D01*
X166641429Y-61873158D01*
X166585929Y-61840602D01*
X166525364Y-61837813D01*
X166525363Y-61837814D01*
X166435446Y-61844119D01*
X166435446Y-61844013D01*
X166321654Y-61863546D01*
X166205321Y-61890400D01*
X166190188Y-61901993D01*
X166184280Y-61940639D01*
X166095621Y-62048651D01*
X164923441Y-62048651D01*
X164816363Y-62025365D01*
X164638388Y-61944676D01*
X164492413Y-61828821D01*
X164380221Y-61678645D01*
X164303041Y-61495671D01*
X164261729Y-61281155D01*
X164255293Y-61064015D01*
X164269120Y-60833888D01*
X164301142Y-60598415D01*
X164349288Y-60365238D01*
X164405469Y-60163600D01*
X164440220Y-60163600D01*
X164459856Y-60169801D01*
X164692814Y-60257857D01*
X164711521Y-60266332D01*
X164719376Y-60247418D01*
X164765781Y-60135488D01*
X164772499Y-60117814D01*
X164755239Y-60110166D01*
X164513703Y-60018182D01*
X164502128Y-60014462D01*
X164493547Y-60023040D01*
X164490346Y-60026141D01*
X164488796Y-60030068D01*
X164446937Y-60144169D01*
X164440220Y-60163600D01*
X164405469Y-60163600D01*
X164411487Y-60141999D01*
X164498592Y-59914170D01*
X164540301Y-59824086D01*
X164575715Y-59824086D01*
X164594629Y-59832354D01*
X164822625Y-59946869D01*
X164841435Y-59957618D01*
X164850634Y-59937981D01*
X164902413Y-59830804D01*
X164911199Y-59813751D01*
X164894455Y-59804242D01*
X164663669Y-59686627D01*
X164646408Y-59678979D01*
X164637830Y-59695825D01*
X164584500Y-59805482D01*
X164575715Y-59824086D01*
X164540301Y-59824086D01*
X164601056Y-59692864D01*
X164702875Y-59506793D01*
X164741700Y-59506793D01*
X164761750Y-59516094D01*
X164982512Y-59642495D01*
X165000082Y-59654380D01*
X165010934Y-59636190D01*
X165073256Y-59534077D01*
X165084004Y-59517645D01*
X165067675Y-59506689D01*
X164842779Y-59376258D01*
X164826863Y-59368713D01*
X164817354Y-59383596D01*
X164753069Y-59487775D01*
X164741700Y-59506793D01*
X164702875Y-59506793D01*
X164718157Y-59478865D01*
X164849170Y-59272958D01*
X164902990Y-59199421D01*
X164942928Y-59199421D01*
X164961738Y-59210790D01*
X165172785Y-59355587D01*
X165188908Y-59367783D01*
X165200897Y-59351557D01*
X165273760Y-59256575D01*
X165286473Y-59240556D01*
X165270350Y-59228153D01*
X165055996Y-59080255D01*
X165040906Y-59071160D01*
X165029951Y-59085010D01*
X164955950Y-59181748D01*
X164942928Y-59199421D01*
X164902990Y-59199421D01*
X164993372Y-59075927D01*
X165131566Y-58910653D01*
X165176402Y-58910653D01*
X165194592Y-58923676D01*
X165393237Y-59084596D01*
X165408016Y-59098032D01*
X165421452Y-59083252D01*
X165503927Y-58996539D01*
X165518397Y-58981760D01*
X165503101Y-58967807D01*
X165300529Y-58802546D01*
X165286473Y-58792418D01*
X165274484Y-58804923D01*
X165191388Y-58894013D01*
X165176402Y-58910653D01*
X165131566Y-58910653D01*
X165150041Y-58888558D01*
X165318452Y-58711635D01*
X165385088Y-58650101D01*
X165432717Y-58650101D01*
X165451424Y-58664674D01*
X165641697Y-58835826D01*
X165655132Y-58849468D01*
X165669292Y-58836653D01*
X165760242Y-58759242D01*
X165776882Y-58745392D01*
X165761690Y-58729992D01*
X165568419Y-58552432D01*
X165555500Y-58541890D01*
X165542891Y-58552742D01*
X165450287Y-58634184D01*
X165432717Y-58650101D01*
X165385088Y-58650101D01*
X165497881Y-58545943D01*
X165664803Y-58410736D01*
X165719521Y-58410736D01*
X165736781Y-58427065D01*
X165915272Y-58613411D01*
X165927364Y-58626846D01*
X165941937Y-58616201D01*
X166040742Y-58547678D01*
X166059655Y-58534862D01*
X166044566Y-58517809D01*
X165864112Y-58327123D01*
X165852330Y-58315651D01*
X165838791Y-58325056D01*
X165738642Y-58396576D01*
X165719521Y-58410736D01*
X165664803Y-58410736D01*
X165687606Y-58392266D01*
X165886903Y-58251389D01*
X165957922Y-58207957D01*
X166019451Y-58207957D01*
X166036814Y-58226147D01*
X166203006Y-58423551D01*
X166213754Y-58437814D01*
X166229154Y-58428822D01*
X166334367Y-58370118D01*
X166354624Y-58359266D01*
X166340982Y-58340662D01*
X166173447Y-58136747D01*
X166162802Y-58125378D01*
X166149159Y-58132819D01*
X166041052Y-58195141D01*
X166019451Y-58207957D01*
X165957922Y-58207957D01*
X166095049Y-58124097D01*
X166268565Y-58033497D01*
X166344082Y-58033497D01*
X166362376Y-58053031D01*
X166524434Y-58257153D01*
X166533735Y-58271312D01*
X166549238Y-58264388D01*
X166660343Y-58216122D01*
X166682770Y-58207130D01*
X166669747Y-58186873D01*
X166593708Y-58078340D01*
X166508517Y-57975413D01*
X166499422Y-57965181D01*
X166486606Y-57970039D01*
X166367854Y-58021405D01*
X166344082Y-58033497D01*
X166268565Y-58033497D01*
X166311320Y-58011173D01*
X166501609Y-57932468D01*
X166598039Y-57890043D01*
X166688765Y-57890043D01*
X166706128Y-57909474D01*
X166861054Y-58112046D01*
X166871079Y-58127859D01*
X166887512Y-58118867D01*
X166995206Y-58050137D01*
X167009882Y-58038975D01*
X166999960Y-58023472D01*
X166840280Y-57818110D01*
X166827981Y-57804468D01*
X166813305Y-57815629D01*
X166711916Y-57878262D01*
X166688765Y-57890043D01*
X166598039Y-57890043D01*
X166697345Y-57846353D01*
X166871906Y-57710830D01*
X166887822Y-57519834D01*
X166725868Y-57429607D01*
X166542532Y-57470567D01*
X166369714Y-57407593D01*
X166334674Y-57255167D01*
X166436480Y-57130504D01*
X166563291Y-57072411D01*
X166709435Y-57052782D01*
X166709540Y-57052871D01*
X166885429Y-57069434D01*
X167048771Y-57135735D01*
X167191680Y-57264124D01*
X167284585Y-57461789D01*
X167287697Y-57677178D01*
X167212493Y-57878147D01*
X167070448Y-58032553D01*
X166921951Y-58131563D01*
X166871079Y-58157105D01*
X166753361Y-58216211D01*
X166535464Y-58306777D01*
X166533735Y-58307648D01*
X166324927Y-58412808D01*
X166213754Y-58479101D01*
G37*
G36*
X165592404Y-62158213D02*
G01*
X165691933Y-62159764D01*
X165697098Y-62172373D01*
X165707020Y-62195111D01*
X165719319Y-62224463D01*
X165731928Y-62252782D01*
X165740403Y-62272005D01*
X165759936Y-62318514D01*
X165767791Y-62336601D01*
X165798384Y-62407294D01*
X165809339Y-62432202D01*
X165817298Y-62451012D01*
X165825359Y-62470133D01*
X165833420Y-62488736D01*
X165843859Y-62513128D01*
X165854401Y-62536279D01*
X165859359Y-62526460D01*
X165868248Y-62505583D01*
X165875379Y-62488426D01*
X165905455Y-62419800D01*
X165915480Y-62396752D01*
X165925298Y-62374325D01*
X165956408Y-62302391D01*
X165979248Y-62248854D01*
X165986897Y-62231594D01*
X165993718Y-62216402D01*
X166008911Y-62181055D01*
X166018936Y-62158834D01*
X166216444Y-62158834D01*
X166216444Y-62937081D01*
X166018419Y-62937081D01*
X166017800Y-62828974D01*
X166023381Y-62647073D01*
X166030616Y-62564701D01*
X166028547Y-62556122D01*
X166016455Y-62577930D01*
X165987103Y-62654204D01*
X165981108Y-62670327D01*
X165970773Y-62697406D01*
X165962608Y-62718387D01*
X165953410Y-62743811D01*
X165939974Y-62778434D01*
X165932222Y-62797658D01*
X165926435Y-62814298D01*
X165924059Y-62822980D01*
X165855226Y-62822360D01*
X165786290Y-62821741D01*
X165777298Y-62798487D01*
X165762622Y-62760039D01*
X165750530Y-62728827D01*
X165725208Y-62664335D01*
X165698750Y-62597362D01*
X165689758Y-62573591D01*
X165680147Y-62555918D01*
X165678702Y-62565529D01*
X165684696Y-62630228D01*
X165689655Y-62811716D01*
X165689655Y-62938013D01*
X165491527Y-62938013D01*
X165492146Y-62548373D01*
X165492972Y-62158526D01*
X165592604Y-62158103D01*
X165592404Y-62158213D01*
G37*
X173450000Y-85000000D02*
X173450000Y-87000000D01*
X177750000Y-85000000D02*
X173450000Y-85000000D01*
X173450000Y-87000000D02*
X177750000Y-87000000D01*
X157762742Y-31477500D02*
X158237258Y-31477500D01*
X157762742Y-32522500D02*
X158237258Y-32522500D01*
D11*
X145400000Y-90000000D02*
G75*
G03*
X145400000Y-90000000I-1400000J0D01*
G01*
D13*
X116350000Y-88750000D02*
X123650000Y-88750000D01*
X123650000Y-88750000D02*
X123650000Y-87600000D01*
X116350000Y-83250000D02*
X123650000Y-83250000D01*
X96350000Y-44250000D02*
X103650000Y-44250000D01*
X96350000Y-49750000D02*
X103650000Y-49750000D01*
X103650000Y-49750000D02*
X103650000Y-48600000D01*
X100025000Y-52345000D02*
X101355000Y-52345000D01*
X101355000Y-54945000D02*
X101355000Y-67705000D01*
X98695000Y-54945000D02*
X101355000Y-54945000D01*
X98695000Y-67705000D02*
X101355000Y-67705000D01*
X98695000Y-54945000D02*
X98695000Y-67705000D01*
X101355000Y-52345000D02*
X101355000Y-53675000D01*
X158237258Y-88477500D02*
X157762742Y-88477500D01*
X158237258Y-89522500D02*
X157762742Y-89522500D01*
X155485000Y-33265000D02*
X153200000Y-33265000D01*
X155485000Y-34735000D02*
X155485000Y-33265000D01*
X153200000Y-34735000D02*
X155485000Y-34735000D01*
X164140000Y-38260000D02*
X164140000Y-38005000D01*
X168000000Y-27740000D02*
X171860000Y-27740000D01*
X171860000Y-27740000D02*
X171860000Y-27995000D01*
X168000000Y-27740000D02*
X164140000Y-27740000D01*
X164140000Y-27995000D02*
X162325000Y-27995000D01*
X164140000Y-27740000D02*
X164140000Y-27995000D01*
X168000000Y-38260000D02*
X171860000Y-38260000D01*
X171860000Y-38260000D02*
X171860000Y-38005000D01*
X168000000Y-38260000D02*
X164140000Y-38260000D01*
X153200000Y-30735000D02*
X155485000Y-30735000D01*
X155485000Y-29265000D02*
X153200000Y-29265000D01*
X155485000Y-30735000D02*
X155485000Y-29265000D01*
X193305000Y-43745000D02*
X193305000Y-48885000D01*
X190645000Y-48885000D02*
X193305000Y-48885000D01*
X190645000Y-43745000D02*
X190645000Y-48885000D01*
X190645000Y-41145000D02*
X191975000Y-41145000D01*
X190645000Y-43745000D02*
X193305000Y-43745000D01*
X190645000Y-42475000D02*
X190645000Y-41145000D01*
X120735000Y-60261252D02*
X120735000Y-59738748D01*
X119265000Y-60261252D02*
X119265000Y-59738748D01*
X190645000Y-67680000D02*
X190645000Y-66350000D01*
X193305000Y-65080000D02*
X193305000Y-52320000D01*
X193305000Y-65080000D02*
X190645000Y-65080000D01*
X191975000Y-67680000D02*
X190645000Y-67680000D01*
X190645000Y-65080000D02*
X190645000Y-52320000D01*
X193305000Y-52320000D02*
X190645000Y-52320000D01*
X177859420Y-29490000D02*
X178140580Y-29490000D01*
X177859420Y-30510000D02*
X178140580Y-30510000D01*
X158345000Y-102975000D02*
X158345000Y-101645000D01*
X160945000Y-101645000D02*
X173705000Y-101645000D01*
X160945000Y-104305000D02*
X160945000Y-101645000D01*
X158345000Y-101645000D02*
X159675000Y-101645000D01*
X173705000Y-104305000D02*
X173705000Y-101645000D01*
X160945000Y-104305000D02*
X173705000Y-104305000D01*
X115859420Y-55490000D02*
X116140580Y-55490000D01*
X115859420Y-56510000D02*
X116140580Y-56510000D01*
X186645000Y-73745000D02*
X189305000Y-73745000D01*
X186645000Y-73745000D02*
X186645000Y-78885000D01*
X189305000Y-73745000D02*
X189305000Y-78885000D01*
X186645000Y-72475000D02*
X186645000Y-71145000D01*
X186645000Y-78885000D02*
X189305000Y-78885000D01*
X186645000Y-71145000D02*
X187975000Y-71145000D01*
X167735000Y-88261252D02*
X167735000Y-87738748D01*
X166265000Y-88261252D02*
X166265000Y-87738748D01*
X155250000Y-86000000D02*
X155250000Y-84000000D01*
X155250000Y-86000000D02*
X151350000Y-86000000D01*
X155250000Y-84000000D02*
X151350000Y-84000000D01*
X155485000Y-31265000D02*
X153200000Y-31265000D01*
X155485000Y-32735000D02*
X155485000Y-31265000D01*
X153200000Y-32735000D02*
X155485000Y-32735000D01*
X157762742Y-87522500D02*
X158237258Y-87522500D01*
X157762742Y-86477500D02*
X158237258Y-86477500D01*
D14*
X130130000Y-58400000D02*
X130350000Y-58400000D01*
X130350000Y-61600000D02*
X130130000Y-61600000D01*
X127650000Y-58400000D02*
X127870000Y-58400000D01*
X130350000Y-61600000D02*
X130350000Y-60880000D01*
X127650000Y-59120000D02*
X127650000Y-58400000D01*
X127650000Y-61700000D02*
X127650000Y-60880000D01*
X130350000Y-58400000D02*
X130350000Y-59120000D01*
D13*
X136350000Y-19250000D02*
X143650000Y-19250000D01*
X136350000Y-24750000D02*
X143650000Y-24750000D01*
X143650000Y-24750000D02*
X143650000Y-23600000D01*
D14*
X158500000Y-65250000D02*
X158500000Y-64750000D01*
X156750000Y-65500000D02*
X156500000Y-65750000D01*
X156750000Y-64500000D02*
X156500000Y-64750000D01*
X159750000Y-64250000D02*
X158750000Y-64250000D01*
X163250000Y-64750000D02*
X163500000Y-65000000D01*
X156500000Y-65750000D02*
X156500000Y-65250000D01*
X163000000Y-64500000D02*
X162750000Y-64250000D01*
X161500000Y-65500000D02*
X161750000Y-65750000D01*
X162750000Y-64250000D02*
X161750000Y-64250000D01*
X162750000Y-65750000D02*
X163000000Y-65500000D01*
X156500000Y-64750000D02*
X156500000Y-64250000D01*
X161750000Y-64250000D02*
X161500000Y-64500000D01*
X158750000Y-64250000D02*
X158500000Y-64500000D01*
X156500000Y-65250000D02*
X156750000Y-65500000D01*
X160000000Y-64500000D02*
X159750000Y-64250000D01*
X160250000Y-64250000D02*
X160000000Y-64500000D01*
X158750000Y-65750000D02*
X159750000Y-65750000D01*
X161250000Y-64250000D02*
X160250000Y-64250000D01*
X163000000Y-65500000D02*
X163000000Y-64500000D01*
X160250000Y-65750000D02*
X161250000Y-65750000D01*
X160000000Y-65250000D02*
X160000000Y-64750000D01*
X158250000Y-64250000D02*
X157250000Y-64250000D01*
X158250000Y-65750000D02*
X158500000Y-65500000D01*
X161250000Y-65750000D02*
X161500000Y-65500000D01*
X157000000Y-65500000D02*
X157250000Y-65750000D01*
X160000000Y-65500000D02*
X160250000Y-65750000D01*
X159750000Y-65750000D02*
X160000000Y-65500000D01*
X157250000Y-64250000D02*
X157000000Y-64500000D01*
X163500000Y-65000000D02*
X163250000Y-65250000D01*
X156500000Y-64250000D02*
X156750000Y-64500000D01*
X163250000Y-65250000D02*
X163250000Y-64750000D01*
X161500000Y-64500000D02*
X161250000Y-64250000D01*
X157250000Y-65750000D02*
X158250000Y-65750000D01*
X158500000Y-65500000D02*
X158750000Y-65750000D01*
X161750000Y-65750000D02*
X162750000Y-65750000D01*
X161500000Y-65250000D02*
X161500000Y-64750000D01*
X157000000Y-64500000D02*
X157000000Y-65500000D01*
X158500000Y-64500000D02*
X158250000Y-64250000D01*
D13*
X173655000Y-17025000D02*
X173655000Y-18355000D01*
X171055000Y-18355000D02*
X158295000Y-18355000D01*
X171055000Y-15695000D02*
X158295000Y-15695000D01*
X171055000Y-15695000D02*
X171055000Y-18355000D01*
X173655000Y-18355000D02*
X172325000Y-18355000D01*
X158295000Y-15695000D02*
X158295000Y-18355000D01*
X157762742Y-35477500D02*
X158237258Y-35477500D01*
X157762742Y-36522500D02*
X158237258Y-36522500D01*
X155485000Y-36735000D02*
X155485000Y-35265000D01*
X153200000Y-36735000D02*
X155485000Y-36735000D01*
X155485000Y-35265000D02*
X153200000Y-35265000D01*
D11*
X141050000Y-90000000D02*
G75*
G03*
X141050000Y-90000000I-1400000J0D01*
G01*
D13*
X136350000Y-101750000D02*
X143650000Y-101750000D01*
X143650000Y-101750000D02*
X143650000Y-100600000D01*
X136350000Y-96250000D02*
X143650000Y-96250000D01*
M02*
