G04 #@! TF.GenerationSoftware,KiCad,Pcbnew,(6.0.7)*
G04 #@! TF.CreationDate,2023-01-30T13:34:12-08:00*
G04 #@! TF.ProjectId,RobotDriver3,526f626f-7444-4726-9976-6572332e6b69,rev?*
G04 #@! TF.SameCoordinates,Original*
G04 #@! TF.FileFunction,Soldermask,Top*
G04 #@! TF.FilePolarity,Negative*
%FSLAX46Y46*%
G04 Gerber Fmt 4.6, Leading zero omitted, Abs format (unit mm)*
G04 Created by KiCad (PCBNEW (6.0.7)) date 2023-01-30 13:34:12*
%MOMM*%
%LPD*%
G01*
G04 APERTURE LIST*
G04 Aperture macros list*
%AMRoundRect*
0 Rectangle with rounded corners*
0 $1 Rounding radius*
0 $2 $3 $4 $5 $6 $7 $8 $9 X,Y pos of 4 corners*
0 Add a 4 corners polygon primitive as box body*
4,1,4,$2,$3,$4,$5,$6,$7,$8,$9,$2,$3,0*
0 Add four circle primitives for the rounded corners*
1,1,$1+$1,$2,$3*
1,1,$1+$1,$4,$5*
1,1,$1+$1,$6,$7*
1,1,$1+$1,$8,$9*
0 Add four rect primitives between the rounded corners*
20,1,$1+$1,$2,$3,$4,$5,0*
20,1,$1+$1,$4,$5,$6,$7,0*
20,1,$1+$1,$6,$7,$8,$9,0*
20,1,$1+$1,$8,$9,$2,$3,0*%
G04 Aperture macros list end*
%ADD10C,0.650000*%
%ADD11C,2.500000*%
%ADD12C,0.700000*%
%ADD13RoundRect,0.150000X0.512500X0.150000X-0.512500X0.150000X-0.512500X-0.150000X0.512500X-0.150000X0*%
%ADD14RoundRect,0.250000X-1.175000X-0.450000X1.175000X-0.450000X1.175000X0.450000X-1.175000X0.450000X0*%
%ADD15RoundRect,0.225000X-0.225000X-0.250000X0.225000X-0.250000X0.225000X0.250000X-0.225000X0.250000X0*%
%ADD16R,1.700000X1.700000*%
%ADD17O,1.700000X1.700000*%
%ADD18RoundRect,0.200000X-0.200000X-0.275000X0.200000X-0.275000X0.200000X0.275000X-0.200000X0.275000X0*%
%ADD19RoundRect,0.218750X0.218750X0.256250X-0.218750X0.256250X-0.218750X-0.256250X0.218750X-0.256250X0*%
%ADD20C,0.800000*%
%ADD21C,6.400000*%
%ADD22RoundRect,0.250000X0.312500X0.625000X-0.312500X0.625000X-0.312500X-0.625000X0.312500X-0.625000X0*%
%ADD23R,1.524000X1.524000*%
%ADD24C,1.524000*%
%ADD25RoundRect,0.250000X0.250000X0.475000X-0.250000X0.475000X-0.250000X-0.475000X0.250000X-0.475000X0*%
%ADD26R,1.500000X1.000000*%
%ADD27R,0.450000X0.300000*%
%ADD28R,0.300000X0.450000*%
%ADD29C,2.000000*%
%ADD30RoundRect,0.250000X-0.625000X0.350000X-0.625000X-0.350000X0.625000X-0.350000X0.625000X0.350000X0*%
%ADD31O,1.750000X1.200000*%
%ADD32R,1.300000X1.700000*%
%ADD33C,1.152000*%
%ADD34RoundRect,0.200000X0.200000X0.275000X-0.200000X0.275000X-0.200000X-0.275000X0.200000X-0.275000X0*%
%ADD35RoundRect,0.150000X-0.875000X-0.150000X0.875000X-0.150000X0.875000X0.150000X-0.875000X0.150000X0*%
%ADD36RoundRect,0.250000X0.475000X-0.250000X0.475000X0.250000X-0.475000X0.250000X-0.475000X-0.250000X0*%
%ADD37R,0.900000X1.200000*%
%ADD38R,0.250000X0.675000*%
%ADD39R,0.675000X0.250000*%
G04 APERTURE END LIST*
D10*
X87325000Y-63000000D02*
G75*
G03*
X87325000Y-63000000I-325000J0D01*
G01*
D11*
X161250000Y-60000000D02*
G75*
G03*
X161250000Y-60000000I-1250000J0D01*
G01*
D10*
X192325000Y-106000000D02*
G75*
G03*
X192325000Y-106000000I-325000J0D01*
G01*
X192325000Y-14000000D02*
G75*
G03*
X192325000Y-14000000I-325000J0D01*
G01*
D12*
X158000000Y-65000000D02*
G75*
G03*
X158000000Y-65000000I-250000J0D01*
G01*
X159500000Y-65000000D02*
G75*
G03*
X159500000Y-65000000I-250000J0D01*
G01*
X162500000Y-65000000D02*
G75*
G03*
X162500000Y-65000000I-250000J0D01*
G01*
X161000000Y-65000000D02*
G75*
G03*
X161000000Y-65000000I-250000J0D01*
G01*
D13*
X163137500Y-88950000D03*
X163137500Y-88000000D03*
X163137500Y-87050000D03*
X160862500Y-87050000D03*
X160862500Y-88950000D03*
D14*
X171000000Y-86000000D03*
D15*
X115225000Y-64000000D03*
X116775000Y-64000000D03*
D14*
X119000000Y-49000000D03*
D16*
X187975000Y-42475000D03*
D17*
X187975000Y-45015000D03*
X187975000Y-47555000D03*
D18*
X139175000Y-59000000D03*
X140825000Y-59000000D03*
X139175000Y-61000000D03*
X140825000Y-61000000D03*
D19*
X162787500Y-85000000D03*
X161212500Y-85000000D03*
D15*
X132225000Y-59000000D03*
X133775000Y-59000000D03*
D20*
X183697056Y-101302944D03*
D21*
X182000000Y-103000000D03*
D20*
X182000000Y-100600000D03*
X183697056Y-104697056D03*
X184400000Y-103000000D03*
X180302944Y-101302944D03*
X179600000Y-103000000D03*
X180302944Y-104697056D03*
X182000000Y-105400000D03*
D22*
X177462500Y-90000000D03*
X174537500Y-90000000D03*
D18*
X157175000Y-34000000D03*
X158825000Y-34000000D03*
D23*
X171020000Y-47300000D03*
X171020000Y-44760000D03*
X171020000Y-42220000D03*
D24*
X168480000Y-47300000D03*
X168480000Y-42220000D03*
X168480000Y-44760000D03*
X165940000Y-44760000D03*
X165940000Y-42220000D03*
X165940000Y-47300000D03*
X163400000Y-47300000D03*
X163400000Y-44760000D03*
X163400000Y-42220000D03*
X160860000Y-47300000D03*
X160860000Y-42220000D03*
X160860000Y-44760000D03*
X158320000Y-42220000D03*
X158320000Y-47300000D03*
X158320000Y-44760000D03*
X155780000Y-42220000D03*
X155780000Y-44760000D03*
X155780000Y-47300000D03*
X153240000Y-42220000D03*
X153240000Y-44760000D03*
X153240000Y-47300000D03*
X150700000Y-44760000D03*
X150700000Y-42220000D03*
X150700000Y-47300000D03*
X148160000Y-44760000D03*
X148160000Y-42220000D03*
X148160000Y-47300000D03*
X145620000Y-47300000D03*
X145620000Y-42220000D03*
X145620000Y-44760000D03*
X143080000Y-47300000D03*
X143080000Y-44760000D03*
X143080000Y-42220000D03*
X140540000Y-47300000D03*
X140540000Y-42220000D03*
X140540000Y-44760000D03*
X138000000Y-44760000D03*
X138000000Y-47300000D03*
X138000000Y-42220000D03*
X135460000Y-44760000D03*
X135460000Y-42220000D03*
X135460000Y-47300000D03*
X132920000Y-42220000D03*
X132920000Y-44760000D03*
X132920000Y-47300000D03*
X130380000Y-44760000D03*
X130380000Y-47300000D03*
X130380000Y-42220000D03*
X127840000Y-44760000D03*
X127840000Y-47300000D03*
X127840000Y-42220000D03*
X125300000Y-42220000D03*
X125300000Y-44760000D03*
X125300000Y-47300000D03*
X122760000Y-47300000D03*
X122760000Y-44760000D03*
X122760000Y-42220000D03*
X122760000Y-77780000D03*
X122760000Y-75240000D03*
X122760000Y-72700000D03*
X125300000Y-72700000D03*
X125300000Y-77780000D03*
X125300000Y-75240000D03*
X127840000Y-77780000D03*
X127840000Y-75240000D03*
X127840000Y-72700000D03*
X130380000Y-77780000D03*
X130380000Y-75240000D03*
X130380000Y-72700000D03*
X132920000Y-77780000D03*
X132920000Y-75240000D03*
X132920000Y-72700000D03*
X135460000Y-72700000D03*
X135460000Y-75240000D03*
X135460000Y-77780000D03*
X138000000Y-72700000D03*
X138000000Y-77780000D03*
X138000000Y-75240000D03*
X140540000Y-72700000D03*
X140540000Y-75240000D03*
X140540000Y-77780000D03*
X143080000Y-77780000D03*
X143080000Y-75240000D03*
X143080000Y-72700000D03*
X145620000Y-75240000D03*
X145620000Y-72700000D03*
X145620000Y-77780000D03*
X148160000Y-75240000D03*
X148160000Y-72700000D03*
X148160000Y-77780000D03*
X150700000Y-77780000D03*
X150700000Y-75240000D03*
X150700000Y-72700000D03*
X153240000Y-72700000D03*
X153240000Y-75240000D03*
X153240000Y-77780000D03*
X155780000Y-75240000D03*
X155780000Y-77780000D03*
X155780000Y-72700000D03*
X158320000Y-72700000D03*
X158320000Y-75240000D03*
X158320000Y-77780000D03*
X160860000Y-72700000D03*
X160860000Y-77780000D03*
X160860000Y-75240000D03*
X163400000Y-75240000D03*
X163400000Y-77780000D03*
X163400000Y-72700000D03*
X165940000Y-77780000D03*
X165940000Y-72700000D03*
X165940000Y-75240000D03*
X168480000Y-72700000D03*
X168480000Y-77780000D03*
X168480000Y-75240000D03*
X171020000Y-72700000D03*
X171020000Y-77780000D03*
X171020000Y-75240000D03*
D16*
X191975000Y-72475000D03*
D17*
X191975000Y-75015000D03*
X191975000Y-77555000D03*
D25*
X158950000Y-85000000D03*
X157050000Y-85000000D03*
D26*
X97550000Y-71400000D03*
X97550000Y-74600000D03*
X102450000Y-74600000D03*
X102450000Y-71400000D03*
X117550000Y-32400000D03*
X117550000Y-35600000D03*
X122450000Y-35600000D03*
X122450000Y-32400000D03*
D18*
X157175000Y-30000000D03*
X158825000Y-30000000D03*
D27*
X114725000Y-59250000D03*
X114725000Y-59750000D03*
X114725000Y-60250000D03*
X114725000Y-60750000D03*
D28*
X115250000Y-61275000D03*
X115750000Y-61275000D03*
X116250000Y-61275000D03*
X116750000Y-61275000D03*
D27*
X117275000Y-60750000D03*
X117275000Y-60250000D03*
X117275000Y-59750000D03*
X117275000Y-59250000D03*
D28*
X116750000Y-58725000D03*
X116250000Y-58725000D03*
X115750000Y-58725000D03*
X115250000Y-58725000D03*
D15*
X132225000Y-61000000D03*
X133775000Y-61000000D03*
D29*
X135300000Y-90000000D03*
D30*
X190000000Y-87000000D03*
D31*
X190000000Y-89000000D03*
D32*
X174250000Y-86000000D03*
X177750000Y-86000000D03*
D33*
X87000000Y-63000000D03*
D18*
X157175000Y-32000000D03*
X158825000Y-32000000D03*
D29*
X144000000Y-90000000D03*
D26*
X117550000Y-84400000D03*
X117550000Y-87600000D03*
X122450000Y-87600000D03*
X122450000Y-84400000D03*
X97550000Y-45400000D03*
X97550000Y-48600000D03*
X102450000Y-48600000D03*
X102450000Y-45400000D03*
D16*
X100025000Y-53675000D03*
D17*
X100025000Y-56215000D03*
X100025000Y-58755000D03*
X100025000Y-61295000D03*
X100025000Y-63835000D03*
X100025000Y-66375000D03*
D34*
X158825000Y-89000000D03*
X157175000Y-89000000D03*
D14*
X171000000Y-90000000D03*
D19*
X154787500Y-34000000D03*
X153212500Y-34000000D03*
D35*
X163350000Y-28555000D03*
X163350000Y-29825000D03*
X163350000Y-31095000D03*
X163350000Y-32365000D03*
X163350000Y-33635000D03*
X163350000Y-34905000D03*
X163350000Y-36175000D03*
X163350000Y-37445000D03*
X172650000Y-37445000D03*
X172650000Y-36175000D03*
X172650000Y-34905000D03*
X172650000Y-33635000D03*
X172650000Y-32365000D03*
X172650000Y-31095000D03*
X172650000Y-29825000D03*
X172650000Y-28555000D03*
D19*
X154787500Y-30000000D03*
X153212500Y-30000000D03*
D20*
X182000000Y-14600000D03*
X180302944Y-18697056D03*
X184400000Y-17000000D03*
X182000000Y-19400000D03*
X183697056Y-15302944D03*
X183697056Y-18697056D03*
X179600000Y-17000000D03*
D21*
X182000000Y-17000000D03*
D20*
X180302944Y-15302944D03*
D16*
X191975000Y-42475000D03*
D17*
X191975000Y-45015000D03*
X191975000Y-47555000D03*
D36*
X120000000Y-60950000D03*
X120000000Y-59050000D03*
D16*
X191975000Y-66350000D03*
D17*
X191975000Y-63810000D03*
X191975000Y-61270000D03*
X191975000Y-58730000D03*
X191975000Y-56190000D03*
X191975000Y-53650000D03*
D14*
X119000000Y-52000000D03*
D15*
X177225000Y-30000000D03*
X178775000Y-30000000D03*
D16*
X159675000Y-102975000D03*
D17*
X162215000Y-102975000D03*
X164755000Y-102975000D03*
X167295000Y-102975000D03*
X169835000Y-102975000D03*
X172375000Y-102975000D03*
D15*
X115225000Y-56000000D03*
X116775000Y-56000000D03*
D33*
X192000000Y-106000000D03*
D16*
X187975000Y-72475000D03*
D17*
X187975000Y-75015000D03*
X187975000Y-77555000D03*
D36*
X167000000Y-88950000D03*
X167000000Y-87050000D03*
D37*
X154650000Y-85000000D03*
X151350000Y-85000000D03*
D33*
X192000000Y-14000000D03*
D19*
X154787500Y-32000000D03*
X153212500Y-32000000D03*
D18*
X157175000Y-87000000D03*
X158825000Y-87000000D03*
D38*
X128250000Y-61262500D03*
X128750000Y-61262500D03*
X129250000Y-61262500D03*
X129750000Y-61262500D03*
D39*
X130012500Y-60500000D03*
X130012500Y-60000000D03*
X130012500Y-59500000D03*
D38*
X129750000Y-58737500D03*
X129250000Y-58737500D03*
X128750000Y-58737500D03*
X128250000Y-58737500D03*
D39*
X127987500Y-59500000D03*
X127987500Y-60000000D03*
X127987500Y-60500000D03*
D26*
X137550000Y-20400000D03*
X137550000Y-23600000D03*
X142450000Y-23600000D03*
X142450000Y-20400000D03*
D14*
X153000000Y-90000000D03*
D16*
X172325000Y-17025000D03*
D17*
X169785000Y-17025000D03*
X167245000Y-17025000D03*
X164705000Y-17025000D03*
X162165000Y-17025000D03*
X159625000Y-17025000D03*
D18*
X157175000Y-36000000D03*
X158825000Y-36000000D03*
D19*
X154787500Y-36000000D03*
X153212500Y-36000000D03*
D29*
X139650000Y-90000000D03*
D26*
X137550000Y-97400000D03*
X137550000Y-100600000D03*
X142450000Y-100600000D03*
X142450000Y-97400000D03*
M02*
