M48
; DRILL file {KiCad (6.0.7)} date Mon Jan 30 12:15:35 2023
; FORMAT={-:-/ absolute / inch / decimal}
; #@! TF.CreationDate,2023-01-30T12:15:35-08:00
; #@! TF.GenerationSoftware,Kicad,Pcbnew,(6.0.7)
; #@! TF.FileFunction,Plated,1,2,PTH
FMAT,2
INCH
; #@! TA.AperFunction,Plated,PTH,ViaDrill
T1C0.0118
; #@! TA.AperFunction,Plated,PTH,ComponentDrill
T2C0.0197
; #@! TA.AperFunction,Plated,PTH,ComponentDrill
T3C0.0295
; #@! TA.AperFunction,Plated,PTH,ComponentDrill
T4C0.0300
; #@! TA.AperFunction,Plated,PTH,ComponentDrill
T5C0.0394
; #@! TA.AperFunction,Plated,PTH,ComponentDrill
T6C0.1260
%
G90
G05
T1
X4.03Y-1.94
X4.03Y-2.91
X4.437Y-2.2972
X4.5079Y-1.9291
X4.624Y-2.1575
X4.6292Y-2.1122
X4.6483Y-2.2723
X4.7319Y-2.285
X4.8051Y-2.1102
X4.82Y-1.43
X4.82Y-3.47
X5.2721Y-1.9529
X5.3484Y-2.4114
X5.3819Y-2.7461
X5.3858Y-1.9528
X5.45Y-3.65
X5.5Y-2.7208
X5.61Y-0.95
X5.61Y-3.98
X5.7697Y-3.5728
X5.794Y-2.7572
X5.794Y-3.1843
X5.794Y-3.5224
X5.8721Y-2.7578
X5.8721Y-3.1889
X5.95Y-3.65
X5.9823Y-2.313
X5.997Y-2.4045
X6.1Y-1.5
X6.1589Y-3.3589
X6.16Y-3.33
X6.1614Y-3.5039
X6.18Y-3.31
X6.4961Y-3.4646
X6.5157Y-3.4449
X6.5335Y-1.1476
X6.7Y-1.4
X6.8976Y-1.2264
X6.8986Y-1.1742
X6.9291Y-1.5374
X6.95Y-2.6
X6.95Y-2.8
X7.0Y-1.25
X7.0Y-1.5
X7.128Y-1.1024
X7.1752Y-1.1
X7.2205Y-1.1004
X7.26Y-1.1
T2
X7.0709Y-0.6693
X7.0709Y-4.0551
X7.0985Y-0.6025
X7.0985Y-0.7361
X7.0985Y-3.9883
X7.0985Y-4.1219
X7.1654Y-0.5748
X7.1654Y-0.7638
X7.1654Y-3.9606
X7.1654Y-4.1496
X7.2322Y-0.6025
X7.2322Y-0.7361
X7.2322Y-3.9883
X7.2322Y-4.1219
X7.2598Y-0.6693
X7.2598Y-4.0551
T3
X7.4803Y-3.4252
X7.4803Y-3.5039
T4
X4.8331Y-1.6622
X4.8331Y-1.7622
X4.8331Y-1.8622
X4.8331Y-2.8622
X4.8331Y-2.9622
X4.8331Y-3.0622
X4.9331Y-1.6622
X4.9331Y-1.7622
X4.9331Y-1.8622
X4.9331Y-2.8622
X4.9331Y-2.9622
X4.9331Y-3.0622
X5.0331Y-1.6622
X5.0331Y-1.7622
X5.0331Y-1.8622
X5.0331Y-2.8622
X5.0331Y-2.9622
X5.0331Y-3.0622
X5.1331Y-1.6622
X5.1331Y-1.7622
X5.1331Y-1.8622
X5.1331Y-2.8622
X5.1331Y-2.9622
X5.1331Y-3.0622
X5.2331Y-1.6622
X5.2331Y-1.7622
X5.2331Y-1.8622
X5.2331Y-2.8622
X5.2331Y-2.9622
X5.2331Y-3.0622
X5.3331Y-1.6622
X5.3331Y-1.7622
X5.3331Y-1.8622
X5.3331Y-2.8622
X5.3331Y-2.9622
X5.3331Y-3.0622
X5.4331Y-1.6622
X5.4331Y-1.7622
X5.4331Y-1.8622
X5.4331Y-2.8622
X5.4331Y-2.9622
X5.4331Y-3.0622
X5.5331Y-1.6622
X5.5331Y-1.7622
X5.5331Y-1.8622
X5.5331Y-2.8622
X5.5331Y-2.9622
X5.5331Y-3.0622
X5.6331Y-1.6622
X5.6331Y-1.7622
X5.6331Y-1.8622
X5.6331Y-2.8622
X5.6331Y-2.9622
X5.6331Y-3.0622
X5.7331Y-1.6622
X5.7331Y-1.7622
X5.7331Y-1.8622
X5.7331Y-2.8622
X5.7331Y-2.9622
X5.7331Y-3.0622
X5.8331Y-1.6622
X5.8331Y-1.7622
X5.8331Y-1.8622
X5.8331Y-2.8622
X5.8331Y-2.9622
X5.8331Y-3.0622
X5.9331Y-1.6622
X5.9331Y-1.7622
X5.9331Y-1.8622
X5.9331Y-2.8622
X5.9331Y-2.9622
X5.9331Y-3.0622
X6.0331Y-1.6622
X6.0331Y-1.7622
X6.0331Y-1.8622
X6.0331Y-2.8622
X6.0331Y-2.9622
X6.0331Y-3.0622
X6.1331Y-1.6622
X6.1331Y-1.7622
X6.1331Y-1.8622
X6.1331Y-2.8622
X6.1331Y-2.9622
X6.1331Y-3.0622
X6.2331Y-1.6622
X6.2331Y-1.7622
X6.2331Y-1.8622
X6.2331Y-2.8622
X6.2331Y-2.9622
X6.2331Y-3.0622
X6.3331Y-1.6622
X6.3331Y-1.7622
X6.3331Y-1.8622
X6.3331Y-2.8622
X6.3331Y-2.9622
X6.3331Y-3.0622
X6.4331Y-1.6622
X6.4331Y-1.7622
X6.4331Y-1.8622
X6.4331Y-2.8622
X6.4331Y-2.9622
X6.4331Y-3.0622
X6.5331Y-1.6622
X6.5331Y-1.7622
X6.5331Y-1.8622
X6.5331Y-2.8622
X6.5331Y-2.9622
X6.5331Y-3.0622
X6.6331Y-1.6622
X6.6331Y-1.7622
X6.6331Y-1.8622
X6.6331Y-2.8622
X6.6331Y-2.9622
X6.6331Y-3.0622
X6.7331Y-1.6622
X6.7331Y-1.7622
X6.7331Y-1.8622
X6.7331Y-2.8622
X6.7331Y-2.9622
X6.7331Y-3.0622
T5
X3.938Y-2.1132
X3.938Y-2.2132
X3.938Y-2.3132
X3.938Y-2.4132
X3.938Y-2.5132
X3.938Y-2.6132
X5.3268Y-3.5433
X5.498Y-3.5433
X5.6693Y-3.5433
X6.2844Y-0.6703
X6.2864Y-4.0541
X6.3844Y-0.6703
X6.3864Y-4.0541
X6.4844Y-0.6703
X6.4864Y-4.0541
X6.5844Y-0.6703
X6.5864Y-4.0541
X6.6844Y-0.6703
X6.6864Y-4.0541
X6.7844Y-0.6703
X6.7864Y-4.0541
X7.4006Y-1.6722
X7.4006Y-1.7722
X7.4006Y-1.8722
X7.4006Y-2.8533
X7.4006Y-2.9533
X7.4006Y-3.0533
X7.5581Y-1.6722
X7.5581Y-1.7722
X7.5581Y-1.8722
X7.5581Y-2.1122
X7.5581Y-2.2122
X7.5581Y-2.3122
X7.5581Y-2.4122
X7.5581Y-2.5122
X7.5581Y-2.6122
X7.5581Y-2.8533
X7.5581Y-2.9533
X7.5581Y-3.0533
T6
X7.1654Y-0.6693
X7.1654Y-4.0551
T0
M30
