G04 #@! TF.GenerationSoftware,KiCad,Pcbnew,(5.1.10)-1*
G04 #@! TF.CreationDate,2021-11-24T09:21:36-08:00*
G04 #@! TF.ProjectId,UsbSourceMeasureTest,55736253-6f75-4726-9365-4d6561737572,rev?*
G04 #@! TF.SameCoordinates,Original*
G04 #@! TF.FileFunction,Legend,Top*
G04 #@! TF.FilePolarity,Positive*
%FSLAX46Y46*%
G04 Gerber Fmt 4.6, Leading zero omitted, Abs format (unit mm)*
G04 Created by KiCad (PCBNEW (5.1.10)-1) date 2021-11-24 09:21:36*
%MOMM*%
%LPD*%
G01*
G04 APERTURE LIST*
%ADD10C,0.150000*%
%ADD11C,0.120000*%
%ADD12C,0.100000*%
G04 APERTURE END LIST*
D10*
X130166666Y-24178571D02*
X130166666Y-25392857D01*
X130214285Y-25535714D01*
X130261904Y-25607142D01*
X130357142Y-25678571D01*
X130547619Y-25678571D01*
X130642857Y-25607142D01*
X130690476Y-25535714D01*
X130738095Y-25392857D01*
X130738095Y-24178571D01*
X131166666Y-25607142D02*
X131309523Y-25678571D01*
X131547619Y-25678571D01*
X131642857Y-25607142D01*
X131690476Y-25535714D01*
X131738095Y-25392857D01*
X131738095Y-25250000D01*
X131690476Y-25107142D01*
X131642857Y-25035714D01*
X131547619Y-24964285D01*
X131357142Y-24892857D01*
X131261904Y-24821428D01*
X131214285Y-24750000D01*
X131166666Y-24607142D01*
X131166666Y-24464285D01*
X131214285Y-24321428D01*
X131261904Y-24250000D01*
X131357142Y-24178571D01*
X131595238Y-24178571D01*
X131738095Y-24250000D01*
X132500000Y-24892857D02*
X132642857Y-24964285D01*
X132690476Y-25035714D01*
X132738095Y-25178571D01*
X132738095Y-25392857D01*
X132690476Y-25535714D01*
X132642857Y-25607142D01*
X132547619Y-25678571D01*
X132166666Y-25678571D01*
X132166666Y-24178571D01*
X132500000Y-24178571D01*
X132595238Y-24250000D01*
X132642857Y-24321428D01*
X132690476Y-24464285D01*
X132690476Y-24607142D01*
X132642857Y-24750000D01*
X132595238Y-24821428D01*
X132500000Y-24892857D01*
X132166666Y-24892857D01*
X133928571Y-25678571D02*
X133928571Y-24178571D01*
X134309523Y-24178571D01*
X134404761Y-24250000D01*
X134452380Y-24321428D01*
X134500000Y-24464285D01*
X134500000Y-24678571D01*
X134452380Y-24821428D01*
X134404761Y-24892857D01*
X134309523Y-24964285D01*
X133928571Y-24964285D01*
X134928571Y-25678571D02*
X134928571Y-24178571D01*
X135166666Y-24178571D01*
X135309523Y-24250000D01*
X135404761Y-24392857D01*
X135452380Y-24535714D01*
X135500000Y-24821428D01*
X135500000Y-25035714D01*
X135452380Y-25321428D01*
X135404761Y-25464285D01*
X135309523Y-25607142D01*
X135166666Y-25678571D01*
X134928571Y-25678571D01*
X136642857Y-25607142D02*
X136785714Y-25678571D01*
X137023809Y-25678571D01*
X137119047Y-25607142D01*
X137166666Y-25535714D01*
X137214285Y-25392857D01*
X137214285Y-25250000D01*
X137166666Y-25107142D01*
X137119047Y-25035714D01*
X137023809Y-24964285D01*
X136833333Y-24892857D01*
X136738095Y-24821428D01*
X136690476Y-24750000D01*
X136642857Y-24607142D01*
X136642857Y-24464285D01*
X136690476Y-24321428D01*
X136738095Y-24250000D01*
X136833333Y-24178571D01*
X137071428Y-24178571D01*
X137214285Y-24250000D01*
X137642857Y-25678571D02*
X137642857Y-24178571D01*
X137976190Y-25250000D01*
X138309523Y-24178571D01*
X138309523Y-25678571D01*
X138785714Y-24178571D02*
X138785714Y-25392857D01*
X138833333Y-25535714D01*
X138880952Y-25607142D01*
X138976190Y-25678571D01*
X139166666Y-25678571D01*
X139261904Y-25607142D01*
X139309523Y-25535714D01*
X139357142Y-25392857D01*
X139357142Y-24178571D01*
X140500000Y-24678571D02*
X140738095Y-25678571D01*
X140976190Y-24678571D01*
X141880952Y-25678571D02*
X141309523Y-25678571D01*
X141595238Y-25678571D02*
X141595238Y-24178571D01*
X141500000Y-24392857D01*
X141404761Y-24535714D01*
X141309523Y-24607142D01*
D11*
X136318198Y-27212887D02*
X136000000Y-26894689D01*
X136000000Y-26894689D02*
X135681802Y-27212887D01*
X140787113Y-31681802D02*
X141105311Y-32000000D01*
X141105311Y-32000000D02*
X140787113Y-32318198D01*
X131212887Y-32318198D02*
X130894689Y-32000000D01*
X130894689Y-32000000D02*
X131212887Y-31681802D01*
X135681802Y-36787113D02*
X136000000Y-37105311D01*
X136000000Y-37105311D02*
X136318198Y-36787113D01*
X136318198Y-36787113D02*
X137230366Y-37699281D01*
X190000000Y-30560000D02*
X193450000Y-30560000D01*
X190000000Y-30560000D02*
X188050000Y-30560000D01*
X190000000Y-25440000D02*
X191950000Y-25440000D01*
X190000000Y-25440000D02*
X188050000Y-25440000D01*
X200000000Y-41440000D02*
X196550000Y-41440000D01*
X200000000Y-41440000D02*
X201950000Y-41440000D01*
X200000000Y-46560000D02*
X198050000Y-46560000D01*
X200000000Y-46560000D02*
X201950000Y-46560000D01*
X171000000Y-41440000D02*
X169050000Y-41440000D01*
X171000000Y-41440000D02*
X172950000Y-41440000D01*
X171000000Y-46560000D02*
X169050000Y-46560000D01*
X171000000Y-46560000D02*
X174450000Y-46560000D01*
X171000000Y-33440000D02*
X169050000Y-33440000D01*
X171000000Y-33440000D02*
X172950000Y-33440000D01*
X171000000Y-38560000D02*
X169050000Y-38560000D01*
X171000000Y-38560000D02*
X174450000Y-38560000D01*
X212945000Y-25430000D02*
X207055000Y-25430000D01*
X213400000Y-30570000D02*
X207055000Y-30570000D01*
X202350000Y-28620000D02*
X202350000Y-27380000D01*
X197650000Y-28620000D02*
X197650000Y-27380000D01*
X197650000Y-26050000D02*
X197650000Y-25700000D01*
X197650000Y-25700000D02*
X202350000Y-25700000D01*
X202350000Y-25700000D02*
X202350000Y-26050000D01*
X197650000Y-26050000D02*
X196400000Y-26050000D01*
X197650000Y-29950000D02*
X197650000Y-30300000D01*
X197650000Y-30300000D02*
X202350000Y-30300000D01*
X202350000Y-30300000D02*
X202350000Y-29950000D01*
X206600000Y-41430000D02*
X212945000Y-41430000D01*
X207055000Y-46570000D02*
X212945000Y-46570000D01*
X202350000Y-38300000D02*
X202350000Y-37950000D01*
X197650000Y-38300000D02*
X202350000Y-38300000D01*
X197650000Y-37950000D02*
X197650000Y-38300000D01*
X197650000Y-34050000D02*
X196400000Y-34050000D01*
X202350000Y-33700000D02*
X202350000Y-34050000D01*
X197650000Y-33700000D02*
X202350000Y-33700000D01*
X197650000Y-34050000D02*
X197650000Y-33700000D01*
X197650000Y-36620000D02*
X197650000Y-35380000D01*
X202350000Y-36620000D02*
X202350000Y-35380000D01*
X181900000Y-37390000D02*
X179450000Y-37390000D01*
X180100000Y-40610000D02*
X181900000Y-40610000D01*
X180100000Y-35610000D02*
X181900000Y-35610000D01*
X181900000Y-32390000D02*
X179450000Y-32390000D01*
X180100000Y-30610000D02*
X181900000Y-30610000D01*
X181900000Y-27390000D02*
X179450000Y-27390000D01*
X190000000Y-33440000D02*
X188050000Y-33440000D01*
X190000000Y-33440000D02*
X191950000Y-33440000D01*
X190000000Y-38560000D02*
X188050000Y-38560000D01*
X190000000Y-38560000D02*
X193450000Y-38560000D01*
X190900000Y-42390000D02*
X189100000Y-42390000D01*
X189100000Y-45610000D02*
X191550000Y-45610000D01*
X207822936Y-34290000D02*
X212177064Y-34290000D01*
X207822936Y-37710000D02*
X212177064Y-37710000D01*
X161000000Y-41440000D02*
X157550000Y-41440000D01*
X161000000Y-41440000D02*
X162950000Y-41440000D01*
X161000000Y-46560000D02*
X159050000Y-46560000D01*
X161000000Y-46560000D02*
X162950000Y-46560000D01*
X161000000Y-38560000D02*
X162950000Y-38560000D01*
X161000000Y-38560000D02*
X159050000Y-38560000D01*
X161000000Y-33440000D02*
X162950000Y-33440000D01*
X161000000Y-33440000D02*
X157550000Y-33440000D01*
X161000000Y-25440000D02*
X157550000Y-25440000D01*
X161000000Y-25440000D02*
X162950000Y-25440000D01*
X161000000Y-30560000D02*
X159050000Y-30560000D01*
X161000000Y-30560000D02*
X162950000Y-30560000D01*
X103850000Y-37420000D02*
X101930000Y-37420000D01*
X101930000Y-46580000D02*
X103850000Y-46580000D01*
X99920000Y-46580000D02*
X98215000Y-46580000D01*
X98215000Y-37420000D02*
X99920000Y-37420000D01*
X98215000Y-46580000D02*
X98215000Y-37420000D01*
D12*
X168000000Y-27500000D02*
X168250000Y-27750000D01*
X168250000Y-27750000D02*
X169250000Y-27750000D01*
X169250000Y-27750000D02*
X169500000Y-27500000D01*
X169500000Y-27250000D02*
X169500000Y-26750000D01*
X169500000Y-26500000D02*
X169250000Y-26250000D01*
X168250000Y-26250000D02*
X168000000Y-26500000D01*
X169250000Y-26250000D02*
X168250000Y-26250000D01*
X168000000Y-26500000D02*
X168000000Y-27500000D01*
X169500000Y-27500000D02*
X169750000Y-27750000D01*
X170750000Y-27750000D02*
X171000000Y-27500000D01*
X170750000Y-26250000D02*
X169750000Y-26250000D01*
X169750000Y-26250000D02*
X169500000Y-26500000D01*
X171000000Y-26500000D02*
X170750000Y-26250000D01*
X169750000Y-27750000D02*
X170750000Y-27750000D01*
X171000000Y-27250000D02*
X171000000Y-26750000D01*
X171000000Y-27500000D02*
X171250000Y-27750000D01*
X172250000Y-27750000D02*
X172500000Y-27500000D01*
X172250000Y-26250000D02*
X171250000Y-26250000D01*
X171250000Y-26250000D02*
X171000000Y-26500000D01*
X172500000Y-26500000D02*
X172250000Y-26250000D01*
X171250000Y-27750000D02*
X172250000Y-27750000D01*
X172500000Y-27250000D02*
X172500000Y-26750000D01*
X172500000Y-27500000D02*
X172750000Y-27750000D01*
X173750000Y-27750000D02*
X174000000Y-27500000D01*
X173750000Y-26250000D02*
X172750000Y-26250000D01*
X172750000Y-26250000D02*
X172500000Y-26500000D01*
X174000000Y-26500000D02*
X173750000Y-26250000D01*
X172750000Y-27750000D02*
X173750000Y-27750000D01*
X174000000Y-27500000D02*
X174000000Y-26500000D01*
X167500000Y-26250000D02*
X167750000Y-26500000D01*
X167750000Y-26500000D02*
X167500000Y-26750000D01*
X167500000Y-26750000D02*
X167500000Y-26250000D01*
X167750000Y-27500000D02*
X167500000Y-27750000D01*
X167500000Y-27750000D02*
X167500000Y-27250000D01*
X167500000Y-27250000D02*
X167750000Y-27500000D01*
X174500000Y-27000000D02*
X174250000Y-27250000D01*
X174250000Y-27250000D02*
X174250000Y-26750000D01*
X174250000Y-26750000D02*
X174500000Y-27000000D01*
D11*
X121265000Y-32200000D02*
X121265000Y-34485000D01*
X121265000Y-34485000D02*
X122735000Y-34485000D01*
X122735000Y-34485000D02*
X122735000Y-32200000D01*
X122735000Y-28485000D02*
X122735000Y-26200000D01*
X121265000Y-28485000D02*
X122735000Y-28485000D01*
X121265000Y-26200000D02*
X121265000Y-28485000D01*
X218080000Y-44575000D02*
X218080000Y-42344000D01*
X222583000Y-46840000D02*
X220348000Y-46840000D01*
X224561000Y-48330000D02*
X224561000Y-47623000D01*
X233790000Y-50330000D02*
X224561000Y-48330000D01*
X243020000Y-50330000D02*
X233790000Y-50330000D01*
X243020000Y-49330000D02*
X243020000Y-50330000D01*
X246020000Y-49330000D02*
X243020000Y-49330000D01*
X246020000Y-37590000D02*
X246020000Y-49330000D01*
X243020000Y-37590000D02*
X246020000Y-37590000D01*
X243020000Y-36590000D02*
X243020000Y-37590000D01*
X233790000Y-36590000D02*
X243020000Y-36590000D01*
X224561000Y-38590000D02*
X233790000Y-36590000D01*
X224561000Y-39297000D02*
X224561000Y-38590000D01*
X220347000Y-40080000D02*
X222583000Y-40080000D01*
X220347000Y-25160000D02*
X222583000Y-25160000D01*
X224561000Y-24377000D02*
X224561000Y-23670000D01*
X224561000Y-23670000D02*
X233790000Y-21670000D01*
X233790000Y-21670000D02*
X243020000Y-21670000D01*
X243020000Y-21670000D02*
X243020000Y-22670000D01*
X243020000Y-22670000D02*
X246020000Y-22670000D01*
X246020000Y-22670000D02*
X246020000Y-34410000D01*
X246020000Y-34410000D02*
X243020000Y-34410000D01*
X243020000Y-34410000D02*
X243020000Y-35410000D01*
X243020000Y-35410000D02*
X233790000Y-35410000D01*
X233790000Y-35410000D02*
X224561000Y-33410000D01*
X224561000Y-33410000D02*
X224561000Y-32703000D01*
X222583000Y-31920000D02*
X220348000Y-31920000D01*
X218080000Y-29655000D02*
X218080000Y-27424000D01*
X110640000Y-28865000D02*
X110640000Y-28640000D01*
X110640000Y-28640000D02*
X111115000Y-28640000D01*
X113360000Y-31135000D02*
X113360000Y-31360000D01*
X113360000Y-31360000D02*
X112885000Y-31360000D01*
X113360000Y-28865000D02*
X113360000Y-28640000D01*
X113360000Y-28640000D02*
X112885000Y-28640000D01*
X110640000Y-31135000D02*
X110640000Y-31360000D01*
X98215000Y-34580000D02*
X98215000Y-25420000D01*
X98215000Y-25420000D02*
X99920000Y-25420000D01*
X99920000Y-34580000D02*
X98215000Y-34580000D01*
X101930000Y-34580000D02*
X103850000Y-34580000D01*
X103850000Y-25420000D02*
X101930000Y-25420000D01*
X181900000Y-42390000D02*
X179450000Y-42390000D01*
X180100000Y-45610000D02*
X181900000Y-45610000D01*
X111100000Y-43610000D02*
X113550000Y-43610000D01*
X112900000Y-40390000D02*
X111100000Y-40390000D01*
X115850000Y-38900000D02*
X122150000Y-38900000D01*
X115850000Y-45100000D02*
X122150000Y-45100000D01*
X143200000Y-40050000D02*
X144800000Y-40050000D01*
X143650000Y-41950000D02*
X144800000Y-41950000D01*
X148825000Y-44270000D02*
X148825000Y-43635000D01*
X149460000Y-44270000D02*
X148825000Y-44270000D01*
X117100000Y-34610000D02*
X118900000Y-34610000D01*
X118900000Y-31390000D02*
X116450000Y-31390000D01*
X118900000Y-25390000D02*
X116450000Y-25390000D01*
X117100000Y-28610000D02*
X118900000Y-28610000D01*
X146700000Y-34160000D02*
X145500000Y-34160000D01*
X152500000Y-28350000D02*
X150760000Y-28350000D01*
X152500000Y-35650000D02*
X152500000Y-28350000D01*
X150760000Y-35650000D02*
X152500000Y-35650000D01*
X146700000Y-28350000D02*
X148040000Y-28350000D01*
X146700000Y-29840000D02*
X146700000Y-28350000D01*
X146700000Y-35650000D02*
X148040000Y-35650000D01*
X146700000Y-34160000D02*
X146700000Y-35650000D01*
X130070000Y-43430000D02*
X130070000Y-43730000D01*
X125930000Y-46570000D02*
X125930000Y-46270000D01*
X125930000Y-43730000D02*
X125930000Y-43430000D01*
X130070000Y-46570000D02*
X125930000Y-46570000D01*
X130070000Y-46270000D02*
X130070000Y-46570000D01*
X125930000Y-43430000D02*
X130070000Y-43430000D01*
X132930000Y-43430000D02*
X137070000Y-43430000D01*
X137070000Y-46270000D02*
X137070000Y-46570000D01*
X137070000Y-46570000D02*
X132930000Y-46570000D01*
X132930000Y-43730000D02*
X132930000Y-43430000D01*
X132930000Y-46570000D02*
X132930000Y-46270000D01*
X137070000Y-43430000D02*
X137070000Y-43730000D01*
X141930000Y-46570000D02*
X141930000Y-46270000D01*
X146070000Y-43430000D02*
X146070000Y-43730000D01*
X146070000Y-46270000D02*
X146070000Y-46570000D01*
X141930000Y-43430000D02*
X146070000Y-43430000D01*
X141930000Y-43730000D02*
X141930000Y-43430000D01*
X146070000Y-46570000D02*
X141930000Y-46570000D01*
D12*
X135257142Y-37561904D02*
X135257142Y-38209523D01*
X135285714Y-38285714D01*
X135314285Y-38323809D01*
X135371428Y-38361904D01*
X135485714Y-38361904D01*
X135542857Y-38323809D01*
X135571428Y-38285714D01*
X135600000Y-38209523D01*
X135600000Y-37561904D01*
X135857142Y-37638095D02*
X135885714Y-37600000D01*
X135942857Y-37561904D01*
X136085714Y-37561904D01*
X136142857Y-37600000D01*
X136171428Y-37638095D01*
X136200000Y-37714285D01*
X136200000Y-37790476D01*
X136171428Y-37904761D01*
X135828571Y-38361904D01*
X136200000Y-38361904D01*
X136400000Y-37561904D02*
X136771428Y-37561904D01*
X136571428Y-37866666D01*
X136657142Y-37866666D01*
X136714285Y-37904761D01*
X136742857Y-37942857D01*
X136771428Y-38019047D01*
X136771428Y-38209523D01*
X136742857Y-38285714D01*
X136714285Y-38323809D01*
X136657142Y-38361904D01*
X136485714Y-38361904D01*
X136428571Y-38323809D01*
X136400000Y-38285714D01*
X189257142Y-24561904D02*
X189257142Y-25209523D01*
X189285714Y-25285714D01*
X189314285Y-25323809D01*
X189371428Y-25361904D01*
X189485714Y-25361904D01*
X189542857Y-25323809D01*
X189571428Y-25285714D01*
X189600000Y-25209523D01*
X189600000Y-24561904D01*
X189857142Y-24638095D02*
X189885714Y-24600000D01*
X189942857Y-24561904D01*
X190085714Y-24561904D01*
X190142857Y-24600000D01*
X190171428Y-24638095D01*
X190200000Y-24714285D01*
X190200000Y-24790476D01*
X190171428Y-24904761D01*
X189828571Y-25361904D01*
X190200000Y-25361904D01*
X190571428Y-24561904D02*
X190628571Y-24561904D01*
X190685714Y-24600000D01*
X190714285Y-24638095D01*
X190742857Y-24714285D01*
X190771428Y-24866666D01*
X190771428Y-25057142D01*
X190742857Y-25209523D01*
X190714285Y-25285714D01*
X190685714Y-25323809D01*
X190628571Y-25361904D01*
X190571428Y-25361904D01*
X190514285Y-25323809D01*
X190485714Y-25285714D01*
X190457142Y-25209523D01*
X190428571Y-25057142D01*
X190428571Y-24866666D01*
X190457142Y-24714285D01*
X190485714Y-24638095D01*
X190514285Y-24600000D01*
X190571428Y-24561904D01*
X199257142Y-40561904D02*
X199257142Y-41209523D01*
X199285714Y-41285714D01*
X199314285Y-41323809D01*
X199371428Y-41361904D01*
X199485714Y-41361904D01*
X199542857Y-41323809D01*
X199571428Y-41285714D01*
X199600000Y-41209523D01*
X199600000Y-40561904D01*
X200200000Y-41361904D02*
X199857142Y-41361904D01*
X200028571Y-41361904D02*
X200028571Y-40561904D01*
X199971428Y-40676190D01*
X199914285Y-40752380D01*
X199857142Y-40790476D01*
X200714285Y-40828571D02*
X200714285Y-41361904D01*
X200571428Y-40523809D02*
X200428571Y-41095238D01*
X200800000Y-41095238D01*
X170257142Y-40561904D02*
X170257142Y-41209523D01*
X170285714Y-41285714D01*
X170314285Y-41323809D01*
X170371428Y-41361904D01*
X170485714Y-41361904D01*
X170542857Y-41323809D01*
X170571428Y-41285714D01*
X170600000Y-41209523D01*
X170600000Y-40561904D01*
X170828571Y-40561904D02*
X171200000Y-40561904D01*
X171000000Y-40866666D01*
X171085714Y-40866666D01*
X171142857Y-40904761D01*
X171171428Y-40942857D01*
X171200000Y-41019047D01*
X171200000Y-41209523D01*
X171171428Y-41285714D01*
X171142857Y-41323809D01*
X171085714Y-41361904D01*
X170914285Y-41361904D01*
X170857142Y-41323809D01*
X170828571Y-41285714D01*
X171571428Y-40561904D02*
X171628571Y-40561904D01*
X171685714Y-40600000D01*
X171714285Y-40638095D01*
X171742857Y-40714285D01*
X171771428Y-40866666D01*
X171771428Y-41057142D01*
X171742857Y-41209523D01*
X171714285Y-41285714D01*
X171685714Y-41323809D01*
X171628571Y-41361904D01*
X171571428Y-41361904D01*
X171514285Y-41323809D01*
X171485714Y-41285714D01*
X171457142Y-41209523D01*
X171428571Y-41057142D01*
X171428571Y-40866666D01*
X171457142Y-40714285D01*
X171485714Y-40638095D01*
X171514285Y-40600000D01*
X171571428Y-40561904D01*
X170257142Y-32561904D02*
X170257142Y-33209523D01*
X170285714Y-33285714D01*
X170314285Y-33323809D01*
X170371428Y-33361904D01*
X170485714Y-33361904D01*
X170542857Y-33323809D01*
X170571428Y-33285714D01*
X170600000Y-33209523D01*
X170600000Y-32561904D01*
X170857142Y-32638095D02*
X170885714Y-32600000D01*
X170942857Y-32561904D01*
X171085714Y-32561904D01*
X171142857Y-32600000D01*
X171171428Y-32638095D01*
X171200000Y-32714285D01*
X171200000Y-32790476D01*
X171171428Y-32904761D01*
X170828571Y-33361904D01*
X171200000Y-33361904D01*
X171485714Y-33361904D02*
X171600000Y-33361904D01*
X171657142Y-33323809D01*
X171685714Y-33285714D01*
X171742857Y-33171428D01*
X171771428Y-33019047D01*
X171771428Y-32714285D01*
X171742857Y-32638095D01*
X171714285Y-32600000D01*
X171657142Y-32561904D01*
X171542857Y-32561904D01*
X171485714Y-32600000D01*
X171457142Y-32638095D01*
X171428571Y-32714285D01*
X171428571Y-32904761D01*
X171457142Y-32980952D01*
X171485714Y-33019047D01*
X171542857Y-33057142D01*
X171657142Y-33057142D01*
X171714285Y-33019047D01*
X171742857Y-32980952D01*
X171771428Y-32904761D01*
X209942857Y-25438095D02*
X209885714Y-25400000D01*
X209828571Y-25323809D01*
X209742857Y-25209523D01*
X209685714Y-25171428D01*
X209628571Y-25171428D01*
X209657142Y-25361904D02*
X209600000Y-25323809D01*
X209542857Y-25247619D01*
X209514285Y-25095238D01*
X209514285Y-24828571D01*
X209542857Y-24676190D01*
X209600000Y-24600000D01*
X209657142Y-24561904D01*
X209771428Y-24561904D01*
X209828571Y-24600000D01*
X209885714Y-24676190D01*
X209914285Y-24828571D01*
X209914285Y-25095238D01*
X209885714Y-25247619D01*
X209828571Y-25323809D01*
X209771428Y-25361904D01*
X209657142Y-25361904D01*
X210485714Y-25361904D02*
X210142857Y-25361904D01*
X210314285Y-25361904D02*
X210314285Y-24561904D01*
X210257142Y-24676190D01*
X210200000Y-24752380D01*
X210142857Y-24790476D01*
X199257142Y-24561904D02*
X199257142Y-25209523D01*
X199285714Y-25285714D01*
X199314285Y-25323809D01*
X199371428Y-25361904D01*
X199485714Y-25361904D01*
X199542857Y-25323809D01*
X199571428Y-25285714D01*
X199600000Y-25209523D01*
X199600000Y-24561904D01*
X200200000Y-25361904D02*
X199857142Y-25361904D01*
X200028571Y-25361904D02*
X200028571Y-24561904D01*
X199971428Y-24676190D01*
X199914285Y-24752380D01*
X199857142Y-24790476D01*
X200742857Y-24561904D02*
X200457142Y-24561904D01*
X200428571Y-24942857D01*
X200457142Y-24904761D01*
X200514285Y-24866666D01*
X200657142Y-24866666D01*
X200714285Y-24904761D01*
X200742857Y-24942857D01*
X200771428Y-25019047D01*
X200771428Y-25209523D01*
X200742857Y-25285714D01*
X200714285Y-25323809D01*
X200657142Y-25361904D01*
X200514285Y-25361904D01*
X200457142Y-25323809D01*
X200428571Y-25285714D01*
X209942857Y-41438095D02*
X209885714Y-41400000D01*
X209828571Y-41323809D01*
X209742857Y-41209523D01*
X209685714Y-41171428D01*
X209628571Y-41171428D01*
X209657142Y-41361904D02*
X209600000Y-41323809D01*
X209542857Y-41247619D01*
X209514285Y-41095238D01*
X209514285Y-40828571D01*
X209542857Y-40676190D01*
X209600000Y-40600000D01*
X209657142Y-40561904D01*
X209771428Y-40561904D01*
X209828571Y-40600000D01*
X209885714Y-40676190D01*
X209914285Y-40828571D01*
X209914285Y-41095238D01*
X209885714Y-41247619D01*
X209828571Y-41323809D01*
X209771428Y-41361904D01*
X209657142Y-41361904D01*
X210142857Y-40638095D02*
X210171428Y-40600000D01*
X210228571Y-40561904D01*
X210371428Y-40561904D01*
X210428571Y-40600000D01*
X210457142Y-40638095D01*
X210485714Y-40714285D01*
X210485714Y-40790476D01*
X210457142Y-40904761D01*
X210114285Y-41361904D01*
X210485714Y-41361904D01*
X199257142Y-32561904D02*
X199257142Y-33209523D01*
X199285714Y-33285714D01*
X199314285Y-33323809D01*
X199371428Y-33361904D01*
X199485714Y-33361904D01*
X199542857Y-33323809D01*
X199571428Y-33285714D01*
X199600000Y-33209523D01*
X199600000Y-32561904D01*
X200200000Y-33361904D02*
X199857142Y-33361904D01*
X200028571Y-33361904D02*
X200028571Y-32561904D01*
X199971428Y-32676190D01*
X199914285Y-32752380D01*
X199857142Y-32790476D01*
X200714285Y-32561904D02*
X200600000Y-32561904D01*
X200542857Y-32600000D01*
X200514285Y-32638095D01*
X200457142Y-32752380D01*
X200428571Y-32904761D01*
X200428571Y-33209523D01*
X200457142Y-33285714D01*
X200485714Y-33323809D01*
X200542857Y-33361904D01*
X200657142Y-33361904D01*
X200714285Y-33323809D01*
X200742857Y-33285714D01*
X200771428Y-33209523D01*
X200771428Y-33019047D01*
X200742857Y-32942857D01*
X200714285Y-32904761D01*
X200657142Y-32866666D01*
X200542857Y-32866666D01*
X200485714Y-32904761D01*
X200457142Y-32942857D01*
X200428571Y-33019047D01*
X180257142Y-36561904D02*
X180257142Y-37209523D01*
X180285714Y-37285714D01*
X180314285Y-37323809D01*
X180371428Y-37361904D01*
X180485714Y-37361904D01*
X180542857Y-37323809D01*
X180571428Y-37285714D01*
X180600000Y-37209523D01*
X180600000Y-36561904D01*
X181200000Y-37361904D02*
X180857142Y-37361904D01*
X181028571Y-37361904D02*
X181028571Y-36561904D01*
X180971428Y-36676190D01*
X180914285Y-36752380D01*
X180857142Y-36790476D01*
X181571428Y-36561904D02*
X181628571Y-36561904D01*
X181685714Y-36600000D01*
X181714285Y-36638095D01*
X181742857Y-36714285D01*
X181771428Y-36866666D01*
X181771428Y-37057142D01*
X181742857Y-37209523D01*
X181714285Y-37285714D01*
X181685714Y-37323809D01*
X181628571Y-37361904D01*
X181571428Y-37361904D01*
X181514285Y-37323809D01*
X181485714Y-37285714D01*
X181457142Y-37209523D01*
X181428571Y-37057142D01*
X181428571Y-36866666D01*
X181457142Y-36714285D01*
X181485714Y-36638095D01*
X181514285Y-36600000D01*
X181571428Y-36561904D01*
X180542857Y-31561904D02*
X180542857Y-32209523D01*
X180571428Y-32285714D01*
X180600000Y-32323809D01*
X180657142Y-32361904D01*
X180771428Y-32361904D01*
X180828571Y-32323809D01*
X180857142Y-32285714D01*
X180885714Y-32209523D01*
X180885714Y-31561904D01*
X181257142Y-31904761D02*
X181200000Y-31866666D01*
X181171428Y-31828571D01*
X181142857Y-31752380D01*
X181142857Y-31714285D01*
X181171428Y-31638095D01*
X181200000Y-31600000D01*
X181257142Y-31561904D01*
X181371428Y-31561904D01*
X181428571Y-31600000D01*
X181457142Y-31638095D01*
X181485714Y-31714285D01*
X181485714Y-31752380D01*
X181457142Y-31828571D01*
X181428571Y-31866666D01*
X181371428Y-31904761D01*
X181257142Y-31904761D01*
X181200000Y-31942857D01*
X181171428Y-31980952D01*
X181142857Y-32057142D01*
X181142857Y-32209523D01*
X181171428Y-32285714D01*
X181200000Y-32323809D01*
X181257142Y-32361904D01*
X181371428Y-32361904D01*
X181428571Y-32323809D01*
X181457142Y-32285714D01*
X181485714Y-32209523D01*
X181485714Y-32057142D01*
X181457142Y-31980952D01*
X181428571Y-31942857D01*
X181371428Y-31904761D01*
X180542857Y-26561904D02*
X180542857Y-27209523D01*
X180571428Y-27285714D01*
X180600000Y-27323809D01*
X180657142Y-27361904D01*
X180771428Y-27361904D01*
X180828571Y-27323809D01*
X180857142Y-27285714D01*
X180885714Y-27209523D01*
X180885714Y-26561904D01*
X181428571Y-26561904D02*
X181314285Y-26561904D01*
X181257142Y-26600000D01*
X181228571Y-26638095D01*
X181171428Y-26752380D01*
X181142857Y-26904761D01*
X181142857Y-27209523D01*
X181171428Y-27285714D01*
X181200000Y-27323809D01*
X181257142Y-27361904D01*
X181371428Y-27361904D01*
X181428571Y-27323809D01*
X181457142Y-27285714D01*
X181485714Y-27209523D01*
X181485714Y-27019047D01*
X181457142Y-26942857D01*
X181428571Y-26904761D01*
X181371428Y-26866666D01*
X181257142Y-26866666D01*
X181200000Y-26904761D01*
X181171428Y-26942857D01*
X181142857Y-27019047D01*
X189257142Y-32561904D02*
X189257142Y-33209523D01*
X189285714Y-33285714D01*
X189314285Y-33323809D01*
X189371428Y-33361904D01*
X189485714Y-33361904D01*
X189542857Y-33323809D01*
X189571428Y-33285714D01*
X189600000Y-33209523D01*
X189600000Y-32561904D01*
X190200000Y-33361904D02*
X189857142Y-33361904D01*
X190028571Y-33361904D02*
X190028571Y-32561904D01*
X189971428Y-32676190D01*
X189914285Y-32752380D01*
X189857142Y-32790476D01*
X190542857Y-32904761D02*
X190485714Y-32866666D01*
X190457142Y-32828571D01*
X190428571Y-32752380D01*
X190428571Y-32714285D01*
X190457142Y-32638095D01*
X190485714Y-32600000D01*
X190542857Y-32561904D01*
X190657142Y-32561904D01*
X190714285Y-32600000D01*
X190742857Y-32638095D01*
X190771428Y-32714285D01*
X190771428Y-32752380D01*
X190742857Y-32828571D01*
X190714285Y-32866666D01*
X190657142Y-32904761D01*
X190542857Y-32904761D01*
X190485714Y-32942857D01*
X190457142Y-32980952D01*
X190428571Y-33057142D01*
X190428571Y-33209523D01*
X190457142Y-33285714D01*
X190485714Y-33323809D01*
X190542857Y-33361904D01*
X190657142Y-33361904D01*
X190714285Y-33323809D01*
X190742857Y-33285714D01*
X190771428Y-33209523D01*
X190771428Y-33057142D01*
X190742857Y-32980952D01*
X190714285Y-32942857D01*
X190657142Y-32904761D01*
X189257142Y-41561904D02*
X189257142Y-42209523D01*
X189285714Y-42285714D01*
X189314285Y-42323809D01*
X189371428Y-42361904D01*
X189485714Y-42361904D01*
X189542857Y-42323809D01*
X189571428Y-42285714D01*
X189600000Y-42209523D01*
X189600000Y-41561904D01*
X190200000Y-42361904D02*
X189857142Y-42361904D01*
X190028571Y-42361904D02*
X190028571Y-41561904D01*
X189971428Y-41676190D01*
X189914285Y-41752380D01*
X189857142Y-41790476D01*
X190428571Y-41638095D02*
X190457142Y-41600000D01*
X190514285Y-41561904D01*
X190657142Y-41561904D01*
X190714285Y-41600000D01*
X190742857Y-41638095D01*
X190771428Y-41714285D01*
X190771428Y-41790476D01*
X190742857Y-41904761D01*
X190400000Y-42361904D01*
X190771428Y-42361904D01*
X209614285Y-33361904D02*
X209414285Y-32980952D01*
X209271428Y-33361904D02*
X209271428Y-32561904D01*
X209500000Y-32561904D01*
X209557142Y-32600000D01*
X209585714Y-32638095D01*
X209614285Y-32714285D01*
X209614285Y-32828571D01*
X209585714Y-32904761D01*
X209557142Y-32942857D01*
X209500000Y-32980952D01*
X209271428Y-32980952D01*
X209842857Y-32638095D02*
X209871428Y-32600000D01*
X209928571Y-32561904D01*
X210071428Y-32561904D01*
X210128571Y-32600000D01*
X210157142Y-32638095D01*
X210185714Y-32714285D01*
X210185714Y-32790476D01*
X210157142Y-32904761D01*
X209814285Y-33361904D01*
X210185714Y-33361904D01*
X210700000Y-32561904D02*
X210585714Y-32561904D01*
X210528571Y-32600000D01*
X210500000Y-32638095D01*
X210442857Y-32752380D01*
X210414285Y-32904761D01*
X210414285Y-33209523D01*
X210442857Y-33285714D01*
X210471428Y-33323809D01*
X210528571Y-33361904D01*
X210642857Y-33361904D01*
X210700000Y-33323809D01*
X210728571Y-33285714D01*
X210757142Y-33209523D01*
X210757142Y-33019047D01*
X210728571Y-32942857D01*
X210700000Y-32904761D01*
X210642857Y-32866666D01*
X210528571Y-32866666D01*
X210471428Y-32904761D01*
X210442857Y-32942857D01*
X210414285Y-33019047D01*
X160257142Y-40561904D02*
X160257142Y-41209523D01*
X160285714Y-41285714D01*
X160314285Y-41323809D01*
X160371428Y-41361904D01*
X160485714Y-41361904D01*
X160542857Y-41323809D01*
X160571428Y-41285714D01*
X160600000Y-41209523D01*
X160600000Y-40561904D01*
X160857142Y-40638095D02*
X160885714Y-40600000D01*
X160942857Y-40561904D01*
X161085714Y-40561904D01*
X161142857Y-40600000D01*
X161171428Y-40638095D01*
X161200000Y-40714285D01*
X161200000Y-40790476D01*
X161171428Y-40904761D01*
X160828571Y-41361904D01*
X161200000Y-41361904D01*
X161542857Y-40904761D02*
X161485714Y-40866666D01*
X161457142Y-40828571D01*
X161428571Y-40752380D01*
X161428571Y-40714285D01*
X161457142Y-40638095D01*
X161485714Y-40600000D01*
X161542857Y-40561904D01*
X161657142Y-40561904D01*
X161714285Y-40600000D01*
X161742857Y-40638095D01*
X161771428Y-40714285D01*
X161771428Y-40752380D01*
X161742857Y-40828571D01*
X161714285Y-40866666D01*
X161657142Y-40904761D01*
X161542857Y-40904761D01*
X161485714Y-40942857D01*
X161457142Y-40980952D01*
X161428571Y-41057142D01*
X161428571Y-41209523D01*
X161457142Y-41285714D01*
X161485714Y-41323809D01*
X161542857Y-41361904D01*
X161657142Y-41361904D01*
X161714285Y-41323809D01*
X161742857Y-41285714D01*
X161771428Y-41209523D01*
X161771428Y-41057142D01*
X161742857Y-40980952D01*
X161714285Y-40942857D01*
X161657142Y-40904761D01*
X160257142Y-32561904D02*
X160257142Y-33209523D01*
X160285714Y-33285714D01*
X160314285Y-33323809D01*
X160371428Y-33361904D01*
X160485714Y-33361904D01*
X160542857Y-33323809D01*
X160571428Y-33285714D01*
X160600000Y-33209523D01*
X160600000Y-32561904D01*
X160857142Y-32638095D02*
X160885714Y-32600000D01*
X160942857Y-32561904D01*
X161085714Y-32561904D01*
X161142857Y-32600000D01*
X161171428Y-32638095D01*
X161200000Y-32714285D01*
X161200000Y-32790476D01*
X161171428Y-32904761D01*
X160828571Y-33361904D01*
X161200000Y-33361904D01*
X161400000Y-32561904D02*
X161800000Y-32561904D01*
X161542857Y-33361904D01*
X160257142Y-24561904D02*
X160257142Y-25209523D01*
X160285714Y-25285714D01*
X160314285Y-25323809D01*
X160371428Y-25361904D01*
X160485714Y-25361904D01*
X160542857Y-25323809D01*
X160571428Y-25285714D01*
X160600000Y-25209523D01*
X160600000Y-24561904D01*
X160857142Y-24638095D02*
X160885714Y-24600000D01*
X160942857Y-24561904D01*
X161085714Y-24561904D01*
X161142857Y-24600000D01*
X161171428Y-24638095D01*
X161200000Y-24714285D01*
X161200000Y-24790476D01*
X161171428Y-24904761D01*
X160828571Y-25361904D01*
X161200000Y-25361904D01*
X161714285Y-24561904D02*
X161600000Y-24561904D01*
X161542857Y-24600000D01*
X161514285Y-24638095D01*
X161457142Y-24752380D01*
X161428571Y-24904761D01*
X161428571Y-25209523D01*
X161457142Y-25285714D01*
X161485714Y-25323809D01*
X161542857Y-25361904D01*
X161657142Y-25361904D01*
X161714285Y-25323809D01*
X161742857Y-25285714D01*
X161771428Y-25209523D01*
X161771428Y-25019047D01*
X161742857Y-24942857D01*
X161714285Y-24904761D01*
X161657142Y-24866666D01*
X161542857Y-24866666D01*
X161485714Y-24904761D01*
X161457142Y-24942857D01*
X161428571Y-25019047D01*
X107515000Y-41561904D02*
X107515000Y-42133333D01*
X107486428Y-42247619D01*
X107429285Y-42323809D01*
X107343571Y-42361904D01*
X107286428Y-42361904D01*
X107772142Y-41638095D02*
X107800714Y-41600000D01*
X107857857Y-41561904D01*
X108000714Y-41561904D01*
X108057857Y-41600000D01*
X108086428Y-41638095D01*
X108115000Y-41714285D01*
X108115000Y-41790476D01*
X108086428Y-41904761D01*
X107743571Y-42361904D01*
X108115000Y-42361904D01*
X121557142Y-31361904D02*
X121557142Y-30561904D01*
X121700000Y-30561904D01*
X121785714Y-30600000D01*
X121842857Y-30676190D01*
X121871428Y-30752380D01*
X121900000Y-30904761D01*
X121900000Y-31019047D01*
X121871428Y-31171428D01*
X121842857Y-31247619D01*
X121785714Y-31323809D01*
X121700000Y-31361904D01*
X121557142Y-31361904D01*
X122471428Y-31361904D02*
X122128571Y-31361904D01*
X122300000Y-31361904D02*
X122300000Y-30561904D01*
X122242857Y-30676190D01*
X122185714Y-30752380D01*
X122128571Y-30790476D01*
X121557142Y-25361904D02*
X121557142Y-24561904D01*
X121700000Y-24561904D01*
X121785714Y-24600000D01*
X121842857Y-24676190D01*
X121871428Y-24752380D01*
X121900000Y-24904761D01*
X121900000Y-25019047D01*
X121871428Y-25171428D01*
X121842857Y-25247619D01*
X121785714Y-25323809D01*
X121700000Y-25361904D01*
X121557142Y-25361904D01*
X122128571Y-24638095D02*
X122157142Y-24600000D01*
X122214285Y-24561904D01*
X122357142Y-24561904D01*
X122414285Y-24600000D01*
X122442857Y-24638095D01*
X122471428Y-24714285D01*
X122471428Y-24790476D01*
X122442857Y-24904761D01*
X122100000Y-25361904D01*
X122471428Y-25361904D01*
X216800000Y-43561904D02*
X216800000Y-44133333D01*
X216771428Y-44247619D01*
X216714285Y-44323809D01*
X216628571Y-44361904D01*
X216571428Y-44361904D01*
X217342857Y-43828571D02*
X217342857Y-44361904D01*
X217200000Y-43523809D02*
X217057142Y-44095238D01*
X217428571Y-44095238D01*
X216800000Y-27561904D02*
X216800000Y-28133333D01*
X216771428Y-28247619D01*
X216714285Y-28323809D01*
X216628571Y-28361904D01*
X216571428Y-28361904D01*
X217371428Y-27561904D02*
X217085714Y-27561904D01*
X217057142Y-27942857D01*
X217085714Y-27904761D01*
X217142857Y-27866666D01*
X217285714Y-27866666D01*
X217342857Y-27904761D01*
X217371428Y-27942857D01*
X217400000Y-28019047D01*
X217400000Y-28209523D01*
X217371428Y-28285714D01*
X217342857Y-28323809D01*
X217285714Y-28361904D01*
X217142857Y-28361904D01*
X217085714Y-28323809D01*
X217057142Y-28285714D01*
X111257142Y-26561904D02*
X111257142Y-27209523D01*
X111285714Y-27285714D01*
X111314285Y-27323809D01*
X111371428Y-27361904D01*
X111485714Y-27361904D01*
X111542857Y-27323809D01*
X111571428Y-27285714D01*
X111600000Y-27209523D01*
X111600000Y-26561904D01*
X111857142Y-26638095D02*
X111885714Y-26600000D01*
X111942857Y-26561904D01*
X112085714Y-26561904D01*
X112142857Y-26600000D01*
X112171428Y-26638095D01*
X112200000Y-26714285D01*
X112200000Y-26790476D01*
X112171428Y-26904761D01*
X111828571Y-27361904D01*
X112200000Y-27361904D01*
X112771428Y-27361904D02*
X112428571Y-27361904D01*
X112600000Y-27361904D02*
X112600000Y-26561904D01*
X112542857Y-26676190D01*
X112485714Y-26752380D01*
X112428571Y-26790476D01*
X107515000Y-29561904D02*
X107515000Y-30133333D01*
X107486428Y-30247619D01*
X107429285Y-30323809D01*
X107343571Y-30361904D01*
X107286428Y-30361904D01*
X108115000Y-30361904D02*
X107772142Y-30361904D01*
X107943571Y-30361904D02*
X107943571Y-29561904D01*
X107886428Y-29676190D01*
X107829285Y-29752380D01*
X107772142Y-29790476D01*
X180542857Y-41561904D02*
X180542857Y-42209523D01*
X180571428Y-42285714D01*
X180600000Y-42323809D01*
X180657142Y-42361904D01*
X180771428Y-42361904D01*
X180828571Y-42323809D01*
X180857142Y-42285714D01*
X180885714Y-42209523D01*
X180885714Y-41561904D01*
X181428571Y-41828571D02*
X181428571Y-42361904D01*
X181285714Y-41523809D02*
X181142857Y-42095238D01*
X181514285Y-42095238D01*
X111542857Y-39561904D02*
X111542857Y-40209523D01*
X111571428Y-40285714D01*
X111600000Y-40323809D01*
X111657142Y-40361904D01*
X111771428Y-40361904D01*
X111828571Y-40323809D01*
X111857142Y-40285714D01*
X111885714Y-40209523D01*
X111885714Y-39561904D01*
X112485714Y-40361904D02*
X112142857Y-40361904D01*
X112314285Y-40361904D02*
X112314285Y-39561904D01*
X112257142Y-39676190D01*
X112200000Y-39752380D01*
X112142857Y-39790476D01*
X118900000Y-38361904D02*
X118614285Y-38361904D01*
X118614285Y-37561904D01*
X119414285Y-38361904D02*
X119071428Y-38361904D01*
X119242857Y-38361904D02*
X119242857Y-37561904D01*
X119185714Y-37676190D01*
X119128571Y-37752380D01*
X119071428Y-37790476D01*
X143557142Y-39361904D02*
X143557142Y-38561904D01*
X143700000Y-38561904D01*
X143785714Y-38600000D01*
X143842857Y-38676190D01*
X143871428Y-38752380D01*
X143900000Y-38904761D01*
X143900000Y-39019047D01*
X143871428Y-39171428D01*
X143842857Y-39247619D01*
X143785714Y-39323809D01*
X143700000Y-39361904D01*
X143557142Y-39361904D01*
X144414285Y-38561904D02*
X144300000Y-38561904D01*
X144242857Y-38600000D01*
X144214285Y-38638095D01*
X144157142Y-38752380D01*
X144128571Y-38904761D01*
X144128571Y-39209523D01*
X144157142Y-39285714D01*
X144185714Y-39323809D01*
X144242857Y-39361904D01*
X144357142Y-39361904D01*
X144414285Y-39323809D01*
X144442857Y-39285714D01*
X144471428Y-39209523D01*
X144471428Y-39019047D01*
X144442857Y-38942857D01*
X144414285Y-38904761D01*
X144357142Y-38866666D01*
X144242857Y-38866666D01*
X144185714Y-38904761D01*
X144157142Y-38942857D01*
X144128571Y-39019047D01*
X151800000Y-40561904D02*
X151800000Y-41133333D01*
X151771428Y-41247619D01*
X151714285Y-41323809D01*
X151628571Y-41361904D01*
X151571428Y-41361904D01*
X152028571Y-40561904D02*
X152400000Y-40561904D01*
X152200000Y-40866666D01*
X152285714Y-40866666D01*
X152342857Y-40904761D01*
X152371428Y-40942857D01*
X152400000Y-41019047D01*
X152400000Y-41209523D01*
X152371428Y-41285714D01*
X152342857Y-41323809D01*
X152285714Y-41361904D01*
X152114285Y-41361904D01*
X152057142Y-41323809D01*
X152028571Y-41285714D01*
X117542857Y-30561904D02*
X117542857Y-31209523D01*
X117571428Y-31285714D01*
X117600000Y-31323809D01*
X117657142Y-31361904D01*
X117771428Y-31361904D01*
X117828571Y-31323809D01*
X117857142Y-31285714D01*
X117885714Y-31209523D01*
X117885714Y-30561904D01*
X118142857Y-30638095D02*
X118171428Y-30600000D01*
X118228571Y-30561904D01*
X118371428Y-30561904D01*
X118428571Y-30600000D01*
X118457142Y-30638095D01*
X118485714Y-30714285D01*
X118485714Y-30790476D01*
X118457142Y-30904761D01*
X118114285Y-31361904D01*
X118485714Y-31361904D01*
X117542857Y-24561904D02*
X117542857Y-25209523D01*
X117571428Y-25285714D01*
X117600000Y-25323809D01*
X117657142Y-25361904D01*
X117771428Y-25361904D01*
X117828571Y-25323809D01*
X117857142Y-25285714D01*
X117885714Y-25209523D01*
X117885714Y-24561904D01*
X118114285Y-24561904D02*
X118485714Y-24561904D01*
X118285714Y-24866666D01*
X118371428Y-24866666D01*
X118428571Y-24904761D01*
X118457142Y-24942857D01*
X118485714Y-25019047D01*
X118485714Y-25209523D01*
X118457142Y-25285714D01*
X118428571Y-25323809D01*
X118371428Y-25361904D01*
X118200000Y-25361904D01*
X118142857Y-25323809D01*
X118114285Y-25285714D01*
X143557142Y-31561904D02*
X143557142Y-32209523D01*
X143585714Y-32285714D01*
X143614285Y-32323809D01*
X143671428Y-32361904D01*
X143785714Y-32361904D01*
X143842857Y-32323809D01*
X143871428Y-32285714D01*
X143900000Y-32209523D01*
X143900000Y-31561904D01*
X144157142Y-31638095D02*
X144185714Y-31600000D01*
X144242857Y-31561904D01*
X144385714Y-31561904D01*
X144442857Y-31600000D01*
X144471428Y-31638095D01*
X144500000Y-31714285D01*
X144500000Y-31790476D01*
X144471428Y-31904761D01*
X144128571Y-32361904D01*
X144500000Y-32361904D01*
X145042857Y-31561904D02*
X144757142Y-31561904D01*
X144728571Y-31942857D01*
X144757142Y-31904761D01*
X144814285Y-31866666D01*
X144957142Y-31866666D01*
X145014285Y-31904761D01*
X145042857Y-31942857D01*
X145071428Y-32019047D01*
X145071428Y-32209523D01*
X145042857Y-32285714D01*
X145014285Y-32323809D01*
X144957142Y-32361904D01*
X144814285Y-32361904D01*
X144757142Y-32323809D01*
X144728571Y-32285714D01*
X127200000Y-43323809D02*
X127285714Y-43361904D01*
X127428571Y-43361904D01*
X127485714Y-43323809D01*
X127514285Y-43285714D01*
X127542857Y-43209523D01*
X127542857Y-43133333D01*
X127514285Y-43057142D01*
X127485714Y-43019047D01*
X127428571Y-42980952D01*
X127314285Y-42942857D01*
X127257142Y-42904761D01*
X127228571Y-42866666D01*
X127200000Y-42790476D01*
X127200000Y-42714285D01*
X127228571Y-42638095D01*
X127257142Y-42600000D01*
X127314285Y-42561904D01*
X127457142Y-42561904D01*
X127542857Y-42600000D01*
X127742857Y-42561904D02*
X127885714Y-43361904D01*
X128000000Y-42790476D01*
X128114285Y-43361904D01*
X128257142Y-42561904D01*
X128800000Y-43361904D02*
X128457142Y-43361904D01*
X128628571Y-43361904D02*
X128628571Y-42561904D01*
X128571428Y-42676190D01*
X128514285Y-42752380D01*
X128457142Y-42790476D01*
X134200000Y-43323809D02*
X134285714Y-43361904D01*
X134428571Y-43361904D01*
X134485714Y-43323809D01*
X134514285Y-43285714D01*
X134542857Y-43209523D01*
X134542857Y-43133333D01*
X134514285Y-43057142D01*
X134485714Y-43019047D01*
X134428571Y-42980952D01*
X134314285Y-42942857D01*
X134257142Y-42904761D01*
X134228571Y-42866666D01*
X134200000Y-42790476D01*
X134200000Y-42714285D01*
X134228571Y-42638095D01*
X134257142Y-42600000D01*
X134314285Y-42561904D01*
X134457142Y-42561904D01*
X134542857Y-42600000D01*
X134742857Y-42561904D02*
X134885714Y-43361904D01*
X135000000Y-42790476D01*
X135114285Y-43361904D01*
X135257142Y-42561904D01*
X135457142Y-42638095D02*
X135485714Y-42600000D01*
X135542857Y-42561904D01*
X135685714Y-42561904D01*
X135742857Y-42600000D01*
X135771428Y-42638095D01*
X135800000Y-42714285D01*
X135800000Y-42790476D01*
X135771428Y-42904761D01*
X135428571Y-43361904D01*
X135800000Y-43361904D01*
X143200000Y-43323809D02*
X143285714Y-43361904D01*
X143428571Y-43361904D01*
X143485714Y-43323809D01*
X143514285Y-43285714D01*
X143542857Y-43209523D01*
X143542857Y-43133333D01*
X143514285Y-43057142D01*
X143485714Y-43019047D01*
X143428571Y-42980952D01*
X143314285Y-42942857D01*
X143257142Y-42904761D01*
X143228571Y-42866666D01*
X143200000Y-42790476D01*
X143200000Y-42714285D01*
X143228571Y-42638095D01*
X143257142Y-42600000D01*
X143314285Y-42561904D01*
X143457142Y-42561904D01*
X143542857Y-42600000D01*
X143742857Y-42561904D02*
X143885714Y-43361904D01*
X144000000Y-42790476D01*
X144114285Y-43361904D01*
X144257142Y-42561904D01*
X144428571Y-42561904D02*
X144800000Y-42561904D01*
X144600000Y-42866666D01*
X144685714Y-42866666D01*
X144742857Y-42904761D01*
X144771428Y-42942857D01*
X144800000Y-43019047D01*
X144800000Y-43209523D01*
X144771428Y-43285714D01*
X144742857Y-43323809D01*
X144685714Y-43361904D01*
X144514285Y-43361904D01*
X144457142Y-43323809D01*
X144428571Y-43285714D01*
M02*
