G04 #@! TF.GenerationSoftware,KiCad,Pcbnew,(5.1.10)-1*
G04 #@! TF.CreationDate,2021-11-24T09:21:36-08:00*
G04 #@! TF.ProjectId,UsbSourceMeasureTest,55736253-6f75-4726-9365-4d6561737572,rev?*
G04 #@! TF.SameCoordinates,Original*
G04 #@! TF.FileFunction,Soldermask,Top*
G04 #@! TF.FilePolarity,Negative*
%FSLAX46Y46*%
G04 Gerber Fmt 4.6, Leading zero omitted, Abs format (unit mm)*
G04 Created by KiCad (PCBNEW (5.1.10)-1) date 2021-11-24 09:21:36*
%MOMM*%
%LPD*%
G01*
G04 APERTURE LIST*
%ADD10C,2.500000*%
%ADD11C,0.700000*%
%ADD12C,1.500000*%
%ADD13C,0.650000*%
%ADD14R,3.810000X3.910000*%
%ADD15R,1.020000X0.610000*%
%ADD16R,1.270000X0.610000*%
%ADD17R,1.200000X0.800000*%
%ADD18R,1.060000X0.650000*%
%ADD19O,2.100000X1.000000*%
%ADD20O,1.600000X1.000000*%
%ADD21C,0.650000*%
%ADD22R,1.150000X0.300000*%
%ADD23C,2.600000*%
%ADD24R,1.450000X1.450000*%
%ADD25R,1.600000X5.900000*%
%ADD26R,0.850000X0.650000*%
%ADD27C,0.990600*%
%ADD28C,0.787400*%
%ADD29C,2.374900*%
%ADD30R,2.200000X1.800000*%
%ADD31R,1.300000X0.300000*%
%ADD32C,1.152000*%
G04 APERTURE END LIST*
D10*
X222250000Y-36000000D02*
G75*
G03*
X222250000Y-36000000I-1250000J0D01*
G01*
D11*
X169000000Y-27000000D02*
G75*
G03*
X169000000Y-27000000I-250000J0D01*
G01*
X170500000Y-27000000D02*
G75*
G03*
X170500000Y-27000000I-250000J0D01*
G01*
X172000000Y-27000000D02*
G75*
G03*
X172000000Y-27000000I-250000J0D01*
G01*
X173500000Y-27000000D02*
G75*
G03*
X173500000Y-27000000I-250000J0D01*
G01*
D12*
X172750000Y-30000000D02*
G75*
G03*
X172750000Y-30000000I-500000J0D01*
G01*
X170250000Y-30000000D02*
G75*
G03*
X170250000Y-30000000I-500000J0D01*
G01*
D13*
X102325000Y-36000000D02*
G75*
G03*
X102325000Y-36000000I-325000J0D01*
G01*
X222325000Y-28000000D02*
G75*
G03*
X222325000Y-28000000I-325000J0D01*
G01*
X222325000Y-44000000D02*
G75*
G03*
X222325000Y-44000000I-325000J0D01*
G01*
G36*
G01*
X137573312Y-37356334D02*
X137467246Y-37462400D01*
G75*
G02*
X137361180Y-37462400I-53033J53033D01*
G01*
X136424264Y-36525484D01*
G75*
G02*
X136424264Y-36419418I53033J53033D01*
G01*
X136530330Y-36313352D01*
G75*
G02*
X136636396Y-36313352I53033J-53033D01*
G01*
X137573312Y-37250268D01*
G75*
G02*
X137573312Y-37356334I-53033J-53033D01*
G01*
G37*
G36*
G01*
X137926866Y-37002780D02*
X137820800Y-37108846D01*
G75*
G02*
X137714734Y-37108846I-53033J53033D01*
G01*
X136777818Y-36171930D01*
G75*
G02*
X136777818Y-36065864I53033J53033D01*
G01*
X136883884Y-35959798D01*
G75*
G02*
X136989950Y-35959798I53033J-53033D01*
G01*
X137926866Y-36896714D01*
G75*
G02*
X137926866Y-37002780I-53033J-53033D01*
G01*
G37*
G36*
G01*
X138280419Y-36649227D02*
X138174353Y-36755293D01*
G75*
G02*
X138068287Y-36755293I-53033J53033D01*
G01*
X137131371Y-35818377D01*
G75*
G02*
X137131371Y-35712311I53033J53033D01*
G01*
X137237437Y-35606245D01*
G75*
G02*
X137343503Y-35606245I53033J-53033D01*
G01*
X138280419Y-36543161D01*
G75*
G02*
X138280419Y-36649227I-53033J-53033D01*
G01*
G37*
G36*
G01*
X138633973Y-36295673D02*
X138527907Y-36401739D01*
G75*
G02*
X138421841Y-36401739I-53033J53033D01*
G01*
X137484925Y-35464823D01*
G75*
G02*
X137484925Y-35358757I53033J53033D01*
G01*
X137590991Y-35252691D01*
G75*
G02*
X137697057Y-35252691I53033J-53033D01*
G01*
X138633973Y-36189607D01*
G75*
G02*
X138633973Y-36295673I-53033J-53033D01*
G01*
G37*
G36*
G01*
X138987526Y-35942120D02*
X138881460Y-36048186D01*
G75*
G02*
X138775394Y-36048186I-53033J53033D01*
G01*
X137838478Y-35111270D01*
G75*
G02*
X137838478Y-35005204I53033J53033D01*
G01*
X137944544Y-34899138D01*
G75*
G02*
X138050610Y-34899138I53033J-53033D01*
G01*
X138987526Y-35836054D01*
G75*
G02*
X138987526Y-35942120I-53033J-53033D01*
G01*
G37*
G36*
G01*
X139341079Y-35588567D02*
X139235013Y-35694633D01*
G75*
G02*
X139128947Y-35694633I-53033J53033D01*
G01*
X138192031Y-34757717D01*
G75*
G02*
X138192031Y-34651651I53033J53033D01*
G01*
X138298097Y-34545585D01*
G75*
G02*
X138404163Y-34545585I53033J-53033D01*
G01*
X139341079Y-35482501D01*
G75*
G02*
X139341079Y-35588567I-53033J-53033D01*
G01*
G37*
G36*
G01*
X139694633Y-35235013D02*
X139588567Y-35341079D01*
G75*
G02*
X139482501Y-35341079I-53033J53033D01*
G01*
X138545585Y-34404163D01*
G75*
G02*
X138545585Y-34298097I53033J53033D01*
G01*
X138651651Y-34192031D01*
G75*
G02*
X138757717Y-34192031I53033J-53033D01*
G01*
X139694633Y-35128947D01*
G75*
G02*
X139694633Y-35235013I-53033J-53033D01*
G01*
G37*
G36*
G01*
X140048186Y-34881460D02*
X139942120Y-34987526D01*
G75*
G02*
X139836054Y-34987526I-53033J53033D01*
G01*
X138899138Y-34050610D01*
G75*
G02*
X138899138Y-33944544I53033J53033D01*
G01*
X139005204Y-33838478D01*
G75*
G02*
X139111270Y-33838478I53033J-53033D01*
G01*
X140048186Y-34775394D01*
G75*
G02*
X140048186Y-34881460I-53033J-53033D01*
G01*
G37*
G36*
G01*
X140401739Y-34527907D02*
X140295673Y-34633973D01*
G75*
G02*
X140189607Y-34633973I-53033J53033D01*
G01*
X139252691Y-33697057D01*
G75*
G02*
X139252691Y-33590991I53033J53033D01*
G01*
X139358757Y-33484925D01*
G75*
G02*
X139464823Y-33484925I53033J-53033D01*
G01*
X140401739Y-34421841D01*
G75*
G02*
X140401739Y-34527907I-53033J-53033D01*
G01*
G37*
G36*
G01*
X140755293Y-34174353D02*
X140649227Y-34280419D01*
G75*
G02*
X140543161Y-34280419I-53033J53033D01*
G01*
X139606245Y-33343503D01*
G75*
G02*
X139606245Y-33237437I53033J53033D01*
G01*
X139712311Y-33131371D01*
G75*
G02*
X139818377Y-33131371I53033J-53033D01*
G01*
X140755293Y-34068287D01*
G75*
G02*
X140755293Y-34174353I-53033J-53033D01*
G01*
G37*
G36*
G01*
X141108846Y-33820800D02*
X141002780Y-33926866D01*
G75*
G02*
X140896714Y-33926866I-53033J53033D01*
G01*
X139959798Y-32989950D01*
G75*
G02*
X139959798Y-32883884I53033J53033D01*
G01*
X140065864Y-32777818D01*
G75*
G02*
X140171930Y-32777818I53033J-53033D01*
G01*
X141108846Y-33714734D01*
G75*
G02*
X141108846Y-33820800I-53033J-53033D01*
G01*
G37*
G36*
G01*
X141462400Y-33467246D02*
X141356334Y-33573312D01*
G75*
G02*
X141250268Y-33573312I-53033J53033D01*
G01*
X140313352Y-32636396D01*
G75*
G02*
X140313352Y-32530330I53033J53033D01*
G01*
X140419418Y-32424264D01*
G75*
G02*
X140525484Y-32424264I53033J-53033D01*
G01*
X141462400Y-33361180D01*
G75*
G02*
X141462400Y-33467246I-53033J-53033D01*
G01*
G37*
G36*
G01*
X141462400Y-30638820D02*
X140525484Y-31575736D01*
G75*
G02*
X140419418Y-31575736I-53033J53033D01*
G01*
X140313352Y-31469670D01*
G75*
G02*
X140313352Y-31363604I53033J53033D01*
G01*
X141250268Y-30426688D01*
G75*
G02*
X141356334Y-30426688I53033J-53033D01*
G01*
X141462400Y-30532754D01*
G75*
G02*
X141462400Y-30638820I-53033J-53033D01*
G01*
G37*
G36*
G01*
X141108846Y-30285266D02*
X140171930Y-31222182D01*
G75*
G02*
X140065864Y-31222182I-53033J53033D01*
G01*
X139959798Y-31116116D01*
G75*
G02*
X139959798Y-31010050I53033J53033D01*
G01*
X140896714Y-30073134D01*
G75*
G02*
X141002780Y-30073134I53033J-53033D01*
G01*
X141108846Y-30179200D01*
G75*
G02*
X141108846Y-30285266I-53033J-53033D01*
G01*
G37*
G36*
G01*
X140755293Y-29931713D02*
X139818377Y-30868629D01*
G75*
G02*
X139712311Y-30868629I-53033J53033D01*
G01*
X139606245Y-30762563D01*
G75*
G02*
X139606245Y-30656497I53033J53033D01*
G01*
X140543161Y-29719581D01*
G75*
G02*
X140649227Y-29719581I53033J-53033D01*
G01*
X140755293Y-29825647D01*
G75*
G02*
X140755293Y-29931713I-53033J-53033D01*
G01*
G37*
G36*
G01*
X140401739Y-29578159D02*
X139464823Y-30515075D01*
G75*
G02*
X139358757Y-30515075I-53033J53033D01*
G01*
X139252691Y-30409009D01*
G75*
G02*
X139252691Y-30302943I53033J53033D01*
G01*
X140189607Y-29366027D01*
G75*
G02*
X140295673Y-29366027I53033J-53033D01*
G01*
X140401739Y-29472093D01*
G75*
G02*
X140401739Y-29578159I-53033J-53033D01*
G01*
G37*
G36*
G01*
X140048186Y-29224606D02*
X139111270Y-30161522D01*
G75*
G02*
X139005204Y-30161522I-53033J53033D01*
G01*
X138899138Y-30055456D01*
G75*
G02*
X138899138Y-29949390I53033J53033D01*
G01*
X139836054Y-29012474D01*
G75*
G02*
X139942120Y-29012474I53033J-53033D01*
G01*
X140048186Y-29118540D01*
G75*
G02*
X140048186Y-29224606I-53033J-53033D01*
G01*
G37*
G36*
G01*
X139694633Y-28871053D02*
X138757717Y-29807969D01*
G75*
G02*
X138651651Y-29807969I-53033J53033D01*
G01*
X138545585Y-29701903D01*
G75*
G02*
X138545585Y-29595837I53033J53033D01*
G01*
X139482501Y-28658921D01*
G75*
G02*
X139588567Y-28658921I53033J-53033D01*
G01*
X139694633Y-28764987D01*
G75*
G02*
X139694633Y-28871053I-53033J-53033D01*
G01*
G37*
G36*
G01*
X139341079Y-28517499D02*
X138404163Y-29454415D01*
G75*
G02*
X138298097Y-29454415I-53033J53033D01*
G01*
X138192031Y-29348349D01*
G75*
G02*
X138192031Y-29242283I53033J53033D01*
G01*
X139128947Y-28305367D01*
G75*
G02*
X139235013Y-28305367I53033J-53033D01*
G01*
X139341079Y-28411433D01*
G75*
G02*
X139341079Y-28517499I-53033J-53033D01*
G01*
G37*
G36*
G01*
X138987526Y-28163946D02*
X138050610Y-29100862D01*
G75*
G02*
X137944544Y-29100862I-53033J53033D01*
G01*
X137838478Y-28994796D01*
G75*
G02*
X137838478Y-28888730I53033J53033D01*
G01*
X138775394Y-27951814D01*
G75*
G02*
X138881460Y-27951814I53033J-53033D01*
G01*
X138987526Y-28057880D01*
G75*
G02*
X138987526Y-28163946I-53033J-53033D01*
G01*
G37*
G36*
G01*
X138633973Y-27810393D02*
X137697057Y-28747309D01*
G75*
G02*
X137590991Y-28747309I-53033J53033D01*
G01*
X137484925Y-28641243D01*
G75*
G02*
X137484925Y-28535177I53033J53033D01*
G01*
X138421841Y-27598261D01*
G75*
G02*
X138527907Y-27598261I53033J-53033D01*
G01*
X138633973Y-27704327D01*
G75*
G02*
X138633973Y-27810393I-53033J-53033D01*
G01*
G37*
G36*
G01*
X138280419Y-27456839D02*
X137343503Y-28393755D01*
G75*
G02*
X137237437Y-28393755I-53033J53033D01*
G01*
X137131371Y-28287689D01*
G75*
G02*
X137131371Y-28181623I53033J53033D01*
G01*
X138068287Y-27244707D01*
G75*
G02*
X138174353Y-27244707I53033J-53033D01*
G01*
X138280419Y-27350773D01*
G75*
G02*
X138280419Y-27456839I-53033J-53033D01*
G01*
G37*
G36*
G01*
X137926866Y-27103286D02*
X136989950Y-28040202D01*
G75*
G02*
X136883884Y-28040202I-53033J53033D01*
G01*
X136777818Y-27934136D01*
G75*
G02*
X136777818Y-27828070I53033J53033D01*
G01*
X137714734Y-26891154D01*
G75*
G02*
X137820800Y-26891154I53033J-53033D01*
G01*
X137926866Y-26997220D01*
G75*
G02*
X137926866Y-27103286I-53033J-53033D01*
G01*
G37*
G36*
G01*
X137573312Y-26749732D02*
X136636396Y-27686648D01*
G75*
G02*
X136530330Y-27686648I-53033J53033D01*
G01*
X136424264Y-27580582D01*
G75*
G02*
X136424264Y-27474516I53033J53033D01*
G01*
X137361180Y-26537600D01*
G75*
G02*
X137467246Y-26537600I53033J-53033D01*
G01*
X137573312Y-26643666D01*
G75*
G02*
X137573312Y-26749732I-53033J-53033D01*
G01*
G37*
G36*
G01*
X135575736Y-27580582D02*
X135469670Y-27686648D01*
G75*
G02*
X135363604Y-27686648I-53033J53033D01*
G01*
X134426688Y-26749732D01*
G75*
G02*
X134426688Y-26643666I53033J53033D01*
G01*
X134532754Y-26537600D01*
G75*
G02*
X134638820Y-26537600I53033J-53033D01*
G01*
X135575736Y-27474516D01*
G75*
G02*
X135575736Y-27580582I-53033J-53033D01*
G01*
G37*
G36*
G01*
X135222182Y-27934136D02*
X135116116Y-28040202D01*
G75*
G02*
X135010050Y-28040202I-53033J53033D01*
G01*
X134073134Y-27103286D01*
G75*
G02*
X134073134Y-26997220I53033J53033D01*
G01*
X134179200Y-26891154D01*
G75*
G02*
X134285266Y-26891154I53033J-53033D01*
G01*
X135222182Y-27828070D01*
G75*
G02*
X135222182Y-27934136I-53033J-53033D01*
G01*
G37*
G36*
G01*
X134868629Y-28287689D02*
X134762563Y-28393755D01*
G75*
G02*
X134656497Y-28393755I-53033J53033D01*
G01*
X133719581Y-27456839D01*
G75*
G02*
X133719581Y-27350773I53033J53033D01*
G01*
X133825647Y-27244707D01*
G75*
G02*
X133931713Y-27244707I53033J-53033D01*
G01*
X134868629Y-28181623D01*
G75*
G02*
X134868629Y-28287689I-53033J-53033D01*
G01*
G37*
G36*
G01*
X134515075Y-28641243D02*
X134409009Y-28747309D01*
G75*
G02*
X134302943Y-28747309I-53033J53033D01*
G01*
X133366027Y-27810393D01*
G75*
G02*
X133366027Y-27704327I53033J53033D01*
G01*
X133472093Y-27598261D01*
G75*
G02*
X133578159Y-27598261I53033J-53033D01*
G01*
X134515075Y-28535177D01*
G75*
G02*
X134515075Y-28641243I-53033J-53033D01*
G01*
G37*
G36*
G01*
X134161522Y-28994796D02*
X134055456Y-29100862D01*
G75*
G02*
X133949390Y-29100862I-53033J53033D01*
G01*
X133012474Y-28163946D01*
G75*
G02*
X133012474Y-28057880I53033J53033D01*
G01*
X133118540Y-27951814D01*
G75*
G02*
X133224606Y-27951814I53033J-53033D01*
G01*
X134161522Y-28888730D01*
G75*
G02*
X134161522Y-28994796I-53033J-53033D01*
G01*
G37*
G36*
G01*
X133807969Y-29348349D02*
X133701903Y-29454415D01*
G75*
G02*
X133595837Y-29454415I-53033J53033D01*
G01*
X132658921Y-28517499D01*
G75*
G02*
X132658921Y-28411433I53033J53033D01*
G01*
X132764987Y-28305367D01*
G75*
G02*
X132871053Y-28305367I53033J-53033D01*
G01*
X133807969Y-29242283D01*
G75*
G02*
X133807969Y-29348349I-53033J-53033D01*
G01*
G37*
G36*
G01*
X133454415Y-29701903D02*
X133348349Y-29807969D01*
G75*
G02*
X133242283Y-29807969I-53033J53033D01*
G01*
X132305367Y-28871053D01*
G75*
G02*
X132305367Y-28764987I53033J53033D01*
G01*
X132411433Y-28658921D01*
G75*
G02*
X132517499Y-28658921I53033J-53033D01*
G01*
X133454415Y-29595837D01*
G75*
G02*
X133454415Y-29701903I-53033J-53033D01*
G01*
G37*
G36*
G01*
X133100862Y-30055456D02*
X132994796Y-30161522D01*
G75*
G02*
X132888730Y-30161522I-53033J53033D01*
G01*
X131951814Y-29224606D01*
G75*
G02*
X131951814Y-29118540I53033J53033D01*
G01*
X132057880Y-29012474D01*
G75*
G02*
X132163946Y-29012474I53033J-53033D01*
G01*
X133100862Y-29949390D01*
G75*
G02*
X133100862Y-30055456I-53033J-53033D01*
G01*
G37*
G36*
G01*
X132747309Y-30409009D02*
X132641243Y-30515075D01*
G75*
G02*
X132535177Y-30515075I-53033J53033D01*
G01*
X131598261Y-29578159D01*
G75*
G02*
X131598261Y-29472093I53033J53033D01*
G01*
X131704327Y-29366027D01*
G75*
G02*
X131810393Y-29366027I53033J-53033D01*
G01*
X132747309Y-30302943D01*
G75*
G02*
X132747309Y-30409009I-53033J-53033D01*
G01*
G37*
G36*
G01*
X132393755Y-30762563D02*
X132287689Y-30868629D01*
G75*
G02*
X132181623Y-30868629I-53033J53033D01*
G01*
X131244707Y-29931713D01*
G75*
G02*
X131244707Y-29825647I53033J53033D01*
G01*
X131350773Y-29719581D01*
G75*
G02*
X131456839Y-29719581I53033J-53033D01*
G01*
X132393755Y-30656497D01*
G75*
G02*
X132393755Y-30762563I-53033J-53033D01*
G01*
G37*
G36*
G01*
X132040202Y-31116116D02*
X131934136Y-31222182D01*
G75*
G02*
X131828070Y-31222182I-53033J53033D01*
G01*
X130891154Y-30285266D01*
G75*
G02*
X130891154Y-30179200I53033J53033D01*
G01*
X130997220Y-30073134D01*
G75*
G02*
X131103286Y-30073134I53033J-53033D01*
G01*
X132040202Y-31010050D01*
G75*
G02*
X132040202Y-31116116I-53033J-53033D01*
G01*
G37*
G36*
G01*
X131686648Y-31469670D02*
X131580582Y-31575736D01*
G75*
G02*
X131474516Y-31575736I-53033J53033D01*
G01*
X130537600Y-30638820D01*
G75*
G02*
X130537600Y-30532754I53033J53033D01*
G01*
X130643666Y-30426688D01*
G75*
G02*
X130749732Y-30426688I53033J-53033D01*
G01*
X131686648Y-31363604D01*
G75*
G02*
X131686648Y-31469670I-53033J-53033D01*
G01*
G37*
G36*
G01*
X131686648Y-32636396D02*
X130749732Y-33573312D01*
G75*
G02*
X130643666Y-33573312I-53033J53033D01*
G01*
X130537600Y-33467246D01*
G75*
G02*
X130537600Y-33361180I53033J53033D01*
G01*
X131474516Y-32424264D01*
G75*
G02*
X131580582Y-32424264I53033J-53033D01*
G01*
X131686648Y-32530330D01*
G75*
G02*
X131686648Y-32636396I-53033J-53033D01*
G01*
G37*
G36*
G01*
X132040202Y-32989950D02*
X131103286Y-33926866D01*
G75*
G02*
X130997220Y-33926866I-53033J53033D01*
G01*
X130891154Y-33820800D01*
G75*
G02*
X130891154Y-33714734I53033J53033D01*
G01*
X131828070Y-32777818D01*
G75*
G02*
X131934136Y-32777818I53033J-53033D01*
G01*
X132040202Y-32883884D01*
G75*
G02*
X132040202Y-32989950I-53033J-53033D01*
G01*
G37*
G36*
G01*
X132393755Y-33343503D02*
X131456839Y-34280419D01*
G75*
G02*
X131350773Y-34280419I-53033J53033D01*
G01*
X131244707Y-34174353D01*
G75*
G02*
X131244707Y-34068287I53033J53033D01*
G01*
X132181623Y-33131371D01*
G75*
G02*
X132287689Y-33131371I53033J-53033D01*
G01*
X132393755Y-33237437D01*
G75*
G02*
X132393755Y-33343503I-53033J-53033D01*
G01*
G37*
G36*
G01*
X132747309Y-33697057D02*
X131810393Y-34633973D01*
G75*
G02*
X131704327Y-34633973I-53033J53033D01*
G01*
X131598261Y-34527907D01*
G75*
G02*
X131598261Y-34421841I53033J53033D01*
G01*
X132535177Y-33484925D01*
G75*
G02*
X132641243Y-33484925I53033J-53033D01*
G01*
X132747309Y-33590991D01*
G75*
G02*
X132747309Y-33697057I-53033J-53033D01*
G01*
G37*
G36*
G01*
X133100862Y-34050610D02*
X132163946Y-34987526D01*
G75*
G02*
X132057880Y-34987526I-53033J53033D01*
G01*
X131951814Y-34881460D01*
G75*
G02*
X131951814Y-34775394I53033J53033D01*
G01*
X132888730Y-33838478D01*
G75*
G02*
X132994796Y-33838478I53033J-53033D01*
G01*
X133100862Y-33944544D01*
G75*
G02*
X133100862Y-34050610I-53033J-53033D01*
G01*
G37*
G36*
G01*
X133454415Y-34404163D02*
X132517499Y-35341079D01*
G75*
G02*
X132411433Y-35341079I-53033J53033D01*
G01*
X132305367Y-35235013D01*
G75*
G02*
X132305367Y-35128947I53033J53033D01*
G01*
X133242283Y-34192031D01*
G75*
G02*
X133348349Y-34192031I53033J-53033D01*
G01*
X133454415Y-34298097D01*
G75*
G02*
X133454415Y-34404163I-53033J-53033D01*
G01*
G37*
G36*
G01*
X133807969Y-34757717D02*
X132871053Y-35694633D01*
G75*
G02*
X132764987Y-35694633I-53033J53033D01*
G01*
X132658921Y-35588567D01*
G75*
G02*
X132658921Y-35482501I53033J53033D01*
G01*
X133595837Y-34545585D01*
G75*
G02*
X133701903Y-34545585I53033J-53033D01*
G01*
X133807969Y-34651651D01*
G75*
G02*
X133807969Y-34757717I-53033J-53033D01*
G01*
G37*
G36*
G01*
X134161522Y-35111270D02*
X133224606Y-36048186D01*
G75*
G02*
X133118540Y-36048186I-53033J53033D01*
G01*
X133012474Y-35942120D01*
G75*
G02*
X133012474Y-35836054I53033J53033D01*
G01*
X133949390Y-34899138D01*
G75*
G02*
X134055456Y-34899138I53033J-53033D01*
G01*
X134161522Y-35005204D01*
G75*
G02*
X134161522Y-35111270I-53033J-53033D01*
G01*
G37*
G36*
G01*
X134515075Y-35464823D02*
X133578159Y-36401739D01*
G75*
G02*
X133472093Y-36401739I-53033J53033D01*
G01*
X133366027Y-36295673D01*
G75*
G02*
X133366027Y-36189607I53033J53033D01*
G01*
X134302943Y-35252691D01*
G75*
G02*
X134409009Y-35252691I53033J-53033D01*
G01*
X134515075Y-35358757D01*
G75*
G02*
X134515075Y-35464823I-53033J-53033D01*
G01*
G37*
G36*
G01*
X134868629Y-35818377D02*
X133931713Y-36755293D01*
G75*
G02*
X133825647Y-36755293I-53033J53033D01*
G01*
X133719581Y-36649227D01*
G75*
G02*
X133719581Y-36543161I53033J53033D01*
G01*
X134656497Y-35606245D01*
G75*
G02*
X134762563Y-35606245I53033J-53033D01*
G01*
X134868629Y-35712311D01*
G75*
G02*
X134868629Y-35818377I-53033J-53033D01*
G01*
G37*
G36*
G01*
X135222182Y-36171930D02*
X134285266Y-37108846D01*
G75*
G02*
X134179200Y-37108846I-53033J53033D01*
G01*
X134073134Y-37002780D01*
G75*
G02*
X134073134Y-36896714I53033J53033D01*
G01*
X135010050Y-35959798D01*
G75*
G02*
X135116116Y-35959798I53033J-53033D01*
G01*
X135222182Y-36065864D01*
G75*
G02*
X135222182Y-36171930I-53033J-53033D01*
G01*
G37*
G36*
G01*
X135575736Y-36525484D02*
X134638820Y-37462400D01*
G75*
G02*
X134532754Y-37462400I-53033J53033D01*
G01*
X134426688Y-37356334D01*
G75*
G02*
X134426688Y-37250268I53033J53033D01*
G01*
X135363604Y-36313352D01*
G75*
G02*
X135469670Y-36313352I53033J-53033D01*
G01*
X135575736Y-36419418D01*
G75*
G02*
X135575736Y-36525484I-53033J-53033D01*
G01*
G37*
G36*
G01*
X188300000Y-29755000D02*
X188300000Y-30055000D01*
G75*
G02*
X188150000Y-30205000I-150000J0D01*
G01*
X186700000Y-30205000D01*
G75*
G02*
X186550000Y-30055000I0J150000D01*
G01*
X186550000Y-29755000D01*
G75*
G02*
X186700000Y-29605000I150000J0D01*
G01*
X188150000Y-29605000D01*
G75*
G02*
X188300000Y-29755000I0J-150000D01*
G01*
G37*
G36*
G01*
X188300000Y-28485000D02*
X188300000Y-28785000D01*
G75*
G02*
X188150000Y-28935000I-150000J0D01*
G01*
X186700000Y-28935000D01*
G75*
G02*
X186550000Y-28785000I0J150000D01*
G01*
X186550000Y-28485000D01*
G75*
G02*
X186700000Y-28335000I150000J0D01*
G01*
X188150000Y-28335000D01*
G75*
G02*
X188300000Y-28485000I0J-150000D01*
G01*
G37*
G36*
G01*
X188300000Y-27215000D02*
X188300000Y-27515000D01*
G75*
G02*
X188150000Y-27665000I-150000J0D01*
G01*
X186700000Y-27665000D01*
G75*
G02*
X186550000Y-27515000I0J150000D01*
G01*
X186550000Y-27215000D01*
G75*
G02*
X186700000Y-27065000I150000J0D01*
G01*
X188150000Y-27065000D01*
G75*
G02*
X188300000Y-27215000I0J-150000D01*
G01*
G37*
G36*
G01*
X188300000Y-25945000D02*
X188300000Y-26245000D01*
G75*
G02*
X188150000Y-26395000I-150000J0D01*
G01*
X186700000Y-26395000D01*
G75*
G02*
X186550000Y-26245000I0J150000D01*
G01*
X186550000Y-25945000D01*
G75*
G02*
X186700000Y-25795000I150000J0D01*
G01*
X188150000Y-25795000D01*
G75*
G02*
X188300000Y-25945000I0J-150000D01*
G01*
G37*
G36*
G01*
X193450000Y-25945000D02*
X193450000Y-26245000D01*
G75*
G02*
X193300000Y-26395000I-150000J0D01*
G01*
X191850000Y-26395000D01*
G75*
G02*
X191700000Y-26245000I0J150000D01*
G01*
X191700000Y-25945000D01*
G75*
G02*
X191850000Y-25795000I150000J0D01*
G01*
X193300000Y-25795000D01*
G75*
G02*
X193450000Y-25945000I0J-150000D01*
G01*
G37*
G36*
G01*
X193450000Y-27215000D02*
X193450000Y-27515000D01*
G75*
G02*
X193300000Y-27665000I-150000J0D01*
G01*
X191850000Y-27665000D01*
G75*
G02*
X191700000Y-27515000I0J150000D01*
G01*
X191700000Y-27215000D01*
G75*
G02*
X191850000Y-27065000I150000J0D01*
G01*
X193300000Y-27065000D01*
G75*
G02*
X193450000Y-27215000I0J-150000D01*
G01*
G37*
G36*
G01*
X193450000Y-28485000D02*
X193450000Y-28785000D01*
G75*
G02*
X193300000Y-28935000I-150000J0D01*
G01*
X191850000Y-28935000D01*
G75*
G02*
X191700000Y-28785000I0J150000D01*
G01*
X191700000Y-28485000D01*
G75*
G02*
X191850000Y-28335000I150000J0D01*
G01*
X193300000Y-28335000D01*
G75*
G02*
X193450000Y-28485000I0J-150000D01*
G01*
G37*
G36*
G01*
X193450000Y-29755000D02*
X193450000Y-30055000D01*
G75*
G02*
X193300000Y-30205000I-150000J0D01*
G01*
X191850000Y-30205000D01*
G75*
G02*
X191700000Y-30055000I0J150000D01*
G01*
X191700000Y-29755000D01*
G75*
G02*
X191850000Y-29605000I150000J0D01*
G01*
X193300000Y-29605000D01*
G75*
G02*
X193450000Y-29755000I0J-150000D01*
G01*
G37*
G36*
G01*
X201700000Y-42245000D02*
X201700000Y-41945000D01*
G75*
G02*
X201850000Y-41795000I150000J0D01*
G01*
X203300000Y-41795000D01*
G75*
G02*
X203450000Y-41945000I0J-150000D01*
G01*
X203450000Y-42245000D01*
G75*
G02*
X203300000Y-42395000I-150000J0D01*
G01*
X201850000Y-42395000D01*
G75*
G02*
X201700000Y-42245000I0J150000D01*
G01*
G37*
G36*
G01*
X201700000Y-43515000D02*
X201700000Y-43215000D01*
G75*
G02*
X201850000Y-43065000I150000J0D01*
G01*
X203300000Y-43065000D01*
G75*
G02*
X203450000Y-43215000I0J-150000D01*
G01*
X203450000Y-43515000D01*
G75*
G02*
X203300000Y-43665000I-150000J0D01*
G01*
X201850000Y-43665000D01*
G75*
G02*
X201700000Y-43515000I0J150000D01*
G01*
G37*
G36*
G01*
X201700000Y-44785000D02*
X201700000Y-44485000D01*
G75*
G02*
X201850000Y-44335000I150000J0D01*
G01*
X203300000Y-44335000D01*
G75*
G02*
X203450000Y-44485000I0J-150000D01*
G01*
X203450000Y-44785000D01*
G75*
G02*
X203300000Y-44935000I-150000J0D01*
G01*
X201850000Y-44935000D01*
G75*
G02*
X201700000Y-44785000I0J150000D01*
G01*
G37*
G36*
G01*
X201700000Y-46055000D02*
X201700000Y-45755000D01*
G75*
G02*
X201850000Y-45605000I150000J0D01*
G01*
X203300000Y-45605000D01*
G75*
G02*
X203450000Y-45755000I0J-150000D01*
G01*
X203450000Y-46055000D01*
G75*
G02*
X203300000Y-46205000I-150000J0D01*
G01*
X201850000Y-46205000D01*
G75*
G02*
X201700000Y-46055000I0J150000D01*
G01*
G37*
G36*
G01*
X196550000Y-46055000D02*
X196550000Y-45755000D01*
G75*
G02*
X196700000Y-45605000I150000J0D01*
G01*
X198150000Y-45605000D01*
G75*
G02*
X198300000Y-45755000I0J-150000D01*
G01*
X198300000Y-46055000D01*
G75*
G02*
X198150000Y-46205000I-150000J0D01*
G01*
X196700000Y-46205000D01*
G75*
G02*
X196550000Y-46055000I0J150000D01*
G01*
G37*
G36*
G01*
X196550000Y-44785000D02*
X196550000Y-44485000D01*
G75*
G02*
X196700000Y-44335000I150000J0D01*
G01*
X198150000Y-44335000D01*
G75*
G02*
X198300000Y-44485000I0J-150000D01*
G01*
X198300000Y-44785000D01*
G75*
G02*
X198150000Y-44935000I-150000J0D01*
G01*
X196700000Y-44935000D01*
G75*
G02*
X196550000Y-44785000I0J150000D01*
G01*
G37*
G36*
G01*
X196550000Y-43515000D02*
X196550000Y-43215000D01*
G75*
G02*
X196700000Y-43065000I150000J0D01*
G01*
X198150000Y-43065000D01*
G75*
G02*
X198300000Y-43215000I0J-150000D01*
G01*
X198300000Y-43515000D01*
G75*
G02*
X198150000Y-43665000I-150000J0D01*
G01*
X196700000Y-43665000D01*
G75*
G02*
X196550000Y-43515000I0J150000D01*
G01*
G37*
G36*
G01*
X196550000Y-42245000D02*
X196550000Y-41945000D01*
G75*
G02*
X196700000Y-41795000I150000J0D01*
G01*
X198150000Y-41795000D01*
G75*
G02*
X198300000Y-41945000I0J-150000D01*
G01*
X198300000Y-42245000D01*
G75*
G02*
X198150000Y-42395000I-150000J0D01*
G01*
X196700000Y-42395000D01*
G75*
G02*
X196550000Y-42245000I0J150000D01*
G01*
G37*
G36*
G01*
X174450000Y-45755000D02*
X174450000Y-46055000D01*
G75*
G02*
X174300000Y-46205000I-150000J0D01*
G01*
X172850000Y-46205000D01*
G75*
G02*
X172700000Y-46055000I0J150000D01*
G01*
X172700000Y-45755000D01*
G75*
G02*
X172850000Y-45605000I150000J0D01*
G01*
X174300000Y-45605000D01*
G75*
G02*
X174450000Y-45755000I0J-150000D01*
G01*
G37*
G36*
G01*
X174450000Y-44485000D02*
X174450000Y-44785000D01*
G75*
G02*
X174300000Y-44935000I-150000J0D01*
G01*
X172850000Y-44935000D01*
G75*
G02*
X172700000Y-44785000I0J150000D01*
G01*
X172700000Y-44485000D01*
G75*
G02*
X172850000Y-44335000I150000J0D01*
G01*
X174300000Y-44335000D01*
G75*
G02*
X174450000Y-44485000I0J-150000D01*
G01*
G37*
G36*
G01*
X174450000Y-43215000D02*
X174450000Y-43515000D01*
G75*
G02*
X174300000Y-43665000I-150000J0D01*
G01*
X172850000Y-43665000D01*
G75*
G02*
X172700000Y-43515000I0J150000D01*
G01*
X172700000Y-43215000D01*
G75*
G02*
X172850000Y-43065000I150000J0D01*
G01*
X174300000Y-43065000D01*
G75*
G02*
X174450000Y-43215000I0J-150000D01*
G01*
G37*
G36*
G01*
X174450000Y-41945000D02*
X174450000Y-42245000D01*
G75*
G02*
X174300000Y-42395000I-150000J0D01*
G01*
X172850000Y-42395000D01*
G75*
G02*
X172700000Y-42245000I0J150000D01*
G01*
X172700000Y-41945000D01*
G75*
G02*
X172850000Y-41795000I150000J0D01*
G01*
X174300000Y-41795000D01*
G75*
G02*
X174450000Y-41945000I0J-150000D01*
G01*
G37*
G36*
G01*
X169300000Y-41945000D02*
X169300000Y-42245000D01*
G75*
G02*
X169150000Y-42395000I-150000J0D01*
G01*
X167700000Y-42395000D01*
G75*
G02*
X167550000Y-42245000I0J150000D01*
G01*
X167550000Y-41945000D01*
G75*
G02*
X167700000Y-41795000I150000J0D01*
G01*
X169150000Y-41795000D01*
G75*
G02*
X169300000Y-41945000I0J-150000D01*
G01*
G37*
G36*
G01*
X169300000Y-43215000D02*
X169300000Y-43515000D01*
G75*
G02*
X169150000Y-43665000I-150000J0D01*
G01*
X167700000Y-43665000D01*
G75*
G02*
X167550000Y-43515000I0J150000D01*
G01*
X167550000Y-43215000D01*
G75*
G02*
X167700000Y-43065000I150000J0D01*
G01*
X169150000Y-43065000D01*
G75*
G02*
X169300000Y-43215000I0J-150000D01*
G01*
G37*
G36*
G01*
X169300000Y-44485000D02*
X169300000Y-44785000D01*
G75*
G02*
X169150000Y-44935000I-150000J0D01*
G01*
X167700000Y-44935000D01*
G75*
G02*
X167550000Y-44785000I0J150000D01*
G01*
X167550000Y-44485000D01*
G75*
G02*
X167700000Y-44335000I150000J0D01*
G01*
X169150000Y-44335000D01*
G75*
G02*
X169300000Y-44485000I0J-150000D01*
G01*
G37*
G36*
G01*
X169300000Y-45755000D02*
X169300000Y-46055000D01*
G75*
G02*
X169150000Y-46205000I-150000J0D01*
G01*
X167700000Y-46205000D01*
G75*
G02*
X167550000Y-46055000I0J150000D01*
G01*
X167550000Y-45755000D01*
G75*
G02*
X167700000Y-45605000I150000J0D01*
G01*
X169150000Y-45605000D01*
G75*
G02*
X169300000Y-45755000I0J-150000D01*
G01*
G37*
G36*
G01*
X174450000Y-37755000D02*
X174450000Y-38055000D01*
G75*
G02*
X174300000Y-38205000I-150000J0D01*
G01*
X172850000Y-38205000D01*
G75*
G02*
X172700000Y-38055000I0J150000D01*
G01*
X172700000Y-37755000D01*
G75*
G02*
X172850000Y-37605000I150000J0D01*
G01*
X174300000Y-37605000D01*
G75*
G02*
X174450000Y-37755000I0J-150000D01*
G01*
G37*
G36*
G01*
X174450000Y-36485000D02*
X174450000Y-36785000D01*
G75*
G02*
X174300000Y-36935000I-150000J0D01*
G01*
X172850000Y-36935000D01*
G75*
G02*
X172700000Y-36785000I0J150000D01*
G01*
X172700000Y-36485000D01*
G75*
G02*
X172850000Y-36335000I150000J0D01*
G01*
X174300000Y-36335000D01*
G75*
G02*
X174450000Y-36485000I0J-150000D01*
G01*
G37*
G36*
G01*
X174450000Y-35215000D02*
X174450000Y-35515000D01*
G75*
G02*
X174300000Y-35665000I-150000J0D01*
G01*
X172850000Y-35665000D01*
G75*
G02*
X172700000Y-35515000I0J150000D01*
G01*
X172700000Y-35215000D01*
G75*
G02*
X172850000Y-35065000I150000J0D01*
G01*
X174300000Y-35065000D01*
G75*
G02*
X174450000Y-35215000I0J-150000D01*
G01*
G37*
G36*
G01*
X174450000Y-33945000D02*
X174450000Y-34245000D01*
G75*
G02*
X174300000Y-34395000I-150000J0D01*
G01*
X172850000Y-34395000D01*
G75*
G02*
X172700000Y-34245000I0J150000D01*
G01*
X172700000Y-33945000D01*
G75*
G02*
X172850000Y-33795000I150000J0D01*
G01*
X174300000Y-33795000D01*
G75*
G02*
X174450000Y-33945000I0J-150000D01*
G01*
G37*
G36*
G01*
X169300000Y-33945000D02*
X169300000Y-34245000D01*
G75*
G02*
X169150000Y-34395000I-150000J0D01*
G01*
X167700000Y-34395000D01*
G75*
G02*
X167550000Y-34245000I0J150000D01*
G01*
X167550000Y-33945000D01*
G75*
G02*
X167700000Y-33795000I150000J0D01*
G01*
X169150000Y-33795000D01*
G75*
G02*
X169300000Y-33945000I0J-150000D01*
G01*
G37*
G36*
G01*
X169300000Y-35215000D02*
X169300000Y-35515000D01*
G75*
G02*
X169150000Y-35665000I-150000J0D01*
G01*
X167700000Y-35665000D01*
G75*
G02*
X167550000Y-35515000I0J150000D01*
G01*
X167550000Y-35215000D01*
G75*
G02*
X167700000Y-35065000I150000J0D01*
G01*
X169150000Y-35065000D01*
G75*
G02*
X169300000Y-35215000I0J-150000D01*
G01*
G37*
G36*
G01*
X169300000Y-36485000D02*
X169300000Y-36785000D01*
G75*
G02*
X169150000Y-36935000I-150000J0D01*
G01*
X167700000Y-36935000D01*
G75*
G02*
X167550000Y-36785000I0J150000D01*
G01*
X167550000Y-36485000D01*
G75*
G02*
X167700000Y-36335000I150000J0D01*
G01*
X169150000Y-36335000D01*
G75*
G02*
X169300000Y-36485000I0J-150000D01*
G01*
G37*
G36*
G01*
X169300000Y-37755000D02*
X169300000Y-38055000D01*
G75*
G02*
X169150000Y-38205000I-150000J0D01*
G01*
X167700000Y-38205000D01*
G75*
G02*
X167550000Y-38055000I0J150000D01*
G01*
X167550000Y-37755000D01*
G75*
G02*
X167700000Y-37605000I150000J0D01*
G01*
X169150000Y-37605000D01*
G75*
G02*
X169300000Y-37755000I0J-150000D01*
G01*
G37*
D14*
X209310000Y-28000000D03*
D15*
X207205000Y-29905000D03*
X207205000Y-28635000D03*
X207205000Y-27365000D03*
X207205000Y-26095000D03*
D16*
X212670000Y-26095000D03*
X212670000Y-27365000D03*
X212670000Y-28635000D03*
X212670000Y-29905000D03*
D17*
X203000000Y-29270000D03*
X197000000Y-29270000D03*
X197000000Y-26730000D03*
X203000000Y-26730000D03*
D16*
X207330000Y-42095000D03*
X207330000Y-43365000D03*
X207330000Y-44635000D03*
X207330000Y-45905000D03*
D15*
X212795000Y-45905000D03*
X212795000Y-44635000D03*
X212795000Y-43365000D03*
X212795000Y-42095000D03*
D14*
X210690000Y-44000000D03*
D17*
X203000000Y-34730000D03*
X197000000Y-34730000D03*
X197000000Y-37270000D03*
X203000000Y-37270000D03*
D18*
X182100000Y-39000000D03*
X182100000Y-38050000D03*
X182100000Y-39950000D03*
X179900000Y-39950000D03*
X179900000Y-39000000D03*
X179900000Y-38050000D03*
X179900000Y-33050000D03*
X179900000Y-34000000D03*
X179900000Y-34950000D03*
X182100000Y-34950000D03*
X182100000Y-33050000D03*
X182100000Y-34000000D03*
X179900000Y-28050000D03*
X179900000Y-29000000D03*
X179900000Y-29950000D03*
X182100000Y-29950000D03*
X182100000Y-28050000D03*
X182100000Y-29000000D03*
G36*
G01*
X193450000Y-37755000D02*
X193450000Y-38055000D01*
G75*
G02*
X193300000Y-38205000I-150000J0D01*
G01*
X191850000Y-38205000D01*
G75*
G02*
X191700000Y-38055000I0J150000D01*
G01*
X191700000Y-37755000D01*
G75*
G02*
X191850000Y-37605000I150000J0D01*
G01*
X193300000Y-37605000D01*
G75*
G02*
X193450000Y-37755000I0J-150000D01*
G01*
G37*
G36*
G01*
X193450000Y-36485000D02*
X193450000Y-36785000D01*
G75*
G02*
X193300000Y-36935000I-150000J0D01*
G01*
X191850000Y-36935000D01*
G75*
G02*
X191700000Y-36785000I0J150000D01*
G01*
X191700000Y-36485000D01*
G75*
G02*
X191850000Y-36335000I150000J0D01*
G01*
X193300000Y-36335000D01*
G75*
G02*
X193450000Y-36485000I0J-150000D01*
G01*
G37*
G36*
G01*
X193450000Y-35215000D02*
X193450000Y-35515000D01*
G75*
G02*
X193300000Y-35665000I-150000J0D01*
G01*
X191850000Y-35665000D01*
G75*
G02*
X191700000Y-35515000I0J150000D01*
G01*
X191700000Y-35215000D01*
G75*
G02*
X191850000Y-35065000I150000J0D01*
G01*
X193300000Y-35065000D01*
G75*
G02*
X193450000Y-35215000I0J-150000D01*
G01*
G37*
G36*
G01*
X193450000Y-33945000D02*
X193450000Y-34245000D01*
G75*
G02*
X193300000Y-34395000I-150000J0D01*
G01*
X191850000Y-34395000D01*
G75*
G02*
X191700000Y-34245000I0J150000D01*
G01*
X191700000Y-33945000D01*
G75*
G02*
X191850000Y-33795000I150000J0D01*
G01*
X193300000Y-33795000D01*
G75*
G02*
X193450000Y-33945000I0J-150000D01*
G01*
G37*
G36*
G01*
X188300000Y-33945000D02*
X188300000Y-34245000D01*
G75*
G02*
X188150000Y-34395000I-150000J0D01*
G01*
X186700000Y-34395000D01*
G75*
G02*
X186550000Y-34245000I0J150000D01*
G01*
X186550000Y-33945000D01*
G75*
G02*
X186700000Y-33795000I150000J0D01*
G01*
X188150000Y-33795000D01*
G75*
G02*
X188300000Y-33945000I0J-150000D01*
G01*
G37*
G36*
G01*
X188300000Y-35215000D02*
X188300000Y-35515000D01*
G75*
G02*
X188150000Y-35665000I-150000J0D01*
G01*
X186700000Y-35665000D01*
G75*
G02*
X186550000Y-35515000I0J150000D01*
G01*
X186550000Y-35215000D01*
G75*
G02*
X186700000Y-35065000I150000J0D01*
G01*
X188150000Y-35065000D01*
G75*
G02*
X188300000Y-35215000I0J-150000D01*
G01*
G37*
G36*
G01*
X188300000Y-36485000D02*
X188300000Y-36785000D01*
G75*
G02*
X188150000Y-36935000I-150000J0D01*
G01*
X186700000Y-36935000D01*
G75*
G02*
X186550000Y-36785000I0J150000D01*
G01*
X186550000Y-36485000D01*
G75*
G02*
X186700000Y-36335000I150000J0D01*
G01*
X188150000Y-36335000D01*
G75*
G02*
X188300000Y-36485000I0J-150000D01*
G01*
G37*
G36*
G01*
X188300000Y-37755000D02*
X188300000Y-38055000D01*
G75*
G02*
X188150000Y-38205000I-150000J0D01*
G01*
X186700000Y-38205000D01*
G75*
G02*
X186550000Y-38055000I0J150000D01*
G01*
X186550000Y-37755000D01*
G75*
G02*
X186700000Y-37605000I150000J0D01*
G01*
X188150000Y-37605000D01*
G75*
G02*
X188300000Y-37755000I0J-150000D01*
G01*
G37*
X191100000Y-44950000D03*
X191100000Y-44000000D03*
X191100000Y-43050000D03*
X188900000Y-43050000D03*
X188900000Y-44950000D03*
X188900000Y-44000000D03*
G36*
G01*
X206425000Y-37425001D02*
X206425000Y-34574999D01*
G75*
G02*
X206674999Y-34325000I249999J0D01*
G01*
X207400001Y-34325000D01*
G75*
G02*
X207650000Y-34574999I0J-249999D01*
G01*
X207650000Y-37425001D01*
G75*
G02*
X207400001Y-37675000I-249999J0D01*
G01*
X206674999Y-37675000D01*
G75*
G02*
X206425000Y-37425001I0J249999D01*
G01*
G37*
G36*
G01*
X212350000Y-37425001D02*
X212350000Y-34574999D01*
G75*
G02*
X212599999Y-34325000I249999J0D01*
G01*
X213325001Y-34325000D01*
G75*
G02*
X213575000Y-34574999I0J-249999D01*
G01*
X213575000Y-37425001D01*
G75*
G02*
X213325001Y-37675000I-249999J0D01*
G01*
X212599999Y-37675000D01*
G75*
G02*
X212350000Y-37425001I0J249999D01*
G01*
G37*
G36*
G01*
X162700000Y-42245000D02*
X162700000Y-41945000D01*
G75*
G02*
X162850000Y-41795000I150000J0D01*
G01*
X164300000Y-41795000D01*
G75*
G02*
X164450000Y-41945000I0J-150000D01*
G01*
X164450000Y-42245000D01*
G75*
G02*
X164300000Y-42395000I-150000J0D01*
G01*
X162850000Y-42395000D01*
G75*
G02*
X162700000Y-42245000I0J150000D01*
G01*
G37*
G36*
G01*
X162700000Y-43515000D02*
X162700000Y-43215000D01*
G75*
G02*
X162850000Y-43065000I150000J0D01*
G01*
X164300000Y-43065000D01*
G75*
G02*
X164450000Y-43215000I0J-150000D01*
G01*
X164450000Y-43515000D01*
G75*
G02*
X164300000Y-43665000I-150000J0D01*
G01*
X162850000Y-43665000D01*
G75*
G02*
X162700000Y-43515000I0J150000D01*
G01*
G37*
G36*
G01*
X162700000Y-44785000D02*
X162700000Y-44485000D01*
G75*
G02*
X162850000Y-44335000I150000J0D01*
G01*
X164300000Y-44335000D01*
G75*
G02*
X164450000Y-44485000I0J-150000D01*
G01*
X164450000Y-44785000D01*
G75*
G02*
X164300000Y-44935000I-150000J0D01*
G01*
X162850000Y-44935000D01*
G75*
G02*
X162700000Y-44785000I0J150000D01*
G01*
G37*
G36*
G01*
X162700000Y-46055000D02*
X162700000Y-45755000D01*
G75*
G02*
X162850000Y-45605000I150000J0D01*
G01*
X164300000Y-45605000D01*
G75*
G02*
X164450000Y-45755000I0J-150000D01*
G01*
X164450000Y-46055000D01*
G75*
G02*
X164300000Y-46205000I-150000J0D01*
G01*
X162850000Y-46205000D01*
G75*
G02*
X162700000Y-46055000I0J150000D01*
G01*
G37*
G36*
G01*
X157550000Y-46055000D02*
X157550000Y-45755000D01*
G75*
G02*
X157700000Y-45605000I150000J0D01*
G01*
X159150000Y-45605000D01*
G75*
G02*
X159300000Y-45755000I0J-150000D01*
G01*
X159300000Y-46055000D01*
G75*
G02*
X159150000Y-46205000I-150000J0D01*
G01*
X157700000Y-46205000D01*
G75*
G02*
X157550000Y-46055000I0J150000D01*
G01*
G37*
G36*
G01*
X157550000Y-44785000D02*
X157550000Y-44485000D01*
G75*
G02*
X157700000Y-44335000I150000J0D01*
G01*
X159150000Y-44335000D01*
G75*
G02*
X159300000Y-44485000I0J-150000D01*
G01*
X159300000Y-44785000D01*
G75*
G02*
X159150000Y-44935000I-150000J0D01*
G01*
X157700000Y-44935000D01*
G75*
G02*
X157550000Y-44785000I0J150000D01*
G01*
G37*
G36*
G01*
X157550000Y-43515000D02*
X157550000Y-43215000D01*
G75*
G02*
X157700000Y-43065000I150000J0D01*
G01*
X159150000Y-43065000D01*
G75*
G02*
X159300000Y-43215000I0J-150000D01*
G01*
X159300000Y-43515000D01*
G75*
G02*
X159150000Y-43665000I-150000J0D01*
G01*
X157700000Y-43665000D01*
G75*
G02*
X157550000Y-43515000I0J150000D01*
G01*
G37*
G36*
G01*
X157550000Y-42245000D02*
X157550000Y-41945000D01*
G75*
G02*
X157700000Y-41795000I150000J0D01*
G01*
X159150000Y-41795000D01*
G75*
G02*
X159300000Y-41945000I0J-150000D01*
G01*
X159300000Y-42245000D01*
G75*
G02*
X159150000Y-42395000I-150000J0D01*
G01*
X157700000Y-42395000D01*
G75*
G02*
X157550000Y-42245000I0J150000D01*
G01*
G37*
G36*
G01*
X157550000Y-34245000D02*
X157550000Y-33945000D01*
G75*
G02*
X157700000Y-33795000I150000J0D01*
G01*
X159150000Y-33795000D01*
G75*
G02*
X159300000Y-33945000I0J-150000D01*
G01*
X159300000Y-34245000D01*
G75*
G02*
X159150000Y-34395000I-150000J0D01*
G01*
X157700000Y-34395000D01*
G75*
G02*
X157550000Y-34245000I0J150000D01*
G01*
G37*
G36*
G01*
X157550000Y-35515000D02*
X157550000Y-35215000D01*
G75*
G02*
X157700000Y-35065000I150000J0D01*
G01*
X159150000Y-35065000D01*
G75*
G02*
X159300000Y-35215000I0J-150000D01*
G01*
X159300000Y-35515000D01*
G75*
G02*
X159150000Y-35665000I-150000J0D01*
G01*
X157700000Y-35665000D01*
G75*
G02*
X157550000Y-35515000I0J150000D01*
G01*
G37*
G36*
G01*
X157550000Y-36785000D02*
X157550000Y-36485000D01*
G75*
G02*
X157700000Y-36335000I150000J0D01*
G01*
X159150000Y-36335000D01*
G75*
G02*
X159300000Y-36485000I0J-150000D01*
G01*
X159300000Y-36785000D01*
G75*
G02*
X159150000Y-36935000I-150000J0D01*
G01*
X157700000Y-36935000D01*
G75*
G02*
X157550000Y-36785000I0J150000D01*
G01*
G37*
G36*
G01*
X157550000Y-38055000D02*
X157550000Y-37755000D01*
G75*
G02*
X157700000Y-37605000I150000J0D01*
G01*
X159150000Y-37605000D01*
G75*
G02*
X159300000Y-37755000I0J-150000D01*
G01*
X159300000Y-38055000D01*
G75*
G02*
X159150000Y-38205000I-150000J0D01*
G01*
X157700000Y-38205000D01*
G75*
G02*
X157550000Y-38055000I0J150000D01*
G01*
G37*
G36*
G01*
X162700000Y-38055000D02*
X162700000Y-37755000D01*
G75*
G02*
X162850000Y-37605000I150000J0D01*
G01*
X164300000Y-37605000D01*
G75*
G02*
X164450000Y-37755000I0J-150000D01*
G01*
X164450000Y-38055000D01*
G75*
G02*
X164300000Y-38205000I-150000J0D01*
G01*
X162850000Y-38205000D01*
G75*
G02*
X162700000Y-38055000I0J150000D01*
G01*
G37*
G36*
G01*
X162700000Y-36785000D02*
X162700000Y-36485000D01*
G75*
G02*
X162850000Y-36335000I150000J0D01*
G01*
X164300000Y-36335000D01*
G75*
G02*
X164450000Y-36485000I0J-150000D01*
G01*
X164450000Y-36785000D01*
G75*
G02*
X164300000Y-36935000I-150000J0D01*
G01*
X162850000Y-36935000D01*
G75*
G02*
X162700000Y-36785000I0J150000D01*
G01*
G37*
G36*
G01*
X162700000Y-35515000D02*
X162700000Y-35215000D01*
G75*
G02*
X162850000Y-35065000I150000J0D01*
G01*
X164300000Y-35065000D01*
G75*
G02*
X164450000Y-35215000I0J-150000D01*
G01*
X164450000Y-35515000D01*
G75*
G02*
X164300000Y-35665000I-150000J0D01*
G01*
X162850000Y-35665000D01*
G75*
G02*
X162700000Y-35515000I0J150000D01*
G01*
G37*
G36*
G01*
X162700000Y-34245000D02*
X162700000Y-33945000D01*
G75*
G02*
X162850000Y-33795000I150000J0D01*
G01*
X164300000Y-33795000D01*
G75*
G02*
X164450000Y-33945000I0J-150000D01*
G01*
X164450000Y-34245000D01*
G75*
G02*
X164300000Y-34395000I-150000J0D01*
G01*
X162850000Y-34395000D01*
G75*
G02*
X162700000Y-34245000I0J150000D01*
G01*
G37*
G36*
G01*
X162700000Y-26245000D02*
X162700000Y-25945000D01*
G75*
G02*
X162850000Y-25795000I150000J0D01*
G01*
X164300000Y-25795000D01*
G75*
G02*
X164450000Y-25945000I0J-150000D01*
G01*
X164450000Y-26245000D01*
G75*
G02*
X164300000Y-26395000I-150000J0D01*
G01*
X162850000Y-26395000D01*
G75*
G02*
X162700000Y-26245000I0J150000D01*
G01*
G37*
G36*
G01*
X162700000Y-27515000D02*
X162700000Y-27215000D01*
G75*
G02*
X162850000Y-27065000I150000J0D01*
G01*
X164300000Y-27065000D01*
G75*
G02*
X164450000Y-27215000I0J-150000D01*
G01*
X164450000Y-27515000D01*
G75*
G02*
X164300000Y-27665000I-150000J0D01*
G01*
X162850000Y-27665000D01*
G75*
G02*
X162700000Y-27515000I0J150000D01*
G01*
G37*
G36*
G01*
X162700000Y-28785000D02*
X162700000Y-28485000D01*
G75*
G02*
X162850000Y-28335000I150000J0D01*
G01*
X164300000Y-28335000D01*
G75*
G02*
X164450000Y-28485000I0J-150000D01*
G01*
X164450000Y-28785000D01*
G75*
G02*
X164300000Y-28935000I-150000J0D01*
G01*
X162850000Y-28935000D01*
G75*
G02*
X162700000Y-28785000I0J150000D01*
G01*
G37*
G36*
G01*
X162700000Y-30055000D02*
X162700000Y-29755000D01*
G75*
G02*
X162850000Y-29605000I150000J0D01*
G01*
X164300000Y-29605000D01*
G75*
G02*
X164450000Y-29755000I0J-150000D01*
G01*
X164450000Y-30055000D01*
G75*
G02*
X164300000Y-30205000I-150000J0D01*
G01*
X162850000Y-30205000D01*
G75*
G02*
X162700000Y-30055000I0J150000D01*
G01*
G37*
G36*
G01*
X157550000Y-30055000D02*
X157550000Y-29755000D01*
G75*
G02*
X157700000Y-29605000I150000J0D01*
G01*
X159150000Y-29605000D01*
G75*
G02*
X159300000Y-29755000I0J-150000D01*
G01*
X159300000Y-30055000D01*
G75*
G02*
X159150000Y-30205000I-150000J0D01*
G01*
X157700000Y-30205000D01*
G75*
G02*
X157550000Y-30055000I0J150000D01*
G01*
G37*
G36*
G01*
X157550000Y-28785000D02*
X157550000Y-28485000D01*
G75*
G02*
X157700000Y-28335000I150000J0D01*
G01*
X159150000Y-28335000D01*
G75*
G02*
X159300000Y-28485000I0J-150000D01*
G01*
X159300000Y-28785000D01*
G75*
G02*
X159150000Y-28935000I-150000J0D01*
G01*
X157700000Y-28935000D01*
G75*
G02*
X157550000Y-28785000I0J150000D01*
G01*
G37*
G36*
G01*
X157550000Y-27515000D02*
X157550000Y-27215000D01*
G75*
G02*
X157700000Y-27065000I150000J0D01*
G01*
X159150000Y-27065000D01*
G75*
G02*
X159300000Y-27215000I0J-150000D01*
G01*
X159300000Y-27515000D01*
G75*
G02*
X159150000Y-27665000I-150000J0D01*
G01*
X157700000Y-27665000D01*
G75*
G02*
X157550000Y-27515000I0J150000D01*
G01*
G37*
G36*
G01*
X157550000Y-26245000D02*
X157550000Y-25945000D01*
G75*
G02*
X157700000Y-25795000I150000J0D01*
G01*
X159150000Y-25795000D01*
G75*
G02*
X159300000Y-25945000I0J-150000D01*
G01*
X159300000Y-26245000D01*
G75*
G02*
X159150000Y-26395000I-150000J0D01*
G01*
X157700000Y-26395000D01*
G75*
G02*
X157550000Y-26245000I0J150000D01*
G01*
G37*
D19*
X105105000Y-37680000D03*
X105105000Y-46320000D03*
D20*
X100925000Y-37680000D03*
X100925000Y-46320000D03*
D21*
X104605000Y-44890000D03*
X104605000Y-39110000D03*
D22*
X105670000Y-45050000D03*
X105670000Y-44250000D03*
X105670000Y-43750000D03*
X105670000Y-43250000D03*
X105670000Y-42750000D03*
X105670000Y-42250000D03*
X105670000Y-41750000D03*
X105670000Y-41250000D03*
X105670000Y-40750000D03*
X105670000Y-40250000D03*
X105670000Y-39450000D03*
X105670000Y-38650000D03*
X105670000Y-38950000D03*
X105670000Y-39750000D03*
X105670000Y-44550000D03*
X105670000Y-45350000D03*
G36*
G01*
X122256250Y-34225000D02*
X121743750Y-34225000D01*
G75*
G02*
X121525000Y-34006250I0J218750D01*
G01*
X121525000Y-33568750D01*
G75*
G02*
X121743750Y-33350000I218750J0D01*
G01*
X122256250Y-33350000D01*
G75*
G02*
X122475000Y-33568750I0J-218750D01*
G01*
X122475000Y-34006250D01*
G75*
G02*
X122256250Y-34225000I-218750J0D01*
G01*
G37*
G36*
G01*
X122256250Y-32650000D02*
X121743750Y-32650000D01*
G75*
G02*
X121525000Y-32431250I0J218750D01*
G01*
X121525000Y-31993750D01*
G75*
G02*
X121743750Y-31775000I218750J0D01*
G01*
X122256250Y-31775000D01*
G75*
G02*
X122475000Y-31993750I0J-218750D01*
G01*
X122475000Y-32431250D01*
G75*
G02*
X122256250Y-32650000I-218750J0D01*
G01*
G37*
G36*
G01*
X122256250Y-26650000D02*
X121743750Y-26650000D01*
G75*
G02*
X121525000Y-26431250I0J218750D01*
G01*
X121525000Y-25993750D01*
G75*
G02*
X121743750Y-25775000I218750J0D01*
G01*
X122256250Y-25775000D01*
G75*
G02*
X122475000Y-25993750I0J-218750D01*
G01*
X122475000Y-26431250D01*
G75*
G02*
X122256250Y-26650000I-218750J0D01*
G01*
G37*
G36*
G01*
X122256250Y-28225000D02*
X121743750Y-28225000D01*
G75*
G02*
X121525000Y-28006250I0J218750D01*
G01*
X121525000Y-27568750D01*
G75*
G02*
X121743750Y-27350000I218750J0D01*
G01*
X122256250Y-27350000D01*
G75*
G02*
X122475000Y-27568750I0J-218750D01*
G01*
X122475000Y-28006250D01*
G75*
G02*
X122256250Y-28225000I-218750J0D01*
G01*
G37*
D23*
X218920000Y-40920000D03*
X218920000Y-46000000D03*
X224000000Y-40920000D03*
X224000000Y-46000000D03*
X224000000Y-31080000D03*
X224000000Y-26000000D03*
X218920000Y-31080000D03*
X218920000Y-26000000D03*
G36*
G01*
X111562500Y-31600000D02*
X111437500Y-31600000D01*
G75*
G02*
X111375000Y-31537500I0J62500D01*
G01*
X111375000Y-30987500D01*
G75*
G02*
X111437500Y-30925000I62500J0D01*
G01*
X111562500Y-30925000D01*
G75*
G02*
X111625000Y-30987500I0J-62500D01*
G01*
X111625000Y-31537500D01*
G75*
G02*
X111562500Y-31600000I-62500J0D01*
G01*
G37*
G36*
G01*
X112062500Y-31600000D02*
X111937500Y-31600000D01*
G75*
G02*
X111875000Y-31537500I0J62500D01*
G01*
X111875000Y-30987500D01*
G75*
G02*
X111937500Y-30925000I62500J0D01*
G01*
X112062500Y-30925000D01*
G75*
G02*
X112125000Y-30987500I0J-62500D01*
G01*
X112125000Y-31537500D01*
G75*
G02*
X112062500Y-31600000I-62500J0D01*
G01*
G37*
G36*
G01*
X112562500Y-31600000D02*
X112437500Y-31600000D01*
G75*
G02*
X112375000Y-31537500I0J62500D01*
G01*
X112375000Y-30987500D01*
G75*
G02*
X112437500Y-30925000I62500J0D01*
G01*
X112562500Y-30925000D01*
G75*
G02*
X112625000Y-30987500I0J-62500D01*
G01*
X112625000Y-31537500D01*
G75*
G02*
X112562500Y-31600000I-62500J0D01*
G01*
G37*
G36*
G01*
X113537500Y-30875000D02*
X112987500Y-30875000D01*
G75*
G02*
X112925000Y-30812500I0J62500D01*
G01*
X112925000Y-30687500D01*
G75*
G02*
X112987500Y-30625000I62500J0D01*
G01*
X113537500Y-30625000D01*
G75*
G02*
X113600000Y-30687500I0J-62500D01*
G01*
X113600000Y-30812500D01*
G75*
G02*
X113537500Y-30875000I-62500J0D01*
G01*
G37*
G36*
G01*
X113537500Y-30375000D02*
X112987500Y-30375000D01*
G75*
G02*
X112925000Y-30312500I0J62500D01*
G01*
X112925000Y-30187500D01*
G75*
G02*
X112987500Y-30125000I62500J0D01*
G01*
X113537500Y-30125000D01*
G75*
G02*
X113600000Y-30187500I0J-62500D01*
G01*
X113600000Y-30312500D01*
G75*
G02*
X113537500Y-30375000I-62500J0D01*
G01*
G37*
G36*
G01*
X113537500Y-29875000D02*
X112987500Y-29875000D01*
G75*
G02*
X112925000Y-29812500I0J62500D01*
G01*
X112925000Y-29687500D01*
G75*
G02*
X112987500Y-29625000I62500J0D01*
G01*
X113537500Y-29625000D01*
G75*
G02*
X113600000Y-29687500I0J-62500D01*
G01*
X113600000Y-29812500D01*
G75*
G02*
X113537500Y-29875000I-62500J0D01*
G01*
G37*
G36*
G01*
X113537500Y-29375000D02*
X112987500Y-29375000D01*
G75*
G02*
X112925000Y-29312500I0J62500D01*
G01*
X112925000Y-29187500D01*
G75*
G02*
X112987500Y-29125000I62500J0D01*
G01*
X113537500Y-29125000D01*
G75*
G02*
X113600000Y-29187500I0J-62500D01*
G01*
X113600000Y-29312500D01*
G75*
G02*
X113537500Y-29375000I-62500J0D01*
G01*
G37*
G36*
G01*
X112562500Y-29075000D02*
X112437500Y-29075000D01*
G75*
G02*
X112375000Y-29012500I0J62500D01*
G01*
X112375000Y-28462500D01*
G75*
G02*
X112437500Y-28400000I62500J0D01*
G01*
X112562500Y-28400000D01*
G75*
G02*
X112625000Y-28462500I0J-62500D01*
G01*
X112625000Y-29012500D01*
G75*
G02*
X112562500Y-29075000I-62500J0D01*
G01*
G37*
G36*
G01*
X112062500Y-29075000D02*
X111937500Y-29075000D01*
G75*
G02*
X111875000Y-29012500I0J62500D01*
G01*
X111875000Y-28462500D01*
G75*
G02*
X111937500Y-28400000I62500J0D01*
G01*
X112062500Y-28400000D01*
G75*
G02*
X112125000Y-28462500I0J-62500D01*
G01*
X112125000Y-29012500D01*
G75*
G02*
X112062500Y-29075000I-62500J0D01*
G01*
G37*
G36*
G01*
X111562500Y-29075000D02*
X111437500Y-29075000D01*
G75*
G02*
X111375000Y-29012500I0J62500D01*
G01*
X111375000Y-28462500D01*
G75*
G02*
X111437500Y-28400000I62500J0D01*
G01*
X111562500Y-28400000D01*
G75*
G02*
X111625000Y-28462500I0J-62500D01*
G01*
X111625000Y-29012500D01*
G75*
G02*
X111562500Y-29075000I-62500J0D01*
G01*
G37*
G36*
G01*
X111012500Y-29375000D02*
X110462500Y-29375000D01*
G75*
G02*
X110400000Y-29312500I0J62500D01*
G01*
X110400000Y-29187500D01*
G75*
G02*
X110462500Y-29125000I62500J0D01*
G01*
X111012500Y-29125000D01*
G75*
G02*
X111075000Y-29187500I0J-62500D01*
G01*
X111075000Y-29312500D01*
G75*
G02*
X111012500Y-29375000I-62500J0D01*
G01*
G37*
G36*
G01*
X111012500Y-29875000D02*
X110462500Y-29875000D01*
G75*
G02*
X110400000Y-29812500I0J62500D01*
G01*
X110400000Y-29687500D01*
G75*
G02*
X110462500Y-29625000I62500J0D01*
G01*
X111012500Y-29625000D01*
G75*
G02*
X111075000Y-29687500I0J-62500D01*
G01*
X111075000Y-29812500D01*
G75*
G02*
X111012500Y-29875000I-62500J0D01*
G01*
G37*
G36*
G01*
X111012500Y-30375000D02*
X110462500Y-30375000D01*
G75*
G02*
X110400000Y-30312500I0J62500D01*
G01*
X110400000Y-30187500D01*
G75*
G02*
X110462500Y-30125000I62500J0D01*
G01*
X111012500Y-30125000D01*
G75*
G02*
X111075000Y-30187500I0J-62500D01*
G01*
X111075000Y-30312500D01*
G75*
G02*
X111012500Y-30375000I-62500J0D01*
G01*
G37*
G36*
G01*
X111012500Y-30875000D02*
X110462500Y-30875000D01*
G75*
G02*
X110400000Y-30812500I0J62500D01*
G01*
X110400000Y-30687500D01*
G75*
G02*
X110462500Y-30625000I62500J0D01*
G01*
X111012500Y-30625000D01*
G75*
G02*
X111075000Y-30687500I0J-62500D01*
G01*
X111075000Y-30812500D01*
G75*
G02*
X111012500Y-30875000I-62500J0D01*
G01*
G37*
D24*
X112000000Y-30000000D03*
D22*
X105670000Y-33350000D03*
X105670000Y-32550000D03*
X105670000Y-27750000D03*
X105670000Y-26950000D03*
X105670000Y-26650000D03*
X105670000Y-27450000D03*
X105670000Y-28250000D03*
X105670000Y-28750000D03*
X105670000Y-29250000D03*
X105670000Y-29750000D03*
X105670000Y-30250000D03*
X105670000Y-30750000D03*
X105670000Y-31250000D03*
X105670000Y-31750000D03*
X105670000Y-32250000D03*
X105670000Y-33050000D03*
D21*
X104605000Y-27110000D03*
X104605000Y-32890000D03*
D20*
X100925000Y-34320000D03*
X100925000Y-25680000D03*
D19*
X105105000Y-34320000D03*
X105105000Y-25680000D03*
D18*
X182100000Y-44000000D03*
X182100000Y-43050000D03*
X182100000Y-44950000D03*
X179900000Y-44950000D03*
X179900000Y-44000000D03*
X179900000Y-43050000D03*
X110900000Y-42000000D03*
X110900000Y-42950000D03*
X110900000Y-41050000D03*
X113100000Y-41050000D03*
X113100000Y-42000000D03*
X113100000Y-42950000D03*
D25*
X116650000Y-42000000D03*
X121350000Y-42000000D03*
D26*
X143275000Y-41425000D03*
X143275000Y-40575000D03*
X144725000Y-40575000D03*
X144725000Y-41425000D03*
D27*
X155810000Y-41984000D03*
X155810000Y-44016000D03*
X148190000Y-43000000D03*
D28*
X149460000Y-43635000D03*
X150730000Y-43635000D03*
X152000000Y-43635000D03*
X153270000Y-43635000D03*
X154540000Y-43635000D03*
X154540000Y-42365000D03*
X153270000Y-42365000D03*
X152000000Y-42365000D03*
X150730000Y-42365000D03*
X149460000Y-42365000D03*
D29*
X148190000Y-40460000D03*
X148190000Y-45540000D03*
X153905000Y-45540000D03*
X153905000Y-40460000D03*
D18*
X116900000Y-32050000D03*
X116900000Y-33000000D03*
X116900000Y-33950000D03*
X119100000Y-33950000D03*
X119100000Y-32050000D03*
X119100000Y-26050000D03*
X119100000Y-27950000D03*
X116900000Y-27950000D03*
X116900000Y-27000000D03*
X116900000Y-26050000D03*
D30*
X149400000Y-28350000D03*
X149400000Y-35650000D03*
D31*
X146150000Y-33750000D03*
X146150000Y-33250000D03*
X146150000Y-32750000D03*
X146150000Y-32250000D03*
X146150000Y-31750000D03*
X146150000Y-31250000D03*
X146150000Y-30750000D03*
X146150000Y-30250000D03*
G36*
G01*
X129700000Y-45800000D02*
X129700000Y-44200000D01*
G75*
G02*
X129900000Y-44000000I200000J0D01*
G01*
X130300000Y-44000000D01*
G75*
G02*
X130500000Y-44200000I0J-200000D01*
G01*
X130500000Y-45800000D01*
G75*
G02*
X130300000Y-46000000I-200000J0D01*
G01*
X129900000Y-46000000D01*
G75*
G02*
X129700000Y-45800000I0J200000D01*
G01*
G37*
G36*
G01*
X125500000Y-45800000D02*
X125500000Y-44200000D01*
G75*
G02*
X125700000Y-44000000I200000J0D01*
G01*
X126100000Y-44000000D01*
G75*
G02*
X126300000Y-44200000I0J-200000D01*
G01*
X126300000Y-45800000D01*
G75*
G02*
X126100000Y-46000000I-200000J0D01*
G01*
X125700000Y-46000000D01*
G75*
G02*
X125500000Y-45800000I0J200000D01*
G01*
G37*
G36*
G01*
X132500000Y-45800000D02*
X132500000Y-44200000D01*
G75*
G02*
X132700000Y-44000000I200000J0D01*
G01*
X133100000Y-44000000D01*
G75*
G02*
X133300000Y-44200000I0J-200000D01*
G01*
X133300000Y-45800000D01*
G75*
G02*
X133100000Y-46000000I-200000J0D01*
G01*
X132700000Y-46000000D01*
G75*
G02*
X132500000Y-45800000I0J200000D01*
G01*
G37*
G36*
G01*
X136700000Y-45800000D02*
X136700000Y-44200000D01*
G75*
G02*
X136900000Y-44000000I200000J0D01*
G01*
X137300000Y-44000000D01*
G75*
G02*
X137500000Y-44200000I0J-200000D01*
G01*
X137500000Y-45800000D01*
G75*
G02*
X137300000Y-46000000I-200000J0D01*
G01*
X136900000Y-46000000D01*
G75*
G02*
X136700000Y-45800000I0J200000D01*
G01*
G37*
G36*
G01*
X142300000Y-44200000D02*
X142300000Y-45800000D01*
G75*
G02*
X142100000Y-46000000I-200000J0D01*
G01*
X141700000Y-46000000D01*
G75*
G02*
X141500000Y-45800000I0J200000D01*
G01*
X141500000Y-44200000D01*
G75*
G02*
X141700000Y-44000000I200000J0D01*
G01*
X142100000Y-44000000D01*
G75*
G02*
X142300000Y-44200000I0J-200000D01*
G01*
G37*
G36*
G01*
X146500000Y-44200000D02*
X146500000Y-45800000D01*
G75*
G02*
X146300000Y-46000000I-200000J0D01*
G01*
X145900000Y-46000000D01*
G75*
G02*
X145700000Y-45800000I0J200000D01*
G01*
X145700000Y-44200000D01*
G75*
G02*
X145900000Y-44000000I200000J0D01*
G01*
X146300000Y-44000000D01*
G75*
G02*
X146500000Y-44200000I0J-200000D01*
G01*
G37*
D32*
X102000000Y-36000000D03*
X222000000Y-28000000D03*
X222000000Y-44000000D03*
M02*
