M48
; DRILL file {KiCad (5.1.10)-1} date 11/24/21 11:05:38
; FORMAT={-:-/ absolute / inch / decimal}
; #@! TF.CreationDate,2021-11-24T11:05:38-08:00
; #@! TF.GenerationSoftware,Kicad,Pcbnew,(5.1.10)-1
FMAT,2
INCH
T1C0.0118
T2C0.0236
T3C0.0315
T4C0.0630
T5C0.0256
T6C0.0390
T7C0.0454
T8C0.0935
%
G90
G05
T1
X4.0551Y-1.6535
X4.2126Y-1.6142
X4.2126Y-1.6929
X4.3307Y-1.5748
X4.3307Y-1.6535
X4.3307Y-1.7323
X4.3701Y-1.3386
X4.4094Y-1.0827
X4.4882Y-1.2205
X4.4882Y-1.378
X4.4882Y-1.8504
X4.5272Y-1.1417
X4.5272Y-1.1811
X4.5276Y-1.7717
X4.5665Y-1.378
X4.6063Y-1.1417
X4.6063Y-1.378
X4.6457Y-1.063
X4.6457Y-1.2992
X4.7244Y-1.2598
X4.7441Y-1.0433
X4.8031Y-1.1417
X4.8031Y-1.378
X4.8819Y-1.1024
X5.0Y-1.7717
X5.0197Y-1.2205
X5.0394Y-1.4173
X5.0571Y-1.061
X5.0591Y-1.2205
X5.0591Y-1.1024
X5.0787Y-1.4173
X5.0984Y-1.2205
X5.2756Y-1.2598
X5.2756Y-1.2992
X5.2756Y-1.3386
X5.2756Y-1.7717
X5.315Y-1.5354
X5.3543Y-1.1417
X5.3543Y-1.5354
X5.4331Y-1.1811
X5.4331Y-1.2205
X5.4331Y-1.2598
X5.4331Y-1.2992
X5.4724Y-1.7717
X5.5512Y-1.437
X5.5512Y-1.5748
X5.5906Y-1.437
X5.5906Y-1.5748
X5.5906Y-1.6142
X5.5906Y-1.6535
X5.6299Y-1.3976
X5.6299Y-1.437
X5.6693Y-1.3583
X5.6693Y-1.3976
X5.7087Y-1.7717
X5.748Y-1.5748
X5.748Y-1.6142
X5.748Y-1.6535
X5.8268Y-1.2008
X5.8268Y-1.3189
X5.8843Y-1.6679
X5.8843Y-1.7179
X5.9055Y-1.3189
X5.9343Y-1.6679
X5.9449Y-1.2205
X5.9449Y-1.2598
X5.9646Y-1.378
X5.9646Y-1.4173
X5.9843Y-1.6679
X5.9843Y-1.7179
X6.0039Y-1.4173
X6.0433Y-1.4173
X6.0827Y-1.4173
X6.0843Y-1.6679
X6.0843Y-1.7179
X6.0925Y-1.2795
X6.1024Y-1.5354
X6.1417Y-1.3386
X6.1417Y-1.4961
X6.1811Y-1.1417
X6.1811Y-1.1811
X6.1811Y-1.4567
X6.1811Y-1.4961
X6.1811Y-1.7717
X6.1811Y-1.811
X6.2205Y-1.2697
X6.2205Y-1.5354
X6.3386Y-1.063
X6.3386Y-1.1417
X6.3386Y-1.378
X6.3386Y-1.4567
X6.3386Y-1.6929
X6.3386Y-1.7717
X6.378Y-1.1811
X6.378Y-1.4961
X6.378Y-1.811
X6.4567Y-1.574
X6.4961Y-1.1811
X6.4961Y-1.2205
X6.4961Y-1.2598
X6.4961Y-1.2992
X6.4961Y-1.4961
X6.4961Y-1.5354
X6.4961Y-1.811
X6.5748Y-1.3386
X6.5748Y-1.378
X6.5748Y-1.4567
X6.5748Y-1.6535
X6.5748Y-1.6929
X6.5748Y-1.7717
X6.7323Y-1.3583
X6.7323Y-1.4764
X6.7323Y-1.6732
X6.7323Y-1.7913
X6.7717Y-1.4961
X6.7717Y-1.811
X6.8504Y-1.2598
X6.8701Y-1.1024
X6.8898Y-1.5748
X6.9291Y-1.0236
X6.9685Y-1.6732
X7.0079Y-1.1811
X7.0079Y-1.378
X7.0079Y-1.5748
X7.0079Y-1.7717
X7.0472Y-1.2205
X7.0472Y-1.4173
X7.0827Y-1.063
X7.0827Y-1.2598
X7.0866Y-1.4567
X7.126Y-1.0827
X7.126Y-1.2008
X7.126Y-1.2795
X7.126Y-1.3976
X7.126Y-1.4764
X7.126Y-1.5945
X7.126Y-1.6732
X7.126Y-1.7913
X7.2047Y-1.2008
X7.2047Y-1.3976
X7.2047Y-1.5945
X7.2047Y-1.6535
X7.3228Y-1.1024
X7.3228Y-1.2205
X7.3228Y-1.5354
X7.325Y-1.3768
X7.3819Y-1.6929
X7.3819Y-1.7717
X7.4409Y-1.063
X7.4409Y-1.378
X7.4606Y-1.1417
X7.4606Y-1.4567
X7.4803Y-1.6732
X7.4803Y-1.7913
X7.5Y-1.1417
X7.5Y-1.4567
X7.5197Y-1.063
X7.5197Y-1.378
X7.5787Y-1.7717
X7.5807Y-1.6949
X7.7165Y-1.7323
X7.8346Y-1.0433
X7.8346Y-1.1614
X7.8346Y-1.3583
X7.8346Y-1.4764
X7.8937Y-1.7323
X7.8937Y-1.7717
X7.9134Y-1.6535
X7.9134Y-1.811
X8.1102Y-1.4173
X8.1102Y-1.6535
X8.1102Y-1.811
X8.4252Y-1.0236
X8.4252Y-1.1811
X8.4252Y-1.4173
T3
X4.2126Y-1.0236
X4.2126Y-1.3386
X4.2126Y-1.4961
X4.2126Y-1.811
X4.252Y-1.063
X4.252Y-1.2992
X4.4882Y-1.5748
X4.4882Y-1.7323
X4.8819Y-1.2205
X4.8819Y-1.378
X4.8819Y-1.6142
X4.8819Y-1.6929
X4.8819Y-1.7717
X8.0709Y-1.063
X8.0709Y-1.1417
X8.1102Y-1.0236
X8.1102Y-1.1811
X8.4252Y-1.6535
X8.4252Y-1.811
X8.4646Y-1.6929
X8.4646Y-1.7717
T4
X8.6189Y-1.0236
X8.6189Y-1.2236
X8.6189Y-1.611
X8.6189Y-1.811
X8.8189Y-1.0236
X8.8189Y-1.2236
X8.8189Y-1.611
X8.8189Y-1.811
T5
X4.1183Y-1.0673
X4.1183Y-1.2949
X4.1183Y-1.5398
X4.1183Y-1.7673
T6
X5.8343Y-1.6929
X6.1343Y-1.6529
X6.1343Y-1.7329
T7
X4.0157Y-1.4173
X8.7402Y-1.1024
X8.7402Y-1.7323
T8
X5.8343Y-1.5929
X5.8343Y-1.7929
X6.0593Y-1.5929
X6.0593Y-1.7929
T2
G00X3.9852Y-1.011
M15
G01X3.9616Y-1.011
M16
G05
G00X3.9852Y-1.3512
M15
G01X3.9616Y-1.3512
M16
G05
G00X3.9852Y-1.4835
M15
G01X3.9616Y-1.4835
M16
G05
G00X3.9852Y-1.8236
M15
G01X3.9616Y-1.8236
M16
G05
G00X4.1596Y-1.011
M15
G01X4.1163Y-1.011
M16
G05
G00X4.1596Y-1.3512
M15
G01X4.1163Y-1.3512
M16
G05
G00X4.1596Y-1.4835
M15
G01X4.1163Y-1.4835
M16
G05
G00X4.1596Y-1.8236
M15
G01X4.1163Y-1.8236
M16
G05
T0
M30
