G04 #@! TF.GenerationSoftware,KiCad,Pcbnew,(5.1.10)-1*
G04 #@! TF.CreationDate,2021-11-24T09:21:36-08:00*
G04 #@! TF.ProjectId,UsbSourceMeasureTest,55736253-6f75-4726-9365-4d6561737572,rev?*
G04 #@! TF.SameCoordinates,Original*
G04 #@! TF.FileFunction,Legend,Bot*
G04 #@! TF.FilePolarity,Positive*
%FSLAX46Y46*%
G04 Gerber Fmt 4.6, Leading zero omitted, Abs format (unit mm)*
G04 Created by KiCad (PCBNEW (5.1.10)-1) date 2021-11-24 09:21:36*
%MOMM*%
%LPD*%
G01*
G04 APERTURE LIST*
%ADD10C,0.120000*%
%ADD11C,0.100000*%
%ADD12C,0.150000*%
G04 APERTURE END LIST*
D10*
X129837221Y-28490000D02*
X130162779Y-28490000D01*
X129837221Y-29510000D02*
X130162779Y-29510000D01*
X129837221Y-27510000D02*
X130162779Y-27510000D01*
X129837221Y-26490000D02*
X130162779Y-26490000D01*
X127575000Y-29900000D02*
X124425000Y-29900000D01*
X124425000Y-29900000D02*
X124425000Y-26100000D01*
X104240000Y-43580000D02*
X104240000Y-42650000D01*
X104240000Y-40420000D02*
X104240000Y-41350000D01*
X104240000Y-40420000D02*
X106400000Y-40420000D01*
X104240000Y-43580000D02*
X105700000Y-43580000D01*
X131837221Y-31510000D02*
X132162779Y-31510000D01*
X131837221Y-30490000D02*
X132162779Y-30490000D01*
X135837221Y-26490000D02*
X136162779Y-26490000D01*
X135837221Y-27510000D02*
X136162779Y-27510000D01*
X131837221Y-33510000D02*
X132162779Y-33510000D01*
X131837221Y-32490000D02*
X132162779Y-32490000D01*
X170490000Y-44140580D02*
X170490000Y-43859420D01*
X171510000Y-44140580D02*
X171510000Y-43859420D01*
X171510000Y-36140580D02*
X171510000Y-35859420D01*
X170490000Y-36140580D02*
X170490000Y-35859420D01*
X201490000Y-43859420D02*
X201490000Y-44140580D01*
X202510000Y-43859420D02*
X202510000Y-44140580D01*
X199237258Y-43522500D02*
X198762742Y-43522500D01*
X199237258Y-42477500D02*
X198762742Y-42477500D01*
X198762742Y-45522500D02*
X199237258Y-45522500D01*
X198762742Y-44477500D02*
X199237258Y-44477500D01*
X198477500Y-28237258D02*
X198477500Y-27762742D01*
X199522500Y-28237258D02*
X199522500Y-27762742D01*
X210522500Y-28237258D02*
X210522500Y-27762742D01*
X209477500Y-28237258D02*
X209477500Y-27762742D01*
X199522500Y-36237258D02*
X199522500Y-35762742D01*
X198477500Y-36237258D02*
X198477500Y-35762742D01*
X209477500Y-43762742D02*
X209477500Y-44237258D01*
X210522500Y-43762742D02*
X210522500Y-44237258D01*
X180490000Y-38859420D02*
X180490000Y-39140580D01*
X181510000Y-38859420D02*
X181510000Y-39140580D01*
X184000000Y-36750000D02*
X186000000Y-36750000D01*
X186000000Y-36750000D02*
X186000000Y-40650000D01*
X184000000Y-36750000D02*
X184000000Y-40650000D01*
X179522500Y-38762742D02*
X179522500Y-39237258D01*
X178477500Y-38762742D02*
X178477500Y-39237258D01*
X182477500Y-38762742D02*
X182477500Y-39237258D01*
X183522500Y-38762742D02*
X183522500Y-39237258D01*
X176477500Y-38762742D02*
X176477500Y-39237258D01*
X177522500Y-38762742D02*
X177522500Y-39237258D01*
X181510000Y-33859420D02*
X181510000Y-34140580D01*
X180490000Y-33859420D02*
X180490000Y-34140580D01*
X186000000Y-36250000D02*
X186000000Y-32350000D01*
X184000000Y-36250000D02*
X184000000Y-32350000D01*
X186000000Y-36250000D02*
X184000000Y-36250000D01*
X178477500Y-33762742D02*
X178477500Y-34237258D01*
X179522500Y-33762742D02*
X179522500Y-34237258D01*
X183522500Y-33762742D02*
X183522500Y-34237258D01*
X182477500Y-33762742D02*
X182477500Y-34237258D01*
X177522500Y-33762742D02*
X177522500Y-34237258D01*
X176477500Y-33762742D02*
X176477500Y-34237258D01*
X180490000Y-28859420D02*
X180490000Y-29140580D01*
X181510000Y-28859420D02*
X181510000Y-29140580D01*
X178477500Y-28762742D02*
X178477500Y-29237258D01*
X179522500Y-28762742D02*
X179522500Y-29237258D01*
X183522500Y-28762742D02*
X183522500Y-29237258D01*
X182477500Y-28762742D02*
X182477500Y-29237258D01*
X177522500Y-28762742D02*
X177522500Y-29237258D01*
X176477500Y-28762742D02*
X176477500Y-29237258D01*
X189859420Y-33490000D02*
X190140580Y-33490000D01*
X189859420Y-34510000D02*
X190140580Y-34510000D01*
X192237258Y-36522500D02*
X191762742Y-36522500D01*
X192237258Y-35477500D02*
X191762742Y-35477500D01*
X192237258Y-37477500D02*
X191762742Y-37477500D01*
X192237258Y-38522500D02*
X191762742Y-38522500D01*
X187762742Y-35477500D02*
X188237258Y-35477500D01*
X187762742Y-36522500D02*
X188237258Y-36522500D01*
X187762742Y-38522500D02*
X188237258Y-38522500D01*
X187762742Y-37477500D02*
X188237258Y-37477500D01*
X190510000Y-44140580D02*
X190510000Y-43859420D01*
X189490000Y-44140580D02*
X189490000Y-43859420D01*
X189022500Y-44237258D02*
X189022500Y-43762742D01*
X187977500Y-44237258D02*
X187977500Y-43762742D01*
X189859420Y-26510000D02*
X190140580Y-26510000D01*
X189859420Y-25490000D02*
X190140580Y-25490000D01*
X192237258Y-27477500D02*
X191762742Y-27477500D01*
X192237258Y-28522500D02*
X191762742Y-28522500D01*
X192237258Y-30522500D02*
X191762742Y-30522500D01*
X192237258Y-29477500D02*
X191762742Y-29477500D01*
X187762742Y-27477500D02*
X188237258Y-27477500D01*
X187762742Y-28522500D02*
X188237258Y-28522500D01*
X187762742Y-29477500D02*
X188237258Y-29477500D01*
X187762742Y-30522500D02*
X188237258Y-30522500D01*
X162510000Y-43859420D02*
X162510000Y-44140580D01*
X161490000Y-43859420D02*
X161490000Y-44140580D01*
X159265000Y-43738748D02*
X159265000Y-44261252D01*
X160735000Y-43738748D02*
X160735000Y-44261252D01*
X162510000Y-35859420D02*
X162510000Y-36140580D01*
X161490000Y-35859420D02*
X161490000Y-36140580D01*
X160735000Y-35738748D02*
X160735000Y-36261252D01*
X159265000Y-35738748D02*
X159265000Y-36261252D01*
X161490000Y-27859420D02*
X161490000Y-28140580D01*
X162510000Y-27859420D02*
X162510000Y-28140580D01*
X160735000Y-27738748D02*
X160735000Y-28261252D01*
X159265000Y-27738748D02*
X159265000Y-28261252D01*
X111762742Y-32477500D02*
X112237258Y-32477500D01*
X111762742Y-33522500D02*
X112237258Y-33522500D01*
X111762742Y-34477500D02*
X112237258Y-34477500D01*
X111762742Y-35522500D02*
X112237258Y-35522500D01*
X122522500Y-33237258D02*
X122522500Y-32762742D01*
X121477500Y-33237258D02*
X121477500Y-32762742D01*
X122522500Y-27237258D02*
X122522500Y-26762742D01*
X121477500Y-27237258D02*
X121477500Y-26762742D01*
X137859420Y-29510000D02*
X138140580Y-29510000D01*
X137859420Y-28490000D02*
X138140580Y-28490000D01*
X135859420Y-36490000D02*
X136140580Y-36490000D01*
X135859420Y-37510000D02*
X136140580Y-37510000D01*
X133859420Y-35510000D02*
X134140580Y-35510000D01*
X133859420Y-34490000D02*
X134140580Y-34490000D01*
X139859420Y-31510000D02*
X140140580Y-31510000D01*
X139859420Y-30490000D02*
X140140580Y-30490000D01*
X136261252Y-30265000D02*
X135738748Y-30265000D01*
X136261252Y-31735000D02*
X135738748Y-31735000D01*
X126522500Y-33237258D02*
X126522500Y-32762742D01*
X125477500Y-33237258D02*
X125477500Y-32762742D01*
X133477500Y-41237258D02*
X133477500Y-40762742D01*
X134522500Y-41237258D02*
X134522500Y-40762742D01*
X136522500Y-41237258D02*
X136522500Y-40762742D01*
X135477500Y-41237258D02*
X135477500Y-40762742D01*
X134140580Y-29510000D02*
X133859420Y-29510000D01*
X134140580Y-28490000D02*
X133859420Y-28490000D01*
X139859420Y-32490000D02*
X140140580Y-32490000D01*
X139859420Y-33510000D02*
X140140580Y-33510000D01*
X137859420Y-34490000D02*
X138140580Y-34490000D01*
X137859420Y-35510000D02*
X138140580Y-35510000D01*
X136261252Y-32265000D02*
X135738748Y-32265000D01*
X136261252Y-33735000D02*
X135738748Y-33735000D01*
X112140580Y-31510000D02*
X111859420Y-31510000D01*
X112140580Y-30490000D02*
X111859420Y-30490000D01*
X112261252Y-28265000D02*
X111738748Y-28265000D01*
X112261252Y-29735000D02*
X111738748Y-29735000D01*
X124850000Y-34500000D02*
X123150000Y-34500000D01*
X123150000Y-34500000D02*
X123150000Y-31950000D01*
X124850000Y-34500000D02*
X124850000Y-31950000D01*
X180490000Y-43859420D02*
X180490000Y-44140580D01*
X181510000Y-43859420D02*
X181510000Y-44140580D01*
X177522500Y-44237258D02*
X177522500Y-43762742D01*
X176477500Y-44237258D02*
X176477500Y-43762742D01*
X178477500Y-43762742D02*
X178477500Y-44237258D01*
X179522500Y-43762742D02*
X179522500Y-44237258D01*
X111859420Y-45510000D02*
X112140580Y-45510000D01*
X111859420Y-44490000D02*
X112140580Y-44490000D01*
X112237258Y-47522500D02*
X111762742Y-47522500D01*
X112237258Y-46477500D02*
X111762742Y-46477500D01*
X112237258Y-38477500D02*
X111762742Y-38477500D01*
X112237258Y-39522500D02*
X111762742Y-39522500D01*
X113510000Y-41859420D02*
X113510000Y-42140580D01*
X112490000Y-41859420D02*
X112490000Y-42140580D01*
X122735000Y-41738748D02*
X122735000Y-42261252D01*
X121265000Y-41738748D02*
X121265000Y-42261252D01*
X117510000Y-33140580D02*
X117510000Y-32859420D01*
X116490000Y-33140580D02*
X116490000Y-32859420D01*
X116490000Y-27140580D02*
X116490000Y-26859420D01*
X117510000Y-27140580D02*
X117510000Y-26859420D01*
X144237258Y-43522500D02*
X143762742Y-43522500D01*
X144237258Y-42477500D02*
X143762742Y-42477500D01*
X144237258Y-41522500D02*
X143762742Y-41522500D01*
X144237258Y-40477500D02*
X143762742Y-40477500D01*
X144237258Y-39522500D02*
X143762742Y-39522500D01*
X144237258Y-38477500D02*
X143762742Y-38477500D01*
X118490000Y-32859420D02*
X118490000Y-33140580D01*
X119510000Y-32859420D02*
X119510000Y-33140580D01*
X150510000Y-31837221D02*
X150510000Y-32162779D01*
X149490000Y-31837221D02*
X149490000Y-32162779D01*
X148510000Y-31837221D02*
X148510000Y-32162779D01*
X147490000Y-31837221D02*
X147490000Y-32162779D01*
X116910000Y-41397936D02*
X116910000Y-42602064D01*
X115090000Y-41397936D02*
X115090000Y-42602064D01*
X118090000Y-41397936D02*
X118090000Y-42602064D01*
X119910000Y-41397936D02*
X119910000Y-42602064D01*
X119910000Y-26397936D02*
X119910000Y-27602064D01*
X118090000Y-26397936D02*
X118090000Y-27602064D01*
X111837221Y-36490000D02*
X112162779Y-36490000D01*
X111837221Y-37510000D02*
X112162779Y-37510000D01*
X192010000Y-44140580D02*
X192010000Y-43859420D01*
X190990000Y-44140580D02*
X190990000Y-43859420D01*
D11*
X130385714Y-30285714D02*
X130414285Y-30323809D01*
X130500000Y-30361904D01*
X130557142Y-30361904D01*
X130642857Y-30323809D01*
X130700000Y-30247619D01*
X130728571Y-30171428D01*
X130757142Y-30019047D01*
X130757142Y-29904761D01*
X130728571Y-29752380D01*
X130700000Y-29676190D01*
X130642857Y-29600000D01*
X130557142Y-29561904D01*
X130500000Y-29561904D01*
X130414285Y-29600000D01*
X130385714Y-29638095D01*
X129842857Y-29561904D02*
X130128571Y-29561904D01*
X130157142Y-29942857D01*
X130128571Y-29904761D01*
X130071428Y-29866666D01*
X129928571Y-29866666D01*
X129871428Y-29904761D01*
X129842857Y-29942857D01*
X129814285Y-30019047D01*
X129814285Y-30209523D01*
X129842857Y-30285714D01*
X129871428Y-30323809D01*
X129928571Y-30361904D01*
X130071428Y-30361904D01*
X130128571Y-30323809D01*
X130157142Y-30285714D01*
X129585714Y-29638095D02*
X129557142Y-29600000D01*
X129500000Y-29561904D01*
X129357142Y-29561904D01*
X129300000Y-29600000D01*
X129271428Y-29638095D01*
X129242857Y-29714285D01*
X129242857Y-29790476D01*
X129271428Y-29904761D01*
X129614285Y-30361904D01*
X129242857Y-30361904D01*
X130385714Y-26285714D02*
X130414285Y-26323809D01*
X130500000Y-26361904D01*
X130557142Y-26361904D01*
X130642857Y-26323809D01*
X130700000Y-26247619D01*
X130728571Y-26171428D01*
X130757142Y-26019047D01*
X130757142Y-25904761D01*
X130728571Y-25752380D01*
X130700000Y-25676190D01*
X130642857Y-25600000D01*
X130557142Y-25561904D01*
X130500000Y-25561904D01*
X130414285Y-25600000D01*
X130385714Y-25638095D01*
X129842857Y-25561904D02*
X130128571Y-25561904D01*
X130157142Y-25942857D01*
X130128571Y-25904761D01*
X130071428Y-25866666D01*
X129928571Y-25866666D01*
X129871428Y-25904761D01*
X129842857Y-25942857D01*
X129814285Y-26019047D01*
X129814285Y-26209523D01*
X129842857Y-26285714D01*
X129871428Y-26323809D01*
X129928571Y-26361904D01*
X130071428Y-26361904D01*
X130128571Y-26323809D01*
X130157142Y-26285714D01*
X129614285Y-25561904D02*
X129242857Y-25561904D01*
X129442857Y-25866666D01*
X129357142Y-25866666D01*
X129300000Y-25904761D01*
X129271428Y-25942857D01*
X129242857Y-26019047D01*
X129242857Y-26209523D01*
X129271428Y-26285714D01*
X129300000Y-26323809D01*
X129357142Y-26361904D01*
X129528571Y-26361904D01*
X129585714Y-26323809D01*
X129614285Y-26285714D01*
X126485714Y-25061904D02*
X126085714Y-25861904D01*
X126085714Y-25061904D02*
X126485714Y-25861904D01*
X125542857Y-25861904D02*
X125885714Y-25861904D01*
X125714285Y-25861904D02*
X125714285Y-25061904D01*
X125771428Y-25176190D01*
X125828571Y-25252380D01*
X125885714Y-25290476D01*
X105742857Y-39061904D02*
X105742857Y-39709523D01*
X105714285Y-39785714D01*
X105685714Y-39823809D01*
X105628571Y-39861904D01*
X105514285Y-39861904D01*
X105457142Y-39823809D01*
X105428571Y-39785714D01*
X105400000Y-39709523D01*
X105400000Y-39061904D01*
X105142857Y-39138095D02*
X105114285Y-39100000D01*
X105057142Y-39061904D01*
X104914285Y-39061904D01*
X104857142Y-39100000D01*
X104828571Y-39138095D01*
X104800000Y-39214285D01*
X104800000Y-39290476D01*
X104828571Y-39404761D01*
X105171428Y-39861904D01*
X104800000Y-39861904D01*
X104285714Y-39328571D02*
X104285714Y-39861904D01*
X104428571Y-39023809D02*
X104571428Y-39595238D01*
X104200000Y-39595238D01*
X132385714Y-30285714D02*
X132414285Y-30323809D01*
X132500000Y-30361904D01*
X132557142Y-30361904D01*
X132642857Y-30323809D01*
X132700000Y-30247619D01*
X132728571Y-30171428D01*
X132757142Y-30019047D01*
X132757142Y-29904761D01*
X132728571Y-29752380D01*
X132700000Y-29676190D01*
X132642857Y-29600000D01*
X132557142Y-29561904D01*
X132500000Y-29561904D01*
X132414285Y-29600000D01*
X132385714Y-29638095D01*
X131871428Y-29828571D02*
X131871428Y-30361904D01*
X132014285Y-29523809D02*
X132157142Y-30095238D01*
X131785714Y-30095238D01*
X131585714Y-29638095D02*
X131557142Y-29600000D01*
X131500000Y-29561904D01*
X131357142Y-29561904D01*
X131300000Y-29600000D01*
X131271428Y-29638095D01*
X131242857Y-29714285D01*
X131242857Y-29790476D01*
X131271428Y-29904761D01*
X131614285Y-30361904D01*
X131242857Y-30361904D01*
X136385714Y-28285714D02*
X136414285Y-28323809D01*
X136500000Y-28361904D01*
X136557142Y-28361904D01*
X136642857Y-28323809D01*
X136700000Y-28247619D01*
X136728571Y-28171428D01*
X136757142Y-28019047D01*
X136757142Y-27904761D01*
X136728571Y-27752380D01*
X136700000Y-27676190D01*
X136642857Y-27600000D01*
X136557142Y-27561904D01*
X136500000Y-27561904D01*
X136414285Y-27600000D01*
X136385714Y-27638095D01*
X135871428Y-27828571D02*
X135871428Y-28361904D01*
X136014285Y-27523809D02*
X136157142Y-28095238D01*
X135785714Y-28095238D01*
X135242857Y-28361904D02*
X135585714Y-28361904D01*
X135414285Y-28361904D02*
X135414285Y-27561904D01*
X135471428Y-27676190D01*
X135528571Y-27752380D01*
X135585714Y-27790476D01*
X132385714Y-34285714D02*
X132414285Y-34323809D01*
X132500000Y-34361904D01*
X132557142Y-34361904D01*
X132642857Y-34323809D01*
X132700000Y-34247619D01*
X132728571Y-34171428D01*
X132757142Y-34019047D01*
X132757142Y-33904761D01*
X132728571Y-33752380D01*
X132700000Y-33676190D01*
X132642857Y-33600000D01*
X132557142Y-33561904D01*
X132500000Y-33561904D01*
X132414285Y-33600000D01*
X132385714Y-33638095D01*
X131871428Y-33828571D02*
X131871428Y-34361904D01*
X132014285Y-33523809D02*
X132157142Y-34095238D01*
X131785714Y-34095238D01*
X131614285Y-33561904D02*
X131242857Y-33561904D01*
X131442857Y-33866666D01*
X131357142Y-33866666D01*
X131300000Y-33904761D01*
X131271428Y-33942857D01*
X131242857Y-34019047D01*
X131242857Y-34209523D01*
X131271428Y-34285714D01*
X131300000Y-34323809D01*
X131357142Y-34361904D01*
X131528571Y-34361904D01*
X131585714Y-34323809D01*
X131614285Y-34285714D01*
X171385714Y-42285714D02*
X171414285Y-42323809D01*
X171500000Y-42361904D01*
X171557142Y-42361904D01*
X171642857Y-42323809D01*
X171700000Y-42247619D01*
X171728571Y-42171428D01*
X171757142Y-42019047D01*
X171757142Y-41904761D01*
X171728571Y-41752380D01*
X171700000Y-41676190D01*
X171642857Y-41600000D01*
X171557142Y-41561904D01*
X171500000Y-41561904D01*
X171414285Y-41600000D01*
X171385714Y-41638095D01*
X170871428Y-41561904D02*
X170985714Y-41561904D01*
X171042857Y-41600000D01*
X171071428Y-41638095D01*
X171128571Y-41752380D01*
X171157142Y-41904761D01*
X171157142Y-42209523D01*
X171128571Y-42285714D01*
X171100000Y-42323809D01*
X171042857Y-42361904D01*
X170928571Y-42361904D01*
X170871428Y-42323809D01*
X170842857Y-42285714D01*
X170814285Y-42209523D01*
X170814285Y-42019047D01*
X170842857Y-41942857D01*
X170871428Y-41904761D01*
X170928571Y-41866666D01*
X171042857Y-41866666D01*
X171100000Y-41904761D01*
X171128571Y-41942857D01*
X171157142Y-42019047D01*
X170585714Y-41638095D02*
X170557142Y-41600000D01*
X170500000Y-41561904D01*
X170357142Y-41561904D01*
X170300000Y-41600000D01*
X170271428Y-41638095D01*
X170242857Y-41714285D01*
X170242857Y-41790476D01*
X170271428Y-41904761D01*
X170614285Y-42361904D01*
X170242857Y-42361904D01*
X171385714Y-34285714D02*
X171414285Y-34323809D01*
X171500000Y-34361904D01*
X171557142Y-34361904D01*
X171642857Y-34323809D01*
X171700000Y-34247619D01*
X171728571Y-34171428D01*
X171757142Y-34019047D01*
X171757142Y-33904761D01*
X171728571Y-33752380D01*
X171700000Y-33676190D01*
X171642857Y-33600000D01*
X171557142Y-33561904D01*
X171500000Y-33561904D01*
X171414285Y-33600000D01*
X171385714Y-33638095D01*
X170871428Y-33561904D02*
X170985714Y-33561904D01*
X171042857Y-33600000D01*
X171071428Y-33638095D01*
X171128571Y-33752380D01*
X171157142Y-33904761D01*
X171157142Y-34209523D01*
X171128571Y-34285714D01*
X171100000Y-34323809D01*
X171042857Y-34361904D01*
X170928571Y-34361904D01*
X170871428Y-34323809D01*
X170842857Y-34285714D01*
X170814285Y-34209523D01*
X170814285Y-34019047D01*
X170842857Y-33942857D01*
X170871428Y-33904761D01*
X170928571Y-33866666D01*
X171042857Y-33866666D01*
X171100000Y-33904761D01*
X171128571Y-33942857D01*
X171157142Y-34019047D01*
X170242857Y-34361904D02*
X170585714Y-34361904D01*
X170414285Y-34361904D02*
X170414285Y-33561904D01*
X170471428Y-33676190D01*
X170528571Y-33752380D01*
X170585714Y-33790476D01*
X202385714Y-42285714D02*
X202414285Y-42323809D01*
X202500000Y-42361904D01*
X202557142Y-42361904D01*
X202642857Y-42323809D01*
X202700000Y-42247619D01*
X202728571Y-42171428D01*
X202757142Y-42019047D01*
X202757142Y-41904761D01*
X202728571Y-41752380D01*
X202700000Y-41676190D01*
X202642857Y-41600000D01*
X202557142Y-41561904D01*
X202500000Y-41561904D01*
X202414285Y-41600000D01*
X202385714Y-41638095D01*
X202157142Y-41638095D02*
X202128571Y-41600000D01*
X202071428Y-41561904D01*
X201928571Y-41561904D01*
X201871428Y-41600000D01*
X201842857Y-41638095D01*
X201814285Y-41714285D01*
X201814285Y-41790476D01*
X201842857Y-41904761D01*
X202185714Y-42361904D01*
X201814285Y-42361904D01*
X201242857Y-42361904D02*
X201585714Y-42361904D01*
X201414285Y-42361904D02*
X201414285Y-41561904D01*
X201471428Y-41676190D01*
X201528571Y-41752380D01*
X201585714Y-41790476D01*
X196385714Y-43361904D02*
X196585714Y-42980952D01*
X196728571Y-43361904D02*
X196728571Y-42561904D01*
X196500000Y-42561904D01*
X196442857Y-42600000D01*
X196414285Y-42638095D01*
X196385714Y-42714285D01*
X196385714Y-42828571D01*
X196414285Y-42904761D01*
X196442857Y-42942857D01*
X196500000Y-42980952D01*
X196728571Y-42980952D01*
X196157142Y-42638095D02*
X196128571Y-42600000D01*
X196071428Y-42561904D01*
X195928571Y-42561904D01*
X195871428Y-42600000D01*
X195842857Y-42638095D01*
X195814285Y-42714285D01*
X195814285Y-42790476D01*
X195842857Y-42904761D01*
X196185714Y-43361904D01*
X195814285Y-43361904D01*
X195442857Y-42561904D02*
X195385714Y-42561904D01*
X195328571Y-42600000D01*
X195300000Y-42638095D01*
X195271428Y-42714285D01*
X195242857Y-42866666D01*
X195242857Y-43057142D01*
X195271428Y-43209523D01*
X195300000Y-43285714D01*
X195328571Y-43323809D01*
X195385714Y-43361904D01*
X195442857Y-43361904D01*
X195500000Y-43323809D01*
X195528571Y-43285714D01*
X195557142Y-43209523D01*
X195585714Y-43057142D01*
X195585714Y-42866666D01*
X195557142Y-42714285D01*
X195528571Y-42638095D01*
X195500000Y-42600000D01*
X195442857Y-42561904D01*
X196385714Y-45361904D02*
X196585714Y-44980952D01*
X196728571Y-45361904D02*
X196728571Y-44561904D01*
X196500000Y-44561904D01*
X196442857Y-44600000D01*
X196414285Y-44638095D01*
X196385714Y-44714285D01*
X196385714Y-44828571D01*
X196414285Y-44904761D01*
X196442857Y-44942857D01*
X196500000Y-44980952D01*
X196728571Y-44980952D01*
X196157142Y-44638095D02*
X196128571Y-44600000D01*
X196071428Y-44561904D01*
X195928571Y-44561904D01*
X195871428Y-44600000D01*
X195842857Y-44638095D01*
X195814285Y-44714285D01*
X195814285Y-44790476D01*
X195842857Y-44904761D01*
X196185714Y-45361904D01*
X195814285Y-45361904D01*
X195242857Y-45361904D02*
X195585714Y-45361904D01*
X195414285Y-45361904D02*
X195414285Y-44561904D01*
X195471428Y-44676190D01*
X195528571Y-44752380D01*
X195585714Y-44790476D01*
X199385714Y-26361904D02*
X199585714Y-25980952D01*
X199728571Y-26361904D02*
X199728571Y-25561904D01*
X199500000Y-25561904D01*
X199442857Y-25600000D01*
X199414285Y-25638095D01*
X199385714Y-25714285D01*
X199385714Y-25828571D01*
X199414285Y-25904761D01*
X199442857Y-25942857D01*
X199500000Y-25980952D01*
X199728571Y-25980952D01*
X199157142Y-25638095D02*
X199128571Y-25600000D01*
X199071428Y-25561904D01*
X198928571Y-25561904D01*
X198871428Y-25600000D01*
X198842857Y-25638095D01*
X198814285Y-25714285D01*
X198814285Y-25790476D01*
X198842857Y-25904761D01*
X199185714Y-26361904D01*
X198814285Y-26361904D01*
X198585714Y-25638095D02*
X198557142Y-25600000D01*
X198500000Y-25561904D01*
X198357142Y-25561904D01*
X198300000Y-25600000D01*
X198271428Y-25638095D01*
X198242857Y-25714285D01*
X198242857Y-25790476D01*
X198271428Y-25904761D01*
X198614285Y-26361904D01*
X198242857Y-26361904D01*
X210385714Y-26361904D02*
X210585714Y-25980952D01*
X210728571Y-26361904D02*
X210728571Y-25561904D01*
X210500000Y-25561904D01*
X210442857Y-25600000D01*
X210414285Y-25638095D01*
X210385714Y-25714285D01*
X210385714Y-25828571D01*
X210414285Y-25904761D01*
X210442857Y-25942857D01*
X210500000Y-25980952D01*
X210728571Y-25980952D01*
X210157142Y-25638095D02*
X210128571Y-25600000D01*
X210071428Y-25561904D01*
X209928571Y-25561904D01*
X209871428Y-25600000D01*
X209842857Y-25638095D01*
X209814285Y-25714285D01*
X209814285Y-25790476D01*
X209842857Y-25904761D01*
X210185714Y-26361904D01*
X209814285Y-26361904D01*
X209300000Y-25828571D02*
X209300000Y-26361904D01*
X209442857Y-25523809D02*
X209585714Y-26095238D01*
X209214285Y-26095238D01*
X199385714Y-34361904D02*
X199585714Y-33980952D01*
X199728571Y-34361904D02*
X199728571Y-33561904D01*
X199500000Y-33561904D01*
X199442857Y-33600000D01*
X199414285Y-33638095D01*
X199385714Y-33714285D01*
X199385714Y-33828571D01*
X199414285Y-33904761D01*
X199442857Y-33942857D01*
X199500000Y-33980952D01*
X199728571Y-33980952D01*
X199157142Y-33638095D02*
X199128571Y-33600000D01*
X199071428Y-33561904D01*
X198928571Y-33561904D01*
X198871428Y-33600000D01*
X198842857Y-33638095D01*
X198814285Y-33714285D01*
X198814285Y-33790476D01*
X198842857Y-33904761D01*
X199185714Y-34361904D01*
X198814285Y-34361904D01*
X198614285Y-33561904D02*
X198242857Y-33561904D01*
X198442857Y-33866666D01*
X198357142Y-33866666D01*
X198300000Y-33904761D01*
X198271428Y-33942857D01*
X198242857Y-34019047D01*
X198242857Y-34209523D01*
X198271428Y-34285714D01*
X198300000Y-34323809D01*
X198357142Y-34361904D01*
X198528571Y-34361904D01*
X198585714Y-34323809D01*
X198614285Y-34285714D01*
X210385714Y-42361904D02*
X210585714Y-41980952D01*
X210728571Y-42361904D02*
X210728571Y-41561904D01*
X210500000Y-41561904D01*
X210442857Y-41600000D01*
X210414285Y-41638095D01*
X210385714Y-41714285D01*
X210385714Y-41828571D01*
X210414285Y-41904761D01*
X210442857Y-41942857D01*
X210500000Y-41980952D01*
X210728571Y-41980952D01*
X210157142Y-41638095D02*
X210128571Y-41600000D01*
X210071428Y-41561904D01*
X209928571Y-41561904D01*
X209871428Y-41600000D01*
X209842857Y-41638095D01*
X209814285Y-41714285D01*
X209814285Y-41790476D01*
X209842857Y-41904761D01*
X210185714Y-42361904D01*
X209814285Y-42361904D01*
X209271428Y-41561904D02*
X209557142Y-41561904D01*
X209585714Y-41942857D01*
X209557142Y-41904761D01*
X209500000Y-41866666D01*
X209357142Y-41866666D01*
X209300000Y-41904761D01*
X209271428Y-41942857D01*
X209242857Y-42019047D01*
X209242857Y-42209523D01*
X209271428Y-42285714D01*
X209300000Y-42323809D01*
X209357142Y-42361904D01*
X209500000Y-42361904D01*
X209557142Y-42323809D01*
X209585714Y-42285714D01*
X181385714Y-37285714D02*
X181414285Y-37323809D01*
X181500000Y-37361904D01*
X181557142Y-37361904D01*
X181642857Y-37323809D01*
X181700000Y-37247619D01*
X181728571Y-37171428D01*
X181757142Y-37019047D01*
X181757142Y-36904761D01*
X181728571Y-36752380D01*
X181700000Y-36676190D01*
X181642857Y-36600000D01*
X181557142Y-36561904D01*
X181500000Y-36561904D01*
X181414285Y-36600000D01*
X181385714Y-36638095D01*
X180814285Y-37361904D02*
X181157142Y-37361904D01*
X180985714Y-37361904D02*
X180985714Y-36561904D01*
X181042857Y-36676190D01*
X181100000Y-36752380D01*
X181157142Y-36790476D01*
X180300000Y-36561904D02*
X180414285Y-36561904D01*
X180471428Y-36600000D01*
X180500000Y-36638095D01*
X180557142Y-36752380D01*
X180585714Y-36904761D01*
X180585714Y-37209523D01*
X180557142Y-37285714D01*
X180528571Y-37323809D01*
X180471428Y-37361904D01*
X180357142Y-37361904D01*
X180300000Y-37323809D01*
X180271428Y-37285714D01*
X180242857Y-37209523D01*
X180242857Y-37019047D01*
X180271428Y-36942857D01*
X180300000Y-36904761D01*
X180357142Y-36866666D01*
X180471428Y-36866666D01*
X180528571Y-36904761D01*
X180557142Y-36942857D01*
X180585714Y-37019047D01*
X185442857Y-42361904D02*
X185442857Y-41561904D01*
X185300000Y-41561904D01*
X185214285Y-41600000D01*
X185157142Y-41676190D01*
X185128571Y-41752380D01*
X185100000Y-41904761D01*
X185100000Y-42019047D01*
X185128571Y-42171428D01*
X185157142Y-42247619D01*
X185214285Y-42323809D01*
X185300000Y-42361904D01*
X185442857Y-42361904D01*
X184585714Y-41828571D02*
X184585714Y-42361904D01*
X184728571Y-41523809D02*
X184871428Y-42095238D01*
X184500000Y-42095238D01*
X179385714Y-37361904D02*
X179585714Y-36980952D01*
X179728571Y-37361904D02*
X179728571Y-36561904D01*
X179500000Y-36561904D01*
X179442857Y-36600000D01*
X179414285Y-36638095D01*
X179385714Y-36714285D01*
X179385714Y-36828571D01*
X179414285Y-36904761D01*
X179442857Y-36942857D01*
X179500000Y-36980952D01*
X179728571Y-36980952D01*
X178814285Y-37361904D02*
X179157142Y-37361904D01*
X178985714Y-37361904D02*
X178985714Y-36561904D01*
X179042857Y-36676190D01*
X179100000Y-36752380D01*
X179157142Y-36790476D01*
X178614285Y-36561904D02*
X178214285Y-36561904D01*
X178471428Y-37361904D01*
X183385714Y-37361904D02*
X183585714Y-36980952D01*
X183728571Y-37361904D02*
X183728571Y-36561904D01*
X183500000Y-36561904D01*
X183442857Y-36600000D01*
X183414285Y-36638095D01*
X183385714Y-36714285D01*
X183385714Y-36828571D01*
X183414285Y-36904761D01*
X183442857Y-36942857D01*
X183500000Y-36980952D01*
X183728571Y-36980952D01*
X182814285Y-37361904D02*
X183157142Y-37361904D01*
X182985714Y-37361904D02*
X182985714Y-36561904D01*
X183042857Y-36676190D01*
X183100000Y-36752380D01*
X183157142Y-36790476D01*
X182471428Y-36904761D02*
X182528571Y-36866666D01*
X182557142Y-36828571D01*
X182585714Y-36752380D01*
X182585714Y-36714285D01*
X182557142Y-36638095D01*
X182528571Y-36600000D01*
X182471428Y-36561904D01*
X182357142Y-36561904D01*
X182300000Y-36600000D01*
X182271428Y-36638095D01*
X182242857Y-36714285D01*
X182242857Y-36752380D01*
X182271428Y-36828571D01*
X182300000Y-36866666D01*
X182357142Y-36904761D01*
X182471428Y-36904761D01*
X182528571Y-36942857D01*
X182557142Y-36980952D01*
X182585714Y-37057142D01*
X182585714Y-37209523D01*
X182557142Y-37285714D01*
X182528571Y-37323809D01*
X182471428Y-37361904D01*
X182357142Y-37361904D01*
X182300000Y-37323809D01*
X182271428Y-37285714D01*
X182242857Y-37209523D01*
X182242857Y-37057142D01*
X182271428Y-36980952D01*
X182300000Y-36942857D01*
X182357142Y-36904761D01*
X177385714Y-37361904D02*
X177585714Y-36980952D01*
X177728571Y-37361904D02*
X177728571Y-36561904D01*
X177500000Y-36561904D01*
X177442857Y-36600000D01*
X177414285Y-36638095D01*
X177385714Y-36714285D01*
X177385714Y-36828571D01*
X177414285Y-36904761D01*
X177442857Y-36942857D01*
X177500000Y-36980952D01*
X177728571Y-36980952D01*
X176814285Y-37361904D02*
X177157142Y-37361904D01*
X176985714Y-37361904D02*
X176985714Y-36561904D01*
X177042857Y-36676190D01*
X177100000Y-36752380D01*
X177157142Y-36790476D01*
X176300000Y-36561904D02*
X176414285Y-36561904D01*
X176471428Y-36600000D01*
X176500000Y-36638095D01*
X176557142Y-36752380D01*
X176585714Y-36904761D01*
X176585714Y-37209523D01*
X176557142Y-37285714D01*
X176528571Y-37323809D01*
X176471428Y-37361904D01*
X176357142Y-37361904D01*
X176300000Y-37323809D01*
X176271428Y-37285714D01*
X176242857Y-37209523D01*
X176242857Y-37019047D01*
X176271428Y-36942857D01*
X176300000Y-36904761D01*
X176357142Y-36866666D01*
X176471428Y-36866666D01*
X176528571Y-36904761D01*
X176557142Y-36942857D01*
X176585714Y-37019047D01*
X181385714Y-32285714D02*
X181414285Y-32323809D01*
X181500000Y-32361904D01*
X181557142Y-32361904D01*
X181642857Y-32323809D01*
X181700000Y-32247619D01*
X181728571Y-32171428D01*
X181757142Y-32019047D01*
X181757142Y-31904761D01*
X181728571Y-31752380D01*
X181700000Y-31676190D01*
X181642857Y-31600000D01*
X181557142Y-31561904D01*
X181500000Y-31561904D01*
X181414285Y-31600000D01*
X181385714Y-31638095D01*
X180814285Y-32361904D02*
X181157142Y-32361904D01*
X180985714Y-32361904D02*
X180985714Y-31561904D01*
X181042857Y-31676190D01*
X181100000Y-31752380D01*
X181157142Y-31790476D01*
X180300000Y-31828571D02*
X180300000Y-32361904D01*
X180442857Y-31523809D02*
X180585714Y-32095238D01*
X180214285Y-32095238D01*
X185442857Y-31361904D02*
X185442857Y-30561904D01*
X185300000Y-30561904D01*
X185214285Y-30600000D01*
X185157142Y-30676190D01*
X185128571Y-30752380D01*
X185100000Y-30904761D01*
X185100000Y-31019047D01*
X185128571Y-31171428D01*
X185157142Y-31247619D01*
X185214285Y-31323809D01*
X185300000Y-31361904D01*
X185442857Y-31361904D01*
X184900000Y-30561904D02*
X184528571Y-30561904D01*
X184728571Y-30866666D01*
X184642857Y-30866666D01*
X184585714Y-30904761D01*
X184557142Y-30942857D01*
X184528571Y-31019047D01*
X184528571Y-31209523D01*
X184557142Y-31285714D01*
X184585714Y-31323809D01*
X184642857Y-31361904D01*
X184814285Y-31361904D01*
X184871428Y-31323809D01*
X184900000Y-31285714D01*
X179385714Y-32361904D02*
X179585714Y-31980952D01*
X179728571Y-32361904D02*
X179728571Y-31561904D01*
X179500000Y-31561904D01*
X179442857Y-31600000D01*
X179414285Y-31638095D01*
X179385714Y-31714285D01*
X179385714Y-31828571D01*
X179414285Y-31904761D01*
X179442857Y-31942857D01*
X179500000Y-31980952D01*
X179728571Y-31980952D01*
X178814285Y-32361904D02*
X179157142Y-32361904D01*
X178985714Y-32361904D02*
X178985714Y-31561904D01*
X179042857Y-31676190D01*
X179100000Y-31752380D01*
X179157142Y-31790476D01*
X178300000Y-31828571D02*
X178300000Y-32361904D01*
X178442857Y-31523809D02*
X178585714Y-32095238D01*
X178214285Y-32095238D01*
X183385714Y-32361904D02*
X183585714Y-31980952D01*
X183728571Y-32361904D02*
X183728571Y-31561904D01*
X183500000Y-31561904D01*
X183442857Y-31600000D01*
X183414285Y-31638095D01*
X183385714Y-31714285D01*
X183385714Y-31828571D01*
X183414285Y-31904761D01*
X183442857Y-31942857D01*
X183500000Y-31980952D01*
X183728571Y-31980952D01*
X182814285Y-32361904D02*
X183157142Y-32361904D01*
X182985714Y-32361904D02*
X182985714Y-31561904D01*
X183042857Y-31676190D01*
X183100000Y-31752380D01*
X183157142Y-31790476D01*
X182271428Y-31561904D02*
X182557142Y-31561904D01*
X182585714Y-31942857D01*
X182557142Y-31904761D01*
X182500000Y-31866666D01*
X182357142Y-31866666D01*
X182300000Y-31904761D01*
X182271428Y-31942857D01*
X182242857Y-32019047D01*
X182242857Y-32209523D01*
X182271428Y-32285714D01*
X182300000Y-32323809D01*
X182357142Y-32361904D01*
X182500000Y-32361904D01*
X182557142Y-32323809D01*
X182585714Y-32285714D01*
X177385714Y-32361904D02*
X177585714Y-31980952D01*
X177728571Y-32361904D02*
X177728571Y-31561904D01*
X177500000Y-31561904D01*
X177442857Y-31600000D01*
X177414285Y-31638095D01*
X177385714Y-31714285D01*
X177385714Y-31828571D01*
X177414285Y-31904761D01*
X177442857Y-31942857D01*
X177500000Y-31980952D01*
X177728571Y-31980952D01*
X176814285Y-32361904D02*
X177157142Y-32361904D01*
X176985714Y-32361904D02*
X176985714Y-31561904D01*
X177042857Y-31676190D01*
X177100000Y-31752380D01*
X177157142Y-31790476D01*
X176614285Y-31561904D02*
X176242857Y-31561904D01*
X176442857Y-31866666D01*
X176357142Y-31866666D01*
X176300000Y-31904761D01*
X176271428Y-31942857D01*
X176242857Y-32019047D01*
X176242857Y-32209523D01*
X176271428Y-32285714D01*
X176300000Y-32323809D01*
X176357142Y-32361904D01*
X176528571Y-32361904D01*
X176585714Y-32323809D01*
X176614285Y-32285714D01*
X181385714Y-27285714D02*
X181414285Y-27323809D01*
X181500000Y-27361904D01*
X181557142Y-27361904D01*
X181642857Y-27323809D01*
X181700000Y-27247619D01*
X181728571Y-27171428D01*
X181757142Y-27019047D01*
X181757142Y-26904761D01*
X181728571Y-26752380D01*
X181700000Y-26676190D01*
X181642857Y-26600000D01*
X181557142Y-26561904D01*
X181500000Y-26561904D01*
X181414285Y-26600000D01*
X181385714Y-26638095D01*
X180814285Y-27361904D02*
X181157142Y-27361904D01*
X180985714Y-27361904D02*
X180985714Y-26561904D01*
X181042857Y-26676190D01*
X181100000Y-26752380D01*
X181157142Y-26790476D01*
X180585714Y-26638095D02*
X180557142Y-26600000D01*
X180500000Y-26561904D01*
X180357142Y-26561904D01*
X180300000Y-26600000D01*
X180271428Y-26638095D01*
X180242857Y-26714285D01*
X180242857Y-26790476D01*
X180271428Y-26904761D01*
X180614285Y-27361904D01*
X180242857Y-27361904D01*
X179385714Y-27361904D02*
X179585714Y-26980952D01*
X179728571Y-27361904D02*
X179728571Y-26561904D01*
X179500000Y-26561904D01*
X179442857Y-26600000D01*
X179414285Y-26638095D01*
X179385714Y-26714285D01*
X179385714Y-26828571D01*
X179414285Y-26904761D01*
X179442857Y-26942857D01*
X179500000Y-26980952D01*
X179728571Y-26980952D01*
X178814285Y-27361904D02*
X179157142Y-27361904D01*
X178985714Y-27361904D02*
X178985714Y-26561904D01*
X179042857Y-26676190D01*
X179100000Y-26752380D01*
X179157142Y-26790476D01*
X178242857Y-27361904D02*
X178585714Y-27361904D01*
X178414285Y-27361904D02*
X178414285Y-26561904D01*
X178471428Y-26676190D01*
X178528571Y-26752380D01*
X178585714Y-26790476D01*
X183385714Y-27361904D02*
X183585714Y-26980952D01*
X183728571Y-27361904D02*
X183728571Y-26561904D01*
X183500000Y-26561904D01*
X183442857Y-26600000D01*
X183414285Y-26638095D01*
X183385714Y-26714285D01*
X183385714Y-26828571D01*
X183414285Y-26904761D01*
X183442857Y-26942857D01*
X183500000Y-26980952D01*
X183728571Y-26980952D01*
X182814285Y-27361904D02*
X183157142Y-27361904D01*
X182985714Y-27361904D02*
X182985714Y-26561904D01*
X183042857Y-26676190D01*
X183100000Y-26752380D01*
X183157142Y-26790476D01*
X182585714Y-26638095D02*
X182557142Y-26600000D01*
X182500000Y-26561904D01*
X182357142Y-26561904D01*
X182300000Y-26600000D01*
X182271428Y-26638095D01*
X182242857Y-26714285D01*
X182242857Y-26790476D01*
X182271428Y-26904761D01*
X182614285Y-27361904D01*
X182242857Y-27361904D01*
X177385714Y-27361904D02*
X177585714Y-26980952D01*
X177728571Y-27361904D02*
X177728571Y-26561904D01*
X177500000Y-26561904D01*
X177442857Y-26600000D01*
X177414285Y-26638095D01*
X177385714Y-26714285D01*
X177385714Y-26828571D01*
X177414285Y-26904761D01*
X177442857Y-26942857D01*
X177500000Y-26980952D01*
X177728571Y-26980952D01*
X176814285Y-27361904D02*
X177157142Y-27361904D01*
X176985714Y-27361904D02*
X176985714Y-26561904D01*
X177042857Y-26676190D01*
X177100000Y-26752380D01*
X177157142Y-26790476D01*
X176442857Y-26561904D02*
X176385714Y-26561904D01*
X176328571Y-26600000D01*
X176300000Y-26638095D01*
X176271428Y-26714285D01*
X176242857Y-26866666D01*
X176242857Y-27057142D01*
X176271428Y-27209523D01*
X176300000Y-27285714D01*
X176328571Y-27323809D01*
X176385714Y-27361904D01*
X176442857Y-27361904D01*
X176500000Y-27323809D01*
X176528571Y-27285714D01*
X176557142Y-27209523D01*
X176585714Y-27057142D01*
X176585714Y-26866666D01*
X176557142Y-26714285D01*
X176528571Y-26638095D01*
X176500000Y-26600000D01*
X176442857Y-26561904D01*
X190385714Y-33285714D02*
X190414285Y-33323809D01*
X190500000Y-33361904D01*
X190557142Y-33361904D01*
X190642857Y-33323809D01*
X190700000Y-33247619D01*
X190728571Y-33171428D01*
X190757142Y-33019047D01*
X190757142Y-32904761D01*
X190728571Y-32752380D01*
X190700000Y-32676190D01*
X190642857Y-32600000D01*
X190557142Y-32561904D01*
X190500000Y-32561904D01*
X190414285Y-32600000D01*
X190385714Y-32638095D01*
X190157142Y-32638095D02*
X190128571Y-32600000D01*
X190071428Y-32561904D01*
X189928571Y-32561904D01*
X189871428Y-32600000D01*
X189842857Y-32638095D01*
X189814285Y-32714285D01*
X189814285Y-32790476D01*
X189842857Y-32904761D01*
X190185714Y-33361904D01*
X189814285Y-33361904D01*
X189614285Y-32561904D02*
X189242857Y-32561904D01*
X189442857Y-32866666D01*
X189357142Y-32866666D01*
X189300000Y-32904761D01*
X189271428Y-32942857D01*
X189242857Y-33019047D01*
X189242857Y-33209523D01*
X189271428Y-33285714D01*
X189300000Y-33323809D01*
X189357142Y-33361904D01*
X189528571Y-33361904D01*
X189585714Y-33323809D01*
X189614285Y-33285714D01*
X192385714Y-35361904D02*
X192585714Y-34980952D01*
X192728571Y-35361904D02*
X192728571Y-34561904D01*
X192500000Y-34561904D01*
X192442857Y-34600000D01*
X192414285Y-34638095D01*
X192385714Y-34714285D01*
X192385714Y-34828571D01*
X192414285Y-34904761D01*
X192442857Y-34942857D01*
X192500000Y-34980952D01*
X192728571Y-34980952D01*
X192157142Y-34638095D02*
X192128571Y-34600000D01*
X192071428Y-34561904D01*
X191928571Y-34561904D01*
X191871428Y-34600000D01*
X191842857Y-34638095D01*
X191814285Y-34714285D01*
X191814285Y-34790476D01*
X191842857Y-34904761D01*
X192185714Y-35361904D01*
X191814285Y-35361904D01*
X191614285Y-34561904D02*
X191214285Y-34561904D01*
X191471428Y-35361904D01*
X192385714Y-37361904D02*
X192585714Y-36980952D01*
X192728571Y-37361904D02*
X192728571Y-36561904D01*
X192500000Y-36561904D01*
X192442857Y-36600000D01*
X192414285Y-36638095D01*
X192385714Y-36714285D01*
X192385714Y-36828571D01*
X192414285Y-36904761D01*
X192442857Y-36942857D01*
X192500000Y-36980952D01*
X192728571Y-36980952D01*
X192157142Y-36638095D02*
X192128571Y-36600000D01*
X192071428Y-36561904D01*
X191928571Y-36561904D01*
X191871428Y-36600000D01*
X191842857Y-36638095D01*
X191814285Y-36714285D01*
X191814285Y-36790476D01*
X191842857Y-36904761D01*
X192185714Y-37361904D01*
X191814285Y-37361904D01*
X191471428Y-36904761D02*
X191528571Y-36866666D01*
X191557142Y-36828571D01*
X191585714Y-36752380D01*
X191585714Y-36714285D01*
X191557142Y-36638095D01*
X191528571Y-36600000D01*
X191471428Y-36561904D01*
X191357142Y-36561904D01*
X191300000Y-36600000D01*
X191271428Y-36638095D01*
X191242857Y-36714285D01*
X191242857Y-36752380D01*
X191271428Y-36828571D01*
X191300000Y-36866666D01*
X191357142Y-36904761D01*
X191471428Y-36904761D01*
X191528571Y-36942857D01*
X191557142Y-36980952D01*
X191585714Y-37057142D01*
X191585714Y-37209523D01*
X191557142Y-37285714D01*
X191528571Y-37323809D01*
X191471428Y-37361904D01*
X191357142Y-37361904D01*
X191300000Y-37323809D01*
X191271428Y-37285714D01*
X191242857Y-37209523D01*
X191242857Y-37057142D01*
X191271428Y-36980952D01*
X191300000Y-36942857D01*
X191357142Y-36904761D01*
X188385714Y-35361904D02*
X188585714Y-34980952D01*
X188728571Y-35361904D02*
X188728571Y-34561904D01*
X188500000Y-34561904D01*
X188442857Y-34600000D01*
X188414285Y-34638095D01*
X188385714Y-34714285D01*
X188385714Y-34828571D01*
X188414285Y-34904761D01*
X188442857Y-34942857D01*
X188500000Y-34980952D01*
X188728571Y-34980952D01*
X188157142Y-34638095D02*
X188128571Y-34600000D01*
X188071428Y-34561904D01*
X187928571Y-34561904D01*
X187871428Y-34600000D01*
X187842857Y-34638095D01*
X187814285Y-34714285D01*
X187814285Y-34790476D01*
X187842857Y-34904761D01*
X188185714Y-35361904D01*
X187814285Y-35361904D01*
X187528571Y-35361904D02*
X187414285Y-35361904D01*
X187357142Y-35323809D01*
X187328571Y-35285714D01*
X187271428Y-35171428D01*
X187242857Y-35019047D01*
X187242857Y-34714285D01*
X187271428Y-34638095D01*
X187300000Y-34600000D01*
X187357142Y-34561904D01*
X187471428Y-34561904D01*
X187528571Y-34600000D01*
X187557142Y-34638095D01*
X187585714Y-34714285D01*
X187585714Y-34904761D01*
X187557142Y-34980952D01*
X187528571Y-35019047D01*
X187471428Y-35057142D01*
X187357142Y-35057142D01*
X187300000Y-35019047D01*
X187271428Y-34980952D01*
X187242857Y-34904761D01*
X188385714Y-37361904D02*
X188585714Y-36980952D01*
X188728571Y-37361904D02*
X188728571Y-36561904D01*
X188500000Y-36561904D01*
X188442857Y-36600000D01*
X188414285Y-36638095D01*
X188385714Y-36714285D01*
X188385714Y-36828571D01*
X188414285Y-36904761D01*
X188442857Y-36942857D01*
X188500000Y-36980952D01*
X188728571Y-36980952D01*
X188185714Y-36561904D02*
X187814285Y-36561904D01*
X188014285Y-36866666D01*
X187928571Y-36866666D01*
X187871428Y-36904761D01*
X187842857Y-36942857D01*
X187814285Y-37019047D01*
X187814285Y-37209523D01*
X187842857Y-37285714D01*
X187871428Y-37323809D01*
X187928571Y-37361904D01*
X188100000Y-37361904D01*
X188157142Y-37323809D01*
X188185714Y-37285714D01*
X187442857Y-36561904D02*
X187385714Y-36561904D01*
X187328571Y-36600000D01*
X187300000Y-36638095D01*
X187271428Y-36714285D01*
X187242857Y-36866666D01*
X187242857Y-37057142D01*
X187271428Y-37209523D01*
X187300000Y-37285714D01*
X187328571Y-37323809D01*
X187385714Y-37361904D01*
X187442857Y-37361904D01*
X187500000Y-37323809D01*
X187528571Y-37285714D01*
X187557142Y-37209523D01*
X187585714Y-37057142D01*
X187585714Y-36866666D01*
X187557142Y-36714285D01*
X187528571Y-36638095D01*
X187500000Y-36600000D01*
X187442857Y-36561904D01*
X190385714Y-42285714D02*
X190414285Y-42323809D01*
X190500000Y-42361904D01*
X190557142Y-42361904D01*
X190642857Y-42323809D01*
X190700000Y-42247619D01*
X190728571Y-42171428D01*
X190757142Y-42019047D01*
X190757142Y-41904761D01*
X190728571Y-41752380D01*
X190700000Y-41676190D01*
X190642857Y-41600000D01*
X190557142Y-41561904D01*
X190500000Y-41561904D01*
X190414285Y-41600000D01*
X190385714Y-41638095D01*
X189814285Y-42361904D02*
X190157142Y-42361904D01*
X189985714Y-42361904D02*
X189985714Y-41561904D01*
X190042857Y-41676190D01*
X190100000Y-41752380D01*
X190157142Y-41790476D01*
X189471428Y-41904761D02*
X189528571Y-41866666D01*
X189557142Y-41828571D01*
X189585714Y-41752380D01*
X189585714Y-41714285D01*
X189557142Y-41638095D01*
X189528571Y-41600000D01*
X189471428Y-41561904D01*
X189357142Y-41561904D01*
X189300000Y-41600000D01*
X189271428Y-41638095D01*
X189242857Y-41714285D01*
X189242857Y-41752380D01*
X189271428Y-41828571D01*
X189300000Y-41866666D01*
X189357142Y-41904761D01*
X189471428Y-41904761D01*
X189528571Y-41942857D01*
X189557142Y-41980952D01*
X189585714Y-42057142D01*
X189585714Y-42209523D01*
X189557142Y-42285714D01*
X189528571Y-42323809D01*
X189471428Y-42361904D01*
X189357142Y-42361904D01*
X189300000Y-42323809D01*
X189271428Y-42285714D01*
X189242857Y-42209523D01*
X189242857Y-42057142D01*
X189271428Y-41980952D01*
X189300000Y-41942857D01*
X189357142Y-41904761D01*
X188385714Y-42361904D02*
X188585714Y-41980952D01*
X188728571Y-42361904D02*
X188728571Y-41561904D01*
X188500000Y-41561904D01*
X188442857Y-41600000D01*
X188414285Y-41638095D01*
X188385714Y-41714285D01*
X188385714Y-41828571D01*
X188414285Y-41904761D01*
X188442857Y-41942857D01*
X188500000Y-41980952D01*
X188728571Y-41980952D01*
X187814285Y-42361904D02*
X188157142Y-42361904D01*
X187985714Y-42361904D02*
X187985714Y-41561904D01*
X188042857Y-41676190D01*
X188100000Y-41752380D01*
X188157142Y-41790476D01*
X187528571Y-42361904D02*
X187414285Y-42361904D01*
X187357142Y-42323809D01*
X187328571Y-42285714D01*
X187271428Y-42171428D01*
X187242857Y-42019047D01*
X187242857Y-41714285D01*
X187271428Y-41638095D01*
X187300000Y-41600000D01*
X187357142Y-41561904D01*
X187471428Y-41561904D01*
X187528571Y-41600000D01*
X187557142Y-41638095D01*
X187585714Y-41714285D01*
X187585714Y-41904761D01*
X187557142Y-41980952D01*
X187528571Y-42019047D01*
X187471428Y-42057142D01*
X187357142Y-42057142D01*
X187300000Y-42019047D01*
X187271428Y-41980952D01*
X187242857Y-41904761D01*
X190385714Y-25285714D02*
X190414285Y-25323809D01*
X190500000Y-25361904D01*
X190557142Y-25361904D01*
X190642857Y-25323809D01*
X190700000Y-25247619D01*
X190728571Y-25171428D01*
X190757142Y-25019047D01*
X190757142Y-24904761D01*
X190728571Y-24752380D01*
X190700000Y-24676190D01*
X190642857Y-24600000D01*
X190557142Y-24561904D01*
X190500000Y-24561904D01*
X190414285Y-24600000D01*
X190385714Y-24638095D01*
X190157142Y-24638095D02*
X190128571Y-24600000D01*
X190071428Y-24561904D01*
X189928571Y-24561904D01*
X189871428Y-24600000D01*
X189842857Y-24638095D01*
X189814285Y-24714285D01*
X189814285Y-24790476D01*
X189842857Y-24904761D01*
X190185714Y-25361904D01*
X189814285Y-25361904D01*
X189271428Y-24561904D02*
X189557142Y-24561904D01*
X189585714Y-24942857D01*
X189557142Y-24904761D01*
X189500000Y-24866666D01*
X189357142Y-24866666D01*
X189300000Y-24904761D01*
X189271428Y-24942857D01*
X189242857Y-25019047D01*
X189242857Y-25209523D01*
X189271428Y-25285714D01*
X189300000Y-25323809D01*
X189357142Y-25361904D01*
X189500000Y-25361904D01*
X189557142Y-25323809D01*
X189585714Y-25285714D01*
X192385714Y-27361904D02*
X192585714Y-26980952D01*
X192728571Y-27361904D02*
X192728571Y-26561904D01*
X192500000Y-26561904D01*
X192442857Y-26600000D01*
X192414285Y-26638095D01*
X192385714Y-26714285D01*
X192385714Y-26828571D01*
X192414285Y-26904761D01*
X192442857Y-26942857D01*
X192500000Y-26980952D01*
X192728571Y-26980952D01*
X192185714Y-26561904D02*
X191814285Y-26561904D01*
X192014285Y-26866666D01*
X191928571Y-26866666D01*
X191871428Y-26904761D01*
X191842857Y-26942857D01*
X191814285Y-27019047D01*
X191814285Y-27209523D01*
X191842857Y-27285714D01*
X191871428Y-27323809D01*
X191928571Y-27361904D01*
X192100000Y-27361904D01*
X192157142Y-27323809D01*
X192185714Y-27285714D01*
X191242857Y-27361904D02*
X191585714Y-27361904D01*
X191414285Y-27361904D02*
X191414285Y-26561904D01*
X191471428Y-26676190D01*
X191528571Y-26752380D01*
X191585714Y-26790476D01*
X192385714Y-29361904D02*
X192585714Y-28980952D01*
X192728571Y-29361904D02*
X192728571Y-28561904D01*
X192500000Y-28561904D01*
X192442857Y-28600000D01*
X192414285Y-28638095D01*
X192385714Y-28714285D01*
X192385714Y-28828571D01*
X192414285Y-28904761D01*
X192442857Y-28942857D01*
X192500000Y-28980952D01*
X192728571Y-28980952D01*
X192185714Y-28561904D02*
X191814285Y-28561904D01*
X192014285Y-28866666D01*
X191928571Y-28866666D01*
X191871428Y-28904761D01*
X191842857Y-28942857D01*
X191814285Y-29019047D01*
X191814285Y-29209523D01*
X191842857Y-29285714D01*
X191871428Y-29323809D01*
X191928571Y-29361904D01*
X192100000Y-29361904D01*
X192157142Y-29323809D01*
X192185714Y-29285714D01*
X191585714Y-28638095D02*
X191557142Y-28600000D01*
X191500000Y-28561904D01*
X191357142Y-28561904D01*
X191300000Y-28600000D01*
X191271428Y-28638095D01*
X191242857Y-28714285D01*
X191242857Y-28790476D01*
X191271428Y-28904761D01*
X191614285Y-29361904D01*
X191242857Y-29361904D01*
X188385714Y-27361904D02*
X188585714Y-26980952D01*
X188728571Y-27361904D02*
X188728571Y-26561904D01*
X188500000Y-26561904D01*
X188442857Y-26600000D01*
X188414285Y-26638095D01*
X188385714Y-26714285D01*
X188385714Y-26828571D01*
X188414285Y-26904761D01*
X188442857Y-26942857D01*
X188500000Y-26980952D01*
X188728571Y-26980952D01*
X188185714Y-26561904D02*
X187814285Y-26561904D01*
X188014285Y-26866666D01*
X187928571Y-26866666D01*
X187871428Y-26904761D01*
X187842857Y-26942857D01*
X187814285Y-27019047D01*
X187814285Y-27209523D01*
X187842857Y-27285714D01*
X187871428Y-27323809D01*
X187928571Y-27361904D01*
X188100000Y-27361904D01*
X188157142Y-27323809D01*
X188185714Y-27285714D01*
X187614285Y-26561904D02*
X187242857Y-26561904D01*
X187442857Y-26866666D01*
X187357142Y-26866666D01*
X187300000Y-26904761D01*
X187271428Y-26942857D01*
X187242857Y-27019047D01*
X187242857Y-27209523D01*
X187271428Y-27285714D01*
X187300000Y-27323809D01*
X187357142Y-27361904D01*
X187528571Y-27361904D01*
X187585714Y-27323809D01*
X187614285Y-27285714D01*
X188385714Y-29361904D02*
X188585714Y-28980952D01*
X188728571Y-29361904D02*
X188728571Y-28561904D01*
X188500000Y-28561904D01*
X188442857Y-28600000D01*
X188414285Y-28638095D01*
X188385714Y-28714285D01*
X188385714Y-28828571D01*
X188414285Y-28904761D01*
X188442857Y-28942857D01*
X188500000Y-28980952D01*
X188728571Y-28980952D01*
X188185714Y-28561904D02*
X187814285Y-28561904D01*
X188014285Y-28866666D01*
X187928571Y-28866666D01*
X187871428Y-28904761D01*
X187842857Y-28942857D01*
X187814285Y-29019047D01*
X187814285Y-29209523D01*
X187842857Y-29285714D01*
X187871428Y-29323809D01*
X187928571Y-29361904D01*
X188100000Y-29361904D01*
X188157142Y-29323809D01*
X188185714Y-29285714D01*
X187300000Y-28828571D02*
X187300000Y-29361904D01*
X187442857Y-28523809D02*
X187585714Y-29095238D01*
X187214285Y-29095238D01*
X162385714Y-42285714D02*
X162414285Y-42323809D01*
X162500000Y-42361904D01*
X162557142Y-42361904D01*
X162642857Y-42323809D01*
X162700000Y-42247619D01*
X162728571Y-42171428D01*
X162757142Y-42019047D01*
X162757142Y-41904761D01*
X162728571Y-41752380D01*
X162700000Y-41676190D01*
X162642857Y-41600000D01*
X162557142Y-41561904D01*
X162500000Y-41561904D01*
X162414285Y-41600000D01*
X162385714Y-41638095D01*
X161842857Y-41561904D02*
X162128571Y-41561904D01*
X162157142Y-41942857D01*
X162128571Y-41904761D01*
X162071428Y-41866666D01*
X161928571Y-41866666D01*
X161871428Y-41904761D01*
X161842857Y-41942857D01*
X161814285Y-42019047D01*
X161814285Y-42209523D01*
X161842857Y-42285714D01*
X161871428Y-42323809D01*
X161928571Y-42361904D01*
X162071428Y-42361904D01*
X162128571Y-42323809D01*
X162157142Y-42285714D01*
X161528571Y-42361904D02*
X161414285Y-42361904D01*
X161357142Y-42323809D01*
X161328571Y-42285714D01*
X161271428Y-42171428D01*
X161242857Y-42019047D01*
X161242857Y-41714285D01*
X161271428Y-41638095D01*
X161300000Y-41600000D01*
X161357142Y-41561904D01*
X161471428Y-41561904D01*
X161528571Y-41600000D01*
X161557142Y-41638095D01*
X161585714Y-41714285D01*
X161585714Y-41904761D01*
X161557142Y-41980952D01*
X161528571Y-42019047D01*
X161471428Y-42057142D01*
X161357142Y-42057142D01*
X161300000Y-42019047D01*
X161271428Y-41980952D01*
X161242857Y-41904761D01*
X160385714Y-42285714D02*
X160414285Y-42323809D01*
X160500000Y-42361904D01*
X160557142Y-42361904D01*
X160642857Y-42323809D01*
X160700000Y-42247619D01*
X160728571Y-42171428D01*
X160757142Y-42019047D01*
X160757142Y-41904761D01*
X160728571Y-41752380D01*
X160700000Y-41676190D01*
X160642857Y-41600000D01*
X160557142Y-41561904D01*
X160500000Y-41561904D01*
X160414285Y-41600000D01*
X160385714Y-41638095D01*
X159871428Y-41561904D02*
X159985714Y-41561904D01*
X160042857Y-41600000D01*
X160071428Y-41638095D01*
X160128571Y-41752380D01*
X160157142Y-41904761D01*
X160157142Y-42209523D01*
X160128571Y-42285714D01*
X160100000Y-42323809D01*
X160042857Y-42361904D01*
X159928571Y-42361904D01*
X159871428Y-42323809D01*
X159842857Y-42285714D01*
X159814285Y-42209523D01*
X159814285Y-42019047D01*
X159842857Y-41942857D01*
X159871428Y-41904761D01*
X159928571Y-41866666D01*
X160042857Y-41866666D01*
X160100000Y-41904761D01*
X160128571Y-41942857D01*
X160157142Y-42019047D01*
X159442857Y-41561904D02*
X159385714Y-41561904D01*
X159328571Y-41600000D01*
X159300000Y-41638095D01*
X159271428Y-41714285D01*
X159242857Y-41866666D01*
X159242857Y-42057142D01*
X159271428Y-42209523D01*
X159300000Y-42285714D01*
X159328571Y-42323809D01*
X159385714Y-42361904D01*
X159442857Y-42361904D01*
X159500000Y-42323809D01*
X159528571Y-42285714D01*
X159557142Y-42209523D01*
X159585714Y-42057142D01*
X159585714Y-41866666D01*
X159557142Y-41714285D01*
X159528571Y-41638095D01*
X159500000Y-41600000D01*
X159442857Y-41561904D01*
X162385714Y-34285714D02*
X162414285Y-34323809D01*
X162500000Y-34361904D01*
X162557142Y-34361904D01*
X162642857Y-34323809D01*
X162700000Y-34247619D01*
X162728571Y-34171428D01*
X162757142Y-34019047D01*
X162757142Y-33904761D01*
X162728571Y-33752380D01*
X162700000Y-33676190D01*
X162642857Y-33600000D01*
X162557142Y-33561904D01*
X162500000Y-33561904D01*
X162414285Y-33600000D01*
X162385714Y-33638095D01*
X161842857Y-33561904D02*
X162128571Y-33561904D01*
X162157142Y-33942857D01*
X162128571Y-33904761D01*
X162071428Y-33866666D01*
X161928571Y-33866666D01*
X161871428Y-33904761D01*
X161842857Y-33942857D01*
X161814285Y-34019047D01*
X161814285Y-34209523D01*
X161842857Y-34285714D01*
X161871428Y-34323809D01*
X161928571Y-34361904D01*
X162071428Y-34361904D01*
X162128571Y-34323809D01*
X162157142Y-34285714D01*
X161614285Y-33561904D02*
X161214285Y-33561904D01*
X161471428Y-34361904D01*
X160385714Y-34285714D02*
X160414285Y-34323809D01*
X160500000Y-34361904D01*
X160557142Y-34361904D01*
X160642857Y-34323809D01*
X160700000Y-34247619D01*
X160728571Y-34171428D01*
X160757142Y-34019047D01*
X160757142Y-33904761D01*
X160728571Y-33752380D01*
X160700000Y-33676190D01*
X160642857Y-33600000D01*
X160557142Y-33561904D01*
X160500000Y-33561904D01*
X160414285Y-33600000D01*
X160385714Y-33638095D01*
X159842857Y-33561904D02*
X160128571Y-33561904D01*
X160157142Y-33942857D01*
X160128571Y-33904761D01*
X160071428Y-33866666D01*
X159928571Y-33866666D01*
X159871428Y-33904761D01*
X159842857Y-33942857D01*
X159814285Y-34019047D01*
X159814285Y-34209523D01*
X159842857Y-34285714D01*
X159871428Y-34323809D01*
X159928571Y-34361904D01*
X160071428Y-34361904D01*
X160128571Y-34323809D01*
X160157142Y-34285714D01*
X159471428Y-33904761D02*
X159528571Y-33866666D01*
X159557142Y-33828571D01*
X159585714Y-33752380D01*
X159585714Y-33714285D01*
X159557142Y-33638095D01*
X159528571Y-33600000D01*
X159471428Y-33561904D01*
X159357142Y-33561904D01*
X159300000Y-33600000D01*
X159271428Y-33638095D01*
X159242857Y-33714285D01*
X159242857Y-33752380D01*
X159271428Y-33828571D01*
X159300000Y-33866666D01*
X159357142Y-33904761D01*
X159471428Y-33904761D01*
X159528571Y-33942857D01*
X159557142Y-33980952D01*
X159585714Y-34057142D01*
X159585714Y-34209523D01*
X159557142Y-34285714D01*
X159528571Y-34323809D01*
X159471428Y-34361904D01*
X159357142Y-34361904D01*
X159300000Y-34323809D01*
X159271428Y-34285714D01*
X159242857Y-34209523D01*
X159242857Y-34057142D01*
X159271428Y-33980952D01*
X159300000Y-33942857D01*
X159357142Y-33904761D01*
X162385714Y-26285714D02*
X162414285Y-26323809D01*
X162500000Y-26361904D01*
X162557142Y-26361904D01*
X162642857Y-26323809D01*
X162700000Y-26247619D01*
X162728571Y-26171428D01*
X162757142Y-26019047D01*
X162757142Y-25904761D01*
X162728571Y-25752380D01*
X162700000Y-25676190D01*
X162642857Y-25600000D01*
X162557142Y-25561904D01*
X162500000Y-25561904D01*
X162414285Y-25600000D01*
X162385714Y-25638095D01*
X161842857Y-25561904D02*
X162128571Y-25561904D01*
X162157142Y-25942857D01*
X162128571Y-25904761D01*
X162071428Y-25866666D01*
X161928571Y-25866666D01*
X161871428Y-25904761D01*
X161842857Y-25942857D01*
X161814285Y-26019047D01*
X161814285Y-26209523D01*
X161842857Y-26285714D01*
X161871428Y-26323809D01*
X161928571Y-26361904D01*
X162071428Y-26361904D01*
X162128571Y-26323809D01*
X162157142Y-26285714D01*
X161271428Y-25561904D02*
X161557142Y-25561904D01*
X161585714Y-25942857D01*
X161557142Y-25904761D01*
X161500000Y-25866666D01*
X161357142Y-25866666D01*
X161300000Y-25904761D01*
X161271428Y-25942857D01*
X161242857Y-26019047D01*
X161242857Y-26209523D01*
X161271428Y-26285714D01*
X161300000Y-26323809D01*
X161357142Y-26361904D01*
X161500000Y-26361904D01*
X161557142Y-26323809D01*
X161585714Y-26285714D01*
X160385714Y-26285714D02*
X160414285Y-26323809D01*
X160500000Y-26361904D01*
X160557142Y-26361904D01*
X160642857Y-26323809D01*
X160700000Y-26247619D01*
X160728571Y-26171428D01*
X160757142Y-26019047D01*
X160757142Y-25904761D01*
X160728571Y-25752380D01*
X160700000Y-25676190D01*
X160642857Y-25600000D01*
X160557142Y-25561904D01*
X160500000Y-25561904D01*
X160414285Y-25600000D01*
X160385714Y-25638095D01*
X159842857Y-25561904D02*
X160128571Y-25561904D01*
X160157142Y-25942857D01*
X160128571Y-25904761D01*
X160071428Y-25866666D01*
X159928571Y-25866666D01*
X159871428Y-25904761D01*
X159842857Y-25942857D01*
X159814285Y-26019047D01*
X159814285Y-26209523D01*
X159842857Y-26285714D01*
X159871428Y-26323809D01*
X159928571Y-26361904D01*
X160071428Y-26361904D01*
X160128571Y-26323809D01*
X160157142Y-26285714D01*
X159300000Y-25561904D02*
X159414285Y-25561904D01*
X159471428Y-25600000D01*
X159500000Y-25638095D01*
X159557142Y-25752380D01*
X159585714Y-25904761D01*
X159585714Y-26209523D01*
X159557142Y-26285714D01*
X159528571Y-26323809D01*
X159471428Y-26361904D01*
X159357142Y-26361904D01*
X159300000Y-26323809D01*
X159271428Y-26285714D01*
X159242857Y-26209523D01*
X159242857Y-26019047D01*
X159271428Y-25942857D01*
X159300000Y-25904761D01*
X159357142Y-25866666D01*
X159471428Y-25866666D01*
X159528571Y-25904761D01*
X159557142Y-25942857D01*
X159585714Y-26019047D01*
X109885714Y-33361904D02*
X110085714Y-32980952D01*
X110228571Y-33361904D02*
X110228571Y-32561904D01*
X110000000Y-32561904D01*
X109942857Y-32600000D01*
X109914285Y-32638095D01*
X109885714Y-32714285D01*
X109885714Y-32828571D01*
X109914285Y-32904761D01*
X109942857Y-32942857D01*
X110000000Y-32980952D01*
X110228571Y-32980952D01*
X109371428Y-32828571D02*
X109371428Y-33361904D01*
X109514285Y-32523809D02*
X109657142Y-33095238D01*
X109285714Y-33095238D01*
X108742857Y-33361904D02*
X109085714Y-33361904D01*
X108914285Y-33361904D02*
X108914285Y-32561904D01*
X108971428Y-32676190D01*
X109028571Y-32752380D01*
X109085714Y-32790476D01*
X109885714Y-35361904D02*
X110085714Y-34980952D01*
X110228571Y-35361904D02*
X110228571Y-34561904D01*
X110000000Y-34561904D01*
X109942857Y-34600000D01*
X109914285Y-34638095D01*
X109885714Y-34714285D01*
X109885714Y-34828571D01*
X109914285Y-34904761D01*
X109942857Y-34942857D01*
X110000000Y-34980952D01*
X110228571Y-34980952D01*
X109371428Y-34828571D02*
X109371428Y-35361904D01*
X109514285Y-34523809D02*
X109657142Y-35095238D01*
X109285714Y-35095238D01*
X109085714Y-34638095D02*
X109057142Y-34600000D01*
X109000000Y-34561904D01*
X108857142Y-34561904D01*
X108800000Y-34600000D01*
X108771428Y-34638095D01*
X108742857Y-34714285D01*
X108742857Y-34790476D01*
X108771428Y-34904761D01*
X109114285Y-35361904D01*
X108742857Y-35361904D01*
X122100000Y-31361904D02*
X122300000Y-30980952D01*
X122442857Y-31361904D02*
X122442857Y-30561904D01*
X122214285Y-30561904D01*
X122157142Y-30600000D01*
X122128571Y-30638095D01*
X122100000Y-30714285D01*
X122100000Y-30828571D01*
X122128571Y-30904761D01*
X122157142Y-30942857D01*
X122214285Y-30980952D01*
X122442857Y-30980952D01*
X121585714Y-30561904D02*
X121700000Y-30561904D01*
X121757142Y-30600000D01*
X121785714Y-30638095D01*
X121842857Y-30752380D01*
X121871428Y-30904761D01*
X121871428Y-31209523D01*
X121842857Y-31285714D01*
X121814285Y-31323809D01*
X121757142Y-31361904D01*
X121642857Y-31361904D01*
X121585714Y-31323809D01*
X121557142Y-31285714D01*
X121528571Y-31209523D01*
X121528571Y-31019047D01*
X121557142Y-30942857D01*
X121585714Y-30904761D01*
X121642857Y-30866666D01*
X121757142Y-30866666D01*
X121814285Y-30904761D01*
X121842857Y-30942857D01*
X121871428Y-31019047D01*
X122100000Y-25361904D02*
X122300000Y-24980952D01*
X122442857Y-25361904D02*
X122442857Y-24561904D01*
X122214285Y-24561904D01*
X122157142Y-24600000D01*
X122128571Y-24638095D01*
X122100000Y-24714285D01*
X122100000Y-24828571D01*
X122128571Y-24904761D01*
X122157142Y-24942857D01*
X122214285Y-24980952D01*
X122442857Y-24980952D01*
X121900000Y-24561904D02*
X121500000Y-24561904D01*
X121757142Y-25361904D01*
X138385714Y-30285714D02*
X138414285Y-30323809D01*
X138500000Y-30361904D01*
X138557142Y-30361904D01*
X138642857Y-30323809D01*
X138700000Y-30247619D01*
X138728571Y-30171428D01*
X138757142Y-30019047D01*
X138757142Y-29904761D01*
X138728571Y-29752380D01*
X138700000Y-29676190D01*
X138642857Y-29600000D01*
X138557142Y-29561904D01*
X138500000Y-29561904D01*
X138414285Y-29600000D01*
X138385714Y-29638095D01*
X137871428Y-29828571D02*
X137871428Y-30361904D01*
X138014285Y-29523809D02*
X138157142Y-30095238D01*
X137785714Y-30095238D01*
X137442857Y-29561904D02*
X137385714Y-29561904D01*
X137328571Y-29600000D01*
X137300000Y-29638095D01*
X137271428Y-29714285D01*
X137242857Y-29866666D01*
X137242857Y-30057142D01*
X137271428Y-30209523D01*
X137300000Y-30285714D01*
X137328571Y-30323809D01*
X137385714Y-30361904D01*
X137442857Y-30361904D01*
X137500000Y-30323809D01*
X137528571Y-30285714D01*
X137557142Y-30209523D01*
X137585714Y-30057142D01*
X137585714Y-29866666D01*
X137557142Y-29714285D01*
X137528571Y-29638095D01*
X137500000Y-29600000D01*
X137442857Y-29561904D01*
X136385714Y-36285714D02*
X136414285Y-36323809D01*
X136500000Y-36361904D01*
X136557142Y-36361904D01*
X136642857Y-36323809D01*
X136700000Y-36247619D01*
X136728571Y-36171428D01*
X136757142Y-36019047D01*
X136757142Y-35904761D01*
X136728571Y-35752380D01*
X136700000Y-35676190D01*
X136642857Y-35600000D01*
X136557142Y-35561904D01*
X136500000Y-35561904D01*
X136414285Y-35600000D01*
X136385714Y-35638095D01*
X135871428Y-35828571D02*
X135871428Y-36361904D01*
X136014285Y-35523809D02*
X136157142Y-36095238D01*
X135785714Y-36095238D01*
X135300000Y-35828571D02*
X135300000Y-36361904D01*
X135442857Y-35523809D02*
X135585714Y-36095238D01*
X135214285Y-36095238D01*
X134385714Y-34285714D02*
X134414285Y-34323809D01*
X134500000Y-34361904D01*
X134557142Y-34361904D01*
X134642857Y-34323809D01*
X134700000Y-34247619D01*
X134728571Y-34171428D01*
X134757142Y-34019047D01*
X134757142Y-33904761D01*
X134728571Y-33752380D01*
X134700000Y-33676190D01*
X134642857Y-33600000D01*
X134557142Y-33561904D01*
X134500000Y-33561904D01*
X134414285Y-33600000D01*
X134385714Y-33638095D01*
X133871428Y-33828571D02*
X133871428Y-34361904D01*
X134014285Y-33523809D02*
X134157142Y-34095238D01*
X133785714Y-34095238D01*
X133271428Y-33561904D02*
X133557142Y-33561904D01*
X133585714Y-33942857D01*
X133557142Y-33904761D01*
X133500000Y-33866666D01*
X133357142Y-33866666D01*
X133300000Y-33904761D01*
X133271428Y-33942857D01*
X133242857Y-34019047D01*
X133242857Y-34209523D01*
X133271428Y-34285714D01*
X133300000Y-34323809D01*
X133357142Y-34361904D01*
X133500000Y-34361904D01*
X133557142Y-34323809D01*
X133585714Y-34285714D01*
X140385714Y-30285714D02*
X140414285Y-30323809D01*
X140500000Y-30361904D01*
X140557142Y-30361904D01*
X140642857Y-30323809D01*
X140700000Y-30247619D01*
X140728571Y-30171428D01*
X140757142Y-30019047D01*
X140757142Y-29904761D01*
X140728571Y-29752380D01*
X140700000Y-29676190D01*
X140642857Y-29600000D01*
X140557142Y-29561904D01*
X140500000Y-29561904D01*
X140414285Y-29600000D01*
X140385714Y-29638095D01*
X139871428Y-29828571D02*
X139871428Y-30361904D01*
X140014285Y-29523809D02*
X140157142Y-30095238D01*
X139785714Y-30095238D01*
X139614285Y-29561904D02*
X139214285Y-29561904D01*
X139471428Y-30361904D01*
X136385714Y-30285714D02*
X136414285Y-30323809D01*
X136500000Y-30361904D01*
X136557142Y-30361904D01*
X136642857Y-30323809D01*
X136700000Y-30247619D01*
X136728571Y-30171428D01*
X136757142Y-30019047D01*
X136757142Y-29904761D01*
X136728571Y-29752380D01*
X136700000Y-29676190D01*
X136642857Y-29600000D01*
X136557142Y-29561904D01*
X136500000Y-29561904D01*
X136414285Y-29600000D01*
X136385714Y-29638095D01*
X135871428Y-29828571D02*
X135871428Y-30361904D01*
X136014285Y-29523809D02*
X136157142Y-30095238D01*
X135785714Y-30095238D01*
X135471428Y-29904761D02*
X135528571Y-29866666D01*
X135557142Y-29828571D01*
X135585714Y-29752380D01*
X135585714Y-29714285D01*
X135557142Y-29638095D01*
X135528571Y-29600000D01*
X135471428Y-29561904D01*
X135357142Y-29561904D01*
X135300000Y-29600000D01*
X135271428Y-29638095D01*
X135242857Y-29714285D01*
X135242857Y-29752380D01*
X135271428Y-29828571D01*
X135300000Y-29866666D01*
X135357142Y-29904761D01*
X135471428Y-29904761D01*
X135528571Y-29942857D01*
X135557142Y-29980952D01*
X135585714Y-30057142D01*
X135585714Y-30209523D01*
X135557142Y-30285714D01*
X135528571Y-30323809D01*
X135471428Y-30361904D01*
X135357142Y-30361904D01*
X135300000Y-30323809D01*
X135271428Y-30285714D01*
X135242857Y-30209523D01*
X135242857Y-30057142D01*
X135271428Y-29980952D01*
X135300000Y-29942857D01*
X135357142Y-29904761D01*
X126385714Y-31361904D02*
X126585714Y-30980952D01*
X126728571Y-31361904D02*
X126728571Y-30561904D01*
X126500000Y-30561904D01*
X126442857Y-30600000D01*
X126414285Y-30638095D01*
X126385714Y-30714285D01*
X126385714Y-30828571D01*
X126414285Y-30904761D01*
X126442857Y-30942857D01*
X126500000Y-30980952D01*
X126728571Y-30980952D01*
X125871428Y-30828571D02*
X125871428Y-31361904D01*
X126014285Y-30523809D02*
X126157142Y-31095238D01*
X125785714Y-31095238D01*
X125442857Y-30561904D02*
X125385714Y-30561904D01*
X125328571Y-30600000D01*
X125300000Y-30638095D01*
X125271428Y-30714285D01*
X125242857Y-30866666D01*
X125242857Y-31057142D01*
X125271428Y-31209523D01*
X125300000Y-31285714D01*
X125328571Y-31323809D01*
X125385714Y-31361904D01*
X125442857Y-31361904D01*
X125500000Y-31323809D01*
X125528571Y-31285714D01*
X125557142Y-31209523D01*
X125585714Y-31057142D01*
X125585714Y-30866666D01*
X125557142Y-30714285D01*
X125528571Y-30638095D01*
X125500000Y-30600000D01*
X125442857Y-30561904D01*
X134385714Y-39361904D02*
X134585714Y-38980952D01*
X134728571Y-39361904D02*
X134728571Y-38561904D01*
X134500000Y-38561904D01*
X134442857Y-38600000D01*
X134414285Y-38638095D01*
X134385714Y-38714285D01*
X134385714Y-38828571D01*
X134414285Y-38904761D01*
X134442857Y-38942857D01*
X134500000Y-38980952D01*
X134728571Y-38980952D01*
X134185714Y-38561904D02*
X133814285Y-38561904D01*
X134014285Y-38866666D01*
X133928571Y-38866666D01*
X133871428Y-38904761D01*
X133842857Y-38942857D01*
X133814285Y-39019047D01*
X133814285Y-39209523D01*
X133842857Y-39285714D01*
X133871428Y-39323809D01*
X133928571Y-39361904D01*
X134100000Y-39361904D01*
X134157142Y-39323809D01*
X134185714Y-39285714D01*
X133528571Y-39361904D02*
X133414285Y-39361904D01*
X133357142Y-39323809D01*
X133328571Y-39285714D01*
X133271428Y-39171428D01*
X133242857Y-39019047D01*
X133242857Y-38714285D01*
X133271428Y-38638095D01*
X133300000Y-38600000D01*
X133357142Y-38561904D01*
X133471428Y-38561904D01*
X133528571Y-38600000D01*
X133557142Y-38638095D01*
X133585714Y-38714285D01*
X133585714Y-38904761D01*
X133557142Y-38980952D01*
X133528571Y-39019047D01*
X133471428Y-39057142D01*
X133357142Y-39057142D01*
X133300000Y-39019047D01*
X133271428Y-38980952D01*
X133242857Y-38904761D01*
X136385714Y-39361904D02*
X136585714Y-38980952D01*
X136728571Y-39361904D02*
X136728571Y-38561904D01*
X136500000Y-38561904D01*
X136442857Y-38600000D01*
X136414285Y-38638095D01*
X136385714Y-38714285D01*
X136385714Y-38828571D01*
X136414285Y-38904761D01*
X136442857Y-38942857D01*
X136500000Y-38980952D01*
X136728571Y-38980952D01*
X136185714Y-38561904D02*
X135814285Y-38561904D01*
X136014285Y-38866666D01*
X135928571Y-38866666D01*
X135871428Y-38904761D01*
X135842857Y-38942857D01*
X135814285Y-39019047D01*
X135814285Y-39209523D01*
X135842857Y-39285714D01*
X135871428Y-39323809D01*
X135928571Y-39361904D01*
X136100000Y-39361904D01*
X136157142Y-39323809D01*
X136185714Y-39285714D01*
X135471428Y-38904761D02*
X135528571Y-38866666D01*
X135557142Y-38828571D01*
X135585714Y-38752380D01*
X135585714Y-38714285D01*
X135557142Y-38638095D01*
X135528571Y-38600000D01*
X135471428Y-38561904D01*
X135357142Y-38561904D01*
X135300000Y-38600000D01*
X135271428Y-38638095D01*
X135242857Y-38714285D01*
X135242857Y-38752380D01*
X135271428Y-38828571D01*
X135300000Y-38866666D01*
X135357142Y-38904761D01*
X135471428Y-38904761D01*
X135528571Y-38942857D01*
X135557142Y-38980952D01*
X135585714Y-39057142D01*
X135585714Y-39209523D01*
X135557142Y-39285714D01*
X135528571Y-39323809D01*
X135471428Y-39361904D01*
X135357142Y-39361904D01*
X135300000Y-39323809D01*
X135271428Y-39285714D01*
X135242857Y-39209523D01*
X135242857Y-39057142D01*
X135271428Y-38980952D01*
X135300000Y-38942857D01*
X135357142Y-38904761D01*
X134385714Y-30285714D02*
X134414285Y-30323809D01*
X134500000Y-30361904D01*
X134557142Y-30361904D01*
X134642857Y-30323809D01*
X134700000Y-30247619D01*
X134728571Y-30171428D01*
X134757142Y-30019047D01*
X134757142Y-29904761D01*
X134728571Y-29752380D01*
X134700000Y-29676190D01*
X134642857Y-29600000D01*
X134557142Y-29561904D01*
X134500000Y-29561904D01*
X134414285Y-29600000D01*
X134385714Y-29638095D01*
X133871428Y-29828571D02*
X133871428Y-30361904D01*
X134014285Y-29523809D02*
X134157142Y-30095238D01*
X133785714Y-30095238D01*
X133300000Y-29561904D02*
X133414285Y-29561904D01*
X133471428Y-29600000D01*
X133500000Y-29638095D01*
X133557142Y-29752380D01*
X133585714Y-29904761D01*
X133585714Y-30209523D01*
X133557142Y-30285714D01*
X133528571Y-30323809D01*
X133471428Y-30361904D01*
X133357142Y-30361904D01*
X133300000Y-30323809D01*
X133271428Y-30285714D01*
X133242857Y-30209523D01*
X133242857Y-30019047D01*
X133271428Y-29942857D01*
X133300000Y-29904761D01*
X133357142Y-29866666D01*
X133471428Y-29866666D01*
X133528571Y-29904761D01*
X133557142Y-29942857D01*
X133585714Y-30019047D01*
X140385714Y-34285714D02*
X140414285Y-34323809D01*
X140500000Y-34361904D01*
X140557142Y-34361904D01*
X140642857Y-34323809D01*
X140700000Y-34247619D01*
X140728571Y-34171428D01*
X140757142Y-34019047D01*
X140757142Y-33904761D01*
X140728571Y-33752380D01*
X140700000Y-33676190D01*
X140642857Y-33600000D01*
X140557142Y-33561904D01*
X140500000Y-33561904D01*
X140414285Y-33600000D01*
X140385714Y-33638095D01*
X139871428Y-33828571D02*
X139871428Y-34361904D01*
X140014285Y-33523809D02*
X140157142Y-34095238D01*
X139785714Y-34095238D01*
X139528571Y-34361904D02*
X139414285Y-34361904D01*
X139357142Y-34323809D01*
X139328571Y-34285714D01*
X139271428Y-34171428D01*
X139242857Y-34019047D01*
X139242857Y-33714285D01*
X139271428Y-33638095D01*
X139300000Y-33600000D01*
X139357142Y-33561904D01*
X139471428Y-33561904D01*
X139528571Y-33600000D01*
X139557142Y-33638095D01*
X139585714Y-33714285D01*
X139585714Y-33904761D01*
X139557142Y-33980952D01*
X139528571Y-34019047D01*
X139471428Y-34057142D01*
X139357142Y-34057142D01*
X139300000Y-34019047D01*
X139271428Y-33980952D01*
X139242857Y-33904761D01*
X138385714Y-34285714D02*
X138414285Y-34323809D01*
X138500000Y-34361904D01*
X138557142Y-34361904D01*
X138642857Y-34323809D01*
X138700000Y-34247619D01*
X138728571Y-34171428D01*
X138757142Y-34019047D01*
X138757142Y-33904761D01*
X138728571Y-33752380D01*
X138700000Y-33676190D01*
X138642857Y-33600000D01*
X138557142Y-33561904D01*
X138500000Y-33561904D01*
X138414285Y-33600000D01*
X138385714Y-33638095D01*
X137842857Y-33561904D02*
X138128571Y-33561904D01*
X138157142Y-33942857D01*
X138128571Y-33904761D01*
X138071428Y-33866666D01*
X137928571Y-33866666D01*
X137871428Y-33904761D01*
X137842857Y-33942857D01*
X137814285Y-34019047D01*
X137814285Y-34209523D01*
X137842857Y-34285714D01*
X137871428Y-34323809D01*
X137928571Y-34361904D01*
X138071428Y-34361904D01*
X138128571Y-34323809D01*
X138157142Y-34285714D01*
X137442857Y-33561904D02*
X137385714Y-33561904D01*
X137328571Y-33600000D01*
X137300000Y-33638095D01*
X137271428Y-33714285D01*
X137242857Y-33866666D01*
X137242857Y-34057142D01*
X137271428Y-34209523D01*
X137300000Y-34285714D01*
X137328571Y-34323809D01*
X137385714Y-34361904D01*
X137442857Y-34361904D01*
X137500000Y-34323809D01*
X137528571Y-34285714D01*
X137557142Y-34209523D01*
X137585714Y-34057142D01*
X137585714Y-33866666D01*
X137557142Y-33714285D01*
X137528571Y-33638095D01*
X137500000Y-33600000D01*
X137442857Y-33561904D01*
X136385714Y-34285714D02*
X136414285Y-34323809D01*
X136500000Y-34361904D01*
X136557142Y-34361904D01*
X136642857Y-34323809D01*
X136700000Y-34247619D01*
X136728571Y-34171428D01*
X136757142Y-34019047D01*
X136757142Y-33904761D01*
X136728571Y-33752380D01*
X136700000Y-33676190D01*
X136642857Y-33600000D01*
X136557142Y-33561904D01*
X136500000Y-33561904D01*
X136414285Y-33600000D01*
X136385714Y-33638095D01*
X135842857Y-33561904D02*
X136128571Y-33561904D01*
X136157142Y-33942857D01*
X136128571Y-33904761D01*
X136071428Y-33866666D01*
X135928571Y-33866666D01*
X135871428Y-33904761D01*
X135842857Y-33942857D01*
X135814285Y-34019047D01*
X135814285Y-34209523D01*
X135842857Y-34285714D01*
X135871428Y-34323809D01*
X135928571Y-34361904D01*
X136071428Y-34361904D01*
X136128571Y-34323809D01*
X136157142Y-34285714D01*
X135242857Y-34361904D02*
X135585714Y-34361904D01*
X135414285Y-34361904D02*
X135414285Y-33561904D01*
X135471428Y-33676190D01*
X135528571Y-33752380D01*
X135585714Y-33790476D01*
X109885714Y-31285714D02*
X109914285Y-31323809D01*
X110000000Y-31361904D01*
X110057142Y-31361904D01*
X110142857Y-31323809D01*
X110200000Y-31247619D01*
X110228571Y-31171428D01*
X110257142Y-31019047D01*
X110257142Y-30904761D01*
X110228571Y-30752380D01*
X110200000Y-30676190D01*
X110142857Y-30600000D01*
X110057142Y-30561904D01*
X110000000Y-30561904D01*
X109914285Y-30600000D01*
X109885714Y-30638095D01*
X109657142Y-30638095D02*
X109628571Y-30600000D01*
X109571428Y-30561904D01*
X109428571Y-30561904D01*
X109371428Y-30600000D01*
X109342857Y-30638095D01*
X109314285Y-30714285D01*
X109314285Y-30790476D01*
X109342857Y-30904761D01*
X109685714Y-31361904D01*
X109314285Y-31361904D01*
X108800000Y-30561904D02*
X108914285Y-30561904D01*
X108971428Y-30600000D01*
X109000000Y-30638095D01*
X109057142Y-30752380D01*
X109085714Y-30904761D01*
X109085714Y-31209523D01*
X109057142Y-31285714D01*
X109028571Y-31323809D01*
X108971428Y-31361904D01*
X108857142Y-31361904D01*
X108800000Y-31323809D01*
X108771428Y-31285714D01*
X108742857Y-31209523D01*
X108742857Y-31019047D01*
X108771428Y-30942857D01*
X108800000Y-30904761D01*
X108857142Y-30866666D01*
X108971428Y-30866666D01*
X109028571Y-30904761D01*
X109057142Y-30942857D01*
X109085714Y-31019047D01*
X109385714Y-29285714D02*
X109414285Y-29323809D01*
X109500000Y-29361904D01*
X109557142Y-29361904D01*
X109642857Y-29323809D01*
X109700000Y-29247619D01*
X109728571Y-29171428D01*
X109757142Y-29019047D01*
X109757142Y-28904761D01*
X109728571Y-28752380D01*
X109700000Y-28676190D01*
X109642857Y-28600000D01*
X109557142Y-28561904D01*
X109500000Y-28561904D01*
X109414285Y-28600000D01*
X109385714Y-28638095D01*
X109157142Y-28638095D02*
X109128571Y-28600000D01*
X109071428Y-28561904D01*
X108928571Y-28561904D01*
X108871428Y-28600000D01*
X108842857Y-28638095D01*
X108814285Y-28714285D01*
X108814285Y-28790476D01*
X108842857Y-28904761D01*
X109185714Y-29361904D01*
X108814285Y-29361904D01*
X108614285Y-28561904D02*
X108214285Y-28561904D01*
X108471428Y-29361904D01*
X124442857Y-36361904D02*
X124442857Y-35561904D01*
X124300000Y-35561904D01*
X124214285Y-35600000D01*
X124157142Y-35676190D01*
X124128571Y-35752380D01*
X124100000Y-35904761D01*
X124100000Y-36019047D01*
X124128571Y-36171428D01*
X124157142Y-36247619D01*
X124214285Y-36323809D01*
X124300000Y-36361904D01*
X124442857Y-36361904D01*
X123557142Y-35561904D02*
X123842857Y-35561904D01*
X123871428Y-35942857D01*
X123842857Y-35904761D01*
X123785714Y-35866666D01*
X123642857Y-35866666D01*
X123585714Y-35904761D01*
X123557142Y-35942857D01*
X123528571Y-36019047D01*
X123528571Y-36209523D01*
X123557142Y-36285714D01*
X123585714Y-36323809D01*
X123642857Y-36361904D01*
X123785714Y-36361904D01*
X123842857Y-36323809D01*
X123871428Y-36285714D01*
X181385714Y-42285714D02*
X181414285Y-42323809D01*
X181500000Y-42361904D01*
X181557142Y-42361904D01*
X181642857Y-42323809D01*
X181700000Y-42247619D01*
X181728571Y-42171428D01*
X181757142Y-42019047D01*
X181757142Y-41904761D01*
X181728571Y-41752380D01*
X181700000Y-41676190D01*
X181642857Y-41600000D01*
X181557142Y-41561904D01*
X181500000Y-41561904D01*
X181414285Y-41600000D01*
X181385714Y-41638095D01*
X180814285Y-42361904D02*
X181157142Y-42361904D01*
X180985714Y-42361904D02*
X180985714Y-41561904D01*
X181042857Y-41676190D01*
X181100000Y-41752380D01*
X181157142Y-41790476D01*
X180442857Y-41561904D02*
X180385714Y-41561904D01*
X180328571Y-41600000D01*
X180300000Y-41638095D01*
X180271428Y-41714285D01*
X180242857Y-41866666D01*
X180242857Y-42057142D01*
X180271428Y-42209523D01*
X180300000Y-42285714D01*
X180328571Y-42323809D01*
X180385714Y-42361904D01*
X180442857Y-42361904D01*
X180500000Y-42323809D01*
X180528571Y-42285714D01*
X180557142Y-42209523D01*
X180585714Y-42057142D01*
X180585714Y-41866666D01*
X180557142Y-41714285D01*
X180528571Y-41638095D01*
X180500000Y-41600000D01*
X180442857Y-41561904D01*
X177100000Y-42361904D02*
X177300000Y-41980952D01*
X177442857Y-42361904D02*
X177442857Y-41561904D01*
X177214285Y-41561904D01*
X177157142Y-41600000D01*
X177128571Y-41638095D01*
X177100000Y-41714285D01*
X177100000Y-41828571D01*
X177128571Y-41904761D01*
X177157142Y-41942857D01*
X177214285Y-41980952D01*
X177442857Y-41980952D01*
X176814285Y-42361904D02*
X176700000Y-42361904D01*
X176642857Y-42323809D01*
X176614285Y-42285714D01*
X176557142Y-42171428D01*
X176528571Y-42019047D01*
X176528571Y-41714285D01*
X176557142Y-41638095D01*
X176585714Y-41600000D01*
X176642857Y-41561904D01*
X176757142Y-41561904D01*
X176814285Y-41600000D01*
X176842857Y-41638095D01*
X176871428Y-41714285D01*
X176871428Y-41904761D01*
X176842857Y-41980952D01*
X176814285Y-42019047D01*
X176757142Y-42057142D01*
X176642857Y-42057142D01*
X176585714Y-42019047D01*
X176557142Y-41980952D01*
X176528571Y-41904761D01*
X179100000Y-42361904D02*
X179300000Y-41980952D01*
X179442857Y-42361904D02*
X179442857Y-41561904D01*
X179214285Y-41561904D01*
X179157142Y-41600000D01*
X179128571Y-41638095D01*
X179100000Y-41714285D01*
X179100000Y-41828571D01*
X179128571Y-41904761D01*
X179157142Y-41942857D01*
X179214285Y-41980952D01*
X179442857Y-41980952D01*
X178757142Y-41904761D02*
X178814285Y-41866666D01*
X178842857Y-41828571D01*
X178871428Y-41752380D01*
X178871428Y-41714285D01*
X178842857Y-41638095D01*
X178814285Y-41600000D01*
X178757142Y-41561904D01*
X178642857Y-41561904D01*
X178585714Y-41600000D01*
X178557142Y-41638095D01*
X178528571Y-41714285D01*
X178528571Y-41752380D01*
X178557142Y-41828571D01*
X178585714Y-41866666D01*
X178642857Y-41904761D01*
X178757142Y-41904761D01*
X178814285Y-41942857D01*
X178842857Y-41980952D01*
X178871428Y-42057142D01*
X178871428Y-42209523D01*
X178842857Y-42285714D01*
X178814285Y-42323809D01*
X178757142Y-42361904D01*
X178642857Y-42361904D01*
X178585714Y-42323809D01*
X178557142Y-42285714D01*
X178528571Y-42209523D01*
X178528571Y-42057142D01*
X178557142Y-41980952D01*
X178585714Y-41942857D01*
X178642857Y-41904761D01*
X112100000Y-44285714D02*
X112128571Y-44323809D01*
X112214285Y-44361904D01*
X112271428Y-44361904D01*
X112357142Y-44323809D01*
X112414285Y-44247619D01*
X112442857Y-44171428D01*
X112471428Y-44019047D01*
X112471428Y-43904761D01*
X112442857Y-43752380D01*
X112414285Y-43676190D01*
X112357142Y-43600000D01*
X112271428Y-43561904D01*
X112214285Y-43561904D01*
X112128571Y-43600000D01*
X112100000Y-43638095D01*
X111871428Y-43638095D02*
X111842857Y-43600000D01*
X111785714Y-43561904D01*
X111642857Y-43561904D01*
X111585714Y-43600000D01*
X111557142Y-43638095D01*
X111528571Y-43714285D01*
X111528571Y-43790476D01*
X111557142Y-43904761D01*
X111900000Y-44361904D01*
X111528571Y-44361904D01*
X112100000Y-46361904D02*
X112300000Y-45980952D01*
X112442857Y-46361904D02*
X112442857Y-45561904D01*
X112214285Y-45561904D01*
X112157142Y-45600000D01*
X112128571Y-45638095D01*
X112100000Y-45714285D01*
X112100000Y-45828571D01*
X112128571Y-45904761D01*
X112157142Y-45942857D01*
X112214285Y-45980952D01*
X112442857Y-45980952D01*
X111557142Y-45561904D02*
X111842857Y-45561904D01*
X111871428Y-45942857D01*
X111842857Y-45904761D01*
X111785714Y-45866666D01*
X111642857Y-45866666D01*
X111585714Y-45904761D01*
X111557142Y-45942857D01*
X111528571Y-46019047D01*
X111528571Y-46209523D01*
X111557142Y-46285714D01*
X111585714Y-46323809D01*
X111642857Y-46361904D01*
X111785714Y-46361904D01*
X111842857Y-46323809D01*
X111871428Y-46285714D01*
X109600000Y-39361904D02*
X109800000Y-38980952D01*
X109942857Y-39361904D02*
X109942857Y-38561904D01*
X109714285Y-38561904D01*
X109657142Y-38600000D01*
X109628571Y-38638095D01*
X109600000Y-38714285D01*
X109600000Y-38828571D01*
X109628571Y-38904761D01*
X109657142Y-38942857D01*
X109714285Y-38980952D01*
X109942857Y-38980952D01*
X109400000Y-38561904D02*
X109028571Y-38561904D01*
X109228571Y-38866666D01*
X109142857Y-38866666D01*
X109085714Y-38904761D01*
X109057142Y-38942857D01*
X109028571Y-39019047D01*
X109028571Y-39209523D01*
X109057142Y-39285714D01*
X109085714Y-39323809D01*
X109142857Y-39361904D01*
X109314285Y-39361904D01*
X109371428Y-39323809D01*
X109400000Y-39285714D01*
X113100000Y-40285714D02*
X113128571Y-40323809D01*
X113214285Y-40361904D01*
X113271428Y-40361904D01*
X113357142Y-40323809D01*
X113414285Y-40247619D01*
X113442857Y-40171428D01*
X113471428Y-40019047D01*
X113471428Y-39904761D01*
X113442857Y-39752380D01*
X113414285Y-39676190D01*
X113357142Y-39600000D01*
X113271428Y-39561904D01*
X113214285Y-39561904D01*
X113128571Y-39600000D01*
X113100000Y-39638095D01*
X112528571Y-40361904D02*
X112871428Y-40361904D01*
X112700000Y-40361904D02*
X112700000Y-39561904D01*
X112757142Y-39676190D01*
X112814285Y-39752380D01*
X112871428Y-39790476D01*
X122100000Y-40285714D02*
X122128571Y-40323809D01*
X122214285Y-40361904D01*
X122271428Y-40361904D01*
X122357142Y-40323809D01*
X122414285Y-40247619D01*
X122442857Y-40171428D01*
X122471428Y-40019047D01*
X122471428Y-39904761D01*
X122442857Y-39752380D01*
X122414285Y-39676190D01*
X122357142Y-39600000D01*
X122271428Y-39561904D01*
X122214285Y-39561904D01*
X122128571Y-39600000D01*
X122100000Y-39638095D01*
X121557142Y-39561904D02*
X121842857Y-39561904D01*
X121871428Y-39942857D01*
X121842857Y-39904761D01*
X121785714Y-39866666D01*
X121642857Y-39866666D01*
X121585714Y-39904761D01*
X121557142Y-39942857D01*
X121528571Y-40019047D01*
X121528571Y-40209523D01*
X121557142Y-40285714D01*
X121585714Y-40323809D01*
X121642857Y-40361904D01*
X121785714Y-40361904D01*
X121842857Y-40323809D01*
X121871428Y-40285714D01*
X117100000Y-31285714D02*
X117128571Y-31323809D01*
X117214285Y-31361904D01*
X117271428Y-31361904D01*
X117357142Y-31323809D01*
X117414285Y-31247619D01*
X117442857Y-31171428D01*
X117471428Y-31019047D01*
X117471428Y-30904761D01*
X117442857Y-30752380D01*
X117414285Y-30676190D01*
X117357142Y-30600000D01*
X117271428Y-30561904D01*
X117214285Y-30561904D01*
X117128571Y-30600000D01*
X117100000Y-30638095D01*
X116585714Y-30561904D02*
X116700000Y-30561904D01*
X116757142Y-30600000D01*
X116785714Y-30638095D01*
X116842857Y-30752380D01*
X116871428Y-30904761D01*
X116871428Y-31209523D01*
X116842857Y-31285714D01*
X116814285Y-31323809D01*
X116757142Y-31361904D01*
X116642857Y-31361904D01*
X116585714Y-31323809D01*
X116557142Y-31285714D01*
X116528571Y-31209523D01*
X116528571Y-31019047D01*
X116557142Y-30942857D01*
X116585714Y-30904761D01*
X116642857Y-30866666D01*
X116757142Y-30866666D01*
X116814285Y-30904761D01*
X116842857Y-30942857D01*
X116871428Y-31019047D01*
X117100000Y-25285714D02*
X117128571Y-25323809D01*
X117214285Y-25361904D01*
X117271428Y-25361904D01*
X117357142Y-25323809D01*
X117414285Y-25247619D01*
X117442857Y-25171428D01*
X117471428Y-25019047D01*
X117471428Y-24904761D01*
X117442857Y-24752380D01*
X117414285Y-24676190D01*
X117357142Y-24600000D01*
X117271428Y-24561904D01*
X117214285Y-24561904D01*
X117128571Y-24600000D01*
X117100000Y-24638095D01*
X116757142Y-24904761D02*
X116814285Y-24866666D01*
X116842857Y-24828571D01*
X116871428Y-24752380D01*
X116871428Y-24714285D01*
X116842857Y-24638095D01*
X116814285Y-24600000D01*
X116757142Y-24561904D01*
X116642857Y-24561904D01*
X116585714Y-24600000D01*
X116557142Y-24638095D01*
X116528571Y-24714285D01*
X116528571Y-24752380D01*
X116557142Y-24828571D01*
X116585714Y-24866666D01*
X116642857Y-24904761D01*
X116757142Y-24904761D01*
X116814285Y-24942857D01*
X116842857Y-24980952D01*
X116871428Y-25057142D01*
X116871428Y-25209523D01*
X116842857Y-25285714D01*
X116814285Y-25323809D01*
X116757142Y-25361904D01*
X116642857Y-25361904D01*
X116585714Y-25323809D01*
X116557142Y-25285714D01*
X116528571Y-25209523D01*
X116528571Y-25057142D01*
X116557142Y-24980952D01*
X116585714Y-24942857D01*
X116642857Y-24904761D01*
X141385714Y-43361904D02*
X141585714Y-42980952D01*
X141728571Y-43361904D02*
X141728571Y-42561904D01*
X141500000Y-42561904D01*
X141442857Y-42600000D01*
X141414285Y-42638095D01*
X141385714Y-42714285D01*
X141385714Y-42828571D01*
X141414285Y-42904761D01*
X141442857Y-42942857D01*
X141500000Y-42980952D01*
X141728571Y-42980952D01*
X140871428Y-42828571D02*
X140871428Y-43361904D01*
X141014285Y-42523809D02*
X141157142Y-43095238D01*
X140785714Y-43095238D01*
X140271428Y-42561904D02*
X140557142Y-42561904D01*
X140585714Y-42942857D01*
X140557142Y-42904761D01*
X140500000Y-42866666D01*
X140357142Y-42866666D01*
X140300000Y-42904761D01*
X140271428Y-42942857D01*
X140242857Y-43019047D01*
X140242857Y-43209523D01*
X140271428Y-43285714D01*
X140300000Y-43323809D01*
X140357142Y-43361904D01*
X140500000Y-43361904D01*
X140557142Y-43323809D01*
X140585714Y-43285714D01*
X141385714Y-41361904D02*
X141585714Y-40980952D01*
X141728571Y-41361904D02*
X141728571Y-40561904D01*
X141500000Y-40561904D01*
X141442857Y-40600000D01*
X141414285Y-40638095D01*
X141385714Y-40714285D01*
X141385714Y-40828571D01*
X141414285Y-40904761D01*
X141442857Y-40942857D01*
X141500000Y-40980952D01*
X141728571Y-40980952D01*
X140871428Y-40828571D02*
X140871428Y-41361904D01*
X141014285Y-40523809D02*
X141157142Y-41095238D01*
X140785714Y-41095238D01*
X140300000Y-40828571D02*
X140300000Y-41361904D01*
X140442857Y-40523809D02*
X140585714Y-41095238D01*
X140214285Y-41095238D01*
X141385714Y-39361904D02*
X141585714Y-38980952D01*
X141728571Y-39361904D02*
X141728571Y-38561904D01*
X141500000Y-38561904D01*
X141442857Y-38600000D01*
X141414285Y-38638095D01*
X141385714Y-38714285D01*
X141385714Y-38828571D01*
X141414285Y-38904761D01*
X141442857Y-38942857D01*
X141500000Y-38980952D01*
X141728571Y-38980952D01*
X140871428Y-38828571D02*
X140871428Y-39361904D01*
X141014285Y-38523809D02*
X141157142Y-39095238D01*
X140785714Y-39095238D01*
X140614285Y-38561904D02*
X140242857Y-38561904D01*
X140442857Y-38866666D01*
X140357142Y-38866666D01*
X140300000Y-38904761D01*
X140271428Y-38942857D01*
X140242857Y-39019047D01*
X140242857Y-39209523D01*
X140271428Y-39285714D01*
X140300000Y-39323809D01*
X140357142Y-39361904D01*
X140528571Y-39361904D01*
X140585714Y-39323809D01*
X140614285Y-39285714D01*
X119100000Y-31285714D02*
X119128571Y-31323809D01*
X119214285Y-31361904D01*
X119271428Y-31361904D01*
X119357142Y-31323809D01*
X119414285Y-31247619D01*
X119442857Y-31171428D01*
X119471428Y-31019047D01*
X119471428Y-30904761D01*
X119442857Y-30752380D01*
X119414285Y-30676190D01*
X119357142Y-30600000D01*
X119271428Y-30561904D01*
X119214285Y-30561904D01*
X119128571Y-30600000D01*
X119100000Y-30638095D01*
X118900000Y-30561904D02*
X118500000Y-30561904D01*
X118757142Y-31361904D01*
X150385714Y-30361904D02*
X150585714Y-29980952D01*
X150728571Y-30361904D02*
X150728571Y-29561904D01*
X150500000Y-29561904D01*
X150442857Y-29600000D01*
X150414285Y-29638095D01*
X150385714Y-29714285D01*
X150385714Y-29828571D01*
X150414285Y-29904761D01*
X150442857Y-29942857D01*
X150500000Y-29980952D01*
X150728571Y-29980952D01*
X149871428Y-29828571D02*
X149871428Y-30361904D01*
X150014285Y-29523809D02*
X150157142Y-30095238D01*
X149785714Y-30095238D01*
X149300000Y-29561904D02*
X149414285Y-29561904D01*
X149471428Y-29600000D01*
X149500000Y-29638095D01*
X149557142Y-29752380D01*
X149585714Y-29904761D01*
X149585714Y-30209523D01*
X149557142Y-30285714D01*
X149528571Y-30323809D01*
X149471428Y-30361904D01*
X149357142Y-30361904D01*
X149300000Y-30323809D01*
X149271428Y-30285714D01*
X149242857Y-30209523D01*
X149242857Y-30019047D01*
X149271428Y-29942857D01*
X149300000Y-29904761D01*
X149357142Y-29866666D01*
X149471428Y-29866666D01*
X149528571Y-29904761D01*
X149557142Y-29942857D01*
X149585714Y-30019047D01*
X148385714Y-30285714D02*
X148414285Y-30323809D01*
X148500000Y-30361904D01*
X148557142Y-30361904D01*
X148642857Y-30323809D01*
X148700000Y-30247619D01*
X148728571Y-30171428D01*
X148757142Y-30019047D01*
X148757142Y-29904761D01*
X148728571Y-29752380D01*
X148700000Y-29676190D01*
X148642857Y-29600000D01*
X148557142Y-29561904D01*
X148500000Y-29561904D01*
X148414285Y-29600000D01*
X148385714Y-29638095D01*
X147842857Y-29561904D02*
X148128571Y-29561904D01*
X148157142Y-29942857D01*
X148128571Y-29904761D01*
X148071428Y-29866666D01*
X147928571Y-29866666D01*
X147871428Y-29904761D01*
X147842857Y-29942857D01*
X147814285Y-30019047D01*
X147814285Y-30209523D01*
X147842857Y-30285714D01*
X147871428Y-30323809D01*
X147928571Y-30361904D01*
X148071428Y-30361904D01*
X148128571Y-30323809D01*
X148157142Y-30285714D01*
X147300000Y-29828571D02*
X147300000Y-30361904D01*
X147442857Y-29523809D02*
X147585714Y-30095238D01*
X147214285Y-30095238D01*
X116100000Y-39285714D02*
X116128571Y-39323809D01*
X116214285Y-39361904D01*
X116271428Y-39361904D01*
X116357142Y-39323809D01*
X116414285Y-39247619D01*
X116442857Y-39171428D01*
X116471428Y-39019047D01*
X116471428Y-38904761D01*
X116442857Y-38752380D01*
X116414285Y-38676190D01*
X116357142Y-38600000D01*
X116271428Y-38561904D01*
X116214285Y-38561904D01*
X116128571Y-38600000D01*
X116100000Y-38638095D01*
X115900000Y-38561904D02*
X115528571Y-38561904D01*
X115728571Y-38866666D01*
X115642857Y-38866666D01*
X115585714Y-38904761D01*
X115557142Y-38942857D01*
X115528571Y-39019047D01*
X115528571Y-39209523D01*
X115557142Y-39285714D01*
X115585714Y-39323809D01*
X115642857Y-39361904D01*
X115814285Y-39361904D01*
X115871428Y-39323809D01*
X115900000Y-39285714D01*
X119100000Y-39285714D02*
X119128571Y-39323809D01*
X119214285Y-39361904D01*
X119271428Y-39361904D01*
X119357142Y-39323809D01*
X119414285Y-39247619D01*
X119442857Y-39171428D01*
X119471428Y-39019047D01*
X119471428Y-38904761D01*
X119442857Y-38752380D01*
X119414285Y-38676190D01*
X119357142Y-38600000D01*
X119271428Y-38561904D01*
X119214285Y-38561904D01*
X119128571Y-38600000D01*
X119100000Y-38638095D01*
X118585714Y-38828571D02*
X118585714Y-39361904D01*
X118728571Y-38523809D02*
X118871428Y-39095238D01*
X118500000Y-39095238D01*
X119100000Y-24285714D02*
X119128571Y-24323809D01*
X119214285Y-24361904D01*
X119271428Y-24361904D01*
X119357142Y-24323809D01*
X119414285Y-24247619D01*
X119442857Y-24171428D01*
X119471428Y-24019047D01*
X119471428Y-23904761D01*
X119442857Y-23752380D01*
X119414285Y-23676190D01*
X119357142Y-23600000D01*
X119271428Y-23561904D01*
X119214285Y-23561904D01*
X119128571Y-23600000D01*
X119100000Y-23638095D01*
X118814285Y-24361904D02*
X118700000Y-24361904D01*
X118642857Y-24323809D01*
X118614285Y-24285714D01*
X118557142Y-24171428D01*
X118528571Y-24019047D01*
X118528571Y-23714285D01*
X118557142Y-23638095D01*
X118585714Y-23600000D01*
X118642857Y-23561904D01*
X118757142Y-23561904D01*
X118814285Y-23600000D01*
X118842857Y-23638095D01*
X118871428Y-23714285D01*
X118871428Y-23904761D01*
X118842857Y-23980952D01*
X118814285Y-24019047D01*
X118757142Y-24057142D01*
X118642857Y-24057142D01*
X118585714Y-24019047D01*
X118557142Y-23980952D01*
X118528571Y-23904761D01*
X109600000Y-37361904D02*
X109800000Y-36980952D01*
X109942857Y-37361904D02*
X109942857Y-36561904D01*
X109714285Y-36561904D01*
X109657142Y-36600000D01*
X109628571Y-36638095D01*
X109600000Y-36714285D01*
X109600000Y-36828571D01*
X109628571Y-36904761D01*
X109657142Y-36942857D01*
X109714285Y-36980952D01*
X109942857Y-36980952D01*
X109085714Y-36828571D02*
X109085714Y-37361904D01*
X109228571Y-36523809D02*
X109371428Y-37095238D01*
X109000000Y-37095238D01*
D12*
X193287142Y-43357142D02*
X193334761Y-43309523D01*
X193382380Y-43166666D01*
X193382380Y-43071428D01*
X193334761Y-42928571D01*
X193239523Y-42833333D01*
X193144285Y-42785714D01*
X192953809Y-42738095D01*
X192810952Y-42738095D01*
X192620476Y-42785714D01*
X192525238Y-42833333D01*
X192430000Y-42928571D01*
X192382380Y-43071428D01*
X192382380Y-43166666D01*
X192430000Y-43309523D01*
X192477619Y-43357142D01*
X193382380Y-44309523D02*
X193382380Y-43738095D01*
X193382380Y-44023809D02*
X192382380Y-44023809D01*
X192525238Y-43928571D01*
X192620476Y-43833333D01*
X192668095Y-43738095D01*
X193382380Y-44785714D02*
X193382380Y-44976190D01*
X193334761Y-45071428D01*
X193287142Y-45119047D01*
X193144285Y-45214285D01*
X192953809Y-45261904D01*
X192572857Y-45261904D01*
X192477619Y-45214285D01*
X192430000Y-45166666D01*
X192382380Y-45071428D01*
X192382380Y-44880952D01*
X192430000Y-44785714D01*
X192477619Y-44738095D01*
X192572857Y-44690476D01*
X192810952Y-44690476D01*
X192906190Y-44738095D01*
X192953809Y-44785714D01*
X193001428Y-44880952D01*
X193001428Y-45071428D01*
X192953809Y-45166666D01*
X192906190Y-45214285D01*
X192810952Y-45261904D01*
M02*
