M48
; DRILL file {KiCad (6.0.8)} date Wed Oct 26 00:02:11 2022
; FORMAT={-:-/ absolute / inch / decimal}
; #@! TF.CreationDate,2022-10-26T00:02:11-07:00
; #@! TF.GenerationSoftware,Kicad,Pcbnew,(6.0.8)
; #@! TF.FileFunction,Plated,1,2,PTH
FMAT,2
INCH
; #@! TA.AperFunction,Plated,PTH,ViaDrill
T1C0.0118
; #@! TA.AperFunction,Plated,PTH,ComponentDrill
T2C0.0118
; #@! TA.AperFunction,Plated,PTH,ViaDrill
T3C0.0157
; #@! TA.AperFunction,Plated,PTH,ViaDrill
T4C0.0197
; #@! TA.AperFunction,Plated,PTH,ComponentDrill
T5C0.0236
; #@! TA.AperFunction,Plated,PTH,ComponentDrill
T6C0.0295
%
G90
G05
T1
X4.6063Y-2.8346
X4.6063Y-2.874
X4.6457Y-2.2441
X4.685Y-2.6378
X4.8622Y-2.7165
X4.8622Y-2.7559
X4.8622Y-2.7953
X5.0Y-3.4646
X5.1181Y-2.8701
X5.1181Y-2.9173
X5.1969Y-2.8937
X5.2362Y-2.874
X5.2756Y-2.8346
X5.2756Y-3.2677
X5.315Y-2.5591
X5.3937Y-3.8189
X5.4512Y-2.2585
X5.4528Y-2.8543
X5.4528Y-2.8937
X5.4528Y-2.9331
X5.4528Y-2.9724
X5.4724Y-2.6772
X5.4921Y-2.815
X5.4921Y-3.2283
X5.5512Y-2.2585
X5.5512Y-3.0118
X5.5512Y-3.6614
X5.5906Y-2.5984
X5.5906Y-2.6378
X5.5906Y-2.6772
X5.5906Y-3.0118
X5.6012Y-2.2585
X5.6102Y-3.1496
X5.6102Y-3.3071
X5.6287Y-2.5972
X5.6496Y-2.8543
X5.6496Y-3.0118
X5.6512Y-2.2585
X5.6693Y-2.6575
X5.6693Y-2.6969
X5.7874Y-2.5591
X5.7874Y-3.2677
X5.8268Y-2.7953
X5.8268Y-2.9921
X5.8661Y-2.7953
X6.0827Y-2.6575
X6.122Y-2.6969
X6.4961Y-3.5827
X6.6535Y-2.2441
X6.6535Y-3.189
X6.7323Y-3.6614
X6.7717Y-2.874
X6.9291Y-3.189
X6.9685Y-2.874
T2
X6.2549Y-2.6614
X6.2549Y-2.7244
X6.2549Y-2.7874
X6.2549Y-2.8504
X6.3435Y-2.6614
X6.3435Y-2.7244
X6.3435Y-2.7874
X6.3435Y-2.8504
T3
X6.6929Y-3.2283
X6.7323Y-2.2835
X6.7717Y-3.2283
X6.811Y-2.2835
X6.9685Y-3.2283
X7.0472Y-3.2283
T4
X4.6063Y-2.1654
X4.6063Y-2.4016
X4.6063Y-3.9567
X4.685Y-3.7795
X4.685Y-3.8189
X4.685Y-4.0354
X4.7244Y-3.5433
X4.7638Y-2.6673
X4.8425Y-2.4016
X4.8819Y-2.1654
X4.9213Y-2.7067
X5.1122Y-3.7854
X5.315Y-3.0709
X5.374Y-4.1732
X5.4134Y-4.0551
X5.5906Y-3.8976
X5.5906Y-3.937
X5.6299Y-4.0945
X5.6299Y-4.1339
X5.6299Y-4.1732
X5.6693Y-2.4803
X5.6693Y-2.5984
X6.063Y-2.5984
X6.4567Y-3.937
X6.4961Y-4.0157
X6.5354Y-2.5984
X6.5354Y-2.6378
X6.5354Y-2.874
X6.5354Y-2.9134
X6.6142Y-2.5984
X6.6142Y-2.6378
X6.6142Y-2.874
X6.6142Y-2.9134
X6.7323Y-2.4016
X6.7323Y-3.1102
X6.7717Y-2.4016
X6.7717Y-3.1102
X6.811Y-2.4016
X6.811Y-3.1102
X6.9291Y-3.1102
X6.9685Y-3.1102
X7.0079Y-3.1102
T6
X4.3917Y-2.6378
X4.3917Y-2.7165
X4.3917Y-2.7953
X4.3917Y-2.874
X7.1831Y-2.1654
X7.1831Y-2.2441
X7.1831Y-2.3228
X7.1831Y-2.6772
X7.1831Y-2.7559
X7.1831Y-2.8346
X7.2047Y-3.8583
X7.2047Y-3.937
T5
G00X4.3789Y-2.1134
M15
G01X4.3553Y-2.1134
M16
G05
G00X4.3789Y-2.4535
M15
G01X4.3553Y-2.4535
M16
G05
G00X4.5533Y-2.1134
M15
G01X4.51Y-2.1134
M16
G05
G00X4.5533Y-2.4535
M15
G01X4.51Y-2.4535
M16
G05
T0
M30
