M48
; DRILL file {KiCad (5.1.10)-1} date 12/15/21 22:44:47
; FORMAT={-:-/ absolute / inch / decimal}
; #@! TF.CreationDate,2021-12-15T22:44:47-08:00
; #@! TF.GenerationSoftware,Kicad,Pcbnew,(5.1.10)-1
FMAT,2
INCH
T1C0.0118
T2C0.0236
T3C0.0315
T4C0.0394
T5C0.0402
T6C0.0472
T7C0.0866
T8C0.0256
T9C0.0390
T10C0.0454
T11C0.0935
T12C0.1039
%
G90
G05
T1
X3.7402Y-1.7717
X3.7795Y-1.7717
X4.0945Y-1.378
X4.0945Y-1.4173
X4.1732Y-1.5748
X4.1732Y-1.811
X4.252Y-1.3386
X4.252Y-1.378
X4.252Y-1.7323
X4.252Y-1.7717
X4.2913Y-1.378
X4.2913Y-1.7717
X4.3307Y-1.5354
X4.4488Y-1.378
X4.4488Y-1.6535
X4.4488Y-1.7717
X4.4882Y-1.4567
X4.7047Y-1.2992
X4.7047Y-1.6142
X4.7047Y-1.8504
X4.9213Y-1.3386
X5.1575Y-1.3386
X5.1575Y-1.378
X5.1575Y-1.5748
X5.315Y-1.5748
X5.3543Y-1.5748
X5.3543Y-1.7717
X5.4331Y-1.4961
X5.4331Y-1.6535
X5.5512Y-1.6929
X5.5512Y-1.7717
X5.6299Y-1.7717
X5.7087Y-1.5748
X5.748Y-1.3386
X5.748Y-1.6142
X5.9449Y-1.4578
X5.9843Y-1.3386
X5.9843Y-1.4173
X5.9843Y-1.4971
X5.9843Y-1.7717
X6.0236Y-1.4567
X6.1024Y-1.7717
X6.1811Y-1.4567
X6.1811Y-1.6929
X6.1811Y-1.7717
X6.2205Y-1.5354
X6.2205Y-1.5748
X6.2205Y-1.6142
X6.2205Y-1.6535
X6.4173Y-1.378
X6.437Y-1.9081
X6.4567Y-1.378
X6.4961Y-1.378
X6.5748Y-1.5354
X6.6142Y-1.2415
X6.6535Y-1.378
X6.6929Y-1.378
X6.6929Y-1.7717
X6.6929Y-1.9081
X6.752Y-1.9081
X7.0472Y-1.3189
X7.0472Y-1.752
X7.0472Y-1.8307
X7.1835Y-1.5998
X7.1835Y-1.5498
X7.2335Y-1.5498
X7.2441Y-1.6535
X7.2835Y-1.5498
X7.2835Y-1.5998
X7.3622Y-1.2992
X7.3622Y-1.378
X7.3835Y-1.5498
X7.3835Y-1.5998
X7.4409Y-1.3386
X7.4409Y-1.811
X7.4803Y-1.4961
X7.4803Y-1.5354
X7.4803Y-1.6535
X7.5984Y-1.5551
X7.6378Y-1.4961
X7.6378Y-1.5551
X7.6378Y-1.6535
X7.6772Y-1.4961
X7.9528Y-1.4173
X7.9528Y-1.7323
T3
X4.2913Y-1.4563
X4.2913Y-1.5748
X4.8622Y-1.437
X4.9409Y-1.4567
X4.9409Y-1.5157
X4.9409Y-1.6339
X4.9409Y-1.6929
X5.1378Y-1.4567
X5.1378Y-1.6535
X5.3937Y-1.4173
X6.4961Y-1.5748
X6.8307Y-1.3976
X6.8307Y-1.752
T4
X5.4906Y-1.5748
X5.5906Y-1.5748
T5
X3.937Y-1.5748
X5.9839Y-1.5748
T6
X2.8992Y-1.3748
X2.8992Y-1.7748
X3.2992Y-1.3748
X3.2992Y-1.7748
X7.6063Y-1.3748
X7.6063Y-1.7748
X8.0063Y-1.3748
X8.0063Y-1.7748
T7
X3.1496Y-1.5748
X7.7559Y-1.5748
T8
X8.047Y-1.461
X8.047Y-1.6886
T9
X7.1335Y-1.5748
X7.4335Y-1.5348
X7.4335Y-1.6148
T10
X2.6772Y-1.378
X2.6772Y-1.7717
X8.189Y-1.5748
T11
X7.1335Y-1.4748
X7.1335Y-1.6748
X7.3585Y-1.4748
X7.3585Y-1.6748
T12
X4.0453Y-1.8108
X5.8752Y-1.3388
T2
G00X8.0057Y-1.4047
M15
G01X8.049Y-1.4047
M16
G05
G00X8.0057Y-1.7449
M15
G01X8.049Y-1.7449
M16
G05
G00X8.1801Y-1.4047
M15
G01X8.2037Y-1.4047
M16
G05
G00X8.1801Y-1.7449
M15
G01X8.2037Y-1.7449
M16
G05
T0
M30
