G04 #@! TF.GenerationSoftware,KiCad,Pcbnew,(5.1.12)-1*
G04 #@! TF.CreationDate,2022-04-24T17:31:39-07:00*
G04 #@! TF.ProjectId,MultimeterTest,4d756c74-696d-4657-9465-72546573742e,rev?*
G04 #@! TF.SameCoordinates,Original*
G04 #@! TF.FileFunction,Profile,NP*
%FSLAX46Y46*%
G04 Gerber Fmt 4.6, Leading zero omitted, Abs format (unit mm)*
G04 Created by KiCad (PCBNEW (5.1.12)-1) date 2022-04-24 17:31:39*
%MOMM*%
%LPD*%
G01*
G04 APERTURE LIST*
G04 #@! TA.AperFunction,Profile*
%ADD10C,0.050000*%
G04 #@! TD*
G04 APERTURE END LIST*
D10*
X150000000Y-46500000D02*
X150000000Y-48000000D01*
X143000000Y-45500000D02*
X149000000Y-45500000D01*
X142000000Y-48000000D02*
X142000000Y-46500000D01*
X149000000Y-45500000D02*
G75*
G02*
X150000000Y-46500000I0J-1000000D01*
G01*
X142000000Y-46500000D02*
G75*
G02*
X143000000Y-45500000I1000000J0D01*
G01*
X142000000Y-48000000D02*
G75*
G02*
X141000000Y-49000000I-1000000J0D01*
G01*
X151000000Y-49000000D02*
G75*
G02*
X150000000Y-48000000I0J1000000D01*
G01*
X151000000Y-49000000D02*
X185000000Y-49000000D01*
X185000000Y-31000000D02*
X188000000Y-34000000D01*
X188000000Y-46000000D02*
X185000000Y-49000000D01*
X202000000Y-46000000D02*
X197719267Y-46001082D01*
X203000000Y-35000000D02*
X203000000Y-45000000D01*
X202000000Y-34000000D02*
G75*
G02*
X203000000Y-35000000I0J-1000000D01*
G01*
X203000000Y-45000000D02*
G75*
G02*
X202000000Y-46000000I-1000000J0D01*
G01*
X195000000Y-46000000D02*
X188000000Y-46000000D01*
X195001606Y-33998918D02*
X188000000Y-34000000D01*
X195001606Y-33998918D02*
G75*
G02*
X197720873Y-34000000I1359267J-921082D01*
G01*
X202000000Y-34000000D02*
X197720873Y-34000000D01*
X197719267Y-46001082D02*
G75*
G02*
X195000000Y-46000000I-1359267J921082D01*
G01*
X68000000Y-46000000D02*
X72279127Y-46000000D01*
X74998394Y-46001082D02*
G75*
G02*
X72279127Y-46000000I-1359267J921082D01*
G01*
X72280733Y-33998918D02*
G75*
G02*
X75000000Y-34000000I1359267J-921082D01*
G01*
X74998394Y-46001082D02*
X82000000Y-46000000D01*
X75000000Y-34000000D02*
X82000000Y-34000000D01*
X68000000Y-46000000D02*
G75*
G02*
X67000000Y-45000000I0J1000000D01*
G01*
X67000000Y-35000000D02*
G75*
G02*
X68000000Y-34000000I1000000J0D01*
G01*
X67000000Y-45000000D02*
X67000000Y-35000000D01*
X85000000Y-49000000D02*
X82000000Y-46000000D01*
X185000000Y-31000000D02*
X85000000Y-31000000D01*
X85000000Y-49000000D02*
X141000000Y-49000000D01*
X85000000Y-31000000D02*
X82000000Y-34000000D01*
X68000000Y-34000000D02*
X72280733Y-33998918D01*
M02*
