G04 #@! TF.GenerationSoftware,KiCad,Pcbnew,(5.1.10)-1*
G04 #@! TF.CreationDate,2021-12-15T22:44:45-08:00*
G04 #@! TF.ProjectId,MultimeterTest,4d756c74-696d-4657-9465-72546573742e,rev?*
G04 #@! TF.SameCoordinates,Original*
G04 #@! TF.FileFunction,Legend,Top*
G04 #@! TF.FilePolarity,Positive*
%FSLAX46Y46*%
G04 Gerber Fmt 4.6, Leading zero omitted, Abs format (unit mm)*
G04 Created by KiCad (PCBNEW (5.1.10)-1) date 2021-12-15 22:44:45*
%MOMM*%
%LPD*%
G01*
G04 APERTURE LIST*
%ADD10C,0.120000*%
%ADD11C,0.100000*%
G04 APERTURE END LIST*
D10*
X142000000Y-33440000D02*
X138550000Y-33440000D01*
X142000000Y-33440000D02*
X143950000Y-33440000D01*
X142000000Y-38560000D02*
X140050000Y-38560000D01*
X142000000Y-38560000D02*
X143950000Y-38560000D01*
X110100000Y-46610000D02*
X112550000Y-46610000D01*
X111900000Y-43390000D02*
X110100000Y-43390000D01*
X87600000Y-43350000D02*
X93000000Y-43350000D01*
X87600000Y-46650000D02*
X93000000Y-46650000D01*
X87600000Y-43350000D02*
X87600000Y-46650000D01*
X106700000Y-43840000D02*
X105300000Y-43840000D01*
X105300000Y-46160000D02*
X107200000Y-46160000D01*
X102930000Y-41570000D02*
X102930000Y-41270000D01*
X107070000Y-38430000D02*
X107070000Y-38730000D01*
X107070000Y-41270000D02*
X107070000Y-41570000D01*
X102930000Y-38430000D02*
X107070000Y-38430000D01*
X102930000Y-38730000D02*
X102930000Y-38430000D01*
X107070000Y-41570000D02*
X102930000Y-41570000D01*
X191300000Y-39160000D02*
X192700000Y-39160000D01*
X192700000Y-36840000D02*
X190800000Y-36840000D01*
X106700000Y-33840000D02*
X104800000Y-33840000D01*
X105300000Y-36160000D02*
X106700000Y-36160000D01*
X88822936Y-36710000D02*
X93177064Y-36710000D01*
X88822936Y-33290000D02*
X93177064Y-33290000D01*
X110100000Y-36610000D02*
X111900000Y-36610000D01*
X111900000Y-33390000D02*
X109450000Y-33390000D01*
X143330000Y-38670000D02*
X143330000Y-40000000D01*
X142000000Y-38670000D02*
X143330000Y-38670000D01*
X140730000Y-38670000D02*
X140730000Y-41330000D01*
X140730000Y-41330000D02*
X138130000Y-41330000D01*
X140730000Y-38670000D02*
X138130000Y-38670000D01*
X138130000Y-38670000D02*
X138130000Y-41330000D01*
X142000000Y-41440000D02*
X140050000Y-41440000D01*
X142000000Y-41440000D02*
X143950000Y-41440000D01*
X142000000Y-46560000D02*
X140050000Y-46560000D01*
X142000000Y-46560000D02*
X145450000Y-46560000D01*
X210785000Y-35420000D02*
X210785000Y-44580000D01*
X210785000Y-44580000D02*
X209080000Y-44580000D01*
X209080000Y-35420000D02*
X210785000Y-35420000D01*
X207070000Y-35420000D02*
X205150000Y-35420000D01*
X205150000Y-44580000D02*
X207070000Y-44580000D01*
D11*
X82250000Y-43750000D02*
X82500000Y-44000000D01*
X82250000Y-44250000D02*
X82250000Y-43750000D01*
X82500000Y-44000000D02*
X82250000Y-44250000D01*
X75500000Y-44250000D02*
X75750000Y-44500000D01*
X75500000Y-44750000D02*
X75500000Y-44250000D01*
X75750000Y-44500000D02*
X75500000Y-44750000D01*
X75500000Y-43750000D02*
X75500000Y-43250000D01*
X75750000Y-43500000D02*
X75500000Y-43750000D01*
X75500000Y-43250000D02*
X75750000Y-43500000D01*
X82000000Y-44500000D02*
X82000000Y-43500000D01*
X80750000Y-44750000D02*
X81750000Y-44750000D01*
X82000000Y-43500000D02*
X81750000Y-43250000D01*
X80750000Y-43250000D02*
X80500000Y-43500000D01*
X81750000Y-43250000D02*
X80750000Y-43250000D01*
X81750000Y-44750000D02*
X82000000Y-44500000D01*
X80500000Y-44500000D02*
X80750000Y-44750000D01*
X80500000Y-44250000D02*
X80500000Y-43750000D01*
X79250000Y-44750000D02*
X80250000Y-44750000D01*
X80500000Y-43500000D02*
X80250000Y-43250000D01*
X79250000Y-43250000D02*
X79000000Y-43500000D01*
X80250000Y-43250000D02*
X79250000Y-43250000D01*
X80250000Y-44750000D02*
X80500000Y-44500000D01*
X79000000Y-44500000D02*
X79250000Y-44750000D01*
X79000000Y-44250000D02*
X79000000Y-43750000D01*
X77750000Y-44750000D02*
X78750000Y-44750000D01*
X79000000Y-43500000D02*
X78750000Y-43250000D01*
X77750000Y-43250000D02*
X77500000Y-43500000D01*
X78750000Y-43250000D02*
X77750000Y-43250000D01*
X78750000Y-44750000D02*
X79000000Y-44500000D01*
X77500000Y-44500000D02*
X77750000Y-44750000D01*
X76000000Y-43500000D02*
X76000000Y-44500000D01*
X77250000Y-43250000D02*
X76250000Y-43250000D01*
X76250000Y-43250000D02*
X76000000Y-43500000D01*
X77500000Y-43500000D02*
X77250000Y-43250000D01*
X77500000Y-44250000D02*
X77500000Y-43750000D01*
X77250000Y-44750000D02*
X77500000Y-44500000D01*
X76250000Y-44750000D02*
X77250000Y-44750000D01*
X76000000Y-44500000D02*
X76250000Y-44750000D01*
D10*
X156700000Y-42160000D02*
X155500000Y-42160000D01*
X162500000Y-36350000D02*
X160760000Y-36350000D01*
X162500000Y-43650000D02*
X162500000Y-36350000D01*
X160760000Y-43650000D02*
X162500000Y-43650000D01*
X156700000Y-36350000D02*
X158040000Y-36350000D01*
X156700000Y-37840000D02*
X156700000Y-36350000D01*
X156700000Y-43650000D02*
X158040000Y-43650000D01*
X156700000Y-42160000D02*
X156700000Y-43650000D01*
X134485000Y-39265000D02*
X132200000Y-39265000D01*
X134485000Y-40735000D02*
X134485000Y-39265000D01*
X132200000Y-40735000D02*
X134485000Y-40735000D01*
X191100000Y-43610000D02*
X192900000Y-43610000D01*
X192900000Y-40390000D02*
X190450000Y-40390000D01*
X127100000Y-38610000D02*
X129550000Y-38610000D01*
X128900000Y-35390000D02*
X127100000Y-35390000D01*
X128900000Y-41390000D02*
X126450000Y-41390000D01*
X127100000Y-44610000D02*
X128900000Y-44610000D01*
X169650000Y-40950000D02*
X170800000Y-40950000D01*
X169200000Y-39050000D02*
X170800000Y-39050000D01*
X167930000Y-35570000D02*
X167930000Y-35270000D01*
X172070000Y-32430000D02*
X172070000Y-32730000D01*
X172070000Y-35270000D02*
X172070000Y-35570000D01*
X167930000Y-32430000D02*
X172070000Y-32430000D01*
X167930000Y-32730000D02*
X167930000Y-32430000D01*
X172070000Y-35570000D02*
X167930000Y-35570000D01*
X172070000Y-47570000D02*
X167930000Y-47570000D01*
X167930000Y-44730000D02*
X167930000Y-44430000D01*
X167930000Y-44430000D02*
X172070000Y-44430000D01*
X172070000Y-47270000D02*
X172070000Y-47570000D01*
X172070000Y-44430000D02*
X172070000Y-44730000D01*
X167930000Y-47570000D02*
X167930000Y-47270000D01*
X182460000Y-41270000D02*
X181825000Y-41270000D01*
X181825000Y-41270000D02*
X181825000Y-40635000D01*
X127600378Y-40560000D02*
X128399622Y-40560000D01*
X127600378Y-39440000D02*
X128399622Y-39440000D01*
D11*
X141257142Y-32561904D02*
X141257142Y-33209523D01*
X141285714Y-33285714D01*
X141314285Y-33323809D01*
X141371428Y-33361904D01*
X141485714Y-33361904D01*
X141542857Y-33323809D01*
X141571428Y-33285714D01*
X141600000Y-33209523D01*
X141600000Y-32561904D01*
X142200000Y-33361904D02*
X141857142Y-33361904D01*
X142028571Y-33361904D02*
X142028571Y-32561904D01*
X141971428Y-32676190D01*
X141914285Y-32752380D01*
X141857142Y-32790476D01*
X142400000Y-32561904D02*
X142771428Y-32561904D01*
X142571428Y-32866666D01*
X142657142Y-32866666D01*
X142714285Y-32904761D01*
X142742857Y-32942857D01*
X142771428Y-33019047D01*
X142771428Y-33209523D01*
X142742857Y-33285714D01*
X142714285Y-33323809D01*
X142657142Y-33361904D01*
X142485714Y-33361904D01*
X142428571Y-33323809D01*
X142400000Y-33285714D01*
X110257142Y-47061904D02*
X110257142Y-47709523D01*
X110285714Y-47785714D01*
X110314285Y-47823809D01*
X110371428Y-47861904D01*
X110485714Y-47861904D01*
X110542857Y-47823809D01*
X110571428Y-47785714D01*
X110600000Y-47709523D01*
X110600000Y-47061904D01*
X111200000Y-47861904D02*
X110857142Y-47861904D01*
X111028571Y-47861904D02*
X111028571Y-47061904D01*
X110971428Y-47176190D01*
X110914285Y-47252380D01*
X110857142Y-47290476D01*
X111714285Y-47328571D02*
X111714285Y-47861904D01*
X111571428Y-47023809D02*
X111428571Y-47595238D01*
X111800000Y-47595238D01*
X90557142Y-42861904D02*
X90557142Y-42061904D01*
X90700000Y-42061904D01*
X90785714Y-42100000D01*
X90842857Y-42176190D01*
X90871428Y-42252380D01*
X90900000Y-42404761D01*
X90900000Y-42519047D01*
X90871428Y-42671428D01*
X90842857Y-42747619D01*
X90785714Y-42823809D01*
X90700000Y-42861904D01*
X90557142Y-42861904D01*
X91414285Y-42061904D02*
X91300000Y-42061904D01*
X91242857Y-42100000D01*
X91214285Y-42138095D01*
X91157142Y-42252380D01*
X91128571Y-42404761D01*
X91128571Y-42709523D01*
X91157142Y-42785714D01*
X91185714Y-42823809D01*
X91242857Y-42861904D01*
X91357142Y-42861904D01*
X91414285Y-42823809D01*
X91442857Y-42785714D01*
X91471428Y-42709523D01*
X91471428Y-42519047D01*
X91442857Y-42442857D01*
X91414285Y-42404761D01*
X91357142Y-42366666D01*
X91242857Y-42366666D01*
X91185714Y-42404761D01*
X91157142Y-42442857D01*
X91128571Y-42519047D01*
X105257142Y-46561904D02*
X105257142Y-47209523D01*
X105285714Y-47285714D01*
X105314285Y-47323809D01*
X105371428Y-47361904D01*
X105485714Y-47361904D01*
X105542857Y-47323809D01*
X105571428Y-47285714D01*
X105600000Y-47209523D01*
X105600000Y-46561904D01*
X106200000Y-47361904D02*
X105857142Y-47361904D01*
X106028571Y-47361904D02*
X106028571Y-46561904D01*
X105971428Y-46676190D01*
X105914285Y-46752380D01*
X105857142Y-46790476D01*
X106742857Y-46561904D02*
X106457142Y-46561904D01*
X106428571Y-46942857D01*
X106457142Y-46904761D01*
X106514285Y-46866666D01*
X106657142Y-46866666D01*
X106714285Y-46904761D01*
X106742857Y-46942857D01*
X106771428Y-47019047D01*
X106771428Y-47209523D01*
X106742857Y-47285714D01*
X106714285Y-47323809D01*
X106657142Y-47361904D01*
X106514285Y-47361904D01*
X106457142Y-47323809D01*
X106428571Y-47285714D01*
X104200000Y-42573809D02*
X104285714Y-42611904D01*
X104428571Y-42611904D01*
X104485714Y-42573809D01*
X104514285Y-42535714D01*
X104542857Y-42459523D01*
X104542857Y-42383333D01*
X104514285Y-42307142D01*
X104485714Y-42269047D01*
X104428571Y-42230952D01*
X104314285Y-42192857D01*
X104257142Y-42154761D01*
X104228571Y-42116666D01*
X104200000Y-42040476D01*
X104200000Y-41964285D01*
X104228571Y-41888095D01*
X104257142Y-41850000D01*
X104314285Y-41811904D01*
X104457142Y-41811904D01*
X104542857Y-41850000D01*
X104742857Y-41811904D02*
X104885714Y-42611904D01*
X105000000Y-42040476D01*
X105114285Y-42611904D01*
X105257142Y-41811904D01*
X105800000Y-42611904D02*
X105457142Y-42611904D01*
X105628571Y-42611904D02*
X105628571Y-41811904D01*
X105571428Y-41926190D01*
X105514285Y-42002380D01*
X105457142Y-42040476D01*
X191257142Y-36061904D02*
X191257142Y-36709523D01*
X191285714Y-36785714D01*
X191314285Y-36823809D01*
X191371428Y-36861904D01*
X191485714Y-36861904D01*
X191542857Y-36823809D01*
X191571428Y-36785714D01*
X191600000Y-36709523D01*
X191600000Y-36061904D01*
X192200000Y-36861904D02*
X191857142Y-36861904D01*
X192028571Y-36861904D02*
X192028571Y-36061904D01*
X191971428Y-36176190D01*
X191914285Y-36252380D01*
X191857142Y-36290476D01*
X192571428Y-36061904D02*
X192628571Y-36061904D01*
X192685714Y-36100000D01*
X192714285Y-36138095D01*
X192742857Y-36214285D01*
X192771428Y-36366666D01*
X192771428Y-36557142D01*
X192742857Y-36709523D01*
X192714285Y-36785714D01*
X192685714Y-36823809D01*
X192628571Y-36861904D01*
X192571428Y-36861904D01*
X192514285Y-36823809D01*
X192485714Y-36785714D01*
X192457142Y-36709523D01*
X192428571Y-36557142D01*
X192428571Y-36366666D01*
X192457142Y-36214285D01*
X192485714Y-36138095D01*
X192514285Y-36100000D01*
X192571428Y-36061904D01*
X105257142Y-32561904D02*
X105257142Y-33209523D01*
X105285714Y-33285714D01*
X105314285Y-33323809D01*
X105371428Y-33361904D01*
X105485714Y-33361904D01*
X105542857Y-33323809D01*
X105571428Y-33285714D01*
X105600000Y-33209523D01*
X105600000Y-32561904D01*
X106200000Y-33361904D02*
X105857142Y-33361904D01*
X106028571Y-33361904D02*
X106028571Y-32561904D01*
X105971428Y-32676190D01*
X105914285Y-32752380D01*
X105857142Y-32790476D01*
X106771428Y-33361904D02*
X106428571Y-33361904D01*
X106600000Y-33361904D02*
X106600000Y-32561904D01*
X106542857Y-32676190D01*
X106485714Y-32752380D01*
X106428571Y-32790476D01*
X90614285Y-32741904D02*
X90414285Y-32360952D01*
X90271428Y-32741904D02*
X90271428Y-31941904D01*
X90500000Y-31941904D01*
X90557142Y-31980000D01*
X90585714Y-32018095D01*
X90614285Y-32094285D01*
X90614285Y-32208571D01*
X90585714Y-32284761D01*
X90557142Y-32322857D01*
X90500000Y-32360952D01*
X90271428Y-32360952D01*
X91185714Y-32741904D02*
X90842857Y-32741904D01*
X91014285Y-32741904D02*
X91014285Y-31941904D01*
X90957142Y-32056190D01*
X90900000Y-32132380D01*
X90842857Y-32170476D01*
X91385714Y-31941904D02*
X91785714Y-31941904D01*
X91528571Y-32741904D01*
X110257142Y-32061904D02*
X110257142Y-32709523D01*
X110285714Y-32785714D01*
X110314285Y-32823809D01*
X110371428Y-32861904D01*
X110485714Y-32861904D01*
X110542857Y-32823809D01*
X110571428Y-32785714D01*
X110600000Y-32709523D01*
X110600000Y-32061904D01*
X111200000Y-32861904D02*
X110857142Y-32861904D01*
X111028571Y-32861904D02*
X111028571Y-32061904D01*
X110971428Y-32176190D01*
X110914285Y-32252380D01*
X110857142Y-32290476D01*
X111428571Y-32138095D02*
X111457142Y-32100000D01*
X111514285Y-32061904D01*
X111657142Y-32061904D01*
X111714285Y-32100000D01*
X111742857Y-32138095D01*
X111771428Y-32214285D01*
X111771428Y-32290476D01*
X111742857Y-32404761D01*
X111400000Y-32861904D01*
X111771428Y-32861904D01*
X143872857Y-39561904D02*
X143872857Y-40209523D01*
X143901428Y-40285714D01*
X143930000Y-40323809D01*
X143987142Y-40361904D01*
X144101428Y-40361904D01*
X144158571Y-40323809D01*
X144187142Y-40285714D01*
X144215714Y-40209523D01*
X144215714Y-39561904D01*
X144530000Y-40361904D02*
X144644285Y-40361904D01*
X144701428Y-40323809D01*
X144730000Y-40285714D01*
X144787142Y-40171428D01*
X144815714Y-40019047D01*
X144815714Y-39714285D01*
X144787142Y-39638095D01*
X144758571Y-39600000D01*
X144701428Y-39561904D01*
X144587142Y-39561904D01*
X144530000Y-39600000D01*
X144501428Y-39638095D01*
X144472857Y-39714285D01*
X144472857Y-39904761D01*
X144501428Y-39980952D01*
X144530000Y-40019047D01*
X144587142Y-40057142D01*
X144701428Y-40057142D01*
X144758571Y-40019047D01*
X144787142Y-39980952D01*
X144815714Y-39904761D01*
X141542857Y-46561904D02*
X141542857Y-47209523D01*
X141571428Y-47285714D01*
X141600000Y-47323809D01*
X141657142Y-47361904D01*
X141771428Y-47361904D01*
X141828571Y-47323809D01*
X141857142Y-47285714D01*
X141885714Y-47209523D01*
X141885714Y-46561904D01*
X142257142Y-46904761D02*
X142200000Y-46866666D01*
X142171428Y-46828571D01*
X142142857Y-46752380D01*
X142142857Y-46714285D01*
X142171428Y-46638095D01*
X142200000Y-46600000D01*
X142257142Y-46561904D01*
X142371428Y-46561904D01*
X142428571Y-46600000D01*
X142457142Y-46638095D01*
X142485714Y-46714285D01*
X142485714Y-46752380D01*
X142457142Y-46828571D01*
X142428571Y-46866666D01*
X142371428Y-46904761D01*
X142257142Y-46904761D01*
X142200000Y-46942857D01*
X142171428Y-46980952D01*
X142142857Y-47057142D01*
X142142857Y-47209523D01*
X142171428Y-47285714D01*
X142200000Y-47323809D01*
X142257142Y-47361904D01*
X142371428Y-47361904D01*
X142428571Y-47323809D01*
X142457142Y-47285714D01*
X142485714Y-47209523D01*
X142485714Y-47057142D01*
X142457142Y-46980952D01*
X142428571Y-46942857D01*
X142371428Y-46904761D01*
X201085000Y-39561904D02*
X201085000Y-40133333D01*
X201056428Y-40247619D01*
X200999285Y-40323809D01*
X200913571Y-40361904D01*
X200856428Y-40361904D01*
X201685000Y-40361904D02*
X201342142Y-40361904D01*
X201513571Y-40361904D02*
X201513571Y-39561904D01*
X201456428Y-39676190D01*
X201399285Y-39752380D01*
X201342142Y-39790476D01*
X69800000Y-34561904D02*
X70171428Y-34561904D01*
X69971428Y-34866666D01*
X70057142Y-34866666D01*
X70114285Y-34904761D01*
X70142857Y-34942857D01*
X70171428Y-35019047D01*
X70171428Y-35209523D01*
X70142857Y-35285714D01*
X70114285Y-35323809D01*
X70057142Y-35361904D01*
X69885714Y-35361904D01*
X69828571Y-35323809D01*
X69800000Y-35285714D01*
X70114285Y-44828571D02*
X70114285Y-45361904D01*
X69971428Y-44523809D02*
X69828571Y-45095238D01*
X70200000Y-45095238D01*
X210142857Y-39561904D02*
X209857142Y-39561904D01*
X209828571Y-39942857D01*
X209857142Y-39904761D01*
X209914285Y-39866666D01*
X210057142Y-39866666D01*
X210114285Y-39904761D01*
X210142857Y-39942857D01*
X210171428Y-40019047D01*
X210171428Y-40209523D01*
X210142857Y-40285714D01*
X210114285Y-40323809D01*
X210057142Y-40361904D01*
X209914285Y-40361904D01*
X209857142Y-40323809D01*
X209828571Y-40285714D01*
X153842857Y-39561904D02*
X153842857Y-40209523D01*
X153871428Y-40285714D01*
X153900000Y-40323809D01*
X153957142Y-40361904D01*
X154071428Y-40361904D01*
X154128571Y-40323809D01*
X154157142Y-40285714D01*
X154185714Y-40209523D01*
X154185714Y-39561904D01*
X154414285Y-39561904D02*
X154814285Y-39561904D01*
X154557142Y-40361904D01*
X135057142Y-40361904D02*
X135057142Y-39561904D01*
X135200000Y-39561904D01*
X135285714Y-39600000D01*
X135342857Y-39676190D01*
X135371428Y-39752380D01*
X135400000Y-39904761D01*
X135400000Y-40019047D01*
X135371428Y-40171428D01*
X135342857Y-40247619D01*
X135285714Y-40323809D01*
X135200000Y-40361904D01*
X135057142Y-40361904D01*
X135600000Y-39561904D02*
X135971428Y-39561904D01*
X135771428Y-39866666D01*
X135857142Y-39866666D01*
X135914285Y-39904761D01*
X135942857Y-39942857D01*
X135971428Y-40019047D01*
X135971428Y-40209523D01*
X135942857Y-40285714D01*
X135914285Y-40323809D01*
X135857142Y-40361904D01*
X135685714Y-40361904D01*
X135628571Y-40323809D01*
X135600000Y-40285714D01*
X191542857Y-43561904D02*
X191542857Y-44209523D01*
X191571428Y-44285714D01*
X191600000Y-44323809D01*
X191657142Y-44361904D01*
X191771428Y-44361904D01*
X191828571Y-44323809D01*
X191857142Y-44285714D01*
X191885714Y-44209523D01*
X191885714Y-43561904D01*
X192428571Y-43828571D02*
X192428571Y-44361904D01*
X192285714Y-43523809D02*
X192142857Y-44095238D01*
X192514285Y-44095238D01*
X127542857Y-34061904D02*
X127542857Y-34709523D01*
X127571428Y-34785714D01*
X127600000Y-34823809D01*
X127657142Y-34861904D01*
X127771428Y-34861904D01*
X127828571Y-34823809D01*
X127857142Y-34785714D01*
X127885714Y-34709523D01*
X127885714Y-34061904D01*
X128142857Y-34138095D02*
X128171428Y-34100000D01*
X128228571Y-34061904D01*
X128371428Y-34061904D01*
X128428571Y-34100000D01*
X128457142Y-34138095D01*
X128485714Y-34214285D01*
X128485714Y-34290476D01*
X128457142Y-34404761D01*
X128114285Y-34861904D01*
X128485714Y-34861904D01*
X127542857Y-45061904D02*
X127542857Y-45709523D01*
X127571428Y-45785714D01*
X127600000Y-45823809D01*
X127657142Y-45861904D01*
X127771428Y-45861904D01*
X127828571Y-45823809D01*
X127857142Y-45785714D01*
X127885714Y-45709523D01*
X127885714Y-45061904D01*
X128114285Y-45061904D02*
X128485714Y-45061904D01*
X128285714Y-45366666D01*
X128371428Y-45366666D01*
X128428571Y-45404761D01*
X128457142Y-45442857D01*
X128485714Y-45519047D01*
X128485714Y-45709523D01*
X128457142Y-45785714D01*
X128428571Y-45823809D01*
X128371428Y-45861904D01*
X128200000Y-45861904D01*
X128142857Y-45823809D01*
X128114285Y-45785714D01*
X169557142Y-41861904D02*
X169557142Y-41061904D01*
X169700000Y-41061904D01*
X169785714Y-41100000D01*
X169842857Y-41176190D01*
X169871428Y-41252380D01*
X169900000Y-41404761D01*
X169900000Y-41519047D01*
X169871428Y-41671428D01*
X169842857Y-41747619D01*
X169785714Y-41823809D01*
X169700000Y-41861904D01*
X169557142Y-41861904D01*
X170442857Y-41061904D02*
X170157142Y-41061904D01*
X170128571Y-41442857D01*
X170157142Y-41404761D01*
X170214285Y-41366666D01*
X170357142Y-41366666D01*
X170414285Y-41404761D01*
X170442857Y-41442857D01*
X170471428Y-41519047D01*
X170471428Y-41709523D01*
X170442857Y-41785714D01*
X170414285Y-41823809D01*
X170357142Y-41861904D01*
X170214285Y-41861904D01*
X170157142Y-41823809D01*
X170128571Y-41785714D01*
X169200000Y-36823809D02*
X169285714Y-36861904D01*
X169428571Y-36861904D01*
X169485714Y-36823809D01*
X169514285Y-36785714D01*
X169542857Y-36709523D01*
X169542857Y-36633333D01*
X169514285Y-36557142D01*
X169485714Y-36519047D01*
X169428571Y-36480952D01*
X169314285Y-36442857D01*
X169257142Y-36404761D01*
X169228571Y-36366666D01*
X169200000Y-36290476D01*
X169200000Y-36214285D01*
X169228571Y-36138095D01*
X169257142Y-36100000D01*
X169314285Y-36061904D01*
X169457142Y-36061904D01*
X169542857Y-36100000D01*
X169742857Y-36061904D02*
X169885714Y-36861904D01*
X170000000Y-36290476D01*
X170114285Y-36861904D01*
X170257142Y-36061904D01*
X170457142Y-36138095D02*
X170485714Y-36100000D01*
X170542857Y-36061904D01*
X170685714Y-36061904D01*
X170742857Y-36100000D01*
X170771428Y-36138095D01*
X170800000Y-36214285D01*
X170800000Y-36290476D01*
X170771428Y-36404761D01*
X170428571Y-36861904D01*
X170800000Y-36861904D01*
X169200000Y-43823809D02*
X169285714Y-43861904D01*
X169428571Y-43861904D01*
X169485714Y-43823809D01*
X169514285Y-43785714D01*
X169542857Y-43709523D01*
X169542857Y-43633333D01*
X169514285Y-43557142D01*
X169485714Y-43519047D01*
X169428571Y-43480952D01*
X169314285Y-43442857D01*
X169257142Y-43404761D01*
X169228571Y-43366666D01*
X169200000Y-43290476D01*
X169200000Y-43214285D01*
X169228571Y-43138095D01*
X169257142Y-43100000D01*
X169314285Y-43061904D01*
X169457142Y-43061904D01*
X169542857Y-43100000D01*
X169742857Y-43061904D02*
X169885714Y-43861904D01*
X170000000Y-43290476D01*
X170114285Y-43861904D01*
X170257142Y-43061904D01*
X170428571Y-43061904D02*
X170800000Y-43061904D01*
X170600000Y-43366666D01*
X170685714Y-43366666D01*
X170742857Y-43404761D01*
X170771428Y-43442857D01*
X170800000Y-43519047D01*
X170800000Y-43709523D01*
X170771428Y-43785714D01*
X170742857Y-43823809D01*
X170685714Y-43861904D01*
X170514285Y-43861904D01*
X170457142Y-43823809D01*
X170428571Y-43785714D01*
X184800000Y-44561904D02*
X184800000Y-45133333D01*
X184771428Y-45247619D01*
X184714285Y-45323809D01*
X184628571Y-45361904D01*
X184571428Y-45361904D01*
X185057142Y-44638095D02*
X185085714Y-44600000D01*
X185142857Y-44561904D01*
X185285714Y-44561904D01*
X185342857Y-44600000D01*
X185371428Y-44638095D01*
X185400000Y-44714285D01*
X185400000Y-44790476D01*
X185371428Y-44904761D01*
X185028571Y-45361904D01*
X185400000Y-45361904D01*
X125400000Y-40361904D02*
X125114285Y-40361904D01*
X125114285Y-39561904D01*
X125914285Y-40361904D02*
X125571428Y-40361904D01*
X125742857Y-40361904D02*
X125742857Y-39561904D01*
X125685714Y-39676190D01*
X125628571Y-39752380D01*
X125571428Y-39790476D01*
M02*
