G04 #@! TF.GenerationSoftware,KiCad,Pcbnew,(5.1.12)-1*
G04 #@! TF.CreationDate,2022-04-24T17:31:39-07:00*
G04 #@! TF.ProjectId,MultimeterTest,4d756c74-696d-4657-9465-72546573742e,rev?*
G04 #@! TF.SameCoordinates,Original*
G04 #@! TF.FileFunction,Legend,Bot*
G04 #@! TF.FilePolarity,Positive*
%FSLAX46Y46*%
G04 Gerber Fmt 4.6, Leading zero omitted, Abs format (unit mm)*
G04 Created by KiCad (PCBNEW (5.1.12)-1) date 2022-04-24 17:31:39*
%MOMM*%
%LPD*%
G01*
G04 APERTURE LIST*
%ADD10C,0.120000*%
%ADD11C,0.150000*%
%ADD12C,0.100000*%
G04 APERTURE END LIST*
D10*
X143900000Y-34400000D02*
X128100000Y-34400000D01*
X128100000Y-45600000D02*
X143900000Y-45600000D01*
X145900000Y-32400000D02*
X163900000Y-32400000D01*
X145900000Y-47600000D02*
X163900000Y-47600000D01*
X108100000Y-47600000D02*
X126100000Y-47600000D01*
X163900000Y-47600000D02*
X163900000Y-32400000D01*
X108100000Y-32400000D02*
X126100000Y-32400000D01*
X108100000Y-47600000D02*
X108100000Y-32400000D01*
X107380000Y-48565000D02*
X164620000Y-48565000D01*
X107380000Y-31435000D02*
X107380000Y-48565000D01*
X164620000Y-31435000D02*
X107380000Y-31435000D01*
X164620000Y-48565000D02*
X164620000Y-31435000D01*
X157310000Y-41060000D02*
X157310000Y-39060000D01*
X160310000Y-44060000D02*
X160310000Y-36060000D01*
X159310000Y-37060000D02*
X159310000Y-43060000D01*
X158310000Y-42060000D02*
X158310000Y-38060000D01*
X128100000Y-45600000D02*
G75*
G03*
X126100000Y-47600000I0J-2000000D01*
G01*
X145900000Y-47600000D02*
G75*
G03*
X143900000Y-45600000I-2000000J0D01*
G01*
X143900000Y-34400000D02*
G75*
G03*
X145900000Y-32400000I0J2000000D01*
G01*
X126100000Y-32400000D02*
G75*
G03*
X128100000Y-34400000I2000000J0D01*
G01*
X121859420Y-47510000D02*
X122140580Y-47510000D01*
X121859420Y-46490000D02*
X122140580Y-46490000D01*
X99859420Y-47510000D02*
X100140580Y-47510000D01*
X99859420Y-46490000D02*
X100140580Y-46490000D01*
X122237258Y-43522500D02*
X121762742Y-43522500D01*
X122237258Y-42477500D02*
X121762742Y-42477500D01*
X118580000Y-45760000D02*
X118580000Y-44300000D01*
X115420000Y-45760000D02*
X115420000Y-43600000D01*
X115420000Y-45760000D02*
X116350000Y-45760000D01*
X118580000Y-45760000D02*
X117650000Y-45760000D01*
X116762742Y-42522500D02*
X117237258Y-42522500D01*
X116762742Y-41477500D02*
X117237258Y-41477500D01*
X115500000Y-48850000D02*
X115500000Y-47150000D01*
X115500000Y-47150000D02*
X118050000Y-47150000D01*
X115500000Y-48850000D02*
X118050000Y-48850000D01*
X110500000Y-47150000D02*
X107950000Y-47150000D01*
X110500000Y-48850000D02*
X107950000Y-48850000D01*
X110500000Y-47150000D02*
X110500000Y-48850000D01*
X108762742Y-46522500D02*
X109237258Y-46522500D01*
X108762742Y-45477500D02*
X109237258Y-45477500D01*
X107420000Y-42240000D02*
X108350000Y-42240000D01*
X110580000Y-42240000D02*
X109650000Y-42240000D01*
X110580000Y-42240000D02*
X110580000Y-44400000D01*
X107420000Y-42240000D02*
X107420000Y-43700000D01*
X194960000Y-33850000D02*
X187600000Y-33850000D01*
X184350000Y-33850000D02*
X184350000Y-46150000D01*
X194960000Y-46150000D02*
X187600000Y-46150000D01*
X203650000Y-33850000D02*
X203650000Y-46150000D01*
X203650000Y-46150000D02*
X197760000Y-46150000D01*
X203650000Y-33850000D02*
X197760000Y-33850000D01*
X184800000Y-33850000D02*
X184350000Y-33850000D01*
X184350000Y-46150000D02*
X184800000Y-46150000D01*
X99859420Y-33510000D02*
X100140580Y-33510000D01*
X99859420Y-32490000D02*
X100140580Y-32490000D01*
X85650000Y-33850000D02*
X85200000Y-33850000D01*
X85200000Y-46150000D02*
X85650000Y-46150000D01*
X66350000Y-46150000D02*
X72240000Y-46150000D01*
X66350000Y-33850000D02*
X72240000Y-33850000D01*
X66350000Y-46150000D02*
X66350000Y-33850000D01*
X75040000Y-33850000D02*
X82400000Y-33850000D01*
X85650000Y-46150000D02*
X85650000Y-33850000D01*
X75040000Y-46150000D02*
X82400000Y-46150000D01*
X110140580Y-34490000D02*
X109859420Y-34490000D01*
X110140580Y-35510000D02*
X109859420Y-35510000D01*
X162140580Y-33490000D02*
X161859420Y-33490000D01*
X162140580Y-34510000D02*
X161859420Y-34510000D01*
X161762742Y-36522500D02*
X162237258Y-36522500D01*
X161762742Y-35477500D02*
X162237258Y-35477500D01*
X158237258Y-41522500D02*
X157762742Y-41522500D01*
X158237258Y-40477500D02*
X157762742Y-40477500D01*
X157859420Y-38490000D02*
X158140580Y-38490000D01*
X157859420Y-39510000D02*
X158140580Y-39510000D01*
X116140580Y-32490000D02*
X115859420Y-32490000D01*
X116140580Y-33510000D02*
X115859420Y-33510000D01*
X115762742Y-37522500D02*
X116237258Y-37522500D01*
X115762742Y-36477500D02*
X116237258Y-36477500D01*
X116237258Y-35522500D02*
X115762742Y-35522500D01*
X116237258Y-34477500D02*
X115762742Y-34477500D01*
X135859420Y-37510000D02*
X136140580Y-37510000D01*
X135859420Y-36490000D02*
X136140580Y-36490000D01*
X136140580Y-35510000D02*
X135859420Y-35510000D01*
X136140580Y-34490000D02*
X135859420Y-34490000D01*
X158237258Y-42477500D02*
X157762742Y-42477500D01*
X158237258Y-43522500D02*
X157762742Y-43522500D01*
X158237258Y-47522500D02*
X157762742Y-47522500D01*
X158237258Y-46477500D02*
X157762742Y-46477500D01*
X158237258Y-44477500D02*
X157762742Y-44477500D01*
X158237258Y-45522500D02*
X157762742Y-45522500D01*
X154240000Y-36580000D02*
X154240000Y-35650000D01*
X154240000Y-33420000D02*
X154240000Y-34350000D01*
X154240000Y-33420000D02*
X156400000Y-33420000D01*
X154240000Y-36580000D02*
X155700000Y-36580000D01*
X126859420Y-32490000D02*
X127140580Y-32490000D01*
X126859420Y-33510000D02*
X127140580Y-33510000D01*
X126859420Y-35510000D02*
X127140580Y-35510000D01*
X126859420Y-34490000D02*
X127140580Y-34490000D01*
X127237258Y-37522500D02*
X126762742Y-37522500D01*
X127237258Y-36477500D02*
X126762742Y-36477500D01*
X131140580Y-32490000D02*
X130859420Y-32490000D01*
X131140580Y-33510000D02*
X130859420Y-33510000D01*
X131140580Y-34490000D02*
X130859420Y-34490000D01*
X131140580Y-35510000D02*
X130859420Y-35510000D01*
X130762742Y-37522500D02*
X131237258Y-37522500D01*
X130762742Y-36477500D02*
X131237258Y-36477500D01*
X127261252Y-38265000D02*
X126738748Y-38265000D01*
X127261252Y-39735000D02*
X126738748Y-39735000D01*
X150762742Y-34522500D02*
X151237258Y-34522500D01*
X150762742Y-33477500D02*
X151237258Y-33477500D01*
X150762742Y-36522500D02*
X151237258Y-36522500D01*
X150762742Y-35477500D02*
X151237258Y-35477500D01*
X145288748Y-37910000D02*
X146711252Y-37910000D01*
X145288748Y-36090000D02*
X146711252Y-36090000D01*
X145738748Y-38765000D02*
X146261252Y-38765000D01*
X145738748Y-40235000D02*
X146261252Y-40235000D01*
X128762742Y-48522500D02*
X129237258Y-48522500D01*
X128762742Y-47477500D02*
X129237258Y-47477500D01*
X133738748Y-44735000D02*
X134261252Y-44735000D01*
X133738748Y-43265000D02*
X134261252Y-43265000D01*
X121859420Y-37510000D02*
X122140580Y-37510000D01*
X121859420Y-36490000D02*
X122140580Y-36490000D01*
X122140580Y-35510000D02*
X121859420Y-35510000D01*
X122140580Y-34490000D02*
X121859420Y-34490000D01*
X174810000Y-43060000D02*
X170090000Y-43060000D01*
X170090000Y-43060000D02*
X170090000Y-36940000D01*
X170090000Y-36940000D02*
X174810000Y-36940000D01*
X174810000Y-36940000D02*
X174810000Y-43060000D01*
X174810000Y-41300000D02*
X175010000Y-41300000D01*
X175010000Y-41300000D02*
X175010000Y-41600000D01*
X175010000Y-41600000D02*
X174810000Y-41600000D01*
X174910000Y-41300000D02*
X174910000Y-41600000D01*
X174810000Y-40500000D02*
X174200000Y-40500000D01*
X174200000Y-40500000D02*
X174200000Y-42450000D01*
X174200000Y-42450000D02*
X170700000Y-42450000D01*
X170700000Y-42450000D02*
X170700000Y-37550000D01*
X170700000Y-37550000D02*
X174200000Y-37550000D01*
X174200000Y-37550000D02*
X174200000Y-39500000D01*
X174200000Y-39500000D02*
X174810000Y-39500000D01*
X173500000Y-43060000D02*
X173500000Y-42450000D01*
X172200000Y-43060000D02*
X172200000Y-42450000D01*
X173500000Y-36940000D02*
X173500000Y-37550000D01*
X172200000Y-36940000D02*
X172200000Y-37550000D01*
X170700000Y-40100000D02*
X171200000Y-40100000D01*
X171200000Y-40100000D02*
X171200000Y-39900000D01*
X171200000Y-39900000D02*
X170700000Y-39900000D01*
X170700000Y-40000000D02*
X171200000Y-40000000D01*
X175110000Y-42110000D02*
X175110000Y-43360000D01*
X175110000Y-43360000D02*
X173860000Y-43360000D01*
X166140580Y-33490000D02*
X165859420Y-33490000D01*
X166140580Y-34510000D02*
X165859420Y-34510000D01*
X170237258Y-34522500D02*
X169762742Y-34522500D01*
X170237258Y-33477500D02*
X169762742Y-33477500D01*
X166140580Y-36510000D02*
X165859420Y-36510000D01*
X166140580Y-35490000D02*
X165859420Y-35490000D01*
X170237258Y-36522500D02*
X169762742Y-36522500D01*
X170237258Y-35477500D02*
X169762742Y-35477500D01*
X176140580Y-35490000D02*
X175859420Y-35490000D01*
X176140580Y-36510000D02*
X175859420Y-36510000D01*
X146237258Y-42522500D02*
X145762742Y-42522500D01*
X146237258Y-41477500D02*
X145762742Y-41477500D01*
X145762742Y-44522500D02*
X146237258Y-44522500D01*
X145762742Y-43477500D02*
X146237258Y-43477500D01*
X103762742Y-34522500D02*
X104237258Y-34522500D01*
X103762742Y-33477500D02*
X104237258Y-33477500D01*
X103762742Y-35477500D02*
X104237258Y-35477500D01*
X103762742Y-36522500D02*
X104237258Y-36522500D01*
X103762742Y-38522500D02*
X104237258Y-38522500D01*
X103762742Y-37477500D02*
X104237258Y-37477500D01*
X100140580Y-34490000D02*
X99859420Y-34490000D01*
X100140580Y-35510000D02*
X99859420Y-35510000D01*
X100140580Y-39510000D02*
X99859420Y-39510000D01*
X100140580Y-38490000D02*
X99859420Y-38490000D01*
X99859420Y-37510000D02*
X100140580Y-37510000D01*
X99859420Y-36490000D02*
X100140580Y-36490000D01*
D11*
X167900000Y-36900000D02*
X164100000Y-36900000D01*
X164100000Y-36900000D02*
X164100000Y-39100000D01*
X164100000Y-39100000D02*
X167900000Y-39100000D01*
X167900000Y-39100000D02*
X167900000Y-36900000D01*
X130900000Y-44100000D02*
X130900000Y-41900000D01*
X127100000Y-44100000D02*
X130900000Y-44100000D01*
X127100000Y-41900000D02*
X127100000Y-44100000D01*
X130900000Y-41900000D02*
X127100000Y-41900000D01*
X134100000Y-37900000D02*
X134100000Y-40100000D01*
X137900000Y-37900000D02*
X134100000Y-37900000D01*
X137900000Y-40100000D02*
X137900000Y-37900000D01*
X134100000Y-40100000D02*
X137900000Y-40100000D01*
X120100000Y-40100000D02*
X123900000Y-40100000D01*
X123900000Y-40100000D02*
X123900000Y-37900000D01*
X123900000Y-37900000D02*
X120100000Y-37900000D01*
X120100000Y-37900000D02*
X120100000Y-40100000D01*
X108100000Y-38100000D02*
X111900000Y-38100000D01*
X111900000Y-38100000D02*
X111900000Y-35900000D01*
X111900000Y-35900000D02*
X108100000Y-35900000D01*
X108100000Y-35900000D02*
X108100000Y-38100000D01*
X129100000Y-40100000D02*
X132900000Y-40100000D01*
X132900000Y-40100000D02*
X132900000Y-37900000D01*
X132900000Y-37900000D02*
X129100000Y-37900000D01*
X129100000Y-37900000D02*
X129100000Y-40100000D01*
D10*
X103762742Y-40522500D02*
X104237258Y-40522500D01*
X103762742Y-39477500D02*
X104237258Y-39477500D01*
X103762742Y-42522500D02*
X104237258Y-42522500D01*
X103762742Y-41477500D02*
X104237258Y-41477500D01*
X103762742Y-43477500D02*
X104237258Y-43477500D01*
X103762742Y-44522500D02*
X104237258Y-44522500D01*
X103762742Y-45477500D02*
X104237258Y-45477500D01*
X103762742Y-46522500D02*
X104237258Y-46522500D01*
X100140580Y-40490000D02*
X99859420Y-40490000D01*
X100140580Y-41510000D02*
X99859420Y-41510000D01*
X100140580Y-45510000D02*
X99859420Y-45510000D01*
X100140580Y-44490000D02*
X99859420Y-44490000D01*
X99859420Y-43510000D02*
X100140580Y-43510000D01*
X99859420Y-42490000D02*
X100140580Y-42490000D01*
X121738748Y-45735000D02*
X122261252Y-45735000D01*
X121738748Y-44265000D02*
X122261252Y-44265000D01*
X176261252Y-33265000D02*
X175738748Y-33265000D01*
X176261252Y-34735000D02*
X175738748Y-34735000D01*
X127250000Y-45000000D02*
X131550000Y-45000000D01*
X131550000Y-45000000D02*
X131550000Y-47000000D01*
X131550000Y-47000000D02*
X127250000Y-47000000D01*
X138261252Y-43265000D02*
X137738748Y-43265000D01*
X138261252Y-44735000D02*
X137738748Y-44735000D01*
X136602064Y-45640000D02*
X135397936Y-45640000D01*
X136602064Y-48360000D02*
X135397936Y-48360000D01*
X138250000Y-32000000D02*
X138250000Y-34000000D01*
X138250000Y-34000000D02*
X134350000Y-34000000D01*
X138250000Y-32000000D02*
X134350000Y-32000000D01*
X112250000Y-32000000D02*
X108350000Y-32000000D01*
X112250000Y-34000000D02*
X108350000Y-34000000D01*
X112250000Y-32000000D02*
X112250000Y-34000000D01*
D12*
X106457142Y-47561904D02*
X106457142Y-48209523D01*
X106428571Y-48285714D01*
X106400000Y-48323809D01*
X106342857Y-48361904D01*
X106228571Y-48361904D01*
X106171428Y-48323809D01*
X106142857Y-48285714D01*
X106114285Y-48209523D01*
X106114285Y-47561904D01*
X105514285Y-48361904D02*
X105857142Y-48361904D01*
X105685714Y-48361904D02*
X105685714Y-47561904D01*
X105742857Y-47676190D01*
X105800000Y-47752380D01*
X105857142Y-47790476D01*
D11*
X165750952Y-40131428D02*
X164989047Y-40131428D01*
X106980952Y-40131428D02*
X106219047Y-40131428D01*
X106600000Y-40512380D02*
X106600000Y-39750476D01*
D12*
X125385714Y-47285714D02*
X125414285Y-47323809D01*
X125500000Y-47361904D01*
X125557142Y-47361904D01*
X125642857Y-47323809D01*
X125700000Y-47247619D01*
X125728571Y-47171428D01*
X125757142Y-47019047D01*
X125757142Y-46904761D01*
X125728571Y-46752380D01*
X125700000Y-46676190D01*
X125642857Y-46600000D01*
X125557142Y-46561904D01*
X125500000Y-46561904D01*
X125414285Y-46600000D01*
X125385714Y-46638095D01*
X125157142Y-46638095D02*
X125128571Y-46600000D01*
X125071428Y-46561904D01*
X124928571Y-46561904D01*
X124871428Y-46600000D01*
X124842857Y-46638095D01*
X124814285Y-46714285D01*
X124814285Y-46790476D01*
X124842857Y-46904761D01*
X125185714Y-47361904D01*
X124814285Y-47361904D01*
X124300000Y-46561904D02*
X124414285Y-46561904D01*
X124471428Y-46600000D01*
X124500000Y-46638095D01*
X124557142Y-46752380D01*
X124585714Y-46904761D01*
X124585714Y-47209523D01*
X124557142Y-47285714D01*
X124528571Y-47323809D01*
X124471428Y-47361904D01*
X124357142Y-47361904D01*
X124300000Y-47323809D01*
X124271428Y-47285714D01*
X124242857Y-47209523D01*
X124242857Y-47019047D01*
X124271428Y-46942857D01*
X124300000Y-46904761D01*
X124357142Y-46866666D01*
X124471428Y-46866666D01*
X124528571Y-46904761D01*
X124557142Y-46942857D01*
X124585714Y-47019047D01*
X97885714Y-47285714D02*
X97914285Y-47323809D01*
X98000000Y-47361904D01*
X98057142Y-47361904D01*
X98142857Y-47323809D01*
X98200000Y-47247619D01*
X98228571Y-47171428D01*
X98257142Y-47019047D01*
X98257142Y-46904761D01*
X98228571Y-46752380D01*
X98200000Y-46676190D01*
X98142857Y-46600000D01*
X98057142Y-46561904D01*
X98000000Y-46561904D01*
X97914285Y-46600000D01*
X97885714Y-46638095D01*
X97685714Y-46561904D02*
X97314285Y-46561904D01*
X97514285Y-46866666D01*
X97428571Y-46866666D01*
X97371428Y-46904761D01*
X97342857Y-46942857D01*
X97314285Y-47019047D01*
X97314285Y-47209523D01*
X97342857Y-47285714D01*
X97371428Y-47323809D01*
X97428571Y-47361904D01*
X97600000Y-47361904D01*
X97657142Y-47323809D01*
X97685714Y-47285714D01*
X96942857Y-46561904D02*
X96885714Y-46561904D01*
X96828571Y-46600000D01*
X96800000Y-46638095D01*
X96771428Y-46714285D01*
X96742857Y-46866666D01*
X96742857Y-47057142D01*
X96771428Y-47209523D01*
X96800000Y-47285714D01*
X96828571Y-47323809D01*
X96885714Y-47361904D01*
X96942857Y-47361904D01*
X97000000Y-47323809D01*
X97028571Y-47285714D01*
X97057142Y-47209523D01*
X97085714Y-47057142D01*
X97085714Y-46866666D01*
X97057142Y-46714285D01*
X97028571Y-46638095D01*
X97000000Y-46600000D01*
X96942857Y-46561904D01*
X125385714Y-43361904D02*
X125585714Y-42980952D01*
X125728571Y-43361904D02*
X125728571Y-42561904D01*
X125500000Y-42561904D01*
X125442857Y-42600000D01*
X125414285Y-42638095D01*
X125385714Y-42714285D01*
X125385714Y-42828571D01*
X125414285Y-42904761D01*
X125442857Y-42942857D01*
X125500000Y-42980952D01*
X125728571Y-42980952D01*
X125157142Y-42638095D02*
X125128571Y-42600000D01*
X125071428Y-42561904D01*
X124928571Y-42561904D01*
X124871428Y-42600000D01*
X124842857Y-42638095D01*
X124814285Y-42714285D01*
X124814285Y-42790476D01*
X124842857Y-42904761D01*
X125185714Y-43361904D01*
X124814285Y-43361904D01*
X124614285Y-42561904D02*
X124214285Y-42561904D01*
X124471428Y-43361904D01*
X114557142Y-45438095D02*
X114614285Y-45400000D01*
X114671428Y-45323809D01*
X114757142Y-45209523D01*
X114814285Y-45171428D01*
X114871428Y-45171428D01*
X114842857Y-45361904D02*
X114900000Y-45323809D01*
X114957142Y-45247619D01*
X114985714Y-45095238D01*
X114985714Y-44828571D01*
X114957142Y-44676190D01*
X114900000Y-44600000D01*
X114842857Y-44561904D01*
X114728571Y-44561904D01*
X114671428Y-44600000D01*
X114614285Y-44676190D01*
X114585714Y-44828571D01*
X114585714Y-45095238D01*
X114614285Y-45247619D01*
X114671428Y-45323809D01*
X114728571Y-45361904D01*
X114842857Y-45361904D01*
X114357142Y-44638095D02*
X114328571Y-44600000D01*
X114271428Y-44561904D01*
X114128571Y-44561904D01*
X114071428Y-44600000D01*
X114042857Y-44638095D01*
X114014285Y-44714285D01*
X114014285Y-44790476D01*
X114042857Y-44904761D01*
X114385714Y-45361904D01*
X114014285Y-45361904D01*
X119100000Y-42361904D02*
X119300000Y-41980952D01*
X119442857Y-42361904D02*
X119442857Y-41561904D01*
X119214285Y-41561904D01*
X119157142Y-41600000D01*
X119128571Y-41638095D01*
X119100000Y-41714285D01*
X119100000Y-41828571D01*
X119128571Y-41904761D01*
X119157142Y-41942857D01*
X119214285Y-41980952D01*
X119442857Y-41980952D01*
X118871428Y-41638095D02*
X118842857Y-41600000D01*
X118785714Y-41561904D01*
X118642857Y-41561904D01*
X118585714Y-41600000D01*
X118557142Y-41638095D01*
X118528571Y-41714285D01*
X118528571Y-41790476D01*
X118557142Y-41904761D01*
X118900000Y-42361904D01*
X118528571Y-42361904D01*
X114942857Y-48361904D02*
X114942857Y-47561904D01*
X114800000Y-47561904D01*
X114714285Y-47600000D01*
X114657142Y-47676190D01*
X114628571Y-47752380D01*
X114600000Y-47904761D01*
X114600000Y-48019047D01*
X114628571Y-48171428D01*
X114657142Y-48247619D01*
X114714285Y-48323809D01*
X114800000Y-48361904D01*
X114942857Y-48361904D01*
X114371428Y-47638095D02*
X114342857Y-47600000D01*
X114285714Y-47561904D01*
X114142857Y-47561904D01*
X114085714Y-47600000D01*
X114057142Y-47638095D01*
X114028571Y-47714285D01*
X114028571Y-47790476D01*
X114057142Y-47904761D01*
X114400000Y-48361904D01*
X114028571Y-48361904D01*
X111942857Y-48361904D02*
X111942857Y-47561904D01*
X111800000Y-47561904D01*
X111714285Y-47600000D01*
X111657142Y-47676190D01*
X111628571Y-47752380D01*
X111600000Y-47904761D01*
X111600000Y-48019047D01*
X111628571Y-48171428D01*
X111657142Y-48247619D01*
X111714285Y-48323809D01*
X111800000Y-48361904D01*
X111942857Y-48361904D01*
X111028571Y-48361904D02*
X111371428Y-48361904D01*
X111200000Y-48361904D02*
X111200000Y-47561904D01*
X111257142Y-47676190D01*
X111314285Y-47752380D01*
X111371428Y-47790476D01*
X111100000Y-46361904D02*
X111300000Y-45980952D01*
X111442857Y-46361904D02*
X111442857Y-45561904D01*
X111214285Y-45561904D01*
X111157142Y-45600000D01*
X111128571Y-45638095D01*
X111100000Y-45714285D01*
X111100000Y-45828571D01*
X111128571Y-45904761D01*
X111157142Y-45942857D01*
X111214285Y-45980952D01*
X111442857Y-45980952D01*
X110528571Y-46361904D02*
X110871428Y-46361904D01*
X110700000Y-46361904D02*
X110700000Y-45561904D01*
X110757142Y-45676190D01*
X110814285Y-45752380D01*
X110871428Y-45790476D01*
X111557142Y-43438095D02*
X111614285Y-43400000D01*
X111671428Y-43323809D01*
X111757142Y-43209523D01*
X111814285Y-43171428D01*
X111871428Y-43171428D01*
X111842857Y-43361904D02*
X111900000Y-43323809D01*
X111957142Y-43247619D01*
X111985714Y-43095238D01*
X111985714Y-42828571D01*
X111957142Y-42676190D01*
X111900000Y-42600000D01*
X111842857Y-42561904D01*
X111728571Y-42561904D01*
X111671428Y-42600000D01*
X111614285Y-42676190D01*
X111585714Y-42828571D01*
X111585714Y-43095238D01*
X111614285Y-43247619D01*
X111671428Y-43323809D01*
X111728571Y-43361904D01*
X111842857Y-43361904D01*
X111014285Y-43361904D02*
X111357142Y-43361904D01*
X111185714Y-43361904D02*
X111185714Y-42561904D01*
X111242857Y-42676190D01*
X111300000Y-42752380D01*
X111357142Y-42790476D01*
X183700000Y-39561904D02*
X183700000Y-40133333D01*
X183728571Y-40247619D01*
X183785714Y-40323809D01*
X183871428Y-40361904D01*
X183928571Y-40361904D01*
X183157142Y-39828571D02*
X183157142Y-40361904D01*
X183300000Y-39523809D02*
X183442857Y-40095238D01*
X183071428Y-40095238D01*
X97885714Y-33285714D02*
X97914285Y-33323809D01*
X98000000Y-33361904D01*
X98057142Y-33361904D01*
X98142857Y-33323809D01*
X98200000Y-33247619D01*
X98228571Y-33171428D01*
X98257142Y-33019047D01*
X98257142Y-32904761D01*
X98228571Y-32752380D01*
X98200000Y-32676190D01*
X98142857Y-32600000D01*
X98057142Y-32561904D01*
X98000000Y-32561904D01*
X97914285Y-32600000D01*
X97885714Y-32638095D01*
X97314285Y-33361904D02*
X97657142Y-33361904D01*
X97485714Y-33361904D02*
X97485714Y-32561904D01*
X97542857Y-32676190D01*
X97600000Y-32752380D01*
X97657142Y-32790476D01*
X96800000Y-32561904D02*
X96914285Y-32561904D01*
X96971428Y-32600000D01*
X97000000Y-32638095D01*
X97057142Y-32752380D01*
X97085714Y-32904761D01*
X97085714Y-33209523D01*
X97057142Y-33285714D01*
X97028571Y-33323809D01*
X96971428Y-33361904D01*
X96857142Y-33361904D01*
X96800000Y-33323809D01*
X96771428Y-33285714D01*
X96742857Y-33209523D01*
X96742857Y-33019047D01*
X96771428Y-32942857D01*
X96800000Y-32904761D01*
X96857142Y-32866666D01*
X96971428Y-32866666D01*
X97028571Y-32904761D01*
X97057142Y-32942857D01*
X97085714Y-33019047D01*
X86700000Y-39561904D02*
X86700000Y-40133333D01*
X86728571Y-40247619D01*
X86785714Y-40323809D01*
X86871428Y-40361904D01*
X86928571Y-40361904D01*
X86128571Y-39561904D02*
X86414285Y-39561904D01*
X86442857Y-39942857D01*
X86414285Y-39904761D01*
X86357142Y-39866666D01*
X86214285Y-39866666D01*
X86157142Y-39904761D01*
X86128571Y-39942857D01*
X86100000Y-40019047D01*
X86100000Y-40209523D01*
X86128571Y-40285714D01*
X86157142Y-40323809D01*
X86214285Y-40361904D01*
X86357142Y-40361904D01*
X86414285Y-40323809D01*
X86442857Y-40285714D01*
X112885714Y-35285714D02*
X112914285Y-35323809D01*
X113000000Y-35361904D01*
X113057142Y-35361904D01*
X113142857Y-35323809D01*
X113200000Y-35247619D01*
X113228571Y-35171428D01*
X113257142Y-35019047D01*
X113257142Y-34904761D01*
X113228571Y-34752380D01*
X113200000Y-34676190D01*
X113142857Y-34600000D01*
X113057142Y-34561904D01*
X113000000Y-34561904D01*
X112914285Y-34600000D01*
X112885714Y-34638095D01*
X112657142Y-34638095D02*
X112628571Y-34600000D01*
X112571428Y-34561904D01*
X112428571Y-34561904D01*
X112371428Y-34600000D01*
X112342857Y-34638095D01*
X112314285Y-34714285D01*
X112314285Y-34790476D01*
X112342857Y-34904761D01*
X112685714Y-35361904D01*
X112314285Y-35361904D01*
X111942857Y-34561904D02*
X111885714Y-34561904D01*
X111828571Y-34600000D01*
X111800000Y-34638095D01*
X111771428Y-34714285D01*
X111742857Y-34866666D01*
X111742857Y-35057142D01*
X111771428Y-35209523D01*
X111800000Y-35285714D01*
X111828571Y-35323809D01*
X111885714Y-35361904D01*
X111942857Y-35361904D01*
X112000000Y-35323809D01*
X112028571Y-35285714D01*
X112057142Y-35209523D01*
X112085714Y-35057142D01*
X112085714Y-34866666D01*
X112057142Y-34714285D01*
X112028571Y-34638095D01*
X112000000Y-34600000D01*
X111942857Y-34561904D01*
X162385714Y-33285714D02*
X162414285Y-33323809D01*
X162500000Y-33361904D01*
X162557142Y-33361904D01*
X162642857Y-33323809D01*
X162700000Y-33247619D01*
X162728571Y-33171428D01*
X162757142Y-33019047D01*
X162757142Y-32904761D01*
X162728571Y-32752380D01*
X162700000Y-32676190D01*
X162642857Y-32600000D01*
X162557142Y-32561904D01*
X162500000Y-32561904D01*
X162414285Y-32600000D01*
X162385714Y-32638095D01*
X161814285Y-33361904D02*
X162157142Y-33361904D01*
X161985714Y-33361904D02*
X161985714Y-32561904D01*
X162042857Y-32676190D01*
X162100000Y-32752380D01*
X162157142Y-32790476D01*
X161442857Y-32561904D02*
X161385714Y-32561904D01*
X161328571Y-32600000D01*
X161300000Y-32638095D01*
X161271428Y-32714285D01*
X161242857Y-32866666D01*
X161242857Y-33057142D01*
X161271428Y-33209523D01*
X161300000Y-33285714D01*
X161328571Y-33323809D01*
X161385714Y-33361904D01*
X161442857Y-33361904D01*
X161500000Y-33323809D01*
X161528571Y-33285714D01*
X161557142Y-33209523D01*
X161585714Y-33057142D01*
X161585714Y-32866666D01*
X161557142Y-32714285D01*
X161528571Y-32638095D01*
X161500000Y-32600000D01*
X161442857Y-32561904D01*
X162385714Y-35361904D02*
X162585714Y-34980952D01*
X162728571Y-35361904D02*
X162728571Y-34561904D01*
X162500000Y-34561904D01*
X162442857Y-34600000D01*
X162414285Y-34638095D01*
X162385714Y-34714285D01*
X162385714Y-34828571D01*
X162414285Y-34904761D01*
X162442857Y-34942857D01*
X162500000Y-34980952D01*
X162728571Y-34980952D01*
X161814285Y-35361904D02*
X162157142Y-35361904D01*
X161985714Y-35361904D02*
X161985714Y-34561904D01*
X162042857Y-34676190D01*
X162100000Y-34752380D01*
X162157142Y-34790476D01*
X161585714Y-34638095D02*
X161557142Y-34600000D01*
X161500000Y-34561904D01*
X161357142Y-34561904D01*
X161300000Y-34600000D01*
X161271428Y-34638095D01*
X161242857Y-34714285D01*
X161242857Y-34790476D01*
X161271428Y-34904761D01*
X161614285Y-35361904D01*
X161242857Y-35361904D01*
X156385714Y-41361904D02*
X156585714Y-40980952D01*
X156728571Y-41361904D02*
X156728571Y-40561904D01*
X156500000Y-40561904D01*
X156442857Y-40600000D01*
X156414285Y-40638095D01*
X156385714Y-40714285D01*
X156385714Y-40828571D01*
X156414285Y-40904761D01*
X156442857Y-40942857D01*
X156500000Y-40980952D01*
X156728571Y-40980952D01*
X155814285Y-41361904D02*
X156157142Y-41361904D01*
X155985714Y-41361904D02*
X155985714Y-40561904D01*
X156042857Y-40676190D01*
X156100000Y-40752380D01*
X156157142Y-40790476D01*
X155242857Y-41361904D02*
X155585714Y-41361904D01*
X155414285Y-41361904D02*
X155414285Y-40561904D01*
X155471428Y-40676190D01*
X155528571Y-40752380D01*
X155585714Y-40790476D01*
X156100000Y-39285714D02*
X156128571Y-39323809D01*
X156214285Y-39361904D01*
X156271428Y-39361904D01*
X156357142Y-39323809D01*
X156414285Y-39247619D01*
X156442857Y-39171428D01*
X156471428Y-39019047D01*
X156471428Y-38904761D01*
X156442857Y-38752380D01*
X156414285Y-38676190D01*
X156357142Y-38600000D01*
X156271428Y-38561904D01*
X156214285Y-38561904D01*
X156128571Y-38600000D01*
X156100000Y-38638095D01*
X155814285Y-39361904D02*
X155700000Y-39361904D01*
X155642857Y-39323809D01*
X155614285Y-39285714D01*
X155557142Y-39171428D01*
X155528571Y-39019047D01*
X155528571Y-38714285D01*
X155557142Y-38638095D01*
X155585714Y-38600000D01*
X155642857Y-38561904D01*
X155757142Y-38561904D01*
X155814285Y-38600000D01*
X155842857Y-38638095D01*
X155871428Y-38714285D01*
X155871428Y-38904761D01*
X155842857Y-38980952D01*
X155814285Y-39019047D01*
X155757142Y-39057142D01*
X155642857Y-39057142D01*
X155585714Y-39019047D01*
X155557142Y-38980952D01*
X155528571Y-38904761D01*
X118885714Y-33285714D02*
X118914285Y-33323809D01*
X119000000Y-33361904D01*
X119057142Y-33361904D01*
X119142857Y-33323809D01*
X119200000Y-33247619D01*
X119228571Y-33171428D01*
X119257142Y-33019047D01*
X119257142Y-32904761D01*
X119228571Y-32752380D01*
X119200000Y-32676190D01*
X119142857Y-32600000D01*
X119057142Y-32561904D01*
X119000000Y-32561904D01*
X118914285Y-32600000D01*
X118885714Y-32638095D01*
X118314285Y-33361904D02*
X118657142Y-33361904D01*
X118485714Y-33361904D02*
X118485714Y-32561904D01*
X118542857Y-32676190D01*
X118600000Y-32752380D01*
X118657142Y-32790476D01*
X117771428Y-32561904D02*
X118057142Y-32561904D01*
X118085714Y-32942857D01*
X118057142Y-32904761D01*
X118000000Y-32866666D01*
X117857142Y-32866666D01*
X117800000Y-32904761D01*
X117771428Y-32942857D01*
X117742857Y-33019047D01*
X117742857Y-33209523D01*
X117771428Y-33285714D01*
X117800000Y-33323809D01*
X117857142Y-33361904D01*
X118000000Y-33361904D01*
X118057142Y-33323809D01*
X118085714Y-33285714D01*
X118885714Y-37361904D02*
X119085714Y-36980952D01*
X119228571Y-37361904D02*
X119228571Y-36561904D01*
X119000000Y-36561904D01*
X118942857Y-36600000D01*
X118914285Y-36638095D01*
X118885714Y-36714285D01*
X118885714Y-36828571D01*
X118914285Y-36904761D01*
X118942857Y-36942857D01*
X119000000Y-36980952D01*
X119228571Y-36980952D01*
X118314285Y-37361904D02*
X118657142Y-37361904D01*
X118485714Y-37361904D02*
X118485714Y-36561904D01*
X118542857Y-36676190D01*
X118600000Y-36752380D01*
X118657142Y-36790476D01*
X117800000Y-36561904D02*
X117914285Y-36561904D01*
X117971428Y-36600000D01*
X118000000Y-36638095D01*
X118057142Y-36752380D01*
X118085714Y-36904761D01*
X118085714Y-37209523D01*
X118057142Y-37285714D01*
X118028571Y-37323809D01*
X117971428Y-37361904D01*
X117857142Y-37361904D01*
X117800000Y-37323809D01*
X117771428Y-37285714D01*
X117742857Y-37209523D01*
X117742857Y-37019047D01*
X117771428Y-36942857D01*
X117800000Y-36904761D01*
X117857142Y-36866666D01*
X117971428Y-36866666D01*
X118028571Y-36904761D01*
X118057142Y-36942857D01*
X118085714Y-37019047D01*
X118885714Y-35361904D02*
X119085714Y-34980952D01*
X119228571Y-35361904D02*
X119228571Y-34561904D01*
X119000000Y-34561904D01*
X118942857Y-34600000D01*
X118914285Y-34638095D01*
X118885714Y-34714285D01*
X118885714Y-34828571D01*
X118914285Y-34904761D01*
X118942857Y-34942857D01*
X119000000Y-34980952D01*
X119228571Y-34980952D01*
X118314285Y-35361904D02*
X118657142Y-35361904D01*
X118485714Y-35361904D02*
X118485714Y-34561904D01*
X118542857Y-34676190D01*
X118600000Y-34752380D01*
X118657142Y-34790476D01*
X117771428Y-34561904D02*
X118057142Y-34561904D01*
X118085714Y-34942857D01*
X118057142Y-34904761D01*
X118000000Y-34866666D01*
X117857142Y-34866666D01*
X117800000Y-34904761D01*
X117771428Y-34942857D01*
X117742857Y-35019047D01*
X117742857Y-35209523D01*
X117771428Y-35285714D01*
X117800000Y-35323809D01*
X117857142Y-35361904D01*
X118000000Y-35361904D01*
X118057142Y-35323809D01*
X118085714Y-35285714D01*
X138100000Y-37285714D02*
X138128571Y-37323809D01*
X138214285Y-37361904D01*
X138271428Y-37361904D01*
X138357142Y-37323809D01*
X138414285Y-37247619D01*
X138442857Y-37171428D01*
X138471428Y-37019047D01*
X138471428Y-36904761D01*
X138442857Y-36752380D01*
X138414285Y-36676190D01*
X138357142Y-36600000D01*
X138271428Y-36561904D01*
X138214285Y-36561904D01*
X138128571Y-36600000D01*
X138100000Y-36638095D01*
X137900000Y-36561904D02*
X137528571Y-36561904D01*
X137728571Y-36866666D01*
X137642857Y-36866666D01*
X137585714Y-36904761D01*
X137557142Y-36942857D01*
X137528571Y-37019047D01*
X137528571Y-37209523D01*
X137557142Y-37285714D01*
X137585714Y-37323809D01*
X137642857Y-37361904D01*
X137814285Y-37361904D01*
X137871428Y-37323809D01*
X137900000Y-37285714D01*
X138100000Y-35285714D02*
X138128571Y-35323809D01*
X138214285Y-35361904D01*
X138271428Y-35361904D01*
X138357142Y-35323809D01*
X138414285Y-35247619D01*
X138442857Y-35171428D01*
X138471428Y-35019047D01*
X138471428Y-34904761D01*
X138442857Y-34752380D01*
X138414285Y-34676190D01*
X138357142Y-34600000D01*
X138271428Y-34561904D01*
X138214285Y-34561904D01*
X138128571Y-34600000D01*
X138100000Y-34638095D01*
X137585714Y-34828571D02*
X137585714Y-35361904D01*
X137728571Y-34523809D02*
X137871428Y-35095238D01*
X137500000Y-35095238D01*
X156385714Y-43361904D02*
X156585714Y-42980952D01*
X156728571Y-43361904D02*
X156728571Y-42561904D01*
X156500000Y-42561904D01*
X156442857Y-42600000D01*
X156414285Y-42638095D01*
X156385714Y-42714285D01*
X156385714Y-42828571D01*
X156414285Y-42904761D01*
X156442857Y-42942857D01*
X156500000Y-42980952D01*
X156728571Y-42980952D01*
X155814285Y-43361904D02*
X156157142Y-43361904D01*
X155985714Y-43361904D02*
X155985714Y-42561904D01*
X156042857Y-42676190D01*
X156100000Y-42752380D01*
X156157142Y-42790476D01*
X155442857Y-42561904D02*
X155385714Y-42561904D01*
X155328571Y-42600000D01*
X155300000Y-42638095D01*
X155271428Y-42714285D01*
X155242857Y-42866666D01*
X155242857Y-43057142D01*
X155271428Y-43209523D01*
X155300000Y-43285714D01*
X155328571Y-43323809D01*
X155385714Y-43361904D01*
X155442857Y-43361904D01*
X155500000Y-43323809D01*
X155528571Y-43285714D01*
X155557142Y-43209523D01*
X155585714Y-43057142D01*
X155585714Y-42866666D01*
X155557142Y-42714285D01*
X155528571Y-42638095D01*
X155500000Y-42600000D01*
X155442857Y-42561904D01*
X156100000Y-47361904D02*
X156300000Y-46980952D01*
X156442857Y-47361904D02*
X156442857Y-46561904D01*
X156214285Y-46561904D01*
X156157142Y-46600000D01*
X156128571Y-46638095D01*
X156100000Y-46714285D01*
X156100000Y-46828571D01*
X156128571Y-46904761D01*
X156157142Y-46942857D01*
X156214285Y-46980952D01*
X156442857Y-46980952D01*
X155814285Y-47361904D02*
X155700000Y-47361904D01*
X155642857Y-47323809D01*
X155614285Y-47285714D01*
X155557142Y-47171428D01*
X155528571Y-47019047D01*
X155528571Y-46714285D01*
X155557142Y-46638095D01*
X155585714Y-46600000D01*
X155642857Y-46561904D01*
X155757142Y-46561904D01*
X155814285Y-46600000D01*
X155842857Y-46638095D01*
X155871428Y-46714285D01*
X155871428Y-46904761D01*
X155842857Y-46980952D01*
X155814285Y-47019047D01*
X155757142Y-47057142D01*
X155642857Y-47057142D01*
X155585714Y-47019047D01*
X155557142Y-46980952D01*
X155528571Y-46904761D01*
X156100000Y-45361904D02*
X156300000Y-44980952D01*
X156442857Y-45361904D02*
X156442857Y-44561904D01*
X156214285Y-44561904D01*
X156157142Y-44600000D01*
X156128571Y-44638095D01*
X156100000Y-44714285D01*
X156100000Y-44828571D01*
X156128571Y-44904761D01*
X156157142Y-44942857D01*
X156214285Y-44980952D01*
X156442857Y-44980952D01*
X155757142Y-44904761D02*
X155814285Y-44866666D01*
X155842857Y-44828571D01*
X155871428Y-44752380D01*
X155871428Y-44714285D01*
X155842857Y-44638095D01*
X155814285Y-44600000D01*
X155757142Y-44561904D01*
X155642857Y-44561904D01*
X155585714Y-44600000D01*
X155557142Y-44638095D01*
X155528571Y-44714285D01*
X155528571Y-44752380D01*
X155557142Y-44828571D01*
X155585714Y-44866666D01*
X155642857Y-44904761D01*
X155757142Y-44904761D01*
X155814285Y-44942857D01*
X155842857Y-44980952D01*
X155871428Y-45057142D01*
X155871428Y-45209523D01*
X155842857Y-45285714D01*
X155814285Y-45323809D01*
X155757142Y-45361904D01*
X155642857Y-45361904D01*
X155585714Y-45323809D01*
X155557142Y-45285714D01*
X155528571Y-45209523D01*
X155528571Y-45057142D01*
X155557142Y-44980952D01*
X155585714Y-44942857D01*
X155642857Y-44904761D01*
X155457142Y-32061904D02*
X155457142Y-32709523D01*
X155428571Y-32785714D01*
X155400000Y-32823809D01*
X155342857Y-32861904D01*
X155228571Y-32861904D01*
X155171428Y-32823809D01*
X155142857Y-32785714D01*
X155114285Y-32709523D01*
X155114285Y-32061904D01*
X154571428Y-32061904D02*
X154685714Y-32061904D01*
X154742857Y-32100000D01*
X154771428Y-32138095D01*
X154828571Y-32252380D01*
X154857142Y-32404761D01*
X154857142Y-32709523D01*
X154828571Y-32785714D01*
X154800000Y-32823809D01*
X154742857Y-32861904D01*
X154628571Y-32861904D01*
X154571428Y-32823809D01*
X154542857Y-32785714D01*
X154514285Y-32709523D01*
X154514285Y-32519047D01*
X154542857Y-32442857D01*
X154571428Y-32404761D01*
X154628571Y-32366666D01*
X154742857Y-32366666D01*
X154800000Y-32404761D01*
X154828571Y-32442857D01*
X154857142Y-32519047D01*
X127385714Y-32285714D02*
X127414285Y-32323809D01*
X127500000Y-32361904D01*
X127557142Y-32361904D01*
X127642857Y-32323809D01*
X127700000Y-32247619D01*
X127728571Y-32171428D01*
X127757142Y-32019047D01*
X127757142Y-31904761D01*
X127728571Y-31752380D01*
X127700000Y-31676190D01*
X127642857Y-31600000D01*
X127557142Y-31561904D01*
X127500000Y-31561904D01*
X127414285Y-31600000D01*
X127385714Y-31638095D01*
X127157142Y-31638095D02*
X127128571Y-31600000D01*
X127071428Y-31561904D01*
X126928571Y-31561904D01*
X126871428Y-31600000D01*
X126842857Y-31638095D01*
X126814285Y-31714285D01*
X126814285Y-31790476D01*
X126842857Y-31904761D01*
X127185714Y-32361904D01*
X126814285Y-32361904D01*
X126242857Y-32361904D02*
X126585714Y-32361904D01*
X126414285Y-32361904D02*
X126414285Y-31561904D01*
X126471428Y-31676190D01*
X126528571Y-31752380D01*
X126585714Y-31790476D01*
X127385714Y-34285714D02*
X127414285Y-34323809D01*
X127500000Y-34361904D01*
X127557142Y-34361904D01*
X127642857Y-34323809D01*
X127700000Y-34247619D01*
X127728571Y-34171428D01*
X127757142Y-34019047D01*
X127757142Y-33904761D01*
X127728571Y-33752380D01*
X127700000Y-33676190D01*
X127642857Y-33600000D01*
X127557142Y-33561904D01*
X127500000Y-33561904D01*
X127414285Y-33600000D01*
X127385714Y-33638095D01*
X127157142Y-33638095D02*
X127128571Y-33600000D01*
X127071428Y-33561904D01*
X126928571Y-33561904D01*
X126871428Y-33600000D01*
X126842857Y-33638095D01*
X126814285Y-33714285D01*
X126814285Y-33790476D01*
X126842857Y-33904761D01*
X127185714Y-34361904D01*
X126814285Y-34361904D01*
X126585714Y-33638095D02*
X126557142Y-33600000D01*
X126500000Y-33561904D01*
X126357142Y-33561904D01*
X126300000Y-33600000D01*
X126271428Y-33638095D01*
X126242857Y-33714285D01*
X126242857Y-33790476D01*
X126271428Y-33904761D01*
X126614285Y-34361904D01*
X126242857Y-34361904D01*
X127385714Y-36361904D02*
X127585714Y-35980952D01*
X127728571Y-36361904D02*
X127728571Y-35561904D01*
X127500000Y-35561904D01*
X127442857Y-35600000D01*
X127414285Y-35638095D01*
X127385714Y-35714285D01*
X127385714Y-35828571D01*
X127414285Y-35904761D01*
X127442857Y-35942857D01*
X127500000Y-35980952D01*
X127728571Y-35980952D01*
X127157142Y-35638095D02*
X127128571Y-35600000D01*
X127071428Y-35561904D01*
X126928571Y-35561904D01*
X126871428Y-35600000D01*
X126842857Y-35638095D01*
X126814285Y-35714285D01*
X126814285Y-35790476D01*
X126842857Y-35904761D01*
X127185714Y-36361904D01*
X126814285Y-36361904D01*
X126242857Y-36361904D02*
X126585714Y-36361904D01*
X126414285Y-36361904D02*
X126414285Y-35561904D01*
X126471428Y-35676190D01*
X126528571Y-35752380D01*
X126585714Y-35790476D01*
X131385714Y-32285714D02*
X131414285Y-32323809D01*
X131500000Y-32361904D01*
X131557142Y-32361904D01*
X131642857Y-32323809D01*
X131700000Y-32247619D01*
X131728571Y-32171428D01*
X131757142Y-32019047D01*
X131757142Y-31904761D01*
X131728571Y-31752380D01*
X131700000Y-31676190D01*
X131642857Y-31600000D01*
X131557142Y-31561904D01*
X131500000Y-31561904D01*
X131414285Y-31600000D01*
X131385714Y-31638095D01*
X131157142Y-31638095D02*
X131128571Y-31600000D01*
X131071428Y-31561904D01*
X130928571Y-31561904D01*
X130871428Y-31600000D01*
X130842857Y-31638095D01*
X130814285Y-31714285D01*
X130814285Y-31790476D01*
X130842857Y-31904761D01*
X131185714Y-32361904D01*
X130814285Y-32361904D01*
X130614285Y-31561904D02*
X130242857Y-31561904D01*
X130442857Y-31866666D01*
X130357142Y-31866666D01*
X130300000Y-31904761D01*
X130271428Y-31942857D01*
X130242857Y-32019047D01*
X130242857Y-32209523D01*
X130271428Y-32285714D01*
X130300000Y-32323809D01*
X130357142Y-32361904D01*
X130528571Y-32361904D01*
X130585714Y-32323809D01*
X130614285Y-32285714D01*
X133885714Y-35285714D02*
X133914285Y-35323809D01*
X134000000Y-35361904D01*
X134057142Y-35361904D01*
X134142857Y-35323809D01*
X134200000Y-35247619D01*
X134228571Y-35171428D01*
X134257142Y-35019047D01*
X134257142Y-34904761D01*
X134228571Y-34752380D01*
X134200000Y-34676190D01*
X134142857Y-34600000D01*
X134057142Y-34561904D01*
X134000000Y-34561904D01*
X133914285Y-34600000D01*
X133885714Y-34638095D01*
X133657142Y-34638095D02*
X133628571Y-34600000D01*
X133571428Y-34561904D01*
X133428571Y-34561904D01*
X133371428Y-34600000D01*
X133342857Y-34638095D01*
X133314285Y-34714285D01*
X133314285Y-34790476D01*
X133342857Y-34904761D01*
X133685714Y-35361904D01*
X133314285Y-35361904D01*
X132800000Y-34828571D02*
X132800000Y-35361904D01*
X132942857Y-34523809D02*
X133085714Y-35095238D01*
X132714285Y-35095238D01*
X133885714Y-37361904D02*
X134085714Y-36980952D01*
X134228571Y-37361904D02*
X134228571Y-36561904D01*
X134000000Y-36561904D01*
X133942857Y-36600000D01*
X133914285Y-36638095D01*
X133885714Y-36714285D01*
X133885714Y-36828571D01*
X133914285Y-36904761D01*
X133942857Y-36942857D01*
X134000000Y-36980952D01*
X134228571Y-36980952D01*
X133657142Y-36638095D02*
X133628571Y-36600000D01*
X133571428Y-36561904D01*
X133428571Y-36561904D01*
X133371428Y-36600000D01*
X133342857Y-36638095D01*
X133314285Y-36714285D01*
X133314285Y-36790476D01*
X133342857Y-36904761D01*
X133685714Y-37361904D01*
X133314285Y-37361904D01*
X133085714Y-36638095D02*
X133057142Y-36600000D01*
X133000000Y-36561904D01*
X132857142Y-36561904D01*
X132800000Y-36600000D01*
X132771428Y-36638095D01*
X132742857Y-36714285D01*
X132742857Y-36790476D01*
X132771428Y-36904761D01*
X133114285Y-37361904D01*
X132742857Y-37361904D01*
X127385714Y-40785714D02*
X127414285Y-40823809D01*
X127500000Y-40861904D01*
X127557142Y-40861904D01*
X127642857Y-40823809D01*
X127700000Y-40747619D01*
X127728571Y-40671428D01*
X127757142Y-40519047D01*
X127757142Y-40404761D01*
X127728571Y-40252380D01*
X127700000Y-40176190D01*
X127642857Y-40100000D01*
X127557142Y-40061904D01*
X127500000Y-40061904D01*
X127414285Y-40100000D01*
X127385714Y-40138095D01*
X127157142Y-40138095D02*
X127128571Y-40100000D01*
X127071428Y-40061904D01*
X126928571Y-40061904D01*
X126871428Y-40100000D01*
X126842857Y-40138095D01*
X126814285Y-40214285D01*
X126814285Y-40290476D01*
X126842857Y-40404761D01*
X127185714Y-40861904D01*
X126814285Y-40861904D01*
X126271428Y-40061904D02*
X126557142Y-40061904D01*
X126585714Y-40442857D01*
X126557142Y-40404761D01*
X126500000Y-40366666D01*
X126357142Y-40366666D01*
X126300000Y-40404761D01*
X126271428Y-40442857D01*
X126242857Y-40519047D01*
X126242857Y-40709523D01*
X126271428Y-40785714D01*
X126300000Y-40823809D01*
X126357142Y-40861904D01*
X126500000Y-40861904D01*
X126557142Y-40823809D01*
X126585714Y-40785714D01*
X149100000Y-34361904D02*
X149300000Y-33980952D01*
X149442857Y-34361904D02*
X149442857Y-33561904D01*
X149214285Y-33561904D01*
X149157142Y-33600000D01*
X149128571Y-33638095D01*
X149100000Y-33714285D01*
X149100000Y-33828571D01*
X149128571Y-33904761D01*
X149157142Y-33942857D01*
X149214285Y-33980952D01*
X149442857Y-33980952D01*
X148557142Y-33561904D02*
X148842857Y-33561904D01*
X148871428Y-33942857D01*
X148842857Y-33904761D01*
X148785714Y-33866666D01*
X148642857Y-33866666D01*
X148585714Y-33904761D01*
X148557142Y-33942857D01*
X148528571Y-34019047D01*
X148528571Y-34209523D01*
X148557142Y-34285714D01*
X148585714Y-34323809D01*
X148642857Y-34361904D01*
X148785714Y-34361904D01*
X148842857Y-34323809D01*
X148871428Y-34285714D01*
X149100000Y-36361904D02*
X149300000Y-35980952D01*
X149442857Y-36361904D02*
X149442857Y-35561904D01*
X149214285Y-35561904D01*
X149157142Y-35600000D01*
X149128571Y-35638095D01*
X149100000Y-35714285D01*
X149100000Y-35828571D01*
X149128571Y-35904761D01*
X149157142Y-35942857D01*
X149214285Y-35980952D01*
X149442857Y-35980952D01*
X148585714Y-35828571D02*
X148585714Y-36361904D01*
X148728571Y-35523809D02*
X148871428Y-36095238D01*
X148500000Y-36095238D01*
X143100000Y-37285714D02*
X143128571Y-37323809D01*
X143214285Y-37361904D01*
X143271428Y-37361904D01*
X143357142Y-37323809D01*
X143414285Y-37247619D01*
X143442857Y-37171428D01*
X143471428Y-37019047D01*
X143471428Y-36904761D01*
X143442857Y-36752380D01*
X143414285Y-36676190D01*
X143357142Y-36600000D01*
X143271428Y-36561904D01*
X143214285Y-36561904D01*
X143128571Y-36600000D01*
X143100000Y-36638095D01*
X142900000Y-36561904D02*
X142500000Y-36561904D01*
X142757142Y-37361904D01*
X144100000Y-39785714D02*
X144128571Y-39823809D01*
X144214285Y-39861904D01*
X144271428Y-39861904D01*
X144357142Y-39823809D01*
X144414285Y-39747619D01*
X144442857Y-39671428D01*
X144471428Y-39519047D01*
X144471428Y-39404761D01*
X144442857Y-39252380D01*
X144414285Y-39176190D01*
X144357142Y-39100000D01*
X144271428Y-39061904D01*
X144214285Y-39061904D01*
X144128571Y-39100000D01*
X144100000Y-39138095D01*
X143757142Y-39404761D02*
X143814285Y-39366666D01*
X143842857Y-39328571D01*
X143871428Y-39252380D01*
X143871428Y-39214285D01*
X143842857Y-39138095D01*
X143814285Y-39100000D01*
X143757142Y-39061904D01*
X143642857Y-39061904D01*
X143585714Y-39100000D01*
X143557142Y-39138095D01*
X143528571Y-39214285D01*
X143528571Y-39252380D01*
X143557142Y-39328571D01*
X143585714Y-39366666D01*
X143642857Y-39404761D01*
X143757142Y-39404761D01*
X143814285Y-39442857D01*
X143842857Y-39480952D01*
X143871428Y-39557142D01*
X143871428Y-39709523D01*
X143842857Y-39785714D01*
X143814285Y-39823809D01*
X143757142Y-39861904D01*
X143642857Y-39861904D01*
X143585714Y-39823809D01*
X143557142Y-39785714D01*
X143528571Y-39709523D01*
X143528571Y-39557142D01*
X143557142Y-39480952D01*
X143585714Y-39442857D01*
X143642857Y-39404761D01*
X131100000Y-48361904D02*
X131300000Y-47980952D01*
X131442857Y-48361904D02*
X131442857Y-47561904D01*
X131214285Y-47561904D01*
X131157142Y-47600000D01*
X131128571Y-47638095D01*
X131100000Y-47714285D01*
X131100000Y-47828571D01*
X131128571Y-47904761D01*
X131157142Y-47942857D01*
X131214285Y-47980952D01*
X131442857Y-47980952D01*
X130900000Y-47561904D02*
X130528571Y-47561904D01*
X130728571Y-47866666D01*
X130642857Y-47866666D01*
X130585714Y-47904761D01*
X130557142Y-47942857D01*
X130528571Y-48019047D01*
X130528571Y-48209523D01*
X130557142Y-48285714D01*
X130585714Y-48323809D01*
X130642857Y-48361904D01*
X130814285Y-48361904D01*
X130871428Y-48323809D01*
X130900000Y-48285714D01*
X134100000Y-42785714D02*
X134128571Y-42823809D01*
X134214285Y-42861904D01*
X134271428Y-42861904D01*
X134357142Y-42823809D01*
X134414285Y-42747619D01*
X134442857Y-42671428D01*
X134471428Y-42519047D01*
X134471428Y-42404761D01*
X134442857Y-42252380D01*
X134414285Y-42176190D01*
X134357142Y-42100000D01*
X134271428Y-42061904D01*
X134214285Y-42061904D01*
X134128571Y-42100000D01*
X134100000Y-42138095D01*
X133871428Y-42138095D02*
X133842857Y-42100000D01*
X133785714Y-42061904D01*
X133642857Y-42061904D01*
X133585714Y-42100000D01*
X133557142Y-42138095D01*
X133528571Y-42214285D01*
X133528571Y-42290476D01*
X133557142Y-42404761D01*
X133900000Y-42861904D01*
X133528571Y-42861904D01*
X122100000Y-36285714D02*
X122128571Y-36323809D01*
X122214285Y-36361904D01*
X122271428Y-36361904D01*
X122357142Y-36323809D01*
X122414285Y-36247619D01*
X122442857Y-36171428D01*
X122471428Y-36019047D01*
X122471428Y-35904761D01*
X122442857Y-35752380D01*
X122414285Y-35676190D01*
X122357142Y-35600000D01*
X122271428Y-35561904D01*
X122214285Y-35561904D01*
X122128571Y-35600000D01*
X122100000Y-35638095D01*
X121557142Y-35561904D02*
X121842857Y-35561904D01*
X121871428Y-35942857D01*
X121842857Y-35904761D01*
X121785714Y-35866666D01*
X121642857Y-35866666D01*
X121585714Y-35904761D01*
X121557142Y-35942857D01*
X121528571Y-36019047D01*
X121528571Y-36209523D01*
X121557142Y-36285714D01*
X121585714Y-36323809D01*
X121642857Y-36361904D01*
X121785714Y-36361904D01*
X121842857Y-36323809D01*
X121871428Y-36285714D01*
X122100000Y-34285714D02*
X122128571Y-34323809D01*
X122214285Y-34361904D01*
X122271428Y-34361904D01*
X122357142Y-34323809D01*
X122414285Y-34247619D01*
X122442857Y-34171428D01*
X122471428Y-34019047D01*
X122471428Y-33904761D01*
X122442857Y-33752380D01*
X122414285Y-33676190D01*
X122357142Y-33600000D01*
X122271428Y-33561904D01*
X122214285Y-33561904D01*
X122128571Y-33600000D01*
X122100000Y-33638095D01*
X121585714Y-33561904D02*
X121700000Y-33561904D01*
X121757142Y-33600000D01*
X121785714Y-33638095D01*
X121842857Y-33752380D01*
X121871428Y-33904761D01*
X121871428Y-34209523D01*
X121842857Y-34285714D01*
X121814285Y-34323809D01*
X121757142Y-34361904D01*
X121642857Y-34361904D01*
X121585714Y-34323809D01*
X121557142Y-34285714D01*
X121528571Y-34209523D01*
X121528571Y-34019047D01*
X121557142Y-33942857D01*
X121585714Y-33904761D01*
X121642857Y-33866666D01*
X121757142Y-33866666D01*
X121814285Y-33904761D01*
X121842857Y-33942857D01*
X121871428Y-34019047D01*
X175700000Y-39561904D02*
X175700000Y-40133333D01*
X175728571Y-40247619D01*
X175785714Y-40323809D01*
X175871428Y-40361904D01*
X175928571Y-40361904D01*
X175471428Y-39561904D02*
X175100000Y-39561904D01*
X175300000Y-39866666D01*
X175214285Y-39866666D01*
X175157142Y-39904761D01*
X175128571Y-39942857D01*
X175100000Y-40019047D01*
X175100000Y-40209523D01*
X175128571Y-40285714D01*
X175157142Y-40323809D01*
X175214285Y-40361904D01*
X175385714Y-40361904D01*
X175442857Y-40323809D01*
X175471428Y-40285714D01*
X166385714Y-33285714D02*
X166414285Y-33323809D01*
X166500000Y-33361904D01*
X166557142Y-33361904D01*
X166642857Y-33323809D01*
X166700000Y-33247619D01*
X166728571Y-33171428D01*
X166757142Y-33019047D01*
X166757142Y-32904761D01*
X166728571Y-32752380D01*
X166700000Y-32676190D01*
X166642857Y-32600000D01*
X166557142Y-32561904D01*
X166500000Y-32561904D01*
X166414285Y-32600000D01*
X166385714Y-32638095D01*
X165814285Y-33361904D02*
X166157142Y-33361904D01*
X165985714Y-33361904D02*
X165985714Y-32561904D01*
X166042857Y-32676190D01*
X166100000Y-32752380D01*
X166157142Y-32790476D01*
X165300000Y-32828571D02*
X165300000Y-33361904D01*
X165442857Y-32523809D02*
X165585714Y-33095238D01*
X165214285Y-33095238D01*
X170385714Y-33361904D02*
X170585714Y-32980952D01*
X170728571Y-33361904D02*
X170728571Y-32561904D01*
X170500000Y-32561904D01*
X170442857Y-32600000D01*
X170414285Y-32638095D01*
X170385714Y-32714285D01*
X170385714Y-32828571D01*
X170414285Y-32904761D01*
X170442857Y-32942857D01*
X170500000Y-32980952D01*
X170728571Y-32980952D01*
X169814285Y-33361904D02*
X170157142Y-33361904D01*
X169985714Y-33361904D02*
X169985714Y-32561904D01*
X170042857Y-32676190D01*
X170100000Y-32752380D01*
X170157142Y-32790476D01*
X169300000Y-32828571D02*
X169300000Y-33361904D01*
X169442857Y-32523809D02*
X169585714Y-33095238D01*
X169214285Y-33095238D01*
X166385714Y-35285714D02*
X166414285Y-35323809D01*
X166500000Y-35361904D01*
X166557142Y-35361904D01*
X166642857Y-35323809D01*
X166700000Y-35247619D01*
X166728571Y-35171428D01*
X166757142Y-35019047D01*
X166757142Y-34904761D01*
X166728571Y-34752380D01*
X166700000Y-34676190D01*
X166642857Y-34600000D01*
X166557142Y-34561904D01*
X166500000Y-34561904D01*
X166414285Y-34600000D01*
X166385714Y-34638095D01*
X165814285Y-35361904D02*
X166157142Y-35361904D01*
X165985714Y-35361904D02*
X165985714Y-34561904D01*
X166042857Y-34676190D01*
X166100000Y-34752380D01*
X166157142Y-34790476D01*
X165614285Y-34561904D02*
X165242857Y-34561904D01*
X165442857Y-34866666D01*
X165357142Y-34866666D01*
X165300000Y-34904761D01*
X165271428Y-34942857D01*
X165242857Y-35019047D01*
X165242857Y-35209523D01*
X165271428Y-35285714D01*
X165300000Y-35323809D01*
X165357142Y-35361904D01*
X165528571Y-35361904D01*
X165585714Y-35323809D01*
X165614285Y-35285714D01*
X170385714Y-35361904D02*
X170585714Y-34980952D01*
X170728571Y-35361904D02*
X170728571Y-34561904D01*
X170500000Y-34561904D01*
X170442857Y-34600000D01*
X170414285Y-34638095D01*
X170385714Y-34714285D01*
X170385714Y-34828571D01*
X170414285Y-34904761D01*
X170442857Y-34942857D01*
X170500000Y-34980952D01*
X170728571Y-34980952D01*
X169814285Y-35361904D02*
X170157142Y-35361904D01*
X169985714Y-35361904D02*
X169985714Y-34561904D01*
X170042857Y-34676190D01*
X170100000Y-34752380D01*
X170157142Y-34790476D01*
X169614285Y-34561904D02*
X169242857Y-34561904D01*
X169442857Y-34866666D01*
X169357142Y-34866666D01*
X169300000Y-34904761D01*
X169271428Y-34942857D01*
X169242857Y-35019047D01*
X169242857Y-35209523D01*
X169271428Y-35285714D01*
X169300000Y-35323809D01*
X169357142Y-35361904D01*
X169528571Y-35361904D01*
X169585714Y-35323809D01*
X169614285Y-35285714D01*
X176385714Y-35285714D02*
X176414285Y-35323809D01*
X176500000Y-35361904D01*
X176557142Y-35361904D01*
X176642857Y-35323809D01*
X176700000Y-35247619D01*
X176728571Y-35171428D01*
X176757142Y-35019047D01*
X176757142Y-34904761D01*
X176728571Y-34752380D01*
X176700000Y-34676190D01*
X176642857Y-34600000D01*
X176557142Y-34561904D01*
X176500000Y-34561904D01*
X176414285Y-34600000D01*
X176385714Y-34638095D01*
X175814285Y-35361904D02*
X176157142Y-35361904D01*
X175985714Y-35361904D02*
X175985714Y-34561904D01*
X176042857Y-34676190D01*
X176100000Y-34752380D01*
X176157142Y-34790476D01*
X175242857Y-35361904D02*
X175585714Y-35361904D01*
X175414285Y-35361904D02*
X175414285Y-34561904D01*
X175471428Y-34676190D01*
X175528571Y-34752380D01*
X175585714Y-34790476D01*
X144100000Y-42361904D02*
X144300000Y-41980952D01*
X144442857Y-42361904D02*
X144442857Y-41561904D01*
X144214285Y-41561904D01*
X144157142Y-41600000D01*
X144128571Y-41638095D01*
X144100000Y-41714285D01*
X144100000Y-41828571D01*
X144128571Y-41904761D01*
X144157142Y-41942857D01*
X144214285Y-41980952D01*
X144442857Y-41980952D01*
X143900000Y-41561904D02*
X143500000Y-41561904D01*
X143757142Y-42361904D01*
X144100000Y-44361904D02*
X144300000Y-43980952D01*
X144442857Y-44361904D02*
X144442857Y-43561904D01*
X144214285Y-43561904D01*
X144157142Y-43600000D01*
X144128571Y-43638095D01*
X144100000Y-43714285D01*
X144100000Y-43828571D01*
X144128571Y-43904761D01*
X144157142Y-43942857D01*
X144214285Y-43980952D01*
X144442857Y-43980952D01*
X143585714Y-43561904D02*
X143700000Y-43561904D01*
X143757142Y-43600000D01*
X143785714Y-43638095D01*
X143842857Y-43752380D01*
X143871428Y-43904761D01*
X143871428Y-44209523D01*
X143842857Y-44285714D01*
X143814285Y-44323809D01*
X143757142Y-44361904D01*
X143642857Y-44361904D01*
X143585714Y-44323809D01*
X143557142Y-44285714D01*
X143528571Y-44209523D01*
X143528571Y-44019047D01*
X143557142Y-43942857D01*
X143585714Y-43904761D01*
X143642857Y-43866666D01*
X143757142Y-43866666D01*
X143814285Y-43904761D01*
X143842857Y-43942857D01*
X143871428Y-44019047D01*
X101885714Y-34361904D02*
X102085714Y-33980952D01*
X102228571Y-34361904D02*
X102228571Y-33561904D01*
X102000000Y-33561904D01*
X101942857Y-33600000D01*
X101914285Y-33638095D01*
X101885714Y-33714285D01*
X101885714Y-33828571D01*
X101914285Y-33904761D01*
X101942857Y-33942857D01*
X102000000Y-33980952D01*
X102228571Y-33980952D01*
X101314285Y-34361904D02*
X101657142Y-34361904D01*
X101485714Y-34361904D02*
X101485714Y-33561904D01*
X101542857Y-33676190D01*
X101600000Y-33752380D01*
X101657142Y-33790476D01*
X100971428Y-33904761D02*
X101028571Y-33866666D01*
X101057142Y-33828571D01*
X101085714Y-33752380D01*
X101085714Y-33714285D01*
X101057142Y-33638095D01*
X101028571Y-33600000D01*
X100971428Y-33561904D01*
X100857142Y-33561904D01*
X100800000Y-33600000D01*
X100771428Y-33638095D01*
X100742857Y-33714285D01*
X100742857Y-33752380D01*
X100771428Y-33828571D01*
X100800000Y-33866666D01*
X100857142Y-33904761D01*
X100971428Y-33904761D01*
X101028571Y-33942857D01*
X101057142Y-33980952D01*
X101085714Y-34057142D01*
X101085714Y-34209523D01*
X101057142Y-34285714D01*
X101028571Y-34323809D01*
X100971428Y-34361904D01*
X100857142Y-34361904D01*
X100800000Y-34323809D01*
X100771428Y-34285714D01*
X100742857Y-34209523D01*
X100742857Y-34057142D01*
X100771428Y-33980952D01*
X100800000Y-33942857D01*
X100857142Y-33904761D01*
X101885714Y-36361904D02*
X102085714Y-35980952D01*
X102228571Y-36361904D02*
X102228571Y-35561904D01*
X102000000Y-35561904D01*
X101942857Y-35600000D01*
X101914285Y-35638095D01*
X101885714Y-35714285D01*
X101885714Y-35828571D01*
X101914285Y-35904761D01*
X101942857Y-35942857D01*
X102000000Y-35980952D01*
X102228571Y-35980952D01*
X101314285Y-36361904D02*
X101657142Y-36361904D01*
X101485714Y-36361904D02*
X101485714Y-35561904D01*
X101542857Y-35676190D01*
X101600000Y-35752380D01*
X101657142Y-35790476D01*
X101028571Y-36361904D02*
X100914285Y-36361904D01*
X100857142Y-36323809D01*
X100828571Y-36285714D01*
X100771428Y-36171428D01*
X100742857Y-36019047D01*
X100742857Y-35714285D01*
X100771428Y-35638095D01*
X100800000Y-35600000D01*
X100857142Y-35561904D01*
X100971428Y-35561904D01*
X101028571Y-35600000D01*
X101057142Y-35638095D01*
X101085714Y-35714285D01*
X101085714Y-35904761D01*
X101057142Y-35980952D01*
X101028571Y-36019047D01*
X100971428Y-36057142D01*
X100857142Y-36057142D01*
X100800000Y-36019047D01*
X100771428Y-35980952D01*
X100742857Y-35904761D01*
X101885714Y-38361904D02*
X102085714Y-37980952D01*
X102228571Y-38361904D02*
X102228571Y-37561904D01*
X102000000Y-37561904D01*
X101942857Y-37600000D01*
X101914285Y-37638095D01*
X101885714Y-37714285D01*
X101885714Y-37828571D01*
X101914285Y-37904761D01*
X101942857Y-37942857D01*
X102000000Y-37980952D01*
X102228571Y-37980952D01*
X101657142Y-37638095D02*
X101628571Y-37600000D01*
X101571428Y-37561904D01*
X101428571Y-37561904D01*
X101371428Y-37600000D01*
X101342857Y-37638095D01*
X101314285Y-37714285D01*
X101314285Y-37790476D01*
X101342857Y-37904761D01*
X101685714Y-38361904D01*
X101314285Y-38361904D01*
X100942857Y-37561904D02*
X100885714Y-37561904D01*
X100828571Y-37600000D01*
X100800000Y-37638095D01*
X100771428Y-37714285D01*
X100742857Y-37866666D01*
X100742857Y-38057142D01*
X100771428Y-38209523D01*
X100800000Y-38285714D01*
X100828571Y-38323809D01*
X100885714Y-38361904D01*
X100942857Y-38361904D01*
X101000000Y-38323809D01*
X101028571Y-38285714D01*
X101057142Y-38209523D01*
X101085714Y-38057142D01*
X101085714Y-37866666D01*
X101057142Y-37714285D01*
X101028571Y-37638095D01*
X101000000Y-37600000D01*
X100942857Y-37561904D01*
X97885714Y-35285714D02*
X97914285Y-35323809D01*
X98000000Y-35361904D01*
X98057142Y-35361904D01*
X98142857Y-35323809D01*
X98200000Y-35247619D01*
X98228571Y-35171428D01*
X98257142Y-35019047D01*
X98257142Y-34904761D01*
X98228571Y-34752380D01*
X98200000Y-34676190D01*
X98142857Y-34600000D01*
X98057142Y-34561904D01*
X98000000Y-34561904D01*
X97914285Y-34600000D01*
X97885714Y-34638095D01*
X97314285Y-35361904D02*
X97657142Y-35361904D01*
X97485714Y-35361904D02*
X97485714Y-34561904D01*
X97542857Y-34676190D01*
X97600000Y-34752380D01*
X97657142Y-34790476D01*
X97114285Y-34561904D02*
X96714285Y-34561904D01*
X96971428Y-35361904D01*
X97885714Y-39285714D02*
X97914285Y-39323809D01*
X98000000Y-39361904D01*
X98057142Y-39361904D01*
X98142857Y-39323809D01*
X98200000Y-39247619D01*
X98228571Y-39171428D01*
X98257142Y-39019047D01*
X98257142Y-38904761D01*
X98228571Y-38752380D01*
X98200000Y-38676190D01*
X98142857Y-38600000D01*
X98057142Y-38561904D01*
X98000000Y-38561904D01*
X97914285Y-38600000D01*
X97885714Y-38638095D01*
X97314285Y-39361904D02*
X97657142Y-39361904D01*
X97485714Y-39361904D02*
X97485714Y-38561904D01*
X97542857Y-38676190D01*
X97600000Y-38752380D01*
X97657142Y-38790476D01*
X96971428Y-38904761D02*
X97028571Y-38866666D01*
X97057142Y-38828571D01*
X97085714Y-38752380D01*
X97085714Y-38714285D01*
X97057142Y-38638095D01*
X97028571Y-38600000D01*
X96971428Y-38561904D01*
X96857142Y-38561904D01*
X96800000Y-38600000D01*
X96771428Y-38638095D01*
X96742857Y-38714285D01*
X96742857Y-38752380D01*
X96771428Y-38828571D01*
X96800000Y-38866666D01*
X96857142Y-38904761D01*
X96971428Y-38904761D01*
X97028571Y-38942857D01*
X97057142Y-38980952D01*
X97085714Y-39057142D01*
X97085714Y-39209523D01*
X97057142Y-39285714D01*
X97028571Y-39323809D01*
X96971428Y-39361904D01*
X96857142Y-39361904D01*
X96800000Y-39323809D01*
X96771428Y-39285714D01*
X96742857Y-39209523D01*
X96742857Y-39057142D01*
X96771428Y-38980952D01*
X96800000Y-38942857D01*
X96857142Y-38904761D01*
X97885714Y-37285714D02*
X97914285Y-37323809D01*
X98000000Y-37361904D01*
X98057142Y-37361904D01*
X98142857Y-37323809D01*
X98200000Y-37247619D01*
X98228571Y-37171428D01*
X98257142Y-37019047D01*
X98257142Y-36904761D01*
X98228571Y-36752380D01*
X98200000Y-36676190D01*
X98142857Y-36600000D01*
X98057142Y-36561904D01*
X98000000Y-36561904D01*
X97914285Y-36600000D01*
X97885714Y-36638095D01*
X97314285Y-37361904D02*
X97657142Y-37361904D01*
X97485714Y-37361904D02*
X97485714Y-36561904D01*
X97542857Y-36676190D01*
X97600000Y-36752380D01*
X97657142Y-36790476D01*
X97028571Y-37361904D02*
X96914285Y-37361904D01*
X96857142Y-37323809D01*
X96828571Y-37285714D01*
X96771428Y-37171428D01*
X96742857Y-37019047D01*
X96742857Y-36714285D01*
X96771428Y-36638095D01*
X96800000Y-36600000D01*
X96857142Y-36561904D01*
X96971428Y-36561904D01*
X97028571Y-36600000D01*
X97057142Y-36638095D01*
X97085714Y-36714285D01*
X97085714Y-36904761D01*
X97057142Y-36980952D01*
X97028571Y-37019047D01*
X96971428Y-37057142D01*
X96857142Y-37057142D01*
X96800000Y-37019047D01*
X96771428Y-36980952D01*
X96742857Y-36904761D01*
X169757142Y-37561904D02*
X169414285Y-37561904D01*
X169585714Y-38361904D02*
X169585714Y-37561904D01*
X169214285Y-38361904D02*
X169214285Y-37561904D01*
X168985714Y-37561904D01*
X168928571Y-37600000D01*
X168900000Y-37638095D01*
X168871428Y-37714285D01*
X168871428Y-37828571D01*
X168900000Y-37904761D01*
X168928571Y-37942857D01*
X168985714Y-37980952D01*
X169214285Y-37980952D01*
X168357142Y-37828571D02*
X168357142Y-38361904D01*
X168500000Y-37523809D02*
X168642857Y-38095238D01*
X168271428Y-38095238D01*
X168600000Y-39823809D02*
X168542857Y-39861904D01*
X168428571Y-39861904D01*
X168371428Y-39823809D01*
X168342857Y-39747619D01*
X168342857Y-39709523D01*
X168371428Y-39633333D01*
X168428571Y-39595238D01*
X168514285Y-39595238D01*
X168571428Y-39557142D01*
X168600000Y-39480952D01*
X168600000Y-39442857D01*
X168571428Y-39366666D01*
X168514285Y-39328571D01*
X168428571Y-39328571D01*
X168371428Y-39366666D01*
X168085714Y-39328571D02*
X168085714Y-40128571D01*
X168085714Y-39366666D02*
X168028571Y-39328571D01*
X167914285Y-39328571D01*
X167857142Y-39366666D01*
X167828571Y-39404761D01*
X167800000Y-39480952D01*
X167800000Y-39709523D01*
X167828571Y-39785714D01*
X167857142Y-39823809D01*
X167914285Y-39861904D01*
X168028571Y-39861904D01*
X168085714Y-39823809D01*
X167542857Y-39861904D02*
X167542857Y-39061904D01*
X167485714Y-39557142D02*
X167314285Y-39861904D01*
X167314285Y-39328571D02*
X167542857Y-39633333D01*
X167200000Y-39938095D02*
X166742857Y-39938095D01*
X166342857Y-39823809D02*
X166400000Y-39861904D01*
X166514285Y-39861904D01*
X166571428Y-39823809D01*
X166600000Y-39785714D01*
X166628571Y-39709523D01*
X166628571Y-39480952D01*
X166600000Y-39404761D01*
X166571428Y-39366666D01*
X166514285Y-39328571D01*
X166400000Y-39328571D01*
X166342857Y-39366666D01*
X166085714Y-39861904D02*
X166085714Y-39061904D01*
X165828571Y-39861904D02*
X165828571Y-39442857D01*
X165857142Y-39366666D01*
X165914285Y-39328571D01*
X166000000Y-39328571D01*
X166057142Y-39366666D01*
X166085714Y-39404761D01*
X165285714Y-39861904D02*
X165285714Y-39442857D01*
X165314285Y-39366666D01*
X165371428Y-39328571D01*
X165485714Y-39328571D01*
X165542857Y-39366666D01*
X165285714Y-39823809D02*
X165342857Y-39861904D01*
X165485714Y-39861904D01*
X165542857Y-39823809D01*
X165571428Y-39747619D01*
X165571428Y-39671428D01*
X165542857Y-39595238D01*
X165485714Y-39557142D01*
X165342857Y-39557142D01*
X165285714Y-39519047D01*
X165000000Y-39861904D02*
X165000000Y-39328571D01*
X165000000Y-39061904D02*
X165028571Y-39100000D01*
X165000000Y-39138095D01*
X164971428Y-39100000D01*
X165000000Y-39061904D01*
X165000000Y-39138095D01*
X164714285Y-39328571D02*
X164714285Y-39861904D01*
X164714285Y-39404761D02*
X164685714Y-39366666D01*
X164628571Y-39328571D01*
X164542857Y-39328571D01*
X164485714Y-39366666D01*
X164457142Y-39442857D01*
X164457142Y-39861904D01*
X164314285Y-39938095D02*
X163857142Y-39938095D01*
X163400000Y-39861904D02*
X163742857Y-39861904D01*
X163571428Y-39861904D02*
X163571428Y-39061904D01*
X163628571Y-39176190D01*
X163685714Y-39252380D01*
X163742857Y-39290476D01*
X132757142Y-42561904D02*
X132414285Y-42561904D01*
X132585714Y-43361904D02*
X132585714Y-42561904D01*
X132214285Y-43361904D02*
X132214285Y-42561904D01*
X131985714Y-42561904D01*
X131928571Y-42600000D01*
X131900000Y-42638095D01*
X131871428Y-42714285D01*
X131871428Y-42828571D01*
X131900000Y-42904761D01*
X131928571Y-42942857D01*
X131985714Y-42980952D01*
X132214285Y-42980952D01*
X131300000Y-43361904D02*
X131642857Y-43361904D01*
X131471428Y-43361904D02*
X131471428Y-42561904D01*
X131528571Y-42676190D01*
X131585714Y-42752380D01*
X131642857Y-42790476D01*
X129657142Y-44328571D02*
X129514285Y-44861904D01*
X129371428Y-44328571D01*
X128857142Y-44061904D02*
X129142857Y-44061904D01*
X129171428Y-44442857D01*
X129142857Y-44404761D01*
X129085714Y-44366666D01*
X128942857Y-44366666D01*
X128885714Y-44404761D01*
X128857142Y-44442857D01*
X128828571Y-44519047D01*
X128828571Y-44709523D01*
X128857142Y-44785714D01*
X128885714Y-44823809D01*
X128942857Y-44861904D01*
X129085714Y-44861904D01*
X129142857Y-44823809D01*
X129171428Y-44785714D01*
X128628571Y-44328571D02*
X128485714Y-44861904D01*
X128342857Y-44328571D01*
X139757142Y-38561904D02*
X139414285Y-38561904D01*
X139585714Y-39361904D02*
X139585714Y-38561904D01*
X139214285Y-39361904D02*
X139214285Y-38561904D01*
X138985714Y-38561904D01*
X138928571Y-38600000D01*
X138900000Y-38638095D01*
X138871428Y-38714285D01*
X138871428Y-38828571D01*
X138900000Y-38904761D01*
X138928571Y-38942857D01*
X138985714Y-38980952D01*
X139214285Y-38980952D01*
X138642857Y-38638095D02*
X138614285Y-38600000D01*
X138557142Y-38561904D01*
X138414285Y-38561904D01*
X138357142Y-38600000D01*
X138328571Y-38638095D01*
X138300000Y-38714285D01*
X138300000Y-38790476D01*
X138328571Y-38904761D01*
X138671428Y-39361904D01*
X138300000Y-39361904D01*
X136942857Y-40328571D02*
X136800000Y-40861904D01*
X136657142Y-40328571D01*
X136485714Y-40061904D02*
X136114285Y-40061904D01*
X136314285Y-40366666D01*
X136228571Y-40366666D01*
X136171428Y-40404761D01*
X136142857Y-40442857D01*
X136114285Y-40519047D01*
X136114285Y-40709523D01*
X136142857Y-40785714D01*
X136171428Y-40823809D01*
X136228571Y-40861904D01*
X136400000Y-40861904D01*
X136457142Y-40823809D01*
X136485714Y-40785714D01*
X135914285Y-40328571D02*
X135771428Y-40861904D01*
X135628571Y-40328571D01*
X135457142Y-40061904D02*
X135085714Y-40061904D01*
X135285714Y-40366666D01*
X135200000Y-40366666D01*
X135142857Y-40404761D01*
X135114285Y-40442857D01*
X135085714Y-40519047D01*
X135085714Y-40709523D01*
X135114285Y-40785714D01*
X135142857Y-40823809D01*
X135200000Y-40861904D01*
X135371428Y-40861904D01*
X135428571Y-40823809D01*
X135457142Y-40785714D01*
X119757142Y-38561904D02*
X119414285Y-38561904D01*
X119585714Y-39361904D02*
X119585714Y-38561904D01*
X119214285Y-39361904D02*
X119214285Y-38561904D01*
X118985714Y-38561904D01*
X118928571Y-38600000D01*
X118900000Y-38638095D01*
X118871428Y-38714285D01*
X118871428Y-38828571D01*
X118900000Y-38904761D01*
X118928571Y-38942857D01*
X118985714Y-38980952D01*
X119214285Y-38980952D01*
X118671428Y-38561904D02*
X118300000Y-38561904D01*
X118500000Y-38866666D01*
X118414285Y-38866666D01*
X118357142Y-38904761D01*
X118328571Y-38942857D01*
X118300000Y-39019047D01*
X118300000Y-39209523D01*
X118328571Y-39285714D01*
X118357142Y-39323809D01*
X118414285Y-39361904D01*
X118585714Y-39361904D01*
X118642857Y-39323809D01*
X118671428Y-39285714D01*
X123657142Y-40328571D02*
X123514285Y-40861904D01*
X123371428Y-40328571D01*
X122885714Y-40861904D02*
X122885714Y-40442857D01*
X122914285Y-40366666D01*
X122971428Y-40328571D01*
X123085714Y-40328571D01*
X123142857Y-40366666D01*
X122885714Y-40823809D02*
X122942857Y-40861904D01*
X123085714Y-40861904D01*
X123142857Y-40823809D01*
X123171428Y-40747619D01*
X123171428Y-40671428D01*
X123142857Y-40595238D01*
X123085714Y-40557142D01*
X122942857Y-40557142D01*
X122885714Y-40519047D01*
X122600000Y-40328571D02*
X122600000Y-40861904D01*
X122600000Y-40404761D02*
X122571428Y-40366666D01*
X122514285Y-40328571D01*
X122428571Y-40328571D01*
X122371428Y-40366666D01*
X122342857Y-40442857D01*
X122342857Y-40861904D01*
X121800000Y-40861904D02*
X121800000Y-40442857D01*
X121828571Y-40366666D01*
X121885714Y-40328571D01*
X122000000Y-40328571D01*
X122057142Y-40366666D01*
X121800000Y-40823809D02*
X121857142Y-40861904D01*
X122000000Y-40861904D01*
X122057142Y-40823809D01*
X122085714Y-40747619D01*
X122085714Y-40671428D01*
X122057142Y-40595238D01*
X122000000Y-40557142D01*
X121857142Y-40557142D01*
X121800000Y-40519047D01*
X121428571Y-40861904D02*
X121485714Y-40823809D01*
X121514285Y-40747619D01*
X121514285Y-40061904D01*
X121114285Y-40861904D02*
X121171428Y-40823809D01*
X121200000Y-40785714D01*
X121228571Y-40709523D01*
X121228571Y-40480952D01*
X121200000Y-40404761D01*
X121171428Y-40366666D01*
X121114285Y-40328571D01*
X121028571Y-40328571D01*
X120971428Y-40366666D01*
X120942857Y-40404761D01*
X120914285Y-40480952D01*
X120914285Y-40709523D01*
X120942857Y-40785714D01*
X120971428Y-40823809D01*
X121028571Y-40861904D01*
X121114285Y-40861904D01*
X120400000Y-40328571D02*
X120400000Y-40976190D01*
X120428571Y-41052380D01*
X120457142Y-41090476D01*
X120514285Y-41128571D01*
X120600000Y-41128571D01*
X120657142Y-41090476D01*
X120400000Y-40823809D02*
X120457142Y-40861904D01*
X120571428Y-40861904D01*
X120628571Y-40823809D01*
X120657142Y-40785714D01*
X120685714Y-40709523D01*
X120685714Y-40480952D01*
X120657142Y-40404761D01*
X120628571Y-40366666D01*
X120571428Y-40328571D01*
X120457142Y-40328571D01*
X120400000Y-40366666D01*
X113757142Y-36561904D02*
X113414285Y-36561904D01*
X113585714Y-37361904D02*
X113585714Y-36561904D01*
X113214285Y-37361904D02*
X113214285Y-36561904D01*
X112985714Y-36561904D01*
X112928571Y-36600000D01*
X112900000Y-36638095D01*
X112871428Y-36714285D01*
X112871428Y-36828571D01*
X112900000Y-36904761D01*
X112928571Y-36942857D01*
X112985714Y-36980952D01*
X113214285Y-36980952D01*
X112328571Y-36561904D02*
X112614285Y-36561904D01*
X112642857Y-36942857D01*
X112614285Y-36904761D01*
X112557142Y-36866666D01*
X112414285Y-36866666D01*
X112357142Y-36904761D01*
X112328571Y-36942857D01*
X112300000Y-37019047D01*
X112300000Y-37209523D01*
X112328571Y-37285714D01*
X112357142Y-37323809D01*
X112414285Y-37361904D01*
X112557142Y-37361904D01*
X112614285Y-37323809D01*
X112642857Y-37285714D01*
X112985714Y-38861904D02*
X112985714Y-38328571D01*
X112985714Y-38404761D02*
X112957142Y-38366666D01*
X112900000Y-38328571D01*
X112814285Y-38328571D01*
X112757142Y-38366666D01*
X112728571Y-38442857D01*
X112728571Y-38861904D01*
X112728571Y-38442857D02*
X112700000Y-38366666D01*
X112642857Y-38328571D01*
X112557142Y-38328571D01*
X112500000Y-38366666D01*
X112471428Y-38442857D01*
X112471428Y-38861904D01*
X111957142Y-38823809D02*
X112014285Y-38861904D01*
X112128571Y-38861904D01*
X112185714Y-38823809D01*
X112214285Y-38747619D01*
X112214285Y-38442857D01*
X112185714Y-38366666D01*
X112128571Y-38328571D01*
X112014285Y-38328571D01*
X111957142Y-38366666D01*
X111928571Y-38442857D01*
X111928571Y-38519047D01*
X112214285Y-38595238D01*
X111414285Y-38861904D02*
X111414285Y-38442857D01*
X111442857Y-38366666D01*
X111500000Y-38328571D01*
X111614285Y-38328571D01*
X111671428Y-38366666D01*
X111414285Y-38823809D02*
X111471428Y-38861904D01*
X111614285Y-38861904D01*
X111671428Y-38823809D01*
X111700000Y-38747619D01*
X111700000Y-38671428D01*
X111671428Y-38595238D01*
X111614285Y-38557142D01*
X111471428Y-38557142D01*
X111414285Y-38519047D01*
X111157142Y-38823809D02*
X111100000Y-38861904D01*
X110985714Y-38861904D01*
X110928571Y-38823809D01*
X110900000Y-38747619D01*
X110900000Y-38709523D01*
X110928571Y-38633333D01*
X110985714Y-38595238D01*
X111071428Y-38595238D01*
X111128571Y-38557142D01*
X111157142Y-38480952D01*
X111157142Y-38442857D01*
X111128571Y-38366666D01*
X111071428Y-38328571D01*
X110985714Y-38328571D01*
X110928571Y-38366666D01*
X110785714Y-38938095D02*
X110328571Y-38938095D01*
X109928571Y-38823809D02*
X109985714Y-38861904D01*
X110100000Y-38861904D01*
X110157142Y-38823809D01*
X110185714Y-38785714D01*
X110214285Y-38709523D01*
X110214285Y-38480952D01*
X110185714Y-38404761D01*
X110157142Y-38366666D01*
X110100000Y-38328571D01*
X109985714Y-38328571D01*
X109928571Y-38366666D01*
X109671428Y-38861904D02*
X109671428Y-38061904D01*
X109414285Y-38861904D02*
X109414285Y-38442857D01*
X109442857Y-38366666D01*
X109500000Y-38328571D01*
X109585714Y-38328571D01*
X109642857Y-38366666D01*
X109671428Y-38404761D01*
X108871428Y-38861904D02*
X108871428Y-38442857D01*
X108900000Y-38366666D01*
X108957142Y-38328571D01*
X109071428Y-38328571D01*
X109128571Y-38366666D01*
X108871428Y-38823809D02*
X108928571Y-38861904D01*
X109071428Y-38861904D01*
X109128571Y-38823809D01*
X109157142Y-38747619D01*
X109157142Y-38671428D01*
X109128571Y-38595238D01*
X109071428Y-38557142D01*
X108928571Y-38557142D01*
X108871428Y-38519047D01*
X108585714Y-38861904D02*
X108585714Y-38328571D01*
X108585714Y-38061904D02*
X108614285Y-38100000D01*
X108585714Y-38138095D01*
X108557142Y-38100000D01*
X108585714Y-38061904D01*
X108585714Y-38138095D01*
X108300000Y-38328571D02*
X108300000Y-38861904D01*
X108300000Y-38404761D02*
X108271428Y-38366666D01*
X108214285Y-38328571D01*
X108128571Y-38328571D01*
X108071428Y-38366666D01*
X108042857Y-38442857D01*
X108042857Y-38861904D01*
X107900000Y-38938095D02*
X107442857Y-38938095D01*
X106985714Y-38861904D02*
X107328571Y-38861904D01*
X107157142Y-38861904D02*
X107157142Y-38061904D01*
X107214285Y-38176190D01*
X107271428Y-38252380D01*
X107328571Y-38290476D01*
X129757142Y-36561904D02*
X129414285Y-36561904D01*
X129585714Y-37361904D02*
X129585714Y-36561904D01*
X129214285Y-37361904D02*
X129214285Y-36561904D01*
X128985714Y-36561904D01*
X128928571Y-36600000D01*
X128900000Y-36638095D01*
X128871428Y-36714285D01*
X128871428Y-36828571D01*
X128900000Y-36904761D01*
X128928571Y-36942857D01*
X128985714Y-36980952D01*
X129214285Y-36980952D01*
X128357142Y-36561904D02*
X128471428Y-36561904D01*
X128528571Y-36600000D01*
X128557142Y-36638095D01*
X128614285Y-36752380D01*
X128642857Y-36904761D01*
X128642857Y-37209523D01*
X128614285Y-37285714D01*
X128585714Y-37323809D01*
X128528571Y-37361904D01*
X128414285Y-37361904D01*
X128357142Y-37323809D01*
X128328571Y-37285714D01*
X128300000Y-37209523D01*
X128300000Y-37019047D01*
X128328571Y-36942857D01*
X128357142Y-36904761D01*
X128414285Y-36866666D01*
X128528571Y-36866666D01*
X128585714Y-36904761D01*
X128614285Y-36942857D01*
X128642857Y-37019047D01*
X132471428Y-40861904D02*
X132471428Y-40442857D01*
X132500000Y-40366666D01*
X132557142Y-40328571D01*
X132671428Y-40328571D01*
X132728571Y-40366666D01*
X132471428Y-40823809D02*
X132528571Y-40861904D01*
X132671428Y-40861904D01*
X132728571Y-40823809D01*
X132757142Y-40747619D01*
X132757142Y-40671428D01*
X132728571Y-40595238D01*
X132671428Y-40557142D01*
X132528571Y-40557142D01*
X132471428Y-40519047D01*
X131928571Y-40861904D02*
X131928571Y-40061904D01*
X131928571Y-40823809D02*
X131985714Y-40861904D01*
X132100000Y-40861904D01*
X132157142Y-40823809D01*
X132185714Y-40785714D01*
X132214285Y-40709523D01*
X132214285Y-40480952D01*
X132185714Y-40404761D01*
X132157142Y-40366666D01*
X132100000Y-40328571D01*
X131985714Y-40328571D01*
X131928571Y-40366666D01*
X131385714Y-40823809D02*
X131442857Y-40861904D01*
X131557142Y-40861904D01*
X131614285Y-40823809D01*
X131642857Y-40785714D01*
X131671428Y-40709523D01*
X131671428Y-40480952D01*
X131642857Y-40404761D01*
X131614285Y-40366666D01*
X131557142Y-40328571D01*
X131442857Y-40328571D01*
X131385714Y-40366666D01*
X131271428Y-40938095D02*
X130814285Y-40938095D01*
X130728571Y-40328571D02*
X130585714Y-40861904D01*
X130442857Y-40328571D01*
X130214285Y-40861904D02*
X130214285Y-40328571D01*
X130214285Y-40480952D02*
X130185714Y-40404761D01*
X130157142Y-40366666D01*
X130100000Y-40328571D01*
X130042857Y-40328571D01*
X129614285Y-40823809D02*
X129671428Y-40861904D01*
X129785714Y-40861904D01*
X129842857Y-40823809D01*
X129871428Y-40747619D01*
X129871428Y-40442857D01*
X129842857Y-40366666D01*
X129785714Y-40328571D01*
X129671428Y-40328571D01*
X129614285Y-40366666D01*
X129585714Y-40442857D01*
X129585714Y-40519047D01*
X129871428Y-40595238D01*
X129414285Y-40328571D02*
X129185714Y-40328571D01*
X129328571Y-40861904D02*
X129328571Y-40176190D01*
X129300000Y-40100000D01*
X129242857Y-40061904D01*
X129185714Y-40061904D01*
X101885714Y-40361904D02*
X102085714Y-39980952D01*
X102228571Y-40361904D02*
X102228571Y-39561904D01*
X102000000Y-39561904D01*
X101942857Y-39600000D01*
X101914285Y-39638095D01*
X101885714Y-39714285D01*
X101885714Y-39828571D01*
X101914285Y-39904761D01*
X101942857Y-39942857D01*
X102000000Y-39980952D01*
X102228571Y-39980952D01*
X101657142Y-39638095D02*
X101628571Y-39600000D01*
X101571428Y-39561904D01*
X101428571Y-39561904D01*
X101371428Y-39600000D01*
X101342857Y-39638095D01*
X101314285Y-39714285D01*
X101314285Y-39790476D01*
X101342857Y-39904761D01*
X101685714Y-40361904D01*
X101314285Y-40361904D01*
X101114285Y-39561904D02*
X100742857Y-39561904D01*
X100942857Y-39866666D01*
X100857142Y-39866666D01*
X100800000Y-39904761D01*
X100771428Y-39942857D01*
X100742857Y-40019047D01*
X100742857Y-40209523D01*
X100771428Y-40285714D01*
X100800000Y-40323809D01*
X100857142Y-40361904D01*
X101028571Y-40361904D01*
X101085714Y-40323809D01*
X101114285Y-40285714D01*
X101885714Y-42361904D02*
X102085714Y-41980952D01*
X102228571Y-42361904D02*
X102228571Y-41561904D01*
X102000000Y-41561904D01*
X101942857Y-41600000D01*
X101914285Y-41638095D01*
X101885714Y-41714285D01*
X101885714Y-41828571D01*
X101914285Y-41904761D01*
X101942857Y-41942857D01*
X102000000Y-41980952D01*
X102228571Y-41980952D01*
X101657142Y-41638095D02*
X101628571Y-41600000D01*
X101571428Y-41561904D01*
X101428571Y-41561904D01*
X101371428Y-41600000D01*
X101342857Y-41638095D01*
X101314285Y-41714285D01*
X101314285Y-41790476D01*
X101342857Y-41904761D01*
X101685714Y-42361904D01*
X101314285Y-42361904D01*
X100800000Y-41828571D02*
X100800000Y-42361904D01*
X100942857Y-41523809D02*
X101085714Y-42095238D01*
X100714285Y-42095238D01*
X101885714Y-44361904D02*
X102085714Y-43980952D01*
X102228571Y-44361904D02*
X102228571Y-43561904D01*
X102000000Y-43561904D01*
X101942857Y-43600000D01*
X101914285Y-43638095D01*
X101885714Y-43714285D01*
X101885714Y-43828571D01*
X101914285Y-43904761D01*
X101942857Y-43942857D01*
X102000000Y-43980952D01*
X102228571Y-43980952D01*
X101657142Y-43638095D02*
X101628571Y-43600000D01*
X101571428Y-43561904D01*
X101428571Y-43561904D01*
X101371428Y-43600000D01*
X101342857Y-43638095D01*
X101314285Y-43714285D01*
X101314285Y-43790476D01*
X101342857Y-43904761D01*
X101685714Y-44361904D01*
X101314285Y-44361904D01*
X100771428Y-43561904D02*
X101057142Y-43561904D01*
X101085714Y-43942857D01*
X101057142Y-43904761D01*
X101000000Y-43866666D01*
X100857142Y-43866666D01*
X100800000Y-43904761D01*
X100771428Y-43942857D01*
X100742857Y-44019047D01*
X100742857Y-44209523D01*
X100771428Y-44285714D01*
X100800000Y-44323809D01*
X100857142Y-44361904D01*
X101000000Y-44361904D01*
X101057142Y-44323809D01*
X101085714Y-44285714D01*
X101885714Y-46361904D02*
X102085714Y-45980952D01*
X102228571Y-46361904D02*
X102228571Y-45561904D01*
X102000000Y-45561904D01*
X101942857Y-45600000D01*
X101914285Y-45638095D01*
X101885714Y-45714285D01*
X101885714Y-45828571D01*
X101914285Y-45904761D01*
X101942857Y-45942857D01*
X102000000Y-45980952D01*
X102228571Y-45980952D01*
X101657142Y-45638095D02*
X101628571Y-45600000D01*
X101571428Y-45561904D01*
X101428571Y-45561904D01*
X101371428Y-45600000D01*
X101342857Y-45638095D01*
X101314285Y-45714285D01*
X101314285Y-45790476D01*
X101342857Y-45904761D01*
X101685714Y-46361904D01*
X101314285Y-46361904D01*
X100800000Y-45561904D02*
X100914285Y-45561904D01*
X100971428Y-45600000D01*
X101000000Y-45638095D01*
X101057142Y-45752380D01*
X101085714Y-45904761D01*
X101085714Y-46209523D01*
X101057142Y-46285714D01*
X101028571Y-46323809D01*
X100971428Y-46361904D01*
X100857142Y-46361904D01*
X100800000Y-46323809D01*
X100771428Y-46285714D01*
X100742857Y-46209523D01*
X100742857Y-46019047D01*
X100771428Y-45942857D01*
X100800000Y-45904761D01*
X100857142Y-45866666D01*
X100971428Y-45866666D01*
X101028571Y-45904761D01*
X101057142Y-45942857D01*
X101085714Y-46019047D01*
X97885714Y-41285714D02*
X97914285Y-41323809D01*
X98000000Y-41361904D01*
X98057142Y-41361904D01*
X98142857Y-41323809D01*
X98200000Y-41247619D01*
X98228571Y-41171428D01*
X98257142Y-41019047D01*
X98257142Y-40904761D01*
X98228571Y-40752380D01*
X98200000Y-40676190D01*
X98142857Y-40600000D01*
X98057142Y-40561904D01*
X98000000Y-40561904D01*
X97914285Y-40600000D01*
X97885714Y-40638095D01*
X97657142Y-40638095D02*
X97628571Y-40600000D01*
X97571428Y-40561904D01*
X97428571Y-40561904D01*
X97371428Y-40600000D01*
X97342857Y-40638095D01*
X97314285Y-40714285D01*
X97314285Y-40790476D01*
X97342857Y-40904761D01*
X97685714Y-41361904D01*
X97314285Y-41361904D01*
X97114285Y-40561904D02*
X96714285Y-40561904D01*
X96971428Y-41361904D01*
X97885714Y-45285714D02*
X97914285Y-45323809D01*
X98000000Y-45361904D01*
X98057142Y-45361904D01*
X98142857Y-45323809D01*
X98200000Y-45247619D01*
X98228571Y-45171428D01*
X98257142Y-45019047D01*
X98257142Y-44904761D01*
X98228571Y-44752380D01*
X98200000Y-44676190D01*
X98142857Y-44600000D01*
X98057142Y-44561904D01*
X98000000Y-44561904D01*
X97914285Y-44600000D01*
X97885714Y-44638095D01*
X97657142Y-44638095D02*
X97628571Y-44600000D01*
X97571428Y-44561904D01*
X97428571Y-44561904D01*
X97371428Y-44600000D01*
X97342857Y-44638095D01*
X97314285Y-44714285D01*
X97314285Y-44790476D01*
X97342857Y-44904761D01*
X97685714Y-45361904D01*
X97314285Y-45361904D01*
X96971428Y-44904761D02*
X97028571Y-44866666D01*
X97057142Y-44828571D01*
X97085714Y-44752380D01*
X97085714Y-44714285D01*
X97057142Y-44638095D01*
X97028571Y-44600000D01*
X96971428Y-44561904D01*
X96857142Y-44561904D01*
X96800000Y-44600000D01*
X96771428Y-44638095D01*
X96742857Y-44714285D01*
X96742857Y-44752380D01*
X96771428Y-44828571D01*
X96800000Y-44866666D01*
X96857142Y-44904761D01*
X96971428Y-44904761D01*
X97028571Y-44942857D01*
X97057142Y-44980952D01*
X97085714Y-45057142D01*
X97085714Y-45209523D01*
X97057142Y-45285714D01*
X97028571Y-45323809D01*
X96971428Y-45361904D01*
X96857142Y-45361904D01*
X96800000Y-45323809D01*
X96771428Y-45285714D01*
X96742857Y-45209523D01*
X96742857Y-45057142D01*
X96771428Y-44980952D01*
X96800000Y-44942857D01*
X96857142Y-44904761D01*
X97885714Y-43285714D02*
X97914285Y-43323809D01*
X98000000Y-43361904D01*
X98057142Y-43361904D01*
X98142857Y-43323809D01*
X98200000Y-43247619D01*
X98228571Y-43171428D01*
X98257142Y-43019047D01*
X98257142Y-42904761D01*
X98228571Y-42752380D01*
X98200000Y-42676190D01*
X98142857Y-42600000D01*
X98057142Y-42561904D01*
X98000000Y-42561904D01*
X97914285Y-42600000D01*
X97885714Y-42638095D01*
X97657142Y-42638095D02*
X97628571Y-42600000D01*
X97571428Y-42561904D01*
X97428571Y-42561904D01*
X97371428Y-42600000D01*
X97342857Y-42638095D01*
X97314285Y-42714285D01*
X97314285Y-42790476D01*
X97342857Y-42904761D01*
X97685714Y-43361904D01*
X97314285Y-43361904D01*
X97028571Y-43361904D02*
X96914285Y-43361904D01*
X96857142Y-43323809D01*
X96828571Y-43285714D01*
X96771428Y-43171428D01*
X96742857Y-43019047D01*
X96742857Y-42714285D01*
X96771428Y-42638095D01*
X96800000Y-42600000D01*
X96857142Y-42561904D01*
X96971428Y-42561904D01*
X97028571Y-42600000D01*
X97057142Y-42638095D01*
X97085714Y-42714285D01*
X97085714Y-42904761D01*
X97057142Y-42980952D01*
X97028571Y-43019047D01*
X96971428Y-43057142D01*
X96857142Y-43057142D01*
X96800000Y-43019047D01*
X96771428Y-42980952D01*
X96742857Y-42904761D01*
X125385714Y-45285714D02*
X125414285Y-45323809D01*
X125500000Y-45361904D01*
X125557142Y-45361904D01*
X125642857Y-45323809D01*
X125700000Y-45247619D01*
X125728571Y-45171428D01*
X125757142Y-45019047D01*
X125757142Y-44904761D01*
X125728571Y-44752380D01*
X125700000Y-44676190D01*
X125642857Y-44600000D01*
X125557142Y-44561904D01*
X125500000Y-44561904D01*
X125414285Y-44600000D01*
X125385714Y-44638095D01*
X125185714Y-44561904D02*
X124814285Y-44561904D01*
X125014285Y-44866666D01*
X124928571Y-44866666D01*
X124871428Y-44904761D01*
X124842857Y-44942857D01*
X124814285Y-45019047D01*
X124814285Y-45209523D01*
X124842857Y-45285714D01*
X124871428Y-45323809D01*
X124928571Y-45361904D01*
X125100000Y-45361904D01*
X125157142Y-45323809D01*
X125185714Y-45285714D01*
X124242857Y-45361904D02*
X124585714Y-45361904D01*
X124414285Y-45361904D02*
X124414285Y-44561904D01*
X124471428Y-44676190D01*
X124528571Y-44752380D01*
X124585714Y-44790476D01*
X176385714Y-32785714D02*
X176414285Y-32823809D01*
X176500000Y-32861904D01*
X176557142Y-32861904D01*
X176642857Y-32823809D01*
X176700000Y-32747619D01*
X176728571Y-32671428D01*
X176757142Y-32519047D01*
X176757142Y-32404761D01*
X176728571Y-32252380D01*
X176700000Y-32176190D01*
X176642857Y-32100000D01*
X176557142Y-32061904D01*
X176500000Y-32061904D01*
X176414285Y-32100000D01*
X176385714Y-32138095D01*
X175814285Y-32861904D02*
X176157142Y-32861904D01*
X175985714Y-32861904D02*
X175985714Y-32061904D01*
X176042857Y-32176190D01*
X176100000Y-32252380D01*
X176157142Y-32290476D01*
X175585714Y-32138095D02*
X175557142Y-32100000D01*
X175500000Y-32061904D01*
X175357142Y-32061904D01*
X175300000Y-32100000D01*
X175271428Y-32138095D01*
X175242857Y-32214285D01*
X175242857Y-32290476D01*
X175271428Y-32404761D01*
X175614285Y-32861904D01*
X175242857Y-32861904D01*
X132942857Y-46361904D02*
X132942857Y-45561904D01*
X132800000Y-45561904D01*
X132714285Y-45600000D01*
X132657142Y-45676190D01*
X132628571Y-45752380D01*
X132600000Y-45904761D01*
X132600000Y-46019047D01*
X132628571Y-46171428D01*
X132657142Y-46247619D01*
X132714285Y-46323809D01*
X132800000Y-46361904D01*
X132942857Y-46361904D01*
X132400000Y-45561904D02*
X132028571Y-45561904D01*
X132228571Y-45866666D01*
X132142857Y-45866666D01*
X132085714Y-45904761D01*
X132057142Y-45942857D01*
X132028571Y-46019047D01*
X132028571Y-46209523D01*
X132057142Y-46285714D01*
X132085714Y-46323809D01*
X132142857Y-46361904D01*
X132314285Y-46361904D01*
X132371428Y-46323809D01*
X132400000Y-46285714D01*
X138100000Y-42785714D02*
X138128571Y-42823809D01*
X138214285Y-42861904D01*
X138271428Y-42861904D01*
X138357142Y-42823809D01*
X138414285Y-42747619D01*
X138442857Y-42671428D01*
X138471428Y-42519047D01*
X138471428Y-42404761D01*
X138442857Y-42252380D01*
X138414285Y-42176190D01*
X138357142Y-42100000D01*
X138271428Y-42061904D01*
X138214285Y-42061904D01*
X138128571Y-42100000D01*
X138100000Y-42138095D01*
X137528571Y-42861904D02*
X137871428Y-42861904D01*
X137700000Y-42861904D02*
X137700000Y-42061904D01*
X137757142Y-42176190D01*
X137814285Y-42252380D01*
X137871428Y-42290476D01*
X136100000Y-45081904D02*
X136385714Y-45081904D01*
X136385714Y-44281904D01*
X135585714Y-45081904D02*
X135928571Y-45081904D01*
X135757142Y-45081904D02*
X135757142Y-44281904D01*
X135814285Y-44396190D01*
X135871428Y-44472380D01*
X135928571Y-44510476D01*
X139442857Y-33361904D02*
X139442857Y-32561904D01*
X139300000Y-32561904D01*
X139214285Y-32600000D01*
X139157142Y-32676190D01*
X139128571Y-32752380D01*
X139100000Y-32904761D01*
X139100000Y-33019047D01*
X139128571Y-33171428D01*
X139157142Y-33247619D01*
X139214285Y-33323809D01*
X139300000Y-33361904D01*
X139442857Y-33361904D01*
X138585714Y-32828571D02*
X138585714Y-33361904D01*
X138728571Y-32523809D02*
X138871428Y-33095238D01*
X138500000Y-33095238D01*
X113442857Y-33361904D02*
X113442857Y-32561904D01*
X113300000Y-32561904D01*
X113214285Y-32600000D01*
X113157142Y-32676190D01*
X113128571Y-32752380D01*
X113100000Y-32904761D01*
X113100000Y-33019047D01*
X113128571Y-33171428D01*
X113157142Y-33247619D01*
X113214285Y-33323809D01*
X113300000Y-33361904D01*
X113442857Y-33361904D01*
X112557142Y-32561904D02*
X112842857Y-32561904D01*
X112871428Y-32942857D01*
X112842857Y-32904761D01*
X112785714Y-32866666D01*
X112642857Y-32866666D01*
X112585714Y-32904761D01*
X112557142Y-32942857D01*
X112528571Y-33019047D01*
X112528571Y-33209523D01*
X112557142Y-33285714D01*
X112585714Y-33323809D01*
X112642857Y-33361904D01*
X112785714Y-33361904D01*
X112842857Y-33323809D01*
X112871428Y-33285714D01*
M02*
