G04 #@! TF.GenerationSoftware,KiCad,Pcbnew,(5.1.12)-1*
G04 #@! TF.CreationDate,2022-04-24T17:31:39-07:00*
G04 #@! TF.ProjectId,MultimeterTest,4d756c74-696d-4657-9465-72546573742e,rev?*
G04 #@! TF.SameCoordinates,Original*
G04 #@! TF.FileFunction,Soldermask,Bot*
G04 #@! TF.FilePolarity,Negative*
%FSLAX46Y46*%
G04 Gerber Fmt 4.6, Leading zero omitted, Abs format (unit mm)*
G04 Created by KiCad (PCBNEW (5.1.12)-1) date 2022-04-24 17:31:39*
%MOMM*%
%LPD*%
G01*
G04 APERTURE LIST*
%ADD10C,0.650000*%
%ADD11C,2.640000*%
%ADD12C,2.000000*%
%ADD13R,2.000000X2.000000*%
%ADD14R,0.800000X0.900000*%
%ADD15R,0.600000X0.450000*%
%ADD16C,2.200000*%
%ADD17C,3.200000*%
%ADD18O,2.100000X1.000000*%
%ADD19O,1.600000X1.000000*%
%ADD20C,0.650000*%
%ADD21C,1.152000*%
%ADD22R,0.900000X0.800000*%
%ADD23O,1.750000X1.200000*%
%ADD24R,3.400000X1.800000*%
%ADD25C,6.400000*%
%ADD26C,0.800000*%
%ADD27C,0.990600*%
%ADD28R,1.300000X1.700000*%
%ADD29R,0.900000X1.200000*%
G04 APERTURE END LIST*
D10*
X69325000Y-36000000D02*
G75*
G03*
X69325000Y-36000000I-325000J0D01*
G01*
X69325000Y-44000000D02*
G75*
G03*
X69325000Y-44000000I-325000J0D01*
G01*
X201325000Y-40000000D02*
G75*
G03*
X201325000Y-40000000I-325000J0D01*
G01*
D11*
X112750000Y-45995000D03*
X159230000Y-34005000D03*
D12*
X161990000Y-40000000D03*
D13*
X110000000Y-40000000D03*
G36*
G01*
X120775000Y-47250000D02*
X120775000Y-46750000D01*
G75*
G02*
X121000000Y-46525000I225000J0D01*
G01*
X121450000Y-46525000D01*
G75*
G02*
X121675000Y-46750000I0J-225000D01*
G01*
X121675000Y-47250000D01*
G75*
G02*
X121450000Y-47475000I-225000J0D01*
G01*
X121000000Y-47475000D01*
G75*
G02*
X120775000Y-47250000I0J225000D01*
G01*
G37*
G36*
G01*
X122325000Y-47250000D02*
X122325000Y-46750000D01*
G75*
G02*
X122550000Y-46525000I225000J0D01*
G01*
X123000000Y-46525000D01*
G75*
G02*
X123225000Y-46750000I0J-225000D01*
G01*
X123225000Y-47250000D01*
G75*
G02*
X123000000Y-47475000I-225000J0D01*
G01*
X122550000Y-47475000D01*
G75*
G02*
X122325000Y-47250000I0J225000D01*
G01*
G37*
G36*
G01*
X98775000Y-47250000D02*
X98775000Y-46750000D01*
G75*
G02*
X99000000Y-46525000I225000J0D01*
G01*
X99450000Y-46525000D01*
G75*
G02*
X99675000Y-46750000I0J-225000D01*
G01*
X99675000Y-47250000D01*
G75*
G02*
X99450000Y-47475000I-225000J0D01*
G01*
X99000000Y-47475000D01*
G75*
G02*
X98775000Y-47250000I0J225000D01*
G01*
G37*
G36*
G01*
X100325000Y-47250000D02*
X100325000Y-46750000D01*
G75*
G02*
X100550000Y-46525000I225000J0D01*
G01*
X101000000Y-46525000D01*
G75*
G02*
X101225000Y-46750000I0J-225000D01*
G01*
X101225000Y-47250000D01*
G75*
G02*
X101000000Y-47475000I-225000J0D01*
G01*
X100550000Y-47475000D01*
G75*
G02*
X100325000Y-47250000I0J225000D01*
G01*
G37*
G36*
G01*
X121575000Y-42725000D02*
X121575000Y-43275000D01*
G75*
G02*
X121375000Y-43475000I-200000J0D01*
G01*
X120975000Y-43475000D01*
G75*
G02*
X120775000Y-43275000I0J200000D01*
G01*
X120775000Y-42725000D01*
G75*
G02*
X120975000Y-42525000I200000J0D01*
G01*
X121375000Y-42525000D01*
G75*
G02*
X121575000Y-42725000I0J-200000D01*
G01*
G37*
G36*
G01*
X123225000Y-42725000D02*
X123225000Y-43275000D01*
G75*
G02*
X123025000Y-43475000I-200000J0D01*
G01*
X122625000Y-43475000D01*
G75*
G02*
X122425000Y-43275000I0J200000D01*
G01*
X122425000Y-42725000D01*
G75*
G02*
X122625000Y-42525000I200000J0D01*
G01*
X123025000Y-42525000D01*
G75*
G02*
X123225000Y-42725000I0J-200000D01*
G01*
G37*
D14*
X117000000Y-46000000D03*
X117950000Y-44000000D03*
X116050000Y-44000000D03*
G36*
G01*
X115775000Y-42275000D02*
X115775000Y-41725000D01*
G75*
G02*
X115975000Y-41525000I200000J0D01*
G01*
X116375000Y-41525000D01*
G75*
G02*
X116575000Y-41725000I0J-200000D01*
G01*
X116575000Y-42275000D01*
G75*
G02*
X116375000Y-42475000I-200000J0D01*
G01*
X115975000Y-42475000D01*
G75*
G02*
X115775000Y-42275000I0J200000D01*
G01*
G37*
G36*
G01*
X117425000Y-42275000D02*
X117425000Y-41725000D01*
G75*
G02*
X117625000Y-41525000I200000J0D01*
G01*
X118025000Y-41525000D01*
G75*
G02*
X118225000Y-41725000I0J-200000D01*
G01*
X118225000Y-42275000D01*
G75*
G02*
X118025000Y-42475000I-200000J0D01*
G01*
X117625000Y-42475000D01*
G75*
G02*
X117425000Y-42275000I0J200000D01*
G01*
G37*
D15*
X115950000Y-48000000D03*
X118050000Y-48000000D03*
X107950000Y-48000000D03*
X110050000Y-48000000D03*
G36*
G01*
X107775000Y-46275000D02*
X107775000Y-45725000D01*
G75*
G02*
X107975000Y-45525000I200000J0D01*
G01*
X108375000Y-45525000D01*
G75*
G02*
X108575000Y-45725000I0J-200000D01*
G01*
X108575000Y-46275000D01*
G75*
G02*
X108375000Y-46475000I-200000J0D01*
G01*
X107975000Y-46475000D01*
G75*
G02*
X107775000Y-46275000I0J200000D01*
G01*
G37*
G36*
G01*
X109425000Y-46275000D02*
X109425000Y-45725000D01*
G75*
G02*
X109625000Y-45525000I200000J0D01*
G01*
X110025000Y-45525000D01*
G75*
G02*
X110225000Y-45725000I0J-200000D01*
G01*
X110225000Y-46275000D01*
G75*
G02*
X110025000Y-46475000I-200000J0D01*
G01*
X109625000Y-46475000D01*
G75*
G02*
X109425000Y-46275000I0J200000D01*
G01*
G37*
D14*
X109950000Y-44000000D03*
X108050000Y-44000000D03*
X109000000Y-42000000D03*
D16*
X196360000Y-45080000D03*
X186200000Y-34920000D03*
X196360000Y-34920000D03*
X186200000Y-45080000D03*
D17*
X190000000Y-40000000D03*
G36*
G01*
X98775000Y-33250000D02*
X98775000Y-32750000D01*
G75*
G02*
X99000000Y-32525000I225000J0D01*
G01*
X99450000Y-32525000D01*
G75*
G02*
X99675000Y-32750000I0J-225000D01*
G01*
X99675000Y-33250000D01*
G75*
G02*
X99450000Y-33475000I-225000J0D01*
G01*
X99000000Y-33475000D01*
G75*
G02*
X98775000Y-33250000I0J225000D01*
G01*
G37*
G36*
G01*
X100325000Y-33250000D02*
X100325000Y-32750000D01*
G75*
G02*
X100550000Y-32525000I225000J0D01*
G01*
X101000000Y-32525000D01*
G75*
G02*
X101225000Y-32750000I0J-225000D01*
G01*
X101225000Y-33250000D01*
G75*
G02*
X101000000Y-33475000I-225000J0D01*
G01*
X100550000Y-33475000D01*
G75*
G02*
X100325000Y-33250000I0J225000D01*
G01*
G37*
X80000000Y-40000000D03*
D16*
X83800000Y-34920000D03*
X73640000Y-45080000D03*
X83800000Y-45080000D03*
X73640000Y-34920000D03*
G36*
G01*
X111225000Y-34750000D02*
X111225000Y-35250000D01*
G75*
G02*
X111000000Y-35475000I-225000J0D01*
G01*
X110550000Y-35475000D01*
G75*
G02*
X110325000Y-35250000I0J225000D01*
G01*
X110325000Y-34750000D01*
G75*
G02*
X110550000Y-34525000I225000J0D01*
G01*
X111000000Y-34525000D01*
G75*
G02*
X111225000Y-34750000I0J-225000D01*
G01*
G37*
G36*
G01*
X109675000Y-34750000D02*
X109675000Y-35250000D01*
G75*
G02*
X109450000Y-35475000I-225000J0D01*
G01*
X109000000Y-35475000D01*
G75*
G02*
X108775000Y-35250000I0J225000D01*
G01*
X108775000Y-34750000D01*
G75*
G02*
X109000000Y-34525000I225000J0D01*
G01*
X109450000Y-34525000D01*
G75*
G02*
X109675000Y-34750000I0J-225000D01*
G01*
G37*
G36*
G01*
X163225000Y-33750000D02*
X163225000Y-34250000D01*
G75*
G02*
X163000000Y-34475000I-225000J0D01*
G01*
X162550000Y-34475000D01*
G75*
G02*
X162325000Y-34250000I0J225000D01*
G01*
X162325000Y-33750000D01*
G75*
G02*
X162550000Y-33525000I225000J0D01*
G01*
X163000000Y-33525000D01*
G75*
G02*
X163225000Y-33750000I0J-225000D01*
G01*
G37*
G36*
G01*
X161675000Y-33750000D02*
X161675000Y-34250000D01*
G75*
G02*
X161450000Y-34475000I-225000J0D01*
G01*
X161000000Y-34475000D01*
G75*
G02*
X160775000Y-34250000I0J225000D01*
G01*
X160775000Y-33750000D01*
G75*
G02*
X161000000Y-33525000I225000J0D01*
G01*
X161450000Y-33525000D01*
G75*
G02*
X161675000Y-33750000I0J-225000D01*
G01*
G37*
G36*
G01*
X160775000Y-36275000D02*
X160775000Y-35725000D01*
G75*
G02*
X160975000Y-35525000I200000J0D01*
G01*
X161375000Y-35525000D01*
G75*
G02*
X161575000Y-35725000I0J-200000D01*
G01*
X161575000Y-36275000D01*
G75*
G02*
X161375000Y-36475000I-200000J0D01*
G01*
X160975000Y-36475000D01*
G75*
G02*
X160775000Y-36275000I0J200000D01*
G01*
G37*
G36*
G01*
X162425000Y-36275000D02*
X162425000Y-35725000D01*
G75*
G02*
X162625000Y-35525000I200000J0D01*
G01*
X163025000Y-35525000D01*
G75*
G02*
X163225000Y-35725000I0J-200000D01*
G01*
X163225000Y-36275000D01*
G75*
G02*
X163025000Y-36475000I-200000J0D01*
G01*
X162625000Y-36475000D01*
G75*
G02*
X162425000Y-36275000I0J200000D01*
G01*
G37*
D18*
X196895000Y-44320000D03*
X196895000Y-35680000D03*
D19*
X201075000Y-44320000D03*
X201075000Y-35680000D03*
D20*
X197395000Y-37110000D03*
X197395000Y-42890000D03*
D21*
X69000000Y-36000000D03*
X69000000Y-44000000D03*
X201000000Y-40000000D03*
G36*
G01*
X157575000Y-40725000D02*
X157575000Y-41275000D01*
G75*
G02*
X157375000Y-41475000I-200000J0D01*
G01*
X156975000Y-41475000D01*
G75*
G02*
X156775000Y-41275000I0J200000D01*
G01*
X156775000Y-40725000D01*
G75*
G02*
X156975000Y-40525000I200000J0D01*
G01*
X157375000Y-40525000D01*
G75*
G02*
X157575000Y-40725000I0J-200000D01*
G01*
G37*
G36*
G01*
X159225000Y-40725000D02*
X159225000Y-41275000D01*
G75*
G02*
X159025000Y-41475000I-200000J0D01*
G01*
X158625000Y-41475000D01*
G75*
G02*
X158425000Y-41275000I0J200000D01*
G01*
X158425000Y-40725000D01*
G75*
G02*
X158625000Y-40525000I200000J0D01*
G01*
X159025000Y-40525000D01*
G75*
G02*
X159225000Y-40725000I0J-200000D01*
G01*
G37*
G36*
G01*
X158325000Y-39250000D02*
X158325000Y-38750000D01*
G75*
G02*
X158550000Y-38525000I225000J0D01*
G01*
X159000000Y-38525000D01*
G75*
G02*
X159225000Y-38750000I0J-225000D01*
G01*
X159225000Y-39250000D01*
G75*
G02*
X159000000Y-39475000I-225000J0D01*
G01*
X158550000Y-39475000D01*
G75*
G02*
X158325000Y-39250000I0J225000D01*
G01*
G37*
G36*
G01*
X156775000Y-39250000D02*
X156775000Y-38750000D01*
G75*
G02*
X157000000Y-38525000I225000J0D01*
G01*
X157450000Y-38525000D01*
G75*
G02*
X157675000Y-38750000I0J-225000D01*
G01*
X157675000Y-39250000D01*
G75*
G02*
X157450000Y-39475000I-225000J0D01*
G01*
X157000000Y-39475000D01*
G75*
G02*
X156775000Y-39250000I0J225000D01*
G01*
G37*
G36*
G01*
X117225000Y-32750000D02*
X117225000Y-33250000D01*
G75*
G02*
X117000000Y-33475000I-225000J0D01*
G01*
X116550000Y-33475000D01*
G75*
G02*
X116325000Y-33250000I0J225000D01*
G01*
X116325000Y-32750000D01*
G75*
G02*
X116550000Y-32525000I225000J0D01*
G01*
X117000000Y-32525000D01*
G75*
G02*
X117225000Y-32750000I0J-225000D01*
G01*
G37*
G36*
G01*
X115675000Y-32750000D02*
X115675000Y-33250000D01*
G75*
G02*
X115450000Y-33475000I-225000J0D01*
G01*
X115000000Y-33475000D01*
G75*
G02*
X114775000Y-33250000I0J225000D01*
G01*
X114775000Y-32750000D01*
G75*
G02*
X115000000Y-32525000I225000J0D01*
G01*
X115450000Y-32525000D01*
G75*
G02*
X115675000Y-32750000I0J-225000D01*
G01*
G37*
G36*
G01*
X114775000Y-37275000D02*
X114775000Y-36725000D01*
G75*
G02*
X114975000Y-36525000I200000J0D01*
G01*
X115375000Y-36525000D01*
G75*
G02*
X115575000Y-36725000I0J-200000D01*
G01*
X115575000Y-37275000D01*
G75*
G02*
X115375000Y-37475000I-200000J0D01*
G01*
X114975000Y-37475000D01*
G75*
G02*
X114775000Y-37275000I0J200000D01*
G01*
G37*
G36*
G01*
X116425000Y-37275000D02*
X116425000Y-36725000D01*
G75*
G02*
X116625000Y-36525000I200000J0D01*
G01*
X117025000Y-36525000D01*
G75*
G02*
X117225000Y-36725000I0J-200000D01*
G01*
X117225000Y-37275000D01*
G75*
G02*
X117025000Y-37475000I-200000J0D01*
G01*
X116625000Y-37475000D01*
G75*
G02*
X116425000Y-37275000I0J200000D01*
G01*
G37*
G36*
G01*
X115575000Y-34725000D02*
X115575000Y-35275000D01*
G75*
G02*
X115375000Y-35475000I-200000J0D01*
G01*
X114975000Y-35475000D01*
G75*
G02*
X114775000Y-35275000I0J200000D01*
G01*
X114775000Y-34725000D01*
G75*
G02*
X114975000Y-34525000I200000J0D01*
G01*
X115375000Y-34525000D01*
G75*
G02*
X115575000Y-34725000I0J-200000D01*
G01*
G37*
G36*
G01*
X117225000Y-34725000D02*
X117225000Y-35275000D01*
G75*
G02*
X117025000Y-35475000I-200000J0D01*
G01*
X116625000Y-35475000D01*
G75*
G02*
X116425000Y-35275000I0J200000D01*
G01*
X116425000Y-34725000D01*
G75*
G02*
X116625000Y-34525000I200000J0D01*
G01*
X117025000Y-34525000D01*
G75*
G02*
X117225000Y-34725000I0J-200000D01*
G01*
G37*
G36*
G01*
X134775000Y-37250000D02*
X134775000Y-36750000D01*
G75*
G02*
X135000000Y-36525000I225000J0D01*
G01*
X135450000Y-36525000D01*
G75*
G02*
X135675000Y-36750000I0J-225000D01*
G01*
X135675000Y-37250000D01*
G75*
G02*
X135450000Y-37475000I-225000J0D01*
G01*
X135000000Y-37475000D01*
G75*
G02*
X134775000Y-37250000I0J225000D01*
G01*
G37*
G36*
G01*
X136325000Y-37250000D02*
X136325000Y-36750000D01*
G75*
G02*
X136550000Y-36525000I225000J0D01*
G01*
X137000000Y-36525000D01*
G75*
G02*
X137225000Y-36750000I0J-225000D01*
G01*
X137225000Y-37250000D01*
G75*
G02*
X137000000Y-37475000I-225000J0D01*
G01*
X136550000Y-37475000D01*
G75*
G02*
X136325000Y-37250000I0J225000D01*
G01*
G37*
G36*
G01*
X135675000Y-34750000D02*
X135675000Y-35250000D01*
G75*
G02*
X135450000Y-35475000I-225000J0D01*
G01*
X135000000Y-35475000D01*
G75*
G02*
X134775000Y-35250000I0J225000D01*
G01*
X134775000Y-34750000D01*
G75*
G02*
X135000000Y-34525000I225000J0D01*
G01*
X135450000Y-34525000D01*
G75*
G02*
X135675000Y-34750000I0J-225000D01*
G01*
G37*
G36*
G01*
X137225000Y-34750000D02*
X137225000Y-35250000D01*
G75*
G02*
X137000000Y-35475000I-225000J0D01*
G01*
X136550000Y-35475000D01*
G75*
G02*
X136325000Y-35250000I0J225000D01*
G01*
X136325000Y-34750000D01*
G75*
G02*
X136550000Y-34525000I225000J0D01*
G01*
X137000000Y-34525000D01*
G75*
G02*
X137225000Y-34750000I0J-225000D01*
G01*
G37*
G36*
G01*
X159225000Y-42725000D02*
X159225000Y-43275000D01*
G75*
G02*
X159025000Y-43475000I-200000J0D01*
G01*
X158625000Y-43475000D01*
G75*
G02*
X158425000Y-43275000I0J200000D01*
G01*
X158425000Y-42725000D01*
G75*
G02*
X158625000Y-42525000I200000J0D01*
G01*
X159025000Y-42525000D01*
G75*
G02*
X159225000Y-42725000I0J-200000D01*
G01*
G37*
G36*
G01*
X157575000Y-42725000D02*
X157575000Y-43275000D01*
G75*
G02*
X157375000Y-43475000I-200000J0D01*
G01*
X156975000Y-43475000D01*
G75*
G02*
X156775000Y-43275000I0J200000D01*
G01*
X156775000Y-42725000D01*
G75*
G02*
X156975000Y-42525000I200000J0D01*
G01*
X157375000Y-42525000D01*
G75*
G02*
X157575000Y-42725000I0J-200000D01*
G01*
G37*
G36*
G01*
X157575000Y-46725000D02*
X157575000Y-47275000D01*
G75*
G02*
X157375000Y-47475000I-200000J0D01*
G01*
X156975000Y-47475000D01*
G75*
G02*
X156775000Y-47275000I0J200000D01*
G01*
X156775000Y-46725000D01*
G75*
G02*
X156975000Y-46525000I200000J0D01*
G01*
X157375000Y-46525000D01*
G75*
G02*
X157575000Y-46725000I0J-200000D01*
G01*
G37*
G36*
G01*
X159225000Y-46725000D02*
X159225000Y-47275000D01*
G75*
G02*
X159025000Y-47475000I-200000J0D01*
G01*
X158625000Y-47475000D01*
G75*
G02*
X158425000Y-47275000I0J200000D01*
G01*
X158425000Y-46725000D01*
G75*
G02*
X158625000Y-46525000I200000J0D01*
G01*
X159025000Y-46525000D01*
G75*
G02*
X159225000Y-46725000I0J-200000D01*
G01*
G37*
G36*
G01*
X159225000Y-44725000D02*
X159225000Y-45275000D01*
G75*
G02*
X159025000Y-45475000I-200000J0D01*
G01*
X158625000Y-45475000D01*
G75*
G02*
X158425000Y-45275000I0J200000D01*
G01*
X158425000Y-44725000D01*
G75*
G02*
X158625000Y-44525000I200000J0D01*
G01*
X159025000Y-44525000D01*
G75*
G02*
X159225000Y-44725000I0J-200000D01*
G01*
G37*
G36*
G01*
X157575000Y-44725000D02*
X157575000Y-45275000D01*
G75*
G02*
X157375000Y-45475000I-200000J0D01*
G01*
X156975000Y-45475000D01*
G75*
G02*
X156775000Y-45275000I0J200000D01*
G01*
X156775000Y-44725000D01*
G75*
G02*
X156975000Y-44525000I200000J0D01*
G01*
X157375000Y-44525000D01*
G75*
G02*
X157575000Y-44725000I0J-200000D01*
G01*
G37*
D22*
X156000000Y-34050000D03*
X156000000Y-35950000D03*
X154000000Y-35000000D03*
G36*
G01*
X127325000Y-33250000D02*
X127325000Y-32750000D01*
G75*
G02*
X127550000Y-32525000I225000J0D01*
G01*
X128000000Y-32525000D01*
G75*
G02*
X128225000Y-32750000I0J-225000D01*
G01*
X128225000Y-33250000D01*
G75*
G02*
X128000000Y-33475000I-225000J0D01*
G01*
X127550000Y-33475000D01*
G75*
G02*
X127325000Y-33250000I0J225000D01*
G01*
G37*
G36*
G01*
X125775000Y-33250000D02*
X125775000Y-32750000D01*
G75*
G02*
X126000000Y-32525000I225000J0D01*
G01*
X126450000Y-32525000D01*
G75*
G02*
X126675000Y-32750000I0J-225000D01*
G01*
X126675000Y-33250000D01*
G75*
G02*
X126450000Y-33475000I-225000J0D01*
G01*
X126000000Y-33475000D01*
G75*
G02*
X125775000Y-33250000I0J225000D01*
G01*
G37*
G36*
G01*
X125775000Y-35250000D02*
X125775000Y-34750000D01*
G75*
G02*
X126000000Y-34525000I225000J0D01*
G01*
X126450000Y-34525000D01*
G75*
G02*
X126675000Y-34750000I0J-225000D01*
G01*
X126675000Y-35250000D01*
G75*
G02*
X126450000Y-35475000I-225000J0D01*
G01*
X126000000Y-35475000D01*
G75*
G02*
X125775000Y-35250000I0J225000D01*
G01*
G37*
G36*
G01*
X127325000Y-35250000D02*
X127325000Y-34750000D01*
G75*
G02*
X127550000Y-34525000I225000J0D01*
G01*
X128000000Y-34525000D01*
G75*
G02*
X128225000Y-34750000I0J-225000D01*
G01*
X128225000Y-35250000D01*
G75*
G02*
X128000000Y-35475000I-225000J0D01*
G01*
X127550000Y-35475000D01*
G75*
G02*
X127325000Y-35250000I0J225000D01*
G01*
G37*
G36*
G01*
X126575000Y-36725000D02*
X126575000Y-37275000D01*
G75*
G02*
X126375000Y-37475000I-200000J0D01*
G01*
X125975000Y-37475000D01*
G75*
G02*
X125775000Y-37275000I0J200000D01*
G01*
X125775000Y-36725000D01*
G75*
G02*
X125975000Y-36525000I200000J0D01*
G01*
X126375000Y-36525000D01*
G75*
G02*
X126575000Y-36725000I0J-200000D01*
G01*
G37*
G36*
G01*
X128225000Y-36725000D02*
X128225000Y-37275000D01*
G75*
G02*
X128025000Y-37475000I-200000J0D01*
G01*
X127625000Y-37475000D01*
G75*
G02*
X127425000Y-37275000I0J200000D01*
G01*
X127425000Y-36725000D01*
G75*
G02*
X127625000Y-36525000I200000J0D01*
G01*
X128025000Y-36525000D01*
G75*
G02*
X128225000Y-36725000I0J-200000D01*
G01*
G37*
G36*
G01*
X132225000Y-32750000D02*
X132225000Y-33250000D01*
G75*
G02*
X132000000Y-33475000I-225000J0D01*
G01*
X131550000Y-33475000D01*
G75*
G02*
X131325000Y-33250000I0J225000D01*
G01*
X131325000Y-32750000D01*
G75*
G02*
X131550000Y-32525000I225000J0D01*
G01*
X132000000Y-32525000D01*
G75*
G02*
X132225000Y-32750000I0J-225000D01*
G01*
G37*
G36*
G01*
X130675000Y-32750000D02*
X130675000Y-33250000D01*
G75*
G02*
X130450000Y-33475000I-225000J0D01*
G01*
X130000000Y-33475000D01*
G75*
G02*
X129775000Y-33250000I0J225000D01*
G01*
X129775000Y-32750000D01*
G75*
G02*
X130000000Y-32525000I225000J0D01*
G01*
X130450000Y-32525000D01*
G75*
G02*
X130675000Y-32750000I0J-225000D01*
G01*
G37*
G36*
G01*
X132225000Y-34750000D02*
X132225000Y-35250000D01*
G75*
G02*
X132000000Y-35475000I-225000J0D01*
G01*
X131550000Y-35475000D01*
G75*
G02*
X131325000Y-35250000I0J225000D01*
G01*
X131325000Y-34750000D01*
G75*
G02*
X131550000Y-34525000I225000J0D01*
G01*
X132000000Y-34525000D01*
G75*
G02*
X132225000Y-34750000I0J-225000D01*
G01*
G37*
G36*
G01*
X130675000Y-34750000D02*
X130675000Y-35250000D01*
G75*
G02*
X130450000Y-35475000I-225000J0D01*
G01*
X130000000Y-35475000D01*
G75*
G02*
X129775000Y-35250000I0J225000D01*
G01*
X129775000Y-34750000D01*
G75*
G02*
X130000000Y-34525000I225000J0D01*
G01*
X130450000Y-34525000D01*
G75*
G02*
X130675000Y-34750000I0J-225000D01*
G01*
G37*
G36*
G01*
X129775000Y-37275000D02*
X129775000Y-36725000D01*
G75*
G02*
X129975000Y-36525000I200000J0D01*
G01*
X130375000Y-36525000D01*
G75*
G02*
X130575000Y-36725000I0J-200000D01*
G01*
X130575000Y-37275000D01*
G75*
G02*
X130375000Y-37475000I-200000J0D01*
G01*
X129975000Y-37475000D01*
G75*
G02*
X129775000Y-37275000I0J200000D01*
G01*
G37*
G36*
G01*
X131425000Y-37275000D02*
X131425000Y-36725000D01*
G75*
G02*
X131625000Y-36525000I200000J0D01*
G01*
X132025000Y-36525000D01*
G75*
G02*
X132225000Y-36725000I0J-200000D01*
G01*
X132225000Y-37275000D01*
G75*
G02*
X132025000Y-37475000I-200000J0D01*
G01*
X131625000Y-37475000D01*
G75*
G02*
X131425000Y-37275000I0J200000D01*
G01*
G37*
G36*
G01*
X128450000Y-38525000D02*
X128450000Y-39475000D01*
G75*
G02*
X128200000Y-39725000I-250000J0D01*
G01*
X127700000Y-39725000D01*
G75*
G02*
X127450000Y-39475000I0J250000D01*
G01*
X127450000Y-38525000D01*
G75*
G02*
X127700000Y-38275000I250000J0D01*
G01*
X128200000Y-38275000D01*
G75*
G02*
X128450000Y-38525000I0J-250000D01*
G01*
G37*
G36*
G01*
X126550000Y-38525000D02*
X126550000Y-39475000D01*
G75*
G02*
X126300000Y-39725000I-250000J0D01*
G01*
X125800000Y-39725000D01*
G75*
G02*
X125550000Y-39475000I0J250000D01*
G01*
X125550000Y-38525000D01*
G75*
G02*
X125800000Y-38275000I250000J0D01*
G01*
X126300000Y-38275000D01*
G75*
G02*
X126550000Y-38525000I0J-250000D01*
G01*
G37*
G36*
G01*
X149775000Y-34275000D02*
X149775000Y-33725000D01*
G75*
G02*
X149975000Y-33525000I200000J0D01*
G01*
X150375000Y-33525000D01*
G75*
G02*
X150575000Y-33725000I0J-200000D01*
G01*
X150575000Y-34275000D01*
G75*
G02*
X150375000Y-34475000I-200000J0D01*
G01*
X149975000Y-34475000D01*
G75*
G02*
X149775000Y-34275000I0J200000D01*
G01*
G37*
G36*
G01*
X151425000Y-34275000D02*
X151425000Y-33725000D01*
G75*
G02*
X151625000Y-33525000I200000J0D01*
G01*
X152025000Y-33525000D01*
G75*
G02*
X152225000Y-33725000I0J-200000D01*
G01*
X152225000Y-34275000D01*
G75*
G02*
X152025000Y-34475000I-200000J0D01*
G01*
X151625000Y-34475000D01*
G75*
G02*
X151425000Y-34275000I0J200000D01*
G01*
G37*
G36*
G01*
X149775000Y-36275000D02*
X149775000Y-35725000D01*
G75*
G02*
X149975000Y-35525000I200000J0D01*
G01*
X150375000Y-35525000D01*
G75*
G02*
X150575000Y-35725000I0J-200000D01*
G01*
X150575000Y-36275000D01*
G75*
G02*
X150375000Y-36475000I-200000J0D01*
G01*
X149975000Y-36475000D01*
G75*
G02*
X149775000Y-36275000I0J200000D01*
G01*
G37*
G36*
G01*
X151425000Y-36275000D02*
X151425000Y-35725000D01*
G75*
G02*
X151625000Y-35525000I200000J0D01*
G01*
X152025000Y-35525000D01*
G75*
G02*
X152225000Y-35725000I0J-200000D01*
G01*
X152225000Y-36275000D01*
G75*
G02*
X152025000Y-36475000I-200000J0D01*
G01*
X151625000Y-36475000D01*
G75*
G02*
X151425000Y-36275000I0J200000D01*
G01*
G37*
G36*
G01*
X143950000Y-37650001D02*
X143950000Y-36349999D01*
G75*
G02*
X144199999Y-36100000I249999J0D01*
G01*
X144850001Y-36100000D01*
G75*
G02*
X145100000Y-36349999I0J-249999D01*
G01*
X145100000Y-37650001D01*
G75*
G02*
X144850001Y-37900000I-249999J0D01*
G01*
X144199999Y-37900000D01*
G75*
G02*
X143950000Y-37650001I0J249999D01*
G01*
G37*
G36*
G01*
X146900000Y-37650001D02*
X146900000Y-36349999D01*
G75*
G02*
X147149999Y-36100000I249999J0D01*
G01*
X147800001Y-36100000D01*
G75*
G02*
X148050000Y-36349999I0J-249999D01*
G01*
X148050000Y-37650001D01*
G75*
G02*
X147800001Y-37900000I-249999J0D01*
G01*
X147149999Y-37900000D01*
G75*
G02*
X146900000Y-37650001I0J249999D01*
G01*
G37*
G36*
G01*
X146450000Y-39975000D02*
X146450000Y-39025000D01*
G75*
G02*
X146700000Y-38775000I250000J0D01*
G01*
X147200000Y-38775000D01*
G75*
G02*
X147450000Y-39025000I0J-250000D01*
G01*
X147450000Y-39975000D01*
G75*
G02*
X147200000Y-40225000I-250000J0D01*
G01*
X146700000Y-40225000D01*
G75*
G02*
X146450000Y-39975000I0J250000D01*
G01*
G37*
G36*
G01*
X144550000Y-39975000D02*
X144550000Y-39025000D01*
G75*
G02*
X144800000Y-38775000I250000J0D01*
G01*
X145300000Y-38775000D01*
G75*
G02*
X145550000Y-39025000I0J-250000D01*
G01*
X145550000Y-39975000D01*
G75*
G02*
X145300000Y-40225000I-250000J0D01*
G01*
X144800000Y-40225000D01*
G75*
G02*
X144550000Y-39975000I0J250000D01*
G01*
G37*
G36*
G01*
X127775000Y-48275000D02*
X127775000Y-47725000D01*
G75*
G02*
X127975000Y-47525000I200000J0D01*
G01*
X128375000Y-47525000D01*
G75*
G02*
X128575000Y-47725000I0J-200000D01*
G01*
X128575000Y-48275000D01*
G75*
G02*
X128375000Y-48475000I-200000J0D01*
G01*
X127975000Y-48475000D01*
G75*
G02*
X127775000Y-48275000I0J200000D01*
G01*
G37*
G36*
G01*
X129425000Y-48275000D02*
X129425000Y-47725000D01*
G75*
G02*
X129625000Y-47525000I200000J0D01*
G01*
X130025000Y-47525000D01*
G75*
G02*
X130225000Y-47725000I0J-200000D01*
G01*
X130225000Y-48275000D01*
G75*
G02*
X130025000Y-48475000I-200000J0D01*
G01*
X129625000Y-48475000D01*
G75*
G02*
X129425000Y-48275000I0J200000D01*
G01*
G37*
G36*
G01*
X132550000Y-44475000D02*
X132550000Y-43525000D01*
G75*
G02*
X132800000Y-43275000I250000J0D01*
G01*
X133300000Y-43275000D01*
G75*
G02*
X133550000Y-43525000I0J-250000D01*
G01*
X133550000Y-44475000D01*
G75*
G02*
X133300000Y-44725000I-250000J0D01*
G01*
X132800000Y-44725000D01*
G75*
G02*
X132550000Y-44475000I0J250000D01*
G01*
G37*
G36*
G01*
X134450000Y-44475000D02*
X134450000Y-43525000D01*
G75*
G02*
X134700000Y-43275000I250000J0D01*
G01*
X135200000Y-43275000D01*
G75*
G02*
X135450000Y-43525000I0J-250000D01*
G01*
X135450000Y-44475000D01*
G75*
G02*
X135200000Y-44725000I-250000J0D01*
G01*
X134700000Y-44725000D01*
G75*
G02*
X134450000Y-44475000I0J250000D01*
G01*
G37*
G36*
G01*
X120775000Y-37250000D02*
X120775000Y-36750000D01*
G75*
G02*
X121000000Y-36525000I225000J0D01*
G01*
X121450000Y-36525000D01*
G75*
G02*
X121675000Y-36750000I0J-225000D01*
G01*
X121675000Y-37250000D01*
G75*
G02*
X121450000Y-37475000I-225000J0D01*
G01*
X121000000Y-37475000D01*
G75*
G02*
X120775000Y-37250000I0J225000D01*
G01*
G37*
G36*
G01*
X122325000Y-37250000D02*
X122325000Y-36750000D01*
G75*
G02*
X122550000Y-36525000I225000J0D01*
G01*
X123000000Y-36525000D01*
G75*
G02*
X123225000Y-36750000I0J-225000D01*
G01*
X123225000Y-37250000D01*
G75*
G02*
X123000000Y-37475000I-225000J0D01*
G01*
X122550000Y-37475000D01*
G75*
G02*
X122325000Y-37250000I0J225000D01*
G01*
G37*
G36*
G01*
X121675000Y-34750000D02*
X121675000Y-35250000D01*
G75*
G02*
X121450000Y-35475000I-225000J0D01*
G01*
X121000000Y-35475000D01*
G75*
G02*
X120775000Y-35250000I0J225000D01*
G01*
X120775000Y-34750000D01*
G75*
G02*
X121000000Y-34525000I225000J0D01*
G01*
X121450000Y-34525000D01*
G75*
G02*
X121675000Y-34750000I0J-225000D01*
G01*
G37*
G36*
G01*
X123225000Y-34750000D02*
X123225000Y-35250000D01*
G75*
G02*
X123000000Y-35475000I-225000J0D01*
G01*
X122550000Y-35475000D01*
G75*
G02*
X122325000Y-35250000I0J225000D01*
G01*
X122325000Y-34750000D01*
G75*
G02*
X122550000Y-34525000I225000J0D01*
G01*
X123000000Y-34525000D01*
G75*
G02*
X123225000Y-34750000I0J-225000D01*
G01*
G37*
G36*
G01*
X173625001Y-41600000D02*
X172374999Y-41600000D01*
G75*
G02*
X172125000Y-41350001I0J249999D01*
G01*
X172125000Y-40649999D01*
G75*
G02*
X172374999Y-40400000I249999J0D01*
G01*
X173625001Y-40400000D01*
G75*
G02*
X173875000Y-40649999I0J-249999D01*
G01*
X173875000Y-41350001D01*
G75*
G02*
X173625001Y-41600000I-249999J0D01*
G01*
G37*
D23*
X173000000Y-39000000D03*
G36*
G01*
X167225000Y-33750000D02*
X167225000Y-34250000D01*
G75*
G02*
X167000000Y-34475000I-225000J0D01*
G01*
X166550000Y-34475000D01*
G75*
G02*
X166325000Y-34250000I0J225000D01*
G01*
X166325000Y-33750000D01*
G75*
G02*
X166550000Y-33525000I225000J0D01*
G01*
X167000000Y-33525000D01*
G75*
G02*
X167225000Y-33750000I0J-225000D01*
G01*
G37*
G36*
G01*
X165675000Y-33750000D02*
X165675000Y-34250000D01*
G75*
G02*
X165450000Y-34475000I-225000J0D01*
G01*
X165000000Y-34475000D01*
G75*
G02*
X164775000Y-34250000I0J225000D01*
G01*
X164775000Y-33750000D01*
G75*
G02*
X165000000Y-33525000I225000J0D01*
G01*
X165450000Y-33525000D01*
G75*
G02*
X165675000Y-33750000I0J-225000D01*
G01*
G37*
G36*
G01*
X169575000Y-33725000D02*
X169575000Y-34275000D01*
G75*
G02*
X169375000Y-34475000I-200000J0D01*
G01*
X168975000Y-34475000D01*
G75*
G02*
X168775000Y-34275000I0J200000D01*
G01*
X168775000Y-33725000D01*
G75*
G02*
X168975000Y-33525000I200000J0D01*
G01*
X169375000Y-33525000D01*
G75*
G02*
X169575000Y-33725000I0J-200000D01*
G01*
G37*
G36*
G01*
X171225000Y-33725000D02*
X171225000Y-34275000D01*
G75*
G02*
X171025000Y-34475000I-200000J0D01*
G01*
X170625000Y-34475000D01*
G75*
G02*
X170425000Y-34275000I0J200000D01*
G01*
X170425000Y-33725000D01*
G75*
G02*
X170625000Y-33525000I200000J0D01*
G01*
X171025000Y-33525000D01*
G75*
G02*
X171225000Y-33725000I0J-200000D01*
G01*
G37*
G36*
G01*
X165675000Y-35750000D02*
X165675000Y-36250000D01*
G75*
G02*
X165450000Y-36475000I-225000J0D01*
G01*
X165000000Y-36475000D01*
G75*
G02*
X164775000Y-36250000I0J225000D01*
G01*
X164775000Y-35750000D01*
G75*
G02*
X165000000Y-35525000I225000J0D01*
G01*
X165450000Y-35525000D01*
G75*
G02*
X165675000Y-35750000I0J-225000D01*
G01*
G37*
G36*
G01*
X167225000Y-35750000D02*
X167225000Y-36250000D01*
G75*
G02*
X167000000Y-36475000I-225000J0D01*
G01*
X166550000Y-36475000D01*
G75*
G02*
X166325000Y-36250000I0J225000D01*
G01*
X166325000Y-35750000D01*
G75*
G02*
X166550000Y-35525000I225000J0D01*
G01*
X167000000Y-35525000D01*
G75*
G02*
X167225000Y-35750000I0J-225000D01*
G01*
G37*
G36*
G01*
X169575000Y-35725000D02*
X169575000Y-36275000D01*
G75*
G02*
X169375000Y-36475000I-200000J0D01*
G01*
X168975000Y-36475000D01*
G75*
G02*
X168775000Y-36275000I0J200000D01*
G01*
X168775000Y-35725000D01*
G75*
G02*
X168975000Y-35525000I200000J0D01*
G01*
X169375000Y-35525000D01*
G75*
G02*
X169575000Y-35725000I0J-200000D01*
G01*
G37*
G36*
G01*
X171225000Y-35725000D02*
X171225000Y-36275000D01*
G75*
G02*
X171025000Y-36475000I-200000J0D01*
G01*
X170625000Y-36475000D01*
G75*
G02*
X170425000Y-36275000I0J200000D01*
G01*
X170425000Y-35725000D01*
G75*
G02*
X170625000Y-35525000I200000J0D01*
G01*
X171025000Y-35525000D01*
G75*
G02*
X171225000Y-35725000I0J-200000D01*
G01*
G37*
G36*
G01*
X177225000Y-35750000D02*
X177225000Y-36250000D01*
G75*
G02*
X177000000Y-36475000I-225000J0D01*
G01*
X176550000Y-36475000D01*
G75*
G02*
X176325000Y-36250000I0J225000D01*
G01*
X176325000Y-35750000D01*
G75*
G02*
X176550000Y-35525000I225000J0D01*
G01*
X177000000Y-35525000D01*
G75*
G02*
X177225000Y-35750000I0J-225000D01*
G01*
G37*
G36*
G01*
X175675000Y-35750000D02*
X175675000Y-36250000D01*
G75*
G02*
X175450000Y-36475000I-225000J0D01*
G01*
X175000000Y-36475000D01*
G75*
G02*
X174775000Y-36250000I0J225000D01*
G01*
X174775000Y-35750000D01*
G75*
G02*
X175000000Y-35525000I225000J0D01*
G01*
X175450000Y-35525000D01*
G75*
G02*
X175675000Y-35750000I0J-225000D01*
G01*
G37*
G36*
G01*
X145575000Y-41725000D02*
X145575000Y-42275000D01*
G75*
G02*
X145375000Y-42475000I-200000J0D01*
G01*
X144975000Y-42475000D01*
G75*
G02*
X144775000Y-42275000I0J200000D01*
G01*
X144775000Y-41725000D01*
G75*
G02*
X144975000Y-41525000I200000J0D01*
G01*
X145375000Y-41525000D01*
G75*
G02*
X145575000Y-41725000I0J-200000D01*
G01*
G37*
G36*
G01*
X147225000Y-41725000D02*
X147225000Y-42275000D01*
G75*
G02*
X147025000Y-42475000I-200000J0D01*
G01*
X146625000Y-42475000D01*
G75*
G02*
X146425000Y-42275000I0J200000D01*
G01*
X146425000Y-41725000D01*
G75*
G02*
X146625000Y-41525000I200000J0D01*
G01*
X147025000Y-41525000D01*
G75*
G02*
X147225000Y-41725000I0J-200000D01*
G01*
G37*
G36*
G01*
X144775000Y-44275000D02*
X144775000Y-43725000D01*
G75*
G02*
X144975000Y-43525000I200000J0D01*
G01*
X145375000Y-43525000D01*
G75*
G02*
X145575000Y-43725000I0J-200000D01*
G01*
X145575000Y-44275000D01*
G75*
G02*
X145375000Y-44475000I-200000J0D01*
G01*
X144975000Y-44475000D01*
G75*
G02*
X144775000Y-44275000I0J200000D01*
G01*
G37*
G36*
G01*
X146425000Y-44275000D02*
X146425000Y-43725000D01*
G75*
G02*
X146625000Y-43525000I200000J0D01*
G01*
X147025000Y-43525000D01*
G75*
G02*
X147225000Y-43725000I0J-200000D01*
G01*
X147225000Y-44275000D01*
G75*
G02*
X147025000Y-44475000I-200000J0D01*
G01*
X146625000Y-44475000D01*
G75*
G02*
X146425000Y-44275000I0J200000D01*
G01*
G37*
G36*
G01*
X102775000Y-34275000D02*
X102775000Y-33725000D01*
G75*
G02*
X102975000Y-33525000I200000J0D01*
G01*
X103375000Y-33525000D01*
G75*
G02*
X103575000Y-33725000I0J-200000D01*
G01*
X103575000Y-34275000D01*
G75*
G02*
X103375000Y-34475000I-200000J0D01*
G01*
X102975000Y-34475000D01*
G75*
G02*
X102775000Y-34275000I0J200000D01*
G01*
G37*
G36*
G01*
X104425000Y-34275000D02*
X104425000Y-33725000D01*
G75*
G02*
X104625000Y-33525000I200000J0D01*
G01*
X105025000Y-33525000D01*
G75*
G02*
X105225000Y-33725000I0J-200000D01*
G01*
X105225000Y-34275000D01*
G75*
G02*
X105025000Y-34475000I-200000J0D01*
G01*
X104625000Y-34475000D01*
G75*
G02*
X104425000Y-34275000I0J200000D01*
G01*
G37*
G36*
G01*
X104425000Y-36275000D02*
X104425000Y-35725000D01*
G75*
G02*
X104625000Y-35525000I200000J0D01*
G01*
X105025000Y-35525000D01*
G75*
G02*
X105225000Y-35725000I0J-200000D01*
G01*
X105225000Y-36275000D01*
G75*
G02*
X105025000Y-36475000I-200000J0D01*
G01*
X104625000Y-36475000D01*
G75*
G02*
X104425000Y-36275000I0J200000D01*
G01*
G37*
G36*
G01*
X102775000Y-36275000D02*
X102775000Y-35725000D01*
G75*
G02*
X102975000Y-35525000I200000J0D01*
G01*
X103375000Y-35525000D01*
G75*
G02*
X103575000Y-35725000I0J-200000D01*
G01*
X103575000Y-36275000D01*
G75*
G02*
X103375000Y-36475000I-200000J0D01*
G01*
X102975000Y-36475000D01*
G75*
G02*
X102775000Y-36275000I0J200000D01*
G01*
G37*
G36*
G01*
X102775000Y-38275000D02*
X102775000Y-37725000D01*
G75*
G02*
X102975000Y-37525000I200000J0D01*
G01*
X103375000Y-37525000D01*
G75*
G02*
X103575000Y-37725000I0J-200000D01*
G01*
X103575000Y-38275000D01*
G75*
G02*
X103375000Y-38475000I-200000J0D01*
G01*
X102975000Y-38475000D01*
G75*
G02*
X102775000Y-38275000I0J200000D01*
G01*
G37*
G36*
G01*
X104425000Y-38275000D02*
X104425000Y-37725000D01*
G75*
G02*
X104625000Y-37525000I200000J0D01*
G01*
X105025000Y-37525000D01*
G75*
G02*
X105225000Y-37725000I0J-200000D01*
G01*
X105225000Y-38275000D01*
G75*
G02*
X105025000Y-38475000I-200000J0D01*
G01*
X104625000Y-38475000D01*
G75*
G02*
X104425000Y-38275000I0J200000D01*
G01*
G37*
G36*
G01*
X101225000Y-34750000D02*
X101225000Y-35250000D01*
G75*
G02*
X101000000Y-35475000I-225000J0D01*
G01*
X100550000Y-35475000D01*
G75*
G02*
X100325000Y-35250000I0J225000D01*
G01*
X100325000Y-34750000D01*
G75*
G02*
X100550000Y-34525000I225000J0D01*
G01*
X101000000Y-34525000D01*
G75*
G02*
X101225000Y-34750000I0J-225000D01*
G01*
G37*
G36*
G01*
X99675000Y-34750000D02*
X99675000Y-35250000D01*
G75*
G02*
X99450000Y-35475000I-225000J0D01*
G01*
X99000000Y-35475000D01*
G75*
G02*
X98775000Y-35250000I0J225000D01*
G01*
X98775000Y-34750000D01*
G75*
G02*
X99000000Y-34525000I225000J0D01*
G01*
X99450000Y-34525000D01*
G75*
G02*
X99675000Y-34750000I0J-225000D01*
G01*
G37*
G36*
G01*
X99675000Y-38750000D02*
X99675000Y-39250000D01*
G75*
G02*
X99450000Y-39475000I-225000J0D01*
G01*
X99000000Y-39475000D01*
G75*
G02*
X98775000Y-39250000I0J225000D01*
G01*
X98775000Y-38750000D01*
G75*
G02*
X99000000Y-38525000I225000J0D01*
G01*
X99450000Y-38525000D01*
G75*
G02*
X99675000Y-38750000I0J-225000D01*
G01*
G37*
G36*
G01*
X101225000Y-38750000D02*
X101225000Y-39250000D01*
G75*
G02*
X101000000Y-39475000I-225000J0D01*
G01*
X100550000Y-39475000D01*
G75*
G02*
X100325000Y-39250000I0J225000D01*
G01*
X100325000Y-38750000D01*
G75*
G02*
X100550000Y-38525000I225000J0D01*
G01*
X101000000Y-38525000D01*
G75*
G02*
X101225000Y-38750000I0J-225000D01*
G01*
G37*
G36*
G01*
X98775000Y-37250000D02*
X98775000Y-36750000D01*
G75*
G02*
X99000000Y-36525000I225000J0D01*
G01*
X99450000Y-36525000D01*
G75*
G02*
X99675000Y-36750000I0J-225000D01*
G01*
X99675000Y-37250000D01*
G75*
G02*
X99450000Y-37475000I-225000J0D01*
G01*
X99000000Y-37475000D01*
G75*
G02*
X98775000Y-37250000I0J225000D01*
G01*
G37*
G36*
G01*
X100325000Y-37250000D02*
X100325000Y-36750000D01*
G75*
G02*
X100550000Y-36525000I225000J0D01*
G01*
X101000000Y-36525000D01*
G75*
G02*
X101225000Y-36750000I0J-225000D01*
G01*
X101225000Y-37250000D01*
G75*
G02*
X101000000Y-37475000I-225000J0D01*
G01*
X100550000Y-37475000D01*
G75*
G02*
X100325000Y-37250000I0J225000D01*
G01*
G37*
D24*
X166000000Y-38000000D03*
X129000000Y-43000000D03*
X136000000Y-39000000D03*
X122000000Y-39000000D03*
X110000000Y-37000000D03*
X131000000Y-39000000D03*
G36*
G01*
X102775000Y-40275000D02*
X102775000Y-39725000D01*
G75*
G02*
X102975000Y-39525000I200000J0D01*
G01*
X103375000Y-39525000D01*
G75*
G02*
X103575000Y-39725000I0J-200000D01*
G01*
X103575000Y-40275000D01*
G75*
G02*
X103375000Y-40475000I-200000J0D01*
G01*
X102975000Y-40475000D01*
G75*
G02*
X102775000Y-40275000I0J200000D01*
G01*
G37*
G36*
G01*
X104425000Y-40275000D02*
X104425000Y-39725000D01*
G75*
G02*
X104625000Y-39525000I200000J0D01*
G01*
X105025000Y-39525000D01*
G75*
G02*
X105225000Y-39725000I0J-200000D01*
G01*
X105225000Y-40275000D01*
G75*
G02*
X105025000Y-40475000I-200000J0D01*
G01*
X104625000Y-40475000D01*
G75*
G02*
X104425000Y-40275000I0J200000D01*
G01*
G37*
G36*
G01*
X102775000Y-42275000D02*
X102775000Y-41725000D01*
G75*
G02*
X102975000Y-41525000I200000J0D01*
G01*
X103375000Y-41525000D01*
G75*
G02*
X103575000Y-41725000I0J-200000D01*
G01*
X103575000Y-42275000D01*
G75*
G02*
X103375000Y-42475000I-200000J0D01*
G01*
X102975000Y-42475000D01*
G75*
G02*
X102775000Y-42275000I0J200000D01*
G01*
G37*
G36*
G01*
X104425000Y-42275000D02*
X104425000Y-41725000D01*
G75*
G02*
X104625000Y-41525000I200000J0D01*
G01*
X105025000Y-41525000D01*
G75*
G02*
X105225000Y-41725000I0J-200000D01*
G01*
X105225000Y-42275000D01*
G75*
G02*
X105025000Y-42475000I-200000J0D01*
G01*
X104625000Y-42475000D01*
G75*
G02*
X104425000Y-42275000I0J200000D01*
G01*
G37*
G36*
G01*
X104425000Y-44275000D02*
X104425000Y-43725000D01*
G75*
G02*
X104625000Y-43525000I200000J0D01*
G01*
X105025000Y-43525000D01*
G75*
G02*
X105225000Y-43725000I0J-200000D01*
G01*
X105225000Y-44275000D01*
G75*
G02*
X105025000Y-44475000I-200000J0D01*
G01*
X104625000Y-44475000D01*
G75*
G02*
X104425000Y-44275000I0J200000D01*
G01*
G37*
G36*
G01*
X102775000Y-44275000D02*
X102775000Y-43725000D01*
G75*
G02*
X102975000Y-43525000I200000J0D01*
G01*
X103375000Y-43525000D01*
G75*
G02*
X103575000Y-43725000I0J-200000D01*
G01*
X103575000Y-44275000D01*
G75*
G02*
X103375000Y-44475000I-200000J0D01*
G01*
X102975000Y-44475000D01*
G75*
G02*
X102775000Y-44275000I0J200000D01*
G01*
G37*
G36*
G01*
X104425000Y-46275000D02*
X104425000Y-45725000D01*
G75*
G02*
X104625000Y-45525000I200000J0D01*
G01*
X105025000Y-45525000D01*
G75*
G02*
X105225000Y-45725000I0J-200000D01*
G01*
X105225000Y-46275000D01*
G75*
G02*
X105025000Y-46475000I-200000J0D01*
G01*
X104625000Y-46475000D01*
G75*
G02*
X104425000Y-46275000I0J200000D01*
G01*
G37*
G36*
G01*
X102775000Y-46275000D02*
X102775000Y-45725000D01*
G75*
G02*
X102975000Y-45525000I200000J0D01*
G01*
X103375000Y-45525000D01*
G75*
G02*
X103575000Y-45725000I0J-200000D01*
G01*
X103575000Y-46275000D01*
G75*
G02*
X103375000Y-46475000I-200000J0D01*
G01*
X102975000Y-46475000D01*
G75*
G02*
X102775000Y-46275000I0J200000D01*
G01*
G37*
G36*
G01*
X101225000Y-40750000D02*
X101225000Y-41250000D01*
G75*
G02*
X101000000Y-41475000I-225000J0D01*
G01*
X100550000Y-41475000D01*
G75*
G02*
X100325000Y-41250000I0J225000D01*
G01*
X100325000Y-40750000D01*
G75*
G02*
X100550000Y-40525000I225000J0D01*
G01*
X101000000Y-40525000D01*
G75*
G02*
X101225000Y-40750000I0J-225000D01*
G01*
G37*
G36*
G01*
X99675000Y-40750000D02*
X99675000Y-41250000D01*
G75*
G02*
X99450000Y-41475000I-225000J0D01*
G01*
X99000000Y-41475000D01*
G75*
G02*
X98775000Y-41250000I0J225000D01*
G01*
X98775000Y-40750000D01*
G75*
G02*
X99000000Y-40525000I225000J0D01*
G01*
X99450000Y-40525000D01*
G75*
G02*
X99675000Y-40750000I0J-225000D01*
G01*
G37*
G36*
G01*
X99675000Y-44750000D02*
X99675000Y-45250000D01*
G75*
G02*
X99450000Y-45475000I-225000J0D01*
G01*
X99000000Y-45475000D01*
G75*
G02*
X98775000Y-45250000I0J225000D01*
G01*
X98775000Y-44750000D01*
G75*
G02*
X99000000Y-44525000I225000J0D01*
G01*
X99450000Y-44525000D01*
G75*
G02*
X99675000Y-44750000I0J-225000D01*
G01*
G37*
G36*
G01*
X101225000Y-44750000D02*
X101225000Y-45250000D01*
G75*
G02*
X101000000Y-45475000I-225000J0D01*
G01*
X100550000Y-45475000D01*
G75*
G02*
X100325000Y-45250000I0J225000D01*
G01*
X100325000Y-44750000D01*
G75*
G02*
X100550000Y-44525000I225000J0D01*
G01*
X101000000Y-44525000D01*
G75*
G02*
X101225000Y-44750000I0J-225000D01*
G01*
G37*
G36*
G01*
X98775000Y-43250000D02*
X98775000Y-42750000D01*
G75*
G02*
X99000000Y-42525000I225000J0D01*
G01*
X99450000Y-42525000D01*
G75*
G02*
X99675000Y-42750000I0J-225000D01*
G01*
X99675000Y-43250000D01*
G75*
G02*
X99450000Y-43475000I-225000J0D01*
G01*
X99000000Y-43475000D01*
G75*
G02*
X98775000Y-43250000I0J225000D01*
G01*
G37*
G36*
G01*
X100325000Y-43250000D02*
X100325000Y-42750000D01*
G75*
G02*
X100550000Y-42525000I225000J0D01*
G01*
X101000000Y-42525000D01*
G75*
G02*
X101225000Y-42750000I0J-225000D01*
G01*
X101225000Y-43250000D01*
G75*
G02*
X101000000Y-43475000I-225000J0D01*
G01*
X100550000Y-43475000D01*
G75*
G02*
X100325000Y-43250000I0J225000D01*
G01*
G37*
G36*
G01*
X120550000Y-45475000D02*
X120550000Y-44525000D01*
G75*
G02*
X120800000Y-44275000I250000J0D01*
G01*
X121300000Y-44275000D01*
G75*
G02*
X121550000Y-44525000I0J-250000D01*
G01*
X121550000Y-45475000D01*
G75*
G02*
X121300000Y-45725000I-250000J0D01*
G01*
X120800000Y-45725000D01*
G75*
G02*
X120550000Y-45475000I0J250000D01*
G01*
G37*
G36*
G01*
X122450000Y-45475000D02*
X122450000Y-44525000D01*
G75*
G02*
X122700000Y-44275000I250000J0D01*
G01*
X123200000Y-44275000D01*
G75*
G02*
X123450000Y-44525000I0J-250000D01*
G01*
X123450000Y-45475000D01*
G75*
G02*
X123200000Y-45725000I-250000J0D01*
G01*
X122700000Y-45725000D01*
G75*
G02*
X122450000Y-45475000I0J250000D01*
G01*
G37*
D25*
X180000000Y-40000000D03*
D26*
X182400000Y-40000000D03*
X181697056Y-41697056D03*
X180000000Y-42400000D03*
X178302944Y-41697056D03*
X177600000Y-40000000D03*
X178302944Y-38302944D03*
X180000000Y-37600000D03*
X181697056Y-38302944D03*
X91697056Y-38302944D03*
X90000000Y-37600000D03*
X88302944Y-38302944D03*
X87600000Y-40000000D03*
X88302944Y-41697056D03*
X90000000Y-42400000D03*
X91697056Y-41697056D03*
X92400000Y-40000000D03*
D25*
X90000000Y-40000000D03*
D27*
X179810000Y-45984000D03*
X179810000Y-48016000D03*
X172190000Y-47000000D03*
G36*
G01*
X177450000Y-33525000D02*
X177450000Y-34475000D01*
G75*
G02*
X177200000Y-34725000I-250000J0D01*
G01*
X176700000Y-34725000D01*
G75*
G02*
X176450000Y-34475000I0J250000D01*
G01*
X176450000Y-33525000D01*
G75*
G02*
X176700000Y-33275000I250000J0D01*
G01*
X177200000Y-33275000D01*
G75*
G02*
X177450000Y-33525000I0J-250000D01*
G01*
G37*
G36*
G01*
X175550000Y-33525000D02*
X175550000Y-34475000D01*
G75*
G02*
X175300000Y-34725000I-250000J0D01*
G01*
X174800000Y-34725000D01*
G75*
G02*
X174550000Y-34475000I0J250000D01*
G01*
X174550000Y-33525000D01*
G75*
G02*
X174800000Y-33275000I250000J0D01*
G01*
X175300000Y-33275000D01*
G75*
G02*
X175550000Y-33525000I0J-250000D01*
G01*
G37*
D28*
X130750000Y-46000000D03*
X127250000Y-46000000D03*
G36*
G01*
X139450000Y-43525000D02*
X139450000Y-44475000D01*
G75*
G02*
X139200000Y-44725000I-250000J0D01*
G01*
X138700000Y-44725000D01*
G75*
G02*
X138450000Y-44475000I0J250000D01*
G01*
X138450000Y-43525000D01*
G75*
G02*
X138700000Y-43275000I250000J0D01*
G01*
X139200000Y-43275000D01*
G75*
G02*
X139450000Y-43525000I0J-250000D01*
G01*
G37*
G36*
G01*
X137550000Y-43525000D02*
X137550000Y-44475000D01*
G75*
G02*
X137300000Y-44725000I-250000J0D01*
G01*
X136800000Y-44725000D01*
G75*
G02*
X136550000Y-44475000I0J250000D01*
G01*
X136550000Y-43525000D01*
G75*
G02*
X136800000Y-43275000I250000J0D01*
G01*
X137300000Y-43275000D01*
G75*
G02*
X137550000Y-43525000I0J-250000D01*
G01*
G37*
G36*
G01*
X138025000Y-45925000D02*
X138025000Y-48075000D01*
G75*
G02*
X137775000Y-48325000I-250000J0D01*
G01*
X137025000Y-48325000D01*
G75*
G02*
X136775000Y-48075000I0J250000D01*
G01*
X136775000Y-45925000D01*
G75*
G02*
X137025000Y-45675000I250000J0D01*
G01*
X137775000Y-45675000D01*
G75*
G02*
X138025000Y-45925000I0J-250000D01*
G01*
G37*
G36*
G01*
X135225000Y-45925000D02*
X135225000Y-48075000D01*
G75*
G02*
X134975000Y-48325000I-250000J0D01*
G01*
X134225000Y-48325000D01*
G75*
G02*
X133975000Y-48075000I0J250000D01*
G01*
X133975000Y-45925000D01*
G75*
G02*
X134225000Y-45675000I250000J0D01*
G01*
X134975000Y-45675000D01*
G75*
G02*
X135225000Y-45925000I0J-250000D01*
G01*
G37*
D29*
X134350000Y-33000000D03*
X137650000Y-33000000D03*
X111650000Y-33000000D03*
X108350000Y-33000000D03*
M02*
