G04 #@! TF.GenerationSoftware,KiCad,Pcbnew,(5.1.10)-1*
G04 #@! TF.CreationDate,2021-12-15T22:44:45-08:00*
G04 #@! TF.ProjectId,MultimeterTest,4d756c74-696d-4657-9465-72546573742e,rev?*
G04 #@! TF.SameCoordinates,Original*
G04 #@! TF.FileFunction,Soldermask,Bot*
G04 #@! TF.FilePolarity,Negative*
%FSLAX46Y46*%
G04 Gerber Fmt 4.6, Leading zero omitted, Abs format (unit mm)*
G04 Created by KiCad (PCBNEW (5.1.10)-1) date 2021-12-15 22:44:45*
%MOMM*%
%LPD*%
G01*
G04 APERTURE LIST*
%ADD10C,0.650000*%
%ADD11C,2.640000*%
%ADD12C,2.000000*%
%ADD13R,2.000000X2.000000*%
%ADD14R,0.900000X0.800000*%
%ADD15R,0.800000X0.900000*%
%ADD16R,0.600000X0.450000*%
%ADD17C,2.200000*%
%ADD18C,3.200000*%
%ADD19R,0.700000X1.800000*%
%ADD20R,1.800000X0.700000*%
%ADD21R,1.700000X1.700000*%
%ADD22O,1.700000X1.700000*%
%ADD23O,2.100000X1.000000*%
%ADD24O,1.600000X1.000000*%
%ADD25C,0.650000*%
%ADD26C,1.152000*%
%ADD27C,0.990600*%
%ADD28C,2.374900*%
G04 APERTURE END LIST*
D10*
X68325000Y-35000000D02*
G75*
G03*
X68325000Y-35000000I-325000J0D01*
G01*
X68325000Y-45000000D02*
G75*
G03*
X68325000Y-45000000I-325000J0D01*
G01*
X208325000Y-40000000D02*
G75*
G03*
X208325000Y-40000000I-325000J0D01*
G01*
G36*
G01*
X141675000Y-35750000D02*
X141675000Y-36250000D01*
G75*
G02*
X141450000Y-36475000I-225000J0D01*
G01*
X141000000Y-36475000D01*
G75*
G02*
X140775000Y-36250000I0J225000D01*
G01*
X140775000Y-35750000D01*
G75*
G02*
X141000000Y-35525000I225000J0D01*
G01*
X141450000Y-35525000D01*
G75*
G02*
X141675000Y-35750000I0J-225000D01*
G01*
G37*
G36*
G01*
X143225000Y-35750000D02*
X143225000Y-36250000D01*
G75*
G02*
X143000000Y-36475000I-225000J0D01*
G01*
X142550000Y-36475000D01*
G75*
G02*
X142325000Y-36250000I0J225000D01*
G01*
X142325000Y-35750000D01*
G75*
G02*
X142550000Y-35525000I225000J0D01*
G01*
X143000000Y-35525000D01*
G75*
G02*
X143225000Y-35750000I0J-225000D01*
G01*
G37*
D11*
X102750000Y-45995000D03*
X149230000Y-34005000D03*
D12*
X151990000Y-40000000D03*
D13*
X100000000Y-40000000D03*
G36*
G01*
X109775000Y-45250000D02*
X109775000Y-44750000D01*
G75*
G02*
X110000000Y-44525000I225000J0D01*
G01*
X110450000Y-44525000D01*
G75*
G02*
X110675000Y-44750000I0J-225000D01*
G01*
X110675000Y-45250000D01*
G75*
G02*
X110450000Y-45475000I-225000J0D01*
G01*
X110000000Y-45475000D01*
G75*
G02*
X109775000Y-45250000I0J225000D01*
G01*
G37*
G36*
G01*
X111325000Y-45250000D02*
X111325000Y-44750000D01*
G75*
G02*
X111550000Y-44525000I225000J0D01*
G01*
X112000000Y-44525000D01*
G75*
G02*
X112225000Y-44750000I0J-225000D01*
G01*
X112225000Y-45250000D01*
G75*
G02*
X112000000Y-45475000I-225000J0D01*
G01*
X111550000Y-45475000D01*
G75*
G02*
X111325000Y-45250000I0J225000D01*
G01*
G37*
D14*
X92000000Y-45950000D03*
X92000000Y-44050000D03*
X94000000Y-45000000D03*
G36*
G01*
X88275000Y-44575000D02*
X87725000Y-44575000D01*
G75*
G02*
X87525000Y-44375000I0J200000D01*
G01*
X87525000Y-43975000D01*
G75*
G02*
X87725000Y-43775000I200000J0D01*
G01*
X88275000Y-43775000D01*
G75*
G02*
X88475000Y-43975000I0J-200000D01*
G01*
X88475000Y-44375000D01*
G75*
G02*
X88275000Y-44575000I-200000J0D01*
G01*
G37*
G36*
G01*
X88275000Y-46225000D02*
X87725000Y-46225000D01*
G75*
G02*
X87525000Y-46025000I0J200000D01*
G01*
X87525000Y-45625000D01*
G75*
G02*
X87725000Y-45425000I200000J0D01*
G01*
X88275000Y-45425000D01*
G75*
G02*
X88475000Y-45625000I0J-200000D01*
G01*
X88475000Y-46025000D01*
G75*
G02*
X88275000Y-46225000I-200000J0D01*
G01*
G37*
G36*
G01*
X104775000Y-45250000D02*
X104775000Y-44750000D01*
G75*
G02*
X105000000Y-44525000I225000J0D01*
G01*
X105450000Y-44525000D01*
G75*
G02*
X105675000Y-44750000I0J-225000D01*
G01*
X105675000Y-45250000D01*
G75*
G02*
X105450000Y-45475000I-225000J0D01*
G01*
X105000000Y-45475000D01*
G75*
G02*
X104775000Y-45250000I0J225000D01*
G01*
G37*
G36*
G01*
X106325000Y-45250000D02*
X106325000Y-44750000D01*
G75*
G02*
X106550000Y-44525000I225000J0D01*
G01*
X107000000Y-44525000D01*
G75*
G02*
X107225000Y-44750000I0J-225000D01*
G01*
X107225000Y-45250000D01*
G75*
G02*
X107000000Y-45475000I-225000J0D01*
G01*
X106550000Y-45475000D01*
G75*
G02*
X106325000Y-45250000I0J225000D01*
G01*
G37*
G36*
G01*
X111325000Y-41250000D02*
X111325000Y-40750000D01*
G75*
G02*
X111550000Y-40525000I225000J0D01*
G01*
X112000000Y-40525000D01*
G75*
G02*
X112225000Y-40750000I0J-225000D01*
G01*
X112225000Y-41250000D01*
G75*
G02*
X112000000Y-41475000I-225000J0D01*
G01*
X111550000Y-41475000D01*
G75*
G02*
X111325000Y-41250000I0J225000D01*
G01*
G37*
G36*
G01*
X109775000Y-41250000D02*
X109775000Y-40750000D01*
G75*
G02*
X110000000Y-40525000I225000J0D01*
G01*
X110450000Y-40525000D01*
G75*
G02*
X110675000Y-40750000I0J-225000D01*
G01*
X110675000Y-41250000D01*
G75*
G02*
X110450000Y-41475000I-225000J0D01*
G01*
X110000000Y-41475000D01*
G75*
G02*
X109775000Y-41250000I0J225000D01*
G01*
G37*
G36*
G01*
X110575000Y-42725000D02*
X110575000Y-43275000D01*
G75*
G02*
X110375000Y-43475000I-200000J0D01*
G01*
X109975000Y-43475000D01*
G75*
G02*
X109775000Y-43275000I0J200000D01*
G01*
X109775000Y-42725000D01*
G75*
G02*
X109975000Y-42525000I200000J0D01*
G01*
X110375000Y-42525000D01*
G75*
G02*
X110575000Y-42725000I0J-200000D01*
G01*
G37*
G36*
G01*
X112225000Y-42725000D02*
X112225000Y-43275000D01*
G75*
G02*
X112025000Y-43475000I-200000J0D01*
G01*
X111625000Y-43475000D01*
G75*
G02*
X111425000Y-43275000I0J200000D01*
G01*
X111425000Y-42725000D01*
G75*
G02*
X111625000Y-42525000I200000J0D01*
G01*
X112025000Y-42525000D01*
G75*
G02*
X112225000Y-42725000I0J-200000D01*
G01*
G37*
D15*
X122000000Y-40000000D03*
X122950000Y-38000000D03*
X121050000Y-38000000D03*
G36*
G01*
X120775000Y-35275000D02*
X120775000Y-34725000D01*
G75*
G02*
X120975000Y-34525000I200000J0D01*
G01*
X121375000Y-34525000D01*
G75*
G02*
X121575000Y-34725000I0J-200000D01*
G01*
X121575000Y-35275000D01*
G75*
G02*
X121375000Y-35475000I-200000J0D01*
G01*
X120975000Y-35475000D01*
G75*
G02*
X120775000Y-35275000I0J200000D01*
G01*
G37*
G36*
G01*
X122425000Y-35275000D02*
X122425000Y-34725000D01*
G75*
G02*
X122625000Y-34525000I200000J0D01*
G01*
X123025000Y-34525000D01*
G75*
G02*
X123225000Y-34725000I0J-200000D01*
G01*
X123225000Y-35275000D01*
G75*
G02*
X123025000Y-35475000I-200000J0D01*
G01*
X122625000Y-35475000D01*
G75*
G02*
X122425000Y-35275000I0J200000D01*
G01*
G37*
D16*
X120950000Y-43000000D03*
X123050000Y-43000000D03*
X115950000Y-43000000D03*
X118050000Y-43000000D03*
G36*
G01*
X115775000Y-40275000D02*
X115775000Y-39725000D01*
G75*
G02*
X115975000Y-39525000I200000J0D01*
G01*
X116375000Y-39525000D01*
G75*
G02*
X116575000Y-39725000I0J-200000D01*
G01*
X116575000Y-40275000D01*
G75*
G02*
X116375000Y-40475000I-200000J0D01*
G01*
X115975000Y-40475000D01*
G75*
G02*
X115775000Y-40275000I0J200000D01*
G01*
G37*
G36*
G01*
X117425000Y-40275000D02*
X117425000Y-39725000D01*
G75*
G02*
X117625000Y-39525000I200000J0D01*
G01*
X118025000Y-39525000D01*
G75*
G02*
X118225000Y-39725000I0J-200000D01*
G01*
X118225000Y-40275000D01*
G75*
G02*
X118025000Y-40475000I-200000J0D01*
G01*
X117625000Y-40475000D01*
G75*
G02*
X117425000Y-40275000I0J200000D01*
G01*
G37*
D15*
X117950000Y-37000000D03*
X116050000Y-37000000D03*
X117000000Y-35000000D03*
D17*
X203360000Y-45080000D03*
X193200000Y-34920000D03*
X203360000Y-34920000D03*
X193200000Y-45080000D03*
D18*
X197000000Y-40000000D03*
G36*
G01*
X190250000Y-35675000D02*
X189750000Y-35675000D01*
G75*
G02*
X189525000Y-35450000I0J225000D01*
G01*
X189525000Y-35000000D01*
G75*
G02*
X189750000Y-34775000I225000J0D01*
G01*
X190250000Y-34775000D01*
G75*
G02*
X190475000Y-35000000I0J-225000D01*
G01*
X190475000Y-35450000D01*
G75*
G02*
X190250000Y-35675000I-225000J0D01*
G01*
G37*
G36*
G01*
X190250000Y-37225000D02*
X189750000Y-37225000D01*
G75*
G02*
X189525000Y-37000000I0J225000D01*
G01*
X189525000Y-36550000D01*
G75*
G02*
X189750000Y-36325000I225000J0D01*
G01*
X190250000Y-36325000D01*
G75*
G02*
X190475000Y-36550000I0J-225000D01*
G01*
X190475000Y-37000000D01*
G75*
G02*
X190250000Y-37225000I-225000J0D01*
G01*
G37*
X80000000Y-40000000D03*
D17*
X83800000Y-34920000D03*
X73640000Y-45080000D03*
X83800000Y-45080000D03*
X73640000Y-34920000D03*
D19*
X174600000Y-33250000D03*
X174600000Y-46750000D03*
X173500000Y-33250000D03*
X173500000Y-46750000D03*
X172400000Y-33250000D03*
X172400000Y-46750000D03*
X171300000Y-33250000D03*
X171300000Y-46750000D03*
X170200000Y-33250000D03*
X170200000Y-46750000D03*
X169100000Y-33250000D03*
X169100000Y-46750000D03*
X168000000Y-33250000D03*
X168000000Y-46750000D03*
X166900000Y-33250000D03*
X166900000Y-46750000D03*
X165800000Y-33250000D03*
X165800000Y-46750000D03*
X164700000Y-33250000D03*
X164700000Y-46750000D03*
X163600000Y-33250000D03*
X163600000Y-46750000D03*
X162500000Y-33250000D03*
X162500000Y-46750000D03*
X161400000Y-33250000D03*
X161400000Y-46750000D03*
D20*
X159900000Y-45500000D03*
X159900000Y-44400000D03*
X159900000Y-43300000D03*
X159900000Y-42200000D03*
X159900000Y-41100000D03*
X159900000Y-40000000D03*
X159900000Y-38900000D03*
X159900000Y-37800000D03*
X159900000Y-36700000D03*
X159900000Y-35600000D03*
X159900000Y-34500000D03*
G36*
G01*
X105675000Y-34750000D02*
X105675000Y-35250000D01*
G75*
G02*
X105450000Y-35475000I-225000J0D01*
G01*
X105000000Y-35475000D01*
G75*
G02*
X104775000Y-35250000I0J225000D01*
G01*
X104775000Y-34750000D01*
G75*
G02*
X105000000Y-34525000I225000J0D01*
G01*
X105450000Y-34525000D01*
G75*
G02*
X105675000Y-34750000I0J-225000D01*
G01*
G37*
G36*
G01*
X107225000Y-34750000D02*
X107225000Y-35250000D01*
G75*
G02*
X107000000Y-35475000I-225000J0D01*
G01*
X106550000Y-35475000D01*
G75*
G02*
X106325000Y-35250000I0J225000D01*
G01*
X106325000Y-34750000D01*
G75*
G02*
X106550000Y-34525000I225000J0D01*
G01*
X107000000Y-34525000D01*
G75*
G02*
X107225000Y-34750000I0J-225000D01*
G01*
G37*
G36*
G01*
X106425000Y-37275000D02*
X106425000Y-36725000D01*
G75*
G02*
X106625000Y-36525000I200000J0D01*
G01*
X107025000Y-36525000D01*
G75*
G02*
X107225000Y-36725000I0J-200000D01*
G01*
X107225000Y-37275000D01*
G75*
G02*
X107025000Y-37475000I-200000J0D01*
G01*
X106625000Y-37475000D01*
G75*
G02*
X106425000Y-37275000I0J200000D01*
G01*
G37*
G36*
G01*
X104775000Y-37275000D02*
X104775000Y-36725000D01*
G75*
G02*
X104975000Y-36525000I200000J0D01*
G01*
X105375000Y-36525000D01*
G75*
G02*
X105575000Y-36725000I0J-200000D01*
G01*
X105575000Y-37275000D01*
G75*
G02*
X105375000Y-37475000I-200000J0D01*
G01*
X104975000Y-37475000D01*
G75*
G02*
X104775000Y-37275000I0J200000D01*
G01*
G37*
G36*
G01*
X112225000Y-34750000D02*
X112225000Y-35250000D01*
G75*
G02*
X112000000Y-35475000I-225000J0D01*
G01*
X111550000Y-35475000D01*
G75*
G02*
X111325000Y-35250000I0J225000D01*
G01*
X111325000Y-34750000D01*
G75*
G02*
X111550000Y-34525000I225000J0D01*
G01*
X112000000Y-34525000D01*
G75*
G02*
X112225000Y-34750000I0J-225000D01*
G01*
G37*
G36*
G01*
X110675000Y-34750000D02*
X110675000Y-35250000D01*
G75*
G02*
X110450000Y-35475000I-225000J0D01*
G01*
X110000000Y-35475000D01*
G75*
G02*
X109775000Y-35250000I0J225000D01*
G01*
X109775000Y-34750000D01*
G75*
G02*
X110000000Y-34525000I225000J0D01*
G01*
X110450000Y-34525000D01*
G75*
G02*
X110675000Y-34750000I0J-225000D01*
G01*
G37*
G36*
G01*
X126550000Y-38475000D02*
X126550000Y-37525000D01*
G75*
G02*
X126800000Y-37275000I250000J0D01*
G01*
X127300000Y-37275000D01*
G75*
G02*
X127550000Y-37525000I0J-250000D01*
G01*
X127550000Y-38475000D01*
G75*
G02*
X127300000Y-38725000I-250000J0D01*
G01*
X126800000Y-38725000D01*
G75*
G02*
X126550000Y-38475000I0J250000D01*
G01*
G37*
G36*
G01*
X128450000Y-38475000D02*
X128450000Y-37525000D01*
G75*
G02*
X128700000Y-37275000I250000J0D01*
G01*
X129200000Y-37275000D01*
G75*
G02*
X129450000Y-37525000I0J-250000D01*
G01*
X129450000Y-38475000D01*
G75*
G02*
X129200000Y-38725000I-250000J0D01*
G01*
X128700000Y-38725000D01*
G75*
G02*
X128450000Y-38475000I0J250000D01*
G01*
G37*
G36*
G01*
X128450000Y-36475000D02*
X128450000Y-35525000D01*
G75*
G02*
X128700000Y-35275000I250000J0D01*
G01*
X129200000Y-35275000D01*
G75*
G02*
X129450000Y-35525000I0J-250000D01*
G01*
X129450000Y-36475000D01*
G75*
G02*
X129200000Y-36725000I-250000J0D01*
G01*
X128700000Y-36725000D01*
G75*
G02*
X128450000Y-36475000I0J250000D01*
G01*
G37*
G36*
G01*
X126550000Y-36475000D02*
X126550000Y-35525000D01*
G75*
G02*
X126800000Y-35275000I250000J0D01*
G01*
X127300000Y-35275000D01*
G75*
G02*
X127550000Y-35525000I0J-250000D01*
G01*
X127550000Y-36475000D01*
G75*
G02*
X127300000Y-36725000I-250000J0D01*
G01*
X126800000Y-36725000D01*
G75*
G02*
X126550000Y-36475000I0J250000D01*
G01*
G37*
G36*
G01*
X126550000Y-34475000D02*
X126550000Y-33525000D01*
G75*
G02*
X126800000Y-33275000I250000J0D01*
G01*
X127300000Y-33275000D01*
G75*
G02*
X127550000Y-33525000I0J-250000D01*
G01*
X127550000Y-34475000D01*
G75*
G02*
X127300000Y-34725000I-250000J0D01*
G01*
X126800000Y-34725000D01*
G75*
G02*
X126550000Y-34475000I0J250000D01*
G01*
G37*
G36*
G01*
X128450000Y-34475000D02*
X128450000Y-33525000D01*
G75*
G02*
X128700000Y-33275000I250000J0D01*
G01*
X129200000Y-33275000D01*
G75*
G02*
X129450000Y-33525000I0J-250000D01*
G01*
X129450000Y-34475000D01*
G75*
G02*
X129200000Y-34725000I-250000J0D01*
G01*
X128700000Y-34725000D01*
G75*
G02*
X128450000Y-34475000I0J250000D01*
G01*
G37*
D21*
X142000000Y-40000000D03*
D22*
X139460000Y-40000000D03*
G36*
G01*
X146775000Y-46250000D02*
X146775000Y-45750000D01*
G75*
G02*
X147000000Y-45525000I225000J0D01*
G01*
X147450000Y-45525000D01*
G75*
G02*
X147675000Y-45750000I0J-225000D01*
G01*
X147675000Y-46250000D01*
G75*
G02*
X147450000Y-46475000I-225000J0D01*
G01*
X147000000Y-46475000D01*
G75*
G02*
X146775000Y-46250000I0J225000D01*
G01*
G37*
G36*
G01*
X148325000Y-46250000D02*
X148325000Y-45750000D01*
G75*
G02*
X148550000Y-45525000I225000J0D01*
G01*
X149000000Y-45525000D01*
G75*
G02*
X149225000Y-45750000I0J-225000D01*
G01*
X149225000Y-46250000D01*
G75*
G02*
X149000000Y-46475000I-225000J0D01*
G01*
X148550000Y-46475000D01*
G75*
G02*
X148325000Y-46250000I0J225000D01*
G01*
G37*
G36*
G01*
X149225000Y-43725000D02*
X149225000Y-44275000D01*
G75*
G02*
X149025000Y-44475000I-200000J0D01*
G01*
X148625000Y-44475000D01*
G75*
G02*
X148425000Y-44275000I0J200000D01*
G01*
X148425000Y-43725000D01*
G75*
G02*
X148625000Y-43525000I200000J0D01*
G01*
X149025000Y-43525000D01*
G75*
G02*
X149225000Y-43725000I0J-200000D01*
G01*
G37*
G36*
G01*
X147575000Y-43725000D02*
X147575000Y-44275000D01*
G75*
G02*
X147375000Y-44475000I-200000J0D01*
G01*
X146975000Y-44475000D01*
G75*
G02*
X146775000Y-44275000I0J200000D01*
G01*
X146775000Y-43725000D01*
G75*
G02*
X146975000Y-43525000I200000J0D01*
G01*
X147375000Y-43525000D01*
G75*
G02*
X147575000Y-43725000I0J-200000D01*
G01*
G37*
G36*
G01*
X143225000Y-45750000D02*
X143225000Y-46250000D01*
G75*
G02*
X143000000Y-46475000I-225000J0D01*
G01*
X142550000Y-46475000D01*
G75*
G02*
X142325000Y-46250000I0J225000D01*
G01*
X142325000Y-45750000D01*
G75*
G02*
X142550000Y-45525000I225000J0D01*
G01*
X143000000Y-45525000D01*
G75*
G02*
X143225000Y-45750000I0J-225000D01*
G01*
G37*
G36*
G01*
X141675000Y-45750000D02*
X141675000Y-46250000D01*
G75*
G02*
X141450000Y-46475000I-225000J0D01*
G01*
X141000000Y-46475000D01*
G75*
G02*
X140775000Y-46250000I0J225000D01*
G01*
X140775000Y-45750000D01*
G75*
G02*
X141000000Y-45525000I225000J0D01*
G01*
X141450000Y-45525000D01*
G75*
G02*
X141675000Y-45750000I0J-225000D01*
G01*
G37*
G36*
G01*
X143225000Y-41725000D02*
X143225000Y-42275000D01*
G75*
G02*
X143025000Y-42475000I-200000J0D01*
G01*
X142625000Y-42475000D01*
G75*
G02*
X142425000Y-42275000I0J200000D01*
G01*
X142425000Y-41725000D01*
G75*
G02*
X142625000Y-41525000I200000J0D01*
G01*
X143025000Y-41525000D01*
G75*
G02*
X143225000Y-41725000I0J-200000D01*
G01*
G37*
G36*
G01*
X141575000Y-41725000D02*
X141575000Y-42275000D01*
G75*
G02*
X141375000Y-42475000I-200000J0D01*
G01*
X140975000Y-42475000D01*
G75*
G02*
X140775000Y-42275000I0J200000D01*
G01*
X140775000Y-41725000D01*
G75*
G02*
X140975000Y-41525000I200000J0D01*
G01*
X141375000Y-41525000D01*
G75*
G02*
X141575000Y-41725000I0J-200000D01*
G01*
G37*
G36*
G01*
X140775000Y-44250000D02*
X140775000Y-43750000D01*
G75*
G02*
X141000000Y-43525000I225000J0D01*
G01*
X141450000Y-43525000D01*
G75*
G02*
X141675000Y-43750000I0J-225000D01*
G01*
X141675000Y-44250000D01*
G75*
G02*
X141450000Y-44475000I-225000J0D01*
G01*
X141000000Y-44475000D01*
G75*
G02*
X140775000Y-44250000I0J225000D01*
G01*
G37*
G36*
G01*
X142325000Y-44250000D02*
X142325000Y-43750000D01*
G75*
G02*
X142550000Y-43525000I225000J0D01*
G01*
X143000000Y-43525000D01*
G75*
G02*
X143225000Y-43750000I0J-225000D01*
G01*
X143225000Y-44250000D01*
G75*
G02*
X143000000Y-44475000I-225000J0D01*
G01*
X142550000Y-44475000D01*
G75*
G02*
X142325000Y-44250000I0J225000D01*
G01*
G37*
G36*
G01*
X147675000Y-41750000D02*
X147675000Y-42250000D01*
G75*
G02*
X147450000Y-42475000I-225000J0D01*
G01*
X147000000Y-42475000D01*
G75*
G02*
X146775000Y-42250000I0J225000D01*
G01*
X146775000Y-41750000D01*
G75*
G02*
X147000000Y-41525000I225000J0D01*
G01*
X147450000Y-41525000D01*
G75*
G02*
X147675000Y-41750000I0J-225000D01*
G01*
G37*
G36*
G01*
X149225000Y-41750000D02*
X149225000Y-42250000D01*
G75*
G02*
X149000000Y-42475000I-225000J0D01*
G01*
X148550000Y-42475000D01*
G75*
G02*
X148325000Y-42250000I0J225000D01*
G01*
X148325000Y-41750000D01*
G75*
G02*
X148550000Y-41525000I225000J0D01*
G01*
X149000000Y-41525000D01*
G75*
G02*
X149225000Y-41750000I0J-225000D01*
G01*
G37*
G36*
G01*
X147575000Y-39725000D02*
X147575000Y-40275000D01*
G75*
G02*
X147375000Y-40475000I-200000J0D01*
G01*
X146975000Y-40475000D01*
G75*
G02*
X146775000Y-40275000I0J200000D01*
G01*
X146775000Y-39725000D01*
G75*
G02*
X146975000Y-39525000I200000J0D01*
G01*
X147375000Y-39525000D01*
G75*
G02*
X147575000Y-39725000I0J-200000D01*
G01*
G37*
G36*
G01*
X149225000Y-39725000D02*
X149225000Y-40275000D01*
G75*
G02*
X149025000Y-40475000I-200000J0D01*
G01*
X148625000Y-40475000D01*
G75*
G02*
X148425000Y-40275000I0J200000D01*
G01*
X148425000Y-39725000D01*
G75*
G02*
X148625000Y-39525000I200000J0D01*
G01*
X149025000Y-39525000D01*
G75*
G02*
X149225000Y-39725000I0J-200000D01*
G01*
G37*
D23*
X203895000Y-44320000D03*
X203895000Y-35680000D03*
D24*
X208075000Y-44320000D03*
X208075000Y-35680000D03*
D25*
X204395000Y-37110000D03*
X204395000Y-42890000D03*
D26*
X68000000Y-35000000D03*
X68000000Y-45000000D03*
X208000000Y-40000000D03*
G36*
G01*
X156575000Y-45725000D02*
X156575000Y-46275000D01*
G75*
G02*
X156375000Y-46475000I-200000J0D01*
G01*
X155975000Y-46475000D01*
G75*
G02*
X155775000Y-46275000I0J200000D01*
G01*
X155775000Y-45725000D01*
G75*
G02*
X155975000Y-45525000I200000J0D01*
G01*
X156375000Y-45525000D01*
G75*
G02*
X156575000Y-45725000I0J-200000D01*
G01*
G37*
G36*
G01*
X158225000Y-45725000D02*
X158225000Y-46275000D01*
G75*
G02*
X158025000Y-46475000I-200000J0D01*
G01*
X157625000Y-46475000D01*
G75*
G02*
X157425000Y-46275000I0J200000D01*
G01*
X157425000Y-45725000D01*
G75*
G02*
X157625000Y-45525000I200000J0D01*
G01*
X158025000Y-45525000D01*
G75*
G02*
X158225000Y-45725000I0J-200000D01*
G01*
G37*
G36*
G01*
X157325000Y-34250000D02*
X157325000Y-33750000D01*
G75*
G02*
X157550000Y-33525000I225000J0D01*
G01*
X158000000Y-33525000D01*
G75*
G02*
X158225000Y-33750000I0J-225000D01*
G01*
X158225000Y-34250000D01*
G75*
G02*
X158000000Y-34475000I-225000J0D01*
G01*
X157550000Y-34475000D01*
G75*
G02*
X157325000Y-34250000I0J225000D01*
G01*
G37*
G36*
G01*
X155775000Y-34250000D02*
X155775000Y-33750000D01*
G75*
G02*
X156000000Y-33525000I225000J0D01*
G01*
X156450000Y-33525000D01*
G75*
G02*
X156675000Y-33750000I0J-225000D01*
G01*
X156675000Y-34250000D01*
G75*
G02*
X156450000Y-34475000I-225000J0D01*
G01*
X156000000Y-34475000D01*
G75*
G02*
X155775000Y-34250000I0J225000D01*
G01*
G37*
G36*
G01*
X134225000Y-39725000D02*
X134225000Y-40275000D01*
G75*
G02*
X134025000Y-40475000I-200000J0D01*
G01*
X133625000Y-40475000D01*
G75*
G02*
X133425000Y-40275000I0J200000D01*
G01*
X133425000Y-39725000D01*
G75*
G02*
X133625000Y-39525000I200000J0D01*
G01*
X134025000Y-39525000D01*
G75*
G02*
X134225000Y-39725000I0J-200000D01*
G01*
G37*
G36*
G01*
X132575000Y-39725000D02*
X132575000Y-40275000D01*
G75*
G02*
X132375000Y-40475000I-200000J0D01*
G01*
X131975000Y-40475000D01*
G75*
G02*
X131775000Y-40275000I0J200000D01*
G01*
X131775000Y-39725000D01*
G75*
G02*
X131975000Y-39525000I200000J0D01*
G01*
X132375000Y-39525000D01*
G75*
G02*
X132575000Y-39725000I0J-200000D01*
G01*
G37*
D16*
X131950000Y-43000000D03*
X134050000Y-43000000D03*
G36*
G01*
X189750000Y-42775000D02*
X190250000Y-42775000D01*
G75*
G02*
X190475000Y-43000000I0J-225000D01*
G01*
X190475000Y-43450000D01*
G75*
G02*
X190250000Y-43675000I-225000J0D01*
G01*
X189750000Y-43675000D01*
G75*
G02*
X189525000Y-43450000I0J225000D01*
G01*
X189525000Y-43000000D01*
G75*
G02*
X189750000Y-42775000I225000J0D01*
G01*
G37*
G36*
G01*
X189750000Y-44325000D02*
X190250000Y-44325000D01*
G75*
G02*
X190475000Y-44550000I0J-225000D01*
G01*
X190475000Y-45000000D01*
G75*
G02*
X190250000Y-45225000I-225000J0D01*
G01*
X189750000Y-45225000D01*
G75*
G02*
X189525000Y-45000000I0J225000D01*
G01*
X189525000Y-44550000D01*
G75*
G02*
X189750000Y-44325000I225000J0D01*
G01*
G37*
G36*
G01*
X188225000Y-46725000D02*
X188225000Y-47275000D01*
G75*
G02*
X188025000Y-47475000I-200000J0D01*
G01*
X187625000Y-47475000D01*
G75*
G02*
X187425000Y-47275000I0J200000D01*
G01*
X187425000Y-46725000D01*
G75*
G02*
X187625000Y-46525000I200000J0D01*
G01*
X188025000Y-46525000D01*
G75*
G02*
X188225000Y-46725000I0J-200000D01*
G01*
G37*
G36*
G01*
X186575000Y-46725000D02*
X186575000Y-47275000D01*
G75*
G02*
X186375000Y-47475000I-200000J0D01*
G01*
X185975000Y-47475000D01*
G75*
G02*
X185775000Y-47275000I0J200000D01*
G01*
X185775000Y-46725000D01*
G75*
G02*
X185975000Y-46525000I200000J0D01*
G01*
X186375000Y-46525000D01*
G75*
G02*
X186575000Y-46725000I0J-200000D01*
G01*
G37*
G36*
G01*
X187425000Y-45275000D02*
X187425000Y-44725000D01*
G75*
G02*
X187625000Y-44525000I200000J0D01*
G01*
X188025000Y-44525000D01*
G75*
G02*
X188225000Y-44725000I0J-200000D01*
G01*
X188225000Y-45275000D01*
G75*
G02*
X188025000Y-45475000I-200000J0D01*
G01*
X187625000Y-45475000D01*
G75*
G02*
X187425000Y-45275000I0J200000D01*
G01*
G37*
G36*
G01*
X185775000Y-45275000D02*
X185775000Y-44725000D01*
G75*
G02*
X185975000Y-44525000I200000J0D01*
G01*
X186375000Y-44525000D01*
G75*
G02*
X186575000Y-44725000I0J-200000D01*
G01*
X186575000Y-45275000D01*
G75*
G02*
X186375000Y-45475000I-200000J0D01*
G01*
X185975000Y-45475000D01*
G75*
G02*
X185775000Y-45275000I0J200000D01*
G01*
G37*
G36*
G01*
X132575000Y-35725000D02*
X132575000Y-36275000D01*
G75*
G02*
X132375000Y-36475000I-200000J0D01*
G01*
X131975000Y-36475000D01*
G75*
G02*
X131775000Y-36275000I0J200000D01*
G01*
X131775000Y-35725000D01*
G75*
G02*
X131975000Y-35525000I200000J0D01*
G01*
X132375000Y-35525000D01*
G75*
G02*
X132575000Y-35725000I0J-200000D01*
G01*
G37*
G36*
G01*
X134225000Y-35725000D02*
X134225000Y-36275000D01*
G75*
G02*
X134025000Y-36475000I-200000J0D01*
G01*
X133625000Y-36475000D01*
G75*
G02*
X133425000Y-36275000I0J200000D01*
G01*
X133425000Y-35725000D01*
G75*
G02*
X133625000Y-35525000I200000J0D01*
G01*
X134025000Y-35525000D01*
G75*
G02*
X134225000Y-35725000I0J-200000D01*
G01*
G37*
G36*
G01*
X131775000Y-34275000D02*
X131775000Y-33725000D01*
G75*
G02*
X131975000Y-33525000I200000J0D01*
G01*
X132375000Y-33525000D01*
G75*
G02*
X132575000Y-33725000I0J-200000D01*
G01*
X132575000Y-34275000D01*
G75*
G02*
X132375000Y-34475000I-200000J0D01*
G01*
X131975000Y-34475000D01*
G75*
G02*
X131775000Y-34275000I0J200000D01*
G01*
G37*
G36*
G01*
X133425000Y-34275000D02*
X133425000Y-33725000D01*
G75*
G02*
X133625000Y-33525000I200000J0D01*
G01*
X134025000Y-33525000D01*
G75*
G02*
X134225000Y-33725000I0J-200000D01*
G01*
X134225000Y-34275000D01*
G75*
G02*
X134025000Y-34475000I-200000J0D01*
G01*
X133625000Y-34475000D01*
G75*
G02*
X133425000Y-34275000I0J200000D01*
G01*
G37*
G36*
G01*
X126775000Y-42250000D02*
X126775000Y-41750000D01*
G75*
G02*
X127000000Y-41525000I225000J0D01*
G01*
X127450000Y-41525000D01*
G75*
G02*
X127675000Y-41750000I0J-225000D01*
G01*
X127675000Y-42250000D01*
G75*
G02*
X127450000Y-42475000I-225000J0D01*
G01*
X127000000Y-42475000D01*
G75*
G02*
X126775000Y-42250000I0J225000D01*
G01*
G37*
G36*
G01*
X128325000Y-42250000D02*
X128325000Y-41750000D01*
G75*
G02*
X128550000Y-41525000I225000J0D01*
G01*
X129000000Y-41525000D01*
G75*
G02*
X129225000Y-41750000I0J-225000D01*
G01*
X129225000Y-42250000D01*
G75*
G02*
X129000000Y-42475000I-225000J0D01*
G01*
X128550000Y-42475000D01*
G75*
G02*
X128325000Y-42250000I0J225000D01*
G01*
G37*
G36*
G01*
X127675000Y-43750000D02*
X127675000Y-44250000D01*
G75*
G02*
X127450000Y-44475000I-225000J0D01*
G01*
X127000000Y-44475000D01*
G75*
G02*
X126775000Y-44250000I0J225000D01*
G01*
X126775000Y-43750000D01*
G75*
G02*
X127000000Y-43525000I225000J0D01*
G01*
X127450000Y-43525000D01*
G75*
G02*
X127675000Y-43750000I0J-225000D01*
G01*
G37*
G36*
G01*
X129225000Y-43750000D02*
X129225000Y-44250000D01*
G75*
G02*
X129000000Y-44475000I-225000J0D01*
G01*
X128550000Y-44475000D01*
G75*
G02*
X128325000Y-44250000I0J225000D01*
G01*
X128325000Y-43750000D01*
G75*
G02*
X128550000Y-43525000I225000J0D01*
G01*
X129000000Y-43525000D01*
G75*
G02*
X129225000Y-43750000I0J-225000D01*
G01*
G37*
G36*
G01*
X179775000Y-47275000D02*
X179775000Y-46725000D01*
G75*
G02*
X179975000Y-46525000I200000J0D01*
G01*
X180375000Y-46525000D01*
G75*
G02*
X180575000Y-46725000I0J-200000D01*
G01*
X180575000Y-47275000D01*
G75*
G02*
X180375000Y-47475000I-200000J0D01*
G01*
X179975000Y-47475000D01*
G75*
G02*
X179775000Y-47275000I0J200000D01*
G01*
G37*
G36*
G01*
X181425000Y-47275000D02*
X181425000Y-46725000D01*
G75*
G02*
X181625000Y-46525000I200000J0D01*
G01*
X182025000Y-46525000D01*
G75*
G02*
X182225000Y-46725000I0J-200000D01*
G01*
X182225000Y-47275000D01*
G75*
G02*
X182025000Y-47475000I-200000J0D01*
G01*
X181625000Y-47475000D01*
G75*
G02*
X181425000Y-47275000I0J200000D01*
G01*
G37*
G36*
G01*
X181425000Y-45275000D02*
X181425000Y-44725000D01*
G75*
G02*
X181625000Y-44525000I200000J0D01*
G01*
X182025000Y-44525000D01*
G75*
G02*
X182225000Y-44725000I0J-200000D01*
G01*
X182225000Y-45275000D01*
G75*
G02*
X182025000Y-45475000I-200000J0D01*
G01*
X181625000Y-45475000D01*
G75*
G02*
X181425000Y-45275000I0J200000D01*
G01*
G37*
G36*
G01*
X179775000Y-45275000D02*
X179775000Y-44725000D01*
G75*
G02*
X179975000Y-44525000I200000J0D01*
G01*
X180375000Y-44525000D01*
G75*
G02*
X180575000Y-44725000I0J-200000D01*
G01*
X180575000Y-45275000D01*
G75*
G02*
X180375000Y-45475000I-200000J0D01*
G01*
X179975000Y-45475000D01*
G75*
G02*
X179775000Y-45275000I0J200000D01*
G01*
G37*
G36*
G01*
X179775000Y-33275000D02*
X179775000Y-32725000D01*
G75*
G02*
X179975000Y-32525000I200000J0D01*
G01*
X180375000Y-32525000D01*
G75*
G02*
X180575000Y-32725000I0J-200000D01*
G01*
X180575000Y-33275000D01*
G75*
G02*
X180375000Y-33475000I-200000J0D01*
G01*
X179975000Y-33475000D01*
G75*
G02*
X179775000Y-33275000I0J200000D01*
G01*
G37*
G36*
G01*
X181425000Y-33275000D02*
X181425000Y-32725000D01*
G75*
G02*
X181625000Y-32525000I200000J0D01*
G01*
X182025000Y-32525000D01*
G75*
G02*
X182225000Y-32725000I0J-200000D01*
G01*
X182225000Y-33275000D01*
G75*
G02*
X182025000Y-33475000I-200000J0D01*
G01*
X181625000Y-33475000D01*
G75*
G02*
X181425000Y-33275000I0J200000D01*
G01*
G37*
D27*
X188810000Y-38984000D03*
X188810000Y-41016000D03*
X181190000Y-40000000D03*
D28*
X181190000Y-37460000D03*
X181190000Y-42540000D03*
X186905000Y-42540000D03*
X186905000Y-37460000D03*
D14*
X186000000Y-34950000D03*
X186000000Y-33050000D03*
X188000000Y-34000000D03*
M02*
