M48
; DRILL file {KiCad (5.1.12)-1} date 04/24/22 17:31:40
; FORMAT={-:-/ absolute / inch / decimal}
; #@! TF.CreationDate,2022-04-24T17:31:40-07:00
; #@! TF.GenerationSoftware,Kicad,Pcbnew,(5.1.12)-1
FMAT,2
INCH
T1C0.0079
T2C0.0118
T3C0.0197
T4C0.0236
T5C0.0295
T6C0.0315
T7C0.0402
T8C0.0472
T9C0.0866
T10C0.1260
T11C0.0256
T12C0.0390
T13C0.0454
T14C0.1039
%
G90
G05
T1
X6.7894Y-1.3524
X6.7894Y-1.4035
X6.8327Y-1.3524
X6.8327Y-1.4035
T2
X3.8583Y-1.2598
X3.8774Y-1.6929
X3.8774Y-1.2992
X3.8774Y-1.4567
X3.8774Y-1.8504
X3.878Y-1.378
X3.878Y-1.7717
X3.9143Y-1.5758
X3.937Y-1.3386
X3.937Y-1.4961
X3.937Y-1.7323
X3.937Y-1.8898
X3.9961Y-1.5354
X3.9961Y-1.7717
X3.9962Y-1.299
X3.9967Y-1.4567
X3.9967Y-1.6929
X4.0157Y-1.6142
X4.0157Y-1.3976
X4.0157Y-1.8701
X4.0354Y-1.4567
X4.0354Y-1.6929
X4.0945Y-1.378
X4.0945Y-1.6142
X4.0945Y-1.8504
X4.1732Y-1.378
X4.1732Y-1.4173
X4.1732Y-1.4961
X4.1732Y-1.5354
X4.1732Y-1.6142
X4.1732Y-1.6535
X4.1732Y-1.7323
X4.1732Y-1.7717
X4.252Y-1.378
X4.252Y-1.4567
X4.3701Y-1.7323
X4.4094Y-1.378
X4.4094Y-1.6535
X4.4094Y-1.6929
X4.4882Y-1.378
X4.4882Y-1.4173
X4.4882Y-1.5748
X4.5276Y-1.7323
X4.5276Y-1.811
X4.5669Y-1.5748
X4.5669Y-1.8504
X4.6457Y-1.378
X4.6457Y-1.811
X4.6457Y-1.8504
X4.6654Y-1.4173
X4.685Y-1.4961
X4.685Y-1.5354
X4.685Y-1.5748
X4.7244Y-1.4173
X4.7244Y-1.7717
X4.8031Y-1.3386
X4.8031Y-1.4173
X4.8031Y-1.7323
X4.8819Y-1.378
X4.8819Y-1.7717
X4.9016Y-1.5157
X4.9213Y-1.2992
X5.0Y-1.8898
X5.0394Y-1.3386
X5.0394Y-1.4173
X5.0787Y-1.4961
X5.1181Y-1.3386
X5.1181Y-1.4173
X5.2362Y-1.2992
X5.2756Y-1.4173
X5.3543Y-1.3386
X5.3543Y-1.4173
X5.3543Y-1.7323
X5.3543Y-1.7717
X5.3543Y-1.811
X5.4331Y-1.3386
X5.5118Y-1.687
X5.5315Y-1.3642
X5.5315Y-1.4035
X5.5315Y-1.7185
X5.5512Y-1.2992
X5.5906Y-1.2992
X5.6299Y-1.4173
X5.6299Y-1.4823
X5.6299Y-1.5744
X5.6299Y-1.6083
X5.6496Y-1.7323
X5.6693Y-1.2992
X5.6693Y-1.5551
X5.689Y-1.7323
X5.7283Y-1.4567
X5.8268Y-1.5551
X5.8661Y-1.5453
X5.8858Y-1.7323
X5.9449Y-1.2992
X5.9449Y-1.6535
X5.9646Y-1.624
X5.9823Y-1.5925
X6.0236Y-1.2795
X6.063Y-1.4173
X6.1024Y-1.3386
X6.1417Y-1.5354
X6.1417Y-1.5748
X6.1417Y-1.6142
X6.2992Y-1.5354
X6.5157Y-1.5945
X6.5157Y-1.5551
X6.6142Y-1.3386
X6.6142Y-1.4173
X6.6339Y-1.5551
X6.6339Y-1.5945
X6.7717Y-1.3189
X6.8291Y-1.8254
X6.8291Y-1.8754
X6.8791Y-1.8254
X6.9291Y-1.8254
X6.9291Y-1.8754
X6.9665Y-1.3799
X7.0291Y-1.8254
X7.6772Y-1.4173
X7.6772Y-1.7323
T3
X3.4488Y-1.5748
X3.4765Y-1.508
X3.4765Y-1.6416
X3.5433Y-1.4803
X3.5433Y-1.6693
X3.6101Y-1.508
X3.6101Y-1.6416
X3.6378Y-1.5748
X6.9921Y-1.5748
X7.0198Y-1.508
X7.0198Y-1.6416
X7.0866Y-1.4803
X7.0866Y-1.6693
X7.1534Y-1.508
X7.1534Y-1.6416
X7.1811Y-1.5748
T5
X6.811Y-1.5354
X6.811Y-1.6142
T6
X4.2126Y-1.8504
X4.9606Y-1.7323
X4.9606Y-1.811
X5.1969Y-1.7323
X5.2559Y-1.85
X5.4528Y-1.8504
T7
X4.3307Y-1.5748
X6.3776Y-1.5748
T8
X2.8992Y-1.3748
X2.8992Y-1.7748
X3.2992Y-1.3748
X3.2992Y-1.7748
X7.3307Y-1.3748
X7.3307Y-1.7748
X7.7307Y-1.3748
X7.7307Y-1.7748
T9
X3.1496Y-1.5748
X7.4803Y-1.5748
T10
X3.5433Y-1.5748
X7.0866Y-1.5748
T11
X7.7715Y-1.461
X7.7715Y-1.6886
T12
X6.7791Y-1.8504
X7.0791Y-1.8104
X7.0791Y-1.8904
T13
X2.7165Y-1.4173
X2.7165Y-1.7323
X7.9134Y-1.5748
T14
X4.439Y-1.8108
X6.2689Y-1.3388
T4
G00X7.7301Y-1.4047
M15
G01X7.7734Y-1.4047
M16
G05
G00X7.7301Y-1.7449
M15
G01X7.7734Y-1.7449
M16
G05
G00X7.9045Y-1.4047
M15
G01X7.9281Y-1.4047
M16
G05
G00X7.9045Y-1.7449
M15
G01X7.9281Y-1.7449
M16
G05
T0
M30
