M48
; DRILL file {KiCad (5.1.12)-1} date 05/24/22 01:09:02
; FORMAT={-:-/ absolute / inch / decimal}
; #@! TF.CreationDate,2022-05-24T01:09:02-07:00
; #@! TF.GenerationSoftware,Kicad,Pcbnew,(5.1.12)-1
FMAT,2
INCH
T1C0.0118
T2C0.0236
T3C0.0394
T4C0.0256
T5C0.0454
%
G90
G05
T1
X3.4252Y-1.2598
X3.4252Y-1.4173
X3.5039Y-1.2008
X3.563Y-0.4528
X3.563Y-1.2008
X3.5827Y-1.4173
X3.622Y-0.7874
X3.622Y-1.2008
X3.622Y-1.7323
X3.622Y-1.8504
X3.622Y-1.9685
X3.622Y-2.0866
X3.6614Y-0.7874
X3.6614Y-1.4173
X3.6614Y-1.6929
X3.6811Y-1.2008
X3.7402Y-1.4173
X3.8189Y-1.7323
X3.8189Y-1.8504
X3.8189Y-1.9685
X3.8189Y-2.0866
X3.8583Y-0.4528
X3.8583Y-1.2205
X3.8583Y-1.6142
X3.8583Y-1.811
X3.8976Y-1.3386
X3.937Y-0.9449
X4.0157Y-1.2205
X4.0157Y-1.7323
X4.0157Y-1.8504
X4.0157Y-1.9685
X4.0157Y-2.0866
X4.0551Y-0.5512
X4.0551Y-1.3386
X4.0551Y-1.6142
X4.0551Y-1.9291
X4.0945Y-1.2205
X4.1339Y-0.5906
X4.1339Y-0.6693
X4.1339Y-0.748
X4.1339Y-0.9843
X4.1732Y-0.5118
X4.2126Y-1.7323
X4.2126Y-1.8504
X4.2126Y-1.9685
X4.2126Y-2.0866
X4.252Y-1.6142
X4.252Y-2.0472
X4.4094Y-1.7323
X4.4094Y-1.8504
X4.4094Y-1.9685
X4.4094Y-2.0866
X4.4488Y-1.6142
X4.4488Y-2.126
T3
X3.5583Y-0.315
X3.6583Y-0.315
X3.7583Y-0.315
X3.8583Y-0.315
T4
X4.2675Y-0.4374
X4.2675Y-0.665
T5
X3.4252Y-2.0472
X4.4488Y-0.315
X4.4488Y-2.0472
T2
G00X4.2262Y-0.3811
M15
G01X4.2695Y-0.3811
M16
G05
G00X4.2262Y-0.7213
M15
G01X4.2695Y-0.7213
M16
G05
G00X4.4006Y-0.3811
M15
G01X4.4242Y-0.3811
M16
G05
G00X4.4006Y-0.7213
M15
G01X4.4242Y-0.7213
M16
G05
T0
M30
