G04 #@! TF.GenerationSoftware,KiCad,Pcbnew,(5.1.12)-1*
G04 #@! TF.CreationDate,2022-05-24T01:09:00-07:00*
G04 #@! TF.ProjectId,LedMatrixTest,4c65644d-6174-4726-9978-546573742e6b,rev?*
G04 #@! TF.SameCoordinates,Original*
G04 #@! TF.FileFunction,Copper,L2,Bot*
G04 #@! TF.FilePolarity,Positive*
%FSLAX46Y46*%
G04 Gerber Fmt 4.6, Leading zero omitted, Abs format (unit mm)*
G04 Created by KiCad (PCBNEW (5.1.12)-1) date 2022-05-24 01:09:00*
%MOMM*%
%LPD*%
G01*
G04 APERTURE LIST*
%ADD10C,0.200000*%
G04 #@! TA.AperFunction,EtchedComponent*
%ADD11C,0.500000*%
G04 #@! TD*
G04 #@! TA.AperFunction,EtchedComponent*
%ADD12C,0.200000*%
G04 #@! TD*
G04 #@! TA.AperFunction,ComponentPad*
%ADD13R,1.700000X1.700000*%
G04 #@! TD*
G04 #@! TA.AperFunction,ComponentPad*
%ADD14O,1.700000X1.700000*%
G04 #@! TD*
G04 #@! TA.AperFunction,ComponentPad*
%ADD15O,2.100000X1.000000*%
G04 #@! TD*
G04 #@! TA.AperFunction,ComponentPad*
%ADD16O,1.600000X1.000000*%
G04 #@! TD*
G04 #@! TA.AperFunction,ViaPad*
%ADD17C,0.700000*%
G04 #@! TD*
G04 #@! TA.AperFunction,Conductor*
%ADD18C,0.500000*%
G04 #@! TD*
G04 #@! TA.AperFunction,Conductor*
%ADD19C,0.250000*%
G04 #@! TD*
G04 #@! TA.AperFunction,Conductor*
%ADD20C,0.200000*%
G04 #@! TD*
G04 #@! TA.AperFunction,Conductor*
%ADD21C,0.160000*%
G04 #@! TD*
G04 #@! TA.AperFunction,Conductor*
%ADD22C,0.100000*%
G04 #@! TD*
G04 APERTURE END LIST*
D10*
X111821428Y-22452380D02*
X111821428Y-21452380D01*
X111516666Y-21452380D01*
X111440476Y-21500000D01*
X111402380Y-21547619D01*
X111364285Y-21642857D01*
X111364285Y-21785714D01*
X111402380Y-21880952D01*
X111440476Y-21928571D01*
X111516666Y-21976190D01*
X111821428Y-21976190D01*
X111021428Y-22452380D02*
X111021428Y-21452380D01*
X111021428Y-21833333D02*
X110945238Y-21785714D01*
X110792857Y-21785714D01*
X110716666Y-21833333D01*
X110678571Y-21880952D01*
X110640476Y-21976190D01*
X110640476Y-22261904D01*
X110678571Y-22357142D01*
X110716666Y-22404761D01*
X110792857Y-22452380D01*
X110945238Y-22452380D01*
X111021428Y-22404761D01*
X109321428Y-22452380D02*
X109321428Y-21452380D01*
X109016666Y-21452380D01*
X108940476Y-21500000D01*
X108902380Y-21547619D01*
X108864285Y-21642857D01*
X108864285Y-21785714D01*
X108902380Y-21880952D01*
X108940476Y-21928571D01*
X109016666Y-21976190D01*
X109321428Y-21976190D01*
X108521428Y-22452380D02*
X108521428Y-21452380D01*
X108521428Y-21833333D02*
X108445238Y-21785714D01*
X108292857Y-21785714D01*
X108216666Y-21833333D01*
X108178571Y-21880952D01*
X108140476Y-21976190D01*
X108140476Y-22261904D01*
X108178571Y-22357142D01*
X108216666Y-22404761D01*
X108292857Y-22452380D01*
X108445238Y-22452380D01*
X108521428Y-22404761D01*
D11*
X112500000Y-25000000D02*
G75*
G03*
X112500000Y-25000000I-250000J0D01*
G01*
X111000000Y-25000000D02*
G75*
G03*
X111000000Y-25000000I-250000J0D01*
G01*
X109500000Y-25000000D02*
G75*
G03*
X109500000Y-25000000I-250000J0D01*
G01*
X108000000Y-25000000D02*
G75*
G03*
X108000000Y-25000000I-250000J0D01*
G01*
D12*
X109200000Y-21550000D02*
X109600000Y-21550000D01*
X107950000Y-22550000D02*
X108200000Y-22550000D01*
X112250000Y-22000000D02*
G75*
G03*
X112250000Y-22000000I-1000000J0D01*
G01*
X109750000Y-22000000D02*
G75*
G03*
X109750000Y-22000000I-1000000J0D01*
G01*
X110600000Y-21300000D02*
X111900000Y-22700000D01*
D13*
X98000000Y-8000000D03*
D14*
X95460000Y-8000000D03*
X92920000Y-8000000D03*
X90380000Y-8000000D03*
D15*
X107895000Y-18320000D03*
X107895000Y-9680000D03*
D16*
X112075000Y-18320000D03*
X112075000Y-9680000D03*
D17*
X87000000Y-36000000D03*
X95000000Y-36000000D03*
X91000000Y-36000000D03*
X99000000Y-34000000D03*
X98000000Y-31000000D03*
X92000000Y-20000000D03*
X93000000Y-20000000D03*
X103000000Y-14000000D03*
X105000000Y-19000000D03*
X87000000Y-32000000D03*
X93000000Y-36000000D03*
X104000000Y-31000000D03*
X105000000Y-25000000D03*
X100000000Y-24000000D03*
X102000000Y-31000000D03*
X105000000Y-17000000D03*
X106000000Y-13000000D03*
X105000000Y-15000000D03*
X92000000Y-44000000D03*
X102000000Y-47000000D03*
X107000000Y-47000000D03*
X112000000Y-47000000D03*
X98000000Y-46000000D03*
X97000000Y-44000000D03*
X102000000Y-44000000D03*
X107000000Y-44000000D03*
X112000000Y-44000000D03*
X93000000Y-43000000D03*
X92000000Y-50000000D03*
X97000000Y-50000000D03*
X102000000Y-50000000D03*
X112000000Y-53000000D03*
X108000000Y-52000000D03*
X92000000Y-53000000D03*
X97000000Y-53000000D03*
X102000000Y-53000000D03*
X107000000Y-53000000D03*
X113000000Y-54000000D03*
X92000000Y-47000000D03*
X97000000Y-47000000D03*
X107000000Y-50000000D03*
X112000000Y-50000000D03*
X103000000Y-49000000D03*
X98000000Y-41000000D03*
X103000000Y-41000000D03*
X108000000Y-41000000D03*
X113000000Y-41000000D03*
X103000000Y-34000000D03*
X93500000Y-30500000D03*
X90500016Y-30500000D03*
X92000000Y-30500000D03*
X89000000Y-30500000D03*
X98000000Y-11500000D03*
X90500000Y-11500000D03*
D18*
X103000000Y-17000000D02*
X103000000Y-14000000D01*
X105000000Y-19000000D02*
X103000000Y-17000000D01*
D19*
X87000000Y-32000000D02*
X89000000Y-34000000D01*
X91000000Y-34000000D02*
X93000000Y-36000000D01*
X89000000Y-34000000D02*
X91000000Y-34000000D01*
D18*
X105000000Y-30000000D02*
X104000000Y-31000000D01*
X105000000Y-25000000D02*
X105000000Y-30000000D01*
X98000000Y-8000000D02*
X100000000Y-10000000D01*
X100000000Y-10000000D02*
X100000000Y-24000000D01*
X102000000Y-31000000D02*
X104000000Y-29000000D01*
X104000000Y-29000000D02*
X104000000Y-22000000D01*
X104000000Y-22000000D02*
X106000000Y-20000000D01*
X106000000Y-20000000D02*
X106000000Y-18000000D01*
X106000000Y-18000000D02*
X105000000Y-17000000D01*
D20*
X106000000Y-14000000D02*
X105000000Y-15000000D01*
X106000000Y-13000000D02*
X106000000Y-14000000D01*
D21*
X92000000Y-44000000D02*
X93000000Y-45000000D01*
X93000000Y-45000000D02*
X97000000Y-45000000D01*
X99000000Y-47000000D02*
X112000000Y-47000000D01*
X97000000Y-45000000D02*
X99000000Y-47000000D01*
X97000000Y-44000000D02*
X112000000Y-44000000D01*
X93000000Y-43000000D02*
X94000000Y-44000000D01*
X94000000Y-44000000D02*
X97000000Y-44000000D01*
X92000000Y-50000000D02*
X102000000Y-50000000D01*
X109000000Y-53000000D02*
X112000000Y-53000000D01*
X107000000Y-51000000D02*
X109000000Y-53000000D01*
X103000000Y-51000000D02*
X107000000Y-51000000D01*
X102000000Y-50000000D02*
X103000000Y-51000000D01*
X92000000Y-53000000D02*
X107000000Y-53000000D01*
X108000000Y-54000000D02*
X107000000Y-53000000D01*
X113000000Y-54000000D02*
X108000000Y-54000000D01*
X92000000Y-47000000D02*
X97000000Y-47000000D01*
X97000000Y-47000000D02*
X98000000Y-48000000D01*
X98000000Y-48000000D02*
X102000000Y-48000000D01*
X104000000Y-50000000D02*
X112000000Y-50000000D01*
X102000000Y-48000000D02*
X104000000Y-50000000D01*
D19*
X111000000Y-41000000D02*
X113000000Y-41000000D01*
X99000000Y-29000000D02*
X99000000Y-30000000D01*
X99000000Y-30000000D02*
X100000000Y-31000000D01*
X99000000Y-29000000D02*
X111000000Y-41000000D01*
X101000000Y-32000000D02*
X103000000Y-34000000D01*
X98000000Y-32000000D02*
X101000000Y-32000000D01*
X95000000Y-32000000D02*
X93500000Y-30500000D01*
X96000000Y-32000000D02*
X95000000Y-32000000D01*
X105000000Y-41000000D02*
X96000000Y-32000000D01*
X108000000Y-41000000D02*
X105000000Y-41000000D01*
X94000016Y-34000000D02*
X90500016Y-30500000D01*
X95500000Y-34000000D02*
X94000016Y-34000000D01*
X98000000Y-36500000D02*
X95500000Y-34000000D01*
X98000000Y-41000000D02*
X98000000Y-36500000D01*
X94500000Y-33000000D02*
X92000000Y-30500000D01*
X96000000Y-33000000D02*
X94500000Y-33000000D01*
X103000000Y-40000000D02*
X96000000Y-33000000D01*
X103000000Y-41000000D02*
X103000000Y-40000000D01*
X93500000Y-35000000D02*
X89000000Y-30500000D01*
X95000000Y-35000000D02*
X93500000Y-35000000D01*
X96000000Y-36000000D02*
X95000000Y-35000000D01*
X96000000Y-40000000D02*
X96000000Y-36000000D01*
X93000000Y-43000000D02*
X96000000Y-40000000D01*
X98000000Y-28000000D02*
X98000000Y-11500000D01*
X99000000Y-29000000D02*
X98000000Y-28000000D01*
X90500000Y-24500000D02*
X90750000Y-24750000D01*
X90500000Y-11500000D02*
X90500000Y-24500000D01*
X90750000Y-24750000D02*
X98000000Y-32000000D01*
D20*
X113314501Y-6411655D02*
X113617022Y-6502991D01*
X113896043Y-6651350D01*
X114140934Y-6851079D01*
X114342363Y-7094564D01*
X114492663Y-7372539D01*
X114586110Y-7674419D01*
X114621001Y-8006377D01*
X114621000Y-52981465D01*
X114588345Y-53314502D01*
X114497009Y-53617022D01*
X114348651Y-53896042D01*
X114148923Y-54140932D01*
X113905436Y-54342363D01*
X113627457Y-54492665D01*
X113445583Y-54548964D01*
X113448774Y-54546832D01*
X113546832Y-54448774D01*
X113623876Y-54333469D01*
X113676945Y-54205349D01*
X113704000Y-54069338D01*
X113704000Y-53930662D01*
X113676945Y-53794651D01*
X113623876Y-53666531D01*
X113546832Y-53551226D01*
X113448774Y-53453168D01*
X113333469Y-53376124D01*
X113205349Y-53323055D01*
X113069338Y-53296000D01*
X112930662Y-53296000D01*
X112794651Y-53323055D01*
X112666531Y-53376124D01*
X112551226Y-53453168D01*
X112453168Y-53551226D01*
X112443296Y-53566000D01*
X112420087Y-53566000D01*
X112448774Y-53546832D01*
X112546832Y-53448774D01*
X112623876Y-53333469D01*
X112676945Y-53205349D01*
X112704000Y-53069338D01*
X112704000Y-52930662D01*
X112693889Y-52879829D01*
X112728729Y-52894261D01*
X112908403Y-52930000D01*
X113091597Y-52930000D01*
X113271271Y-52894261D01*
X113440520Y-52824155D01*
X113592841Y-52722378D01*
X113722378Y-52592841D01*
X113824155Y-52440520D01*
X113894261Y-52271271D01*
X113930000Y-52091597D01*
X113930000Y-51908403D01*
X113894261Y-51728729D01*
X113824155Y-51559480D01*
X113722378Y-51407159D01*
X113592841Y-51277622D01*
X113440520Y-51175845D01*
X113271271Y-51105739D01*
X113091597Y-51070000D01*
X112908403Y-51070000D01*
X112728729Y-51105739D01*
X112559480Y-51175845D01*
X112407159Y-51277622D01*
X112277622Y-51407159D01*
X112175845Y-51559480D01*
X112105739Y-51728729D01*
X112070000Y-51908403D01*
X112070000Y-52091597D01*
X112105739Y-52271271D01*
X112120171Y-52306111D01*
X112069338Y-52296000D01*
X111930662Y-52296000D01*
X111794651Y-52323055D01*
X111666531Y-52376124D01*
X111551226Y-52453168D01*
X111453168Y-52551226D01*
X111443296Y-52566000D01*
X109179768Y-52566000D01*
X108700533Y-52086766D01*
X108704000Y-52069338D01*
X108704000Y-51930662D01*
X108676945Y-51794651D01*
X108623876Y-51666531D01*
X108546832Y-51551226D01*
X108448774Y-51453168D01*
X108333469Y-51376124D01*
X108205349Y-51323055D01*
X108069338Y-51296000D01*
X107930662Y-51296000D01*
X107913234Y-51299467D01*
X107321965Y-50708198D01*
X107308369Y-50691631D01*
X107261921Y-50653512D01*
X107333469Y-50623876D01*
X107448774Y-50546832D01*
X107546832Y-50448774D01*
X107556704Y-50434000D01*
X111443296Y-50434000D01*
X111453168Y-50448774D01*
X111551226Y-50546832D01*
X111666531Y-50623876D01*
X111794651Y-50676945D01*
X111930662Y-50704000D01*
X112069338Y-50704000D01*
X112205349Y-50676945D01*
X112333469Y-50623876D01*
X112448774Y-50546832D01*
X112546832Y-50448774D01*
X112623876Y-50333469D01*
X112676945Y-50205349D01*
X112704000Y-50069338D01*
X112704000Y-49930662D01*
X112676945Y-49794651D01*
X112623876Y-49666531D01*
X112546832Y-49551226D01*
X112448774Y-49453168D01*
X112333469Y-49376124D01*
X112205349Y-49323055D01*
X112069338Y-49296000D01*
X111930662Y-49296000D01*
X111794651Y-49323055D01*
X111666531Y-49376124D01*
X111551226Y-49453168D01*
X111453168Y-49551226D01*
X111443296Y-49566000D01*
X107556704Y-49566000D01*
X107546832Y-49551226D01*
X107448774Y-49453168D01*
X107333469Y-49376124D01*
X107205349Y-49323055D01*
X107069338Y-49296000D01*
X106930662Y-49296000D01*
X106794651Y-49323055D01*
X106666531Y-49376124D01*
X106551226Y-49453168D01*
X106453168Y-49551226D01*
X106443296Y-49566000D01*
X104179768Y-49566000D01*
X103700533Y-49086766D01*
X103704000Y-49069338D01*
X103704000Y-48930662D01*
X103676945Y-48794651D01*
X103623876Y-48666531D01*
X103546832Y-48551226D01*
X103448774Y-48453168D01*
X103333469Y-48376124D01*
X103205349Y-48323055D01*
X103069338Y-48296000D01*
X102930662Y-48296000D01*
X102913234Y-48299467D01*
X102321965Y-47708198D01*
X102308369Y-47691631D01*
X102261921Y-47653512D01*
X102333469Y-47623876D01*
X102448774Y-47546832D01*
X102546832Y-47448774D01*
X102556704Y-47434000D01*
X106443296Y-47434000D01*
X106453168Y-47448774D01*
X106551226Y-47546832D01*
X106666531Y-47623876D01*
X106794651Y-47676945D01*
X106930662Y-47704000D01*
X107069338Y-47704000D01*
X107205349Y-47676945D01*
X107333469Y-47623876D01*
X107448774Y-47546832D01*
X107546832Y-47448774D01*
X107556704Y-47434000D01*
X111443296Y-47434000D01*
X111453168Y-47448774D01*
X111551226Y-47546832D01*
X111666531Y-47623876D01*
X111794651Y-47676945D01*
X111930662Y-47704000D01*
X112069338Y-47704000D01*
X112205349Y-47676945D01*
X112333469Y-47623876D01*
X112448774Y-47546832D01*
X112546832Y-47448774D01*
X112623876Y-47333469D01*
X112676945Y-47205349D01*
X112704000Y-47069338D01*
X112704000Y-46930662D01*
X112676945Y-46794651D01*
X112623876Y-46666531D01*
X112546832Y-46551226D01*
X112448774Y-46453168D01*
X112333469Y-46376124D01*
X112205349Y-46323055D01*
X112069338Y-46296000D01*
X111930662Y-46296000D01*
X111794651Y-46323055D01*
X111666531Y-46376124D01*
X111551226Y-46453168D01*
X111453168Y-46551226D01*
X111443296Y-46566000D01*
X107556704Y-46566000D01*
X107546832Y-46551226D01*
X107448774Y-46453168D01*
X107333469Y-46376124D01*
X107205349Y-46323055D01*
X107069338Y-46296000D01*
X106930662Y-46296000D01*
X106794651Y-46323055D01*
X106666531Y-46376124D01*
X106551226Y-46453168D01*
X106453168Y-46551226D01*
X106443296Y-46566000D01*
X102556704Y-46566000D01*
X102546832Y-46551226D01*
X102448774Y-46453168D01*
X102333469Y-46376124D01*
X102205349Y-46323055D01*
X102069338Y-46296000D01*
X101930662Y-46296000D01*
X101794651Y-46323055D01*
X101666531Y-46376124D01*
X101551226Y-46453168D01*
X101453168Y-46551226D01*
X101443296Y-46566000D01*
X99179768Y-46566000D01*
X98700533Y-46086766D01*
X98704000Y-46069338D01*
X98704000Y-45930662D01*
X98676945Y-45794651D01*
X98623876Y-45666531D01*
X98546832Y-45551226D01*
X98448774Y-45453168D01*
X98333469Y-45376124D01*
X98205349Y-45323055D01*
X98069338Y-45296000D01*
X97930662Y-45296000D01*
X97913234Y-45299467D01*
X97321965Y-44708198D01*
X97308369Y-44691631D01*
X97261921Y-44653512D01*
X97333469Y-44623876D01*
X97448774Y-44546832D01*
X97546832Y-44448774D01*
X97556704Y-44434000D01*
X101443296Y-44434000D01*
X101453168Y-44448774D01*
X101551226Y-44546832D01*
X101666531Y-44623876D01*
X101794651Y-44676945D01*
X101930662Y-44704000D01*
X102069338Y-44704000D01*
X102205349Y-44676945D01*
X102333469Y-44623876D01*
X102448774Y-44546832D01*
X102546832Y-44448774D01*
X102556704Y-44434000D01*
X106443296Y-44434000D01*
X106453168Y-44448774D01*
X106551226Y-44546832D01*
X106666531Y-44623876D01*
X106794651Y-44676945D01*
X106930662Y-44704000D01*
X107069338Y-44704000D01*
X107205349Y-44676945D01*
X107333469Y-44623876D01*
X107448774Y-44546832D01*
X107546832Y-44448774D01*
X107556704Y-44434000D01*
X111443296Y-44434000D01*
X111453168Y-44448774D01*
X111551226Y-44546832D01*
X111666531Y-44623876D01*
X111794651Y-44676945D01*
X111930662Y-44704000D01*
X112069338Y-44704000D01*
X112205349Y-44676945D01*
X112333469Y-44623876D01*
X112448774Y-44546832D01*
X112546832Y-44448774D01*
X112623876Y-44333469D01*
X112676945Y-44205349D01*
X112704000Y-44069338D01*
X112704000Y-43930662D01*
X112676945Y-43794651D01*
X112623876Y-43666531D01*
X112546832Y-43551226D01*
X112448774Y-43453168D01*
X112333469Y-43376124D01*
X112205349Y-43323055D01*
X112069338Y-43296000D01*
X111930662Y-43296000D01*
X111794651Y-43323055D01*
X111666531Y-43376124D01*
X111551226Y-43453168D01*
X111453168Y-43551226D01*
X111443296Y-43566000D01*
X107556704Y-43566000D01*
X107546832Y-43551226D01*
X107448774Y-43453168D01*
X107333469Y-43376124D01*
X107205349Y-43323055D01*
X107069338Y-43296000D01*
X106930662Y-43296000D01*
X106794651Y-43323055D01*
X106666531Y-43376124D01*
X106551226Y-43453168D01*
X106453168Y-43551226D01*
X106443296Y-43566000D01*
X102556704Y-43566000D01*
X102546832Y-43551226D01*
X102448774Y-43453168D01*
X102333469Y-43376124D01*
X102205349Y-43323055D01*
X102069338Y-43296000D01*
X101930662Y-43296000D01*
X101794651Y-43323055D01*
X101666531Y-43376124D01*
X101551226Y-43453168D01*
X101453168Y-43551226D01*
X101443296Y-43566000D01*
X97556704Y-43566000D01*
X97546832Y-43551226D01*
X97448774Y-43453168D01*
X97333469Y-43376124D01*
X97205349Y-43323055D01*
X97069338Y-43296000D01*
X96930662Y-43296000D01*
X96794651Y-43323055D01*
X96666531Y-43376124D01*
X96551226Y-43453168D01*
X96453168Y-43551226D01*
X96443296Y-43566000D01*
X94179769Y-43566000D01*
X93700533Y-43086766D01*
X93704000Y-43069338D01*
X93704000Y-42973407D01*
X96322065Y-40355343D01*
X96340343Y-40340343D01*
X96376733Y-40296000D01*
X96400200Y-40267406D01*
X96444679Y-40184192D01*
X96444679Y-40184191D01*
X96472069Y-40093900D01*
X96479000Y-40023526D01*
X96479000Y-40023523D01*
X96481317Y-40000000D01*
X96479000Y-39976474D01*
X96479000Y-36023523D01*
X96481317Y-36000000D01*
X96479000Y-35976474D01*
X96472069Y-35906100D01*
X96444679Y-35815808D01*
X96433370Y-35794651D01*
X96400200Y-35732594D01*
X96375435Y-35702417D01*
X96340343Y-35659657D01*
X96322065Y-35644657D01*
X95355347Y-34677940D01*
X95340343Y-34659657D01*
X95267405Y-34599800D01*
X95184192Y-34555321D01*
X95093900Y-34527931D01*
X95023526Y-34521000D01*
X95023523Y-34521000D01*
X95000000Y-34518683D01*
X94976477Y-34521000D01*
X93698408Y-34521000D01*
X90369173Y-31191766D01*
X90430678Y-31204000D01*
X90526609Y-31204000D01*
X93644678Y-34322071D01*
X93659673Y-34340343D01*
X93677945Y-34355338D01*
X93677946Y-34355339D01*
X93732609Y-34400200D01*
X93790581Y-34431186D01*
X93815824Y-34444679D01*
X93906116Y-34472069D01*
X93976490Y-34479000D01*
X93976494Y-34479000D01*
X94000015Y-34481317D01*
X94023536Y-34479000D01*
X95301593Y-34479000D01*
X97521001Y-36698409D01*
X97521000Y-40483394D01*
X97453168Y-40551226D01*
X97376124Y-40666531D01*
X97323055Y-40794651D01*
X97296000Y-40930662D01*
X97296000Y-41069338D01*
X97323055Y-41205349D01*
X97376124Y-41333469D01*
X97453168Y-41448774D01*
X97551226Y-41546832D01*
X97666531Y-41623876D01*
X97794651Y-41676945D01*
X97930662Y-41704000D01*
X98069338Y-41704000D01*
X98205349Y-41676945D01*
X98333469Y-41623876D01*
X98448774Y-41546832D01*
X98546832Y-41448774D01*
X98623876Y-41333469D01*
X98676945Y-41205349D01*
X98704000Y-41069338D01*
X98704000Y-40930662D01*
X98676945Y-40794651D01*
X98623876Y-40666531D01*
X98546832Y-40551226D01*
X98479000Y-40483394D01*
X98479000Y-36523523D01*
X98481317Y-36500000D01*
X98478566Y-36472067D01*
X98472069Y-36406100D01*
X98452121Y-36340342D01*
X98444679Y-36315807D01*
X98400200Y-36232594D01*
X98375435Y-36202417D01*
X98340343Y-36159657D01*
X98322065Y-36144657D01*
X95855347Y-33677940D01*
X95840343Y-33659657D01*
X95767405Y-33599800D01*
X95684192Y-33555321D01*
X95593900Y-33527931D01*
X95523526Y-33521000D01*
X95523523Y-33521000D01*
X95500000Y-33518683D01*
X95476477Y-33521000D01*
X94198425Y-33521000D01*
X91869197Y-31191774D01*
X91930662Y-31204000D01*
X92026593Y-31204000D01*
X94144657Y-33322065D01*
X94159657Y-33340343D01*
X94202417Y-33375435D01*
X94232594Y-33400200D01*
X94315807Y-33444679D01*
X94343197Y-33452987D01*
X94406100Y-33472069D01*
X94476474Y-33479000D01*
X94476477Y-33479000D01*
X94500000Y-33481317D01*
X94523523Y-33479000D01*
X95801593Y-33479000D01*
X102521001Y-40198409D01*
X102521001Y-40483393D01*
X102453168Y-40551226D01*
X102376124Y-40666531D01*
X102323055Y-40794651D01*
X102296000Y-40930662D01*
X102296000Y-41069338D01*
X102323055Y-41205349D01*
X102376124Y-41333469D01*
X102453168Y-41448774D01*
X102551226Y-41546832D01*
X102666531Y-41623876D01*
X102794651Y-41676945D01*
X102930662Y-41704000D01*
X103069338Y-41704000D01*
X103205349Y-41676945D01*
X103333469Y-41623876D01*
X103448774Y-41546832D01*
X103546832Y-41448774D01*
X103623876Y-41333469D01*
X103676945Y-41205349D01*
X103704000Y-41069338D01*
X103704000Y-40930662D01*
X103676945Y-40794651D01*
X103623876Y-40666531D01*
X103546832Y-40551226D01*
X103479000Y-40483394D01*
X103479000Y-40156408D01*
X104644657Y-41322065D01*
X104659657Y-41340343D01*
X104702417Y-41375435D01*
X104732594Y-41400200D01*
X104777073Y-41423974D01*
X104815808Y-41444679D01*
X104906100Y-41472069D01*
X104976474Y-41479000D01*
X104976478Y-41479000D01*
X104999999Y-41481317D01*
X105023520Y-41479000D01*
X107483394Y-41479000D01*
X107551226Y-41546832D01*
X107666531Y-41623876D01*
X107794651Y-41676945D01*
X107930662Y-41704000D01*
X108069338Y-41704000D01*
X108205349Y-41676945D01*
X108333469Y-41623876D01*
X108448774Y-41546832D01*
X108546832Y-41448774D01*
X108623876Y-41333469D01*
X108676945Y-41205349D01*
X108704000Y-41069338D01*
X108704000Y-40930662D01*
X108676945Y-40794651D01*
X108623876Y-40666531D01*
X108546832Y-40551226D01*
X108448774Y-40453168D01*
X108333469Y-40376124D01*
X108205349Y-40323055D01*
X108069338Y-40296000D01*
X107930662Y-40296000D01*
X107794651Y-40323055D01*
X107666531Y-40376124D01*
X107551226Y-40453168D01*
X107483394Y-40521000D01*
X105198408Y-40521000D01*
X96355347Y-31677940D01*
X96340343Y-31659657D01*
X96267405Y-31599800D01*
X96184192Y-31555321D01*
X96093900Y-31527931D01*
X96023526Y-31521000D01*
X96023523Y-31521000D01*
X96000000Y-31518683D01*
X95976477Y-31521000D01*
X95198408Y-31521000D01*
X94204000Y-30526593D01*
X94204000Y-30430662D01*
X94176945Y-30294651D01*
X94123876Y-30166531D01*
X94046832Y-30051226D01*
X93948774Y-29953168D01*
X93833469Y-29876124D01*
X93705349Y-29823055D01*
X93569338Y-29796000D01*
X93430662Y-29796000D01*
X93294651Y-29823055D01*
X93166531Y-29876124D01*
X93051226Y-29953168D01*
X92953168Y-30051226D01*
X92876124Y-30166531D01*
X92823055Y-30294651D01*
X92796000Y-30430662D01*
X92796000Y-30569338D01*
X92808231Y-30630823D01*
X92704000Y-30526593D01*
X92704000Y-30430662D01*
X92676945Y-30294651D01*
X92623876Y-30166531D01*
X92546832Y-30051226D01*
X92448774Y-29953168D01*
X92333469Y-29876124D01*
X92205349Y-29823055D01*
X92069338Y-29796000D01*
X91930662Y-29796000D01*
X91794651Y-29823055D01*
X91666531Y-29876124D01*
X91551226Y-29953168D01*
X91453168Y-30051226D01*
X91376124Y-30166531D01*
X91323055Y-30294651D01*
X91296000Y-30430662D01*
X91296000Y-30569338D01*
X91308227Y-30630803D01*
X91204016Y-30526593D01*
X91204016Y-30430662D01*
X91176961Y-30294651D01*
X91123892Y-30166531D01*
X91046848Y-30051226D01*
X90948790Y-29953168D01*
X90833485Y-29876124D01*
X90705365Y-29823055D01*
X90569354Y-29796000D01*
X90430678Y-29796000D01*
X90294667Y-29823055D01*
X90166547Y-29876124D01*
X90051242Y-29953168D01*
X89953184Y-30051226D01*
X89876140Y-30166531D01*
X89823071Y-30294651D01*
X89796016Y-30430662D01*
X89796016Y-30569338D01*
X89808251Y-30630843D01*
X89704000Y-30526593D01*
X89704000Y-30430662D01*
X89676945Y-30294651D01*
X89623876Y-30166531D01*
X89546832Y-30051226D01*
X89448774Y-29953168D01*
X89333469Y-29876124D01*
X89205349Y-29823055D01*
X89069338Y-29796000D01*
X88930662Y-29796000D01*
X88794651Y-29823055D01*
X88666531Y-29876124D01*
X88551226Y-29953168D01*
X88453168Y-30051226D01*
X88376124Y-30166531D01*
X88323055Y-30294651D01*
X88296000Y-30430662D01*
X88296000Y-30569338D01*
X88323055Y-30705349D01*
X88376124Y-30833469D01*
X88453168Y-30948774D01*
X88551226Y-31046832D01*
X88666531Y-31123876D01*
X88794651Y-31176945D01*
X88930662Y-31204000D01*
X89026593Y-31204000D01*
X93130822Y-35308230D01*
X93069338Y-35296000D01*
X92973408Y-35296000D01*
X91355347Y-33677940D01*
X91340343Y-33659657D01*
X91267405Y-33599800D01*
X91184192Y-33555321D01*
X91093900Y-33527931D01*
X91023526Y-33521000D01*
X91023523Y-33521000D01*
X91000000Y-33518683D01*
X90976477Y-33521000D01*
X89198408Y-33521000D01*
X87704000Y-32026593D01*
X87704000Y-31930662D01*
X87676945Y-31794651D01*
X87623876Y-31666531D01*
X87546832Y-31551226D01*
X87448774Y-31453168D01*
X87333469Y-31376124D01*
X87205349Y-31323055D01*
X87069338Y-31296000D01*
X86930662Y-31296000D01*
X86794651Y-31323055D01*
X86666531Y-31376124D01*
X86551226Y-31453168D01*
X86453168Y-31551226D01*
X86376124Y-31666531D01*
X86323055Y-31794651D01*
X86296000Y-31930662D01*
X86296000Y-32069338D01*
X86323055Y-32205349D01*
X86376124Y-32333469D01*
X86453168Y-32448774D01*
X86551226Y-32546832D01*
X86666531Y-32623876D01*
X86794651Y-32676945D01*
X86930662Y-32704000D01*
X87026593Y-32704000D01*
X88644657Y-34322065D01*
X88659657Y-34340343D01*
X88702417Y-34375435D01*
X88732594Y-34400200D01*
X88777073Y-34423974D01*
X88815808Y-34444679D01*
X88906100Y-34472069D01*
X88976474Y-34479000D01*
X88976478Y-34479000D01*
X88999999Y-34481317D01*
X89023520Y-34479000D01*
X90801593Y-34479000D01*
X92296000Y-35973408D01*
X92296000Y-36069338D01*
X92323055Y-36205349D01*
X92376124Y-36333469D01*
X92453168Y-36448774D01*
X92551226Y-36546832D01*
X92666531Y-36623876D01*
X92794651Y-36676945D01*
X92930662Y-36704000D01*
X93069338Y-36704000D01*
X93205349Y-36676945D01*
X93333469Y-36623876D01*
X93448774Y-36546832D01*
X93546832Y-36448774D01*
X93623876Y-36333469D01*
X93676945Y-36205349D01*
X93704000Y-36069338D01*
X93704000Y-35930662D01*
X93676945Y-35794651D01*
X93623876Y-35666531D01*
X93546832Y-35551226D01*
X93474402Y-35478796D01*
X93476474Y-35479000D01*
X93476476Y-35479000D01*
X93499999Y-35481317D01*
X93523522Y-35479000D01*
X94801593Y-35479000D01*
X95521001Y-36198409D01*
X95521000Y-39801592D01*
X93026593Y-42296000D01*
X92930662Y-42296000D01*
X92794651Y-42323055D01*
X92666531Y-42376124D01*
X92551226Y-42453168D01*
X92453168Y-42551226D01*
X92376124Y-42666531D01*
X92323055Y-42794651D01*
X92296000Y-42930662D01*
X92296000Y-43069338D01*
X92323055Y-43205349D01*
X92376124Y-43333469D01*
X92453168Y-43448774D01*
X92551226Y-43546832D01*
X92666531Y-43623876D01*
X92794651Y-43676945D01*
X92930662Y-43704000D01*
X93069338Y-43704000D01*
X93086766Y-43700533D01*
X93678044Y-44291813D01*
X93691631Y-44308369D01*
X93757716Y-44362603D01*
X93833112Y-44402903D01*
X93914921Y-44427720D01*
X94000000Y-44436099D01*
X94021313Y-44434000D01*
X96443296Y-44434000D01*
X96453168Y-44448774D01*
X96551226Y-44546832D01*
X96579913Y-44566000D01*
X93179769Y-44566000D01*
X92700533Y-44086766D01*
X92704000Y-44069338D01*
X92704000Y-43930662D01*
X92676945Y-43794651D01*
X92623876Y-43666531D01*
X92546832Y-43551226D01*
X92448774Y-43453168D01*
X92333469Y-43376124D01*
X92205349Y-43323055D01*
X92069338Y-43296000D01*
X91930662Y-43296000D01*
X91794651Y-43323055D01*
X91666531Y-43376124D01*
X91551226Y-43453168D01*
X91453168Y-43551226D01*
X91376124Y-43666531D01*
X91323055Y-43794651D01*
X91296000Y-43930662D01*
X91296000Y-44069338D01*
X91323055Y-44205349D01*
X91376124Y-44333469D01*
X91453168Y-44448774D01*
X91551226Y-44546832D01*
X91666531Y-44623876D01*
X91794651Y-44676945D01*
X91930662Y-44704000D01*
X92069338Y-44704000D01*
X92086766Y-44700533D01*
X92678044Y-45291813D01*
X92691631Y-45308369D01*
X92757716Y-45362603D01*
X92833112Y-45402903D01*
X92914921Y-45427720D01*
X93000000Y-45436099D01*
X93021313Y-45434000D01*
X96820233Y-45434000D01*
X97299467Y-45913234D01*
X97296000Y-45930662D01*
X97296000Y-46069338D01*
X97323055Y-46205349D01*
X97376124Y-46333469D01*
X97453168Y-46448774D01*
X97551226Y-46546832D01*
X97666531Y-46623876D01*
X97794651Y-46676945D01*
X97930662Y-46704000D01*
X98069338Y-46704000D01*
X98086766Y-46700533D01*
X98678039Y-47291807D01*
X98691631Y-47308369D01*
X98757716Y-47362603D01*
X98833112Y-47402903D01*
X98914921Y-47427719D01*
X98999999Y-47436099D01*
X99021309Y-47434000D01*
X101443296Y-47434000D01*
X101453168Y-47448774D01*
X101551226Y-47546832D01*
X101579913Y-47566000D01*
X98179769Y-47566000D01*
X97700533Y-47086766D01*
X97704000Y-47069338D01*
X97704000Y-46930662D01*
X97676945Y-46794651D01*
X97623876Y-46666531D01*
X97546832Y-46551226D01*
X97448774Y-46453168D01*
X97333469Y-46376124D01*
X97205349Y-46323055D01*
X97069338Y-46296000D01*
X96930662Y-46296000D01*
X96794651Y-46323055D01*
X96666531Y-46376124D01*
X96551226Y-46453168D01*
X96453168Y-46551226D01*
X96443296Y-46566000D01*
X92556704Y-46566000D01*
X92546832Y-46551226D01*
X92448774Y-46453168D01*
X92333469Y-46376124D01*
X92205349Y-46323055D01*
X92069338Y-46296000D01*
X91930662Y-46296000D01*
X91794651Y-46323055D01*
X91666531Y-46376124D01*
X91551226Y-46453168D01*
X91453168Y-46551226D01*
X91376124Y-46666531D01*
X91323055Y-46794651D01*
X91296000Y-46930662D01*
X91296000Y-47069338D01*
X91323055Y-47205349D01*
X91376124Y-47333469D01*
X91453168Y-47448774D01*
X91551226Y-47546832D01*
X91666531Y-47623876D01*
X91794651Y-47676945D01*
X91930662Y-47704000D01*
X92069338Y-47704000D01*
X92205349Y-47676945D01*
X92333469Y-47623876D01*
X92448774Y-47546832D01*
X92546832Y-47448774D01*
X92556704Y-47434000D01*
X96443296Y-47434000D01*
X96453168Y-47448774D01*
X96551226Y-47546832D01*
X96666531Y-47623876D01*
X96794651Y-47676945D01*
X96930662Y-47704000D01*
X97069338Y-47704000D01*
X97086766Y-47700533D01*
X97678044Y-48291813D01*
X97691631Y-48308369D01*
X97757716Y-48362603D01*
X97833112Y-48402903D01*
X97914921Y-48427720D01*
X98000000Y-48436099D01*
X98021313Y-48434000D01*
X101820233Y-48434000D01*
X102299467Y-48913234D01*
X102296000Y-48930662D01*
X102296000Y-49069338D01*
X102323055Y-49205349D01*
X102376124Y-49333469D01*
X102453168Y-49448774D01*
X102551226Y-49546832D01*
X102666531Y-49623876D01*
X102794651Y-49676945D01*
X102930662Y-49704000D01*
X103069338Y-49704000D01*
X103086766Y-49700533D01*
X103678039Y-50291807D01*
X103691631Y-50308369D01*
X103757716Y-50362603D01*
X103833112Y-50402903D01*
X103914921Y-50427719D01*
X103999999Y-50436099D01*
X104021309Y-50434000D01*
X106443296Y-50434000D01*
X106453168Y-50448774D01*
X106551226Y-50546832D01*
X106579913Y-50566000D01*
X103179769Y-50566000D01*
X102700533Y-50086766D01*
X102704000Y-50069338D01*
X102704000Y-49930662D01*
X102676945Y-49794651D01*
X102623876Y-49666531D01*
X102546832Y-49551226D01*
X102448774Y-49453168D01*
X102333469Y-49376124D01*
X102205349Y-49323055D01*
X102069338Y-49296000D01*
X101930662Y-49296000D01*
X101794651Y-49323055D01*
X101666531Y-49376124D01*
X101551226Y-49453168D01*
X101453168Y-49551226D01*
X101443296Y-49566000D01*
X97556704Y-49566000D01*
X97546832Y-49551226D01*
X97448774Y-49453168D01*
X97333469Y-49376124D01*
X97205349Y-49323055D01*
X97069338Y-49296000D01*
X96930662Y-49296000D01*
X96794651Y-49323055D01*
X96666531Y-49376124D01*
X96551226Y-49453168D01*
X96453168Y-49551226D01*
X96443296Y-49566000D01*
X92556704Y-49566000D01*
X92546832Y-49551226D01*
X92448774Y-49453168D01*
X92333469Y-49376124D01*
X92205349Y-49323055D01*
X92069338Y-49296000D01*
X91930662Y-49296000D01*
X91794651Y-49323055D01*
X91666531Y-49376124D01*
X91551226Y-49453168D01*
X91453168Y-49551226D01*
X91376124Y-49666531D01*
X91323055Y-49794651D01*
X91296000Y-49930662D01*
X91296000Y-50069338D01*
X91323055Y-50205349D01*
X91376124Y-50333469D01*
X91453168Y-50448774D01*
X91551226Y-50546832D01*
X91666531Y-50623876D01*
X91794651Y-50676945D01*
X91930662Y-50704000D01*
X92069338Y-50704000D01*
X92205349Y-50676945D01*
X92333469Y-50623876D01*
X92448774Y-50546832D01*
X92546832Y-50448774D01*
X92556704Y-50434000D01*
X96443296Y-50434000D01*
X96453168Y-50448774D01*
X96551226Y-50546832D01*
X96666531Y-50623876D01*
X96794651Y-50676945D01*
X96930662Y-50704000D01*
X97069338Y-50704000D01*
X97205349Y-50676945D01*
X97333469Y-50623876D01*
X97448774Y-50546832D01*
X97546832Y-50448774D01*
X97556704Y-50434000D01*
X101443296Y-50434000D01*
X101453168Y-50448774D01*
X101551226Y-50546832D01*
X101666531Y-50623876D01*
X101794651Y-50676945D01*
X101930662Y-50704000D01*
X102069338Y-50704000D01*
X102086766Y-50700533D01*
X102678044Y-51291813D01*
X102691631Y-51308369D01*
X102757716Y-51362603D01*
X102833112Y-51402903D01*
X102914921Y-51427720D01*
X103000000Y-51436099D01*
X103021313Y-51434000D01*
X106820233Y-51434000D01*
X107299467Y-51913234D01*
X107296000Y-51930662D01*
X107296000Y-52069338D01*
X107323055Y-52205349D01*
X107376124Y-52333469D01*
X107453168Y-52448774D01*
X107551226Y-52546832D01*
X107666531Y-52623876D01*
X107794651Y-52676945D01*
X107930662Y-52704000D01*
X108069338Y-52704000D01*
X108086766Y-52700533D01*
X108678039Y-53291807D01*
X108691631Y-53308369D01*
X108757716Y-53362603D01*
X108833112Y-53402903D01*
X108907451Y-53425453D01*
X108914921Y-53427719D01*
X108999999Y-53436099D01*
X109021309Y-53434000D01*
X111443296Y-53434000D01*
X111453168Y-53448774D01*
X111551226Y-53546832D01*
X111579913Y-53566000D01*
X108179769Y-53566000D01*
X107700533Y-53086766D01*
X107704000Y-53069338D01*
X107704000Y-52930662D01*
X107676945Y-52794651D01*
X107623876Y-52666531D01*
X107546832Y-52551226D01*
X107448774Y-52453168D01*
X107333469Y-52376124D01*
X107205349Y-52323055D01*
X107069338Y-52296000D01*
X106930662Y-52296000D01*
X106794651Y-52323055D01*
X106666531Y-52376124D01*
X106551226Y-52453168D01*
X106453168Y-52551226D01*
X106443296Y-52566000D01*
X102556704Y-52566000D01*
X102546832Y-52551226D01*
X102448774Y-52453168D01*
X102333469Y-52376124D01*
X102205349Y-52323055D01*
X102069338Y-52296000D01*
X101930662Y-52296000D01*
X101794651Y-52323055D01*
X101666531Y-52376124D01*
X101551226Y-52453168D01*
X101453168Y-52551226D01*
X101443296Y-52566000D01*
X97556704Y-52566000D01*
X97546832Y-52551226D01*
X97448774Y-52453168D01*
X97333469Y-52376124D01*
X97205349Y-52323055D01*
X97069338Y-52296000D01*
X96930662Y-52296000D01*
X96794651Y-52323055D01*
X96666531Y-52376124D01*
X96551226Y-52453168D01*
X96453168Y-52551226D01*
X96443296Y-52566000D01*
X92556704Y-52566000D01*
X92546832Y-52551226D01*
X92448774Y-52453168D01*
X92333469Y-52376124D01*
X92205349Y-52323055D01*
X92069338Y-52296000D01*
X91930662Y-52296000D01*
X91794651Y-52323055D01*
X91666531Y-52376124D01*
X91551226Y-52453168D01*
X91453168Y-52551226D01*
X91376124Y-52666531D01*
X91323055Y-52794651D01*
X91296000Y-52930662D01*
X91296000Y-53069338D01*
X91323055Y-53205349D01*
X91376124Y-53333469D01*
X91453168Y-53448774D01*
X91551226Y-53546832D01*
X91666531Y-53623876D01*
X91794651Y-53676945D01*
X91930662Y-53704000D01*
X92069338Y-53704000D01*
X92205349Y-53676945D01*
X92333469Y-53623876D01*
X92448774Y-53546832D01*
X92546832Y-53448774D01*
X92556704Y-53434000D01*
X96443296Y-53434000D01*
X96453168Y-53448774D01*
X96551226Y-53546832D01*
X96666531Y-53623876D01*
X96794651Y-53676945D01*
X96930662Y-53704000D01*
X97069338Y-53704000D01*
X97205349Y-53676945D01*
X97333469Y-53623876D01*
X97448774Y-53546832D01*
X97546832Y-53448774D01*
X97556704Y-53434000D01*
X101443296Y-53434000D01*
X101453168Y-53448774D01*
X101551226Y-53546832D01*
X101666531Y-53623876D01*
X101794651Y-53676945D01*
X101930662Y-53704000D01*
X102069338Y-53704000D01*
X102205349Y-53676945D01*
X102333469Y-53623876D01*
X102448774Y-53546832D01*
X102546832Y-53448774D01*
X102556704Y-53434000D01*
X106443296Y-53434000D01*
X106453168Y-53448774D01*
X106551226Y-53546832D01*
X106666531Y-53623876D01*
X106794651Y-53676945D01*
X106930662Y-53704000D01*
X107069338Y-53704000D01*
X107086766Y-53700533D01*
X107678044Y-54291813D01*
X107691631Y-54308369D01*
X107757716Y-54362603D01*
X107799225Y-54384790D01*
X107833112Y-54402903D01*
X107914921Y-54427720D01*
X108000000Y-54436099D01*
X108021313Y-54434000D01*
X112443296Y-54434000D01*
X112453168Y-54448774D01*
X112551226Y-54546832D01*
X112662227Y-54621000D01*
X87018535Y-54621000D01*
X86685498Y-54588345D01*
X86382978Y-54497009D01*
X86103958Y-54348651D01*
X85859068Y-54148923D01*
X85657637Y-53905436D01*
X85507335Y-53627457D01*
X85413890Y-53325582D01*
X85379000Y-52993631D01*
X85379000Y-51908403D01*
X86070000Y-51908403D01*
X86070000Y-52091597D01*
X86105739Y-52271271D01*
X86175845Y-52440520D01*
X86277622Y-52592841D01*
X86407159Y-52722378D01*
X86559480Y-52824155D01*
X86728729Y-52894261D01*
X86908403Y-52930000D01*
X87091597Y-52930000D01*
X87271271Y-52894261D01*
X87440520Y-52824155D01*
X87592841Y-52722378D01*
X87722378Y-52592841D01*
X87824155Y-52440520D01*
X87894261Y-52271271D01*
X87930000Y-52091597D01*
X87930000Y-51908403D01*
X87894261Y-51728729D01*
X87824155Y-51559480D01*
X87722378Y-51407159D01*
X87592841Y-51277622D01*
X87440520Y-51175845D01*
X87271271Y-51105739D01*
X87091597Y-51070000D01*
X86908403Y-51070000D01*
X86728729Y-51105739D01*
X86559480Y-51175845D01*
X86407159Y-51277622D01*
X86277622Y-51407159D01*
X86175845Y-51559480D01*
X86105739Y-51728729D01*
X86070000Y-51908403D01*
X85379000Y-51908403D01*
X85379000Y-11430662D01*
X89796000Y-11430662D01*
X89796000Y-11569338D01*
X89823055Y-11705349D01*
X89876124Y-11833469D01*
X89953168Y-11948774D01*
X90021000Y-12016606D01*
X90021001Y-24476467D01*
X90018683Y-24500000D01*
X90027932Y-24593900D01*
X90055322Y-24684192D01*
X90099800Y-24767405D01*
X90129978Y-24804176D01*
X90159658Y-24840343D01*
X90177935Y-24855342D01*
X90427931Y-25105339D01*
X90427937Y-25105344D01*
X97644657Y-32322065D01*
X97659657Y-32340343D01*
X97693708Y-32368287D01*
X97732593Y-32400200D01*
X97790565Y-32431186D01*
X97815808Y-32444679D01*
X97906100Y-32472069D01*
X97976474Y-32479000D01*
X97976478Y-32479000D01*
X97999999Y-32481317D01*
X98023520Y-32479000D01*
X100801593Y-32479000D01*
X102296000Y-33973408D01*
X102296000Y-34069338D01*
X102323055Y-34205349D01*
X102376124Y-34333469D01*
X102453168Y-34448774D01*
X102551226Y-34546832D01*
X102666531Y-34623876D01*
X102794651Y-34676945D01*
X102930662Y-34704000D01*
X103069338Y-34704000D01*
X103205349Y-34676945D01*
X103333469Y-34623876D01*
X103448774Y-34546832D01*
X103546832Y-34448774D01*
X103623876Y-34333469D01*
X103633303Y-34310710D01*
X110644657Y-41322065D01*
X110659657Y-41340343D01*
X110702417Y-41375435D01*
X110732594Y-41400200D01*
X110815806Y-41444678D01*
X110815808Y-41444679D01*
X110906100Y-41472069D01*
X110976474Y-41479000D01*
X110976477Y-41479000D01*
X111000000Y-41481317D01*
X111023523Y-41479000D01*
X112483394Y-41479000D01*
X112551226Y-41546832D01*
X112666531Y-41623876D01*
X112794651Y-41676945D01*
X112930662Y-41704000D01*
X113069338Y-41704000D01*
X113205349Y-41676945D01*
X113333469Y-41623876D01*
X113448774Y-41546832D01*
X113546832Y-41448774D01*
X113623876Y-41333469D01*
X113676945Y-41205349D01*
X113704000Y-41069338D01*
X113704000Y-40930662D01*
X113676945Y-40794651D01*
X113623876Y-40666531D01*
X113546832Y-40551226D01*
X113448774Y-40453168D01*
X113333469Y-40376124D01*
X113205349Y-40323055D01*
X113069338Y-40296000D01*
X112930662Y-40296000D01*
X112794651Y-40323055D01*
X112666531Y-40376124D01*
X112551226Y-40453168D01*
X112483394Y-40521000D01*
X111198408Y-40521000D01*
X102310710Y-31633303D01*
X102333469Y-31623876D01*
X102448774Y-31546832D01*
X102546832Y-31448774D01*
X102623876Y-31333469D01*
X102676945Y-31205349D01*
X102683925Y-31170259D01*
X104396001Y-29458184D01*
X104396001Y-29749814D01*
X103829741Y-30316075D01*
X103794651Y-30323055D01*
X103666531Y-30376124D01*
X103551226Y-30453168D01*
X103453168Y-30551226D01*
X103376124Y-30666531D01*
X103323055Y-30794651D01*
X103296000Y-30930662D01*
X103296000Y-31069338D01*
X103323055Y-31205349D01*
X103376124Y-31333469D01*
X103453168Y-31448774D01*
X103551226Y-31546832D01*
X103666531Y-31623876D01*
X103794651Y-31676945D01*
X103930662Y-31704000D01*
X104069338Y-31704000D01*
X104205349Y-31676945D01*
X104333469Y-31623876D01*
X104448774Y-31546832D01*
X104546832Y-31448774D01*
X104623876Y-31333469D01*
X104676945Y-31205349D01*
X104683925Y-31170259D01*
X105406112Y-30448073D01*
X105429159Y-30429159D01*
X105504637Y-30337188D01*
X105560723Y-30232259D01*
X105595260Y-30118405D01*
X105604000Y-30029667D01*
X105606922Y-30000000D01*
X105604000Y-29970333D01*
X105604000Y-25363216D01*
X105623876Y-25333469D01*
X105676945Y-25205349D01*
X105704000Y-25069338D01*
X105704000Y-24930662D01*
X105700752Y-24914333D01*
X106880209Y-24914333D01*
X106880209Y-25085667D01*
X106913634Y-25253709D01*
X106979201Y-25412001D01*
X107074389Y-25554460D01*
X107195540Y-25675611D01*
X107337999Y-25770799D01*
X107496291Y-25836366D01*
X107664333Y-25869791D01*
X107835667Y-25869791D01*
X108003709Y-25836366D01*
X108162001Y-25770799D01*
X108304460Y-25675611D01*
X108425611Y-25554460D01*
X108500000Y-25443129D01*
X108574389Y-25554460D01*
X108695540Y-25675611D01*
X108837999Y-25770799D01*
X108996291Y-25836366D01*
X109164333Y-25869791D01*
X109335667Y-25869791D01*
X109503709Y-25836366D01*
X109662001Y-25770799D01*
X109804460Y-25675611D01*
X109925611Y-25554460D01*
X110000000Y-25443129D01*
X110074389Y-25554460D01*
X110195540Y-25675611D01*
X110337999Y-25770799D01*
X110496291Y-25836366D01*
X110664333Y-25869791D01*
X110835667Y-25869791D01*
X111003709Y-25836366D01*
X111162001Y-25770799D01*
X111304460Y-25675611D01*
X111425611Y-25554460D01*
X111500000Y-25443129D01*
X111574389Y-25554460D01*
X111695540Y-25675611D01*
X111837999Y-25770799D01*
X111996291Y-25836366D01*
X112164333Y-25869791D01*
X112335667Y-25869791D01*
X112503709Y-25836366D01*
X112662001Y-25770799D01*
X112804460Y-25675611D01*
X112925611Y-25554460D01*
X113020799Y-25412001D01*
X113086366Y-25253709D01*
X113119791Y-25085667D01*
X113119791Y-24914333D01*
X113086366Y-24746291D01*
X113020799Y-24587999D01*
X112925611Y-24445540D01*
X112804460Y-24324389D01*
X112662001Y-24229201D01*
X112503709Y-24163634D01*
X112335667Y-24130209D01*
X112164333Y-24130209D01*
X111996291Y-24163634D01*
X111837999Y-24229201D01*
X111695540Y-24324389D01*
X111574389Y-24445540D01*
X111500000Y-24556871D01*
X111425611Y-24445540D01*
X111304460Y-24324389D01*
X111162001Y-24229201D01*
X111003709Y-24163634D01*
X110835667Y-24130209D01*
X110664333Y-24130209D01*
X110496291Y-24163634D01*
X110337999Y-24229201D01*
X110195540Y-24324389D01*
X110074389Y-24445540D01*
X110000000Y-24556871D01*
X109925611Y-24445540D01*
X109804460Y-24324389D01*
X109662001Y-24229201D01*
X109503709Y-24163634D01*
X109335667Y-24130209D01*
X109164333Y-24130209D01*
X108996291Y-24163634D01*
X108837999Y-24229201D01*
X108695540Y-24324389D01*
X108574389Y-24445540D01*
X108500000Y-24556871D01*
X108425611Y-24445540D01*
X108304460Y-24324389D01*
X108162001Y-24229201D01*
X108003709Y-24163634D01*
X107835667Y-24130209D01*
X107664333Y-24130209D01*
X107496291Y-24163634D01*
X107337999Y-24229201D01*
X107195540Y-24324389D01*
X107074389Y-24445540D01*
X106979201Y-24587999D01*
X106913634Y-24746291D01*
X106880209Y-24914333D01*
X105700752Y-24914333D01*
X105676945Y-24794651D01*
X105623876Y-24666531D01*
X105546832Y-24551226D01*
X105448774Y-24453168D01*
X105333469Y-24376124D01*
X105205349Y-24323055D01*
X105069338Y-24296000D01*
X104930662Y-24296000D01*
X104794651Y-24323055D01*
X104666531Y-24376124D01*
X104604000Y-24417906D01*
X104604000Y-22250184D01*
X104998661Y-21855523D01*
X107283098Y-21855523D01*
X107283098Y-22144477D01*
X107339470Y-22427880D01*
X107450048Y-22694839D01*
X107534095Y-22820624D01*
X107534095Y-23284000D01*
X108031287Y-23284000D01*
X108055161Y-23299952D01*
X108322120Y-23410530D01*
X108605523Y-23466902D01*
X108894477Y-23466902D01*
X109177880Y-23410530D01*
X109444839Y-23299952D01*
X109468713Y-23284000D01*
X109965905Y-23284000D01*
X109965905Y-22820624D01*
X110000000Y-22769597D01*
X110034095Y-22820624D01*
X110034095Y-23284000D01*
X110531287Y-23284000D01*
X110555161Y-23299952D01*
X110822120Y-23410530D01*
X111105523Y-23466902D01*
X111394477Y-23466902D01*
X111677880Y-23410530D01*
X111944839Y-23299952D01*
X111968713Y-23284000D01*
X112465905Y-23284000D01*
X112465905Y-22820624D01*
X112549952Y-22694839D01*
X112660530Y-22427880D01*
X112716902Y-22144477D01*
X112716902Y-21855523D01*
X112660530Y-21572120D01*
X112549952Y-21305161D01*
X112465905Y-21179376D01*
X112465905Y-20876000D01*
X112200513Y-20876000D01*
X112185096Y-20860583D01*
X111944839Y-20700048D01*
X111677880Y-20589470D01*
X111394477Y-20533098D01*
X111105523Y-20533098D01*
X110822120Y-20589470D01*
X110555161Y-20700048D01*
X110314904Y-20860583D01*
X110299487Y-20876000D01*
X110034095Y-20876000D01*
X110034095Y-21179376D01*
X110000000Y-21230403D01*
X109965905Y-21179376D01*
X109965905Y-20876000D01*
X109700513Y-20876000D01*
X109685096Y-20860583D01*
X109444839Y-20700048D01*
X109177880Y-20589470D01*
X108894477Y-20533098D01*
X108605523Y-20533098D01*
X108322120Y-20589470D01*
X108055161Y-20700048D01*
X107814904Y-20860583D01*
X107799487Y-20876000D01*
X107534095Y-20876000D01*
X107534095Y-21179376D01*
X107450048Y-21305161D01*
X107339470Y-21572120D01*
X107283098Y-21855523D01*
X104998661Y-21855523D01*
X106406113Y-20448072D01*
X106429159Y-20429159D01*
X106504637Y-20337188D01*
X106560723Y-20232259D01*
X106595260Y-20118405D01*
X106604000Y-20029667D01*
X106604000Y-20029666D01*
X106606922Y-20000001D01*
X106604000Y-19970334D01*
X106604000Y-18745325D01*
X106631489Y-18796753D01*
X106738209Y-18926791D01*
X106868247Y-19033511D01*
X107016607Y-19112811D01*
X107177587Y-19161643D01*
X107303048Y-19174000D01*
X108486952Y-19174000D01*
X108612413Y-19161643D01*
X108773393Y-19112811D01*
X108921753Y-19033511D01*
X109051791Y-18926791D01*
X109158511Y-18796753D01*
X109237811Y-18648393D01*
X109286643Y-18487413D01*
X109303132Y-18320000D01*
X110916868Y-18320000D01*
X110933357Y-18487413D01*
X110982189Y-18648393D01*
X111061489Y-18796753D01*
X111168209Y-18926791D01*
X111298247Y-19033511D01*
X111446607Y-19112811D01*
X111607587Y-19161643D01*
X111733048Y-19174000D01*
X112416952Y-19174000D01*
X112542413Y-19161643D01*
X112703393Y-19112811D01*
X112851753Y-19033511D01*
X112981791Y-18926791D01*
X113088511Y-18796753D01*
X113167811Y-18648393D01*
X113216643Y-18487413D01*
X113233132Y-18320000D01*
X113216643Y-18152587D01*
X113167811Y-17991607D01*
X113088511Y-17843247D01*
X112981791Y-17713209D01*
X112851753Y-17606489D01*
X112703393Y-17527189D01*
X112542413Y-17478357D01*
X112416952Y-17466000D01*
X111733048Y-17466000D01*
X111607587Y-17478357D01*
X111446607Y-17527189D01*
X111298247Y-17606489D01*
X111168209Y-17713209D01*
X111061489Y-17843247D01*
X110982189Y-17991607D01*
X110933357Y-18152587D01*
X110916868Y-18320000D01*
X109303132Y-18320000D01*
X109286643Y-18152587D01*
X109237811Y-17991607D01*
X109158511Y-17843247D01*
X109051791Y-17713209D01*
X108921753Y-17606489D01*
X108773393Y-17527189D01*
X108691197Y-17502255D01*
X108716627Y-17491722D01*
X108827837Y-17417413D01*
X108922413Y-17322837D01*
X108996722Y-17211627D01*
X109047906Y-17088057D01*
X109074000Y-16956876D01*
X109074000Y-16823124D01*
X109047906Y-16691943D01*
X108996722Y-16568373D01*
X108922413Y-16457163D01*
X108827837Y-16362587D01*
X108716627Y-16288278D01*
X108593057Y-16237094D01*
X108461876Y-16211000D01*
X108328124Y-16211000D01*
X108196943Y-16237094D01*
X108073373Y-16288278D01*
X107962163Y-16362587D01*
X107867587Y-16457163D01*
X107793278Y-16568373D01*
X107742094Y-16691943D01*
X107716000Y-16823124D01*
X107716000Y-16956876D01*
X107742094Y-17088057D01*
X107793278Y-17211627D01*
X107867587Y-17322837D01*
X107962163Y-17417413D01*
X108034878Y-17466000D01*
X107303048Y-17466000D01*
X107177587Y-17478357D01*
X107016607Y-17527189D01*
X106868247Y-17606489D01*
X106738209Y-17713209D01*
X106631489Y-17843247D01*
X106597708Y-17906447D01*
X106595260Y-17881595D01*
X106560723Y-17767741D01*
X106504637Y-17662812D01*
X106458414Y-17606489D01*
X106429159Y-17570841D01*
X106406112Y-17551927D01*
X105683925Y-16829741D01*
X105676945Y-16794651D01*
X105623876Y-16666531D01*
X105546832Y-16551226D01*
X105448774Y-16453168D01*
X105333469Y-16376124D01*
X105205349Y-16323055D01*
X105069338Y-16296000D01*
X104930662Y-16296000D01*
X104794651Y-16323055D01*
X104666531Y-16376124D01*
X104551226Y-16453168D01*
X104453168Y-16551226D01*
X104376124Y-16666531D01*
X104323055Y-16794651D01*
X104296000Y-16930662D01*
X104296000Y-17069338D01*
X104323055Y-17205349D01*
X104376124Y-17333469D01*
X104453168Y-17448774D01*
X104551226Y-17546832D01*
X104666531Y-17623876D01*
X104794651Y-17676945D01*
X104829741Y-17683925D01*
X105396001Y-18250186D01*
X105396000Y-19749815D01*
X103593889Y-21551927D01*
X103570842Y-21570841D01*
X103551930Y-21593886D01*
X103495363Y-21662813D01*
X103439278Y-21767741D01*
X103404740Y-21881596D01*
X103393078Y-22000000D01*
X103396001Y-22029677D01*
X103396000Y-28749815D01*
X101829741Y-30316075D01*
X101794651Y-30323055D01*
X101666531Y-30376124D01*
X101551226Y-30453168D01*
X101453168Y-30551226D01*
X101376124Y-30666531D01*
X101366697Y-30689290D01*
X99355347Y-28677940D01*
X99340343Y-28659657D01*
X99322065Y-28644657D01*
X98479000Y-27801593D01*
X98479000Y-12016606D01*
X98546832Y-11948774D01*
X98623876Y-11833469D01*
X98676945Y-11705349D01*
X98704000Y-11569338D01*
X98704000Y-11430662D01*
X98676945Y-11294651D01*
X98623876Y-11166531D01*
X98546832Y-11051226D01*
X98448774Y-10953168D01*
X98333469Y-10876124D01*
X98205349Y-10823055D01*
X98069338Y-10796000D01*
X97930662Y-10796000D01*
X97794651Y-10823055D01*
X97666531Y-10876124D01*
X97551226Y-10953168D01*
X97453168Y-11051226D01*
X97376124Y-11166531D01*
X97323055Y-11294651D01*
X97296000Y-11430662D01*
X97296000Y-11569338D01*
X97323055Y-11705349D01*
X97376124Y-11833469D01*
X97453168Y-11948774D01*
X97521001Y-12016607D01*
X97521000Y-27976477D01*
X97518683Y-28000000D01*
X97521000Y-28023523D01*
X97521000Y-28023525D01*
X97527931Y-28093899D01*
X97555321Y-28184191D01*
X97599800Y-28267405D01*
X97659657Y-28340343D01*
X97677940Y-28355347D01*
X98521000Y-29198408D01*
X98521001Y-29976467D01*
X98518683Y-30000000D01*
X98527932Y-30093900D01*
X98555322Y-30184192D01*
X98599800Y-30267405D01*
X98629978Y-30304176D01*
X98659658Y-30340343D01*
X98677936Y-30355343D01*
X99677931Y-31355339D01*
X99732594Y-31400200D01*
X99815808Y-31444679D01*
X99906100Y-31472068D01*
X100000000Y-31481317D01*
X100093900Y-31472068D01*
X100184192Y-31444679D01*
X100267406Y-31400200D01*
X100340342Y-31340342D01*
X100400200Y-31267406D01*
X100444679Y-31184192D01*
X100459133Y-31136541D01*
X100843593Y-31521000D01*
X98198408Y-31521000D01*
X91105344Y-24427937D01*
X91105339Y-24427931D01*
X90979000Y-24301592D01*
X90979000Y-12016606D01*
X91046832Y-11948774D01*
X91123876Y-11833469D01*
X91176945Y-11705349D01*
X91204000Y-11569338D01*
X91204000Y-11430662D01*
X91176945Y-11294651D01*
X91123876Y-11166531D01*
X91046832Y-11051226D01*
X90948774Y-10953168D01*
X90833469Y-10876124D01*
X90705349Y-10823055D01*
X90569338Y-10796000D01*
X90430662Y-10796000D01*
X90294651Y-10823055D01*
X90166531Y-10876124D01*
X90051226Y-10953168D01*
X89953168Y-11051226D01*
X89876124Y-11166531D01*
X89823055Y-11294651D01*
X89796000Y-11430662D01*
X85379000Y-11430662D01*
X85379000Y-8204549D01*
X89248337Y-8204549D01*
X89309987Y-8421395D01*
X89412757Y-8622047D01*
X89552698Y-8798794D01*
X89724431Y-8944844D01*
X89921357Y-9054584D01*
X90135909Y-9123797D01*
X90175451Y-9131662D01*
X90355000Y-9074709D01*
X90355000Y-8025000D01*
X90405000Y-8025000D01*
X90405000Y-9074709D01*
X90584549Y-9131662D01*
X90624091Y-9123797D01*
X90838643Y-9054584D01*
X91035569Y-8944844D01*
X91207302Y-8798794D01*
X91347243Y-8622047D01*
X91450013Y-8421395D01*
X91511663Y-8204549D01*
X91454729Y-8025000D01*
X90405000Y-8025000D01*
X90355000Y-8025000D01*
X89305271Y-8025000D01*
X89248337Y-8204549D01*
X85379000Y-8204549D01*
X85379000Y-8018535D01*
X85400873Y-7795451D01*
X89248337Y-7795451D01*
X89305271Y-7975000D01*
X90355000Y-7975000D01*
X90355000Y-6925291D01*
X90405000Y-6925291D01*
X90405000Y-7975000D01*
X91454729Y-7975000D01*
X91484403Y-7881416D01*
X91716000Y-7881416D01*
X91716000Y-8118584D01*
X91762269Y-8351194D01*
X91853029Y-8570308D01*
X91984792Y-8767505D01*
X92152495Y-8935208D01*
X92349692Y-9066971D01*
X92568806Y-9157731D01*
X92801416Y-9204000D01*
X93038584Y-9204000D01*
X93271194Y-9157731D01*
X93490308Y-9066971D01*
X93687505Y-8935208D01*
X93855208Y-8767505D01*
X93986971Y-8570308D01*
X94077731Y-8351194D01*
X94124000Y-8118584D01*
X94124000Y-7881416D01*
X94256000Y-7881416D01*
X94256000Y-8118584D01*
X94302269Y-8351194D01*
X94393029Y-8570308D01*
X94524792Y-8767505D01*
X94692495Y-8935208D01*
X94889692Y-9066971D01*
X95108806Y-9157731D01*
X95341416Y-9204000D01*
X95578584Y-9204000D01*
X95811194Y-9157731D01*
X96030308Y-9066971D01*
X96227505Y-8935208D01*
X96395208Y-8767505D01*
X96526971Y-8570308D01*
X96617731Y-8351194D01*
X96664000Y-8118584D01*
X96664000Y-7881416D01*
X96617731Y-7648806D01*
X96526971Y-7429692D01*
X96395208Y-7232495D01*
X96312713Y-7150000D01*
X96794288Y-7150000D01*
X96794288Y-8850000D01*
X96801123Y-8919396D01*
X96821365Y-8986125D01*
X96854236Y-9047623D01*
X96898474Y-9101526D01*
X96952377Y-9145764D01*
X97013875Y-9178635D01*
X97080604Y-9198877D01*
X97150000Y-9205712D01*
X98351528Y-9205712D01*
X99396000Y-10250185D01*
X99396001Y-23636783D01*
X99376124Y-23666531D01*
X99323055Y-23794651D01*
X99296000Y-23930662D01*
X99296000Y-24069338D01*
X99323055Y-24205349D01*
X99376124Y-24333469D01*
X99453168Y-24448774D01*
X99551226Y-24546832D01*
X99666531Y-24623876D01*
X99794651Y-24676945D01*
X99930662Y-24704000D01*
X100069338Y-24704000D01*
X100205349Y-24676945D01*
X100333469Y-24623876D01*
X100448774Y-24546832D01*
X100546832Y-24448774D01*
X100623876Y-24333469D01*
X100676945Y-24205349D01*
X100704000Y-24069338D01*
X100704000Y-23930662D01*
X100676945Y-23794651D01*
X100623876Y-23666531D01*
X100604000Y-23636784D01*
X100604000Y-14930662D01*
X104296000Y-14930662D01*
X104296000Y-15069338D01*
X104323055Y-15205349D01*
X104376124Y-15333469D01*
X104453168Y-15448774D01*
X104551226Y-15546832D01*
X104666531Y-15623876D01*
X104794651Y-15676945D01*
X104930662Y-15704000D01*
X105069338Y-15704000D01*
X105205349Y-15676945D01*
X105333469Y-15623876D01*
X105448774Y-15546832D01*
X105546832Y-15448774D01*
X105623876Y-15333469D01*
X105676945Y-15205349D01*
X105704000Y-15069338D01*
X105704000Y-14938052D01*
X106305263Y-14336790D01*
X106322579Y-14322579D01*
X106379313Y-14253449D01*
X106421470Y-14174579D01*
X106447430Y-14088999D01*
X106454000Y-14022295D01*
X106454000Y-14022288D01*
X106456195Y-14000000D01*
X106454000Y-13977712D01*
X106454000Y-13541606D01*
X106546832Y-13448774D01*
X106623876Y-13333469D01*
X106676945Y-13205349D01*
X106704000Y-13069338D01*
X106704000Y-12930662D01*
X106676945Y-12794651D01*
X106623876Y-12666531D01*
X106546832Y-12551226D01*
X106448774Y-12453168D01*
X106333469Y-12376124D01*
X106205349Y-12323055D01*
X106069338Y-12296000D01*
X105930662Y-12296000D01*
X105794651Y-12323055D01*
X105666531Y-12376124D01*
X105551226Y-12453168D01*
X105453168Y-12551226D01*
X105376124Y-12666531D01*
X105323055Y-12794651D01*
X105296000Y-12930662D01*
X105296000Y-13069338D01*
X105323055Y-13205349D01*
X105376124Y-13333469D01*
X105453168Y-13448774D01*
X105546001Y-13541607D01*
X105546001Y-13811946D01*
X105061948Y-14296000D01*
X104930662Y-14296000D01*
X104794651Y-14323055D01*
X104666531Y-14376124D01*
X104551226Y-14453168D01*
X104453168Y-14551226D01*
X104376124Y-14666531D01*
X104323055Y-14794651D01*
X104296000Y-14930662D01*
X100604000Y-14930662D01*
X100604000Y-10029666D01*
X100606922Y-9999999D01*
X100595260Y-9881595D01*
X100560723Y-9767742D01*
X100560723Y-9767741D01*
X100513825Y-9680000D01*
X106486868Y-9680000D01*
X106503357Y-9847413D01*
X106552189Y-10008393D01*
X106631489Y-10156753D01*
X106738209Y-10286791D01*
X106868247Y-10393511D01*
X107016607Y-10472811D01*
X107177587Y-10521643D01*
X107303048Y-10534000D01*
X108034878Y-10534000D01*
X107962163Y-10582587D01*
X107867587Y-10677163D01*
X107793278Y-10788373D01*
X107742094Y-10911943D01*
X107716000Y-11043124D01*
X107716000Y-11176876D01*
X107742094Y-11308057D01*
X107793278Y-11431627D01*
X107867587Y-11542837D01*
X107962163Y-11637413D01*
X108073373Y-11711722D01*
X108196943Y-11762906D01*
X108328124Y-11789000D01*
X108461876Y-11789000D01*
X108593057Y-11762906D01*
X108716627Y-11711722D01*
X108827837Y-11637413D01*
X108922413Y-11542837D01*
X108996722Y-11431627D01*
X109047906Y-11308057D01*
X109074000Y-11176876D01*
X109074000Y-11043124D01*
X109047906Y-10911943D01*
X108996722Y-10788373D01*
X108922413Y-10677163D01*
X108827837Y-10582587D01*
X108716627Y-10508278D01*
X108691197Y-10497745D01*
X108773393Y-10472811D01*
X108921753Y-10393511D01*
X109051791Y-10286791D01*
X109158511Y-10156753D01*
X109237811Y-10008393D01*
X109286643Y-9847413D01*
X109303132Y-9680000D01*
X110916868Y-9680000D01*
X110933357Y-9847413D01*
X110982189Y-10008393D01*
X111061489Y-10156753D01*
X111168209Y-10286791D01*
X111298247Y-10393511D01*
X111446607Y-10472811D01*
X111607587Y-10521643D01*
X111733048Y-10534000D01*
X112416952Y-10534000D01*
X112542413Y-10521643D01*
X112703393Y-10472811D01*
X112851753Y-10393511D01*
X112981791Y-10286791D01*
X113088511Y-10156753D01*
X113167811Y-10008393D01*
X113216643Y-9847413D01*
X113233132Y-9680000D01*
X113216643Y-9512587D01*
X113167811Y-9351607D01*
X113088511Y-9203247D01*
X112981791Y-9073209D01*
X112851753Y-8966489D01*
X112703393Y-8887189D01*
X112542413Y-8838357D01*
X112416952Y-8826000D01*
X111733048Y-8826000D01*
X111607587Y-8838357D01*
X111446607Y-8887189D01*
X111298247Y-8966489D01*
X111168209Y-9073209D01*
X111061489Y-9203247D01*
X110982189Y-9351607D01*
X110933357Y-9512587D01*
X110916868Y-9680000D01*
X109303132Y-9680000D01*
X109286643Y-9512587D01*
X109237811Y-9351607D01*
X109158511Y-9203247D01*
X109051791Y-9073209D01*
X108921753Y-8966489D01*
X108773393Y-8887189D01*
X108612413Y-8838357D01*
X108486952Y-8826000D01*
X107303048Y-8826000D01*
X107177587Y-8838357D01*
X107016607Y-8887189D01*
X106868247Y-8966489D01*
X106738209Y-9073209D01*
X106631489Y-9203247D01*
X106552189Y-9351607D01*
X106503357Y-9512587D01*
X106486868Y-9680000D01*
X100513825Y-9680000D01*
X100504637Y-9662812D01*
X100429159Y-9570841D01*
X100406113Y-9551928D01*
X99205712Y-8351528D01*
X99205712Y-7908403D01*
X112070000Y-7908403D01*
X112070000Y-8091597D01*
X112105739Y-8271271D01*
X112175845Y-8440520D01*
X112277622Y-8592841D01*
X112407159Y-8722378D01*
X112559480Y-8824155D01*
X112728729Y-8894261D01*
X112908403Y-8930000D01*
X113091597Y-8930000D01*
X113271271Y-8894261D01*
X113440520Y-8824155D01*
X113592841Y-8722378D01*
X113722378Y-8592841D01*
X113824155Y-8440520D01*
X113894261Y-8271271D01*
X113930000Y-8091597D01*
X113930000Y-7908403D01*
X113894261Y-7728729D01*
X113824155Y-7559480D01*
X113722378Y-7407159D01*
X113592841Y-7277622D01*
X113440520Y-7175845D01*
X113271271Y-7105739D01*
X113091597Y-7070000D01*
X112908403Y-7070000D01*
X112728729Y-7105739D01*
X112559480Y-7175845D01*
X112407159Y-7277622D01*
X112277622Y-7407159D01*
X112175845Y-7559480D01*
X112105739Y-7728729D01*
X112070000Y-7908403D01*
X99205712Y-7908403D01*
X99205712Y-7150000D01*
X99198877Y-7080604D01*
X99178635Y-7013875D01*
X99145764Y-6952377D01*
X99101526Y-6898474D01*
X99047623Y-6854236D01*
X98986125Y-6821365D01*
X98919396Y-6801123D01*
X98850000Y-6794288D01*
X97150000Y-6794288D01*
X97080604Y-6801123D01*
X97013875Y-6821365D01*
X96952377Y-6854236D01*
X96898474Y-6898474D01*
X96854236Y-6952377D01*
X96821365Y-7013875D01*
X96801123Y-7080604D01*
X96794288Y-7150000D01*
X96312713Y-7150000D01*
X96227505Y-7064792D01*
X96030308Y-6933029D01*
X95811194Y-6842269D01*
X95578584Y-6796000D01*
X95341416Y-6796000D01*
X95108806Y-6842269D01*
X94889692Y-6933029D01*
X94692495Y-7064792D01*
X94524792Y-7232495D01*
X94393029Y-7429692D01*
X94302269Y-7648806D01*
X94256000Y-7881416D01*
X94124000Y-7881416D01*
X94077731Y-7648806D01*
X93986971Y-7429692D01*
X93855208Y-7232495D01*
X93687505Y-7064792D01*
X93490308Y-6933029D01*
X93271194Y-6842269D01*
X93038584Y-6796000D01*
X92801416Y-6796000D01*
X92568806Y-6842269D01*
X92349692Y-6933029D01*
X92152495Y-7064792D01*
X91984792Y-7232495D01*
X91853029Y-7429692D01*
X91762269Y-7648806D01*
X91716000Y-7881416D01*
X91484403Y-7881416D01*
X91511663Y-7795451D01*
X91450013Y-7578605D01*
X91347243Y-7377953D01*
X91207302Y-7201206D01*
X91035569Y-7055156D01*
X90838643Y-6945416D01*
X90624091Y-6876203D01*
X90584549Y-6868338D01*
X90405000Y-6925291D01*
X90355000Y-6925291D01*
X90175451Y-6868338D01*
X90135909Y-6876203D01*
X89921357Y-6945416D01*
X89724431Y-7055156D01*
X89552698Y-7201206D01*
X89412757Y-7377953D01*
X89309987Y-7578605D01*
X89248337Y-7795451D01*
X85400873Y-7795451D01*
X85411655Y-7685499D01*
X85502991Y-7382978D01*
X85651350Y-7103957D01*
X85851079Y-6859066D01*
X86094564Y-6657637D01*
X86372539Y-6507337D01*
X86674419Y-6413890D01*
X87006368Y-6379000D01*
X112981465Y-6379000D01*
X113314501Y-6411655D01*
G04 #@! TA.AperFunction,Conductor*
D22*
G36*
X113314501Y-6411655D02*
G01*
X113617022Y-6502991D01*
X113896043Y-6651350D01*
X114140934Y-6851079D01*
X114342363Y-7094564D01*
X114492663Y-7372539D01*
X114586110Y-7674419D01*
X114621001Y-8006377D01*
X114621000Y-52981465D01*
X114588345Y-53314502D01*
X114497009Y-53617022D01*
X114348651Y-53896042D01*
X114148923Y-54140932D01*
X113905436Y-54342363D01*
X113627457Y-54492665D01*
X113445583Y-54548964D01*
X113448774Y-54546832D01*
X113546832Y-54448774D01*
X113623876Y-54333469D01*
X113676945Y-54205349D01*
X113704000Y-54069338D01*
X113704000Y-53930662D01*
X113676945Y-53794651D01*
X113623876Y-53666531D01*
X113546832Y-53551226D01*
X113448774Y-53453168D01*
X113333469Y-53376124D01*
X113205349Y-53323055D01*
X113069338Y-53296000D01*
X112930662Y-53296000D01*
X112794651Y-53323055D01*
X112666531Y-53376124D01*
X112551226Y-53453168D01*
X112453168Y-53551226D01*
X112443296Y-53566000D01*
X112420087Y-53566000D01*
X112448774Y-53546832D01*
X112546832Y-53448774D01*
X112623876Y-53333469D01*
X112676945Y-53205349D01*
X112704000Y-53069338D01*
X112704000Y-52930662D01*
X112693889Y-52879829D01*
X112728729Y-52894261D01*
X112908403Y-52930000D01*
X113091597Y-52930000D01*
X113271271Y-52894261D01*
X113440520Y-52824155D01*
X113592841Y-52722378D01*
X113722378Y-52592841D01*
X113824155Y-52440520D01*
X113894261Y-52271271D01*
X113930000Y-52091597D01*
X113930000Y-51908403D01*
X113894261Y-51728729D01*
X113824155Y-51559480D01*
X113722378Y-51407159D01*
X113592841Y-51277622D01*
X113440520Y-51175845D01*
X113271271Y-51105739D01*
X113091597Y-51070000D01*
X112908403Y-51070000D01*
X112728729Y-51105739D01*
X112559480Y-51175845D01*
X112407159Y-51277622D01*
X112277622Y-51407159D01*
X112175845Y-51559480D01*
X112105739Y-51728729D01*
X112070000Y-51908403D01*
X112070000Y-52091597D01*
X112105739Y-52271271D01*
X112120171Y-52306111D01*
X112069338Y-52296000D01*
X111930662Y-52296000D01*
X111794651Y-52323055D01*
X111666531Y-52376124D01*
X111551226Y-52453168D01*
X111453168Y-52551226D01*
X111443296Y-52566000D01*
X109179768Y-52566000D01*
X108700533Y-52086766D01*
X108704000Y-52069338D01*
X108704000Y-51930662D01*
X108676945Y-51794651D01*
X108623876Y-51666531D01*
X108546832Y-51551226D01*
X108448774Y-51453168D01*
X108333469Y-51376124D01*
X108205349Y-51323055D01*
X108069338Y-51296000D01*
X107930662Y-51296000D01*
X107913234Y-51299467D01*
X107321965Y-50708198D01*
X107308369Y-50691631D01*
X107261921Y-50653512D01*
X107333469Y-50623876D01*
X107448774Y-50546832D01*
X107546832Y-50448774D01*
X107556704Y-50434000D01*
X111443296Y-50434000D01*
X111453168Y-50448774D01*
X111551226Y-50546832D01*
X111666531Y-50623876D01*
X111794651Y-50676945D01*
X111930662Y-50704000D01*
X112069338Y-50704000D01*
X112205349Y-50676945D01*
X112333469Y-50623876D01*
X112448774Y-50546832D01*
X112546832Y-50448774D01*
X112623876Y-50333469D01*
X112676945Y-50205349D01*
X112704000Y-50069338D01*
X112704000Y-49930662D01*
X112676945Y-49794651D01*
X112623876Y-49666531D01*
X112546832Y-49551226D01*
X112448774Y-49453168D01*
X112333469Y-49376124D01*
X112205349Y-49323055D01*
X112069338Y-49296000D01*
X111930662Y-49296000D01*
X111794651Y-49323055D01*
X111666531Y-49376124D01*
X111551226Y-49453168D01*
X111453168Y-49551226D01*
X111443296Y-49566000D01*
X107556704Y-49566000D01*
X107546832Y-49551226D01*
X107448774Y-49453168D01*
X107333469Y-49376124D01*
X107205349Y-49323055D01*
X107069338Y-49296000D01*
X106930662Y-49296000D01*
X106794651Y-49323055D01*
X106666531Y-49376124D01*
X106551226Y-49453168D01*
X106453168Y-49551226D01*
X106443296Y-49566000D01*
X104179768Y-49566000D01*
X103700533Y-49086766D01*
X103704000Y-49069338D01*
X103704000Y-48930662D01*
X103676945Y-48794651D01*
X103623876Y-48666531D01*
X103546832Y-48551226D01*
X103448774Y-48453168D01*
X103333469Y-48376124D01*
X103205349Y-48323055D01*
X103069338Y-48296000D01*
X102930662Y-48296000D01*
X102913234Y-48299467D01*
X102321965Y-47708198D01*
X102308369Y-47691631D01*
X102261921Y-47653512D01*
X102333469Y-47623876D01*
X102448774Y-47546832D01*
X102546832Y-47448774D01*
X102556704Y-47434000D01*
X106443296Y-47434000D01*
X106453168Y-47448774D01*
X106551226Y-47546832D01*
X106666531Y-47623876D01*
X106794651Y-47676945D01*
X106930662Y-47704000D01*
X107069338Y-47704000D01*
X107205349Y-47676945D01*
X107333469Y-47623876D01*
X107448774Y-47546832D01*
X107546832Y-47448774D01*
X107556704Y-47434000D01*
X111443296Y-47434000D01*
X111453168Y-47448774D01*
X111551226Y-47546832D01*
X111666531Y-47623876D01*
X111794651Y-47676945D01*
X111930662Y-47704000D01*
X112069338Y-47704000D01*
X112205349Y-47676945D01*
X112333469Y-47623876D01*
X112448774Y-47546832D01*
X112546832Y-47448774D01*
X112623876Y-47333469D01*
X112676945Y-47205349D01*
X112704000Y-47069338D01*
X112704000Y-46930662D01*
X112676945Y-46794651D01*
X112623876Y-46666531D01*
X112546832Y-46551226D01*
X112448774Y-46453168D01*
X112333469Y-46376124D01*
X112205349Y-46323055D01*
X112069338Y-46296000D01*
X111930662Y-46296000D01*
X111794651Y-46323055D01*
X111666531Y-46376124D01*
X111551226Y-46453168D01*
X111453168Y-46551226D01*
X111443296Y-46566000D01*
X107556704Y-46566000D01*
X107546832Y-46551226D01*
X107448774Y-46453168D01*
X107333469Y-46376124D01*
X107205349Y-46323055D01*
X107069338Y-46296000D01*
X106930662Y-46296000D01*
X106794651Y-46323055D01*
X106666531Y-46376124D01*
X106551226Y-46453168D01*
X106453168Y-46551226D01*
X106443296Y-46566000D01*
X102556704Y-46566000D01*
X102546832Y-46551226D01*
X102448774Y-46453168D01*
X102333469Y-46376124D01*
X102205349Y-46323055D01*
X102069338Y-46296000D01*
X101930662Y-46296000D01*
X101794651Y-46323055D01*
X101666531Y-46376124D01*
X101551226Y-46453168D01*
X101453168Y-46551226D01*
X101443296Y-46566000D01*
X99179768Y-46566000D01*
X98700533Y-46086766D01*
X98704000Y-46069338D01*
X98704000Y-45930662D01*
X98676945Y-45794651D01*
X98623876Y-45666531D01*
X98546832Y-45551226D01*
X98448774Y-45453168D01*
X98333469Y-45376124D01*
X98205349Y-45323055D01*
X98069338Y-45296000D01*
X97930662Y-45296000D01*
X97913234Y-45299467D01*
X97321965Y-44708198D01*
X97308369Y-44691631D01*
X97261921Y-44653512D01*
X97333469Y-44623876D01*
X97448774Y-44546832D01*
X97546832Y-44448774D01*
X97556704Y-44434000D01*
X101443296Y-44434000D01*
X101453168Y-44448774D01*
X101551226Y-44546832D01*
X101666531Y-44623876D01*
X101794651Y-44676945D01*
X101930662Y-44704000D01*
X102069338Y-44704000D01*
X102205349Y-44676945D01*
X102333469Y-44623876D01*
X102448774Y-44546832D01*
X102546832Y-44448774D01*
X102556704Y-44434000D01*
X106443296Y-44434000D01*
X106453168Y-44448774D01*
X106551226Y-44546832D01*
X106666531Y-44623876D01*
X106794651Y-44676945D01*
X106930662Y-44704000D01*
X107069338Y-44704000D01*
X107205349Y-44676945D01*
X107333469Y-44623876D01*
X107448774Y-44546832D01*
X107546832Y-44448774D01*
X107556704Y-44434000D01*
X111443296Y-44434000D01*
X111453168Y-44448774D01*
X111551226Y-44546832D01*
X111666531Y-44623876D01*
X111794651Y-44676945D01*
X111930662Y-44704000D01*
X112069338Y-44704000D01*
X112205349Y-44676945D01*
X112333469Y-44623876D01*
X112448774Y-44546832D01*
X112546832Y-44448774D01*
X112623876Y-44333469D01*
X112676945Y-44205349D01*
X112704000Y-44069338D01*
X112704000Y-43930662D01*
X112676945Y-43794651D01*
X112623876Y-43666531D01*
X112546832Y-43551226D01*
X112448774Y-43453168D01*
X112333469Y-43376124D01*
X112205349Y-43323055D01*
X112069338Y-43296000D01*
X111930662Y-43296000D01*
X111794651Y-43323055D01*
X111666531Y-43376124D01*
X111551226Y-43453168D01*
X111453168Y-43551226D01*
X111443296Y-43566000D01*
X107556704Y-43566000D01*
X107546832Y-43551226D01*
X107448774Y-43453168D01*
X107333469Y-43376124D01*
X107205349Y-43323055D01*
X107069338Y-43296000D01*
X106930662Y-43296000D01*
X106794651Y-43323055D01*
X106666531Y-43376124D01*
X106551226Y-43453168D01*
X106453168Y-43551226D01*
X106443296Y-43566000D01*
X102556704Y-43566000D01*
X102546832Y-43551226D01*
X102448774Y-43453168D01*
X102333469Y-43376124D01*
X102205349Y-43323055D01*
X102069338Y-43296000D01*
X101930662Y-43296000D01*
X101794651Y-43323055D01*
X101666531Y-43376124D01*
X101551226Y-43453168D01*
X101453168Y-43551226D01*
X101443296Y-43566000D01*
X97556704Y-43566000D01*
X97546832Y-43551226D01*
X97448774Y-43453168D01*
X97333469Y-43376124D01*
X97205349Y-43323055D01*
X97069338Y-43296000D01*
X96930662Y-43296000D01*
X96794651Y-43323055D01*
X96666531Y-43376124D01*
X96551226Y-43453168D01*
X96453168Y-43551226D01*
X96443296Y-43566000D01*
X94179769Y-43566000D01*
X93700533Y-43086766D01*
X93704000Y-43069338D01*
X93704000Y-42973407D01*
X96322065Y-40355343D01*
X96340343Y-40340343D01*
X96376733Y-40296000D01*
X96400200Y-40267406D01*
X96444679Y-40184192D01*
X96444679Y-40184191D01*
X96472069Y-40093900D01*
X96479000Y-40023526D01*
X96479000Y-40023523D01*
X96481317Y-40000000D01*
X96479000Y-39976474D01*
X96479000Y-36023523D01*
X96481317Y-36000000D01*
X96479000Y-35976474D01*
X96472069Y-35906100D01*
X96444679Y-35815808D01*
X96433370Y-35794651D01*
X96400200Y-35732594D01*
X96375435Y-35702417D01*
X96340343Y-35659657D01*
X96322065Y-35644657D01*
X95355347Y-34677940D01*
X95340343Y-34659657D01*
X95267405Y-34599800D01*
X95184192Y-34555321D01*
X95093900Y-34527931D01*
X95023526Y-34521000D01*
X95023523Y-34521000D01*
X95000000Y-34518683D01*
X94976477Y-34521000D01*
X93698408Y-34521000D01*
X90369173Y-31191766D01*
X90430678Y-31204000D01*
X90526609Y-31204000D01*
X93644678Y-34322071D01*
X93659673Y-34340343D01*
X93677945Y-34355338D01*
X93677946Y-34355339D01*
X93732609Y-34400200D01*
X93790581Y-34431186D01*
X93815824Y-34444679D01*
X93906116Y-34472069D01*
X93976490Y-34479000D01*
X93976494Y-34479000D01*
X94000015Y-34481317D01*
X94023536Y-34479000D01*
X95301593Y-34479000D01*
X97521001Y-36698409D01*
X97521000Y-40483394D01*
X97453168Y-40551226D01*
X97376124Y-40666531D01*
X97323055Y-40794651D01*
X97296000Y-40930662D01*
X97296000Y-41069338D01*
X97323055Y-41205349D01*
X97376124Y-41333469D01*
X97453168Y-41448774D01*
X97551226Y-41546832D01*
X97666531Y-41623876D01*
X97794651Y-41676945D01*
X97930662Y-41704000D01*
X98069338Y-41704000D01*
X98205349Y-41676945D01*
X98333469Y-41623876D01*
X98448774Y-41546832D01*
X98546832Y-41448774D01*
X98623876Y-41333469D01*
X98676945Y-41205349D01*
X98704000Y-41069338D01*
X98704000Y-40930662D01*
X98676945Y-40794651D01*
X98623876Y-40666531D01*
X98546832Y-40551226D01*
X98479000Y-40483394D01*
X98479000Y-36523523D01*
X98481317Y-36500000D01*
X98478566Y-36472067D01*
X98472069Y-36406100D01*
X98452121Y-36340342D01*
X98444679Y-36315807D01*
X98400200Y-36232594D01*
X98375435Y-36202417D01*
X98340343Y-36159657D01*
X98322065Y-36144657D01*
X95855347Y-33677940D01*
X95840343Y-33659657D01*
X95767405Y-33599800D01*
X95684192Y-33555321D01*
X95593900Y-33527931D01*
X95523526Y-33521000D01*
X95523523Y-33521000D01*
X95500000Y-33518683D01*
X95476477Y-33521000D01*
X94198425Y-33521000D01*
X91869197Y-31191774D01*
X91930662Y-31204000D01*
X92026593Y-31204000D01*
X94144657Y-33322065D01*
X94159657Y-33340343D01*
X94202417Y-33375435D01*
X94232594Y-33400200D01*
X94315807Y-33444679D01*
X94343197Y-33452987D01*
X94406100Y-33472069D01*
X94476474Y-33479000D01*
X94476477Y-33479000D01*
X94500000Y-33481317D01*
X94523523Y-33479000D01*
X95801593Y-33479000D01*
X102521001Y-40198409D01*
X102521001Y-40483393D01*
X102453168Y-40551226D01*
X102376124Y-40666531D01*
X102323055Y-40794651D01*
X102296000Y-40930662D01*
X102296000Y-41069338D01*
X102323055Y-41205349D01*
X102376124Y-41333469D01*
X102453168Y-41448774D01*
X102551226Y-41546832D01*
X102666531Y-41623876D01*
X102794651Y-41676945D01*
X102930662Y-41704000D01*
X103069338Y-41704000D01*
X103205349Y-41676945D01*
X103333469Y-41623876D01*
X103448774Y-41546832D01*
X103546832Y-41448774D01*
X103623876Y-41333469D01*
X103676945Y-41205349D01*
X103704000Y-41069338D01*
X103704000Y-40930662D01*
X103676945Y-40794651D01*
X103623876Y-40666531D01*
X103546832Y-40551226D01*
X103479000Y-40483394D01*
X103479000Y-40156408D01*
X104644657Y-41322065D01*
X104659657Y-41340343D01*
X104702417Y-41375435D01*
X104732594Y-41400200D01*
X104777073Y-41423974D01*
X104815808Y-41444679D01*
X104906100Y-41472069D01*
X104976474Y-41479000D01*
X104976478Y-41479000D01*
X104999999Y-41481317D01*
X105023520Y-41479000D01*
X107483394Y-41479000D01*
X107551226Y-41546832D01*
X107666531Y-41623876D01*
X107794651Y-41676945D01*
X107930662Y-41704000D01*
X108069338Y-41704000D01*
X108205349Y-41676945D01*
X108333469Y-41623876D01*
X108448774Y-41546832D01*
X108546832Y-41448774D01*
X108623876Y-41333469D01*
X108676945Y-41205349D01*
X108704000Y-41069338D01*
X108704000Y-40930662D01*
X108676945Y-40794651D01*
X108623876Y-40666531D01*
X108546832Y-40551226D01*
X108448774Y-40453168D01*
X108333469Y-40376124D01*
X108205349Y-40323055D01*
X108069338Y-40296000D01*
X107930662Y-40296000D01*
X107794651Y-40323055D01*
X107666531Y-40376124D01*
X107551226Y-40453168D01*
X107483394Y-40521000D01*
X105198408Y-40521000D01*
X96355347Y-31677940D01*
X96340343Y-31659657D01*
X96267405Y-31599800D01*
X96184192Y-31555321D01*
X96093900Y-31527931D01*
X96023526Y-31521000D01*
X96023523Y-31521000D01*
X96000000Y-31518683D01*
X95976477Y-31521000D01*
X95198408Y-31521000D01*
X94204000Y-30526593D01*
X94204000Y-30430662D01*
X94176945Y-30294651D01*
X94123876Y-30166531D01*
X94046832Y-30051226D01*
X93948774Y-29953168D01*
X93833469Y-29876124D01*
X93705349Y-29823055D01*
X93569338Y-29796000D01*
X93430662Y-29796000D01*
X93294651Y-29823055D01*
X93166531Y-29876124D01*
X93051226Y-29953168D01*
X92953168Y-30051226D01*
X92876124Y-30166531D01*
X92823055Y-30294651D01*
X92796000Y-30430662D01*
X92796000Y-30569338D01*
X92808231Y-30630823D01*
X92704000Y-30526593D01*
X92704000Y-30430662D01*
X92676945Y-30294651D01*
X92623876Y-30166531D01*
X92546832Y-30051226D01*
X92448774Y-29953168D01*
X92333469Y-29876124D01*
X92205349Y-29823055D01*
X92069338Y-29796000D01*
X91930662Y-29796000D01*
X91794651Y-29823055D01*
X91666531Y-29876124D01*
X91551226Y-29953168D01*
X91453168Y-30051226D01*
X91376124Y-30166531D01*
X91323055Y-30294651D01*
X91296000Y-30430662D01*
X91296000Y-30569338D01*
X91308227Y-30630803D01*
X91204016Y-30526593D01*
X91204016Y-30430662D01*
X91176961Y-30294651D01*
X91123892Y-30166531D01*
X91046848Y-30051226D01*
X90948790Y-29953168D01*
X90833485Y-29876124D01*
X90705365Y-29823055D01*
X90569354Y-29796000D01*
X90430678Y-29796000D01*
X90294667Y-29823055D01*
X90166547Y-29876124D01*
X90051242Y-29953168D01*
X89953184Y-30051226D01*
X89876140Y-30166531D01*
X89823071Y-30294651D01*
X89796016Y-30430662D01*
X89796016Y-30569338D01*
X89808251Y-30630843D01*
X89704000Y-30526593D01*
X89704000Y-30430662D01*
X89676945Y-30294651D01*
X89623876Y-30166531D01*
X89546832Y-30051226D01*
X89448774Y-29953168D01*
X89333469Y-29876124D01*
X89205349Y-29823055D01*
X89069338Y-29796000D01*
X88930662Y-29796000D01*
X88794651Y-29823055D01*
X88666531Y-29876124D01*
X88551226Y-29953168D01*
X88453168Y-30051226D01*
X88376124Y-30166531D01*
X88323055Y-30294651D01*
X88296000Y-30430662D01*
X88296000Y-30569338D01*
X88323055Y-30705349D01*
X88376124Y-30833469D01*
X88453168Y-30948774D01*
X88551226Y-31046832D01*
X88666531Y-31123876D01*
X88794651Y-31176945D01*
X88930662Y-31204000D01*
X89026593Y-31204000D01*
X93130822Y-35308230D01*
X93069338Y-35296000D01*
X92973408Y-35296000D01*
X91355347Y-33677940D01*
X91340343Y-33659657D01*
X91267405Y-33599800D01*
X91184192Y-33555321D01*
X91093900Y-33527931D01*
X91023526Y-33521000D01*
X91023523Y-33521000D01*
X91000000Y-33518683D01*
X90976477Y-33521000D01*
X89198408Y-33521000D01*
X87704000Y-32026593D01*
X87704000Y-31930662D01*
X87676945Y-31794651D01*
X87623876Y-31666531D01*
X87546832Y-31551226D01*
X87448774Y-31453168D01*
X87333469Y-31376124D01*
X87205349Y-31323055D01*
X87069338Y-31296000D01*
X86930662Y-31296000D01*
X86794651Y-31323055D01*
X86666531Y-31376124D01*
X86551226Y-31453168D01*
X86453168Y-31551226D01*
X86376124Y-31666531D01*
X86323055Y-31794651D01*
X86296000Y-31930662D01*
X86296000Y-32069338D01*
X86323055Y-32205349D01*
X86376124Y-32333469D01*
X86453168Y-32448774D01*
X86551226Y-32546832D01*
X86666531Y-32623876D01*
X86794651Y-32676945D01*
X86930662Y-32704000D01*
X87026593Y-32704000D01*
X88644657Y-34322065D01*
X88659657Y-34340343D01*
X88702417Y-34375435D01*
X88732594Y-34400200D01*
X88777073Y-34423974D01*
X88815808Y-34444679D01*
X88906100Y-34472069D01*
X88976474Y-34479000D01*
X88976478Y-34479000D01*
X88999999Y-34481317D01*
X89023520Y-34479000D01*
X90801593Y-34479000D01*
X92296000Y-35973408D01*
X92296000Y-36069338D01*
X92323055Y-36205349D01*
X92376124Y-36333469D01*
X92453168Y-36448774D01*
X92551226Y-36546832D01*
X92666531Y-36623876D01*
X92794651Y-36676945D01*
X92930662Y-36704000D01*
X93069338Y-36704000D01*
X93205349Y-36676945D01*
X93333469Y-36623876D01*
X93448774Y-36546832D01*
X93546832Y-36448774D01*
X93623876Y-36333469D01*
X93676945Y-36205349D01*
X93704000Y-36069338D01*
X93704000Y-35930662D01*
X93676945Y-35794651D01*
X93623876Y-35666531D01*
X93546832Y-35551226D01*
X93474402Y-35478796D01*
X93476474Y-35479000D01*
X93476476Y-35479000D01*
X93499999Y-35481317D01*
X93523522Y-35479000D01*
X94801593Y-35479000D01*
X95521001Y-36198409D01*
X95521000Y-39801592D01*
X93026593Y-42296000D01*
X92930662Y-42296000D01*
X92794651Y-42323055D01*
X92666531Y-42376124D01*
X92551226Y-42453168D01*
X92453168Y-42551226D01*
X92376124Y-42666531D01*
X92323055Y-42794651D01*
X92296000Y-42930662D01*
X92296000Y-43069338D01*
X92323055Y-43205349D01*
X92376124Y-43333469D01*
X92453168Y-43448774D01*
X92551226Y-43546832D01*
X92666531Y-43623876D01*
X92794651Y-43676945D01*
X92930662Y-43704000D01*
X93069338Y-43704000D01*
X93086766Y-43700533D01*
X93678044Y-44291813D01*
X93691631Y-44308369D01*
X93757716Y-44362603D01*
X93833112Y-44402903D01*
X93914921Y-44427720D01*
X94000000Y-44436099D01*
X94021313Y-44434000D01*
X96443296Y-44434000D01*
X96453168Y-44448774D01*
X96551226Y-44546832D01*
X96579913Y-44566000D01*
X93179769Y-44566000D01*
X92700533Y-44086766D01*
X92704000Y-44069338D01*
X92704000Y-43930662D01*
X92676945Y-43794651D01*
X92623876Y-43666531D01*
X92546832Y-43551226D01*
X92448774Y-43453168D01*
X92333469Y-43376124D01*
X92205349Y-43323055D01*
X92069338Y-43296000D01*
X91930662Y-43296000D01*
X91794651Y-43323055D01*
X91666531Y-43376124D01*
X91551226Y-43453168D01*
X91453168Y-43551226D01*
X91376124Y-43666531D01*
X91323055Y-43794651D01*
X91296000Y-43930662D01*
X91296000Y-44069338D01*
X91323055Y-44205349D01*
X91376124Y-44333469D01*
X91453168Y-44448774D01*
X91551226Y-44546832D01*
X91666531Y-44623876D01*
X91794651Y-44676945D01*
X91930662Y-44704000D01*
X92069338Y-44704000D01*
X92086766Y-44700533D01*
X92678044Y-45291813D01*
X92691631Y-45308369D01*
X92757716Y-45362603D01*
X92833112Y-45402903D01*
X92914921Y-45427720D01*
X93000000Y-45436099D01*
X93021313Y-45434000D01*
X96820233Y-45434000D01*
X97299467Y-45913234D01*
X97296000Y-45930662D01*
X97296000Y-46069338D01*
X97323055Y-46205349D01*
X97376124Y-46333469D01*
X97453168Y-46448774D01*
X97551226Y-46546832D01*
X97666531Y-46623876D01*
X97794651Y-46676945D01*
X97930662Y-46704000D01*
X98069338Y-46704000D01*
X98086766Y-46700533D01*
X98678039Y-47291807D01*
X98691631Y-47308369D01*
X98757716Y-47362603D01*
X98833112Y-47402903D01*
X98914921Y-47427719D01*
X98999999Y-47436099D01*
X99021309Y-47434000D01*
X101443296Y-47434000D01*
X101453168Y-47448774D01*
X101551226Y-47546832D01*
X101579913Y-47566000D01*
X98179769Y-47566000D01*
X97700533Y-47086766D01*
X97704000Y-47069338D01*
X97704000Y-46930662D01*
X97676945Y-46794651D01*
X97623876Y-46666531D01*
X97546832Y-46551226D01*
X97448774Y-46453168D01*
X97333469Y-46376124D01*
X97205349Y-46323055D01*
X97069338Y-46296000D01*
X96930662Y-46296000D01*
X96794651Y-46323055D01*
X96666531Y-46376124D01*
X96551226Y-46453168D01*
X96453168Y-46551226D01*
X96443296Y-46566000D01*
X92556704Y-46566000D01*
X92546832Y-46551226D01*
X92448774Y-46453168D01*
X92333469Y-46376124D01*
X92205349Y-46323055D01*
X92069338Y-46296000D01*
X91930662Y-46296000D01*
X91794651Y-46323055D01*
X91666531Y-46376124D01*
X91551226Y-46453168D01*
X91453168Y-46551226D01*
X91376124Y-46666531D01*
X91323055Y-46794651D01*
X91296000Y-46930662D01*
X91296000Y-47069338D01*
X91323055Y-47205349D01*
X91376124Y-47333469D01*
X91453168Y-47448774D01*
X91551226Y-47546832D01*
X91666531Y-47623876D01*
X91794651Y-47676945D01*
X91930662Y-47704000D01*
X92069338Y-47704000D01*
X92205349Y-47676945D01*
X92333469Y-47623876D01*
X92448774Y-47546832D01*
X92546832Y-47448774D01*
X92556704Y-47434000D01*
X96443296Y-47434000D01*
X96453168Y-47448774D01*
X96551226Y-47546832D01*
X96666531Y-47623876D01*
X96794651Y-47676945D01*
X96930662Y-47704000D01*
X97069338Y-47704000D01*
X97086766Y-47700533D01*
X97678044Y-48291813D01*
X97691631Y-48308369D01*
X97757716Y-48362603D01*
X97833112Y-48402903D01*
X97914921Y-48427720D01*
X98000000Y-48436099D01*
X98021313Y-48434000D01*
X101820233Y-48434000D01*
X102299467Y-48913234D01*
X102296000Y-48930662D01*
X102296000Y-49069338D01*
X102323055Y-49205349D01*
X102376124Y-49333469D01*
X102453168Y-49448774D01*
X102551226Y-49546832D01*
X102666531Y-49623876D01*
X102794651Y-49676945D01*
X102930662Y-49704000D01*
X103069338Y-49704000D01*
X103086766Y-49700533D01*
X103678039Y-50291807D01*
X103691631Y-50308369D01*
X103757716Y-50362603D01*
X103833112Y-50402903D01*
X103914921Y-50427719D01*
X103999999Y-50436099D01*
X104021309Y-50434000D01*
X106443296Y-50434000D01*
X106453168Y-50448774D01*
X106551226Y-50546832D01*
X106579913Y-50566000D01*
X103179769Y-50566000D01*
X102700533Y-50086766D01*
X102704000Y-50069338D01*
X102704000Y-49930662D01*
X102676945Y-49794651D01*
X102623876Y-49666531D01*
X102546832Y-49551226D01*
X102448774Y-49453168D01*
X102333469Y-49376124D01*
X102205349Y-49323055D01*
X102069338Y-49296000D01*
X101930662Y-49296000D01*
X101794651Y-49323055D01*
X101666531Y-49376124D01*
X101551226Y-49453168D01*
X101453168Y-49551226D01*
X101443296Y-49566000D01*
X97556704Y-49566000D01*
X97546832Y-49551226D01*
X97448774Y-49453168D01*
X97333469Y-49376124D01*
X97205349Y-49323055D01*
X97069338Y-49296000D01*
X96930662Y-49296000D01*
X96794651Y-49323055D01*
X96666531Y-49376124D01*
X96551226Y-49453168D01*
X96453168Y-49551226D01*
X96443296Y-49566000D01*
X92556704Y-49566000D01*
X92546832Y-49551226D01*
X92448774Y-49453168D01*
X92333469Y-49376124D01*
X92205349Y-49323055D01*
X92069338Y-49296000D01*
X91930662Y-49296000D01*
X91794651Y-49323055D01*
X91666531Y-49376124D01*
X91551226Y-49453168D01*
X91453168Y-49551226D01*
X91376124Y-49666531D01*
X91323055Y-49794651D01*
X91296000Y-49930662D01*
X91296000Y-50069338D01*
X91323055Y-50205349D01*
X91376124Y-50333469D01*
X91453168Y-50448774D01*
X91551226Y-50546832D01*
X91666531Y-50623876D01*
X91794651Y-50676945D01*
X91930662Y-50704000D01*
X92069338Y-50704000D01*
X92205349Y-50676945D01*
X92333469Y-50623876D01*
X92448774Y-50546832D01*
X92546832Y-50448774D01*
X92556704Y-50434000D01*
X96443296Y-50434000D01*
X96453168Y-50448774D01*
X96551226Y-50546832D01*
X96666531Y-50623876D01*
X96794651Y-50676945D01*
X96930662Y-50704000D01*
X97069338Y-50704000D01*
X97205349Y-50676945D01*
X97333469Y-50623876D01*
X97448774Y-50546832D01*
X97546832Y-50448774D01*
X97556704Y-50434000D01*
X101443296Y-50434000D01*
X101453168Y-50448774D01*
X101551226Y-50546832D01*
X101666531Y-50623876D01*
X101794651Y-50676945D01*
X101930662Y-50704000D01*
X102069338Y-50704000D01*
X102086766Y-50700533D01*
X102678044Y-51291813D01*
X102691631Y-51308369D01*
X102757716Y-51362603D01*
X102833112Y-51402903D01*
X102914921Y-51427720D01*
X103000000Y-51436099D01*
X103021313Y-51434000D01*
X106820233Y-51434000D01*
X107299467Y-51913234D01*
X107296000Y-51930662D01*
X107296000Y-52069338D01*
X107323055Y-52205349D01*
X107376124Y-52333469D01*
X107453168Y-52448774D01*
X107551226Y-52546832D01*
X107666531Y-52623876D01*
X107794651Y-52676945D01*
X107930662Y-52704000D01*
X108069338Y-52704000D01*
X108086766Y-52700533D01*
X108678039Y-53291807D01*
X108691631Y-53308369D01*
X108757716Y-53362603D01*
X108833112Y-53402903D01*
X108907451Y-53425453D01*
X108914921Y-53427719D01*
X108999999Y-53436099D01*
X109021309Y-53434000D01*
X111443296Y-53434000D01*
X111453168Y-53448774D01*
X111551226Y-53546832D01*
X111579913Y-53566000D01*
X108179769Y-53566000D01*
X107700533Y-53086766D01*
X107704000Y-53069338D01*
X107704000Y-52930662D01*
X107676945Y-52794651D01*
X107623876Y-52666531D01*
X107546832Y-52551226D01*
X107448774Y-52453168D01*
X107333469Y-52376124D01*
X107205349Y-52323055D01*
X107069338Y-52296000D01*
X106930662Y-52296000D01*
X106794651Y-52323055D01*
X106666531Y-52376124D01*
X106551226Y-52453168D01*
X106453168Y-52551226D01*
X106443296Y-52566000D01*
X102556704Y-52566000D01*
X102546832Y-52551226D01*
X102448774Y-52453168D01*
X102333469Y-52376124D01*
X102205349Y-52323055D01*
X102069338Y-52296000D01*
X101930662Y-52296000D01*
X101794651Y-52323055D01*
X101666531Y-52376124D01*
X101551226Y-52453168D01*
X101453168Y-52551226D01*
X101443296Y-52566000D01*
X97556704Y-52566000D01*
X97546832Y-52551226D01*
X97448774Y-52453168D01*
X97333469Y-52376124D01*
X97205349Y-52323055D01*
X97069338Y-52296000D01*
X96930662Y-52296000D01*
X96794651Y-52323055D01*
X96666531Y-52376124D01*
X96551226Y-52453168D01*
X96453168Y-52551226D01*
X96443296Y-52566000D01*
X92556704Y-52566000D01*
X92546832Y-52551226D01*
X92448774Y-52453168D01*
X92333469Y-52376124D01*
X92205349Y-52323055D01*
X92069338Y-52296000D01*
X91930662Y-52296000D01*
X91794651Y-52323055D01*
X91666531Y-52376124D01*
X91551226Y-52453168D01*
X91453168Y-52551226D01*
X91376124Y-52666531D01*
X91323055Y-52794651D01*
X91296000Y-52930662D01*
X91296000Y-53069338D01*
X91323055Y-53205349D01*
X91376124Y-53333469D01*
X91453168Y-53448774D01*
X91551226Y-53546832D01*
X91666531Y-53623876D01*
X91794651Y-53676945D01*
X91930662Y-53704000D01*
X92069338Y-53704000D01*
X92205349Y-53676945D01*
X92333469Y-53623876D01*
X92448774Y-53546832D01*
X92546832Y-53448774D01*
X92556704Y-53434000D01*
X96443296Y-53434000D01*
X96453168Y-53448774D01*
X96551226Y-53546832D01*
X96666531Y-53623876D01*
X96794651Y-53676945D01*
X96930662Y-53704000D01*
X97069338Y-53704000D01*
X97205349Y-53676945D01*
X97333469Y-53623876D01*
X97448774Y-53546832D01*
X97546832Y-53448774D01*
X97556704Y-53434000D01*
X101443296Y-53434000D01*
X101453168Y-53448774D01*
X101551226Y-53546832D01*
X101666531Y-53623876D01*
X101794651Y-53676945D01*
X101930662Y-53704000D01*
X102069338Y-53704000D01*
X102205349Y-53676945D01*
X102333469Y-53623876D01*
X102448774Y-53546832D01*
X102546832Y-53448774D01*
X102556704Y-53434000D01*
X106443296Y-53434000D01*
X106453168Y-53448774D01*
X106551226Y-53546832D01*
X106666531Y-53623876D01*
X106794651Y-53676945D01*
X106930662Y-53704000D01*
X107069338Y-53704000D01*
X107086766Y-53700533D01*
X107678044Y-54291813D01*
X107691631Y-54308369D01*
X107757716Y-54362603D01*
X107799225Y-54384790D01*
X107833112Y-54402903D01*
X107914921Y-54427720D01*
X108000000Y-54436099D01*
X108021313Y-54434000D01*
X112443296Y-54434000D01*
X112453168Y-54448774D01*
X112551226Y-54546832D01*
X112662227Y-54621000D01*
X87018535Y-54621000D01*
X86685498Y-54588345D01*
X86382978Y-54497009D01*
X86103958Y-54348651D01*
X85859068Y-54148923D01*
X85657637Y-53905436D01*
X85507335Y-53627457D01*
X85413890Y-53325582D01*
X85379000Y-52993631D01*
X85379000Y-51908403D01*
X86070000Y-51908403D01*
X86070000Y-52091597D01*
X86105739Y-52271271D01*
X86175845Y-52440520D01*
X86277622Y-52592841D01*
X86407159Y-52722378D01*
X86559480Y-52824155D01*
X86728729Y-52894261D01*
X86908403Y-52930000D01*
X87091597Y-52930000D01*
X87271271Y-52894261D01*
X87440520Y-52824155D01*
X87592841Y-52722378D01*
X87722378Y-52592841D01*
X87824155Y-52440520D01*
X87894261Y-52271271D01*
X87930000Y-52091597D01*
X87930000Y-51908403D01*
X87894261Y-51728729D01*
X87824155Y-51559480D01*
X87722378Y-51407159D01*
X87592841Y-51277622D01*
X87440520Y-51175845D01*
X87271271Y-51105739D01*
X87091597Y-51070000D01*
X86908403Y-51070000D01*
X86728729Y-51105739D01*
X86559480Y-51175845D01*
X86407159Y-51277622D01*
X86277622Y-51407159D01*
X86175845Y-51559480D01*
X86105739Y-51728729D01*
X86070000Y-51908403D01*
X85379000Y-51908403D01*
X85379000Y-11430662D01*
X89796000Y-11430662D01*
X89796000Y-11569338D01*
X89823055Y-11705349D01*
X89876124Y-11833469D01*
X89953168Y-11948774D01*
X90021000Y-12016606D01*
X90021001Y-24476467D01*
X90018683Y-24500000D01*
X90027932Y-24593900D01*
X90055322Y-24684192D01*
X90099800Y-24767405D01*
X90129978Y-24804176D01*
X90159658Y-24840343D01*
X90177935Y-24855342D01*
X90427931Y-25105339D01*
X90427937Y-25105344D01*
X97644657Y-32322065D01*
X97659657Y-32340343D01*
X97693708Y-32368287D01*
X97732593Y-32400200D01*
X97790565Y-32431186D01*
X97815808Y-32444679D01*
X97906100Y-32472069D01*
X97976474Y-32479000D01*
X97976478Y-32479000D01*
X97999999Y-32481317D01*
X98023520Y-32479000D01*
X100801593Y-32479000D01*
X102296000Y-33973408D01*
X102296000Y-34069338D01*
X102323055Y-34205349D01*
X102376124Y-34333469D01*
X102453168Y-34448774D01*
X102551226Y-34546832D01*
X102666531Y-34623876D01*
X102794651Y-34676945D01*
X102930662Y-34704000D01*
X103069338Y-34704000D01*
X103205349Y-34676945D01*
X103333469Y-34623876D01*
X103448774Y-34546832D01*
X103546832Y-34448774D01*
X103623876Y-34333469D01*
X103633303Y-34310710D01*
X110644657Y-41322065D01*
X110659657Y-41340343D01*
X110702417Y-41375435D01*
X110732594Y-41400200D01*
X110815806Y-41444678D01*
X110815808Y-41444679D01*
X110906100Y-41472069D01*
X110976474Y-41479000D01*
X110976477Y-41479000D01*
X111000000Y-41481317D01*
X111023523Y-41479000D01*
X112483394Y-41479000D01*
X112551226Y-41546832D01*
X112666531Y-41623876D01*
X112794651Y-41676945D01*
X112930662Y-41704000D01*
X113069338Y-41704000D01*
X113205349Y-41676945D01*
X113333469Y-41623876D01*
X113448774Y-41546832D01*
X113546832Y-41448774D01*
X113623876Y-41333469D01*
X113676945Y-41205349D01*
X113704000Y-41069338D01*
X113704000Y-40930662D01*
X113676945Y-40794651D01*
X113623876Y-40666531D01*
X113546832Y-40551226D01*
X113448774Y-40453168D01*
X113333469Y-40376124D01*
X113205349Y-40323055D01*
X113069338Y-40296000D01*
X112930662Y-40296000D01*
X112794651Y-40323055D01*
X112666531Y-40376124D01*
X112551226Y-40453168D01*
X112483394Y-40521000D01*
X111198408Y-40521000D01*
X102310710Y-31633303D01*
X102333469Y-31623876D01*
X102448774Y-31546832D01*
X102546832Y-31448774D01*
X102623876Y-31333469D01*
X102676945Y-31205349D01*
X102683925Y-31170259D01*
X104396001Y-29458184D01*
X104396001Y-29749814D01*
X103829741Y-30316075D01*
X103794651Y-30323055D01*
X103666531Y-30376124D01*
X103551226Y-30453168D01*
X103453168Y-30551226D01*
X103376124Y-30666531D01*
X103323055Y-30794651D01*
X103296000Y-30930662D01*
X103296000Y-31069338D01*
X103323055Y-31205349D01*
X103376124Y-31333469D01*
X103453168Y-31448774D01*
X103551226Y-31546832D01*
X103666531Y-31623876D01*
X103794651Y-31676945D01*
X103930662Y-31704000D01*
X104069338Y-31704000D01*
X104205349Y-31676945D01*
X104333469Y-31623876D01*
X104448774Y-31546832D01*
X104546832Y-31448774D01*
X104623876Y-31333469D01*
X104676945Y-31205349D01*
X104683925Y-31170259D01*
X105406112Y-30448073D01*
X105429159Y-30429159D01*
X105504637Y-30337188D01*
X105560723Y-30232259D01*
X105595260Y-30118405D01*
X105604000Y-30029667D01*
X105606922Y-30000000D01*
X105604000Y-29970333D01*
X105604000Y-25363216D01*
X105623876Y-25333469D01*
X105676945Y-25205349D01*
X105704000Y-25069338D01*
X105704000Y-24930662D01*
X105700752Y-24914333D01*
X106880209Y-24914333D01*
X106880209Y-25085667D01*
X106913634Y-25253709D01*
X106979201Y-25412001D01*
X107074389Y-25554460D01*
X107195540Y-25675611D01*
X107337999Y-25770799D01*
X107496291Y-25836366D01*
X107664333Y-25869791D01*
X107835667Y-25869791D01*
X108003709Y-25836366D01*
X108162001Y-25770799D01*
X108304460Y-25675611D01*
X108425611Y-25554460D01*
X108500000Y-25443129D01*
X108574389Y-25554460D01*
X108695540Y-25675611D01*
X108837999Y-25770799D01*
X108996291Y-25836366D01*
X109164333Y-25869791D01*
X109335667Y-25869791D01*
X109503709Y-25836366D01*
X109662001Y-25770799D01*
X109804460Y-25675611D01*
X109925611Y-25554460D01*
X110000000Y-25443129D01*
X110074389Y-25554460D01*
X110195540Y-25675611D01*
X110337999Y-25770799D01*
X110496291Y-25836366D01*
X110664333Y-25869791D01*
X110835667Y-25869791D01*
X111003709Y-25836366D01*
X111162001Y-25770799D01*
X111304460Y-25675611D01*
X111425611Y-25554460D01*
X111500000Y-25443129D01*
X111574389Y-25554460D01*
X111695540Y-25675611D01*
X111837999Y-25770799D01*
X111996291Y-25836366D01*
X112164333Y-25869791D01*
X112335667Y-25869791D01*
X112503709Y-25836366D01*
X112662001Y-25770799D01*
X112804460Y-25675611D01*
X112925611Y-25554460D01*
X113020799Y-25412001D01*
X113086366Y-25253709D01*
X113119791Y-25085667D01*
X113119791Y-24914333D01*
X113086366Y-24746291D01*
X113020799Y-24587999D01*
X112925611Y-24445540D01*
X112804460Y-24324389D01*
X112662001Y-24229201D01*
X112503709Y-24163634D01*
X112335667Y-24130209D01*
X112164333Y-24130209D01*
X111996291Y-24163634D01*
X111837999Y-24229201D01*
X111695540Y-24324389D01*
X111574389Y-24445540D01*
X111500000Y-24556871D01*
X111425611Y-24445540D01*
X111304460Y-24324389D01*
X111162001Y-24229201D01*
X111003709Y-24163634D01*
X110835667Y-24130209D01*
X110664333Y-24130209D01*
X110496291Y-24163634D01*
X110337999Y-24229201D01*
X110195540Y-24324389D01*
X110074389Y-24445540D01*
X110000000Y-24556871D01*
X109925611Y-24445540D01*
X109804460Y-24324389D01*
X109662001Y-24229201D01*
X109503709Y-24163634D01*
X109335667Y-24130209D01*
X109164333Y-24130209D01*
X108996291Y-24163634D01*
X108837999Y-24229201D01*
X108695540Y-24324389D01*
X108574389Y-24445540D01*
X108500000Y-24556871D01*
X108425611Y-24445540D01*
X108304460Y-24324389D01*
X108162001Y-24229201D01*
X108003709Y-24163634D01*
X107835667Y-24130209D01*
X107664333Y-24130209D01*
X107496291Y-24163634D01*
X107337999Y-24229201D01*
X107195540Y-24324389D01*
X107074389Y-24445540D01*
X106979201Y-24587999D01*
X106913634Y-24746291D01*
X106880209Y-24914333D01*
X105700752Y-24914333D01*
X105676945Y-24794651D01*
X105623876Y-24666531D01*
X105546832Y-24551226D01*
X105448774Y-24453168D01*
X105333469Y-24376124D01*
X105205349Y-24323055D01*
X105069338Y-24296000D01*
X104930662Y-24296000D01*
X104794651Y-24323055D01*
X104666531Y-24376124D01*
X104604000Y-24417906D01*
X104604000Y-22250184D01*
X104998661Y-21855523D01*
X107283098Y-21855523D01*
X107283098Y-22144477D01*
X107339470Y-22427880D01*
X107450048Y-22694839D01*
X107534095Y-22820624D01*
X107534095Y-23284000D01*
X108031287Y-23284000D01*
X108055161Y-23299952D01*
X108322120Y-23410530D01*
X108605523Y-23466902D01*
X108894477Y-23466902D01*
X109177880Y-23410530D01*
X109444839Y-23299952D01*
X109468713Y-23284000D01*
X109965905Y-23284000D01*
X109965905Y-22820624D01*
X110000000Y-22769597D01*
X110034095Y-22820624D01*
X110034095Y-23284000D01*
X110531287Y-23284000D01*
X110555161Y-23299952D01*
X110822120Y-23410530D01*
X111105523Y-23466902D01*
X111394477Y-23466902D01*
X111677880Y-23410530D01*
X111944839Y-23299952D01*
X111968713Y-23284000D01*
X112465905Y-23284000D01*
X112465905Y-22820624D01*
X112549952Y-22694839D01*
X112660530Y-22427880D01*
X112716902Y-22144477D01*
X112716902Y-21855523D01*
X112660530Y-21572120D01*
X112549952Y-21305161D01*
X112465905Y-21179376D01*
X112465905Y-20876000D01*
X112200513Y-20876000D01*
X112185096Y-20860583D01*
X111944839Y-20700048D01*
X111677880Y-20589470D01*
X111394477Y-20533098D01*
X111105523Y-20533098D01*
X110822120Y-20589470D01*
X110555161Y-20700048D01*
X110314904Y-20860583D01*
X110299487Y-20876000D01*
X110034095Y-20876000D01*
X110034095Y-21179376D01*
X110000000Y-21230403D01*
X109965905Y-21179376D01*
X109965905Y-20876000D01*
X109700513Y-20876000D01*
X109685096Y-20860583D01*
X109444839Y-20700048D01*
X109177880Y-20589470D01*
X108894477Y-20533098D01*
X108605523Y-20533098D01*
X108322120Y-20589470D01*
X108055161Y-20700048D01*
X107814904Y-20860583D01*
X107799487Y-20876000D01*
X107534095Y-20876000D01*
X107534095Y-21179376D01*
X107450048Y-21305161D01*
X107339470Y-21572120D01*
X107283098Y-21855523D01*
X104998661Y-21855523D01*
X106406113Y-20448072D01*
X106429159Y-20429159D01*
X106504637Y-20337188D01*
X106560723Y-20232259D01*
X106595260Y-20118405D01*
X106604000Y-20029667D01*
X106604000Y-20029666D01*
X106606922Y-20000001D01*
X106604000Y-19970334D01*
X106604000Y-18745325D01*
X106631489Y-18796753D01*
X106738209Y-18926791D01*
X106868247Y-19033511D01*
X107016607Y-19112811D01*
X107177587Y-19161643D01*
X107303048Y-19174000D01*
X108486952Y-19174000D01*
X108612413Y-19161643D01*
X108773393Y-19112811D01*
X108921753Y-19033511D01*
X109051791Y-18926791D01*
X109158511Y-18796753D01*
X109237811Y-18648393D01*
X109286643Y-18487413D01*
X109303132Y-18320000D01*
X110916868Y-18320000D01*
X110933357Y-18487413D01*
X110982189Y-18648393D01*
X111061489Y-18796753D01*
X111168209Y-18926791D01*
X111298247Y-19033511D01*
X111446607Y-19112811D01*
X111607587Y-19161643D01*
X111733048Y-19174000D01*
X112416952Y-19174000D01*
X112542413Y-19161643D01*
X112703393Y-19112811D01*
X112851753Y-19033511D01*
X112981791Y-18926791D01*
X113088511Y-18796753D01*
X113167811Y-18648393D01*
X113216643Y-18487413D01*
X113233132Y-18320000D01*
X113216643Y-18152587D01*
X113167811Y-17991607D01*
X113088511Y-17843247D01*
X112981791Y-17713209D01*
X112851753Y-17606489D01*
X112703393Y-17527189D01*
X112542413Y-17478357D01*
X112416952Y-17466000D01*
X111733048Y-17466000D01*
X111607587Y-17478357D01*
X111446607Y-17527189D01*
X111298247Y-17606489D01*
X111168209Y-17713209D01*
X111061489Y-17843247D01*
X110982189Y-17991607D01*
X110933357Y-18152587D01*
X110916868Y-18320000D01*
X109303132Y-18320000D01*
X109286643Y-18152587D01*
X109237811Y-17991607D01*
X109158511Y-17843247D01*
X109051791Y-17713209D01*
X108921753Y-17606489D01*
X108773393Y-17527189D01*
X108691197Y-17502255D01*
X108716627Y-17491722D01*
X108827837Y-17417413D01*
X108922413Y-17322837D01*
X108996722Y-17211627D01*
X109047906Y-17088057D01*
X109074000Y-16956876D01*
X109074000Y-16823124D01*
X109047906Y-16691943D01*
X108996722Y-16568373D01*
X108922413Y-16457163D01*
X108827837Y-16362587D01*
X108716627Y-16288278D01*
X108593057Y-16237094D01*
X108461876Y-16211000D01*
X108328124Y-16211000D01*
X108196943Y-16237094D01*
X108073373Y-16288278D01*
X107962163Y-16362587D01*
X107867587Y-16457163D01*
X107793278Y-16568373D01*
X107742094Y-16691943D01*
X107716000Y-16823124D01*
X107716000Y-16956876D01*
X107742094Y-17088057D01*
X107793278Y-17211627D01*
X107867587Y-17322837D01*
X107962163Y-17417413D01*
X108034878Y-17466000D01*
X107303048Y-17466000D01*
X107177587Y-17478357D01*
X107016607Y-17527189D01*
X106868247Y-17606489D01*
X106738209Y-17713209D01*
X106631489Y-17843247D01*
X106597708Y-17906447D01*
X106595260Y-17881595D01*
X106560723Y-17767741D01*
X106504637Y-17662812D01*
X106458414Y-17606489D01*
X106429159Y-17570841D01*
X106406112Y-17551927D01*
X105683925Y-16829741D01*
X105676945Y-16794651D01*
X105623876Y-16666531D01*
X105546832Y-16551226D01*
X105448774Y-16453168D01*
X105333469Y-16376124D01*
X105205349Y-16323055D01*
X105069338Y-16296000D01*
X104930662Y-16296000D01*
X104794651Y-16323055D01*
X104666531Y-16376124D01*
X104551226Y-16453168D01*
X104453168Y-16551226D01*
X104376124Y-16666531D01*
X104323055Y-16794651D01*
X104296000Y-16930662D01*
X104296000Y-17069338D01*
X104323055Y-17205349D01*
X104376124Y-17333469D01*
X104453168Y-17448774D01*
X104551226Y-17546832D01*
X104666531Y-17623876D01*
X104794651Y-17676945D01*
X104829741Y-17683925D01*
X105396001Y-18250186D01*
X105396000Y-19749815D01*
X103593889Y-21551927D01*
X103570842Y-21570841D01*
X103551930Y-21593886D01*
X103495363Y-21662813D01*
X103439278Y-21767741D01*
X103404740Y-21881596D01*
X103393078Y-22000000D01*
X103396001Y-22029677D01*
X103396000Y-28749815D01*
X101829741Y-30316075D01*
X101794651Y-30323055D01*
X101666531Y-30376124D01*
X101551226Y-30453168D01*
X101453168Y-30551226D01*
X101376124Y-30666531D01*
X101366697Y-30689290D01*
X99355347Y-28677940D01*
X99340343Y-28659657D01*
X99322065Y-28644657D01*
X98479000Y-27801593D01*
X98479000Y-12016606D01*
X98546832Y-11948774D01*
X98623876Y-11833469D01*
X98676945Y-11705349D01*
X98704000Y-11569338D01*
X98704000Y-11430662D01*
X98676945Y-11294651D01*
X98623876Y-11166531D01*
X98546832Y-11051226D01*
X98448774Y-10953168D01*
X98333469Y-10876124D01*
X98205349Y-10823055D01*
X98069338Y-10796000D01*
X97930662Y-10796000D01*
X97794651Y-10823055D01*
X97666531Y-10876124D01*
X97551226Y-10953168D01*
X97453168Y-11051226D01*
X97376124Y-11166531D01*
X97323055Y-11294651D01*
X97296000Y-11430662D01*
X97296000Y-11569338D01*
X97323055Y-11705349D01*
X97376124Y-11833469D01*
X97453168Y-11948774D01*
X97521001Y-12016607D01*
X97521000Y-27976477D01*
X97518683Y-28000000D01*
X97521000Y-28023523D01*
X97521000Y-28023525D01*
X97527931Y-28093899D01*
X97555321Y-28184191D01*
X97599800Y-28267405D01*
X97659657Y-28340343D01*
X97677940Y-28355347D01*
X98521000Y-29198408D01*
X98521001Y-29976467D01*
X98518683Y-30000000D01*
X98527932Y-30093900D01*
X98555322Y-30184192D01*
X98599800Y-30267405D01*
X98629978Y-30304176D01*
X98659658Y-30340343D01*
X98677936Y-30355343D01*
X99677931Y-31355339D01*
X99732594Y-31400200D01*
X99815808Y-31444679D01*
X99906100Y-31472068D01*
X100000000Y-31481317D01*
X100093900Y-31472068D01*
X100184192Y-31444679D01*
X100267406Y-31400200D01*
X100340342Y-31340342D01*
X100400200Y-31267406D01*
X100444679Y-31184192D01*
X100459133Y-31136541D01*
X100843593Y-31521000D01*
X98198408Y-31521000D01*
X91105344Y-24427937D01*
X91105339Y-24427931D01*
X90979000Y-24301592D01*
X90979000Y-12016606D01*
X91046832Y-11948774D01*
X91123876Y-11833469D01*
X91176945Y-11705349D01*
X91204000Y-11569338D01*
X91204000Y-11430662D01*
X91176945Y-11294651D01*
X91123876Y-11166531D01*
X91046832Y-11051226D01*
X90948774Y-10953168D01*
X90833469Y-10876124D01*
X90705349Y-10823055D01*
X90569338Y-10796000D01*
X90430662Y-10796000D01*
X90294651Y-10823055D01*
X90166531Y-10876124D01*
X90051226Y-10953168D01*
X89953168Y-11051226D01*
X89876124Y-11166531D01*
X89823055Y-11294651D01*
X89796000Y-11430662D01*
X85379000Y-11430662D01*
X85379000Y-8204549D01*
X89248337Y-8204549D01*
X89309987Y-8421395D01*
X89412757Y-8622047D01*
X89552698Y-8798794D01*
X89724431Y-8944844D01*
X89921357Y-9054584D01*
X90135909Y-9123797D01*
X90175451Y-9131662D01*
X90355000Y-9074709D01*
X90355000Y-8025000D01*
X90405000Y-8025000D01*
X90405000Y-9074709D01*
X90584549Y-9131662D01*
X90624091Y-9123797D01*
X90838643Y-9054584D01*
X91035569Y-8944844D01*
X91207302Y-8798794D01*
X91347243Y-8622047D01*
X91450013Y-8421395D01*
X91511663Y-8204549D01*
X91454729Y-8025000D01*
X90405000Y-8025000D01*
X90355000Y-8025000D01*
X89305271Y-8025000D01*
X89248337Y-8204549D01*
X85379000Y-8204549D01*
X85379000Y-8018535D01*
X85400873Y-7795451D01*
X89248337Y-7795451D01*
X89305271Y-7975000D01*
X90355000Y-7975000D01*
X90355000Y-6925291D01*
X90405000Y-6925291D01*
X90405000Y-7975000D01*
X91454729Y-7975000D01*
X91484403Y-7881416D01*
X91716000Y-7881416D01*
X91716000Y-8118584D01*
X91762269Y-8351194D01*
X91853029Y-8570308D01*
X91984792Y-8767505D01*
X92152495Y-8935208D01*
X92349692Y-9066971D01*
X92568806Y-9157731D01*
X92801416Y-9204000D01*
X93038584Y-9204000D01*
X93271194Y-9157731D01*
X93490308Y-9066971D01*
X93687505Y-8935208D01*
X93855208Y-8767505D01*
X93986971Y-8570308D01*
X94077731Y-8351194D01*
X94124000Y-8118584D01*
X94124000Y-7881416D01*
X94256000Y-7881416D01*
X94256000Y-8118584D01*
X94302269Y-8351194D01*
X94393029Y-8570308D01*
X94524792Y-8767505D01*
X94692495Y-8935208D01*
X94889692Y-9066971D01*
X95108806Y-9157731D01*
X95341416Y-9204000D01*
X95578584Y-9204000D01*
X95811194Y-9157731D01*
X96030308Y-9066971D01*
X96227505Y-8935208D01*
X96395208Y-8767505D01*
X96526971Y-8570308D01*
X96617731Y-8351194D01*
X96664000Y-8118584D01*
X96664000Y-7881416D01*
X96617731Y-7648806D01*
X96526971Y-7429692D01*
X96395208Y-7232495D01*
X96312713Y-7150000D01*
X96794288Y-7150000D01*
X96794288Y-8850000D01*
X96801123Y-8919396D01*
X96821365Y-8986125D01*
X96854236Y-9047623D01*
X96898474Y-9101526D01*
X96952377Y-9145764D01*
X97013875Y-9178635D01*
X97080604Y-9198877D01*
X97150000Y-9205712D01*
X98351528Y-9205712D01*
X99396000Y-10250185D01*
X99396001Y-23636783D01*
X99376124Y-23666531D01*
X99323055Y-23794651D01*
X99296000Y-23930662D01*
X99296000Y-24069338D01*
X99323055Y-24205349D01*
X99376124Y-24333469D01*
X99453168Y-24448774D01*
X99551226Y-24546832D01*
X99666531Y-24623876D01*
X99794651Y-24676945D01*
X99930662Y-24704000D01*
X100069338Y-24704000D01*
X100205349Y-24676945D01*
X100333469Y-24623876D01*
X100448774Y-24546832D01*
X100546832Y-24448774D01*
X100623876Y-24333469D01*
X100676945Y-24205349D01*
X100704000Y-24069338D01*
X100704000Y-23930662D01*
X100676945Y-23794651D01*
X100623876Y-23666531D01*
X100604000Y-23636784D01*
X100604000Y-14930662D01*
X104296000Y-14930662D01*
X104296000Y-15069338D01*
X104323055Y-15205349D01*
X104376124Y-15333469D01*
X104453168Y-15448774D01*
X104551226Y-15546832D01*
X104666531Y-15623876D01*
X104794651Y-15676945D01*
X104930662Y-15704000D01*
X105069338Y-15704000D01*
X105205349Y-15676945D01*
X105333469Y-15623876D01*
X105448774Y-15546832D01*
X105546832Y-15448774D01*
X105623876Y-15333469D01*
X105676945Y-15205349D01*
X105704000Y-15069338D01*
X105704000Y-14938052D01*
X106305263Y-14336790D01*
X106322579Y-14322579D01*
X106379313Y-14253449D01*
X106421470Y-14174579D01*
X106447430Y-14088999D01*
X106454000Y-14022295D01*
X106454000Y-14022288D01*
X106456195Y-14000000D01*
X106454000Y-13977712D01*
X106454000Y-13541606D01*
X106546832Y-13448774D01*
X106623876Y-13333469D01*
X106676945Y-13205349D01*
X106704000Y-13069338D01*
X106704000Y-12930662D01*
X106676945Y-12794651D01*
X106623876Y-12666531D01*
X106546832Y-12551226D01*
X106448774Y-12453168D01*
X106333469Y-12376124D01*
X106205349Y-12323055D01*
X106069338Y-12296000D01*
X105930662Y-12296000D01*
X105794651Y-12323055D01*
X105666531Y-12376124D01*
X105551226Y-12453168D01*
X105453168Y-12551226D01*
X105376124Y-12666531D01*
X105323055Y-12794651D01*
X105296000Y-12930662D01*
X105296000Y-13069338D01*
X105323055Y-13205349D01*
X105376124Y-13333469D01*
X105453168Y-13448774D01*
X105546001Y-13541607D01*
X105546001Y-13811946D01*
X105061948Y-14296000D01*
X104930662Y-14296000D01*
X104794651Y-14323055D01*
X104666531Y-14376124D01*
X104551226Y-14453168D01*
X104453168Y-14551226D01*
X104376124Y-14666531D01*
X104323055Y-14794651D01*
X104296000Y-14930662D01*
X100604000Y-14930662D01*
X100604000Y-10029666D01*
X100606922Y-9999999D01*
X100595260Y-9881595D01*
X100560723Y-9767742D01*
X100560723Y-9767741D01*
X100513825Y-9680000D01*
X106486868Y-9680000D01*
X106503357Y-9847413D01*
X106552189Y-10008393D01*
X106631489Y-10156753D01*
X106738209Y-10286791D01*
X106868247Y-10393511D01*
X107016607Y-10472811D01*
X107177587Y-10521643D01*
X107303048Y-10534000D01*
X108034878Y-10534000D01*
X107962163Y-10582587D01*
X107867587Y-10677163D01*
X107793278Y-10788373D01*
X107742094Y-10911943D01*
X107716000Y-11043124D01*
X107716000Y-11176876D01*
X107742094Y-11308057D01*
X107793278Y-11431627D01*
X107867587Y-11542837D01*
X107962163Y-11637413D01*
X108073373Y-11711722D01*
X108196943Y-11762906D01*
X108328124Y-11789000D01*
X108461876Y-11789000D01*
X108593057Y-11762906D01*
X108716627Y-11711722D01*
X108827837Y-11637413D01*
X108922413Y-11542837D01*
X108996722Y-11431627D01*
X109047906Y-11308057D01*
X109074000Y-11176876D01*
X109074000Y-11043124D01*
X109047906Y-10911943D01*
X108996722Y-10788373D01*
X108922413Y-10677163D01*
X108827837Y-10582587D01*
X108716627Y-10508278D01*
X108691197Y-10497745D01*
X108773393Y-10472811D01*
X108921753Y-10393511D01*
X109051791Y-10286791D01*
X109158511Y-10156753D01*
X109237811Y-10008393D01*
X109286643Y-9847413D01*
X109303132Y-9680000D01*
X110916868Y-9680000D01*
X110933357Y-9847413D01*
X110982189Y-10008393D01*
X111061489Y-10156753D01*
X111168209Y-10286791D01*
X111298247Y-10393511D01*
X111446607Y-10472811D01*
X111607587Y-10521643D01*
X111733048Y-10534000D01*
X112416952Y-10534000D01*
X112542413Y-10521643D01*
X112703393Y-10472811D01*
X112851753Y-10393511D01*
X112981791Y-10286791D01*
X113088511Y-10156753D01*
X113167811Y-10008393D01*
X113216643Y-9847413D01*
X113233132Y-9680000D01*
X113216643Y-9512587D01*
X113167811Y-9351607D01*
X113088511Y-9203247D01*
X112981791Y-9073209D01*
X112851753Y-8966489D01*
X112703393Y-8887189D01*
X112542413Y-8838357D01*
X112416952Y-8826000D01*
X111733048Y-8826000D01*
X111607587Y-8838357D01*
X111446607Y-8887189D01*
X111298247Y-8966489D01*
X111168209Y-9073209D01*
X111061489Y-9203247D01*
X110982189Y-9351607D01*
X110933357Y-9512587D01*
X110916868Y-9680000D01*
X109303132Y-9680000D01*
X109286643Y-9512587D01*
X109237811Y-9351607D01*
X109158511Y-9203247D01*
X109051791Y-9073209D01*
X108921753Y-8966489D01*
X108773393Y-8887189D01*
X108612413Y-8838357D01*
X108486952Y-8826000D01*
X107303048Y-8826000D01*
X107177587Y-8838357D01*
X107016607Y-8887189D01*
X106868247Y-8966489D01*
X106738209Y-9073209D01*
X106631489Y-9203247D01*
X106552189Y-9351607D01*
X106503357Y-9512587D01*
X106486868Y-9680000D01*
X100513825Y-9680000D01*
X100504637Y-9662812D01*
X100429159Y-9570841D01*
X100406113Y-9551928D01*
X99205712Y-8351528D01*
X99205712Y-7908403D01*
X112070000Y-7908403D01*
X112070000Y-8091597D01*
X112105739Y-8271271D01*
X112175845Y-8440520D01*
X112277622Y-8592841D01*
X112407159Y-8722378D01*
X112559480Y-8824155D01*
X112728729Y-8894261D01*
X112908403Y-8930000D01*
X113091597Y-8930000D01*
X113271271Y-8894261D01*
X113440520Y-8824155D01*
X113592841Y-8722378D01*
X113722378Y-8592841D01*
X113824155Y-8440520D01*
X113894261Y-8271271D01*
X113930000Y-8091597D01*
X113930000Y-7908403D01*
X113894261Y-7728729D01*
X113824155Y-7559480D01*
X113722378Y-7407159D01*
X113592841Y-7277622D01*
X113440520Y-7175845D01*
X113271271Y-7105739D01*
X113091597Y-7070000D01*
X112908403Y-7070000D01*
X112728729Y-7105739D01*
X112559480Y-7175845D01*
X112407159Y-7277622D01*
X112277622Y-7407159D01*
X112175845Y-7559480D01*
X112105739Y-7728729D01*
X112070000Y-7908403D01*
X99205712Y-7908403D01*
X99205712Y-7150000D01*
X99198877Y-7080604D01*
X99178635Y-7013875D01*
X99145764Y-6952377D01*
X99101526Y-6898474D01*
X99047623Y-6854236D01*
X98986125Y-6821365D01*
X98919396Y-6801123D01*
X98850000Y-6794288D01*
X97150000Y-6794288D01*
X97080604Y-6801123D01*
X97013875Y-6821365D01*
X96952377Y-6854236D01*
X96898474Y-6898474D01*
X96854236Y-6952377D01*
X96821365Y-7013875D01*
X96801123Y-7080604D01*
X96794288Y-7150000D01*
X96312713Y-7150000D01*
X96227505Y-7064792D01*
X96030308Y-6933029D01*
X95811194Y-6842269D01*
X95578584Y-6796000D01*
X95341416Y-6796000D01*
X95108806Y-6842269D01*
X94889692Y-6933029D01*
X94692495Y-7064792D01*
X94524792Y-7232495D01*
X94393029Y-7429692D01*
X94302269Y-7648806D01*
X94256000Y-7881416D01*
X94124000Y-7881416D01*
X94077731Y-7648806D01*
X93986971Y-7429692D01*
X93855208Y-7232495D01*
X93687505Y-7064792D01*
X93490308Y-6933029D01*
X93271194Y-6842269D01*
X93038584Y-6796000D01*
X92801416Y-6796000D01*
X92568806Y-6842269D01*
X92349692Y-6933029D01*
X92152495Y-7064792D01*
X91984792Y-7232495D01*
X91853029Y-7429692D01*
X91762269Y-7648806D01*
X91716000Y-7881416D01*
X91484403Y-7881416D01*
X91511663Y-7795451D01*
X91450013Y-7578605D01*
X91347243Y-7377953D01*
X91207302Y-7201206D01*
X91035569Y-7055156D01*
X90838643Y-6945416D01*
X90624091Y-6876203D01*
X90584549Y-6868338D01*
X90405000Y-6925291D01*
X90355000Y-6925291D01*
X90175451Y-6868338D01*
X90135909Y-6876203D01*
X89921357Y-6945416D01*
X89724431Y-7055156D01*
X89552698Y-7201206D01*
X89412757Y-7377953D01*
X89309987Y-7578605D01*
X89248337Y-7795451D01*
X85400873Y-7795451D01*
X85411655Y-7685499D01*
X85502991Y-7382978D01*
X85651350Y-7103957D01*
X85851079Y-6859066D01*
X86094564Y-6657637D01*
X86372539Y-6507337D01*
X86674419Y-6413890D01*
X87006368Y-6379000D01*
X112981465Y-6379000D01*
X113314501Y-6411655D01*
G37*
G04 #@! TD.AperFunction*
M02*
