G04 #@! TF.GenerationSoftware,KiCad,Pcbnew,(5.1.12)-1*
G04 #@! TF.CreationDate,2022-06-10T12:48:04-07:00*
G04 #@! TF.ProjectId,TofArrayTest,546f6641-7272-4617-9954-6573742e6b69,rev?*
G04 #@! TF.SameCoordinates,Original*
G04 #@! TF.FileFunction,Soldermask,Top*
G04 #@! TF.FilePolarity,Negative*
%FSLAX46Y46*%
G04 Gerber Fmt 4.6, Leading zero omitted, Abs format (unit mm)*
G04 Created by KiCad (PCBNEW (5.1.12)-1) date 2022-06-10 12:48:04*
%MOMM*%
%LPD*%
G01*
G04 APERTURE LIST*
%ADD10C,2.500000*%
%ADD11C,0.700000*%
%ADD12C,0.650000*%
%ADD13C,1.500000*%
%ADD14O,2.100000X1.000000*%
%ADD15O,1.600000X1.000000*%
%ADD16C,0.650000*%
%ADD17R,1.150000X0.300000*%
%ADD18R,1.200000X0.900000*%
%ADD19R,2.000000X3.800000*%
%ADD20R,2.000000X1.500000*%
%ADD21R,3.400000X1.800000*%
%ADD22C,1.152000*%
%ADD23R,0.900000X0.800000*%
%ADD24C,0.990600*%
%ADD25C,0.787400*%
%ADD26C,2.374900*%
%ADD27O,1.750000X1.200000*%
%ADD28R,1.680000X1.880000*%
%ADD29R,0.500000X0.500000*%
%ADD30R,1.200000X1.400000*%
%ADD31R,0.900000X0.400000*%
%ADD32R,0.650000X0.850000*%
%ADD33C,1.740000*%
%ADD34R,1.100000X1.800000*%
G04 APERTURE END LIST*
D10*
X58250000Y-41000000D02*
G75*
G03*
X58250000Y-41000000I-1250000J0D01*
G01*
D11*
X59500000Y-59000000D02*
G75*
G03*
X59500000Y-59000000I-250000J0D01*
G01*
X58000000Y-59000000D02*
G75*
G03*
X58000000Y-59000000I-250000J0D01*
G01*
X56500000Y-59000000D02*
G75*
G03*
X56500000Y-59000000I-250000J0D01*
G01*
X55000000Y-59000000D02*
G75*
G03*
X55000000Y-59000000I-250000J0D01*
G01*
D12*
X52325000Y-40000000D02*
G75*
G03*
X52325000Y-40000000I-325000J0D01*
G01*
X52325000Y-58000000D02*
G75*
G03*
X52325000Y-58000000I-325000J0D01*
G01*
X248325000Y-58000000D02*
G75*
G03*
X248325000Y-58000000I-325000J0D01*
G01*
D13*
X58750000Y-57000000D02*
G75*
G03*
X58750000Y-57000000I-500000J0D01*
G01*
X56250000Y-57000000D02*
G75*
G03*
X56250000Y-57000000I-500000J0D01*
G01*
D14*
X56605000Y-45680000D03*
X56605000Y-54320000D03*
D15*
X52425000Y-45680000D03*
X52425000Y-54320000D03*
D16*
X56105000Y-52890000D03*
X56105000Y-47110000D03*
D17*
X57170000Y-53050000D03*
X57170000Y-52250000D03*
X57170000Y-51750000D03*
X57170000Y-51250000D03*
X57170000Y-50750000D03*
X57170000Y-50250000D03*
X57170000Y-49750000D03*
X57170000Y-49250000D03*
X57170000Y-48750000D03*
X57170000Y-48250000D03*
X57170000Y-47450000D03*
X57170000Y-46650000D03*
X57170000Y-46950000D03*
X57170000Y-47750000D03*
X57170000Y-52550000D03*
X57170000Y-53350000D03*
D18*
X98000000Y-43350000D03*
X98000000Y-46650000D03*
D19*
X93650000Y-45000000D03*
D20*
X87350000Y-45000000D03*
X87350000Y-47300000D03*
X87350000Y-42700000D03*
G36*
G01*
X84250000Y-48225000D02*
X83750000Y-48225000D01*
G75*
G02*
X83525000Y-48000000I0J225000D01*
G01*
X83525000Y-47550000D01*
G75*
G02*
X83750000Y-47325000I225000J0D01*
G01*
X84250000Y-47325000D01*
G75*
G02*
X84475000Y-47550000I0J-225000D01*
G01*
X84475000Y-48000000D01*
G75*
G02*
X84250000Y-48225000I-225000J0D01*
G01*
G37*
G36*
G01*
X84250000Y-46675000D02*
X83750000Y-46675000D01*
G75*
G02*
X83525000Y-46450000I0J225000D01*
G01*
X83525000Y-46000000D01*
G75*
G02*
X83750000Y-45775000I225000J0D01*
G01*
X84250000Y-45775000D01*
G75*
G02*
X84475000Y-46000000I0J-225000D01*
G01*
X84475000Y-46450000D01*
G75*
G02*
X84250000Y-46675000I-225000J0D01*
G01*
G37*
G36*
G01*
X84475000Y-44450000D02*
X83525000Y-44450000D01*
G75*
G02*
X83275000Y-44200000I0J250000D01*
G01*
X83275000Y-43700000D01*
G75*
G02*
X83525000Y-43450000I250000J0D01*
G01*
X84475000Y-43450000D01*
G75*
G02*
X84725000Y-43700000I0J-250000D01*
G01*
X84725000Y-44200000D01*
G75*
G02*
X84475000Y-44450000I-250000J0D01*
G01*
G37*
G36*
G01*
X84475000Y-42550000D02*
X83525000Y-42550000D01*
G75*
G02*
X83275000Y-42300000I0J250000D01*
G01*
X83275000Y-41800000D01*
G75*
G02*
X83525000Y-41550000I250000J0D01*
G01*
X84475000Y-41550000D01*
G75*
G02*
X84725000Y-41800000I0J-250000D01*
G01*
X84725000Y-42300000D01*
G75*
G02*
X84475000Y-42550000I-250000J0D01*
G01*
G37*
D21*
X76000000Y-43000000D03*
D22*
X52000000Y-40000000D03*
X52000000Y-58000000D03*
X248000000Y-58000000D03*
D21*
X76000000Y-46000000D03*
X62000000Y-46000000D03*
D23*
X61000000Y-49050000D03*
X61000000Y-50950000D03*
X63000000Y-50000000D03*
G36*
G01*
X70350000Y-55256250D02*
X70350000Y-54743750D01*
G75*
G02*
X70568750Y-54525000I218750J0D01*
G01*
X71006250Y-54525000D01*
G75*
G02*
X71225000Y-54743750I0J-218750D01*
G01*
X71225000Y-55256250D01*
G75*
G02*
X71006250Y-55475000I-218750J0D01*
G01*
X70568750Y-55475000D01*
G75*
G02*
X70350000Y-55256250I0J218750D01*
G01*
G37*
G36*
G01*
X68775000Y-55256250D02*
X68775000Y-54743750D01*
G75*
G02*
X68993750Y-54525000I218750J0D01*
G01*
X69431250Y-54525000D01*
G75*
G02*
X69650000Y-54743750I0J-218750D01*
G01*
X69650000Y-55256250D01*
G75*
G02*
X69431250Y-55475000I-218750J0D01*
G01*
X68993750Y-55475000D01*
G75*
G02*
X68775000Y-55256250I0J218750D01*
G01*
G37*
G36*
G01*
X110350000Y-55256250D02*
X110350000Y-54743750D01*
G75*
G02*
X110568750Y-54525000I218750J0D01*
G01*
X111006250Y-54525000D01*
G75*
G02*
X111225000Y-54743750I0J-218750D01*
G01*
X111225000Y-55256250D01*
G75*
G02*
X111006250Y-55475000I-218750J0D01*
G01*
X110568750Y-55475000D01*
G75*
G02*
X110350000Y-55256250I0J218750D01*
G01*
G37*
G36*
G01*
X108775000Y-55256250D02*
X108775000Y-54743750D01*
G75*
G02*
X108993750Y-54525000I218750J0D01*
G01*
X109431250Y-54525000D01*
G75*
G02*
X109650000Y-54743750I0J-218750D01*
G01*
X109650000Y-55256250D01*
G75*
G02*
X109431250Y-55475000I-218750J0D01*
G01*
X108993750Y-55475000D01*
G75*
G02*
X108775000Y-55256250I0J218750D01*
G01*
G37*
G36*
G01*
X148775000Y-55256250D02*
X148775000Y-54743750D01*
G75*
G02*
X148993750Y-54525000I218750J0D01*
G01*
X149431250Y-54525000D01*
G75*
G02*
X149650000Y-54743750I0J-218750D01*
G01*
X149650000Y-55256250D01*
G75*
G02*
X149431250Y-55475000I-218750J0D01*
G01*
X148993750Y-55475000D01*
G75*
G02*
X148775000Y-55256250I0J218750D01*
G01*
G37*
G36*
G01*
X150350000Y-55256250D02*
X150350000Y-54743750D01*
G75*
G02*
X150568750Y-54525000I218750J0D01*
G01*
X151006250Y-54525000D01*
G75*
G02*
X151225000Y-54743750I0J-218750D01*
G01*
X151225000Y-55256250D01*
G75*
G02*
X151006250Y-55475000I-218750J0D01*
G01*
X150568750Y-55475000D01*
G75*
G02*
X150350000Y-55256250I0J218750D01*
G01*
G37*
G36*
G01*
X190350000Y-55256250D02*
X190350000Y-54743750D01*
G75*
G02*
X190568750Y-54525000I218750J0D01*
G01*
X191006250Y-54525000D01*
G75*
G02*
X191225000Y-54743750I0J-218750D01*
G01*
X191225000Y-55256250D01*
G75*
G02*
X191006250Y-55475000I-218750J0D01*
G01*
X190568750Y-55475000D01*
G75*
G02*
X190350000Y-55256250I0J218750D01*
G01*
G37*
G36*
G01*
X188775000Y-55256250D02*
X188775000Y-54743750D01*
G75*
G02*
X188993750Y-54525000I218750J0D01*
G01*
X189431250Y-54525000D01*
G75*
G02*
X189650000Y-54743750I0J-218750D01*
G01*
X189650000Y-55256250D01*
G75*
G02*
X189431250Y-55475000I-218750J0D01*
G01*
X188993750Y-55475000D01*
G75*
G02*
X188775000Y-55256250I0J218750D01*
G01*
G37*
G36*
G01*
X228775000Y-55256250D02*
X228775000Y-54743750D01*
G75*
G02*
X228993750Y-54525000I218750J0D01*
G01*
X229431250Y-54525000D01*
G75*
G02*
X229650000Y-54743750I0J-218750D01*
G01*
X229650000Y-55256250D01*
G75*
G02*
X229431250Y-55475000I-218750J0D01*
G01*
X228993750Y-55475000D01*
G75*
G02*
X228775000Y-55256250I0J218750D01*
G01*
G37*
G36*
G01*
X230350000Y-55256250D02*
X230350000Y-54743750D01*
G75*
G02*
X230568750Y-54525000I218750J0D01*
G01*
X231006250Y-54525000D01*
G75*
G02*
X231225000Y-54743750I0J-218750D01*
G01*
X231225000Y-55256250D01*
G75*
G02*
X231006250Y-55475000I-218750J0D01*
G01*
X230568750Y-55475000D01*
G75*
G02*
X230350000Y-55256250I0J218750D01*
G01*
G37*
G36*
G01*
X138250000Y-49675000D02*
X137750000Y-49675000D01*
G75*
G02*
X137525000Y-49450000I0J225000D01*
G01*
X137525000Y-49000000D01*
G75*
G02*
X137750000Y-48775000I225000J0D01*
G01*
X138250000Y-48775000D01*
G75*
G02*
X138475000Y-49000000I0J-225000D01*
G01*
X138475000Y-49450000D01*
G75*
G02*
X138250000Y-49675000I-225000J0D01*
G01*
G37*
G36*
G01*
X138250000Y-51225000D02*
X137750000Y-51225000D01*
G75*
G02*
X137525000Y-51000000I0J225000D01*
G01*
X137525000Y-50550000D01*
G75*
G02*
X137750000Y-50325000I225000J0D01*
G01*
X138250000Y-50325000D01*
G75*
G02*
X138475000Y-50550000I0J-225000D01*
G01*
X138475000Y-51000000D01*
G75*
G02*
X138250000Y-51225000I-225000J0D01*
G01*
G37*
G36*
G01*
X139750000Y-48775000D02*
X140250000Y-48775000D01*
G75*
G02*
X140475000Y-49000000I0J-225000D01*
G01*
X140475000Y-49450000D01*
G75*
G02*
X140250000Y-49675000I-225000J0D01*
G01*
X139750000Y-49675000D01*
G75*
G02*
X139525000Y-49450000I0J225000D01*
G01*
X139525000Y-49000000D01*
G75*
G02*
X139750000Y-48775000I225000J0D01*
G01*
G37*
G36*
G01*
X139750000Y-50325000D02*
X140250000Y-50325000D01*
G75*
G02*
X140475000Y-50550000I0J-225000D01*
G01*
X140475000Y-51000000D01*
G75*
G02*
X140250000Y-51225000I-225000J0D01*
G01*
X139750000Y-51225000D01*
G75*
G02*
X139525000Y-51000000I0J225000D01*
G01*
X139525000Y-50550000D01*
G75*
G02*
X139750000Y-50325000I225000J0D01*
G01*
G37*
G36*
G01*
X134900000Y-52675000D02*
X134900000Y-52825000D01*
G75*
G02*
X134825000Y-52900000I-75000J0D01*
G01*
X133500000Y-52900000D01*
G75*
G02*
X133425000Y-52825000I0J75000D01*
G01*
X133425000Y-52675000D01*
G75*
G02*
X133500000Y-52600000I75000J0D01*
G01*
X134825000Y-52600000D01*
G75*
G02*
X134900000Y-52675000I0J-75000D01*
G01*
G37*
G36*
G01*
X134900000Y-52175000D02*
X134900000Y-52325000D01*
G75*
G02*
X134825000Y-52400000I-75000J0D01*
G01*
X133500000Y-52400000D01*
G75*
G02*
X133425000Y-52325000I0J75000D01*
G01*
X133425000Y-52175000D01*
G75*
G02*
X133500000Y-52100000I75000J0D01*
G01*
X134825000Y-52100000D01*
G75*
G02*
X134900000Y-52175000I0J-75000D01*
G01*
G37*
G36*
G01*
X134900000Y-51675000D02*
X134900000Y-51825000D01*
G75*
G02*
X134825000Y-51900000I-75000J0D01*
G01*
X133500000Y-51900000D01*
G75*
G02*
X133425000Y-51825000I0J75000D01*
G01*
X133425000Y-51675000D01*
G75*
G02*
X133500000Y-51600000I75000J0D01*
G01*
X134825000Y-51600000D01*
G75*
G02*
X134900000Y-51675000I0J-75000D01*
G01*
G37*
G36*
G01*
X134900000Y-51175000D02*
X134900000Y-51325000D01*
G75*
G02*
X134825000Y-51400000I-75000J0D01*
G01*
X133500000Y-51400000D01*
G75*
G02*
X133425000Y-51325000I0J75000D01*
G01*
X133425000Y-51175000D01*
G75*
G02*
X133500000Y-51100000I75000J0D01*
G01*
X134825000Y-51100000D01*
G75*
G02*
X134900000Y-51175000I0J-75000D01*
G01*
G37*
G36*
G01*
X134900000Y-50675000D02*
X134900000Y-50825000D01*
G75*
G02*
X134825000Y-50900000I-75000J0D01*
G01*
X133500000Y-50900000D01*
G75*
G02*
X133425000Y-50825000I0J75000D01*
G01*
X133425000Y-50675000D01*
G75*
G02*
X133500000Y-50600000I75000J0D01*
G01*
X134825000Y-50600000D01*
G75*
G02*
X134900000Y-50675000I0J-75000D01*
G01*
G37*
G36*
G01*
X134900000Y-50175000D02*
X134900000Y-50325000D01*
G75*
G02*
X134825000Y-50400000I-75000J0D01*
G01*
X133500000Y-50400000D01*
G75*
G02*
X133425000Y-50325000I0J75000D01*
G01*
X133425000Y-50175000D01*
G75*
G02*
X133500000Y-50100000I75000J0D01*
G01*
X134825000Y-50100000D01*
G75*
G02*
X134900000Y-50175000I0J-75000D01*
G01*
G37*
G36*
G01*
X134900000Y-49675000D02*
X134900000Y-49825000D01*
G75*
G02*
X134825000Y-49900000I-75000J0D01*
G01*
X133500000Y-49900000D01*
G75*
G02*
X133425000Y-49825000I0J75000D01*
G01*
X133425000Y-49675000D01*
G75*
G02*
X133500000Y-49600000I75000J0D01*
G01*
X134825000Y-49600000D01*
G75*
G02*
X134900000Y-49675000I0J-75000D01*
G01*
G37*
G36*
G01*
X134900000Y-49175000D02*
X134900000Y-49325000D01*
G75*
G02*
X134825000Y-49400000I-75000J0D01*
G01*
X133500000Y-49400000D01*
G75*
G02*
X133425000Y-49325000I0J75000D01*
G01*
X133425000Y-49175000D01*
G75*
G02*
X133500000Y-49100000I75000J0D01*
G01*
X134825000Y-49100000D01*
G75*
G02*
X134900000Y-49175000I0J-75000D01*
G01*
G37*
G36*
G01*
X134900000Y-48675000D02*
X134900000Y-48825000D01*
G75*
G02*
X134825000Y-48900000I-75000J0D01*
G01*
X133500000Y-48900000D01*
G75*
G02*
X133425000Y-48825000I0J75000D01*
G01*
X133425000Y-48675000D01*
G75*
G02*
X133500000Y-48600000I75000J0D01*
G01*
X134825000Y-48600000D01*
G75*
G02*
X134900000Y-48675000I0J-75000D01*
G01*
G37*
G36*
G01*
X134900000Y-48175000D02*
X134900000Y-48325000D01*
G75*
G02*
X134825000Y-48400000I-75000J0D01*
G01*
X133500000Y-48400000D01*
G75*
G02*
X133425000Y-48325000I0J75000D01*
G01*
X133425000Y-48175000D01*
G75*
G02*
X133500000Y-48100000I75000J0D01*
G01*
X134825000Y-48100000D01*
G75*
G02*
X134900000Y-48175000I0J-75000D01*
G01*
G37*
G36*
G01*
X134900000Y-47675000D02*
X134900000Y-47825000D01*
G75*
G02*
X134825000Y-47900000I-75000J0D01*
G01*
X133500000Y-47900000D01*
G75*
G02*
X133425000Y-47825000I0J75000D01*
G01*
X133425000Y-47675000D01*
G75*
G02*
X133500000Y-47600000I75000J0D01*
G01*
X134825000Y-47600000D01*
G75*
G02*
X134900000Y-47675000I0J-75000D01*
G01*
G37*
G36*
G01*
X134900000Y-47175000D02*
X134900000Y-47325000D01*
G75*
G02*
X134825000Y-47400000I-75000J0D01*
G01*
X133500000Y-47400000D01*
G75*
G02*
X133425000Y-47325000I0J75000D01*
G01*
X133425000Y-47175000D01*
G75*
G02*
X133500000Y-47100000I75000J0D01*
G01*
X134825000Y-47100000D01*
G75*
G02*
X134900000Y-47175000I0J-75000D01*
G01*
G37*
G36*
G01*
X132900000Y-45175000D02*
X132900000Y-46500000D01*
G75*
G02*
X132825000Y-46575000I-75000J0D01*
G01*
X132675000Y-46575000D01*
G75*
G02*
X132600000Y-46500000I0J75000D01*
G01*
X132600000Y-45175000D01*
G75*
G02*
X132675000Y-45100000I75000J0D01*
G01*
X132825000Y-45100000D01*
G75*
G02*
X132900000Y-45175000I0J-75000D01*
G01*
G37*
G36*
G01*
X132400000Y-45175000D02*
X132400000Y-46500000D01*
G75*
G02*
X132325000Y-46575000I-75000J0D01*
G01*
X132175000Y-46575000D01*
G75*
G02*
X132100000Y-46500000I0J75000D01*
G01*
X132100000Y-45175000D01*
G75*
G02*
X132175000Y-45100000I75000J0D01*
G01*
X132325000Y-45100000D01*
G75*
G02*
X132400000Y-45175000I0J-75000D01*
G01*
G37*
G36*
G01*
X131900000Y-45175000D02*
X131900000Y-46500000D01*
G75*
G02*
X131825000Y-46575000I-75000J0D01*
G01*
X131675000Y-46575000D01*
G75*
G02*
X131600000Y-46500000I0J75000D01*
G01*
X131600000Y-45175000D01*
G75*
G02*
X131675000Y-45100000I75000J0D01*
G01*
X131825000Y-45100000D01*
G75*
G02*
X131900000Y-45175000I0J-75000D01*
G01*
G37*
G36*
G01*
X131400000Y-45175000D02*
X131400000Y-46500000D01*
G75*
G02*
X131325000Y-46575000I-75000J0D01*
G01*
X131175000Y-46575000D01*
G75*
G02*
X131100000Y-46500000I0J75000D01*
G01*
X131100000Y-45175000D01*
G75*
G02*
X131175000Y-45100000I75000J0D01*
G01*
X131325000Y-45100000D01*
G75*
G02*
X131400000Y-45175000I0J-75000D01*
G01*
G37*
G36*
G01*
X130900000Y-45175000D02*
X130900000Y-46500000D01*
G75*
G02*
X130825000Y-46575000I-75000J0D01*
G01*
X130675000Y-46575000D01*
G75*
G02*
X130600000Y-46500000I0J75000D01*
G01*
X130600000Y-45175000D01*
G75*
G02*
X130675000Y-45100000I75000J0D01*
G01*
X130825000Y-45100000D01*
G75*
G02*
X130900000Y-45175000I0J-75000D01*
G01*
G37*
G36*
G01*
X130400000Y-45175000D02*
X130400000Y-46500000D01*
G75*
G02*
X130325000Y-46575000I-75000J0D01*
G01*
X130175000Y-46575000D01*
G75*
G02*
X130100000Y-46500000I0J75000D01*
G01*
X130100000Y-45175000D01*
G75*
G02*
X130175000Y-45100000I75000J0D01*
G01*
X130325000Y-45100000D01*
G75*
G02*
X130400000Y-45175000I0J-75000D01*
G01*
G37*
G36*
G01*
X129900000Y-45175000D02*
X129900000Y-46500000D01*
G75*
G02*
X129825000Y-46575000I-75000J0D01*
G01*
X129675000Y-46575000D01*
G75*
G02*
X129600000Y-46500000I0J75000D01*
G01*
X129600000Y-45175000D01*
G75*
G02*
X129675000Y-45100000I75000J0D01*
G01*
X129825000Y-45100000D01*
G75*
G02*
X129900000Y-45175000I0J-75000D01*
G01*
G37*
G36*
G01*
X129400000Y-45175000D02*
X129400000Y-46500000D01*
G75*
G02*
X129325000Y-46575000I-75000J0D01*
G01*
X129175000Y-46575000D01*
G75*
G02*
X129100000Y-46500000I0J75000D01*
G01*
X129100000Y-45175000D01*
G75*
G02*
X129175000Y-45100000I75000J0D01*
G01*
X129325000Y-45100000D01*
G75*
G02*
X129400000Y-45175000I0J-75000D01*
G01*
G37*
G36*
G01*
X128900000Y-45175000D02*
X128900000Y-46500000D01*
G75*
G02*
X128825000Y-46575000I-75000J0D01*
G01*
X128675000Y-46575000D01*
G75*
G02*
X128600000Y-46500000I0J75000D01*
G01*
X128600000Y-45175000D01*
G75*
G02*
X128675000Y-45100000I75000J0D01*
G01*
X128825000Y-45100000D01*
G75*
G02*
X128900000Y-45175000I0J-75000D01*
G01*
G37*
G36*
G01*
X128400000Y-45175000D02*
X128400000Y-46500000D01*
G75*
G02*
X128325000Y-46575000I-75000J0D01*
G01*
X128175000Y-46575000D01*
G75*
G02*
X128100000Y-46500000I0J75000D01*
G01*
X128100000Y-45175000D01*
G75*
G02*
X128175000Y-45100000I75000J0D01*
G01*
X128325000Y-45100000D01*
G75*
G02*
X128400000Y-45175000I0J-75000D01*
G01*
G37*
G36*
G01*
X127900000Y-45175000D02*
X127900000Y-46500000D01*
G75*
G02*
X127825000Y-46575000I-75000J0D01*
G01*
X127675000Y-46575000D01*
G75*
G02*
X127600000Y-46500000I0J75000D01*
G01*
X127600000Y-45175000D01*
G75*
G02*
X127675000Y-45100000I75000J0D01*
G01*
X127825000Y-45100000D01*
G75*
G02*
X127900000Y-45175000I0J-75000D01*
G01*
G37*
G36*
G01*
X127400000Y-45175000D02*
X127400000Y-46500000D01*
G75*
G02*
X127325000Y-46575000I-75000J0D01*
G01*
X127175000Y-46575000D01*
G75*
G02*
X127100000Y-46500000I0J75000D01*
G01*
X127100000Y-45175000D01*
G75*
G02*
X127175000Y-45100000I75000J0D01*
G01*
X127325000Y-45100000D01*
G75*
G02*
X127400000Y-45175000I0J-75000D01*
G01*
G37*
G36*
G01*
X126575000Y-47175000D02*
X126575000Y-47325000D01*
G75*
G02*
X126500000Y-47400000I-75000J0D01*
G01*
X125175000Y-47400000D01*
G75*
G02*
X125100000Y-47325000I0J75000D01*
G01*
X125100000Y-47175000D01*
G75*
G02*
X125175000Y-47100000I75000J0D01*
G01*
X126500000Y-47100000D01*
G75*
G02*
X126575000Y-47175000I0J-75000D01*
G01*
G37*
G36*
G01*
X126575000Y-47675000D02*
X126575000Y-47825000D01*
G75*
G02*
X126500000Y-47900000I-75000J0D01*
G01*
X125175000Y-47900000D01*
G75*
G02*
X125100000Y-47825000I0J75000D01*
G01*
X125100000Y-47675000D01*
G75*
G02*
X125175000Y-47600000I75000J0D01*
G01*
X126500000Y-47600000D01*
G75*
G02*
X126575000Y-47675000I0J-75000D01*
G01*
G37*
G36*
G01*
X126575000Y-48175000D02*
X126575000Y-48325000D01*
G75*
G02*
X126500000Y-48400000I-75000J0D01*
G01*
X125175000Y-48400000D01*
G75*
G02*
X125100000Y-48325000I0J75000D01*
G01*
X125100000Y-48175000D01*
G75*
G02*
X125175000Y-48100000I75000J0D01*
G01*
X126500000Y-48100000D01*
G75*
G02*
X126575000Y-48175000I0J-75000D01*
G01*
G37*
G36*
G01*
X126575000Y-48675000D02*
X126575000Y-48825000D01*
G75*
G02*
X126500000Y-48900000I-75000J0D01*
G01*
X125175000Y-48900000D01*
G75*
G02*
X125100000Y-48825000I0J75000D01*
G01*
X125100000Y-48675000D01*
G75*
G02*
X125175000Y-48600000I75000J0D01*
G01*
X126500000Y-48600000D01*
G75*
G02*
X126575000Y-48675000I0J-75000D01*
G01*
G37*
G36*
G01*
X126575000Y-49175000D02*
X126575000Y-49325000D01*
G75*
G02*
X126500000Y-49400000I-75000J0D01*
G01*
X125175000Y-49400000D01*
G75*
G02*
X125100000Y-49325000I0J75000D01*
G01*
X125100000Y-49175000D01*
G75*
G02*
X125175000Y-49100000I75000J0D01*
G01*
X126500000Y-49100000D01*
G75*
G02*
X126575000Y-49175000I0J-75000D01*
G01*
G37*
G36*
G01*
X126575000Y-49675000D02*
X126575000Y-49825000D01*
G75*
G02*
X126500000Y-49900000I-75000J0D01*
G01*
X125175000Y-49900000D01*
G75*
G02*
X125100000Y-49825000I0J75000D01*
G01*
X125100000Y-49675000D01*
G75*
G02*
X125175000Y-49600000I75000J0D01*
G01*
X126500000Y-49600000D01*
G75*
G02*
X126575000Y-49675000I0J-75000D01*
G01*
G37*
G36*
G01*
X126575000Y-50175000D02*
X126575000Y-50325000D01*
G75*
G02*
X126500000Y-50400000I-75000J0D01*
G01*
X125175000Y-50400000D01*
G75*
G02*
X125100000Y-50325000I0J75000D01*
G01*
X125100000Y-50175000D01*
G75*
G02*
X125175000Y-50100000I75000J0D01*
G01*
X126500000Y-50100000D01*
G75*
G02*
X126575000Y-50175000I0J-75000D01*
G01*
G37*
G36*
G01*
X126575000Y-50675000D02*
X126575000Y-50825000D01*
G75*
G02*
X126500000Y-50900000I-75000J0D01*
G01*
X125175000Y-50900000D01*
G75*
G02*
X125100000Y-50825000I0J75000D01*
G01*
X125100000Y-50675000D01*
G75*
G02*
X125175000Y-50600000I75000J0D01*
G01*
X126500000Y-50600000D01*
G75*
G02*
X126575000Y-50675000I0J-75000D01*
G01*
G37*
G36*
G01*
X126575000Y-51175000D02*
X126575000Y-51325000D01*
G75*
G02*
X126500000Y-51400000I-75000J0D01*
G01*
X125175000Y-51400000D01*
G75*
G02*
X125100000Y-51325000I0J75000D01*
G01*
X125100000Y-51175000D01*
G75*
G02*
X125175000Y-51100000I75000J0D01*
G01*
X126500000Y-51100000D01*
G75*
G02*
X126575000Y-51175000I0J-75000D01*
G01*
G37*
G36*
G01*
X126575000Y-51675000D02*
X126575000Y-51825000D01*
G75*
G02*
X126500000Y-51900000I-75000J0D01*
G01*
X125175000Y-51900000D01*
G75*
G02*
X125100000Y-51825000I0J75000D01*
G01*
X125100000Y-51675000D01*
G75*
G02*
X125175000Y-51600000I75000J0D01*
G01*
X126500000Y-51600000D01*
G75*
G02*
X126575000Y-51675000I0J-75000D01*
G01*
G37*
G36*
G01*
X126575000Y-52175000D02*
X126575000Y-52325000D01*
G75*
G02*
X126500000Y-52400000I-75000J0D01*
G01*
X125175000Y-52400000D01*
G75*
G02*
X125100000Y-52325000I0J75000D01*
G01*
X125100000Y-52175000D01*
G75*
G02*
X125175000Y-52100000I75000J0D01*
G01*
X126500000Y-52100000D01*
G75*
G02*
X126575000Y-52175000I0J-75000D01*
G01*
G37*
G36*
G01*
X126575000Y-52675000D02*
X126575000Y-52825000D01*
G75*
G02*
X126500000Y-52900000I-75000J0D01*
G01*
X125175000Y-52900000D01*
G75*
G02*
X125100000Y-52825000I0J75000D01*
G01*
X125100000Y-52675000D01*
G75*
G02*
X125175000Y-52600000I75000J0D01*
G01*
X126500000Y-52600000D01*
G75*
G02*
X126575000Y-52675000I0J-75000D01*
G01*
G37*
G36*
G01*
X127400000Y-53500000D02*
X127400000Y-54825000D01*
G75*
G02*
X127325000Y-54900000I-75000J0D01*
G01*
X127175000Y-54900000D01*
G75*
G02*
X127100000Y-54825000I0J75000D01*
G01*
X127100000Y-53500000D01*
G75*
G02*
X127175000Y-53425000I75000J0D01*
G01*
X127325000Y-53425000D01*
G75*
G02*
X127400000Y-53500000I0J-75000D01*
G01*
G37*
G36*
G01*
X127900000Y-53500000D02*
X127900000Y-54825000D01*
G75*
G02*
X127825000Y-54900000I-75000J0D01*
G01*
X127675000Y-54900000D01*
G75*
G02*
X127600000Y-54825000I0J75000D01*
G01*
X127600000Y-53500000D01*
G75*
G02*
X127675000Y-53425000I75000J0D01*
G01*
X127825000Y-53425000D01*
G75*
G02*
X127900000Y-53500000I0J-75000D01*
G01*
G37*
G36*
G01*
X128400000Y-53500000D02*
X128400000Y-54825000D01*
G75*
G02*
X128325000Y-54900000I-75000J0D01*
G01*
X128175000Y-54900000D01*
G75*
G02*
X128100000Y-54825000I0J75000D01*
G01*
X128100000Y-53500000D01*
G75*
G02*
X128175000Y-53425000I75000J0D01*
G01*
X128325000Y-53425000D01*
G75*
G02*
X128400000Y-53500000I0J-75000D01*
G01*
G37*
G36*
G01*
X128900000Y-53500000D02*
X128900000Y-54825000D01*
G75*
G02*
X128825000Y-54900000I-75000J0D01*
G01*
X128675000Y-54900000D01*
G75*
G02*
X128600000Y-54825000I0J75000D01*
G01*
X128600000Y-53500000D01*
G75*
G02*
X128675000Y-53425000I75000J0D01*
G01*
X128825000Y-53425000D01*
G75*
G02*
X128900000Y-53500000I0J-75000D01*
G01*
G37*
G36*
G01*
X129400000Y-53500000D02*
X129400000Y-54825000D01*
G75*
G02*
X129325000Y-54900000I-75000J0D01*
G01*
X129175000Y-54900000D01*
G75*
G02*
X129100000Y-54825000I0J75000D01*
G01*
X129100000Y-53500000D01*
G75*
G02*
X129175000Y-53425000I75000J0D01*
G01*
X129325000Y-53425000D01*
G75*
G02*
X129400000Y-53500000I0J-75000D01*
G01*
G37*
G36*
G01*
X129900000Y-53500000D02*
X129900000Y-54825000D01*
G75*
G02*
X129825000Y-54900000I-75000J0D01*
G01*
X129675000Y-54900000D01*
G75*
G02*
X129600000Y-54825000I0J75000D01*
G01*
X129600000Y-53500000D01*
G75*
G02*
X129675000Y-53425000I75000J0D01*
G01*
X129825000Y-53425000D01*
G75*
G02*
X129900000Y-53500000I0J-75000D01*
G01*
G37*
G36*
G01*
X130400000Y-53500000D02*
X130400000Y-54825000D01*
G75*
G02*
X130325000Y-54900000I-75000J0D01*
G01*
X130175000Y-54900000D01*
G75*
G02*
X130100000Y-54825000I0J75000D01*
G01*
X130100000Y-53500000D01*
G75*
G02*
X130175000Y-53425000I75000J0D01*
G01*
X130325000Y-53425000D01*
G75*
G02*
X130400000Y-53500000I0J-75000D01*
G01*
G37*
G36*
G01*
X130900000Y-53500000D02*
X130900000Y-54825000D01*
G75*
G02*
X130825000Y-54900000I-75000J0D01*
G01*
X130675000Y-54900000D01*
G75*
G02*
X130600000Y-54825000I0J75000D01*
G01*
X130600000Y-53500000D01*
G75*
G02*
X130675000Y-53425000I75000J0D01*
G01*
X130825000Y-53425000D01*
G75*
G02*
X130900000Y-53500000I0J-75000D01*
G01*
G37*
G36*
G01*
X131400000Y-53500000D02*
X131400000Y-54825000D01*
G75*
G02*
X131325000Y-54900000I-75000J0D01*
G01*
X131175000Y-54900000D01*
G75*
G02*
X131100000Y-54825000I0J75000D01*
G01*
X131100000Y-53500000D01*
G75*
G02*
X131175000Y-53425000I75000J0D01*
G01*
X131325000Y-53425000D01*
G75*
G02*
X131400000Y-53500000I0J-75000D01*
G01*
G37*
G36*
G01*
X131900000Y-53500000D02*
X131900000Y-54825000D01*
G75*
G02*
X131825000Y-54900000I-75000J0D01*
G01*
X131675000Y-54900000D01*
G75*
G02*
X131600000Y-54825000I0J75000D01*
G01*
X131600000Y-53500000D01*
G75*
G02*
X131675000Y-53425000I75000J0D01*
G01*
X131825000Y-53425000D01*
G75*
G02*
X131900000Y-53500000I0J-75000D01*
G01*
G37*
G36*
G01*
X132400000Y-53500000D02*
X132400000Y-54825000D01*
G75*
G02*
X132325000Y-54900000I-75000J0D01*
G01*
X132175000Y-54900000D01*
G75*
G02*
X132100000Y-54825000I0J75000D01*
G01*
X132100000Y-53500000D01*
G75*
G02*
X132175000Y-53425000I75000J0D01*
G01*
X132325000Y-53425000D01*
G75*
G02*
X132400000Y-53500000I0J-75000D01*
G01*
G37*
G36*
G01*
X132900000Y-53500000D02*
X132900000Y-54825000D01*
G75*
G02*
X132825000Y-54900000I-75000J0D01*
G01*
X132675000Y-54900000D01*
G75*
G02*
X132600000Y-54825000I0J75000D01*
G01*
X132600000Y-53500000D01*
G75*
G02*
X132675000Y-53425000I75000J0D01*
G01*
X132825000Y-53425000D01*
G75*
G02*
X132900000Y-53500000I0J-75000D01*
G01*
G37*
G36*
G01*
X135550000Y-57475000D02*
X135550000Y-56525000D01*
G75*
G02*
X135800000Y-56275000I250000J0D01*
G01*
X136300000Y-56275000D01*
G75*
G02*
X136550000Y-56525000I0J-250000D01*
G01*
X136550000Y-57475000D01*
G75*
G02*
X136300000Y-57725000I-250000J0D01*
G01*
X135800000Y-57725000D01*
G75*
G02*
X135550000Y-57475000I0J250000D01*
G01*
G37*
G36*
G01*
X137450000Y-57475000D02*
X137450000Y-56525000D01*
G75*
G02*
X137700000Y-56275000I250000J0D01*
G01*
X138200000Y-56275000D01*
G75*
G02*
X138450000Y-56525000I0J-250000D01*
G01*
X138450000Y-57475000D01*
G75*
G02*
X138200000Y-57725000I-250000J0D01*
G01*
X137700000Y-57725000D01*
G75*
G02*
X137450000Y-57475000I0J250000D01*
G01*
G37*
G36*
G01*
X124225000Y-44750000D02*
X124225000Y-45250000D01*
G75*
G02*
X124000000Y-45475000I-225000J0D01*
G01*
X123550000Y-45475000D01*
G75*
G02*
X123325000Y-45250000I0J225000D01*
G01*
X123325000Y-44750000D01*
G75*
G02*
X123550000Y-44525000I225000J0D01*
G01*
X124000000Y-44525000D01*
G75*
G02*
X124225000Y-44750000I0J-225000D01*
G01*
G37*
G36*
G01*
X122675000Y-44750000D02*
X122675000Y-45250000D01*
G75*
G02*
X122450000Y-45475000I-225000J0D01*
G01*
X122000000Y-45475000D01*
G75*
G02*
X121775000Y-45250000I0J225000D01*
G01*
X121775000Y-44750000D01*
G75*
G02*
X122000000Y-44525000I225000J0D01*
G01*
X122450000Y-44525000D01*
G75*
G02*
X122675000Y-44750000I0J-225000D01*
G01*
G37*
G36*
G01*
X122675000Y-54750000D02*
X122675000Y-55250000D01*
G75*
G02*
X122450000Y-55475000I-225000J0D01*
G01*
X122000000Y-55475000D01*
G75*
G02*
X121775000Y-55250000I0J225000D01*
G01*
X121775000Y-54750000D01*
G75*
G02*
X122000000Y-54525000I225000J0D01*
G01*
X122450000Y-54525000D01*
G75*
G02*
X122675000Y-54750000I0J-225000D01*
G01*
G37*
G36*
G01*
X124225000Y-54750000D02*
X124225000Y-55250000D01*
G75*
G02*
X124000000Y-55475000I-225000J0D01*
G01*
X123550000Y-55475000D01*
G75*
G02*
X123325000Y-55250000I0J225000D01*
G01*
X123325000Y-54750000D01*
G75*
G02*
X123550000Y-54525000I225000J0D01*
G01*
X124000000Y-54525000D01*
G75*
G02*
X124225000Y-54750000I0J-225000D01*
G01*
G37*
G36*
G01*
X135775000Y-55250000D02*
X135775000Y-54750000D01*
G75*
G02*
X136000000Y-54525000I225000J0D01*
G01*
X136450000Y-54525000D01*
G75*
G02*
X136675000Y-54750000I0J-225000D01*
G01*
X136675000Y-55250000D01*
G75*
G02*
X136450000Y-55475000I-225000J0D01*
G01*
X136000000Y-55475000D01*
G75*
G02*
X135775000Y-55250000I0J225000D01*
G01*
G37*
G36*
G01*
X137325000Y-55250000D02*
X137325000Y-54750000D01*
G75*
G02*
X137550000Y-54525000I225000J0D01*
G01*
X138000000Y-54525000D01*
G75*
G02*
X138225000Y-54750000I0J-225000D01*
G01*
X138225000Y-55250000D01*
G75*
G02*
X138000000Y-55475000I-225000J0D01*
G01*
X137550000Y-55475000D01*
G75*
G02*
X137325000Y-55250000I0J225000D01*
G01*
G37*
G36*
G01*
X63225000Y-53725000D02*
X63225000Y-54275000D01*
G75*
G02*
X63025000Y-54475000I-200000J0D01*
G01*
X62625000Y-54475000D01*
G75*
G02*
X62425000Y-54275000I0J200000D01*
G01*
X62425000Y-53725000D01*
G75*
G02*
X62625000Y-53525000I200000J0D01*
G01*
X63025000Y-53525000D01*
G75*
G02*
X63225000Y-53725000I0J-200000D01*
G01*
G37*
G36*
G01*
X61575000Y-53725000D02*
X61575000Y-54275000D01*
G75*
G02*
X61375000Y-54475000I-200000J0D01*
G01*
X60975000Y-54475000D01*
G75*
G02*
X60775000Y-54275000I0J200000D01*
G01*
X60775000Y-53725000D01*
G75*
G02*
X60975000Y-53525000I200000J0D01*
G01*
X61375000Y-53525000D01*
G75*
G02*
X61575000Y-53725000I0J-200000D01*
G01*
G37*
G36*
G01*
X137325000Y-45250000D02*
X137325000Y-44750000D01*
G75*
G02*
X137550000Y-44525000I225000J0D01*
G01*
X138000000Y-44525000D01*
G75*
G02*
X138225000Y-44750000I0J-225000D01*
G01*
X138225000Y-45250000D01*
G75*
G02*
X138000000Y-45475000I-225000J0D01*
G01*
X137550000Y-45475000D01*
G75*
G02*
X137325000Y-45250000I0J225000D01*
G01*
G37*
G36*
G01*
X135775000Y-45250000D02*
X135775000Y-44750000D01*
G75*
G02*
X136000000Y-44525000I225000J0D01*
G01*
X136450000Y-44525000D01*
G75*
G02*
X136675000Y-44750000I0J-225000D01*
G01*
X136675000Y-45250000D01*
G75*
G02*
X136450000Y-45475000I-225000J0D01*
G01*
X136000000Y-45475000D01*
G75*
G02*
X135775000Y-45250000I0J225000D01*
G01*
G37*
G36*
G01*
X135775000Y-43250000D02*
X135775000Y-42750000D01*
G75*
G02*
X136000000Y-42525000I225000J0D01*
G01*
X136450000Y-42525000D01*
G75*
G02*
X136675000Y-42750000I0J-225000D01*
G01*
X136675000Y-43250000D01*
G75*
G02*
X136450000Y-43475000I-225000J0D01*
G01*
X136000000Y-43475000D01*
G75*
G02*
X135775000Y-43250000I0J225000D01*
G01*
G37*
G36*
G01*
X137325000Y-43250000D02*
X137325000Y-42750000D01*
G75*
G02*
X137550000Y-42525000I225000J0D01*
G01*
X138000000Y-42525000D01*
G75*
G02*
X138225000Y-42750000I0J-225000D01*
G01*
X138225000Y-43250000D01*
G75*
G02*
X138000000Y-43475000I-225000J0D01*
G01*
X137550000Y-43475000D01*
G75*
G02*
X137325000Y-43250000I0J225000D01*
G01*
G37*
G36*
G01*
X77225000Y-48725000D02*
X77225000Y-49275000D01*
G75*
G02*
X77025000Y-49475000I-200000J0D01*
G01*
X76625000Y-49475000D01*
G75*
G02*
X76425000Y-49275000I0J200000D01*
G01*
X76425000Y-48725000D01*
G75*
G02*
X76625000Y-48525000I200000J0D01*
G01*
X77025000Y-48525000D01*
G75*
G02*
X77225000Y-48725000I0J-200000D01*
G01*
G37*
G36*
G01*
X75575000Y-48725000D02*
X75575000Y-49275000D01*
G75*
G02*
X75375000Y-49475000I-200000J0D01*
G01*
X74975000Y-49475000D01*
G75*
G02*
X74775000Y-49275000I0J200000D01*
G01*
X74775000Y-48725000D01*
G75*
G02*
X74975000Y-48525000I200000J0D01*
G01*
X75375000Y-48525000D01*
G75*
G02*
X75575000Y-48725000I0J-200000D01*
G01*
G37*
G36*
G01*
X77225000Y-50725000D02*
X77225000Y-51275000D01*
G75*
G02*
X77025000Y-51475000I-200000J0D01*
G01*
X76625000Y-51475000D01*
G75*
G02*
X76425000Y-51275000I0J200000D01*
G01*
X76425000Y-50725000D01*
G75*
G02*
X76625000Y-50525000I200000J0D01*
G01*
X77025000Y-50525000D01*
G75*
G02*
X77225000Y-50725000I0J-200000D01*
G01*
G37*
G36*
G01*
X75575000Y-50725000D02*
X75575000Y-51275000D01*
G75*
G02*
X75375000Y-51475000I-200000J0D01*
G01*
X74975000Y-51475000D01*
G75*
G02*
X74775000Y-51275000I0J200000D01*
G01*
X74775000Y-50725000D01*
G75*
G02*
X74975000Y-50525000I200000J0D01*
G01*
X75375000Y-50525000D01*
G75*
G02*
X75575000Y-50725000I0J-200000D01*
G01*
G37*
D24*
X86190000Y-55016000D03*
X86190000Y-52984000D03*
X93810000Y-54000000D03*
D25*
X92540000Y-53365000D03*
X91270000Y-53365000D03*
X90000000Y-53365000D03*
X88730000Y-53365000D03*
X87460000Y-53365000D03*
X87460000Y-54635000D03*
X88730000Y-54635000D03*
X90000000Y-54635000D03*
X91270000Y-54635000D03*
X92540000Y-54635000D03*
D26*
X93810000Y-56540000D03*
X93810000Y-51460000D03*
X88095000Y-51460000D03*
X88095000Y-56540000D03*
G36*
G01*
X178374999Y-48400000D02*
X179625001Y-48400000D01*
G75*
G02*
X179875000Y-48649999I0J-249999D01*
G01*
X179875000Y-49350001D01*
G75*
G02*
X179625001Y-49600000I-249999J0D01*
G01*
X178374999Y-49600000D01*
G75*
G02*
X178125000Y-49350001I0J249999D01*
G01*
X178125000Y-48649999D01*
G75*
G02*
X178374999Y-48400000I249999J0D01*
G01*
G37*
D27*
X179000000Y-51000000D03*
G36*
G01*
X159675000Y-48750000D02*
X159675000Y-49250000D01*
G75*
G02*
X159450000Y-49475000I-225000J0D01*
G01*
X159000000Y-49475000D01*
G75*
G02*
X158775000Y-49250000I0J225000D01*
G01*
X158775000Y-48750000D01*
G75*
G02*
X159000000Y-48525000I225000J0D01*
G01*
X159450000Y-48525000D01*
G75*
G02*
X159675000Y-48750000I0J-225000D01*
G01*
G37*
G36*
G01*
X161225000Y-48750000D02*
X161225000Y-49250000D01*
G75*
G02*
X161000000Y-49475000I-225000J0D01*
G01*
X160550000Y-49475000D01*
G75*
G02*
X160325000Y-49250000I0J225000D01*
G01*
X160325000Y-48750000D01*
G75*
G02*
X160550000Y-48525000I225000J0D01*
G01*
X161000000Y-48525000D01*
G75*
G02*
X161225000Y-48750000I0J-225000D01*
G01*
G37*
G36*
G01*
X160425000Y-51275000D02*
X160425000Y-50725000D01*
G75*
G02*
X160625000Y-50525000I200000J0D01*
G01*
X161025000Y-50525000D01*
G75*
G02*
X161225000Y-50725000I0J-200000D01*
G01*
X161225000Y-51275000D01*
G75*
G02*
X161025000Y-51475000I-200000J0D01*
G01*
X160625000Y-51475000D01*
G75*
G02*
X160425000Y-51275000I0J200000D01*
G01*
G37*
G36*
G01*
X158775000Y-51275000D02*
X158775000Y-50725000D01*
G75*
G02*
X158975000Y-50525000I200000J0D01*
G01*
X159375000Y-50525000D01*
G75*
G02*
X159575000Y-50725000I0J-200000D01*
G01*
X159575000Y-51275000D01*
G75*
G02*
X159375000Y-51475000I-200000J0D01*
G01*
X158975000Y-51475000D01*
G75*
G02*
X158775000Y-51275000I0J200000D01*
G01*
G37*
G36*
G01*
X171450000Y-54525000D02*
X171450000Y-55475000D01*
G75*
G02*
X171200000Y-55725000I-250000J0D01*
G01*
X170700000Y-55725000D01*
G75*
G02*
X170450000Y-55475000I0J250000D01*
G01*
X170450000Y-54525000D01*
G75*
G02*
X170700000Y-54275000I250000J0D01*
G01*
X171200000Y-54275000D01*
G75*
G02*
X171450000Y-54525000I0J-250000D01*
G01*
G37*
G36*
G01*
X169550000Y-54525000D02*
X169550000Y-55475000D01*
G75*
G02*
X169300000Y-55725000I-250000J0D01*
G01*
X168800000Y-55725000D01*
G75*
G02*
X168550000Y-55475000I0J250000D01*
G01*
X168550000Y-54525000D01*
G75*
G02*
X168800000Y-54275000I250000J0D01*
G01*
X169300000Y-54275000D01*
G75*
G02*
X169550000Y-54525000I0J-250000D01*
G01*
G37*
G36*
G01*
X167125000Y-49125000D02*
X167125000Y-48925000D01*
G75*
G02*
X167225000Y-48825000I100000J0D01*
G01*
X168475000Y-48825000D01*
G75*
G02*
X168575000Y-48925000I0J-100000D01*
G01*
X168575000Y-49125000D01*
G75*
G02*
X168475000Y-49225000I-100000J0D01*
G01*
X167225000Y-49225000D01*
G75*
G02*
X167125000Y-49125000I0J100000D01*
G01*
G37*
G36*
G01*
X167125000Y-49775000D02*
X167125000Y-49575000D01*
G75*
G02*
X167225000Y-49475000I100000J0D01*
G01*
X168475000Y-49475000D01*
G75*
G02*
X168575000Y-49575000I0J-100000D01*
G01*
X168575000Y-49775000D01*
G75*
G02*
X168475000Y-49875000I-100000J0D01*
G01*
X167225000Y-49875000D01*
G75*
G02*
X167125000Y-49775000I0J100000D01*
G01*
G37*
G36*
G01*
X167125000Y-50425000D02*
X167125000Y-50225000D01*
G75*
G02*
X167225000Y-50125000I100000J0D01*
G01*
X168475000Y-50125000D01*
G75*
G02*
X168575000Y-50225000I0J-100000D01*
G01*
X168575000Y-50425000D01*
G75*
G02*
X168475000Y-50525000I-100000J0D01*
G01*
X167225000Y-50525000D01*
G75*
G02*
X167125000Y-50425000I0J100000D01*
G01*
G37*
G36*
G01*
X167125000Y-51075000D02*
X167125000Y-50875000D01*
G75*
G02*
X167225000Y-50775000I100000J0D01*
G01*
X168475000Y-50775000D01*
G75*
G02*
X168575000Y-50875000I0J-100000D01*
G01*
X168575000Y-51075000D01*
G75*
G02*
X168475000Y-51175000I-100000J0D01*
G01*
X167225000Y-51175000D01*
G75*
G02*
X167125000Y-51075000I0J100000D01*
G01*
G37*
G36*
G01*
X171425000Y-51075000D02*
X171425000Y-50875000D01*
G75*
G02*
X171525000Y-50775000I100000J0D01*
G01*
X172775000Y-50775000D01*
G75*
G02*
X172875000Y-50875000I0J-100000D01*
G01*
X172875000Y-51075000D01*
G75*
G02*
X172775000Y-51175000I-100000J0D01*
G01*
X171525000Y-51175000D01*
G75*
G02*
X171425000Y-51075000I0J100000D01*
G01*
G37*
G36*
G01*
X171425000Y-50425000D02*
X171425000Y-50225000D01*
G75*
G02*
X171525000Y-50125000I100000J0D01*
G01*
X172775000Y-50125000D01*
G75*
G02*
X172875000Y-50225000I0J-100000D01*
G01*
X172875000Y-50425000D01*
G75*
G02*
X172775000Y-50525000I-100000J0D01*
G01*
X171525000Y-50525000D01*
G75*
G02*
X171425000Y-50425000I0J100000D01*
G01*
G37*
G36*
G01*
X171425000Y-49775000D02*
X171425000Y-49575000D01*
G75*
G02*
X171525000Y-49475000I100000J0D01*
G01*
X172775000Y-49475000D01*
G75*
G02*
X172875000Y-49575000I0J-100000D01*
G01*
X172875000Y-49775000D01*
G75*
G02*
X172775000Y-49875000I-100000J0D01*
G01*
X171525000Y-49875000D01*
G75*
G02*
X171425000Y-49775000I0J100000D01*
G01*
G37*
G36*
G01*
X171425000Y-49125000D02*
X171425000Y-48925000D01*
G75*
G02*
X171525000Y-48825000I100000J0D01*
G01*
X172775000Y-48825000D01*
G75*
G02*
X172875000Y-48925000I0J-100000D01*
G01*
X172875000Y-49125000D01*
G75*
G02*
X172775000Y-49225000I-100000J0D01*
G01*
X171525000Y-49225000D01*
G75*
G02*
X171425000Y-49125000I0J100000D01*
G01*
G37*
D28*
X170000000Y-50000000D03*
G36*
G01*
X165225000Y-46750000D02*
X165225000Y-47250000D01*
G75*
G02*
X165000000Y-47475000I-225000J0D01*
G01*
X164550000Y-47475000D01*
G75*
G02*
X164325000Y-47250000I0J225000D01*
G01*
X164325000Y-46750000D01*
G75*
G02*
X164550000Y-46525000I225000J0D01*
G01*
X165000000Y-46525000D01*
G75*
G02*
X165225000Y-46750000I0J-225000D01*
G01*
G37*
G36*
G01*
X163675000Y-46750000D02*
X163675000Y-47250000D01*
G75*
G02*
X163450000Y-47475000I-225000J0D01*
G01*
X163000000Y-47475000D01*
G75*
G02*
X162775000Y-47250000I0J225000D01*
G01*
X162775000Y-46750000D01*
G75*
G02*
X163000000Y-46525000I225000J0D01*
G01*
X163450000Y-46525000D01*
G75*
G02*
X163675000Y-46750000I0J-225000D01*
G01*
G37*
G36*
G01*
X164425000Y-49275000D02*
X164425000Y-48725000D01*
G75*
G02*
X164625000Y-48525000I200000J0D01*
G01*
X165025000Y-48525000D01*
G75*
G02*
X165225000Y-48725000I0J-200000D01*
G01*
X165225000Y-49275000D01*
G75*
G02*
X165025000Y-49475000I-200000J0D01*
G01*
X164625000Y-49475000D01*
G75*
G02*
X164425000Y-49275000I0J200000D01*
G01*
G37*
G36*
G01*
X162775000Y-49275000D02*
X162775000Y-48725000D01*
G75*
G02*
X162975000Y-48525000I200000J0D01*
G01*
X163375000Y-48525000D01*
G75*
G02*
X163575000Y-48725000I0J-200000D01*
G01*
X163575000Y-49275000D01*
G75*
G02*
X163375000Y-49475000I-200000J0D01*
G01*
X162975000Y-49475000D01*
G75*
G02*
X162775000Y-49275000I0J200000D01*
G01*
G37*
G36*
G01*
X163675000Y-52750000D02*
X163675000Y-53250000D01*
G75*
G02*
X163450000Y-53475000I-225000J0D01*
G01*
X163000000Y-53475000D01*
G75*
G02*
X162775000Y-53250000I0J225000D01*
G01*
X162775000Y-52750000D01*
G75*
G02*
X163000000Y-52525000I225000J0D01*
G01*
X163450000Y-52525000D01*
G75*
G02*
X163675000Y-52750000I0J-225000D01*
G01*
G37*
G36*
G01*
X165225000Y-52750000D02*
X165225000Y-53250000D01*
G75*
G02*
X165000000Y-53475000I-225000J0D01*
G01*
X164550000Y-53475000D01*
G75*
G02*
X164325000Y-53250000I0J225000D01*
G01*
X164325000Y-52750000D01*
G75*
G02*
X164550000Y-52525000I225000J0D01*
G01*
X165000000Y-52525000D01*
G75*
G02*
X165225000Y-52750000I0J-225000D01*
G01*
G37*
G36*
G01*
X162775000Y-51275000D02*
X162775000Y-50725000D01*
G75*
G02*
X162975000Y-50525000I200000J0D01*
G01*
X163375000Y-50525000D01*
G75*
G02*
X163575000Y-50725000I0J-200000D01*
G01*
X163575000Y-51275000D01*
G75*
G02*
X163375000Y-51475000I-200000J0D01*
G01*
X162975000Y-51475000D01*
G75*
G02*
X162775000Y-51275000I0J200000D01*
G01*
G37*
G36*
G01*
X164425000Y-51275000D02*
X164425000Y-50725000D01*
G75*
G02*
X164625000Y-50525000I200000J0D01*
G01*
X165025000Y-50525000D01*
G75*
G02*
X165225000Y-50725000I0J-200000D01*
G01*
X165225000Y-51275000D01*
G75*
G02*
X165025000Y-51475000I-200000J0D01*
G01*
X164625000Y-51475000D01*
G75*
G02*
X164425000Y-51275000I0J200000D01*
G01*
G37*
G36*
G01*
X171225000Y-52750000D02*
X171225000Y-53250000D01*
G75*
G02*
X171000000Y-53475000I-225000J0D01*
G01*
X170550000Y-53475000D01*
G75*
G02*
X170325000Y-53250000I0J225000D01*
G01*
X170325000Y-52750000D01*
G75*
G02*
X170550000Y-52525000I225000J0D01*
G01*
X171000000Y-52525000D01*
G75*
G02*
X171225000Y-52750000I0J-225000D01*
G01*
G37*
G36*
G01*
X169675000Y-52750000D02*
X169675000Y-53250000D01*
G75*
G02*
X169450000Y-53475000I-225000J0D01*
G01*
X169000000Y-53475000D01*
G75*
G02*
X168775000Y-53250000I0J225000D01*
G01*
X168775000Y-52750000D01*
G75*
G02*
X169000000Y-52525000I225000J0D01*
G01*
X169450000Y-52525000D01*
G75*
G02*
X169675000Y-52750000I0J-225000D01*
G01*
G37*
D29*
X70800000Y-48400000D03*
X70790000Y-49200000D03*
X70800000Y-50000000D03*
X70800000Y-50800000D03*
X70800000Y-51600000D03*
X70000000Y-51600000D03*
X69200000Y-51600000D03*
X69200000Y-50800000D03*
X69200000Y-50000000D03*
X69200000Y-49200000D03*
X69200000Y-48400000D03*
X70000000Y-48400000D03*
X110000000Y-48400000D03*
X109200000Y-48400000D03*
X109200000Y-49200000D03*
X109200000Y-50000000D03*
X109200000Y-50800000D03*
X109200000Y-51600000D03*
X110000000Y-51600000D03*
X110800000Y-51600000D03*
X110800000Y-50800000D03*
X110800000Y-50000000D03*
X110790000Y-49200000D03*
X110800000Y-48400000D03*
X150800000Y-48400000D03*
X150790000Y-49200000D03*
X150800000Y-50000000D03*
X150800000Y-50800000D03*
X150800000Y-51600000D03*
X150000000Y-51600000D03*
X149200000Y-51600000D03*
X149200000Y-50800000D03*
X149200000Y-50000000D03*
X149200000Y-49200000D03*
X149200000Y-48400000D03*
X150000000Y-48400000D03*
X190000000Y-48400000D03*
X189200000Y-48400000D03*
X189200000Y-49200000D03*
X189200000Y-50000000D03*
X189200000Y-50800000D03*
X189200000Y-51600000D03*
X190000000Y-51600000D03*
X190800000Y-51600000D03*
X190800000Y-50800000D03*
X190800000Y-50000000D03*
X190790000Y-49200000D03*
X190800000Y-48400000D03*
X230800000Y-48400000D03*
X230790000Y-49200000D03*
X230800000Y-50000000D03*
X230800000Y-50800000D03*
X230800000Y-51600000D03*
X230000000Y-51600000D03*
X229200000Y-51600000D03*
X229200000Y-50800000D03*
X229200000Y-50000000D03*
X229200000Y-49200000D03*
X229200000Y-48400000D03*
X230000000Y-48400000D03*
G36*
G01*
X70325000Y-45250000D02*
X70325000Y-44750000D01*
G75*
G02*
X70550000Y-44525000I225000J0D01*
G01*
X71000000Y-44525000D01*
G75*
G02*
X71225000Y-44750000I0J-225000D01*
G01*
X71225000Y-45250000D01*
G75*
G02*
X71000000Y-45475000I-225000J0D01*
G01*
X70550000Y-45475000D01*
G75*
G02*
X70325000Y-45250000I0J225000D01*
G01*
G37*
G36*
G01*
X68775000Y-45250000D02*
X68775000Y-44750000D01*
G75*
G02*
X69000000Y-44525000I225000J0D01*
G01*
X69450000Y-44525000D01*
G75*
G02*
X69675000Y-44750000I0J-225000D01*
G01*
X69675000Y-45250000D01*
G75*
G02*
X69450000Y-45475000I-225000J0D01*
G01*
X69000000Y-45475000D01*
G75*
G02*
X68775000Y-45250000I0J225000D01*
G01*
G37*
G36*
G01*
X68550000Y-43475000D02*
X68550000Y-42525000D01*
G75*
G02*
X68800000Y-42275000I250000J0D01*
G01*
X69300000Y-42275000D01*
G75*
G02*
X69550000Y-42525000I0J-250000D01*
G01*
X69550000Y-43475000D01*
G75*
G02*
X69300000Y-43725000I-250000J0D01*
G01*
X68800000Y-43725000D01*
G75*
G02*
X68550000Y-43475000I0J250000D01*
G01*
G37*
G36*
G01*
X70450000Y-43475000D02*
X70450000Y-42525000D01*
G75*
G02*
X70700000Y-42275000I250000J0D01*
G01*
X71200000Y-42275000D01*
G75*
G02*
X71450000Y-42525000I0J-250000D01*
G01*
X71450000Y-43475000D01*
G75*
G02*
X71200000Y-43725000I-250000J0D01*
G01*
X70700000Y-43725000D01*
G75*
G02*
X70450000Y-43475000I0J250000D01*
G01*
G37*
G36*
G01*
X108775000Y-45250000D02*
X108775000Y-44750000D01*
G75*
G02*
X109000000Y-44525000I225000J0D01*
G01*
X109450000Y-44525000D01*
G75*
G02*
X109675000Y-44750000I0J-225000D01*
G01*
X109675000Y-45250000D01*
G75*
G02*
X109450000Y-45475000I-225000J0D01*
G01*
X109000000Y-45475000D01*
G75*
G02*
X108775000Y-45250000I0J225000D01*
G01*
G37*
G36*
G01*
X110325000Y-45250000D02*
X110325000Y-44750000D01*
G75*
G02*
X110550000Y-44525000I225000J0D01*
G01*
X111000000Y-44525000D01*
G75*
G02*
X111225000Y-44750000I0J-225000D01*
G01*
X111225000Y-45250000D01*
G75*
G02*
X111000000Y-45475000I-225000J0D01*
G01*
X110550000Y-45475000D01*
G75*
G02*
X110325000Y-45250000I0J225000D01*
G01*
G37*
G36*
G01*
X108550000Y-43475000D02*
X108550000Y-42525000D01*
G75*
G02*
X108800000Y-42275000I250000J0D01*
G01*
X109300000Y-42275000D01*
G75*
G02*
X109550000Y-42525000I0J-250000D01*
G01*
X109550000Y-43475000D01*
G75*
G02*
X109300000Y-43725000I-250000J0D01*
G01*
X108800000Y-43725000D01*
G75*
G02*
X108550000Y-43475000I0J250000D01*
G01*
G37*
G36*
G01*
X110450000Y-43475000D02*
X110450000Y-42525000D01*
G75*
G02*
X110700000Y-42275000I250000J0D01*
G01*
X111200000Y-42275000D01*
G75*
G02*
X111450000Y-42525000I0J-250000D01*
G01*
X111450000Y-43475000D01*
G75*
G02*
X111200000Y-43725000I-250000J0D01*
G01*
X110700000Y-43725000D01*
G75*
G02*
X110450000Y-43475000I0J250000D01*
G01*
G37*
G36*
G01*
X148775000Y-45250000D02*
X148775000Y-44750000D01*
G75*
G02*
X149000000Y-44525000I225000J0D01*
G01*
X149450000Y-44525000D01*
G75*
G02*
X149675000Y-44750000I0J-225000D01*
G01*
X149675000Y-45250000D01*
G75*
G02*
X149450000Y-45475000I-225000J0D01*
G01*
X149000000Y-45475000D01*
G75*
G02*
X148775000Y-45250000I0J225000D01*
G01*
G37*
G36*
G01*
X150325000Y-45250000D02*
X150325000Y-44750000D01*
G75*
G02*
X150550000Y-44525000I225000J0D01*
G01*
X151000000Y-44525000D01*
G75*
G02*
X151225000Y-44750000I0J-225000D01*
G01*
X151225000Y-45250000D01*
G75*
G02*
X151000000Y-45475000I-225000J0D01*
G01*
X150550000Y-45475000D01*
G75*
G02*
X150325000Y-45250000I0J225000D01*
G01*
G37*
G36*
G01*
X150450000Y-43475000D02*
X150450000Y-42525000D01*
G75*
G02*
X150700000Y-42275000I250000J0D01*
G01*
X151200000Y-42275000D01*
G75*
G02*
X151450000Y-42525000I0J-250000D01*
G01*
X151450000Y-43475000D01*
G75*
G02*
X151200000Y-43725000I-250000J0D01*
G01*
X150700000Y-43725000D01*
G75*
G02*
X150450000Y-43475000I0J250000D01*
G01*
G37*
G36*
G01*
X148550000Y-43475000D02*
X148550000Y-42525000D01*
G75*
G02*
X148800000Y-42275000I250000J0D01*
G01*
X149300000Y-42275000D01*
G75*
G02*
X149550000Y-42525000I0J-250000D01*
G01*
X149550000Y-43475000D01*
G75*
G02*
X149300000Y-43725000I-250000J0D01*
G01*
X148800000Y-43725000D01*
G75*
G02*
X148550000Y-43475000I0J250000D01*
G01*
G37*
G36*
G01*
X190325000Y-45250000D02*
X190325000Y-44750000D01*
G75*
G02*
X190550000Y-44525000I225000J0D01*
G01*
X191000000Y-44525000D01*
G75*
G02*
X191225000Y-44750000I0J-225000D01*
G01*
X191225000Y-45250000D01*
G75*
G02*
X191000000Y-45475000I-225000J0D01*
G01*
X190550000Y-45475000D01*
G75*
G02*
X190325000Y-45250000I0J225000D01*
G01*
G37*
G36*
G01*
X188775000Y-45250000D02*
X188775000Y-44750000D01*
G75*
G02*
X189000000Y-44525000I225000J0D01*
G01*
X189450000Y-44525000D01*
G75*
G02*
X189675000Y-44750000I0J-225000D01*
G01*
X189675000Y-45250000D01*
G75*
G02*
X189450000Y-45475000I-225000J0D01*
G01*
X189000000Y-45475000D01*
G75*
G02*
X188775000Y-45250000I0J225000D01*
G01*
G37*
G36*
G01*
X190450000Y-43475000D02*
X190450000Y-42525000D01*
G75*
G02*
X190700000Y-42275000I250000J0D01*
G01*
X191200000Y-42275000D01*
G75*
G02*
X191450000Y-42525000I0J-250000D01*
G01*
X191450000Y-43475000D01*
G75*
G02*
X191200000Y-43725000I-250000J0D01*
G01*
X190700000Y-43725000D01*
G75*
G02*
X190450000Y-43475000I0J250000D01*
G01*
G37*
G36*
G01*
X188550000Y-43475000D02*
X188550000Y-42525000D01*
G75*
G02*
X188800000Y-42275000I250000J0D01*
G01*
X189300000Y-42275000D01*
G75*
G02*
X189550000Y-42525000I0J-250000D01*
G01*
X189550000Y-43475000D01*
G75*
G02*
X189300000Y-43725000I-250000J0D01*
G01*
X188800000Y-43725000D01*
G75*
G02*
X188550000Y-43475000I0J250000D01*
G01*
G37*
G36*
G01*
X228775000Y-45250000D02*
X228775000Y-44750000D01*
G75*
G02*
X229000000Y-44525000I225000J0D01*
G01*
X229450000Y-44525000D01*
G75*
G02*
X229675000Y-44750000I0J-225000D01*
G01*
X229675000Y-45250000D01*
G75*
G02*
X229450000Y-45475000I-225000J0D01*
G01*
X229000000Y-45475000D01*
G75*
G02*
X228775000Y-45250000I0J225000D01*
G01*
G37*
G36*
G01*
X230325000Y-45250000D02*
X230325000Y-44750000D01*
G75*
G02*
X230550000Y-44525000I225000J0D01*
G01*
X231000000Y-44525000D01*
G75*
G02*
X231225000Y-44750000I0J-225000D01*
G01*
X231225000Y-45250000D01*
G75*
G02*
X231000000Y-45475000I-225000J0D01*
G01*
X230550000Y-45475000D01*
G75*
G02*
X230325000Y-45250000I0J225000D01*
G01*
G37*
G36*
G01*
X230450000Y-43475000D02*
X230450000Y-42525000D01*
G75*
G02*
X230700000Y-42275000I250000J0D01*
G01*
X231200000Y-42275000D01*
G75*
G02*
X231450000Y-42525000I0J-250000D01*
G01*
X231450000Y-43475000D01*
G75*
G02*
X231200000Y-43725000I-250000J0D01*
G01*
X230700000Y-43725000D01*
G75*
G02*
X230450000Y-43475000I0J250000D01*
G01*
G37*
G36*
G01*
X228550000Y-43475000D02*
X228550000Y-42525000D01*
G75*
G02*
X228800000Y-42275000I250000J0D01*
G01*
X229300000Y-42275000D01*
G75*
G02*
X229550000Y-42525000I0J-250000D01*
G01*
X229550000Y-43475000D01*
G75*
G02*
X229300000Y-43725000I-250000J0D01*
G01*
X228800000Y-43725000D01*
G75*
G02*
X228550000Y-43475000I0J250000D01*
G01*
G37*
D30*
X143850000Y-51100000D03*
X143850000Y-48900000D03*
X142150000Y-48900000D03*
X142150000Y-51100000D03*
D31*
X119850000Y-49200000D03*
X119850000Y-48400000D03*
X119850000Y-47600000D03*
X119850000Y-46800000D03*
X118150000Y-49200000D03*
X118150000Y-46800000D03*
X118150000Y-48400000D03*
X118150000Y-47600000D03*
X118150000Y-51600000D03*
X118150000Y-52400000D03*
X118150000Y-50800000D03*
X118150000Y-53200000D03*
X119850000Y-50800000D03*
X119850000Y-51600000D03*
X119850000Y-52400000D03*
X119850000Y-53200000D03*
D32*
X115425000Y-50725000D03*
X114575000Y-50725000D03*
X114575000Y-49275000D03*
X115425000Y-49275000D03*
D21*
X166000000Y-43000000D03*
X174000000Y-43000000D03*
X157000000Y-46000000D03*
X157000000Y-54000000D03*
G36*
G01*
X208775000Y-45250000D02*
X208775000Y-44750000D01*
G75*
G02*
X209000000Y-44525000I225000J0D01*
G01*
X209450000Y-44525000D01*
G75*
G02*
X209675000Y-44750000I0J-225000D01*
G01*
X209675000Y-45250000D01*
G75*
G02*
X209450000Y-45475000I-225000J0D01*
G01*
X209000000Y-45475000D01*
G75*
G02*
X208775000Y-45250000I0J225000D01*
G01*
G37*
G36*
G01*
X210325000Y-45250000D02*
X210325000Y-44750000D01*
G75*
G02*
X210550000Y-44525000I225000J0D01*
G01*
X211000000Y-44525000D01*
G75*
G02*
X211225000Y-44750000I0J-225000D01*
G01*
X211225000Y-45250000D01*
G75*
G02*
X211000000Y-45475000I-225000J0D01*
G01*
X210550000Y-45475000D01*
G75*
G02*
X210325000Y-45250000I0J225000D01*
G01*
G37*
G36*
G01*
X244379999Y-44130000D02*
X245620001Y-44130000D01*
G75*
G02*
X245870000Y-44379999I0J-249999D01*
G01*
X245870000Y-45620001D01*
G75*
G02*
X245620001Y-45870000I-249999J0D01*
G01*
X244379999Y-45870000D01*
G75*
G02*
X244130000Y-45620001I0J249999D01*
G01*
X244130000Y-44379999D01*
G75*
G02*
X244379999Y-44130000I249999J0D01*
G01*
G37*
D33*
X245000000Y-47540000D03*
X245000000Y-50080000D03*
X245000000Y-52620000D03*
X245000000Y-55160000D03*
D21*
X200000000Y-48000000D03*
X200000000Y-52000000D03*
G36*
G01*
X206550000Y-48245000D02*
X206550000Y-47945000D01*
G75*
G02*
X206700000Y-47795000I150000J0D01*
G01*
X208150000Y-47795000D01*
G75*
G02*
X208300000Y-47945000I0J-150000D01*
G01*
X208300000Y-48245000D01*
G75*
G02*
X208150000Y-48395000I-150000J0D01*
G01*
X206700000Y-48395000D01*
G75*
G02*
X206550000Y-48245000I0J150000D01*
G01*
G37*
G36*
G01*
X206550000Y-49515000D02*
X206550000Y-49215000D01*
G75*
G02*
X206700000Y-49065000I150000J0D01*
G01*
X208150000Y-49065000D01*
G75*
G02*
X208300000Y-49215000I0J-150000D01*
G01*
X208300000Y-49515000D01*
G75*
G02*
X208150000Y-49665000I-150000J0D01*
G01*
X206700000Y-49665000D01*
G75*
G02*
X206550000Y-49515000I0J150000D01*
G01*
G37*
G36*
G01*
X206550000Y-50785000D02*
X206550000Y-50485000D01*
G75*
G02*
X206700000Y-50335000I150000J0D01*
G01*
X208150000Y-50335000D01*
G75*
G02*
X208300000Y-50485000I0J-150000D01*
G01*
X208300000Y-50785000D01*
G75*
G02*
X208150000Y-50935000I-150000J0D01*
G01*
X206700000Y-50935000D01*
G75*
G02*
X206550000Y-50785000I0J150000D01*
G01*
G37*
G36*
G01*
X206550000Y-52055000D02*
X206550000Y-51755000D01*
G75*
G02*
X206700000Y-51605000I150000J0D01*
G01*
X208150000Y-51605000D01*
G75*
G02*
X208300000Y-51755000I0J-150000D01*
G01*
X208300000Y-52055000D01*
G75*
G02*
X208150000Y-52205000I-150000J0D01*
G01*
X206700000Y-52205000D01*
G75*
G02*
X206550000Y-52055000I0J150000D01*
G01*
G37*
G36*
G01*
X211700000Y-52055000D02*
X211700000Y-51755000D01*
G75*
G02*
X211850000Y-51605000I150000J0D01*
G01*
X213300000Y-51605000D01*
G75*
G02*
X213450000Y-51755000I0J-150000D01*
G01*
X213450000Y-52055000D01*
G75*
G02*
X213300000Y-52205000I-150000J0D01*
G01*
X211850000Y-52205000D01*
G75*
G02*
X211700000Y-52055000I0J150000D01*
G01*
G37*
G36*
G01*
X211700000Y-50785000D02*
X211700000Y-50485000D01*
G75*
G02*
X211850000Y-50335000I150000J0D01*
G01*
X213300000Y-50335000D01*
G75*
G02*
X213450000Y-50485000I0J-150000D01*
G01*
X213450000Y-50785000D01*
G75*
G02*
X213300000Y-50935000I-150000J0D01*
G01*
X211850000Y-50935000D01*
G75*
G02*
X211700000Y-50785000I0J150000D01*
G01*
G37*
G36*
G01*
X211700000Y-49515000D02*
X211700000Y-49215000D01*
G75*
G02*
X211850000Y-49065000I150000J0D01*
G01*
X213300000Y-49065000D01*
G75*
G02*
X213450000Y-49215000I0J-150000D01*
G01*
X213450000Y-49515000D01*
G75*
G02*
X213300000Y-49665000I-150000J0D01*
G01*
X211850000Y-49665000D01*
G75*
G02*
X211700000Y-49515000I0J150000D01*
G01*
G37*
G36*
G01*
X211700000Y-48245000D02*
X211700000Y-47945000D01*
G75*
G02*
X211850000Y-47795000I150000J0D01*
G01*
X213300000Y-47795000D01*
G75*
G02*
X213450000Y-47945000I0J-150000D01*
G01*
X213450000Y-48245000D01*
G75*
G02*
X213300000Y-48395000I-150000J0D01*
G01*
X211850000Y-48395000D01*
G75*
G02*
X211700000Y-48245000I0J150000D01*
G01*
G37*
D23*
X238000000Y-54950000D03*
X238000000Y-53050000D03*
X236000000Y-54000000D03*
D34*
X101150000Y-53100000D03*
X101150000Y-46900000D03*
X104850000Y-53100000D03*
X104850000Y-46900000D03*
M02*
