G04 #@! TF.GenerationSoftware,KiCad,Pcbnew,(5.1.12)-1*
G04 #@! TF.CreationDate,2022-06-10T12:48:04-07:00*
G04 #@! TF.ProjectId,TofArrayTest,546f6641-7272-4617-9954-6573742e6b69,rev?*
G04 #@! TF.SameCoordinates,Original*
G04 #@! TF.FileFunction,Soldermask,Bot*
G04 #@! TF.FilePolarity,Negative*
%FSLAX46Y46*%
G04 Gerber Fmt 4.6, Leading zero omitted, Abs format (unit mm)*
G04 Created by KiCad (PCBNEW (5.1.12)-1) date 2022-06-10 12:48:04*
%MOMM*%
%LPD*%
G01*
G04 APERTURE LIST*
%ADD10C,0.650000*%
%ADD11O,2.100000X1.000000*%
%ADD12O,1.600000X1.000000*%
%ADD13C,0.650000*%
%ADD14C,1.152000*%
%ADD15C,0.990600*%
%ADD16C,2.374900*%
%ADD17O,1.750000X1.200000*%
%ADD18C,1.740000*%
G04 APERTURE END LIST*
D10*
X52325000Y-40000000D02*
G75*
G03*
X52325000Y-40000000I-325000J0D01*
G01*
X52325000Y-58000000D02*
G75*
G03*
X52325000Y-58000000I-325000J0D01*
G01*
X248325000Y-58000000D02*
G75*
G03*
X248325000Y-58000000I-325000J0D01*
G01*
D11*
X56605000Y-45680000D03*
X56605000Y-54320000D03*
D12*
X52425000Y-45680000D03*
X52425000Y-54320000D03*
D13*
X56105000Y-52890000D03*
X56105000Y-47110000D03*
D14*
X52000000Y-40000000D03*
X52000000Y-58000000D03*
X248000000Y-58000000D03*
D15*
X86190000Y-55016000D03*
X86190000Y-52984000D03*
X93810000Y-54000000D03*
D16*
X93810000Y-56540000D03*
X93810000Y-51460000D03*
X88095000Y-51460000D03*
X88095000Y-56540000D03*
G36*
G01*
X178374999Y-48400000D02*
X179625001Y-48400000D01*
G75*
G02*
X179875000Y-48649999I0J-249999D01*
G01*
X179875000Y-49350001D01*
G75*
G02*
X179625001Y-49600000I-249999J0D01*
G01*
X178374999Y-49600000D01*
G75*
G02*
X178125000Y-49350001I0J249999D01*
G01*
X178125000Y-48649999D01*
G75*
G02*
X178374999Y-48400000I249999J0D01*
G01*
G37*
D17*
X179000000Y-51000000D03*
G36*
G01*
X244379999Y-44130000D02*
X245620001Y-44130000D01*
G75*
G02*
X245870000Y-44379999I0J-249999D01*
G01*
X245870000Y-45620001D01*
G75*
G02*
X245620001Y-45870000I-249999J0D01*
G01*
X244379999Y-45870000D01*
G75*
G02*
X244130000Y-45620001I0J249999D01*
G01*
X244130000Y-44379999D01*
G75*
G02*
X244379999Y-44130000I249999J0D01*
G01*
G37*
D18*
X245000000Y-47540000D03*
X245000000Y-50080000D03*
X245000000Y-52620000D03*
X245000000Y-55160000D03*
M02*
