M48
; DRILL file {KiCad (5.1.12)-1} date 06/10/22 12:48:06
; FORMAT={-:-/ absolute / inch / decimal}
; #@! TF.CreationDate,2022-06-10T12:48:06-07:00
; #@! TF.GenerationSoftware,Kicad,Pcbnew,(5.1.12)-1
FMAT,2
INCH
T1C0.0079
T2C0.0118
T3C0.0236
T4C0.0295
T5C0.0315
T6C0.0429
T7C0.0256
T8C0.0390
T9C0.0454
T10C0.0935
%
G90
G05
T1
X6.6713Y-1.9429
X6.6713Y-1.9941
X6.7146Y-1.9429
X6.7146Y-1.9941
T2
X2.3031Y-1.811
X2.3031Y-1.8701
X2.3031Y-2.0669
X2.3031Y-2.126
X2.5Y-2.126
X2.5197Y-1.9685
X2.5984Y-1.5748
X2.6378Y-1.6142
X2.6772Y-1.9291
X2.6772Y-1.9685
X2.6969Y-1.7717
X2.7559Y-1.8504
X2.815Y-1.7717
X2.815Y-2.1654
X2.8346Y-2.0472
X2.9134Y-1.9291
X2.9134Y-2.0079
X3.0315Y-1.9685
X3.2283Y-2.0079
X3.2283Y-2.126
X3.3071Y-1.7717
X3.4433Y-2.151
X3.4433Y-2.101
X3.5433Y-2.101
X3.5933Y-2.151
X3.5933Y-2.101
X3.6433Y-2.101
X3.7795Y-2.2047
X4.1732Y-1.5748
X4.2126Y-1.6142
X4.252Y-1.9291
X4.252Y-1.9685
X4.2717Y-1.7717
X4.3307Y-1.8504
X4.3898Y-1.7717
X4.3898Y-2.1654
X4.4094Y-2.0472
X4.5079Y-2.0276
X4.6063Y-2.0472
X4.6063Y-2.0866
X4.6063Y-2.126
X4.7638Y-1.8307
X4.7835Y-1.7717
X4.7835Y-2.1654
X5.0Y-1.6535
X5.0197Y-2.0276
X5.0394Y-1.5748
X5.0394Y-1.6535
X5.0591Y-1.8701
X5.0787Y-2.2047
X5.0787Y-2.2441
X5.0984Y-1.8701
X5.1181Y-1.6929
X5.1181Y-2.2441
X5.1378Y-2.0669
X5.1575Y-2.2441
X5.1772Y-2.0669
X5.1969Y-2.2441
X5.2165Y-1.9488
X5.2165Y-2.0276
X5.2953Y-2.2047
X5.2953Y-2.2441
X5.4331Y-1.9094
X5.4528Y-1.7717
X5.4528Y-2.1654
X5.5118Y-2.0276
X5.748Y-1.5748
X5.7874Y-1.6142
X5.7874Y-2.2638
X5.8268Y-1.9291
X5.8268Y-1.9685
X5.8268Y-2.2244
X5.8465Y-1.7717
X5.9055Y-1.8504
X5.9646Y-1.7717
X5.9646Y-2.1654
X6.2402Y-1.9291
X6.3976Y-1.8504
X6.5551Y-1.9094
X6.6339Y-2.0866
X6.6634Y-2.2736
X6.7126Y-2.2638
X6.7323Y-1.5748
X6.7323Y-1.6929
X6.752Y-2.0866
X7.3228Y-1.5748
X7.3622Y-1.6142
X7.4016Y-1.9291
X7.4016Y-1.9685
X7.4213Y-1.7717
X7.4803Y-1.8504
X7.5394Y-1.7717
X7.5394Y-2.1654
X8.0709Y-1.8898
X8.0709Y-2.0472
X8.1102Y-1.9291
X8.2087Y-1.7717
X8.4252Y-1.8898
X8.4646Y-1.9291
X8.4646Y-2.0079
X8.8976Y-1.6929
X8.937Y-1.7323
X8.937Y-1.9685
X8.9764Y-1.9291
X8.9961Y-1.7717
X9.0551Y-1.8504
X9.1142Y-1.7717
X9.1142Y-2.1654
T4
X7.0472Y-1.9291
X7.0472Y-2.0079
T5
X3.3661Y-1.8504
X3.3661Y-1.6929
X3.7795Y-1.6929
X3.7795Y-1.8504
X3.8583Y-1.8898
X5.1969Y-1.8898
X9.252Y-2.126
T6
X9.6457Y-1.7717
X9.6457Y-1.8717
X9.6457Y-1.9717
X9.6457Y-2.0717
X9.6457Y-2.1717
T7
X2.2089Y-1.8547
X2.2089Y-2.0823
T8
X3.3933Y-2.086
X3.3933Y-2.166
X3.6933Y-2.126
T9
X2.0472Y-1.5748
X2.0472Y-2.2835
X9.7638Y-2.2835
T10
X3.4683Y-2.026
X3.4683Y-2.226
X3.6933Y-2.026
X3.6933Y-2.226
T3
G00X2.0758Y-1.7984
M15
G01X2.0522Y-1.7984
M16
G05
G00X2.0758Y-2.1386
M15
G01X2.0522Y-2.1386
M16
G05
G00X2.2502Y-1.7984
M15
G01X2.2069Y-1.7984
M16
G05
G00X2.2502Y-2.1386
M15
G01X2.2069Y-2.1386
M16
G05
T0
M30
