G04 #@! TF.GenerationSoftware,KiCad,Pcbnew,(5.1.12)-1*
G04 #@! TF.CreationDate,2022-06-10T12:48:04-07:00*
G04 #@! TF.ProjectId,TofArrayTest,546f6641-7272-4617-9954-6573742e6b69,rev?*
G04 #@! TF.SameCoordinates,Original*
G04 #@! TF.FileFunction,Copper,L2,Bot*
G04 #@! TF.FilePolarity,Positive*
%FSLAX46Y46*%
G04 Gerber Fmt 4.6, Leading zero omitted, Abs format (unit mm)*
G04 Created by KiCad (PCBNEW (5.1.12)-1) date 2022-06-10 12:48:04*
%MOMM*%
%LPD*%
G01*
G04 APERTURE LIST*
G04 #@! TA.AperFunction,ComponentPad*
%ADD10O,2.100000X1.000000*%
G04 #@! TD*
G04 #@! TA.AperFunction,ComponentPad*
%ADD11O,1.600000X1.000000*%
G04 #@! TD*
G04 #@! TA.AperFunction,ComponentPad*
%ADD12O,1.750000X1.200000*%
G04 #@! TD*
G04 #@! TA.AperFunction,ComponentPad*
%ADD13C,0.500000*%
G04 #@! TD*
G04 #@! TA.AperFunction,SMDPad,CuDef*
%ADD14R,1.600000X1.800000*%
G04 #@! TD*
G04 #@! TA.AperFunction,ComponentPad*
%ADD15C,1.740000*%
G04 #@! TD*
G04 #@! TA.AperFunction,ViaPad*
%ADD16C,0.700000*%
G04 #@! TD*
G04 #@! TA.AperFunction,ViaPad*
%ADD17C,1.200000*%
G04 #@! TD*
G04 #@! TA.AperFunction,Conductor*
%ADD18C,0.500000*%
G04 #@! TD*
G04 #@! TA.AperFunction,Conductor*
%ADD19C,0.250000*%
G04 #@! TD*
G04 #@! TA.AperFunction,Conductor*
%ADD20C,0.200000*%
G04 #@! TD*
G04 #@! TA.AperFunction,Conductor*
%ADD21C,0.100000*%
G04 #@! TD*
G04 APERTURE END LIST*
D10*
X56605000Y-45680000D03*
X56605000Y-54320000D03*
D11*
X52425000Y-45680000D03*
X52425000Y-54320000D03*
G04 #@! TA.AperFunction,ComponentPad*
G36*
G01*
X178374999Y-48400000D02*
X179625001Y-48400000D01*
G75*
G02*
X179875000Y-48649999I0J-249999D01*
G01*
X179875000Y-49350001D01*
G75*
G02*
X179625001Y-49600000I-249999J0D01*
G01*
X178374999Y-49600000D01*
G75*
G02*
X178125000Y-49350001I0J249999D01*
G01*
X178125000Y-48649999D01*
G75*
G02*
X178374999Y-48400000I249999J0D01*
G01*
G37*
G04 #@! TD.AperFunction*
D12*
X179000000Y-51000000D03*
D13*
X169450000Y-49350000D03*
X170550000Y-49350000D03*
X169450000Y-50650000D03*
X170550000Y-50650000D03*
D14*
X170000000Y-50000000D03*
G04 #@! TA.AperFunction,ComponentPad*
G36*
G01*
X244379999Y-44130000D02*
X245620001Y-44130000D01*
G75*
G02*
X245870000Y-44379999I0J-249999D01*
G01*
X245870000Y-45620001D01*
G75*
G02*
X245620001Y-45870000I-249999J0D01*
G01*
X244379999Y-45870000D01*
G75*
G02*
X244130000Y-45620001I0J249999D01*
G01*
X244130000Y-44379999D01*
G75*
G02*
X244379999Y-44130000I249999J0D01*
G01*
G37*
G04 #@! TD.AperFunction*
D15*
X245000000Y-47540000D03*
X245000000Y-50080000D03*
X245000000Y-52620000D03*
X245000000Y-55160000D03*
D16*
X138000000Y-48500000D03*
X140000000Y-51500000D03*
X121500000Y-55000000D03*
X121500000Y-45000000D03*
X138500000Y-45000000D03*
X138500000Y-55000000D03*
X130500000Y-52500000D03*
X132500000Y-49500000D03*
X128500000Y-47500000D03*
X127500000Y-51500000D03*
X131500000Y-52500000D03*
X151500000Y-45000000D03*
X150000000Y-47000000D03*
X70000000Y-47000000D03*
X110000000Y-47000000D03*
X190000000Y-47000000D03*
X230000000Y-47000000D03*
X168500000Y-53000000D03*
X158500000Y-49000000D03*
X162500000Y-47000000D03*
X71500000Y-45000000D03*
X111500000Y-45000000D03*
X191500000Y-45000000D03*
X231500000Y-45000000D03*
X84000000Y-45000000D03*
X87459993Y-53365007D03*
X90000000Y-53364984D03*
X91270000Y-53364988D03*
D17*
X98000000Y-48000000D03*
D16*
X58500000Y-54000000D03*
X58500000Y-45999988D03*
X64000000Y-50000000D03*
D17*
X85500007Y-43000000D03*
D16*
X206000000Y-49000000D03*
X214000000Y-48000000D03*
D17*
X235000000Y-54000000D03*
D16*
X148500000Y-45000000D03*
X68500000Y-45000000D03*
X108500000Y-45000000D03*
X188500000Y-45000000D03*
X228500000Y-45000000D03*
X63500000Y-54000000D03*
X92539989Y-53364989D03*
X77000000Y-50000000D03*
X111500000Y-55000000D03*
X71500000Y-55000000D03*
X151500000Y-55000000D03*
X191500000Y-55000000D03*
X231500000Y-55000000D03*
D17*
X96000000Y-43000000D03*
X96000000Y-47000000D03*
X132000000Y-48000000D03*
D16*
X114500000Y-51500000D03*
X208500000Y-45000000D03*
X171500000Y-53000000D03*
X166500000Y-48500000D03*
X58500000Y-52500000D03*
X58500000Y-47500000D03*
D17*
X85500000Y-47000000D03*
D16*
X87459991Y-54634991D03*
X132500000Y-51500000D03*
X91269994Y-54635006D03*
X95999956Y-56000000D03*
X148000000Y-49000000D03*
X108000000Y-49000000D03*
X188000000Y-49000000D03*
X228000000Y-49000000D03*
X68000000Y-49000000D03*
X74000000Y-49000000D03*
X67000000Y-40999988D03*
X107000000Y-41000000D03*
X147000000Y-41000000D03*
X187000000Y-41000000D03*
X227000000Y-44000000D03*
X148000000Y-50000000D03*
X108000000Y-50000000D03*
X188000000Y-50000000D03*
X227000000Y-50000000D03*
X68000000Y-50000000D03*
X74000000Y-51000000D03*
X128000000Y-40000000D03*
X128000000Y-42000000D03*
X66000000Y-40000016D03*
X106000000Y-40000000D03*
X146000000Y-40000000D03*
X186000000Y-40000000D03*
X226000000Y-43000000D03*
X171000000Y-43000000D03*
X171000000Y-40000000D03*
X121000000Y-46500000D03*
X129500000Y-47500000D03*
X127000000Y-42000000D03*
X130000000Y-43000000D03*
X82000000Y-54000000D03*
X82000000Y-51000000D03*
X117000000Y-52000000D03*
X132000000Y-57000000D03*
X117000000Y-53000000D03*
X131000000Y-57000000D03*
X117000000Y-54000000D03*
X130000000Y-57000000D03*
X112000000Y-52000000D03*
X129000000Y-56000000D03*
X72000000Y-52000000D03*
X129000000Y-57000000D03*
X215000000Y-49000000D03*
X215000000Y-51000000D03*
X205000000Y-48000000D03*
X170500000Y-57500000D03*
X148000000Y-56500000D03*
X134500000Y-56000000D03*
X205000000Y-52000000D03*
X169250000Y-57750000D03*
X147000000Y-57500000D03*
X134500000Y-57000000D03*
D18*
X188500000Y-45000000D02*
X188500000Y-39000000D01*
X148500000Y-45000000D02*
X148500000Y-39000000D01*
X108500000Y-45000000D02*
X108500000Y-39000000D01*
X108500000Y-39000000D02*
X131000000Y-39000000D01*
X94000000Y-39000000D02*
X108500000Y-39000000D01*
X77000000Y-50000000D02*
X77000000Y-39000000D01*
X94000000Y-39000000D02*
X77000000Y-39000000D01*
X68500000Y-45000000D02*
X68500000Y-39000000D01*
D19*
X63500000Y-54000000D02*
X66250000Y-51250000D01*
X66250000Y-51250000D02*
X66750000Y-50750000D01*
X64000000Y-41000000D02*
X66000000Y-39000000D01*
X66000000Y-39000000D02*
X68500000Y-39000000D01*
D18*
X77000000Y-39000000D02*
X68500000Y-39000000D01*
X228500000Y-42500000D02*
X228500000Y-45000000D01*
X225000000Y-39000000D02*
X228500000Y-42500000D01*
X95000000Y-43000000D02*
X96000000Y-43000000D01*
X94000000Y-42000000D02*
X95000000Y-43000000D01*
X94000000Y-39000000D02*
X94000000Y-42000000D01*
D19*
X92539989Y-53364989D02*
X92000000Y-52825000D01*
X92000000Y-52825000D02*
X92000000Y-51000000D01*
X92000000Y-51000000D02*
X96000000Y-47000000D01*
X71500000Y-55000000D02*
X64000000Y-47500000D01*
X64500000Y-48000000D02*
X66750000Y-50250000D01*
X67000000Y-50500000D02*
X64500000Y-48000000D01*
X66750000Y-50750000D02*
X67000000Y-50500000D01*
X64000000Y-47500000D02*
X64000000Y-46500000D01*
X64000000Y-46500000D02*
X64000000Y-45500000D01*
X64000000Y-45500000D02*
X64000000Y-47000000D01*
X64000000Y-41000000D02*
X64000000Y-45500000D01*
X110000000Y-53500000D02*
X111500000Y-55000000D01*
X110000000Y-49000000D02*
X110000000Y-53500000D01*
X108500000Y-47750000D02*
X109750000Y-49000000D01*
X108500000Y-45000000D02*
X108500000Y-47750000D01*
X150000000Y-53500000D02*
X151500000Y-55000000D01*
X150000000Y-49000000D02*
X150000000Y-53500000D01*
X148500000Y-47500000D02*
X150000000Y-49000000D01*
X148500000Y-45000000D02*
X148500000Y-47500000D01*
X190000000Y-53500000D02*
X191500000Y-55000000D01*
X190000000Y-49000000D02*
X190000000Y-53500000D01*
X188500000Y-47500000D02*
X190000000Y-49000000D01*
X188500000Y-45000000D02*
X188500000Y-47500000D01*
X230000000Y-53500000D02*
X231500000Y-55000000D01*
X230000000Y-49000000D02*
X230000000Y-53500000D01*
X228500000Y-47500000D02*
X230000000Y-49000000D01*
X228500000Y-45000000D02*
X228500000Y-47500000D01*
D18*
X132000000Y-39000000D02*
X132000000Y-48000000D01*
X131000000Y-39000000D02*
X132000000Y-39000000D01*
X132000000Y-39000000D02*
X148500000Y-39000000D01*
D19*
X114500000Y-51500000D02*
X112000000Y-49000000D01*
X109750000Y-49000000D02*
X112000000Y-49000000D01*
D18*
X208500000Y-39000000D02*
X225000000Y-39000000D01*
X208500000Y-45000000D02*
X208500000Y-39000000D01*
X148500000Y-39000000D02*
X208500000Y-39000000D01*
X58500000Y-52500000D02*
X58500000Y-47500000D01*
X65000000Y-59000000D02*
X83000000Y-59000000D01*
X58500000Y-52500000D02*
X65000000Y-59000000D01*
X165500000Y-59000000D02*
X166500000Y-58000000D01*
X83000000Y-59000000D02*
X165500000Y-59000000D01*
D19*
X166500000Y-48500000D02*
X166500000Y-52500000D01*
X166500000Y-52500000D02*
X169250000Y-55250000D01*
D18*
X169250000Y-55250000D02*
X171500000Y-53000000D01*
X166500000Y-58000000D02*
X169250000Y-55250000D01*
X85000000Y-47500000D02*
X85500000Y-47000000D01*
X85000000Y-59000000D02*
X85000000Y-47500000D01*
X83000000Y-59000000D02*
X85000000Y-59000000D01*
D20*
X133000000Y-52000000D02*
X132500000Y-51500000D01*
X133000000Y-57000000D02*
X133000000Y-52000000D01*
X132000000Y-58000000D02*
X133000000Y-57000000D01*
X96000000Y-58000000D02*
X132000000Y-58000000D01*
X95750000Y-58250000D02*
X96000000Y-58000000D01*
X92250000Y-58250000D02*
X95750000Y-58250000D01*
X88634991Y-54634991D02*
X92250000Y-58250000D01*
X87459991Y-54634991D02*
X88634991Y-54634991D01*
X94999956Y-55000000D02*
X95999956Y-56000000D01*
X91634988Y-55000000D02*
X94999956Y-55000000D01*
X91269994Y-54635006D02*
X91634988Y-55000000D01*
X74000000Y-49000000D02*
X68000000Y-49000000D01*
X67000000Y-48000000D02*
X67000000Y-40999988D01*
X68000000Y-49000000D02*
X67000000Y-48000000D01*
X107000000Y-48000000D02*
X107000000Y-41000000D01*
X108000000Y-49000000D02*
X107000000Y-48000000D01*
X147000000Y-48000000D02*
X147000000Y-41000000D01*
X148000000Y-49000000D02*
X147000000Y-48000000D01*
X188000000Y-49000000D02*
X187000000Y-48000000D01*
X187000000Y-48000000D02*
X187000000Y-41000000D01*
X227000000Y-48000000D02*
X227000000Y-44000000D01*
X228000000Y-49000000D02*
X227000000Y-48000000D01*
X74000000Y-51000000D02*
X73000000Y-50000000D01*
X73000000Y-50000000D02*
X68000000Y-50000000D01*
X128000000Y-40000000D02*
X128000000Y-42000000D01*
X66000000Y-41000000D02*
X66000000Y-40000016D01*
X66000000Y-48000000D02*
X66000000Y-41000000D01*
X68000000Y-50000000D02*
X66000000Y-48000000D01*
X106000000Y-48000000D02*
X106000000Y-40000000D01*
X108000000Y-50000000D02*
X106000000Y-48000000D01*
X148000000Y-50000000D02*
X146000000Y-48000000D01*
X146000000Y-48000000D02*
X146000000Y-40000000D01*
X186000000Y-48000000D02*
X186000000Y-40000000D01*
X188000000Y-50000000D02*
X186000000Y-48000000D01*
X226000000Y-49000000D02*
X226000000Y-43000000D01*
X227000000Y-50000000D02*
X226000000Y-49000000D01*
X171000000Y-43000000D02*
X171000000Y-40000000D01*
X121000000Y-46500000D02*
X128500000Y-46500000D01*
X128500000Y-46500000D02*
X129500000Y-47500000D01*
X127000000Y-42000000D02*
X128000000Y-43000000D01*
X128000000Y-43000000D02*
X130000000Y-43000000D01*
X82000000Y-54000000D02*
X82000000Y-51000000D01*
X129000000Y-53000000D02*
X132000000Y-56000000D01*
X118000000Y-53000000D02*
X129000000Y-53000000D01*
X117000000Y-52000000D02*
X118000000Y-53000000D01*
X132000000Y-56000000D02*
X132000000Y-57000000D01*
X131000000Y-56000000D02*
X131000000Y-57000000D01*
X117000000Y-53000000D02*
X117500000Y-53500000D01*
X117500000Y-53500000D02*
X128500000Y-53500000D01*
X128500000Y-53500000D02*
X131000000Y-56000000D01*
X130000000Y-56000000D02*
X130000000Y-57000000D01*
X117000000Y-54000000D02*
X128000000Y-54000000D01*
X128000000Y-54000000D02*
X130000000Y-56000000D01*
D19*
X52425000Y-45680000D02*
X56605000Y-45680000D01*
X56605000Y-54320000D02*
X52320000Y-54320000D01*
X52425000Y-45680000D02*
X52425000Y-54320000D01*
D20*
X117000000Y-57000000D02*
X128000000Y-57000000D01*
X112000000Y-52000000D02*
X117000000Y-57000000D01*
X128000000Y-57000000D02*
X129000000Y-56000000D01*
X79000000Y-52000000D02*
X72000000Y-52000000D01*
X85000000Y-46000000D02*
X79000000Y-52000000D01*
X98000000Y-46000000D02*
X85000000Y-46000000D01*
X108500000Y-56500000D02*
X98000000Y-46000000D01*
X109000000Y-57000000D02*
X108500000Y-56500000D01*
X108500000Y-56500000D02*
X109500000Y-57500000D01*
X109500000Y-57500000D02*
X128500000Y-57500000D01*
X128500000Y-57500000D02*
X129000000Y-57000000D01*
X245000000Y-52620000D02*
X242380000Y-52620000D01*
X242380000Y-52620000D02*
X238000000Y-57000000D01*
X238000000Y-57000000D02*
X223000000Y-57000000D01*
X223000000Y-57000000D02*
X215000000Y-49000000D01*
X245000000Y-55160000D02*
X240840000Y-55160000D01*
X240840000Y-55160000D02*
X238000000Y-58000000D01*
X238000000Y-58000000D02*
X223000000Y-58000000D01*
X216000000Y-51000000D02*
X215000000Y-51000000D01*
X223000000Y-58000000D02*
X216000000Y-51000000D01*
X205000000Y-48000000D02*
X205000000Y-51000000D01*
X205000000Y-51000000D02*
X198000000Y-58000000D01*
X198000000Y-58000000D02*
X197500000Y-58500000D01*
X171500000Y-58500000D02*
X170500000Y-57500000D01*
X197500000Y-58500000D02*
X171500000Y-58500000D01*
X135000000Y-56500000D02*
X134500000Y-56000000D01*
X148000000Y-56500000D02*
X135000000Y-56500000D01*
X205000000Y-52000000D02*
X198000000Y-59000000D01*
X198000000Y-59000000D02*
X173000000Y-59000000D01*
X170500000Y-59000000D02*
X169250000Y-57750000D01*
X173000000Y-59000000D02*
X170500000Y-59000000D01*
X135000000Y-57500000D02*
X134500000Y-57000000D01*
X147000000Y-57500000D02*
X135000000Y-57500000D01*
X248314501Y-38411655D02*
X248617022Y-38502991D01*
X248896043Y-38651350D01*
X249140934Y-38851079D01*
X249342363Y-39094564D01*
X249492663Y-39372539D01*
X249586110Y-39674419D01*
X249621001Y-40006377D01*
X249621000Y-57981465D01*
X249588345Y-58314502D01*
X249497009Y-58617022D01*
X249348651Y-58896042D01*
X249148923Y-59140932D01*
X248905436Y-59342363D01*
X248627457Y-59492665D01*
X248325582Y-59586110D01*
X247993631Y-59621000D01*
X52018535Y-59621000D01*
X51685498Y-59588345D01*
X51382978Y-59497009D01*
X51103958Y-59348651D01*
X50859068Y-59148923D01*
X50657637Y-58905436D01*
X50507335Y-58627457D01*
X50413890Y-58325582D01*
X50379000Y-57993631D01*
X50379000Y-57908403D01*
X51070000Y-57908403D01*
X51070000Y-58091597D01*
X51105739Y-58271271D01*
X51175845Y-58440520D01*
X51277622Y-58592841D01*
X51407159Y-58722378D01*
X51559480Y-58824155D01*
X51728729Y-58894261D01*
X51908403Y-58930000D01*
X52091597Y-58930000D01*
X52271271Y-58894261D01*
X52440520Y-58824155D01*
X52592841Y-58722378D01*
X52722378Y-58592841D01*
X52824155Y-58440520D01*
X52894261Y-58271271D01*
X52930000Y-58091597D01*
X52930000Y-57908403D01*
X52894261Y-57728729D01*
X52824155Y-57559480D01*
X52722378Y-57407159D01*
X52592841Y-57277622D01*
X52440520Y-57175845D01*
X52271271Y-57105739D01*
X52091597Y-57070000D01*
X51908403Y-57070000D01*
X51728729Y-57105739D01*
X51559480Y-57175845D01*
X51407159Y-57277622D01*
X51277622Y-57407159D01*
X51175845Y-57559480D01*
X51105739Y-57728729D01*
X51070000Y-57908403D01*
X50379000Y-57908403D01*
X50379000Y-45680000D01*
X51266868Y-45680000D01*
X51283357Y-45847413D01*
X51332189Y-46008393D01*
X51411489Y-46156753D01*
X51518209Y-46286791D01*
X51648247Y-46393511D01*
X51796607Y-46472811D01*
X51946000Y-46518128D01*
X51946001Y-53481872D01*
X51796607Y-53527189D01*
X51648247Y-53606489D01*
X51518209Y-53713209D01*
X51411489Y-53843247D01*
X51332189Y-53991607D01*
X51283357Y-54152587D01*
X51266868Y-54320000D01*
X51283357Y-54487413D01*
X51332189Y-54648393D01*
X51411489Y-54796753D01*
X51518209Y-54926791D01*
X51648247Y-55033511D01*
X51796607Y-55112811D01*
X51957587Y-55161643D01*
X52083048Y-55174000D01*
X52766952Y-55174000D01*
X52892413Y-55161643D01*
X53053393Y-55112811D01*
X53201753Y-55033511D01*
X53331791Y-54926791D01*
X53436667Y-54799000D01*
X55343333Y-54799000D01*
X55448209Y-54926791D01*
X55578247Y-55033511D01*
X55726607Y-55112811D01*
X55887587Y-55161643D01*
X56013048Y-55174000D01*
X57196952Y-55174000D01*
X57322413Y-55161643D01*
X57483393Y-55112811D01*
X57631753Y-55033511D01*
X57761791Y-54926791D01*
X57868511Y-54796753D01*
X57947811Y-54648393D01*
X57996643Y-54487413D01*
X58013132Y-54320000D01*
X57996643Y-54152587D01*
X57947811Y-53991607D01*
X57868511Y-53843247D01*
X57761791Y-53713209D01*
X57631753Y-53606489D01*
X57483393Y-53527189D01*
X57322413Y-53478357D01*
X57196952Y-53466000D01*
X56465122Y-53466000D01*
X56537837Y-53417413D01*
X56632413Y-53322837D01*
X56706722Y-53211627D01*
X56757906Y-53088057D01*
X56784000Y-52956876D01*
X56784000Y-52823124D01*
X56757906Y-52691943D01*
X56706722Y-52568373D01*
X56632413Y-52457163D01*
X56537837Y-52362587D01*
X56426627Y-52288278D01*
X56303057Y-52237094D01*
X56171876Y-52211000D01*
X56038124Y-52211000D01*
X55906943Y-52237094D01*
X55783373Y-52288278D01*
X55672163Y-52362587D01*
X55577587Y-52457163D01*
X55503278Y-52568373D01*
X55452094Y-52691943D01*
X55426000Y-52823124D01*
X55426000Y-52956876D01*
X55452094Y-53088057D01*
X55503278Y-53211627D01*
X55577587Y-53322837D01*
X55672163Y-53417413D01*
X55783373Y-53491722D01*
X55808803Y-53502255D01*
X55726607Y-53527189D01*
X55578247Y-53606489D01*
X55448209Y-53713209D01*
X55343333Y-53841000D01*
X53436667Y-53841000D01*
X53331791Y-53713209D01*
X53201753Y-53606489D01*
X53053393Y-53527189D01*
X52904000Y-53481872D01*
X52904000Y-46518128D01*
X53053393Y-46472811D01*
X53201753Y-46393511D01*
X53331791Y-46286791D01*
X53436667Y-46159000D01*
X55343333Y-46159000D01*
X55448209Y-46286791D01*
X55578247Y-46393511D01*
X55726607Y-46472811D01*
X55808803Y-46497745D01*
X55783373Y-46508278D01*
X55672163Y-46582587D01*
X55577587Y-46677163D01*
X55503278Y-46788373D01*
X55452094Y-46911943D01*
X55426000Y-47043124D01*
X55426000Y-47176876D01*
X55452094Y-47308057D01*
X55503278Y-47431627D01*
X55577587Y-47542837D01*
X55672163Y-47637413D01*
X55783373Y-47711722D01*
X55906943Y-47762906D01*
X56038124Y-47789000D01*
X56171876Y-47789000D01*
X56303057Y-47762906D01*
X56426627Y-47711722D01*
X56537837Y-47637413D01*
X56632413Y-47542837D01*
X56706722Y-47431627D01*
X56707121Y-47430662D01*
X57796000Y-47430662D01*
X57796000Y-47569338D01*
X57823055Y-47705349D01*
X57876124Y-47833469D01*
X57896001Y-47863217D01*
X57896000Y-52136784D01*
X57876124Y-52166531D01*
X57823055Y-52294651D01*
X57796000Y-52430662D01*
X57796000Y-52569338D01*
X57823055Y-52705349D01*
X57876124Y-52833469D01*
X57953168Y-52948774D01*
X58051226Y-53046832D01*
X58166531Y-53123876D01*
X58294651Y-53176945D01*
X58329741Y-53183925D01*
X64551927Y-59406112D01*
X64570841Y-59429159D01*
X64662812Y-59504637D01*
X64767741Y-59560723D01*
X64879848Y-59594730D01*
X64881595Y-59595260D01*
X64999999Y-59606922D01*
X65029666Y-59604000D01*
X84970333Y-59604000D01*
X85000000Y-59606922D01*
X85029667Y-59604000D01*
X165470333Y-59604000D01*
X165500000Y-59606922D01*
X165529667Y-59604000D01*
X165618405Y-59595260D01*
X165732259Y-59560723D01*
X165837188Y-59504637D01*
X165929159Y-59429159D01*
X165948078Y-59406107D01*
X167673523Y-57680662D01*
X168546000Y-57680662D01*
X168546000Y-57819338D01*
X168573055Y-57955349D01*
X168626124Y-58083469D01*
X168703168Y-58198774D01*
X168801226Y-58296832D01*
X168916531Y-58373876D01*
X169044651Y-58426945D01*
X169180662Y-58454000D01*
X169311948Y-58454000D01*
X170163210Y-59305263D01*
X170177421Y-59322579D01*
X170246551Y-59379313D01*
X170319932Y-59418536D01*
X170325421Y-59421470D01*
X170411000Y-59447430D01*
X170417499Y-59448070D01*
X170477705Y-59454000D01*
X170477712Y-59454000D01*
X170500000Y-59456195D01*
X170522288Y-59454000D01*
X197977712Y-59454000D01*
X198000000Y-59456195D01*
X198022288Y-59454000D01*
X198022295Y-59454000D01*
X198088999Y-59447430D01*
X198174579Y-59421470D01*
X198253449Y-59379313D01*
X198322579Y-59322579D01*
X198336795Y-59305257D01*
X204938053Y-52704000D01*
X205069338Y-52704000D01*
X205205349Y-52676945D01*
X205333469Y-52623876D01*
X205448774Y-52546832D01*
X205546832Y-52448774D01*
X205623876Y-52333469D01*
X205676945Y-52205349D01*
X205704000Y-52069338D01*
X205704000Y-51930662D01*
X205676945Y-51794651D01*
X205623876Y-51666531D01*
X205546832Y-51551226D01*
X205448774Y-51453168D01*
X205333469Y-51376124D01*
X205285711Y-51356342D01*
X205305263Y-51336790D01*
X205322579Y-51322579D01*
X205379313Y-51253449D01*
X205421470Y-51174579D01*
X205426531Y-51157894D01*
X205447430Y-51089000D01*
X205448461Y-51078530D01*
X205454000Y-51022295D01*
X205454000Y-51022288D01*
X205456195Y-51000000D01*
X205454000Y-50977712D01*
X205454000Y-48930662D01*
X214296000Y-48930662D01*
X214296000Y-49069338D01*
X214323055Y-49205349D01*
X214376124Y-49333469D01*
X214453168Y-49448774D01*
X214551226Y-49546832D01*
X214666531Y-49623876D01*
X214794651Y-49676945D01*
X214930662Y-49704000D01*
X215061948Y-49704000D01*
X215903948Y-50546000D01*
X215541606Y-50546000D01*
X215448774Y-50453168D01*
X215333469Y-50376124D01*
X215205349Y-50323055D01*
X215069338Y-50296000D01*
X214930662Y-50296000D01*
X214794651Y-50323055D01*
X214666531Y-50376124D01*
X214551226Y-50453168D01*
X214453168Y-50551226D01*
X214376124Y-50666531D01*
X214323055Y-50794651D01*
X214296000Y-50930662D01*
X214296000Y-51069338D01*
X214323055Y-51205349D01*
X214376124Y-51333469D01*
X214453168Y-51448774D01*
X214551226Y-51546832D01*
X214666531Y-51623876D01*
X214794651Y-51676945D01*
X214930662Y-51704000D01*
X215069338Y-51704000D01*
X215205349Y-51676945D01*
X215333469Y-51623876D01*
X215448774Y-51546832D01*
X215541606Y-51454000D01*
X215811948Y-51454000D01*
X222663208Y-58305261D01*
X222677421Y-58322579D01*
X222746551Y-58379313D01*
X222825421Y-58421470D01*
X222911000Y-58447430D01*
X222917499Y-58448070D01*
X222977705Y-58454000D01*
X222977712Y-58454000D01*
X223000000Y-58456195D01*
X223022288Y-58454000D01*
X237977712Y-58454000D01*
X238000000Y-58456195D01*
X238022288Y-58454000D01*
X238022295Y-58454000D01*
X238088999Y-58447430D01*
X238174579Y-58421470D01*
X238253449Y-58379313D01*
X238322579Y-58322579D01*
X238336794Y-58305258D01*
X238733649Y-57908403D01*
X247070000Y-57908403D01*
X247070000Y-58091597D01*
X247105739Y-58271271D01*
X247175845Y-58440520D01*
X247277622Y-58592841D01*
X247407159Y-58722378D01*
X247559480Y-58824155D01*
X247728729Y-58894261D01*
X247908403Y-58930000D01*
X248091597Y-58930000D01*
X248271271Y-58894261D01*
X248440520Y-58824155D01*
X248592841Y-58722378D01*
X248722378Y-58592841D01*
X248824155Y-58440520D01*
X248894261Y-58271271D01*
X248930000Y-58091597D01*
X248930000Y-57908403D01*
X248894261Y-57728729D01*
X248824155Y-57559480D01*
X248722378Y-57407159D01*
X248592841Y-57277622D01*
X248440520Y-57175845D01*
X248271271Y-57105739D01*
X248091597Y-57070000D01*
X247908403Y-57070000D01*
X247728729Y-57105739D01*
X247559480Y-57175845D01*
X247407159Y-57277622D01*
X247277622Y-57407159D01*
X247175845Y-57559480D01*
X247105739Y-57728729D01*
X247070000Y-57908403D01*
X238733649Y-57908403D01*
X241028053Y-55614000D01*
X243863205Y-55614000D01*
X243915306Y-55739781D01*
X244049257Y-55940254D01*
X244219746Y-56110743D01*
X244420219Y-56244694D01*
X244642972Y-56336962D01*
X244879447Y-56384000D01*
X245120553Y-56384000D01*
X245357028Y-56336962D01*
X245579781Y-56244694D01*
X245780254Y-56110743D01*
X245950743Y-55940254D01*
X246084694Y-55739781D01*
X246176962Y-55517028D01*
X246224000Y-55280553D01*
X246224000Y-55039447D01*
X246176962Y-54802972D01*
X246084694Y-54580219D01*
X245950743Y-54379746D01*
X245780254Y-54209257D01*
X245579781Y-54075306D01*
X245357028Y-53983038D01*
X245120553Y-53936000D01*
X244879447Y-53936000D01*
X244642972Y-53983038D01*
X244420219Y-54075306D01*
X244219746Y-54209257D01*
X244049257Y-54379746D01*
X243915306Y-54580219D01*
X243863205Y-54706000D01*
X240936053Y-54706000D01*
X242568053Y-53074000D01*
X243863205Y-53074000D01*
X243915306Y-53199781D01*
X244049257Y-53400254D01*
X244219746Y-53570743D01*
X244420219Y-53704694D01*
X244642972Y-53796962D01*
X244879447Y-53844000D01*
X245120553Y-53844000D01*
X245357028Y-53796962D01*
X245579781Y-53704694D01*
X245780254Y-53570743D01*
X245950743Y-53400254D01*
X246084694Y-53199781D01*
X246176962Y-52977028D01*
X246224000Y-52740553D01*
X246224000Y-52499447D01*
X246176962Y-52262972D01*
X246084694Y-52040219D01*
X245950743Y-51839746D01*
X245780254Y-51669257D01*
X245579781Y-51535306D01*
X245357028Y-51443038D01*
X245120553Y-51396000D01*
X244879447Y-51396000D01*
X244642972Y-51443038D01*
X244420219Y-51535306D01*
X244219746Y-51669257D01*
X244049257Y-51839746D01*
X243915306Y-52040219D01*
X243863205Y-52166000D01*
X242402287Y-52166000D01*
X242379999Y-52163805D01*
X242357711Y-52166000D01*
X242357705Y-52166000D01*
X242300301Y-52171654D01*
X242291000Y-52172570D01*
X242205421Y-52198530D01*
X242126551Y-52240687D01*
X242057421Y-52297421D01*
X242043210Y-52314737D01*
X237811948Y-56546000D01*
X223188053Y-56546000D01*
X215704000Y-49061948D01*
X215704000Y-48930662D01*
X215676945Y-48794651D01*
X215623876Y-48666531D01*
X215546832Y-48551226D01*
X215448774Y-48453168D01*
X215333469Y-48376124D01*
X215205349Y-48323055D01*
X215069338Y-48296000D01*
X214930662Y-48296000D01*
X214794651Y-48323055D01*
X214666531Y-48376124D01*
X214551226Y-48453168D01*
X214453168Y-48551226D01*
X214376124Y-48666531D01*
X214323055Y-48794651D01*
X214296000Y-48930662D01*
X205454000Y-48930662D01*
X205454000Y-48541606D01*
X205546832Y-48448774D01*
X205623876Y-48333469D01*
X205676945Y-48205349D01*
X205704000Y-48069338D01*
X205704000Y-47930662D01*
X205676945Y-47794651D01*
X205623876Y-47666531D01*
X205546832Y-47551226D01*
X205448774Y-47453168D01*
X205333469Y-47376124D01*
X205205349Y-47323055D01*
X205069338Y-47296000D01*
X204930662Y-47296000D01*
X204794651Y-47323055D01*
X204666531Y-47376124D01*
X204551226Y-47453168D01*
X204453168Y-47551226D01*
X204376124Y-47666531D01*
X204323055Y-47794651D01*
X204296000Y-47930662D01*
X204296000Y-48069338D01*
X204323055Y-48205349D01*
X204376124Y-48333469D01*
X204453168Y-48448774D01*
X204546000Y-48541606D01*
X204546001Y-50811946D01*
X197694744Y-57663204D01*
X197694738Y-57663209D01*
X197311948Y-58046000D01*
X171688053Y-58046000D01*
X171204000Y-57561948D01*
X171204000Y-57430662D01*
X171176945Y-57294651D01*
X171123876Y-57166531D01*
X171046832Y-57051226D01*
X170948774Y-56953168D01*
X170833469Y-56876124D01*
X170705349Y-56823055D01*
X170569338Y-56796000D01*
X170430662Y-56796000D01*
X170294651Y-56823055D01*
X170166531Y-56876124D01*
X170051226Y-56953168D01*
X169953168Y-57051226D01*
X169876124Y-57166531D01*
X169823055Y-57294651D01*
X169816031Y-57329960D01*
X169796832Y-57301226D01*
X169698774Y-57203168D01*
X169583469Y-57126124D01*
X169455349Y-57073055D01*
X169319338Y-57046000D01*
X169180662Y-57046000D01*
X169044651Y-57073055D01*
X168916531Y-57126124D01*
X168801226Y-57203168D01*
X168703168Y-57301226D01*
X168626124Y-57416531D01*
X168573055Y-57544651D01*
X168546000Y-57680662D01*
X167673523Y-57680662D01*
X169698070Y-55656115D01*
X169698074Y-55656110D01*
X171670260Y-53683925D01*
X171705349Y-53676945D01*
X171833469Y-53623876D01*
X171948774Y-53546832D01*
X172046832Y-53448774D01*
X172123876Y-53333469D01*
X172176945Y-53205349D01*
X172204000Y-53069338D01*
X172204000Y-52930662D01*
X172176945Y-52794651D01*
X172123876Y-52666531D01*
X172046832Y-52551226D01*
X171948774Y-52453168D01*
X171833469Y-52376124D01*
X171705349Y-52323055D01*
X171569338Y-52296000D01*
X171430662Y-52296000D01*
X171294651Y-52323055D01*
X171166531Y-52376124D01*
X171051226Y-52453168D01*
X170953168Y-52551226D01*
X170876124Y-52666531D01*
X170823055Y-52794651D01*
X170816075Y-52829740D01*
X169161612Y-54484204D01*
X166979000Y-52301593D01*
X166979000Y-50653306D01*
X168897349Y-50653306D01*
X168898968Y-50668790D01*
X168898548Y-50900000D01*
X168904340Y-50958810D01*
X168921495Y-51015361D01*
X168949352Y-51067478D01*
X168986841Y-51113159D01*
X169032522Y-51150648D01*
X169084639Y-51178505D01*
X169141190Y-51195660D01*
X169200000Y-51201452D01*
X169435063Y-51200964D01*
X169453306Y-51202651D01*
X169470136Y-51200892D01*
X169900000Y-51200000D01*
X169975000Y-51125000D01*
X169975000Y-50814128D01*
X169992677Y-50754575D01*
X169999838Y-50677118D01*
X170008613Y-50761059D01*
X170025000Y-50813940D01*
X170025000Y-51125000D01*
X170100000Y-51200000D01*
X170534378Y-51200901D01*
X170553306Y-51202651D01*
X170569353Y-51200974D01*
X170800000Y-51201452D01*
X170858810Y-51195660D01*
X170915361Y-51178505D01*
X170967478Y-51150648D01*
X171013159Y-51113159D01*
X171050648Y-51067478D01*
X171078505Y-51015361D01*
X171083164Y-51000000D01*
X177766385Y-51000000D01*
X177784805Y-51187017D01*
X177839355Y-51366846D01*
X177927941Y-51532578D01*
X178047157Y-51677843D01*
X178192422Y-51797059D01*
X178358154Y-51885645D01*
X178537983Y-51940195D01*
X178678144Y-51954000D01*
X179321856Y-51954000D01*
X179462017Y-51940195D01*
X179641846Y-51885645D01*
X179807578Y-51797059D01*
X179952843Y-51677843D01*
X180072059Y-51532578D01*
X180160645Y-51366846D01*
X180215195Y-51187017D01*
X180233615Y-51000000D01*
X180215195Y-50812983D01*
X180160645Y-50633154D01*
X180072059Y-50467422D01*
X179952843Y-50322157D01*
X179807578Y-50202941D01*
X179641846Y-50114355D01*
X179462017Y-50059805D01*
X179321856Y-50046000D01*
X178678144Y-50046000D01*
X178537983Y-50059805D01*
X178358154Y-50114355D01*
X178192422Y-50202941D01*
X178047157Y-50322157D01*
X177927941Y-50467422D01*
X177839355Y-50633154D01*
X177784805Y-50812983D01*
X177766385Y-51000000D01*
X171083164Y-51000000D01*
X171095660Y-50958810D01*
X171101452Y-50900000D01*
X171101024Y-50664290D01*
X171102651Y-50646694D01*
X171100963Y-50630546D01*
X171100000Y-50100000D01*
X171025000Y-50025000D01*
X170025000Y-50025000D01*
X170025000Y-50485872D01*
X170007323Y-50545425D01*
X170000162Y-50622882D01*
X169991387Y-50538941D01*
X169975000Y-50486060D01*
X169975000Y-50025000D01*
X168975000Y-50025000D01*
X168900000Y-50100000D01*
X168899029Y-50635138D01*
X168897349Y-50653306D01*
X166979000Y-50653306D01*
X166979000Y-49353306D01*
X168897349Y-49353306D01*
X168899037Y-49369454D01*
X168900000Y-49900000D01*
X168975000Y-49975000D01*
X169975000Y-49975000D01*
X169975000Y-49514128D01*
X169992677Y-49454575D01*
X169999838Y-49377118D01*
X170008613Y-49461059D01*
X170025000Y-49513940D01*
X170025000Y-49975000D01*
X171025000Y-49975000D01*
X171100000Y-49900000D01*
X171100971Y-49364862D01*
X171102651Y-49346694D01*
X171101032Y-49331210D01*
X171101452Y-49100000D01*
X171095660Y-49041190D01*
X171078505Y-48984639D01*
X171050648Y-48932522D01*
X171013159Y-48886841D01*
X170967478Y-48849352D01*
X170915361Y-48821495D01*
X170858810Y-48804340D01*
X170800000Y-48798548D01*
X170564937Y-48799036D01*
X170546694Y-48797349D01*
X170529864Y-48799108D01*
X170100000Y-48800000D01*
X170025000Y-48875000D01*
X170025000Y-49185872D01*
X170007323Y-49245425D01*
X170000162Y-49322882D01*
X169991387Y-49238941D01*
X169975000Y-49186060D01*
X169975000Y-48875000D01*
X169900000Y-48800000D01*
X169465622Y-48799099D01*
X169446694Y-48797349D01*
X169430647Y-48799026D01*
X169200000Y-48798548D01*
X169141190Y-48804340D01*
X169084639Y-48821495D01*
X169032522Y-48849352D01*
X168986841Y-48886841D01*
X168949352Y-48932522D01*
X168921495Y-48984639D01*
X168904340Y-49041190D01*
X168898548Y-49100000D01*
X168898976Y-49335710D01*
X168897349Y-49353306D01*
X166979000Y-49353306D01*
X166979000Y-49016606D01*
X167046832Y-48948774D01*
X167123876Y-48833469D01*
X167176945Y-48705349D01*
X167187955Y-48649999D01*
X177769288Y-48649999D01*
X177769288Y-49350001D01*
X177780927Y-49468169D01*
X177815395Y-49581797D01*
X177871369Y-49686516D01*
X177946697Y-49778303D01*
X178038484Y-49853631D01*
X178143203Y-49909605D01*
X178256831Y-49944073D01*
X178374999Y-49955712D01*
X179625001Y-49955712D01*
X179743169Y-49944073D01*
X179856797Y-49909605D01*
X179961516Y-49853631D01*
X180053303Y-49778303D01*
X180128631Y-49686516D01*
X180184605Y-49581797D01*
X180219073Y-49468169D01*
X180230712Y-49350001D01*
X180230712Y-48649999D01*
X180219073Y-48531831D01*
X180184605Y-48418203D01*
X180128631Y-48313484D01*
X180053303Y-48221697D01*
X179961516Y-48146369D01*
X179856797Y-48090395D01*
X179743169Y-48055927D01*
X179625001Y-48044288D01*
X178374999Y-48044288D01*
X178256831Y-48055927D01*
X178143203Y-48090395D01*
X178038484Y-48146369D01*
X177946697Y-48221697D01*
X177871369Y-48313484D01*
X177815395Y-48418203D01*
X177780927Y-48531831D01*
X177769288Y-48649999D01*
X167187955Y-48649999D01*
X167204000Y-48569338D01*
X167204000Y-48430662D01*
X167176945Y-48294651D01*
X167123876Y-48166531D01*
X167046832Y-48051226D01*
X166948774Y-47953168D01*
X166833469Y-47876124D01*
X166705349Y-47823055D01*
X166569338Y-47796000D01*
X166430662Y-47796000D01*
X166294651Y-47823055D01*
X166166531Y-47876124D01*
X166051226Y-47953168D01*
X165953168Y-48051226D01*
X165876124Y-48166531D01*
X165823055Y-48294651D01*
X165796000Y-48430662D01*
X165796000Y-48569338D01*
X165823055Y-48705349D01*
X165876124Y-48833469D01*
X165953168Y-48948774D01*
X166021000Y-49016606D01*
X166021001Y-52476467D01*
X166018683Y-52500000D01*
X166027932Y-52593900D01*
X166055322Y-52684192D01*
X166099800Y-52767405D01*
X166129978Y-52804176D01*
X166159658Y-52840343D01*
X166177936Y-52855343D01*
X168484204Y-55161611D01*
X166093885Y-57551930D01*
X165249816Y-58396000D01*
X132222230Y-58396000D01*
X132253449Y-58379313D01*
X132322579Y-58322579D01*
X132336794Y-58305258D01*
X133305264Y-57336789D01*
X133322579Y-57322579D01*
X133379313Y-57253449D01*
X133421470Y-57174579D01*
X133447430Y-57088999D01*
X133454000Y-57022295D01*
X133454000Y-57022288D01*
X133456195Y-57000000D01*
X133454000Y-56977712D01*
X133454000Y-55930662D01*
X133796000Y-55930662D01*
X133796000Y-56069338D01*
X133823055Y-56205349D01*
X133876124Y-56333469D01*
X133953168Y-56448774D01*
X134004394Y-56500000D01*
X133953168Y-56551226D01*
X133876124Y-56666531D01*
X133823055Y-56794651D01*
X133796000Y-56930662D01*
X133796000Y-57069338D01*
X133823055Y-57205349D01*
X133876124Y-57333469D01*
X133953168Y-57448774D01*
X134051226Y-57546832D01*
X134166531Y-57623876D01*
X134294651Y-57676945D01*
X134430662Y-57704000D01*
X134561947Y-57704000D01*
X134663208Y-57805261D01*
X134677421Y-57822579D01*
X134746551Y-57879313D01*
X134805835Y-57911001D01*
X134825421Y-57921470D01*
X134911000Y-57947430D01*
X134919421Y-57948259D01*
X134977705Y-57954000D01*
X134977712Y-57954000D01*
X135000000Y-57956195D01*
X135022288Y-57954000D01*
X146458394Y-57954000D01*
X146551226Y-58046832D01*
X146666531Y-58123876D01*
X146794651Y-58176945D01*
X146930662Y-58204000D01*
X147069338Y-58204000D01*
X147205349Y-58176945D01*
X147333469Y-58123876D01*
X147448774Y-58046832D01*
X147546832Y-57948774D01*
X147623876Y-57833469D01*
X147676945Y-57705349D01*
X147704000Y-57569338D01*
X147704000Y-57430662D01*
X147676945Y-57294651D01*
X147623876Y-57166531D01*
X147546832Y-57051226D01*
X147449606Y-56954000D01*
X147458394Y-56954000D01*
X147551226Y-57046832D01*
X147666531Y-57123876D01*
X147794651Y-57176945D01*
X147930662Y-57204000D01*
X148069338Y-57204000D01*
X148205349Y-57176945D01*
X148333469Y-57123876D01*
X148448774Y-57046832D01*
X148546832Y-56948774D01*
X148623876Y-56833469D01*
X148676945Y-56705349D01*
X148704000Y-56569338D01*
X148704000Y-56430662D01*
X148676945Y-56294651D01*
X148623876Y-56166531D01*
X148546832Y-56051226D01*
X148448774Y-55953168D01*
X148333469Y-55876124D01*
X148205349Y-55823055D01*
X148069338Y-55796000D01*
X147930662Y-55796000D01*
X147794651Y-55823055D01*
X147666531Y-55876124D01*
X147551226Y-55953168D01*
X147458394Y-56046000D01*
X135204000Y-56046000D01*
X135204000Y-55930662D01*
X135176945Y-55794651D01*
X135123876Y-55666531D01*
X135046832Y-55551226D01*
X134948774Y-55453168D01*
X134833469Y-55376124D01*
X134705349Y-55323055D01*
X134569338Y-55296000D01*
X134430662Y-55296000D01*
X134294651Y-55323055D01*
X134166531Y-55376124D01*
X134051226Y-55453168D01*
X133953168Y-55551226D01*
X133876124Y-55666531D01*
X133823055Y-55794651D01*
X133796000Y-55930662D01*
X133454000Y-55930662D01*
X133454000Y-52022288D01*
X133456195Y-52000000D01*
X133454000Y-51977712D01*
X133454000Y-51977705D01*
X133447430Y-51911001D01*
X133447013Y-51909624D01*
X133421470Y-51825421D01*
X133405023Y-51794651D01*
X133379313Y-51746551D01*
X133322579Y-51677421D01*
X133305262Y-51663209D01*
X133204000Y-51561947D01*
X133204000Y-51430662D01*
X133176945Y-51294651D01*
X133123876Y-51166531D01*
X133046832Y-51051226D01*
X132948774Y-50953168D01*
X132833469Y-50876124D01*
X132705349Y-50823055D01*
X132569338Y-50796000D01*
X132430662Y-50796000D01*
X132294651Y-50823055D01*
X132166531Y-50876124D01*
X132051226Y-50953168D01*
X131953168Y-51051226D01*
X131876124Y-51166531D01*
X131823055Y-51294651D01*
X131796000Y-51430662D01*
X131796000Y-51569338D01*
X131823055Y-51705349D01*
X131876124Y-51833469D01*
X131953168Y-51948774D01*
X132051226Y-52046832D01*
X132166531Y-52123876D01*
X132294651Y-52176945D01*
X132430662Y-52204000D01*
X132546001Y-52204000D01*
X132546000Y-56550394D01*
X132454000Y-56458394D01*
X132454000Y-56022288D01*
X132456195Y-56000000D01*
X132454000Y-55977712D01*
X132454000Y-55977705D01*
X132447430Y-55911001D01*
X132436851Y-55876124D01*
X132421470Y-55825421D01*
X132405023Y-55794651D01*
X132379313Y-55746551D01*
X132322579Y-55677421D01*
X132305262Y-55663209D01*
X129336794Y-52694742D01*
X129322579Y-52677421D01*
X129253449Y-52620687D01*
X129174579Y-52578530D01*
X129088999Y-52552570D01*
X129022295Y-52546000D01*
X129022288Y-52546000D01*
X129000000Y-52543805D01*
X128977712Y-52546000D01*
X118188053Y-52546000D01*
X117704000Y-52061948D01*
X117704000Y-51930662D01*
X117676945Y-51794651D01*
X117623876Y-51666531D01*
X117546832Y-51551226D01*
X117448774Y-51453168D01*
X117333469Y-51376124D01*
X117205349Y-51323055D01*
X117069338Y-51296000D01*
X116930662Y-51296000D01*
X116794651Y-51323055D01*
X116666531Y-51376124D01*
X116551226Y-51453168D01*
X116453168Y-51551226D01*
X116376124Y-51666531D01*
X116323055Y-51794651D01*
X116296000Y-51930662D01*
X116296000Y-52069338D01*
X116323055Y-52205349D01*
X116376124Y-52333469D01*
X116453168Y-52448774D01*
X116504394Y-52500000D01*
X116453168Y-52551226D01*
X116376124Y-52666531D01*
X116323055Y-52794651D01*
X116296000Y-52930662D01*
X116296000Y-53069338D01*
X116323055Y-53205349D01*
X116376124Y-53333469D01*
X116453168Y-53448774D01*
X116504394Y-53500000D01*
X116453168Y-53551226D01*
X116376124Y-53666531D01*
X116323055Y-53794651D01*
X116296000Y-53930662D01*
X116296000Y-54069338D01*
X116323055Y-54205349D01*
X116376124Y-54333469D01*
X116453168Y-54448774D01*
X116551226Y-54546832D01*
X116666531Y-54623876D01*
X116794651Y-54676945D01*
X116930662Y-54704000D01*
X117069338Y-54704000D01*
X117205349Y-54676945D01*
X117333469Y-54623876D01*
X117448774Y-54546832D01*
X117541606Y-54454000D01*
X127811948Y-54454000D01*
X128714289Y-55356342D01*
X128666531Y-55376124D01*
X128551226Y-55453168D01*
X128453168Y-55551226D01*
X128376124Y-55666531D01*
X128323055Y-55794651D01*
X128296000Y-55930662D01*
X128296000Y-56061947D01*
X127811948Y-56546000D01*
X117188053Y-56546000D01*
X112704000Y-52061948D01*
X112704000Y-51930662D01*
X112676945Y-51794651D01*
X112623876Y-51666531D01*
X112546832Y-51551226D01*
X112448774Y-51453168D01*
X112333469Y-51376124D01*
X112205349Y-51323055D01*
X112069338Y-51296000D01*
X111930662Y-51296000D01*
X111794651Y-51323055D01*
X111666531Y-51376124D01*
X111551226Y-51453168D01*
X111453168Y-51551226D01*
X111376124Y-51666531D01*
X111323055Y-51794651D01*
X111296000Y-51930662D01*
X111296000Y-52069338D01*
X111323055Y-52205349D01*
X111376124Y-52333469D01*
X111453168Y-52448774D01*
X111551226Y-52546832D01*
X111666531Y-52623876D01*
X111794651Y-52676945D01*
X111930662Y-52704000D01*
X112061948Y-52704000D01*
X116403947Y-57046000D01*
X109688053Y-57046000D01*
X109319474Y-56677421D01*
X108836795Y-56194743D01*
X108836791Y-56194738D01*
X98336795Y-45694743D01*
X98322579Y-45677421D01*
X98253449Y-45620687D01*
X98174579Y-45578530D01*
X98088999Y-45552570D01*
X98022295Y-45546000D01*
X98022288Y-45546000D01*
X98000000Y-45543805D01*
X97977712Y-45546000D01*
X85022287Y-45546000D01*
X84999999Y-45543805D01*
X84977711Y-45546000D01*
X84977705Y-45546000D01*
X84920301Y-45551654D01*
X84911000Y-45552570D01*
X84825421Y-45578530D01*
X84746551Y-45620687D01*
X84746549Y-45620688D01*
X84746550Y-45620688D01*
X84702944Y-45656475D01*
X84677421Y-45677421D01*
X84663210Y-45694737D01*
X78811948Y-51546000D01*
X74449606Y-51546000D01*
X74546832Y-51448774D01*
X74623876Y-51333469D01*
X74676945Y-51205349D01*
X74704000Y-51069338D01*
X74704000Y-50930662D01*
X74676945Y-50794651D01*
X74623876Y-50666531D01*
X74546832Y-50551226D01*
X74448774Y-50453168D01*
X74333469Y-50376124D01*
X74205349Y-50323055D01*
X74069338Y-50296000D01*
X73938053Y-50296000D01*
X73336794Y-49694742D01*
X73322579Y-49677421D01*
X73253449Y-49620687D01*
X73174579Y-49578530D01*
X73088999Y-49552570D01*
X73022295Y-49546000D01*
X73022288Y-49546000D01*
X73000000Y-49543805D01*
X72977712Y-49546000D01*
X68541606Y-49546000D01*
X68495606Y-49500000D01*
X68541606Y-49454000D01*
X73458394Y-49454000D01*
X73551226Y-49546832D01*
X73666531Y-49623876D01*
X73794651Y-49676945D01*
X73930662Y-49704000D01*
X74069338Y-49704000D01*
X74205349Y-49676945D01*
X74333469Y-49623876D01*
X74448774Y-49546832D01*
X74546832Y-49448774D01*
X74623876Y-49333469D01*
X74676945Y-49205349D01*
X74704000Y-49069338D01*
X74704000Y-48930662D01*
X74676945Y-48794651D01*
X74623876Y-48666531D01*
X74546832Y-48551226D01*
X74448774Y-48453168D01*
X74333469Y-48376124D01*
X74205349Y-48323055D01*
X74069338Y-48296000D01*
X73930662Y-48296000D01*
X73794651Y-48323055D01*
X73666531Y-48376124D01*
X73551226Y-48453168D01*
X73458394Y-48546000D01*
X68541606Y-48546000D01*
X68448774Y-48453168D01*
X68333469Y-48376124D01*
X68205349Y-48323055D01*
X68069338Y-48296000D01*
X67938053Y-48296000D01*
X67454000Y-47811948D01*
X67454000Y-41541594D01*
X67546832Y-41448762D01*
X67623876Y-41333457D01*
X67676945Y-41205337D01*
X67704000Y-41069326D01*
X67704000Y-40930650D01*
X67676945Y-40794639D01*
X67623876Y-40666519D01*
X67546832Y-40551214D01*
X67448774Y-40453156D01*
X67333469Y-40376112D01*
X67205349Y-40323043D01*
X67069338Y-40295988D01*
X66930662Y-40295988D01*
X66794651Y-40323043D01*
X66666531Y-40376112D01*
X66551226Y-40453156D01*
X66454000Y-40550382D01*
X66454000Y-40541622D01*
X66546832Y-40448790D01*
X66623876Y-40333485D01*
X66676945Y-40205365D01*
X66704000Y-40069354D01*
X66704000Y-39930678D01*
X66676945Y-39794667D01*
X66623876Y-39666547D01*
X66546832Y-39551242D01*
X66474590Y-39479000D01*
X67896001Y-39479000D01*
X67896000Y-44636784D01*
X67876124Y-44666531D01*
X67823055Y-44794651D01*
X67796000Y-44930662D01*
X67796000Y-45069338D01*
X67823055Y-45205349D01*
X67876124Y-45333469D01*
X67953168Y-45448774D01*
X68051226Y-45546832D01*
X68166531Y-45623876D01*
X68294651Y-45676945D01*
X68430662Y-45704000D01*
X68569338Y-45704000D01*
X68705349Y-45676945D01*
X68833469Y-45623876D01*
X68948774Y-45546832D01*
X69046832Y-45448774D01*
X69123876Y-45333469D01*
X69176945Y-45205349D01*
X69204000Y-45069338D01*
X69204000Y-44930662D01*
X69176945Y-44794651D01*
X69123876Y-44666531D01*
X69104000Y-44636784D01*
X69104000Y-39604000D01*
X76396001Y-39604000D01*
X76396000Y-49636784D01*
X76376124Y-49666531D01*
X76323055Y-49794651D01*
X76296000Y-49930662D01*
X76296000Y-50069338D01*
X76323055Y-50205349D01*
X76376124Y-50333469D01*
X76453168Y-50448774D01*
X76551226Y-50546832D01*
X76666531Y-50623876D01*
X76794651Y-50676945D01*
X76930662Y-50704000D01*
X77069338Y-50704000D01*
X77205349Y-50676945D01*
X77333469Y-50623876D01*
X77448774Y-50546832D01*
X77546832Y-50448774D01*
X77623876Y-50333469D01*
X77676945Y-50205349D01*
X77704000Y-50069338D01*
X77704000Y-49930662D01*
X77676945Y-49794651D01*
X77623876Y-49666531D01*
X77604000Y-49636784D01*
X77604000Y-39604000D01*
X93396000Y-39604000D01*
X93396001Y-41970323D01*
X93393078Y-42000000D01*
X93404740Y-42118404D01*
X93439278Y-42232259D01*
X93487810Y-42323055D01*
X93495364Y-42337188D01*
X93570842Y-42429159D01*
X93593889Y-42448073D01*
X94551927Y-43406112D01*
X94570841Y-43429159D01*
X94662812Y-43504637D01*
X94767741Y-43560723D01*
X94881595Y-43595260D01*
X95000000Y-43606922D01*
X95029667Y-43604000D01*
X95256214Y-43604000D01*
X95258980Y-43608140D01*
X95391860Y-43741020D01*
X95548112Y-43845424D01*
X95721728Y-43917338D01*
X95906039Y-43954000D01*
X96093961Y-43954000D01*
X96278272Y-43917338D01*
X96451888Y-43845424D01*
X96608140Y-43741020D01*
X96741020Y-43608140D01*
X96845424Y-43451888D01*
X96917338Y-43278272D01*
X96954000Y-43093961D01*
X96954000Y-42906039D01*
X96917338Y-42721728D01*
X96845424Y-42548112D01*
X96741020Y-42391860D01*
X96608140Y-42258980D01*
X96451888Y-42154576D01*
X96278272Y-42082662D01*
X96093961Y-42046000D01*
X95906039Y-42046000D01*
X95721728Y-42082662D01*
X95548112Y-42154576D01*
X95391860Y-42258980D01*
X95258980Y-42391860D01*
X95256214Y-42396000D01*
X95250185Y-42396000D01*
X94604000Y-41749816D01*
X94604000Y-39604000D01*
X105417906Y-39604000D01*
X105376124Y-39666531D01*
X105323055Y-39794651D01*
X105296000Y-39930662D01*
X105296000Y-40069338D01*
X105323055Y-40205349D01*
X105376124Y-40333469D01*
X105453168Y-40448774D01*
X105546001Y-40541607D01*
X105546000Y-47977712D01*
X105543805Y-48000000D01*
X105546000Y-48022288D01*
X105546000Y-48022294D01*
X105551654Y-48079698D01*
X105552570Y-48088999D01*
X105558007Y-48106922D01*
X105578530Y-48174578D01*
X105620687Y-48253448D01*
X105677421Y-48322579D01*
X105694742Y-48336794D01*
X107296000Y-49938053D01*
X107296000Y-50069338D01*
X107323055Y-50205349D01*
X107376124Y-50333469D01*
X107453168Y-50448774D01*
X107551226Y-50546832D01*
X107666531Y-50623876D01*
X107794651Y-50676945D01*
X107930662Y-50704000D01*
X108069338Y-50704000D01*
X108205349Y-50676945D01*
X108333469Y-50623876D01*
X108448774Y-50546832D01*
X108546832Y-50448774D01*
X108623876Y-50333469D01*
X108676945Y-50205349D01*
X108704000Y-50069338D01*
X108704000Y-49930662D01*
X108676945Y-49794651D01*
X108623876Y-49666531D01*
X108546832Y-49551226D01*
X108495606Y-49500000D01*
X108546832Y-49448774D01*
X108623876Y-49333469D01*
X108676945Y-49205349D01*
X108704000Y-49069338D01*
X108704000Y-48930662D01*
X108676945Y-48794651D01*
X108623876Y-48666531D01*
X108546832Y-48551226D01*
X108448774Y-48453168D01*
X108333469Y-48376124D01*
X108205349Y-48323055D01*
X108069338Y-48296000D01*
X107938053Y-48296000D01*
X107454000Y-47811948D01*
X107454000Y-41541606D01*
X107546832Y-41448774D01*
X107623876Y-41333469D01*
X107676945Y-41205349D01*
X107704000Y-41069338D01*
X107704000Y-40930662D01*
X107676945Y-40794651D01*
X107623876Y-40666531D01*
X107546832Y-40551226D01*
X107448774Y-40453168D01*
X107333469Y-40376124D01*
X107205349Y-40323055D01*
X107069338Y-40296000D01*
X106930662Y-40296000D01*
X106794651Y-40323055D01*
X106666531Y-40376124D01*
X106551226Y-40453168D01*
X106454000Y-40550394D01*
X106454000Y-40541606D01*
X106546832Y-40448774D01*
X106623876Y-40333469D01*
X106676945Y-40205349D01*
X106704000Y-40069338D01*
X106704000Y-39930662D01*
X106676945Y-39794651D01*
X106623876Y-39666531D01*
X106582094Y-39604000D01*
X107896001Y-39604000D01*
X107896000Y-44636784D01*
X107876124Y-44666531D01*
X107823055Y-44794651D01*
X107796000Y-44930662D01*
X107796000Y-45069338D01*
X107823055Y-45205349D01*
X107876124Y-45333469D01*
X107953168Y-45448774D01*
X108021000Y-45516606D01*
X108021001Y-47726467D01*
X108018683Y-47750000D01*
X108027932Y-47843900D01*
X108055322Y-47934192D01*
X108099800Y-48017405D01*
X108123950Y-48046832D01*
X108159658Y-48090343D01*
X108177936Y-48105343D01*
X109394657Y-49322065D01*
X109409657Y-49340343D01*
X109452417Y-49375435D01*
X109482594Y-49400200D01*
X109521000Y-49420728D01*
X109521001Y-53476467D01*
X109518683Y-53500000D01*
X109527932Y-53593900D01*
X109555322Y-53684192D01*
X109599800Y-53767405D01*
X109624057Y-53796962D01*
X109659658Y-53840343D01*
X109677936Y-53855343D01*
X110796000Y-54973408D01*
X110796000Y-55069338D01*
X110823055Y-55205349D01*
X110876124Y-55333469D01*
X110953168Y-55448774D01*
X111051226Y-55546832D01*
X111166531Y-55623876D01*
X111294651Y-55676945D01*
X111430662Y-55704000D01*
X111569338Y-55704000D01*
X111705349Y-55676945D01*
X111833469Y-55623876D01*
X111948774Y-55546832D01*
X112046832Y-55448774D01*
X112123876Y-55333469D01*
X112176945Y-55205349D01*
X112204000Y-55069338D01*
X112204000Y-54930662D01*
X112176945Y-54794651D01*
X112123876Y-54666531D01*
X112046832Y-54551226D01*
X111948774Y-54453168D01*
X111833469Y-54376124D01*
X111705349Y-54323055D01*
X111569338Y-54296000D01*
X111473408Y-54296000D01*
X110479000Y-53301593D01*
X110479000Y-49479000D01*
X111801593Y-49479000D01*
X113796000Y-51473408D01*
X113796000Y-51569338D01*
X113823055Y-51705349D01*
X113876124Y-51833469D01*
X113953168Y-51948774D01*
X114051226Y-52046832D01*
X114166531Y-52123876D01*
X114294651Y-52176945D01*
X114430662Y-52204000D01*
X114569338Y-52204000D01*
X114705349Y-52176945D01*
X114833469Y-52123876D01*
X114948774Y-52046832D01*
X115046832Y-51948774D01*
X115123876Y-51833469D01*
X115176945Y-51705349D01*
X115204000Y-51569338D01*
X115204000Y-51430662D01*
X115176945Y-51294651D01*
X115123876Y-51166531D01*
X115046832Y-51051226D01*
X114948774Y-50953168D01*
X114833469Y-50876124D01*
X114705349Y-50823055D01*
X114569338Y-50796000D01*
X114473408Y-50796000D01*
X112355347Y-48677940D01*
X112340343Y-48659657D01*
X112267405Y-48599800D01*
X112184192Y-48555321D01*
X112093900Y-48527931D01*
X112023526Y-48521000D01*
X112023523Y-48521000D01*
X112000000Y-48518683D01*
X111976477Y-48521000D01*
X110023526Y-48521000D01*
X110000000Y-48518683D01*
X109976474Y-48521000D01*
X109948408Y-48521000D01*
X108979000Y-47551593D01*
X108979000Y-46430662D01*
X120296000Y-46430662D01*
X120296000Y-46569338D01*
X120323055Y-46705349D01*
X120376124Y-46833469D01*
X120453168Y-46948774D01*
X120551226Y-47046832D01*
X120666531Y-47123876D01*
X120794651Y-47176945D01*
X120930662Y-47204000D01*
X121069338Y-47204000D01*
X121205349Y-47176945D01*
X121333469Y-47123876D01*
X121448774Y-47046832D01*
X121541606Y-46954000D01*
X128311948Y-46954000D01*
X128796000Y-47438053D01*
X128796000Y-47569338D01*
X128823055Y-47705349D01*
X128876124Y-47833469D01*
X128953168Y-47948774D01*
X129051226Y-48046832D01*
X129166531Y-48123876D01*
X129294651Y-48176945D01*
X129430662Y-48204000D01*
X129569338Y-48204000D01*
X129705349Y-48176945D01*
X129833469Y-48123876D01*
X129948774Y-48046832D01*
X130046832Y-47948774D01*
X130123876Y-47833469D01*
X130176945Y-47705349D01*
X130204000Y-47569338D01*
X130204000Y-47430662D01*
X130176945Y-47294651D01*
X130123876Y-47166531D01*
X130046832Y-47051226D01*
X129948774Y-46953168D01*
X129833469Y-46876124D01*
X129705349Y-46823055D01*
X129569338Y-46796000D01*
X129438053Y-46796000D01*
X128836794Y-46194742D01*
X128822579Y-46177421D01*
X128753449Y-46120687D01*
X128674579Y-46078530D01*
X128588999Y-46052570D01*
X128522295Y-46046000D01*
X128522288Y-46046000D01*
X128500000Y-46043805D01*
X128477712Y-46046000D01*
X121541606Y-46046000D01*
X121448774Y-45953168D01*
X121333469Y-45876124D01*
X121205349Y-45823055D01*
X121069338Y-45796000D01*
X120930662Y-45796000D01*
X120794651Y-45823055D01*
X120666531Y-45876124D01*
X120551226Y-45953168D01*
X120453168Y-46051226D01*
X120376124Y-46166531D01*
X120323055Y-46294651D01*
X120296000Y-46430662D01*
X108979000Y-46430662D01*
X108979000Y-45516606D01*
X109046832Y-45448774D01*
X109123876Y-45333469D01*
X109176945Y-45205349D01*
X109204000Y-45069338D01*
X109204000Y-44930662D01*
X109176945Y-44794651D01*
X109123876Y-44666531D01*
X109104000Y-44636784D01*
X109104000Y-39604000D01*
X127417906Y-39604000D01*
X127376124Y-39666531D01*
X127323055Y-39794651D01*
X127296000Y-39930662D01*
X127296000Y-40069338D01*
X127323055Y-40205349D01*
X127376124Y-40333469D01*
X127453168Y-40448774D01*
X127546000Y-40541606D01*
X127546001Y-41458393D01*
X127500000Y-41504394D01*
X127448774Y-41453168D01*
X127333469Y-41376124D01*
X127205349Y-41323055D01*
X127069338Y-41296000D01*
X126930662Y-41296000D01*
X126794651Y-41323055D01*
X126666531Y-41376124D01*
X126551226Y-41453168D01*
X126453168Y-41551226D01*
X126376124Y-41666531D01*
X126323055Y-41794651D01*
X126296000Y-41930662D01*
X126296000Y-42069338D01*
X126323055Y-42205349D01*
X126376124Y-42333469D01*
X126453168Y-42448774D01*
X126551226Y-42546832D01*
X126666531Y-42623876D01*
X126794651Y-42676945D01*
X126930662Y-42704000D01*
X127061948Y-42704000D01*
X127663210Y-43305263D01*
X127677421Y-43322579D01*
X127746551Y-43379313D01*
X127825421Y-43421470D01*
X127911001Y-43447430D01*
X127977705Y-43454000D01*
X127977712Y-43454000D01*
X128000000Y-43456195D01*
X128022288Y-43454000D01*
X129458394Y-43454000D01*
X129551226Y-43546832D01*
X129666531Y-43623876D01*
X129794651Y-43676945D01*
X129930662Y-43704000D01*
X130069338Y-43704000D01*
X130205349Y-43676945D01*
X130333469Y-43623876D01*
X130448774Y-43546832D01*
X130546832Y-43448774D01*
X130623876Y-43333469D01*
X130676945Y-43205349D01*
X130704000Y-43069338D01*
X130704000Y-42930662D01*
X130676945Y-42794651D01*
X130623876Y-42666531D01*
X130546832Y-42551226D01*
X130448774Y-42453168D01*
X130333469Y-42376124D01*
X130205349Y-42323055D01*
X130069338Y-42296000D01*
X129930662Y-42296000D01*
X129794651Y-42323055D01*
X129666531Y-42376124D01*
X129551226Y-42453168D01*
X129458394Y-42546000D01*
X128449606Y-42546000D01*
X128546832Y-42448774D01*
X128623876Y-42333469D01*
X128676945Y-42205349D01*
X128704000Y-42069338D01*
X128704000Y-41930662D01*
X128676945Y-41794651D01*
X128623876Y-41666531D01*
X128546832Y-41551226D01*
X128454000Y-41458394D01*
X128454000Y-40541606D01*
X128546832Y-40448774D01*
X128623876Y-40333469D01*
X128676945Y-40205349D01*
X128704000Y-40069338D01*
X128704000Y-39930662D01*
X128676945Y-39794651D01*
X128623876Y-39666531D01*
X128582094Y-39604000D01*
X131396000Y-39604000D01*
X131396001Y-47256213D01*
X131391860Y-47258980D01*
X131258980Y-47391860D01*
X131154576Y-47548112D01*
X131082662Y-47721728D01*
X131046000Y-47906039D01*
X131046000Y-48093961D01*
X131082662Y-48278272D01*
X131154576Y-48451888D01*
X131258980Y-48608140D01*
X131391860Y-48741020D01*
X131548112Y-48845424D01*
X131721728Y-48917338D01*
X131906039Y-48954000D01*
X132093961Y-48954000D01*
X132278272Y-48917338D01*
X132451888Y-48845424D01*
X132608140Y-48741020D01*
X132741020Y-48608140D01*
X132845424Y-48451888D01*
X132917338Y-48278272D01*
X132954000Y-48093961D01*
X132954000Y-47906039D01*
X132917338Y-47721728D01*
X132845424Y-47548112D01*
X132741020Y-47391860D01*
X132608140Y-47258980D01*
X132604000Y-47256214D01*
X132604000Y-39604000D01*
X145417906Y-39604000D01*
X145376124Y-39666531D01*
X145323055Y-39794651D01*
X145296000Y-39930662D01*
X145296000Y-40069338D01*
X145323055Y-40205349D01*
X145376124Y-40333469D01*
X145453168Y-40448774D01*
X145546001Y-40541607D01*
X145546000Y-47977712D01*
X145543805Y-48000000D01*
X145546000Y-48022288D01*
X145546000Y-48022294D01*
X145551654Y-48079698D01*
X145552570Y-48088999D01*
X145558007Y-48106922D01*
X145578530Y-48174578D01*
X145620687Y-48253448D01*
X145677421Y-48322579D01*
X145694742Y-48336794D01*
X147296000Y-49938053D01*
X147296000Y-50069338D01*
X147323055Y-50205349D01*
X147376124Y-50333469D01*
X147453168Y-50448774D01*
X147551226Y-50546832D01*
X147666531Y-50623876D01*
X147794651Y-50676945D01*
X147930662Y-50704000D01*
X148069338Y-50704000D01*
X148205349Y-50676945D01*
X148333469Y-50623876D01*
X148448774Y-50546832D01*
X148546832Y-50448774D01*
X148623876Y-50333469D01*
X148676945Y-50205349D01*
X148704000Y-50069338D01*
X148704000Y-49930662D01*
X148676945Y-49794651D01*
X148623876Y-49666531D01*
X148546832Y-49551226D01*
X148495606Y-49500000D01*
X148546832Y-49448774D01*
X148623876Y-49333469D01*
X148676945Y-49205349D01*
X148704000Y-49069338D01*
X148704000Y-48930662D01*
X148676945Y-48794651D01*
X148623876Y-48666531D01*
X148546832Y-48551226D01*
X148448774Y-48453168D01*
X148333469Y-48376124D01*
X148205349Y-48323055D01*
X148069338Y-48296000D01*
X147938053Y-48296000D01*
X147454000Y-47811948D01*
X147454000Y-41541606D01*
X147546832Y-41448774D01*
X147623876Y-41333469D01*
X147676945Y-41205349D01*
X147704000Y-41069338D01*
X147704000Y-40930662D01*
X147676945Y-40794651D01*
X147623876Y-40666531D01*
X147546832Y-40551226D01*
X147448774Y-40453168D01*
X147333469Y-40376124D01*
X147205349Y-40323055D01*
X147069338Y-40296000D01*
X146930662Y-40296000D01*
X146794651Y-40323055D01*
X146666531Y-40376124D01*
X146551226Y-40453168D01*
X146454000Y-40550394D01*
X146454000Y-40541606D01*
X146546832Y-40448774D01*
X146623876Y-40333469D01*
X146676945Y-40205349D01*
X146704000Y-40069338D01*
X146704000Y-39930662D01*
X146676945Y-39794651D01*
X146623876Y-39666531D01*
X146582094Y-39604000D01*
X147896001Y-39604000D01*
X147896000Y-44636784D01*
X147876124Y-44666531D01*
X147823055Y-44794651D01*
X147796000Y-44930662D01*
X147796000Y-45069338D01*
X147823055Y-45205349D01*
X147876124Y-45333469D01*
X147953168Y-45448774D01*
X148021000Y-45516606D01*
X148021001Y-47476467D01*
X148018683Y-47500000D01*
X148027932Y-47593900D01*
X148055322Y-47684192D01*
X148099800Y-47767405D01*
X148129978Y-47804176D01*
X148159658Y-47840343D01*
X148177936Y-47855343D01*
X149521000Y-49198408D01*
X149521001Y-53476467D01*
X149518683Y-53500000D01*
X149527932Y-53593900D01*
X149555322Y-53684192D01*
X149599800Y-53767405D01*
X149624057Y-53796962D01*
X149659658Y-53840343D01*
X149677936Y-53855343D01*
X150796000Y-54973408D01*
X150796000Y-55069338D01*
X150823055Y-55205349D01*
X150876124Y-55333469D01*
X150953168Y-55448774D01*
X151051226Y-55546832D01*
X151166531Y-55623876D01*
X151294651Y-55676945D01*
X151430662Y-55704000D01*
X151569338Y-55704000D01*
X151705349Y-55676945D01*
X151833469Y-55623876D01*
X151948774Y-55546832D01*
X152046832Y-55448774D01*
X152123876Y-55333469D01*
X152176945Y-55205349D01*
X152204000Y-55069338D01*
X152204000Y-54930662D01*
X152176945Y-54794651D01*
X152123876Y-54666531D01*
X152046832Y-54551226D01*
X151948774Y-54453168D01*
X151833469Y-54376124D01*
X151705349Y-54323055D01*
X151569338Y-54296000D01*
X151473408Y-54296000D01*
X150479000Y-53301593D01*
X150479000Y-49023520D01*
X150481317Y-48999999D01*
X150479000Y-48976474D01*
X150472069Y-48906100D01*
X150444679Y-48815808D01*
X150416987Y-48764000D01*
X150400200Y-48732593D01*
X150368287Y-48693708D01*
X150340343Y-48659657D01*
X150322065Y-48644657D01*
X148979000Y-47301593D01*
X148979000Y-45516606D01*
X149046832Y-45448774D01*
X149123876Y-45333469D01*
X149176945Y-45205349D01*
X149204000Y-45069338D01*
X149204000Y-44930662D01*
X149176945Y-44794651D01*
X149123876Y-44666531D01*
X149104000Y-44636784D01*
X149104000Y-39604000D01*
X170417906Y-39604000D01*
X170376124Y-39666531D01*
X170323055Y-39794651D01*
X170296000Y-39930662D01*
X170296000Y-40069338D01*
X170323055Y-40205349D01*
X170376124Y-40333469D01*
X170453168Y-40448774D01*
X170546001Y-40541607D01*
X170546000Y-42458394D01*
X170453168Y-42551226D01*
X170376124Y-42666531D01*
X170323055Y-42794651D01*
X170296000Y-42930662D01*
X170296000Y-43069338D01*
X170323055Y-43205349D01*
X170376124Y-43333469D01*
X170453168Y-43448774D01*
X170551226Y-43546832D01*
X170666531Y-43623876D01*
X170794651Y-43676945D01*
X170930662Y-43704000D01*
X171069338Y-43704000D01*
X171205349Y-43676945D01*
X171333469Y-43623876D01*
X171448774Y-43546832D01*
X171546832Y-43448774D01*
X171623876Y-43333469D01*
X171676945Y-43205349D01*
X171704000Y-43069338D01*
X171704000Y-42930662D01*
X171676945Y-42794651D01*
X171623876Y-42666531D01*
X171546832Y-42551226D01*
X171454000Y-42458394D01*
X171454000Y-40541606D01*
X171546832Y-40448774D01*
X171623876Y-40333469D01*
X171676945Y-40205349D01*
X171704000Y-40069338D01*
X171704000Y-39930662D01*
X171676945Y-39794651D01*
X171623876Y-39666531D01*
X171582094Y-39604000D01*
X185417906Y-39604000D01*
X185376124Y-39666531D01*
X185323055Y-39794651D01*
X185296000Y-39930662D01*
X185296000Y-40069338D01*
X185323055Y-40205349D01*
X185376124Y-40333469D01*
X185453168Y-40448774D01*
X185546001Y-40541607D01*
X185546000Y-47977712D01*
X185543805Y-48000000D01*
X185546000Y-48022288D01*
X185546000Y-48022294D01*
X185551654Y-48079698D01*
X185552570Y-48088999D01*
X185558007Y-48106922D01*
X185578530Y-48174578D01*
X185620687Y-48253448D01*
X185677421Y-48322579D01*
X185694742Y-48336794D01*
X187296000Y-49938053D01*
X187296000Y-50069338D01*
X187323055Y-50205349D01*
X187376124Y-50333469D01*
X187453168Y-50448774D01*
X187551226Y-50546832D01*
X187666531Y-50623876D01*
X187794651Y-50676945D01*
X187930662Y-50704000D01*
X188069338Y-50704000D01*
X188205349Y-50676945D01*
X188333469Y-50623876D01*
X188448774Y-50546832D01*
X188546832Y-50448774D01*
X188623876Y-50333469D01*
X188676945Y-50205349D01*
X188704000Y-50069338D01*
X188704000Y-49930662D01*
X188676945Y-49794651D01*
X188623876Y-49666531D01*
X188546832Y-49551226D01*
X188495606Y-49500000D01*
X188546832Y-49448774D01*
X188623876Y-49333469D01*
X188676945Y-49205349D01*
X188704000Y-49069338D01*
X188704000Y-48930662D01*
X188676945Y-48794651D01*
X188623876Y-48666531D01*
X188546832Y-48551226D01*
X188448774Y-48453168D01*
X188333469Y-48376124D01*
X188205349Y-48323055D01*
X188069338Y-48296000D01*
X187938053Y-48296000D01*
X187454000Y-47811948D01*
X187454000Y-41541606D01*
X187546832Y-41448774D01*
X187623876Y-41333469D01*
X187676945Y-41205349D01*
X187704000Y-41069338D01*
X187704000Y-40930662D01*
X187676945Y-40794651D01*
X187623876Y-40666531D01*
X187546832Y-40551226D01*
X187448774Y-40453168D01*
X187333469Y-40376124D01*
X187205349Y-40323055D01*
X187069338Y-40296000D01*
X186930662Y-40296000D01*
X186794651Y-40323055D01*
X186666531Y-40376124D01*
X186551226Y-40453168D01*
X186454000Y-40550394D01*
X186454000Y-40541606D01*
X186546832Y-40448774D01*
X186623876Y-40333469D01*
X186676945Y-40205349D01*
X186704000Y-40069338D01*
X186704000Y-39930662D01*
X186676945Y-39794651D01*
X186623876Y-39666531D01*
X186582094Y-39604000D01*
X187896001Y-39604000D01*
X187896000Y-44636784D01*
X187876124Y-44666531D01*
X187823055Y-44794651D01*
X187796000Y-44930662D01*
X187796000Y-45069338D01*
X187823055Y-45205349D01*
X187876124Y-45333469D01*
X187953168Y-45448774D01*
X188021000Y-45516606D01*
X188021001Y-47476467D01*
X188018683Y-47500000D01*
X188027932Y-47593900D01*
X188055322Y-47684192D01*
X188099800Y-47767405D01*
X188129978Y-47804176D01*
X188159658Y-47840343D01*
X188177936Y-47855343D01*
X189521000Y-49198408D01*
X189521001Y-53476467D01*
X189518683Y-53500000D01*
X189527932Y-53593900D01*
X189555322Y-53684192D01*
X189599800Y-53767405D01*
X189624057Y-53796962D01*
X189659658Y-53840343D01*
X189677936Y-53855343D01*
X190796000Y-54973408D01*
X190796000Y-55069338D01*
X190823055Y-55205349D01*
X190876124Y-55333469D01*
X190953168Y-55448774D01*
X191051226Y-55546832D01*
X191166531Y-55623876D01*
X191294651Y-55676945D01*
X191430662Y-55704000D01*
X191569338Y-55704000D01*
X191705349Y-55676945D01*
X191833469Y-55623876D01*
X191948774Y-55546832D01*
X192046832Y-55448774D01*
X192123876Y-55333469D01*
X192176945Y-55205349D01*
X192204000Y-55069338D01*
X192204000Y-54930662D01*
X192176945Y-54794651D01*
X192123876Y-54666531D01*
X192046832Y-54551226D01*
X191948774Y-54453168D01*
X191833469Y-54376124D01*
X191705349Y-54323055D01*
X191569338Y-54296000D01*
X191473408Y-54296000D01*
X190479000Y-53301593D01*
X190479000Y-49023520D01*
X190481317Y-48999999D01*
X190479000Y-48976474D01*
X190472069Y-48906100D01*
X190444679Y-48815808D01*
X190416987Y-48764000D01*
X190400200Y-48732593D01*
X190368287Y-48693708D01*
X190340343Y-48659657D01*
X190322065Y-48644657D01*
X188979000Y-47301593D01*
X188979000Y-45516606D01*
X189046832Y-45448774D01*
X189123876Y-45333469D01*
X189176945Y-45205349D01*
X189204000Y-45069338D01*
X189204000Y-44930662D01*
X189176945Y-44794651D01*
X189123876Y-44666531D01*
X189104000Y-44636784D01*
X189104000Y-39604000D01*
X207896001Y-39604000D01*
X207896000Y-44636784D01*
X207876124Y-44666531D01*
X207823055Y-44794651D01*
X207796000Y-44930662D01*
X207796000Y-45069338D01*
X207823055Y-45205349D01*
X207876124Y-45333469D01*
X207953168Y-45448774D01*
X208051226Y-45546832D01*
X208166531Y-45623876D01*
X208294651Y-45676945D01*
X208430662Y-45704000D01*
X208569338Y-45704000D01*
X208705349Y-45676945D01*
X208833469Y-45623876D01*
X208948774Y-45546832D01*
X209046832Y-45448774D01*
X209123876Y-45333469D01*
X209176945Y-45205349D01*
X209204000Y-45069338D01*
X209204000Y-44930662D01*
X209176945Y-44794651D01*
X209123876Y-44666531D01*
X209104000Y-44636784D01*
X209104000Y-42930662D01*
X225296000Y-42930662D01*
X225296000Y-43069338D01*
X225323055Y-43205349D01*
X225376124Y-43333469D01*
X225453168Y-43448774D01*
X225546001Y-43541607D01*
X225546000Y-48977712D01*
X225543805Y-49000000D01*
X225546000Y-49022288D01*
X225546000Y-49022294D01*
X225552570Y-49088998D01*
X225578530Y-49174578D01*
X225620687Y-49253448D01*
X225677421Y-49322579D01*
X225694742Y-49336794D01*
X226296000Y-49938053D01*
X226296000Y-50069338D01*
X226323055Y-50205349D01*
X226376124Y-50333469D01*
X226453168Y-50448774D01*
X226551226Y-50546832D01*
X226666531Y-50623876D01*
X226794651Y-50676945D01*
X226930662Y-50704000D01*
X227069338Y-50704000D01*
X227205349Y-50676945D01*
X227333469Y-50623876D01*
X227448774Y-50546832D01*
X227546832Y-50448774D01*
X227623876Y-50333469D01*
X227676945Y-50205349D01*
X227704000Y-50069338D01*
X227704000Y-49930662D01*
X227676945Y-49794651D01*
X227623876Y-49666531D01*
X227546832Y-49551226D01*
X227448774Y-49453168D01*
X227333469Y-49376124D01*
X227205349Y-49323055D01*
X227069338Y-49296000D01*
X226938053Y-49296000D01*
X226454000Y-48811948D01*
X226454000Y-44449606D01*
X226546001Y-44541607D01*
X226546000Y-47977712D01*
X226543805Y-48000000D01*
X226546000Y-48022288D01*
X226546000Y-48022294D01*
X226551654Y-48079698D01*
X226552570Y-48088999D01*
X226558007Y-48106922D01*
X226578530Y-48174578D01*
X226620687Y-48253448D01*
X226677421Y-48322579D01*
X226694742Y-48336794D01*
X227296000Y-48938053D01*
X227296000Y-49069338D01*
X227323055Y-49205349D01*
X227376124Y-49333469D01*
X227453168Y-49448774D01*
X227551226Y-49546832D01*
X227666531Y-49623876D01*
X227794651Y-49676945D01*
X227930662Y-49704000D01*
X228069338Y-49704000D01*
X228205349Y-49676945D01*
X228333469Y-49623876D01*
X228448774Y-49546832D01*
X228546832Y-49448774D01*
X228623876Y-49333469D01*
X228676945Y-49205349D01*
X228704000Y-49069338D01*
X228704000Y-48930662D01*
X228676945Y-48794651D01*
X228623876Y-48666531D01*
X228546832Y-48551226D01*
X228448774Y-48453168D01*
X228333469Y-48376124D01*
X228205349Y-48323055D01*
X228069338Y-48296000D01*
X227938053Y-48296000D01*
X227454000Y-47811948D01*
X227454000Y-44541606D01*
X227546832Y-44448774D01*
X227623876Y-44333469D01*
X227676945Y-44205349D01*
X227704000Y-44069338D01*
X227704000Y-43930662D01*
X227676945Y-43794651D01*
X227623876Y-43666531D01*
X227546832Y-43551226D01*
X227448774Y-43453168D01*
X227333469Y-43376124D01*
X227205349Y-43323055D01*
X227069338Y-43296000D01*
X226930662Y-43296000D01*
X226794651Y-43323055D01*
X226666531Y-43376124D01*
X226551226Y-43453168D01*
X226454000Y-43550394D01*
X226454000Y-43541606D01*
X226546832Y-43448774D01*
X226623876Y-43333469D01*
X226676945Y-43205349D01*
X226704000Y-43069338D01*
X226704000Y-42930662D01*
X226676945Y-42794651D01*
X226623876Y-42666531D01*
X226546832Y-42551226D01*
X226448774Y-42453168D01*
X226333469Y-42376124D01*
X226205349Y-42323055D01*
X226069338Y-42296000D01*
X225930662Y-42296000D01*
X225794651Y-42323055D01*
X225666531Y-42376124D01*
X225551226Y-42453168D01*
X225453168Y-42551226D01*
X225376124Y-42666531D01*
X225323055Y-42794651D01*
X225296000Y-42930662D01*
X209104000Y-42930662D01*
X209104000Y-39604000D01*
X224749816Y-39604000D01*
X227896000Y-42750185D01*
X227896001Y-44636783D01*
X227876124Y-44666531D01*
X227823055Y-44794651D01*
X227796000Y-44930662D01*
X227796000Y-45069338D01*
X227823055Y-45205349D01*
X227876124Y-45333469D01*
X227953168Y-45448774D01*
X228021000Y-45516606D01*
X228021001Y-47476467D01*
X228018683Y-47500000D01*
X228027932Y-47593900D01*
X228055322Y-47684192D01*
X228099800Y-47767405D01*
X228129978Y-47804176D01*
X228159658Y-47840343D01*
X228177936Y-47855343D01*
X229521000Y-49198408D01*
X229521001Y-53476467D01*
X229518683Y-53500000D01*
X229527932Y-53593900D01*
X229555322Y-53684192D01*
X229599800Y-53767405D01*
X229624057Y-53796962D01*
X229659658Y-53840343D01*
X229677936Y-53855343D01*
X230796000Y-54973408D01*
X230796000Y-55069338D01*
X230823055Y-55205349D01*
X230876124Y-55333469D01*
X230953168Y-55448774D01*
X231051226Y-55546832D01*
X231166531Y-55623876D01*
X231294651Y-55676945D01*
X231430662Y-55704000D01*
X231569338Y-55704000D01*
X231705349Y-55676945D01*
X231833469Y-55623876D01*
X231948774Y-55546832D01*
X232046832Y-55448774D01*
X232123876Y-55333469D01*
X232176945Y-55205349D01*
X232204000Y-55069338D01*
X232204000Y-54930662D01*
X232176945Y-54794651D01*
X232123876Y-54666531D01*
X232046832Y-54551226D01*
X231948774Y-54453168D01*
X231833469Y-54376124D01*
X231705349Y-54323055D01*
X231569338Y-54296000D01*
X231473408Y-54296000D01*
X230479000Y-53301593D01*
X230479000Y-50875762D01*
X244239594Y-50875762D01*
X244329345Y-51045609D01*
X244530613Y-51157894D01*
X244749918Y-51228755D01*
X244978835Y-51255470D01*
X245208565Y-51237013D01*
X245430279Y-51174092D01*
X245635458Y-51069126D01*
X245670655Y-51045609D01*
X245760406Y-50875762D01*
X245000000Y-50115355D01*
X244239594Y-50875762D01*
X230479000Y-50875762D01*
X230479000Y-50058835D01*
X243824530Y-50058835D01*
X243842987Y-50288565D01*
X243905908Y-50510279D01*
X244010874Y-50715458D01*
X244034391Y-50750655D01*
X244204238Y-50840406D01*
X244964645Y-50080000D01*
X245035355Y-50080000D01*
X245795762Y-50840406D01*
X245965609Y-50750655D01*
X246077894Y-50549387D01*
X246148755Y-50330082D01*
X246175470Y-50101165D01*
X246157013Y-49871435D01*
X246094092Y-49649721D01*
X245989126Y-49444542D01*
X245965609Y-49409345D01*
X245795762Y-49319594D01*
X245035355Y-50080000D01*
X244964645Y-50080000D01*
X244204238Y-49319594D01*
X244034391Y-49409345D01*
X243922106Y-49610613D01*
X243851245Y-49829918D01*
X243824530Y-50058835D01*
X230479000Y-50058835D01*
X230479000Y-49284238D01*
X244239594Y-49284238D01*
X245000000Y-50044645D01*
X245760406Y-49284238D01*
X245670655Y-49114391D01*
X245469387Y-49002106D01*
X245250082Y-48931245D01*
X245021165Y-48904530D01*
X244791435Y-48922987D01*
X244569721Y-48985908D01*
X244364542Y-49090874D01*
X244329345Y-49114391D01*
X244239594Y-49284238D01*
X230479000Y-49284238D01*
X230479000Y-49023520D01*
X230481317Y-48999999D01*
X230479000Y-48976474D01*
X230472069Y-48906100D01*
X230444679Y-48815808D01*
X230416987Y-48764000D01*
X230400200Y-48732593D01*
X230368287Y-48693708D01*
X230340343Y-48659657D01*
X230322065Y-48644657D01*
X229096855Y-47419447D01*
X243776000Y-47419447D01*
X243776000Y-47660553D01*
X243823038Y-47897028D01*
X243915306Y-48119781D01*
X244049257Y-48320254D01*
X244219746Y-48490743D01*
X244420219Y-48624694D01*
X244642972Y-48716962D01*
X244879447Y-48764000D01*
X245120553Y-48764000D01*
X245357028Y-48716962D01*
X245579781Y-48624694D01*
X245780254Y-48490743D01*
X245950743Y-48320254D01*
X246084694Y-48119781D01*
X246176962Y-47897028D01*
X246224000Y-47660553D01*
X246224000Y-47419447D01*
X246176962Y-47182972D01*
X246084694Y-46960219D01*
X245950743Y-46759746D01*
X245780254Y-46589257D01*
X245579781Y-46455306D01*
X245357028Y-46363038D01*
X245120553Y-46316000D01*
X244879447Y-46316000D01*
X244642972Y-46363038D01*
X244420219Y-46455306D01*
X244219746Y-46589257D01*
X244049257Y-46759746D01*
X243915306Y-46960219D01*
X243823038Y-47182972D01*
X243776000Y-47419447D01*
X229096855Y-47419447D01*
X228979000Y-47301593D01*
X228979000Y-45516606D01*
X229046832Y-45448774D01*
X229123876Y-45333469D01*
X229176945Y-45205349D01*
X229204000Y-45069338D01*
X229204000Y-44930662D01*
X229176945Y-44794651D01*
X229123876Y-44666531D01*
X229104000Y-44636784D01*
X229104000Y-44379999D01*
X243774288Y-44379999D01*
X243774288Y-45620001D01*
X243785927Y-45738169D01*
X243820395Y-45851797D01*
X243876369Y-45956516D01*
X243951697Y-46048303D01*
X244043484Y-46123631D01*
X244148203Y-46179605D01*
X244261831Y-46214073D01*
X244379999Y-46225712D01*
X245620001Y-46225712D01*
X245738169Y-46214073D01*
X245851797Y-46179605D01*
X245956516Y-46123631D01*
X246048303Y-46048303D01*
X246123631Y-45956516D01*
X246179605Y-45851797D01*
X246214073Y-45738169D01*
X246225712Y-45620001D01*
X246225712Y-44379999D01*
X246214073Y-44261831D01*
X246179605Y-44148203D01*
X246123631Y-44043484D01*
X246048303Y-43951697D01*
X245956516Y-43876369D01*
X245851797Y-43820395D01*
X245738169Y-43785927D01*
X245620001Y-43774288D01*
X244379999Y-43774288D01*
X244261831Y-43785927D01*
X244148203Y-43820395D01*
X244043484Y-43876369D01*
X243951697Y-43951697D01*
X243876369Y-44043484D01*
X243820395Y-44148203D01*
X243785927Y-44261831D01*
X243774288Y-44379999D01*
X229104000Y-44379999D01*
X229104000Y-42529663D01*
X229106922Y-42499999D01*
X229104000Y-42470333D01*
X229095260Y-42381595D01*
X229060723Y-42267741D01*
X229004637Y-42162812D01*
X228929159Y-42070841D01*
X228906113Y-42051928D01*
X225448078Y-38593894D01*
X225429159Y-38570841D01*
X225337188Y-38495363D01*
X225232259Y-38439277D01*
X225118405Y-38404740D01*
X225029667Y-38396000D01*
X225000000Y-38393078D01*
X224970333Y-38396000D01*
X208529667Y-38396000D01*
X208500000Y-38393078D01*
X208470333Y-38396000D01*
X188529667Y-38396000D01*
X188500000Y-38393078D01*
X188470333Y-38396000D01*
X148529667Y-38396000D01*
X148500000Y-38393078D01*
X148470333Y-38396000D01*
X132029667Y-38396000D01*
X132000000Y-38393078D01*
X131970333Y-38396000D01*
X108529667Y-38396000D01*
X108500000Y-38393078D01*
X108470333Y-38396000D01*
X94029667Y-38396000D01*
X94000000Y-38393078D01*
X93970333Y-38396000D01*
X77029667Y-38396000D01*
X77000000Y-38393078D01*
X76970333Y-38396000D01*
X68529667Y-38396000D01*
X68500000Y-38393078D01*
X68470333Y-38396000D01*
X68381595Y-38404740D01*
X68267741Y-38439277D01*
X68162812Y-38495363D01*
X68131573Y-38521000D01*
X66023520Y-38521000D01*
X65999999Y-38518683D01*
X65976478Y-38521000D01*
X65976474Y-38521000D01*
X65906100Y-38527931D01*
X65815808Y-38555321D01*
X65812020Y-38557346D01*
X65732594Y-38599800D01*
X65702512Y-38624488D01*
X65659657Y-38659657D01*
X65644657Y-38677935D01*
X63677940Y-40644653D01*
X63659657Y-40659657D01*
X63599800Y-40732595D01*
X63555321Y-40815809D01*
X63527931Y-40906101D01*
X63521000Y-40976474D01*
X63518683Y-41000000D01*
X63521000Y-41023523D01*
X63521001Y-45476465D01*
X63521000Y-45476475D01*
X63521000Y-46523525D01*
X63521001Y-46523535D01*
X63521000Y-47476476D01*
X63518683Y-47500000D01*
X63521000Y-47523523D01*
X63521000Y-47523525D01*
X63527931Y-47593899D01*
X63555321Y-47684191D01*
X63599800Y-47767405D01*
X63659657Y-47840343D01*
X63677940Y-47855347D01*
X65404390Y-49581797D01*
X66322592Y-50500000D01*
X65927936Y-50894657D01*
X65927931Y-50894661D01*
X63526593Y-53296000D01*
X63430662Y-53296000D01*
X63294651Y-53323055D01*
X63166531Y-53376124D01*
X63051226Y-53453168D01*
X62953168Y-53551226D01*
X62876124Y-53666531D01*
X62823055Y-53794651D01*
X62796000Y-53930662D01*
X62796000Y-54069338D01*
X62823055Y-54205349D01*
X62876124Y-54333469D01*
X62953168Y-54448774D01*
X63051226Y-54546832D01*
X63166531Y-54623876D01*
X63294651Y-54676945D01*
X63430662Y-54704000D01*
X63569338Y-54704000D01*
X63705349Y-54676945D01*
X63833469Y-54623876D01*
X63948774Y-54546832D01*
X64046832Y-54448774D01*
X64123876Y-54333469D01*
X64176945Y-54205349D01*
X64204000Y-54069338D01*
X64204000Y-53973407D01*
X66605339Y-51572069D01*
X66605343Y-51572064D01*
X67000000Y-51177408D01*
X70796000Y-54973408D01*
X70796000Y-55069338D01*
X70823055Y-55205349D01*
X70876124Y-55333469D01*
X70953168Y-55448774D01*
X71051226Y-55546832D01*
X71166531Y-55623876D01*
X71294651Y-55676945D01*
X71430662Y-55704000D01*
X71569338Y-55704000D01*
X71705349Y-55676945D01*
X71833469Y-55623876D01*
X71948774Y-55546832D01*
X72046832Y-55448774D01*
X72123876Y-55333469D01*
X72176945Y-55205349D01*
X72204000Y-55069338D01*
X72204000Y-54930662D01*
X72176945Y-54794651D01*
X72123876Y-54666531D01*
X72046832Y-54551226D01*
X71948774Y-54453168D01*
X71833469Y-54376124D01*
X71705349Y-54323055D01*
X71569338Y-54296000D01*
X71473408Y-54296000D01*
X67869177Y-50691770D01*
X67930662Y-50704000D01*
X68069338Y-50704000D01*
X68205349Y-50676945D01*
X68333469Y-50623876D01*
X68448774Y-50546832D01*
X68541606Y-50454000D01*
X72811948Y-50454000D01*
X73296000Y-50938053D01*
X73296000Y-51069338D01*
X73323055Y-51205349D01*
X73376124Y-51333469D01*
X73453168Y-51448774D01*
X73550394Y-51546000D01*
X72541606Y-51546000D01*
X72448774Y-51453168D01*
X72333469Y-51376124D01*
X72205349Y-51323055D01*
X72069338Y-51296000D01*
X71930662Y-51296000D01*
X71794651Y-51323055D01*
X71666531Y-51376124D01*
X71551226Y-51453168D01*
X71453168Y-51551226D01*
X71376124Y-51666531D01*
X71323055Y-51794651D01*
X71296000Y-51930662D01*
X71296000Y-52069338D01*
X71323055Y-52205349D01*
X71376124Y-52333469D01*
X71453168Y-52448774D01*
X71551226Y-52546832D01*
X71666531Y-52623876D01*
X71794651Y-52676945D01*
X71930662Y-52704000D01*
X72069338Y-52704000D01*
X72205349Y-52676945D01*
X72333469Y-52623876D01*
X72448774Y-52546832D01*
X72541606Y-52454000D01*
X78977712Y-52454000D01*
X79000000Y-52456195D01*
X79022288Y-52454000D01*
X79022295Y-52454000D01*
X79088999Y-52447430D01*
X79174579Y-52421470D01*
X79253449Y-52379313D01*
X79322579Y-52322579D01*
X79336795Y-52305257D01*
X80711390Y-50930662D01*
X81296000Y-50930662D01*
X81296000Y-51069338D01*
X81323055Y-51205349D01*
X81376124Y-51333469D01*
X81453168Y-51448774D01*
X81546001Y-51541607D01*
X81546000Y-53458394D01*
X81453168Y-53551226D01*
X81376124Y-53666531D01*
X81323055Y-53794651D01*
X81296000Y-53930662D01*
X81296000Y-54069338D01*
X81323055Y-54205349D01*
X81376124Y-54333469D01*
X81453168Y-54448774D01*
X81551226Y-54546832D01*
X81666531Y-54623876D01*
X81794651Y-54676945D01*
X81930662Y-54704000D01*
X82069338Y-54704000D01*
X82205349Y-54676945D01*
X82333469Y-54623876D01*
X82448774Y-54546832D01*
X82546832Y-54448774D01*
X82623876Y-54333469D01*
X82676945Y-54205349D01*
X82704000Y-54069338D01*
X82704000Y-53930662D01*
X82676945Y-53794651D01*
X82623876Y-53666531D01*
X82546832Y-53551226D01*
X82454000Y-53458394D01*
X82454000Y-51541606D01*
X82546832Y-51448774D01*
X82623876Y-51333469D01*
X82676945Y-51205349D01*
X82704000Y-51069338D01*
X82704000Y-50930662D01*
X82676945Y-50794651D01*
X82623876Y-50666531D01*
X82546832Y-50551226D01*
X82448774Y-50453168D01*
X82333469Y-50376124D01*
X82205349Y-50323055D01*
X82069338Y-50296000D01*
X81930662Y-50296000D01*
X81794651Y-50323055D01*
X81666531Y-50376124D01*
X81551226Y-50453168D01*
X81453168Y-50551226D01*
X81376124Y-50666531D01*
X81323055Y-50794651D01*
X81296000Y-50930662D01*
X80711390Y-50930662D01*
X84546347Y-47095706D01*
X84547145Y-47099717D01*
X84495363Y-47162813D01*
X84439278Y-47267741D01*
X84404740Y-47381596D01*
X84393078Y-47500000D01*
X84396001Y-47529677D01*
X84396000Y-58396000D01*
X65250185Y-58396000D01*
X59183925Y-52329741D01*
X59176945Y-52294651D01*
X59123876Y-52166531D01*
X59104000Y-52136784D01*
X59104000Y-47863216D01*
X59123876Y-47833469D01*
X59176945Y-47705349D01*
X59204000Y-47569338D01*
X59204000Y-47430662D01*
X59176945Y-47294651D01*
X59123876Y-47166531D01*
X59046832Y-47051226D01*
X58948774Y-46953168D01*
X58833469Y-46876124D01*
X58705349Y-46823055D01*
X58569338Y-46796000D01*
X58430662Y-46796000D01*
X58294651Y-46823055D01*
X58166531Y-46876124D01*
X58051226Y-46953168D01*
X57953168Y-47051226D01*
X57876124Y-47166531D01*
X57823055Y-47294651D01*
X57796000Y-47430662D01*
X56707121Y-47430662D01*
X56757906Y-47308057D01*
X56784000Y-47176876D01*
X56784000Y-47043124D01*
X56757906Y-46911943D01*
X56706722Y-46788373D01*
X56632413Y-46677163D01*
X56537837Y-46582587D01*
X56465122Y-46534000D01*
X57196952Y-46534000D01*
X57322413Y-46521643D01*
X57483393Y-46472811D01*
X57631753Y-46393511D01*
X57761791Y-46286791D01*
X57868511Y-46156753D01*
X57947811Y-46008393D01*
X57996643Y-45847413D01*
X58013132Y-45680000D01*
X57996643Y-45512587D01*
X57947811Y-45351607D01*
X57868511Y-45203247D01*
X57761791Y-45073209D01*
X57631753Y-44966489D01*
X57483393Y-44887189D01*
X57322413Y-44838357D01*
X57196952Y-44826000D01*
X56013048Y-44826000D01*
X55887587Y-44838357D01*
X55726607Y-44887189D01*
X55578247Y-44966489D01*
X55448209Y-45073209D01*
X55343333Y-45201000D01*
X53436667Y-45201000D01*
X53331791Y-45073209D01*
X53201753Y-44966489D01*
X53053393Y-44887189D01*
X52892413Y-44838357D01*
X52766952Y-44826000D01*
X52083048Y-44826000D01*
X51957587Y-44838357D01*
X51796607Y-44887189D01*
X51648247Y-44966489D01*
X51518209Y-45073209D01*
X51411489Y-45203247D01*
X51332189Y-45351607D01*
X51283357Y-45512587D01*
X51266868Y-45680000D01*
X50379000Y-45680000D01*
X50379000Y-40018535D01*
X50389798Y-39908403D01*
X51070000Y-39908403D01*
X51070000Y-40091597D01*
X51105739Y-40271271D01*
X51175845Y-40440520D01*
X51277622Y-40592841D01*
X51407159Y-40722378D01*
X51559480Y-40824155D01*
X51728729Y-40894261D01*
X51908403Y-40930000D01*
X52091597Y-40930000D01*
X52271271Y-40894261D01*
X52440520Y-40824155D01*
X52592841Y-40722378D01*
X52722378Y-40592841D01*
X52824155Y-40440520D01*
X52894261Y-40271271D01*
X52930000Y-40091597D01*
X52930000Y-39908403D01*
X52894261Y-39728729D01*
X52824155Y-39559480D01*
X52722378Y-39407159D01*
X52592841Y-39277622D01*
X52440520Y-39175845D01*
X52271271Y-39105739D01*
X52091597Y-39070000D01*
X51908403Y-39070000D01*
X51728729Y-39105739D01*
X51559480Y-39175845D01*
X51407159Y-39277622D01*
X51277622Y-39407159D01*
X51175845Y-39559480D01*
X51105739Y-39728729D01*
X51070000Y-39908403D01*
X50389798Y-39908403D01*
X50411655Y-39685499D01*
X50502991Y-39382978D01*
X50651350Y-39103957D01*
X50851079Y-38859066D01*
X51094564Y-38657637D01*
X51372539Y-38507337D01*
X51674419Y-38413890D01*
X52006368Y-38379000D01*
X247981465Y-38379000D01*
X248314501Y-38411655D01*
G04 #@! TA.AperFunction,Conductor*
D21*
G36*
X248314501Y-38411655D02*
G01*
X248617022Y-38502991D01*
X248896043Y-38651350D01*
X249140934Y-38851079D01*
X249342363Y-39094564D01*
X249492663Y-39372539D01*
X249586110Y-39674419D01*
X249621001Y-40006377D01*
X249621000Y-57981465D01*
X249588345Y-58314502D01*
X249497009Y-58617022D01*
X249348651Y-58896042D01*
X249148923Y-59140932D01*
X248905436Y-59342363D01*
X248627457Y-59492665D01*
X248325582Y-59586110D01*
X247993631Y-59621000D01*
X52018535Y-59621000D01*
X51685498Y-59588345D01*
X51382978Y-59497009D01*
X51103958Y-59348651D01*
X50859068Y-59148923D01*
X50657637Y-58905436D01*
X50507335Y-58627457D01*
X50413890Y-58325582D01*
X50379000Y-57993631D01*
X50379000Y-57908403D01*
X51070000Y-57908403D01*
X51070000Y-58091597D01*
X51105739Y-58271271D01*
X51175845Y-58440520D01*
X51277622Y-58592841D01*
X51407159Y-58722378D01*
X51559480Y-58824155D01*
X51728729Y-58894261D01*
X51908403Y-58930000D01*
X52091597Y-58930000D01*
X52271271Y-58894261D01*
X52440520Y-58824155D01*
X52592841Y-58722378D01*
X52722378Y-58592841D01*
X52824155Y-58440520D01*
X52894261Y-58271271D01*
X52930000Y-58091597D01*
X52930000Y-57908403D01*
X52894261Y-57728729D01*
X52824155Y-57559480D01*
X52722378Y-57407159D01*
X52592841Y-57277622D01*
X52440520Y-57175845D01*
X52271271Y-57105739D01*
X52091597Y-57070000D01*
X51908403Y-57070000D01*
X51728729Y-57105739D01*
X51559480Y-57175845D01*
X51407159Y-57277622D01*
X51277622Y-57407159D01*
X51175845Y-57559480D01*
X51105739Y-57728729D01*
X51070000Y-57908403D01*
X50379000Y-57908403D01*
X50379000Y-45680000D01*
X51266868Y-45680000D01*
X51283357Y-45847413D01*
X51332189Y-46008393D01*
X51411489Y-46156753D01*
X51518209Y-46286791D01*
X51648247Y-46393511D01*
X51796607Y-46472811D01*
X51946000Y-46518128D01*
X51946001Y-53481872D01*
X51796607Y-53527189D01*
X51648247Y-53606489D01*
X51518209Y-53713209D01*
X51411489Y-53843247D01*
X51332189Y-53991607D01*
X51283357Y-54152587D01*
X51266868Y-54320000D01*
X51283357Y-54487413D01*
X51332189Y-54648393D01*
X51411489Y-54796753D01*
X51518209Y-54926791D01*
X51648247Y-55033511D01*
X51796607Y-55112811D01*
X51957587Y-55161643D01*
X52083048Y-55174000D01*
X52766952Y-55174000D01*
X52892413Y-55161643D01*
X53053393Y-55112811D01*
X53201753Y-55033511D01*
X53331791Y-54926791D01*
X53436667Y-54799000D01*
X55343333Y-54799000D01*
X55448209Y-54926791D01*
X55578247Y-55033511D01*
X55726607Y-55112811D01*
X55887587Y-55161643D01*
X56013048Y-55174000D01*
X57196952Y-55174000D01*
X57322413Y-55161643D01*
X57483393Y-55112811D01*
X57631753Y-55033511D01*
X57761791Y-54926791D01*
X57868511Y-54796753D01*
X57947811Y-54648393D01*
X57996643Y-54487413D01*
X58013132Y-54320000D01*
X57996643Y-54152587D01*
X57947811Y-53991607D01*
X57868511Y-53843247D01*
X57761791Y-53713209D01*
X57631753Y-53606489D01*
X57483393Y-53527189D01*
X57322413Y-53478357D01*
X57196952Y-53466000D01*
X56465122Y-53466000D01*
X56537837Y-53417413D01*
X56632413Y-53322837D01*
X56706722Y-53211627D01*
X56757906Y-53088057D01*
X56784000Y-52956876D01*
X56784000Y-52823124D01*
X56757906Y-52691943D01*
X56706722Y-52568373D01*
X56632413Y-52457163D01*
X56537837Y-52362587D01*
X56426627Y-52288278D01*
X56303057Y-52237094D01*
X56171876Y-52211000D01*
X56038124Y-52211000D01*
X55906943Y-52237094D01*
X55783373Y-52288278D01*
X55672163Y-52362587D01*
X55577587Y-52457163D01*
X55503278Y-52568373D01*
X55452094Y-52691943D01*
X55426000Y-52823124D01*
X55426000Y-52956876D01*
X55452094Y-53088057D01*
X55503278Y-53211627D01*
X55577587Y-53322837D01*
X55672163Y-53417413D01*
X55783373Y-53491722D01*
X55808803Y-53502255D01*
X55726607Y-53527189D01*
X55578247Y-53606489D01*
X55448209Y-53713209D01*
X55343333Y-53841000D01*
X53436667Y-53841000D01*
X53331791Y-53713209D01*
X53201753Y-53606489D01*
X53053393Y-53527189D01*
X52904000Y-53481872D01*
X52904000Y-46518128D01*
X53053393Y-46472811D01*
X53201753Y-46393511D01*
X53331791Y-46286791D01*
X53436667Y-46159000D01*
X55343333Y-46159000D01*
X55448209Y-46286791D01*
X55578247Y-46393511D01*
X55726607Y-46472811D01*
X55808803Y-46497745D01*
X55783373Y-46508278D01*
X55672163Y-46582587D01*
X55577587Y-46677163D01*
X55503278Y-46788373D01*
X55452094Y-46911943D01*
X55426000Y-47043124D01*
X55426000Y-47176876D01*
X55452094Y-47308057D01*
X55503278Y-47431627D01*
X55577587Y-47542837D01*
X55672163Y-47637413D01*
X55783373Y-47711722D01*
X55906943Y-47762906D01*
X56038124Y-47789000D01*
X56171876Y-47789000D01*
X56303057Y-47762906D01*
X56426627Y-47711722D01*
X56537837Y-47637413D01*
X56632413Y-47542837D01*
X56706722Y-47431627D01*
X56707121Y-47430662D01*
X57796000Y-47430662D01*
X57796000Y-47569338D01*
X57823055Y-47705349D01*
X57876124Y-47833469D01*
X57896001Y-47863217D01*
X57896000Y-52136784D01*
X57876124Y-52166531D01*
X57823055Y-52294651D01*
X57796000Y-52430662D01*
X57796000Y-52569338D01*
X57823055Y-52705349D01*
X57876124Y-52833469D01*
X57953168Y-52948774D01*
X58051226Y-53046832D01*
X58166531Y-53123876D01*
X58294651Y-53176945D01*
X58329741Y-53183925D01*
X64551927Y-59406112D01*
X64570841Y-59429159D01*
X64662812Y-59504637D01*
X64767741Y-59560723D01*
X64879848Y-59594730D01*
X64881595Y-59595260D01*
X64999999Y-59606922D01*
X65029666Y-59604000D01*
X84970333Y-59604000D01*
X85000000Y-59606922D01*
X85029667Y-59604000D01*
X165470333Y-59604000D01*
X165500000Y-59606922D01*
X165529667Y-59604000D01*
X165618405Y-59595260D01*
X165732259Y-59560723D01*
X165837188Y-59504637D01*
X165929159Y-59429159D01*
X165948078Y-59406107D01*
X167673523Y-57680662D01*
X168546000Y-57680662D01*
X168546000Y-57819338D01*
X168573055Y-57955349D01*
X168626124Y-58083469D01*
X168703168Y-58198774D01*
X168801226Y-58296832D01*
X168916531Y-58373876D01*
X169044651Y-58426945D01*
X169180662Y-58454000D01*
X169311948Y-58454000D01*
X170163210Y-59305263D01*
X170177421Y-59322579D01*
X170246551Y-59379313D01*
X170319932Y-59418536D01*
X170325421Y-59421470D01*
X170411000Y-59447430D01*
X170417499Y-59448070D01*
X170477705Y-59454000D01*
X170477712Y-59454000D01*
X170500000Y-59456195D01*
X170522288Y-59454000D01*
X197977712Y-59454000D01*
X198000000Y-59456195D01*
X198022288Y-59454000D01*
X198022295Y-59454000D01*
X198088999Y-59447430D01*
X198174579Y-59421470D01*
X198253449Y-59379313D01*
X198322579Y-59322579D01*
X198336795Y-59305257D01*
X204938053Y-52704000D01*
X205069338Y-52704000D01*
X205205349Y-52676945D01*
X205333469Y-52623876D01*
X205448774Y-52546832D01*
X205546832Y-52448774D01*
X205623876Y-52333469D01*
X205676945Y-52205349D01*
X205704000Y-52069338D01*
X205704000Y-51930662D01*
X205676945Y-51794651D01*
X205623876Y-51666531D01*
X205546832Y-51551226D01*
X205448774Y-51453168D01*
X205333469Y-51376124D01*
X205285711Y-51356342D01*
X205305263Y-51336790D01*
X205322579Y-51322579D01*
X205379313Y-51253449D01*
X205421470Y-51174579D01*
X205426531Y-51157894D01*
X205447430Y-51089000D01*
X205448461Y-51078530D01*
X205454000Y-51022295D01*
X205454000Y-51022288D01*
X205456195Y-51000000D01*
X205454000Y-50977712D01*
X205454000Y-48930662D01*
X214296000Y-48930662D01*
X214296000Y-49069338D01*
X214323055Y-49205349D01*
X214376124Y-49333469D01*
X214453168Y-49448774D01*
X214551226Y-49546832D01*
X214666531Y-49623876D01*
X214794651Y-49676945D01*
X214930662Y-49704000D01*
X215061948Y-49704000D01*
X215903948Y-50546000D01*
X215541606Y-50546000D01*
X215448774Y-50453168D01*
X215333469Y-50376124D01*
X215205349Y-50323055D01*
X215069338Y-50296000D01*
X214930662Y-50296000D01*
X214794651Y-50323055D01*
X214666531Y-50376124D01*
X214551226Y-50453168D01*
X214453168Y-50551226D01*
X214376124Y-50666531D01*
X214323055Y-50794651D01*
X214296000Y-50930662D01*
X214296000Y-51069338D01*
X214323055Y-51205349D01*
X214376124Y-51333469D01*
X214453168Y-51448774D01*
X214551226Y-51546832D01*
X214666531Y-51623876D01*
X214794651Y-51676945D01*
X214930662Y-51704000D01*
X215069338Y-51704000D01*
X215205349Y-51676945D01*
X215333469Y-51623876D01*
X215448774Y-51546832D01*
X215541606Y-51454000D01*
X215811948Y-51454000D01*
X222663208Y-58305261D01*
X222677421Y-58322579D01*
X222746551Y-58379313D01*
X222825421Y-58421470D01*
X222911000Y-58447430D01*
X222917499Y-58448070D01*
X222977705Y-58454000D01*
X222977712Y-58454000D01*
X223000000Y-58456195D01*
X223022288Y-58454000D01*
X237977712Y-58454000D01*
X238000000Y-58456195D01*
X238022288Y-58454000D01*
X238022295Y-58454000D01*
X238088999Y-58447430D01*
X238174579Y-58421470D01*
X238253449Y-58379313D01*
X238322579Y-58322579D01*
X238336794Y-58305258D01*
X238733649Y-57908403D01*
X247070000Y-57908403D01*
X247070000Y-58091597D01*
X247105739Y-58271271D01*
X247175845Y-58440520D01*
X247277622Y-58592841D01*
X247407159Y-58722378D01*
X247559480Y-58824155D01*
X247728729Y-58894261D01*
X247908403Y-58930000D01*
X248091597Y-58930000D01*
X248271271Y-58894261D01*
X248440520Y-58824155D01*
X248592841Y-58722378D01*
X248722378Y-58592841D01*
X248824155Y-58440520D01*
X248894261Y-58271271D01*
X248930000Y-58091597D01*
X248930000Y-57908403D01*
X248894261Y-57728729D01*
X248824155Y-57559480D01*
X248722378Y-57407159D01*
X248592841Y-57277622D01*
X248440520Y-57175845D01*
X248271271Y-57105739D01*
X248091597Y-57070000D01*
X247908403Y-57070000D01*
X247728729Y-57105739D01*
X247559480Y-57175845D01*
X247407159Y-57277622D01*
X247277622Y-57407159D01*
X247175845Y-57559480D01*
X247105739Y-57728729D01*
X247070000Y-57908403D01*
X238733649Y-57908403D01*
X241028053Y-55614000D01*
X243863205Y-55614000D01*
X243915306Y-55739781D01*
X244049257Y-55940254D01*
X244219746Y-56110743D01*
X244420219Y-56244694D01*
X244642972Y-56336962D01*
X244879447Y-56384000D01*
X245120553Y-56384000D01*
X245357028Y-56336962D01*
X245579781Y-56244694D01*
X245780254Y-56110743D01*
X245950743Y-55940254D01*
X246084694Y-55739781D01*
X246176962Y-55517028D01*
X246224000Y-55280553D01*
X246224000Y-55039447D01*
X246176962Y-54802972D01*
X246084694Y-54580219D01*
X245950743Y-54379746D01*
X245780254Y-54209257D01*
X245579781Y-54075306D01*
X245357028Y-53983038D01*
X245120553Y-53936000D01*
X244879447Y-53936000D01*
X244642972Y-53983038D01*
X244420219Y-54075306D01*
X244219746Y-54209257D01*
X244049257Y-54379746D01*
X243915306Y-54580219D01*
X243863205Y-54706000D01*
X240936053Y-54706000D01*
X242568053Y-53074000D01*
X243863205Y-53074000D01*
X243915306Y-53199781D01*
X244049257Y-53400254D01*
X244219746Y-53570743D01*
X244420219Y-53704694D01*
X244642972Y-53796962D01*
X244879447Y-53844000D01*
X245120553Y-53844000D01*
X245357028Y-53796962D01*
X245579781Y-53704694D01*
X245780254Y-53570743D01*
X245950743Y-53400254D01*
X246084694Y-53199781D01*
X246176962Y-52977028D01*
X246224000Y-52740553D01*
X246224000Y-52499447D01*
X246176962Y-52262972D01*
X246084694Y-52040219D01*
X245950743Y-51839746D01*
X245780254Y-51669257D01*
X245579781Y-51535306D01*
X245357028Y-51443038D01*
X245120553Y-51396000D01*
X244879447Y-51396000D01*
X244642972Y-51443038D01*
X244420219Y-51535306D01*
X244219746Y-51669257D01*
X244049257Y-51839746D01*
X243915306Y-52040219D01*
X243863205Y-52166000D01*
X242402287Y-52166000D01*
X242379999Y-52163805D01*
X242357711Y-52166000D01*
X242357705Y-52166000D01*
X242300301Y-52171654D01*
X242291000Y-52172570D01*
X242205421Y-52198530D01*
X242126551Y-52240687D01*
X242057421Y-52297421D01*
X242043210Y-52314737D01*
X237811948Y-56546000D01*
X223188053Y-56546000D01*
X215704000Y-49061948D01*
X215704000Y-48930662D01*
X215676945Y-48794651D01*
X215623876Y-48666531D01*
X215546832Y-48551226D01*
X215448774Y-48453168D01*
X215333469Y-48376124D01*
X215205349Y-48323055D01*
X215069338Y-48296000D01*
X214930662Y-48296000D01*
X214794651Y-48323055D01*
X214666531Y-48376124D01*
X214551226Y-48453168D01*
X214453168Y-48551226D01*
X214376124Y-48666531D01*
X214323055Y-48794651D01*
X214296000Y-48930662D01*
X205454000Y-48930662D01*
X205454000Y-48541606D01*
X205546832Y-48448774D01*
X205623876Y-48333469D01*
X205676945Y-48205349D01*
X205704000Y-48069338D01*
X205704000Y-47930662D01*
X205676945Y-47794651D01*
X205623876Y-47666531D01*
X205546832Y-47551226D01*
X205448774Y-47453168D01*
X205333469Y-47376124D01*
X205205349Y-47323055D01*
X205069338Y-47296000D01*
X204930662Y-47296000D01*
X204794651Y-47323055D01*
X204666531Y-47376124D01*
X204551226Y-47453168D01*
X204453168Y-47551226D01*
X204376124Y-47666531D01*
X204323055Y-47794651D01*
X204296000Y-47930662D01*
X204296000Y-48069338D01*
X204323055Y-48205349D01*
X204376124Y-48333469D01*
X204453168Y-48448774D01*
X204546000Y-48541606D01*
X204546001Y-50811946D01*
X197694744Y-57663204D01*
X197694738Y-57663209D01*
X197311948Y-58046000D01*
X171688053Y-58046000D01*
X171204000Y-57561948D01*
X171204000Y-57430662D01*
X171176945Y-57294651D01*
X171123876Y-57166531D01*
X171046832Y-57051226D01*
X170948774Y-56953168D01*
X170833469Y-56876124D01*
X170705349Y-56823055D01*
X170569338Y-56796000D01*
X170430662Y-56796000D01*
X170294651Y-56823055D01*
X170166531Y-56876124D01*
X170051226Y-56953168D01*
X169953168Y-57051226D01*
X169876124Y-57166531D01*
X169823055Y-57294651D01*
X169816031Y-57329960D01*
X169796832Y-57301226D01*
X169698774Y-57203168D01*
X169583469Y-57126124D01*
X169455349Y-57073055D01*
X169319338Y-57046000D01*
X169180662Y-57046000D01*
X169044651Y-57073055D01*
X168916531Y-57126124D01*
X168801226Y-57203168D01*
X168703168Y-57301226D01*
X168626124Y-57416531D01*
X168573055Y-57544651D01*
X168546000Y-57680662D01*
X167673523Y-57680662D01*
X169698070Y-55656115D01*
X169698074Y-55656110D01*
X171670260Y-53683925D01*
X171705349Y-53676945D01*
X171833469Y-53623876D01*
X171948774Y-53546832D01*
X172046832Y-53448774D01*
X172123876Y-53333469D01*
X172176945Y-53205349D01*
X172204000Y-53069338D01*
X172204000Y-52930662D01*
X172176945Y-52794651D01*
X172123876Y-52666531D01*
X172046832Y-52551226D01*
X171948774Y-52453168D01*
X171833469Y-52376124D01*
X171705349Y-52323055D01*
X171569338Y-52296000D01*
X171430662Y-52296000D01*
X171294651Y-52323055D01*
X171166531Y-52376124D01*
X171051226Y-52453168D01*
X170953168Y-52551226D01*
X170876124Y-52666531D01*
X170823055Y-52794651D01*
X170816075Y-52829740D01*
X169161612Y-54484204D01*
X166979000Y-52301593D01*
X166979000Y-50653306D01*
X168897349Y-50653306D01*
X168898968Y-50668790D01*
X168898548Y-50900000D01*
X168904340Y-50958810D01*
X168921495Y-51015361D01*
X168949352Y-51067478D01*
X168986841Y-51113159D01*
X169032522Y-51150648D01*
X169084639Y-51178505D01*
X169141190Y-51195660D01*
X169200000Y-51201452D01*
X169435063Y-51200964D01*
X169453306Y-51202651D01*
X169470136Y-51200892D01*
X169900000Y-51200000D01*
X169975000Y-51125000D01*
X169975000Y-50814128D01*
X169992677Y-50754575D01*
X169999838Y-50677118D01*
X170008613Y-50761059D01*
X170025000Y-50813940D01*
X170025000Y-51125000D01*
X170100000Y-51200000D01*
X170534378Y-51200901D01*
X170553306Y-51202651D01*
X170569353Y-51200974D01*
X170800000Y-51201452D01*
X170858810Y-51195660D01*
X170915361Y-51178505D01*
X170967478Y-51150648D01*
X171013159Y-51113159D01*
X171050648Y-51067478D01*
X171078505Y-51015361D01*
X171083164Y-51000000D01*
X177766385Y-51000000D01*
X177784805Y-51187017D01*
X177839355Y-51366846D01*
X177927941Y-51532578D01*
X178047157Y-51677843D01*
X178192422Y-51797059D01*
X178358154Y-51885645D01*
X178537983Y-51940195D01*
X178678144Y-51954000D01*
X179321856Y-51954000D01*
X179462017Y-51940195D01*
X179641846Y-51885645D01*
X179807578Y-51797059D01*
X179952843Y-51677843D01*
X180072059Y-51532578D01*
X180160645Y-51366846D01*
X180215195Y-51187017D01*
X180233615Y-51000000D01*
X180215195Y-50812983D01*
X180160645Y-50633154D01*
X180072059Y-50467422D01*
X179952843Y-50322157D01*
X179807578Y-50202941D01*
X179641846Y-50114355D01*
X179462017Y-50059805D01*
X179321856Y-50046000D01*
X178678144Y-50046000D01*
X178537983Y-50059805D01*
X178358154Y-50114355D01*
X178192422Y-50202941D01*
X178047157Y-50322157D01*
X177927941Y-50467422D01*
X177839355Y-50633154D01*
X177784805Y-50812983D01*
X177766385Y-51000000D01*
X171083164Y-51000000D01*
X171095660Y-50958810D01*
X171101452Y-50900000D01*
X171101024Y-50664290D01*
X171102651Y-50646694D01*
X171100963Y-50630546D01*
X171100000Y-50100000D01*
X171025000Y-50025000D01*
X170025000Y-50025000D01*
X170025000Y-50485872D01*
X170007323Y-50545425D01*
X170000162Y-50622882D01*
X169991387Y-50538941D01*
X169975000Y-50486060D01*
X169975000Y-50025000D01*
X168975000Y-50025000D01*
X168900000Y-50100000D01*
X168899029Y-50635138D01*
X168897349Y-50653306D01*
X166979000Y-50653306D01*
X166979000Y-49353306D01*
X168897349Y-49353306D01*
X168899037Y-49369454D01*
X168900000Y-49900000D01*
X168975000Y-49975000D01*
X169975000Y-49975000D01*
X169975000Y-49514128D01*
X169992677Y-49454575D01*
X169999838Y-49377118D01*
X170008613Y-49461059D01*
X170025000Y-49513940D01*
X170025000Y-49975000D01*
X171025000Y-49975000D01*
X171100000Y-49900000D01*
X171100971Y-49364862D01*
X171102651Y-49346694D01*
X171101032Y-49331210D01*
X171101452Y-49100000D01*
X171095660Y-49041190D01*
X171078505Y-48984639D01*
X171050648Y-48932522D01*
X171013159Y-48886841D01*
X170967478Y-48849352D01*
X170915361Y-48821495D01*
X170858810Y-48804340D01*
X170800000Y-48798548D01*
X170564937Y-48799036D01*
X170546694Y-48797349D01*
X170529864Y-48799108D01*
X170100000Y-48800000D01*
X170025000Y-48875000D01*
X170025000Y-49185872D01*
X170007323Y-49245425D01*
X170000162Y-49322882D01*
X169991387Y-49238941D01*
X169975000Y-49186060D01*
X169975000Y-48875000D01*
X169900000Y-48800000D01*
X169465622Y-48799099D01*
X169446694Y-48797349D01*
X169430647Y-48799026D01*
X169200000Y-48798548D01*
X169141190Y-48804340D01*
X169084639Y-48821495D01*
X169032522Y-48849352D01*
X168986841Y-48886841D01*
X168949352Y-48932522D01*
X168921495Y-48984639D01*
X168904340Y-49041190D01*
X168898548Y-49100000D01*
X168898976Y-49335710D01*
X168897349Y-49353306D01*
X166979000Y-49353306D01*
X166979000Y-49016606D01*
X167046832Y-48948774D01*
X167123876Y-48833469D01*
X167176945Y-48705349D01*
X167187955Y-48649999D01*
X177769288Y-48649999D01*
X177769288Y-49350001D01*
X177780927Y-49468169D01*
X177815395Y-49581797D01*
X177871369Y-49686516D01*
X177946697Y-49778303D01*
X178038484Y-49853631D01*
X178143203Y-49909605D01*
X178256831Y-49944073D01*
X178374999Y-49955712D01*
X179625001Y-49955712D01*
X179743169Y-49944073D01*
X179856797Y-49909605D01*
X179961516Y-49853631D01*
X180053303Y-49778303D01*
X180128631Y-49686516D01*
X180184605Y-49581797D01*
X180219073Y-49468169D01*
X180230712Y-49350001D01*
X180230712Y-48649999D01*
X180219073Y-48531831D01*
X180184605Y-48418203D01*
X180128631Y-48313484D01*
X180053303Y-48221697D01*
X179961516Y-48146369D01*
X179856797Y-48090395D01*
X179743169Y-48055927D01*
X179625001Y-48044288D01*
X178374999Y-48044288D01*
X178256831Y-48055927D01*
X178143203Y-48090395D01*
X178038484Y-48146369D01*
X177946697Y-48221697D01*
X177871369Y-48313484D01*
X177815395Y-48418203D01*
X177780927Y-48531831D01*
X177769288Y-48649999D01*
X167187955Y-48649999D01*
X167204000Y-48569338D01*
X167204000Y-48430662D01*
X167176945Y-48294651D01*
X167123876Y-48166531D01*
X167046832Y-48051226D01*
X166948774Y-47953168D01*
X166833469Y-47876124D01*
X166705349Y-47823055D01*
X166569338Y-47796000D01*
X166430662Y-47796000D01*
X166294651Y-47823055D01*
X166166531Y-47876124D01*
X166051226Y-47953168D01*
X165953168Y-48051226D01*
X165876124Y-48166531D01*
X165823055Y-48294651D01*
X165796000Y-48430662D01*
X165796000Y-48569338D01*
X165823055Y-48705349D01*
X165876124Y-48833469D01*
X165953168Y-48948774D01*
X166021000Y-49016606D01*
X166021001Y-52476467D01*
X166018683Y-52500000D01*
X166027932Y-52593900D01*
X166055322Y-52684192D01*
X166099800Y-52767405D01*
X166129978Y-52804176D01*
X166159658Y-52840343D01*
X166177936Y-52855343D01*
X168484204Y-55161611D01*
X166093885Y-57551930D01*
X165249816Y-58396000D01*
X132222230Y-58396000D01*
X132253449Y-58379313D01*
X132322579Y-58322579D01*
X132336794Y-58305258D01*
X133305264Y-57336789D01*
X133322579Y-57322579D01*
X133379313Y-57253449D01*
X133421470Y-57174579D01*
X133447430Y-57088999D01*
X133454000Y-57022295D01*
X133454000Y-57022288D01*
X133456195Y-57000000D01*
X133454000Y-56977712D01*
X133454000Y-55930662D01*
X133796000Y-55930662D01*
X133796000Y-56069338D01*
X133823055Y-56205349D01*
X133876124Y-56333469D01*
X133953168Y-56448774D01*
X134004394Y-56500000D01*
X133953168Y-56551226D01*
X133876124Y-56666531D01*
X133823055Y-56794651D01*
X133796000Y-56930662D01*
X133796000Y-57069338D01*
X133823055Y-57205349D01*
X133876124Y-57333469D01*
X133953168Y-57448774D01*
X134051226Y-57546832D01*
X134166531Y-57623876D01*
X134294651Y-57676945D01*
X134430662Y-57704000D01*
X134561947Y-57704000D01*
X134663208Y-57805261D01*
X134677421Y-57822579D01*
X134746551Y-57879313D01*
X134805835Y-57911001D01*
X134825421Y-57921470D01*
X134911000Y-57947430D01*
X134919421Y-57948259D01*
X134977705Y-57954000D01*
X134977712Y-57954000D01*
X135000000Y-57956195D01*
X135022288Y-57954000D01*
X146458394Y-57954000D01*
X146551226Y-58046832D01*
X146666531Y-58123876D01*
X146794651Y-58176945D01*
X146930662Y-58204000D01*
X147069338Y-58204000D01*
X147205349Y-58176945D01*
X147333469Y-58123876D01*
X147448774Y-58046832D01*
X147546832Y-57948774D01*
X147623876Y-57833469D01*
X147676945Y-57705349D01*
X147704000Y-57569338D01*
X147704000Y-57430662D01*
X147676945Y-57294651D01*
X147623876Y-57166531D01*
X147546832Y-57051226D01*
X147449606Y-56954000D01*
X147458394Y-56954000D01*
X147551226Y-57046832D01*
X147666531Y-57123876D01*
X147794651Y-57176945D01*
X147930662Y-57204000D01*
X148069338Y-57204000D01*
X148205349Y-57176945D01*
X148333469Y-57123876D01*
X148448774Y-57046832D01*
X148546832Y-56948774D01*
X148623876Y-56833469D01*
X148676945Y-56705349D01*
X148704000Y-56569338D01*
X148704000Y-56430662D01*
X148676945Y-56294651D01*
X148623876Y-56166531D01*
X148546832Y-56051226D01*
X148448774Y-55953168D01*
X148333469Y-55876124D01*
X148205349Y-55823055D01*
X148069338Y-55796000D01*
X147930662Y-55796000D01*
X147794651Y-55823055D01*
X147666531Y-55876124D01*
X147551226Y-55953168D01*
X147458394Y-56046000D01*
X135204000Y-56046000D01*
X135204000Y-55930662D01*
X135176945Y-55794651D01*
X135123876Y-55666531D01*
X135046832Y-55551226D01*
X134948774Y-55453168D01*
X134833469Y-55376124D01*
X134705349Y-55323055D01*
X134569338Y-55296000D01*
X134430662Y-55296000D01*
X134294651Y-55323055D01*
X134166531Y-55376124D01*
X134051226Y-55453168D01*
X133953168Y-55551226D01*
X133876124Y-55666531D01*
X133823055Y-55794651D01*
X133796000Y-55930662D01*
X133454000Y-55930662D01*
X133454000Y-52022288D01*
X133456195Y-52000000D01*
X133454000Y-51977712D01*
X133454000Y-51977705D01*
X133447430Y-51911001D01*
X133447013Y-51909624D01*
X133421470Y-51825421D01*
X133405023Y-51794651D01*
X133379313Y-51746551D01*
X133322579Y-51677421D01*
X133305262Y-51663209D01*
X133204000Y-51561947D01*
X133204000Y-51430662D01*
X133176945Y-51294651D01*
X133123876Y-51166531D01*
X133046832Y-51051226D01*
X132948774Y-50953168D01*
X132833469Y-50876124D01*
X132705349Y-50823055D01*
X132569338Y-50796000D01*
X132430662Y-50796000D01*
X132294651Y-50823055D01*
X132166531Y-50876124D01*
X132051226Y-50953168D01*
X131953168Y-51051226D01*
X131876124Y-51166531D01*
X131823055Y-51294651D01*
X131796000Y-51430662D01*
X131796000Y-51569338D01*
X131823055Y-51705349D01*
X131876124Y-51833469D01*
X131953168Y-51948774D01*
X132051226Y-52046832D01*
X132166531Y-52123876D01*
X132294651Y-52176945D01*
X132430662Y-52204000D01*
X132546001Y-52204000D01*
X132546000Y-56550394D01*
X132454000Y-56458394D01*
X132454000Y-56022288D01*
X132456195Y-56000000D01*
X132454000Y-55977712D01*
X132454000Y-55977705D01*
X132447430Y-55911001D01*
X132436851Y-55876124D01*
X132421470Y-55825421D01*
X132405023Y-55794651D01*
X132379313Y-55746551D01*
X132322579Y-55677421D01*
X132305262Y-55663209D01*
X129336794Y-52694742D01*
X129322579Y-52677421D01*
X129253449Y-52620687D01*
X129174579Y-52578530D01*
X129088999Y-52552570D01*
X129022295Y-52546000D01*
X129022288Y-52546000D01*
X129000000Y-52543805D01*
X128977712Y-52546000D01*
X118188053Y-52546000D01*
X117704000Y-52061948D01*
X117704000Y-51930662D01*
X117676945Y-51794651D01*
X117623876Y-51666531D01*
X117546832Y-51551226D01*
X117448774Y-51453168D01*
X117333469Y-51376124D01*
X117205349Y-51323055D01*
X117069338Y-51296000D01*
X116930662Y-51296000D01*
X116794651Y-51323055D01*
X116666531Y-51376124D01*
X116551226Y-51453168D01*
X116453168Y-51551226D01*
X116376124Y-51666531D01*
X116323055Y-51794651D01*
X116296000Y-51930662D01*
X116296000Y-52069338D01*
X116323055Y-52205349D01*
X116376124Y-52333469D01*
X116453168Y-52448774D01*
X116504394Y-52500000D01*
X116453168Y-52551226D01*
X116376124Y-52666531D01*
X116323055Y-52794651D01*
X116296000Y-52930662D01*
X116296000Y-53069338D01*
X116323055Y-53205349D01*
X116376124Y-53333469D01*
X116453168Y-53448774D01*
X116504394Y-53500000D01*
X116453168Y-53551226D01*
X116376124Y-53666531D01*
X116323055Y-53794651D01*
X116296000Y-53930662D01*
X116296000Y-54069338D01*
X116323055Y-54205349D01*
X116376124Y-54333469D01*
X116453168Y-54448774D01*
X116551226Y-54546832D01*
X116666531Y-54623876D01*
X116794651Y-54676945D01*
X116930662Y-54704000D01*
X117069338Y-54704000D01*
X117205349Y-54676945D01*
X117333469Y-54623876D01*
X117448774Y-54546832D01*
X117541606Y-54454000D01*
X127811948Y-54454000D01*
X128714289Y-55356342D01*
X128666531Y-55376124D01*
X128551226Y-55453168D01*
X128453168Y-55551226D01*
X128376124Y-55666531D01*
X128323055Y-55794651D01*
X128296000Y-55930662D01*
X128296000Y-56061947D01*
X127811948Y-56546000D01*
X117188053Y-56546000D01*
X112704000Y-52061948D01*
X112704000Y-51930662D01*
X112676945Y-51794651D01*
X112623876Y-51666531D01*
X112546832Y-51551226D01*
X112448774Y-51453168D01*
X112333469Y-51376124D01*
X112205349Y-51323055D01*
X112069338Y-51296000D01*
X111930662Y-51296000D01*
X111794651Y-51323055D01*
X111666531Y-51376124D01*
X111551226Y-51453168D01*
X111453168Y-51551226D01*
X111376124Y-51666531D01*
X111323055Y-51794651D01*
X111296000Y-51930662D01*
X111296000Y-52069338D01*
X111323055Y-52205349D01*
X111376124Y-52333469D01*
X111453168Y-52448774D01*
X111551226Y-52546832D01*
X111666531Y-52623876D01*
X111794651Y-52676945D01*
X111930662Y-52704000D01*
X112061948Y-52704000D01*
X116403947Y-57046000D01*
X109688053Y-57046000D01*
X109319474Y-56677421D01*
X108836795Y-56194743D01*
X108836791Y-56194738D01*
X98336795Y-45694743D01*
X98322579Y-45677421D01*
X98253449Y-45620687D01*
X98174579Y-45578530D01*
X98088999Y-45552570D01*
X98022295Y-45546000D01*
X98022288Y-45546000D01*
X98000000Y-45543805D01*
X97977712Y-45546000D01*
X85022287Y-45546000D01*
X84999999Y-45543805D01*
X84977711Y-45546000D01*
X84977705Y-45546000D01*
X84920301Y-45551654D01*
X84911000Y-45552570D01*
X84825421Y-45578530D01*
X84746551Y-45620687D01*
X84746549Y-45620688D01*
X84746550Y-45620688D01*
X84702944Y-45656475D01*
X84677421Y-45677421D01*
X84663210Y-45694737D01*
X78811948Y-51546000D01*
X74449606Y-51546000D01*
X74546832Y-51448774D01*
X74623876Y-51333469D01*
X74676945Y-51205349D01*
X74704000Y-51069338D01*
X74704000Y-50930662D01*
X74676945Y-50794651D01*
X74623876Y-50666531D01*
X74546832Y-50551226D01*
X74448774Y-50453168D01*
X74333469Y-50376124D01*
X74205349Y-50323055D01*
X74069338Y-50296000D01*
X73938053Y-50296000D01*
X73336794Y-49694742D01*
X73322579Y-49677421D01*
X73253449Y-49620687D01*
X73174579Y-49578530D01*
X73088999Y-49552570D01*
X73022295Y-49546000D01*
X73022288Y-49546000D01*
X73000000Y-49543805D01*
X72977712Y-49546000D01*
X68541606Y-49546000D01*
X68495606Y-49500000D01*
X68541606Y-49454000D01*
X73458394Y-49454000D01*
X73551226Y-49546832D01*
X73666531Y-49623876D01*
X73794651Y-49676945D01*
X73930662Y-49704000D01*
X74069338Y-49704000D01*
X74205349Y-49676945D01*
X74333469Y-49623876D01*
X74448774Y-49546832D01*
X74546832Y-49448774D01*
X74623876Y-49333469D01*
X74676945Y-49205349D01*
X74704000Y-49069338D01*
X74704000Y-48930662D01*
X74676945Y-48794651D01*
X74623876Y-48666531D01*
X74546832Y-48551226D01*
X74448774Y-48453168D01*
X74333469Y-48376124D01*
X74205349Y-48323055D01*
X74069338Y-48296000D01*
X73930662Y-48296000D01*
X73794651Y-48323055D01*
X73666531Y-48376124D01*
X73551226Y-48453168D01*
X73458394Y-48546000D01*
X68541606Y-48546000D01*
X68448774Y-48453168D01*
X68333469Y-48376124D01*
X68205349Y-48323055D01*
X68069338Y-48296000D01*
X67938053Y-48296000D01*
X67454000Y-47811948D01*
X67454000Y-41541594D01*
X67546832Y-41448762D01*
X67623876Y-41333457D01*
X67676945Y-41205337D01*
X67704000Y-41069326D01*
X67704000Y-40930650D01*
X67676945Y-40794639D01*
X67623876Y-40666519D01*
X67546832Y-40551214D01*
X67448774Y-40453156D01*
X67333469Y-40376112D01*
X67205349Y-40323043D01*
X67069338Y-40295988D01*
X66930662Y-40295988D01*
X66794651Y-40323043D01*
X66666531Y-40376112D01*
X66551226Y-40453156D01*
X66454000Y-40550382D01*
X66454000Y-40541622D01*
X66546832Y-40448790D01*
X66623876Y-40333485D01*
X66676945Y-40205365D01*
X66704000Y-40069354D01*
X66704000Y-39930678D01*
X66676945Y-39794667D01*
X66623876Y-39666547D01*
X66546832Y-39551242D01*
X66474590Y-39479000D01*
X67896001Y-39479000D01*
X67896000Y-44636784D01*
X67876124Y-44666531D01*
X67823055Y-44794651D01*
X67796000Y-44930662D01*
X67796000Y-45069338D01*
X67823055Y-45205349D01*
X67876124Y-45333469D01*
X67953168Y-45448774D01*
X68051226Y-45546832D01*
X68166531Y-45623876D01*
X68294651Y-45676945D01*
X68430662Y-45704000D01*
X68569338Y-45704000D01*
X68705349Y-45676945D01*
X68833469Y-45623876D01*
X68948774Y-45546832D01*
X69046832Y-45448774D01*
X69123876Y-45333469D01*
X69176945Y-45205349D01*
X69204000Y-45069338D01*
X69204000Y-44930662D01*
X69176945Y-44794651D01*
X69123876Y-44666531D01*
X69104000Y-44636784D01*
X69104000Y-39604000D01*
X76396001Y-39604000D01*
X76396000Y-49636784D01*
X76376124Y-49666531D01*
X76323055Y-49794651D01*
X76296000Y-49930662D01*
X76296000Y-50069338D01*
X76323055Y-50205349D01*
X76376124Y-50333469D01*
X76453168Y-50448774D01*
X76551226Y-50546832D01*
X76666531Y-50623876D01*
X76794651Y-50676945D01*
X76930662Y-50704000D01*
X77069338Y-50704000D01*
X77205349Y-50676945D01*
X77333469Y-50623876D01*
X77448774Y-50546832D01*
X77546832Y-50448774D01*
X77623876Y-50333469D01*
X77676945Y-50205349D01*
X77704000Y-50069338D01*
X77704000Y-49930662D01*
X77676945Y-49794651D01*
X77623876Y-49666531D01*
X77604000Y-49636784D01*
X77604000Y-39604000D01*
X93396000Y-39604000D01*
X93396001Y-41970323D01*
X93393078Y-42000000D01*
X93404740Y-42118404D01*
X93439278Y-42232259D01*
X93487810Y-42323055D01*
X93495364Y-42337188D01*
X93570842Y-42429159D01*
X93593889Y-42448073D01*
X94551927Y-43406112D01*
X94570841Y-43429159D01*
X94662812Y-43504637D01*
X94767741Y-43560723D01*
X94881595Y-43595260D01*
X95000000Y-43606922D01*
X95029667Y-43604000D01*
X95256214Y-43604000D01*
X95258980Y-43608140D01*
X95391860Y-43741020D01*
X95548112Y-43845424D01*
X95721728Y-43917338D01*
X95906039Y-43954000D01*
X96093961Y-43954000D01*
X96278272Y-43917338D01*
X96451888Y-43845424D01*
X96608140Y-43741020D01*
X96741020Y-43608140D01*
X96845424Y-43451888D01*
X96917338Y-43278272D01*
X96954000Y-43093961D01*
X96954000Y-42906039D01*
X96917338Y-42721728D01*
X96845424Y-42548112D01*
X96741020Y-42391860D01*
X96608140Y-42258980D01*
X96451888Y-42154576D01*
X96278272Y-42082662D01*
X96093961Y-42046000D01*
X95906039Y-42046000D01*
X95721728Y-42082662D01*
X95548112Y-42154576D01*
X95391860Y-42258980D01*
X95258980Y-42391860D01*
X95256214Y-42396000D01*
X95250185Y-42396000D01*
X94604000Y-41749816D01*
X94604000Y-39604000D01*
X105417906Y-39604000D01*
X105376124Y-39666531D01*
X105323055Y-39794651D01*
X105296000Y-39930662D01*
X105296000Y-40069338D01*
X105323055Y-40205349D01*
X105376124Y-40333469D01*
X105453168Y-40448774D01*
X105546001Y-40541607D01*
X105546000Y-47977712D01*
X105543805Y-48000000D01*
X105546000Y-48022288D01*
X105546000Y-48022294D01*
X105551654Y-48079698D01*
X105552570Y-48088999D01*
X105558007Y-48106922D01*
X105578530Y-48174578D01*
X105620687Y-48253448D01*
X105677421Y-48322579D01*
X105694742Y-48336794D01*
X107296000Y-49938053D01*
X107296000Y-50069338D01*
X107323055Y-50205349D01*
X107376124Y-50333469D01*
X107453168Y-50448774D01*
X107551226Y-50546832D01*
X107666531Y-50623876D01*
X107794651Y-50676945D01*
X107930662Y-50704000D01*
X108069338Y-50704000D01*
X108205349Y-50676945D01*
X108333469Y-50623876D01*
X108448774Y-50546832D01*
X108546832Y-50448774D01*
X108623876Y-50333469D01*
X108676945Y-50205349D01*
X108704000Y-50069338D01*
X108704000Y-49930662D01*
X108676945Y-49794651D01*
X108623876Y-49666531D01*
X108546832Y-49551226D01*
X108495606Y-49500000D01*
X108546832Y-49448774D01*
X108623876Y-49333469D01*
X108676945Y-49205349D01*
X108704000Y-49069338D01*
X108704000Y-48930662D01*
X108676945Y-48794651D01*
X108623876Y-48666531D01*
X108546832Y-48551226D01*
X108448774Y-48453168D01*
X108333469Y-48376124D01*
X108205349Y-48323055D01*
X108069338Y-48296000D01*
X107938053Y-48296000D01*
X107454000Y-47811948D01*
X107454000Y-41541606D01*
X107546832Y-41448774D01*
X107623876Y-41333469D01*
X107676945Y-41205349D01*
X107704000Y-41069338D01*
X107704000Y-40930662D01*
X107676945Y-40794651D01*
X107623876Y-40666531D01*
X107546832Y-40551226D01*
X107448774Y-40453168D01*
X107333469Y-40376124D01*
X107205349Y-40323055D01*
X107069338Y-40296000D01*
X106930662Y-40296000D01*
X106794651Y-40323055D01*
X106666531Y-40376124D01*
X106551226Y-40453168D01*
X106454000Y-40550394D01*
X106454000Y-40541606D01*
X106546832Y-40448774D01*
X106623876Y-40333469D01*
X106676945Y-40205349D01*
X106704000Y-40069338D01*
X106704000Y-39930662D01*
X106676945Y-39794651D01*
X106623876Y-39666531D01*
X106582094Y-39604000D01*
X107896001Y-39604000D01*
X107896000Y-44636784D01*
X107876124Y-44666531D01*
X107823055Y-44794651D01*
X107796000Y-44930662D01*
X107796000Y-45069338D01*
X107823055Y-45205349D01*
X107876124Y-45333469D01*
X107953168Y-45448774D01*
X108021000Y-45516606D01*
X108021001Y-47726467D01*
X108018683Y-47750000D01*
X108027932Y-47843900D01*
X108055322Y-47934192D01*
X108099800Y-48017405D01*
X108123950Y-48046832D01*
X108159658Y-48090343D01*
X108177936Y-48105343D01*
X109394657Y-49322065D01*
X109409657Y-49340343D01*
X109452417Y-49375435D01*
X109482594Y-49400200D01*
X109521000Y-49420728D01*
X109521001Y-53476467D01*
X109518683Y-53500000D01*
X109527932Y-53593900D01*
X109555322Y-53684192D01*
X109599800Y-53767405D01*
X109624057Y-53796962D01*
X109659658Y-53840343D01*
X109677936Y-53855343D01*
X110796000Y-54973408D01*
X110796000Y-55069338D01*
X110823055Y-55205349D01*
X110876124Y-55333469D01*
X110953168Y-55448774D01*
X111051226Y-55546832D01*
X111166531Y-55623876D01*
X111294651Y-55676945D01*
X111430662Y-55704000D01*
X111569338Y-55704000D01*
X111705349Y-55676945D01*
X111833469Y-55623876D01*
X111948774Y-55546832D01*
X112046832Y-55448774D01*
X112123876Y-55333469D01*
X112176945Y-55205349D01*
X112204000Y-55069338D01*
X112204000Y-54930662D01*
X112176945Y-54794651D01*
X112123876Y-54666531D01*
X112046832Y-54551226D01*
X111948774Y-54453168D01*
X111833469Y-54376124D01*
X111705349Y-54323055D01*
X111569338Y-54296000D01*
X111473408Y-54296000D01*
X110479000Y-53301593D01*
X110479000Y-49479000D01*
X111801593Y-49479000D01*
X113796000Y-51473408D01*
X113796000Y-51569338D01*
X113823055Y-51705349D01*
X113876124Y-51833469D01*
X113953168Y-51948774D01*
X114051226Y-52046832D01*
X114166531Y-52123876D01*
X114294651Y-52176945D01*
X114430662Y-52204000D01*
X114569338Y-52204000D01*
X114705349Y-52176945D01*
X114833469Y-52123876D01*
X114948774Y-52046832D01*
X115046832Y-51948774D01*
X115123876Y-51833469D01*
X115176945Y-51705349D01*
X115204000Y-51569338D01*
X115204000Y-51430662D01*
X115176945Y-51294651D01*
X115123876Y-51166531D01*
X115046832Y-51051226D01*
X114948774Y-50953168D01*
X114833469Y-50876124D01*
X114705349Y-50823055D01*
X114569338Y-50796000D01*
X114473408Y-50796000D01*
X112355347Y-48677940D01*
X112340343Y-48659657D01*
X112267405Y-48599800D01*
X112184192Y-48555321D01*
X112093900Y-48527931D01*
X112023526Y-48521000D01*
X112023523Y-48521000D01*
X112000000Y-48518683D01*
X111976477Y-48521000D01*
X110023526Y-48521000D01*
X110000000Y-48518683D01*
X109976474Y-48521000D01*
X109948408Y-48521000D01*
X108979000Y-47551593D01*
X108979000Y-46430662D01*
X120296000Y-46430662D01*
X120296000Y-46569338D01*
X120323055Y-46705349D01*
X120376124Y-46833469D01*
X120453168Y-46948774D01*
X120551226Y-47046832D01*
X120666531Y-47123876D01*
X120794651Y-47176945D01*
X120930662Y-47204000D01*
X121069338Y-47204000D01*
X121205349Y-47176945D01*
X121333469Y-47123876D01*
X121448774Y-47046832D01*
X121541606Y-46954000D01*
X128311948Y-46954000D01*
X128796000Y-47438053D01*
X128796000Y-47569338D01*
X128823055Y-47705349D01*
X128876124Y-47833469D01*
X128953168Y-47948774D01*
X129051226Y-48046832D01*
X129166531Y-48123876D01*
X129294651Y-48176945D01*
X129430662Y-48204000D01*
X129569338Y-48204000D01*
X129705349Y-48176945D01*
X129833469Y-48123876D01*
X129948774Y-48046832D01*
X130046832Y-47948774D01*
X130123876Y-47833469D01*
X130176945Y-47705349D01*
X130204000Y-47569338D01*
X130204000Y-47430662D01*
X130176945Y-47294651D01*
X130123876Y-47166531D01*
X130046832Y-47051226D01*
X129948774Y-46953168D01*
X129833469Y-46876124D01*
X129705349Y-46823055D01*
X129569338Y-46796000D01*
X129438053Y-46796000D01*
X128836794Y-46194742D01*
X128822579Y-46177421D01*
X128753449Y-46120687D01*
X128674579Y-46078530D01*
X128588999Y-46052570D01*
X128522295Y-46046000D01*
X128522288Y-46046000D01*
X128500000Y-46043805D01*
X128477712Y-46046000D01*
X121541606Y-46046000D01*
X121448774Y-45953168D01*
X121333469Y-45876124D01*
X121205349Y-45823055D01*
X121069338Y-45796000D01*
X120930662Y-45796000D01*
X120794651Y-45823055D01*
X120666531Y-45876124D01*
X120551226Y-45953168D01*
X120453168Y-46051226D01*
X120376124Y-46166531D01*
X120323055Y-46294651D01*
X120296000Y-46430662D01*
X108979000Y-46430662D01*
X108979000Y-45516606D01*
X109046832Y-45448774D01*
X109123876Y-45333469D01*
X109176945Y-45205349D01*
X109204000Y-45069338D01*
X109204000Y-44930662D01*
X109176945Y-44794651D01*
X109123876Y-44666531D01*
X109104000Y-44636784D01*
X109104000Y-39604000D01*
X127417906Y-39604000D01*
X127376124Y-39666531D01*
X127323055Y-39794651D01*
X127296000Y-39930662D01*
X127296000Y-40069338D01*
X127323055Y-40205349D01*
X127376124Y-40333469D01*
X127453168Y-40448774D01*
X127546000Y-40541606D01*
X127546001Y-41458393D01*
X127500000Y-41504394D01*
X127448774Y-41453168D01*
X127333469Y-41376124D01*
X127205349Y-41323055D01*
X127069338Y-41296000D01*
X126930662Y-41296000D01*
X126794651Y-41323055D01*
X126666531Y-41376124D01*
X126551226Y-41453168D01*
X126453168Y-41551226D01*
X126376124Y-41666531D01*
X126323055Y-41794651D01*
X126296000Y-41930662D01*
X126296000Y-42069338D01*
X126323055Y-42205349D01*
X126376124Y-42333469D01*
X126453168Y-42448774D01*
X126551226Y-42546832D01*
X126666531Y-42623876D01*
X126794651Y-42676945D01*
X126930662Y-42704000D01*
X127061948Y-42704000D01*
X127663210Y-43305263D01*
X127677421Y-43322579D01*
X127746551Y-43379313D01*
X127825421Y-43421470D01*
X127911001Y-43447430D01*
X127977705Y-43454000D01*
X127977712Y-43454000D01*
X128000000Y-43456195D01*
X128022288Y-43454000D01*
X129458394Y-43454000D01*
X129551226Y-43546832D01*
X129666531Y-43623876D01*
X129794651Y-43676945D01*
X129930662Y-43704000D01*
X130069338Y-43704000D01*
X130205349Y-43676945D01*
X130333469Y-43623876D01*
X130448774Y-43546832D01*
X130546832Y-43448774D01*
X130623876Y-43333469D01*
X130676945Y-43205349D01*
X130704000Y-43069338D01*
X130704000Y-42930662D01*
X130676945Y-42794651D01*
X130623876Y-42666531D01*
X130546832Y-42551226D01*
X130448774Y-42453168D01*
X130333469Y-42376124D01*
X130205349Y-42323055D01*
X130069338Y-42296000D01*
X129930662Y-42296000D01*
X129794651Y-42323055D01*
X129666531Y-42376124D01*
X129551226Y-42453168D01*
X129458394Y-42546000D01*
X128449606Y-42546000D01*
X128546832Y-42448774D01*
X128623876Y-42333469D01*
X128676945Y-42205349D01*
X128704000Y-42069338D01*
X128704000Y-41930662D01*
X128676945Y-41794651D01*
X128623876Y-41666531D01*
X128546832Y-41551226D01*
X128454000Y-41458394D01*
X128454000Y-40541606D01*
X128546832Y-40448774D01*
X128623876Y-40333469D01*
X128676945Y-40205349D01*
X128704000Y-40069338D01*
X128704000Y-39930662D01*
X128676945Y-39794651D01*
X128623876Y-39666531D01*
X128582094Y-39604000D01*
X131396000Y-39604000D01*
X131396001Y-47256213D01*
X131391860Y-47258980D01*
X131258980Y-47391860D01*
X131154576Y-47548112D01*
X131082662Y-47721728D01*
X131046000Y-47906039D01*
X131046000Y-48093961D01*
X131082662Y-48278272D01*
X131154576Y-48451888D01*
X131258980Y-48608140D01*
X131391860Y-48741020D01*
X131548112Y-48845424D01*
X131721728Y-48917338D01*
X131906039Y-48954000D01*
X132093961Y-48954000D01*
X132278272Y-48917338D01*
X132451888Y-48845424D01*
X132608140Y-48741020D01*
X132741020Y-48608140D01*
X132845424Y-48451888D01*
X132917338Y-48278272D01*
X132954000Y-48093961D01*
X132954000Y-47906039D01*
X132917338Y-47721728D01*
X132845424Y-47548112D01*
X132741020Y-47391860D01*
X132608140Y-47258980D01*
X132604000Y-47256214D01*
X132604000Y-39604000D01*
X145417906Y-39604000D01*
X145376124Y-39666531D01*
X145323055Y-39794651D01*
X145296000Y-39930662D01*
X145296000Y-40069338D01*
X145323055Y-40205349D01*
X145376124Y-40333469D01*
X145453168Y-40448774D01*
X145546001Y-40541607D01*
X145546000Y-47977712D01*
X145543805Y-48000000D01*
X145546000Y-48022288D01*
X145546000Y-48022294D01*
X145551654Y-48079698D01*
X145552570Y-48088999D01*
X145558007Y-48106922D01*
X145578530Y-48174578D01*
X145620687Y-48253448D01*
X145677421Y-48322579D01*
X145694742Y-48336794D01*
X147296000Y-49938053D01*
X147296000Y-50069338D01*
X147323055Y-50205349D01*
X147376124Y-50333469D01*
X147453168Y-50448774D01*
X147551226Y-50546832D01*
X147666531Y-50623876D01*
X147794651Y-50676945D01*
X147930662Y-50704000D01*
X148069338Y-50704000D01*
X148205349Y-50676945D01*
X148333469Y-50623876D01*
X148448774Y-50546832D01*
X148546832Y-50448774D01*
X148623876Y-50333469D01*
X148676945Y-50205349D01*
X148704000Y-50069338D01*
X148704000Y-49930662D01*
X148676945Y-49794651D01*
X148623876Y-49666531D01*
X148546832Y-49551226D01*
X148495606Y-49500000D01*
X148546832Y-49448774D01*
X148623876Y-49333469D01*
X148676945Y-49205349D01*
X148704000Y-49069338D01*
X148704000Y-48930662D01*
X148676945Y-48794651D01*
X148623876Y-48666531D01*
X148546832Y-48551226D01*
X148448774Y-48453168D01*
X148333469Y-48376124D01*
X148205349Y-48323055D01*
X148069338Y-48296000D01*
X147938053Y-48296000D01*
X147454000Y-47811948D01*
X147454000Y-41541606D01*
X147546832Y-41448774D01*
X147623876Y-41333469D01*
X147676945Y-41205349D01*
X147704000Y-41069338D01*
X147704000Y-40930662D01*
X147676945Y-40794651D01*
X147623876Y-40666531D01*
X147546832Y-40551226D01*
X147448774Y-40453168D01*
X147333469Y-40376124D01*
X147205349Y-40323055D01*
X147069338Y-40296000D01*
X146930662Y-40296000D01*
X146794651Y-40323055D01*
X146666531Y-40376124D01*
X146551226Y-40453168D01*
X146454000Y-40550394D01*
X146454000Y-40541606D01*
X146546832Y-40448774D01*
X146623876Y-40333469D01*
X146676945Y-40205349D01*
X146704000Y-40069338D01*
X146704000Y-39930662D01*
X146676945Y-39794651D01*
X146623876Y-39666531D01*
X146582094Y-39604000D01*
X147896001Y-39604000D01*
X147896000Y-44636784D01*
X147876124Y-44666531D01*
X147823055Y-44794651D01*
X147796000Y-44930662D01*
X147796000Y-45069338D01*
X147823055Y-45205349D01*
X147876124Y-45333469D01*
X147953168Y-45448774D01*
X148021000Y-45516606D01*
X148021001Y-47476467D01*
X148018683Y-47500000D01*
X148027932Y-47593900D01*
X148055322Y-47684192D01*
X148099800Y-47767405D01*
X148129978Y-47804176D01*
X148159658Y-47840343D01*
X148177936Y-47855343D01*
X149521000Y-49198408D01*
X149521001Y-53476467D01*
X149518683Y-53500000D01*
X149527932Y-53593900D01*
X149555322Y-53684192D01*
X149599800Y-53767405D01*
X149624057Y-53796962D01*
X149659658Y-53840343D01*
X149677936Y-53855343D01*
X150796000Y-54973408D01*
X150796000Y-55069338D01*
X150823055Y-55205349D01*
X150876124Y-55333469D01*
X150953168Y-55448774D01*
X151051226Y-55546832D01*
X151166531Y-55623876D01*
X151294651Y-55676945D01*
X151430662Y-55704000D01*
X151569338Y-55704000D01*
X151705349Y-55676945D01*
X151833469Y-55623876D01*
X151948774Y-55546832D01*
X152046832Y-55448774D01*
X152123876Y-55333469D01*
X152176945Y-55205349D01*
X152204000Y-55069338D01*
X152204000Y-54930662D01*
X152176945Y-54794651D01*
X152123876Y-54666531D01*
X152046832Y-54551226D01*
X151948774Y-54453168D01*
X151833469Y-54376124D01*
X151705349Y-54323055D01*
X151569338Y-54296000D01*
X151473408Y-54296000D01*
X150479000Y-53301593D01*
X150479000Y-49023520D01*
X150481317Y-48999999D01*
X150479000Y-48976474D01*
X150472069Y-48906100D01*
X150444679Y-48815808D01*
X150416987Y-48764000D01*
X150400200Y-48732593D01*
X150368287Y-48693708D01*
X150340343Y-48659657D01*
X150322065Y-48644657D01*
X148979000Y-47301593D01*
X148979000Y-45516606D01*
X149046832Y-45448774D01*
X149123876Y-45333469D01*
X149176945Y-45205349D01*
X149204000Y-45069338D01*
X149204000Y-44930662D01*
X149176945Y-44794651D01*
X149123876Y-44666531D01*
X149104000Y-44636784D01*
X149104000Y-39604000D01*
X170417906Y-39604000D01*
X170376124Y-39666531D01*
X170323055Y-39794651D01*
X170296000Y-39930662D01*
X170296000Y-40069338D01*
X170323055Y-40205349D01*
X170376124Y-40333469D01*
X170453168Y-40448774D01*
X170546001Y-40541607D01*
X170546000Y-42458394D01*
X170453168Y-42551226D01*
X170376124Y-42666531D01*
X170323055Y-42794651D01*
X170296000Y-42930662D01*
X170296000Y-43069338D01*
X170323055Y-43205349D01*
X170376124Y-43333469D01*
X170453168Y-43448774D01*
X170551226Y-43546832D01*
X170666531Y-43623876D01*
X170794651Y-43676945D01*
X170930662Y-43704000D01*
X171069338Y-43704000D01*
X171205349Y-43676945D01*
X171333469Y-43623876D01*
X171448774Y-43546832D01*
X171546832Y-43448774D01*
X171623876Y-43333469D01*
X171676945Y-43205349D01*
X171704000Y-43069338D01*
X171704000Y-42930662D01*
X171676945Y-42794651D01*
X171623876Y-42666531D01*
X171546832Y-42551226D01*
X171454000Y-42458394D01*
X171454000Y-40541606D01*
X171546832Y-40448774D01*
X171623876Y-40333469D01*
X171676945Y-40205349D01*
X171704000Y-40069338D01*
X171704000Y-39930662D01*
X171676945Y-39794651D01*
X171623876Y-39666531D01*
X171582094Y-39604000D01*
X185417906Y-39604000D01*
X185376124Y-39666531D01*
X185323055Y-39794651D01*
X185296000Y-39930662D01*
X185296000Y-40069338D01*
X185323055Y-40205349D01*
X185376124Y-40333469D01*
X185453168Y-40448774D01*
X185546001Y-40541607D01*
X185546000Y-47977712D01*
X185543805Y-48000000D01*
X185546000Y-48022288D01*
X185546000Y-48022294D01*
X185551654Y-48079698D01*
X185552570Y-48088999D01*
X185558007Y-48106922D01*
X185578530Y-48174578D01*
X185620687Y-48253448D01*
X185677421Y-48322579D01*
X185694742Y-48336794D01*
X187296000Y-49938053D01*
X187296000Y-50069338D01*
X187323055Y-50205349D01*
X187376124Y-50333469D01*
X187453168Y-50448774D01*
X187551226Y-50546832D01*
X187666531Y-50623876D01*
X187794651Y-50676945D01*
X187930662Y-50704000D01*
X188069338Y-50704000D01*
X188205349Y-50676945D01*
X188333469Y-50623876D01*
X188448774Y-50546832D01*
X188546832Y-50448774D01*
X188623876Y-50333469D01*
X188676945Y-50205349D01*
X188704000Y-50069338D01*
X188704000Y-49930662D01*
X188676945Y-49794651D01*
X188623876Y-49666531D01*
X188546832Y-49551226D01*
X188495606Y-49500000D01*
X188546832Y-49448774D01*
X188623876Y-49333469D01*
X188676945Y-49205349D01*
X188704000Y-49069338D01*
X188704000Y-48930662D01*
X188676945Y-48794651D01*
X188623876Y-48666531D01*
X188546832Y-48551226D01*
X188448774Y-48453168D01*
X188333469Y-48376124D01*
X188205349Y-48323055D01*
X188069338Y-48296000D01*
X187938053Y-48296000D01*
X187454000Y-47811948D01*
X187454000Y-41541606D01*
X187546832Y-41448774D01*
X187623876Y-41333469D01*
X187676945Y-41205349D01*
X187704000Y-41069338D01*
X187704000Y-40930662D01*
X187676945Y-40794651D01*
X187623876Y-40666531D01*
X187546832Y-40551226D01*
X187448774Y-40453168D01*
X187333469Y-40376124D01*
X187205349Y-40323055D01*
X187069338Y-40296000D01*
X186930662Y-40296000D01*
X186794651Y-40323055D01*
X186666531Y-40376124D01*
X186551226Y-40453168D01*
X186454000Y-40550394D01*
X186454000Y-40541606D01*
X186546832Y-40448774D01*
X186623876Y-40333469D01*
X186676945Y-40205349D01*
X186704000Y-40069338D01*
X186704000Y-39930662D01*
X186676945Y-39794651D01*
X186623876Y-39666531D01*
X186582094Y-39604000D01*
X187896001Y-39604000D01*
X187896000Y-44636784D01*
X187876124Y-44666531D01*
X187823055Y-44794651D01*
X187796000Y-44930662D01*
X187796000Y-45069338D01*
X187823055Y-45205349D01*
X187876124Y-45333469D01*
X187953168Y-45448774D01*
X188021000Y-45516606D01*
X188021001Y-47476467D01*
X188018683Y-47500000D01*
X188027932Y-47593900D01*
X188055322Y-47684192D01*
X188099800Y-47767405D01*
X188129978Y-47804176D01*
X188159658Y-47840343D01*
X188177936Y-47855343D01*
X189521000Y-49198408D01*
X189521001Y-53476467D01*
X189518683Y-53500000D01*
X189527932Y-53593900D01*
X189555322Y-53684192D01*
X189599800Y-53767405D01*
X189624057Y-53796962D01*
X189659658Y-53840343D01*
X189677936Y-53855343D01*
X190796000Y-54973408D01*
X190796000Y-55069338D01*
X190823055Y-55205349D01*
X190876124Y-55333469D01*
X190953168Y-55448774D01*
X191051226Y-55546832D01*
X191166531Y-55623876D01*
X191294651Y-55676945D01*
X191430662Y-55704000D01*
X191569338Y-55704000D01*
X191705349Y-55676945D01*
X191833469Y-55623876D01*
X191948774Y-55546832D01*
X192046832Y-55448774D01*
X192123876Y-55333469D01*
X192176945Y-55205349D01*
X192204000Y-55069338D01*
X192204000Y-54930662D01*
X192176945Y-54794651D01*
X192123876Y-54666531D01*
X192046832Y-54551226D01*
X191948774Y-54453168D01*
X191833469Y-54376124D01*
X191705349Y-54323055D01*
X191569338Y-54296000D01*
X191473408Y-54296000D01*
X190479000Y-53301593D01*
X190479000Y-49023520D01*
X190481317Y-48999999D01*
X190479000Y-48976474D01*
X190472069Y-48906100D01*
X190444679Y-48815808D01*
X190416987Y-48764000D01*
X190400200Y-48732593D01*
X190368287Y-48693708D01*
X190340343Y-48659657D01*
X190322065Y-48644657D01*
X188979000Y-47301593D01*
X188979000Y-45516606D01*
X189046832Y-45448774D01*
X189123876Y-45333469D01*
X189176945Y-45205349D01*
X189204000Y-45069338D01*
X189204000Y-44930662D01*
X189176945Y-44794651D01*
X189123876Y-44666531D01*
X189104000Y-44636784D01*
X189104000Y-39604000D01*
X207896001Y-39604000D01*
X207896000Y-44636784D01*
X207876124Y-44666531D01*
X207823055Y-44794651D01*
X207796000Y-44930662D01*
X207796000Y-45069338D01*
X207823055Y-45205349D01*
X207876124Y-45333469D01*
X207953168Y-45448774D01*
X208051226Y-45546832D01*
X208166531Y-45623876D01*
X208294651Y-45676945D01*
X208430662Y-45704000D01*
X208569338Y-45704000D01*
X208705349Y-45676945D01*
X208833469Y-45623876D01*
X208948774Y-45546832D01*
X209046832Y-45448774D01*
X209123876Y-45333469D01*
X209176945Y-45205349D01*
X209204000Y-45069338D01*
X209204000Y-44930662D01*
X209176945Y-44794651D01*
X209123876Y-44666531D01*
X209104000Y-44636784D01*
X209104000Y-42930662D01*
X225296000Y-42930662D01*
X225296000Y-43069338D01*
X225323055Y-43205349D01*
X225376124Y-43333469D01*
X225453168Y-43448774D01*
X225546001Y-43541607D01*
X225546000Y-48977712D01*
X225543805Y-49000000D01*
X225546000Y-49022288D01*
X225546000Y-49022294D01*
X225552570Y-49088998D01*
X225578530Y-49174578D01*
X225620687Y-49253448D01*
X225677421Y-49322579D01*
X225694742Y-49336794D01*
X226296000Y-49938053D01*
X226296000Y-50069338D01*
X226323055Y-50205349D01*
X226376124Y-50333469D01*
X226453168Y-50448774D01*
X226551226Y-50546832D01*
X226666531Y-50623876D01*
X226794651Y-50676945D01*
X226930662Y-50704000D01*
X227069338Y-50704000D01*
X227205349Y-50676945D01*
X227333469Y-50623876D01*
X227448774Y-50546832D01*
X227546832Y-50448774D01*
X227623876Y-50333469D01*
X227676945Y-50205349D01*
X227704000Y-50069338D01*
X227704000Y-49930662D01*
X227676945Y-49794651D01*
X227623876Y-49666531D01*
X227546832Y-49551226D01*
X227448774Y-49453168D01*
X227333469Y-49376124D01*
X227205349Y-49323055D01*
X227069338Y-49296000D01*
X226938053Y-49296000D01*
X226454000Y-48811948D01*
X226454000Y-44449606D01*
X226546001Y-44541607D01*
X226546000Y-47977712D01*
X226543805Y-48000000D01*
X226546000Y-48022288D01*
X226546000Y-48022294D01*
X226551654Y-48079698D01*
X226552570Y-48088999D01*
X226558007Y-48106922D01*
X226578530Y-48174578D01*
X226620687Y-48253448D01*
X226677421Y-48322579D01*
X226694742Y-48336794D01*
X227296000Y-48938053D01*
X227296000Y-49069338D01*
X227323055Y-49205349D01*
X227376124Y-49333469D01*
X227453168Y-49448774D01*
X227551226Y-49546832D01*
X227666531Y-49623876D01*
X227794651Y-49676945D01*
X227930662Y-49704000D01*
X228069338Y-49704000D01*
X228205349Y-49676945D01*
X228333469Y-49623876D01*
X228448774Y-49546832D01*
X228546832Y-49448774D01*
X228623876Y-49333469D01*
X228676945Y-49205349D01*
X228704000Y-49069338D01*
X228704000Y-48930662D01*
X228676945Y-48794651D01*
X228623876Y-48666531D01*
X228546832Y-48551226D01*
X228448774Y-48453168D01*
X228333469Y-48376124D01*
X228205349Y-48323055D01*
X228069338Y-48296000D01*
X227938053Y-48296000D01*
X227454000Y-47811948D01*
X227454000Y-44541606D01*
X227546832Y-44448774D01*
X227623876Y-44333469D01*
X227676945Y-44205349D01*
X227704000Y-44069338D01*
X227704000Y-43930662D01*
X227676945Y-43794651D01*
X227623876Y-43666531D01*
X227546832Y-43551226D01*
X227448774Y-43453168D01*
X227333469Y-43376124D01*
X227205349Y-43323055D01*
X227069338Y-43296000D01*
X226930662Y-43296000D01*
X226794651Y-43323055D01*
X226666531Y-43376124D01*
X226551226Y-43453168D01*
X226454000Y-43550394D01*
X226454000Y-43541606D01*
X226546832Y-43448774D01*
X226623876Y-43333469D01*
X226676945Y-43205349D01*
X226704000Y-43069338D01*
X226704000Y-42930662D01*
X226676945Y-42794651D01*
X226623876Y-42666531D01*
X226546832Y-42551226D01*
X226448774Y-42453168D01*
X226333469Y-42376124D01*
X226205349Y-42323055D01*
X226069338Y-42296000D01*
X225930662Y-42296000D01*
X225794651Y-42323055D01*
X225666531Y-42376124D01*
X225551226Y-42453168D01*
X225453168Y-42551226D01*
X225376124Y-42666531D01*
X225323055Y-42794651D01*
X225296000Y-42930662D01*
X209104000Y-42930662D01*
X209104000Y-39604000D01*
X224749816Y-39604000D01*
X227896000Y-42750185D01*
X227896001Y-44636783D01*
X227876124Y-44666531D01*
X227823055Y-44794651D01*
X227796000Y-44930662D01*
X227796000Y-45069338D01*
X227823055Y-45205349D01*
X227876124Y-45333469D01*
X227953168Y-45448774D01*
X228021000Y-45516606D01*
X228021001Y-47476467D01*
X228018683Y-47500000D01*
X228027932Y-47593900D01*
X228055322Y-47684192D01*
X228099800Y-47767405D01*
X228129978Y-47804176D01*
X228159658Y-47840343D01*
X228177936Y-47855343D01*
X229521000Y-49198408D01*
X229521001Y-53476467D01*
X229518683Y-53500000D01*
X229527932Y-53593900D01*
X229555322Y-53684192D01*
X229599800Y-53767405D01*
X229624057Y-53796962D01*
X229659658Y-53840343D01*
X229677936Y-53855343D01*
X230796000Y-54973408D01*
X230796000Y-55069338D01*
X230823055Y-55205349D01*
X230876124Y-55333469D01*
X230953168Y-55448774D01*
X231051226Y-55546832D01*
X231166531Y-55623876D01*
X231294651Y-55676945D01*
X231430662Y-55704000D01*
X231569338Y-55704000D01*
X231705349Y-55676945D01*
X231833469Y-55623876D01*
X231948774Y-55546832D01*
X232046832Y-55448774D01*
X232123876Y-55333469D01*
X232176945Y-55205349D01*
X232204000Y-55069338D01*
X232204000Y-54930662D01*
X232176945Y-54794651D01*
X232123876Y-54666531D01*
X232046832Y-54551226D01*
X231948774Y-54453168D01*
X231833469Y-54376124D01*
X231705349Y-54323055D01*
X231569338Y-54296000D01*
X231473408Y-54296000D01*
X230479000Y-53301593D01*
X230479000Y-50875762D01*
X244239594Y-50875762D01*
X244329345Y-51045609D01*
X244530613Y-51157894D01*
X244749918Y-51228755D01*
X244978835Y-51255470D01*
X245208565Y-51237013D01*
X245430279Y-51174092D01*
X245635458Y-51069126D01*
X245670655Y-51045609D01*
X245760406Y-50875762D01*
X245000000Y-50115355D01*
X244239594Y-50875762D01*
X230479000Y-50875762D01*
X230479000Y-50058835D01*
X243824530Y-50058835D01*
X243842987Y-50288565D01*
X243905908Y-50510279D01*
X244010874Y-50715458D01*
X244034391Y-50750655D01*
X244204238Y-50840406D01*
X244964645Y-50080000D01*
X245035355Y-50080000D01*
X245795762Y-50840406D01*
X245965609Y-50750655D01*
X246077894Y-50549387D01*
X246148755Y-50330082D01*
X246175470Y-50101165D01*
X246157013Y-49871435D01*
X246094092Y-49649721D01*
X245989126Y-49444542D01*
X245965609Y-49409345D01*
X245795762Y-49319594D01*
X245035355Y-50080000D01*
X244964645Y-50080000D01*
X244204238Y-49319594D01*
X244034391Y-49409345D01*
X243922106Y-49610613D01*
X243851245Y-49829918D01*
X243824530Y-50058835D01*
X230479000Y-50058835D01*
X230479000Y-49284238D01*
X244239594Y-49284238D01*
X245000000Y-50044645D01*
X245760406Y-49284238D01*
X245670655Y-49114391D01*
X245469387Y-49002106D01*
X245250082Y-48931245D01*
X245021165Y-48904530D01*
X244791435Y-48922987D01*
X244569721Y-48985908D01*
X244364542Y-49090874D01*
X244329345Y-49114391D01*
X244239594Y-49284238D01*
X230479000Y-49284238D01*
X230479000Y-49023520D01*
X230481317Y-48999999D01*
X230479000Y-48976474D01*
X230472069Y-48906100D01*
X230444679Y-48815808D01*
X230416987Y-48764000D01*
X230400200Y-48732593D01*
X230368287Y-48693708D01*
X230340343Y-48659657D01*
X230322065Y-48644657D01*
X229096855Y-47419447D01*
X243776000Y-47419447D01*
X243776000Y-47660553D01*
X243823038Y-47897028D01*
X243915306Y-48119781D01*
X244049257Y-48320254D01*
X244219746Y-48490743D01*
X244420219Y-48624694D01*
X244642972Y-48716962D01*
X244879447Y-48764000D01*
X245120553Y-48764000D01*
X245357028Y-48716962D01*
X245579781Y-48624694D01*
X245780254Y-48490743D01*
X245950743Y-48320254D01*
X246084694Y-48119781D01*
X246176962Y-47897028D01*
X246224000Y-47660553D01*
X246224000Y-47419447D01*
X246176962Y-47182972D01*
X246084694Y-46960219D01*
X245950743Y-46759746D01*
X245780254Y-46589257D01*
X245579781Y-46455306D01*
X245357028Y-46363038D01*
X245120553Y-46316000D01*
X244879447Y-46316000D01*
X244642972Y-46363038D01*
X244420219Y-46455306D01*
X244219746Y-46589257D01*
X244049257Y-46759746D01*
X243915306Y-46960219D01*
X243823038Y-47182972D01*
X243776000Y-47419447D01*
X229096855Y-47419447D01*
X228979000Y-47301593D01*
X228979000Y-45516606D01*
X229046832Y-45448774D01*
X229123876Y-45333469D01*
X229176945Y-45205349D01*
X229204000Y-45069338D01*
X229204000Y-44930662D01*
X229176945Y-44794651D01*
X229123876Y-44666531D01*
X229104000Y-44636784D01*
X229104000Y-44379999D01*
X243774288Y-44379999D01*
X243774288Y-45620001D01*
X243785927Y-45738169D01*
X243820395Y-45851797D01*
X243876369Y-45956516D01*
X243951697Y-46048303D01*
X244043484Y-46123631D01*
X244148203Y-46179605D01*
X244261831Y-46214073D01*
X244379999Y-46225712D01*
X245620001Y-46225712D01*
X245738169Y-46214073D01*
X245851797Y-46179605D01*
X245956516Y-46123631D01*
X246048303Y-46048303D01*
X246123631Y-45956516D01*
X246179605Y-45851797D01*
X246214073Y-45738169D01*
X246225712Y-45620001D01*
X246225712Y-44379999D01*
X246214073Y-44261831D01*
X246179605Y-44148203D01*
X246123631Y-44043484D01*
X246048303Y-43951697D01*
X245956516Y-43876369D01*
X245851797Y-43820395D01*
X245738169Y-43785927D01*
X245620001Y-43774288D01*
X244379999Y-43774288D01*
X244261831Y-43785927D01*
X244148203Y-43820395D01*
X244043484Y-43876369D01*
X243951697Y-43951697D01*
X243876369Y-44043484D01*
X243820395Y-44148203D01*
X243785927Y-44261831D01*
X243774288Y-44379999D01*
X229104000Y-44379999D01*
X229104000Y-42529663D01*
X229106922Y-42499999D01*
X229104000Y-42470333D01*
X229095260Y-42381595D01*
X229060723Y-42267741D01*
X229004637Y-42162812D01*
X228929159Y-42070841D01*
X228906113Y-42051928D01*
X225448078Y-38593894D01*
X225429159Y-38570841D01*
X225337188Y-38495363D01*
X225232259Y-38439277D01*
X225118405Y-38404740D01*
X225029667Y-38396000D01*
X225000000Y-38393078D01*
X224970333Y-38396000D01*
X208529667Y-38396000D01*
X208500000Y-38393078D01*
X208470333Y-38396000D01*
X188529667Y-38396000D01*
X188500000Y-38393078D01*
X188470333Y-38396000D01*
X148529667Y-38396000D01*
X148500000Y-38393078D01*
X148470333Y-38396000D01*
X132029667Y-38396000D01*
X132000000Y-38393078D01*
X131970333Y-38396000D01*
X108529667Y-38396000D01*
X108500000Y-38393078D01*
X108470333Y-38396000D01*
X94029667Y-38396000D01*
X94000000Y-38393078D01*
X93970333Y-38396000D01*
X77029667Y-38396000D01*
X77000000Y-38393078D01*
X76970333Y-38396000D01*
X68529667Y-38396000D01*
X68500000Y-38393078D01*
X68470333Y-38396000D01*
X68381595Y-38404740D01*
X68267741Y-38439277D01*
X68162812Y-38495363D01*
X68131573Y-38521000D01*
X66023520Y-38521000D01*
X65999999Y-38518683D01*
X65976478Y-38521000D01*
X65976474Y-38521000D01*
X65906100Y-38527931D01*
X65815808Y-38555321D01*
X65812020Y-38557346D01*
X65732594Y-38599800D01*
X65702512Y-38624488D01*
X65659657Y-38659657D01*
X65644657Y-38677935D01*
X63677940Y-40644653D01*
X63659657Y-40659657D01*
X63599800Y-40732595D01*
X63555321Y-40815809D01*
X63527931Y-40906101D01*
X63521000Y-40976474D01*
X63518683Y-41000000D01*
X63521000Y-41023523D01*
X63521001Y-45476465D01*
X63521000Y-45476475D01*
X63521000Y-46523525D01*
X63521001Y-46523535D01*
X63521000Y-47476476D01*
X63518683Y-47500000D01*
X63521000Y-47523523D01*
X63521000Y-47523525D01*
X63527931Y-47593899D01*
X63555321Y-47684191D01*
X63599800Y-47767405D01*
X63659657Y-47840343D01*
X63677940Y-47855347D01*
X65404390Y-49581797D01*
X66322592Y-50500000D01*
X65927936Y-50894657D01*
X65927931Y-50894661D01*
X63526593Y-53296000D01*
X63430662Y-53296000D01*
X63294651Y-53323055D01*
X63166531Y-53376124D01*
X63051226Y-53453168D01*
X62953168Y-53551226D01*
X62876124Y-53666531D01*
X62823055Y-53794651D01*
X62796000Y-53930662D01*
X62796000Y-54069338D01*
X62823055Y-54205349D01*
X62876124Y-54333469D01*
X62953168Y-54448774D01*
X63051226Y-54546832D01*
X63166531Y-54623876D01*
X63294651Y-54676945D01*
X63430662Y-54704000D01*
X63569338Y-54704000D01*
X63705349Y-54676945D01*
X63833469Y-54623876D01*
X63948774Y-54546832D01*
X64046832Y-54448774D01*
X64123876Y-54333469D01*
X64176945Y-54205349D01*
X64204000Y-54069338D01*
X64204000Y-53973407D01*
X66605339Y-51572069D01*
X66605343Y-51572064D01*
X67000000Y-51177408D01*
X70796000Y-54973408D01*
X70796000Y-55069338D01*
X70823055Y-55205349D01*
X70876124Y-55333469D01*
X70953168Y-55448774D01*
X71051226Y-55546832D01*
X71166531Y-55623876D01*
X71294651Y-55676945D01*
X71430662Y-55704000D01*
X71569338Y-55704000D01*
X71705349Y-55676945D01*
X71833469Y-55623876D01*
X71948774Y-55546832D01*
X72046832Y-55448774D01*
X72123876Y-55333469D01*
X72176945Y-55205349D01*
X72204000Y-55069338D01*
X72204000Y-54930662D01*
X72176945Y-54794651D01*
X72123876Y-54666531D01*
X72046832Y-54551226D01*
X71948774Y-54453168D01*
X71833469Y-54376124D01*
X71705349Y-54323055D01*
X71569338Y-54296000D01*
X71473408Y-54296000D01*
X67869177Y-50691770D01*
X67930662Y-50704000D01*
X68069338Y-50704000D01*
X68205349Y-50676945D01*
X68333469Y-50623876D01*
X68448774Y-50546832D01*
X68541606Y-50454000D01*
X72811948Y-50454000D01*
X73296000Y-50938053D01*
X73296000Y-51069338D01*
X73323055Y-51205349D01*
X73376124Y-51333469D01*
X73453168Y-51448774D01*
X73550394Y-51546000D01*
X72541606Y-51546000D01*
X72448774Y-51453168D01*
X72333469Y-51376124D01*
X72205349Y-51323055D01*
X72069338Y-51296000D01*
X71930662Y-51296000D01*
X71794651Y-51323055D01*
X71666531Y-51376124D01*
X71551226Y-51453168D01*
X71453168Y-51551226D01*
X71376124Y-51666531D01*
X71323055Y-51794651D01*
X71296000Y-51930662D01*
X71296000Y-52069338D01*
X71323055Y-52205349D01*
X71376124Y-52333469D01*
X71453168Y-52448774D01*
X71551226Y-52546832D01*
X71666531Y-52623876D01*
X71794651Y-52676945D01*
X71930662Y-52704000D01*
X72069338Y-52704000D01*
X72205349Y-52676945D01*
X72333469Y-52623876D01*
X72448774Y-52546832D01*
X72541606Y-52454000D01*
X78977712Y-52454000D01*
X79000000Y-52456195D01*
X79022288Y-52454000D01*
X79022295Y-52454000D01*
X79088999Y-52447430D01*
X79174579Y-52421470D01*
X79253449Y-52379313D01*
X79322579Y-52322579D01*
X79336795Y-52305257D01*
X80711390Y-50930662D01*
X81296000Y-50930662D01*
X81296000Y-51069338D01*
X81323055Y-51205349D01*
X81376124Y-51333469D01*
X81453168Y-51448774D01*
X81546001Y-51541607D01*
X81546000Y-53458394D01*
X81453168Y-53551226D01*
X81376124Y-53666531D01*
X81323055Y-53794651D01*
X81296000Y-53930662D01*
X81296000Y-54069338D01*
X81323055Y-54205349D01*
X81376124Y-54333469D01*
X81453168Y-54448774D01*
X81551226Y-54546832D01*
X81666531Y-54623876D01*
X81794651Y-54676945D01*
X81930662Y-54704000D01*
X82069338Y-54704000D01*
X82205349Y-54676945D01*
X82333469Y-54623876D01*
X82448774Y-54546832D01*
X82546832Y-54448774D01*
X82623876Y-54333469D01*
X82676945Y-54205349D01*
X82704000Y-54069338D01*
X82704000Y-53930662D01*
X82676945Y-53794651D01*
X82623876Y-53666531D01*
X82546832Y-53551226D01*
X82454000Y-53458394D01*
X82454000Y-51541606D01*
X82546832Y-51448774D01*
X82623876Y-51333469D01*
X82676945Y-51205349D01*
X82704000Y-51069338D01*
X82704000Y-50930662D01*
X82676945Y-50794651D01*
X82623876Y-50666531D01*
X82546832Y-50551226D01*
X82448774Y-50453168D01*
X82333469Y-50376124D01*
X82205349Y-50323055D01*
X82069338Y-50296000D01*
X81930662Y-50296000D01*
X81794651Y-50323055D01*
X81666531Y-50376124D01*
X81551226Y-50453168D01*
X81453168Y-50551226D01*
X81376124Y-50666531D01*
X81323055Y-50794651D01*
X81296000Y-50930662D01*
X80711390Y-50930662D01*
X84546347Y-47095706D01*
X84547145Y-47099717D01*
X84495363Y-47162813D01*
X84439278Y-47267741D01*
X84404740Y-47381596D01*
X84393078Y-47500000D01*
X84396001Y-47529677D01*
X84396000Y-58396000D01*
X65250185Y-58396000D01*
X59183925Y-52329741D01*
X59176945Y-52294651D01*
X59123876Y-52166531D01*
X59104000Y-52136784D01*
X59104000Y-47863216D01*
X59123876Y-47833469D01*
X59176945Y-47705349D01*
X59204000Y-47569338D01*
X59204000Y-47430662D01*
X59176945Y-47294651D01*
X59123876Y-47166531D01*
X59046832Y-47051226D01*
X58948774Y-46953168D01*
X58833469Y-46876124D01*
X58705349Y-46823055D01*
X58569338Y-46796000D01*
X58430662Y-46796000D01*
X58294651Y-46823055D01*
X58166531Y-46876124D01*
X58051226Y-46953168D01*
X57953168Y-47051226D01*
X57876124Y-47166531D01*
X57823055Y-47294651D01*
X57796000Y-47430662D01*
X56707121Y-47430662D01*
X56757906Y-47308057D01*
X56784000Y-47176876D01*
X56784000Y-47043124D01*
X56757906Y-46911943D01*
X56706722Y-46788373D01*
X56632413Y-46677163D01*
X56537837Y-46582587D01*
X56465122Y-46534000D01*
X57196952Y-46534000D01*
X57322413Y-46521643D01*
X57483393Y-46472811D01*
X57631753Y-46393511D01*
X57761791Y-46286791D01*
X57868511Y-46156753D01*
X57947811Y-46008393D01*
X57996643Y-45847413D01*
X58013132Y-45680000D01*
X57996643Y-45512587D01*
X57947811Y-45351607D01*
X57868511Y-45203247D01*
X57761791Y-45073209D01*
X57631753Y-44966489D01*
X57483393Y-44887189D01*
X57322413Y-44838357D01*
X57196952Y-44826000D01*
X56013048Y-44826000D01*
X55887587Y-44838357D01*
X55726607Y-44887189D01*
X55578247Y-44966489D01*
X55448209Y-45073209D01*
X55343333Y-45201000D01*
X53436667Y-45201000D01*
X53331791Y-45073209D01*
X53201753Y-44966489D01*
X53053393Y-44887189D01*
X52892413Y-44838357D01*
X52766952Y-44826000D01*
X52083048Y-44826000D01*
X51957587Y-44838357D01*
X51796607Y-44887189D01*
X51648247Y-44966489D01*
X51518209Y-45073209D01*
X51411489Y-45203247D01*
X51332189Y-45351607D01*
X51283357Y-45512587D01*
X51266868Y-45680000D01*
X50379000Y-45680000D01*
X50379000Y-40018535D01*
X50389798Y-39908403D01*
X51070000Y-39908403D01*
X51070000Y-40091597D01*
X51105739Y-40271271D01*
X51175845Y-40440520D01*
X51277622Y-40592841D01*
X51407159Y-40722378D01*
X51559480Y-40824155D01*
X51728729Y-40894261D01*
X51908403Y-40930000D01*
X52091597Y-40930000D01*
X52271271Y-40894261D01*
X52440520Y-40824155D01*
X52592841Y-40722378D01*
X52722378Y-40592841D01*
X52824155Y-40440520D01*
X52894261Y-40271271D01*
X52930000Y-40091597D01*
X52930000Y-39908403D01*
X52894261Y-39728729D01*
X52824155Y-39559480D01*
X52722378Y-39407159D01*
X52592841Y-39277622D01*
X52440520Y-39175845D01*
X52271271Y-39105739D01*
X52091597Y-39070000D01*
X51908403Y-39070000D01*
X51728729Y-39105739D01*
X51559480Y-39175845D01*
X51407159Y-39277622D01*
X51277622Y-39407159D01*
X51175845Y-39559480D01*
X51105739Y-39728729D01*
X51070000Y-39908403D01*
X50389798Y-39908403D01*
X50411655Y-39685499D01*
X50502991Y-39382978D01*
X50651350Y-39103957D01*
X50851079Y-38859066D01*
X51094564Y-38657637D01*
X51372539Y-38507337D01*
X51674419Y-38413890D01*
X52006368Y-38379000D01*
X247981465Y-38379000D01*
X248314501Y-38411655D01*
G37*
G04 #@! TD.AperFunction*
D20*
X95154576Y-46548112D02*
X95082662Y-46721728D01*
X95046000Y-46906039D01*
X95046000Y-47093961D01*
X95076301Y-47246292D01*
X91677936Y-50644657D01*
X91659658Y-50659657D01*
X91638569Y-50685355D01*
X91599800Y-50732595D01*
X91555322Y-50815808D01*
X91527932Y-50906100D01*
X91518683Y-51000000D01*
X91521001Y-51023533D01*
X91521000Y-52801477D01*
X91518683Y-52825000D01*
X91521000Y-52848523D01*
X91521000Y-52848525D01*
X91527931Y-52918899D01*
X91555321Y-53009191D01*
X91599800Y-53092405D01*
X91659657Y-53165343D01*
X91677940Y-53180347D01*
X91835989Y-53338396D01*
X91835989Y-53434327D01*
X91863044Y-53570338D01*
X91916113Y-53698458D01*
X91993157Y-53813763D01*
X92091215Y-53911821D01*
X92206520Y-53988865D01*
X92334640Y-54041934D01*
X92470651Y-54068989D01*
X92609327Y-54068989D01*
X92745338Y-54041934D01*
X92873458Y-53988865D01*
X92960700Y-53930572D01*
X92960700Y-54083649D01*
X92993339Y-54247732D01*
X93057360Y-54402294D01*
X93150306Y-54541397D01*
X93154909Y-54546000D01*
X91970082Y-54546000D01*
X91946939Y-54429657D01*
X91893870Y-54301537D01*
X91816826Y-54186232D01*
X91718768Y-54088174D01*
X91603463Y-54011130D01*
X91475343Y-53958061D01*
X91339332Y-53931006D01*
X91200656Y-53931006D01*
X91064645Y-53958061D01*
X90936525Y-54011130D01*
X90821220Y-54088174D01*
X90723162Y-54186232D01*
X90646118Y-54301537D01*
X90593049Y-54429657D01*
X90565994Y-54565668D01*
X90565994Y-54704344D01*
X90593049Y-54840355D01*
X90646118Y-54968475D01*
X90723162Y-55083780D01*
X90821220Y-55181838D01*
X90936525Y-55258882D01*
X91064645Y-55311951D01*
X91200656Y-55339006D01*
X91332425Y-55339006D01*
X91381539Y-55379313D01*
X91460409Y-55421470D01*
X91545989Y-55447430D01*
X91612693Y-55454000D01*
X91612702Y-55454000D01*
X91634987Y-55456195D01*
X91657272Y-55454000D01*
X92716061Y-55454000D01*
X92612678Y-55557383D01*
X92443985Y-55809850D01*
X92327787Y-56090376D01*
X92268550Y-56388180D01*
X92268550Y-56691820D01*
X92327787Y-56989624D01*
X92443985Y-57270150D01*
X92612678Y-57522617D01*
X92827383Y-57737322D01*
X92915201Y-57796000D01*
X92438053Y-57796000D01*
X88971785Y-54329733D01*
X88957570Y-54312412D01*
X88888440Y-54255678D01*
X88809570Y-54213521D01*
X88723990Y-54187561D01*
X88657286Y-54180991D01*
X88657279Y-54180991D01*
X88634991Y-54178796D01*
X88612703Y-54180991D01*
X88001597Y-54180991D01*
X87908765Y-54088159D01*
X87793460Y-54011115D01*
X87665340Y-53958046D01*
X87529329Y-53930991D01*
X87390653Y-53930991D01*
X87254642Y-53958046D01*
X87126522Y-54011115D01*
X87011217Y-54088159D01*
X86913159Y-54186217D01*
X86836115Y-54301522D01*
X86789398Y-54414307D01*
X86731397Y-54356306D01*
X86592294Y-54263360D01*
X86437732Y-54199339D01*
X86273649Y-54166700D01*
X86106351Y-54166700D01*
X85942268Y-54199339D01*
X85787706Y-54263360D01*
X85648603Y-54356306D01*
X85604000Y-54400909D01*
X85604000Y-53599091D01*
X85648603Y-53643694D01*
X85787706Y-53736640D01*
X85942268Y-53800661D01*
X86106351Y-53833300D01*
X86273649Y-53833300D01*
X86437732Y-53800661D01*
X86592294Y-53736640D01*
X86731397Y-53643694D01*
X86849694Y-53525397D01*
X86942640Y-53386294D01*
X87006661Y-53231732D01*
X87039300Y-53067649D01*
X87039300Y-52900351D01*
X87006661Y-52736268D01*
X86942640Y-52581706D01*
X86849694Y-52442603D01*
X86731397Y-52324306D01*
X86592294Y-52231360D01*
X86437732Y-52167339D01*
X86273649Y-52134700D01*
X86106351Y-52134700D01*
X85942268Y-52167339D01*
X85787706Y-52231360D01*
X85648603Y-52324306D01*
X85604000Y-52368909D01*
X85604000Y-51308180D01*
X86553550Y-51308180D01*
X86553550Y-51611820D01*
X86612787Y-51909624D01*
X86728985Y-52190150D01*
X86897678Y-52442617D01*
X87112383Y-52657322D01*
X87364850Y-52826015D01*
X87645376Y-52942213D01*
X87943180Y-53001450D01*
X88246820Y-53001450D01*
X88544624Y-52942213D01*
X88825150Y-52826015D01*
X89077617Y-52657322D01*
X89292322Y-52442617D01*
X89461015Y-52190150D01*
X89577213Y-51909624D01*
X89636450Y-51611820D01*
X89636450Y-51308180D01*
X89577213Y-51010376D01*
X89461015Y-50729850D01*
X89292322Y-50477383D01*
X89077617Y-50262678D01*
X88825150Y-50093985D01*
X88544624Y-49977787D01*
X88246820Y-49918550D01*
X87943180Y-49918550D01*
X87645376Y-49977787D01*
X87364850Y-50093985D01*
X87112383Y-50262678D01*
X86897678Y-50477383D01*
X86728985Y-50729850D01*
X86612787Y-51010376D01*
X86553550Y-51308180D01*
X85604000Y-51308180D01*
X85604000Y-47952003D01*
X85778272Y-47917338D01*
X85951888Y-47845424D01*
X86108140Y-47741020D01*
X86241020Y-47608140D01*
X86345424Y-47451888D01*
X86417338Y-47278272D01*
X86454000Y-47093961D01*
X86454000Y-46906039D01*
X86417338Y-46721728D01*
X86345424Y-46548112D01*
X86282541Y-46454000D01*
X95217459Y-46454000D01*
X95154576Y-46548112D01*
G04 #@! TA.AperFunction,Conductor*
D21*
G36*
X95154576Y-46548112D02*
G01*
X95082662Y-46721728D01*
X95046000Y-46906039D01*
X95046000Y-47093961D01*
X95076301Y-47246292D01*
X91677936Y-50644657D01*
X91659658Y-50659657D01*
X91638569Y-50685355D01*
X91599800Y-50732595D01*
X91555322Y-50815808D01*
X91527932Y-50906100D01*
X91518683Y-51000000D01*
X91521001Y-51023533D01*
X91521000Y-52801477D01*
X91518683Y-52825000D01*
X91521000Y-52848523D01*
X91521000Y-52848525D01*
X91527931Y-52918899D01*
X91555321Y-53009191D01*
X91599800Y-53092405D01*
X91659657Y-53165343D01*
X91677940Y-53180347D01*
X91835989Y-53338396D01*
X91835989Y-53434327D01*
X91863044Y-53570338D01*
X91916113Y-53698458D01*
X91993157Y-53813763D01*
X92091215Y-53911821D01*
X92206520Y-53988865D01*
X92334640Y-54041934D01*
X92470651Y-54068989D01*
X92609327Y-54068989D01*
X92745338Y-54041934D01*
X92873458Y-53988865D01*
X92960700Y-53930572D01*
X92960700Y-54083649D01*
X92993339Y-54247732D01*
X93057360Y-54402294D01*
X93150306Y-54541397D01*
X93154909Y-54546000D01*
X91970082Y-54546000D01*
X91946939Y-54429657D01*
X91893870Y-54301537D01*
X91816826Y-54186232D01*
X91718768Y-54088174D01*
X91603463Y-54011130D01*
X91475343Y-53958061D01*
X91339332Y-53931006D01*
X91200656Y-53931006D01*
X91064645Y-53958061D01*
X90936525Y-54011130D01*
X90821220Y-54088174D01*
X90723162Y-54186232D01*
X90646118Y-54301537D01*
X90593049Y-54429657D01*
X90565994Y-54565668D01*
X90565994Y-54704344D01*
X90593049Y-54840355D01*
X90646118Y-54968475D01*
X90723162Y-55083780D01*
X90821220Y-55181838D01*
X90936525Y-55258882D01*
X91064645Y-55311951D01*
X91200656Y-55339006D01*
X91332425Y-55339006D01*
X91381539Y-55379313D01*
X91460409Y-55421470D01*
X91545989Y-55447430D01*
X91612693Y-55454000D01*
X91612702Y-55454000D01*
X91634987Y-55456195D01*
X91657272Y-55454000D01*
X92716061Y-55454000D01*
X92612678Y-55557383D01*
X92443985Y-55809850D01*
X92327787Y-56090376D01*
X92268550Y-56388180D01*
X92268550Y-56691820D01*
X92327787Y-56989624D01*
X92443985Y-57270150D01*
X92612678Y-57522617D01*
X92827383Y-57737322D01*
X92915201Y-57796000D01*
X92438053Y-57796000D01*
X88971785Y-54329733D01*
X88957570Y-54312412D01*
X88888440Y-54255678D01*
X88809570Y-54213521D01*
X88723990Y-54187561D01*
X88657286Y-54180991D01*
X88657279Y-54180991D01*
X88634991Y-54178796D01*
X88612703Y-54180991D01*
X88001597Y-54180991D01*
X87908765Y-54088159D01*
X87793460Y-54011115D01*
X87665340Y-53958046D01*
X87529329Y-53930991D01*
X87390653Y-53930991D01*
X87254642Y-53958046D01*
X87126522Y-54011115D01*
X87011217Y-54088159D01*
X86913159Y-54186217D01*
X86836115Y-54301522D01*
X86789398Y-54414307D01*
X86731397Y-54356306D01*
X86592294Y-54263360D01*
X86437732Y-54199339D01*
X86273649Y-54166700D01*
X86106351Y-54166700D01*
X85942268Y-54199339D01*
X85787706Y-54263360D01*
X85648603Y-54356306D01*
X85604000Y-54400909D01*
X85604000Y-53599091D01*
X85648603Y-53643694D01*
X85787706Y-53736640D01*
X85942268Y-53800661D01*
X86106351Y-53833300D01*
X86273649Y-53833300D01*
X86437732Y-53800661D01*
X86592294Y-53736640D01*
X86731397Y-53643694D01*
X86849694Y-53525397D01*
X86942640Y-53386294D01*
X87006661Y-53231732D01*
X87039300Y-53067649D01*
X87039300Y-52900351D01*
X87006661Y-52736268D01*
X86942640Y-52581706D01*
X86849694Y-52442603D01*
X86731397Y-52324306D01*
X86592294Y-52231360D01*
X86437732Y-52167339D01*
X86273649Y-52134700D01*
X86106351Y-52134700D01*
X85942268Y-52167339D01*
X85787706Y-52231360D01*
X85648603Y-52324306D01*
X85604000Y-52368909D01*
X85604000Y-51308180D01*
X86553550Y-51308180D01*
X86553550Y-51611820D01*
X86612787Y-51909624D01*
X86728985Y-52190150D01*
X86897678Y-52442617D01*
X87112383Y-52657322D01*
X87364850Y-52826015D01*
X87645376Y-52942213D01*
X87943180Y-53001450D01*
X88246820Y-53001450D01*
X88544624Y-52942213D01*
X88825150Y-52826015D01*
X89077617Y-52657322D01*
X89292322Y-52442617D01*
X89461015Y-52190150D01*
X89577213Y-51909624D01*
X89636450Y-51611820D01*
X89636450Y-51308180D01*
X89577213Y-51010376D01*
X89461015Y-50729850D01*
X89292322Y-50477383D01*
X89077617Y-50262678D01*
X88825150Y-50093985D01*
X88544624Y-49977787D01*
X88246820Y-49918550D01*
X87943180Y-49918550D01*
X87645376Y-49977787D01*
X87364850Y-50093985D01*
X87112383Y-50262678D01*
X86897678Y-50477383D01*
X86728985Y-50729850D01*
X86612787Y-51010376D01*
X86553550Y-51308180D01*
X85604000Y-51308180D01*
X85604000Y-47952003D01*
X85778272Y-47917338D01*
X85951888Y-47845424D01*
X86108140Y-47741020D01*
X86241020Y-47608140D01*
X86345424Y-47451888D01*
X86417338Y-47278272D01*
X86454000Y-47093961D01*
X86454000Y-46906039D01*
X86417338Y-46721728D01*
X86345424Y-46548112D01*
X86282541Y-46454000D01*
X95217459Y-46454000D01*
X95154576Y-46548112D01*
G37*
G04 #@! TD.AperFunction*
D20*
X108194738Y-56836791D02*
X108194743Y-56836795D01*
X108663210Y-57305262D01*
X108903947Y-57546000D01*
X96022287Y-57546000D01*
X95999999Y-57543805D01*
X95977711Y-57546000D01*
X95977705Y-57546000D01*
X95920301Y-57551654D01*
X95911000Y-57552570D01*
X95888221Y-57559480D01*
X95825421Y-57578530D01*
X95746551Y-57620687D01*
X95677421Y-57677421D01*
X95663205Y-57694743D01*
X95561948Y-57796000D01*
X94704799Y-57796000D01*
X94792617Y-57737322D01*
X95007322Y-57522617D01*
X95176015Y-57270150D01*
X95292213Y-56989624D01*
X95351450Y-56691820D01*
X95351450Y-56388180D01*
X95292213Y-56090376D01*
X95181857Y-55823953D01*
X95295956Y-55938053D01*
X95295956Y-56069338D01*
X95323011Y-56205349D01*
X95376080Y-56333469D01*
X95453124Y-56448774D01*
X95551182Y-56546832D01*
X95666487Y-56623876D01*
X95794607Y-56676945D01*
X95930618Y-56704000D01*
X96069294Y-56704000D01*
X96205305Y-56676945D01*
X96333425Y-56623876D01*
X96448730Y-56546832D01*
X96546788Y-56448774D01*
X96623832Y-56333469D01*
X96676901Y-56205349D01*
X96703956Y-56069338D01*
X96703956Y-55930662D01*
X96676901Y-55794651D01*
X96623832Y-55666531D01*
X96546788Y-55551226D01*
X96448730Y-55453168D01*
X96333425Y-55376124D01*
X96205305Y-55323055D01*
X96069294Y-55296000D01*
X95938009Y-55296000D01*
X95336750Y-54694742D01*
X95322535Y-54677421D01*
X95253405Y-54620687D01*
X95174535Y-54578530D01*
X95088955Y-54552570D01*
X95022251Y-54546000D01*
X95022244Y-54546000D01*
X94999956Y-54543805D01*
X94977668Y-54546000D01*
X94465091Y-54546000D01*
X94469694Y-54541397D01*
X94562640Y-54402294D01*
X94626661Y-54247732D01*
X94659300Y-54083649D01*
X94659300Y-53916351D01*
X94626661Y-53752268D01*
X94562640Y-53597706D01*
X94469694Y-53458603D01*
X94351397Y-53340306D01*
X94212294Y-53247360D01*
X94057732Y-53183339D01*
X93893649Y-53150700D01*
X93726351Y-53150700D01*
X93562268Y-53183339D01*
X93407706Y-53247360D01*
X93268603Y-53340306D01*
X93243989Y-53364920D01*
X93243989Y-53295651D01*
X93216934Y-53159640D01*
X93163865Y-53031520D01*
X93086821Y-52916215D01*
X92988763Y-52818157D01*
X92873458Y-52741113D01*
X92745338Y-52688044D01*
X92609327Y-52660989D01*
X92513396Y-52660989D01*
X92479000Y-52626593D01*
X92479000Y-52242554D01*
X92612678Y-52442617D01*
X92827383Y-52657322D01*
X93079850Y-52826015D01*
X93360376Y-52942213D01*
X93658180Y-53001450D01*
X93961820Y-53001450D01*
X94259624Y-52942213D01*
X94540150Y-52826015D01*
X94792617Y-52657322D01*
X95007322Y-52442617D01*
X95176015Y-52190150D01*
X95292213Y-51909624D01*
X95351450Y-51611820D01*
X95351450Y-51308180D01*
X95292213Y-51010376D01*
X95176015Y-50729850D01*
X95007322Y-50477383D01*
X94792617Y-50262678D01*
X94540150Y-50093985D01*
X94259624Y-49977787D01*
X93961820Y-49918550D01*
X93758857Y-49918550D01*
X95753708Y-47923699D01*
X95906039Y-47954000D01*
X96093961Y-47954000D01*
X96278272Y-47917338D01*
X96451888Y-47845424D01*
X96608140Y-47741020D01*
X96741020Y-47608140D01*
X96845424Y-47451888D01*
X96917338Y-47278272D01*
X96954000Y-47093961D01*
X96954000Y-46906039D01*
X96917338Y-46721728D01*
X96845424Y-46548112D01*
X96782541Y-46454000D01*
X97811948Y-46454000D01*
X108194738Y-56836791D01*
G04 #@! TA.AperFunction,Conductor*
D21*
G36*
X108194738Y-56836791D02*
G01*
X108194743Y-56836795D01*
X108663210Y-57305262D01*
X108903947Y-57546000D01*
X96022287Y-57546000D01*
X95999999Y-57543805D01*
X95977711Y-57546000D01*
X95977705Y-57546000D01*
X95920301Y-57551654D01*
X95911000Y-57552570D01*
X95888221Y-57559480D01*
X95825421Y-57578530D01*
X95746551Y-57620687D01*
X95677421Y-57677421D01*
X95663205Y-57694743D01*
X95561948Y-57796000D01*
X94704799Y-57796000D01*
X94792617Y-57737322D01*
X95007322Y-57522617D01*
X95176015Y-57270150D01*
X95292213Y-56989624D01*
X95351450Y-56691820D01*
X95351450Y-56388180D01*
X95292213Y-56090376D01*
X95181857Y-55823953D01*
X95295956Y-55938053D01*
X95295956Y-56069338D01*
X95323011Y-56205349D01*
X95376080Y-56333469D01*
X95453124Y-56448774D01*
X95551182Y-56546832D01*
X95666487Y-56623876D01*
X95794607Y-56676945D01*
X95930618Y-56704000D01*
X96069294Y-56704000D01*
X96205305Y-56676945D01*
X96333425Y-56623876D01*
X96448730Y-56546832D01*
X96546788Y-56448774D01*
X96623832Y-56333469D01*
X96676901Y-56205349D01*
X96703956Y-56069338D01*
X96703956Y-55930662D01*
X96676901Y-55794651D01*
X96623832Y-55666531D01*
X96546788Y-55551226D01*
X96448730Y-55453168D01*
X96333425Y-55376124D01*
X96205305Y-55323055D01*
X96069294Y-55296000D01*
X95938009Y-55296000D01*
X95336750Y-54694742D01*
X95322535Y-54677421D01*
X95253405Y-54620687D01*
X95174535Y-54578530D01*
X95088955Y-54552570D01*
X95022251Y-54546000D01*
X95022244Y-54546000D01*
X94999956Y-54543805D01*
X94977668Y-54546000D01*
X94465091Y-54546000D01*
X94469694Y-54541397D01*
X94562640Y-54402294D01*
X94626661Y-54247732D01*
X94659300Y-54083649D01*
X94659300Y-53916351D01*
X94626661Y-53752268D01*
X94562640Y-53597706D01*
X94469694Y-53458603D01*
X94351397Y-53340306D01*
X94212294Y-53247360D01*
X94057732Y-53183339D01*
X93893649Y-53150700D01*
X93726351Y-53150700D01*
X93562268Y-53183339D01*
X93407706Y-53247360D01*
X93268603Y-53340306D01*
X93243989Y-53364920D01*
X93243989Y-53295651D01*
X93216934Y-53159640D01*
X93163865Y-53031520D01*
X93086821Y-52916215D01*
X92988763Y-52818157D01*
X92873458Y-52741113D01*
X92745338Y-52688044D01*
X92609327Y-52660989D01*
X92513396Y-52660989D01*
X92479000Y-52626593D01*
X92479000Y-52242554D01*
X92612678Y-52442617D01*
X92827383Y-52657322D01*
X93079850Y-52826015D01*
X93360376Y-52942213D01*
X93658180Y-53001450D01*
X93961820Y-53001450D01*
X94259624Y-52942213D01*
X94540150Y-52826015D01*
X94792617Y-52657322D01*
X95007322Y-52442617D01*
X95176015Y-52190150D01*
X95292213Y-51909624D01*
X95351450Y-51611820D01*
X95351450Y-51308180D01*
X95292213Y-51010376D01*
X95176015Y-50729850D01*
X95007322Y-50477383D01*
X94792617Y-50262678D01*
X94540150Y-50093985D01*
X94259624Y-49977787D01*
X93961820Y-49918550D01*
X93758857Y-49918550D01*
X95753708Y-47923699D01*
X95906039Y-47954000D01*
X96093961Y-47954000D01*
X96278272Y-47917338D01*
X96451888Y-47845424D01*
X96608140Y-47741020D01*
X96741020Y-47608140D01*
X96845424Y-47451888D01*
X96917338Y-47278272D01*
X96954000Y-47093961D01*
X96954000Y-46906039D01*
X96917338Y-46721728D01*
X96845424Y-46548112D01*
X96782541Y-46454000D01*
X97811948Y-46454000D01*
X108194738Y-56836791D01*
G37*
G04 #@! TD.AperFunction*
M02*
