M48
; DRILL file {KiCad (5.1.0)-1} date 9/26/2019 12:11:49 AM
; FORMAT={-:-/ absolute / inch / decimal}
; #@! TF.CreationDate,2019-09-26T00:11:49-07:00
; #@! TF.GenerationSoftware,Kicad,Pcbnew,(5.1.0)-1
FMAT,2
INCH
T1C0.0157
T2C0.0315
T3C0.0394
%
G90
G05
T1
X4.998Y-3.2854
X5.1772Y-3.2677
X5.2362Y-3.1496
X5.7624Y-3.0368
X5.8124Y-3.0368
X5.9055Y-2.874
X6.1024Y-2.7953
X6.1594Y-1.4547
X6.1594Y-2.0453
X6.1594Y-2.6358
X6.1594Y-3.2264
X6.1622Y-1.3794
X6.1622Y-1.97
X6.1622Y-2.5605
X6.1622Y-3.1511
X6.1811Y-1.5354
X6.1811Y-2.126
X6.1811Y-2.7165
X6.1811Y-3.3071
X6.3386Y-1.5354
X6.3386Y-2.126
X6.3386Y-2.7165
X6.3386Y-3.3071
T2
X5.9449Y-2.5984
X6.1417Y-1.3382
X6.1417Y-1.9291
X6.1417Y-2.5197
X6.1417Y-3.1102
X6.1417Y-1.6929
T3
X5.748Y-3.3071
X5.848Y-3.3071
X6.4961Y-2.4016
X6.4961Y-2.5016
X6.4961Y-2.6016
X6.4961Y-2.7016
X6.4961Y-2.9921
X6.4961Y-3.0921
X6.4961Y-3.1921
X6.4961Y-3.2921
X6.4961Y-1.2205
X6.4961Y-1.3205
X6.4961Y-1.4205
X6.4961Y-1.5205
X6.4961Y-1.811
X6.4961Y-1.911
X6.4961Y-2.011
X6.4961Y-2.111
X4.8181Y-1.5047
X4.8181Y-1.6047
X4.8181Y-1.7047
X4.8181Y-1.8047
X4.8181Y-1.9047
X4.8181Y-2.0047
X4.8181Y-2.1047
X4.8181Y-2.2047
X4.8181Y-2.3047
X4.8181Y-2.4047
X4.8181Y-2.5047
X4.8181Y-2.6047
X4.8181Y-2.7047
X4.8181Y-2.8047
X4.8181Y-2.9047
X5.4181Y-1.5047
X5.4181Y-1.6047
X5.4181Y-1.7047
X5.4181Y-1.8047
X5.4181Y-1.9047
X5.4181Y-2.0047
X5.4181Y-2.1047
X5.4181Y-2.2047
X5.4181Y-2.3047
X5.4181Y-2.4047
X5.4181Y-2.5047
X5.4181Y-2.6047
X5.4181Y-2.7047
X5.4181Y-2.8047
X5.4181Y-2.9047
T0
M30
