G04 #@! TF.GenerationSoftware,KiCad,Pcbnew,(5.1.0)-1*
G04 #@! TF.CreationDate,2019-09-26T00:11:47-07:00*
G04 #@! TF.ProjectId,design,64657369-676e-42e6-9b69-6361645f7063,rev?*
G04 #@! TF.SameCoordinates,Original*
G04 #@! TF.FileFunction,Soldermask,Top*
G04 #@! TF.FilePolarity,Negative*
%FSLAX46Y46*%
G04 Gerber Fmt 4.6, Leading zero omitted, Abs format (unit mm)*
G04 Created by KiCad (PCBNEW (5.1.0)-1) date 2019-09-26 00:11:47*
%MOMM*%
%LPD*%
G04 APERTURE LIST*
%ADD10C,2.500000*%
%ADD11C,0.700000*%
%ADD12C,1.500000*%
%ADD13C,0.100000*%
G04 APERTURE END LIST*
D10*
X145250000Y-37000000D02*
G75*
G03X145250000Y-37000000I-1250000J0D01*
G01*
D11*
X149000000Y-39000000D02*
G75*
G03X149000000Y-39000000I-250000J0D01*
G01*
X150500000Y-39000000D02*
G75*
G03X150500000Y-39000000I-250000J0D01*
G01*
X152000000Y-39000000D02*
G75*
G03X152000000Y-39000000I-250000J0D01*
G01*
X153500000Y-39000000D02*
G75*
G03X153500000Y-39000000I-250000J0D01*
G01*
D12*
X150250000Y-36000000D02*
G75*
G03X150250000Y-36000000I-500000J0D01*
G01*
X152750000Y-36000000D02*
G75*
G03X152750000Y-36000000I-500000J0D01*
G01*
D13*
G36*
X148650442Y-83105518D02*
G01*
X148716627Y-83112037D01*
X148886466Y-83163557D01*
X149042991Y-83247222D01*
X149075050Y-83273532D01*
X149180186Y-83359814D01*
X149263448Y-83461271D01*
X149292778Y-83497009D01*
X149376443Y-83653534D01*
X149427963Y-83823373D01*
X149445359Y-84000000D01*
X149427963Y-84176627D01*
X149376443Y-84346466D01*
X149292778Y-84502991D01*
X149277998Y-84521000D01*
X149180186Y-84640186D01*
X149078729Y-84723448D01*
X149042991Y-84752778D01*
X148886466Y-84836443D01*
X148716627Y-84887963D01*
X148650442Y-84894482D01*
X148584260Y-84901000D01*
X148495740Y-84901000D01*
X148429558Y-84894482D01*
X148363373Y-84887963D01*
X148193534Y-84836443D01*
X148037009Y-84752778D01*
X148001271Y-84723448D01*
X147899814Y-84640186D01*
X147802002Y-84521000D01*
X147787222Y-84502991D01*
X147703557Y-84346466D01*
X147652037Y-84176627D01*
X147634641Y-84000000D01*
X147652037Y-83823373D01*
X147703557Y-83653534D01*
X147787222Y-83497009D01*
X147816552Y-83461271D01*
X147899814Y-83359814D01*
X148004950Y-83273532D01*
X148037009Y-83247222D01*
X148193534Y-83163557D01*
X148363373Y-83112037D01*
X148429558Y-83105518D01*
X148495740Y-83099000D01*
X148584260Y-83099000D01*
X148650442Y-83105518D01*
X148650442Y-83105518D01*
G37*
G36*
X146901000Y-84901000D02*
G01*
X145099000Y-84901000D01*
X145099000Y-83099000D01*
X146901000Y-83099000D01*
X146901000Y-84901000D01*
X146901000Y-84901000D01*
G37*
G36*
X160129591Y-83478085D02*
G01*
X160163569Y-83488393D01*
X160194890Y-83505134D01*
X160222339Y-83527661D01*
X160244866Y-83555110D01*
X160261607Y-83586431D01*
X160271915Y-83620409D01*
X160276000Y-83661890D01*
X160276000Y-84338110D01*
X160271915Y-84379591D01*
X160261607Y-84413569D01*
X160244866Y-84444890D01*
X160222339Y-84472339D01*
X160194890Y-84494866D01*
X160163569Y-84511607D01*
X160129591Y-84521915D01*
X160088110Y-84526000D01*
X159486890Y-84526000D01*
X159445409Y-84521915D01*
X159411431Y-84511607D01*
X159380110Y-84494866D01*
X159352661Y-84472339D01*
X159330134Y-84444890D01*
X159313393Y-84413569D01*
X159303085Y-84379591D01*
X159299000Y-84338110D01*
X159299000Y-83661890D01*
X159303085Y-83620409D01*
X159313393Y-83586431D01*
X159330134Y-83555110D01*
X159352661Y-83527661D01*
X159380110Y-83505134D01*
X159411431Y-83488393D01*
X159445409Y-83478085D01*
X159486890Y-83474000D01*
X160088110Y-83474000D01*
X160129591Y-83478085D01*
X160129591Y-83478085D01*
G37*
G36*
X158554591Y-83478085D02*
G01*
X158588569Y-83488393D01*
X158619890Y-83505134D01*
X158647339Y-83527661D01*
X158669866Y-83555110D01*
X158686607Y-83586431D01*
X158696915Y-83620409D01*
X158701000Y-83661890D01*
X158701000Y-84338110D01*
X158696915Y-84379591D01*
X158686607Y-84413569D01*
X158669866Y-84444890D01*
X158647339Y-84472339D01*
X158619890Y-84494866D01*
X158588569Y-84511607D01*
X158554591Y-84521915D01*
X158513110Y-84526000D01*
X157911890Y-84526000D01*
X157870409Y-84521915D01*
X157836431Y-84511607D01*
X157805110Y-84494866D01*
X157777661Y-84472339D01*
X157755134Y-84444890D01*
X157738393Y-84413569D01*
X157728085Y-84379591D01*
X157724000Y-84338110D01*
X157724000Y-83661890D01*
X157728085Y-83620409D01*
X157738393Y-83586431D01*
X157755134Y-83555110D01*
X157777661Y-83527661D01*
X157805110Y-83505134D01*
X157836431Y-83488393D01*
X157870409Y-83478085D01*
X157911890Y-83474000D01*
X158513110Y-83474000D01*
X158554591Y-83478085D01*
X158554591Y-83478085D01*
G37*
G36*
X165110443Y-82725519D02*
G01*
X165176627Y-82732037D01*
X165346466Y-82783557D01*
X165502991Y-82867222D01*
X165538729Y-82896552D01*
X165640186Y-82979814D01*
X165723448Y-83081271D01*
X165752778Y-83117009D01*
X165836443Y-83273534D01*
X165887963Y-83443373D01*
X165905359Y-83620000D01*
X165887963Y-83796627D01*
X165836443Y-83966466D01*
X165752778Y-84122991D01*
X165723448Y-84158729D01*
X165640186Y-84260186D01*
X165555846Y-84329401D01*
X165502991Y-84372778D01*
X165346466Y-84456443D01*
X165176627Y-84507963D01*
X165110443Y-84514481D01*
X165044260Y-84521000D01*
X164955740Y-84521000D01*
X164889557Y-84514481D01*
X164823373Y-84507963D01*
X164653534Y-84456443D01*
X164497009Y-84372778D01*
X164444154Y-84329401D01*
X164359814Y-84260186D01*
X164276552Y-84158729D01*
X164247222Y-84122991D01*
X164163557Y-83966466D01*
X164112037Y-83796627D01*
X164094641Y-83620000D01*
X164112037Y-83443373D01*
X164163557Y-83273534D01*
X164247222Y-83117009D01*
X164276552Y-83081271D01*
X164359814Y-82979814D01*
X164461271Y-82896552D01*
X164497009Y-82867222D01*
X164653534Y-82783557D01*
X164823373Y-82732037D01*
X164889557Y-82725519D01*
X164955740Y-82719000D01*
X165044260Y-82719000D01*
X165110443Y-82725519D01*
X165110443Y-82725519D01*
G37*
G36*
X133219683Y-81952725D02*
G01*
X133250143Y-81961966D01*
X133278223Y-81976974D01*
X133302831Y-81997169D01*
X133323026Y-82021777D01*
X133338034Y-82049857D01*
X133347275Y-82080317D01*
X133351000Y-82118140D01*
X133351000Y-83881860D01*
X133347275Y-83919683D01*
X133338034Y-83950143D01*
X133323026Y-83978223D01*
X133302831Y-84002831D01*
X133278223Y-84023026D01*
X133250143Y-84038034D01*
X133219683Y-84047275D01*
X133181860Y-84051000D01*
X132618140Y-84051000D01*
X132580317Y-84047275D01*
X132549857Y-84038034D01*
X132521777Y-84023026D01*
X132497169Y-84002831D01*
X132476974Y-83978223D01*
X132461966Y-83950143D01*
X132452725Y-83919683D01*
X132449000Y-83881860D01*
X132449000Y-82118140D01*
X132452725Y-82080317D01*
X132461966Y-82049857D01*
X132476974Y-82021777D01*
X132497169Y-81997169D01*
X132521777Y-81976974D01*
X132549857Y-81961966D01*
X132580317Y-81952725D01*
X132618140Y-81949000D01*
X133181860Y-81949000D01*
X133219683Y-81952725D01*
X133219683Y-81952725D01*
G37*
G36*
X137419683Y-81952725D02*
G01*
X137450143Y-81961966D01*
X137478223Y-81976974D01*
X137502831Y-81997169D01*
X137523026Y-82021777D01*
X137538034Y-82049857D01*
X137547275Y-82080317D01*
X137551000Y-82118140D01*
X137551000Y-83881860D01*
X137547275Y-83919683D01*
X137538034Y-83950143D01*
X137523026Y-83978223D01*
X137502831Y-84002831D01*
X137478223Y-84023026D01*
X137450143Y-84038034D01*
X137419683Y-84047275D01*
X137381860Y-84051000D01*
X136818140Y-84051000D01*
X136780317Y-84047275D01*
X136749857Y-84038034D01*
X136721777Y-84023026D01*
X136697169Y-84002831D01*
X136676974Y-83978223D01*
X136661966Y-83950143D01*
X136652725Y-83919683D01*
X136649000Y-83881860D01*
X136649000Y-82118140D01*
X136652725Y-82080317D01*
X136661966Y-82049857D01*
X136676974Y-82021777D01*
X136697169Y-81997169D01*
X136721777Y-81976974D01*
X136749857Y-81961966D01*
X136780317Y-81952725D01*
X136818140Y-81949000D01*
X137381860Y-81949000D01*
X137419683Y-81952725D01*
X137419683Y-81952725D01*
G37*
G36*
X126251000Y-83751000D02*
G01*
X125349000Y-83751000D01*
X125349000Y-83149000D01*
X126251000Y-83149000D01*
X126251000Y-83751000D01*
X126251000Y-83751000D01*
G37*
G36*
X124651000Y-83751000D02*
G01*
X123749000Y-83751000D01*
X123749000Y-83149000D01*
X124651000Y-83149000D01*
X124651000Y-83751000D01*
X124651000Y-83751000D01*
G37*
G36*
X124651000Y-82851000D02*
G01*
X123749000Y-82851000D01*
X123749000Y-82249000D01*
X124651000Y-82249000D01*
X124651000Y-82851000D01*
X124651000Y-82851000D01*
G37*
G36*
X126251000Y-82851000D02*
G01*
X125349000Y-82851000D01*
X125349000Y-82249000D01*
X126251000Y-82249000D01*
X126251000Y-82851000D01*
X126251000Y-82851000D01*
G37*
G36*
X158501000Y-82401000D02*
G01*
X157499000Y-82401000D01*
X157499000Y-81499000D01*
X158501000Y-81499000D01*
X158501000Y-82401000D01*
X158501000Y-82401000D01*
G37*
G36*
X165110443Y-80185519D02*
G01*
X165176627Y-80192037D01*
X165346466Y-80243557D01*
X165502991Y-80327222D01*
X165538729Y-80356552D01*
X165640186Y-80439814D01*
X165710916Y-80526000D01*
X165752778Y-80577009D01*
X165836443Y-80733534D01*
X165887963Y-80903373D01*
X165905359Y-81080000D01*
X165887963Y-81256627D01*
X165836443Y-81426466D01*
X165752778Y-81582991D01*
X165723448Y-81618729D01*
X165640186Y-81720186D01*
X165538729Y-81803448D01*
X165502991Y-81832778D01*
X165346466Y-81916443D01*
X165176627Y-81967963D01*
X165110442Y-81974482D01*
X165044260Y-81981000D01*
X164955740Y-81981000D01*
X164889558Y-81974482D01*
X164823373Y-81967963D01*
X164653534Y-81916443D01*
X164497009Y-81832778D01*
X164461271Y-81803448D01*
X164359814Y-81720186D01*
X164276552Y-81618729D01*
X164247222Y-81582991D01*
X164163557Y-81426466D01*
X164112037Y-81256627D01*
X164094641Y-81080000D01*
X164112037Y-80903373D01*
X164163557Y-80733534D01*
X164247222Y-80577009D01*
X164289084Y-80526000D01*
X164359814Y-80439814D01*
X164461271Y-80356552D01*
X164497009Y-80327222D01*
X164653534Y-80243557D01*
X164823373Y-80192037D01*
X164889557Y-80185519D01*
X164955740Y-80179000D01*
X165044260Y-80179000D01*
X165110443Y-80185519D01*
X165110443Y-80185519D01*
G37*
G36*
X160501000Y-81451000D02*
G01*
X159499000Y-81451000D01*
X159499000Y-80549000D01*
X160501000Y-80549000D01*
X160501000Y-81451000D01*
X160501000Y-81451000D01*
G37*
G36*
X148129591Y-79478085D02*
G01*
X148163569Y-79488393D01*
X148194890Y-79505134D01*
X148222339Y-79527661D01*
X148244866Y-79555110D01*
X148261607Y-79586431D01*
X148271915Y-79620409D01*
X148276000Y-79661890D01*
X148276000Y-80338110D01*
X148271915Y-80379591D01*
X148261607Y-80413569D01*
X148244866Y-80444890D01*
X148222339Y-80472339D01*
X148194890Y-80494866D01*
X148163569Y-80511607D01*
X148129591Y-80521915D01*
X148088110Y-80526000D01*
X147486890Y-80526000D01*
X147445409Y-80521915D01*
X147411431Y-80511607D01*
X147380110Y-80494866D01*
X147352661Y-80472339D01*
X147330134Y-80444890D01*
X147313393Y-80413569D01*
X147303085Y-80379591D01*
X147299000Y-80338110D01*
X147299000Y-79661890D01*
X147303085Y-79620409D01*
X147313393Y-79586431D01*
X147330134Y-79555110D01*
X147352661Y-79527661D01*
X147380110Y-79505134D01*
X147411431Y-79488393D01*
X147445409Y-79478085D01*
X147486890Y-79474000D01*
X148088110Y-79474000D01*
X148129591Y-79478085D01*
X148129591Y-79478085D01*
G37*
G36*
X134554591Y-79478085D02*
G01*
X134588569Y-79488393D01*
X134619890Y-79505134D01*
X134647339Y-79527661D01*
X134669866Y-79555110D01*
X134686607Y-79586431D01*
X134696915Y-79620409D01*
X134701000Y-79661890D01*
X134701000Y-80338110D01*
X134696915Y-80379591D01*
X134686607Y-80413569D01*
X134669866Y-80444890D01*
X134647339Y-80472339D01*
X134619890Y-80494866D01*
X134588569Y-80511607D01*
X134554591Y-80521915D01*
X134513110Y-80526000D01*
X133911890Y-80526000D01*
X133870409Y-80521915D01*
X133836431Y-80511607D01*
X133805110Y-80494866D01*
X133777661Y-80472339D01*
X133755134Y-80444890D01*
X133738393Y-80413569D01*
X133728085Y-80379591D01*
X133724000Y-80338110D01*
X133724000Y-79661890D01*
X133728085Y-79620409D01*
X133738393Y-79586431D01*
X133755134Y-79555110D01*
X133777661Y-79527661D01*
X133805110Y-79505134D01*
X133836431Y-79488393D01*
X133870409Y-79478085D01*
X133911890Y-79474000D01*
X134513110Y-79474000D01*
X134554591Y-79478085D01*
X134554591Y-79478085D01*
G37*
G36*
X136129591Y-79478085D02*
G01*
X136163569Y-79488393D01*
X136194890Y-79505134D01*
X136222339Y-79527661D01*
X136244866Y-79555110D01*
X136261607Y-79586431D01*
X136271915Y-79620409D01*
X136276000Y-79661890D01*
X136276000Y-80338110D01*
X136271915Y-80379591D01*
X136261607Y-80413569D01*
X136244866Y-80444890D01*
X136222339Y-80472339D01*
X136194890Y-80494866D01*
X136163569Y-80511607D01*
X136129591Y-80521915D01*
X136088110Y-80526000D01*
X135486890Y-80526000D01*
X135445409Y-80521915D01*
X135411431Y-80511607D01*
X135380110Y-80494866D01*
X135352661Y-80472339D01*
X135330134Y-80444890D01*
X135313393Y-80413569D01*
X135303085Y-80379591D01*
X135299000Y-80338110D01*
X135299000Y-79661890D01*
X135303085Y-79620409D01*
X135313393Y-79586431D01*
X135330134Y-79555110D01*
X135352661Y-79527661D01*
X135380110Y-79505134D01*
X135411431Y-79488393D01*
X135445409Y-79478085D01*
X135486890Y-79474000D01*
X136088110Y-79474000D01*
X136129591Y-79478085D01*
X136129591Y-79478085D01*
G37*
G36*
X146554591Y-79478085D02*
G01*
X146588569Y-79488393D01*
X146619890Y-79505134D01*
X146647339Y-79527661D01*
X146669866Y-79555110D01*
X146686607Y-79586431D01*
X146696915Y-79620409D01*
X146701000Y-79661890D01*
X146701000Y-80338110D01*
X146696915Y-80379591D01*
X146686607Y-80413569D01*
X146669866Y-80444890D01*
X146647339Y-80472339D01*
X146619890Y-80494866D01*
X146588569Y-80511607D01*
X146554591Y-80521915D01*
X146513110Y-80526000D01*
X145911890Y-80526000D01*
X145870409Y-80521915D01*
X145836431Y-80511607D01*
X145805110Y-80494866D01*
X145777661Y-80472339D01*
X145755134Y-80444890D01*
X145738393Y-80413569D01*
X145728085Y-80379591D01*
X145724000Y-80338110D01*
X145724000Y-79661890D01*
X145728085Y-79620409D01*
X145738393Y-79586431D01*
X145755134Y-79555110D01*
X145777661Y-79527661D01*
X145805110Y-79505134D01*
X145836431Y-79488393D01*
X145870409Y-79478085D01*
X145911890Y-79474000D01*
X146513110Y-79474000D01*
X146554591Y-79478085D01*
X146554591Y-79478085D01*
G37*
G36*
X158501000Y-80501000D02*
G01*
X157499000Y-80501000D01*
X157499000Y-79599000D01*
X158501000Y-79599000D01*
X158501000Y-80501000D01*
X158501000Y-80501000D01*
G37*
G36*
X125379591Y-79303085D02*
G01*
X125413569Y-79313393D01*
X125444890Y-79330134D01*
X125472339Y-79352661D01*
X125494866Y-79380110D01*
X125511607Y-79411431D01*
X125521915Y-79445409D01*
X125526000Y-79486890D01*
X125526000Y-80088110D01*
X125521915Y-80129591D01*
X125511607Y-80163569D01*
X125494866Y-80194890D01*
X125472339Y-80222339D01*
X125444890Y-80244866D01*
X125413569Y-80261607D01*
X125379591Y-80271915D01*
X125338110Y-80276000D01*
X124661890Y-80276000D01*
X124620409Y-80271915D01*
X124586431Y-80261607D01*
X124555110Y-80244866D01*
X124527661Y-80222339D01*
X124505134Y-80194890D01*
X124488393Y-80163569D01*
X124478085Y-80129591D01*
X124474000Y-80088110D01*
X124474000Y-79486890D01*
X124478085Y-79445409D01*
X124488393Y-79411431D01*
X124505134Y-79380110D01*
X124527661Y-79352661D01*
X124555110Y-79330134D01*
X124586431Y-79313393D01*
X124620409Y-79303085D01*
X124661890Y-79299000D01*
X125338110Y-79299000D01*
X125379591Y-79303085D01*
X125379591Y-79303085D01*
G37*
G36*
X123379591Y-79303085D02*
G01*
X123413569Y-79313393D01*
X123444890Y-79330134D01*
X123472339Y-79352661D01*
X123494866Y-79380110D01*
X123511607Y-79411431D01*
X123521915Y-79445409D01*
X123526000Y-79486890D01*
X123526000Y-80088110D01*
X123521915Y-80129591D01*
X123511607Y-80163569D01*
X123494866Y-80194890D01*
X123472339Y-80222339D01*
X123444890Y-80244866D01*
X123413569Y-80261607D01*
X123379591Y-80271915D01*
X123338110Y-80276000D01*
X122661890Y-80276000D01*
X122620409Y-80271915D01*
X122586431Y-80261607D01*
X122555110Y-80244866D01*
X122527661Y-80222339D01*
X122505134Y-80194890D01*
X122488393Y-80163569D01*
X122478085Y-80129591D01*
X122474000Y-80088110D01*
X122474000Y-79486890D01*
X122478085Y-79445409D01*
X122488393Y-79411431D01*
X122505134Y-79380110D01*
X122527661Y-79352661D01*
X122555110Y-79330134D01*
X122586431Y-79313393D01*
X122620409Y-79303085D01*
X122661890Y-79299000D01*
X123338110Y-79299000D01*
X123379591Y-79303085D01*
X123379591Y-79303085D01*
G37*
G36*
X127379591Y-79303085D02*
G01*
X127413569Y-79313393D01*
X127444890Y-79330134D01*
X127472339Y-79352661D01*
X127494866Y-79380110D01*
X127511607Y-79411431D01*
X127521915Y-79445409D01*
X127526000Y-79486890D01*
X127526000Y-80088110D01*
X127521915Y-80129591D01*
X127511607Y-80163569D01*
X127494866Y-80194890D01*
X127472339Y-80222339D01*
X127444890Y-80244866D01*
X127413569Y-80261607D01*
X127379591Y-80271915D01*
X127338110Y-80276000D01*
X126661890Y-80276000D01*
X126620409Y-80271915D01*
X126586431Y-80261607D01*
X126555110Y-80244866D01*
X126527661Y-80222339D01*
X126505134Y-80194890D01*
X126488393Y-80163569D01*
X126478085Y-80129591D01*
X126474000Y-80088110D01*
X126474000Y-79486890D01*
X126478085Y-79445409D01*
X126488393Y-79411431D01*
X126505134Y-79380110D01*
X126527661Y-79352661D01*
X126555110Y-79330134D01*
X126586431Y-79313393D01*
X126620409Y-79303085D01*
X126661890Y-79299000D01*
X127338110Y-79299000D01*
X127379591Y-79303085D01*
X127379591Y-79303085D01*
G37*
G36*
X165110442Y-77645518D02*
G01*
X165176627Y-77652037D01*
X165346466Y-77703557D01*
X165502991Y-77787222D01*
X165513125Y-77795539D01*
X165640186Y-77899814D01*
X165696349Y-77968250D01*
X165752778Y-78037009D01*
X165752779Y-78037011D01*
X165802265Y-78129591D01*
X165836443Y-78193534D01*
X165887963Y-78363373D01*
X165905359Y-78540000D01*
X165887963Y-78716627D01*
X165836443Y-78886466D01*
X165752778Y-79042991D01*
X165723448Y-79078729D01*
X165640186Y-79180186D01*
X165538729Y-79263448D01*
X165502991Y-79292778D01*
X165346466Y-79376443D01*
X165176627Y-79427963D01*
X165110443Y-79434481D01*
X165044260Y-79441000D01*
X164955740Y-79441000D01*
X164889557Y-79434481D01*
X164823373Y-79427963D01*
X164653534Y-79376443D01*
X164497009Y-79292778D01*
X164461271Y-79263448D01*
X164359814Y-79180186D01*
X164276552Y-79078729D01*
X164247222Y-79042991D01*
X164163557Y-78886466D01*
X164112037Y-78716627D01*
X164094641Y-78540000D01*
X164112037Y-78363373D01*
X164163557Y-78193534D01*
X164197736Y-78129591D01*
X164247221Y-78037011D01*
X164247222Y-78037009D01*
X164303651Y-77968250D01*
X164359814Y-77899814D01*
X164486875Y-77795539D01*
X164497009Y-77787222D01*
X164653534Y-77703557D01*
X164823373Y-77652037D01*
X164889558Y-77645518D01*
X164955740Y-77639000D01*
X165044260Y-77639000D01*
X165110442Y-77645518D01*
X165110442Y-77645518D01*
G37*
G36*
X123379591Y-77728085D02*
G01*
X123413569Y-77738393D01*
X123444890Y-77755134D01*
X123472339Y-77777661D01*
X123494866Y-77805110D01*
X123511607Y-77836431D01*
X123521915Y-77870409D01*
X123526000Y-77911890D01*
X123526000Y-78513110D01*
X123521915Y-78554591D01*
X123511607Y-78588569D01*
X123494866Y-78619890D01*
X123472339Y-78647339D01*
X123444890Y-78669866D01*
X123413569Y-78686607D01*
X123379591Y-78696915D01*
X123338110Y-78701000D01*
X122661890Y-78701000D01*
X122620409Y-78696915D01*
X122586431Y-78686607D01*
X122555110Y-78669866D01*
X122527661Y-78647339D01*
X122505134Y-78619890D01*
X122488393Y-78588569D01*
X122478085Y-78554591D01*
X122474000Y-78513110D01*
X122474000Y-77911890D01*
X122478085Y-77870409D01*
X122488393Y-77836431D01*
X122505134Y-77805110D01*
X122527661Y-77777661D01*
X122555110Y-77755134D01*
X122586431Y-77738393D01*
X122620409Y-77728085D01*
X122661890Y-77724000D01*
X123338110Y-77724000D01*
X123379591Y-77728085D01*
X123379591Y-77728085D01*
G37*
G36*
X125379591Y-77728085D02*
G01*
X125413569Y-77738393D01*
X125444890Y-77755134D01*
X125472339Y-77777661D01*
X125494866Y-77805110D01*
X125511607Y-77836431D01*
X125521915Y-77870409D01*
X125526000Y-77911890D01*
X125526000Y-78513110D01*
X125521915Y-78554591D01*
X125511607Y-78588569D01*
X125494866Y-78619890D01*
X125472339Y-78647339D01*
X125444890Y-78669866D01*
X125413569Y-78686607D01*
X125379591Y-78696915D01*
X125338110Y-78701000D01*
X124661890Y-78701000D01*
X124620409Y-78696915D01*
X124586431Y-78686607D01*
X124555110Y-78669866D01*
X124527661Y-78647339D01*
X124505134Y-78619890D01*
X124488393Y-78588569D01*
X124478085Y-78554591D01*
X124474000Y-78513110D01*
X124474000Y-77911890D01*
X124478085Y-77870409D01*
X124488393Y-77836431D01*
X124505134Y-77805110D01*
X124527661Y-77777661D01*
X124555110Y-77755134D01*
X124586431Y-77738393D01*
X124620409Y-77728085D01*
X124661890Y-77724000D01*
X125338110Y-77724000D01*
X125379591Y-77728085D01*
X125379591Y-77728085D01*
G37*
G36*
X127379591Y-77728085D02*
G01*
X127413569Y-77738393D01*
X127444890Y-77755134D01*
X127472339Y-77777661D01*
X127494866Y-77805110D01*
X127511607Y-77836431D01*
X127521915Y-77870409D01*
X127526000Y-77911890D01*
X127526000Y-78513110D01*
X127521915Y-78554591D01*
X127511607Y-78588569D01*
X127494866Y-78619890D01*
X127472339Y-78647339D01*
X127444890Y-78669866D01*
X127413569Y-78686607D01*
X127379591Y-78696915D01*
X127338110Y-78701000D01*
X126661890Y-78701000D01*
X126620409Y-78696915D01*
X126586431Y-78686607D01*
X126555110Y-78669866D01*
X126527661Y-78647339D01*
X126505134Y-78619890D01*
X126488393Y-78588569D01*
X126478085Y-78554591D01*
X126474000Y-78513110D01*
X126474000Y-77911890D01*
X126478085Y-77870409D01*
X126488393Y-77836431D01*
X126505134Y-77805110D01*
X126527661Y-77777661D01*
X126555110Y-77755134D01*
X126586431Y-77738393D01*
X126620409Y-77728085D01*
X126661890Y-77724000D01*
X127338110Y-77724000D01*
X127379591Y-77728085D01*
X127379591Y-77728085D01*
G37*
G36*
X158501000Y-78401000D02*
G01*
X157499000Y-78401000D01*
X157499000Y-77499000D01*
X158501000Y-77499000D01*
X158501000Y-78401000D01*
X158501000Y-78401000D01*
G37*
G36*
X156379591Y-77303085D02*
G01*
X156413569Y-77313393D01*
X156444890Y-77330134D01*
X156472339Y-77352661D01*
X156494866Y-77380110D01*
X156511607Y-77411431D01*
X156521915Y-77445409D01*
X156526000Y-77486890D01*
X156526000Y-78088110D01*
X156521915Y-78129591D01*
X156511607Y-78163569D01*
X156494866Y-78194890D01*
X156472339Y-78222339D01*
X156444890Y-78244866D01*
X156413569Y-78261607D01*
X156379591Y-78271915D01*
X156338110Y-78276000D01*
X155661890Y-78276000D01*
X155620409Y-78271915D01*
X155586431Y-78261607D01*
X155555110Y-78244866D01*
X155527661Y-78222339D01*
X155505134Y-78194890D01*
X155488393Y-78163569D01*
X155478085Y-78129591D01*
X155474000Y-78088110D01*
X155474000Y-77486890D01*
X155478085Y-77445409D01*
X155488393Y-77411431D01*
X155505134Y-77380110D01*
X155527661Y-77352661D01*
X155555110Y-77330134D01*
X155586431Y-77313393D01*
X155620409Y-77303085D01*
X155661890Y-77299000D01*
X156338110Y-77299000D01*
X156379591Y-77303085D01*
X156379591Y-77303085D01*
G37*
G36*
X160501000Y-77451000D02*
G01*
X159499000Y-77451000D01*
X159499000Y-76549000D01*
X160501000Y-76549000D01*
X160501000Y-77451000D01*
X160501000Y-77451000D01*
G37*
G36*
X165901000Y-76901000D02*
G01*
X164099000Y-76901000D01*
X164099000Y-75099000D01*
X165901000Y-75099000D01*
X165901000Y-76901000D01*
X165901000Y-76901000D01*
G37*
G36*
X156379591Y-75728085D02*
G01*
X156413569Y-75738393D01*
X156444890Y-75755134D01*
X156472339Y-75777661D01*
X156494866Y-75805110D01*
X156511607Y-75836431D01*
X156521915Y-75870409D01*
X156526000Y-75911890D01*
X156526000Y-76513110D01*
X156521915Y-76554591D01*
X156511607Y-76588569D01*
X156494866Y-76619890D01*
X156472339Y-76647339D01*
X156444890Y-76669866D01*
X156413569Y-76686607D01*
X156379591Y-76696915D01*
X156338110Y-76701000D01*
X155661890Y-76701000D01*
X155620409Y-76696915D01*
X155586431Y-76686607D01*
X155555110Y-76669866D01*
X155527661Y-76647339D01*
X155505134Y-76619890D01*
X155488393Y-76588569D01*
X155478085Y-76554591D01*
X155474000Y-76513110D01*
X155474000Y-75911890D01*
X155478085Y-75870409D01*
X155488393Y-75836431D01*
X155505134Y-75805110D01*
X155527661Y-75777661D01*
X155555110Y-75755134D01*
X155586431Y-75738393D01*
X155620409Y-75728085D01*
X155661890Y-75724000D01*
X156338110Y-75724000D01*
X156379591Y-75728085D01*
X156379591Y-75728085D01*
G37*
G36*
X145354928Y-74651764D02*
G01*
X145376009Y-74658160D01*
X145395445Y-74668548D01*
X145412476Y-74682524D01*
X145426452Y-74699555D01*
X145436840Y-74718991D01*
X145443236Y-74740072D01*
X145446000Y-74768140D01*
X145446000Y-76381860D01*
X145443236Y-76409928D01*
X145436840Y-76431009D01*
X145426452Y-76450445D01*
X145412476Y-76467476D01*
X145395445Y-76481452D01*
X145376009Y-76491840D01*
X145354928Y-76498236D01*
X145326860Y-76501000D01*
X144863140Y-76501000D01*
X144835072Y-76498236D01*
X144813991Y-76491840D01*
X144794555Y-76481452D01*
X144777524Y-76467476D01*
X144763548Y-76450445D01*
X144753160Y-76431009D01*
X144746764Y-76409928D01*
X144744000Y-76381860D01*
X144744000Y-74768140D01*
X144746764Y-74740072D01*
X144753160Y-74718991D01*
X144763548Y-74699555D01*
X144777524Y-74682524D01*
X144794555Y-74668548D01*
X144813991Y-74658160D01*
X144835072Y-74651764D01*
X144863140Y-74649000D01*
X145326860Y-74649000D01*
X145354928Y-74651764D01*
X145354928Y-74651764D01*
G37*
G36*
X158501000Y-76501000D02*
G01*
X157499000Y-76501000D01*
X157499000Y-75599000D01*
X158501000Y-75599000D01*
X158501000Y-76501000D01*
X158501000Y-76501000D01*
G37*
G36*
X146624928Y-74651764D02*
G01*
X146646009Y-74658160D01*
X146665445Y-74668548D01*
X146682476Y-74682524D01*
X146696452Y-74699555D01*
X146706840Y-74718991D01*
X146713236Y-74740072D01*
X146716000Y-74768140D01*
X146716000Y-76381860D01*
X146713236Y-76409928D01*
X146706840Y-76431009D01*
X146696452Y-76450445D01*
X146682476Y-76467476D01*
X146665445Y-76481452D01*
X146646009Y-76491840D01*
X146624928Y-76498236D01*
X146596860Y-76501000D01*
X146133140Y-76501000D01*
X146105072Y-76498236D01*
X146083991Y-76491840D01*
X146064555Y-76481452D01*
X146047524Y-76467476D01*
X146033548Y-76450445D01*
X146023160Y-76431009D01*
X146016764Y-76409928D01*
X146014000Y-76381860D01*
X146014000Y-74768140D01*
X146016764Y-74740072D01*
X146023160Y-74718991D01*
X146033548Y-74699555D01*
X146047524Y-74682524D01*
X146064555Y-74668548D01*
X146083991Y-74658160D01*
X146105072Y-74651764D01*
X146133140Y-74649000D01*
X146596860Y-74649000D01*
X146624928Y-74651764D01*
X146624928Y-74651764D01*
G37*
G36*
X149164928Y-74651764D02*
G01*
X149186009Y-74658160D01*
X149205445Y-74668548D01*
X149222476Y-74682524D01*
X149236452Y-74699555D01*
X149246840Y-74718991D01*
X149253236Y-74740072D01*
X149256000Y-74768140D01*
X149256000Y-76381860D01*
X149253236Y-76409928D01*
X149246840Y-76431009D01*
X149236452Y-76450445D01*
X149222476Y-76467476D01*
X149205445Y-76481452D01*
X149186009Y-76491840D01*
X149164928Y-76498236D01*
X149136860Y-76501000D01*
X148673140Y-76501000D01*
X148645072Y-76498236D01*
X148623991Y-76491840D01*
X148604555Y-76481452D01*
X148587524Y-76467476D01*
X148573548Y-76450445D01*
X148563160Y-76431009D01*
X148556764Y-76409928D01*
X148554000Y-76381860D01*
X148554000Y-74768140D01*
X148556764Y-74740072D01*
X148563160Y-74718991D01*
X148573548Y-74699555D01*
X148587524Y-74682524D01*
X148604555Y-74668548D01*
X148623991Y-74658160D01*
X148645072Y-74651764D01*
X148673140Y-74649000D01*
X149136860Y-74649000D01*
X149164928Y-74651764D01*
X149164928Y-74651764D01*
G37*
G36*
X147894928Y-74651764D02*
G01*
X147916009Y-74658160D01*
X147935445Y-74668548D01*
X147952476Y-74682524D01*
X147966452Y-74699555D01*
X147976840Y-74718991D01*
X147983236Y-74740072D01*
X147986000Y-74768140D01*
X147986000Y-76381860D01*
X147983236Y-76409928D01*
X147976840Y-76431009D01*
X147966452Y-76450445D01*
X147952476Y-76467476D01*
X147935445Y-76481452D01*
X147916009Y-76491840D01*
X147894928Y-76498236D01*
X147866860Y-76501000D01*
X147403140Y-76501000D01*
X147375072Y-76498236D01*
X147353991Y-76491840D01*
X147334555Y-76481452D01*
X147317524Y-76467476D01*
X147303548Y-76450445D01*
X147293160Y-76431009D01*
X147286764Y-76409928D01*
X147284000Y-76381860D01*
X147284000Y-74768140D01*
X147286764Y-74740072D01*
X147293160Y-74718991D01*
X147303548Y-74699555D01*
X147317524Y-74682524D01*
X147334555Y-74668548D01*
X147353991Y-74658160D01*
X147375072Y-74651764D01*
X147403140Y-74649000D01*
X147866860Y-74649000D01*
X147894928Y-74651764D01*
X147894928Y-74651764D01*
G37*
G36*
X137733512Y-72883927D02*
G01*
X137882812Y-72913624D01*
X138046784Y-72981544D01*
X138194354Y-73080147D01*
X138319853Y-73205646D01*
X138418456Y-73353216D01*
X138486376Y-73517188D01*
X138521000Y-73691259D01*
X138521000Y-73868741D01*
X138486376Y-74042812D01*
X138418456Y-74206784D01*
X138319853Y-74354354D01*
X138194354Y-74479853D01*
X138046784Y-74578456D01*
X137882812Y-74646376D01*
X137733512Y-74676073D01*
X137708742Y-74681000D01*
X137531258Y-74681000D01*
X137506488Y-74676073D01*
X137357188Y-74646376D01*
X137193216Y-74578456D01*
X137045646Y-74479853D01*
X136920147Y-74354354D01*
X136821544Y-74206784D01*
X136753624Y-74042812D01*
X136719000Y-73868741D01*
X136719000Y-73691259D01*
X136753624Y-73517188D01*
X136821544Y-73353216D01*
X136920147Y-73205646D01*
X137045646Y-73080147D01*
X137193216Y-72981544D01*
X137357188Y-72913624D01*
X137506488Y-72883927D01*
X137531258Y-72879000D01*
X137708742Y-72879000D01*
X137733512Y-72883927D01*
X137733512Y-72883927D01*
G37*
G36*
X122493512Y-72883927D02*
G01*
X122642812Y-72913624D01*
X122806784Y-72981544D01*
X122954354Y-73080147D01*
X123079853Y-73205646D01*
X123178456Y-73353216D01*
X123246376Y-73517188D01*
X123281000Y-73691259D01*
X123281000Y-73868741D01*
X123246376Y-74042812D01*
X123178456Y-74206784D01*
X123079853Y-74354354D01*
X122954354Y-74479853D01*
X122806784Y-74578456D01*
X122642812Y-74646376D01*
X122493512Y-74676073D01*
X122468742Y-74681000D01*
X122291258Y-74681000D01*
X122266488Y-74676073D01*
X122117188Y-74646376D01*
X121953216Y-74578456D01*
X121805646Y-74479853D01*
X121680147Y-74354354D01*
X121581544Y-74206784D01*
X121513624Y-74042812D01*
X121479000Y-73868741D01*
X121479000Y-73691259D01*
X121513624Y-73517188D01*
X121581544Y-73353216D01*
X121680147Y-73205646D01*
X121805646Y-73080147D01*
X121953216Y-72981544D01*
X122117188Y-72913624D01*
X122266488Y-72883927D01*
X122291258Y-72879000D01*
X122468742Y-72879000D01*
X122493512Y-72883927D01*
X122493512Y-72883927D01*
G37*
G36*
X137733512Y-70343927D02*
G01*
X137882812Y-70373624D01*
X138046784Y-70441544D01*
X138194354Y-70540147D01*
X138319853Y-70665646D01*
X138418456Y-70813216D01*
X138486376Y-70977188D01*
X138521000Y-71151259D01*
X138521000Y-71328741D01*
X138486376Y-71502812D01*
X138418456Y-71666784D01*
X138319853Y-71814354D01*
X138194354Y-71939853D01*
X138046784Y-72038456D01*
X137882812Y-72106376D01*
X137733512Y-72136073D01*
X137708742Y-72141000D01*
X137531258Y-72141000D01*
X137506488Y-72136073D01*
X137357188Y-72106376D01*
X137193216Y-72038456D01*
X137045646Y-71939853D01*
X136920147Y-71814354D01*
X136821544Y-71666784D01*
X136753624Y-71502812D01*
X136719000Y-71328741D01*
X136719000Y-71151259D01*
X136753624Y-70977188D01*
X136821544Y-70813216D01*
X136920147Y-70665646D01*
X137045646Y-70540147D01*
X137193216Y-70441544D01*
X137357188Y-70373624D01*
X137506488Y-70343927D01*
X137531258Y-70339000D01*
X137708742Y-70339000D01*
X137733512Y-70343927D01*
X137733512Y-70343927D01*
G37*
G36*
X122493512Y-70343927D02*
G01*
X122642812Y-70373624D01*
X122806784Y-70441544D01*
X122954354Y-70540147D01*
X123079853Y-70665646D01*
X123178456Y-70813216D01*
X123246376Y-70977188D01*
X123281000Y-71151259D01*
X123281000Y-71328741D01*
X123246376Y-71502812D01*
X123178456Y-71666784D01*
X123079853Y-71814354D01*
X122954354Y-71939853D01*
X122806784Y-72038456D01*
X122642812Y-72106376D01*
X122493512Y-72136073D01*
X122468742Y-72141000D01*
X122291258Y-72141000D01*
X122266488Y-72136073D01*
X122117188Y-72106376D01*
X121953216Y-72038456D01*
X121805646Y-71939853D01*
X121680147Y-71814354D01*
X121581544Y-71666784D01*
X121513624Y-71502812D01*
X121479000Y-71328741D01*
X121479000Y-71151259D01*
X121513624Y-70977188D01*
X121581544Y-70813216D01*
X121680147Y-70665646D01*
X121805646Y-70540147D01*
X121953216Y-70441544D01*
X122117188Y-70373624D01*
X122266488Y-70343927D01*
X122291258Y-70339000D01*
X122468742Y-70339000D01*
X122493512Y-70343927D01*
X122493512Y-70343927D01*
G37*
G36*
X145354928Y-69501764D02*
G01*
X145376009Y-69508160D01*
X145395445Y-69518548D01*
X145412476Y-69532524D01*
X145426452Y-69549555D01*
X145436840Y-69568991D01*
X145443236Y-69590072D01*
X145446000Y-69618140D01*
X145446000Y-71231860D01*
X145443236Y-71259928D01*
X145436840Y-71281009D01*
X145426452Y-71300445D01*
X145412476Y-71317476D01*
X145395445Y-71331452D01*
X145376009Y-71341840D01*
X145354928Y-71348236D01*
X145326860Y-71351000D01*
X144863140Y-71351000D01*
X144835072Y-71348236D01*
X144813991Y-71341840D01*
X144794555Y-71331452D01*
X144777524Y-71317476D01*
X144763548Y-71300445D01*
X144753160Y-71281009D01*
X144746764Y-71259928D01*
X144744000Y-71231860D01*
X144744000Y-69618140D01*
X144746764Y-69590072D01*
X144753160Y-69568991D01*
X144763548Y-69549555D01*
X144777524Y-69532524D01*
X144794555Y-69518548D01*
X144813991Y-69508160D01*
X144835072Y-69501764D01*
X144863140Y-69499000D01*
X145326860Y-69499000D01*
X145354928Y-69501764D01*
X145354928Y-69501764D01*
G37*
G36*
X149164928Y-69501764D02*
G01*
X149186009Y-69508160D01*
X149205445Y-69518548D01*
X149222476Y-69532524D01*
X149236452Y-69549555D01*
X149246840Y-69568991D01*
X149253236Y-69590072D01*
X149256000Y-69618140D01*
X149256000Y-71231860D01*
X149253236Y-71259928D01*
X149246840Y-71281009D01*
X149236452Y-71300445D01*
X149222476Y-71317476D01*
X149205445Y-71331452D01*
X149186009Y-71341840D01*
X149164928Y-71348236D01*
X149136860Y-71351000D01*
X148673140Y-71351000D01*
X148645072Y-71348236D01*
X148623991Y-71341840D01*
X148604555Y-71331452D01*
X148587524Y-71317476D01*
X148573548Y-71300445D01*
X148563160Y-71281009D01*
X148556764Y-71259928D01*
X148554000Y-71231860D01*
X148554000Y-69618140D01*
X148556764Y-69590072D01*
X148563160Y-69568991D01*
X148573548Y-69549555D01*
X148587524Y-69532524D01*
X148604555Y-69518548D01*
X148623991Y-69508160D01*
X148645072Y-69501764D01*
X148673140Y-69499000D01*
X149136860Y-69499000D01*
X149164928Y-69501764D01*
X149164928Y-69501764D01*
G37*
G36*
X147894928Y-69501764D02*
G01*
X147916009Y-69508160D01*
X147935445Y-69518548D01*
X147952476Y-69532524D01*
X147966452Y-69549555D01*
X147976840Y-69568991D01*
X147983236Y-69590072D01*
X147986000Y-69618140D01*
X147986000Y-71231860D01*
X147983236Y-71259928D01*
X147976840Y-71281009D01*
X147966452Y-71300445D01*
X147952476Y-71317476D01*
X147935445Y-71331452D01*
X147916009Y-71341840D01*
X147894928Y-71348236D01*
X147866860Y-71351000D01*
X147403140Y-71351000D01*
X147375072Y-71348236D01*
X147353991Y-71341840D01*
X147334555Y-71331452D01*
X147317524Y-71317476D01*
X147303548Y-71300445D01*
X147293160Y-71281009D01*
X147286764Y-71259928D01*
X147284000Y-71231860D01*
X147284000Y-69618140D01*
X147286764Y-69590072D01*
X147293160Y-69568991D01*
X147303548Y-69549555D01*
X147317524Y-69532524D01*
X147334555Y-69518548D01*
X147353991Y-69508160D01*
X147375072Y-69501764D01*
X147403140Y-69499000D01*
X147866860Y-69499000D01*
X147894928Y-69501764D01*
X147894928Y-69501764D01*
G37*
G36*
X146624928Y-69501764D02*
G01*
X146646009Y-69508160D01*
X146665445Y-69518548D01*
X146682476Y-69532524D01*
X146696452Y-69549555D01*
X146706840Y-69568991D01*
X146713236Y-69590072D01*
X146716000Y-69618140D01*
X146716000Y-71231860D01*
X146713236Y-71259928D01*
X146706840Y-71281009D01*
X146696452Y-71300445D01*
X146682476Y-71317476D01*
X146665445Y-71331452D01*
X146646009Y-71341840D01*
X146624928Y-71348236D01*
X146596860Y-71351000D01*
X146133140Y-71351000D01*
X146105072Y-71348236D01*
X146083991Y-71341840D01*
X146064555Y-71331452D01*
X146047524Y-71317476D01*
X146033548Y-71300445D01*
X146023160Y-71281009D01*
X146016764Y-71259928D01*
X146014000Y-71231860D01*
X146014000Y-69618140D01*
X146016764Y-69590072D01*
X146023160Y-69568991D01*
X146033548Y-69549555D01*
X146047524Y-69532524D01*
X146064555Y-69518548D01*
X146083991Y-69508160D01*
X146105072Y-69501764D01*
X146133140Y-69499000D01*
X146596860Y-69499000D01*
X146624928Y-69501764D01*
X146624928Y-69501764D01*
G37*
G36*
X137733512Y-67803927D02*
G01*
X137882812Y-67833624D01*
X138046784Y-67901544D01*
X138194354Y-68000147D01*
X138319853Y-68125646D01*
X138418456Y-68273216D01*
X138486376Y-68437188D01*
X138515290Y-68582552D01*
X138521000Y-68611258D01*
X138521000Y-68788742D01*
X138516073Y-68813512D01*
X138486376Y-68962812D01*
X138418456Y-69126784D01*
X138319853Y-69274354D01*
X138194354Y-69399853D01*
X138046784Y-69498456D01*
X137882812Y-69566376D01*
X137733512Y-69596073D01*
X137708742Y-69601000D01*
X137531258Y-69601000D01*
X137506488Y-69596073D01*
X137357188Y-69566376D01*
X137193216Y-69498456D01*
X137045646Y-69399853D01*
X136920147Y-69274354D01*
X136821544Y-69126784D01*
X136753624Y-68962812D01*
X136723927Y-68813512D01*
X136719000Y-68788742D01*
X136719000Y-68611258D01*
X136724710Y-68582552D01*
X136753624Y-68437188D01*
X136821544Y-68273216D01*
X136920147Y-68125646D01*
X137045646Y-68000147D01*
X137193216Y-67901544D01*
X137357188Y-67833624D01*
X137506488Y-67803927D01*
X137531258Y-67799000D01*
X137708742Y-67799000D01*
X137733512Y-67803927D01*
X137733512Y-67803927D01*
G37*
G36*
X122493512Y-67803927D02*
G01*
X122642812Y-67833624D01*
X122806784Y-67901544D01*
X122954354Y-68000147D01*
X123079853Y-68125646D01*
X123178456Y-68273216D01*
X123246376Y-68437188D01*
X123275290Y-68582552D01*
X123281000Y-68611258D01*
X123281000Y-68788742D01*
X123276073Y-68813512D01*
X123246376Y-68962812D01*
X123178456Y-69126784D01*
X123079853Y-69274354D01*
X122954354Y-69399853D01*
X122806784Y-69498456D01*
X122642812Y-69566376D01*
X122493512Y-69596073D01*
X122468742Y-69601000D01*
X122291258Y-69601000D01*
X122266488Y-69596073D01*
X122117188Y-69566376D01*
X121953216Y-69498456D01*
X121805646Y-69399853D01*
X121680147Y-69274354D01*
X121581544Y-69126784D01*
X121513624Y-68962812D01*
X121483927Y-68813512D01*
X121479000Y-68788742D01*
X121479000Y-68611258D01*
X121484710Y-68582552D01*
X121513624Y-68437188D01*
X121581544Y-68273216D01*
X121680147Y-68125646D01*
X121805646Y-68000147D01*
X121953216Y-67901544D01*
X122117188Y-67833624D01*
X122266488Y-67803927D01*
X122291258Y-67799000D01*
X122468742Y-67799000D01*
X122493512Y-67803927D01*
X122493512Y-67803927D01*
G37*
G36*
X160129591Y-68478085D02*
G01*
X160163569Y-68488393D01*
X160194890Y-68505134D01*
X160222339Y-68527661D01*
X160244866Y-68555110D01*
X160261607Y-68586431D01*
X160271915Y-68620409D01*
X160276000Y-68661890D01*
X160276000Y-69338110D01*
X160271915Y-69379591D01*
X160261607Y-69413569D01*
X160244866Y-69444890D01*
X160222339Y-69472339D01*
X160194890Y-69494866D01*
X160163569Y-69511607D01*
X160129591Y-69521915D01*
X160088110Y-69526000D01*
X159486890Y-69526000D01*
X159445409Y-69521915D01*
X159411431Y-69511607D01*
X159380110Y-69494866D01*
X159352661Y-69472339D01*
X159330134Y-69444890D01*
X159313393Y-69413569D01*
X159303085Y-69379591D01*
X159299000Y-69338110D01*
X159299000Y-68661890D01*
X159303085Y-68620409D01*
X159313393Y-68586431D01*
X159330134Y-68555110D01*
X159352661Y-68527661D01*
X159380110Y-68505134D01*
X159411431Y-68488393D01*
X159445409Y-68478085D01*
X159486890Y-68474000D01*
X160088110Y-68474000D01*
X160129591Y-68478085D01*
X160129591Y-68478085D01*
G37*
G36*
X158554591Y-68478085D02*
G01*
X158588569Y-68488393D01*
X158619890Y-68505134D01*
X158647339Y-68527661D01*
X158669866Y-68555110D01*
X158686607Y-68586431D01*
X158696915Y-68620409D01*
X158701000Y-68661890D01*
X158701000Y-69338110D01*
X158696915Y-69379591D01*
X158686607Y-69413569D01*
X158669866Y-69444890D01*
X158647339Y-69472339D01*
X158619890Y-69494866D01*
X158588569Y-69511607D01*
X158554591Y-69521915D01*
X158513110Y-69526000D01*
X157911890Y-69526000D01*
X157870409Y-69521915D01*
X157836431Y-69511607D01*
X157805110Y-69494866D01*
X157777661Y-69472339D01*
X157755134Y-69444890D01*
X157738393Y-69413569D01*
X157728085Y-69379591D01*
X157724000Y-69338110D01*
X157724000Y-68661890D01*
X157728085Y-68620409D01*
X157738393Y-68586431D01*
X157755134Y-68555110D01*
X157777661Y-68527661D01*
X157805110Y-68505134D01*
X157836431Y-68488393D01*
X157870409Y-68478085D01*
X157911890Y-68474000D01*
X158513110Y-68474000D01*
X158554591Y-68478085D01*
X158554591Y-68478085D01*
G37*
G36*
X165110442Y-67725518D02*
G01*
X165176627Y-67732037D01*
X165346466Y-67783557D01*
X165502991Y-67867222D01*
X165538729Y-67896552D01*
X165640186Y-67979814D01*
X165723448Y-68081271D01*
X165752778Y-68117009D01*
X165836443Y-68273534D01*
X165887963Y-68443373D01*
X165905359Y-68620000D01*
X165887963Y-68796627D01*
X165836443Y-68966466D01*
X165752778Y-69122991D01*
X165749665Y-69126784D01*
X165640186Y-69260186D01*
X165555846Y-69329401D01*
X165502991Y-69372778D01*
X165346466Y-69456443D01*
X165176627Y-69507963D01*
X165110442Y-69514482D01*
X165044260Y-69521000D01*
X164955740Y-69521000D01*
X164889558Y-69514482D01*
X164823373Y-69507963D01*
X164653534Y-69456443D01*
X164497009Y-69372778D01*
X164444154Y-69329401D01*
X164359814Y-69260186D01*
X164250335Y-69126784D01*
X164247222Y-69122991D01*
X164163557Y-68966466D01*
X164112037Y-68796627D01*
X164094641Y-68620000D01*
X164112037Y-68443373D01*
X164163557Y-68273534D01*
X164247222Y-68117009D01*
X164276552Y-68081271D01*
X164359814Y-67979814D01*
X164461271Y-67896552D01*
X164497009Y-67867222D01*
X164653534Y-67783557D01*
X164823373Y-67732037D01*
X164889558Y-67725518D01*
X164955740Y-67719000D01*
X165044260Y-67719000D01*
X165110442Y-67725518D01*
X165110442Y-67725518D01*
G37*
G36*
X158501000Y-67401000D02*
G01*
X157499000Y-67401000D01*
X157499000Y-66499000D01*
X158501000Y-66499000D01*
X158501000Y-67401000D01*
X158501000Y-67401000D01*
G37*
G36*
X137733512Y-65263927D02*
G01*
X137882812Y-65293624D01*
X138046784Y-65361544D01*
X138194354Y-65460147D01*
X138319853Y-65585646D01*
X138418456Y-65733216D01*
X138486376Y-65897188D01*
X138516073Y-66046488D01*
X138521000Y-66071258D01*
X138521000Y-66248742D01*
X138516073Y-66273512D01*
X138486376Y-66422812D01*
X138418456Y-66586784D01*
X138319853Y-66734354D01*
X138194354Y-66859853D01*
X138046784Y-66958456D01*
X137882812Y-67026376D01*
X137733512Y-67056073D01*
X137708742Y-67061000D01*
X137531258Y-67061000D01*
X137506488Y-67056073D01*
X137357188Y-67026376D01*
X137193216Y-66958456D01*
X137045646Y-66859853D01*
X136920147Y-66734354D01*
X136821544Y-66586784D01*
X136753624Y-66422812D01*
X136723927Y-66273512D01*
X136719000Y-66248742D01*
X136719000Y-66071258D01*
X136723927Y-66046488D01*
X136753624Y-65897188D01*
X136821544Y-65733216D01*
X136920147Y-65585646D01*
X137045646Y-65460147D01*
X137193216Y-65361544D01*
X137357188Y-65293624D01*
X137506488Y-65263927D01*
X137531258Y-65259000D01*
X137708742Y-65259000D01*
X137733512Y-65263927D01*
X137733512Y-65263927D01*
G37*
G36*
X122493512Y-65263927D02*
G01*
X122642812Y-65293624D01*
X122806784Y-65361544D01*
X122954354Y-65460147D01*
X123079853Y-65585646D01*
X123178456Y-65733216D01*
X123246376Y-65897188D01*
X123276073Y-66046488D01*
X123281000Y-66071258D01*
X123281000Y-66248742D01*
X123276073Y-66273512D01*
X123246376Y-66422812D01*
X123178456Y-66586784D01*
X123079853Y-66734354D01*
X122954354Y-66859853D01*
X122806784Y-66958456D01*
X122642812Y-67026376D01*
X122493512Y-67056073D01*
X122468742Y-67061000D01*
X122291258Y-67061000D01*
X122266488Y-67056073D01*
X122117188Y-67026376D01*
X121953216Y-66958456D01*
X121805646Y-66859853D01*
X121680147Y-66734354D01*
X121581544Y-66586784D01*
X121513624Y-66422812D01*
X121483927Y-66273512D01*
X121479000Y-66248742D01*
X121479000Y-66071258D01*
X121483927Y-66046488D01*
X121513624Y-65897188D01*
X121581544Y-65733216D01*
X121680147Y-65585646D01*
X121805646Y-65460147D01*
X121953216Y-65361544D01*
X122117188Y-65293624D01*
X122266488Y-65263927D01*
X122291258Y-65259000D01*
X122468742Y-65259000D01*
X122493512Y-65263927D01*
X122493512Y-65263927D01*
G37*
G36*
X165110442Y-65185518D02*
G01*
X165176627Y-65192037D01*
X165346466Y-65243557D01*
X165502991Y-65327222D01*
X165538729Y-65356552D01*
X165640186Y-65439814D01*
X165702023Y-65515164D01*
X165752778Y-65577009D01*
X165752779Y-65577011D01*
X165828274Y-65718250D01*
X165836443Y-65733534D01*
X165887963Y-65903373D01*
X165905359Y-66080000D01*
X165887963Y-66256627D01*
X165836443Y-66426466D01*
X165752778Y-66582991D01*
X165749665Y-66586784D01*
X165640186Y-66720186D01*
X165538729Y-66803448D01*
X165502991Y-66832778D01*
X165346466Y-66916443D01*
X165176627Y-66967963D01*
X165110443Y-66974481D01*
X165044260Y-66981000D01*
X164955740Y-66981000D01*
X164889557Y-66974481D01*
X164823373Y-66967963D01*
X164653534Y-66916443D01*
X164497009Y-66832778D01*
X164461271Y-66803448D01*
X164359814Y-66720186D01*
X164250335Y-66586784D01*
X164247222Y-66582991D01*
X164163557Y-66426466D01*
X164112037Y-66256627D01*
X164094641Y-66080000D01*
X164112037Y-65903373D01*
X164163557Y-65733534D01*
X164171727Y-65718250D01*
X164247221Y-65577011D01*
X164247222Y-65577009D01*
X164297977Y-65515164D01*
X164359814Y-65439814D01*
X164461271Y-65356552D01*
X164497009Y-65327222D01*
X164653534Y-65243557D01*
X164823373Y-65192037D01*
X164889558Y-65185518D01*
X164955740Y-65179000D01*
X165044260Y-65179000D01*
X165110442Y-65185518D01*
X165110442Y-65185518D01*
G37*
G36*
X144554591Y-65478085D02*
G01*
X144588569Y-65488393D01*
X144619890Y-65505134D01*
X144647339Y-65527661D01*
X144669866Y-65555110D01*
X144686607Y-65586431D01*
X144696915Y-65620409D01*
X144701000Y-65661890D01*
X144701000Y-66338110D01*
X144696915Y-66379591D01*
X144686607Y-66413569D01*
X144669866Y-66444890D01*
X144647339Y-66472339D01*
X144619890Y-66494866D01*
X144588569Y-66511607D01*
X144554591Y-66521915D01*
X144513110Y-66526000D01*
X143911890Y-66526000D01*
X143870409Y-66521915D01*
X143836431Y-66511607D01*
X143805110Y-66494866D01*
X143777661Y-66472339D01*
X143755134Y-66444890D01*
X143738393Y-66413569D01*
X143728085Y-66379591D01*
X143724000Y-66338110D01*
X143724000Y-65661890D01*
X143728085Y-65620409D01*
X143738393Y-65586431D01*
X143755134Y-65555110D01*
X143777661Y-65527661D01*
X143805110Y-65505134D01*
X143836431Y-65488393D01*
X143870409Y-65478085D01*
X143911890Y-65474000D01*
X144513110Y-65474000D01*
X144554591Y-65478085D01*
X144554591Y-65478085D01*
G37*
G36*
X146129591Y-65478085D02*
G01*
X146163569Y-65488393D01*
X146194890Y-65505134D01*
X146222339Y-65527661D01*
X146244866Y-65555110D01*
X146261607Y-65586431D01*
X146271915Y-65620409D01*
X146276000Y-65661890D01*
X146276000Y-66338110D01*
X146271915Y-66379591D01*
X146261607Y-66413569D01*
X146244866Y-66444890D01*
X146222339Y-66472339D01*
X146194890Y-66494866D01*
X146163569Y-66511607D01*
X146129591Y-66521915D01*
X146088110Y-66526000D01*
X145486890Y-66526000D01*
X145445409Y-66521915D01*
X145411431Y-66511607D01*
X145380110Y-66494866D01*
X145352661Y-66472339D01*
X145330134Y-66444890D01*
X145313393Y-66413569D01*
X145303085Y-66379591D01*
X145299000Y-66338110D01*
X145299000Y-65661890D01*
X145303085Y-65620409D01*
X145313393Y-65586431D01*
X145330134Y-65555110D01*
X145352661Y-65527661D01*
X145380110Y-65505134D01*
X145411431Y-65488393D01*
X145445409Y-65478085D01*
X145486890Y-65474000D01*
X146088110Y-65474000D01*
X146129591Y-65478085D01*
X146129591Y-65478085D01*
G37*
G36*
X150129591Y-65478085D02*
G01*
X150163569Y-65488393D01*
X150194890Y-65505134D01*
X150222339Y-65527661D01*
X150244866Y-65555110D01*
X150261607Y-65586431D01*
X150271915Y-65620409D01*
X150276000Y-65661890D01*
X150276000Y-66338110D01*
X150271915Y-66379591D01*
X150261607Y-66413569D01*
X150244866Y-66444890D01*
X150222339Y-66472339D01*
X150194890Y-66494866D01*
X150163569Y-66511607D01*
X150129591Y-66521915D01*
X150088110Y-66526000D01*
X149486890Y-66526000D01*
X149445409Y-66521915D01*
X149411431Y-66511607D01*
X149380110Y-66494866D01*
X149352661Y-66472339D01*
X149330134Y-66444890D01*
X149313393Y-66413569D01*
X149303085Y-66379591D01*
X149299000Y-66338110D01*
X149299000Y-65661890D01*
X149303085Y-65620409D01*
X149313393Y-65586431D01*
X149330134Y-65555110D01*
X149352661Y-65527661D01*
X149380110Y-65505134D01*
X149411431Y-65488393D01*
X149445409Y-65478085D01*
X149486890Y-65474000D01*
X150088110Y-65474000D01*
X150129591Y-65478085D01*
X150129591Y-65478085D01*
G37*
G36*
X148554591Y-65478085D02*
G01*
X148588569Y-65488393D01*
X148619890Y-65505134D01*
X148647339Y-65527661D01*
X148669866Y-65555110D01*
X148686607Y-65586431D01*
X148696915Y-65620409D01*
X148701000Y-65661890D01*
X148701000Y-66338110D01*
X148696915Y-66379591D01*
X148686607Y-66413569D01*
X148669866Y-66444890D01*
X148647339Y-66472339D01*
X148619890Y-66494866D01*
X148588569Y-66511607D01*
X148554591Y-66521915D01*
X148513110Y-66526000D01*
X147911890Y-66526000D01*
X147870409Y-66521915D01*
X147836431Y-66511607D01*
X147805110Y-66494866D01*
X147777661Y-66472339D01*
X147755134Y-66444890D01*
X147738393Y-66413569D01*
X147728085Y-66379591D01*
X147724000Y-66338110D01*
X147724000Y-65661890D01*
X147728085Y-65620409D01*
X147738393Y-65586431D01*
X147755134Y-65555110D01*
X147777661Y-65527661D01*
X147805110Y-65505134D01*
X147836431Y-65488393D01*
X147870409Y-65478085D01*
X147911890Y-65474000D01*
X148513110Y-65474000D01*
X148554591Y-65478085D01*
X148554591Y-65478085D01*
G37*
G36*
X160501000Y-66451000D02*
G01*
X159499000Y-66451000D01*
X159499000Y-65549000D01*
X160501000Y-65549000D01*
X160501000Y-66451000D01*
X160501000Y-66451000D01*
G37*
G36*
X158501000Y-65501000D02*
G01*
X157499000Y-65501000D01*
X157499000Y-64599000D01*
X158501000Y-64599000D01*
X158501000Y-65501000D01*
X158501000Y-65501000D01*
G37*
G36*
X144554591Y-63478085D02*
G01*
X144588569Y-63488393D01*
X144619890Y-63505134D01*
X144647339Y-63527661D01*
X144669866Y-63555110D01*
X144686607Y-63586431D01*
X144696915Y-63620409D01*
X144701000Y-63661890D01*
X144701000Y-64338110D01*
X144696915Y-64379591D01*
X144686607Y-64413569D01*
X144669866Y-64444890D01*
X144647339Y-64472339D01*
X144619890Y-64494866D01*
X144588569Y-64511607D01*
X144554591Y-64521915D01*
X144513110Y-64526000D01*
X143911890Y-64526000D01*
X143870409Y-64521915D01*
X143836431Y-64511607D01*
X143805110Y-64494866D01*
X143777661Y-64472339D01*
X143755134Y-64444890D01*
X143738393Y-64413569D01*
X143728085Y-64379591D01*
X143724000Y-64338110D01*
X143724000Y-63661890D01*
X143728085Y-63620409D01*
X143738393Y-63586431D01*
X143755134Y-63555110D01*
X143777661Y-63527661D01*
X143805110Y-63505134D01*
X143836431Y-63488393D01*
X143870409Y-63478085D01*
X143911890Y-63474000D01*
X144513110Y-63474000D01*
X144554591Y-63478085D01*
X144554591Y-63478085D01*
G37*
G36*
X150129591Y-63478085D02*
G01*
X150163569Y-63488393D01*
X150194890Y-63505134D01*
X150222339Y-63527661D01*
X150244866Y-63555110D01*
X150261607Y-63586431D01*
X150271915Y-63620409D01*
X150276000Y-63661890D01*
X150276000Y-64338110D01*
X150271915Y-64379591D01*
X150261607Y-64413569D01*
X150244866Y-64444890D01*
X150222339Y-64472339D01*
X150194890Y-64494866D01*
X150163569Y-64511607D01*
X150129591Y-64521915D01*
X150088110Y-64526000D01*
X149486890Y-64526000D01*
X149445409Y-64521915D01*
X149411431Y-64511607D01*
X149380110Y-64494866D01*
X149352661Y-64472339D01*
X149330134Y-64444890D01*
X149313393Y-64413569D01*
X149303085Y-64379591D01*
X149299000Y-64338110D01*
X149299000Y-63661890D01*
X149303085Y-63620409D01*
X149313393Y-63586431D01*
X149330134Y-63555110D01*
X149352661Y-63527661D01*
X149380110Y-63505134D01*
X149411431Y-63488393D01*
X149445409Y-63478085D01*
X149486890Y-63474000D01*
X150088110Y-63474000D01*
X150129591Y-63478085D01*
X150129591Y-63478085D01*
G37*
G36*
X148554591Y-63478085D02*
G01*
X148588569Y-63488393D01*
X148619890Y-63505134D01*
X148647339Y-63527661D01*
X148669866Y-63555110D01*
X148686607Y-63586431D01*
X148696915Y-63620409D01*
X148701000Y-63661890D01*
X148701000Y-64338110D01*
X148696915Y-64379591D01*
X148686607Y-64413569D01*
X148669866Y-64444890D01*
X148647339Y-64472339D01*
X148619890Y-64494866D01*
X148588569Y-64511607D01*
X148554591Y-64521915D01*
X148513110Y-64526000D01*
X147911890Y-64526000D01*
X147870409Y-64521915D01*
X147836431Y-64511607D01*
X147805110Y-64494866D01*
X147777661Y-64472339D01*
X147755134Y-64444890D01*
X147738393Y-64413569D01*
X147728085Y-64379591D01*
X147724000Y-64338110D01*
X147724000Y-63661890D01*
X147728085Y-63620409D01*
X147738393Y-63586431D01*
X147755134Y-63555110D01*
X147777661Y-63527661D01*
X147805110Y-63505134D01*
X147836431Y-63488393D01*
X147870409Y-63478085D01*
X147911890Y-63474000D01*
X148513110Y-63474000D01*
X148554591Y-63478085D01*
X148554591Y-63478085D01*
G37*
G36*
X146129591Y-63478085D02*
G01*
X146163569Y-63488393D01*
X146194890Y-63505134D01*
X146222339Y-63527661D01*
X146244866Y-63555110D01*
X146261607Y-63586431D01*
X146271915Y-63620409D01*
X146276000Y-63661890D01*
X146276000Y-64338110D01*
X146271915Y-64379591D01*
X146261607Y-64413569D01*
X146244866Y-64444890D01*
X146222339Y-64472339D01*
X146194890Y-64494866D01*
X146163569Y-64511607D01*
X146129591Y-64521915D01*
X146088110Y-64526000D01*
X145486890Y-64526000D01*
X145445409Y-64521915D01*
X145411431Y-64511607D01*
X145380110Y-64494866D01*
X145352661Y-64472339D01*
X145330134Y-64444890D01*
X145313393Y-64413569D01*
X145303085Y-64379591D01*
X145299000Y-64338110D01*
X145299000Y-63661890D01*
X145303085Y-63620409D01*
X145313393Y-63586431D01*
X145330134Y-63555110D01*
X145352661Y-63527661D01*
X145380110Y-63505134D01*
X145411431Y-63488393D01*
X145445409Y-63478085D01*
X145486890Y-63474000D01*
X146088110Y-63474000D01*
X146129591Y-63478085D01*
X146129591Y-63478085D01*
G37*
G36*
X137733512Y-62723927D02*
G01*
X137882812Y-62753624D01*
X138046784Y-62821544D01*
X138194354Y-62920147D01*
X138319853Y-63045646D01*
X138418456Y-63193216D01*
X138486376Y-63357188D01*
X138513309Y-63492592D01*
X138521000Y-63531258D01*
X138521000Y-63708742D01*
X138519109Y-63718250D01*
X138486376Y-63882812D01*
X138418456Y-64046784D01*
X138319853Y-64194354D01*
X138194354Y-64319853D01*
X138046784Y-64418456D01*
X137882812Y-64486376D01*
X137733512Y-64516073D01*
X137708742Y-64521000D01*
X137531258Y-64521000D01*
X137506488Y-64516073D01*
X137357188Y-64486376D01*
X137193216Y-64418456D01*
X137045646Y-64319853D01*
X136920147Y-64194354D01*
X136821544Y-64046784D01*
X136753624Y-63882812D01*
X136720891Y-63718250D01*
X136719000Y-63708742D01*
X136719000Y-63531258D01*
X136726691Y-63492592D01*
X136753624Y-63357188D01*
X136821544Y-63193216D01*
X136920147Y-63045646D01*
X137045646Y-62920147D01*
X137193216Y-62821544D01*
X137357188Y-62753624D01*
X137506488Y-62723927D01*
X137531258Y-62719000D01*
X137708742Y-62719000D01*
X137733512Y-62723927D01*
X137733512Y-62723927D01*
G37*
G36*
X122493512Y-62723927D02*
G01*
X122642812Y-62753624D01*
X122806784Y-62821544D01*
X122954354Y-62920147D01*
X123079853Y-63045646D01*
X123178456Y-63193216D01*
X123246376Y-63357188D01*
X123273309Y-63492592D01*
X123281000Y-63531258D01*
X123281000Y-63708742D01*
X123279109Y-63718250D01*
X123246376Y-63882812D01*
X123178456Y-64046784D01*
X123079853Y-64194354D01*
X122954354Y-64319853D01*
X122806784Y-64418456D01*
X122642812Y-64486376D01*
X122493512Y-64516073D01*
X122468742Y-64521000D01*
X122291258Y-64521000D01*
X122266488Y-64516073D01*
X122117188Y-64486376D01*
X121953216Y-64418456D01*
X121805646Y-64319853D01*
X121680147Y-64194354D01*
X121581544Y-64046784D01*
X121513624Y-63882812D01*
X121480891Y-63718250D01*
X121479000Y-63708742D01*
X121479000Y-63531258D01*
X121486691Y-63492592D01*
X121513624Y-63357188D01*
X121581544Y-63193216D01*
X121680147Y-63045646D01*
X121805646Y-62920147D01*
X121953216Y-62821544D01*
X122117188Y-62753624D01*
X122266488Y-62723927D01*
X122291258Y-62719000D01*
X122468742Y-62719000D01*
X122493512Y-62723927D01*
X122493512Y-62723927D01*
G37*
G36*
X165110443Y-62645519D02*
G01*
X165176627Y-62652037D01*
X165346466Y-62703557D01*
X165502991Y-62787222D01*
X165538729Y-62816552D01*
X165640186Y-62899814D01*
X165723448Y-63001271D01*
X165752778Y-63037009D01*
X165752779Y-63037011D01*
X165802265Y-63129591D01*
X165836443Y-63193534D01*
X165887963Y-63363373D01*
X165905359Y-63540000D01*
X165887963Y-63716627D01*
X165836443Y-63886466D01*
X165752778Y-64042991D01*
X165749665Y-64046784D01*
X165640186Y-64180186D01*
X165538729Y-64263448D01*
X165502991Y-64292778D01*
X165346466Y-64376443D01*
X165176627Y-64427963D01*
X165110442Y-64434482D01*
X165044260Y-64441000D01*
X164955740Y-64441000D01*
X164889558Y-64434482D01*
X164823373Y-64427963D01*
X164653534Y-64376443D01*
X164497009Y-64292778D01*
X164461271Y-64263448D01*
X164359814Y-64180186D01*
X164250335Y-64046784D01*
X164247222Y-64042991D01*
X164163557Y-63886466D01*
X164112037Y-63716627D01*
X164094641Y-63540000D01*
X164112037Y-63363373D01*
X164163557Y-63193534D01*
X164197736Y-63129591D01*
X164247221Y-63037011D01*
X164247222Y-63037009D01*
X164276552Y-63001271D01*
X164359814Y-62899814D01*
X164461271Y-62816552D01*
X164497009Y-62787222D01*
X164653534Y-62703557D01*
X164823373Y-62652037D01*
X164889557Y-62645519D01*
X164955740Y-62639000D01*
X165044260Y-62639000D01*
X165110443Y-62645519D01*
X165110443Y-62645519D01*
G37*
G36*
X158501000Y-63401000D02*
G01*
X157499000Y-63401000D01*
X157499000Y-62499000D01*
X158501000Y-62499000D01*
X158501000Y-63401000D01*
X158501000Y-63401000D01*
G37*
G36*
X156379591Y-62303085D02*
G01*
X156413569Y-62313393D01*
X156444890Y-62330134D01*
X156472339Y-62352661D01*
X156494866Y-62380110D01*
X156511607Y-62411431D01*
X156521915Y-62445409D01*
X156526000Y-62486890D01*
X156526000Y-63088110D01*
X156521915Y-63129591D01*
X156511607Y-63163569D01*
X156494866Y-63194890D01*
X156472339Y-63222339D01*
X156444890Y-63244866D01*
X156413569Y-63261607D01*
X156379591Y-63271915D01*
X156338110Y-63276000D01*
X155661890Y-63276000D01*
X155620409Y-63271915D01*
X155586431Y-63261607D01*
X155555110Y-63244866D01*
X155527661Y-63222339D01*
X155505134Y-63194890D01*
X155488393Y-63163569D01*
X155478085Y-63129591D01*
X155474000Y-63088110D01*
X155474000Y-62486890D01*
X155478085Y-62445409D01*
X155488393Y-62411431D01*
X155505134Y-62380110D01*
X155527661Y-62352661D01*
X155555110Y-62330134D01*
X155586431Y-62313393D01*
X155620409Y-62303085D01*
X155661890Y-62299000D01*
X156338110Y-62299000D01*
X156379591Y-62303085D01*
X156379591Y-62303085D01*
G37*
G36*
X160501000Y-62451000D02*
G01*
X159499000Y-62451000D01*
X159499000Y-61549000D01*
X160501000Y-61549000D01*
X160501000Y-62451000D01*
X160501000Y-62451000D01*
G37*
G36*
X122493512Y-60183927D02*
G01*
X122642812Y-60213624D01*
X122806784Y-60281544D01*
X122954354Y-60380147D01*
X123079853Y-60505646D01*
X123178456Y-60653216D01*
X123246376Y-60817188D01*
X123281000Y-60991259D01*
X123281000Y-61168741D01*
X123246376Y-61342812D01*
X123178456Y-61506784D01*
X123079853Y-61654354D01*
X122954354Y-61779853D01*
X122806784Y-61878456D01*
X122642812Y-61946376D01*
X122493512Y-61976073D01*
X122468742Y-61981000D01*
X122291258Y-61981000D01*
X122266488Y-61976073D01*
X122117188Y-61946376D01*
X121953216Y-61878456D01*
X121805646Y-61779853D01*
X121680147Y-61654354D01*
X121581544Y-61506784D01*
X121513624Y-61342812D01*
X121479000Y-61168741D01*
X121479000Y-60991259D01*
X121513624Y-60817188D01*
X121581544Y-60653216D01*
X121680147Y-60505646D01*
X121805646Y-60380147D01*
X121953216Y-60281544D01*
X122117188Y-60213624D01*
X122266488Y-60183927D01*
X122291258Y-60179000D01*
X122468742Y-60179000D01*
X122493512Y-60183927D01*
X122493512Y-60183927D01*
G37*
G36*
X137733512Y-60183927D02*
G01*
X137882812Y-60213624D01*
X138046784Y-60281544D01*
X138194354Y-60380147D01*
X138319853Y-60505646D01*
X138418456Y-60653216D01*
X138486376Y-60817188D01*
X138521000Y-60991259D01*
X138521000Y-61168741D01*
X138486376Y-61342812D01*
X138418456Y-61506784D01*
X138319853Y-61654354D01*
X138194354Y-61779853D01*
X138046784Y-61878456D01*
X137882812Y-61946376D01*
X137733512Y-61976073D01*
X137708742Y-61981000D01*
X137531258Y-61981000D01*
X137506488Y-61976073D01*
X137357188Y-61946376D01*
X137193216Y-61878456D01*
X137045646Y-61779853D01*
X136920147Y-61654354D01*
X136821544Y-61506784D01*
X136753624Y-61342812D01*
X136719000Y-61168741D01*
X136719000Y-60991259D01*
X136753624Y-60817188D01*
X136821544Y-60653216D01*
X136920147Y-60505646D01*
X137045646Y-60380147D01*
X137193216Y-60281544D01*
X137357188Y-60213624D01*
X137506488Y-60183927D01*
X137531258Y-60179000D01*
X137708742Y-60179000D01*
X137733512Y-60183927D01*
X137733512Y-60183927D01*
G37*
G36*
X165901000Y-61901000D02*
G01*
X164099000Y-61901000D01*
X164099000Y-60099000D01*
X165901000Y-60099000D01*
X165901000Y-61901000D01*
X165901000Y-61901000D01*
G37*
G36*
X156379591Y-60728085D02*
G01*
X156413569Y-60738393D01*
X156444890Y-60755134D01*
X156472339Y-60777661D01*
X156494866Y-60805110D01*
X156511607Y-60836431D01*
X156521915Y-60870409D01*
X156526000Y-60911890D01*
X156526000Y-61513110D01*
X156521915Y-61554591D01*
X156511607Y-61588569D01*
X156494866Y-61619890D01*
X156472339Y-61647339D01*
X156444890Y-61669866D01*
X156413569Y-61686607D01*
X156379591Y-61696915D01*
X156338110Y-61701000D01*
X155661890Y-61701000D01*
X155620409Y-61696915D01*
X155586431Y-61686607D01*
X155555110Y-61669866D01*
X155527661Y-61647339D01*
X155505134Y-61619890D01*
X155488393Y-61588569D01*
X155478085Y-61554591D01*
X155474000Y-61513110D01*
X155474000Y-60911890D01*
X155478085Y-60870409D01*
X155488393Y-60836431D01*
X155505134Y-60805110D01*
X155527661Y-60777661D01*
X155555110Y-60755134D01*
X155586431Y-60738393D01*
X155620409Y-60728085D01*
X155661890Y-60724000D01*
X156338110Y-60724000D01*
X156379591Y-60728085D01*
X156379591Y-60728085D01*
G37*
G36*
X158501000Y-61501000D02*
G01*
X157499000Y-61501000D01*
X157499000Y-60599000D01*
X158501000Y-60599000D01*
X158501000Y-61501000D01*
X158501000Y-61501000D01*
G37*
G36*
X122493512Y-57643927D02*
G01*
X122642812Y-57673624D01*
X122806784Y-57741544D01*
X122954354Y-57840147D01*
X123079853Y-57965646D01*
X123178456Y-58113216D01*
X123246376Y-58277188D01*
X123281000Y-58451259D01*
X123281000Y-58628741D01*
X123246376Y-58802812D01*
X123178456Y-58966784D01*
X123079853Y-59114354D01*
X122954354Y-59239853D01*
X122806784Y-59338456D01*
X122642812Y-59406376D01*
X122493512Y-59436073D01*
X122468742Y-59441000D01*
X122291258Y-59441000D01*
X122266488Y-59436073D01*
X122117188Y-59406376D01*
X121953216Y-59338456D01*
X121805646Y-59239853D01*
X121680147Y-59114354D01*
X121581544Y-58966784D01*
X121513624Y-58802812D01*
X121479000Y-58628741D01*
X121479000Y-58451259D01*
X121513624Y-58277188D01*
X121581544Y-58113216D01*
X121680147Y-57965646D01*
X121805646Y-57840147D01*
X121953216Y-57741544D01*
X122117188Y-57673624D01*
X122266488Y-57643927D01*
X122291258Y-57639000D01*
X122468742Y-57639000D01*
X122493512Y-57643927D01*
X122493512Y-57643927D01*
G37*
G36*
X137733512Y-57643927D02*
G01*
X137882812Y-57673624D01*
X138046784Y-57741544D01*
X138194354Y-57840147D01*
X138319853Y-57965646D01*
X138418456Y-58113216D01*
X138486376Y-58277188D01*
X138521000Y-58451259D01*
X138521000Y-58628741D01*
X138486376Y-58802812D01*
X138418456Y-58966784D01*
X138319853Y-59114354D01*
X138194354Y-59239853D01*
X138046784Y-59338456D01*
X137882812Y-59406376D01*
X137733512Y-59436073D01*
X137708742Y-59441000D01*
X137531258Y-59441000D01*
X137506488Y-59436073D01*
X137357188Y-59406376D01*
X137193216Y-59338456D01*
X137045646Y-59239853D01*
X136920147Y-59114354D01*
X136821544Y-58966784D01*
X136753624Y-58802812D01*
X136719000Y-58628741D01*
X136719000Y-58451259D01*
X136753624Y-58277188D01*
X136821544Y-58113216D01*
X136920147Y-57965646D01*
X137045646Y-57840147D01*
X137193216Y-57741544D01*
X137357188Y-57673624D01*
X137506488Y-57643927D01*
X137531258Y-57639000D01*
X137708742Y-57639000D01*
X137733512Y-57643927D01*
X137733512Y-57643927D01*
G37*
G36*
X143501000Y-58001000D02*
G01*
X141799000Y-58001000D01*
X141799000Y-51999000D01*
X143501000Y-51999000D01*
X143501000Y-58001000D01*
X143501000Y-58001000D01*
G37*
G36*
X148201000Y-58001000D02*
G01*
X146499000Y-58001000D01*
X146499000Y-51999000D01*
X148201000Y-51999000D01*
X148201000Y-58001000D01*
X148201000Y-58001000D01*
G37*
G36*
X137733512Y-55103927D02*
G01*
X137882812Y-55133624D01*
X138046784Y-55201544D01*
X138194354Y-55300147D01*
X138319853Y-55425646D01*
X138418456Y-55573216D01*
X138486376Y-55737188D01*
X138521000Y-55911259D01*
X138521000Y-56088741D01*
X138486376Y-56262812D01*
X138418456Y-56426784D01*
X138319853Y-56574354D01*
X138194354Y-56699853D01*
X138046784Y-56798456D01*
X137882812Y-56866376D01*
X137733512Y-56896073D01*
X137708742Y-56901000D01*
X137531258Y-56901000D01*
X137506488Y-56896073D01*
X137357188Y-56866376D01*
X137193216Y-56798456D01*
X137045646Y-56699853D01*
X136920147Y-56574354D01*
X136821544Y-56426784D01*
X136753624Y-56262812D01*
X136719000Y-56088741D01*
X136719000Y-55911259D01*
X136753624Y-55737188D01*
X136821544Y-55573216D01*
X136920147Y-55425646D01*
X137045646Y-55300147D01*
X137193216Y-55201544D01*
X137357188Y-55133624D01*
X137506488Y-55103927D01*
X137531258Y-55099000D01*
X137708742Y-55099000D01*
X137733512Y-55103927D01*
X137733512Y-55103927D01*
G37*
G36*
X122493512Y-55103927D02*
G01*
X122642812Y-55133624D01*
X122806784Y-55201544D01*
X122954354Y-55300147D01*
X123079853Y-55425646D01*
X123178456Y-55573216D01*
X123246376Y-55737188D01*
X123281000Y-55911259D01*
X123281000Y-56088741D01*
X123246376Y-56262812D01*
X123178456Y-56426784D01*
X123079853Y-56574354D01*
X122954354Y-56699853D01*
X122806784Y-56798456D01*
X122642812Y-56866376D01*
X122493512Y-56896073D01*
X122468742Y-56901000D01*
X122291258Y-56901000D01*
X122266488Y-56896073D01*
X122117188Y-56866376D01*
X121953216Y-56798456D01*
X121805646Y-56699853D01*
X121680147Y-56574354D01*
X121581544Y-56426784D01*
X121513624Y-56262812D01*
X121479000Y-56088741D01*
X121479000Y-55911259D01*
X121513624Y-55737188D01*
X121581544Y-55573216D01*
X121680147Y-55425646D01*
X121805646Y-55300147D01*
X121953216Y-55201544D01*
X122117188Y-55133624D01*
X122266488Y-55103927D01*
X122291258Y-55099000D01*
X122468742Y-55099000D01*
X122493512Y-55103927D01*
X122493512Y-55103927D01*
G37*
G36*
X160129591Y-53478085D02*
G01*
X160163569Y-53488393D01*
X160194890Y-53505134D01*
X160222339Y-53527661D01*
X160244866Y-53555110D01*
X160261607Y-53586431D01*
X160271915Y-53620409D01*
X160276000Y-53661890D01*
X160276000Y-54338110D01*
X160271915Y-54379591D01*
X160261607Y-54413569D01*
X160244866Y-54444890D01*
X160222339Y-54472339D01*
X160194890Y-54494866D01*
X160163569Y-54511607D01*
X160129591Y-54521915D01*
X160088110Y-54526000D01*
X159486890Y-54526000D01*
X159445409Y-54521915D01*
X159411431Y-54511607D01*
X159380110Y-54494866D01*
X159352661Y-54472339D01*
X159330134Y-54444890D01*
X159313393Y-54413569D01*
X159303085Y-54379591D01*
X159299000Y-54338110D01*
X159299000Y-53661890D01*
X159303085Y-53620409D01*
X159313393Y-53586431D01*
X159330134Y-53555110D01*
X159352661Y-53527661D01*
X159380110Y-53505134D01*
X159411431Y-53488393D01*
X159445409Y-53478085D01*
X159486890Y-53474000D01*
X160088110Y-53474000D01*
X160129591Y-53478085D01*
X160129591Y-53478085D01*
G37*
G36*
X158554591Y-53478085D02*
G01*
X158588569Y-53488393D01*
X158619890Y-53505134D01*
X158647339Y-53527661D01*
X158669866Y-53555110D01*
X158686607Y-53586431D01*
X158696915Y-53620409D01*
X158701000Y-53661890D01*
X158701000Y-54338110D01*
X158696915Y-54379591D01*
X158686607Y-54413569D01*
X158669866Y-54444890D01*
X158647339Y-54472339D01*
X158619890Y-54494866D01*
X158588569Y-54511607D01*
X158554591Y-54521915D01*
X158513110Y-54526000D01*
X157911890Y-54526000D01*
X157870409Y-54521915D01*
X157836431Y-54511607D01*
X157805110Y-54494866D01*
X157777661Y-54472339D01*
X157755134Y-54444890D01*
X157738393Y-54413569D01*
X157728085Y-54379591D01*
X157724000Y-54338110D01*
X157724000Y-53661890D01*
X157728085Y-53620409D01*
X157738393Y-53586431D01*
X157755134Y-53555110D01*
X157777661Y-53527661D01*
X157805110Y-53505134D01*
X157836431Y-53488393D01*
X157870409Y-53478085D01*
X157911890Y-53474000D01*
X158513110Y-53474000D01*
X158554591Y-53478085D01*
X158554591Y-53478085D01*
G37*
G36*
X165110443Y-52725519D02*
G01*
X165176627Y-52732037D01*
X165346466Y-52783557D01*
X165502991Y-52867222D01*
X165538729Y-52896552D01*
X165640186Y-52979814D01*
X165723448Y-53081271D01*
X165752778Y-53117009D01*
X165836443Y-53273534D01*
X165887963Y-53443373D01*
X165905359Y-53620000D01*
X165887963Y-53796627D01*
X165836443Y-53966466D01*
X165752778Y-54122991D01*
X165723448Y-54158729D01*
X165640186Y-54260186D01*
X165559533Y-54326375D01*
X165502991Y-54372778D01*
X165346466Y-54456443D01*
X165176627Y-54507963D01*
X165110443Y-54514481D01*
X165044260Y-54521000D01*
X164955740Y-54521000D01*
X164889557Y-54514481D01*
X164823373Y-54507963D01*
X164653534Y-54456443D01*
X164497009Y-54372778D01*
X164440467Y-54326375D01*
X164359814Y-54260186D01*
X164276552Y-54158729D01*
X164247222Y-54122991D01*
X164163557Y-53966466D01*
X164112037Y-53796627D01*
X164094641Y-53620000D01*
X164112037Y-53443373D01*
X164163557Y-53273534D01*
X164247222Y-53117009D01*
X164276552Y-53081271D01*
X164359814Y-52979814D01*
X164461271Y-52896552D01*
X164497009Y-52867222D01*
X164653534Y-52783557D01*
X164823373Y-52732037D01*
X164889557Y-52725519D01*
X164955740Y-52719000D01*
X165044260Y-52719000D01*
X165110443Y-52725519D01*
X165110443Y-52725519D01*
G37*
G36*
X122493512Y-52563927D02*
G01*
X122642812Y-52593624D01*
X122806784Y-52661544D01*
X122954354Y-52760147D01*
X123079853Y-52885646D01*
X123178456Y-53033216D01*
X123246376Y-53197188D01*
X123281000Y-53371259D01*
X123281000Y-53548741D01*
X123246376Y-53722812D01*
X123178456Y-53886784D01*
X123079853Y-54034354D01*
X122954354Y-54159853D01*
X122806784Y-54258456D01*
X122642812Y-54326376D01*
X122493512Y-54356073D01*
X122468742Y-54361000D01*
X122291258Y-54361000D01*
X122266488Y-54356073D01*
X122117188Y-54326376D01*
X121953216Y-54258456D01*
X121805646Y-54159853D01*
X121680147Y-54034354D01*
X121581544Y-53886784D01*
X121513624Y-53722812D01*
X121479000Y-53548741D01*
X121479000Y-53371259D01*
X121513624Y-53197188D01*
X121581544Y-53033216D01*
X121680147Y-52885646D01*
X121805646Y-52760147D01*
X121953216Y-52661544D01*
X122117188Y-52593624D01*
X122266488Y-52563927D01*
X122291258Y-52559000D01*
X122468742Y-52559000D01*
X122493512Y-52563927D01*
X122493512Y-52563927D01*
G37*
G36*
X137733512Y-52563927D02*
G01*
X137882812Y-52593624D01*
X138046784Y-52661544D01*
X138194354Y-52760147D01*
X138319853Y-52885646D01*
X138418456Y-53033216D01*
X138486376Y-53197188D01*
X138521000Y-53371259D01*
X138521000Y-53548741D01*
X138486376Y-53722812D01*
X138418456Y-53886784D01*
X138319853Y-54034354D01*
X138194354Y-54159853D01*
X138046784Y-54258456D01*
X137882812Y-54326376D01*
X137733512Y-54356073D01*
X137708742Y-54361000D01*
X137531258Y-54361000D01*
X137506488Y-54356073D01*
X137357188Y-54326376D01*
X137193216Y-54258456D01*
X137045646Y-54159853D01*
X136920147Y-54034354D01*
X136821544Y-53886784D01*
X136753624Y-53722812D01*
X136719000Y-53548741D01*
X136719000Y-53371259D01*
X136753624Y-53197188D01*
X136821544Y-53033216D01*
X136920147Y-52885646D01*
X137045646Y-52760147D01*
X137193216Y-52661544D01*
X137357188Y-52593624D01*
X137506488Y-52563927D01*
X137531258Y-52559000D01*
X137708742Y-52559000D01*
X137733512Y-52563927D01*
X137733512Y-52563927D01*
G37*
G36*
X158501000Y-52401000D02*
G01*
X157499000Y-52401000D01*
X157499000Y-51499000D01*
X158501000Y-51499000D01*
X158501000Y-52401000D01*
X158501000Y-52401000D01*
G37*
G36*
X152651000Y-52151000D02*
G01*
X151349000Y-52151000D01*
X151349000Y-51149000D01*
X152651000Y-51149000D01*
X152651000Y-52151000D01*
X152651000Y-52151000D01*
G37*
G36*
X165110442Y-50185518D02*
G01*
X165176627Y-50192037D01*
X165346466Y-50243557D01*
X165502991Y-50327222D01*
X165538729Y-50356552D01*
X165640186Y-50439814D01*
X165710916Y-50526000D01*
X165752778Y-50577009D01*
X165836443Y-50733534D01*
X165887963Y-50903373D01*
X165905359Y-51080000D01*
X165887963Y-51256627D01*
X165836443Y-51426466D01*
X165752778Y-51582991D01*
X165723448Y-51618729D01*
X165640186Y-51720186D01*
X165559533Y-51786375D01*
X165502991Y-51832778D01*
X165346466Y-51916443D01*
X165176627Y-51967963D01*
X165110443Y-51974481D01*
X165044260Y-51981000D01*
X164955740Y-51981000D01*
X164889558Y-51974482D01*
X164823373Y-51967963D01*
X164653534Y-51916443D01*
X164497009Y-51832778D01*
X164440467Y-51786375D01*
X164359814Y-51720186D01*
X164276552Y-51618729D01*
X164247222Y-51582991D01*
X164163557Y-51426466D01*
X164112037Y-51256627D01*
X164094641Y-51080000D01*
X164112037Y-50903373D01*
X164163557Y-50733534D01*
X164247222Y-50577009D01*
X164289084Y-50526000D01*
X164359814Y-50439814D01*
X164461271Y-50356552D01*
X164497009Y-50327222D01*
X164653534Y-50243557D01*
X164823373Y-50192037D01*
X164889558Y-50185518D01*
X164955740Y-50179000D01*
X165044260Y-50179000D01*
X165110442Y-50185518D01*
X165110442Y-50185518D01*
G37*
G36*
X137733512Y-50023927D02*
G01*
X137882812Y-50053624D01*
X138046784Y-50121544D01*
X138194354Y-50220147D01*
X138319853Y-50345646D01*
X138418456Y-50493216D01*
X138486376Y-50657188D01*
X138521000Y-50831259D01*
X138521000Y-51008741D01*
X138486376Y-51182812D01*
X138418456Y-51346784D01*
X138319853Y-51494354D01*
X138194354Y-51619853D01*
X138046784Y-51718456D01*
X137882812Y-51786376D01*
X137733512Y-51816073D01*
X137708742Y-51821000D01*
X137531258Y-51821000D01*
X137506488Y-51816073D01*
X137357188Y-51786376D01*
X137193216Y-51718456D01*
X137045646Y-51619853D01*
X136920147Y-51494354D01*
X136821544Y-51346784D01*
X136753624Y-51182812D01*
X136719000Y-51008741D01*
X136719000Y-50831259D01*
X136753624Y-50657188D01*
X136821544Y-50493216D01*
X136920147Y-50345646D01*
X137045646Y-50220147D01*
X137193216Y-50121544D01*
X137357188Y-50053624D01*
X137506488Y-50023927D01*
X137531258Y-50019000D01*
X137708742Y-50019000D01*
X137733512Y-50023927D01*
X137733512Y-50023927D01*
G37*
G36*
X122493512Y-50023927D02*
G01*
X122642812Y-50053624D01*
X122806784Y-50121544D01*
X122954354Y-50220147D01*
X123079853Y-50345646D01*
X123178456Y-50493216D01*
X123246376Y-50657188D01*
X123281000Y-50831259D01*
X123281000Y-51008741D01*
X123246376Y-51182812D01*
X123178456Y-51346784D01*
X123079853Y-51494354D01*
X122954354Y-51619853D01*
X122806784Y-51718456D01*
X122642812Y-51786376D01*
X122493512Y-51816073D01*
X122468742Y-51821000D01*
X122291258Y-51821000D01*
X122266488Y-51816073D01*
X122117188Y-51786376D01*
X121953216Y-51718456D01*
X121805646Y-51619853D01*
X121680147Y-51494354D01*
X121581544Y-51346784D01*
X121513624Y-51182812D01*
X121479000Y-51008741D01*
X121479000Y-50831259D01*
X121513624Y-50657188D01*
X121581544Y-50493216D01*
X121680147Y-50345646D01*
X121805646Y-50220147D01*
X121953216Y-50121544D01*
X122117188Y-50053624D01*
X122266488Y-50023927D01*
X122291258Y-50019000D01*
X122468742Y-50019000D01*
X122493512Y-50023927D01*
X122493512Y-50023927D01*
G37*
G36*
X160501000Y-51451000D02*
G01*
X159499000Y-51451000D01*
X159499000Y-50549000D01*
X160501000Y-50549000D01*
X160501000Y-51451000D01*
X160501000Y-51451000D01*
G37*
G36*
X144554591Y-49478085D02*
G01*
X144588569Y-49488393D01*
X144619890Y-49505134D01*
X144647339Y-49527661D01*
X144669866Y-49555110D01*
X144686607Y-49586431D01*
X144696915Y-49620409D01*
X144701000Y-49661890D01*
X144701000Y-50338110D01*
X144696915Y-50379591D01*
X144686607Y-50413569D01*
X144669866Y-50444890D01*
X144647339Y-50472339D01*
X144619890Y-50494866D01*
X144588569Y-50511607D01*
X144554591Y-50521915D01*
X144513110Y-50526000D01*
X143911890Y-50526000D01*
X143870409Y-50521915D01*
X143836431Y-50511607D01*
X143805110Y-50494866D01*
X143777661Y-50472339D01*
X143755134Y-50444890D01*
X143738393Y-50413569D01*
X143728085Y-50379591D01*
X143724000Y-50338110D01*
X143724000Y-49661890D01*
X143728085Y-49620409D01*
X143738393Y-49586431D01*
X143755134Y-49555110D01*
X143777661Y-49527661D01*
X143805110Y-49505134D01*
X143836431Y-49488393D01*
X143870409Y-49478085D01*
X143911890Y-49474000D01*
X144513110Y-49474000D01*
X144554591Y-49478085D01*
X144554591Y-49478085D01*
G37*
G36*
X146129591Y-49478085D02*
G01*
X146163569Y-49488393D01*
X146194890Y-49505134D01*
X146222339Y-49527661D01*
X146244866Y-49555110D01*
X146261607Y-49586431D01*
X146271915Y-49620409D01*
X146276000Y-49661890D01*
X146276000Y-50338110D01*
X146271915Y-50379591D01*
X146261607Y-50413569D01*
X146244866Y-50444890D01*
X146222339Y-50472339D01*
X146194890Y-50494866D01*
X146163569Y-50511607D01*
X146129591Y-50521915D01*
X146088110Y-50526000D01*
X145486890Y-50526000D01*
X145445409Y-50521915D01*
X145411431Y-50511607D01*
X145380110Y-50494866D01*
X145352661Y-50472339D01*
X145330134Y-50444890D01*
X145313393Y-50413569D01*
X145303085Y-50379591D01*
X145299000Y-50338110D01*
X145299000Y-49661890D01*
X145303085Y-49620409D01*
X145313393Y-49586431D01*
X145330134Y-49555110D01*
X145352661Y-49527661D01*
X145380110Y-49505134D01*
X145411431Y-49488393D01*
X145445409Y-49478085D01*
X145486890Y-49474000D01*
X146088110Y-49474000D01*
X146129591Y-49478085D01*
X146129591Y-49478085D01*
G37*
G36*
X158501000Y-50501000D02*
G01*
X157499000Y-50501000D01*
X157499000Y-49599000D01*
X158501000Y-49599000D01*
X158501000Y-50501000D01*
X158501000Y-50501000D01*
G37*
G36*
X165110442Y-47645518D02*
G01*
X165176627Y-47652037D01*
X165346466Y-47703557D01*
X165502991Y-47787222D01*
X165538729Y-47816552D01*
X165640186Y-47899814D01*
X165723448Y-48001271D01*
X165752778Y-48037009D01*
X165752779Y-48037011D01*
X165802265Y-48129591D01*
X165836443Y-48193534D01*
X165887963Y-48363373D01*
X165905359Y-48540000D01*
X165887963Y-48716627D01*
X165836443Y-48886466D01*
X165752778Y-49042991D01*
X165723448Y-49078729D01*
X165640186Y-49180186D01*
X165559533Y-49246375D01*
X165502991Y-49292778D01*
X165346466Y-49376443D01*
X165176627Y-49427963D01*
X165110443Y-49434481D01*
X165044260Y-49441000D01*
X164955740Y-49441000D01*
X164889557Y-49434481D01*
X164823373Y-49427963D01*
X164653534Y-49376443D01*
X164497009Y-49292778D01*
X164440467Y-49246375D01*
X164359814Y-49180186D01*
X164276552Y-49078729D01*
X164247222Y-49042991D01*
X164163557Y-48886466D01*
X164112037Y-48716627D01*
X164094641Y-48540000D01*
X164112037Y-48363373D01*
X164163557Y-48193534D01*
X164197736Y-48129591D01*
X164247221Y-48037011D01*
X164247222Y-48037009D01*
X164276552Y-48001271D01*
X164359814Y-47899814D01*
X164461271Y-47816552D01*
X164497009Y-47787222D01*
X164653534Y-47703557D01*
X164823373Y-47652037D01*
X164889557Y-47645519D01*
X164955740Y-47639000D01*
X165044260Y-47639000D01*
X165110442Y-47645518D01*
X165110442Y-47645518D01*
G37*
G36*
X122493512Y-47483927D02*
G01*
X122642812Y-47513624D01*
X122806784Y-47581544D01*
X122954354Y-47680147D01*
X123079853Y-47805646D01*
X123178456Y-47953216D01*
X123246376Y-48117188D01*
X123281000Y-48291259D01*
X123281000Y-48468741D01*
X123246376Y-48642812D01*
X123178456Y-48806784D01*
X123079853Y-48954354D01*
X122954354Y-49079853D01*
X122806784Y-49178456D01*
X122642812Y-49246376D01*
X122493512Y-49276073D01*
X122468742Y-49281000D01*
X122291258Y-49281000D01*
X122266488Y-49276073D01*
X122117188Y-49246376D01*
X121953216Y-49178456D01*
X121805646Y-49079853D01*
X121680147Y-48954354D01*
X121581544Y-48806784D01*
X121513624Y-48642812D01*
X121479000Y-48468741D01*
X121479000Y-48291259D01*
X121513624Y-48117188D01*
X121581544Y-47953216D01*
X121680147Y-47805646D01*
X121805646Y-47680147D01*
X121953216Y-47581544D01*
X122117188Y-47513624D01*
X122266488Y-47483927D01*
X122291258Y-47479000D01*
X122468742Y-47479000D01*
X122493512Y-47483927D01*
X122493512Y-47483927D01*
G37*
G36*
X137733512Y-47483927D02*
G01*
X137882812Y-47513624D01*
X138046784Y-47581544D01*
X138194354Y-47680147D01*
X138319853Y-47805646D01*
X138418456Y-47953216D01*
X138486376Y-48117188D01*
X138521000Y-48291259D01*
X138521000Y-48468741D01*
X138486376Y-48642812D01*
X138418456Y-48806784D01*
X138319853Y-48954354D01*
X138194354Y-49079853D01*
X138046784Y-49178456D01*
X137882812Y-49246376D01*
X137733512Y-49276073D01*
X137708742Y-49281000D01*
X137531258Y-49281000D01*
X137506488Y-49276073D01*
X137357188Y-49246376D01*
X137193216Y-49178456D01*
X137045646Y-49079853D01*
X136920147Y-48954354D01*
X136821544Y-48806784D01*
X136753624Y-48642812D01*
X136719000Y-48468741D01*
X136719000Y-48291259D01*
X136753624Y-48117188D01*
X136821544Y-47953216D01*
X136920147Y-47805646D01*
X137045646Y-47680147D01*
X137193216Y-47581544D01*
X137357188Y-47513624D01*
X137506488Y-47483927D01*
X137531258Y-47479000D01*
X137708742Y-47479000D01*
X137733512Y-47483927D01*
X137733512Y-47483927D01*
G37*
G36*
X152651000Y-48851000D02*
G01*
X151349000Y-48851000D01*
X151349000Y-47849000D01*
X152651000Y-47849000D01*
X152651000Y-48851000D01*
X152651000Y-48851000D01*
G37*
G36*
X158501000Y-48401000D02*
G01*
X157499000Y-48401000D01*
X157499000Y-47499000D01*
X158501000Y-47499000D01*
X158501000Y-48401000D01*
X158501000Y-48401000D01*
G37*
G36*
X144481000Y-48326000D02*
G01*
X143319000Y-48326000D01*
X143319000Y-47574000D01*
X144481000Y-47574000D01*
X144481000Y-48326000D01*
X144481000Y-48326000D01*
G37*
G36*
X146681000Y-48326000D02*
G01*
X145519000Y-48326000D01*
X145519000Y-45674000D01*
X146681000Y-45674000D01*
X146681000Y-48326000D01*
X146681000Y-48326000D01*
G37*
G36*
X156379591Y-47303085D02*
G01*
X156413569Y-47313393D01*
X156444890Y-47330134D01*
X156472339Y-47352661D01*
X156494866Y-47380110D01*
X156511607Y-47411431D01*
X156521915Y-47445409D01*
X156526000Y-47486890D01*
X156526000Y-48088110D01*
X156521915Y-48129591D01*
X156511607Y-48163569D01*
X156494866Y-48194890D01*
X156472339Y-48222339D01*
X156444890Y-48244866D01*
X156413569Y-48261607D01*
X156379591Y-48271915D01*
X156338110Y-48276000D01*
X155661890Y-48276000D01*
X155620409Y-48271915D01*
X155586431Y-48261607D01*
X155555110Y-48244866D01*
X155527661Y-48222339D01*
X155505134Y-48194890D01*
X155488393Y-48163569D01*
X155478085Y-48129591D01*
X155474000Y-48088110D01*
X155474000Y-47486890D01*
X155478085Y-47445409D01*
X155488393Y-47411431D01*
X155505134Y-47380110D01*
X155527661Y-47352661D01*
X155555110Y-47330134D01*
X155586431Y-47313393D01*
X155620409Y-47303085D01*
X155661890Y-47299000D01*
X156338110Y-47299000D01*
X156379591Y-47303085D01*
X156379591Y-47303085D01*
G37*
G36*
X160501000Y-47451000D02*
G01*
X159499000Y-47451000D01*
X159499000Y-46549000D01*
X160501000Y-46549000D01*
X160501000Y-47451000D01*
X160501000Y-47451000D01*
G37*
G36*
X165901000Y-46901000D02*
G01*
X164099000Y-46901000D01*
X164099000Y-45099000D01*
X165901000Y-45099000D01*
X165901000Y-46901000D01*
X165901000Y-46901000D01*
G37*
G36*
X137733512Y-44943927D02*
G01*
X137882812Y-44973624D01*
X138046784Y-45041544D01*
X138194354Y-45140147D01*
X138319853Y-45265646D01*
X138418456Y-45413216D01*
X138486376Y-45577188D01*
X138521000Y-45751259D01*
X138521000Y-45928741D01*
X138486376Y-46102812D01*
X138418456Y-46266784D01*
X138319853Y-46414354D01*
X138194354Y-46539853D01*
X138046784Y-46638456D01*
X137882812Y-46706376D01*
X137733512Y-46736073D01*
X137708742Y-46741000D01*
X137531258Y-46741000D01*
X137506488Y-46736073D01*
X137357188Y-46706376D01*
X137193216Y-46638456D01*
X137045646Y-46539853D01*
X136920147Y-46414354D01*
X136821544Y-46266784D01*
X136753624Y-46102812D01*
X136719000Y-45928741D01*
X136719000Y-45751259D01*
X136753624Y-45577188D01*
X136821544Y-45413216D01*
X136920147Y-45265646D01*
X137045646Y-45140147D01*
X137193216Y-45041544D01*
X137357188Y-44973624D01*
X137506488Y-44943927D01*
X137531258Y-44939000D01*
X137708742Y-44939000D01*
X137733512Y-44943927D01*
X137733512Y-44943927D01*
G37*
G36*
X122493512Y-44943927D02*
G01*
X122642812Y-44973624D01*
X122806784Y-45041544D01*
X122954354Y-45140147D01*
X123079853Y-45265646D01*
X123178456Y-45413216D01*
X123246376Y-45577188D01*
X123281000Y-45751259D01*
X123281000Y-45928741D01*
X123246376Y-46102812D01*
X123178456Y-46266784D01*
X123079853Y-46414354D01*
X122954354Y-46539853D01*
X122806784Y-46638456D01*
X122642812Y-46706376D01*
X122493512Y-46736073D01*
X122468742Y-46741000D01*
X122291258Y-46741000D01*
X122266488Y-46736073D01*
X122117188Y-46706376D01*
X121953216Y-46638456D01*
X121805646Y-46539853D01*
X121680147Y-46414354D01*
X121581544Y-46266784D01*
X121513624Y-46102812D01*
X121479000Y-45928741D01*
X121479000Y-45751259D01*
X121513624Y-45577188D01*
X121581544Y-45413216D01*
X121680147Y-45265646D01*
X121805646Y-45140147D01*
X121953216Y-45041544D01*
X122117188Y-44973624D01*
X122266488Y-44943927D01*
X122291258Y-44939000D01*
X122468742Y-44939000D01*
X122493512Y-44943927D01*
X122493512Y-44943927D01*
G37*
G36*
X156379591Y-45728085D02*
G01*
X156413569Y-45738393D01*
X156444890Y-45755134D01*
X156472339Y-45777661D01*
X156494866Y-45805110D01*
X156511607Y-45836431D01*
X156521915Y-45870409D01*
X156526000Y-45911890D01*
X156526000Y-46513110D01*
X156521915Y-46554591D01*
X156511607Y-46588569D01*
X156494866Y-46619890D01*
X156472339Y-46647339D01*
X156444890Y-46669866D01*
X156413569Y-46686607D01*
X156379591Y-46696915D01*
X156338110Y-46701000D01*
X155661890Y-46701000D01*
X155620409Y-46696915D01*
X155586431Y-46686607D01*
X155555110Y-46669866D01*
X155527661Y-46647339D01*
X155505134Y-46619890D01*
X155488393Y-46588569D01*
X155478085Y-46554591D01*
X155474000Y-46513110D01*
X155474000Y-45911890D01*
X155478085Y-45870409D01*
X155488393Y-45836431D01*
X155505134Y-45805110D01*
X155527661Y-45777661D01*
X155555110Y-45755134D01*
X155586431Y-45738393D01*
X155620409Y-45728085D01*
X155661890Y-45724000D01*
X156338110Y-45724000D01*
X156379591Y-45728085D01*
X156379591Y-45728085D01*
G37*
G36*
X158501000Y-46501000D02*
G01*
X157499000Y-46501000D01*
X157499000Y-45599000D01*
X158501000Y-45599000D01*
X158501000Y-46501000D01*
X158501000Y-46501000D01*
G37*
G36*
X144481000Y-46426000D02*
G01*
X143319000Y-46426000D01*
X143319000Y-45674000D01*
X144481000Y-45674000D01*
X144481000Y-46426000D01*
X144481000Y-46426000D01*
G37*
G36*
X152584468Y-44403565D02*
G01*
X152623138Y-44415296D01*
X152658777Y-44434346D01*
X152690017Y-44459983D01*
X152715654Y-44491223D01*
X152734704Y-44526862D01*
X152746435Y-44565532D01*
X152751000Y-44611888D01*
X152751000Y-45263112D01*
X152746435Y-45309468D01*
X152734704Y-45348138D01*
X152715654Y-45383777D01*
X152690017Y-45415017D01*
X152658777Y-45440654D01*
X152623138Y-45459704D01*
X152584468Y-45471435D01*
X152538112Y-45476000D01*
X151461888Y-45476000D01*
X151415532Y-45471435D01*
X151376862Y-45459704D01*
X151341223Y-45440654D01*
X151309983Y-45415017D01*
X151284346Y-45383777D01*
X151265296Y-45348138D01*
X151253565Y-45309468D01*
X151249000Y-45263112D01*
X151249000Y-44611888D01*
X151253565Y-44565532D01*
X151265296Y-44526862D01*
X151284346Y-44491223D01*
X151309983Y-44459983D01*
X151341223Y-44434346D01*
X151376862Y-44415296D01*
X151415532Y-44403565D01*
X151461888Y-44399000D01*
X152538112Y-44399000D01*
X152584468Y-44403565D01*
X152584468Y-44403565D01*
G37*
G36*
X144379591Y-43303085D02*
G01*
X144413569Y-43313393D01*
X144444890Y-43330134D01*
X144472339Y-43352661D01*
X144494866Y-43380110D01*
X144511607Y-43411431D01*
X144521915Y-43445409D01*
X144526000Y-43486890D01*
X144526000Y-44088110D01*
X144521915Y-44129591D01*
X144511607Y-44163569D01*
X144494866Y-44194890D01*
X144472339Y-44222339D01*
X144444890Y-44244866D01*
X144413569Y-44261607D01*
X144379591Y-44271915D01*
X144338110Y-44276000D01*
X143661890Y-44276000D01*
X143620409Y-44271915D01*
X143586431Y-44261607D01*
X143555110Y-44244866D01*
X143527661Y-44222339D01*
X143505134Y-44194890D01*
X143488393Y-44163569D01*
X143478085Y-44129591D01*
X143474000Y-44088110D01*
X143474000Y-43486890D01*
X143478085Y-43445409D01*
X143488393Y-43411431D01*
X143505134Y-43380110D01*
X143527661Y-43352661D01*
X143555110Y-43330134D01*
X143586431Y-43313393D01*
X143620409Y-43303085D01*
X143661890Y-43299000D01*
X144338110Y-43299000D01*
X144379591Y-43303085D01*
X144379591Y-43303085D01*
G37*
G36*
X146379591Y-43303085D02*
G01*
X146413569Y-43313393D01*
X146444890Y-43330134D01*
X146472339Y-43352661D01*
X146494866Y-43380110D01*
X146511607Y-43411431D01*
X146521915Y-43445409D01*
X146526000Y-43486890D01*
X146526000Y-44088110D01*
X146521915Y-44129591D01*
X146511607Y-44163569D01*
X146494866Y-44194890D01*
X146472339Y-44222339D01*
X146444890Y-44244866D01*
X146413569Y-44261607D01*
X146379591Y-44271915D01*
X146338110Y-44276000D01*
X145661890Y-44276000D01*
X145620409Y-44271915D01*
X145586431Y-44261607D01*
X145555110Y-44244866D01*
X145527661Y-44222339D01*
X145505134Y-44194890D01*
X145488393Y-44163569D01*
X145478085Y-44129591D01*
X145474000Y-44088110D01*
X145474000Y-43486890D01*
X145478085Y-43445409D01*
X145488393Y-43411431D01*
X145505134Y-43380110D01*
X145527661Y-43352661D01*
X145555110Y-43330134D01*
X145586431Y-43313393D01*
X145620409Y-43303085D01*
X145661890Y-43299000D01*
X146338110Y-43299000D01*
X146379591Y-43303085D01*
X146379591Y-43303085D01*
G37*
G36*
X137733512Y-42403927D02*
G01*
X137882812Y-42433624D01*
X138046784Y-42501544D01*
X138194354Y-42600147D01*
X138319853Y-42725646D01*
X138418456Y-42873216D01*
X138486376Y-43037188D01*
X138521000Y-43211259D01*
X138521000Y-43388741D01*
X138486376Y-43562812D01*
X138418456Y-43726784D01*
X138319853Y-43874354D01*
X138194354Y-43999853D01*
X138046784Y-44098456D01*
X137882812Y-44166376D01*
X137739459Y-44194890D01*
X137708742Y-44201000D01*
X137531258Y-44201000D01*
X137500541Y-44194890D01*
X137357188Y-44166376D01*
X137193216Y-44098456D01*
X137045646Y-43999853D01*
X136920147Y-43874354D01*
X136821544Y-43726784D01*
X136753624Y-43562812D01*
X136719000Y-43388741D01*
X136719000Y-43211259D01*
X136753624Y-43037188D01*
X136821544Y-42873216D01*
X136920147Y-42725646D01*
X137045646Y-42600147D01*
X137193216Y-42501544D01*
X137357188Y-42433624D01*
X137506488Y-42403927D01*
X137531258Y-42399000D01*
X137708742Y-42399000D01*
X137733512Y-42403927D01*
X137733512Y-42403927D01*
G37*
G36*
X122493512Y-42403927D02*
G01*
X122642812Y-42433624D01*
X122806784Y-42501544D01*
X122954354Y-42600147D01*
X123079853Y-42725646D01*
X123178456Y-42873216D01*
X123246376Y-43037188D01*
X123281000Y-43211259D01*
X123281000Y-43388741D01*
X123246376Y-43562812D01*
X123178456Y-43726784D01*
X123079853Y-43874354D01*
X122954354Y-43999853D01*
X122806784Y-44098456D01*
X122642812Y-44166376D01*
X122499459Y-44194890D01*
X122468742Y-44201000D01*
X122291258Y-44201000D01*
X122260541Y-44194890D01*
X122117188Y-44166376D01*
X121953216Y-44098456D01*
X121805646Y-43999853D01*
X121680147Y-43874354D01*
X121581544Y-43726784D01*
X121513624Y-43562812D01*
X121479000Y-43388741D01*
X121479000Y-43211259D01*
X121513624Y-43037188D01*
X121581544Y-42873216D01*
X121680147Y-42725646D01*
X121805646Y-42600147D01*
X121953216Y-42501544D01*
X122117188Y-42433624D01*
X122266488Y-42403927D01*
X122291258Y-42399000D01*
X122468742Y-42399000D01*
X122493512Y-42403927D01*
X122493512Y-42403927D01*
G37*
G36*
X152584468Y-42528565D02*
G01*
X152623138Y-42540296D01*
X152658777Y-42559346D01*
X152690017Y-42584983D01*
X152715654Y-42616223D01*
X152734704Y-42651862D01*
X152746435Y-42690532D01*
X152751000Y-42736888D01*
X152751000Y-43388112D01*
X152746435Y-43434468D01*
X152734704Y-43473138D01*
X152715654Y-43508777D01*
X152690017Y-43540017D01*
X152658777Y-43565654D01*
X152623138Y-43584704D01*
X152584468Y-43596435D01*
X152538112Y-43601000D01*
X151461888Y-43601000D01*
X151415532Y-43596435D01*
X151376862Y-43584704D01*
X151341223Y-43565654D01*
X151309983Y-43540017D01*
X151284346Y-43508777D01*
X151265296Y-43473138D01*
X151253565Y-43434468D01*
X151249000Y-43388112D01*
X151249000Y-42736888D01*
X151253565Y-42690532D01*
X151265296Y-42651862D01*
X151284346Y-42616223D01*
X151309983Y-42584983D01*
X151341223Y-42559346D01*
X151376862Y-42540296D01*
X151415532Y-42528565D01*
X151461888Y-42524000D01*
X152538112Y-42524000D01*
X152584468Y-42528565D01*
X152584468Y-42528565D01*
G37*
G36*
X146379591Y-41728085D02*
G01*
X146413569Y-41738393D01*
X146444890Y-41755134D01*
X146472339Y-41777661D01*
X146494866Y-41805110D01*
X146511607Y-41836431D01*
X146521915Y-41870409D01*
X146526000Y-41911890D01*
X146526000Y-42513110D01*
X146521915Y-42554591D01*
X146511607Y-42588569D01*
X146494866Y-42619890D01*
X146472339Y-42647339D01*
X146444890Y-42669866D01*
X146413569Y-42686607D01*
X146379591Y-42696915D01*
X146338110Y-42701000D01*
X145661890Y-42701000D01*
X145620409Y-42696915D01*
X145586431Y-42686607D01*
X145555110Y-42669866D01*
X145527661Y-42647339D01*
X145505134Y-42619890D01*
X145488393Y-42588569D01*
X145478085Y-42554591D01*
X145474000Y-42513110D01*
X145474000Y-41911890D01*
X145478085Y-41870409D01*
X145488393Y-41836431D01*
X145505134Y-41805110D01*
X145527661Y-41777661D01*
X145555110Y-41755134D01*
X145586431Y-41738393D01*
X145620409Y-41728085D01*
X145661890Y-41724000D01*
X146338110Y-41724000D01*
X146379591Y-41728085D01*
X146379591Y-41728085D01*
G37*
G36*
X144379591Y-41728085D02*
G01*
X144413569Y-41738393D01*
X144444890Y-41755134D01*
X144472339Y-41777661D01*
X144494866Y-41805110D01*
X144511607Y-41836431D01*
X144521915Y-41870409D01*
X144526000Y-41911890D01*
X144526000Y-42513110D01*
X144521915Y-42554591D01*
X144511607Y-42588569D01*
X144494866Y-42619890D01*
X144472339Y-42647339D01*
X144444890Y-42669866D01*
X144413569Y-42686607D01*
X144379591Y-42696915D01*
X144338110Y-42701000D01*
X143661890Y-42701000D01*
X143620409Y-42696915D01*
X143586431Y-42686607D01*
X143555110Y-42669866D01*
X143527661Y-42647339D01*
X143505134Y-42619890D01*
X143488393Y-42588569D01*
X143478085Y-42554591D01*
X143474000Y-42513110D01*
X143474000Y-41911890D01*
X143478085Y-41870409D01*
X143488393Y-41836431D01*
X143505134Y-41805110D01*
X143527661Y-41777661D01*
X143555110Y-41755134D01*
X143586431Y-41738393D01*
X143620409Y-41728085D01*
X143661890Y-41724000D01*
X144338110Y-41724000D01*
X144379591Y-41728085D01*
X144379591Y-41728085D01*
G37*
G36*
X137733512Y-39863927D02*
G01*
X137882812Y-39893624D01*
X138046784Y-39961544D01*
X138194354Y-40060147D01*
X138319853Y-40185646D01*
X138418456Y-40333216D01*
X138486376Y-40497188D01*
X138521000Y-40671259D01*
X138521000Y-40848741D01*
X138486376Y-41022812D01*
X138418456Y-41186784D01*
X138319853Y-41334354D01*
X138194354Y-41459853D01*
X138046784Y-41558456D01*
X137882812Y-41626376D01*
X137733512Y-41656073D01*
X137708742Y-41661000D01*
X137531258Y-41661000D01*
X137506488Y-41656073D01*
X137357188Y-41626376D01*
X137193216Y-41558456D01*
X137045646Y-41459853D01*
X136920147Y-41334354D01*
X136821544Y-41186784D01*
X136753624Y-41022812D01*
X136719000Y-40848741D01*
X136719000Y-40671259D01*
X136753624Y-40497188D01*
X136821544Y-40333216D01*
X136920147Y-40185646D01*
X137045646Y-40060147D01*
X137193216Y-39961544D01*
X137357188Y-39893624D01*
X137506488Y-39863927D01*
X137531258Y-39859000D01*
X137708742Y-39859000D01*
X137733512Y-39863927D01*
X137733512Y-39863927D01*
G37*
G36*
X122493512Y-39863927D02*
G01*
X122642812Y-39893624D01*
X122806784Y-39961544D01*
X122954354Y-40060147D01*
X123079853Y-40185646D01*
X123178456Y-40333216D01*
X123246376Y-40497188D01*
X123281000Y-40671259D01*
X123281000Y-40848741D01*
X123246376Y-41022812D01*
X123178456Y-41186784D01*
X123079853Y-41334354D01*
X122954354Y-41459853D01*
X122806784Y-41558456D01*
X122642812Y-41626376D01*
X122493512Y-41656073D01*
X122468742Y-41661000D01*
X122291258Y-41661000D01*
X122266488Y-41656073D01*
X122117188Y-41626376D01*
X121953216Y-41558456D01*
X121805646Y-41459853D01*
X121680147Y-41334354D01*
X121581544Y-41186784D01*
X121513624Y-41022812D01*
X121479000Y-40848741D01*
X121479000Y-40671259D01*
X121513624Y-40497188D01*
X121581544Y-40333216D01*
X121680147Y-40185646D01*
X121805646Y-40060147D01*
X121953216Y-39961544D01*
X122117188Y-39893624D01*
X122266488Y-39863927D01*
X122291258Y-39859000D01*
X122468742Y-39859000D01*
X122493512Y-39863927D01*
X122493512Y-39863927D01*
G37*
G36*
X160129591Y-38478085D02*
G01*
X160163569Y-38488393D01*
X160194890Y-38505134D01*
X160222339Y-38527661D01*
X160244866Y-38555110D01*
X160261607Y-38586431D01*
X160271915Y-38620409D01*
X160276000Y-38661890D01*
X160276000Y-39338110D01*
X160271915Y-39379591D01*
X160261607Y-39413569D01*
X160244866Y-39444890D01*
X160222339Y-39472339D01*
X160194890Y-39494866D01*
X160163569Y-39511607D01*
X160129591Y-39521915D01*
X160088110Y-39526000D01*
X159486890Y-39526000D01*
X159445409Y-39521915D01*
X159411431Y-39511607D01*
X159380110Y-39494866D01*
X159352661Y-39472339D01*
X159330134Y-39444890D01*
X159313393Y-39413569D01*
X159303085Y-39379591D01*
X159299000Y-39338110D01*
X159299000Y-38661890D01*
X159303085Y-38620409D01*
X159313393Y-38586431D01*
X159330134Y-38555110D01*
X159352661Y-38527661D01*
X159380110Y-38505134D01*
X159411431Y-38488393D01*
X159445409Y-38478085D01*
X159486890Y-38474000D01*
X160088110Y-38474000D01*
X160129591Y-38478085D01*
X160129591Y-38478085D01*
G37*
G36*
X158554591Y-38478085D02*
G01*
X158588569Y-38488393D01*
X158619890Y-38505134D01*
X158647339Y-38527661D01*
X158669866Y-38555110D01*
X158686607Y-38586431D01*
X158696915Y-38620409D01*
X158701000Y-38661890D01*
X158701000Y-39338110D01*
X158696915Y-39379591D01*
X158686607Y-39413569D01*
X158669866Y-39444890D01*
X158647339Y-39472339D01*
X158619890Y-39494866D01*
X158588569Y-39511607D01*
X158554591Y-39521915D01*
X158513110Y-39526000D01*
X157911890Y-39526000D01*
X157870409Y-39521915D01*
X157836431Y-39511607D01*
X157805110Y-39494866D01*
X157777661Y-39472339D01*
X157755134Y-39444890D01*
X157738393Y-39413569D01*
X157728085Y-39379591D01*
X157724000Y-39338110D01*
X157724000Y-38661890D01*
X157728085Y-38620409D01*
X157738393Y-38586431D01*
X157755134Y-38555110D01*
X157777661Y-38527661D01*
X157805110Y-38505134D01*
X157836431Y-38488393D01*
X157870409Y-38478085D01*
X157911890Y-38474000D01*
X158513110Y-38474000D01*
X158554591Y-38478085D01*
X158554591Y-38478085D01*
G37*
G36*
X165110442Y-37725518D02*
G01*
X165176627Y-37732037D01*
X165346466Y-37783557D01*
X165502991Y-37867222D01*
X165538729Y-37896552D01*
X165640186Y-37979814D01*
X165723448Y-38081271D01*
X165752778Y-38117009D01*
X165836443Y-38273534D01*
X165887963Y-38443373D01*
X165905359Y-38620000D01*
X165887963Y-38796627D01*
X165836443Y-38966466D01*
X165752778Y-39122991D01*
X165723448Y-39158729D01*
X165640186Y-39260186D01*
X165555846Y-39329401D01*
X165502991Y-39372778D01*
X165346466Y-39456443D01*
X165176627Y-39507963D01*
X165110442Y-39514482D01*
X165044260Y-39521000D01*
X164955740Y-39521000D01*
X164889557Y-39514481D01*
X164823373Y-39507963D01*
X164653534Y-39456443D01*
X164497009Y-39372778D01*
X164444154Y-39329401D01*
X164359814Y-39260186D01*
X164276552Y-39158729D01*
X164247222Y-39122991D01*
X164163557Y-38966466D01*
X164112037Y-38796627D01*
X164094641Y-38620000D01*
X164112037Y-38443373D01*
X164163557Y-38273534D01*
X164247222Y-38117009D01*
X164276552Y-38081271D01*
X164359814Y-37979814D01*
X164461271Y-37896552D01*
X164497009Y-37867222D01*
X164653534Y-37783557D01*
X164823373Y-37732037D01*
X164889558Y-37725518D01*
X164955740Y-37719000D01*
X165044260Y-37719000D01*
X165110442Y-37725518D01*
X165110442Y-37725518D01*
G37*
G36*
X122968578Y-37327048D02*
G01*
X123041249Y-37349093D01*
X123108225Y-37384892D01*
X123166930Y-37433070D01*
X123215108Y-37491775D01*
X123250907Y-37558751D01*
X123272952Y-37631422D01*
X123281000Y-37713140D01*
X123281000Y-38726860D01*
X123272952Y-38808578D01*
X123250907Y-38881249D01*
X123215108Y-38948225D01*
X123166930Y-39006930D01*
X123108225Y-39055108D01*
X123041249Y-39090907D01*
X122968578Y-39112952D01*
X122886860Y-39121000D01*
X121873140Y-39121000D01*
X121791422Y-39112952D01*
X121718751Y-39090907D01*
X121651775Y-39055108D01*
X121593070Y-39006930D01*
X121544892Y-38948225D01*
X121509093Y-38881249D01*
X121487048Y-38808578D01*
X121479000Y-38726860D01*
X121479000Y-37713140D01*
X121487048Y-37631422D01*
X121509093Y-37558751D01*
X121544892Y-37491775D01*
X121593070Y-37433070D01*
X121651775Y-37384892D01*
X121718751Y-37349093D01*
X121791422Y-37327048D01*
X121873140Y-37319000D01*
X122886860Y-37319000D01*
X122968578Y-37327048D01*
X122968578Y-37327048D01*
G37*
G36*
X138208578Y-37327048D02*
G01*
X138281249Y-37349093D01*
X138348225Y-37384892D01*
X138406930Y-37433070D01*
X138455108Y-37491775D01*
X138490907Y-37558751D01*
X138512952Y-37631422D01*
X138521000Y-37713140D01*
X138521000Y-38726860D01*
X138512952Y-38808578D01*
X138490907Y-38881249D01*
X138455108Y-38948225D01*
X138406930Y-39006930D01*
X138348225Y-39055108D01*
X138281249Y-39090907D01*
X138208578Y-39112952D01*
X138126860Y-39121000D01*
X137113140Y-39121000D01*
X137031422Y-39112952D01*
X136958751Y-39090907D01*
X136891775Y-39055108D01*
X136833070Y-39006930D01*
X136784892Y-38948225D01*
X136749093Y-38881249D01*
X136727048Y-38808578D01*
X136719000Y-38726860D01*
X136719000Y-37713140D01*
X136727048Y-37631422D01*
X136749093Y-37558751D01*
X136784892Y-37491775D01*
X136833070Y-37433070D01*
X136891775Y-37384892D01*
X136958751Y-37349093D01*
X137031422Y-37327048D01*
X137113140Y-37319000D01*
X138126860Y-37319000D01*
X138208578Y-37327048D01*
X138208578Y-37327048D01*
G37*
G36*
X158501000Y-37401000D02*
G01*
X157499000Y-37401000D01*
X157499000Y-36499000D01*
X158501000Y-36499000D01*
X158501000Y-37401000D01*
X158501000Y-37401000D01*
G37*
G36*
X165110443Y-35185519D02*
G01*
X165176627Y-35192037D01*
X165346466Y-35243557D01*
X165502991Y-35327222D01*
X165538729Y-35356552D01*
X165640186Y-35439814D01*
X165690399Y-35501000D01*
X165752778Y-35577009D01*
X165836443Y-35733534D01*
X165887963Y-35903373D01*
X165905359Y-36080000D01*
X165887963Y-36256627D01*
X165836443Y-36426466D01*
X165752778Y-36582991D01*
X165723448Y-36618729D01*
X165640186Y-36720186D01*
X165538729Y-36803448D01*
X165502991Y-36832778D01*
X165346466Y-36916443D01*
X165176627Y-36967963D01*
X165110442Y-36974482D01*
X165044260Y-36981000D01*
X164955740Y-36981000D01*
X164889557Y-36974481D01*
X164823373Y-36967963D01*
X164653534Y-36916443D01*
X164497009Y-36832778D01*
X164461271Y-36803448D01*
X164359814Y-36720186D01*
X164276552Y-36618729D01*
X164247222Y-36582991D01*
X164163557Y-36426466D01*
X164112037Y-36256627D01*
X164094641Y-36080000D01*
X164112037Y-35903373D01*
X164163557Y-35733534D01*
X164247222Y-35577009D01*
X164309601Y-35501000D01*
X164359814Y-35439814D01*
X164461271Y-35356552D01*
X164497009Y-35327222D01*
X164653534Y-35243557D01*
X164823373Y-35192037D01*
X164889557Y-35185519D01*
X164955740Y-35179000D01*
X165044260Y-35179000D01*
X165110443Y-35185519D01*
X165110443Y-35185519D01*
G37*
G36*
X160501000Y-36451000D02*
G01*
X159499000Y-36451000D01*
X159499000Y-35549000D01*
X160501000Y-35549000D01*
X160501000Y-36451000D01*
X160501000Y-36451000D01*
G37*
G36*
X158501000Y-35501000D02*
G01*
X157499000Y-35501000D01*
X157499000Y-34599000D01*
X158501000Y-34599000D01*
X158501000Y-35501000D01*
X158501000Y-35501000D01*
G37*
G36*
X165110442Y-32645518D02*
G01*
X165176627Y-32652037D01*
X165346466Y-32703557D01*
X165502991Y-32787222D01*
X165538729Y-32816552D01*
X165640186Y-32899814D01*
X165723448Y-33001271D01*
X165752778Y-33037009D01*
X165752779Y-33037011D01*
X165802265Y-33129591D01*
X165836443Y-33193534D01*
X165887963Y-33363373D01*
X165905359Y-33540000D01*
X165887963Y-33716627D01*
X165836443Y-33886466D01*
X165752778Y-34042991D01*
X165723448Y-34078729D01*
X165640186Y-34180186D01*
X165538729Y-34263448D01*
X165502991Y-34292778D01*
X165346466Y-34376443D01*
X165176627Y-34427963D01*
X165110443Y-34434481D01*
X165044260Y-34441000D01*
X164955740Y-34441000D01*
X164889557Y-34434481D01*
X164823373Y-34427963D01*
X164653534Y-34376443D01*
X164497009Y-34292778D01*
X164461271Y-34263448D01*
X164359814Y-34180186D01*
X164276552Y-34078729D01*
X164247222Y-34042991D01*
X164163557Y-33886466D01*
X164112037Y-33716627D01*
X164094641Y-33540000D01*
X164112037Y-33363373D01*
X164163557Y-33193534D01*
X164197736Y-33129591D01*
X164247221Y-33037011D01*
X164247222Y-33037009D01*
X164276552Y-33001271D01*
X164359814Y-32899814D01*
X164461271Y-32816552D01*
X164497009Y-32787222D01*
X164653534Y-32703557D01*
X164823373Y-32652037D01*
X164889558Y-32645518D01*
X164955740Y-32639000D01*
X165044260Y-32639000D01*
X165110442Y-32645518D01*
X165110442Y-32645518D01*
G37*
G36*
X158501000Y-33401000D02*
G01*
X157499000Y-33401000D01*
X157499000Y-32499000D01*
X158501000Y-32499000D01*
X158501000Y-33401000D01*
X158501000Y-33401000D01*
G37*
G36*
X156379591Y-32303085D02*
G01*
X156413569Y-32313393D01*
X156444890Y-32330134D01*
X156472339Y-32352661D01*
X156494866Y-32380110D01*
X156511607Y-32411431D01*
X156521915Y-32445409D01*
X156526000Y-32486890D01*
X156526000Y-33088110D01*
X156521915Y-33129591D01*
X156511607Y-33163569D01*
X156494866Y-33194890D01*
X156472339Y-33222339D01*
X156444890Y-33244866D01*
X156413569Y-33261607D01*
X156379591Y-33271915D01*
X156338110Y-33276000D01*
X155661890Y-33276000D01*
X155620409Y-33271915D01*
X155586431Y-33261607D01*
X155555110Y-33244866D01*
X155527661Y-33222339D01*
X155505134Y-33194890D01*
X155488393Y-33163569D01*
X155478085Y-33129591D01*
X155474000Y-33088110D01*
X155474000Y-32486890D01*
X155478085Y-32445409D01*
X155488393Y-32411431D01*
X155505134Y-32380110D01*
X155527661Y-32352661D01*
X155555110Y-32330134D01*
X155586431Y-32313393D01*
X155620409Y-32303085D01*
X155661890Y-32299000D01*
X156338110Y-32299000D01*
X156379591Y-32303085D01*
X156379591Y-32303085D01*
G37*
G36*
X160501000Y-32451000D02*
G01*
X159499000Y-32451000D01*
X159499000Y-31549000D01*
X160501000Y-31549000D01*
X160501000Y-32451000D01*
X160501000Y-32451000D01*
G37*
G36*
X165901000Y-31901000D02*
G01*
X164099000Y-31901000D01*
X164099000Y-30099000D01*
X165901000Y-30099000D01*
X165901000Y-31901000D01*
X165901000Y-31901000D01*
G37*
G36*
X156379591Y-30728085D02*
G01*
X156413569Y-30738393D01*
X156444890Y-30755134D01*
X156472339Y-30777661D01*
X156494866Y-30805110D01*
X156511607Y-30836431D01*
X156521915Y-30870409D01*
X156526000Y-30911890D01*
X156526000Y-31513110D01*
X156521915Y-31554591D01*
X156511607Y-31588569D01*
X156494866Y-31619890D01*
X156472339Y-31647339D01*
X156444890Y-31669866D01*
X156413569Y-31686607D01*
X156379591Y-31696915D01*
X156338110Y-31701000D01*
X155661890Y-31701000D01*
X155620409Y-31696915D01*
X155586431Y-31686607D01*
X155555110Y-31669866D01*
X155527661Y-31647339D01*
X155505134Y-31619890D01*
X155488393Y-31588569D01*
X155478085Y-31554591D01*
X155474000Y-31513110D01*
X155474000Y-30911890D01*
X155478085Y-30870409D01*
X155488393Y-30836431D01*
X155505134Y-30805110D01*
X155527661Y-30777661D01*
X155555110Y-30755134D01*
X155586431Y-30738393D01*
X155620409Y-30728085D01*
X155661890Y-30724000D01*
X156338110Y-30724000D01*
X156379591Y-30728085D01*
X156379591Y-30728085D01*
G37*
G36*
X158501000Y-31501000D02*
G01*
X157499000Y-31501000D01*
X157499000Y-30599000D01*
X158501000Y-30599000D01*
X158501000Y-31501000D01*
X158501000Y-31501000D01*
G37*
M02*
