G04 #@! TF.GenerationSoftware,KiCad,Pcbnew,(5.1.0)-1*
G04 #@! TF.CreationDate,2019-09-26T00:11:47-07:00*
G04 #@! TF.ProjectId,design,64657369-676e-42e6-9b69-6361645f7063,rev?*
G04 #@! TF.SameCoordinates,Original*
G04 #@! TF.FileFunction,Copper,L2,Bot*
G04 #@! TF.FilePolarity,Positive*
%FSLAX46Y46*%
G04 Gerber Fmt 4.6, Leading zero omitted, Abs format (unit mm)*
G04 Created by KiCad (PCBNEW (5.1.0)-1) date 2019-09-26 00:11:47*
%MOMM*%
%LPD*%
G04 APERTURE LIST*
%ADD10C,0.100000*%
%ADD11C,1.700000*%
%ADD12R,1.700000X1.700000*%
%ADD13O,1.700000X1.700000*%
%ADD14C,0.800000*%
%ADD15C,1.200000*%
%ADD16C,0.250000*%
%ADD17C,0.500000*%
%ADD18C,0.254000*%
G04 APERTURE END LIST*
D10*
G36*
X122846657Y-37372046D02*
G01*
X122887913Y-37378166D01*
X122928371Y-37388300D01*
X122967640Y-37402351D01*
X123005344Y-37420183D01*
X123041117Y-37441625D01*
X123074617Y-37466471D01*
X123105520Y-37494480D01*
X123133529Y-37525383D01*
X123158375Y-37558883D01*
X123179817Y-37594656D01*
X123197649Y-37632360D01*
X123211700Y-37671629D01*
X123221834Y-37712087D01*
X123227954Y-37753343D01*
X123230000Y-37795000D01*
X123230000Y-38645000D01*
X123227954Y-38686657D01*
X123221834Y-38727913D01*
X123211700Y-38768371D01*
X123197649Y-38807640D01*
X123179817Y-38845344D01*
X123158375Y-38881117D01*
X123133529Y-38914617D01*
X123105520Y-38945520D01*
X123074617Y-38973529D01*
X123041117Y-38998375D01*
X123005344Y-39019817D01*
X122967640Y-39037649D01*
X122928371Y-39051700D01*
X122887913Y-39061834D01*
X122846657Y-39067954D01*
X122805000Y-39070000D01*
X121955000Y-39070000D01*
X121913343Y-39067954D01*
X121872087Y-39061834D01*
X121831629Y-39051700D01*
X121792360Y-39037649D01*
X121754656Y-39019817D01*
X121718883Y-38998375D01*
X121685383Y-38973529D01*
X121654480Y-38945520D01*
X121626471Y-38914617D01*
X121601625Y-38881117D01*
X121580183Y-38845344D01*
X121562351Y-38807640D01*
X121548300Y-38768371D01*
X121538166Y-38727913D01*
X121532046Y-38686657D01*
X121530000Y-38645000D01*
X121530000Y-37795000D01*
X121532046Y-37753343D01*
X121538166Y-37712087D01*
X121548300Y-37671629D01*
X121562351Y-37632360D01*
X121580183Y-37594656D01*
X121601625Y-37558883D01*
X121626471Y-37525383D01*
X121654480Y-37494480D01*
X121685383Y-37466471D01*
X121718883Y-37441625D01*
X121754656Y-37420183D01*
X121792360Y-37402351D01*
X121831629Y-37388300D01*
X121872087Y-37378166D01*
X121913343Y-37372046D01*
X121955000Y-37370000D01*
X122805000Y-37370000D01*
X122846657Y-37372046D01*
X122846657Y-37372046D01*
G37*
D11*
X122380000Y-38220000D03*
X122380000Y-40760000D03*
X122380000Y-43300000D03*
X122380000Y-45840000D03*
X122380000Y-48380000D03*
X122380000Y-50920000D03*
X122380000Y-53460000D03*
X122380000Y-56000000D03*
X122380000Y-58540000D03*
X122380000Y-61080000D03*
X122380000Y-63620000D03*
X122380000Y-66160000D03*
X122380000Y-68700000D03*
X122380000Y-71240000D03*
X122380000Y-73780000D03*
D10*
G36*
X138086657Y-37372046D02*
G01*
X138127913Y-37378166D01*
X138168371Y-37388300D01*
X138207640Y-37402351D01*
X138245344Y-37420183D01*
X138281117Y-37441625D01*
X138314617Y-37466471D01*
X138345520Y-37494480D01*
X138373529Y-37525383D01*
X138398375Y-37558883D01*
X138419817Y-37594656D01*
X138437649Y-37632360D01*
X138451700Y-37671629D01*
X138461834Y-37712087D01*
X138467954Y-37753343D01*
X138470000Y-37795000D01*
X138470000Y-38645000D01*
X138467954Y-38686657D01*
X138461834Y-38727913D01*
X138451700Y-38768371D01*
X138437649Y-38807640D01*
X138419817Y-38845344D01*
X138398375Y-38881117D01*
X138373529Y-38914617D01*
X138345520Y-38945520D01*
X138314617Y-38973529D01*
X138281117Y-38998375D01*
X138245344Y-39019817D01*
X138207640Y-39037649D01*
X138168371Y-39051700D01*
X138127913Y-39061834D01*
X138086657Y-39067954D01*
X138045000Y-39070000D01*
X137195000Y-39070000D01*
X137153343Y-39067954D01*
X137112087Y-39061834D01*
X137071629Y-39051700D01*
X137032360Y-39037649D01*
X136994656Y-39019817D01*
X136958883Y-38998375D01*
X136925383Y-38973529D01*
X136894480Y-38945520D01*
X136866471Y-38914617D01*
X136841625Y-38881117D01*
X136820183Y-38845344D01*
X136802351Y-38807640D01*
X136788300Y-38768371D01*
X136778166Y-38727913D01*
X136772046Y-38686657D01*
X136770000Y-38645000D01*
X136770000Y-37795000D01*
X136772046Y-37753343D01*
X136778166Y-37712087D01*
X136788300Y-37671629D01*
X136802351Y-37632360D01*
X136820183Y-37594656D01*
X136841625Y-37558883D01*
X136866471Y-37525383D01*
X136894480Y-37494480D01*
X136925383Y-37466471D01*
X136958883Y-37441625D01*
X136994656Y-37420183D01*
X137032360Y-37402351D01*
X137071629Y-37388300D01*
X137112087Y-37378166D01*
X137153343Y-37372046D01*
X137195000Y-37370000D01*
X138045000Y-37370000D01*
X138086657Y-37372046D01*
X138086657Y-37372046D01*
G37*
D11*
X137620000Y-38220000D03*
X137620000Y-40760000D03*
X137620000Y-43300000D03*
X137620000Y-45840000D03*
X137620000Y-48380000D03*
X137620000Y-50920000D03*
X137620000Y-53460000D03*
X137620000Y-56000000D03*
X137620000Y-58540000D03*
X137620000Y-61080000D03*
X137620000Y-63620000D03*
X137620000Y-66160000D03*
X137620000Y-68700000D03*
X137620000Y-71240000D03*
X137620000Y-73780000D03*
D12*
X146000000Y-84000000D03*
D13*
X148540000Y-84000000D03*
X165000000Y-38620000D03*
X165000000Y-36080000D03*
X165000000Y-33540000D03*
D12*
X165000000Y-31000000D03*
X165000000Y-46000000D03*
D13*
X165000000Y-48540000D03*
X165000000Y-51080000D03*
X165000000Y-53620000D03*
X165000000Y-68620000D03*
X165000000Y-66080000D03*
X165000000Y-63540000D03*
D12*
X165000000Y-61000000D03*
X165000000Y-76000000D03*
D13*
X165000000Y-78540000D03*
X165000000Y-81080000D03*
X165000000Y-83620000D03*
D14*
X156449953Y-36949953D03*
X156449953Y-51949953D03*
X156449953Y-66949953D03*
X156449953Y-81949953D03*
D15*
X151000000Y-66000000D03*
D14*
X147635000Y-77135000D03*
X131500000Y-83000000D03*
X161000000Y-54000000D03*
X156518769Y-35037538D03*
X156518769Y-65037538D03*
X161000000Y-39000000D03*
X161000000Y-84000000D03*
X156518769Y-50037538D03*
X161000000Y-69000000D03*
D15*
X156000000Y-49000000D03*
X156000000Y-64000000D03*
X156000000Y-79000000D03*
D14*
X156518769Y-80037538D03*
D15*
X156000000Y-33989990D03*
X156000008Y-43000000D03*
D14*
X146365000Y-77135000D03*
X150000000Y-73000000D03*
X126950000Y-83450000D03*
X133000000Y-80000000D03*
X157000000Y-54000000D03*
X157000000Y-39000000D03*
X157000000Y-69000000D03*
X157000000Y-84000000D03*
X155000000Y-71000000D03*
D16*
X158000000Y-36000000D02*
X161000000Y-39000000D01*
X124000000Y-49300000D02*
X124000000Y-48000000D01*
X122380000Y-50920000D02*
X124000000Y-49300000D01*
X124000000Y-48000000D02*
X138000000Y-34000000D01*
X138000000Y-34000000D02*
X153000000Y-34000000D01*
X153000000Y-34000000D02*
X155000000Y-36000000D01*
X155000000Y-36000000D02*
X158000000Y-36000000D01*
X160500000Y-68500000D02*
X161000000Y-69000000D01*
X160000000Y-68000000D02*
X160500000Y-68500000D01*
X141950002Y-68000000D02*
X160000000Y-68000000D01*
X138975001Y-65024999D02*
X141950002Y-68000000D01*
X126324999Y-65024999D02*
X138975001Y-65024999D01*
X122380000Y-61080000D02*
X126324999Y-65024999D01*
D17*
X156481231Y-35000000D02*
X156518769Y-35037538D01*
D16*
X155037538Y-35037538D02*
X156518769Y-35037538D01*
X153000000Y-33000000D02*
X155037538Y-35037538D01*
X138000000Y-33000000D02*
X153000000Y-33000000D01*
X122380000Y-48380000D02*
X122620000Y-48380000D01*
X122620000Y-48380000D02*
X138000000Y-33000000D01*
X126324999Y-67564999D02*
X122380000Y-63620000D01*
X138564999Y-67564999D02*
X126324999Y-67564999D01*
X140000000Y-69000000D02*
X138564999Y-67564999D01*
X156518769Y-80037538D02*
X155727736Y-80037538D01*
X155000000Y-79309802D02*
X155000000Y-78000000D01*
X155000000Y-78000000D02*
X156500000Y-76500000D01*
X156500000Y-76500000D02*
X156500000Y-70500000D01*
X155000000Y-69000000D02*
X140000000Y-69000000D01*
X155727736Y-80037538D02*
X155000000Y-79309802D01*
X156500000Y-70500000D02*
X155000000Y-69000000D01*
X122380000Y-53460000D02*
X125000000Y-50840000D01*
X125000000Y-50840000D02*
X125000000Y-48000000D01*
X125000000Y-48000000D02*
X138000000Y-35000000D01*
X138000000Y-35000000D02*
X153000000Y-35000000D01*
X153000000Y-35000000D02*
X155000000Y-37000000D01*
X155000000Y-49309802D02*
X155690198Y-50000000D01*
X155000000Y-37000000D02*
X155000000Y-49309802D01*
X156481231Y-50000000D02*
X156518769Y-50037538D01*
X155690198Y-50000000D02*
X156481231Y-50000000D01*
D17*
X162000000Y-73000000D02*
X156000000Y-79000000D01*
X156000000Y-64000000D02*
X162000000Y-64000000D01*
X162000000Y-64000000D02*
X162000000Y-73000000D01*
X156000000Y-49000000D02*
X162000000Y-49000000D01*
X162000000Y-46000000D02*
X162000000Y-49000000D01*
X162000000Y-49000000D02*
X162000000Y-64000000D01*
X162000000Y-38801198D02*
X157188792Y-33989990D01*
X157188792Y-33989990D02*
X156000000Y-33989990D01*
X156000008Y-43000000D02*
X162000000Y-43000000D01*
X162000000Y-46000000D02*
X162000000Y-43000000D01*
X162000000Y-43000000D02*
X162000000Y-38801198D01*
X150000000Y-73500000D02*
X150000000Y-73000000D01*
X146365000Y-77135000D02*
X150000000Y-73500000D01*
D16*
X154556307Y-67000000D02*
X156518769Y-65037538D01*
X143000000Y-67000000D02*
X154556307Y-67000000D01*
X138484999Y-62484999D02*
X143000000Y-67000000D01*
X122380000Y-58540000D02*
X126324999Y-62484999D01*
X126324999Y-62484999D02*
X138484999Y-62484999D01*
X158000000Y-81000000D02*
X161000000Y-84000000D01*
X156000000Y-81000000D02*
X158000000Y-81000000D01*
X126220000Y-70000000D02*
X155000000Y-70000000D01*
X122380000Y-66160000D02*
X126220000Y-70000000D01*
X154500000Y-79500000D02*
X156000000Y-81000000D01*
X155000000Y-70000000D02*
X156000000Y-71000000D01*
X156000000Y-71000000D02*
X156000000Y-76000000D01*
X156000000Y-76000000D02*
X154500000Y-77500000D01*
X154500000Y-77500000D02*
X154500000Y-79500000D01*
D17*
X133000000Y-75860000D02*
X137620000Y-71240000D01*
X133000000Y-80000000D02*
X133000000Y-75860000D01*
X137620000Y-71240000D02*
X154760000Y-71240000D01*
X154760000Y-71240000D02*
X155000000Y-71000000D01*
X130400000Y-80000000D02*
X133000000Y-80000000D01*
X126950000Y-83450000D02*
X130400000Y-80000000D01*
D16*
X122380000Y-56000000D02*
X126000000Y-52380000D01*
X126000000Y-47985894D02*
X137985894Y-36000000D01*
X126000000Y-52380000D02*
X126000000Y-47985894D01*
X137985894Y-36000000D02*
X153000000Y-36000000D01*
X153000000Y-36000000D02*
X154000000Y-37000000D01*
X154000000Y-37000000D02*
X154000000Y-49000000D01*
X158264952Y-51264952D02*
X161000000Y-54000000D01*
X156264952Y-51264952D02*
X158264952Y-51264952D01*
X154000000Y-49000000D02*
X156264952Y-51264952D01*
D18*
G36*
X165309229Y-29438267D02*
G01*
X165606688Y-29528075D01*
X165881028Y-29673945D01*
X166121813Y-29870325D01*
X166319873Y-30109736D01*
X166467654Y-30383053D01*
X166559535Y-30679872D01*
X166594000Y-31007782D01*
X166594001Y-83980136D01*
X166561733Y-84309230D01*
X166471926Y-84606684D01*
X166326056Y-84881025D01*
X166129675Y-85121813D01*
X165890265Y-85319871D01*
X165616948Y-85467654D01*
X165320128Y-85559535D01*
X164992218Y-85594000D01*
X122019854Y-85594000D01*
X121690770Y-85561733D01*
X121393316Y-85471926D01*
X121118975Y-85326056D01*
X120878187Y-85129675D01*
X120680129Y-84890265D01*
X120532346Y-84616948D01*
X120440465Y-84320128D01*
X120406000Y-83992218D01*
X120406000Y-73658757D01*
X121149000Y-73658757D01*
X121149000Y-73901243D01*
X121196307Y-74139069D01*
X121289102Y-74363097D01*
X121423820Y-74564717D01*
X121595283Y-74736180D01*
X121796903Y-74870898D01*
X122020931Y-74963693D01*
X122258757Y-75011000D01*
X122501243Y-75011000D01*
X122739069Y-74963693D01*
X122963097Y-74870898D01*
X123164717Y-74736180D01*
X123336180Y-74564717D01*
X123470898Y-74363097D01*
X123563693Y-74139069D01*
X123611000Y-73901243D01*
X123611000Y-73658757D01*
X123563693Y-73420931D01*
X123470898Y-73196903D01*
X123336180Y-72995283D01*
X123164717Y-72823820D01*
X122963097Y-72689102D01*
X122739069Y-72596307D01*
X122501243Y-72549000D01*
X122258757Y-72549000D01*
X122020931Y-72596307D01*
X121796903Y-72689102D01*
X121595283Y-72823820D01*
X121423820Y-72995283D01*
X121289102Y-73196903D01*
X121196307Y-73420931D01*
X121149000Y-73658757D01*
X120406000Y-73658757D01*
X120406000Y-71118757D01*
X121149000Y-71118757D01*
X121149000Y-71361243D01*
X121196307Y-71599069D01*
X121289102Y-71823097D01*
X121423820Y-72024717D01*
X121595283Y-72196180D01*
X121796903Y-72330898D01*
X122020931Y-72423693D01*
X122258757Y-72471000D01*
X122501243Y-72471000D01*
X122739069Y-72423693D01*
X122963097Y-72330898D01*
X123164717Y-72196180D01*
X123336180Y-72024717D01*
X123470898Y-71823097D01*
X123563693Y-71599069D01*
X123611000Y-71361243D01*
X123611000Y-71118757D01*
X123563693Y-70880931D01*
X123470898Y-70656903D01*
X123336180Y-70455283D01*
X123164717Y-70283820D01*
X122963097Y-70149102D01*
X122739069Y-70056307D01*
X122501243Y-70009000D01*
X122258757Y-70009000D01*
X122020931Y-70056307D01*
X121796903Y-70149102D01*
X121595283Y-70283820D01*
X121423820Y-70455283D01*
X121289102Y-70656903D01*
X121196307Y-70880931D01*
X121149000Y-71118757D01*
X120406000Y-71118757D01*
X120406000Y-68578757D01*
X121149000Y-68578757D01*
X121149000Y-68821243D01*
X121196307Y-69059069D01*
X121289102Y-69283097D01*
X121423820Y-69484717D01*
X121595283Y-69656180D01*
X121796903Y-69790898D01*
X122020931Y-69883693D01*
X122258757Y-69931000D01*
X122501243Y-69931000D01*
X122739069Y-69883693D01*
X122963097Y-69790898D01*
X123164717Y-69656180D01*
X123336180Y-69484717D01*
X123470898Y-69283097D01*
X123563693Y-69059069D01*
X123611000Y-68821243D01*
X123611000Y-68578757D01*
X123563693Y-68340931D01*
X123470898Y-68116903D01*
X123336180Y-67915283D01*
X123164717Y-67743820D01*
X122963097Y-67609102D01*
X122739069Y-67516307D01*
X122501243Y-67469000D01*
X122258757Y-67469000D01*
X122020931Y-67516307D01*
X121796903Y-67609102D01*
X121595283Y-67743820D01*
X121423820Y-67915283D01*
X121289102Y-68116903D01*
X121196307Y-68340931D01*
X121149000Y-68578757D01*
X120406000Y-68578757D01*
X120406000Y-48258757D01*
X121149000Y-48258757D01*
X121149000Y-48501243D01*
X121196307Y-48739069D01*
X121289102Y-48963097D01*
X121423820Y-49164717D01*
X121595283Y-49336180D01*
X121796903Y-49470898D01*
X122020931Y-49563693D01*
X122258757Y-49611000D01*
X122501243Y-49611000D01*
X122739069Y-49563693D01*
X122963097Y-49470898D01*
X123164717Y-49336180D01*
X123336180Y-49164717D01*
X123470898Y-48963097D01*
X123494000Y-48907323D01*
X123494000Y-49090408D01*
X122816167Y-49768242D01*
X122739069Y-49736307D01*
X122501243Y-49689000D01*
X122258757Y-49689000D01*
X122020931Y-49736307D01*
X121796903Y-49829102D01*
X121595283Y-49963820D01*
X121423820Y-50135283D01*
X121289102Y-50336903D01*
X121196307Y-50560931D01*
X121149000Y-50798757D01*
X121149000Y-51041243D01*
X121196307Y-51279069D01*
X121289102Y-51503097D01*
X121423820Y-51704717D01*
X121595283Y-51876180D01*
X121796903Y-52010898D01*
X122020931Y-52103693D01*
X122258757Y-52151000D01*
X122501243Y-52151000D01*
X122739069Y-52103693D01*
X122963097Y-52010898D01*
X123164717Y-51876180D01*
X123336180Y-51704717D01*
X123470898Y-51503097D01*
X123563693Y-51279069D01*
X123611000Y-51041243D01*
X123611000Y-50798757D01*
X123563693Y-50560931D01*
X123531758Y-50483833D01*
X124340220Y-49675372D01*
X124359527Y-49659527D01*
X124422759Y-49582479D01*
X124469745Y-49494575D01*
X124494001Y-49414613D01*
X124494000Y-50630408D01*
X122816167Y-52308242D01*
X122739069Y-52276307D01*
X122501243Y-52229000D01*
X122258757Y-52229000D01*
X122020931Y-52276307D01*
X121796903Y-52369102D01*
X121595283Y-52503820D01*
X121423820Y-52675283D01*
X121289102Y-52876903D01*
X121196307Y-53100931D01*
X121149000Y-53338757D01*
X121149000Y-53581243D01*
X121196307Y-53819069D01*
X121289102Y-54043097D01*
X121423820Y-54244717D01*
X121595283Y-54416180D01*
X121796903Y-54550898D01*
X122020931Y-54643693D01*
X122258757Y-54691000D01*
X122501243Y-54691000D01*
X122739069Y-54643693D01*
X122963097Y-54550898D01*
X123164717Y-54416180D01*
X123336180Y-54244717D01*
X123470898Y-54043097D01*
X123563693Y-53819069D01*
X123611000Y-53581243D01*
X123611000Y-53338757D01*
X123563693Y-53100931D01*
X123531758Y-53023833D01*
X125340220Y-51215372D01*
X125359527Y-51199527D01*
X125422759Y-51122479D01*
X125469745Y-51034575D01*
X125494000Y-50954614D01*
X125494000Y-52170408D01*
X122816167Y-54848242D01*
X122739069Y-54816307D01*
X122501243Y-54769000D01*
X122258757Y-54769000D01*
X122020931Y-54816307D01*
X121796903Y-54909102D01*
X121595283Y-55043820D01*
X121423820Y-55215283D01*
X121289102Y-55416903D01*
X121196307Y-55640931D01*
X121149000Y-55878757D01*
X121149000Y-56121243D01*
X121196307Y-56359069D01*
X121289102Y-56583097D01*
X121423820Y-56784717D01*
X121595283Y-56956180D01*
X121796903Y-57090898D01*
X122020931Y-57183693D01*
X122258757Y-57231000D01*
X122501243Y-57231000D01*
X122739069Y-57183693D01*
X122963097Y-57090898D01*
X123164717Y-56956180D01*
X123336180Y-56784717D01*
X123470898Y-56583097D01*
X123563693Y-56359069D01*
X123611000Y-56121243D01*
X123611000Y-55878757D01*
X136389000Y-55878757D01*
X136389000Y-56121243D01*
X136436307Y-56359069D01*
X136529102Y-56583097D01*
X136663820Y-56784717D01*
X136835283Y-56956180D01*
X137036903Y-57090898D01*
X137260931Y-57183693D01*
X137498757Y-57231000D01*
X137741243Y-57231000D01*
X137979069Y-57183693D01*
X138203097Y-57090898D01*
X138404717Y-56956180D01*
X138576180Y-56784717D01*
X138710898Y-56583097D01*
X138803693Y-56359069D01*
X138851000Y-56121243D01*
X138851000Y-55878757D01*
X138803693Y-55640931D01*
X138710898Y-55416903D01*
X138576180Y-55215283D01*
X138404717Y-55043820D01*
X138203097Y-54909102D01*
X137979069Y-54816307D01*
X137741243Y-54769000D01*
X137498757Y-54769000D01*
X137260931Y-54816307D01*
X137036903Y-54909102D01*
X136835283Y-55043820D01*
X136663820Y-55215283D01*
X136529102Y-55416903D01*
X136436307Y-55640931D01*
X136389000Y-55878757D01*
X123611000Y-55878757D01*
X123563693Y-55640931D01*
X123531758Y-55563833D01*
X125756834Y-53338757D01*
X136389000Y-53338757D01*
X136389000Y-53581243D01*
X136436307Y-53819069D01*
X136529102Y-54043097D01*
X136663820Y-54244717D01*
X136835283Y-54416180D01*
X137036903Y-54550898D01*
X137260931Y-54643693D01*
X137498757Y-54691000D01*
X137741243Y-54691000D01*
X137979069Y-54643693D01*
X138203097Y-54550898D01*
X138404717Y-54416180D01*
X138576180Y-54244717D01*
X138710898Y-54043097D01*
X138760611Y-53923078D01*
X156219000Y-53923078D01*
X156219000Y-54076922D01*
X156249013Y-54227809D01*
X156307887Y-54369942D01*
X156393358Y-54497859D01*
X156502141Y-54606642D01*
X156630058Y-54692113D01*
X156772191Y-54750987D01*
X156923078Y-54781000D01*
X157076922Y-54781000D01*
X157227809Y-54750987D01*
X157369942Y-54692113D01*
X157497859Y-54606642D01*
X157606642Y-54497859D01*
X157692113Y-54369942D01*
X157750987Y-54227809D01*
X157781000Y-54076922D01*
X157781000Y-53923078D01*
X157750987Y-53772191D01*
X157692113Y-53630058D01*
X157606642Y-53502141D01*
X157497859Y-53393358D01*
X157369942Y-53307887D01*
X157227809Y-53249013D01*
X157076922Y-53219000D01*
X156923078Y-53219000D01*
X156772191Y-53249013D01*
X156630058Y-53307887D01*
X156502141Y-53393358D01*
X156393358Y-53502141D01*
X156307887Y-53630058D01*
X156249013Y-53772191D01*
X156219000Y-53923078D01*
X138760611Y-53923078D01*
X138803693Y-53819069D01*
X138851000Y-53581243D01*
X138851000Y-53338757D01*
X138803693Y-53100931D01*
X138710898Y-52876903D01*
X138576180Y-52675283D01*
X138404717Y-52503820D01*
X138203097Y-52369102D01*
X137979069Y-52276307D01*
X137741243Y-52229000D01*
X137498757Y-52229000D01*
X137260931Y-52276307D01*
X137036903Y-52369102D01*
X136835283Y-52503820D01*
X136663820Y-52675283D01*
X136529102Y-52876903D01*
X136436307Y-53100931D01*
X136389000Y-53338757D01*
X125756834Y-53338757D01*
X126340220Y-52755372D01*
X126359527Y-52739527D01*
X126422759Y-52662479D01*
X126469745Y-52574575D01*
X126469745Y-52574574D01*
X126498678Y-52479194D01*
X126499652Y-52469306D01*
X126506000Y-52404854D01*
X126506000Y-52404847D01*
X126508447Y-52380001D01*
X126506000Y-52355155D01*
X126506000Y-50798757D01*
X136389000Y-50798757D01*
X136389000Y-51041243D01*
X136436307Y-51279069D01*
X136529102Y-51503097D01*
X136663820Y-51704717D01*
X136835283Y-51876180D01*
X137036903Y-52010898D01*
X137260931Y-52103693D01*
X137498757Y-52151000D01*
X137741243Y-52151000D01*
X137979069Y-52103693D01*
X138203097Y-52010898D01*
X138404717Y-51876180D01*
X138576180Y-51704717D01*
X138710898Y-51503097D01*
X138803693Y-51279069D01*
X138851000Y-51041243D01*
X138851000Y-50798757D01*
X138803693Y-50560931D01*
X138710898Y-50336903D01*
X138576180Y-50135283D01*
X138404717Y-49963820D01*
X138203097Y-49829102D01*
X137979069Y-49736307D01*
X137741243Y-49689000D01*
X137498757Y-49689000D01*
X137260931Y-49736307D01*
X137036903Y-49829102D01*
X136835283Y-49963820D01*
X136663820Y-50135283D01*
X136529102Y-50336903D01*
X136436307Y-50560931D01*
X136389000Y-50798757D01*
X126506000Y-50798757D01*
X126506000Y-48258757D01*
X136389000Y-48258757D01*
X136389000Y-48501243D01*
X136436307Y-48739069D01*
X136529102Y-48963097D01*
X136663820Y-49164717D01*
X136835283Y-49336180D01*
X137036903Y-49470898D01*
X137260931Y-49563693D01*
X137498757Y-49611000D01*
X137741243Y-49611000D01*
X137979069Y-49563693D01*
X138203097Y-49470898D01*
X138404717Y-49336180D01*
X138576180Y-49164717D01*
X138710898Y-48963097D01*
X138803693Y-48739069D01*
X138851000Y-48501243D01*
X138851000Y-48258757D01*
X138803693Y-48020931D01*
X138710898Y-47796903D01*
X138576180Y-47595283D01*
X138404717Y-47423820D01*
X138203097Y-47289102D01*
X137979069Y-47196307D01*
X137741243Y-47149000D01*
X137498757Y-47149000D01*
X137260931Y-47196307D01*
X137036903Y-47289102D01*
X136835283Y-47423820D01*
X136663820Y-47595283D01*
X136529102Y-47796903D01*
X136436307Y-48020931D01*
X136389000Y-48258757D01*
X126506000Y-48258757D01*
X126506000Y-48195485D01*
X128982728Y-45718757D01*
X136389000Y-45718757D01*
X136389000Y-45961243D01*
X136436307Y-46199069D01*
X136529102Y-46423097D01*
X136663820Y-46624717D01*
X136835283Y-46796180D01*
X137036903Y-46930898D01*
X137260931Y-47023693D01*
X137498757Y-47071000D01*
X137741243Y-47071000D01*
X137979069Y-47023693D01*
X138203097Y-46930898D01*
X138404717Y-46796180D01*
X138576180Y-46624717D01*
X138710898Y-46423097D01*
X138803693Y-46199069D01*
X138851000Y-45961243D01*
X138851000Y-45718757D01*
X138803693Y-45480931D01*
X138710898Y-45256903D01*
X138576180Y-45055283D01*
X138404717Y-44883820D01*
X138203097Y-44749102D01*
X137979069Y-44656307D01*
X137741243Y-44609000D01*
X137498757Y-44609000D01*
X137260931Y-44656307D01*
X137036903Y-44749102D01*
X136835283Y-44883820D01*
X136663820Y-45055283D01*
X136529102Y-45256903D01*
X136436307Y-45480931D01*
X136389000Y-45718757D01*
X128982728Y-45718757D01*
X131522728Y-43178757D01*
X136389000Y-43178757D01*
X136389000Y-43421243D01*
X136436307Y-43659069D01*
X136529102Y-43883097D01*
X136663820Y-44084717D01*
X136835283Y-44256180D01*
X137036903Y-44390898D01*
X137260931Y-44483693D01*
X137498757Y-44531000D01*
X137741243Y-44531000D01*
X137979069Y-44483693D01*
X138203097Y-44390898D01*
X138404717Y-44256180D01*
X138576180Y-44084717D01*
X138710898Y-43883097D01*
X138803693Y-43659069D01*
X138851000Y-43421243D01*
X138851000Y-43178757D01*
X138803693Y-42940931D01*
X138710898Y-42716903D01*
X138576180Y-42515283D01*
X138404717Y-42343820D01*
X138203097Y-42209102D01*
X137979069Y-42116307D01*
X137741243Y-42069000D01*
X137498757Y-42069000D01*
X137260931Y-42116307D01*
X137036903Y-42209102D01*
X136835283Y-42343820D01*
X136663820Y-42515283D01*
X136529102Y-42716903D01*
X136436307Y-42940931D01*
X136389000Y-43178757D01*
X131522728Y-43178757D01*
X133049385Y-41652100D01*
X136907505Y-41652100D01*
X136999523Y-41830078D01*
X137220207Y-41930566D01*
X137456255Y-41986069D01*
X137698596Y-41994456D01*
X137937917Y-41955402D01*
X138165020Y-41870411D01*
X138240477Y-41830078D01*
X138332495Y-41652100D01*
X137620000Y-40939605D01*
X136907505Y-41652100D01*
X133049385Y-41652100D01*
X133862889Y-40838596D01*
X136385544Y-40838596D01*
X136424598Y-41077917D01*
X136509589Y-41305020D01*
X136549922Y-41380477D01*
X136727900Y-41472495D01*
X137440395Y-40760000D01*
X137799605Y-40760000D01*
X138512100Y-41472495D01*
X138690078Y-41380477D01*
X138790566Y-41159793D01*
X138846069Y-40923745D01*
X138854456Y-40681404D01*
X138815402Y-40442083D01*
X138730411Y-40214980D01*
X138690078Y-40139523D01*
X138512100Y-40047505D01*
X137799605Y-40760000D01*
X137440395Y-40760000D01*
X136727900Y-40047505D01*
X136549922Y-40139523D01*
X136449434Y-40360207D01*
X136393931Y-40596255D01*
X136385544Y-40838596D01*
X133862889Y-40838596D01*
X134833585Y-39867900D01*
X136907505Y-39867900D01*
X137620000Y-40580395D01*
X138332495Y-39867900D01*
X138240477Y-39689922D01*
X138019793Y-39589434D01*
X137783745Y-39533931D01*
X137541404Y-39525544D01*
X137302083Y-39564598D01*
X137074980Y-39649589D01*
X136999523Y-39689922D01*
X136907505Y-39867900D01*
X134833585Y-39867900D01*
X136387157Y-38314329D01*
X136387157Y-38645000D01*
X136402679Y-38802602D01*
X136448650Y-38954148D01*
X136523303Y-39093814D01*
X136623769Y-39216231D01*
X136746186Y-39316697D01*
X136885852Y-39391350D01*
X137037398Y-39437321D01*
X137195000Y-39452843D01*
X138045000Y-39452843D01*
X138202602Y-39437321D01*
X138354148Y-39391350D01*
X138493814Y-39316697D01*
X138616231Y-39216231D01*
X138716697Y-39093814D01*
X138791350Y-38954148D01*
X138837321Y-38802602D01*
X138852843Y-38645000D01*
X138852843Y-37795000D01*
X138837321Y-37637398D01*
X138791350Y-37485852D01*
X138716697Y-37346186D01*
X138616231Y-37223769D01*
X138493814Y-37123303D01*
X138354148Y-37048650D01*
X138202602Y-37002679D01*
X138045000Y-36987157D01*
X137714329Y-36987157D01*
X138195486Y-36506000D01*
X152790409Y-36506000D01*
X153494000Y-37209592D01*
X153494001Y-48975144D01*
X153491553Y-49000000D01*
X153501322Y-49099192D01*
X153530255Y-49194574D01*
X153538827Y-49210610D01*
X153577242Y-49282479D01*
X153640474Y-49359527D01*
X153659781Y-49375372D01*
X155889580Y-51605172D01*
X155905425Y-51624479D01*
X155982473Y-51687711D01*
X156070377Y-51734697D01*
X156165759Y-51763630D01*
X156264952Y-51773400D01*
X156289806Y-51770952D01*
X158055361Y-51770952D01*
X160219000Y-53934592D01*
X160219000Y-54076922D01*
X160249013Y-54227809D01*
X160307887Y-54369942D01*
X160393358Y-54497859D01*
X160502141Y-54606642D01*
X160630058Y-54692113D01*
X160772191Y-54750987D01*
X160923078Y-54781000D01*
X161076922Y-54781000D01*
X161227809Y-54750987D01*
X161369000Y-54692503D01*
X161369001Y-63369000D01*
X156756344Y-63369000D01*
X156625351Y-63238007D01*
X156464678Y-63130649D01*
X156286147Y-63056699D01*
X156096620Y-63019000D01*
X155903380Y-63019000D01*
X155713853Y-63056699D01*
X155535322Y-63130649D01*
X155374649Y-63238007D01*
X155238007Y-63374649D01*
X155130649Y-63535322D01*
X155056699Y-63713853D01*
X155019000Y-63903380D01*
X155019000Y-64096620D01*
X155056699Y-64286147D01*
X155130649Y-64464678D01*
X155238007Y-64625351D01*
X155374649Y-64761993D01*
X155535322Y-64869351D01*
X155713853Y-64943301D01*
X155740172Y-64948536D01*
X155737769Y-64960616D01*
X155737769Y-65102946D01*
X154346716Y-66494000D01*
X143209592Y-66494000D01*
X138860375Y-62144784D01*
X138844526Y-62125472D01*
X138767478Y-62062240D01*
X138679574Y-62015254D01*
X138584192Y-61986321D01*
X138509853Y-61978999D01*
X138509845Y-61978999D01*
X138484999Y-61976552D01*
X138462089Y-61978808D01*
X138576180Y-61864717D01*
X138710898Y-61663097D01*
X138803693Y-61439069D01*
X138851000Y-61201243D01*
X138851000Y-60958757D01*
X138803693Y-60720931D01*
X138710898Y-60496903D01*
X138576180Y-60295283D01*
X138404717Y-60123820D01*
X138203097Y-59989102D01*
X137979069Y-59896307D01*
X137741243Y-59849000D01*
X137498757Y-59849000D01*
X137260931Y-59896307D01*
X137036903Y-59989102D01*
X136835283Y-60123820D01*
X136663820Y-60295283D01*
X136529102Y-60496903D01*
X136436307Y-60720931D01*
X136389000Y-60958757D01*
X136389000Y-61201243D01*
X136436307Y-61439069D01*
X136529102Y-61663097D01*
X136663820Y-61864717D01*
X136778102Y-61978999D01*
X126534591Y-61978999D01*
X123531758Y-58976167D01*
X123563693Y-58899069D01*
X123611000Y-58661243D01*
X123611000Y-58418757D01*
X136389000Y-58418757D01*
X136389000Y-58661243D01*
X136436307Y-58899069D01*
X136529102Y-59123097D01*
X136663820Y-59324717D01*
X136835283Y-59496180D01*
X137036903Y-59630898D01*
X137260931Y-59723693D01*
X137498757Y-59771000D01*
X137741243Y-59771000D01*
X137979069Y-59723693D01*
X138203097Y-59630898D01*
X138404717Y-59496180D01*
X138576180Y-59324717D01*
X138710898Y-59123097D01*
X138803693Y-58899069D01*
X138851000Y-58661243D01*
X138851000Y-58418757D01*
X138803693Y-58180931D01*
X138710898Y-57956903D01*
X138576180Y-57755283D01*
X138404717Y-57583820D01*
X138203097Y-57449102D01*
X137979069Y-57356307D01*
X137741243Y-57309000D01*
X137498757Y-57309000D01*
X137260931Y-57356307D01*
X137036903Y-57449102D01*
X136835283Y-57583820D01*
X136663820Y-57755283D01*
X136529102Y-57956903D01*
X136436307Y-58180931D01*
X136389000Y-58418757D01*
X123611000Y-58418757D01*
X123563693Y-58180931D01*
X123470898Y-57956903D01*
X123336180Y-57755283D01*
X123164717Y-57583820D01*
X122963097Y-57449102D01*
X122739069Y-57356307D01*
X122501243Y-57309000D01*
X122258757Y-57309000D01*
X122020931Y-57356307D01*
X121796903Y-57449102D01*
X121595283Y-57583820D01*
X121423820Y-57755283D01*
X121289102Y-57956903D01*
X121196307Y-58180931D01*
X121149000Y-58418757D01*
X121149000Y-58661243D01*
X121196307Y-58899069D01*
X121289102Y-59123097D01*
X121423820Y-59324717D01*
X121595283Y-59496180D01*
X121796903Y-59630898D01*
X122020931Y-59723693D01*
X122258757Y-59771000D01*
X122501243Y-59771000D01*
X122739069Y-59723693D01*
X122816167Y-59691758D01*
X125949627Y-62825219D01*
X125965472Y-62844526D01*
X126042520Y-62907758D01*
X126130424Y-62954744D01*
X126225805Y-62983677D01*
X126235693Y-62984651D01*
X126300145Y-62990999D01*
X126300152Y-62990999D01*
X126324998Y-62993446D01*
X126349844Y-62990999D01*
X136559774Y-62990999D01*
X136529102Y-63036903D01*
X136436307Y-63260931D01*
X136389000Y-63498757D01*
X136389000Y-63741243D01*
X136436307Y-63979069D01*
X136529102Y-64203097D01*
X136663820Y-64404717D01*
X136778102Y-64518999D01*
X126534591Y-64518999D01*
X123531758Y-61516167D01*
X123563693Y-61439069D01*
X123611000Y-61201243D01*
X123611000Y-60958757D01*
X123563693Y-60720931D01*
X123470898Y-60496903D01*
X123336180Y-60295283D01*
X123164717Y-60123820D01*
X122963097Y-59989102D01*
X122739069Y-59896307D01*
X122501243Y-59849000D01*
X122258757Y-59849000D01*
X122020931Y-59896307D01*
X121796903Y-59989102D01*
X121595283Y-60123820D01*
X121423820Y-60295283D01*
X121289102Y-60496903D01*
X121196307Y-60720931D01*
X121149000Y-60958757D01*
X121149000Y-61201243D01*
X121196307Y-61439069D01*
X121289102Y-61663097D01*
X121423820Y-61864717D01*
X121595283Y-62036180D01*
X121796903Y-62170898D01*
X122020931Y-62263693D01*
X122258757Y-62311000D01*
X122501243Y-62311000D01*
X122739069Y-62263693D01*
X122816167Y-62231758D01*
X125949627Y-65365219D01*
X125965472Y-65384526D01*
X126042520Y-65447758D01*
X126130424Y-65494744D01*
X126225805Y-65523677D01*
X126235693Y-65524651D01*
X126300145Y-65530999D01*
X126300152Y-65530999D01*
X126324998Y-65533446D01*
X126349844Y-65530999D01*
X136559774Y-65530999D01*
X136529102Y-65576903D01*
X136436307Y-65800931D01*
X136389000Y-66038757D01*
X136389000Y-66281243D01*
X136436307Y-66519069D01*
X136529102Y-66743097D01*
X136663820Y-66944717D01*
X136778102Y-67058999D01*
X126534591Y-67058999D01*
X123531758Y-64056167D01*
X123563693Y-63979069D01*
X123611000Y-63741243D01*
X123611000Y-63498757D01*
X123563693Y-63260931D01*
X123470898Y-63036903D01*
X123336180Y-62835283D01*
X123164717Y-62663820D01*
X122963097Y-62529102D01*
X122739069Y-62436307D01*
X122501243Y-62389000D01*
X122258757Y-62389000D01*
X122020931Y-62436307D01*
X121796903Y-62529102D01*
X121595283Y-62663820D01*
X121423820Y-62835283D01*
X121289102Y-63036903D01*
X121196307Y-63260931D01*
X121149000Y-63498757D01*
X121149000Y-63741243D01*
X121196307Y-63979069D01*
X121289102Y-64203097D01*
X121423820Y-64404717D01*
X121595283Y-64576180D01*
X121796903Y-64710898D01*
X122020931Y-64803693D01*
X122258757Y-64851000D01*
X122501243Y-64851000D01*
X122739069Y-64803693D01*
X122816167Y-64771758D01*
X125949627Y-67905219D01*
X125965472Y-67924526D01*
X126042520Y-67987758D01*
X126122026Y-68030255D01*
X126130424Y-68034744D01*
X126225805Y-68063677D01*
X126235693Y-68064651D01*
X126300145Y-68070999D01*
X126300152Y-68070999D01*
X126324998Y-68073446D01*
X126349844Y-68070999D01*
X136559774Y-68070999D01*
X136529102Y-68116903D01*
X136436307Y-68340931D01*
X136389000Y-68578757D01*
X136389000Y-68821243D01*
X136436307Y-69059069D01*
X136529102Y-69283097D01*
X136663820Y-69484717D01*
X136673103Y-69494000D01*
X126429592Y-69494000D01*
X123531758Y-66596167D01*
X123563693Y-66519069D01*
X123611000Y-66281243D01*
X123611000Y-66038757D01*
X123563693Y-65800931D01*
X123470898Y-65576903D01*
X123336180Y-65375283D01*
X123164717Y-65203820D01*
X122963097Y-65069102D01*
X122739069Y-64976307D01*
X122501243Y-64929000D01*
X122258757Y-64929000D01*
X122020931Y-64976307D01*
X121796903Y-65069102D01*
X121595283Y-65203820D01*
X121423820Y-65375283D01*
X121289102Y-65576903D01*
X121196307Y-65800931D01*
X121149000Y-66038757D01*
X121149000Y-66281243D01*
X121196307Y-66519069D01*
X121289102Y-66743097D01*
X121423820Y-66944717D01*
X121595283Y-67116180D01*
X121796903Y-67250898D01*
X122020931Y-67343693D01*
X122258757Y-67391000D01*
X122501243Y-67391000D01*
X122739069Y-67343693D01*
X122816167Y-67311758D01*
X125844628Y-70340220D01*
X125860473Y-70359527D01*
X125937521Y-70422759D01*
X126025425Y-70469745D01*
X126120807Y-70498678D01*
X126195146Y-70506000D01*
X126195153Y-70506000D01*
X126219999Y-70508447D01*
X126244845Y-70506000D01*
X136629932Y-70506000D01*
X136529102Y-70656903D01*
X136436307Y-70880931D01*
X136389000Y-71118757D01*
X136389000Y-71361243D01*
X136425067Y-71542564D01*
X132575733Y-75391899D01*
X132551658Y-75411657D01*
X132531900Y-75435732D01*
X132531897Y-75435735D01*
X132472804Y-75507740D01*
X132414211Y-75617359D01*
X132378130Y-75736303D01*
X132365948Y-75860000D01*
X132369001Y-75891000D01*
X132369000Y-79369000D01*
X130430990Y-79369000D01*
X130400000Y-79365948D01*
X130369009Y-79369000D01*
X130369002Y-79369000D01*
X130276302Y-79378130D01*
X130157358Y-79414211D01*
X130047739Y-79472804D01*
X129976172Y-79531538D01*
X129951657Y-79551657D01*
X129931899Y-79575732D01*
X126830079Y-82677553D01*
X126722191Y-82699013D01*
X126580058Y-82757887D01*
X126452141Y-82843358D01*
X126343358Y-82952141D01*
X126257887Y-83080058D01*
X126199013Y-83222191D01*
X126169000Y-83373078D01*
X126169000Y-83526922D01*
X126199013Y-83677809D01*
X126257887Y-83819942D01*
X126343358Y-83947859D01*
X126452141Y-84056642D01*
X126580058Y-84142113D01*
X126722191Y-84200987D01*
X126873078Y-84231000D01*
X127026922Y-84231000D01*
X127177809Y-84200987D01*
X127319942Y-84142113D01*
X127447859Y-84056642D01*
X127556642Y-83947859D01*
X127642113Y-83819942D01*
X127700987Y-83677809D01*
X127722447Y-83569921D01*
X128142368Y-83150000D01*
X144767157Y-83150000D01*
X144767157Y-84850000D01*
X144774513Y-84924689D01*
X144796299Y-84996508D01*
X144831678Y-85062696D01*
X144879289Y-85120711D01*
X144937304Y-85168322D01*
X145003492Y-85203701D01*
X145075311Y-85225487D01*
X145150000Y-85232843D01*
X146850000Y-85232843D01*
X146924689Y-85225487D01*
X146996508Y-85203701D01*
X147062696Y-85168322D01*
X147120711Y-85120711D01*
X147168322Y-85062696D01*
X147203701Y-84996508D01*
X147225487Y-84924689D01*
X147232843Y-84850000D01*
X147232843Y-84000000D01*
X147303044Y-84000000D01*
X147326812Y-84241318D01*
X147397202Y-84473363D01*
X147511509Y-84687216D01*
X147665340Y-84874660D01*
X147852784Y-85028491D01*
X148066637Y-85142798D01*
X148298682Y-85213188D01*
X148479528Y-85231000D01*
X148600472Y-85231000D01*
X148781318Y-85213188D01*
X149013363Y-85142798D01*
X149227216Y-85028491D01*
X149414660Y-84874660D01*
X149568491Y-84687216D01*
X149682798Y-84473363D01*
X149753188Y-84241318D01*
X149776956Y-84000000D01*
X149769380Y-83923078D01*
X156219000Y-83923078D01*
X156219000Y-84076922D01*
X156249013Y-84227809D01*
X156307887Y-84369942D01*
X156393358Y-84497859D01*
X156502141Y-84606642D01*
X156630058Y-84692113D01*
X156772191Y-84750987D01*
X156923078Y-84781000D01*
X157076922Y-84781000D01*
X157227809Y-84750987D01*
X157369942Y-84692113D01*
X157497859Y-84606642D01*
X157606642Y-84497859D01*
X157692113Y-84369942D01*
X157750987Y-84227809D01*
X157781000Y-84076922D01*
X157781000Y-83923078D01*
X157750987Y-83772191D01*
X157692113Y-83630058D01*
X157606642Y-83502141D01*
X157497859Y-83393358D01*
X157369942Y-83307887D01*
X157227809Y-83249013D01*
X157076922Y-83219000D01*
X156923078Y-83219000D01*
X156772191Y-83249013D01*
X156630058Y-83307887D01*
X156502141Y-83393358D01*
X156393358Y-83502141D01*
X156307887Y-83630058D01*
X156249013Y-83772191D01*
X156219000Y-83923078D01*
X149769380Y-83923078D01*
X149753188Y-83758682D01*
X149682798Y-83526637D01*
X149568491Y-83312784D01*
X149414660Y-83125340D01*
X149227216Y-82971509D01*
X149013363Y-82857202D01*
X148781318Y-82786812D01*
X148600472Y-82769000D01*
X148479528Y-82769000D01*
X148298682Y-82786812D01*
X148066637Y-82857202D01*
X147852784Y-82971509D01*
X147665340Y-83125340D01*
X147511509Y-83312784D01*
X147397202Y-83526637D01*
X147326812Y-83758682D01*
X147303044Y-84000000D01*
X147232843Y-84000000D01*
X147232843Y-83150000D01*
X147225487Y-83075311D01*
X147203701Y-83003492D01*
X147168322Y-82937304D01*
X147120711Y-82879289D01*
X147062696Y-82831678D01*
X146996508Y-82796299D01*
X146924689Y-82774513D01*
X146850000Y-82767157D01*
X145150000Y-82767157D01*
X145075311Y-82774513D01*
X145003492Y-82796299D01*
X144937304Y-82831678D01*
X144879289Y-82879289D01*
X144831678Y-82937304D01*
X144796299Y-83003492D01*
X144774513Y-83075311D01*
X144767157Y-83150000D01*
X128142368Y-83150000D01*
X130661369Y-80631000D01*
X132538595Y-80631000D01*
X132630058Y-80692113D01*
X132772191Y-80750987D01*
X132923078Y-80781000D01*
X133076922Y-80781000D01*
X133227809Y-80750987D01*
X133369942Y-80692113D01*
X133497859Y-80606642D01*
X133606642Y-80497859D01*
X133692113Y-80369942D01*
X133750987Y-80227809D01*
X133781000Y-80076922D01*
X133781000Y-79923078D01*
X133750987Y-79772191D01*
X133692113Y-79630058D01*
X133631000Y-79538595D01*
X133631000Y-77058078D01*
X145584000Y-77058078D01*
X145584000Y-77211922D01*
X145614013Y-77362809D01*
X145672887Y-77504942D01*
X145758358Y-77632859D01*
X145867141Y-77741642D01*
X145995058Y-77827113D01*
X146137191Y-77885987D01*
X146288078Y-77916000D01*
X146441922Y-77916000D01*
X146592809Y-77885987D01*
X146734942Y-77827113D01*
X146862859Y-77741642D01*
X146971642Y-77632859D01*
X147057113Y-77504942D01*
X147115987Y-77362809D01*
X147137447Y-77254921D01*
X150424269Y-73968100D01*
X150448343Y-73948343D01*
X150527196Y-73852261D01*
X150585789Y-73742642D01*
X150621870Y-73623698D01*
X150631000Y-73530998D01*
X150631000Y-73530989D01*
X150634052Y-73500001D01*
X150631000Y-73469013D01*
X150631000Y-73461405D01*
X150692113Y-73369942D01*
X150750987Y-73227809D01*
X150781000Y-73076922D01*
X150781000Y-72923078D01*
X150750987Y-72772191D01*
X150692113Y-72630058D01*
X150606642Y-72502141D01*
X150497859Y-72393358D01*
X150369942Y-72307887D01*
X150227809Y-72249013D01*
X150076922Y-72219000D01*
X149923078Y-72219000D01*
X149772191Y-72249013D01*
X149630058Y-72307887D01*
X149502141Y-72393358D01*
X149393358Y-72502141D01*
X149307887Y-72630058D01*
X149249013Y-72772191D01*
X149219000Y-72923078D01*
X149219000Y-73076922D01*
X149249013Y-73227809D01*
X149287326Y-73320305D01*
X146245079Y-76362553D01*
X146137191Y-76384013D01*
X145995058Y-76442887D01*
X145867141Y-76528358D01*
X145758358Y-76637141D01*
X145672887Y-76765058D01*
X145614013Y-76907191D01*
X145584000Y-77058078D01*
X133631000Y-77058078D01*
X133631000Y-76121368D01*
X136510460Y-73241908D01*
X136436307Y-73420931D01*
X136389000Y-73658757D01*
X136389000Y-73901243D01*
X136436307Y-74139069D01*
X136529102Y-74363097D01*
X136663820Y-74564717D01*
X136835283Y-74736180D01*
X137036903Y-74870898D01*
X137260931Y-74963693D01*
X137498757Y-75011000D01*
X137741243Y-75011000D01*
X137979069Y-74963693D01*
X138203097Y-74870898D01*
X138404717Y-74736180D01*
X138576180Y-74564717D01*
X138710898Y-74363097D01*
X138803693Y-74139069D01*
X138851000Y-73901243D01*
X138851000Y-73658757D01*
X138803693Y-73420931D01*
X138710898Y-73196903D01*
X138576180Y-72995283D01*
X138404717Y-72823820D01*
X138203097Y-72689102D01*
X137979069Y-72596307D01*
X137741243Y-72549000D01*
X137498757Y-72549000D01*
X137260931Y-72596307D01*
X137081909Y-72670460D01*
X137317436Y-72434933D01*
X137498757Y-72471000D01*
X137741243Y-72471000D01*
X137979069Y-72423693D01*
X138203097Y-72330898D01*
X138404717Y-72196180D01*
X138576180Y-72024717D01*
X138678890Y-71871000D01*
X154729010Y-71871000D01*
X154760000Y-71874052D01*
X154790990Y-71871000D01*
X154790998Y-71871000D01*
X154883698Y-71861870D01*
X155002642Y-71825789D01*
X155092074Y-71777986D01*
X155227809Y-71750987D01*
X155369942Y-71692113D01*
X155494000Y-71609220D01*
X155494001Y-75790407D01*
X154159785Y-77124624D01*
X154140473Y-77140473D01*
X154077241Y-77217521D01*
X154030255Y-77305426D01*
X154001322Y-77400808D01*
X153994000Y-77475147D01*
X153994000Y-77475154D01*
X153991553Y-77500000D01*
X153994000Y-77524846D01*
X153994001Y-79475144D01*
X153991553Y-79500000D01*
X154001322Y-79599192D01*
X154030255Y-79694574D01*
X154030256Y-79694575D01*
X154077242Y-79782479D01*
X154140474Y-79859527D01*
X154159780Y-79875372D01*
X155624628Y-81340220D01*
X155640473Y-81359527D01*
X155717521Y-81422759D01*
X155805425Y-81469745D01*
X155878607Y-81491944D01*
X155900806Y-81498678D01*
X155910694Y-81499652D01*
X155975146Y-81506000D01*
X155975153Y-81506000D01*
X155999999Y-81508447D01*
X156024845Y-81506000D01*
X157790409Y-81506000D01*
X160219000Y-83934592D01*
X160219000Y-84076922D01*
X160249013Y-84227809D01*
X160307887Y-84369942D01*
X160393358Y-84497859D01*
X160502141Y-84606642D01*
X160630058Y-84692113D01*
X160772191Y-84750987D01*
X160923078Y-84781000D01*
X161076922Y-84781000D01*
X161227809Y-84750987D01*
X161369942Y-84692113D01*
X161497859Y-84606642D01*
X161606642Y-84497859D01*
X161692113Y-84369942D01*
X161750987Y-84227809D01*
X161781000Y-84076922D01*
X161781000Y-83936980D01*
X163810511Y-83936980D01*
X163834866Y-84017288D01*
X163934761Y-84236961D01*
X164075592Y-84432924D01*
X164251948Y-84597647D01*
X164457051Y-84724799D01*
X164683019Y-84809495D01*
X164873000Y-84749187D01*
X164873000Y-83747000D01*
X165127000Y-83747000D01*
X165127000Y-84749187D01*
X165316981Y-84809495D01*
X165542949Y-84724799D01*
X165748052Y-84597647D01*
X165924408Y-84432924D01*
X166065239Y-84236961D01*
X166165134Y-84017288D01*
X166189489Y-83936980D01*
X166128627Y-83747000D01*
X165127000Y-83747000D01*
X164873000Y-83747000D01*
X163871373Y-83747000D01*
X163810511Y-83936980D01*
X161781000Y-83936980D01*
X161781000Y-83923078D01*
X161750987Y-83772191D01*
X161692113Y-83630058D01*
X161606642Y-83502141D01*
X161497859Y-83393358D01*
X161369942Y-83307887D01*
X161358193Y-83303020D01*
X163810511Y-83303020D01*
X163871373Y-83493000D01*
X164873000Y-83493000D01*
X164873000Y-82490813D01*
X165127000Y-82490813D01*
X165127000Y-83493000D01*
X166128627Y-83493000D01*
X166189489Y-83303020D01*
X166165134Y-83222712D01*
X166065239Y-83003039D01*
X165924408Y-82807076D01*
X165748052Y-82642353D01*
X165542949Y-82515201D01*
X165316981Y-82430505D01*
X165127000Y-82490813D01*
X164873000Y-82490813D01*
X164683019Y-82430505D01*
X164457051Y-82515201D01*
X164251948Y-82642353D01*
X164075592Y-82807076D01*
X163934761Y-83003039D01*
X163834866Y-83222712D01*
X163810511Y-83303020D01*
X161358193Y-83303020D01*
X161227809Y-83249013D01*
X161076922Y-83219000D01*
X160934592Y-83219000D01*
X158795592Y-81080000D01*
X163763044Y-81080000D01*
X163786812Y-81321318D01*
X163857202Y-81553363D01*
X163971509Y-81767216D01*
X164125340Y-81954660D01*
X164312784Y-82108491D01*
X164526637Y-82222798D01*
X164758682Y-82293188D01*
X164939528Y-82311000D01*
X165060472Y-82311000D01*
X165241318Y-82293188D01*
X165473363Y-82222798D01*
X165687216Y-82108491D01*
X165874660Y-81954660D01*
X166028491Y-81767216D01*
X166142798Y-81553363D01*
X166213188Y-81321318D01*
X166236956Y-81080000D01*
X166213188Y-80838682D01*
X166142798Y-80606637D01*
X166028491Y-80392784D01*
X165874660Y-80205340D01*
X165687216Y-80051509D01*
X165473363Y-79937202D01*
X165241318Y-79866812D01*
X165060472Y-79849000D01*
X164939528Y-79849000D01*
X164758682Y-79866812D01*
X164526637Y-79937202D01*
X164312784Y-80051509D01*
X164125340Y-80205340D01*
X163971509Y-80392784D01*
X163857202Y-80606637D01*
X163786812Y-80838682D01*
X163763044Y-81080000D01*
X158795592Y-81080000D01*
X158375376Y-80659785D01*
X158359527Y-80640473D01*
X158282479Y-80577241D01*
X158194575Y-80530255D01*
X158099193Y-80501322D01*
X158024854Y-80494000D01*
X158024846Y-80494000D01*
X158000000Y-80491553D01*
X157975154Y-80494000D01*
X157153071Y-80494000D01*
X157210882Y-80407480D01*
X157269756Y-80265347D01*
X157299769Y-80114460D01*
X157299769Y-79960616D01*
X157269756Y-79809729D01*
X157210882Y-79667596D01*
X157125411Y-79539679D01*
X157016628Y-79430896D01*
X156912236Y-79361144D01*
X156943301Y-79286147D01*
X156981000Y-79096620D01*
X156981000Y-78911368D01*
X157035388Y-78856980D01*
X163810511Y-78856980D01*
X163834866Y-78937288D01*
X163934761Y-79156961D01*
X164075592Y-79352924D01*
X164251948Y-79517647D01*
X164457051Y-79644799D01*
X164683019Y-79729495D01*
X164873000Y-79669187D01*
X164873000Y-78667000D01*
X165127000Y-78667000D01*
X165127000Y-79669187D01*
X165316981Y-79729495D01*
X165542949Y-79644799D01*
X165748052Y-79517647D01*
X165924408Y-79352924D01*
X166065239Y-79156961D01*
X166165134Y-78937288D01*
X166189489Y-78856980D01*
X166128627Y-78667000D01*
X165127000Y-78667000D01*
X164873000Y-78667000D01*
X163871373Y-78667000D01*
X163810511Y-78856980D01*
X157035388Y-78856980D01*
X157669348Y-78223020D01*
X163810511Y-78223020D01*
X163871373Y-78413000D01*
X164873000Y-78413000D01*
X164873000Y-77410813D01*
X165127000Y-77410813D01*
X165127000Y-78413000D01*
X166128627Y-78413000D01*
X166189489Y-78223020D01*
X166165134Y-78142712D01*
X166065239Y-77923039D01*
X165924408Y-77727076D01*
X165748052Y-77562353D01*
X165542949Y-77435201D01*
X165316981Y-77350505D01*
X165127000Y-77410813D01*
X164873000Y-77410813D01*
X164683019Y-77350505D01*
X164457051Y-77435201D01*
X164251948Y-77562353D01*
X164075592Y-77727076D01*
X163934761Y-77923039D01*
X163834866Y-78142712D01*
X163810511Y-78223020D01*
X157669348Y-78223020D01*
X160742368Y-75150000D01*
X163767157Y-75150000D01*
X163767157Y-76850000D01*
X163774513Y-76924689D01*
X163796299Y-76996508D01*
X163831678Y-77062696D01*
X163879289Y-77120711D01*
X163937304Y-77168322D01*
X164003492Y-77203701D01*
X164075311Y-77225487D01*
X164150000Y-77232843D01*
X165850000Y-77232843D01*
X165924689Y-77225487D01*
X165996508Y-77203701D01*
X166062696Y-77168322D01*
X166120711Y-77120711D01*
X166168322Y-77062696D01*
X166203701Y-76996508D01*
X166225487Y-76924689D01*
X166232843Y-76850000D01*
X166232843Y-75150000D01*
X166225487Y-75075311D01*
X166203701Y-75003492D01*
X166168322Y-74937304D01*
X166120711Y-74879289D01*
X166062696Y-74831678D01*
X165996508Y-74796299D01*
X165924689Y-74774513D01*
X165850000Y-74767157D01*
X164150000Y-74767157D01*
X164075311Y-74774513D01*
X164003492Y-74796299D01*
X163937304Y-74831678D01*
X163879289Y-74879289D01*
X163831678Y-74937304D01*
X163796299Y-75003492D01*
X163774513Y-75075311D01*
X163767157Y-75150000D01*
X160742368Y-75150000D01*
X162424268Y-73468101D01*
X162448343Y-73448343D01*
X162527196Y-73352261D01*
X162585789Y-73242642D01*
X162621870Y-73123698D01*
X162631000Y-73030998D01*
X162631000Y-73030989D01*
X162634052Y-73000001D01*
X162631000Y-72969013D01*
X162631000Y-68936980D01*
X163810511Y-68936980D01*
X163834866Y-69017288D01*
X163934761Y-69236961D01*
X164075592Y-69432924D01*
X164251948Y-69597647D01*
X164457051Y-69724799D01*
X164683019Y-69809495D01*
X164873000Y-69749187D01*
X164873000Y-68747000D01*
X165127000Y-68747000D01*
X165127000Y-69749187D01*
X165316981Y-69809495D01*
X165542949Y-69724799D01*
X165748052Y-69597647D01*
X165924408Y-69432924D01*
X166065239Y-69236961D01*
X166165134Y-69017288D01*
X166189489Y-68936980D01*
X166128627Y-68747000D01*
X165127000Y-68747000D01*
X164873000Y-68747000D01*
X163871373Y-68747000D01*
X163810511Y-68936980D01*
X162631000Y-68936980D01*
X162631000Y-68303020D01*
X163810511Y-68303020D01*
X163871373Y-68493000D01*
X164873000Y-68493000D01*
X164873000Y-67490813D01*
X165127000Y-67490813D01*
X165127000Y-68493000D01*
X166128627Y-68493000D01*
X166189489Y-68303020D01*
X166165134Y-68222712D01*
X166065239Y-68003039D01*
X165924408Y-67807076D01*
X165748052Y-67642353D01*
X165542949Y-67515201D01*
X165316981Y-67430505D01*
X165127000Y-67490813D01*
X164873000Y-67490813D01*
X164683019Y-67430505D01*
X164457051Y-67515201D01*
X164251948Y-67642353D01*
X164075592Y-67807076D01*
X163934761Y-68003039D01*
X163834866Y-68222712D01*
X163810511Y-68303020D01*
X162631000Y-68303020D01*
X162631000Y-66080000D01*
X163763044Y-66080000D01*
X163786812Y-66321318D01*
X163857202Y-66553363D01*
X163971509Y-66767216D01*
X164125340Y-66954660D01*
X164312784Y-67108491D01*
X164526637Y-67222798D01*
X164758682Y-67293188D01*
X164939528Y-67311000D01*
X165060472Y-67311000D01*
X165241318Y-67293188D01*
X165473363Y-67222798D01*
X165687216Y-67108491D01*
X165874660Y-66954660D01*
X166028491Y-66767216D01*
X166142798Y-66553363D01*
X166213188Y-66321318D01*
X166236956Y-66080000D01*
X166213188Y-65838682D01*
X166142798Y-65606637D01*
X166028491Y-65392784D01*
X165874660Y-65205340D01*
X165687216Y-65051509D01*
X165473363Y-64937202D01*
X165241318Y-64866812D01*
X165060472Y-64849000D01*
X164939528Y-64849000D01*
X164758682Y-64866812D01*
X164526637Y-64937202D01*
X164312784Y-65051509D01*
X164125340Y-65205340D01*
X163971509Y-65392784D01*
X163857202Y-65606637D01*
X163786812Y-65838682D01*
X163763044Y-66080000D01*
X162631000Y-66080000D01*
X162631000Y-64030998D01*
X162634053Y-64000000D01*
X162631000Y-63969002D01*
X162631000Y-63856980D01*
X163810511Y-63856980D01*
X163834866Y-63937288D01*
X163934761Y-64156961D01*
X164075592Y-64352924D01*
X164251948Y-64517647D01*
X164457051Y-64644799D01*
X164683019Y-64729495D01*
X164873000Y-64669187D01*
X164873000Y-63667000D01*
X165127000Y-63667000D01*
X165127000Y-64669187D01*
X165316981Y-64729495D01*
X165542949Y-64644799D01*
X165748052Y-64517647D01*
X165924408Y-64352924D01*
X166065239Y-64156961D01*
X166165134Y-63937288D01*
X166189489Y-63856980D01*
X166128627Y-63667000D01*
X165127000Y-63667000D01*
X164873000Y-63667000D01*
X163871373Y-63667000D01*
X163810511Y-63856980D01*
X162631000Y-63856980D01*
X162631000Y-63223020D01*
X163810511Y-63223020D01*
X163871373Y-63413000D01*
X164873000Y-63413000D01*
X164873000Y-62410813D01*
X165127000Y-62410813D01*
X165127000Y-63413000D01*
X166128627Y-63413000D01*
X166189489Y-63223020D01*
X166165134Y-63142712D01*
X166065239Y-62923039D01*
X165924408Y-62727076D01*
X165748052Y-62562353D01*
X165542949Y-62435201D01*
X165316981Y-62350505D01*
X165127000Y-62410813D01*
X164873000Y-62410813D01*
X164683019Y-62350505D01*
X164457051Y-62435201D01*
X164251948Y-62562353D01*
X164075592Y-62727076D01*
X163934761Y-62923039D01*
X163834866Y-63142712D01*
X163810511Y-63223020D01*
X162631000Y-63223020D01*
X162631000Y-60150000D01*
X163767157Y-60150000D01*
X163767157Y-61850000D01*
X163774513Y-61924689D01*
X163796299Y-61996508D01*
X163831678Y-62062696D01*
X163879289Y-62120711D01*
X163937304Y-62168322D01*
X164003492Y-62203701D01*
X164075311Y-62225487D01*
X164150000Y-62232843D01*
X165850000Y-62232843D01*
X165924689Y-62225487D01*
X165996508Y-62203701D01*
X166062696Y-62168322D01*
X166120711Y-62120711D01*
X166168322Y-62062696D01*
X166203701Y-61996508D01*
X166225487Y-61924689D01*
X166232843Y-61850000D01*
X166232843Y-60150000D01*
X166225487Y-60075311D01*
X166203701Y-60003492D01*
X166168322Y-59937304D01*
X166120711Y-59879289D01*
X166062696Y-59831678D01*
X165996508Y-59796299D01*
X165924689Y-59774513D01*
X165850000Y-59767157D01*
X164150000Y-59767157D01*
X164075311Y-59774513D01*
X164003492Y-59796299D01*
X163937304Y-59831678D01*
X163879289Y-59879289D01*
X163831678Y-59937304D01*
X163796299Y-60003492D01*
X163774513Y-60075311D01*
X163767157Y-60150000D01*
X162631000Y-60150000D01*
X162631000Y-53936980D01*
X163810511Y-53936980D01*
X163834866Y-54017288D01*
X163934761Y-54236961D01*
X164075592Y-54432924D01*
X164251948Y-54597647D01*
X164457051Y-54724799D01*
X164683019Y-54809495D01*
X164873000Y-54749187D01*
X164873000Y-53747000D01*
X165127000Y-53747000D01*
X165127000Y-54749187D01*
X165316981Y-54809495D01*
X165542949Y-54724799D01*
X165748052Y-54597647D01*
X165924408Y-54432924D01*
X166065239Y-54236961D01*
X166165134Y-54017288D01*
X166189489Y-53936980D01*
X166128627Y-53747000D01*
X165127000Y-53747000D01*
X164873000Y-53747000D01*
X163871373Y-53747000D01*
X163810511Y-53936980D01*
X162631000Y-53936980D01*
X162631000Y-53303020D01*
X163810511Y-53303020D01*
X163871373Y-53493000D01*
X164873000Y-53493000D01*
X164873000Y-52490813D01*
X165127000Y-52490813D01*
X165127000Y-53493000D01*
X166128627Y-53493000D01*
X166189489Y-53303020D01*
X166165134Y-53222712D01*
X166065239Y-53003039D01*
X165924408Y-52807076D01*
X165748052Y-52642353D01*
X165542949Y-52515201D01*
X165316981Y-52430505D01*
X165127000Y-52490813D01*
X164873000Y-52490813D01*
X164683019Y-52430505D01*
X164457051Y-52515201D01*
X164251948Y-52642353D01*
X164075592Y-52807076D01*
X163934761Y-53003039D01*
X163834866Y-53222712D01*
X163810511Y-53303020D01*
X162631000Y-53303020D01*
X162631000Y-51080000D01*
X163763044Y-51080000D01*
X163786812Y-51321318D01*
X163857202Y-51553363D01*
X163971509Y-51767216D01*
X164125340Y-51954660D01*
X164312784Y-52108491D01*
X164526637Y-52222798D01*
X164758682Y-52293188D01*
X164939528Y-52311000D01*
X165060472Y-52311000D01*
X165241318Y-52293188D01*
X165473363Y-52222798D01*
X165687216Y-52108491D01*
X165874660Y-51954660D01*
X166028491Y-51767216D01*
X166142798Y-51553363D01*
X166213188Y-51321318D01*
X166236956Y-51080000D01*
X166213188Y-50838682D01*
X166142798Y-50606637D01*
X166028491Y-50392784D01*
X165874660Y-50205340D01*
X165687216Y-50051509D01*
X165473363Y-49937202D01*
X165241318Y-49866812D01*
X165060472Y-49849000D01*
X164939528Y-49849000D01*
X164758682Y-49866812D01*
X164526637Y-49937202D01*
X164312784Y-50051509D01*
X164125340Y-50205340D01*
X163971509Y-50392784D01*
X163857202Y-50606637D01*
X163786812Y-50838682D01*
X163763044Y-51080000D01*
X162631000Y-51080000D01*
X162631000Y-49030998D01*
X162634053Y-49000000D01*
X162631000Y-48969002D01*
X162631000Y-48856980D01*
X163810511Y-48856980D01*
X163834866Y-48937288D01*
X163934761Y-49156961D01*
X164075592Y-49352924D01*
X164251948Y-49517647D01*
X164457051Y-49644799D01*
X164683019Y-49729495D01*
X164873000Y-49669187D01*
X164873000Y-48667000D01*
X165127000Y-48667000D01*
X165127000Y-49669187D01*
X165316981Y-49729495D01*
X165542949Y-49644799D01*
X165748052Y-49517647D01*
X165924408Y-49352924D01*
X166065239Y-49156961D01*
X166165134Y-48937288D01*
X166189489Y-48856980D01*
X166128627Y-48667000D01*
X165127000Y-48667000D01*
X164873000Y-48667000D01*
X163871373Y-48667000D01*
X163810511Y-48856980D01*
X162631000Y-48856980D01*
X162631000Y-48223020D01*
X163810511Y-48223020D01*
X163871373Y-48413000D01*
X164873000Y-48413000D01*
X164873000Y-47410813D01*
X165127000Y-47410813D01*
X165127000Y-48413000D01*
X166128627Y-48413000D01*
X166189489Y-48223020D01*
X166165134Y-48142712D01*
X166065239Y-47923039D01*
X165924408Y-47727076D01*
X165748052Y-47562353D01*
X165542949Y-47435201D01*
X165316981Y-47350505D01*
X165127000Y-47410813D01*
X164873000Y-47410813D01*
X164683019Y-47350505D01*
X164457051Y-47435201D01*
X164251948Y-47562353D01*
X164075592Y-47727076D01*
X163934761Y-47923039D01*
X163834866Y-48142712D01*
X163810511Y-48223020D01*
X162631000Y-48223020D01*
X162631000Y-45150000D01*
X163767157Y-45150000D01*
X163767157Y-46850000D01*
X163774513Y-46924689D01*
X163796299Y-46996508D01*
X163831678Y-47062696D01*
X163879289Y-47120711D01*
X163937304Y-47168322D01*
X164003492Y-47203701D01*
X164075311Y-47225487D01*
X164150000Y-47232843D01*
X165850000Y-47232843D01*
X165924689Y-47225487D01*
X165996508Y-47203701D01*
X166062696Y-47168322D01*
X166120711Y-47120711D01*
X166168322Y-47062696D01*
X166203701Y-46996508D01*
X166225487Y-46924689D01*
X166232843Y-46850000D01*
X166232843Y-45150000D01*
X166225487Y-45075311D01*
X166203701Y-45003492D01*
X166168322Y-44937304D01*
X166120711Y-44879289D01*
X166062696Y-44831678D01*
X165996508Y-44796299D01*
X165924689Y-44774513D01*
X165850000Y-44767157D01*
X164150000Y-44767157D01*
X164075311Y-44774513D01*
X164003492Y-44796299D01*
X163937304Y-44831678D01*
X163879289Y-44879289D01*
X163831678Y-44937304D01*
X163796299Y-45003492D01*
X163774513Y-45075311D01*
X163767157Y-45150000D01*
X162631000Y-45150000D01*
X162631000Y-43030997D01*
X162634053Y-43000000D01*
X162631000Y-42969002D01*
X162631000Y-38936980D01*
X163810511Y-38936980D01*
X163834866Y-39017288D01*
X163934761Y-39236961D01*
X164075592Y-39432924D01*
X164251948Y-39597647D01*
X164457051Y-39724799D01*
X164683019Y-39809495D01*
X164873000Y-39749187D01*
X164873000Y-38747000D01*
X165127000Y-38747000D01*
X165127000Y-39749187D01*
X165316981Y-39809495D01*
X165542949Y-39724799D01*
X165748052Y-39597647D01*
X165924408Y-39432924D01*
X166065239Y-39236961D01*
X166165134Y-39017288D01*
X166189489Y-38936980D01*
X166128627Y-38747000D01*
X165127000Y-38747000D01*
X164873000Y-38747000D01*
X163871373Y-38747000D01*
X163810511Y-38936980D01*
X162631000Y-38936980D01*
X162631000Y-38832196D01*
X162634053Y-38801198D01*
X162621870Y-38677500D01*
X162585789Y-38558556D01*
X162527196Y-38448937D01*
X162468103Y-38376932D01*
X162468101Y-38376930D01*
X162448343Y-38352855D01*
X162424268Y-38333097D01*
X162394191Y-38303020D01*
X163810511Y-38303020D01*
X163871373Y-38493000D01*
X164873000Y-38493000D01*
X164873000Y-37490813D01*
X165127000Y-37490813D01*
X165127000Y-38493000D01*
X166128627Y-38493000D01*
X166189489Y-38303020D01*
X166165134Y-38222712D01*
X166065239Y-38003039D01*
X165924408Y-37807076D01*
X165748052Y-37642353D01*
X165542949Y-37515201D01*
X165316981Y-37430505D01*
X165127000Y-37490813D01*
X164873000Y-37490813D01*
X164683019Y-37430505D01*
X164457051Y-37515201D01*
X164251948Y-37642353D01*
X164075592Y-37807076D01*
X163934761Y-38003039D01*
X163834866Y-38222712D01*
X163810511Y-38303020D01*
X162394191Y-38303020D01*
X160171171Y-36080000D01*
X163763044Y-36080000D01*
X163786812Y-36321318D01*
X163857202Y-36553363D01*
X163971509Y-36767216D01*
X164125340Y-36954660D01*
X164312784Y-37108491D01*
X164526637Y-37222798D01*
X164758682Y-37293188D01*
X164939528Y-37311000D01*
X165060472Y-37311000D01*
X165241318Y-37293188D01*
X165473363Y-37222798D01*
X165687216Y-37108491D01*
X165874660Y-36954660D01*
X166028491Y-36767216D01*
X166142798Y-36553363D01*
X166213188Y-36321318D01*
X166236956Y-36080000D01*
X166213188Y-35838682D01*
X166142798Y-35606637D01*
X166028491Y-35392784D01*
X165874660Y-35205340D01*
X165687216Y-35051509D01*
X165473363Y-34937202D01*
X165241318Y-34866812D01*
X165060472Y-34849000D01*
X164939528Y-34849000D01*
X164758682Y-34866812D01*
X164526637Y-34937202D01*
X164312784Y-35051509D01*
X164125340Y-35205340D01*
X163971509Y-35392784D01*
X163857202Y-35606637D01*
X163786812Y-35838682D01*
X163763044Y-36080000D01*
X160171171Y-36080000D01*
X157948151Y-33856980D01*
X163810511Y-33856980D01*
X163834866Y-33937288D01*
X163934761Y-34156961D01*
X164075592Y-34352924D01*
X164251948Y-34517647D01*
X164457051Y-34644799D01*
X164683019Y-34729495D01*
X164873000Y-34669187D01*
X164873000Y-33667000D01*
X165127000Y-33667000D01*
X165127000Y-34669187D01*
X165316981Y-34729495D01*
X165542949Y-34644799D01*
X165748052Y-34517647D01*
X165924408Y-34352924D01*
X166065239Y-34156961D01*
X166165134Y-33937288D01*
X166189489Y-33856980D01*
X166128627Y-33667000D01*
X165127000Y-33667000D01*
X164873000Y-33667000D01*
X163871373Y-33667000D01*
X163810511Y-33856980D01*
X157948151Y-33856980D01*
X157656897Y-33565727D01*
X157637135Y-33541647D01*
X157541053Y-33462794D01*
X157431434Y-33404201D01*
X157312490Y-33368120D01*
X157219790Y-33358990D01*
X157219782Y-33358990D01*
X157188792Y-33355938D01*
X157157802Y-33358990D01*
X156756344Y-33358990D01*
X156625351Y-33227997D01*
X156617903Y-33223020D01*
X163810511Y-33223020D01*
X163871373Y-33413000D01*
X164873000Y-33413000D01*
X164873000Y-32410813D01*
X165127000Y-32410813D01*
X165127000Y-33413000D01*
X166128627Y-33413000D01*
X166189489Y-33223020D01*
X166165134Y-33142712D01*
X166065239Y-32923039D01*
X165924408Y-32727076D01*
X165748052Y-32562353D01*
X165542949Y-32435201D01*
X165316981Y-32350505D01*
X165127000Y-32410813D01*
X164873000Y-32410813D01*
X164683019Y-32350505D01*
X164457051Y-32435201D01*
X164251948Y-32562353D01*
X164075592Y-32727076D01*
X163934761Y-32923039D01*
X163834866Y-33142712D01*
X163810511Y-33223020D01*
X156617903Y-33223020D01*
X156464678Y-33120639D01*
X156286147Y-33046689D01*
X156096620Y-33008990D01*
X155903380Y-33008990D01*
X155713853Y-33046689D01*
X155535322Y-33120639D01*
X155374649Y-33227997D01*
X155238007Y-33364639D01*
X155130649Y-33525312D01*
X155056699Y-33703843D01*
X155019000Y-33893370D01*
X155019000Y-34086610D01*
X155056699Y-34276137D01*
X155102640Y-34387048D01*
X153375376Y-32659785D01*
X153359527Y-32640473D01*
X153282479Y-32577241D01*
X153194575Y-32530255D01*
X153099193Y-32501322D01*
X153024854Y-32494000D01*
X153024846Y-32494000D01*
X153000000Y-32491553D01*
X152975154Y-32494000D01*
X138024854Y-32494000D01*
X138000000Y-32491552D01*
X137975146Y-32494000D01*
X137900807Y-32501322D01*
X137805425Y-32530255D01*
X137717521Y-32577241D01*
X137640473Y-32640473D01*
X137624628Y-32659780D01*
X122982405Y-47302003D01*
X122963097Y-47289102D01*
X122739069Y-47196307D01*
X122501243Y-47149000D01*
X122258757Y-47149000D01*
X122020931Y-47196307D01*
X121796903Y-47289102D01*
X121595283Y-47423820D01*
X121423820Y-47595283D01*
X121289102Y-47796903D01*
X121196307Y-48020931D01*
X121149000Y-48258757D01*
X120406000Y-48258757D01*
X120406000Y-46732100D01*
X121667505Y-46732100D01*
X121759523Y-46910078D01*
X121980207Y-47010566D01*
X122216255Y-47066069D01*
X122458596Y-47074456D01*
X122697917Y-47035402D01*
X122925020Y-46950411D01*
X123000477Y-46910078D01*
X123092495Y-46732100D01*
X122380000Y-46019605D01*
X121667505Y-46732100D01*
X120406000Y-46732100D01*
X120406000Y-45918596D01*
X121145544Y-45918596D01*
X121184598Y-46157917D01*
X121269589Y-46385020D01*
X121309922Y-46460477D01*
X121487900Y-46552495D01*
X122200395Y-45840000D01*
X122559605Y-45840000D01*
X123272100Y-46552495D01*
X123450078Y-46460477D01*
X123550566Y-46239793D01*
X123606069Y-46003745D01*
X123614456Y-45761404D01*
X123575402Y-45522083D01*
X123490411Y-45294980D01*
X123450078Y-45219523D01*
X123272100Y-45127505D01*
X122559605Y-45840000D01*
X122200395Y-45840000D01*
X121487900Y-45127505D01*
X121309922Y-45219523D01*
X121209434Y-45440207D01*
X121153931Y-45676255D01*
X121145544Y-45918596D01*
X120406000Y-45918596D01*
X120406000Y-44947900D01*
X121667505Y-44947900D01*
X122380000Y-45660395D01*
X123092495Y-44947900D01*
X123000477Y-44769922D01*
X122779793Y-44669434D01*
X122543745Y-44613931D01*
X122301404Y-44605544D01*
X122062083Y-44644598D01*
X121834980Y-44729589D01*
X121759523Y-44769922D01*
X121667505Y-44947900D01*
X120406000Y-44947900D01*
X120406000Y-43178757D01*
X121149000Y-43178757D01*
X121149000Y-43421243D01*
X121196307Y-43659069D01*
X121289102Y-43883097D01*
X121423820Y-44084717D01*
X121595283Y-44256180D01*
X121796903Y-44390898D01*
X122020931Y-44483693D01*
X122258757Y-44531000D01*
X122501243Y-44531000D01*
X122739069Y-44483693D01*
X122963097Y-44390898D01*
X123164717Y-44256180D01*
X123336180Y-44084717D01*
X123470898Y-43883097D01*
X123563693Y-43659069D01*
X123611000Y-43421243D01*
X123611000Y-43178757D01*
X123563693Y-42940931D01*
X123470898Y-42716903D01*
X123336180Y-42515283D01*
X123164717Y-42343820D01*
X122963097Y-42209102D01*
X122739069Y-42116307D01*
X122501243Y-42069000D01*
X122258757Y-42069000D01*
X122020931Y-42116307D01*
X121796903Y-42209102D01*
X121595283Y-42343820D01*
X121423820Y-42515283D01*
X121289102Y-42716903D01*
X121196307Y-42940931D01*
X121149000Y-43178757D01*
X120406000Y-43178757D01*
X120406000Y-40638757D01*
X121149000Y-40638757D01*
X121149000Y-40881243D01*
X121196307Y-41119069D01*
X121289102Y-41343097D01*
X121423820Y-41544717D01*
X121595283Y-41716180D01*
X121796903Y-41850898D01*
X122020931Y-41943693D01*
X122258757Y-41991000D01*
X122501243Y-41991000D01*
X122739069Y-41943693D01*
X122963097Y-41850898D01*
X123164717Y-41716180D01*
X123336180Y-41544717D01*
X123470898Y-41343097D01*
X123563693Y-41119069D01*
X123611000Y-40881243D01*
X123611000Y-40638757D01*
X123563693Y-40400931D01*
X123470898Y-40176903D01*
X123336180Y-39975283D01*
X123164717Y-39803820D01*
X122963097Y-39669102D01*
X122739069Y-39576307D01*
X122501243Y-39529000D01*
X122258757Y-39529000D01*
X122020931Y-39576307D01*
X121796903Y-39669102D01*
X121595283Y-39803820D01*
X121423820Y-39975283D01*
X121289102Y-40176903D01*
X121196307Y-40400931D01*
X121149000Y-40638757D01*
X120406000Y-40638757D01*
X120406000Y-37795000D01*
X121147157Y-37795000D01*
X121147157Y-38645000D01*
X121162679Y-38802602D01*
X121208650Y-38954148D01*
X121283303Y-39093814D01*
X121383769Y-39216231D01*
X121506186Y-39316697D01*
X121645852Y-39391350D01*
X121797398Y-39437321D01*
X121955000Y-39452843D01*
X122805000Y-39452843D01*
X122962602Y-39437321D01*
X123114148Y-39391350D01*
X123253814Y-39316697D01*
X123376231Y-39216231D01*
X123476697Y-39093814D01*
X123551350Y-38954148D01*
X123597321Y-38802602D01*
X123612843Y-38645000D01*
X123612843Y-37795000D01*
X123597321Y-37637398D01*
X123551350Y-37485852D01*
X123476697Y-37346186D01*
X123376231Y-37223769D01*
X123253814Y-37123303D01*
X123114148Y-37048650D01*
X122962602Y-37002679D01*
X122805000Y-36987157D01*
X121955000Y-36987157D01*
X121797398Y-37002679D01*
X121645852Y-37048650D01*
X121506186Y-37123303D01*
X121383769Y-37223769D01*
X121283303Y-37346186D01*
X121208650Y-37485852D01*
X121162679Y-37637398D01*
X121147157Y-37795000D01*
X120406000Y-37795000D01*
X120406000Y-31019854D01*
X120438267Y-30690771D01*
X120528075Y-30393312D01*
X120657447Y-30150000D01*
X163767157Y-30150000D01*
X163767157Y-31850000D01*
X163774513Y-31924689D01*
X163796299Y-31996508D01*
X163831678Y-32062696D01*
X163879289Y-32120711D01*
X163937304Y-32168322D01*
X164003492Y-32203701D01*
X164075311Y-32225487D01*
X164150000Y-32232843D01*
X165850000Y-32232843D01*
X165924689Y-32225487D01*
X165996508Y-32203701D01*
X166062696Y-32168322D01*
X166120711Y-32120711D01*
X166168322Y-32062696D01*
X166203701Y-31996508D01*
X166225487Y-31924689D01*
X166232843Y-31850000D01*
X166232843Y-30150000D01*
X166225487Y-30075311D01*
X166203701Y-30003492D01*
X166168322Y-29937304D01*
X166120711Y-29879289D01*
X166062696Y-29831678D01*
X165996508Y-29796299D01*
X165924689Y-29774513D01*
X165850000Y-29767157D01*
X164150000Y-29767157D01*
X164075311Y-29774513D01*
X164003492Y-29796299D01*
X163937304Y-29831678D01*
X163879289Y-29879289D01*
X163831678Y-29937304D01*
X163796299Y-30003492D01*
X163774513Y-30075311D01*
X163767157Y-30150000D01*
X120657447Y-30150000D01*
X120673945Y-30118972D01*
X120870325Y-29878187D01*
X121109736Y-29680127D01*
X121383053Y-29532346D01*
X121679872Y-29440465D01*
X122007782Y-29406000D01*
X164980146Y-29406000D01*
X165309229Y-29438267D01*
X165309229Y-29438267D01*
G37*
X165309229Y-29438267D02*
X165606688Y-29528075D01*
X165881028Y-29673945D01*
X166121813Y-29870325D01*
X166319873Y-30109736D01*
X166467654Y-30383053D01*
X166559535Y-30679872D01*
X166594000Y-31007782D01*
X166594001Y-83980136D01*
X166561733Y-84309230D01*
X166471926Y-84606684D01*
X166326056Y-84881025D01*
X166129675Y-85121813D01*
X165890265Y-85319871D01*
X165616948Y-85467654D01*
X165320128Y-85559535D01*
X164992218Y-85594000D01*
X122019854Y-85594000D01*
X121690770Y-85561733D01*
X121393316Y-85471926D01*
X121118975Y-85326056D01*
X120878187Y-85129675D01*
X120680129Y-84890265D01*
X120532346Y-84616948D01*
X120440465Y-84320128D01*
X120406000Y-83992218D01*
X120406000Y-73658757D01*
X121149000Y-73658757D01*
X121149000Y-73901243D01*
X121196307Y-74139069D01*
X121289102Y-74363097D01*
X121423820Y-74564717D01*
X121595283Y-74736180D01*
X121796903Y-74870898D01*
X122020931Y-74963693D01*
X122258757Y-75011000D01*
X122501243Y-75011000D01*
X122739069Y-74963693D01*
X122963097Y-74870898D01*
X123164717Y-74736180D01*
X123336180Y-74564717D01*
X123470898Y-74363097D01*
X123563693Y-74139069D01*
X123611000Y-73901243D01*
X123611000Y-73658757D01*
X123563693Y-73420931D01*
X123470898Y-73196903D01*
X123336180Y-72995283D01*
X123164717Y-72823820D01*
X122963097Y-72689102D01*
X122739069Y-72596307D01*
X122501243Y-72549000D01*
X122258757Y-72549000D01*
X122020931Y-72596307D01*
X121796903Y-72689102D01*
X121595283Y-72823820D01*
X121423820Y-72995283D01*
X121289102Y-73196903D01*
X121196307Y-73420931D01*
X121149000Y-73658757D01*
X120406000Y-73658757D01*
X120406000Y-71118757D01*
X121149000Y-71118757D01*
X121149000Y-71361243D01*
X121196307Y-71599069D01*
X121289102Y-71823097D01*
X121423820Y-72024717D01*
X121595283Y-72196180D01*
X121796903Y-72330898D01*
X122020931Y-72423693D01*
X122258757Y-72471000D01*
X122501243Y-72471000D01*
X122739069Y-72423693D01*
X122963097Y-72330898D01*
X123164717Y-72196180D01*
X123336180Y-72024717D01*
X123470898Y-71823097D01*
X123563693Y-71599069D01*
X123611000Y-71361243D01*
X123611000Y-71118757D01*
X123563693Y-70880931D01*
X123470898Y-70656903D01*
X123336180Y-70455283D01*
X123164717Y-70283820D01*
X122963097Y-70149102D01*
X122739069Y-70056307D01*
X122501243Y-70009000D01*
X122258757Y-70009000D01*
X122020931Y-70056307D01*
X121796903Y-70149102D01*
X121595283Y-70283820D01*
X121423820Y-70455283D01*
X121289102Y-70656903D01*
X121196307Y-70880931D01*
X121149000Y-71118757D01*
X120406000Y-71118757D01*
X120406000Y-68578757D01*
X121149000Y-68578757D01*
X121149000Y-68821243D01*
X121196307Y-69059069D01*
X121289102Y-69283097D01*
X121423820Y-69484717D01*
X121595283Y-69656180D01*
X121796903Y-69790898D01*
X122020931Y-69883693D01*
X122258757Y-69931000D01*
X122501243Y-69931000D01*
X122739069Y-69883693D01*
X122963097Y-69790898D01*
X123164717Y-69656180D01*
X123336180Y-69484717D01*
X123470898Y-69283097D01*
X123563693Y-69059069D01*
X123611000Y-68821243D01*
X123611000Y-68578757D01*
X123563693Y-68340931D01*
X123470898Y-68116903D01*
X123336180Y-67915283D01*
X123164717Y-67743820D01*
X122963097Y-67609102D01*
X122739069Y-67516307D01*
X122501243Y-67469000D01*
X122258757Y-67469000D01*
X122020931Y-67516307D01*
X121796903Y-67609102D01*
X121595283Y-67743820D01*
X121423820Y-67915283D01*
X121289102Y-68116903D01*
X121196307Y-68340931D01*
X121149000Y-68578757D01*
X120406000Y-68578757D01*
X120406000Y-48258757D01*
X121149000Y-48258757D01*
X121149000Y-48501243D01*
X121196307Y-48739069D01*
X121289102Y-48963097D01*
X121423820Y-49164717D01*
X121595283Y-49336180D01*
X121796903Y-49470898D01*
X122020931Y-49563693D01*
X122258757Y-49611000D01*
X122501243Y-49611000D01*
X122739069Y-49563693D01*
X122963097Y-49470898D01*
X123164717Y-49336180D01*
X123336180Y-49164717D01*
X123470898Y-48963097D01*
X123494000Y-48907323D01*
X123494000Y-49090408D01*
X122816167Y-49768242D01*
X122739069Y-49736307D01*
X122501243Y-49689000D01*
X122258757Y-49689000D01*
X122020931Y-49736307D01*
X121796903Y-49829102D01*
X121595283Y-49963820D01*
X121423820Y-50135283D01*
X121289102Y-50336903D01*
X121196307Y-50560931D01*
X121149000Y-50798757D01*
X121149000Y-51041243D01*
X121196307Y-51279069D01*
X121289102Y-51503097D01*
X121423820Y-51704717D01*
X121595283Y-51876180D01*
X121796903Y-52010898D01*
X122020931Y-52103693D01*
X122258757Y-52151000D01*
X122501243Y-52151000D01*
X122739069Y-52103693D01*
X122963097Y-52010898D01*
X123164717Y-51876180D01*
X123336180Y-51704717D01*
X123470898Y-51503097D01*
X123563693Y-51279069D01*
X123611000Y-51041243D01*
X123611000Y-50798757D01*
X123563693Y-50560931D01*
X123531758Y-50483833D01*
X124340220Y-49675372D01*
X124359527Y-49659527D01*
X124422759Y-49582479D01*
X124469745Y-49494575D01*
X124494001Y-49414613D01*
X124494000Y-50630408D01*
X122816167Y-52308242D01*
X122739069Y-52276307D01*
X122501243Y-52229000D01*
X122258757Y-52229000D01*
X122020931Y-52276307D01*
X121796903Y-52369102D01*
X121595283Y-52503820D01*
X121423820Y-52675283D01*
X121289102Y-52876903D01*
X121196307Y-53100931D01*
X121149000Y-53338757D01*
X121149000Y-53581243D01*
X121196307Y-53819069D01*
X121289102Y-54043097D01*
X121423820Y-54244717D01*
X121595283Y-54416180D01*
X121796903Y-54550898D01*
X122020931Y-54643693D01*
X122258757Y-54691000D01*
X122501243Y-54691000D01*
X122739069Y-54643693D01*
X122963097Y-54550898D01*
X123164717Y-54416180D01*
X123336180Y-54244717D01*
X123470898Y-54043097D01*
X123563693Y-53819069D01*
X123611000Y-53581243D01*
X123611000Y-53338757D01*
X123563693Y-53100931D01*
X123531758Y-53023833D01*
X125340220Y-51215372D01*
X125359527Y-51199527D01*
X125422759Y-51122479D01*
X125469745Y-51034575D01*
X125494000Y-50954614D01*
X125494000Y-52170408D01*
X122816167Y-54848242D01*
X122739069Y-54816307D01*
X122501243Y-54769000D01*
X122258757Y-54769000D01*
X122020931Y-54816307D01*
X121796903Y-54909102D01*
X121595283Y-55043820D01*
X121423820Y-55215283D01*
X121289102Y-55416903D01*
X121196307Y-55640931D01*
X121149000Y-55878757D01*
X121149000Y-56121243D01*
X121196307Y-56359069D01*
X121289102Y-56583097D01*
X121423820Y-56784717D01*
X121595283Y-56956180D01*
X121796903Y-57090898D01*
X122020931Y-57183693D01*
X122258757Y-57231000D01*
X122501243Y-57231000D01*
X122739069Y-57183693D01*
X122963097Y-57090898D01*
X123164717Y-56956180D01*
X123336180Y-56784717D01*
X123470898Y-56583097D01*
X123563693Y-56359069D01*
X123611000Y-56121243D01*
X123611000Y-55878757D01*
X136389000Y-55878757D01*
X136389000Y-56121243D01*
X136436307Y-56359069D01*
X136529102Y-56583097D01*
X136663820Y-56784717D01*
X136835283Y-56956180D01*
X137036903Y-57090898D01*
X137260931Y-57183693D01*
X137498757Y-57231000D01*
X137741243Y-57231000D01*
X137979069Y-57183693D01*
X138203097Y-57090898D01*
X138404717Y-56956180D01*
X138576180Y-56784717D01*
X138710898Y-56583097D01*
X138803693Y-56359069D01*
X138851000Y-56121243D01*
X138851000Y-55878757D01*
X138803693Y-55640931D01*
X138710898Y-55416903D01*
X138576180Y-55215283D01*
X138404717Y-55043820D01*
X138203097Y-54909102D01*
X137979069Y-54816307D01*
X137741243Y-54769000D01*
X137498757Y-54769000D01*
X137260931Y-54816307D01*
X137036903Y-54909102D01*
X136835283Y-55043820D01*
X136663820Y-55215283D01*
X136529102Y-55416903D01*
X136436307Y-55640931D01*
X136389000Y-55878757D01*
X123611000Y-55878757D01*
X123563693Y-55640931D01*
X123531758Y-55563833D01*
X125756834Y-53338757D01*
X136389000Y-53338757D01*
X136389000Y-53581243D01*
X136436307Y-53819069D01*
X136529102Y-54043097D01*
X136663820Y-54244717D01*
X136835283Y-54416180D01*
X137036903Y-54550898D01*
X137260931Y-54643693D01*
X137498757Y-54691000D01*
X137741243Y-54691000D01*
X137979069Y-54643693D01*
X138203097Y-54550898D01*
X138404717Y-54416180D01*
X138576180Y-54244717D01*
X138710898Y-54043097D01*
X138760611Y-53923078D01*
X156219000Y-53923078D01*
X156219000Y-54076922D01*
X156249013Y-54227809D01*
X156307887Y-54369942D01*
X156393358Y-54497859D01*
X156502141Y-54606642D01*
X156630058Y-54692113D01*
X156772191Y-54750987D01*
X156923078Y-54781000D01*
X157076922Y-54781000D01*
X157227809Y-54750987D01*
X157369942Y-54692113D01*
X157497859Y-54606642D01*
X157606642Y-54497859D01*
X157692113Y-54369942D01*
X157750987Y-54227809D01*
X157781000Y-54076922D01*
X157781000Y-53923078D01*
X157750987Y-53772191D01*
X157692113Y-53630058D01*
X157606642Y-53502141D01*
X157497859Y-53393358D01*
X157369942Y-53307887D01*
X157227809Y-53249013D01*
X157076922Y-53219000D01*
X156923078Y-53219000D01*
X156772191Y-53249013D01*
X156630058Y-53307887D01*
X156502141Y-53393358D01*
X156393358Y-53502141D01*
X156307887Y-53630058D01*
X156249013Y-53772191D01*
X156219000Y-53923078D01*
X138760611Y-53923078D01*
X138803693Y-53819069D01*
X138851000Y-53581243D01*
X138851000Y-53338757D01*
X138803693Y-53100931D01*
X138710898Y-52876903D01*
X138576180Y-52675283D01*
X138404717Y-52503820D01*
X138203097Y-52369102D01*
X137979069Y-52276307D01*
X137741243Y-52229000D01*
X137498757Y-52229000D01*
X137260931Y-52276307D01*
X137036903Y-52369102D01*
X136835283Y-52503820D01*
X136663820Y-52675283D01*
X136529102Y-52876903D01*
X136436307Y-53100931D01*
X136389000Y-53338757D01*
X125756834Y-53338757D01*
X126340220Y-52755372D01*
X126359527Y-52739527D01*
X126422759Y-52662479D01*
X126469745Y-52574575D01*
X126469745Y-52574574D01*
X126498678Y-52479194D01*
X126499652Y-52469306D01*
X126506000Y-52404854D01*
X126506000Y-52404847D01*
X126508447Y-52380001D01*
X126506000Y-52355155D01*
X126506000Y-50798757D01*
X136389000Y-50798757D01*
X136389000Y-51041243D01*
X136436307Y-51279069D01*
X136529102Y-51503097D01*
X136663820Y-51704717D01*
X136835283Y-51876180D01*
X137036903Y-52010898D01*
X137260931Y-52103693D01*
X137498757Y-52151000D01*
X137741243Y-52151000D01*
X137979069Y-52103693D01*
X138203097Y-52010898D01*
X138404717Y-51876180D01*
X138576180Y-51704717D01*
X138710898Y-51503097D01*
X138803693Y-51279069D01*
X138851000Y-51041243D01*
X138851000Y-50798757D01*
X138803693Y-50560931D01*
X138710898Y-50336903D01*
X138576180Y-50135283D01*
X138404717Y-49963820D01*
X138203097Y-49829102D01*
X137979069Y-49736307D01*
X137741243Y-49689000D01*
X137498757Y-49689000D01*
X137260931Y-49736307D01*
X137036903Y-49829102D01*
X136835283Y-49963820D01*
X136663820Y-50135283D01*
X136529102Y-50336903D01*
X136436307Y-50560931D01*
X136389000Y-50798757D01*
X126506000Y-50798757D01*
X126506000Y-48258757D01*
X136389000Y-48258757D01*
X136389000Y-48501243D01*
X136436307Y-48739069D01*
X136529102Y-48963097D01*
X136663820Y-49164717D01*
X136835283Y-49336180D01*
X137036903Y-49470898D01*
X137260931Y-49563693D01*
X137498757Y-49611000D01*
X137741243Y-49611000D01*
X137979069Y-49563693D01*
X138203097Y-49470898D01*
X138404717Y-49336180D01*
X138576180Y-49164717D01*
X138710898Y-48963097D01*
X138803693Y-48739069D01*
X138851000Y-48501243D01*
X138851000Y-48258757D01*
X138803693Y-48020931D01*
X138710898Y-47796903D01*
X138576180Y-47595283D01*
X138404717Y-47423820D01*
X138203097Y-47289102D01*
X137979069Y-47196307D01*
X137741243Y-47149000D01*
X137498757Y-47149000D01*
X137260931Y-47196307D01*
X137036903Y-47289102D01*
X136835283Y-47423820D01*
X136663820Y-47595283D01*
X136529102Y-47796903D01*
X136436307Y-48020931D01*
X136389000Y-48258757D01*
X126506000Y-48258757D01*
X126506000Y-48195485D01*
X128982728Y-45718757D01*
X136389000Y-45718757D01*
X136389000Y-45961243D01*
X136436307Y-46199069D01*
X136529102Y-46423097D01*
X136663820Y-46624717D01*
X136835283Y-46796180D01*
X137036903Y-46930898D01*
X137260931Y-47023693D01*
X137498757Y-47071000D01*
X137741243Y-47071000D01*
X137979069Y-47023693D01*
X138203097Y-46930898D01*
X138404717Y-46796180D01*
X138576180Y-46624717D01*
X138710898Y-46423097D01*
X138803693Y-46199069D01*
X138851000Y-45961243D01*
X138851000Y-45718757D01*
X138803693Y-45480931D01*
X138710898Y-45256903D01*
X138576180Y-45055283D01*
X138404717Y-44883820D01*
X138203097Y-44749102D01*
X137979069Y-44656307D01*
X137741243Y-44609000D01*
X137498757Y-44609000D01*
X137260931Y-44656307D01*
X137036903Y-44749102D01*
X136835283Y-44883820D01*
X136663820Y-45055283D01*
X136529102Y-45256903D01*
X136436307Y-45480931D01*
X136389000Y-45718757D01*
X128982728Y-45718757D01*
X131522728Y-43178757D01*
X136389000Y-43178757D01*
X136389000Y-43421243D01*
X136436307Y-43659069D01*
X136529102Y-43883097D01*
X136663820Y-44084717D01*
X136835283Y-44256180D01*
X137036903Y-44390898D01*
X137260931Y-44483693D01*
X137498757Y-44531000D01*
X137741243Y-44531000D01*
X137979069Y-44483693D01*
X138203097Y-44390898D01*
X138404717Y-44256180D01*
X138576180Y-44084717D01*
X138710898Y-43883097D01*
X138803693Y-43659069D01*
X138851000Y-43421243D01*
X138851000Y-43178757D01*
X138803693Y-42940931D01*
X138710898Y-42716903D01*
X138576180Y-42515283D01*
X138404717Y-42343820D01*
X138203097Y-42209102D01*
X137979069Y-42116307D01*
X137741243Y-42069000D01*
X137498757Y-42069000D01*
X137260931Y-42116307D01*
X137036903Y-42209102D01*
X136835283Y-42343820D01*
X136663820Y-42515283D01*
X136529102Y-42716903D01*
X136436307Y-42940931D01*
X136389000Y-43178757D01*
X131522728Y-43178757D01*
X133049385Y-41652100D01*
X136907505Y-41652100D01*
X136999523Y-41830078D01*
X137220207Y-41930566D01*
X137456255Y-41986069D01*
X137698596Y-41994456D01*
X137937917Y-41955402D01*
X138165020Y-41870411D01*
X138240477Y-41830078D01*
X138332495Y-41652100D01*
X137620000Y-40939605D01*
X136907505Y-41652100D01*
X133049385Y-41652100D01*
X133862889Y-40838596D01*
X136385544Y-40838596D01*
X136424598Y-41077917D01*
X136509589Y-41305020D01*
X136549922Y-41380477D01*
X136727900Y-41472495D01*
X137440395Y-40760000D01*
X137799605Y-40760000D01*
X138512100Y-41472495D01*
X138690078Y-41380477D01*
X138790566Y-41159793D01*
X138846069Y-40923745D01*
X138854456Y-40681404D01*
X138815402Y-40442083D01*
X138730411Y-40214980D01*
X138690078Y-40139523D01*
X138512100Y-40047505D01*
X137799605Y-40760000D01*
X137440395Y-40760000D01*
X136727900Y-40047505D01*
X136549922Y-40139523D01*
X136449434Y-40360207D01*
X136393931Y-40596255D01*
X136385544Y-40838596D01*
X133862889Y-40838596D01*
X134833585Y-39867900D01*
X136907505Y-39867900D01*
X137620000Y-40580395D01*
X138332495Y-39867900D01*
X138240477Y-39689922D01*
X138019793Y-39589434D01*
X137783745Y-39533931D01*
X137541404Y-39525544D01*
X137302083Y-39564598D01*
X137074980Y-39649589D01*
X136999523Y-39689922D01*
X136907505Y-39867900D01*
X134833585Y-39867900D01*
X136387157Y-38314329D01*
X136387157Y-38645000D01*
X136402679Y-38802602D01*
X136448650Y-38954148D01*
X136523303Y-39093814D01*
X136623769Y-39216231D01*
X136746186Y-39316697D01*
X136885852Y-39391350D01*
X137037398Y-39437321D01*
X137195000Y-39452843D01*
X138045000Y-39452843D01*
X138202602Y-39437321D01*
X138354148Y-39391350D01*
X138493814Y-39316697D01*
X138616231Y-39216231D01*
X138716697Y-39093814D01*
X138791350Y-38954148D01*
X138837321Y-38802602D01*
X138852843Y-38645000D01*
X138852843Y-37795000D01*
X138837321Y-37637398D01*
X138791350Y-37485852D01*
X138716697Y-37346186D01*
X138616231Y-37223769D01*
X138493814Y-37123303D01*
X138354148Y-37048650D01*
X138202602Y-37002679D01*
X138045000Y-36987157D01*
X137714329Y-36987157D01*
X138195486Y-36506000D01*
X152790409Y-36506000D01*
X153494000Y-37209592D01*
X153494001Y-48975144D01*
X153491553Y-49000000D01*
X153501322Y-49099192D01*
X153530255Y-49194574D01*
X153538827Y-49210610D01*
X153577242Y-49282479D01*
X153640474Y-49359527D01*
X153659781Y-49375372D01*
X155889580Y-51605172D01*
X155905425Y-51624479D01*
X155982473Y-51687711D01*
X156070377Y-51734697D01*
X156165759Y-51763630D01*
X156264952Y-51773400D01*
X156289806Y-51770952D01*
X158055361Y-51770952D01*
X160219000Y-53934592D01*
X160219000Y-54076922D01*
X160249013Y-54227809D01*
X160307887Y-54369942D01*
X160393358Y-54497859D01*
X160502141Y-54606642D01*
X160630058Y-54692113D01*
X160772191Y-54750987D01*
X160923078Y-54781000D01*
X161076922Y-54781000D01*
X161227809Y-54750987D01*
X161369000Y-54692503D01*
X161369001Y-63369000D01*
X156756344Y-63369000D01*
X156625351Y-63238007D01*
X156464678Y-63130649D01*
X156286147Y-63056699D01*
X156096620Y-63019000D01*
X155903380Y-63019000D01*
X155713853Y-63056699D01*
X155535322Y-63130649D01*
X155374649Y-63238007D01*
X155238007Y-63374649D01*
X155130649Y-63535322D01*
X155056699Y-63713853D01*
X155019000Y-63903380D01*
X155019000Y-64096620D01*
X155056699Y-64286147D01*
X155130649Y-64464678D01*
X155238007Y-64625351D01*
X155374649Y-64761993D01*
X155535322Y-64869351D01*
X155713853Y-64943301D01*
X155740172Y-64948536D01*
X155737769Y-64960616D01*
X155737769Y-65102946D01*
X154346716Y-66494000D01*
X143209592Y-66494000D01*
X138860375Y-62144784D01*
X138844526Y-62125472D01*
X138767478Y-62062240D01*
X138679574Y-62015254D01*
X138584192Y-61986321D01*
X138509853Y-61978999D01*
X138509845Y-61978999D01*
X138484999Y-61976552D01*
X138462089Y-61978808D01*
X138576180Y-61864717D01*
X138710898Y-61663097D01*
X138803693Y-61439069D01*
X138851000Y-61201243D01*
X138851000Y-60958757D01*
X138803693Y-60720931D01*
X138710898Y-60496903D01*
X138576180Y-60295283D01*
X138404717Y-60123820D01*
X138203097Y-59989102D01*
X137979069Y-59896307D01*
X137741243Y-59849000D01*
X137498757Y-59849000D01*
X137260931Y-59896307D01*
X137036903Y-59989102D01*
X136835283Y-60123820D01*
X136663820Y-60295283D01*
X136529102Y-60496903D01*
X136436307Y-60720931D01*
X136389000Y-60958757D01*
X136389000Y-61201243D01*
X136436307Y-61439069D01*
X136529102Y-61663097D01*
X136663820Y-61864717D01*
X136778102Y-61978999D01*
X126534591Y-61978999D01*
X123531758Y-58976167D01*
X123563693Y-58899069D01*
X123611000Y-58661243D01*
X123611000Y-58418757D01*
X136389000Y-58418757D01*
X136389000Y-58661243D01*
X136436307Y-58899069D01*
X136529102Y-59123097D01*
X136663820Y-59324717D01*
X136835283Y-59496180D01*
X137036903Y-59630898D01*
X137260931Y-59723693D01*
X137498757Y-59771000D01*
X137741243Y-59771000D01*
X137979069Y-59723693D01*
X138203097Y-59630898D01*
X138404717Y-59496180D01*
X138576180Y-59324717D01*
X138710898Y-59123097D01*
X138803693Y-58899069D01*
X138851000Y-58661243D01*
X138851000Y-58418757D01*
X138803693Y-58180931D01*
X138710898Y-57956903D01*
X138576180Y-57755283D01*
X138404717Y-57583820D01*
X138203097Y-57449102D01*
X137979069Y-57356307D01*
X137741243Y-57309000D01*
X137498757Y-57309000D01*
X137260931Y-57356307D01*
X137036903Y-57449102D01*
X136835283Y-57583820D01*
X136663820Y-57755283D01*
X136529102Y-57956903D01*
X136436307Y-58180931D01*
X136389000Y-58418757D01*
X123611000Y-58418757D01*
X123563693Y-58180931D01*
X123470898Y-57956903D01*
X123336180Y-57755283D01*
X123164717Y-57583820D01*
X122963097Y-57449102D01*
X122739069Y-57356307D01*
X122501243Y-57309000D01*
X122258757Y-57309000D01*
X122020931Y-57356307D01*
X121796903Y-57449102D01*
X121595283Y-57583820D01*
X121423820Y-57755283D01*
X121289102Y-57956903D01*
X121196307Y-58180931D01*
X121149000Y-58418757D01*
X121149000Y-58661243D01*
X121196307Y-58899069D01*
X121289102Y-59123097D01*
X121423820Y-59324717D01*
X121595283Y-59496180D01*
X121796903Y-59630898D01*
X122020931Y-59723693D01*
X122258757Y-59771000D01*
X122501243Y-59771000D01*
X122739069Y-59723693D01*
X122816167Y-59691758D01*
X125949627Y-62825219D01*
X125965472Y-62844526D01*
X126042520Y-62907758D01*
X126130424Y-62954744D01*
X126225805Y-62983677D01*
X126235693Y-62984651D01*
X126300145Y-62990999D01*
X126300152Y-62990999D01*
X126324998Y-62993446D01*
X126349844Y-62990999D01*
X136559774Y-62990999D01*
X136529102Y-63036903D01*
X136436307Y-63260931D01*
X136389000Y-63498757D01*
X136389000Y-63741243D01*
X136436307Y-63979069D01*
X136529102Y-64203097D01*
X136663820Y-64404717D01*
X136778102Y-64518999D01*
X126534591Y-64518999D01*
X123531758Y-61516167D01*
X123563693Y-61439069D01*
X123611000Y-61201243D01*
X123611000Y-60958757D01*
X123563693Y-60720931D01*
X123470898Y-60496903D01*
X123336180Y-60295283D01*
X123164717Y-60123820D01*
X122963097Y-59989102D01*
X122739069Y-59896307D01*
X122501243Y-59849000D01*
X122258757Y-59849000D01*
X122020931Y-59896307D01*
X121796903Y-59989102D01*
X121595283Y-60123820D01*
X121423820Y-60295283D01*
X121289102Y-60496903D01*
X121196307Y-60720931D01*
X121149000Y-60958757D01*
X121149000Y-61201243D01*
X121196307Y-61439069D01*
X121289102Y-61663097D01*
X121423820Y-61864717D01*
X121595283Y-62036180D01*
X121796903Y-62170898D01*
X122020931Y-62263693D01*
X122258757Y-62311000D01*
X122501243Y-62311000D01*
X122739069Y-62263693D01*
X122816167Y-62231758D01*
X125949627Y-65365219D01*
X125965472Y-65384526D01*
X126042520Y-65447758D01*
X126130424Y-65494744D01*
X126225805Y-65523677D01*
X126235693Y-65524651D01*
X126300145Y-65530999D01*
X126300152Y-65530999D01*
X126324998Y-65533446D01*
X126349844Y-65530999D01*
X136559774Y-65530999D01*
X136529102Y-65576903D01*
X136436307Y-65800931D01*
X136389000Y-66038757D01*
X136389000Y-66281243D01*
X136436307Y-66519069D01*
X136529102Y-66743097D01*
X136663820Y-66944717D01*
X136778102Y-67058999D01*
X126534591Y-67058999D01*
X123531758Y-64056167D01*
X123563693Y-63979069D01*
X123611000Y-63741243D01*
X123611000Y-63498757D01*
X123563693Y-63260931D01*
X123470898Y-63036903D01*
X123336180Y-62835283D01*
X123164717Y-62663820D01*
X122963097Y-62529102D01*
X122739069Y-62436307D01*
X122501243Y-62389000D01*
X122258757Y-62389000D01*
X122020931Y-62436307D01*
X121796903Y-62529102D01*
X121595283Y-62663820D01*
X121423820Y-62835283D01*
X121289102Y-63036903D01*
X121196307Y-63260931D01*
X121149000Y-63498757D01*
X121149000Y-63741243D01*
X121196307Y-63979069D01*
X121289102Y-64203097D01*
X121423820Y-64404717D01*
X121595283Y-64576180D01*
X121796903Y-64710898D01*
X122020931Y-64803693D01*
X122258757Y-64851000D01*
X122501243Y-64851000D01*
X122739069Y-64803693D01*
X122816167Y-64771758D01*
X125949627Y-67905219D01*
X125965472Y-67924526D01*
X126042520Y-67987758D01*
X126122026Y-68030255D01*
X126130424Y-68034744D01*
X126225805Y-68063677D01*
X126235693Y-68064651D01*
X126300145Y-68070999D01*
X126300152Y-68070999D01*
X126324998Y-68073446D01*
X126349844Y-68070999D01*
X136559774Y-68070999D01*
X136529102Y-68116903D01*
X136436307Y-68340931D01*
X136389000Y-68578757D01*
X136389000Y-68821243D01*
X136436307Y-69059069D01*
X136529102Y-69283097D01*
X136663820Y-69484717D01*
X136673103Y-69494000D01*
X126429592Y-69494000D01*
X123531758Y-66596167D01*
X123563693Y-66519069D01*
X123611000Y-66281243D01*
X123611000Y-66038757D01*
X123563693Y-65800931D01*
X123470898Y-65576903D01*
X123336180Y-65375283D01*
X123164717Y-65203820D01*
X122963097Y-65069102D01*
X122739069Y-64976307D01*
X122501243Y-64929000D01*
X122258757Y-64929000D01*
X122020931Y-64976307D01*
X121796903Y-65069102D01*
X121595283Y-65203820D01*
X121423820Y-65375283D01*
X121289102Y-65576903D01*
X121196307Y-65800931D01*
X121149000Y-66038757D01*
X121149000Y-66281243D01*
X121196307Y-66519069D01*
X121289102Y-66743097D01*
X121423820Y-66944717D01*
X121595283Y-67116180D01*
X121796903Y-67250898D01*
X122020931Y-67343693D01*
X122258757Y-67391000D01*
X122501243Y-67391000D01*
X122739069Y-67343693D01*
X122816167Y-67311758D01*
X125844628Y-70340220D01*
X125860473Y-70359527D01*
X125937521Y-70422759D01*
X126025425Y-70469745D01*
X126120807Y-70498678D01*
X126195146Y-70506000D01*
X126195153Y-70506000D01*
X126219999Y-70508447D01*
X126244845Y-70506000D01*
X136629932Y-70506000D01*
X136529102Y-70656903D01*
X136436307Y-70880931D01*
X136389000Y-71118757D01*
X136389000Y-71361243D01*
X136425067Y-71542564D01*
X132575733Y-75391899D01*
X132551658Y-75411657D01*
X132531900Y-75435732D01*
X132531897Y-75435735D01*
X132472804Y-75507740D01*
X132414211Y-75617359D01*
X132378130Y-75736303D01*
X132365948Y-75860000D01*
X132369001Y-75891000D01*
X132369000Y-79369000D01*
X130430990Y-79369000D01*
X130400000Y-79365948D01*
X130369009Y-79369000D01*
X130369002Y-79369000D01*
X130276302Y-79378130D01*
X130157358Y-79414211D01*
X130047739Y-79472804D01*
X129976172Y-79531538D01*
X129951657Y-79551657D01*
X129931899Y-79575732D01*
X126830079Y-82677553D01*
X126722191Y-82699013D01*
X126580058Y-82757887D01*
X126452141Y-82843358D01*
X126343358Y-82952141D01*
X126257887Y-83080058D01*
X126199013Y-83222191D01*
X126169000Y-83373078D01*
X126169000Y-83526922D01*
X126199013Y-83677809D01*
X126257887Y-83819942D01*
X126343358Y-83947859D01*
X126452141Y-84056642D01*
X126580058Y-84142113D01*
X126722191Y-84200987D01*
X126873078Y-84231000D01*
X127026922Y-84231000D01*
X127177809Y-84200987D01*
X127319942Y-84142113D01*
X127447859Y-84056642D01*
X127556642Y-83947859D01*
X127642113Y-83819942D01*
X127700987Y-83677809D01*
X127722447Y-83569921D01*
X128142368Y-83150000D01*
X144767157Y-83150000D01*
X144767157Y-84850000D01*
X144774513Y-84924689D01*
X144796299Y-84996508D01*
X144831678Y-85062696D01*
X144879289Y-85120711D01*
X144937304Y-85168322D01*
X145003492Y-85203701D01*
X145075311Y-85225487D01*
X145150000Y-85232843D01*
X146850000Y-85232843D01*
X146924689Y-85225487D01*
X146996508Y-85203701D01*
X147062696Y-85168322D01*
X147120711Y-85120711D01*
X147168322Y-85062696D01*
X147203701Y-84996508D01*
X147225487Y-84924689D01*
X147232843Y-84850000D01*
X147232843Y-84000000D01*
X147303044Y-84000000D01*
X147326812Y-84241318D01*
X147397202Y-84473363D01*
X147511509Y-84687216D01*
X147665340Y-84874660D01*
X147852784Y-85028491D01*
X148066637Y-85142798D01*
X148298682Y-85213188D01*
X148479528Y-85231000D01*
X148600472Y-85231000D01*
X148781318Y-85213188D01*
X149013363Y-85142798D01*
X149227216Y-85028491D01*
X149414660Y-84874660D01*
X149568491Y-84687216D01*
X149682798Y-84473363D01*
X149753188Y-84241318D01*
X149776956Y-84000000D01*
X149769380Y-83923078D01*
X156219000Y-83923078D01*
X156219000Y-84076922D01*
X156249013Y-84227809D01*
X156307887Y-84369942D01*
X156393358Y-84497859D01*
X156502141Y-84606642D01*
X156630058Y-84692113D01*
X156772191Y-84750987D01*
X156923078Y-84781000D01*
X157076922Y-84781000D01*
X157227809Y-84750987D01*
X157369942Y-84692113D01*
X157497859Y-84606642D01*
X157606642Y-84497859D01*
X157692113Y-84369942D01*
X157750987Y-84227809D01*
X157781000Y-84076922D01*
X157781000Y-83923078D01*
X157750987Y-83772191D01*
X157692113Y-83630058D01*
X157606642Y-83502141D01*
X157497859Y-83393358D01*
X157369942Y-83307887D01*
X157227809Y-83249013D01*
X157076922Y-83219000D01*
X156923078Y-83219000D01*
X156772191Y-83249013D01*
X156630058Y-83307887D01*
X156502141Y-83393358D01*
X156393358Y-83502141D01*
X156307887Y-83630058D01*
X156249013Y-83772191D01*
X156219000Y-83923078D01*
X149769380Y-83923078D01*
X149753188Y-83758682D01*
X149682798Y-83526637D01*
X149568491Y-83312784D01*
X149414660Y-83125340D01*
X149227216Y-82971509D01*
X149013363Y-82857202D01*
X148781318Y-82786812D01*
X148600472Y-82769000D01*
X148479528Y-82769000D01*
X148298682Y-82786812D01*
X148066637Y-82857202D01*
X147852784Y-82971509D01*
X147665340Y-83125340D01*
X147511509Y-83312784D01*
X147397202Y-83526637D01*
X147326812Y-83758682D01*
X147303044Y-84000000D01*
X147232843Y-84000000D01*
X147232843Y-83150000D01*
X147225487Y-83075311D01*
X147203701Y-83003492D01*
X147168322Y-82937304D01*
X147120711Y-82879289D01*
X147062696Y-82831678D01*
X146996508Y-82796299D01*
X146924689Y-82774513D01*
X146850000Y-82767157D01*
X145150000Y-82767157D01*
X145075311Y-82774513D01*
X145003492Y-82796299D01*
X144937304Y-82831678D01*
X144879289Y-82879289D01*
X144831678Y-82937304D01*
X144796299Y-83003492D01*
X144774513Y-83075311D01*
X144767157Y-83150000D01*
X128142368Y-83150000D01*
X130661369Y-80631000D01*
X132538595Y-80631000D01*
X132630058Y-80692113D01*
X132772191Y-80750987D01*
X132923078Y-80781000D01*
X133076922Y-80781000D01*
X133227809Y-80750987D01*
X133369942Y-80692113D01*
X133497859Y-80606642D01*
X133606642Y-80497859D01*
X133692113Y-80369942D01*
X133750987Y-80227809D01*
X133781000Y-80076922D01*
X133781000Y-79923078D01*
X133750987Y-79772191D01*
X133692113Y-79630058D01*
X133631000Y-79538595D01*
X133631000Y-77058078D01*
X145584000Y-77058078D01*
X145584000Y-77211922D01*
X145614013Y-77362809D01*
X145672887Y-77504942D01*
X145758358Y-77632859D01*
X145867141Y-77741642D01*
X145995058Y-77827113D01*
X146137191Y-77885987D01*
X146288078Y-77916000D01*
X146441922Y-77916000D01*
X146592809Y-77885987D01*
X146734942Y-77827113D01*
X146862859Y-77741642D01*
X146971642Y-77632859D01*
X147057113Y-77504942D01*
X147115987Y-77362809D01*
X147137447Y-77254921D01*
X150424269Y-73968100D01*
X150448343Y-73948343D01*
X150527196Y-73852261D01*
X150585789Y-73742642D01*
X150621870Y-73623698D01*
X150631000Y-73530998D01*
X150631000Y-73530989D01*
X150634052Y-73500001D01*
X150631000Y-73469013D01*
X150631000Y-73461405D01*
X150692113Y-73369942D01*
X150750987Y-73227809D01*
X150781000Y-73076922D01*
X150781000Y-72923078D01*
X150750987Y-72772191D01*
X150692113Y-72630058D01*
X150606642Y-72502141D01*
X150497859Y-72393358D01*
X150369942Y-72307887D01*
X150227809Y-72249013D01*
X150076922Y-72219000D01*
X149923078Y-72219000D01*
X149772191Y-72249013D01*
X149630058Y-72307887D01*
X149502141Y-72393358D01*
X149393358Y-72502141D01*
X149307887Y-72630058D01*
X149249013Y-72772191D01*
X149219000Y-72923078D01*
X149219000Y-73076922D01*
X149249013Y-73227809D01*
X149287326Y-73320305D01*
X146245079Y-76362553D01*
X146137191Y-76384013D01*
X145995058Y-76442887D01*
X145867141Y-76528358D01*
X145758358Y-76637141D01*
X145672887Y-76765058D01*
X145614013Y-76907191D01*
X145584000Y-77058078D01*
X133631000Y-77058078D01*
X133631000Y-76121368D01*
X136510460Y-73241908D01*
X136436307Y-73420931D01*
X136389000Y-73658757D01*
X136389000Y-73901243D01*
X136436307Y-74139069D01*
X136529102Y-74363097D01*
X136663820Y-74564717D01*
X136835283Y-74736180D01*
X137036903Y-74870898D01*
X137260931Y-74963693D01*
X137498757Y-75011000D01*
X137741243Y-75011000D01*
X137979069Y-74963693D01*
X138203097Y-74870898D01*
X138404717Y-74736180D01*
X138576180Y-74564717D01*
X138710898Y-74363097D01*
X138803693Y-74139069D01*
X138851000Y-73901243D01*
X138851000Y-73658757D01*
X138803693Y-73420931D01*
X138710898Y-73196903D01*
X138576180Y-72995283D01*
X138404717Y-72823820D01*
X138203097Y-72689102D01*
X137979069Y-72596307D01*
X137741243Y-72549000D01*
X137498757Y-72549000D01*
X137260931Y-72596307D01*
X137081909Y-72670460D01*
X137317436Y-72434933D01*
X137498757Y-72471000D01*
X137741243Y-72471000D01*
X137979069Y-72423693D01*
X138203097Y-72330898D01*
X138404717Y-72196180D01*
X138576180Y-72024717D01*
X138678890Y-71871000D01*
X154729010Y-71871000D01*
X154760000Y-71874052D01*
X154790990Y-71871000D01*
X154790998Y-71871000D01*
X154883698Y-71861870D01*
X155002642Y-71825789D01*
X155092074Y-71777986D01*
X155227809Y-71750987D01*
X155369942Y-71692113D01*
X155494000Y-71609220D01*
X155494001Y-75790407D01*
X154159785Y-77124624D01*
X154140473Y-77140473D01*
X154077241Y-77217521D01*
X154030255Y-77305426D01*
X154001322Y-77400808D01*
X153994000Y-77475147D01*
X153994000Y-77475154D01*
X153991553Y-77500000D01*
X153994000Y-77524846D01*
X153994001Y-79475144D01*
X153991553Y-79500000D01*
X154001322Y-79599192D01*
X154030255Y-79694574D01*
X154030256Y-79694575D01*
X154077242Y-79782479D01*
X154140474Y-79859527D01*
X154159780Y-79875372D01*
X155624628Y-81340220D01*
X155640473Y-81359527D01*
X155717521Y-81422759D01*
X155805425Y-81469745D01*
X155878607Y-81491944D01*
X155900806Y-81498678D01*
X155910694Y-81499652D01*
X155975146Y-81506000D01*
X155975153Y-81506000D01*
X155999999Y-81508447D01*
X156024845Y-81506000D01*
X157790409Y-81506000D01*
X160219000Y-83934592D01*
X160219000Y-84076922D01*
X160249013Y-84227809D01*
X160307887Y-84369942D01*
X160393358Y-84497859D01*
X160502141Y-84606642D01*
X160630058Y-84692113D01*
X160772191Y-84750987D01*
X160923078Y-84781000D01*
X161076922Y-84781000D01*
X161227809Y-84750987D01*
X161369942Y-84692113D01*
X161497859Y-84606642D01*
X161606642Y-84497859D01*
X161692113Y-84369942D01*
X161750987Y-84227809D01*
X161781000Y-84076922D01*
X161781000Y-83936980D01*
X163810511Y-83936980D01*
X163834866Y-84017288D01*
X163934761Y-84236961D01*
X164075592Y-84432924D01*
X164251948Y-84597647D01*
X164457051Y-84724799D01*
X164683019Y-84809495D01*
X164873000Y-84749187D01*
X164873000Y-83747000D01*
X165127000Y-83747000D01*
X165127000Y-84749187D01*
X165316981Y-84809495D01*
X165542949Y-84724799D01*
X165748052Y-84597647D01*
X165924408Y-84432924D01*
X166065239Y-84236961D01*
X166165134Y-84017288D01*
X166189489Y-83936980D01*
X166128627Y-83747000D01*
X165127000Y-83747000D01*
X164873000Y-83747000D01*
X163871373Y-83747000D01*
X163810511Y-83936980D01*
X161781000Y-83936980D01*
X161781000Y-83923078D01*
X161750987Y-83772191D01*
X161692113Y-83630058D01*
X161606642Y-83502141D01*
X161497859Y-83393358D01*
X161369942Y-83307887D01*
X161358193Y-83303020D01*
X163810511Y-83303020D01*
X163871373Y-83493000D01*
X164873000Y-83493000D01*
X164873000Y-82490813D01*
X165127000Y-82490813D01*
X165127000Y-83493000D01*
X166128627Y-83493000D01*
X166189489Y-83303020D01*
X166165134Y-83222712D01*
X166065239Y-83003039D01*
X165924408Y-82807076D01*
X165748052Y-82642353D01*
X165542949Y-82515201D01*
X165316981Y-82430505D01*
X165127000Y-82490813D01*
X164873000Y-82490813D01*
X164683019Y-82430505D01*
X164457051Y-82515201D01*
X164251948Y-82642353D01*
X164075592Y-82807076D01*
X163934761Y-83003039D01*
X163834866Y-83222712D01*
X163810511Y-83303020D01*
X161358193Y-83303020D01*
X161227809Y-83249013D01*
X161076922Y-83219000D01*
X160934592Y-83219000D01*
X158795592Y-81080000D01*
X163763044Y-81080000D01*
X163786812Y-81321318D01*
X163857202Y-81553363D01*
X163971509Y-81767216D01*
X164125340Y-81954660D01*
X164312784Y-82108491D01*
X164526637Y-82222798D01*
X164758682Y-82293188D01*
X164939528Y-82311000D01*
X165060472Y-82311000D01*
X165241318Y-82293188D01*
X165473363Y-82222798D01*
X165687216Y-82108491D01*
X165874660Y-81954660D01*
X166028491Y-81767216D01*
X166142798Y-81553363D01*
X166213188Y-81321318D01*
X166236956Y-81080000D01*
X166213188Y-80838682D01*
X166142798Y-80606637D01*
X166028491Y-80392784D01*
X165874660Y-80205340D01*
X165687216Y-80051509D01*
X165473363Y-79937202D01*
X165241318Y-79866812D01*
X165060472Y-79849000D01*
X164939528Y-79849000D01*
X164758682Y-79866812D01*
X164526637Y-79937202D01*
X164312784Y-80051509D01*
X164125340Y-80205340D01*
X163971509Y-80392784D01*
X163857202Y-80606637D01*
X163786812Y-80838682D01*
X163763044Y-81080000D01*
X158795592Y-81080000D01*
X158375376Y-80659785D01*
X158359527Y-80640473D01*
X158282479Y-80577241D01*
X158194575Y-80530255D01*
X158099193Y-80501322D01*
X158024854Y-80494000D01*
X158024846Y-80494000D01*
X158000000Y-80491553D01*
X157975154Y-80494000D01*
X157153071Y-80494000D01*
X157210882Y-80407480D01*
X157269756Y-80265347D01*
X157299769Y-80114460D01*
X157299769Y-79960616D01*
X157269756Y-79809729D01*
X157210882Y-79667596D01*
X157125411Y-79539679D01*
X157016628Y-79430896D01*
X156912236Y-79361144D01*
X156943301Y-79286147D01*
X156981000Y-79096620D01*
X156981000Y-78911368D01*
X157035388Y-78856980D01*
X163810511Y-78856980D01*
X163834866Y-78937288D01*
X163934761Y-79156961D01*
X164075592Y-79352924D01*
X164251948Y-79517647D01*
X164457051Y-79644799D01*
X164683019Y-79729495D01*
X164873000Y-79669187D01*
X164873000Y-78667000D01*
X165127000Y-78667000D01*
X165127000Y-79669187D01*
X165316981Y-79729495D01*
X165542949Y-79644799D01*
X165748052Y-79517647D01*
X165924408Y-79352924D01*
X166065239Y-79156961D01*
X166165134Y-78937288D01*
X166189489Y-78856980D01*
X166128627Y-78667000D01*
X165127000Y-78667000D01*
X164873000Y-78667000D01*
X163871373Y-78667000D01*
X163810511Y-78856980D01*
X157035388Y-78856980D01*
X157669348Y-78223020D01*
X163810511Y-78223020D01*
X163871373Y-78413000D01*
X164873000Y-78413000D01*
X164873000Y-77410813D01*
X165127000Y-77410813D01*
X165127000Y-78413000D01*
X166128627Y-78413000D01*
X166189489Y-78223020D01*
X166165134Y-78142712D01*
X166065239Y-77923039D01*
X165924408Y-77727076D01*
X165748052Y-77562353D01*
X165542949Y-77435201D01*
X165316981Y-77350505D01*
X165127000Y-77410813D01*
X164873000Y-77410813D01*
X164683019Y-77350505D01*
X164457051Y-77435201D01*
X164251948Y-77562353D01*
X164075592Y-77727076D01*
X163934761Y-77923039D01*
X163834866Y-78142712D01*
X163810511Y-78223020D01*
X157669348Y-78223020D01*
X160742368Y-75150000D01*
X163767157Y-75150000D01*
X163767157Y-76850000D01*
X163774513Y-76924689D01*
X163796299Y-76996508D01*
X163831678Y-77062696D01*
X163879289Y-77120711D01*
X163937304Y-77168322D01*
X164003492Y-77203701D01*
X164075311Y-77225487D01*
X164150000Y-77232843D01*
X165850000Y-77232843D01*
X165924689Y-77225487D01*
X165996508Y-77203701D01*
X166062696Y-77168322D01*
X166120711Y-77120711D01*
X166168322Y-77062696D01*
X166203701Y-76996508D01*
X166225487Y-76924689D01*
X166232843Y-76850000D01*
X166232843Y-75150000D01*
X166225487Y-75075311D01*
X166203701Y-75003492D01*
X166168322Y-74937304D01*
X166120711Y-74879289D01*
X166062696Y-74831678D01*
X165996508Y-74796299D01*
X165924689Y-74774513D01*
X165850000Y-74767157D01*
X164150000Y-74767157D01*
X164075311Y-74774513D01*
X164003492Y-74796299D01*
X163937304Y-74831678D01*
X163879289Y-74879289D01*
X163831678Y-74937304D01*
X163796299Y-75003492D01*
X163774513Y-75075311D01*
X163767157Y-75150000D01*
X160742368Y-75150000D01*
X162424268Y-73468101D01*
X162448343Y-73448343D01*
X162527196Y-73352261D01*
X162585789Y-73242642D01*
X162621870Y-73123698D01*
X162631000Y-73030998D01*
X162631000Y-73030989D01*
X162634052Y-73000001D01*
X162631000Y-72969013D01*
X162631000Y-68936980D01*
X163810511Y-68936980D01*
X163834866Y-69017288D01*
X163934761Y-69236961D01*
X164075592Y-69432924D01*
X164251948Y-69597647D01*
X164457051Y-69724799D01*
X164683019Y-69809495D01*
X164873000Y-69749187D01*
X164873000Y-68747000D01*
X165127000Y-68747000D01*
X165127000Y-69749187D01*
X165316981Y-69809495D01*
X165542949Y-69724799D01*
X165748052Y-69597647D01*
X165924408Y-69432924D01*
X166065239Y-69236961D01*
X166165134Y-69017288D01*
X166189489Y-68936980D01*
X166128627Y-68747000D01*
X165127000Y-68747000D01*
X164873000Y-68747000D01*
X163871373Y-68747000D01*
X163810511Y-68936980D01*
X162631000Y-68936980D01*
X162631000Y-68303020D01*
X163810511Y-68303020D01*
X163871373Y-68493000D01*
X164873000Y-68493000D01*
X164873000Y-67490813D01*
X165127000Y-67490813D01*
X165127000Y-68493000D01*
X166128627Y-68493000D01*
X166189489Y-68303020D01*
X166165134Y-68222712D01*
X166065239Y-68003039D01*
X165924408Y-67807076D01*
X165748052Y-67642353D01*
X165542949Y-67515201D01*
X165316981Y-67430505D01*
X165127000Y-67490813D01*
X164873000Y-67490813D01*
X164683019Y-67430505D01*
X164457051Y-67515201D01*
X164251948Y-67642353D01*
X164075592Y-67807076D01*
X163934761Y-68003039D01*
X163834866Y-68222712D01*
X163810511Y-68303020D01*
X162631000Y-68303020D01*
X162631000Y-66080000D01*
X163763044Y-66080000D01*
X163786812Y-66321318D01*
X163857202Y-66553363D01*
X163971509Y-66767216D01*
X164125340Y-66954660D01*
X164312784Y-67108491D01*
X164526637Y-67222798D01*
X164758682Y-67293188D01*
X164939528Y-67311000D01*
X165060472Y-67311000D01*
X165241318Y-67293188D01*
X165473363Y-67222798D01*
X165687216Y-67108491D01*
X165874660Y-66954660D01*
X166028491Y-66767216D01*
X166142798Y-66553363D01*
X166213188Y-66321318D01*
X166236956Y-66080000D01*
X166213188Y-65838682D01*
X166142798Y-65606637D01*
X166028491Y-65392784D01*
X165874660Y-65205340D01*
X165687216Y-65051509D01*
X165473363Y-64937202D01*
X165241318Y-64866812D01*
X165060472Y-64849000D01*
X164939528Y-64849000D01*
X164758682Y-64866812D01*
X164526637Y-64937202D01*
X164312784Y-65051509D01*
X164125340Y-65205340D01*
X163971509Y-65392784D01*
X163857202Y-65606637D01*
X163786812Y-65838682D01*
X163763044Y-66080000D01*
X162631000Y-66080000D01*
X162631000Y-64030998D01*
X162634053Y-64000000D01*
X162631000Y-63969002D01*
X162631000Y-63856980D01*
X163810511Y-63856980D01*
X163834866Y-63937288D01*
X163934761Y-64156961D01*
X164075592Y-64352924D01*
X164251948Y-64517647D01*
X164457051Y-64644799D01*
X164683019Y-64729495D01*
X164873000Y-64669187D01*
X164873000Y-63667000D01*
X165127000Y-63667000D01*
X165127000Y-64669187D01*
X165316981Y-64729495D01*
X165542949Y-64644799D01*
X165748052Y-64517647D01*
X165924408Y-64352924D01*
X166065239Y-64156961D01*
X166165134Y-63937288D01*
X166189489Y-63856980D01*
X166128627Y-63667000D01*
X165127000Y-63667000D01*
X164873000Y-63667000D01*
X163871373Y-63667000D01*
X163810511Y-63856980D01*
X162631000Y-63856980D01*
X162631000Y-63223020D01*
X163810511Y-63223020D01*
X163871373Y-63413000D01*
X164873000Y-63413000D01*
X164873000Y-62410813D01*
X165127000Y-62410813D01*
X165127000Y-63413000D01*
X166128627Y-63413000D01*
X166189489Y-63223020D01*
X166165134Y-63142712D01*
X166065239Y-62923039D01*
X165924408Y-62727076D01*
X165748052Y-62562353D01*
X165542949Y-62435201D01*
X165316981Y-62350505D01*
X165127000Y-62410813D01*
X164873000Y-62410813D01*
X164683019Y-62350505D01*
X164457051Y-62435201D01*
X164251948Y-62562353D01*
X164075592Y-62727076D01*
X163934761Y-62923039D01*
X163834866Y-63142712D01*
X163810511Y-63223020D01*
X162631000Y-63223020D01*
X162631000Y-60150000D01*
X163767157Y-60150000D01*
X163767157Y-61850000D01*
X163774513Y-61924689D01*
X163796299Y-61996508D01*
X163831678Y-62062696D01*
X163879289Y-62120711D01*
X163937304Y-62168322D01*
X164003492Y-62203701D01*
X164075311Y-62225487D01*
X164150000Y-62232843D01*
X165850000Y-62232843D01*
X165924689Y-62225487D01*
X165996508Y-62203701D01*
X166062696Y-62168322D01*
X166120711Y-62120711D01*
X166168322Y-62062696D01*
X166203701Y-61996508D01*
X166225487Y-61924689D01*
X166232843Y-61850000D01*
X166232843Y-60150000D01*
X166225487Y-60075311D01*
X166203701Y-60003492D01*
X166168322Y-59937304D01*
X166120711Y-59879289D01*
X166062696Y-59831678D01*
X165996508Y-59796299D01*
X165924689Y-59774513D01*
X165850000Y-59767157D01*
X164150000Y-59767157D01*
X164075311Y-59774513D01*
X164003492Y-59796299D01*
X163937304Y-59831678D01*
X163879289Y-59879289D01*
X163831678Y-59937304D01*
X163796299Y-60003492D01*
X163774513Y-60075311D01*
X163767157Y-60150000D01*
X162631000Y-60150000D01*
X162631000Y-53936980D01*
X163810511Y-53936980D01*
X163834866Y-54017288D01*
X163934761Y-54236961D01*
X164075592Y-54432924D01*
X164251948Y-54597647D01*
X164457051Y-54724799D01*
X164683019Y-54809495D01*
X164873000Y-54749187D01*
X164873000Y-53747000D01*
X165127000Y-53747000D01*
X165127000Y-54749187D01*
X165316981Y-54809495D01*
X165542949Y-54724799D01*
X165748052Y-54597647D01*
X165924408Y-54432924D01*
X166065239Y-54236961D01*
X166165134Y-54017288D01*
X166189489Y-53936980D01*
X166128627Y-53747000D01*
X165127000Y-53747000D01*
X164873000Y-53747000D01*
X163871373Y-53747000D01*
X163810511Y-53936980D01*
X162631000Y-53936980D01*
X162631000Y-53303020D01*
X163810511Y-53303020D01*
X163871373Y-53493000D01*
X164873000Y-53493000D01*
X164873000Y-52490813D01*
X165127000Y-52490813D01*
X165127000Y-53493000D01*
X166128627Y-53493000D01*
X166189489Y-53303020D01*
X166165134Y-53222712D01*
X166065239Y-53003039D01*
X165924408Y-52807076D01*
X165748052Y-52642353D01*
X165542949Y-52515201D01*
X165316981Y-52430505D01*
X165127000Y-52490813D01*
X164873000Y-52490813D01*
X164683019Y-52430505D01*
X164457051Y-52515201D01*
X164251948Y-52642353D01*
X164075592Y-52807076D01*
X163934761Y-53003039D01*
X163834866Y-53222712D01*
X163810511Y-53303020D01*
X162631000Y-53303020D01*
X162631000Y-51080000D01*
X163763044Y-51080000D01*
X163786812Y-51321318D01*
X163857202Y-51553363D01*
X163971509Y-51767216D01*
X164125340Y-51954660D01*
X164312784Y-52108491D01*
X164526637Y-52222798D01*
X164758682Y-52293188D01*
X164939528Y-52311000D01*
X165060472Y-52311000D01*
X165241318Y-52293188D01*
X165473363Y-52222798D01*
X165687216Y-52108491D01*
X165874660Y-51954660D01*
X166028491Y-51767216D01*
X166142798Y-51553363D01*
X166213188Y-51321318D01*
X166236956Y-51080000D01*
X166213188Y-50838682D01*
X166142798Y-50606637D01*
X166028491Y-50392784D01*
X165874660Y-50205340D01*
X165687216Y-50051509D01*
X165473363Y-49937202D01*
X165241318Y-49866812D01*
X165060472Y-49849000D01*
X164939528Y-49849000D01*
X164758682Y-49866812D01*
X164526637Y-49937202D01*
X164312784Y-50051509D01*
X164125340Y-50205340D01*
X163971509Y-50392784D01*
X163857202Y-50606637D01*
X163786812Y-50838682D01*
X163763044Y-51080000D01*
X162631000Y-51080000D01*
X162631000Y-49030998D01*
X162634053Y-49000000D01*
X162631000Y-48969002D01*
X162631000Y-48856980D01*
X163810511Y-48856980D01*
X163834866Y-48937288D01*
X163934761Y-49156961D01*
X164075592Y-49352924D01*
X164251948Y-49517647D01*
X164457051Y-49644799D01*
X164683019Y-49729495D01*
X164873000Y-49669187D01*
X164873000Y-48667000D01*
X165127000Y-48667000D01*
X165127000Y-49669187D01*
X165316981Y-49729495D01*
X165542949Y-49644799D01*
X165748052Y-49517647D01*
X165924408Y-49352924D01*
X166065239Y-49156961D01*
X166165134Y-48937288D01*
X166189489Y-48856980D01*
X166128627Y-48667000D01*
X165127000Y-48667000D01*
X164873000Y-48667000D01*
X163871373Y-48667000D01*
X163810511Y-48856980D01*
X162631000Y-48856980D01*
X162631000Y-48223020D01*
X163810511Y-48223020D01*
X163871373Y-48413000D01*
X164873000Y-48413000D01*
X164873000Y-47410813D01*
X165127000Y-47410813D01*
X165127000Y-48413000D01*
X166128627Y-48413000D01*
X166189489Y-48223020D01*
X166165134Y-48142712D01*
X166065239Y-47923039D01*
X165924408Y-47727076D01*
X165748052Y-47562353D01*
X165542949Y-47435201D01*
X165316981Y-47350505D01*
X165127000Y-47410813D01*
X164873000Y-47410813D01*
X164683019Y-47350505D01*
X164457051Y-47435201D01*
X164251948Y-47562353D01*
X164075592Y-47727076D01*
X163934761Y-47923039D01*
X163834866Y-48142712D01*
X163810511Y-48223020D01*
X162631000Y-48223020D01*
X162631000Y-45150000D01*
X163767157Y-45150000D01*
X163767157Y-46850000D01*
X163774513Y-46924689D01*
X163796299Y-46996508D01*
X163831678Y-47062696D01*
X163879289Y-47120711D01*
X163937304Y-47168322D01*
X164003492Y-47203701D01*
X164075311Y-47225487D01*
X164150000Y-47232843D01*
X165850000Y-47232843D01*
X165924689Y-47225487D01*
X165996508Y-47203701D01*
X166062696Y-47168322D01*
X166120711Y-47120711D01*
X166168322Y-47062696D01*
X166203701Y-46996508D01*
X166225487Y-46924689D01*
X166232843Y-46850000D01*
X166232843Y-45150000D01*
X166225487Y-45075311D01*
X166203701Y-45003492D01*
X166168322Y-44937304D01*
X166120711Y-44879289D01*
X166062696Y-44831678D01*
X165996508Y-44796299D01*
X165924689Y-44774513D01*
X165850000Y-44767157D01*
X164150000Y-44767157D01*
X164075311Y-44774513D01*
X164003492Y-44796299D01*
X163937304Y-44831678D01*
X163879289Y-44879289D01*
X163831678Y-44937304D01*
X163796299Y-45003492D01*
X163774513Y-45075311D01*
X163767157Y-45150000D01*
X162631000Y-45150000D01*
X162631000Y-43030997D01*
X162634053Y-43000000D01*
X162631000Y-42969002D01*
X162631000Y-38936980D01*
X163810511Y-38936980D01*
X163834866Y-39017288D01*
X163934761Y-39236961D01*
X164075592Y-39432924D01*
X164251948Y-39597647D01*
X164457051Y-39724799D01*
X164683019Y-39809495D01*
X164873000Y-39749187D01*
X164873000Y-38747000D01*
X165127000Y-38747000D01*
X165127000Y-39749187D01*
X165316981Y-39809495D01*
X165542949Y-39724799D01*
X165748052Y-39597647D01*
X165924408Y-39432924D01*
X166065239Y-39236961D01*
X166165134Y-39017288D01*
X166189489Y-38936980D01*
X166128627Y-38747000D01*
X165127000Y-38747000D01*
X164873000Y-38747000D01*
X163871373Y-38747000D01*
X163810511Y-38936980D01*
X162631000Y-38936980D01*
X162631000Y-38832196D01*
X162634053Y-38801198D01*
X162621870Y-38677500D01*
X162585789Y-38558556D01*
X162527196Y-38448937D01*
X162468103Y-38376932D01*
X162468101Y-38376930D01*
X162448343Y-38352855D01*
X162424268Y-38333097D01*
X162394191Y-38303020D01*
X163810511Y-38303020D01*
X163871373Y-38493000D01*
X164873000Y-38493000D01*
X164873000Y-37490813D01*
X165127000Y-37490813D01*
X165127000Y-38493000D01*
X166128627Y-38493000D01*
X166189489Y-38303020D01*
X166165134Y-38222712D01*
X166065239Y-38003039D01*
X165924408Y-37807076D01*
X165748052Y-37642353D01*
X165542949Y-37515201D01*
X165316981Y-37430505D01*
X165127000Y-37490813D01*
X164873000Y-37490813D01*
X164683019Y-37430505D01*
X164457051Y-37515201D01*
X164251948Y-37642353D01*
X164075592Y-37807076D01*
X163934761Y-38003039D01*
X163834866Y-38222712D01*
X163810511Y-38303020D01*
X162394191Y-38303020D01*
X160171171Y-36080000D01*
X163763044Y-36080000D01*
X163786812Y-36321318D01*
X163857202Y-36553363D01*
X163971509Y-36767216D01*
X164125340Y-36954660D01*
X164312784Y-37108491D01*
X164526637Y-37222798D01*
X164758682Y-37293188D01*
X164939528Y-37311000D01*
X165060472Y-37311000D01*
X165241318Y-37293188D01*
X165473363Y-37222798D01*
X165687216Y-37108491D01*
X165874660Y-36954660D01*
X166028491Y-36767216D01*
X166142798Y-36553363D01*
X166213188Y-36321318D01*
X166236956Y-36080000D01*
X166213188Y-35838682D01*
X166142798Y-35606637D01*
X166028491Y-35392784D01*
X165874660Y-35205340D01*
X165687216Y-35051509D01*
X165473363Y-34937202D01*
X165241318Y-34866812D01*
X165060472Y-34849000D01*
X164939528Y-34849000D01*
X164758682Y-34866812D01*
X164526637Y-34937202D01*
X164312784Y-35051509D01*
X164125340Y-35205340D01*
X163971509Y-35392784D01*
X163857202Y-35606637D01*
X163786812Y-35838682D01*
X163763044Y-36080000D01*
X160171171Y-36080000D01*
X157948151Y-33856980D01*
X163810511Y-33856980D01*
X163834866Y-33937288D01*
X163934761Y-34156961D01*
X164075592Y-34352924D01*
X164251948Y-34517647D01*
X164457051Y-34644799D01*
X164683019Y-34729495D01*
X164873000Y-34669187D01*
X164873000Y-33667000D01*
X165127000Y-33667000D01*
X165127000Y-34669187D01*
X165316981Y-34729495D01*
X165542949Y-34644799D01*
X165748052Y-34517647D01*
X165924408Y-34352924D01*
X166065239Y-34156961D01*
X166165134Y-33937288D01*
X166189489Y-33856980D01*
X166128627Y-33667000D01*
X165127000Y-33667000D01*
X164873000Y-33667000D01*
X163871373Y-33667000D01*
X163810511Y-33856980D01*
X157948151Y-33856980D01*
X157656897Y-33565727D01*
X157637135Y-33541647D01*
X157541053Y-33462794D01*
X157431434Y-33404201D01*
X157312490Y-33368120D01*
X157219790Y-33358990D01*
X157219782Y-33358990D01*
X157188792Y-33355938D01*
X157157802Y-33358990D01*
X156756344Y-33358990D01*
X156625351Y-33227997D01*
X156617903Y-33223020D01*
X163810511Y-33223020D01*
X163871373Y-33413000D01*
X164873000Y-33413000D01*
X164873000Y-32410813D01*
X165127000Y-32410813D01*
X165127000Y-33413000D01*
X166128627Y-33413000D01*
X166189489Y-33223020D01*
X166165134Y-33142712D01*
X166065239Y-32923039D01*
X165924408Y-32727076D01*
X165748052Y-32562353D01*
X165542949Y-32435201D01*
X165316981Y-32350505D01*
X165127000Y-32410813D01*
X164873000Y-32410813D01*
X164683019Y-32350505D01*
X164457051Y-32435201D01*
X164251948Y-32562353D01*
X164075592Y-32727076D01*
X163934761Y-32923039D01*
X163834866Y-33142712D01*
X163810511Y-33223020D01*
X156617903Y-33223020D01*
X156464678Y-33120639D01*
X156286147Y-33046689D01*
X156096620Y-33008990D01*
X155903380Y-33008990D01*
X155713853Y-33046689D01*
X155535322Y-33120639D01*
X155374649Y-33227997D01*
X155238007Y-33364639D01*
X155130649Y-33525312D01*
X155056699Y-33703843D01*
X155019000Y-33893370D01*
X155019000Y-34086610D01*
X155056699Y-34276137D01*
X155102640Y-34387048D01*
X153375376Y-32659785D01*
X153359527Y-32640473D01*
X153282479Y-32577241D01*
X153194575Y-32530255D01*
X153099193Y-32501322D01*
X153024854Y-32494000D01*
X153024846Y-32494000D01*
X153000000Y-32491553D01*
X152975154Y-32494000D01*
X138024854Y-32494000D01*
X138000000Y-32491552D01*
X137975146Y-32494000D01*
X137900807Y-32501322D01*
X137805425Y-32530255D01*
X137717521Y-32577241D01*
X137640473Y-32640473D01*
X137624628Y-32659780D01*
X122982405Y-47302003D01*
X122963097Y-47289102D01*
X122739069Y-47196307D01*
X122501243Y-47149000D01*
X122258757Y-47149000D01*
X122020931Y-47196307D01*
X121796903Y-47289102D01*
X121595283Y-47423820D01*
X121423820Y-47595283D01*
X121289102Y-47796903D01*
X121196307Y-48020931D01*
X121149000Y-48258757D01*
X120406000Y-48258757D01*
X120406000Y-46732100D01*
X121667505Y-46732100D01*
X121759523Y-46910078D01*
X121980207Y-47010566D01*
X122216255Y-47066069D01*
X122458596Y-47074456D01*
X122697917Y-47035402D01*
X122925020Y-46950411D01*
X123000477Y-46910078D01*
X123092495Y-46732100D01*
X122380000Y-46019605D01*
X121667505Y-46732100D01*
X120406000Y-46732100D01*
X120406000Y-45918596D01*
X121145544Y-45918596D01*
X121184598Y-46157917D01*
X121269589Y-46385020D01*
X121309922Y-46460477D01*
X121487900Y-46552495D01*
X122200395Y-45840000D01*
X122559605Y-45840000D01*
X123272100Y-46552495D01*
X123450078Y-46460477D01*
X123550566Y-46239793D01*
X123606069Y-46003745D01*
X123614456Y-45761404D01*
X123575402Y-45522083D01*
X123490411Y-45294980D01*
X123450078Y-45219523D01*
X123272100Y-45127505D01*
X122559605Y-45840000D01*
X122200395Y-45840000D01*
X121487900Y-45127505D01*
X121309922Y-45219523D01*
X121209434Y-45440207D01*
X121153931Y-45676255D01*
X121145544Y-45918596D01*
X120406000Y-45918596D01*
X120406000Y-44947900D01*
X121667505Y-44947900D01*
X122380000Y-45660395D01*
X123092495Y-44947900D01*
X123000477Y-44769922D01*
X122779793Y-44669434D01*
X122543745Y-44613931D01*
X122301404Y-44605544D01*
X122062083Y-44644598D01*
X121834980Y-44729589D01*
X121759523Y-44769922D01*
X121667505Y-44947900D01*
X120406000Y-44947900D01*
X120406000Y-43178757D01*
X121149000Y-43178757D01*
X121149000Y-43421243D01*
X121196307Y-43659069D01*
X121289102Y-43883097D01*
X121423820Y-44084717D01*
X121595283Y-44256180D01*
X121796903Y-44390898D01*
X122020931Y-44483693D01*
X122258757Y-44531000D01*
X122501243Y-44531000D01*
X122739069Y-44483693D01*
X122963097Y-44390898D01*
X123164717Y-44256180D01*
X123336180Y-44084717D01*
X123470898Y-43883097D01*
X123563693Y-43659069D01*
X123611000Y-43421243D01*
X123611000Y-43178757D01*
X123563693Y-42940931D01*
X123470898Y-42716903D01*
X123336180Y-42515283D01*
X123164717Y-42343820D01*
X122963097Y-42209102D01*
X122739069Y-42116307D01*
X122501243Y-42069000D01*
X122258757Y-42069000D01*
X122020931Y-42116307D01*
X121796903Y-42209102D01*
X121595283Y-42343820D01*
X121423820Y-42515283D01*
X121289102Y-42716903D01*
X121196307Y-42940931D01*
X121149000Y-43178757D01*
X120406000Y-43178757D01*
X120406000Y-40638757D01*
X121149000Y-40638757D01*
X121149000Y-40881243D01*
X121196307Y-41119069D01*
X121289102Y-41343097D01*
X121423820Y-41544717D01*
X121595283Y-41716180D01*
X121796903Y-41850898D01*
X122020931Y-41943693D01*
X122258757Y-41991000D01*
X122501243Y-41991000D01*
X122739069Y-41943693D01*
X122963097Y-41850898D01*
X123164717Y-41716180D01*
X123336180Y-41544717D01*
X123470898Y-41343097D01*
X123563693Y-41119069D01*
X123611000Y-40881243D01*
X123611000Y-40638757D01*
X123563693Y-40400931D01*
X123470898Y-40176903D01*
X123336180Y-39975283D01*
X123164717Y-39803820D01*
X122963097Y-39669102D01*
X122739069Y-39576307D01*
X122501243Y-39529000D01*
X122258757Y-39529000D01*
X122020931Y-39576307D01*
X121796903Y-39669102D01*
X121595283Y-39803820D01*
X121423820Y-39975283D01*
X121289102Y-40176903D01*
X121196307Y-40400931D01*
X121149000Y-40638757D01*
X120406000Y-40638757D01*
X120406000Y-37795000D01*
X121147157Y-37795000D01*
X121147157Y-38645000D01*
X121162679Y-38802602D01*
X121208650Y-38954148D01*
X121283303Y-39093814D01*
X121383769Y-39216231D01*
X121506186Y-39316697D01*
X121645852Y-39391350D01*
X121797398Y-39437321D01*
X121955000Y-39452843D01*
X122805000Y-39452843D01*
X122962602Y-39437321D01*
X123114148Y-39391350D01*
X123253814Y-39316697D01*
X123376231Y-39216231D01*
X123476697Y-39093814D01*
X123551350Y-38954148D01*
X123597321Y-38802602D01*
X123612843Y-38645000D01*
X123612843Y-37795000D01*
X123597321Y-37637398D01*
X123551350Y-37485852D01*
X123476697Y-37346186D01*
X123376231Y-37223769D01*
X123253814Y-37123303D01*
X123114148Y-37048650D01*
X122962602Y-37002679D01*
X122805000Y-36987157D01*
X121955000Y-36987157D01*
X121797398Y-37002679D01*
X121645852Y-37048650D01*
X121506186Y-37123303D01*
X121383769Y-37223769D01*
X121283303Y-37346186D01*
X121208650Y-37485852D01*
X121162679Y-37637398D01*
X121147157Y-37795000D01*
X120406000Y-37795000D01*
X120406000Y-31019854D01*
X120438267Y-30690771D01*
X120528075Y-30393312D01*
X120657447Y-30150000D01*
X163767157Y-30150000D01*
X163767157Y-31850000D01*
X163774513Y-31924689D01*
X163796299Y-31996508D01*
X163831678Y-32062696D01*
X163879289Y-32120711D01*
X163937304Y-32168322D01*
X164003492Y-32203701D01*
X164075311Y-32225487D01*
X164150000Y-32232843D01*
X165850000Y-32232843D01*
X165924689Y-32225487D01*
X165996508Y-32203701D01*
X166062696Y-32168322D01*
X166120711Y-32120711D01*
X166168322Y-32062696D01*
X166203701Y-31996508D01*
X166225487Y-31924689D01*
X166232843Y-31850000D01*
X166232843Y-30150000D01*
X166225487Y-30075311D01*
X166203701Y-30003492D01*
X166168322Y-29937304D01*
X166120711Y-29879289D01*
X166062696Y-29831678D01*
X165996508Y-29796299D01*
X165924689Y-29774513D01*
X165850000Y-29767157D01*
X164150000Y-29767157D01*
X164075311Y-29774513D01*
X164003492Y-29796299D01*
X163937304Y-29831678D01*
X163879289Y-29879289D01*
X163831678Y-29937304D01*
X163796299Y-30003492D01*
X163774513Y-30075311D01*
X163767157Y-30150000D01*
X120657447Y-30150000D01*
X120673945Y-30118972D01*
X120870325Y-29878187D01*
X121109736Y-29680127D01*
X121383053Y-29532346D01*
X121679872Y-29440465D01*
X122007782Y-29406000D01*
X164980146Y-29406000D01*
X165309229Y-29438267D01*
G36*
X161369000Y-68307497D02*
G01*
X161227809Y-68249013D01*
X161076922Y-68219000D01*
X160934591Y-68219000D01*
X160875374Y-68159783D01*
X160875370Y-68159778D01*
X160375376Y-67659785D01*
X160359527Y-67640473D01*
X160282479Y-67577241D01*
X160194575Y-67530255D01*
X160099193Y-67501322D01*
X160024854Y-67494000D01*
X160024846Y-67494000D01*
X160000000Y-67491553D01*
X159975154Y-67494000D01*
X154670922Y-67494000D01*
X154750882Y-67469745D01*
X154838786Y-67422759D01*
X154915834Y-67359527D01*
X154931683Y-67340215D01*
X156453361Y-65818538D01*
X156595691Y-65818538D01*
X156746578Y-65788525D01*
X156888711Y-65729651D01*
X157016628Y-65644180D01*
X157125411Y-65535397D01*
X157210882Y-65407480D01*
X157269756Y-65265347D01*
X157299769Y-65114460D01*
X157299769Y-64960616D01*
X157269756Y-64809729D01*
X157210882Y-64667596D01*
X157186429Y-64631000D01*
X161369000Y-64631000D01*
X161369000Y-68307497D01*
X161369000Y-68307497D01*
G37*
X161369000Y-68307497D02*
X161227809Y-68249013D01*
X161076922Y-68219000D01*
X160934591Y-68219000D01*
X160875374Y-68159783D01*
X160875370Y-68159778D01*
X160375376Y-67659785D01*
X160359527Y-67640473D01*
X160282479Y-67577241D01*
X160194575Y-67530255D01*
X160099193Y-67501322D01*
X160024854Y-67494000D01*
X160024846Y-67494000D01*
X160000000Y-67491553D01*
X159975154Y-67494000D01*
X154670922Y-67494000D01*
X154750882Y-67469745D01*
X154838786Y-67422759D01*
X154915834Y-67359527D01*
X154931683Y-67340215D01*
X156453361Y-65818538D01*
X156595691Y-65818538D01*
X156746578Y-65788525D01*
X156888711Y-65729651D01*
X157016628Y-65644180D01*
X157125411Y-65535397D01*
X157210882Y-65407480D01*
X157269756Y-65265347D01*
X157299769Y-65114460D01*
X157299769Y-64960616D01*
X157269756Y-64809729D01*
X157210882Y-64667596D01*
X157186429Y-64631000D01*
X161369000Y-64631000D01*
X161369000Y-68307497D01*
G36*
X160219000Y-38934592D02*
G01*
X160219000Y-39076922D01*
X160249013Y-39227809D01*
X160307887Y-39369942D01*
X160393358Y-39497859D01*
X160502141Y-39606642D01*
X160630058Y-39692113D01*
X160772191Y-39750987D01*
X160923078Y-39781000D01*
X161076922Y-39781000D01*
X161227809Y-39750987D01*
X161369001Y-39692503D01*
X161369000Y-42369000D01*
X156756352Y-42369000D01*
X156625359Y-42238007D01*
X156464686Y-42130649D01*
X156286155Y-42056699D01*
X156096628Y-42019000D01*
X155903388Y-42019000D01*
X155713861Y-42056699D01*
X155535330Y-42130649D01*
X155506000Y-42150247D01*
X155506000Y-38923078D01*
X156219000Y-38923078D01*
X156219000Y-39076922D01*
X156249013Y-39227809D01*
X156307887Y-39369942D01*
X156393358Y-39497859D01*
X156502141Y-39606642D01*
X156630058Y-39692113D01*
X156772191Y-39750987D01*
X156923078Y-39781000D01*
X157076922Y-39781000D01*
X157227809Y-39750987D01*
X157369942Y-39692113D01*
X157497859Y-39606642D01*
X157606642Y-39497859D01*
X157692113Y-39369942D01*
X157750987Y-39227809D01*
X157781000Y-39076922D01*
X157781000Y-38923078D01*
X157750987Y-38772191D01*
X157692113Y-38630058D01*
X157606642Y-38502141D01*
X157497859Y-38393358D01*
X157369942Y-38307887D01*
X157227809Y-38249013D01*
X157076922Y-38219000D01*
X156923078Y-38219000D01*
X156772191Y-38249013D01*
X156630058Y-38307887D01*
X156502141Y-38393358D01*
X156393358Y-38502141D01*
X156307887Y-38630058D01*
X156249013Y-38772191D01*
X156219000Y-38923078D01*
X155506000Y-38923078D01*
X155506000Y-37024845D01*
X155508447Y-36999999D01*
X155506000Y-36975153D01*
X155506000Y-36975146D01*
X155498678Y-36900807D01*
X155469745Y-36805425D01*
X155422759Y-36717521D01*
X155359527Y-36640473D01*
X155340220Y-36624628D01*
X155221592Y-36506000D01*
X157790409Y-36506000D01*
X160219000Y-38934592D01*
X160219000Y-38934592D01*
G37*
X160219000Y-38934592D02*
X160219000Y-39076922D01*
X160249013Y-39227809D01*
X160307887Y-39369942D01*
X160393358Y-39497859D01*
X160502141Y-39606642D01*
X160630058Y-39692113D01*
X160772191Y-39750987D01*
X160923078Y-39781000D01*
X161076922Y-39781000D01*
X161227809Y-39750987D01*
X161369001Y-39692503D01*
X161369000Y-42369000D01*
X156756352Y-42369000D01*
X156625359Y-42238007D01*
X156464686Y-42130649D01*
X156286155Y-42056699D01*
X156096628Y-42019000D01*
X155903388Y-42019000D01*
X155713861Y-42056699D01*
X155535330Y-42130649D01*
X155506000Y-42150247D01*
X155506000Y-38923078D01*
X156219000Y-38923078D01*
X156219000Y-39076922D01*
X156249013Y-39227809D01*
X156307887Y-39369942D01*
X156393358Y-39497859D01*
X156502141Y-39606642D01*
X156630058Y-39692113D01*
X156772191Y-39750987D01*
X156923078Y-39781000D01*
X157076922Y-39781000D01*
X157227809Y-39750987D01*
X157369942Y-39692113D01*
X157497859Y-39606642D01*
X157606642Y-39497859D01*
X157692113Y-39369942D01*
X157750987Y-39227809D01*
X157781000Y-39076922D01*
X157781000Y-38923078D01*
X157750987Y-38772191D01*
X157692113Y-38630058D01*
X157606642Y-38502141D01*
X157497859Y-38393358D01*
X157369942Y-38307887D01*
X157227809Y-38249013D01*
X157076922Y-38219000D01*
X156923078Y-38219000D01*
X156772191Y-38249013D01*
X156630058Y-38307887D01*
X156502141Y-38393358D01*
X156393358Y-38502141D01*
X156307887Y-38630058D01*
X156249013Y-38772191D01*
X156219000Y-38923078D01*
X155506000Y-38923078D01*
X155506000Y-37024845D01*
X155508447Y-36999999D01*
X155506000Y-36975153D01*
X155506000Y-36975146D01*
X155498678Y-36900807D01*
X155469745Y-36805425D01*
X155422759Y-36717521D01*
X155359527Y-36640473D01*
X155340220Y-36624628D01*
X155221592Y-36506000D01*
X157790409Y-36506000D01*
X160219000Y-38934592D01*
M02*
