G04 #@! TF.GenerationSoftware,KiCad,Pcbnew,(5.1.0)-1*
G04 #@! TF.CreationDate,2019-09-26T00:11:47-07:00*
G04 #@! TF.ProjectId,design,64657369-676e-42e6-9b69-6361645f7063,rev?*
G04 #@! TF.SameCoordinates,Original*
G04 #@! TF.FileFunction,Soldermask,Bot*
G04 #@! TF.FilePolarity,Negative*
%FSLAX46Y46*%
G04 Gerber Fmt 4.6, Leading zero omitted, Abs format (unit mm)*
G04 Created by KiCad (PCBNEW (5.1.0)-1) date 2019-09-26 00:11:47*
%MOMM*%
%LPD*%
G04 APERTURE LIST*
%ADD10C,0.100000*%
G04 APERTURE END LIST*
D10*
G36*
X148650442Y-83105518D02*
G01*
X148716627Y-83112037D01*
X148886466Y-83163557D01*
X149042991Y-83247222D01*
X149075050Y-83273532D01*
X149180186Y-83359814D01*
X149263448Y-83461271D01*
X149292778Y-83497009D01*
X149376443Y-83653534D01*
X149427963Y-83823373D01*
X149445359Y-84000000D01*
X149427963Y-84176627D01*
X149376443Y-84346466D01*
X149292778Y-84502991D01*
X149277998Y-84521000D01*
X149180186Y-84640186D01*
X149078729Y-84723448D01*
X149042991Y-84752778D01*
X148886466Y-84836443D01*
X148716627Y-84887963D01*
X148650442Y-84894482D01*
X148584260Y-84901000D01*
X148495740Y-84901000D01*
X148429558Y-84894482D01*
X148363373Y-84887963D01*
X148193534Y-84836443D01*
X148037009Y-84752778D01*
X148001271Y-84723448D01*
X147899814Y-84640186D01*
X147802002Y-84521000D01*
X147787222Y-84502991D01*
X147703557Y-84346466D01*
X147652037Y-84176627D01*
X147634641Y-84000000D01*
X147652037Y-83823373D01*
X147703557Y-83653534D01*
X147787222Y-83497009D01*
X147816552Y-83461271D01*
X147899814Y-83359814D01*
X148004950Y-83273532D01*
X148037009Y-83247222D01*
X148193534Y-83163557D01*
X148363373Y-83112037D01*
X148429558Y-83105518D01*
X148495740Y-83099000D01*
X148584260Y-83099000D01*
X148650442Y-83105518D01*
X148650442Y-83105518D01*
G37*
G36*
X146901000Y-84901000D02*
G01*
X145099000Y-84901000D01*
X145099000Y-83099000D01*
X146901000Y-83099000D01*
X146901000Y-84901000D01*
X146901000Y-84901000D01*
G37*
G36*
X165110443Y-82725519D02*
G01*
X165176627Y-82732037D01*
X165346466Y-82783557D01*
X165502991Y-82867222D01*
X165538729Y-82896552D01*
X165640186Y-82979814D01*
X165723448Y-83081271D01*
X165752778Y-83117009D01*
X165836443Y-83273534D01*
X165887963Y-83443373D01*
X165905359Y-83620000D01*
X165887963Y-83796627D01*
X165836443Y-83966466D01*
X165752778Y-84122991D01*
X165723448Y-84158729D01*
X165640186Y-84260186D01*
X165538729Y-84343448D01*
X165502991Y-84372778D01*
X165346466Y-84456443D01*
X165176627Y-84507963D01*
X165110443Y-84514481D01*
X165044260Y-84521000D01*
X164955740Y-84521000D01*
X164889557Y-84514481D01*
X164823373Y-84507963D01*
X164653534Y-84456443D01*
X164497009Y-84372778D01*
X164461271Y-84343448D01*
X164359814Y-84260186D01*
X164276552Y-84158729D01*
X164247222Y-84122991D01*
X164163557Y-83966466D01*
X164112037Y-83796627D01*
X164094641Y-83620000D01*
X164112037Y-83443373D01*
X164163557Y-83273534D01*
X164247222Y-83117009D01*
X164276552Y-83081271D01*
X164359814Y-82979814D01*
X164461271Y-82896552D01*
X164497009Y-82867222D01*
X164653534Y-82783557D01*
X164823373Y-82732037D01*
X164889557Y-82725519D01*
X164955740Y-82719000D01*
X165044260Y-82719000D01*
X165110443Y-82725519D01*
X165110443Y-82725519D01*
G37*
G36*
X165110443Y-80185519D02*
G01*
X165176627Y-80192037D01*
X165346466Y-80243557D01*
X165502991Y-80327222D01*
X165538729Y-80356552D01*
X165640186Y-80439814D01*
X165723448Y-80541271D01*
X165752778Y-80577009D01*
X165836443Y-80733534D01*
X165887963Y-80903373D01*
X165905359Y-81080000D01*
X165887963Y-81256627D01*
X165836443Y-81426466D01*
X165752778Y-81582991D01*
X165723448Y-81618729D01*
X165640186Y-81720186D01*
X165538729Y-81803448D01*
X165502991Y-81832778D01*
X165346466Y-81916443D01*
X165176627Y-81967963D01*
X165110442Y-81974482D01*
X165044260Y-81981000D01*
X164955740Y-81981000D01*
X164889558Y-81974482D01*
X164823373Y-81967963D01*
X164653534Y-81916443D01*
X164497009Y-81832778D01*
X164461271Y-81803448D01*
X164359814Y-81720186D01*
X164276552Y-81618729D01*
X164247222Y-81582991D01*
X164163557Y-81426466D01*
X164112037Y-81256627D01*
X164094641Y-81080000D01*
X164112037Y-80903373D01*
X164163557Y-80733534D01*
X164247222Y-80577009D01*
X164276552Y-80541271D01*
X164359814Y-80439814D01*
X164461271Y-80356552D01*
X164497009Y-80327222D01*
X164653534Y-80243557D01*
X164823373Y-80192037D01*
X164889557Y-80185519D01*
X164955740Y-80179000D01*
X165044260Y-80179000D01*
X165110443Y-80185519D01*
X165110443Y-80185519D01*
G37*
G36*
X165110442Y-77645518D02*
G01*
X165176627Y-77652037D01*
X165346466Y-77703557D01*
X165502991Y-77787222D01*
X165538729Y-77816552D01*
X165640186Y-77899814D01*
X165723448Y-78001271D01*
X165752778Y-78037009D01*
X165836443Y-78193534D01*
X165887963Y-78363373D01*
X165905359Y-78540000D01*
X165887963Y-78716627D01*
X165836443Y-78886466D01*
X165752778Y-79042991D01*
X165723448Y-79078729D01*
X165640186Y-79180186D01*
X165538729Y-79263448D01*
X165502991Y-79292778D01*
X165346466Y-79376443D01*
X165176627Y-79427963D01*
X165110443Y-79434481D01*
X165044260Y-79441000D01*
X164955740Y-79441000D01*
X164889557Y-79434481D01*
X164823373Y-79427963D01*
X164653534Y-79376443D01*
X164497009Y-79292778D01*
X164461271Y-79263448D01*
X164359814Y-79180186D01*
X164276552Y-79078729D01*
X164247222Y-79042991D01*
X164163557Y-78886466D01*
X164112037Y-78716627D01*
X164094641Y-78540000D01*
X164112037Y-78363373D01*
X164163557Y-78193534D01*
X164247222Y-78037009D01*
X164276552Y-78001271D01*
X164359814Y-77899814D01*
X164461271Y-77816552D01*
X164497009Y-77787222D01*
X164653534Y-77703557D01*
X164823373Y-77652037D01*
X164889558Y-77645518D01*
X164955740Y-77639000D01*
X165044260Y-77639000D01*
X165110442Y-77645518D01*
X165110442Y-77645518D01*
G37*
G36*
X165901000Y-76901000D02*
G01*
X164099000Y-76901000D01*
X164099000Y-75099000D01*
X165901000Y-75099000D01*
X165901000Y-76901000D01*
X165901000Y-76901000D01*
G37*
G36*
X137733512Y-72883927D02*
G01*
X137882812Y-72913624D01*
X138046784Y-72981544D01*
X138194354Y-73080147D01*
X138319853Y-73205646D01*
X138418456Y-73353216D01*
X138486376Y-73517188D01*
X138521000Y-73691259D01*
X138521000Y-73868741D01*
X138486376Y-74042812D01*
X138418456Y-74206784D01*
X138319853Y-74354354D01*
X138194354Y-74479853D01*
X138046784Y-74578456D01*
X137882812Y-74646376D01*
X137733512Y-74676073D01*
X137708742Y-74681000D01*
X137531258Y-74681000D01*
X137506488Y-74676073D01*
X137357188Y-74646376D01*
X137193216Y-74578456D01*
X137045646Y-74479853D01*
X136920147Y-74354354D01*
X136821544Y-74206784D01*
X136753624Y-74042812D01*
X136719000Y-73868741D01*
X136719000Y-73691259D01*
X136753624Y-73517188D01*
X136821544Y-73353216D01*
X136920147Y-73205646D01*
X137045646Y-73080147D01*
X137193216Y-72981544D01*
X137357188Y-72913624D01*
X137506488Y-72883927D01*
X137531258Y-72879000D01*
X137708742Y-72879000D01*
X137733512Y-72883927D01*
X137733512Y-72883927D01*
G37*
G36*
X122493512Y-72883927D02*
G01*
X122642812Y-72913624D01*
X122806784Y-72981544D01*
X122954354Y-73080147D01*
X123079853Y-73205646D01*
X123178456Y-73353216D01*
X123246376Y-73517188D01*
X123281000Y-73691259D01*
X123281000Y-73868741D01*
X123246376Y-74042812D01*
X123178456Y-74206784D01*
X123079853Y-74354354D01*
X122954354Y-74479853D01*
X122806784Y-74578456D01*
X122642812Y-74646376D01*
X122493512Y-74676073D01*
X122468742Y-74681000D01*
X122291258Y-74681000D01*
X122266488Y-74676073D01*
X122117188Y-74646376D01*
X121953216Y-74578456D01*
X121805646Y-74479853D01*
X121680147Y-74354354D01*
X121581544Y-74206784D01*
X121513624Y-74042812D01*
X121479000Y-73868741D01*
X121479000Y-73691259D01*
X121513624Y-73517188D01*
X121581544Y-73353216D01*
X121680147Y-73205646D01*
X121805646Y-73080147D01*
X121953216Y-72981544D01*
X122117188Y-72913624D01*
X122266488Y-72883927D01*
X122291258Y-72879000D01*
X122468742Y-72879000D01*
X122493512Y-72883927D01*
X122493512Y-72883927D01*
G37*
G36*
X137733512Y-70343927D02*
G01*
X137882812Y-70373624D01*
X138046784Y-70441544D01*
X138194354Y-70540147D01*
X138319853Y-70665646D01*
X138418456Y-70813216D01*
X138486376Y-70977188D01*
X138521000Y-71151259D01*
X138521000Y-71328741D01*
X138486376Y-71502812D01*
X138418456Y-71666784D01*
X138319853Y-71814354D01*
X138194354Y-71939853D01*
X138046784Y-72038456D01*
X137882812Y-72106376D01*
X137733512Y-72136073D01*
X137708742Y-72141000D01*
X137531258Y-72141000D01*
X137506488Y-72136073D01*
X137357188Y-72106376D01*
X137193216Y-72038456D01*
X137045646Y-71939853D01*
X136920147Y-71814354D01*
X136821544Y-71666784D01*
X136753624Y-71502812D01*
X136719000Y-71328741D01*
X136719000Y-71151259D01*
X136753624Y-70977188D01*
X136821544Y-70813216D01*
X136920147Y-70665646D01*
X137045646Y-70540147D01*
X137193216Y-70441544D01*
X137357188Y-70373624D01*
X137506488Y-70343927D01*
X137531258Y-70339000D01*
X137708742Y-70339000D01*
X137733512Y-70343927D01*
X137733512Y-70343927D01*
G37*
G36*
X122493512Y-70343927D02*
G01*
X122642812Y-70373624D01*
X122806784Y-70441544D01*
X122954354Y-70540147D01*
X123079853Y-70665646D01*
X123178456Y-70813216D01*
X123246376Y-70977188D01*
X123281000Y-71151259D01*
X123281000Y-71328741D01*
X123246376Y-71502812D01*
X123178456Y-71666784D01*
X123079853Y-71814354D01*
X122954354Y-71939853D01*
X122806784Y-72038456D01*
X122642812Y-72106376D01*
X122493512Y-72136073D01*
X122468742Y-72141000D01*
X122291258Y-72141000D01*
X122266488Y-72136073D01*
X122117188Y-72106376D01*
X121953216Y-72038456D01*
X121805646Y-71939853D01*
X121680147Y-71814354D01*
X121581544Y-71666784D01*
X121513624Y-71502812D01*
X121479000Y-71328741D01*
X121479000Y-71151259D01*
X121513624Y-70977188D01*
X121581544Y-70813216D01*
X121680147Y-70665646D01*
X121805646Y-70540147D01*
X121953216Y-70441544D01*
X122117188Y-70373624D01*
X122266488Y-70343927D01*
X122291258Y-70339000D01*
X122468742Y-70339000D01*
X122493512Y-70343927D01*
X122493512Y-70343927D01*
G37*
G36*
X137733512Y-67803927D02*
G01*
X137882812Y-67833624D01*
X138046784Y-67901544D01*
X138194354Y-68000147D01*
X138319853Y-68125646D01*
X138418456Y-68273216D01*
X138486376Y-68437188D01*
X138516073Y-68586488D01*
X138521000Y-68611258D01*
X138521000Y-68788742D01*
X138516073Y-68813512D01*
X138486376Y-68962812D01*
X138418456Y-69126784D01*
X138319853Y-69274354D01*
X138194354Y-69399853D01*
X138046784Y-69498456D01*
X137882812Y-69566376D01*
X137733512Y-69596073D01*
X137708742Y-69601000D01*
X137531258Y-69601000D01*
X137506488Y-69596073D01*
X137357188Y-69566376D01*
X137193216Y-69498456D01*
X137045646Y-69399853D01*
X136920147Y-69274354D01*
X136821544Y-69126784D01*
X136753624Y-68962812D01*
X136723927Y-68813512D01*
X136719000Y-68788742D01*
X136719000Y-68611258D01*
X136723927Y-68586488D01*
X136753624Y-68437188D01*
X136821544Y-68273216D01*
X136920147Y-68125646D01*
X137045646Y-68000147D01*
X137193216Y-67901544D01*
X137357188Y-67833624D01*
X137506488Y-67803927D01*
X137531258Y-67799000D01*
X137708742Y-67799000D01*
X137733512Y-67803927D01*
X137733512Y-67803927D01*
G37*
G36*
X122493512Y-67803927D02*
G01*
X122642812Y-67833624D01*
X122806784Y-67901544D01*
X122954354Y-68000147D01*
X123079853Y-68125646D01*
X123178456Y-68273216D01*
X123246376Y-68437188D01*
X123276073Y-68586488D01*
X123281000Y-68611258D01*
X123281000Y-68788742D01*
X123276073Y-68813512D01*
X123246376Y-68962812D01*
X123178456Y-69126784D01*
X123079853Y-69274354D01*
X122954354Y-69399853D01*
X122806784Y-69498456D01*
X122642812Y-69566376D01*
X122493512Y-69596073D01*
X122468742Y-69601000D01*
X122291258Y-69601000D01*
X122266488Y-69596073D01*
X122117188Y-69566376D01*
X121953216Y-69498456D01*
X121805646Y-69399853D01*
X121680147Y-69274354D01*
X121581544Y-69126784D01*
X121513624Y-68962812D01*
X121483927Y-68813512D01*
X121479000Y-68788742D01*
X121479000Y-68611258D01*
X121483927Y-68586488D01*
X121513624Y-68437188D01*
X121581544Y-68273216D01*
X121680147Y-68125646D01*
X121805646Y-68000147D01*
X121953216Y-67901544D01*
X122117188Y-67833624D01*
X122266488Y-67803927D01*
X122291258Y-67799000D01*
X122468742Y-67799000D01*
X122493512Y-67803927D01*
X122493512Y-67803927D01*
G37*
G36*
X165110442Y-67725518D02*
G01*
X165176627Y-67732037D01*
X165346466Y-67783557D01*
X165502991Y-67867222D01*
X165538729Y-67896552D01*
X165640186Y-67979814D01*
X165723448Y-68081271D01*
X165752778Y-68117009D01*
X165836443Y-68273534D01*
X165887963Y-68443373D01*
X165905359Y-68620000D01*
X165887963Y-68796627D01*
X165836443Y-68966466D01*
X165752778Y-69122991D01*
X165749665Y-69126784D01*
X165640186Y-69260186D01*
X165538729Y-69343448D01*
X165502991Y-69372778D01*
X165346466Y-69456443D01*
X165176627Y-69507963D01*
X165110442Y-69514482D01*
X165044260Y-69521000D01*
X164955740Y-69521000D01*
X164889558Y-69514482D01*
X164823373Y-69507963D01*
X164653534Y-69456443D01*
X164497009Y-69372778D01*
X164461271Y-69343448D01*
X164359814Y-69260186D01*
X164250335Y-69126784D01*
X164247222Y-69122991D01*
X164163557Y-68966466D01*
X164112037Y-68796627D01*
X164094641Y-68620000D01*
X164112037Y-68443373D01*
X164163557Y-68273534D01*
X164247222Y-68117009D01*
X164276552Y-68081271D01*
X164359814Y-67979814D01*
X164461271Y-67896552D01*
X164497009Y-67867222D01*
X164653534Y-67783557D01*
X164823373Y-67732037D01*
X164889558Y-67725518D01*
X164955740Y-67719000D01*
X165044260Y-67719000D01*
X165110442Y-67725518D01*
X165110442Y-67725518D01*
G37*
G36*
X122493512Y-65263927D02*
G01*
X122642812Y-65293624D01*
X122806784Y-65361544D01*
X122954354Y-65460147D01*
X123079853Y-65585646D01*
X123178456Y-65733216D01*
X123246376Y-65897188D01*
X123276073Y-66046488D01*
X123281000Y-66071258D01*
X123281000Y-66248742D01*
X123276073Y-66273512D01*
X123246376Y-66422812D01*
X123178456Y-66586784D01*
X123079853Y-66734354D01*
X122954354Y-66859853D01*
X122806784Y-66958456D01*
X122642812Y-67026376D01*
X122493512Y-67056073D01*
X122468742Y-67061000D01*
X122291258Y-67061000D01*
X122266488Y-67056073D01*
X122117188Y-67026376D01*
X121953216Y-66958456D01*
X121805646Y-66859853D01*
X121680147Y-66734354D01*
X121581544Y-66586784D01*
X121513624Y-66422812D01*
X121483927Y-66273512D01*
X121479000Y-66248742D01*
X121479000Y-66071258D01*
X121483927Y-66046488D01*
X121513624Y-65897188D01*
X121581544Y-65733216D01*
X121680147Y-65585646D01*
X121805646Y-65460147D01*
X121953216Y-65361544D01*
X122117188Y-65293624D01*
X122266488Y-65263927D01*
X122291258Y-65259000D01*
X122468742Y-65259000D01*
X122493512Y-65263927D01*
X122493512Y-65263927D01*
G37*
G36*
X137733512Y-65263927D02*
G01*
X137882812Y-65293624D01*
X138046784Y-65361544D01*
X138194354Y-65460147D01*
X138319853Y-65585646D01*
X138418456Y-65733216D01*
X138486376Y-65897188D01*
X138516073Y-66046488D01*
X138521000Y-66071258D01*
X138521000Y-66248742D01*
X138516073Y-66273512D01*
X138486376Y-66422812D01*
X138418456Y-66586784D01*
X138319853Y-66734354D01*
X138194354Y-66859853D01*
X138046784Y-66958456D01*
X137882812Y-67026376D01*
X137733512Y-67056073D01*
X137708742Y-67061000D01*
X137531258Y-67061000D01*
X137506488Y-67056073D01*
X137357188Y-67026376D01*
X137193216Y-66958456D01*
X137045646Y-66859853D01*
X136920147Y-66734354D01*
X136821544Y-66586784D01*
X136753624Y-66422812D01*
X136723927Y-66273512D01*
X136719000Y-66248742D01*
X136719000Y-66071258D01*
X136723927Y-66046488D01*
X136753624Y-65897188D01*
X136821544Y-65733216D01*
X136920147Y-65585646D01*
X137045646Y-65460147D01*
X137193216Y-65361544D01*
X137357188Y-65293624D01*
X137506488Y-65263927D01*
X137531258Y-65259000D01*
X137708742Y-65259000D01*
X137733512Y-65263927D01*
X137733512Y-65263927D01*
G37*
G36*
X165110442Y-65185518D02*
G01*
X165176627Y-65192037D01*
X165346466Y-65243557D01*
X165502991Y-65327222D01*
X165538729Y-65356552D01*
X165640186Y-65439814D01*
X165723448Y-65541271D01*
X165752778Y-65577009D01*
X165836443Y-65733534D01*
X165887963Y-65903373D01*
X165905359Y-66080000D01*
X165887963Y-66256627D01*
X165836443Y-66426466D01*
X165752778Y-66582991D01*
X165749665Y-66586784D01*
X165640186Y-66720186D01*
X165538729Y-66803448D01*
X165502991Y-66832778D01*
X165346466Y-66916443D01*
X165176627Y-66967963D01*
X165110443Y-66974481D01*
X165044260Y-66981000D01*
X164955740Y-66981000D01*
X164889557Y-66974481D01*
X164823373Y-66967963D01*
X164653534Y-66916443D01*
X164497009Y-66832778D01*
X164461271Y-66803448D01*
X164359814Y-66720186D01*
X164250335Y-66586784D01*
X164247222Y-66582991D01*
X164163557Y-66426466D01*
X164112037Y-66256627D01*
X164094641Y-66080000D01*
X164112037Y-65903373D01*
X164163557Y-65733534D01*
X164247222Y-65577009D01*
X164276552Y-65541271D01*
X164359814Y-65439814D01*
X164461271Y-65356552D01*
X164497009Y-65327222D01*
X164653534Y-65243557D01*
X164823373Y-65192037D01*
X164889558Y-65185518D01*
X164955740Y-65179000D01*
X165044260Y-65179000D01*
X165110442Y-65185518D01*
X165110442Y-65185518D01*
G37*
G36*
X137733512Y-62723927D02*
G01*
X137882812Y-62753624D01*
X138046784Y-62821544D01*
X138194354Y-62920147D01*
X138319853Y-63045646D01*
X138418456Y-63193216D01*
X138486376Y-63357188D01*
X138516073Y-63506488D01*
X138521000Y-63531258D01*
X138521000Y-63708742D01*
X138516073Y-63733512D01*
X138486376Y-63882812D01*
X138418456Y-64046784D01*
X138319853Y-64194354D01*
X138194354Y-64319853D01*
X138046784Y-64418456D01*
X137882812Y-64486376D01*
X137733512Y-64516073D01*
X137708742Y-64521000D01*
X137531258Y-64521000D01*
X137506488Y-64516073D01*
X137357188Y-64486376D01*
X137193216Y-64418456D01*
X137045646Y-64319853D01*
X136920147Y-64194354D01*
X136821544Y-64046784D01*
X136753624Y-63882812D01*
X136723927Y-63733512D01*
X136719000Y-63708742D01*
X136719000Y-63531258D01*
X136723927Y-63506488D01*
X136753624Y-63357188D01*
X136821544Y-63193216D01*
X136920147Y-63045646D01*
X137045646Y-62920147D01*
X137193216Y-62821544D01*
X137357188Y-62753624D01*
X137506488Y-62723927D01*
X137531258Y-62719000D01*
X137708742Y-62719000D01*
X137733512Y-62723927D01*
X137733512Y-62723927D01*
G37*
G36*
X122493512Y-62723927D02*
G01*
X122642812Y-62753624D01*
X122806784Y-62821544D01*
X122954354Y-62920147D01*
X123079853Y-63045646D01*
X123178456Y-63193216D01*
X123246376Y-63357188D01*
X123276073Y-63506488D01*
X123281000Y-63531258D01*
X123281000Y-63708742D01*
X123276073Y-63733512D01*
X123246376Y-63882812D01*
X123178456Y-64046784D01*
X123079853Y-64194354D01*
X122954354Y-64319853D01*
X122806784Y-64418456D01*
X122642812Y-64486376D01*
X122493512Y-64516073D01*
X122468742Y-64521000D01*
X122291258Y-64521000D01*
X122266488Y-64516073D01*
X122117188Y-64486376D01*
X121953216Y-64418456D01*
X121805646Y-64319853D01*
X121680147Y-64194354D01*
X121581544Y-64046784D01*
X121513624Y-63882812D01*
X121483927Y-63733512D01*
X121479000Y-63708742D01*
X121479000Y-63531258D01*
X121483927Y-63506488D01*
X121513624Y-63357188D01*
X121581544Y-63193216D01*
X121680147Y-63045646D01*
X121805646Y-62920147D01*
X121953216Y-62821544D01*
X122117188Y-62753624D01*
X122266488Y-62723927D01*
X122291258Y-62719000D01*
X122468742Y-62719000D01*
X122493512Y-62723927D01*
X122493512Y-62723927D01*
G37*
G36*
X165110443Y-62645519D02*
G01*
X165176627Y-62652037D01*
X165346466Y-62703557D01*
X165502991Y-62787222D01*
X165538729Y-62816552D01*
X165640186Y-62899814D01*
X165723448Y-63001271D01*
X165752778Y-63037009D01*
X165836443Y-63193534D01*
X165887963Y-63363373D01*
X165905359Y-63540000D01*
X165887963Y-63716627D01*
X165836443Y-63886466D01*
X165752778Y-64042991D01*
X165749665Y-64046784D01*
X165640186Y-64180186D01*
X165538729Y-64263448D01*
X165502991Y-64292778D01*
X165346466Y-64376443D01*
X165176627Y-64427963D01*
X165110442Y-64434482D01*
X165044260Y-64441000D01*
X164955740Y-64441000D01*
X164889558Y-64434482D01*
X164823373Y-64427963D01*
X164653534Y-64376443D01*
X164497009Y-64292778D01*
X164461271Y-64263448D01*
X164359814Y-64180186D01*
X164250335Y-64046784D01*
X164247222Y-64042991D01*
X164163557Y-63886466D01*
X164112037Y-63716627D01*
X164094641Y-63540000D01*
X164112037Y-63363373D01*
X164163557Y-63193534D01*
X164247222Y-63037009D01*
X164276552Y-63001271D01*
X164359814Y-62899814D01*
X164461271Y-62816552D01*
X164497009Y-62787222D01*
X164653534Y-62703557D01*
X164823373Y-62652037D01*
X164889557Y-62645519D01*
X164955740Y-62639000D01*
X165044260Y-62639000D01*
X165110443Y-62645519D01*
X165110443Y-62645519D01*
G37*
G36*
X137733512Y-60183927D02*
G01*
X137882812Y-60213624D01*
X138046784Y-60281544D01*
X138194354Y-60380147D01*
X138319853Y-60505646D01*
X138418456Y-60653216D01*
X138486376Y-60817188D01*
X138521000Y-60991259D01*
X138521000Y-61168741D01*
X138486376Y-61342812D01*
X138418456Y-61506784D01*
X138319853Y-61654354D01*
X138194354Y-61779853D01*
X138046784Y-61878456D01*
X137882812Y-61946376D01*
X137733512Y-61976073D01*
X137708742Y-61981000D01*
X137531258Y-61981000D01*
X137506488Y-61976073D01*
X137357188Y-61946376D01*
X137193216Y-61878456D01*
X137045646Y-61779853D01*
X136920147Y-61654354D01*
X136821544Y-61506784D01*
X136753624Y-61342812D01*
X136719000Y-61168741D01*
X136719000Y-60991259D01*
X136753624Y-60817188D01*
X136821544Y-60653216D01*
X136920147Y-60505646D01*
X137045646Y-60380147D01*
X137193216Y-60281544D01*
X137357188Y-60213624D01*
X137506488Y-60183927D01*
X137531258Y-60179000D01*
X137708742Y-60179000D01*
X137733512Y-60183927D01*
X137733512Y-60183927D01*
G37*
G36*
X122493512Y-60183927D02*
G01*
X122642812Y-60213624D01*
X122806784Y-60281544D01*
X122954354Y-60380147D01*
X123079853Y-60505646D01*
X123178456Y-60653216D01*
X123246376Y-60817188D01*
X123281000Y-60991259D01*
X123281000Y-61168741D01*
X123246376Y-61342812D01*
X123178456Y-61506784D01*
X123079853Y-61654354D01*
X122954354Y-61779853D01*
X122806784Y-61878456D01*
X122642812Y-61946376D01*
X122493512Y-61976073D01*
X122468742Y-61981000D01*
X122291258Y-61981000D01*
X122266488Y-61976073D01*
X122117188Y-61946376D01*
X121953216Y-61878456D01*
X121805646Y-61779853D01*
X121680147Y-61654354D01*
X121581544Y-61506784D01*
X121513624Y-61342812D01*
X121479000Y-61168741D01*
X121479000Y-60991259D01*
X121513624Y-60817188D01*
X121581544Y-60653216D01*
X121680147Y-60505646D01*
X121805646Y-60380147D01*
X121953216Y-60281544D01*
X122117188Y-60213624D01*
X122266488Y-60183927D01*
X122291258Y-60179000D01*
X122468742Y-60179000D01*
X122493512Y-60183927D01*
X122493512Y-60183927D01*
G37*
G36*
X165901000Y-61901000D02*
G01*
X164099000Y-61901000D01*
X164099000Y-60099000D01*
X165901000Y-60099000D01*
X165901000Y-61901000D01*
X165901000Y-61901000D01*
G37*
G36*
X122493512Y-57643927D02*
G01*
X122642812Y-57673624D01*
X122806784Y-57741544D01*
X122954354Y-57840147D01*
X123079853Y-57965646D01*
X123178456Y-58113216D01*
X123246376Y-58277188D01*
X123281000Y-58451259D01*
X123281000Y-58628741D01*
X123246376Y-58802812D01*
X123178456Y-58966784D01*
X123079853Y-59114354D01*
X122954354Y-59239853D01*
X122806784Y-59338456D01*
X122642812Y-59406376D01*
X122493512Y-59436073D01*
X122468742Y-59441000D01*
X122291258Y-59441000D01*
X122266488Y-59436073D01*
X122117188Y-59406376D01*
X121953216Y-59338456D01*
X121805646Y-59239853D01*
X121680147Y-59114354D01*
X121581544Y-58966784D01*
X121513624Y-58802812D01*
X121479000Y-58628741D01*
X121479000Y-58451259D01*
X121513624Y-58277188D01*
X121581544Y-58113216D01*
X121680147Y-57965646D01*
X121805646Y-57840147D01*
X121953216Y-57741544D01*
X122117188Y-57673624D01*
X122266488Y-57643927D01*
X122291258Y-57639000D01*
X122468742Y-57639000D01*
X122493512Y-57643927D01*
X122493512Y-57643927D01*
G37*
G36*
X137733512Y-57643927D02*
G01*
X137882812Y-57673624D01*
X138046784Y-57741544D01*
X138194354Y-57840147D01*
X138319853Y-57965646D01*
X138418456Y-58113216D01*
X138486376Y-58277188D01*
X138521000Y-58451259D01*
X138521000Y-58628741D01*
X138486376Y-58802812D01*
X138418456Y-58966784D01*
X138319853Y-59114354D01*
X138194354Y-59239853D01*
X138046784Y-59338456D01*
X137882812Y-59406376D01*
X137733512Y-59436073D01*
X137708742Y-59441000D01*
X137531258Y-59441000D01*
X137506488Y-59436073D01*
X137357188Y-59406376D01*
X137193216Y-59338456D01*
X137045646Y-59239853D01*
X136920147Y-59114354D01*
X136821544Y-58966784D01*
X136753624Y-58802812D01*
X136719000Y-58628741D01*
X136719000Y-58451259D01*
X136753624Y-58277188D01*
X136821544Y-58113216D01*
X136920147Y-57965646D01*
X137045646Y-57840147D01*
X137193216Y-57741544D01*
X137357188Y-57673624D01*
X137506488Y-57643927D01*
X137531258Y-57639000D01*
X137708742Y-57639000D01*
X137733512Y-57643927D01*
X137733512Y-57643927D01*
G37*
G36*
X137733512Y-55103927D02*
G01*
X137882812Y-55133624D01*
X138046784Y-55201544D01*
X138194354Y-55300147D01*
X138319853Y-55425646D01*
X138418456Y-55573216D01*
X138486376Y-55737188D01*
X138521000Y-55911259D01*
X138521000Y-56088741D01*
X138486376Y-56262812D01*
X138418456Y-56426784D01*
X138319853Y-56574354D01*
X138194354Y-56699853D01*
X138046784Y-56798456D01*
X137882812Y-56866376D01*
X137733512Y-56896073D01*
X137708742Y-56901000D01*
X137531258Y-56901000D01*
X137506488Y-56896073D01*
X137357188Y-56866376D01*
X137193216Y-56798456D01*
X137045646Y-56699853D01*
X136920147Y-56574354D01*
X136821544Y-56426784D01*
X136753624Y-56262812D01*
X136719000Y-56088741D01*
X136719000Y-55911259D01*
X136753624Y-55737188D01*
X136821544Y-55573216D01*
X136920147Y-55425646D01*
X137045646Y-55300147D01*
X137193216Y-55201544D01*
X137357188Y-55133624D01*
X137506488Y-55103927D01*
X137531258Y-55099000D01*
X137708742Y-55099000D01*
X137733512Y-55103927D01*
X137733512Y-55103927D01*
G37*
G36*
X122493512Y-55103927D02*
G01*
X122642812Y-55133624D01*
X122806784Y-55201544D01*
X122954354Y-55300147D01*
X123079853Y-55425646D01*
X123178456Y-55573216D01*
X123246376Y-55737188D01*
X123281000Y-55911259D01*
X123281000Y-56088741D01*
X123246376Y-56262812D01*
X123178456Y-56426784D01*
X123079853Y-56574354D01*
X122954354Y-56699853D01*
X122806784Y-56798456D01*
X122642812Y-56866376D01*
X122493512Y-56896073D01*
X122468742Y-56901000D01*
X122291258Y-56901000D01*
X122266488Y-56896073D01*
X122117188Y-56866376D01*
X121953216Y-56798456D01*
X121805646Y-56699853D01*
X121680147Y-56574354D01*
X121581544Y-56426784D01*
X121513624Y-56262812D01*
X121479000Y-56088741D01*
X121479000Y-55911259D01*
X121513624Y-55737188D01*
X121581544Y-55573216D01*
X121680147Y-55425646D01*
X121805646Y-55300147D01*
X121953216Y-55201544D01*
X122117188Y-55133624D01*
X122266488Y-55103927D01*
X122291258Y-55099000D01*
X122468742Y-55099000D01*
X122493512Y-55103927D01*
X122493512Y-55103927D01*
G37*
G36*
X165110443Y-52725519D02*
G01*
X165176627Y-52732037D01*
X165346466Y-52783557D01*
X165502991Y-52867222D01*
X165538729Y-52896552D01*
X165640186Y-52979814D01*
X165723448Y-53081271D01*
X165752778Y-53117009D01*
X165836443Y-53273534D01*
X165887963Y-53443373D01*
X165905359Y-53620000D01*
X165887963Y-53796627D01*
X165836443Y-53966466D01*
X165752778Y-54122991D01*
X165723448Y-54158729D01*
X165640186Y-54260186D01*
X165559533Y-54326375D01*
X165502991Y-54372778D01*
X165346466Y-54456443D01*
X165176627Y-54507963D01*
X165110443Y-54514481D01*
X165044260Y-54521000D01*
X164955740Y-54521000D01*
X164889557Y-54514481D01*
X164823373Y-54507963D01*
X164653534Y-54456443D01*
X164497009Y-54372778D01*
X164440467Y-54326375D01*
X164359814Y-54260186D01*
X164276552Y-54158729D01*
X164247222Y-54122991D01*
X164163557Y-53966466D01*
X164112037Y-53796627D01*
X164094641Y-53620000D01*
X164112037Y-53443373D01*
X164163557Y-53273534D01*
X164247222Y-53117009D01*
X164276552Y-53081271D01*
X164359814Y-52979814D01*
X164461271Y-52896552D01*
X164497009Y-52867222D01*
X164653534Y-52783557D01*
X164823373Y-52732037D01*
X164889557Y-52725519D01*
X164955740Y-52719000D01*
X165044260Y-52719000D01*
X165110443Y-52725519D01*
X165110443Y-52725519D01*
G37*
G36*
X137733512Y-52563927D02*
G01*
X137882812Y-52593624D01*
X138046784Y-52661544D01*
X138194354Y-52760147D01*
X138319853Y-52885646D01*
X138418456Y-53033216D01*
X138486376Y-53197188D01*
X138521000Y-53371259D01*
X138521000Y-53548741D01*
X138486376Y-53722812D01*
X138418456Y-53886784D01*
X138319853Y-54034354D01*
X138194354Y-54159853D01*
X138046784Y-54258456D01*
X137882812Y-54326376D01*
X137733512Y-54356073D01*
X137708742Y-54361000D01*
X137531258Y-54361000D01*
X137506488Y-54356073D01*
X137357188Y-54326376D01*
X137193216Y-54258456D01*
X137045646Y-54159853D01*
X136920147Y-54034354D01*
X136821544Y-53886784D01*
X136753624Y-53722812D01*
X136719000Y-53548741D01*
X136719000Y-53371259D01*
X136753624Y-53197188D01*
X136821544Y-53033216D01*
X136920147Y-52885646D01*
X137045646Y-52760147D01*
X137193216Y-52661544D01*
X137357188Y-52593624D01*
X137506488Y-52563927D01*
X137531258Y-52559000D01*
X137708742Y-52559000D01*
X137733512Y-52563927D01*
X137733512Y-52563927D01*
G37*
G36*
X122493512Y-52563927D02*
G01*
X122642812Y-52593624D01*
X122806784Y-52661544D01*
X122954354Y-52760147D01*
X123079853Y-52885646D01*
X123178456Y-53033216D01*
X123246376Y-53197188D01*
X123281000Y-53371259D01*
X123281000Y-53548741D01*
X123246376Y-53722812D01*
X123178456Y-53886784D01*
X123079853Y-54034354D01*
X122954354Y-54159853D01*
X122806784Y-54258456D01*
X122642812Y-54326376D01*
X122493512Y-54356073D01*
X122468742Y-54361000D01*
X122291258Y-54361000D01*
X122266488Y-54356073D01*
X122117188Y-54326376D01*
X121953216Y-54258456D01*
X121805646Y-54159853D01*
X121680147Y-54034354D01*
X121581544Y-53886784D01*
X121513624Y-53722812D01*
X121479000Y-53548741D01*
X121479000Y-53371259D01*
X121513624Y-53197188D01*
X121581544Y-53033216D01*
X121680147Y-52885646D01*
X121805646Y-52760147D01*
X121953216Y-52661544D01*
X122117188Y-52593624D01*
X122266488Y-52563927D01*
X122291258Y-52559000D01*
X122468742Y-52559000D01*
X122493512Y-52563927D01*
X122493512Y-52563927D01*
G37*
G36*
X165110442Y-50185518D02*
G01*
X165176627Y-50192037D01*
X165346466Y-50243557D01*
X165502991Y-50327222D01*
X165538729Y-50356552D01*
X165640186Y-50439814D01*
X165723448Y-50541271D01*
X165752778Y-50577009D01*
X165836443Y-50733534D01*
X165887963Y-50903373D01*
X165905359Y-51080000D01*
X165887963Y-51256627D01*
X165836443Y-51426466D01*
X165752778Y-51582991D01*
X165723448Y-51618729D01*
X165640186Y-51720186D01*
X165559533Y-51786375D01*
X165502991Y-51832778D01*
X165346466Y-51916443D01*
X165176627Y-51967963D01*
X165110443Y-51974481D01*
X165044260Y-51981000D01*
X164955740Y-51981000D01*
X164889558Y-51974482D01*
X164823373Y-51967963D01*
X164653534Y-51916443D01*
X164497009Y-51832778D01*
X164440467Y-51786375D01*
X164359814Y-51720186D01*
X164276552Y-51618729D01*
X164247222Y-51582991D01*
X164163557Y-51426466D01*
X164112037Y-51256627D01*
X164094641Y-51080000D01*
X164112037Y-50903373D01*
X164163557Y-50733534D01*
X164247222Y-50577009D01*
X164276552Y-50541271D01*
X164359814Y-50439814D01*
X164461271Y-50356552D01*
X164497009Y-50327222D01*
X164653534Y-50243557D01*
X164823373Y-50192037D01*
X164889558Y-50185518D01*
X164955740Y-50179000D01*
X165044260Y-50179000D01*
X165110442Y-50185518D01*
X165110442Y-50185518D01*
G37*
G36*
X122493512Y-50023927D02*
G01*
X122642812Y-50053624D01*
X122806784Y-50121544D01*
X122954354Y-50220147D01*
X123079853Y-50345646D01*
X123178456Y-50493216D01*
X123246376Y-50657188D01*
X123281000Y-50831259D01*
X123281000Y-51008741D01*
X123246376Y-51182812D01*
X123178456Y-51346784D01*
X123079853Y-51494354D01*
X122954354Y-51619853D01*
X122806784Y-51718456D01*
X122642812Y-51786376D01*
X122493512Y-51816073D01*
X122468742Y-51821000D01*
X122291258Y-51821000D01*
X122266488Y-51816073D01*
X122117188Y-51786376D01*
X121953216Y-51718456D01*
X121805646Y-51619853D01*
X121680147Y-51494354D01*
X121581544Y-51346784D01*
X121513624Y-51182812D01*
X121479000Y-51008741D01*
X121479000Y-50831259D01*
X121513624Y-50657188D01*
X121581544Y-50493216D01*
X121680147Y-50345646D01*
X121805646Y-50220147D01*
X121953216Y-50121544D01*
X122117188Y-50053624D01*
X122266488Y-50023927D01*
X122291258Y-50019000D01*
X122468742Y-50019000D01*
X122493512Y-50023927D01*
X122493512Y-50023927D01*
G37*
G36*
X137733512Y-50023927D02*
G01*
X137882812Y-50053624D01*
X138046784Y-50121544D01*
X138194354Y-50220147D01*
X138319853Y-50345646D01*
X138418456Y-50493216D01*
X138486376Y-50657188D01*
X138521000Y-50831259D01*
X138521000Y-51008741D01*
X138486376Y-51182812D01*
X138418456Y-51346784D01*
X138319853Y-51494354D01*
X138194354Y-51619853D01*
X138046784Y-51718456D01*
X137882812Y-51786376D01*
X137733512Y-51816073D01*
X137708742Y-51821000D01*
X137531258Y-51821000D01*
X137506488Y-51816073D01*
X137357188Y-51786376D01*
X137193216Y-51718456D01*
X137045646Y-51619853D01*
X136920147Y-51494354D01*
X136821544Y-51346784D01*
X136753624Y-51182812D01*
X136719000Y-51008741D01*
X136719000Y-50831259D01*
X136753624Y-50657188D01*
X136821544Y-50493216D01*
X136920147Y-50345646D01*
X137045646Y-50220147D01*
X137193216Y-50121544D01*
X137357188Y-50053624D01*
X137506488Y-50023927D01*
X137531258Y-50019000D01*
X137708742Y-50019000D01*
X137733512Y-50023927D01*
X137733512Y-50023927D01*
G37*
G36*
X165110442Y-47645518D02*
G01*
X165176627Y-47652037D01*
X165346466Y-47703557D01*
X165502991Y-47787222D01*
X165538729Y-47816552D01*
X165640186Y-47899814D01*
X165723448Y-48001271D01*
X165752778Y-48037009D01*
X165836443Y-48193534D01*
X165887963Y-48363373D01*
X165905359Y-48540000D01*
X165887963Y-48716627D01*
X165836443Y-48886466D01*
X165752778Y-49042991D01*
X165723448Y-49078729D01*
X165640186Y-49180186D01*
X165559533Y-49246375D01*
X165502991Y-49292778D01*
X165346466Y-49376443D01*
X165176627Y-49427963D01*
X165110443Y-49434481D01*
X165044260Y-49441000D01*
X164955740Y-49441000D01*
X164889557Y-49434481D01*
X164823373Y-49427963D01*
X164653534Y-49376443D01*
X164497009Y-49292778D01*
X164440467Y-49246375D01*
X164359814Y-49180186D01*
X164276552Y-49078729D01*
X164247222Y-49042991D01*
X164163557Y-48886466D01*
X164112037Y-48716627D01*
X164094641Y-48540000D01*
X164112037Y-48363373D01*
X164163557Y-48193534D01*
X164247222Y-48037009D01*
X164276552Y-48001271D01*
X164359814Y-47899814D01*
X164461271Y-47816552D01*
X164497009Y-47787222D01*
X164653534Y-47703557D01*
X164823373Y-47652037D01*
X164889557Y-47645519D01*
X164955740Y-47639000D01*
X165044260Y-47639000D01*
X165110442Y-47645518D01*
X165110442Y-47645518D01*
G37*
G36*
X122493512Y-47483927D02*
G01*
X122642812Y-47513624D01*
X122806784Y-47581544D01*
X122954354Y-47680147D01*
X123079853Y-47805646D01*
X123178456Y-47953216D01*
X123246376Y-48117188D01*
X123281000Y-48291259D01*
X123281000Y-48468741D01*
X123246376Y-48642812D01*
X123178456Y-48806784D01*
X123079853Y-48954354D01*
X122954354Y-49079853D01*
X122806784Y-49178456D01*
X122642812Y-49246376D01*
X122493512Y-49276073D01*
X122468742Y-49281000D01*
X122291258Y-49281000D01*
X122266488Y-49276073D01*
X122117188Y-49246376D01*
X121953216Y-49178456D01*
X121805646Y-49079853D01*
X121680147Y-48954354D01*
X121581544Y-48806784D01*
X121513624Y-48642812D01*
X121479000Y-48468741D01*
X121479000Y-48291259D01*
X121513624Y-48117188D01*
X121581544Y-47953216D01*
X121680147Y-47805646D01*
X121805646Y-47680147D01*
X121953216Y-47581544D01*
X122117188Y-47513624D01*
X122266488Y-47483927D01*
X122291258Y-47479000D01*
X122468742Y-47479000D01*
X122493512Y-47483927D01*
X122493512Y-47483927D01*
G37*
G36*
X137733512Y-47483927D02*
G01*
X137882812Y-47513624D01*
X138046784Y-47581544D01*
X138194354Y-47680147D01*
X138319853Y-47805646D01*
X138418456Y-47953216D01*
X138486376Y-48117188D01*
X138521000Y-48291259D01*
X138521000Y-48468741D01*
X138486376Y-48642812D01*
X138418456Y-48806784D01*
X138319853Y-48954354D01*
X138194354Y-49079853D01*
X138046784Y-49178456D01*
X137882812Y-49246376D01*
X137733512Y-49276073D01*
X137708742Y-49281000D01*
X137531258Y-49281000D01*
X137506488Y-49276073D01*
X137357188Y-49246376D01*
X137193216Y-49178456D01*
X137045646Y-49079853D01*
X136920147Y-48954354D01*
X136821544Y-48806784D01*
X136753624Y-48642812D01*
X136719000Y-48468741D01*
X136719000Y-48291259D01*
X136753624Y-48117188D01*
X136821544Y-47953216D01*
X136920147Y-47805646D01*
X137045646Y-47680147D01*
X137193216Y-47581544D01*
X137357188Y-47513624D01*
X137506488Y-47483927D01*
X137531258Y-47479000D01*
X137708742Y-47479000D01*
X137733512Y-47483927D01*
X137733512Y-47483927D01*
G37*
G36*
X165901000Y-46901000D02*
G01*
X164099000Y-46901000D01*
X164099000Y-45099000D01*
X165901000Y-45099000D01*
X165901000Y-46901000D01*
X165901000Y-46901000D01*
G37*
G36*
X137733512Y-44943927D02*
G01*
X137882812Y-44973624D01*
X138046784Y-45041544D01*
X138194354Y-45140147D01*
X138319853Y-45265646D01*
X138418456Y-45413216D01*
X138486376Y-45577188D01*
X138521000Y-45751259D01*
X138521000Y-45928741D01*
X138486376Y-46102812D01*
X138418456Y-46266784D01*
X138319853Y-46414354D01*
X138194354Y-46539853D01*
X138046784Y-46638456D01*
X137882812Y-46706376D01*
X137733512Y-46736073D01*
X137708742Y-46741000D01*
X137531258Y-46741000D01*
X137506488Y-46736073D01*
X137357188Y-46706376D01*
X137193216Y-46638456D01*
X137045646Y-46539853D01*
X136920147Y-46414354D01*
X136821544Y-46266784D01*
X136753624Y-46102812D01*
X136719000Y-45928741D01*
X136719000Y-45751259D01*
X136753624Y-45577188D01*
X136821544Y-45413216D01*
X136920147Y-45265646D01*
X137045646Y-45140147D01*
X137193216Y-45041544D01*
X137357188Y-44973624D01*
X137506488Y-44943927D01*
X137531258Y-44939000D01*
X137708742Y-44939000D01*
X137733512Y-44943927D01*
X137733512Y-44943927D01*
G37*
G36*
X122493512Y-44943927D02*
G01*
X122642812Y-44973624D01*
X122806784Y-45041544D01*
X122954354Y-45140147D01*
X123079853Y-45265646D01*
X123178456Y-45413216D01*
X123246376Y-45577188D01*
X123281000Y-45751259D01*
X123281000Y-45928741D01*
X123246376Y-46102812D01*
X123178456Y-46266784D01*
X123079853Y-46414354D01*
X122954354Y-46539853D01*
X122806784Y-46638456D01*
X122642812Y-46706376D01*
X122493512Y-46736073D01*
X122468742Y-46741000D01*
X122291258Y-46741000D01*
X122266488Y-46736073D01*
X122117188Y-46706376D01*
X121953216Y-46638456D01*
X121805646Y-46539853D01*
X121680147Y-46414354D01*
X121581544Y-46266784D01*
X121513624Y-46102812D01*
X121479000Y-45928741D01*
X121479000Y-45751259D01*
X121513624Y-45577188D01*
X121581544Y-45413216D01*
X121680147Y-45265646D01*
X121805646Y-45140147D01*
X121953216Y-45041544D01*
X122117188Y-44973624D01*
X122266488Y-44943927D01*
X122291258Y-44939000D01*
X122468742Y-44939000D01*
X122493512Y-44943927D01*
X122493512Y-44943927D01*
G37*
G36*
X137733512Y-42403927D02*
G01*
X137882812Y-42433624D01*
X138046784Y-42501544D01*
X138194354Y-42600147D01*
X138319853Y-42725646D01*
X138418456Y-42873216D01*
X138486376Y-43037188D01*
X138521000Y-43211259D01*
X138521000Y-43388741D01*
X138486376Y-43562812D01*
X138418456Y-43726784D01*
X138319853Y-43874354D01*
X138194354Y-43999853D01*
X138046784Y-44098456D01*
X137882812Y-44166376D01*
X137733512Y-44196073D01*
X137708742Y-44201000D01*
X137531258Y-44201000D01*
X137506488Y-44196073D01*
X137357188Y-44166376D01*
X137193216Y-44098456D01*
X137045646Y-43999853D01*
X136920147Y-43874354D01*
X136821544Y-43726784D01*
X136753624Y-43562812D01*
X136719000Y-43388741D01*
X136719000Y-43211259D01*
X136753624Y-43037188D01*
X136821544Y-42873216D01*
X136920147Y-42725646D01*
X137045646Y-42600147D01*
X137193216Y-42501544D01*
X137357188Y-42433624D01*
X137506488Y-42403927D01*
X137531258Y-42399000D01*
X137708742Y-42399000D01*
X137733512Y-42403927D01*
X137733512Y-42403927D01*
G37*
G36*
X122493512Y-42403927D02*
G01*
X122642812Y-42433624D01*
X122806784Y-42501544D01*
X122954354Y-42600147D01*
X123079853Y-42725646D01*
X123178456Y-42873216D01*
X123246376Y-43037188D01*
X123281000Y-43211259D01*
X123281000Y-43388741D01*
X123246376Y-43562812D01*
X123178456Y-43726784D01*
X123079853Y-43874354D01*
X122954354Y-43999853D01*
X122806784Y-44098456D01*
X122642812Y-44166376D01*
X122493512Y-44196073D01*
X122468742Y-44201000D01*
X122291258Y-44201000D01*
X122266488Y-44196073D01*
X122117188Y-44166376D01*
X121953216Y-44098456D01*
X121805646Y-43999853D01*
X121680147Y-43874354D01*
X121581544Y-43726784D01*
X121513624Y-43562812D01*
X121479000Y-43388741D01*
X121479000Y-43211259D01*
X121513624Y-43037188D01*
X121581544Y-42873216D01*
X121680147Y-42725646D01*
X121805646Y-42600147D01*
X121953216Y-42501544D01*
X122117188Y-42433624D01*
X122266488Y-42403927D01*
X122291258Y-42399000D01*
X122468742Y-42399000D01*
X122493512Y-42403927D01*
X122493512Y-42403927D01*
G37*
G36*
X122493512Y-39863927D02*
G01*
X122642812Y-39893624D01*
X122806784Y-39961544D01*
X122954354Y-40060147D01*
X123079853Y-40185646D01*
X123178456Y-40333216D01*
X123246376Y-40497188D01*
X123281000Y-40671259D01*
X123281000Y-40848741D01*
X123246376Y-41022812D01*
X123178456Y-41186784D01*
X123079853Y-41334354D01*
X122954354Y-41459853D01*
X122806784Y-41558456D01*
X122642812Y-41626376D01*
X122493512Y-41656073D01*
X122468742Y-41661000D01*
X122291258Y-41661000D01*
X122266488Y-41656073D01*
X122117188Y-41626376D01*
X121953216Y-41558456D01*
X121805646Y-41459853D01*
X121680147Y-41334354D01*
X121581544Y-41186784D01*
X121513624Y-41022812D01*
X121479000Y-40848741D01*
X121479000Y-40671259D01*
X121513624Y-40497188D01*
X121581544Y-40333216D01*
X121680147Y-40185646D01*
X121805646Y-40060147D01*
X121953216Y-39961544D01*
X122117188Y-39893624D01*
X122266488Y-39863927D01*
X122291258Y-39859000D01*
X122468742Y-39859000D01*
X122493512Y-39863927D01*
X122493512Y-39863927D01*
G37*
G36*
X137733512Y-39863927D02*
G01*
X137882812Y-39893624D01*
X138046784Y-39961544D01*
X138194354Y-40060147D01*
X138319853Y-40185646D01*
X138418456Y-40333216D01*
X138486376Y-40497188D01*
X138521000Y-40671259D01*
X138521000Y-40848741D01*
X138486376Y-41022812D01*
X138418456Y-41186784D01*
X138319853Y-41334354D01*
X138194354Y-41459853D01*
X138046784Y-41558456D01*
X137882812Y-41626376D01*
X137733512Y-41656073D01*
X137708742Y-41661000D01*
X137531258Y-41661000D01*
X137506488Y-41656073D01*
X137357188Y-41626376D01*
X137193216Y-41558456D01*
X137045646Y-41459853D01*
X136920147Y-41334354D01*
X136821544Y-41186784D01*
X136753624Y-41022812D01*
X136719000Y-40848741D01*
X136719000Y-40671259D01*
X136753624Y-40497188D01*
X136821544Y-40333216D01*
X136920147Y-40185646D01*
X137045646Y-40060147D01*
X137193216Y-39961544D01*
X137357188Y-39893624D01*
X137506488Y-39863927D01*
X137531258Y-39859000D01*
X137708742Y-39859000D01*
X137733512Y-39863927D01*
X137733512Y-39863927D01*
G37*
G36*
X165110442Y-37725518D02*
G01*
X165176627Y-37732037D01*
X165346466Y-37783557D01*
X165502991Y-37867222D01*
X165538729Y-37896552D01*
X165640186Y-37979814D01*
X165723448Y-38081271D01*
X165752778Y-38117009D01*
X165836443Y-38273534D01*
X165887963Y-38443373D01*
X165905359Y-38620000D01*
X165887963Y-38796627D01*
X165836443Y-38966466D01*
X165752778Y-39122991D01*
X165723448Y-39158729D01*
X165640186Y-39260186D01*
X165538729Y-39343448D01*
X165502991Y-39372778D01*
X165346466Y-39456443D01*
X165176627Y-39507963D01*
X165110442Y-39514482D01*
X165044260Y-39521000D01*
X164955740Y-39521000D01*
X164889557Y-39514481D01*
X164823373Y-39507963D01*
X164653534Y-39456443D01*
X164497009Y-39372778D01*
X164461271Y-39343448D01*
X164359814Y-39260186D01*
X164276552Y-39158729D01*
X164247222Y-39122991D01*
X164163557Y-38966466D01*
X164112037Y-38796627D01*
X164094641Y-38620000D01*
X164112037Y-38443373D01*
X164163557Y-38273534D01*
X164247222Y-38117009D01*
X164276552Y-38081271D01*
X164359814Y-37979814D01*
X164461271Y-37896552D01*
X164497009Y-37867222D01*
X164653534Y-37783557D01*
X164823373Y-37732037D01*
X164889558Y-37725518D01*
X164955740Y-37719000D01*
X165044260Y-37719000D01*
X165110442Y-37725518D01*
X165110442Y-37725518D01*
G37*
G36*
X122968578Y-37327048D02*
G01*
X123041249Y-37349093D01*
X123108225Y-37384892D01*
X123166930Y-37433070D01*
X123215108Y-37491775D01*
X123250907Y-37558751D01*
X123272952Y-37631422D01*
X123281000Y-37713140D01*
X123281000Y-38726860D01*
X123272952Y-38808578D01*
X123250907Y-38881249D01*
X123215108Y-38948225D01*
X123166930Y-39006930D01*
X123108225Y-39055108D01*
X123041249Y-39090907D01*
X122968578Y-39112952D01*
X122886860Y-39121000D01*
X121873140Y-39121000D01*
X121791422Y-39112952D01*
X121718751Y-39090907D01*
X121651775Y-39055108D01*
X121593070Y-39006930D01*
X121544892Y-38948225D01*
X121509093Y-38881249D01*
X121487048Y-38808578D01*
X121479000Y-38726860D01*
X121479000Y-37713140D01*
X121487048Y-37631422D01*
X121509093Y-37558751D01*
X121544892Y-37491775D01*
X121593070Y-37433070D01*
X121651775Y-37384892D01*
X121718751Y-37349093D01*
X121791422Y-37327048D01*
X121873140Y-37319000D01*
X122886860Y-37319000D01*
X122968578Y-37327048D01*
X122968578Y-37327048D01*
G37*
G36*
X138208578Y-37327048D02*
G01*
X138281249Y-37349093D01*
X138348225Y-37384892D01*
X138406930Y-37433070D01*
X138455108Y-37491775D01*
X138490907Y-37558751D01*
X138512952Y-37631422D01*
X138521000Y-37713140D01*
X138521000Y-38726860D01*
X138512952Y-38808578D01*
X138490907Y-38881249D01*
X138455108Y-38948225D01*
X138406930Y-39006930D01*
X138348225Y-39055108D01*
X138281249Y-39090907D01*
X138208578Y-39112952D01*
X138126860Y-39121000D01*
X137113140Y-39121000D01*
X137031422Y-39112952D01*
X136958751Y-39090907D01*
X136891775Y-39055108D01*
X136833070Y-39006930D01*
X136784892Y-38948225D01*
X136749093Y-38881249D01*
X136727048Y-38808578D01*
X136719000Y-38726860D01*
X136719000Y-37713140D01*
X136727048Y-37631422D01*
X136749093Y-37558751D01*
X136784892Y-37491775D01*
X136833070Y-37433070D01*
X136891775Y-37384892D01*
X136958751Y-37349093D01*
X137031422Y-37327048D01*
X137113140Y-37319000D01*
X138126860Y-37319000D01*
X138208578Y-37327048D01*
X138208578Y-37327048D01*
G37*
G36*
X165110443Y-35185519D02*
G01*
X165176627Y-35192037D01*
X165346466Y-35243557D01*
X165502991Y-35327222D01*
X165538729Y-35356552D01*
X165640186Y-35439814D01*
X165723448Y-35541271D01*
X165752778Y-35577009D01*
X165836443Y-35733534D01*
X165887963Y-35903373D01*
X165905359Y-36080000D01*
X165887963Y-36256627D01*
X165836443Y-36426466D01*
X165752778Y-36582991D01*
X165723448Y-36618729D01*
X165640186Y-36720186D01*
X165538729Y-36803448D01*
X165502991Y-36832778D01*
X165346466Y-36916443D01*
X165176627Y-36967963D01*
X165110442Y-36974482D01*
X165044260Y-36981000D01*
X164955740Y-36981000D01*
X164889557Y-36974481D01*
X164823373Y-36967963D01*
X164653534Y-36916443D01*
X164497009Y-36832778D01*
X164461271Y-36803448D01*
X164359814Y-36720186D01*
X164276552Y-36618729D01*
X164247222Y-36582991D01*
X164163557Y-36426466D01*
X164112037Y-36256627D01*
X164094641Y-36080000D01*
X164112037Y-35903373D01*
X164163557Y-35733534D01*
X164247222Y-35577009D01*
X164276552Y-35541271D01*
X164359814Y-35439814D01*
X164461271Y-35356552D01*
X164497009Y-35327222D01*
X164653534Y-35243557D01*
X164823373Y-35192037D01*
X164889557Y-35185519D01*
X164955740Y-35179000D01*
X165044260Y-35179000D01*
X165110443Y-35185519D01*
X165110443Y-35185519D01*
G37*
G36*
X165110442Y-32645518D02*
G01*
X165176627Y-32652037D01*
X165346466Y-32703557D01*
X165502991Y-32787222D01*
X165538729Y-32816552D01*
X165640186Y-32899814D01*
X165723448Y-33001271D01*
X165752778Y-33037009D01*
X165836443Y-33193534D01*
X165887963Y-33363373D01*
X165905359Y-33540000D01*
X165887963Y-33716627D01*
X165836443Y-33886466D01*
X165752778Y-34042991D01*
X165723448Y-34078729D01*
X165640186Y-34180186D01*
X165538729Y-34263448D01*
X165502991Y-34292778D01*
X165346466Y-34376443D01*
X165176627Y-34427963D01*
X165110443Y-34434481D01*
X165044260Y-34441000D01*
X164955740Y-34441000D01*
X164889557Y-34434481D01*
X164823373Y-34427963D01*
X164653534Y-34376443D01*
X164497009Y-34292778D01*
X164461271Y-34263448D01*
X164359814Y-34180186D01*
X164276552Y-34078729D01*
X164247222Y-34042991D01*
X164163557Y-33886466D01*
X164112037Y-33716627D01*
X164094641Y-33540000D01*
X164112037Y-33363373D01*
X164163557Y-33193534D01*
X164247222Y-33037009D01*
X164276552Y-33001271D01*
X164359814Y-32899814D01*
X164461271Y-32816552D01*
X164497009Y-32787222D01*
X164653534Y-32703557D01*
X164823373Y-32652037D01*
X164889558Y-32645518D01*
X164955740Y-32639000D01*
X165044260Y-32639000D01*
X165110442Y-32645518D01*
X165110442Y-32645518D01*
G37*
G36*
X165901000Y-31901000D02*
G01*
X164099000Y-31901000D01*
X164099000Y-30099000D01*
X165901000Y-30099000D01*
X165901000Y-31901000D01*
X165901000Y-31901000D01*
G37*
M02*
