G04 #@! TF.GenerationSoftware,KiCad,Pcbnew,(5.1.0)-1*
G04 #@! TF.CreationDate,2019-09-18T00:43:19-07:00*
G04 #@! TF.ProjectId,design,64657369-676e-42e6-9b69-6361645f7063,rev?*
G04 #@! TF.SameCoordinates,Original*
G04 #@! TF.FileFunction,Soldermask,Bot*
G04 #@! TF.FilePolarity,Negative*
%FSLAX46Y46*%
G04 Gerber Fmt 4.6, Leading zero omitted, Abs format (unit mm)*
G04 Created by KiCad (PCBNEW (5.1.0)-1) date 2019-09-18 00:43:19*
%MOMM*%
%LPD*%
G04 APERTURE LIST*
%ADD10C,0.100000*%
G04 APERTURE END LIST*
D10*
G36*
X160788014Y-81556973D02*
G01*
X160891878Y-81588479D01*
X160913035Y-81599788D01*
X160987599Y-81639643D01*
X160987601Y-81639644D01*
X160987600Y-81639644D01*
X161071501Y-81708499D01*
X161140356Y-81792400D01*
X161191521Y-81888121D01*
X161223027Y-81991985D01*
X161231000Y-82072933D01*
X161231000Y-82927067D01*
X161223027Y-83008015D01*
X161191521Y-83111879D01*
X161191519Y-83111882D01*
X161140357Y-83207600D01*
X161071501Y-83291501D01*
X160987600Y-83360357D01*
X160919055Y-83396995D01*
X160891879Y-83411521D01*
X160788015Y-83443027D01*
X160680000Y-83453666D01*
X160571986Y-83443027D01*
X160468122Y-83411521D01*
X160440946Y-83396995D01*
X160372401Y-83360357D01*
X160288500Y-83291501D01*
X160219644Y-83207600D01*
X160168482Y-83111882D01*
X160168480Y-83111879D01*
X160136973Y-83008015D01*
X160129000Y-82927067D01*
X160129000Y-82072934D01*
X160136973Y-81991986D01*
X160168479Y-81888122D01*
X160219644Y-81792400D01*
X160288499Y-81708499D01*
X160372400Y-81639644D01*
X160372399Y-81639644D01*
X160372401Y-81639643D01*
X160446964Y-81599788D01*
X160468121Y-81588479D01*
X160571985Y-81556973D01*
X160680000Y-81546334D01*
X160788014Y-81556973D01*
X160788014Y-81556973D01*
G37*
G36*
X169428014Y-81556973D02*
G01*
X169531878Y-81588479D01*
X169553035Y-81599788D01*
X169627599Y-81639643D01*
X169627601Y-81639644D01*
X169627600Y-81639644D01*
X169711501Y-81708499D01*
X169780356Y-81792400D01*
X169831521Y-81888121D01*
X169863027Y-81991985D01*
X169871000Y-82072933D01*
X169871000Y-82927067D01*
X169863027Y-83008015D01*
X169831521Y-83111879D01*
X169831519Y-83111882D01*
X169780357Y-83207600D01*
X169711501Y-83291501D01*
X169627600Y-83360357D01*
X169559055Y-83396995D01*
X169531879Y-83411521D01*
X169428015Y-83443027D01*
X169320000Y-83453666D01*
X169211986Y-83443027D01*
X169108122Y-83411521D01*
X169080946Y-83396995D01*
X169012401Y-83360357D01*
X168928500Y-83291501D01*
X168859644Y-83207600D01*
X168808482Y-83111882D01*
X168808480Y-83111879D01*
X168776973Y-83008015D01*
X168769000Y-82927067D01*
X168769000Y-82072934D01*
X168776973Y-81991986D01*
X168808479Y-81888122D01*
X168859644Y-81792400D01*
X168928499Y-81708499D01*
X169012400Y-81639644D01*
X169012399Y-81639644D01*
X169012401Y-81639643D01*
X169086964Y-81599788D01*
X169108121Y-81588479D01*
X169211985Y-81556973D01*
X169320000Y-81546334D01*
X169428014Y-81556973D01*
X169428014Y-81556973D01*
G37*
G36*
X241348156Y-74672794D02*
G01*
X242069140Y-74816206D01*
X242860972Y-75144193D01*
X243573601Y-75620357D01*
X244179643Y-76226399D01*
X244655807Y-76939028D01*
X244983794Y-77730860D01*
X245151000Y-78571464D01*
X245151000Y-79428536D01*
X244983794Y-80269140D01*
X244655807Y-81060972D01*
X244179643Y-81773601D01*
X243573601Y-82379643D01*
X242860972Y-82855807D01*
X242069140Y-83183794D01*
X241348156Y-83327206D01*
X241228537Y-83351000D01*
X240371463Y-83351000D01*
X240251844Y-83327206D01*
X239530860Y-83183794D01*
X238739028Y-82855807D01*
X238026399Y-82379643D01*
X237420357Y-81773601D01*
X236944193Y-81060972D01*
X236616206Y-80269140D01*
X236449000Y-79428536D01*
X236449000Y-78571464D01*
X236616206Y-77730860D01*
X236944193Y-76939028D01*
X237420357Y-76226399D01*
X238026399Y-75620357D01*
X238739028Y-75144193D01*
X239530860Y-74816206D01*
X240251844Y-74672794D01*
X240371463Y-74649000D01*
X241228537Y-74649000D01*
X241348156Y-74672794D01*
X241348156Y-74672794D01*
G37*
G36*
X199326000Y-81681000D02*
G01*
X196674000Y-81681000D01*
X196674000Y-80519000D01*
X199326000Y-80519000D01*
X199326000Y-81681000D01*
X199326000Y-81681000D01*
G37*
G36*
X192451000Y-81501000D02*
G01*
X191549000Y-81501000D01*
X191549000Y-80499000D01*
X192451000Y-80499000D01*
X192451000Y-81501000D01*
X192451000Y-81501000D01*
G37*
G36*
X201379591Y-80303085D02*
G01*
X201413569Y-80313393D01*
X201444890Y-80330134D01*
X201472339Y-80352661D01*
X201494866Y-80380110D01*
X201511607Y-80411431D01*
X201521915Y-80445409D01*
X201526000Y-80486890D01*
X201526000Y-81088110D01*
X201521915Y-81129591D01*
X201511607Y-81163569D01*
X201494866Y-81194890D01*
X201472339Y-81222339D01*
X201444890Y-81244866D01*
X201413569Y-81261607D01*
X201379591Y-81271915D01*
X201338110Y-81276000D01*
X200661890Y-81276000D01*
X200620409Y-81271915D01*
X200586431Y-81261607D01*
X200555110Y-81244866D01*
X200527661Y-81222339D01*
X200505134Y-81194890D01*
X200488393Y-81163569D01*
X200478085Y-81129591D01*
X200474000Y-81088110D01*
X200474000Y-80486890D01*
X200478085Y-80445409D01*
X200488393Y-80411431D01*
X200505134Y-80380110D01*
X200527661Y-80352661D01*
X200555110Y-80330134D01*
X200586431Y-80313393D01*
X200620409Y-80303085D01*
X200661890Y-80299000D01*
X201338110Y-80299000D01*
X201379591Y-80303085D01*
X201379591Y-80303085D01*
G37*
G36*
X195379591Y-80303085D02*
G01*
X195413569Y-80313393D01*
X195444890Y-80330134D01*
X195472339Y-80352661D01*
X195494866Y-80380110D01*
X195511607Y-80411431D01*
X195521915Y-80445409D01*
X195526000Y-80486890D01*
X195526000Y-81088110D01*
X195521915Y-81129591D01*
X195511607Y-81163569D01*
X195494866Y-81194890D01*
X195472339Y-81222339D01*
X195444890Y-81244866D01*
X195413569Y-81261607D01*
X195379591Y-81271915D01*
X195338110Y-81276000D01*
X194661890Y-81276000D01*
X194620409Y-81271915D01*
X194586431Y-81261607D01*
X194555110Y-81244866D01*
X194527661Y-81222339D01*
X194505134Y-81194890D01*
X194488393Y-81163569D01*
X194478085Y-81129591D01*
X194474000Y-81088110D01*
X194474000Y-80486890D01*
X194478085Y-80445409D01*
X194488393Y-80411431D01*
X194505134Y-80380110D01*
X194527661Y-80352661D01*
X194555110Y-80330134D01*
X194586431Y-80313393D01*
X194620409Y-80303085D01*
X194661890Y-80299000D01*
X195338110Y-80299000D01*
X195379591Y-80303085D01*
X195379591Y-80303085D01*
G37*
G36*
X195379591Y-78728085D02*
G01*
X195413569Y-78738393D01*
X195444890Y-78755134D01*
X195472339Y-78777661D01*
X195494866Y-78805110D01*
X195511607Y-78836431D01*
X195521915Y-78870409D01*
X195526000Y-78911890D01*
X195526000Y-79513110D01*
X195521915Y-79554591D01*
X195511607Y-79588569D01*
X195494866Y-79619890D01*
X195472339Y-79647339D01*
X195444890Y-79669866D01*
X195413569Y-79686607D01*
X195379591Y-79696915D01*
X195338110Y-79701000D01*
X194661890Y-79701000D01*
X194620409Y-79696915D01*
X194586431Y-79686607D01*
X194555110Y-79669866D01*
X194527661Y-79647339D01*
X194505134Y-79619890D01*
X194488393Y-79588569D01*
X194478085Y-79554591D01*
X194474000Y-79513110D01*
X194474000Y-78911890D01*
X194478085Y-78870409D01*
X194488393Y-78836431D01*
X194505134Y-78805110D01*
X194527661Y-78777661D01*
X194555110Y-78755134D01*
X194586431Y-78738393D01*
X194620409Y-78728085D01*
X194661890Y-78724000D01*
X195338110Y-78724000D01*
X195379591Y-78728085D01*
X195379591Y-78728085D01*
G37*
G36*
X201379591Y-78728085D02*
G01*
X201413569Y-78738393D01*
X201444890Y-78755134D01*
X201472339Y-78777661D01*
X201494866Y-78805110D01*
X201511607Y-78836431D01*
X201521915Y-78870409D01*
X201526000Y-78911890D01*
X201526000Y-79513110D01*
X201521915Y-79554591D01*
X201511607Y-79588569D01*
X201494866Y-79619890D01*
X201472339Y-79647339D01*
X201444890Y-79669866D01*
X201413569Y-79686607D01*
X201379591Y-79696915D01*
X201338110Y-79701000D01*
X200661890Y-79701000D01*
X200620409Y-79696915D01*
X200586431Y-79686607D01*
X200555110Y-79669866D01*
X200527661Y-79647339D01*
X200505134Y-79619890D01*
X200488393Y-79588569D01*
X200478085Y-79554591D01*
X200474000Y-79513110D01*
X200474000Y-78911890D01*
X200478085Y-78870409D01*
X200488393Y-78836431D01*
X200505134Y-78805110D01*
X200527661Y-78777661D01*
X200555110Y-78755134D01*
X200586431Y-78738393D01*
X200620409Y-78728085D01*
X200661890Y-78724000D01*
X201338110Y-78724000D01*
X201379591Y-78728085D01*
X201379591Y-78728085D01*
G37*
G36*
X193401000Y-79501000D02*
G01*
X192499000Y-79501000D01*
X192499000Y-78499000D01*
X193401000Y-78499000D01*
X193401000Y-79501000D01*
X193401000Y-79501000D01*
G37*
G36*
X191501000Y-79501000D02*
G01*
X190599000Y-79501000D01*
X190599000Y-78499000D01*
X191501000Y-78499000D01*
X191501000Y-79501000D01*
X191501000Y-79501000D01*
G37*
G36*
X199326000Y-79481000D02*
G01*
X198574000Y-79481000D01*
X198574000Y-78319000D01*
X199326000Y-78319000D01*
X199326000Y-79481000D01*
X199326000Y-79481000D01*
G37*
G36*
X197426000Y-79481000D02*
G01*
X196674000Y-79481000D01*
X196674000Y-78319000D01*
X197426000Y-78319000D01*
X197426000Y-79481000D01*
X197426000Y-79481000D01*
G37*
G36*
X160788014Y-77226973D02*
G01*
X160891878Y-77258479D01*
X160935907Y-77282013D01*
X160987599Y-77309643D01*
X160987601Y-77309644D01*
X160987600Y-77309644D01*
X161071501Y-77378499D01*
X161129887Y-77449643D01*
X161140357Y-77462401D01*
X161167462Y-77513110D01*
X161191521Y-77558121D01*
X161223027Y-77661985D01*
X161231000Y-77742933D01*
X161231000Y-78897067D01*
X161223027Y-78978015D01*
X161191521Y-79081879D01*
X161188190Y-79088110D01*
X161140357Y-79177600D01*
X161071501Y-79261501D01*
X160987600Y-79330357D01*
X160919055Y-79366995D01*
X160891879Y-79381521D01*
X160788015Y-79413027D01*
X160680000Y-79423666D01*
X160571986Y-79413027D01*
X160468122Y-79381521D01*
X160440946Y-79366995D01*
X160372401Y-79330357D01*
X160288500Y-79261501D01*
X160219644Y-79177600D01*
X160171811Y-79088110D01*
X160168480Y-79081879D01*
X160136974Y-78978015D01*
X160129001Y-78897067D01*
X160129000Y-77742934D01*
X160136973Y-77661986D01*
X160168479Y-77558122D01*
X160219644Y-77462400D01*
X160288499Y-77378499D01*
X160372400Y-77309644D01*
X160372399Y-77309644D01*
X160372401Y-77309643D01*
X160424093Y-77282013D01*
X160468121Y-77258479D01*
X160571985Y-77226973D01*
X160680000Y-77216334D01*
X160788014Y-77226973D01*
X160788014Y-77226973D01*
G37*
G36*
X169428014Y-77226973D02*
G01*
X169531878Y-77258479D01*
X169575907Y-77282013D01*
X169627599Y-77309643D01*
X169627601Y-77309644D01*
X169627600Y-77309644D01*
X169711501Y-77378499D01*
X169769887Y-77449643D01*
X169780357Y-77462401D01*
X169807462Y-77513110D01*
X169831521Y-77558121D01*
X169863027Y-77661985D01*
X169871000Y-77742933D01*
X169871000Y-78897067D01*
X169863027Y-78978015D01*
X169831521Y-79081879D01*
X169828190Y-79088110D01*
X169780357Y-79177600D01*
X169711501Y-79261501D01*
X169627600Y-79330357D01*
X169559055Y-79366995D01*
X169531879Y-79381521D01*
X169428015Y-79413027D01*
X169320000Y-79423666D01*
X169211986Y-79413027D01*
X169108122Y-79381521D01*
X169080946Y-79366995D01*
X169012401Y-79330357D01*
X168928500Y-79261501D01*
X168859644Y-79177600D01*
X168811811Y-79088110D01*
X168808480Y-79081879D01*
X168776974Y-78978015D01*
X168769001Y-78897067D01*
X168769000Y-77742934D01*
X168776973Y-77661986D01*
X168808479Y-77558122D01*
X168859644Y-77462400D01*
X168928499Y-77378499D01*
X169012400Y-77309644D01*
X169012399Y-77309644D01*
X169012401Y-77309643D01*
X169064093Y-77282013D01*
X169108121Y-77258479D01*
X169211985Y-77226973D01*
X169320000Y-77216334D01*
X169428014Y-77226973D01*
X169428014Y-77226973D01*
G37*
G36*
X130379591Y-78303085D02*
G01*
X130413569Y-78313393D01*
X130444890Y-78330134D01*
X130472339Y-78352661D01*
X130494866Y-78380110D01*
X130511607Y-78411431D01*
X130521915Y-78445409D01*
X130526000Y-78486890D01*
X130526000Y-79088110D01*
X130521915Y-79129591D01*
X130511607Y-79163569D01*
X130494866Y-79194890D01*
X130472339Y-79222339D01*
X130444890Y-79244866D01*
X130413569Y-79261607D01*
X130379591Y-79271915D01*
X130338110Y-79276000D01*
X129661890Y-79276000D01*
X129620409Y-79271915D01*
X129586431Y-79261607D01*
X129555110Y-79244866D01*
X129527661Y-79222339D01*
X129505134Y-79194890D01*
X129488393Y-79163569D01*
X129478085Y-79129591D01*
X129474000Y-79088110D01*
X129474000Y-78486890D01*
X129478085Y-78445409D01*
X129488393Y-78411431D01*
X129505134Y-78380110D01*
X129527661Y-78352661D01*
X129555110Y-78330134D01*
X129586431Y-78313393D01*
X129620409Y-78303085D01*
X129661890Y-78299000D01*
X130338110Y-78299000D01*
X130379591Y-78303085D01*
X130379591Y-78303085D01*
G37*
G36*
X162183710Y-78449440D02*
G01*
X162254585Y-78470940D01*
X162319904Y-78505854D01*
X162377159Y-78552841D01*
X162424146Y-78610096D01*
X162459060Y-78675415D01*
X162480560Y-78746290D01*
X162487819Y-78820000D01*
X162480560Y-78893710D01*
X162459060Y-78964585D01*
X162424146Y-79029904D01*
X162377159Y-79087159D01*
X162319904Y-79134146D01*
X162254585Y-79169060D01*
X162183710Y-79190560D01*
X162128472Y-79196000D01*
X162091528Y-79196000D01*
X162036290Y-79190560D01*
X161965415Y-79169060D01*
X161900096Y-79134146D01*
X161842841Y-79087159D01*
X161795854Y-79029904D01*
X161760940Y-78964585D01*
X161739440Y-78893710D01*
X161732181Y-78820000D01*
X161739440Y-78746290D01*
X161760940Y-78675415D01*
X161795854Y-78610096D01*
X161842841Y-78552841D01*
X161900096Y-78505854D01*
X161965415Y-78470940D01*
X162036290Y-78449440D01*
X162091528Y-78444000D01*
X162128472Y-78444000D01*
X162183710Y-78449440D01*
X162183710Y-78449440D01*
G37*
G36*
X167963710Y-78449440D02*
G01*
X168034585Y-78470940D01*
X168099904Y-78505854D01*
X168157159Y-78552841D01*
X168204146Y-78610096D01*
X168239060Y-78675415D01*
X168260560Y-78746290D01*
X168267819Y-78820000D01*
X168260560Y-78893710D01*
X168239060Y-78964585D01*
X168204146Y-79029904D01*
X168157159Y-79087159D01*
X168099904Y-79134146D01*
X168034585Y-79169060D01*
X167963710Y-79190560D01*
X167908472Y-79196000D01*
X167871528Y-79196000D01*
X167816290Y-79190560D01*
X167745415Y-79169060D01*
X167680096Y-79134146D01*
X167622841Y-79087159D01*
X167575854Y-79029904D01*
X167540940Y-78964585D01*
X167519440Y-78893710D01*
X167512181Y-78820000D01*
X167519440Y-78746290D01*
X167540940Y-78675415D01*
X167575854Y-78610096D01*
X167622841Y-78552841D01*
X167680096Y-78505854D01*
X167745415Y-78470940D01*
X167816290Y-78449440D01*
X167871528Y-78444000D01*
X167908472Y-78444000D01*
X167963710Y-78449440D01*
X167963710Y-78449440D01*
G37*
G36*
X130379591Y-76728085D02*
G01*
X130413569Y-76738393D01*
X130444890Y-76755134D01*
X130472339Y-76777661D01*
X130494866Y-76805110D01*
X130511607Y-76836431D01*
X130521915Y-76870409D01*
X130526000Y-76911890D01*
X130526000Y-77513110D01*
X130521915Y-77554591D01*
X130511607Y-77588569D01*
X130494866Y-77619890D01*
X130472339Y-77647339D01*
X130444890Y-77669866D01*
X130413569Y-77686607D01*
X130379591Y-77696915D01*
X130338110Y-77701000D01*
X129661890Y-77701000D01*
X129620409Y-77696915D01*
X129586431Y-77686607D01*
X129555110Y-77669866D01*
X129527661Y-77647339D01*
X129505134Y-77619890D01*
X129488393Y-77588569D01*
X129478085Y-77554591D01*
X129474000Y-77513110D01*
X129474000Y-76911890D01*
X129478085Y-76870409D01*
X129488393Y-76836431D01*
X129505134Y-76805110D01*
X129527661Y-76777661D01*
X129555110Y-76755134D01*
X129586431Y-76738393D01*
X129620409Y-76728085D01*
X129661890Y-76724000D01*
X130338110Y-76724000D01*
X130379591Y-76728085D01*
X130379591Y-76728085D01*
G37*
G36*
X199309468Y-75253565D02*
G01*
X199348138Y-75265296D01*
X199383777Y-75284346D01*
X199415017Y-75309983D01*
X199440654Y-75341223D01*
X199459704Y-75376862D01*
X199471435Y-75415532D01*
X199476000Y-75461888D01*
X199476000Y-76538112D01*
X199471435Y-76584468D01*
X199459704Y-76623138D01*
X199440654Y-76658777D01*
X199415017Y-76690017D01*
X199383777Y-76715654D01*
X199348138Y-76734704D01*
X199309468Y-76746435D01*
X199263112Y-76751000D01*
X198611888Y-76751000D01*
X198565532Y-76746435D01*
X198526862Y-76734704D01*
X198491223Y-76715654D01*
X198459983Y-76690017D01*
X198434346Y-76658777D01*
X198415296Y-76623138D01*
X198403565Y-76584468D01*
X198399000Y-76538112D01*
X198399000Y-75461888D01*
X198403565Y-75415532D01*
X198415296Y-75376862D01*
X198434346Y-75341223D01*
X198459983Y-75309983D01*
X198491223Y-75284346D01*
X198526862Y-75265296D01*
X198565532Y-75253565D01*
X198611888Y-75249000D01*
X199263112Y-75249000D01*
X199309468Y-75253565D01*
X199309468Y-75253565D01*
G37*
G36*
X197434468Y-75253565D02*
G01*
X197473138Y-75265296D01*
X197508777Y-75284346D01*
X197540017Y-75309983D01*
X197565654Y-75341223D01*
X197584704Y-75376862D01*
X197596435Y-75415532D01*
X197601000Y-75461888D01*
X197601000Y-76538112D01*
X197596435Y-76584468D01*
X197584704Y-76623138D01*
X197565654Y-76658777D01*
X197540017Y-76690017D01*
X197508777Y-76715654D01*
X197473138Y-76734704D01*
X197434468Y-76746435D01*
X197388112Y-76751000D01*
X196736888Y-76751000D01*
X196690532Y-76746435D01*
X196651862Y-76734704D01*
X196616223Y-76715654D01*
X196584983Y-76690017D01*
X196559346Y-76658777D01*
X196540296Y-76623138D01*
X196528565Y-76584468D01*
X196524000Y-76538112D01*
X196524000Y-75461888D01*
X196528565Y-75415532D01*
X196540296Y-75376862D01*
X196559346Y-75341223D01*
X196584983Y-75309983D01*
X196616223Y-75284346D01*
X196651862Y-75265296D01*
X196690532Y-75253565D01*
X196736888Y-75249000D01*
X197388112Y-75249000D01*
X197434468Y-75253565D01*
X197434468Y-75253565D01*
G37*
G36*
X182379591Y-74303085D02*
G01*
X182413569Y-74313393D01*
X182444890Y-74330134D01*
X182472339Y-74352661D01*
X182494866Y-74380110D01*
X182511607Y-74411431D01*
X182521915Y-74445409D01*
X182526000Y-74486890D01*
X182526000Y-75088110D01*
X182521915Y-75129591D01*
X182511607Y-75163569D01*
X182494866Y-75194890D01*
X182472339Y-75222339D01*
X182444890Y-75244866D01*
X182413569Y-75261607D01*
X182379591Y-75271915D01*
X182338110Y-75276000D01*
X181661890Y-75276000D01*
X181620409Y-75271915D01*
X181586431Y-75261607D01*
X181555110Y-75244866D01*
X181527661Y-75222339D01*
X181505134Y-75194890D01*
X181488393Y-75163569D01*
X181478085Y-75129591D01*
X181474000Y-75088110D01*
X181474000Y-74486890D01*
X181478085Y-74445409D01*
X181488393Y-74411431D01*
X181505134Y-74380110D01*
X181527661Y-74352661D01*
X181555110Y-74330134D01*
X181586431Y-74313393D01*
X181620409Y-74303085D01*
X181661890Y-74299000D01*
X182338110Y-74299000D01*
X182379591Y-74303085D01*
X182379591Y-74303085D01*
G37*
G36*
X180379591Y-74303085D02*
G01*
X180413569Y-74313393D01*
X180444890Y-74330134D01*
X180472339Y-74352661D01*
X180494866Y-74380110D01*
X180511607Y-74411431D01*
X180521915Y-74445409D01*
X180526000Y-74486890D01*
X180526000Y-75088110D01*
X180521915Y-75129591D01*
X180511607Y-75163569D01*
X180494866Y-75194890D01*
X180472339Y-75222339D01*
X180444890Y-75244866D01*
X180413569Y-75261607D01*
X180379591Y-75271915D01*
X180338110Y-75276000D01*
X179661890Y-75276000D01*
X179620409Y-75271915D01*
X179586431Y-75261607D01*
X179555110Y-75244866D01*
X179527661Y-75222339D01*
X179505134Y-75194890D01*
X179488393Y-75163569D01*
X179478085Y-75129591D01*
X179474000Y-75088110D01*
X179474000Y-74486890D01*
X179478085Y-74445409D01*
X179488393Y-74411431D01*
X179505134Y-74380110D01*
X179527661Y-74352661D01*
X179555110Y-74330134D01*
X179586431Y-74313393D01*
X179620409Y-74303085D01*
X179661890Y-74299000D01*
X180338110Y-74299000D01*
X180379591Y-74303085D01*
X180379591Y-74303085D01*
G37*
G36*
X178379591Y-74303085D02*
G01*
X178413569Y-74313393D01*
X178444890Y-74330134D01*
X178472339Y-74352661D01*
X178494866Y-74380110D01*
X178511607Y-74411431D01*
X178521915Y-74445409D01*
X178526000Y-74486890D01*
X178526000Y-75088110D01*
X178521915Y-75129591D01*
X178511607Y-75163569D01*
X178494866Y-75194890D01*
X178472339Y-75222339D01*
X178444890Y-75244866D01*
X178413569Y-75261607D01*
X178379591Y-75271915D01*
X178338110Y-75276000D01*
X177661890Y-75276000D01*
X177620409Y-75271915D01*
X177586431Y-75261607D01*
X177555110Y-75244866D01*
X177527661Y-75222339D01*
X177505134Y-75194890D01*
X177488393Y-75163569D01*
X177478085Y-75129591D01*
X177474000Y-75088110D01*
X177474000Y-74486890D01*
X177478085Y-74445409D01*
X177488393Y-74411431D01*
X177505134Y-74380110D01*
X177527661Y-74352661D01*
X177555110Y-74330134D01*
X177586431Y-74313393D01*
X177620409Y-74303085D01*
X177661890Y-74299000D01*
X178338110Y-74299000D01*
X178379591Y-74303085D01*
X178379591Y-74303085D01*
G37*
G36*
X152379591Y-74303085D02*
G01*
X152413569Y-74313393D01*
X152444890Y-74330134D01*
X152472339Y-74352661D01*
X152494866Y-74380110D01*
X152511607Y-74411431D01*
X152521915Y-74445409D01*
X152526000Y-74486890D01*
X152526000Y-75088110D01*
X152521915Y-75129591D01*
X152511607Y-75163569D01*
X152494866Y-75194890D01*
X152472339Y-75222339D01*
X152444890Y-75244866D01*
X152413569Y-75261607D01*
X152379591Y-75271915D01*
X152338110Y-75276000D01*
X151661890Y-75276000D01*
X151620409Y-75271915D01*
X151586431Y-75261607D01*
X151555110Y-75244866D01*
X151527661Y-75222339D01*
X151505134Y-75194890D01*
X151488393Y-75163569D01*
X151478085Y-75129591D01*
X151474000Y-75088110D01*
X151474000Y-74486890D01*
X151478085Y-74445409D01*
X151488393Y-74411431D01*
X151505134Y-74380110D01*
X151527661Y-74352661D01*
X151555110Y-74330134D01*
X151586431Y-74313393D01*
X151620409Y-74303085D01*
X151661890Y-74299000D01*
X152338110Y-74299000D01*
X152379591Y-74303085D01*
X152379591Y-74303085D01*
G37*
G36*
X150379591Y-74303085D02*
G01*
X150413569Y-74313393D01*
X150444890Y-74330134D01*
X150472339Y-74352661D01*
X150494866Y-74380110D01*
X150511607Y-74411431D01*
X150521915Y-74445409D01*
X150526000Y-74486890D01*
X150526000Y-75088110D01*
X150521915Y-75129591D01*
X150511607Y-75163569D01*
X150494866Y-75194890D01*
X150472339Y-75222339D01*
X150444890Y-75244866D01*
X150413569Y-75261607D01*
X150379591Y-75271915D01*
X150338110Y-75276000D01*
X149661890Y-75276000D01*
X149620409Y-75271915D01*
X149586431Y-75261607D01*
X149555110Y-75244866D01*
X149527661Y-75222339D01*
X149505134Y-75194890D01*
X149488393Y-75163569D01*
X149478085Y-75129591D01*
X149474000Y-75088110D01*
X149474000Y-74486890D01*
X149478085Y-74445409D01*
X149488393Y-74411431D01*
X149505134Y-74380110D01*
X149527661Y-74352661D01*
X149555110Y-74330134D01*
X149586431Y-74313393D01*
X149620409Y-74303085D01*
X149661890Y-74299000D01*
X150338110Y-74299000D01*
X150379591Y-74303085D01*
X150379591Y-74303085D01*
G37*
G36*
X148379591Y-74303085D02*
G01*
X148413569Y-74313393D01*
X148444890Y-74330134D01*
X148472339Y-74352661D01*
X148494866Y-74380110D01*
X148511607Y-74411431D01*
X148521915Y-74445409D01*
X148526000Y-74486890D01*
X148526000Y-75088110D01*
X148521915Y-75129591D01*
X148511607Y-75163569D01*
X148494866Y-75194890D01*
X148472339Y-75222339D01*
X148444890Y-75244866D01*
X148413569Y-75261607D01*
X148379591Y-75271915D01*
X148338110Y-75276000D01*
X147661890Y-75276000D01*
X147620409Y-75271915D01*
X147586431Y-75261607D01*
X147555110Y-75244866D01*
X147527661Y-75222339D01*
X147505134Y-75194890D01*
X147488393Y-75163569D01*
X147478085Y-75129591D01*
X147474000Y-75088110D01*
X147474000Y-74486890D01*
X147478085Y-74445409D01*
X147488393Y-74411431D01*
X147505134Y-74380110D01*
X147527661Y-74352661D01*
X147555110Y-74330134D01*
X147586431Y-74313393D01*
X147620409Y-74303085D01*
X147661890Y-74299000D01*
X148338110Y-74299000D01*
X148379591Y-74303085D01*
X148379591Y-74303085D01*
G37*
G36*
X150379591Y-72728085D02*
G01*
X150413569Y-72738393D01*
X150444890Y-72755134D01*
X150472339Y-72777661D01*
X150494866Y-72805110D01*
X150511607Y-72836431D01*
X150521915Y-72870409D01*
X150526000Y-72911890D01*
X150526000Y-73513110D01*
X150521915Y-73554591D01*
X150511607Y-73588569D01*
X150494866Y-73619890D01*
X150472339Y-73647339D01*
X150444890Y-73669866D01*
X150413569Y-73686607D01*
X150379591Y-73696915D01*
X150338110Y-73701000D01*
X149661890Y-73701000D01*
X149620409Y-73696915D01*
X149586431Y-73686607D01*
X149555110Y-73669866D01*
X149527661Y-73647339D01*
X149505134Y-73619890D01*
X149488393Y-73588569D01*
X149478085Y-73554591D01*
X149474000Y-73513110D01*
X149474000Y-72911890D01*
X149478085Y-72870409D01*
X149488393Y-72836431D01*
X149505134Y-72805110D01*
X149527661Y-72777661D01*
X149555110Y-72755134D01*
X149586431Y-72738393D01*
X149620409Y-72728085D01*
X149661890Y-72724000D01*
X150338110Y-72724000D01*
X150379591Y-72728085D01*
X150379591Y-72728085D01*
G37*
G36*
X178379591Y-72728085D02*
G01*
X178413569Y-72738393D01*
X178444890Y-72755134D01*
X178472339Y-72777661D01*
X178494866Y-72805110D01*
X178511607Y-72836431D01*
X178521915Y-72870409D01*
X178526000Y-72911890D01*
X178526000Y-73513110D01*
X178521915Y-73554591D01*
X178511607Y-73588569D01*
X178494866Y-73619890D01*
X178472339Y-73647339D01*
X178444890Y-73669866D01*
X178413569Y-73686607D01*
X178379591Y-73696915D01*
X178338110Y-73701000D01*
X177661890Y-73701000D01*
X177620409Y-73696915D01*
X177586431Y-73686607D01*
X177555110Y-73669866D01*
X177527661Y-73647339D01*
X177505134Y-73619890D01*
X177488393Y-73588569D01*
X177478085Y-73554591D01*
X177474000Y-73513110D01*
X177474000Y-72911890D01*
X177478085Y-72870409D01*
X177488393Y-72836431D01*
X177505134Y-72805110D01*
X177527661Y-72777661D01*
X177555110Y-72755134D01*
X177586431Y-72738393D01*
X177620409Y-72728085D01*
X177661890Y-72724000D01*
X178338110Y-72724000D01*
X178379591Y-72728085D01*
X178379591Y-72728085D01*
G37*
G36*
X182379591Y-72728085D02*
G01*
X182413569Y-72738393D01*
X182444890Y-72755134D01*
X182472339Y-72777661D01*
X182494866Y-72805110D01*
X182511607Y-72836431D01*
X182521915Y-72870409D01*
X182526000Y-72911890D01*
X182526000Y-73513110D01*
X182521915Y-73554591D01*
X182511607Y-73588569D01*
X182494866Y-73619890D01*
X182472339Y-73647339D01*
X182444890Y-73669866D01*
X182413569Y-73686607D01*
X182379591Y-73696915D01*
X182338110Y-73701000D01*
X181661890Y-73701000D01*
X181620409Y-73696915D01*
X181586431Y-73686607D01*
X181555110Y-73669866D01*
X181527661Y-73647339D01*
X181505134Y-73619890D01*
X181488393Y-73588569D01*
X181478085Y-73554591D01*
X181474000Y-73513110D01*
X181474000Y-72911890D01*
X181478085Y-72870409D01*
X181488393Y-72836431D01*
X181505134Y-72805110D01*
X181527661Y-72777661D01*
X181555110Y-72755134D01*
X181586431Y-72738393D01*
X181620409Y-72728085D01*
X181661890Y-72724000D01*
X182338110Y-72724000D01*
X182379591Y-72728085D01*
X182379591Y-72728085D01*
G37*
G36*
X152379591Y-72728085D02*
G01*
X152413569Y-72738393D01*
X152444890Y-72755134D01*
X152472339Y-72777661D01*
X152494866Y-72805110D01*
X152511607Y-72836431D01*
X152521915Y-72870409D01*
X152526000Y-72911890D01*
X152526000Y-73513110D01*
X152521915Y-73554591D01*
X152511607Y-73588569D01*
X152494866Y-73619890D01*
X152472339Y-73647339D01*
X152444890Y-73669866D01*
X152413569Y-73686607D01*
X152379591Y-73696915D01*
X152338110Y-73701000D01*
X151661890Y-73701000D01*
X151620409Y-73696915D01*
X151586431Y-73686607D01*
X151555110Y-73669866D01*
X151527661Y-73647339D01*
X151505134Y-73619890D01*
X151488393Y-73588569D01*
X151478085Y-73554591D01*
X151474000Y-73513110D01*
X151474000Y-72911890D01*
X151478085Y-72870409D01*
X151488393Y-72836431D01*
X151505134Y-72805110D01*
X151527661Y-72777661D01*
X151555110Y-72755134D01*
X151586431Y-72738393D01*
X151620409Y-72728085D01*
X151661890Y-72724000D01*
X152338110Y-72724000D01*
X152379591Y-72728085D01*
X152379591Y-72728085D01*
G37*
G36*
X180379591Y-72728085D02*
G01*
X180413569Y-72738393D01*
X180444890Y-72755134D01*
X180472339Y-72777661D01*
X180494866Y-72805110D01*
X180511607Y-72836431D01*
X180521915Y-72870409D01*
X180526000Y-72911890D01*
X180526000Y-73513110D01*
X180521915Y-73554591D01*
X180511607Y-73588569D01*
X180494866Y-73619890D01*
X180472339Y-73647339D01*
X180444890Y-73669866D01*
X180413569Y-73686607D01*
X180379591Y-73696915D01*
X180338110Y-73701000D01*
X179661890Y-73701000D01*
X179620409Y-73696915D01*
X179586431Y-73686607D01*
X179555110Y-73669866D01*
X179527661Y-73647339D01*
X179505134Y-73619890D01*
X179488393Y-73588569D01*
X179478085Y-73554591D01*
X179474000Y-73513110D01*
X179474000Y-72911890D01*
X179478085Y-72870409D01*
X179488393Y-72836431D01*
X179505134Y-72805110D01*
X179527661Y-72777661D01*
X179555110Y-72755134D01*
X179586431Y-72738393D01*
X179620409Y-72728085D01*
X179661890Y-72724000D01*
X180338110Y-72724000D01*
X180379591Y-72728085D01*
X180379591Y-72728085D01*
G37*
G36*
X148379591Y-72728085D02*
G01*
X148413569Y-72738393D01*
X148444890Y-72755134D01*
X148472339Y-72777661D01*
X148494866Y-72805110D01*
X148511607Y-72836431D01*
X148521915Y-72870409D01*
X148526000Y-72911890D01*
X148526000Y-73513110D01*
X148521915Y-73554591D01*
X148511607Y-73588569D01*
X148494866Y-73619890D01*
X148472339Y-73647339D01*
X148444890Y-73669866D01*
X148413569Y-73686607D01*
X148379591Y-73696915D01*
X148338110Y-73701000D01*
X147661890Y-73701000D01*
X147620409Y-73696915D01*
X147586431Y-73686607D01*
X147555110Y-73669866D01*
X147527661Y-73647339D01*
X147505134Y-73619890D01*
X147488393Y-73588569D01*
X147478085Y-73554591D01*
X147474000Y-73513110D01*
X147474000Y-72911890D01*
X147478085Y-72870409D01*
X147488393Y-72836431D01*
X147505134Y-72805110D01*
X147527661Y-72777661D01*
X147555110Y-72755134D01*
X147586431Y-72738393D01*
X147620409Y-72728085D01*
X147661890Y-72724000D01*
X148338110Y-72724000D01*
X148379591Y-72728085D01*
X148379591Y-72728085D01*
G37*
G36*
X231918604Y-69078347D02*
G01*
X231955144Y-69089432D01*
X231988821Y-69107433D01*
X232018341Y-69131659D01*
X232042567Y-69161179D01*
X232060568Y-69194856D01*
X232071653Y-69231396D01*
X232076000Y-69275538D01*
X232076000Y-70724462D01*
X232071653Y-70768604D01*
X232060568Y-70805144D01*
X232042567Y-70838821D01*
X232018341Y-70868341D01*
X231988821Y-70892567D01*
X231955144Y-70910568D01*
X231918604Y-70921653D01*
X231874462Y-70926000D01*
X230925538Y-70926000D01*
X230881396Y-70921653D01*
X230844856Y-70910568D01*
X230811179Y-70892567D01*
X230781659Y-70868341D01*
X230757433Y-70838821D01*
X230739432Y-70805144D01*
X230728347Y-70768604D01*
X230724000Y-70724462D01*
X230724000Y-69275538D01*
X230728347Y-69231396D01*
X230739432Y-69194856D01*
X230757433Y-69161179D01*
X230781659Y-69131659D01*
X230811179Y-69107433D01*
X230844856Y-69089432D01*
X230881396Y-69078347D01*
X230925538Y-69074000D01*
X231874462Y-69074000D01*
X231918604Y-69078347D01*
X231918604Y-69078347D01*
G37*
G36*
X229118604Y-69078347D02*
G01*
X229155144Y-69089432D01*
X229188821Y-69107433D01*
X229218341Y-69131659D01*
X229242567Y-69161179D01*
X229260568Y-69194856D01*
X229271653Y-69231396D01*
X229276000Y-69275538D01*
X229276000Y-70724462D01*
X229271653Y-70768604D01*
X229260568Y-70805144D01*
X229242567Y-70838821D01*
X229218341Y-70868341D01*
X229188821Y-70892567D01*
X229155144Y-70910568D01*
X229118604Y-70921653D01*
X229074462Y-70926000D01*
X228125538Y-70926000D01*
X228081396Y-70921653D01*
X228044856Y-70910568D01*
X228011179Y-70892567D01*
X227981659Y-70868341D01*
X227957433Y-70838821D01*
X227939432Y-70805144D01*
X227928347Y-70768604D01*
X227924000Y-70724462D01*
X227924000Y-69275538D01*
X227928347Y-69231396D01*
X227939432Y-69194856D01*
X227957433Y-69161179D01*
X227981659Y-69131659D01*
X228011179Y-69107433D01*
X228044856Y-69089432D01*
X228081396Y-69078347D01*
X228125538Y-69074000D01*
X229074462Y-69074000D01*
X229118604Y-69078347D01*
X229118604Y-69078347D01*
G37*
G36*
X224554591Y-69478085D02*
G01*
X224588569Y-69488393D01*
X224619890Y-69505134D01*
X224647339Y-69527661D01*
X224669866Y-69555110D01*
X224686607Y-69586431D01*
X224696915Y-69620409D01*
X224701000Y-69661890D01*
X224701000Y-70338110D01*
X224696915Y-70379591D01*
X224686607Y-70413569D01*
X224669866Y-70444890D01*
X224647339Y-70472339D01*
X224619890Y-70494866D01*
X224588569Y-70511607D01*
X224554591Y-70521915D01*
X224513110Y-70526000D01*
X223911890Y-70526000D01*
X223870409Y-70521915D01*
X223836431Y-70511607D01*
X223805110Y-70494866D01*
X223777661Y-70472339D01*
X223755134Y-70444890D01*
X223738393Y-70413569D01*
X223728085Y-70379591D01*
X223724000Y-70338110D01*
X223724000Y-69661890D01*
X223728085Y-69620409D01*
X223738393Y-69586431D01*
X223755134Y-69555110D01*
X223777661Y-69527661D01*
X223805110Y-69505134D01*
X223836431Y-69488393D01*
X223870409Y-69478085D01*
X223911890Y-69474000D01*
X224513110Y-69474000D01*
X224554591Y-69478085D01*
X224554591Y-69478085D01*
G37*
G36*
X226129591Y-69478085D02*
G01*
X226163569Y-69488393D01*
X226194890Y-69505134D01*
X226222339Y-69527661D01*
X226244866Y-69555110D01*
X226261607Y-69586431D01*
X226271915Y-69620409D01*
X226276000Y-69661890D01*
X226276000Y-70338110D01*
X226271915Y-70379591D01*
X226261607Y-70413569D01*
X226244866Y-70444890D01*
X226222339Y-70472339D01*
X226194890Y-70494866D01*
X226163569Y-70511607D01*
X226129591Y-70521915D01*
X226088110Y-70526000D01*
X225486890Y-70526000D01*
X225445409Y-70521915D01*
X225411431Y-70511607D01*
X225380110Y-70494866D01*
X225352661Y-70472339D01*
X225330134Y-70444890D01*
X225313393Y-70413569D01*
X225303085Y-70379591D01*
X225299000Y-70338110D01*
X225299000Y-69661890D01*
X225303085Y-69620409D01*
X225313393Y-69586431D01*
X225330134Y-69555110D01*
X225352661Y-69527661D01*
X225380110Y-69505134D01*
X225411431Y-69488393D01*
X225445409Y-69478085D01*
X225486890Y-69474000D01*
X226088110Y-69474000D01*
X226129591Y-69478085D01*
X226129591Y-69478085D01*
G37*
G36*
X196129591Y-68478085D02*
G01*
X196163569Y-68488393D01*
X196194890Y-68505134D01*
X196222339Y-68527661D01*
X196244866Y-68555110D01*
X196261607Y-68586431D01*
X196271915Y-68620409D01*
X196276000Y-68661890D01*
X196276000Y-69338110D01*
X196271915Y-69379591D01*
X196261607Y-69413569D01*
X196244866Y-69444890D01*
X196222339Y-69472339D01*
X196194890Y-69494866D01*
X196163569Y-69511607D01*
X196129591Y-69521915D01*
X196088110Y-69526000D01*
X195486890Y-69526000D01*
X195445409Y-69521915D01*
X195411431Y-69511607D01*
X195380110Y-69494866D01*
X195352661Y-69472339D01*
X195330134Y-69444890D01*
X195313393Y-69413569D01*
X195303085Y-69379591D01*
X195299000Y-69338110D01*
X195299000Y-68661890D01*
X195303085Y-68620409D01*
X195313393Y-68586431D01*
X195330134Y-68555110D01*
X195352661Y-68527661D01*
X195380110Y-68505134D01*
X195411431Y-68488393D01*
X195445409Y-68478085D01*
X195486890Y-68474000D01*
X196088110Y-68474000D01*
X196129591Y-68478085D01*
X196129591Y-68478085D01*
G37*
G36*
X194554591Y-68478085D02*
G01*
X194588569Y-68488393D01*
X194619890Y-68505134D01*
X194647339Y-68527661D01*
X194669866Y-68555110D01*
X194686607Y-68586431D01*
X194696915Y-68620409D01*
X194701000Y-68661890D01*
X194701000Y-69338110D01*
X194696915Y-69379591D01*
X194686607Y-69413569D01*
X194669866Y-69444890D01*
X194647339Y-69472339D01*
X194619890Y-69494866D01*
X194588569Y-69511607D01*
X194554591Y-69521915D01*
X194513110Y-69526000D01*
X193911890Y-69526000D01*
X193870409Y-69521915D01*
X193836431Y-69511607D01*
X193805110Y-69494866D01*
X193777661Y-69472339D01*
X193755134Y-69444890D01*
X193738393Y-69413569D01*
X193728085Y-69379591D01*
X193724000Y-69338110D01*
X193724000Y-68661890D01*
X193728085Y-68620409D01*
X193738393Y-68586431D01*
X193755134Y-68555110D01*
X193777661Y-68527661D01*
X193805110Y-68505134D01*
X193836431Y-68488393D01*
X193870409Y-68478085D01*
X193911890Y-68474000D01*
X194513110Y-68474000D01*
X194554591Y-68478085D01*
X194554591Y-68478085D01*
G37*
G36*
X226681000Y-68326000D02*
G01*
X225519000Y-68326000D01*
X225519000Y-65674000D01*
X226681000Y-65674000D01*
X226681000Y-68326000D01*
X226681000Y-68326000D01*
G37*
G36*
X224481000Y-68326000D02*
G01*
X223319000Y-68326000D01*
X223319000Y-65674000D01*
X224481000Y-65674000D01*
X224481000Y-68326000D01*
X224481000Y-68326000D01*
G37*
G36*
X219379591Y-67303085D02*
G01*
X219413569Y-67313393D01*
X219444890Y-67330134D01*
X219472339Y-67352661D01*
X219494866Y-67380110D01*
X219511607Y-67411431D01*
X219521915Y-67445409D01*
X219526000Y-67486890D01*
X219526000Y-68088110D01*
X219521915Y-68129591D01*
X219511607Y-68163569D01*
X219494866Y-68194890D01*
X219472339Y-68222339D01*
X219444890Y-68244866D01*
X219413569Y-68261607D01*
X219379591Y-68271915D01*
X219338110Y-68276000D01*
X218661890Y-68276000D01*
X218620409Y-68271915D01*
X218586431Y-68261607D01*
X218555110Y-68244866D01*
X218527661Y-68222339D01*
X218505134Y-68194890D01*
X218488393Y-68163569D01*
X218478085Y-68129591D01*
X218474000Y-68088110D01*
X218474000Y-67486890D01*
X218478085Y-67445409D01*
X218488393Y-67411431D01*
X218505134Y-67380110D01*
X218527661Y-67352661D01*
X218555110Y-67330134D01*
X218586431Y-67313393D01*
X218620409Y-67303085D01*
X218661890Y-67299000D01*
X219338110Y-67299000D01*
X219379591Y-67303085D01*
X219379591Y-67303085D01*
G37*
G36*
X221379591Y-67303085D02*
G01*
X221413569Y-67313393D01*
X221444890Y-67330134D01*
X221472339Y-67352661D01*
X221494866Y-67380110D01*
X221511607Y-67411431D01*
X221521915Y-67445409D01*
X221526000Y-67486890D01*
X221526000Y-68088110D01*
X221521915Y-68129591D01*
X221511607Y-68163569D01*
X221494866Y-68194890D01*
X221472339Y-68222339D01*
X221444890Y-68244866D01*
X221413569Y-68261607D01*
X221379591Y-68271915D01*
X221338110Y-68276000D01*
X220661890Y-68276000D01*
X220620409Y-68271915D01*
X220586431Y-68261607D01*
X220555110Y-68244866D01*
X220527661Y-68222339D01*
X220505134Y-68194890D01*
X220488393Y-68163569D01*
X220478085Y-68129591D01*
X220474000Y-68088110D01*
X220474000Y-67486890D01*
X220478085Y-67445409D01*
X220488393Y-67411431D01*
X220505134Y-67380110D01*
X220527661Y-67352661D01*
X220555110Y-67330134D01*
X220586431Y-67313393D01*
X220620409Y-67303085D01*
X220661890Y-67299000D01*
X221338110Y-67299000D01*
X221379591Y-67303085D01*
X221379591Y-67303085D01*
G37*
G36*
X166426000Y-66751000D02*
G01*
X165224000Y-66751000D01*
X165224000Y-65349000D01*
X166426000Y-65349000D01*
X166426000Y-66751000D01*
X166426000Y-66751000D01*
G37*
G36*
X164776000Y-66751000D02*
G01*
X163574000Y-66751000D01*
X163574000Y-65349000D01*
X164776000Y-65349000D01*
X164776000Y-66751000D01*
X164776000Y-66751000D01*
G37*
G36*
X219379591Y-65728085D02*
G01*
X219413569Y-65738393D01*
X219444890Y-65755134D01*
X219472339Y-65777661D01*
X219494866Y-65805110D01*
X219511607Y-65836431D01*
X219521915Y-65870409D01*
X219526000Y-65911890D01*
X219526000Y-66513110D01*
X219521915Y-66554591D01*
X219511607Y-66588569D01*
X219494866Y-66619890D01*
X219472339Y-66647339D01*
X219444890Y-66669866D01*
X219413569Y-66686607D01*
X219379591Y-66696915D01*
X219338110Y-66701000D01*
X218661890Y-66701000D01*
X218620409Y-66696915D01*
X218586431Y-66686607D01*
X218555110Y-66669866D01*
X218527661Y-66647339D01*
X218505134Y-66619890D01*
X218488393Y-66588569D01*
X218478085Y-66554591D01*
X218474000Y-66513110D01*
X218474000Y-65911890D01*
X218478085Y-65870409D01*
X218488393Y-65836431D01*
X218505134Y-65805110D01*
X218527661Y-65777661D01*
X218555110Y-65755134D01*
X218586431Y-65738393D01*
X218620409Y-65728085D01*
X218661890Y-65724000D01*
X219338110Y-65724000D01*
X219379591Y-65728085D01*
X219379591Y-65728085D01*
G37*
G36*
X221379591Y-65728085D02*
G01*
X221413569Y-65738393D01*
X221444890Y-65755134D01*
X221472339Y-65777661D01*
X221494866Y-65805110D01*
X221511607Y-65836431D01*
X221521915Y-65870409D01*
X221526000Y-65911890D01*
X221526000Y-66513110D01*
X221521915Y-66554591D01*
X221511607Y-66588569D01*
X221494866Y-66619890D01*
X221472339Y-66647339D01*
X221444890Y-66669866D01*
X221413569Y-66686607D01*
X221379591Y-66696915D01*
X221338110Y-66701000D01*
X220661890Y-66701000D01*
X220620409Y-66696915D01*
X220586431Y-66686607D01*
X220555110Y-66669866D01*
X220527661Y-66647339D01*
X220505134Y-66619890D01*
X220488393Y-66588569D01*
X220478085Y-66554591D01*
X220474000Y-66513110D01*
X220474000Y-65911890D01*
X220478085Y-65870409D01*
X220488393Y-65836431D01*
X220505134Y-65805110D01*
X220527661Y-65777661D01*
X220555110Y-65755134D01*
X220586431Y-65738393D01*
X220620409Y-65728085D01*
X220661890Y-65724000D01*
X221338110Y-65724000D01*
X221379591Y-65728085D01*
X221379591Y-65728085D01*
G37*
G36*
X150379591Y-65303085D02*
G01*
X150413569Y-65313393D01*
X150444890Y-65330134D01*
X150472339Y-65352661D01*
X150494866Y-65380110D01*
X150511607Y-65411431D01*
X150521915Y-65445409D01*
X150526000Y-65486890D01*
X150526000Y-66088110D01*
X150521915Y-66129591D01*
X150511607Y-66163569D01*
X150494866Y-66194890D01*
X150472339Y-66222339D01*
X150444890Y-66244866D01*
X150413569Y-66261607D01*
X150379591Y-66271915D01*
X150338110Y-66276000D01*
X149661890Y-66276000D01*
X149620409Y-66271915D01*
X149586431Y-66261607D01*
X149555110Y-66244866D01*
X149527661Y-66222339D01*
X149505134Y-66194890D01*
X149488393Y-66163569D01*
X149478085Y-66129591D01*
X149474000Y-66088110D01*
X149474000Y-65486890D01*
X149478085Y-65445409D01*
X149488393Y-65411431D01*
X149505134Y-65380110D01*
X149527661Y-65352661D01*
X149555110Y-65330134D01*
X149586431Y-65313393D01*
X149620409Y-65303085D01*
X149661890Y-65299000D01*
X150338110Y-65299000D01*
X150379591Y-65303085D01*
X150379591Y-65303085D01*
G37*
G36*
X180379591Y-65303085D02*
G01*
X180413569Y-65313393D01*
X180444890Y-65330134D01*
X180472339Y-65352661D01*
X180494866Y-65380110D01*
X180511607Y-65411431D01*
X180521915Y-65445409D01*
X180526000Y-65486890D01*
X180526000Y-66088110D01*
X180521915Y-66129591D01*
X180511607Y-66163569D01*
X180494866Y-66194890D01*
X180472339Y-66222339D01*
X180444890Y-66244866D01*
X180413569Y-66261607D01*
X180379591Y-66271915D01*
X180338110Y-66276000D01*
X179661890Y-66276000D01*
X179620409Y-66271915D01*
X179586431Y-66261607D01*
X179555110Y-66244866D01*
X179527661Y-66222339D01*
X179505134Y-66194890D01*
X179488393Y-66163569D01*
X179478085Y-66129591D01*
X179474000Y-66088110D01*
X179474000Y-65486890D01*
X179478085Y-65445409D01*
X179488393Y-65411431D01*
X179505134Y-65380110D01*
X179527661Y-65352661D01*
X179555110Y-65330134D01*
X179586431Y-65313393D01*
X179620409Y-65303085D01*
X179661890Y-65299000D01*
X180338110Y-65299000D01*
X180379591Y-65303085D01*
X180379591Y-65303085D01*
G37*
G36*
X249554591Y-64978085D02*
G01*
X249588569Y-64988393D01*
X249619890Y-65005134D01*
X249647339Y-65027661D01*
X249669866Y-65055110D01*
X249686607Y-65086431D01*
X249696915Y-65120409D01*
X249701000Y-65161890D01*
X249701000Y-65838110D01*
X249696915Y-65879591D01*
X249686607Y-65913569D01*
X249669866Y-65944890D01*
X249647339Y-65972339D01*
X249619890Y-65994866D01*
X249588569Y-66011607D01*
X249554591Y-66021915D01*
X249513110Y-66026000D01*
X248911890Y-66026000D01*
X248870409Y-66021915D01*
X248836431Y-66011607D01*
X248805110Y-65994866D01*
X248777661Y-65972339D01*
X248755134Y-65944890D01*
X248738393Y-65913569D01*
X248728085Y-65879591D01*
X248724000Y-65838110D01*
X248724000Y-65161890D01*
X248728085Y-65120409D01*
X248738393Y-65086431D01*
X248755134Y-65055110D01*
X248777661Y-65027661D01*
X248805110Y-65005134D01*
X248836431Y-64988393D01*
X248870409Y-64978085D01*
X248911890Y-64974000D01*
X249513110Y-64974000D01*
X249554591Y-64978085D01*
X249554591Y-64978085D01*
G37*
G36*
X251129591Y-64978085D02*
G01*
X251163569Y-64988393D01*
X251194890Y-65005134D01*
X251222339Y-65027661D01*
X251244866Y-65055110D01*
X251261607Y-65086431D01*
X251271915Y-65120409D01*
X251276000Y-65161890D01*
X251276000Y-65838110D01*
X251271915Y-65879591D01*
X251261607Y-65913569D01*
X251244866Y-65944890D01*
X251222339Y-65972339D01*
X251194890Y-65994866D01*
X251163569Y-66011607D01*
X251129591Y-66021915D01*
X251088110Y-66026000D01*
X250486890Y-66026000D01*
X250445409Y-66021915D01*
X250411431Y-66011607D01*
X250380110Y-65994866D01*
X250352661Y-65972339D01*
X250330134Y-65944890D01*
X250313393Y-65913569D01*
X250303085Y-65879591D01*
X250299000Y-65838110D01*
X250299000Y-65161890D01*
X250303085Y-65120409D01*
X250313393Y-65086431D01*
X250330134Y-65055110D01*
X250352661Y-65027661D01*
X250380110Y-65005134D01*
X250411431Y-64988393D01*
X250445409Y-64978085D01*
X250486890Y-64974000D01*
X251088110Y-64974000D01*
X251129591Y-64978085D01*
X251129591Y-64978085D01*
G37*
G36*
X240584468Y-64903565D02*
G01*
X240623138Y-64915296D01*
X240658777Y-64934346D01*
X240690017Y-64959983D01*
X240715654Y-64991223D01*
X240734704Y-65026862D01*
X240746435Y-65065532D01*
X240751000Y-65111888D01*
X240751000Y-65763112D01*
X240746435Y-65809468D01*
X240734704Y-65848138D01*
X240715654Y-65883777D01*
X240690017Y-65915017D01*
X240658777Y-65940654D01*
X240623138Y-65959704D01*
X240584468Y-65971435D01*
X240538112Y-65976000D01*
X239461888Y-65976000D01*
X239415532Y-65971435D01*
X239376862Y-65959704D01*
X239341223Y-65940654D01*
X239309983Y-65915017D01*
X239284346Y-65883777D01*
X239265296Y-65848138D01*
X239253565Y-65809468D01*
X239249000Y-65763112D01*
X239249000Y-65111888D01*
X239253565Y-65065532D01*
X239265296Y-65026862D01*
X239284346Y-64991223D01*
X239309983Y-64959983D01*
X239341223Y-64934346D01*
X239376862Y-64915296D01*
X239415532Y-64903565D01*
X239461888Y-64899000D01*
X240538112Y-64899000D01*
X240584468Y-64903565D01*
X240584468Y-64903565D01*
G37*
G36*
X229118604Y-63078347D02*
G01*
X229155144Y-63089432D01*
X229188821Y-63107433D01*
X229218341Y-63131659D01*
X229242567Y-63161179D01*
X229260568Y-63194856D01*
X229271653Y-63231396D01*
X229276000Y-63275538D01*
X229276000Y-64724462D01*
X229271653Y-64768604D01*
X229260568Y-64805144D01*
X229242567Y-64838821D01*
X229218341Y-64868341D01*
X229188821Y-64892567D01*
X229155144Y-64910568D01*
X229118604Y-64921653D01*
X229074462Y-64926000D01*
X228125538Y-64926000D01*
X228081396Y-64921653D01*
X228044856Y-64910568D01*
X228011179Y-64892567D01*
X227981659Y-64868341D01*
X227957433Y-64838821D01*
X227939432Y-64805144D01*
X227928347Y-64768604D01*
X227924000Y-64724462D01*
X227924000Y-63275538D01*
X227928347Y-63231396D01*
X227939432Y-63194856D01*
X227957433Y-63161179D01*
X227981659Y-63131659D01*
X228011179Y-63107433D01*
X228044856Y-63089432D01*
X228081396Y-63078347D01*
X228125538Y-63074000D01*
X229074462Y-63074000D01*
X229118604Y-63078347D01*
X229118604Y-63078347D01*
G37*
G36*
X231918604Y-63078347D02*
G01*
X231955144Y-63089432D01*
X231988821Y-63107433D01*
X232018341Y-63131659D01*
X232042567Y-63161179D01*
X232060568Y-63194856D01*
X232071653Y-63231396D01*
X232076000Y-63275538D01*
X232076000Y-64724462D01*
X232071653Y-64768604D01*
X232060568Y-64805144D01*
X232042567Y-64838821D01*
X232018341Y-64868341D01*
X231988821Y-64892567D01*
X231955144Y-64910568D01*
X231918604Y-64921653D01*
X231874462Y-64926000D01*
X230925538Y-64926000D01*
X230881396Y-64921653D01*
X230844856Y-64910568D01*
X230811179Y-64892567D01*
X230781659Y-64868341D01*
X230757433Y-64838821D01*
X230739432Y-64805144D01*
X230728347Y-64768604D01*
X230724000Y-64724462D01*
X230724000Y-63275538D01*
X230728347Y-63231396D01*
X230739432Y-63194856D01*
X230757433Y-63161179D01*
X230781659Y-63131659D01*
X230811179Y-63107433D01*
X230844856Y-63089432D01*
X230881396Y-63078347D01*
X230925538Y-63074000D01*
X231874462Y-63074000D01*
X231918604Y-63078347D01*
X231918604Y-63078347D01*
G37*
G36*
X245364903Y-62297075D02*
G01*
X245592571Y-62391378D01*
X245797466Y-62528285D01*
X245971715Y-62702534D01*
X245971716Y-62702536D01*
X246108623Y-62907431D01*
X246202925Y-63135097D01*
X246251000Y-63376786D01*
X246251000Y-63623214D01*
X246202925Y-63864903D01*
X246119772Y-64065654D01*
X246108622Y-64092571D01*
X245971715Y-64297466D01*
X245797466Y-64471715D01*
X245592571Y-64608622D01*
X245592570Y-64608623D01*
X245592569Y-64608623D01*
X245364903Y-64702925D01*
X245123214Y-64751000D01*
X244876786Y-64751000D01*
X244635097Y-64702925D01*
X244407431Y-64608623D01*
X244407430Y-64608623D01*
X244407429Y-64608622D01*
X244202534Y-64471715D01*
X244028285Y-64297466D01*
X243891378Y-64092571D01*
X243880229Y-64065654D01*
X243797075Y-63864903D01*
X243749000Y-63623214D01*
X243749000Y-63376786D01*
X243797075Y-63135097D01*
X243891377Y-62907431D01*
X244028284Y-62702536D01*
X244028285Y-62702534D01*
X244202534Y-62528285D01*
X244407429Y-62391378D01*
X244635097Y-62297075D01*
X244876786Y-62249000D01*
X245123214Y-62249000D01*
X245364903Y-62297075D01*
X245364903Y-62297075D01*
G37*
G36*
X180379591Y-63728085D02*
G01*
X180413569Y-63738393D01*
X180444890Y-63755134D01*
X180472339Y-63777661D01*
X180494866Y-63805110D01*
X180511607Y-63836431D01*
X180521915Y-63870409D01*
X180526000Y-63911890D01*
X180526000Y-64513110D01*
X180521915Y-64554591D01*
X180511607Y-64588569D01*
X180494866Y-64619890D01*
X180472339Y-64647339D01*
X180444890Y-64669866D01*
X180413569Y-64686607D01*
X180379591Y-64696915D01*
X180338110Y-64701000D01*
X179661890Y-64701000D01*
X179620409Y-64696915D01*
X179586431Y-64686607D01*
X179555110Y-64669866D01*
X179527661Y-64647339D01*
X179505134Y-64619890D01*
X179488393Y-64588569D01*
X179478085Y-64554591D01*
X179474000Y-64513110D01*
X179474000Y-63911890D01*
X179478085Y-63870409D01*
X179488393Y-63836431D01*
X179505134Y-63805110D01*
X179527661Y-63777661D01*
X179555110Y-63755134D01*
X179586431Y-63738393D01*
X179620409Y-63728085D01*
X179661890Y-63724000D01*
X180338110Y-63724000D01*
X180379591Y-63728085D01*
X180379591Y-63728085D01*
G37*
G36*
X150379591Y-63728085D02*
G01*
X150413569Y-63738393D01*
X150444890Y-63755134D01*
X150472339Y-63777661D01*
X150494866Y-63805110D01*
X150511607Y-63836431D01*
X150521915Y-63870409D01*
X150526000Y-63911890D01*
X150526000Y-64513110D01*
X150521915Y-64554591D01*
X150511607Y-64588569D01*
X150494866Y-64619890D01*
X150472339Y-64647339D01*
X150444890Y-64669866D01*
X150413569Y-64686607D01*
X150379591Y-64696915D01*
X150338110Y-64701000D01*
X149661890Y-64701000D01*
X149620409Y-64696915D01*
X149586431Y-64686607D01*
X149555110Y-64669866D01*
X149527661Y-64647339D01*
X149505134Y-64619890D01*
X149488393Y-64588569D01*
X149478085Y-64554591D01*
X149474000Y-64513110D01*
X149474000Y-63911890D01*
X149478085Y-63870409D01*
X149488393Y-63836431D01*
X149505134Y-63805110D01*
X149527661Y-63777661D01*
X149555110Y-63755134D01*
X149586431Y-63738393D01*
X149620409Y-63728085D01*
X149661890Y-63724000D01*
X150338110Y-63724000D01*
X150379591Y-63728085D01*
X150379591Y-63728085D01*
G37*
G36*
X166426000Y-64651000D02*
G01*
X165224000Y-64651000D01*
X165224000Y-63249000D01*
X166426000Y-63249000D01*
X166426000Y-64651000D01*
X166426000Y-64651000D01*
G37*
G36*
X164776000Y-64651000D02*
G01*
X163574000Y-64651000D01*
X163574000Y-63249000D01*
X164776000Y-63249000D01*
X164776000Y-64651000D01*
X164776000Y-64651000D01*
G37*
G36*
X224554591Y-63478085D02*
G01*
X224588569Y-63488393D01*
X224619890Y-63505134D01*
X224647339Y-63527661D01*
X224669866Y-63555110D01*
X224686607Y-63586431D01*
X224696915Y-63620409D01*
X224701000Y-63661890D01*
X224701000Y-64338110D01*
X224696915Y-64379591D01*
X224686607Y-64413569D01*
X224669866Y-64444890D01*
X224647339Y-64472339D01*
X224619890Y-64494866D01*
X224588569Y-64511607D01*
X224554591Y-64521915D01*
X224513110Y-64526000D01*
X223911890Y-64526000D01*
X223870409Y-64521915D01*
X223836431Y-64511607D01*
X223805110Y-64494866D01*
X223777661Y-64472339D01*
X223755134Y-64444890D01*
X223738393Y-64413569D01*
X223728085Y-64379591D01*
X223724000Y-64338110D01*
X223724000Y-63661890D01*
X223728085Y-63620409D01*
X223738393Y-63586431D01*
X223755134Y-63555110D01*
X223777661Y-63527661D01*
X223805110Y-63505134D01*
X223836431Y-63488393D01*
X223870409Y-63478085D01*
X223911890Y-63474000D01*
X224513110Y-63474000D01*
X224554591Y-63478085D01*
X224554591Y-63478085D01*
G37*
G36*
X226129591Y-63478085D02*
G01*
X226163569Y-63488393D01*
X226194890Y-63505134D01*
X226222339Y-63527661D01*
X226244866Y-63555110D01*
X226261607Y-63586431D01*
X226271915Y-63620409D01*
X226276000Y-63661890D01*
X226276000Y-64338110D01*
X226271915Y-64379591D01*
X226261607Y-64413569D01*
X226244866Y-64444890D01*
X226222339Y-64472339D01*
X226194890Y-64494866D01*
X226163569Y-64511607D01*
X226129591Y-64521915D01*
X226088110Y-64526000D01*
X225486890Y-64526000D01*
X225445409Y-64521915D01*
X225411431Y-64511607D01*
X225380110Y-64494866D01*
X225352661Y-64472339D01*
X225330134Y-64444890D01*
X225313393Y-64413569D01*
X225303085Y-64379591D01*
X225299000Y-64338110D01*
X225299000Y-63661890D01*
X225303085Y-63620409D01*
X225313393Y-63586431D01*
X225330134Y-63555110D01*
X225352661Y-63527661D01*
X225380110Y-63505134D01*
X225411431Y-63488393D01*
X225445409Y-63478085D01*
X225486890Y-63474000D01*
X226088110Y-63474000D01*
X226129591Y-63478085D01*
X226129591Y-63478085D01*
G37*
G36*
X240584468Y-63028565D02*
G01*
X240623138Y-63040296D01*
X240658777Y-63059346D01*
X240690017Y-63084983D01*
X240715654Y-63116223D01*
X240734704Y-63151862D01*
X240746435Y-63190532D01*
X240751000Y-63236888D01*
X240751000Y-63888112D01*
X240746435Y-63934468D01*
X240734704Y-63973138D01*
X240715654Y-64008777D01*
X240690017Y-64040017D01*
X240658777Y-64065654D01*
X240623138Y-64084704D01*
X240584468Y-64096435D01*
X240538112Y-64101000D01*
X239461888Y-64101000D01*
X239415532Y-64096435D01*
X239376862Y-64084704D01*
X239341223Y-64065654D01*
X239309983Y-64040017D01*
X239284346Y-64008777D01*
X239265296Y-63973138D01*
X239253565Y-63934468D01*
X239249000Y-63888112D01*
X239249000Y-63236888D01*
X239253565Y-63190532D01*
X239265296Y-63151862D01*
X239284346Y-63116223D01*
X239309983Y-63084983D01*
X239341223Y-63059346D01*
X239376862Y-63040296D01*
X239415532Y-63028565D01*
X239461888Y-63024000D01*
X240538112Y-63024000D01*
X240584468Y-63028565D01*
X240584468Y-63028565D01*
G37*
G36*
X251129591Y-62978085D02*
G01*
X251163569Y-62988393D01*
X251194890Y-63005134D01*
X251222339Y-63027661D01*
X251244866Y-63055110D01*
X251261607Y-63086431D01*
X251271915Y-63120409D01*
X251276000Y-63161890D01*
X251276000Y-63838110D01*
X251271915Y-63879591D01*
X251261607Y-63913569D01*
X251244866Y-63944890D01*
X251222339Y-63972339D01*
X251194890Y-63994866D01*
X251163569Y-64011607D01*
X251129591Y-64021915D01*
X251088110Y-64026000D01*
X250486890Y-64026000D01*
X250445409Y-64021915D01*
X250411431Y-64011607D01*
X250380110Y-63994866D01*
X250352661Y-63972339D01*
X250330134Y-63944890D01*
X250313393Y-63913569D01*
X250303085Y-63879591D01*
X250299000Y-63838110D01*
X250299000Y-63161890D01*
X250303085Y-63120409D01*
X250313393Y-63086431D01*
X250330134Y-63055110D01*
X250352661Y-63027661D01*
X250380110Y-63005134D01*
X250411431Y-62988393D01*
X250445409Y-62978085D01*
X250486890Y-62974000D01*
X251088110Y-62974000D01*
X251129591Y-62978085D01*
X251129591Y-62978085D01*
G37*
G36*
X249554591Y-62978085D02*
G01*
X249588569Y-62988393D01*
X249619890Y-63005134D01*
X249647339Y-63027661D01*
X249669866Y-63055110D01*
X249686607Y-63086431D01*
X249696915Y-63120409D01*
X249701000Y-63161890D01*
X249701000Y-63838110D01*
X249696915Y-63879591D01*
X249686607Y-63913569D01*
X249669866Y-63944890D01*
X249647339Y-63972339D01*
X249619890Y-63994866D01*
X249588569Y-64011607D01*
X249554591Y-64021915D01*
X249513110Y-64026000D01*
X248911890Y-64026000D01*
X248870409Y-64021915D01*
X248836431Y-64011607D01*
X248805110Y-63994866D01*
X248777661Y-63972339D01*
X248755134Y-63944890D01*
X248738393Y-63913569D01*
X248728085Y-63879591D01*
X248724000Y-63838110D01*
X248724000Y-63161890D01*
X248728085Y-63120409D01*
X248738393Y-63086431D01*
X248755134Y-63055110D01*
X248777661Y-63027661D01*
X248805110Y-63005134D01*
X248836431Y-62988393D01*
X248870409Y-62978085D01*
X248911890Y-62974000D01*
X249513110Y-62974000D01*
X249554591Y-62978085D01*
X249554591Y-62978085D01*
G37*
G36*
X241501000Y-61901000D02*
G01*
X240499000Y-61901000D01*
X240499000Y-60999000D01*
X241501000Y-60999000D01*
X241501000Y-61901000D01*
X241501000Y-61901000D01*
G37*
G36*
X251681000Y-61826000D02*
G01*
X250519000Y-61826000D01*
X250519000Y-59174000D01*
X251681000Y-59174000D01*
X251681000Y-61826000D01*
X251681000Y-61826000D01*
G37*
G36*
X249481000Y-61826000D02*
G01*
X248319000Y-61826000D01*
X248319000Y-61074000D01*
X249481000Y-61074000D01*
X249481000Y-61826000D01*
X249481000Y-61826000D01*
G37*
G36*
X164379591Y-60303085D02*
G01*
X164413569Y-60313393D01*
X164444890Y-60330134D01*
X164472339Y-60352661D01*
X164494866Y-60380110D01*
X164511607Y-60411431D01*
X164521915Y-60445409D01*
X164526000Y-60486890D01*
X164526000Y-61088110D01*
X164521915Y-61129591D01*
X164511607Y-61163569D01*
X164494866Y-61194890D01*
X164472339Y-61222339D01*
X164444890Y-61244866D01*
X164413569Y-61261607D01*
X164379591Y-61271915D01*
X164338110Y-61276000D01*
X163661890Y-61276000D01*
X163620409Y-61271915D01*
X163586431Y-61261607D01*
X163555110Y-61244866D01*
X163527661Y-61222339D01*
X163505134Y-61194890D01*
X163488393Y-61163569D01*
X163478085Y-61129591D01*
X163474000Y-61088110D01*
X163474000Y-60486890D01*
X163478085Y-60445409D01*
X163488393Y-60411431D01*
X163505134Y-60380110D01*
X163527661Y-60352661D01*
X163555110Y-60330134D01*
X163586431Y-60313393D01*
X163620409Y-60303085D01*
X163661890Y-60299000D01*
X164338110Y-60299000D01*
X164379591Y-60303085D01*
X164379591Y-60303085D01*
G37*
G36*
X166379591Y-60303085D02*
G01*
X166413569Y-60313393D01*
X166444890Y-60330134D01*
X166472339Y-60352661D01*
X166494866Y-60380110D01*
X166511607Y-60411431D01*
X166521915Y-60445409D01*
X166526000Y-60486890D01*
X166526000Y-61088110D01*
X166521915Y-61129591D01*
X166511607Y-61163569D01*
X166494866Y-61194890D01*
X166472339Y-61222339D01*
X166444890Y-61244866D01*
X166413569Y-61261607D01*
X166379591Y-61271915D01*
X166338110Y-61276000D01*
X165661890Y-61276000D01*
X165620409Y-61271915D01*
X165586431Y-61261607D01*
X165555110Y-61244866D01*
X165527661Y-61222339D01*
X165505134Y-61194890D01*
X165488393Y-61163569D01*
X165478085Y-61129591D01*
X165474000Y-61088110D01*
X165474000Y-60486890D01*
X165478085Y-60445409D01*
X165488393Y-60411431D01*
X165505134Y-60380110D01*
X165527661Y-60352661D01*
X165555110Y-60330134D01*
X165586431Y-60313393D01*
X165620409Y-60303085D01*
X165661890Y-60299000D01*
X166338110Y-60299000D01*
X166379591Y-60303085D01*
X166379591Y-60303085D01*
G37*
G36*
X239501000Y-60951000D02*
G01*
X238499000Y-60951000D01*
X238499000Y-60049000D01*
X239501000Y-60049000D01*
X239501000Y-60951000D01*
X239501000Y-60951000D01*
G37*
G36*
X182379591Y-59303085D02*
G01*
X182413569Y-59313393D01*
X182444890Y-59330134D01*
X182472339Y-59352661D01*
X182494866Y-59380110D01*
X182511607Y-59411431D01*
X182521915Y-59445409D01*
X182526000Y-59486890D01*
X182526000Y-60088110D01*
X182521915Y-60129591D01*
X182511607Y-60163569D01*
X182494866Y-60194890D01*
X182472339Y-60222339D01*
X182444890Y-60244866D01*
X182413569Y-60261607D01*
X182379591Y-60271915D01*
X182338110Y-60276000D01*
X181661890Y-60276000D01*
X181620409Y-60271915D01*
X181586431Y-60261607D01*
X181555110Y-60244866D01*
X181527661Y-60222339D01*
X181505134Y-60194890D01*
X181488393Y-60163569D01*
X181478085Y-60129591D01*
X181474000Y-60088110D01*
X181474000Y-59486890D01*
X181478085Y-59445409D01*
X181488393Y-59411431D01*
X181505134Y-59380110D01*
X181527661Y-59352661D01*
X181555110Y-59330134D01*
X181586431Y-59313393D01*
X181620409Y-59303085D01*
X181661890Y-59299000D01*
X182338110Y-59299000D01*
X182379591Y-59303085D01*
X182379591Y-59303085D01*
G37*
G36*
X180379591Y-59303085D02*
G01*
X180413569Y-59313393D01*
X180444890Y-59330134D01*
X180472339Y-59352661D01*
X180494866Y-59380110D01*
X180511607Y-59411431D01*
X180521915Y-59445409D01*
X180526000Y-59486890D01*
X180526000Y-60088110D01*
X180521915Y-60129591D01*
X180511607Y-60163569D01*
X180494866Y-60194890D01*
X180472339Y-60222339D01*
X180444890Y-60244866D01*
X180413569Y-60261607D01*
X180379591Y-60271915D01*
X180338110Y-60276000D01*
X179661890Y-60276000D01*
X179620409Y-60271915D01*
X179586431Y-60261607D01*
X179555110Y-60244866D01*
X179527661Y-60222339D01*
X179505134Y-60194890D01*
X179488393Y-60163569D01*
X179478085Y-60129591D01*
X179474000Y-60088110D01*
X179474000Y-59486890D01*
X179478085Y-59445409D01*
X179488393Y-59411431D01*
X179505134Y-59380110D01*
X179527661Y-59352661D01*
X179555110Y-59330134D01*
X179586431Y-59313393D01*
X179620409Y-59303085D01*
X179661890Y-59299000D01*
X180338110Y-59299000D01*
X180379591Y-59303085D01*
X180379591Y-59303085D01*
G37*
G36*
X178379591Y-59303085D02*
G01*
X178413569Y-59313393D01*
X178444890Y-59330134D01*
X178472339Y-59352661D01*
X178494866Y-59380110D01*
X178511607Y-59411431D01*
X178521915Y-59445409D01*
X178526000Y-59486890D01*
X178526000Y-60088110D01*
X178521915Y-60129591D01*
X178511607Y-60163569D01*
X178494866Y-60194890D01*
X178472339Y-60222339D01*
X178444890Y-60244866D01*
X178413569Y-60261607D01*
X178379591Y-60271915D01*
X178338110Y-60276000D01*
X177661890Y-60276000D01*
X177620409Y-60271915D01*
X177586431Y-60261607D01*
X177555110Y-60244866D01*
X177527661Y-60222339D01*
X177505134Y-60194890D01*
X177488393Y-60163569D01*
X177478085Y-60129591D01*
X177474000Y-60088110D01*
X177474000Y-59486890D01*
X177478085Y-59445409D01*
X177488393Y-59411431D01*
X177505134Y-59380110D01*
X177527661Y-59352661D01*
X177555110Y-59330134D01*
X177586431Y-59313393D01*
X177620409Y-59303085D01*
X177661890Y-59299000D01*
X178338110Y-59299000D01*
X178379591Y-59303085D01*
X178379591Y-59303085D01*
G37*
G36*
X241501000Y-60001000D02*
G01*
X240499000Y-60001000D01*
X240499000Y-59099000D01*
X241501000Y-59099000D01*
X241501000Y-60001000D01*
X241501000Y-60001000D01*
G37*
G36*
X249481000Y-59926000D02*
G01*
X248319000Y-59926000D01*
X248319000Y-59174000D01*
X249481000Y-59174000D01*
X249481000Y-59926000D01*
X249481000Y-59926000D01*
G37*
G36*
X231309468Y-58253565D02*
G01*
X231348138Y-58265296D01*
X231383777Y-58284346D01*
X231415017Y-58309983D01*
X231440654Y-58341223D01*
X231459704Y-58376862D01*
X231471435Y-58415532D01*
X231476000Y-58461888D01*
X231476000Y-59538112D01*
X231471435Y-59584468D01*
X231459704Y-59623138D01*
X231440654Y-59658777D01*
X231415017Y-59690017D01*
X231383777Y-59715654D01*
X231348138Y-59734704D01*
X231309468Y-59746435D01*
X231263112Y-59751000D01*
X230611888Y-59751000D01*
X230565532Y-59746435D01*
X230526862Y-59734704D01*
X230491223Y-59715654D01*
X230459983Y-59690017D01*
X230434346Y-59658777D01*
X230415296Y-59623138D01*
X230403565Y-59584468D01*
X230399000Y-59538112D01*
X230399000Y-58461888D01*
X230403565Y-58415532D01*
X230415296Y-58376862D01*
X230434346Y-58341223D01*
X230459983Y-58309983D01*
X230491223Y-58284346D01*
X230526862Y-58265296D01*
X230565532Y-58253565D01*
X230611888Y-58249000D01*
X231263112Y-58249000D01*
X231309468Y-58253565D01*
X231309468Y-58253565D01*
G37*
G36*
X229434468Y-58253565D02*
G01*
X229473138Y-58265296D01*
X229508777Y-58284346D01*
X229540017Y-58309983D01*
X229565654Y-58341223D01*
X229584704Y-58376862D01*
X229596435Y-58415532D01*
X229601000Y-58461888D01*
X229601000Y-59538112D01*
X229596435Y-59584468D01*
X229584704Y-59623138D01*
X229565654Y-59658777D01*
X229540017Y-59690017D01*
X229508777Y-59715654D01*
X229473138Y-59734704D01*
X229434468Y-59746435D01*
X229388112Y-59751000D01*
X228736888Y-59751000D01*
X228690532Y-59746435D01*
X228651862Y-59734704D01*
X228616223Y-59715654D01*
X228584983Y-59690017D01*
X228559346Y-59658777D01*
X228540296Y-59623138D01*
X228528565Y-59584468D01*
X228524000Y-59538112D01*
X228524000Y-58461888D01*
X228528565Y-58415532D01*
X228540296Y-58376862D01*
X228559346Y-58341223D01*
X228584983Y-58309983D01*
X228616223Y-58284346D01*
X228651862Y-58265296D01*
X228690532Y-58253565D01*
X228736888Y-58249000D01*
X229388112Y-58249000D01*
X229434468Y-58253565D01*
X229434468Y-58253565D01*
G37*
G36*
X246251000Y-59751000D02*
G01*
X243749000Y-59751000D01*
X243749000Y-57249000D01*
X246251000Y-57249000D01*
X246251000Y-59751000D01*
X246251000Y-59751000D01*
G37*
G36*
X164379591Y-58728085D02*
G01*
X164413569Y-58738393D01*
X164444890Y-58755134D01*
X164472339Y-58777661D01*
X164494866Y-58805110D01*
X164511607Y-58836431D01*
X164521915Y-58870409D01*
X164526000Y-58911890D01*
X164526000Y-59513110D01*
X164521915Y-59554591D01*
X164511607Y-59588569D01*
X164494866Y-59619890D01*
X164472339Y-59647339D01*
X164444890Y-59669866D01*
X164413569Y-59686607D01*
X164379591Y-59696915D01*
X164338110Y-59701000D01*
X163661890Y-59701000D01*
X163620409Y-59696915D01*
X163586431Y-59686607D01*
X163555110Y-59669866D01*
X163527661Y-59647339D01*
X163505134Y-59619890D01*
X163488393Y-59588569D01*
X163478085Y-59554591D01*
X163474000Y-59513110D01*
X163474000Y-58911890D01*
X163478085Y-58870409D01*
X163488393Y-58836431D01*
X163505134Y-58805110D01*
X163527661Y-58777661D01*
X163555110Y-58755134D01*
X163586431Y-58738393D01*
X163620409Y-58728085D01*
X163661890Y-58724000D01*
X164338110Y-58724000D01*
X164379591Y-58728085D01*
X164379591Y-58728085D01*
G37*
G36*
X166379591Y-58728085D02*
G01*
X166413569Y-58738393D01*
X166444890Y-58755134D01*
X166472339Y-58777661D01*
X166494866Y-58805110D01*
X166511607Y-58836431D01*
X166521915Y-58870409D01*
X166526000Y-58911890D01*
X166526000Y-59513110D01*
X166521915Y-59554591D01*
X166511607Y-59588569D01*
X166494866Y-59619890D01*
X166472339Y-59647339D01*
X166444890Y-59669866D01*
X166413569Y-59686607D01*
X166379591Y-59696915D01*
X166338110Y-59701000D01*
X165661890Y-59701000D01*
X165620409Y-59696915D01*
X165586431Y-59686607D01*
X165555110Y-59669866D01*
X165527661Y-59647339D01*
X165505134Y-59619890D01*
X165488393Y-59588569D01*
X165478085Y-59554591D01*
X165474000Y-59513110D01*
X165474000Y-58911890D01*
X165478085Y-58870409D01*
X165488393Y-58836431D01*
X165505134Y-58805110D01*
X165527661Y-58777661D01*
X165555110Y-58755134D01*
X165586431Y-58738393D01*
X165620409Y-58728085D01*
X165661890Y-58724000D01*
X166338110Y-58724000D01*
X166379591Y-58728085D01*
X166379591Y-58728085D01*
G37*
G36*
X196129591Y-58478085D02*
G01*
X196163569Y-58488393D01*
X196194890Y-58505134D01*
X196222339Y-58527661D01*
X196244866Y-58555110D01*
X196261607Y-58586431D01*
X196271915Y-58620409D01*
X196276000Y-58661890D01*
X196276000Y-59338110D01*
X196271915Y-59379591D01*
X196261607Y-59413569D01*
X196244866Y-59444890D01*
X196222339Y-59472339D01*
X196194890Y-59494866D01*
X196163569Y-59511607D01*
X196129591Y-59521915D01*
X196088110Y-59526000D01*
X195486890Y-59526000D01*
X195445409Y-59521915D01*
X195411431Y-59511607D01*
X195380110Y-59494866D01*
X195352661Y-59472339D01*
X195330134Y-59444890D01*
X195313393Y-59413569D01*
X195303085Y-59379591D01*
X195299000Y-59338110D01*
X195299000Y-58661890D01*
X195303085Y-58620409D01*
X195313393Y-58586431D01*
X195330134Y-58555110D01*
X195352661Y-58527661D01*
X195380110Y-58505134D01*
X195411431Y-58488393D01*
X195445409Y-58478085D01*
X195486890Y-58474000D01*
X196088110Y-58474000D01*
X196129591Y-58478085D01*
X196129591Y-58478085D01*
G37*
G36*
X194554591Y-58478085D02*
G01*
X194588569Y-58488393D01*
X194619890Y-58505134D01*
X194647339Y-58527661D01*
X194669866Y-58555110D01*
X194686607Y-58586431D01*
X194696915Y-58620409D01*
X194701000Y-58661890D01*
X194701000Y-59338110D01*
X194696915Y-59379591D01*
X194686607Y-59413569D01*
X194669866Y-59444890D01*
X194647339Y-59472339D01*
X194619890Y-59494866D01*
X194588569Y-59511607D01*
X194554591Y-59521915D01*
X194513110Y-59526000D01*
X193911890Y-59526000D01*
X193870409Y-59521915D01*
X193836431Y-59511607D01*
X193805110Y-59494866D01*
X193777661Y-59472339D01*
X193755134Y-59444890D01*
X193738393Y-59413569D01*
X193728085Y-59379591D01*
X193724000Y-59338110D01*
X193724000Y-58661890D01*
X193728085Y-58620409D01*
X193738393Y-58586431D01*
X193755134Y-58555110D01*
X193777661Y-58527661D01*
X193805110Y-58505134D01*
X193836431Y-58488393D01*
X193870409Y-58478085D01*
X193911890Y-58474000D01*
X194513110Y-58474000D01*
X194554591Y-58478085D01*
X194554591Y-58478085D01*
G37*
G36*
X180379591Y-57728085D02*
G01*
X180413569Y-57738393D01*
X180444890Y-57755134D01*
X180472339Y-57777661D01*
X180494866Y-57805110D01*
X180511607Y-57836431D01*
X180521915Y-57870409D01*
X180526000Y-57911890D01*
X180526000Y-58513110D01*
X180521915Y-58554591D01*
X180511607Y-58588569D01*
X180494866Y-58619890D01*
X180472339Y-58647339D01*
X180444890Y-58669866D01*
X180413569Y-58686607D01*
X180379591Y-58696915D01*
X180338110Y-58701000D01*
X179661890Y-58701000D01*
X179620409Y-58696915D01*
X179586431Y-58686607D01*
X179555110Y-58669866D01*
X179527661Y-58647339D01*
X179505134Y-58619890D01*
X179488393Y-58588569D01*
X179478085Y-58554591D01*
X179474000Y-58513110D01*
X179474000Y-57911890D01*
X179478085Y-57870409D01*
X179488393Y-57836431D01*
X179505134Y-57805110D01*
X179527661Y-57777661D01*
X179555110Y-57755134D01*
X179586431Y-57738393D01*
X179620409Y-57728085D01*
X179661890Y-57724000D01*
X180338110Y-57724000D01*
X180379591Y-57728085D01*
X180379591Y-57728085D01*
G37*
G36*
X178379591Y-57728085D02*
G01*
X178413569Y-57738393D01*
X178444890Y-57755134D01*
X178472339Y-57777661D01*
X178494866Y-57805110D01*
X178511607Y-57836431D01*
X178521915Y-57870409D01*
X178526000Y-57911890D01*
X178526000Y-58513110D01*
X178521915Y-58554591D01*
X178511607Y-58588569D01*
X178494866Y-58619890D01*
X178472339Y-58647339D01*
X178444890Y-58669866D01*
X178413569Y-58686607D01*
X178379591Y-58696915D01*
X178338110Y-58701000D01*
X177661890Y-58701000D01*
X177620409Y-58696915D01*
X177586431Y-58686607D01*
X177555110Y-58669866D01*
X177527661Y-58647339D01*
X177505134Y-58619890D01*
X177488393Y-58588569D01*
X177478085Y-58554591D01*
X177474000Y-58513110D01*
X177474000Y-57911890D01*
X177478085Y-57870409D01*
X177488393Y-57836431D01*
X177505134Y-57805110D01*
X177527661Y-57777661D01*
X177555110Y-57755134D01*
X177586431Y-57738393D01*
X177620409Y-57728085D01*
X177661890Y-57724000D01*
X178338110Y-57724000D01*
X178379591Y-57728085D01*
X178379591Y-57728085D01*
G37*
G36*
X182379591Y-57728085D02*
G01*
X182413569Y-57738393D01*
X182444890Y-57755134D01*
X182472339Y-57777661D01*
X182494866Y-57805110D01*
X182511607Y-57836431D01*
X182521915Y-57870409D01*
X182526000Y-57911890D01*
X182526000Y-58513110D01*
X182521915Y-58554591D01*
X182511607Y-58588569D01*
X182494866Y-58619890D01*
X182472339Y-58647339D01*
X182444890Y-58669866D01*
X182413569Y-58686607D01*
X182379591Y-58696915D01*
X182338110Y-58701000D01*
X181661890Y-58701000D01*
X181620409Y-58696915D01*
X181586431Y-58686607D01*
X181555110Y-58669866D01*
X181527661Y-58647339D01*
X181505134Y-58619890D01*
X181488393Y-58588569D01*
X181478085Y-58554591D01*
X181474000Y-58513110D01*
X181474000Y-57911890D01*
X181478085Y-57870409D01*
X181488393Y-57836431D01*
X181505134Y-57805110D01*
X181527661Y-57777661D01*
X181555110Y-57755134D01*
X181586431Y-57738393D01*
X181620409Y-57728085D01*
X181661890Y-57724000D01*
X182338110Y-57724000D01*
X182379591Y-57728085D01*
X182379591Y-57728085D01*
G37*
G36*
X144833642Y-56929781D02*
G01*
X144975143Y-56988393D01*
X144979416Y-56990163D01*
X145110608Y-57077822D01*
X145222178Y-57189392D01*
X145241460Y-57218250D01*
X145309838Y-57320586D01*
X145370219Y-57466358D01*
X145401000Y-57621107D01*
X145401000Y-57778893D01*
X145370219Y-57933642D01*
X145333655Y-58021915D01*
X145309837Y-58079416D01*
X145222178Y-58210608D01*
X145110608Y-58322178D01*
X144979416Y-58409837D01*
X144979415Y-58409838D01*
X144979414Y-58409838D01*
X144833642Y-58470219D01*
X144678893Y-58501000D01*
X144521107Y-58501000D01*
X144366358Y-58470219D01*
X144220586Y-58409838D01*
X144220585Y-58409838D01*
X144220584Y-58409837D01*
X144089392Y-58322178D01*
X143977822Y-58210608D01*
X143890163Y-58079416D01*
X143866345Y-58021915D01*
X143829781Y-57933642D01*
X143799000Y-57778893D01*
X143799000Y-57621107D01*
X143829781Y-57466358D01*
X143890162Y-57320586D01*
X143958540Y-57218250D01*
X143977822Y-57189392D01*
X144089392Y-57077822D01*
X144220584Y-56990163D01*
X144224857Y-56988393D01*
X144366358Y-56929781D01*
X144521107Y-56899000D01*
X144678893Y-56899000D01*
X144833642Y-56929781D01*
X144833642Y-56929781D01*
G37*
G36*
X120633642Y-56929781D02*
G01*
X120775143Y-56988393D01*
X120779416Y-56990163D01*
X120910608Y-57077822D01*
X121022178Y-57189392D01*
X121041460Y-57218250D01*
X121109838Y-57320586D01*
X121170219Y-57466358D01*
X121201000Y-57621107D01*
X121201000Y-57778893D01*
X121170219Y-57933642D01*
X121133655Y-58021915D01*
X121109837Y-58079416D01*
X121022178Y-58210608D01*
X120910608Y-58322178D01*
X120779416Y-58409837D01*
X120779415Y-58409838D01*
X120779414Y-58409838D01*
X120633642Y-58470219D01*
X120478893Y-58501000D01*
X120321107Y-58501000D01*
X120166358Y-58470219D01*
X120020586Y-58409838D01*
X120020585Y-58409838D01*
X120020584Y-58409837D01*
X119889392Y-58322178D01*
X119777822Y-58210608D01*
X119690163Y-58079416D01*
X119666345Y-58021915D01*
X119629781Y-57933642D01*
X119599000Y-57778893D01*
X119599000Y-57621107D01*
X119629781Y-57466358D01*
X119690162Y-57320586D01*
X119758540Y-57218250D01*
X119777822Y-57189392D01*
X119889392Y-57077822D01*
X120020584Y-56990163D01*
X120024857Y-56988393D01*
X120166358Y-56929781D01*
X120321107Y-56899000D01*
X120478893Y-56899000D01*
X120633642Y-56929781D01*
X120633642Y-56929781D01*
G37*
G36*
X242151000Y-58151000D02*
G01*
X241149000Y-58151000D01*
X241149000Y-56849000D01*
X242151000Y-56849000D01*
X242151000Y-58151000D01*
X242151000Y-58151000D01*
G37*
G36*
X238851000Y-58151000D02*
G01*
X237849000Y-58151000D01*
X237849000Y-56849000D01*
X238851000Y-56849000D01*
X238851000Y-58151000D01*
X238851000Y-58151000D01*
G37*
G36*
X251129591Y-56978085D02*
G01*
X251163569Y-56988393D01*
X251194890Y-57005134D01*
X251222339Y-57027661D01*
X251244866Y-57055110D01*
X251261607Y-57086431D01*
X251271915Y-57120409D01*
X251276000Y-57161890D01*
X251276000Y-57838110D01*
X251271915Y-57879591D01*
X251261607Y-57913569D01*
X251244866Y-57944890D01*
X251222339Y-57972339D01*
X251194890Y-57994866D01*
X251163569Y-58011607D01*
X251129591Y-58021915D01*
X251088110Y-58026000D01*
X250486890Y-58026000D01*
X250445409Y-58021915D01*
X250411431Y-58011607D01*
X250380110Y-57994866D01*
X250352661Y-57972339D01*
X250330134Y-57944890D01*
X250313393Y-57913569D01*
X250303085Y-57879591D01*
X250299000Y-57838110D01*
X250299000Y-57161890D01*
X250303085Y-57120409D01*
X250313393Y-57086431D01*
X250330134Y-57055110D01*
X250352661Y-57027661D01*
X250380110Y-57005134D01*
X250411431Y-56988393D01*
X250445409Y-56978085D01*
X250486890Y-56974000D01*
X251088110Y-56974000D01*
X251129591Y-56978085D01*
X251129591Y-56978085D01*
G37*
G36*
X249554591Y-56978085D02*
G01*
X249588569Y-56988393D01*
X249619890Y-57005134D01*
X249647339Y-57027661D01*
X249669866Y-57055110D01*
X249686607Y-57086431D01*
X249696915Y-57120409D01*
X249701000Y-57161890D01*
X249701000Y-57838110D01*
X249696915Y-57879591D01*
X249686607Y-57913569D01*
X249669866Y-57944890D01*
X249647339Y-57972339D01*
X249619890Y-57994866D01*
X249588569Y-58011607D01*
X249554591Y-58021915D01*
X249513110Y-58026000D01*
X248911890Y-58026000D01*
X248870409Y-58021915D01*
X248836431Y-58011607D01*
X248805110Y-57994866D01*
X248777661Y-57972339D01*
X248755134Y-57944890D01*
X248738393Y-57913569D01*
X248728085Y-57879591D01*
X248724000Y-57838110D01*
X248724000Y-57161890D01*
X248728085Y-57120409D01*
X248738393Y-57086431D01*
X248755134Y-57055110D01*
X248777661Y-57027661D01*
X248805110Y-57005134D01*
X248836431Y-56988393D01*
X248870409Y-56978085D01*
X248911890Y-56974000D01*
X249513110Y-56974000D01*
X249554591Y-56978085D01*
X249554591Y-56978085D01*
G37*
G36*
X163744870Y-54868601D02*
G01*
X163778848Y-54878909D01*
X163810169Y-54895650D01*
X163842383Y-54922088D01*
X163882234Y-54961939D01*
X163882240Y-54961944D01*
X164280695Y-55360399D01*
X164280700Y-55360405D01*
X164320551Y-55400256D01*
X164346989Y-55432470D01*
X164363730Y-55463791D01*
X164374038Y-55497769D01*
X164377518Y-55533110D01*
X164374038Y-55568451D01*
X164363730Y-55602429D01*
X164346989Y-55633750D01*
X164320551Y-55665964D01*
X164280700Y-55705815D01*
X164280695Y-55705821D01*
X163935274Y-56051242D01*
X163935268Y-56051247D01*
X163895417Y-56091098D01*
X163863203Y-56117536D01*
X163831882Y-56134277D01*
X163797904Y-56144585D01*
X163762563Y-56148065D01*
X163727222Y-56144585D01*
X163693244Y-56134277D01*
X163661923Y-56117536D01*
X163629709Y-56091098D01*
X163589858Y-56051247D01*
X163589852Y-56051242D01*
X163191397Y-55652787D01*
X163191392Y-55652781D01*
X163151541Y-55612930D01*
X163125103Y-55580716D01*
X163108362Y-55549395D01*
X163098054Y-55515417D01*
X163094574Y-55480076D01*
X163098054Y-55444735D01*
X163108362Y-55410757D01*
X163125103Y-55379436D01*
X163151541Y-55347222D01*
X163191392Y-55307371D01*
X163191397Y-55307365D01*
X163536818Y-54961944D01*
X163536824Y-54961939D01*
X163576675Y-54922088D01*
X163608889Y-54895650D01*
X163640210Y-54878909D01*
X163674188Y-54868601D01*
X163709529Y-54865121D01*
X163744870Y-54868601D01*
X163744870Y-54868601D01*
G37*
G36*
X229554591Y-54478085D02*
G01*
X229588569Y-54488393D01*
X229619890Y-54505134D01*
X229647339Y-54527661D01*
X229669866Y-54555110D01*
X229686607Y-54586431D01*
X229696915Y-54620409D01*
X229701000Y-54661890D01*
X229701000Y-55338110D01*
X229696915Y-55379591D01*
X229686607Y-55413569D01*
X229669866Y-55444890D01*
X229647339Y-55472339D01*
X229619890Y-55494866D01*
X229588569Y-55511607D01*
X229554591Y-55521915D01*
X229513110Y-55526000D01*
X228911890Y-55526000D01*
X228870409Y-55521915D01*
X228836431Y-55511607D01*
X228805110Y-55494866D01*
X228777661Y-55472339D01*
X228755134Y-55444890D01*
X228738393Y-55413569D01*
X228728085Y-55379591D01*
X228724000Y-55338110D01*
X228724000Y-54661890D01*
X228728085Y-54620409D01*
X228738393Y-54586431D01*
X228755134Y-54555110D01*
X228777661Y-54527661D01*
X228805110Y-54505134D01*
X228836431Y-54488393D01*
X228870409Y-54478085D01*
X228911890Y-54474000D01*
X229513110Y-54474000D01*
X229554591Y-54478085D01*
X229554591Y-54478085D01*
G37*
G36*
X231129591Y-54478085D02*
G01*
X231163569Y-54488393D01*
X231194890Y-54505134D01*
X231222339Y-54527661D01*
X231244866Y-54555110D01*
X231261607Y-54586431D01*
X231271915Y-54620409D01*
X231276000Y-54661890D01*
X231276000Y-55338110D01*
X231271915Y-55379591D01*
X231261607Y-55413569D01*
X231244866Y-55444890D01*
X231222339Y-55472339D01*
X231194890Y-55494866D01*
X231163569Y-55511607D01*
X231129591Y-55521915D01*
X231088110Y-55526000D01*
X230486890Y-55526000D01*
X230445409Y-55521915D01*
X230411431Y-55511607D01*
X230380110Y-55494866D01*
X230352661Y-55472339D01*
X230330134Y-55444890D01*
X230313393Y-55413569D01*
X230303085Y-55379591D01*
X230299000Y-55338110D01*
X230299000Y-54661890D01*
X230303085Y-54620409D01*
X230313393Y-54586431D01*
X230330134Y-54555110D01*
X230352661Y-54527661D01*
X230380110Y-54505134D01*
X230411431Y-54488393D01*
X230445409Y-54478085D01*
X230486890Y-54474000D01*
X231088110Y-54474000D01*
X231129591Y-54478085D01*
X231129591Y-54478085D01*
G37*
G36*
X164858564Y-53754907D02*
G01*
X164892542Y-53765215D01*
X164923863Y-53781956D01*
X164956077Y-53808394D01*
X164995928Y-53848245D01*
X164995934Y-53848250D01*
X165394389Y-54246705D01*
X165394394Y-54246711D01*
X165434245Y-54286562D01*
X165460683Y-54318776D01*
X165477424Y-54350097D01*
X165487732Y-54384075D01*
X165491212Y-54419416D01*
X165487732Y-54454757D01*
X165477424Y-54488735D01*
X165460683Y-54520056D01*
X165434245Y-54552270D01*
X165394394Y-54592121D01*
X165394389Y-54592127D01*
X165048968Y-54937548D01*
X165048962Y-54937553D01*
X165009111Y-54977404D01*
X164976897Y-55003842D01*
X164945576Y-55020583D01*
X164911598Y-55030891D01*
X164876257Y-55034371D01*
X164840916Y-55030891D01*
X164806938Y-55020583D01*
X164775617Y-55003842D01*
X164743403Y-54977404D01*
X164703552Y-54937553D01*
X164703546Y-54937548D01*
X164305091Y-54539093D01*
X164305086Y-54539087D01*
X164265235Y-54499236D01*
X164238797Y-54467022D01*
X164222056Y-54435701D01*
X164211748Y-54401723D01*
X164208268Y-54366382D01*
X164211748Y-54331041D01*
X164222056Y-54297063D01*
X164238797Y-54265742D01*
X164265235Y-54233528D01*
X164305086Y-54193677D01*
X164305091Y-54193671D01*
X164650512Y-53848250D01*
X164650518Y-53848245D01*
X164690369Y-53808394D01*
X164722583Y-53781956D01*
X164753904Y-53765215D01*
X164787882Y-53754907D01*
X164823223Y-53751427D01*
X164858564Y-53754907D01*
X164858564Y-53754907D01*
G37*
G36*
X162330657Y-53454388D02*
G01*
X162364635Y-53464696D01*
X162395956Y-53481437D01*
X162428170Y-53507875D01*
X162468021Y-53547726D01*
X162468027Y-53547731D01*
X162866482Y-53946186D01*
X162866487Y-53946192D01*
X162906338Y-53986043D01*
X162932776Y-54018257D01*
X162949517Y-54049578D01*
X162959825Y-54083556D01*
X162963305Y-54118897D01*
X162959825Y-54154238D01*
X162949517Y-54188216D01*
X162932776Y-54219537D01*
X162906338Y-54251751D01*
X162866487Y-54291602D01*
X162866482Y-54291608D01*
X162521061Y-54637029D01*
X162521055Y-54637034D01*
X162481204Y-54676885D01*
X162448990Y-54703323D01*
X162417669Y-54720064D01*
X162383691Y-54730372D01*
X162348350Y-54733852D01*
X162313009Y-54730372D01*
X162279031Y-54720064D01*
X162247710Y-54703323D01*
X162215496Y-54676885D01*
X162175645Y-54637034D01*
X162175639Y-54637029D01*
X161777184Y-54238574D01*
X161777179Y-54238568D01*
X161737328Y-54198717D01*
X161710890Y-54166503D01*
X161694149Y-54135182D01*
X161683841Y-54101204D01*
X161680361Y-54065863D01*
X161683841Y-54030522D01*
X161694149Y-53996544D01*
X161710890Y-53965223D01*
X161737328Y-53933009D01*
X161777179Y-53893158D01*
X161777184Y-53893152D01*
X162122605Y-53547731D01*
X162122611Y-53547726D01*
X162162462Y-53507875D01*
X162194676Y-53481437D01*
X162225997Y-53464696D01*
X162259975Y-53454388D01*
X162295316Y-53450908D01*
X162330657Y-53454388D01*
X162330657Y-53454388D01*
G37*
G36*
X168447131Y-52747281D02*
G01*
X168481109Y-52757589D01*
X168512430Y-52774330D01*
X168544644Y-52800768D01*
X168584495Y-52840619D01*
X168584501Y-52840624D01*
X168929922Y-53186045D01*
X168929927Y-53186051D01*
X168969778Y-53225902D01*
X168996216Y-53258116D01*
X169012957Y-53289437D01*
X169023265Y-53323415D01*
X169026745Y-53358756D01*
X169023265Y-53394097D01*
X169012957Y-53428075D01*
X168996216Y-53459396D01*
X168969778Y-53491610D01*
X168929927Y-53531461D01*
X168929922Y-53531467D01*
X168531467Y-53929922D01*
X168531461Y-53929927D01*
X168491610Y-53969778D01*
X168459396Y-53996216D01*
X168428075Y-54012957D01*
X168394097Y-54023265D01*
X168358756Y-54026745D01*
X168323415Y-54023265D01*
X168289437Y-54012957D01*
X168258116Y-53996216D01*
X168225902Y-53969778D01*
X168186051Y-53929927D01*
X168186045Y-53929922D01*
X167840624Y-53584501D01*
X167840619Y-53584495D01*
X167800768Y-53544644D01*
X167774330Y-53512430D01*
X167757589Y-53481109D01*
X167747281Y-53447131D01*
X167743801Y-53411790D01*
X167747281Y-53376449D01*
X167757589Y-53342471D01*
X167774330Y-53311150D01*
X167800768Y-53278936D01*
X167840619Y-53239085D01*
X167840624Y-53239079D01*
X168239079Y-52840624D01*
X168239085Y-52840619D01*
X168278936Y-52800768D01*
X168311150Y-52774330D01*
X168342471Y-52757589D01*
X168376449Y-52747281D01*
X168411790Y-52743801D01*
X168447131Y-52747281D01*
X168447131Y-52747281D01*
G37*
G36*
X163444351Y-52340694D02*
G01*
X163478329Y-52351002D01*
X163509650Y-52367743D01*
X163541864Y-52394181D01*
X163581715Y-52434032D01*
X163581721Y-52434037D01*
X163980176Y-52832492D01*
X163980181Y-52832498D01*
X164020032Y-52872349D01*
X164046470Y-52904563D01*
X164063211Y-52935884D01*
X164073519Y-52969862D01*
X164076999Y-53005203D01*
X164073519Y-53040544D01*
X164063211Y-53074522D01*
X164046470Y-53105843D01*
X164020032Y-53138057D01*
X163980181Y-53177908D01*
X163980176Y-53177914D01*
X163634755Y-53523335D01*
X163634749Y-53523340D01*
X163594898Y-53563191D01*
X163562684Y-53589629D01*
X163531363Y-53606370D01*
X163497385Y-53616678D01*
X163462044Y-53620158D01*
X163426703Y-53616678D01*
X163392725Y-53606370D01*
X163361404Y-53589629D01*
X163329190Y-53563191D01*
X163289339Y-53523340D01*
X163289333Y-53523335D01*
X162890878Y-53124880D01*
X162890873Y-53124874D01*
X162851022Y-53085023D01*
X162824584Y-53052809D01*
X162807843Y-53021488D01*
X162797535Y-52987510D01*
X162794055Y-52952169D01*
X162797535Y-52916828D01*
X162807843Y-52882850D01*
X162824584Y-52851529D01*
X162851022Y-52819315D01*
X162890873Y-52779464D01*
X162890878Y-52779458D01*
X163236299Y-52434037D01*
X163236305Y-52434032D01*
X163276156Y-52394181D01*
X163308370Y-52367743D01*
X163339691Y-52351002D01*
X163373669Y-52340694D01*
X163409010Y-52337214D01*
X163444351Y-52340694D01*
X163444351Y-52340694D01*
G37*
G36*
X160916443Y-52040174D02*
G01*
X160950421Y-52050482D01*
X160981742Y-52067223D01*
X161013956Y-52093661D01*
X161053807Y-52133512D01*
X161053813Y-52133517D01*
X161452268Y-52531972D01*
X161452273Y-52531978D01*
X161492124Y-52571829D01*
X161518562Y-52604043D01*
X161535303Y-52635364D01*
X161545611Y-52669342D01*
X161549091Y-52704683D01*
X161545611Y-52740024D01*
X161535303Y-52774002D01*
X161518562Y-52805323D01*
X161492124Y-52837537D01*
X161452273Y-52877388D01*
X161452268Y-52877394D01*
X161106847Y-53222815D01*
X161106841Y-53222820D01*
X161066990Y-53262671D01*
X161034776Y-53289109D01*
X161003455Y-53305850D01*
X160969477Y-53316158D01*
X160934136Y-53319638D01*
X160898795Y-53316158D01*
X160864817Y-53305850D01*
X160833496Y-53289109D01*
X160801282Y-53262671D01*
X160761431Y-53222820D01*
X160761425Y-53222815D01*
X160362970Y-52824360D01*
X160362965Y-52824354D01*
X160323114Y-52784503D01*
X160296676Y-52752289D01*
X160279935Y-52720968D01*
X160269627Y-52686990D01*
X160266147Y-52651649D01*
X160269627Y-52616308D01*
X160279935Y-52582330D01*
X160296676Y-52551009D01*
X160323114Y-52518795D01*
X160362965Y-52478944D01*
X160362970Y-52478938D01*
X160708391Y-52133517D01*
X160708397Y-52133512D01*
X160748248Y-52093661D01*
X160780462Y-52067223D01*
X160811783Y-52050482D01*
X160845761Y-52040174D01*
X160881102Y-52036694D01*
X160916443Y-52040174D01*
X160916443Y-52040174D01*
G37*
G36*
X167333437Y-51633587D02*
G01*
X167367415Y-51643895D01*
X167398736Y-51660636D01*
X167430950Y-51687074D01*
X167470801Y-51726925D01*
X167470807Y-51726930D01*
X167816228Y-52072351D01*
X167816233Y-52072357D01*
X167856084Y-52112208D01*
X167882522Y-52144422D01*
X167899263Y-52175743D01*
X167909571Y-52209721D01*
X167913051Y-52245062D01*
X167909571Y-52280403D01*
X167899263Y-52314381D01*
X167882522Y-52345702D01*
X167856084Y-52377916D01*
X167816233Y-52417767D01*
X167816228Y-52417773D01*
X167417773Y-52816228D01*
X167417767Y-52816233D01*
X167377916Y-52856084D01*
X167345702Y-52882522D01*
X167314381Y-52899263D01*
X167280403Y-52909571D01*
X167245062Y-52913051D01*
X167209721Y-52909571D01*
X167175743Y-52899263D01*
X167144422Y-52882522D01*
X167112208Y-52856084D01*
X167072357Y-52816233D01*
X167072351Y-52816228D01*
X166726930Y-52470807D01*
X166726925Y-52470801D01*
X166687074Y-52430950D01*
X166660636Y-52398736D01*
X166643895Y-52367415D01*
X166633587Y-52333437D01*
X166630107Y-52298096D01*
X166633587Y-52262755D01*
X166643895Y-52228777D01*
X166660636Y-52197456D01*
X166687074Y-52165242D01*
X166726925Y-52125391D01*
X166726930Y-52125385D01*
X167125385Y-51726930D01*
X167125391Y-51726925D01*
X167165242Y-51687074D01*
X167197456Y-51660636D01*
X167228777Y-51643895D01*
X167262755Y-51633587D01*
X167298096Y-51630107D01*
X167333437Y-51633587D01*
X167333437Y-51633587D01*
G37*
G36*
X179554591Y-51478085D02*
G01*
X179588569Y-51488393D01*
X179619890Y-51505134D01*
X179647339Y-51527661D01*
X179669866Y-51555110D01*
X179686607Y-51586431D01*
X179696915Y-51620409D01*
X179701000Y-51661890D01*
X179701000Y-52338110D01*
X179696915Y-52379591D01*
X179686607Y-52413569D01*
X179669866Y-52444890D01*
X179647339Y-52472339D01*
X179619890Y-52494866D01*
X179588569Y-52511607D01*
X179554591Y-52521915D01*
X179513110Y-52526000D01*
X178911890Y-52526000D01*
X178870409Y-52521915D01*
X178836431Y-52511607D01*
X178805110Y-52494866D01*
X178777661Y-52472339D01*
X178755134Y-52444890D01*
X178738393Y-52413569D01*
X178728085Y-52379591D01*
X178724000Y-52338110D01*
X178724000Y-51661890D01*
X178728085Y-51620409D01*
X178738393Y-51586431D01*
X178755134Y-51555110D01*
X178777661Y-51527661D01*
X178805110Y-51505134D01*
X178836431Y-51488393D01*
X178870409Y-51478085D01*
X178911890Y-51474000D01*
X179513110Y-51474000D01*
X179554591Y-51478085D01*
X179554591Y-51478085D01*
G37*
G36*
X181129591Y-51478085D02*
G01*
X181163569Y-51488393D01*
X181194890Y-51505134D01*
X181222339Y-51527661D01*
X181244866Y-51555110D01*
X181261607Y-51586431D01*
X181271915Y-51620409D01*
X181276000Y-51661890D01*
X181276000Y-52338110D01*
X181271915Y-52379591D01*
X181261607Y-52413569D01*
X181244866Y-52444890D01*
X181222339Y-52472339D01*
X181194890Y-52494866D01*
X181163569Y-52511607D01*
X181129591Y-52521915D01*
X181088110Y-52526000D01*
X180486890Y-52526000D01*
X180445409Y-52521915D01*
X180411431Y-52511607D01*
X180380110Y-52494866D01*
X180352661Y-52472339D01*
X180330134Y-52444890D01*
X180313393Y-52413569D01*
X180303085Y-52379591D01*
X180299000Y-52338110D01*
X180299000Y-51661890D01*
X180303085Y-51620409D01*
X180313393Y-51586431D01*
X180330134Y-51555110D01*
X180352661Y-51527661D01*
X180380110Y-51505134D01*
X180411431Y-51488393D01*
X180445409Y-51478085D01*
X180486890Y-51474000D01*
X181088110Y-51474000D01*
X181129591Y-51478085D01*
X181129591Y-51478085D01*
G37*
G36*
X162030137Y-50926480D02*
G01*
X162064115Y-50936788D01*
X162095436Y-50953529D01*
X162127650Y-50979967D01*
X162167501Y-51019818D01*
X162167507Y-51019823D01*
X162565962Y-51418278D01*
X162565967Y-51418284D01*
X162605818Y-51458135D01*
X162632256Y-51490349D01*
X162648997Y-51521670D01*
X162659305Y-51555648D01*
X162662785Y-51590989D01*
X162659305Y-51626330D01*
X162648997Y-51660308D01*
X162632256Y-51691629D01*
X162605818Y-51723843D01*
X162565967Y-51763694D01*
X162565962Y-51763700D01*
X162220541Y-52109121D01*
X162220535Y-52109126D01*
X162180684Y-52148977D01*
X162148470Y-52175415D01*
X162117149Y-52192156D01*
X162083171Y-52202464D01*
X162047830Y-52205944D01*
X162012489Y-52202464D01*
X161978511Y-52192156D01*
X161947190Y-52175415D01*
X161914976Y-52148977D01*
X161875125Y-52109126D01*
X161875119Y-52109121D01*
X161476664Y-51710666D01*
X161476659Y-51710660D01*
X161436808Y-51670809D01*
X161410370Y-51638595D01*
X161393629Y-51607274D01*
X161383321Y-51573296D01*
X161379841Y-51537955D01*
X161383321Y-51502614D01*
X161393629Y-51468636D01*
X161410370Y-51437315D01*
X161436808Y-51405101D01*
X161476659Y-51365250D01*
X161476664Y-51365244D01*
X161822085Y-51019823D01*
X161822091Y-51019818D01*
X161861942Y-50979967D01*
X161894156Y-50953529D01*
X161925477Y-50936788D01*
X161959455Y-50926480D01*
X161994796Y-50923000D01*
X162030137Y-50926480D01*
X162030137Y-50926480D01*
G37*
G36*
X164934152Y-50548409D02*
G01*
X164972822Y-50560140D01*
X165008461Y-50579190D01*
X165044467Y-50608739D01*
X165084317Y-50648589D01*
X165084323Y-50648594D01*
X165765620Y-51329891D01*
X165765625Y-51329897D01*
X165805475Y-51369747D01*
X165835024Y-51405753D01*
X165854074Y-51441392D01*
X165865805Y-51480062D01*
X165869765Y-51520280D01*
X165865805Y-51560498D01*
X165854074Y-51599168D01*
X165835024Y-51634807D01*
X165805475Y-51670813D01*
X165765625Y-51710663D01*
X165765620Y-51710669D01*
X165384843Y-52091446D01*
X165384837Y-52091451D01*
X165344987Y-52131301D01*
X165308981Y-52160850D01*
X165273342Y-52179900D01*
X165234672Y-52191631D01*
X165194454Y-52195591D01*
X165154236Y-52191631D01*
X165115566Y-52179900D01*
X165079927Y-52160850D01*
X165043921Y-52131301D01*
X165004071Y-52091451D01*
X165004065Y-52091446D01*
X164322768Y-51410149D01*
X164322763Y-51410143D01*
X164282913Y-51370293D01*
X164253364Y-51334287D01*
X164234314Y-51298648D01*
X164222583Y-51259978D01*
X164218623Y-51219760D01*
X164222583Y-51179542D01*
X164234314Y-51140872D01*
X164253364Y-51105233D01*
X164282913Y-51069227D01*
X164322763Y-51029377D01*
X164322768Y-51029371D01*
X164703545Y-50648594D01*
X164703551Y-50648589D01*
X164743401Y-50608739D01*
X164779407Y-50579190D01*
X164815046Y-50560140D01*
X164853716Y-50548409D01*
X164893934Y-50544449D01*
X164934152Y-50548409D01*
X164934152Y-50548409D01*
G37*
G36*
X159502230Y-50625961D02*
G01*
X159536208Y-50636269D01*
X159567529Y-50653010D01*
X159599743Y-50679448D01*
X159639594Y-50719299D01*
X159639600Y-50719304D01*
X160038055Y-51117759D01*
X160038060Y-51117765D01*
X160077911Y-51157616D01*
X160104349Y-51189830D01*
X160121090Y-51221151D01*
X160131398Y-51255129D01*
X160134878Y-51290470D01*
X160131398Y-51325811D01*
X160121090Y-51359789D01*
X160104349Y-51391110D01*
X160077911Y-51423324D01*
X160038060Y-51463175D01*
X160038055Y-51463181D01*
X159692634Y-51808602D01*
X159692628Y-51808607D01*
X159652777Y-51848458D01*
X159620563Y-51874896D01*
X159589242Y-51891637D01*
X159555264Y-51901945D01*
X159519923Y-51905425D01*
X159484582Y-51901945D01*
X159450604Y-51891637D01*
X159419283Y-51874896D01*
X159387069Y-51848458D01*
X159347218Y-51808607D01*
X159347212Y-51808602D01*
X158948757Y-51410147D01*
X158948752Y-51410141D01*
X158908901Y-51370290D01*
X158882463Y-51338076D01*
X158865722Y-51306755D01*
X158855414Y-51272777D01*
X158851934Y-51237436D01*
X158855414Y-51202095D01*
X158865722Y-51168117D01*
X158882463Y-51136796D01*
X158908901Y-51104582D01*
X158948752Y-51064731D01*
X158948757Y-51064725D01*
X159294178Y-50719304D01*
X159294184Y-50719299D01*
X159334035Y-50679448D01*
X159366249Y-50653010D01*
X159397570Y-50636269D01*
X159431548Y-50625961D01*
X159466889Y-50622481D01*
X159502230Y-50625961D01*
X159502230Y-50625961D01*
G37*
G36*
X151129591Y-50478085D02*
G01*
X151163569Y-50488393D01*
X151194890Y-50505134D01*
X151222339Y-50527661D01*
X151244866Y-50555110D01*
X151261607Y-50586431D01*
X151271915Y-50620409D01*
X151276000Y-50661890D01*
X151276000Y-51338110D01*
X151271915Y-51379591D01*
X151261607Y-51413569D01*
X151244866Y-51444890D01*
X151222339Y-51472339D01*
X151194890Y-51494866D01*
X151163569Y-51511607D01*
X151129591Y-51521915D01*
X151088110Y-51526000D01*
X150486890Y-51526000D01*
X150445409Y-51521915D01*
X150411431Y-51511607D01*
X150380110Y-51494866D01*
X150352661Y-51472339D01*
X150330134Y-51444890D01*
X150313393Y-51413569D01*
X150303085Y-51379591D01*
X150299000Y-51338110D01*
X150299000Y-50661890D01*
X150303085Y-50620409D01*
X150313393Y-50586431D01*
X150330134Y-50555110D01*
X150352661Y-50527661D01*
X150380110Y-50505134D01*
X150411431Y-50488393D01*
X150445409Y-50478085D01*
X150486890Y-50474000D01*
X151088110Y-50474000D01*
X151129591Y-50478085D01*
X151129591Y-50478085D01*
G37*
G36*
X149554591Y-50478085D02*
G01*
X149588569Y-50488393D01*
X149619890Y-50505134D01*
X149647339Y-50527661D01*
X149669866Y-50555110D01*
X149686607Y-50586431D01*
X149696915Y-50620409D01*
X149701000Y-50661890D01*
X149701000Y-51338110D01*
X149696915Y-51379591D01*
X149686607Y-51413569D01*
X149669866Y-51444890D01*
X149647339Y-51472339D01*
X149619890Y-51494866D01*
X149588569Y-51511607D01*
X149554591Y-51521915D01*
X149513110Y-51526000D01*
X148911890Y-51526000D01*
X148870409Y-51521915D01*
X148836431Y-51511607D01*
X148805110Y-51494866D01*
X148777661Y-51472339D01*
X148755134Y-51444890D01*
X148738393Y-51413569D01*
X148728085Y-51379591D01*
X148724000Y-51338110D01*
X148724000Y-50661890D01*
X148728085Y-50620409D01*
X148738393Y-50586431D01*
X148755134Y-50555110D01*
X148777661Y-50527661D01*
X148805110Y-50505134D01*
X148836431Y-50488393D01*
X148870409Y-50478085D01*
X148911890Y-50474000D01*
X149513110Y-50474000D01*
X149554591Y-50478085D01*
X149554591Y-50478085D01*
G37*
G36*
X166259978Y-49222583D02*
G01*
X166298648Y-49234314D01*
X166334287Y-49253364D01*
X166370293Y-49282913D01*
X166410143Y-49322763D01*
X166410149Y-49322768D01*
X167091446Y-50004065D01*
X167091451Y-50004071D01*
X167131301Y-50043921D01*
X167160850Y-50079927D01*
X167179900Y-50115566D01*
X167191631Y-50154236D01*
X167195591Y-50194454D01*
X167191631Y-50234672D01*
X167179900Y-50273342D01*
X167160850Y-50308981D01*
X167131301Y-50344987D01*
X167091451Y-50384837D01*
X167091446Y-50384843D01*
X166710669Y-50765620D01*
X166710663Y-50765625D01*
X166670813Y-50805475D01*
X166634807Y-50835024D01*
X166599168Y-50854074D01*
X166560498Y-50865805D01*
X166520280Y-50869765D01*
X166480062Y-50865805D01*
X166441392Y-50854074D01*
X166405753Y-50835024D01*
X166369747Y-50805475D01*
X166329897Y-50765625D01*
X166329891Y-50765620D01*
X165648594Y-50084323D01*
X165648589Y-50084317D01*
X165608739Y-50044467D01*
X165579190Y-50008461D01*
X165560140Y-49972822D01*
X165548409Y-49934152D01*
X165544449Y-49893934D01*
X165548409Y-49853716D01*
X165560140Y-49815046D01*
X165579190Y-49779407D01*
X165608739Y-49743401D01*
X165648589Y-49703551D01*
X165648594Y-49703545D01*
X166029371Y-49322768D01*
X166029377Y-49322763D01*
X166069227Y-49282913D01*
X166105233Y-49253364D01*
X166140872Y-49234314D01*
X166179542Y-49222583D01*
X166219760Y-49218623D01*
X166259978Y-49222583D01*
X166259978Y-49222583D01*
G37*
G36*
X160615924Y-49512267D02*
G01*
X160649902Y-49522575D01*
X160681223Y-49539316D01*
X160713437Y-49565754D01*
X160753288Y-49605605D01*
X160753294Y-49605610D01*
X161151749Y-50004065D01*
X161151754Y-50004071D01*
X161191605Y-50043922D01*
X161218043Y-50076136D01*
X161234784Y-50107457D01*
X161245092Y-50141435D01*
X161248572Y-50176776D01*
X161245092Y-50212117D01*
X161234784Y-50246095D01*
X161218043Y-50277416D01*
X161191605Y-50309630D01*
X161151754Y-50349481D01*
X161151749Y-50349487D01*
X160806328Y-50694908D01*
X160806322Y-50694913D01*
X160766471Y-50734764D01*
X160734257Y-50761202D01*
X160702936Y-50777943D01*
X160668958Y-50788251D01*
X160633617Y-50791731D01*
X160598276Y-50788251D01*
X160564298Y-50777943D01*
X160532977Y-50761202D01*
X160500763Y-50734764D01*
X160460912Y-50694913D01*
X160460906Y-50694908D01*
X160062451Y-50296453D01*
X160062446Y-50296447D01*
X160022595Y-50256596D01*
X159996157Y-50224382D01*
X159979416Y-50193061D01*
X159969108Y-50159083D01*
X159965628Y-50123742D01*
X159969108Y-50088401D01*
X159979416Y-50054423D01*
X159996157Y-50023102D01*
X160022595Y-49990888D01*
X160062446Y-49951037D01*
X160062451Y-49951031D01*
X160407872Y-49605610D01*
X160407878Y-49605605D01*
X160447729Y-49565754D01*
X160479943Y-49539316D01*
X160511264Y-49522575D01*
X160545242Y-49512267D01*
X160580583Y-49508787D01*
X160615924Y-49512267D01*
X160615924Y-49512267D01*
G37*
G36*
X163519938Y-49134195D02*
G01*
X163558608Y-49145926D01*
X163594247Y-49164976D01*
X163630253Y-49194525D01*
X163670103Y-49234375D01*
X163670109Y-49234380D01*
X164351406Y-49915677D01*
X164351411Y-49915683D01*
X164391261Y-49955533D01*
X164420810Y-49991539D01*
X164439860Y-50027178D01*
X164451591Y-50065848D01*
X164455551Y-50106066D01*
X164451591Y-50146284D01*
X164439860Y-50184954D01*
X164420810Y-50220593D01*
X164391261Y-50256599D01*
X164351411Y-50296449D01*
X164351406Y-50296455D01*
X163970629Y-50677232D01*
X163970623Y-50677237D01*
X163930773Y-50717087D01*
X163894767Y-50746636D01*
X163859128Y-50765686D01*
X163820458Y-50777417D01*
X163780240Y-50781377D01*
X163740022Y-50777417D01*
X163701352Y-50765686D01*
X163665713Y-50746636D01*
X163629707Y-50717087D01*
X163589857Y-50677237D01*
X163589851Y-50677232D01*
X162908554Y-49995935D01*
X162908549Y-49995929D01*
X162868699Y-49956079D01*
X162839150Y-49920073D01*
X162820100Y-49884434D01*
X162808369Y-49845764D01*
X162804409Y-49805546D01*
X162808369Y-49765328D01*
X162820100Y-49726658D01*
X162839150Y-49691019D01*
X162868699Y-49655013D01*
X162908549Y-49615163D01*
X162908554Y-49615157D01*
X163289331Y-49234380D01*
X163289337Y-49234375D01*
X163329187Y-49194525D01*
X163365193Y-49164976D01*
X163400832Y-49145926D01*
X163439502Y-49134195D01*
X163479720Y-49130235D01*
X163519938Y-49134195D01*
X163519938Y-49134195D01*
G37*
G36*
X181129591Y-49478085D02*
G01*
X181163569Y-49488393D01*
X181194890Y-49505134D01*
X181222339Y-49527661D01*
X181244866Y-49555110D01*
X181261607Y-49586431D01*
X181271915Y-49620409D01*
X181276000Y-49661890D01*
X181276000Y-50338110D01*
X181271915Y-50379591D01*
X181261607Y-50413569D01*
X181244866Y-50444890D01*
X181222339Y-50472339D01*
X181194890Y-50494866D01*
X181163569Y-50511607D01*
X181129591Y-50521915D01*
X181088110Y-50526000D01*
X180486890Y-50526000D01*
X180445409Y-50521915D01*
X180411431Y-50511607D01*
X180380110Y-50494866D01*
X180352661Y-50472339D01*
X180330134Y-50444890D01*
X180313393Y-50413569D01*
X180303085Y-50379591D01*
X180299000Y-50338110D01*
X180299000Y-49661890D01*
X180303085Y-49620409D01*
X180313393Y-49586431D01*
X180330134Y-49555110D01*
X180352661Y-49527661D01*
X180380110Y-49505134D01*
X180411431Y-49488393D01*
X180445409Y-49478085D01*
X180486890Y-49474000D01*
X181088110Y-49474000D01*
X181129591Y-49478085D01*
X181129591Y-49478085D01*
G37*
G36*
X179554591Y-49478085D02*
G01*
X179588569Y-49488393D01*
X179619890Y-49505134D01*
X179647339Y-49527661D01*
X179669866Y-49555110D01*
X179686607Y-49586431D01*
X179696915Y-49620409D01*
X179701000Y-49661890D01*
X179701000Y-50338110D01*
X179696915Y-50379591D01*
X179686607Y-50413569D01*
X179669866Y-50444890D01*
X179647339Y-50472339D01*
X179619890Y-50494866D01*
X179588569Y-50511607D01*
X179554591Y-50521915D01*
X179513110Y-50526000D01*
X178911890Y-50526000D01*
X178870409Y-50521915D01*
X178836431Y-50511607D01*
X178805110Y-50494866D01*
X178777661Y-50472339D01*
X178755134Y-50444890D01*
X178738393Y-50413569D01*
X178728085Y-50379591D01*
X178724000Y-50338110D01*
X178724000Y-49661890D01*
X178728085Y-49620409D01*
X178738393Y-49586431D01*
X178755134Y-49555110D01*
X178777661Y-49527661D01*
X178805110Y-49505134D01*
X178836431Y-49488393D01*
X178870409Y-49478085D01*
X178911890Y-49474000D01*
X179513110Y-49474000D01*
X179554591Y-49478085D01*
X179554591Y-49478085D01*
G37*
G36*
X169401724Y-49211748D02*
G01*
X169435702Y-49222056D01*
X169467023Y-49238797D01*
X169499237Y-49265235D01*
X169539088Y-49305086D01*
X169539094Y-49305091D01*
X169937549Y-49703546D01*
X169937554Y-49703552D01*
X169977405Y-49743403D01*
X170003843Y-49775617D01*
X170020584Y-49806938D01*
X170030892Y-49840916D01*
X170034372Y-49876257D01*
X170030892Y-49911598D01*
X170020584Y-49945576D01*
X170003843Y-49976897D01*
X169977405Y-50009111D01*
X169937554Y-50048962D01*
X169937549Y-50048968D01*
X169592128Y-50394389D01*
X169592122Y-50394394D01*
X169552271Y-50434245D01*
X169520057Y-50460683D01*
X169488736Y-50477424D01*
X169454758Y-50487732D01*
X169419417Y-50491212D01*
X169384076Y-50487732D01*
X169350098Y-50477424D01*
X169318777Y-50460683D01*
X169286563Y-50434245D01*
X169246712Y-50394394D01*
X169246706Y-50394389D01*
X168848251Y-49995934D01*
X168848246Y-49995928D01*
X168808395Y-49956077D01*
X168781957Y-49923863D01*
X168765216Y-49892542D01*
X168754908Y-49858564D01*
X168751428Y-49823223D01*
X168754908Y-49787882D01*
X168765216Y-49753904D01*
X168781957Y-49722583D01*
X168808395Y-49690369D01*
X168848246Y-49650518D01*
X168848251Y-49650512D01*
X169193672Y-49305091D01*
X169193678Y-49305086D01*
X169233529Y-49265235D01*
X169265743Y-49238797D01*
X169297064Y-49222056D01*
X169331042Y-49211748D01*
X169366383Y-49208268D01*
X169401724Y-49211748D01*
X169401724Y-49211748D01*
G37*
G36*
X149554591Y-48478085D02*
G01*
X149588569Y-48488393D01*
X149619890Y-48505134D01*
X149647339Y-48527661D01*
X149669866Y-48555110D01*
X149686607Y-48586431D01*
X149696915Y-48620409D01*
X149701000Y-48661890D01*
X149701000Y-49338110D01*
X149696915Y-49379591D01*
X149686607Y-49413569D01*
X149669866Y-49444890D01*
X149647339Y-49472339D01*
X149619890Y-49494866D01*
X149588569Y-49511607D01*
X149554591Y-49521915D01*
X149513110Y-49526000D01*
X148911890Y-49526000D01*
X148870409Y-49521915D01*
X148836431Y-49511607D01*
X148805110Y-49494866D01*
X148777661Y-49472339D01*
X148755134Y-49444890D01*
X148738393Y-49413569D01*
X148728085Y-49379591D01*
X148724000Y-49338110D01*
X148724000Y-48661890D01*
X148728085Y-48620409D01*
X148738393Y-48586431D01*
X148755134Y-48555110D01*
X148777661Y-48527661D01*
X148805110Y-48505134D01*
X148836431Y-48488393D01*
X148870409Y-48478085D01*
X148911890Y-48474000D01*
X149513110Y-48474000D01*
X149554591Y-48478085D01*
X149554591Y-48478085D01*
G37*
G36*
X151129591Y-48478085D02*
G01*
X151163569Y-48488393D01*
X151194890Y-48505134D01*
X151222339Y-48527661D01*
X151244866Y-48555110D01*
X151261607Y-48586431D01*
X151271915Y-48620409D01*
X151276000Y-48661890D01*
X151276000Y-49338110D01*
X151271915Y-49379591D01*
X151261607Y-49413569D01*
X151244866Y-49444890D01*
X151222339Y-49472339D01*
X151194890Y-49494866D01*
X151163569Y-49511607D01*
X151129591Y-49521915D01*
X151088110Y-49526000D01*
X150486890Y-49526000D01*
X150445409Y-49521915D01*
X150411431Y-49511607D01*
X150380110Y-49494866D01*
X150352661Y-49472339D01*
X150330134Y-49444890D01*
X150313393Y-49413569D01*
X150303085Y-49379591D01*
X150299000Y-49338110D01*
X150299000Y-48661890D01*
X150303085Y-48620409D01*
X150313393Y-48586431D01*
X150330134Y-48555110D01*
X150352661Y-48527661D01*
X150380110Y-48505134D01*
X150411431Y-48488393D01*
X150445409Y-48478085D01*
X150486890Y-48474000D01*
X151088110Y-48474000D01*
X151129591Y-48478085D01*
X151129591Y-48478085D01*
G37*
G36*
X164845764Y-47808369D02*
G01*
X164884434Y-47820100D01*
X164920073Y-47839150D01*
X164956079Y-47868699D01*
X164995929Y-47908549D01*
X164995935Y-47908554D01*
X165677232Y-48589851D01*
X165677237Y-48589857D01*
X165717087Y-48629707D01*
X165746636Y-48665713D01*
X165765686Y-48701352D01*
X165777417Y-48740022D01*
X165781377Y-48780240D01*
X165777417Y-48820458D01*
X165765686Y-48859128D01*
X165746636Y-48894767D01*
X165717087Y-48930773D01*
X165677237Y-48970623D01*
X165677232Y-48970629D01*
X165296455Y-49351406D01*
X165296449Y-49351411D01*
X165256599Y-49391261D01*
X165220593Y-49420810D01*
X165184954Y-49439860D01*
X165146284Y-49451591D01*
X165106066Y-49455551D01*
X165065848Y-49451591D01*
X165027178Y-49439860D01*
X164991539Y-49420810D01*
X164955533Y-49391261D01*
X164915683Y-49351411D01*
X164915677Y-49351406D01*
X164234380Y-48670109D01*
X164234375Y-48670103D01*
X164194525Y-48630253D01*
X164164976Y-48594247D01*
X164145926Y-48558608D01*
X164134195Y-48519938D01*
X164130235Y-48479720D01*
X164134195Y-48439502D01*
X164145926Y-48400832D01*
X164164976Y-48365193D01*
X164194525Y-48329187D01*
X164234375Y-48289337D01*
X164234380Y-48289331D01*
X164615157Y-47908554D01*
X164615163Y-47908549D01*
X164655013Y-47868699D01*
X164691019Y-47839150D01*
X164726658Y-47820100D01*
X164765328Y-47808369D01*
X164805546Y-47804409D01*
X164845764Y-47808369D01*
X164845764Y-47808369D01*
G37*
G36*
X170515418Y-48098054D02*
G01*
X170549396Y-48108362D01*
X170580717Y-48125103D01*
X170612931Y-48151541D01*
X170652782Y-48191392D01*
X170652788Y-48191397D01*
X171051243Y-48589852D01*
X171051248Y-48589858D01*
X171091099Y-48629709D01*
X171117537Y-48661923D01*
X171134278Y-48693244D01*
X171144586Y-48727222D01*
X171148066Y-48762563D01*
X171144586Y-48797904D01*
X171134278Y-48831882D01*
X171117537Y-48863203D01*
X171091099Y-48895417D01*
X171051248Y-48935268D01*
X171051243Y-48935274D01*
X170705822Y-49280695D01*
X170705816Y-49280700D01*
X170665965Y-49320551D01*
X170633751Y-49346989D01*
X170602430Y-49363730D01*
X170568452Y-49374038D01*
X170533111Y-49377518D01*
X170497770Y-49374038D01*
X170463792Y-49363730D01*
X170432471Y-49346989D01*
X170400257Y-49320551D01*
X170360406Y-49280700D01*
X170360400Y-49280695D01*
X169961945Y-48882240D01*
X169961940Y-48882234D01*
X169922089Y-48842383D01*
X169895651Y-48810169D01*
X169878910Y-48778848D01*
X169868602Y-48744870D01*
X169865122Y-48709529D01*
X169868602Y-48674188D01*
X169878910Y-48640210D01*
X169895651Y-48608889D01*
X169922089Y-48576675D01*
X169961940Y-48536824D01*
X169961945Y-48536818D01*
X170307366Y-48191397D01*
X170307372Y-48191392D01*
X170347223Y-48151541D01*
X170379437Y-48125103D01*
X170410758Y-48108362D01*
X170444736Y-48098054D01*
X170480077Y-48094574D01*
X170515418Y-48098054D01*
X170515418Y-48098054D01*
G37*
G36*
X167987511Y-47797535D02*
G01*
X168021489Y-47807843D01*
X168052810Y-47824584D01*
X168085024Y-47851022D01*
X168124875Y-47890873D01*
X168124881Y-47890878D01*
X168523336Y-48289333D01*
X168523341Y-48289339D01*
X168563192Y-48329190D01*
X168589630Y-48361404D01*
X168606371Y-48392725D01*
X168616679Y-48426703D01*
X168620159Y-48462044D01*
X168616679Y-48497385D01*
X168606371Y-48531363D01*
X168589630Y-48562684D01*
X168563192Y-48594898D01*
X168523341Y-48634749D01*
X168523336Y-48634755D01*
X168177915Y-48980176D01*
X168177909Y-48980181D01*
X168138058Y-49020032D01*
X168105844Y-49046470D01*
X168074523Y-49063211D01*
X168040545Y-49073519D01*
X168005204Y-49076999D01*
X167969863Y-49073519D01*
X167935885Y-49063211D01*
X167904564Y-49046470D01*
X167872350Y-49020032D01*
X167832499Y-48980181D01*
X167832493Y-48980176D01*
X167434038Y-48581721D01*
X167434033Y-48581715D01*
X167394182Y-48541864D01*
X167367744Y-48509650D01*
X167351003Y-48478329D01*
X167340695Y-48444351D01*
X167337215Y-48409010D01*
X167340695Y-48373669D01*
X167351003Y-48339691D01*
X167367744Y-48308370D01*
X167394182Y-48276156D01*
X167434033Y-48236305D01*
X167434038Y-48236299D01*
X167779459Y-47890878D01*
X167779465Y-47890873D01*
X167819316Y-47851022D01*
X167851530Y-47824584D01*
X167882851Y-47807843D01*
X167916829Y-47797535D01*
X167952170Y-47794055D01*
X167987511Y-47797535D01*
X167987511Y-47797535D01*
G37*
G36*
X196253703Y-47169547D02*
G01*
X196410868Y-47234647D01*
X196552313Y-47329158D01*
X196672602Y-47449447D01*
X196767113Y-47590892D01*
X196832213Y-47748057D01*
X196865400Y-47914903D01*
X196865400Y-48085017D01*
X196832213Y-48251863D01*
X196767113Y-48409028D01*
X196672602Y-48550473D01*
X196552313Y-48670762D01*
X196410868Y-48765273D01*
X196253703Y-48830373D01*
X196086857Y-48863560D01*
X195916743Y-48863560D01*
X195749897Y-48830373D01*
X195592732Y-48765273D01*
X195451287Y-48670762D01*
X195330998Y-48550473D01*
X195236487Y-48409028D01*
X195171387Y-48251863D01*
X195138200Y-48085017D01*
X195138200Y-47914903D01*
X195171387Y-47748057D01*
X195236487Y-47590892D01*
X195330998Y-47449447D01*
X195451287Y-47329158D01*
X195592732Y-47234647D01*
X195749897Y-47169547D01*
X195916743Y-47136360D01*
X196086857Y-47136360D01*
X196253703Y-47169547D01*
X196253703Y-47169547D01*
G37*
G36*
X218250103Y-47169547D02*
G01*
X218407268Y-47234647D01*
X218548713Y-47329158D01*
X218669002Y-47449447D01*
X218763513Y-47590892D01*
X218828613Y-47748057D01*
X218861800Y-47914903D01*
X218861800Y-48085017D01*
X218828613Y-48251863D01*
X218763513Y-48409028D01*
X218669002Y-48550473D01*
X218548713Y-48670762D01*
X218407268Y-48765273D01*
X218250103Y-48830373D01*
X218083257Y-48863560D01*
X217913143Y-48863560D01*
X217746297Y-48830373D01*
X217589132Y-48765273D01*
X217447687Y-48670762D01*
X217327398Y-48550473D01*
X217232887Y-48409028D01*
X217167787Y-48251863D01*
X217134600Y-48085017D01*
X217134600Y-47914903D01*
X217167787Y-47748057D01*
X217232887Y-47590892D01*
X217327398Y-47449447D01*
X217447687Y-47329158D01*
X217589132Y-47234647D01*
X217746297Y-47169547D01*
X217913143Y-47136360D01*
X218083257Y-47136360D01*
X218250103Y-47169547D01*
X218250103Y-47169547D01*
G37*
G36*
X179554591Y-47478085D02*
G01*
X179588569Y-47488393D01*
X179619890Y-47505134D01*
X179647339Y-47527661D01*
X179669866Y-47555110D01*
X179686607Y-47586431D01*
X179696915Y-47620409D01*
X179701000Y-47661890D01*
X179701000Y-48338110D01*
X179696915Y-48379591D01*
X179686607Y-48413569D01*
X179669866Y-48444890D01*
X179647339Y-48472339D01*
X179619890Y-48494866D01*
X179588569Y-48511607D01*
X179554591Y-48521915D01*
X179513110Y-48526000D01*
X178911890Y-48526000D01*
X178870409Y-48521915D01*
X178836431Y-48511607D01*
X178805110Y-48494866D01*
X178777661Y-48472339D01*
X178755134Y-48444890D01*
X178738393Y-48413569D01*
X178728085Y-48379591D01*
X178724000Y-48338110D01*
X178724000Y-47661890D01*
X178728085Y-47620409D01*
X178738393Y-47586431D01*
X178755134Y-47555110D01*
X178777661Y-47527661D01*
X178805110Y-47505134D01*
X178836431Y-47488393D01*
X178870409Y-47478085D01*
X178911890Y-47474000D01*
X179513110Y-47474000D01*
X179554591Y-47478085D01*
X179554591Y-47478085D01*
G37*
G36*
X181129591Y-47478085D02*
G01*
X181163569Y-47488393D01*
X181194890Y-47505134D01*
X181222339Y-47527661D01*
X181244866Y-47555110D01*
X181261607Y-47586431D01*
X181271915Y-47620409D01*
X181276000Y-47661890D01*
X181276000Y-48338110D01*
X181271915Y-48379591D01*
X181261607Y-48413569D01*
X181244866Y-48444890D01*
X181222339Y-48472339D01*
X181194890Y-48494866D01*
X181163569Y-48511607D01*
X181129591Y-48521915D01*
X181088110Y-48526000D01*
X180486890Y-48526000D01*
X180445409Y-48521915D01*
X180411431Y-48511607D01*
X180380110Y-48494866D01*
X180352661Y-48472339D01*
X180330134Y-48444890D01*
X180313393Y-48413569D01*
X180303085Y-48379591D01*
X180299000Y-48338110D01*
X180299000Y-47661890D01*
X180303085Y-47620409D01*
X180313393Y-47586431D01*
X180330134Y-47555110D01*
X180352661Y-47527661D01*
X180380110Y-47505134D01*
X180411431Y-47488393D01*
X180445409Y-47478085D01*
X180486890Y-47474000D01*
X181088110Y-47474000D01*
X181129591Y-47478085D01*
X181129591Y-47478085D01*
G37*
G36*
X162790278Y-47090428D02*
G01*
X162824256Y-47100736D01*
X162855577Y-47117477D01*
X162887791Y-47143915D01*
X162927642Y-47183766D01*
X162927648Y-47183771D01*
X163273069Y-47529192D01*
X163273074Y-47529198D01*
X163312925Y-47569049D01*
X163339363Y-47601263D01*
X163356104Y-47632584D01*
X163366412Y-47666562D01*
X163369892Y-47701903D01*
X163366412Y-47737244D01*
X163356104Y-47771222D01*
X163339363Y-47802543D01*
X163312925Y-47834757D01*
X163273074Y-47874608D01*
X163273069Y-47874614D01*
X162874614Y-48273069D01*
X162874608Y-48273074D01*
X162834757Y-48312925D01*
X162802543Y-48339363D01*
X162771222Y-48356104D01*
X162737244Y-48366412D01*
X162701903Y-48369892D01*
X162666562Y-48366412D01*
X162632584Y-48356104D01*
X162601263Y-48339363D01*
X162569049Y-48312925D01*
X162529198Y-48273074D01*
X162529192Y-48273069D01*
X162183771Y-47927648D01*
X162183766Y-47927642D01*
X162143915Y-47887791D01*
X162117477Y-47855577D01*
X162100736Y-47824256D01*
X162090428Y-47790278D01*
X162086948Y-47754937D01*
X162090428Y-47719596D01*
X162100736Y-47685618D01*
X162117477Y-47654297D01*
X162143915Y-47622083D01*
X162183766Y-47582232D01*
X162183771Y-47582226D01*
X162582226Y-47183771D01*
X162582232Y-47183766D01*
X162622083Y-47143915D01*
X162654297Y-47117477D01*
X162685618Y-47100736D01*
X162719596Y-47090428D01*
X162754937Y-47086948D01*
X162790278Y-47090428D01*
X162790278Y-47090428D01*
G37*
G36*
X169101205Y-46683841D02*
G01*
X169135183Y-46694149D01*
X169166504Y-46710890D01*
X169198718Y-46737328D01*
X169238569Y-46777179D01*
X169238575Y-46777184D01*
X169637030Y-47175639D01*
X169637035Y-47175645D01*
X169676886Y-47215496D01*
X169703324Y-47247710D01*
X169720065Y-47279031D01*
X169730373Y-47313009D01*
X169733853Y-47348350D01*
X169730373Y-47383691D01*
X169720065Y-47417669D01*
X169703324Y-47448990D01*
X169676886Y-47481204D01*
X169637035Y-47521055D01*
X169637030Y-47521061D01*
X169291609Y-47866482D01*
X169291603Y-47866487D01*
X169251752Y-47906338D01*
X169219538Y-47932776D01*
X169188217Y-47949517D01*
X169154239Y-47959825D01*
X169118898Y-47963305D01*
X169083557Y-47959825D01*
X169049579Y-47949517D01*
X169018258Y-47932776D01*
X168986044Y-47906338D01*
X168946193Y-47866487D01*
X168946187Y-47866482D01*
X168547732Y-47468027D01*
X168547727Y-47468021D01*
X168507876Y-47428170D01*
X168481438Y-47395956D01*
X168464697Y-47364635D01*
X168454389Y-47330657D01*
X168450909Y-47295316D01*
X168454389Y-47259975D01*
X168464697Y-47225997D01*
X168481438Y-47194676D01*
X168507876Y-47162462D01*
X168547727Y-47122611D01*
X168547732Y-47122605D01*
X168893153Y-46777184D01*
X168893159Y-46777179D01*
X168933010Y-46737328D01*
X168965224Y-46710890D01*
X168996545Y-46694149D01*
X169030523Y-46683841D01*
X169065864Y-46680361D01*
X169101205Y-46683841D01*
X169101205Y-46683841D01*
G37*
G36*
X166573297Y-46383320D02*
G01*
X166607275Y-46393628D01*
X166638596Y-46410369D01*
X166670810Y-46436807D01*
X166710661Y-46476658D01*
X166710667Y-46476663D01*
X167109122Y-46875118D01*
X167109127Y-46875124D01*
X167148978Y-46914975D01*
X167175416Y-46947189D01*
X167192157Y-46978510D01*
X167202465Y-47012488D01*
X167205945Y-47047829D01*
X167202465Y-47083170D01*
X167192157Y-47117148D01*
X167175416Y-47148469D01*
X167148978Y-47180683D01*
X167109127Y-47220534D01*
X167109122Y-47220540D01*
X166763701Y-47565961D01*
X166763695Y-47565966D01*
X166723844Y-47605817D01*
X166691630Y-47632255D01*
X166660309Y-47648996D01*
X166626331Y-47659304D01*
X166590990Y-47662784D01*
X166555649Y-47659304D01*
X166521671Y-47648996D01*
X166490350Y-47632255D01*
X166458136Y-47605817D01*
X166418285Y-47565966D01*
X166418279Y-47565961D01*
X166019824Y-47167506D01*
X166019819Y-47167500D01*
X165979968Y-47127649D01*
X165953530Y-47095435D01*
X165936789Y-47064114D01*
X165926481Y-47030136D01*
X165923001Y-46994795D01*
X165926481Y-46959454D01*
X165936789Y-46925476D01*
X165953530Y-46894155D01*
X165979968Y-46861941D01*
X166019819Y-46822090D01*
X166019824Y-46822084D01*
X166365245Y-46476663D01*
X166365251Y-46476658D01*
X166405102Y-46436807D01*
X166437316Y-46410369D01*
X166468637Y-46393628D01*
X166502615Y-46383320D01*
X166537956Y-46379840D01*
X166573297Y-46383320D01*
X166573297Y-46383320D01*
G37*
G36*
X161676584Y-45976734D02*
G01*
X161710562Y-45987042D01*
X161741883Y-46003783D01*
X161774097Y-46030221D01*
X161813948Y-46070072D01*
X161813954Y-46070077D01*
X162159375Y-46415498D01*
X162159380Y-46415504D01*
X162199231Y-46455355D01*
X162225669Y-46487569D01*
X162242410Y-46518890D01*
X162252718Y-46552868D01*
X162256198Y-46588209D01*
X162252718Y-46623550D01*
X162242410Y-46657528D01*
X162225669Y-46688849D01*
X162199231Y-46721063D01*
X162159380Y-46760914D01*
X162159375Y-46760920D01*
X161760920Y-47159375D01*
X161760914Y-47159380D01*
X161721063Y-47199231D01*
X161688849Y-47225669D01*
X161657528Y-47242410D01*
X161623550Y-47252718D01*
X161588209Y-47256198D01*
X161552868Y-47252718D01*
X161518890Y-47242410D01*
X161487569Y-47225669D01*
X161455355Y-47199231D01*
X161415504Y-47159380D01*
X161415498Y-47159375D01*
X161070077Y-46813954D01*
X161070072Y-46813948D01*
X161030221Y-46774097D01*
X161003783Y-46741883D01*
X160987042Y-46710562D01*
X160976734Y-46676584D01*
X160973254Y-46641243D01*
X160976734Y-46605902D01*
X160987042Y-46571924D01*
X161003783Y-46540603D01*
X161030221Y-46508389D01*
X161070072Y-46468538D01*
X161070077Y-46468532D01*
X161468532Y-46070077D01*
X161468538Y-46070072D01*
X161508389Y-46030221D01*
X161540603Y-46003783D01*
X161571924Y-45987042D01*
X161605902Y-45976734D01*
X161641243Y-45973254D01*
X161676584Y-45976734D01*
X161676584Y-45976734D01*
G37*
G36*
X218250103Y-45168027D02*
G01*
X218407268Y-45233127D01*
X218548713Y-45327638D01*
X218669002Y-45447927D01*
X218763513Y-45589372D01*
X218828613Y-45746537D01*
X218861800Y-45913383D01*
X218861800Y-46083497D01*
X218828613Y-46250343D01*
X218763513Y-46407508D01*
X218669002Y-46548953D01*
X218548713Y-46669242D01*
X218407268Y-46763753D01*
X218250103Y-46828853D01*
X218083257Y-46862040D01*
X217913143Y-46862040D01*
X217746297Y-46828853D01*
X217589132Y-46763753D01*
X217447687Y-46669242D01*
X217327398Y-46548953D01*
X217232887Y-46407508D01*
X217167787Y-46250343D01*
X217134600Y-46083497D01*
X217134600Y-45913383D01*
X217167787Y-45746537D01*
X217232887Y-45589372D01*
X217327398Y-45447927D01*
X217447687Y-45327638D01*
X217589132Y-45233127D01*
X217746297Y-45168027D01*
X217913143Y-45134840D01*
X218083257Y-45134840D01*
X218250103Y-45168027D01*
X218250103Y-45168027D01*
G37*
G36*
X196253703Y-45168027D02*
G01*
X196410868Y-45233127D01*
X196552313Y-45327638D01*
X196672602Y-45447927D01*
X196767113Y-45589372D01*
X196832213Y-45746537D01*
X196865400Y-45913383D01*
X196865400Y-46083497D01*
X196832213Y-46250343D01*
X196767113Y-46407508D01*
X196672602Y-46548953D01*
X196552313Y-46669242D01*
X196410868Y-46763753D01*
X196253703Y-46828853D01*
X196086857Y-46862040D01*
X195916743Y-46862040D01*
X195749897Y-46828853D01*
X195592732Y-46763753D01*
X195451287Y-46669242D01*
X195330998Y-46548953D01*
X195236487Y-46407508D01*
X195171387Y-46250343D01*
X195138200Y-46083497D01*
X195138200Y-45913383D01*
X195171387Y-45746537D01*
X195236487Y-45589372D01*
X195330998Y-45447927D01*
X195451287Y-45327638D01*
X195592732Y-45233127D01*
X195749897Y-45168027D01*
X195916743Y-45134840D01*
X196086857Y-45134840D01*
X196253703Y-45168027D01*
X196253703Y-45168027D01*
G37*
G36*
X241309468Y-45253565D02*
G01*
X241348138Y-45265296D01*
X241383777Y-45284346D01*
X241415017Y-45309983D01*
X241440654Y-45341223D01*
X241459704Y-45376862D01*
X241471435Y-45415532D01*
X241476000Y-45461888D01*
X241476000Y-46538112D01*
X241471435Y-46584468D01*
X241459704Y-46623138D01*
X241440654Y-46658777D01*
X241415017Y-46690017D01*
X241383777Y-46715654D01*
X241348138Y-46734704D01*
X241309468Y-46746435D01*
X241263112Y-46751000D01*
X240611888Y-46751000D01*
X240565532Y-46746435D01*
X240526862Y-46734704D01*
X240491223Y-46715654D01*
X240459983Y-46690017D01*
X240434346Y-46658777D01*
X240415296Y-46623138D01*
X240403565Y-46584468D01*
X240399000Y-46538112D01*
X240399000Y-45461888D01*
X240403565Y-45415532D01*
X240415296Y-45376862D01*
X240434346Y-45341223D01*
X240459983Y-45309983D01*
X240491223Y-45284346D01*
X240526862Y-45265296D01*
X240565532Y-45253565D01*
X240611888Y-45249000D01*
X241263112Y-45249000D01*
X241309468Y-45253565D01*
X241309468Y-45253565D01*
G37*
G36*
X239434468Y-45253565D02*
G01*
X239473138Y-45265296D01*
X239508777Y-45284346D01*
X239540017Y-45309983D01*
X239565654Y-45341223D01*
X239584704Y-45376862D01*
X239596435Y-45415532D01*
X239601000Y-45461888D01*
X239601000Y-46538112D01*
X239596435Y-46584468D01*
X239584704Y-46623138D01*
X239565654Y-46658777D01*
X239540017Y-46690017D01*
X239508777Y-46715654D01*
X239473138Y-46734704D01*
X239434468Y-46746435D01*
X239388112Y-46751000D01*
X238736888Y-46751000D01*
X238690532Y-46746435D01*
X238651862Y-46734704D01*
X238616223Y-46715654D01*
X238584983Y-46690017D01*
X238559346Y-46658777D01*
X238540296Y-46623138D01*
X238528565Y-46584468D01*
X238524000Y-46538112D01*
X238524000Y-45461888D01*
X238528565Y-45415532D01*
X238540296Y-45376862D01*
X238559346Y-45341223D01*
X238584983Y-45309983D01*
X238616223Y-45284346D01*
X238651862Y-45265296D01*
X238690532Y-45253565D01*
X238736888Y-45249000D01*
X239388112Y-45249000D01*
X239434468Y-45253565D01*
X239434468Y-45253565D01*
G37*
G36*
X167686991Y-45269626D02*
G01*
X167720969Y-45279934D01*
X167752290Y-45296675D01*
X167784504Y-45323113D01*
X167824355Y-45362964D01*
X167824361Y-45362969D01*
X168222816Y-45761424D01*
X168222821Y-45761430D01*
X168262672Y-45801281D01*
X168289110Y-45833495D01*
X168305851Y-45864816D01*
X168316159Y-45898794D01*
X168319639Y-45934135D01*
X168316159Y-45969476D01*
X168305851Y-46003454D01*
X168289110Y-46034775D01*
X168262672Y-46066989D01*
X168222821Y-46106840D01*
X168222816Y-46106846D01*
X167877395Y-46452267D01*
X167877389Y-46452272D01*
X167837538Y-46492123D01*
X167805324Y-46518561D01*
X167774003Y-46535302D01*
X167740025Y-46545610D01*
X167704684Y-46549090D01*
X167669343Y-46545610D01*
X167635365Y-46535302D01*
X167604044Y-46518561D01*
X167571830Y-46492123D01*
X167531979Y-46452272D01*
X167531973Y-46452267D01*
X167133518Y-46053812D01*
X167133513Y-46053806D01*
X167093662Y-46013955D01*
X167067224Y-45981741D01*
X167050483Y-45950420D01*
X167040175Y-45916442D01*
X167036695Y-45881101D01*
X167040175Y-45845760D01*
X167050483Y-45811782D01*
X167067224Y-45780461D01*
X167093662Y-45748247D01*
X167133513Y-45708396D01*
X167133518Y-45708390D01*
X167478939Y-45362969D01*
X167478945Y-45362964D01*
X167518796Y-45323113D01*
X167551010Y-45296675D01*
X167582331Y-45279934D01*
X167616309Y-45269626D01*
X167651650Y-45266146D01*
X167686991Y-45269626D01*
X167686991Y-45269626D01*
G37*
G36*
X235554591Y-45478085D02*
G01*
X235588569Y-45488393D01*
X235619890Y-45505134D01*
X235647339Y-45527661D01*
X235669866Y-45555110D01*
X235686607Y-45586431D01*
X235696915Y-45620409D01*
X235701000Y-45661890D01*
X235701000Y-46338110D01*
X235696915Y-46379591D01*
X235686607Y-46413569D01*
X235669866Y-46444890D01*
X235647339Y-46472339D01*
X235619890Y-46494866D01*
X235588569Y-46511607D01*
X235554591Y-46521915D01*
X235513110Y-46526000D01*
X234911890Y-46526000D01*
X234870409Y-46521915D01*
X234836431Y-46511607D01*
X234805110Y-46494866D01*
X234777661Y-46472339D01*
X234755134Y-46444890D01*
X234738393Y-46413569D01*
X234728085Y-46379591D01*
X234724000Y-46338110D01*
X234724000Y-45661890D01*
X234728085Y-45620409D01*
X234738393Y-45586431D01*
X234755134Y-45555110D01*
X234777661Y-45527661D01*
X234805110Y-45505134D01*
X234836431Y-45488393D01*
X234870409Y-45478085D01*
X234911890Y-45474000D01*
X235513110Y-45474000D01*
X235554591Y-45478085D01*
X235554591Y-45478085D01*
G37*
G36*
X149554591Y-45478085D02*
G01*
X149588569Y-45488393D01*
X149619890Y-45505134D01*
X149647339Y-45527661D01*
X149669866Y-45555110D01*
X149686607Y-45586431D01*
X149696915Y-45620409D01*
X149701000Y-45661890D01*
X149701000Y-46338110D01*
X149696915Y-46379591D01*
X149686607Y-46413569D01*
X149669866Y-46444890D01*
X149647339Y-46472339D01*
X149619890Y-46494866D01*
X149588569Y-46511607D01*
X149554591Y-46521915D01*
X149513110Y-46526000D01*
X148911890Y-46526000D01*
X148870409Y-46521915D01*
X148836431Y-46511607D01*
X148805110Y-46494866D01*
X148777661Y-46472339D01*
X148755134Y-46444890D01*
X148738393Y-46413569D01*
X148728085Y-46379591D01*
X148724000Y-46338110D01*
X148724000Y-45661890D01*
X148728085Y-45620409D01*
X148738393Y-45586431D01*
X148755134Y-45555110D01*
X148777661Y-45527661D01*
X148805110Y-45505134D01*
X148836431Y-45488393D01*
X148870409Y-45478085D01*
X148911890Y-45474000D01*
X149513110Y-45474000D01*
X149554591Y-45478085D01*
X149554591Y-45478085D01*
G37*
G36*
X151129591Y-45478085D02*
G01*
X151163569Y-45488393D01*
X151194890Y-45505134D01*
X151222339Y-45527661D01*
X151244866Y-45555110D01*
X151261607Y-45586431D01*
X151271915Y-45620409D01*
X151276000Y-45661890D01*
X151276000Y-46338110D01*
X151271915Y-46379591D01*
X151261607Y-46413569D01*
X151244866Y-46444890D01*
X151222339Y-46472339D01*
X151194890Y-46494866D01*
X151163569Y-46511607D01*
X151129591Y-46521915D01*
X151088110Y-46526000D01*
X150486890Y-46526000D01*
X150445409Y-46521915D01*
X150411431Y-46511607D01*
X150380110Y-46494866D01*
X150352661Y-46472339D01*
X150330134Y-46444890D01*
X150313393Y-46413569D01*
X150303085Y-46379591D01*
X150299000Y-46338110D01*
X150299000Y-45661890D01*
X150303085Y-45620409D01*
X150313393Y-45586431D01*
X150330134Y-45555110D01*
X150352661Y-45527661D01*
X150380110Y-45505134D01*
X150411431Y-45488393D01*
X150445409Y-45478085D01*
X150486890Y-45474000D01*
X151088110Y-45474000D01*
X151129591Y-45478085D01*
X151129591Y-45478085D01*
G37*
G36*
X237129591Y-45478085D02*
G01*
X237163569Y-45488393D01*
X237194890Y-45505134D01*
X237222339Y-45527661D01*
X237244866Y-45555110D01*
X237261607Y-45586431D01*
X237271915Y-45620409D01*
X237276000Y-45661890D01*
X237276000Y-46338110D01*
X237271915Y-46379591D01*
X237261607Y-46413569D01*
X237244866Y-46444890D01*
X237222339Y-46472339D01*
X237194890Y-46494866D01*
X237163569Y-46511607D01*
X237129591Y-46521915D01*
X237088110Y-46526000D01*
X236486890Y-46526000D01*
X236445409Y-46521915D01*
X236411431Y-46511607D01*
X236380110Y-46494866D01*
X236352661Y-46472339D01*
X236330134Y-46444890D01*
X236313393Y-46413569D01*
X236303085Y-46379591D01*
X236299000Y-46338110D01*
X236299000Y-45661890D01*
X236303085Y-45620409D01*
X236313393Y-45586431D01*
X236330134Y-45555110D01*
X236352661Y-45527661D01*
X236380110Y-45505134D01*
X236411431Y-45488393D01*
X236445409Y-45478085D01*
X236486890Y-45474000D01*
X237088110Y-45474000D01*
X237129591Y-45478085D01*
X237129591Y-45478085D01*
G37*
G36*
X243554591Y-45478085D02*
G01*
X243588569Y-45488393D01*
X243619890Y-45505134D01*
X243647339Y-45527661D01*
X243669866Y-45555110D01*
X243686607Y-45586431D01*
X243696915Y-45620409D01*
X243701000Y-45661890D01*
X243701000Y-46338110D01*
X243696915Y-46379591D01*
X243686607Y-46413569D01*
X243669866Y-46444890D01*
X243647339Y-46472339D01*
X243619890Y-46494866D01*
X243588569Y-46511607D01*
X243554591Y-46521915D01*
X243513110Y-46526000D01*
X242911890Y-46526000D01*
X242870409Y-46521915D01*
X242836431Y-46511607D01*
X242805110Y-46494866D01*
X242777661Y-46472339D01*
X242755134Y-46444890D01*
X242738393Y-46413569D01*
X242728085Y-46379591D01*
X242724000Y-46338110D01*
X242724000Y-45661890D01*
X242728085Y-45620409D01*
X242738393Y-45586431D01*
X242755134Y-45555110D01*
X242777661Y-45527661D01*
X242805110Y-45505134D01*
X242836431Y-45488393D01*
X242870409Y-45478085D01*
X242911890Y-45474000D01*
X243513110Y-45474000D01*
X243554591Y-45478085D01*
X243554591Y-45478085D01*
G37*
G36*
X245129591Y-45478085D02*
G01*
X245163569Y-45488393D01*
X245194890Y-45505134D01*
X245222339Y-45527661D01*
X245244866Y-45555110D01*
X245261607Y-45586431D01*
X245271915Y-45620409D01*
X245276000Y-45661890D01*
X245276000Y-46338110D01*
X245271915Y-46379591D01*
X245261607Y-46413569D01*
X245244866Y-46444890D01*
X245222339Y-46472339D01*
X245194890Y-46494866D01*
X245163569Y-46511607D01*
X245129591Y-46521915D01*
X245088110Y-46526000D01*
X244486890Y-46526000D01*
X244445409Y-46521915D01*
X244411431Y-46511607D01*
X244380110Y-46494866D01*
X244352661Y-46472339D01*
X244330134Y-46444890D01*
X244313393Y-46413569D01*
X244303085Y-46379591D01*
X244299000Y-46338110D01*
X244299000Y-45661890D01*
X244303085Y-45620409D01*
X244313393Y-45586431D01*
X244330134Y-45555110D01*
X244352661Y-45527661D01*
X244380110Y-45505134D01*
X244411431Y-45488393D01*
X244445409Y-45478085D01*
X244486890Y-45474000D01*
X245088110Y-45474000D01*
X245129591Y-45478085D01*
X245129591Y-45478085D01*
G37*
G36*
X165159084Y-44969108D02*
G01*
X165193062Y-44979416D01*
X165224383Y-44996157D01*
X165256597Y-45022595D01*
X165296448Y-45062446D01*
X165296454Y-45062451D01*
X165694909Y-45460906D01*
X165694914Y-45460912D01*
X165734765Y-45500763D01*
X165761203Y-45532977D01*
X165777944Y-45564298D01*
X165788252Y-45598276D01*
X165791732Y-45633617D01*
X165788252Y-45668958D01*
X165777944Y-45702936D01*
X165761203Y-45734257D01*
X165734765Y-45766471D01*
X165694914Y-45806322D01*
X165694909Y-45806328D01*
X165349488Y-46151749D01*
X165349482Y-46151754D01*
X165309631Y-46191605D01*
X165277417Y-46218043D01*
X165246096Y-46234784D01*
X165212118Y-46245092D01*
X165176777Y-46248572D01*
X165141436Y-46245092D01*
X165107458Y-46234784D01*
X165076137Y-46218043D01*
X165043923Y-46191605D01*
X165004072Y-46151754D01*
X165004066Y-46151749D01*
X164605611Y-45753294D01*
X164605606Y-45753288D01*
X164565755Y-45713437D01*
X164539317Y-45681223D01*
X164522576Y-45649902D01*
X164512268Y-45615924D01*
X164508788Y-45580583D01*
X164512268Y-45545242D01*
X164522576Y-45511264D01*
X164539317Y-45479943D01*
X164565755Y-45447729D01*
X164605606Y-45407878D01*
X164605611Y-45407872D01*
X164951032Y-45062451D01*
X164951038Y-45062446D01*
X164990889Y-45022595D01*
X165023103Y-44996157D01*
X165054424Y-44979416D01*
X165088402Y-44969108D01*
X165123743Y-44965628D01*
X165159084Y-44969108D01*
X165159084Y-44969108D01*
G37*
G36*
X248379591Y-44303085D02*
G01*
X248413569Y-44313393D01*
X248444890Y-44330134D01*
X248472339Y-44352661D01*
X248494866Y-44380110D01*
X248511607Y-44411431D01*
X248521915Y-44445409D01*
X248526000Y-44486890D01*
X248526000Y-45088110D01*
X248521915Y-45129591D01*
X248511607Y-45163569D01*
X248494866Y-45194890D01*
X248472339Y-45222339D01*
X248444890Y-45244866D01*
X248413569Y-45261607D01*
X248379591Y-45271915D01*
X248338110Y-45276000D01*
X247661890Y-45276000D01*
X247620409Y-45271915D01*
X247586431Y-45261607D01*
X247555110Y-45244866D01*
X247527661Y-45222339D01*
X247505134Y-45194890D01*
X247488393Y-45163569D01*
X247478085Y-45129591D01*
X247474000Y-45088110D01*
X247474000Y-44486890D01*
X247478085Y-44445409D01*
X247488393Y-44411431D01*
X247505134Y-44380110D01*
X247527661Y-44352661D01*
X247555110Y-44330134D01*
X247586431Y-44313393D01*
X247620409Y-44303085D01*
X247661890Y-44299000D01*
X248338110Y-44299000D01*
X248379591Y-44303085D01*
X248379591Y-44303085D01*
G37*
G36*
X166272778Y-43855414D02*
G01*
X166306756Y-43865722D01*
X166338077Y-43882463D01*
X166370291Y-43908901D01*
X166410142Y-43948752D01*
X166410148Y-43948757D01*
X166808603Y-44347212D01*
X166808608Y-44347218D01*
X166848459Y-44387069D01*
X166874897Y-44419283D01*
X166891638Y-44450604D01*
X166901946Y-44484582D01*
X166905426Y-44519923D01*
X166901946Y-44555264D01*
X166891638Y-44589242D01*
X166874897Y-44620563D01*
X166848459Y-44652777D01*
X166808608Y-44692628D01*
X166808603Y-44692634D01*
X166463182Y-45038055D01*
X166463176Y-45038060D01*
X166423325Y-45077911D01*
X166391111Y-45104349D01*
X166359790Y-45121090D01*
X166325812Y-45131398D01*
X166290471Y-45134878D01*
X166255130Y-45131398D01*
X166221152Y-45121090D01*
X166189831Y-45104349D01*
X166157617Y-45077911D01*
X166117766Y-45038060D01*
X166117760Y-45038055D01*
X165719305Y-44639600D01*
X165719300Y-44639594D01*
X165679449Y-44599743D01*
X165653011Y-44567529D01*
X165636270Y-44536208D01*
X165625962Y-44502230D01*
X165622482Y-44466889D01*
X165625962Y-44431548D01*
X165636270Y-44397570D01*
X165653011Y-44366249D01*
X165679449Y-44334035D01*
X165719300Y-44294184D01*
X165719305Y-44294178D01*
X166064726Y-43948757D01*
X166064732Y-43948752D01*
X166104583Y-43908901D01*
X166136797Y-43882463D01*
X166168118Y-43865722D01*
X166202096Y-43855414D01*
X166237437Y-43851934D01*
X166272778Y-43855414D01*
X166272778Y-43855414D01*
G37*
G36*
X218250103Y-43169047D02*
G01*
X218407268Y-43234147D01*
X218548713Y-43328658D01*
X218669002Y-43448947D01*
X218763513Y-43590392D01*
X218828613Y-43747557D01*
X218861800Y-43914403D01*
X218861800Y-44084517D01*
X218828613Y-44251363D01*
X218763513Y-44408528D01*
X218669002Y-44549973D01*
X218548713Y-44670262D01*
X218407268Y-44764773D01*
X218250103Y-44829873D01*
X218083257Y-44863060D01*
X217913143Y-44863060D01*
X217746297Y-44829873D01*
X217589132Y-44764773D01*
X217447687Y-44670262D01*
X217327398Y-44549973D01*
X217232887Y-44408528D01*
X217167787Y-44251363D01*
X217134600Y-44084517D01*
X217134600Y-43914403D01*
X217167787Y-43747557D01*
X217232887Y-43590392D01*
X217327398Y-43448947D01*
X217447687Y-43328658D01*
X217589132Y-43234147D01*
X217746297Y-43169047D01*
X217913143Y-43135860D01*
X218083257Y-43135860D01*
X218250103Y-43169047D01*
X218250103Y-43169047D01*
G37*
G36*
X196253703Y-43169047D02*
G01*
X196410868Y-43234147D01*
X196552313Y-43328658D01*
X196672602Y-43448947D01*
X196767113Y-43590392D01*
X196832213Y-43747557D01*
X196865400Y-43914403D01*
X196865400Y-44084517D01*
X196832213Y-44251363D01*
X196767113Y-44408528D01*
X196672602Y-44549973D01*
X196552313Y-44670262D01*
X196410868Y-44764773D01*
X196253703Y-44829873D01*
X196086857Y-44863060D01*
X195916743Y-44863060D01*
X195749897Y-44829873D01*
X195592732Y-44764773D01*
X195451287Y-44670262D01*
X195330998Y-44549973D01*
X195236487Y-44408528D01*
X195171387Y-44251363D01*
X195138200Y-44084517D01*
X195138200Y-43914403D01*
X195171387Y-43747557D01*
X195236487Y-43590392D01*
X195330998Y-43448947D01*
X195451287Y-43328658D01*
X195592732Y-43234147D01*
X195749897Y-43169047D01*
X195916743Y-43135860D01*
X196086857Y-43135860D01*
X196253703Y-43169047D01*
X196253703Y-43169047D01*
G37*
G36*
X151129591Y-43478085D02*
G01*
X151163569Y-43488393D01*
X151194890Y-43505134D01*
X151222339Y-43527661D01*
X151244866Y-43555110D01*
X151261607Y-43586431D01*
X151271915Y-43620409D01*
X151276000Y-43661890D01*
X151276000Y-44338110D01*
X151271915Y-44379591D01*
X151261607Y-44413569D01*
X151244866Y-44444890D01*
X151222339Y-44472339D01*
X151194890Y-44494866D01*
X151163569Y-44511607D01*
X151129591Y-44521915D01*
X151088110Y-44526000D01*
X150486890Y-44526000D01*
X150445409Y-44521915D01*
X150411431Y-44511607D01*
X150380110Y-44494866D01*
X150352661Y-44472339D01*
X150330134Y-44444890D01*
X150313393Y-44413569D01*
X150303085Y-44379591D01*
X150299000Y-44338110D01*
X150299000Y-43661890D01*
X150303085Y-43620409D01*
X150313393Y-43586431D01*
X150330134Y-43555110D01*
X150352661Y-43527661D01*
X150380110Y-43505134D01*
X150411431Y-43488393D01*
X150445409Y-43478085D01*
X150486890Y-43474000D01*
X151088110Y-43474000D01*
X151129591Y-43478085D01*
X151129591Y-43478085D01*
G37*
G36*
X149554591Y-43478085D02*
G01*
X149588569Y-43488393D01*
X149619890Y-43505134D01*
X149647339Y-43527661D01*
X149669866Y-43555110D01*
X149686607Y-43586431D01*
X149696915Y-43620409D01*
X149701000Y-43661890D01*
X149701000Y-44338110D01*
X149696915Y-44379591D01*
X149686607Y-44413569D01*
X149669866Y-44444890D01*
X149647339Y-44472339D01*
X149619890Y-44494866D01*
X149588569Y-44511607D01*
X149554591Y-44521915D01*
X149513110Y-44526000D01*
X148911890Y-44526000D01*
X148870409Y-44521915D01*
X148836431Y-44511607D01*
X148805110Y-44494866D01*
X148777661Y-44472339D01*
X148755134Y-44444890D01*
X148738393Y-44413569D01*
X148728085Y-44379591D01*
X148724000Y-44338110D01*
X148724000Y-43661890D01*
X148728085Y-43620409D01*
X148738393Y-43586431D01*
X148755134Y-43555110D01*
X148777661Y-43527661D01*
X148805110Y-43505134D01*
X148836431Y-43488393D01*
X148870409Y-43478085D01*
X148911890Y-43474000D01*
X149513110Y-43474000D01*
X149554591Y-43478085D01*
X149554591Y-43478085D01*
G37*
G36*
X245451000Y-43796000D02*
G01*
X243849000Y-43796000D01*
X243849000Y-43094000D01*
X245451000Y-43094000D01*
X245451000Y-43796000D01*
X245451000Y-43796000D01*
G37*
G36*
X236151000Y-43796000D02*
G01*
X234549000Y-43796000D01*
X234549000Y-43094000D01*
X236151000Y-43094000D01*
X236151000Y-43796000D01*
X236151000Y-43796000D01*
G37*
G36*
X248379591Y-42728085D02*
G01*
X248413569Y-42738393D01*
X248444890Y-42755134D01*
X248472339Y-42777661D01*
X248494866Y-42805110D01*
X248511607Y-42836431D01*
X248521915Y-42870409D01*
X248526000Y-42911890D01*
X248526000Y-43513110D01*
X248521915Y-43554591D01*
X248511607Y-43588569D01*
X248494866Y-43619890D01*
X248472339Y-43647339D01*
X248444890Y-43669866D01*
X248413569Y-43686607D01*
X248379591Y-43696915D01*
X248338110Y-43701000D01*
X247661890Y-43701000D01*
X247620409Y-43696915D01*
X247586431Y-43686607D01*
X247555110Y-43669866D01*
X247527661Y-43647339D01*
X247505134Y-43619890D01*
X247488393Y-43588569D01*
X247478085Y-43554591D01*
X247474000Y-43513110D01*
X247474000Y-42911890D01*
X247478085Y-42870409D01*
X247488393Y-42836431D01*
X247505134Y-42805110D01*
X247527661Y-42777661D01*
X247555110Y-42755134D01*
X247586431Y-42738393D01*
X247620409Y-42728085D01*
X247661890Y-42724000D01*
X248338110Y-42724000D01*
X248379591Y-42728085D01*
X248379591Y-42728085D01*
G37*
G36*
X196253703Y-41167527D02*
G01*
X196410868Y-41232627D01*
X196552313Y-41327138D01*
X196672602Y-41447427D01*
X196767113Y-41588872D01*
X196832213Y-41746037D01*
X196865400Y-41912883D01*
X196865400Y-42082997D01*
X196832213Y-42249843D01*
X196767113Y-42407008D01*
X196672602Y-42548453D01*
X196552313Y-42668742D01*
X196410868Y-42763253D01*
X196253703Y-42828353D01*
X196086857Y-42861540D01*
X195916743Y-42861540D01*
X195749897Y-42828353D01*
X195592732Y-42763253D01*
X195451287Y-42668742D01*
X195330998Y-42548453D01*
X195236487Y-42407008D01*
X195171387Y-42249843D01*
X195138200Y-42082997D01*
X195138200Y-41912883D01*
X195171387Y-41746037D01*
X195236487Y-41588872D01*
X195330998Y-41447427D01*
X195451287Y-41327138D01*
X195592732Y-41232627D01*
X195749897Y-41167527D01*
X195916743Y-41134340D01*
X196086857Y-41134340D01*
X196253703Y-41167527D01*
X196253703Y-41167527D01*
G37*
G36*
X218250103Y-41167527D02*
G01*
X218407268Y-41232627D01*
X218548713Y-41327138D01*
X218669002Y-41447427D01*
X218763513Y-41588872D01*
X218828613Y-41746037D01*
X218861800Y-41912883D01*
X218861800Y-42082997D01*
X218828613Y-42249843D01*
X218763513Y-42407008D01*
X218669002Y-42548453D01*
X218548713Y-42668742D01*
X218407268Y-42763253D01*
X218250103Y-42828353D01*
X218083257Y-42861540D01*
X217913143Y-42861540D01*
X217746297Y-42828353D01*
X217589132Y-42763253D01*
X217447687Y-42668742D01*
X217327398Y-42548453D01*
X217232887Y-42407008D01*
X217167787Y-42249843D01*
X217134600Y-42082997D01*
X217134600Y-41912883D01*
X217167787Y-41746037D01*
X217232887Y-41588872D01*
X217327398Y-41447427D01*
X217447687Y-41327138D01*
X217589132Y-41232627D01*
X217746297Y-41167527D01*
X217913143Y-41134340D01*
X218083257Y-41134340D01*
X218250103Y-41167527D01*
X218250103Y-41167527D01*
G37*
G36*
X236151000Y-42526000D02*
G01*
X234549000Y-42526000D01*
X234549000Y-41824000D01*
X236151000Y-41824000D01*
X236151000Y-42526000D01*
X236151000Y-42526000D01*
G37*
G36*
X245451000Y-42526000D02*
G01*
X243849000Y-42526000D01*
X243849000Y-41824000D01*
X245451000Y-41824000D01*
X245451000Y-42526000D01*
X245451000Y-42526000D01*
G37*
G36*
X151129591Y-40478085D02*
G01*
X151163569Y-40488393D01*
X151194890Y-40505134D01*
X151222339Y-40527661D01*
X151244866Y-40555110D01*
X151261607Y-40586431D01*
X151271915Y-40620409D01*
X151276000Y-40661890D01*
X151276000Y-41338110D01*
X151271915Y-41379591D01*
X151261607Y-41413569D01*
X151244866Y-41444890D01*
X151222339Y-41472339D01*
X151194890Y-41494866D01*
X151163569Y-41511607D01*
X151129591Y-41521915D01*
X151088110Y-41526000D01*
X150486890Y-41526000D01*
X150445409Y-41521915D01*
X150411431Y-41511607D01*
X150380110Y-41494866D01*
X150352661Y-41472339D01*
X150330134Y-41444890D01*
X150313393Y-41413569D01*
X150303085Y-41379591D01*
X150299000Y-41338110D01*
X150299000Y-40661890D01*
X150303085Y-40620409D01*
X150313393Y-40586431D01*
X150330134Y-40555110D01*
X150352661Y-40527661D01*
X150380110Y-40505134D01*
X150411431Y-40488393D01*
X150445409Y-40478085D01*
X150486890Y-40474000D01*
X151088110Y-40474000D01*
X151129591Y-40478085D01*
X151129591Y-40478085D01*
G37*
G36*
X149554591Y-40478085D02*
G01*
X149588569Y-40488393D01*
X149619890Y-40505134D01*
X149647339Y-40527661D01*
X149669866Y-40555110D01*
X149686607Y-40586431D01*
X149696915Y-40620409D01*
X149701000Y-40661890D01*
X149701000Y-41338110D01*
X149696915Y-41379591D01*
X149686607Y-41413569D01*
X149669866Y-41444890D01*
X149647339Y-41472339D01*
X149619890Y-41494866D01*
X149588569Y-41511607D01*
X149554591Y-41521915D01*
X149513110Y-41526000D01*
X148911890Y-41526000D01*
X148870409Y-41521915D01*
X148836431Y-41511607D01*
X148805110Y-41494866D01*
X148777661Y-41472339D01*
X148755134Y-41444890D01*
X148738393Y-41413569D01*
X148728085Y-41379591D01*
X148724000Y-41338110D01*
X148724000Y-40661890D01*
X148728085Y-40620409D01*
X148738393Y-40586431D01*
X148755134Y-40555110D01*
X148777661Y-40527661D01*
X148805110Y-40505134D01*
X148836431Y-40488393D01*
X148870409Y-40478085D01*
X148911890Y-40474000D01*
X149513110Y-40474000D01*
X149554591Y-40478085D01*
X149554591Y-40478085D01*
G37*
G36*
X245451000Y-41256000D02*
G01*
X243849000Y-41256000D01*
X243849000Y-40554000D01*
X245451000Y-40554000D01*
X245451000Y-41256000D01*
X245451000Y-41256000D01*
G37*
G36*
X236151000Y-41256000D02*
G01*
X234549000Y-41256000D01*
X234549000Y-40554000D01*
X236151000Y-40554000D01*
X236151000Y-41256000D01*
X236151000Y-41256000D01*
G37*
G36*
X218250103Y-39168547D02*
G01*
X218407268Y-39233647D01*
X218548713Y-39328158D01*
X218669002Y-39448447D01*
X218763513Y-39589892D01*
X218828613Y-39747057D01*
X218861800Y-39913903D01*
X218861800Y-40084017D01*
X218828613Y-40250863D01*
X218763513Y-40408028D01*
X218669002Y-40549473D01*
X218548713Y-40669762D01*
X218407268Y-40764273D01*
X218250103Y-40829373D01*
X218083257Y-40862560D01*
X217913143Y-40862560D01*
X217746297Y-40829373D01*
X217589132Y-40764273D01*
X217447687Y-40669762D01*
X217327398Y-40549473D01*
X217232887Y-40408028D01*
X217167787Y-40250863D01*
X217134600Y-40084017D01*
X217134600Y-39913903D01*
X217167787Y-39747057D01*
X217232887Y-39589892D01*
X217327398Y-39448447D01*
X217447687Y-39328158D01*
X217589132Y-39233647D01*
X217746297Y-39168547D01*
X217913143Y-39135360D01*
X218083257Y-39135360D01*
X218250103Y-39168547D01*
X218250103Y-39168547D01*
G37*
G36*
X196253703Y-39168547D02*
G01*
X196410868Y-39233647D01*
X196552313Y-39328158D01*
X196672602Y-39448447D01*
X196767113Y-39589892D01*
X196832213Y-39747057D01*
X196865400Y-39913903D01*
X196865400Y-40084017D01*
X196832213Y-40250863D01*
X196767113Y-40408028D01*
X196672602Y-40549473D01*
X196552313Y-40669762D01*
X196410868Y-40764273D01*
X196253703Y-40829373D01*
X196086857Y-40862560D01*
X195916743Y-40862560D01*
X195749897Y-40829373D01*
X195592732Y-40764273D01*
X195451287Y-40669762D01*
X195330998Y-40549473D01*
X195236487Y-40408028D01*
X195171387Y-40250863D01*
X195138200Y-40084017D01*
X195138200Y-39913903D01*
X195171387Y-39747057D01*
X195236487Y-39589892D01*
X195330998Y-39448447D01*
X195451287Y-39328158D01*
X195592732Y-39233647D01*
X195749897Y-39168547D01*
X195916743Y-39135360D01*
X196086857Y-39135360D01*
X196253703Y-39168547D01*
X196253703Y-39168547D01*
G37*
G36*
X229812585Y-37478802D02*
G01*
X229962410Y-37508604D01*
X230244674Y-37625521D01*
X230498705Y-37795259D01*
X230714741Y-38011295D01*
X230884479Y-38265326D01*
X231001396Y-38547590D01*
X231061000Y-38847240D01*
X231061000Y-39152760D01*
X231001396Y-39452410D01*
X230884479Y-39734674D01*
X230714741Y-39988705D01*
X230498705Y-40204741D01*
X230244674Y-40374479D01*
X229962410Y-40491396D01*
X229893344Y-40505134D01*
X229662761Y-40551000D01*
X229357239Y-40551000D01*
X229126656Y-40505134D01*
X229057590Y-40491396D01*
X228775326Y-40374479D01*
X228521295Y-40204741D01*
X228305259Y-39988705D01*
X228135521Y-39734674D01*
X228018604Y-39452410D01*
X227959000Y-39152760D01*
X227959000Y-38847240D01*
X228018604Y-38547590D01*
X228135521Y-38265326D01*
X228305259Y-38011295D01*
X228521295Y-37795259D01*
X228775326Y-37625521D01*
X229057590Y-37508604D01*
X229207415Y-37478802D01*
X229357239Y-37449000D01*
X229662761Y-37449000D01*
X229812585Y-37478802D01*
X229812585Y-37478802D01*
G37*
G36*
X251551000Y-40551000D02*
G01*
X248449000Y-40551000D01*
X248449000Y-37449000D01*
X251551000Y-37449000D01*
X251551000Y-40551000D01*
X251551000Y-40551000D01*
G37*
G36*
X208379591Y-39303085D02*
G01*
X208413569Y-39313393D01*
X208444890Y-39330134D01*
X208472339Y-39352661D01*
X208494866Y-39380110D01*
X208511607Y-39411431D01*
X208521915Y-39445409D01*
X208526000Y-39486890D01*
X208526000Y-40088110D01*
X208521915Y-40129591D01*
X208511607Y-40163569D01*
X208494866Y-40194890D01*
X208472339Y-40222339D01*
X208444890Y-40244866D01*
X208413569Y-40261607D01*
X208379591Y-40271915D01*
X208338110Y-40276000D01*
X207661890Y-40276000D01*
X207620409Y-40271915D01*
X207586431Y-40261607D01*
X207555110Y-40244866D01*
X207527661Y-40222339D01*
X207505134Y-40194890D01*
X207488393Y-40163569D01*
X207478085Y-40129591D01*
X207474000Y-40088110D01*
X207474000Y-39486890D01*
X207478085Y-39445409D01*
X207488393Y-39411431D01*
X207505134Y-39380110D01*
X207527661Y-39352661D01*
X207555110Y-39330134D01*
X207586431Y-39313393D01*
X207620409Y-39303085D01*
X207661890Y-39299000D01*
X208338110Y-39299000D01*
X208379591Y-39303085D01*
X208379591Y-39303085D01*
G37*
G36*
X206379591Y-39303085D02*
G01*
X206413569Y-39313393D01*
X206444890Y-39330134D01*
X206472339Y-39352661D01*
X206494866Y-39380110D01*
X206511607Y-39411431D01*
X206521915Y-39445409D01*
X206526000Y-39486890D01*
X206526000Y-40088110D01*
X206521915Y-40129591D01*
X206511607Y-40163569D01*
X206494866Y-40194890D01*
X206472339Y-40222339D01*
X206444890Y-40244866D01*
X206413569Y-40261607D01*
X206379591Y-40271915D01*
X206338110Y-40276000D01*
X205661890Y-40276000D01*
X205620409Y-40271915D01*
X205586431Y-40261607D01*
X205555110Y-40244866D01*
X205527661Y-40222339D01*
X205505134Y-40194890D01*
X205488393Y-40163569D01*
X205478085Y-40129591D01*
X205474000Y-40088110D01*
X205474000Y-39486890D01*
X205478085Y-39445409D01*
X205488393Y-39411431D01*
X205505134Y-39380110D01*
X205527661Y-39352661D01*
X205555110Y-39330134D01*
X205586431Y-39313393D01*
X205620409Y-39303085D01*
X205661890Y-39299000D01*
X206338110Y-39299000D01*
X206379591Y-39303085D01*
X206379591Y-39303085D01*
G37*
G36*
X192379591Y-39303085D02*
G01*
X192413569Y-39313393D01*
X192444890Y-39330134D01*
X192472339Y-39352661D01*
X192494866Y-39380110D01*
X192511607Y-39411431D01*
X192521915Y-39445409D01*
X192526000Y-39486890D01*
X192526000Y-40088110D01*
X192521915Y-40129591D01*
X192511607Y-40163569D01*
X192494866Y-40194890D01*
X192472339Y-40222339D01*
X192444890Y-40244866D01*
X192413569Y-40261607D01*
X192379591Y-40271915D01*
X192338110Y-40276000D01*
X191661890Y-40276000D01*
X191620409Y-40271915D01*
X191586431Y-40261607D01*
X191555110Y-40244866D01*
X191527661Y-40222339D01*
X191505134Y-40194890D01*
X191488393Y-40163569D01*
X191478085Y-40129591D01*
X191474000Y-40088110D01*
X191474000Y-39486890D01*
X191478085Y-39445409D01*
X191488393Y-39411431D01*
X191505134Y-39380110D01*
X191527661Y-39352661D01*
X191555110Y-39330134D01*
X191586431Y-39313393D01*
X191620409Y-39303085D01*
X191661890Y-39299000D01*
X192338110Y-39299000D01*
X192379591Y-39303085D01*
X192379591Y-39303085D01*
G37*
G36*
X236151000Y-39986000D02*
G01*
X234549000Y-39986000D01*
X234549000Y-39284000D01*
X236151000Y-39284000D01*
X236151000Y-39986000D01*
X236151000Y-39986000D01*
G37*
G36*
X245451000Y-39986000D02*
G01*
X243849000Y-39986000D01*
X243849000Y-39284000D01*
X245451000Y-39284000D01*
X245451000Y-39986000D01*
X245451000Y-39986000D01*
G37*
G36*
X151129591Y-38478085D02*
G01*
X151163569Y-38488393D01*
X151194890Y-38505134D01*
X151222339Y-38527661D01*
X151244866Y-38555110D01*
X151261607Y-38586431D01*
X151271915Y-38620409D01*
X151276000Y-38661890D01*
X151276000Y-39338110D01*
X151271915Y-39379591D01*
X151261607Y-39413569D01*
X151244866Y-39444890D01*
X151222339Y-39472339D01*
X151194890Y-39494866D01*
X151163569Y-39511607D01*
X151129591Y-39521915D01*
X151088110Y-39526000D01*
X150486890Y-39526000D01*
X150445409Y-39521915D01*
X150411431Y-39511607D01*
X150380110Y-39494866D01*
X150352661Y-39472339D01*
X150330134Y-39444890D01*
X150313393Y-39413569D01*
X150303085Y-39379591D01*
X150299000Y-39338110D01*
X150299000Y-38661890D01*
X150303085Y-38620409D01*
X150313393Y-38586431D01*
X150330134Y-38555110D01*
X150352661Y-38527661D01*
X150380110Y-38505134D01*
X150411431Y-38488393D01*
X150445409Y-38478085D01*
X150486890Y-38474000D01*
X151088110Y-38474000D01*
X151129591Y-38478085D01*
X151129591Y-38478085D01*
G37*
G36*
X149554591Y-38478085D02*
G01*
X149588569Y-38488393D01*
X149619890Y-38505134D01*
X149647339Y-38527661D01*
X149669866Y-38555110D01*
X149686607Y-38586431D01*
X149696915Y-38620409D01*
X149701000Y-38661890D01*
X149701000Y-39338110D01*
X149696915Y-39379591D01*
X149686607Y-39413569D01*
X149669866Y-39444890D01*
X149647339Y-39472339D01*
X149619890Y-39494866D01*
X149588569Y-39511607D01*
X149554591Y-39521915D01*
X149513110Y-39526000D01*
X148911890Y-39526000D01*
X148870409Y-39521915D01*
X148836431Y-39511607D01*
X148805110Y-39494866D01*
X148777661Y-39472339D01*
X148755134Y-39444890D01*
X148738393Y-39413569D01*
X148728085Y-39379591D01*
X148724000Y-39338110D01*
X148724000Y-38661890D01*
X148728085Y-38620409D01*
X148738393Y-38586431D01*
X148755134Y-38555110D01*
X148777661Y-38527661D01*
X148805110Y-38505134D01*
X148836431Y-38488393D01*
X148870409Y-38478085D01*
X148911890Y-38474000D01*
X149513110Y-38474000D01*
X149554591Y-38478085D01*
X149554591Y-38478085D01*
G37*
G36*
X218250103Y-37169567D02*
G01*
X218407268Y-37234667D01*
X218548713Y-37329178D01*
X218669002Y-37449467D01*
X218763513Y-37590912D01*
X218828613Y-37748077D01*
X218861800Y-37914923D01*
X218861800Y-38085037D01*
X218828613Y-38251883D01*
X218763513Y-38409048D01*
X218669002Y-38550493D01*
X218548713Y-38670782D01*
X218407268Y-38765293D01*
X218250103Y-38830393D01*
X218083257Y-38863580D01*
X217913143Y-38863580D01*
X217746297Y-38830393D01*
X217589132Y-38765293D01*
X217447687Y-38670782D01*
X217327398Y-38550493D01*
X217232887Y-38409048D01*
X217167787Y-38251883D01*
X217134600Y-38085037D01*
X217134600Y-37914923D01*
X217167787Y-37748077D01*
X217232887Y-37590912D01*
X217327398Y-37449467D01*
X217447687Y-37329178D01*
X217589132Y-37234667D01*
X217746297Y-37169567D01*
X217913143Y-37136380D01*
X218083257Y-37136380D01*
X218250103Y-37169567D01*
X218250103Y-37169567D01*
G37*
G36*
X196253703Y-37169567D02*
G01*
X196410868Y-37234667D01*
X196552313Y-37329178D01*
X196672602Y-37449467D01*
X196767113Y-37590912D01*
X196832213Y-37748077D01*
X196865400Y-37914923D01*
X196865400Y-38085037D01*
X196832213Y-38251883D01*
X196767113Y-38409048D01*
X196672602Y-38550493D01*
X196552313Y-38670782D01*
X196410868Y-38765293D01*
X196253703Y-38830393D01*
X196086857Y-38863580D01*
X195916743Y-38863580D01*
X195749897Y-38830393D01*
X195592732Y-38765293D01*
X195451287Y-38670782D01*
X195330998Y-38550493D01*
X195236487Y-38409048D01*
X195171387Y-38251883D01*
X195138200Y-38085037D01*
X195138200Y-37914923D01*
X195171387Y-37748077D01*
X195236487Y-37590912D01*
X195330998Y-37449467D01*
X195451287Y-37329178D01*
X195592732Y-37234667D01*
X195749897Y-37169567D01*
X195916743Y-37136380D01*
X196086857Y-37136380D01*
X196253703Y-37169567D01*
X196253703Y-37169567D01*
G37*
G36*
X245451000Y-38716000D02*
G01*
X243849000Y-38716000D01*
X243849000Y-38014000D01*
X245451000Y-38014000D01*
X245451000Y-38716000D01*
X245451000Y-38716000D01*
G37*
G36*
X236151000Y-38716000D02*
G01*
X234549000Y-38716000D01*
X234549000Y-38014000D01*
X236151000Y-38014000D01*
X236151000Y-38716000D01*
X236151000Y-38716000D01*
G37*
G36*
X208379591Y-37728085D02*
G01*
X208413569Y-37738393D01*
X208444890Y-37755134D01*
X208472339Y-37777661D01*
X208494866Y-37805110D01*
X208511607Y-37836431D01*
X208521915Y-37870409D01*
X208526000Y-37911890D01*
X208526000Y-38513110D01*
X208521915Y-38554591D01*
X208511607Y-38588569D01*
X208494866Y-38619890D01*
X208472339Y-38647339D01*
X208444890Y-38669866D01*
X208413569Y-38686607D01*
X208379591Y-38696915D01*
X208338110Y-38701000D01*
X207661890Y-38701000D01*
X207620409Y-38696915D01*
X207586431Y-38686607D01*
X207555110Y-38669866D01*
X207527661Y-38647339D01*
X207505134Y-38619890D01*
X207488393Y-38588569D01*
X207478085Y-38554591D01*
X207474000Y-38513110D01*
X207474000Y-37911890D01*
X207478085Y-37870409D01*
X207488393Y-37836431D01*
X207505134Y-37805110D01*
X207527661Y-37777661D01*
X207555110Y-37755134D01*
X207586431Y-37738393D01*
X207620409Y-37728085D01*
X207661890Y-37724000D01*
X208338110Y-37724000D01*
X208379591Y-37728085D01*
X208379591Y-37728085D01*
G37*
G36*
X206379591Y-37728085D02*
G01*
X206413569Y-37738393D01*
X206444890Y-37755134D01*
X206472339Y-37777661D01*
X206494866Y-37805110D01*
X206511607Y-37836431D01*
X206521915Y-37870409D01*
X206526000Y-37911890D01*
X206526000Y-38513110D01*
X206521915Y-38554591D01*
X206511607Y-38588569D01*
X206494866Y-38619890D01*
X206472339Y-38647339D01*
X206444890Y-38669866D01*
X206413569Y-38686607D01*
X206379591Y-38696915D01*
X206338110Y-38701000D01*
X205661890Y-38701000D01*
X205620409Y-38696915D01*
X205586431Y-38686607D01*
X205555110Y-38669866D01*
X205527661Y-38647339D01*
X205505134Y-38619890D01*
X205488393Y-38588569D01*
X205478085Y-38554591D01*
X205474000Y-38513110D01*
X205474000Y-37911890D01*
X205478085Y-37870409D01*
X205488393Y-37836431D01*
X205505134Y-37805110D01*
X205527661Y-37777661D01*
X205555110Y-37755134D01*
X205586431Y-37738393D01*
X205620409Y-37728085D01*
X205661890Y-37724000D01*
X206338110Y-37724000D01*
X206379591Y-37728085D01*
X206379591Y-37728085D01*
G37*
G36*
X192379591Y-37728085D02*
G01*
X192413569Y-37738393D01*
X192444890Y-37755134D01*
X192472339Y-37777661D01*
X192494866Y-37805110D01*
X192511607Y-37836431D01*
X192521915Y-37870409D01*
X192526000Y-37911890D01*
X192526000Y-38513110D01*
X192521915Y-38554591D01*
X192511607Y-38588569D01*
X192494866Y-38619890D01*
X192472339Y-38647339D01*
X192444890Y-38669866D01*
X192413569Y-38686607D01*
X192379591Y-38696915D01*
X192338110Y-38701000D01*
X191661890Y-38701000D01*
X191620409Y-38696915D01*
X191586431Y-38686607D01*
X191555110Y-38669866D01*
X191527661Y-38647339D01*
X191505134Y-38619890D01*
X191488393Y-38588569D01*
X191478085Y-38554591D01*
X191474000Y-38513110D01*
X191474000Y-37911890D01*
X191478085Y-37870409D01*
X191488393Y-37836431D01*
X191505134Y-37805110D01*
X191527661Y-37777661D01*
X191555110Y-37755134D01*
X191586431Y-37738393D01*
X191620409Y-37728085D01*
X191661890Y-37724000D01*
X192338110Y-37724000D01*
X192379591Y-37728085D01*
X192379591Y-37728085D01*
G37*
G36*
X245451000Y-37446000D02*
G01*
X243849000Y-37446000D01*
X243849000Y-36744000D01*
X245451000Y-36744000D01*
X245451000Y-37446000D01*
X245451000Y-37446000D01*
G37*
G36*
X236151000Y-37446000D02*
G01*
X234549000Y-37446000D01*
X234549000Y-36744000D01*
X236151000Y-36744000D01*
X236151000Y-37446000D01*
X236151000Y-37446000D01*
G37*
G36*
X218250103Y-35168047D02*
G01*
X218407268Y-35233147D01*
X218548713Y-35327658D01*
X218669002Y-35447947D01*
X218763513Y-35589392D01*
X218828613Y-35746557D01*
X218861800Y-35913403D01*
X218861800Y-36083517D01*
X218828613Y-36250363D01*
X218763513Y-36407528D01*
X218669002Y-36548973D01*
X218548713Y-36669262D01*
X218407268Y-36763773D01*
X218250103Y-36828873D01*
X218083257Y-36862060D01*
X217913143Y-36862060D01*
X217746297Y-36828873D01*
X217589132Y-36763773D01*
X217447687Y-36669262D01*
X217327398Y-36548973D01*
X217232887Y-36407528D01*
X217167787Y-36250363D01*
X217134600Y-36083517D01*
X217134600Y-35913403D01*
X217167787Y-35746557D01*
X217232887Y-35589392D01*
X217327398Y-35447947D01*
X217447687Y-35327658D01*
X217589132Y-35233147D01*
X217746297Y-35168047D01*
X217913143Y-35134860D01*
X218083257Y-35134860D01*
X218250103Y-35168047D01*
X218250103Y-35168047D01*
G37*
G36*
X196253703Y-35168047D02*
G01*
X196410868Y-35233147D01*
X196552313Y-35327658D01*
X196672602Y-35447947D01*
X196767113Y-35589392D01*
X196832213Y-35746557D01*
X196865400Y-35913403D01*
X196865400Y-36083517D01*
X196832213Y-36250363D01*
X196767113Y-36407528D01*
X196672602Y-36548973D01*
X196552313Y-36669262D01*
X196410868Y-36763773D01*
X196253703Y-36828873D01*
X196086857Y-36862060D01*
X195916743Y-36862060D01*
X195749897Y-36828873D01*
X195592732Y-36763773D01*
X195451287Y-36669262D01*
X195330998Y-36548973D01*
X195236487Y-36407528D01*
X195171387Y-36250363D01*
X195138200Y-36083517D01*
X195138200Y-35913403D01*
X195171387Y-35746557D01*
X195236487Y-35589392D01*
X195330998Y-35447947D01*
X195451287Y-35327658D01*
X195592732Y-35233147D01*
X195749897Y-35168047D01*
X195916743Y-35134860D01*
X196086857Y-35134860D01*
X196253703Y-35168047D01*
X196253703Y-35168047D01*
G37*
G36*
X248379591Y-35303085D02*
G01*
X248413569Y-35313393D01*
X248444890Y-35330134D01*
X248472339Y-35352661D01*
X248494866Y-35380110D01*
X248511607Y-35411431D01*
X248521915Y-35445409D01*
X248526000Y-35486890D01*
X248526000Y-36088110D01*
X248521915Y-36129591D01*
X248511607Y-36163569D01*
X248494866Y-36194890D01*
X248472339Y-36222339D01*
X248444890Y-36244866D01*
X248413569Y-36261607D01*
X248379591Y-36271915D01*
X248338110Y-36276000D01*
X247661890Y-36276000D01*
X247620409Y-36271915D01*
X247586431Y-36261607D01*
X247555110Y-36244866D01*
X247527661Y-36222339D01*
X247505134Y-36194890D01*
X247488393Y-36163569D01*
X247478085Y-36129591D01*
X247474000Y-36088110D01*
X247474000Y-35486890D01*
X247478085Y-35445409D01*
X247488393Y-35411431D01*
X247505134Y-35380110D01*
X247527661Y-35352661D01*
X247555110Y-35330134D01*
X247586431Y-35313393D01*
X247620409Y-35303085D01*
X247661890Y-35299000D01*
X248338110Y-35299000D01*
X248379591Y-35303085D01*
X248379591Y-35303085D01*
G37*
G36*
X245451000Y-36176000D02*
G01*
X243849000Y-36176000D01*
X243849000Y-35474000D01*
X245451000Y-35474000D01*
X245451000Y-36176000D01*
X245451000Y-36176000D01*
G37*
G36*
X236151000Y-36176000D02*
G01*
X234549000Y-36176000D01*
X234549000Y-35474000D01*
X236151000Y-35474000D01*
X236151000Y-36176000D01*
X236151000Y-36176000D01*
G37*
G36*
X245451000Y-34906000D02*
G01*
X243849000Y-34906000D01*
X243849000Y-34204000D01*
X245451000Y-34204000D01*
X245451000Y-34906000D01*
X245451000Y-34906000D01*
G37*
G36*
X236151000Y-34906000D02*
G01*
X234549000Y-34906000D01*
X234549000Y-34204000D01*
X236151000Y-34204000D01*
X236151000Y-34906000D01*
X236151000Y-34906000D01*
G37*
G36*
X218250103Y-33169067D02*
G01*
X218407268Y-33234167D01*
X218548713Y-33328678D01*
X218669002Y-33448967D01*
X218763513Y-33590412D01*
X218828613Y-33747577D01*
X218861800Y-33914423D01*
X218861800Y-34084537D01*
X218828613Y-34251383D01*
X218763513Y-34408548D01*
X218669002Y-34549993D01*
X218548713Y-34670282D01*
X218407268Y-34764793D01*
X218250103Y-34829893D01*
X218083257Y-34863080D01*
X217913143Y-34863080D01*
X217746297Y-34829893D01*
X217589132Y-34764793D01*
X217447687Y-34670282D01*
X217327398Y-34549993D01*
X217232887Y-34408548D01*
X217167787Y-34251383D01*
X217134600Y-34084537D01*
X217134600Y-33914423D01*
X217167787Y-33747577D01*
X217232887Y-33590412D01*
X217327398Y-33448967D01*
X217447687Y-33328678D01*
X217589132Y-33234167D01*
X217746297Y-33169067D01*
X217913143Y-33135880D01*
X218083257Y-33135880D01*
X218250103Y-33169067D01*
X218250103Y-33169067D01*
G37*
G36*
X196253703Y-33169067D02*
G01*
X196410868Y-33234167D01*
X196552313Y-33328678D01*
X196672602Y-33448967D01*
X196767113Y-33590412D01*
X196832213Y-33747577D01*
X196865400Y-33914423D01*
X196865400Y-34084537D01*
X196832213Y-34251383D01*
X196767113Y-34408548D01*
X196672602Y-34549993D01*
X196552313Y-34670282D01*
X196410868Y-34764793D01*
X196253703Y-34829893D01*
X196086857Y-34863080D01*
X195916743Y-34863080D01*
X195749897Y-34829893D01*
X195592732Y-34764793D01*
X195451287Y-34670282D01*
X195330998Y-34549993D01*
X195236487Y-34408548D01*
X195171387Y-34251383D01*
X195138200Y-34084537D01*
X195138200Y-33914423D01*
X195171387Y-33747577D01*
X195236487Y-33590412D01*
X195330998Y-33448967D01*
X195451287Y-33328678D01*
X195592732Y-33234167D01*
X195749897Y-33169067D01*
X195916743Y-33135880D01*
X196086857Y-33135880D01*
X196253703Y-33169067D01*
X196253703Y-33169067D01*
G37*
G36*
X248379591Y-33728085D02*
G01*
X248413569Y-33738393D01*
X248444890Y-33755134D01*
X248472339Y-33777661D01*
X248494866Y-33805110D01*
X248511607Y-33836431D01*
X248521915Y-33870409D01*
X248526000Y-33911890D01*
X248526000Y-34513110D01*
X248521915Y-34554591D01*
X248511607Y-34588569D01*
X248494866Y-34619890D01*
X248472339Y-34647339D01*
X248444890Y-34669866D01*
X248413569Y-34686607D01*
X248379591Y-34696915D01*
X248338110Y-34701000D01*
X247661890Y-34701000D01*
X247620409Y-34696915D01*
X247586431Y-34686607D01*
X247555110Y-34669866D01*
X247527661Y-34647339D01*
X247505134Y-34619890D01*
X247488393Y-34588569D01*
X247478085Y-34554591D01*
X247474000Y-34513110D01*
X247474000Y-33911890D01*
X247478085Y-33870409D01*
X247488393Y-33836431D01*
X247505134Y-33805110D01*
X247527661Y-33777661D01*
X247555110Y-33755134D01*
X247586431Y-33738393D01*
X247620409Y-33728085D01*
X247661890Y-33724000D01*
X248338110Y-33724000D01*
X248379591Y-33728085D01*
X248379591Y-33728085D01*
G37*
G36*
X168118604Y-31078347D02*
G01*
X168155144Y-31089432D01*
X168188821Y-31107433D01*
X168218341Y-31131659D01*
X168242567Y-31161179D01*
X168260568Y-31194856D01*
X168271653Y-31231396D01*
X168276000Y-31275538D01*
X168276000Y-32724462D01*
X168271653Y-32768604D01*
X168260568Y-32805144D01*
X168242567Y-32838821D01*
X168218341Y-32868341D01*
X168188821Y-32892567D01*
X168155144Y-32910568D01*
X168118604Y-32921653D01*
X168074462Y-32926000D01*
X167125538Y-32926000D01*
X167081396Y-32921653D01*
X167044856Y-32910568D01*
X167011179Y-32892567D01*
X166981659Y-32868341D01*
X166957433Y-32838821D01*
X166939432Y-32805144D01*
X166928347Y-32768604D01*
X166924000Y-32724462D01*
X166924000Y-31275538D01*
X166928347Y-31231396D01*
X166939432Y-31194856D01*
X166957433Y-31161179D01*
X166981659Y-31131659D01*
X167011179Y-31107433D01*
X167044856Y-31089432D01*
X167081396Y-31078347D01*
X167125538Y-31074000D01*
X168074462Y-31074000D01*
X168118604Y-31078347D01*
X168118604Y-31078347D01*
G37*
G36*
X170918604Y-31078347D02*
G01*
X170955144Y-31089432D01*
X170988821Y-31107433D01*
X171018341Y-31131659D01*
X171042567Y-31161179D01*
X171060568Y-31194856D01*
X171071653Y-31231396D01*
X171076000Y-31275538D01*
X171076000Y-32724462D01*
X171071653Y-32768604D01*
X171060568Y-32805144D01*
X171042567Y-32838821D01*
X171018341Y-32868341D01*
X170988821Y-32892567D01*
X170955144Y-32910568D01*
X170918604Y-32921653D01*
X170874462Y-32926000D01*
X169925538Y-32926000D01*
X169881396Y-32921653D01*
X169844856Y-32910568D01*
X169811179Y-32892567D01*
X169781659Y-32868341D01*
X169757433Y-32838821D01*
X169739432Y-32805144D01*
X169728347Y-32768604D01*
X169724000Y-32724462D01*
X169724000Y-31275538D01*
X169728347Y-31231396D01*
X169739432Y-31194856D01*
X169757433Y-31161179D01*
X169781659Y-31131659D01*
X169811179Y-31107433D01*
X169844856Y-31089432D01*
X169881396Y-31078347D01*
X169925538Y-31074000D01*
X170874462Y-31074000D01*
X170918604Y-31078347D01*
X170918604Y-31078347D01*
G37*
G36*
X218250103Y-31167547D02*
G01*
X218407268Y-31232647D01*
X218548713Y-31327158D01*
X218669002Y-31447447D01*
X218763513Y-31588892D01*
X218828613Y-31746057D01*
X218861800Y-31912903D01*
X218861800Y-32083017D01*
X218828613Y-32249863D01*
X218763513Y-32407028D01*
X218669002Y-32548473D01*
X218548713Y-32668762D01*
X218407268Y-32763273D01*
X218250103Y-32828373D01*
X218083257Y-32861560D01*
X217913143Y-32861560D01*
X217746297Y-32828373D01*
X217589132Y-32763273D01*
X217447687Y-32668762D01*
X217327398Y-32548473D01*
X217232887Y-32407028D01*
X217167787Y-32249863D01*
X217134600Y-32083017D01*
X217134600Y-31912903D01*
X217167787Y-31746057D01*
X217232887Y-31588892D01*
X217327398Y-31447447D01*
X217447687Y-31327158D01*
X217589132Y-31232647D01*
X217746297Y-31167547D01*
X217913143Y-31134360D01*
X218083257Y-31134360D01*
X218250103Y-31167547D01*
X218250103Y-31167547D01*
G37*
G36*
X196253703Y-31167547D02*
G01*
X196410868Y-31232647D01*
X196552313Y-31327158D01*
X196672602Y-31447447D01*
X196767113Y-31588892D01*
X196832213Y-31746057D01*
X196865400Y-31912903D01*
X196865400Y-32083017D01*
X196832213Y-32249863D01*
X196767113Y-32407028D01*
X196672602Y-32548473D01*
X196552313Y-32668762D01*
X196410868Y-32763273D01*
X196253703Y-32828373D01*
X196086857Y-32861560D01*
X195916743Y-32861560D01*
X195749897Y-32828373D01*
X195592732Y-32763273D01*
X195451287Y-32668762D01*
X195330998Y-32548473D01*
X195236487Y-32407028D01*
X195171387Y-32249863D01*
X195138200Y-32083017D01*
X195138200Y-31912903D01*
X195171387Y-31746057D01*
X195236487Y-31588892D01*
X195330998Y-31447447D01*
X195451287Y-31327158D01*
X195592732Y-31232647D01*
X195749897Y-31167547D01*
X195916743Y-31134360D01*
X196086857Y-31134360D01*
X196253703Y-31167547D01*
X196253703Y-31167547D01*
G37*
G36*
X164951000Y-32301000D02*
G01*
X163049000Y-32301000D01*
X163049000Y-29699000D01*
X164951000Y-29699000D01*
X164951000Y-32301000D01*
X164951000Y-32301000D01*
G37*
G36*
X156951000Y-32301000D02*
G01*
X155049000Y-32301000D01*
X155049000Y-29699000D01*
X156951000Y-29699000D01*
X156951000Y-32301000D01*
X156951000Y-32301000D01*
G37*
G36*
X160951000Y-32301000D02*
G01*
X159049000Y-32301000D01*
X159049000Y-29699000D01*
X160951000Y-29699000D01*
X160951000Y-32301000D01*
X160951000Y-32301000D01*
G37*
G36*
X175963640Y-32051000D02*
G01*
X171961640Y-32051000D01*
X171961640Y-30749000D01*
X175963640Y-30749000D01*
X175963640Y-32051000D01*
X175963640Y-32051000D01*
G37*
G36*
X218250103Y-29168567D02*
G01*
X218407268Y-29233667D01*
X218548713Y-29328178D01*
X218669002Y-29448467D01*
X218763513Y-29589912D01*
X218828613Y-29747077D01*
X218861800Y-29913923D01*
X218861800Y-30084037D01*
X218828613Y-30250883D01*
X218763513Y-30408048D01*
X218669002Y-30549493D01*
X218548713Y-30669782D01*
X218407268Y-30764293D01*
X218250103Y-30829393D01*
X218083257Y-30862580D01*
X217913143Y-30862580D01*
X217746297Y-30829393D01*
X217589132Y-30764293D01*
X217447687Y-30669782D01*
X217327398Y-30549493D01*
X217232887Y-30408048D01*
X217167787Y-30250883D01*
X217134600Y-30084037D01*
X217134600Y-29913923D01*
X217167787Y-29747077D01*
X217232887Y-29589912D01*
X217327398Y-29448467D01*
X217447687Y-29328178D01*
X217589132Y-29233667D01*
X217746297Y-29168567D01*
X217913143Y-29135380D01*
X218083257Y-29135380D01*
X218250103Y-29168567D01*
X218250103Y-29168567D01*
G37*
G36*
X196253703Y-29168567D02*
G01*
X196410868Y-29233667D01*
X196552313Y-29328178D01*
X196672602Y-29448467D01*
X196767113Y-29589912D01*
X196832213Y-29747077D01*
X196865400Y-29913923D01*
X196865400Y-30084037D01*
X196832213Y-30250883D01*
X196767113Y-30408048D01*
X196672602Y-30549493D01*
X196552313Y-30669782D01*
X196410868Y-30764293D01*
X196253703Y-30829393D01*
X196086857Y-30862580D01*
X195916743Y-30862580D01*
X195749897Y-30829393D01*
X195592732Y-30764293D01*
X195451287Y-30669782D01*
X195330998Y-30549493D01*
X195236487Y-30408048D01*
X195171387Y-30250883D01*
X195138200Y-30084037D01*
X195138200Y-29913923D01*
X195171387Y-29747077D01*
X195236487Y-29589912D01*
X195330998Y-29448467D01*
X195451287Y-29328178D01*
X195592732Y-29233667D01*
X195749897Y-29168567D01*
X195916743Y-29135380D01*
X196086857Y-29135380D01*
X196253703Y-29168567D01*
X196253703Y-29168567D01*
G37*
G36*
X175963640Y-29251000D02*
G01*
X171961640Y-29251000D01*
X171961640Y-27949000D01*
X175963640Y-27949000D01*
X175963640Y-29251000D01*
X175963640Y-29251000D01*
G37*
G36*
X169451000Y-28501000D02*
G01*
X168549000Y-28501000D01*
X168549000Y-27499000D01*
X169451000Y-27499000D01*
X169451000Y-28501000D01*
X169451000Y-28501000D01*
G37*
G36*
X156951000Y-28301000D02*
G01*
X155049000Y-28301000D01*
X155049000Y-25699000D01*
X156951000Y-25699000D01*
X156951000Y-28301000D01*
X156951000Y-28301000D01*
G37*
G36*
X164951000Y-28301000D02*
G01*
X163049000Y-28301000D01*
X163049000Y-25699000D01*
X164951000Y-25699000D01*
X164951000Y-28301000D01*
X164951000Y-28301000D01*
G37*
G36*
X160951000Y-28301000D02*
G01*
X159049000Y-28301000D01*
X159049000Y-25699000D01*
X160951000Y-25699000D01*
X160951000Y-28301000D01*
X160951000Y-28301000D01*
G37*
G36*
X173554591Y-25478085D02*
G01*
X173588569Y-25488393D01*
X173619890Y-25505134D01*
X173647339Y-25527661D01*
X173669866Y-25555110D01*
X173686607Y-25586431D01*
X173696915Y-25620409D01*
X173701000Y-25661890D01*
X173701000Y-26338110D01*
X173696915Y-26379591D01*
X173686607Y-26413569D01*
X173669866Y-26444890D01*
X173647339Y-26472339D01*
X173619890Y-26494866D01*
X173588569Y-26511607D01*
X173554591Y-26521915D01*
X173513110Y-26526000D01*
X172911890Y-26526000D01*
X172870409Y-26521915D01*
X172836431Y-26511607D01*
X172805110Y-26494866D01*
X172777661Y-26472339D01*
X172755134Y-26444890D01*
X172738393Y-26413569D01*
X172728085Y-26379591D01*
X172724000Y-26338110D01*
X172724000Y-25661890D01*
X172728085Y-25620409D01*
X172738393Y-25586431D01*
X172755134Y-25555110D01*
X172777661Y-25527661D01*
X172805110Y-25505134D01*
X172836431Y-25488393D01*
X172870409Y-25478085D01*
X172911890Y-25474000D01*
X173513110Y-25474000D01*
X173554591Y-25478085D01*
X173554591Y-25478085D01*
G37*
G36*
X175129591Y-25478085D02*
G01*
X175163569Y-25488393D01*
X175194890Y-25505134D01*
X175222339Y-25527661D01*
X175244866Y-25555110D01*
X175261607Y-25586431D01*
X175271915Y-25620409D01*
X175276000Y-25661890D01*
X175276000Y-26338110D01*
X175271915Y-26379591D01*
X175261607Y-26413569D01*
X175244866Y-26444890D01*
X175222339Y-26472339D01*
X175194890Y-26494866D01*
X175163569Y-26511607D01*
X175129591Y-26521915D01*
X175088110Y-26526000D01*
X174486890Y-26526000D01*
X174445409Y-26521915D01*
X174411431Y-26511607D01*
X174380110Y-26494866D01*
X174352661Y-26472339D01*
X174330134Y-26444890D01*
X174313393Y-26413569D01*
X174303085Y-26379591D01*
X174299000Y-26338110D01*
X174299000Y-25661890D01*
X174303085Y-25620409D01*
X174313393Y-25586431D01*
X174330134Y-25555110D01*
X174352661Y-25527661D01*
X174380110Y-25505134D01*
X174411431Y-25488393D01*
X174445409Y-25478085D01*
X174486890Y-25474000D01*
X175088110Y-25474000D01*
X175129591Y-25478085D01*
X175129591Y-25478085D01*
G37*
G36*
X170401000Y-26501000D02*
G01*
X169499000Y-26501000D01*
X169499000Y-25499000D01*
X170401000Y-25499000D01*
X170401000Y-26501000D01*
X170401000Y-26501000D01*
G37*
G36*
X168501000Y-26501000D02*
G01*
X167599000Y-26501000D01*
X167599000Y-25499000D01*
X168501000Y-25499000D01*
X168501000Y-26501000D01*
X168501000Y-26501000D01*
G37*
G36*
X241348156Y-16672794D02*
G01*
X242069140Y-16816206D01*
X242860972Y-17144193D01*
X243573601Y-17620357D01*
X244179643Y-18226399D01*
X244655807Y-18939028D01*
X244983794Y-19730860D01*
X245151000Y-20571464D01*
X245151000Y-21428536D01*
X244983794Y-22269140D01*
X244655807Y-23060972D01*
X244179643Y-23773601D01*
X243573601Y-24379643D01*
X242860972Y-24855807D01*
X242069140Y-25183794D01*
X241348156Y-25327206D01*
X241228537Y-25351000D01*
X240371463Y-25351000D01*
X240251844Y-25327206D01*
X239530860Y-25183794D01*
X238739028Y-24855807D01*
X238026399Y-24379643D01*
X237420357Y-23773601D01*
X236944193Y-23060972D01*
X236616206Y-22269140D01*
X236449000Y-21428536D01*
X236449000Y-20571464D01*
X236616206Y-19730860D01*
X236944193Y-18939028D01*
X237420357Y-18226399D01*
X238026399Y-17620357D01*
X238739028Y-17144193D01*
X239530860Y-16816206D01*
X240251844Y-16672794D01*
X240371463Y-16649000D01*
X241228537Y-16649000D01*
X241348156Y-16672794D01*
X241348156Y-16672794D01*
G37*
G36*
X119748156Y-16672794D02*
G01*
X120469140Y-16816206D01*
X121260972Y-17144193D01*
X121973601Y-17620357D01*
X122579643Y-18226399D01*
X123055807Y-18939028D01*
X123383794Y-19730860D01*
X123551000Y-20571464D01*
X123551000Y-21428536D01*
X123383794Y-22269140D01*
X123055807Y-23060972D01*
X122579643Y-23773601D01*
X121973601Y-24379643D01*
X121260972Y-24855807D01*
X120469140Y-25183794D01*
X119748156Y-25327206D01*
X119628537Y-25351000D01*
X118771463Y-25351000D01*
X118651844Y-25327206D01*
X117930860Y-25183794D01*
X117139028Y-24855807D01*
X116426399Y-24379643D01*
X115820357Y-23773601D01*
X115344193Y-23060972D01*
X115016206Y-22269140D01*
X114849000Y-21428536D01*
X114849000Y-20571464D01*
X115016206Y-19730860D01*
X115344193Y-18939028D01*
X115820357Y-18226399D01*
X116426399Y-17620357D01*
X117139028Y-17144193D01*
X117930860Y-16816206D01*
X118651844Y-16672794D01*
X118771463Y-16649000D01*
X119628537Y-16649000D01*
X119748156Y-16672794D01*
X119748156Y-16672794D01*
G37*
G36*
X162379591Y-22303085D02*
G01*
X162413569Y-22313393D01*
X162444890Y-22330134D01*
X162472339Y-22352661D01*
X162494866Y-22380110D01*
X162511607Y-22411431D01*
X162521915Y-22445409D01*
X162526000Y-22486890D01*
X162526000Y-23088110D01*
X162521915Y-23129591D01*
X162511607Y-23163569D01*
X162494866Y-23194890D01*
X162472339Y-23222339D01*
X162444890Y-23244866D01*
X162413569Y-23261607D01*
X162379591Y-23271915D01*
X162338110Y-23276000D01*
X161661890Y-23276000D01*
X161620409Y-23271915D01*
X161586431Y-23261607D01*
X161555110Y-23244866D01*
X161527661Y-23222339D01*
X161505134Y-23194890D01*
X161488393Y-23163569D01*
X161478085Y-23129591D01*
X161474000Y-23088110D01*
X161474000Y-22486890D01*
X161478085Y-22445409D01*
X161488393Y-22411431D01*
X161505134Y-22380110D01*
X161527661Y-22352661D01*
X161555110Y-22330134D01*
X161586431Y-22313393D01*
X161620409Y-22303085D01*
X161661890Y-22299000D01*
X162338110Y-22299000D01*
X162379591Y-22303085D01*
X162379591Y-22303085D01*
G37*
G36*
X156379591Y-22303085D02*
G01*
X156413569Y-22313393D01*
X156444890Y-22330134D01*
X156472339Y-22352661D01*
X156494866Y-22380110D01*
X156511607Y-22411431D01*
X156521915Y-22445409D01*
X156526000Y-22486890D01*
X156526000Y-23088110D01*
X156521915Y-23129591D01*
X156511607Y-23163569D01*
X156494866Y-23194890D01*
X156472339Y-23222339D01*
X156444890Y-23244866D01*
X156413569Y-23261607D01*
X156379591Y-23271915D01*
X156338110Y-23276000D01*
X155661890Y-23276000D01*
X155620409Y-23271915D01*
X155586431Y-23261607D01*
X155555110Y-23244866D01*
X155527661Y-23222339D01*
X155505134Y-23194890D01*
X155488393Y-23163569D01*
X155478085Y-23129591D01*
X155474000Y-23088110D01*
X155474000Y-22486890D01*
X155478085Y-22445409D01*
X155488393Y-22411431D01*
X155505134Y-22380110D01*
X155527661Y-22352661D01*
X155555110Y-22330134D01*
X155586431Y-22313393D01*
X155620409Y-22303085D01*
X155661890Y-22299000D01*
X156338110Y-22299000D01*
X156379591Y-22303085D01*
X156379591Y-22303085D01*
G37*
G36*
X158379591Y-22303085D02*
G01*
X158413569Y-22313393D01*
X158444890Y-22330134D01*
X158472339Y-22352661D01*
X158494866Y-22380110D01*
X158511607Y-22411431D01*
X158521915Y-22445409D01*
X158526000Y-22486890D01*
X158526000Y-23088110D01*
X158521915Y-23129591D01*
X158511607Y-23163569D01*
X158494866Y-23194890D01*
X158472339Y-23222339D01*
X158444890Y-23244866D01*
X158413569Y-23261607D01*
X158379591Y-23271915D01*
X158338110Y-23276000D01*
X157661890Y-23276000D01*
X157620409Y-23271915D01*
X157586431Y-23261607D01*
X157555110Y-23244866D01*
X157527661Y-23222339D01*
X157505134Y-23194890D01*
X157488393Y-23163569D01*
X157478085Y-23129591D01*
X157474000Y-23088110D01*
X157474000Y-22486890D01*
X157478085Y-22445409D01*
X157488393Y-22411431D01*
X157505134Y-22380110D01*
X157527661Y-22352661D01*
X157555110Y-22330134D01*
X157586431Y-22313393D01*
X157620409Y-22303085D01*
X157661890Y-22299000D01*
X158338110Y-22299000D01*
X158379591Y-22303085D01*
X158379591Y-22303085D01*
G37*
G36*
X160379591Y-22303085D02*
G01*
X160413569Y-22313393D01*
X160444890Y-22330134D01*
X160472339Y-22352661D01*
X160494866Y-22380110D01*
X160511607Y-22411431D01*
X160521915Y-22445409D01*
X160526000Y-22486890D01*
X160526000Y-23088110D01*
X160521915Y-23129591D01*
X160511607Y-23163569D01*
X160494866Y-23194890D01*
X160472339Y-23222339D01*
X160444890Y-23244866D01*
X160413569Y-23261607D01*
X160379591Y-23271915D01*
X160338110Y-23276000D01*
X159661890Y-23276000D01*
X159620409Y-23271915D01*
X159586431Y-23261607D01*
X159555110Y-23244866D01*
X159527661Y-23222339D01*
X159505134Y-23194890D01*
X159488393Y-23163569D01*
X159478085Y-23129591D01*
X159474000Y-23088110D01*
X159474000Y-22486890D01*
X159478085Y-22445409D01*
X159488393Y-22411431D01*
X159505134Y-22380110D01*
X159527661Y-22352661D01*
X159555110Y-22330134D01*
X159586431Y-22313393D01*
X159620409Y-22303085D01*
X159661890Y-22299000D01*
X160338110Y-22299000D01*
X160379591Y-22303085D01*
X160379591Y-22303085D01*
G37*
G36*
X174379591Y-22303085D02*
G01*
X174413569Y-22313393D01*
X174444890Y-22330134D01*
X174472339Y-22352661D01*
X174494866Y-22380110D01*
X174511607Y-22411431D01*
X174521915Y-22445409D01*
X174526000Y-22486890D01*
X174526000Y-23088110D01*
X174521915Y-23129591D01*
X174511607Y-23163569D01*
X174494866Y-23194890D01*
X174472339Y-23222339D01*
X174444890Y-23244866D01*
X174413569Y-23261607D01*
X174379591Y-23271915D01*
X174338110Y-23276000D01*
X173661890Y-23276000D01*
X173620409Y-23271915D01*
X173586431Y-23261607D01*
X173555110Y-23244866D01*
X173527661Y-23222339D01*
X173505134Y-23194890D01*
X173488393Y-23163569D01*
X173478085Y-23129591D01*
X173474000Y-23088110D01*
X173474000Y-22486890D01*
X173478085Y-22445409D01*
X173488393Y-22411431D01*
X173505134Y-22380110D01*
X173527661Y-22352661D01*
X173555110Y-22330134D01*
X173586431Y-22313393D01*
X173620409Y-22303085D01*
X173661890Y-22299000D01*
X174338110Y-22299000D01*
X174379591Y-22303085D01*
X174379591Y-22303085D01*
G37*
G36*
X168379591Y-22303085D02*
G01*
X168413569Y-22313393D01*
X168444890Y-22330134D01*
X168472339Y-22352661D01*
X168494866Y-22380110D01*
X168511607Y-22411431D01*
X168521915Y-22445409D01*
X168526000Y-22486890D01*
X168526000Y-23088110D01*
X168521915Y-23129591D01*
X168511607Y-23163569D01*
X168494866Y-23194890D01*
X168472339Y-23222339D01*
X168444890Y-23244866D01*
X168413569Y-23261607D01*
X168379591Y-23271915D01*
X168338110Y-23276000D01*
X167661890Y-23276000D01*
X167620409Y-23271915D01*
X167586431Y-23261607D01*
X167555110Y-23244866D01*
X167527661Y-23222339D01*
X167505134Y-23194890D01*
X167488393Y-23163569D01*
X167478085Y-23129591D01*
X167474000Y-23088110D01*
X167474000Y-22486890D01*
X167478085Y-22445409D01*
X167488393Y-22411431D01*
X167505134Y-22380110D01*
X167527661Y-22352661D01*
X167555110Y-22330134D01*
X167586431Y-22313393D01*
X167620409Y-22303085D01*
X167661890Y-22299000D01*
X168338110Y-22299000D01*
X168379591Y-22303085D01*
X168379591Y-22303085D01*
G37*
G36*
X172379591Y-22303085D02*
G01*
X172413569Y-22313393D01*
X172444890Y-22330134D01*
X172472339Y-22352661D01*
X172494866Y-22380110D01*
X172511607Y-22411431D01*
X172521915Y-22445409D01*
X172526000Y-22486890D01*
X172526000Y-23088110D01*
X172521915Y-23129591D01*
X172511607Y-23163569D01*
X172494866Y-23194890D01*
X172472339Y-23222339D01*
X172444890Y-23244866D01*
X172413569Y-23261607D01*
X172379591Y-23271915D01*
X172338110Y-23276000D01*
X171661890Y-23276000D01*
X171620409Y-23271915D01*
X171586431Y-23261607D01*
X171555110Y-23244866D01*
X171527661Y-23222339D01*
X171505134Y-23194890D01*
X171488393Y-23163569D01*
X171478085Y-23129591D01*
X171474000Y-23088110D01*
X171474000Y-22486890D01*
X171478085Y-22445409D01*
X171488393Y-22411431D01*
X171505134Y-22380110D01*
X171527661Y-22352661D01*
X171555110Y-22330134D01*
X171586431Y-22313393D01*
X171620409Y-22303085D01*
X171661890Y-22299000D01*
X172338110Y-22299000D01*
X172379591Y-22303085D01*
X172379591Y-22303085D01*
G37*
G36*
X164379591Y-22303085D02*
G01*
X164413569Y-22313393D01*
X164444890Y-22330134D01*
X164472339Y-22352661D01*
X164494866Y-22380110D01*
X164511607Y-22411431D01*
X164521915Y-22445409D01*
X164526000Y-22486890D01*
X164526000Y-23088110D01*
X164521915Y-23129591D01*
X164511607Y-23163569D01*
X164494866Y-23194890D01*
X164472339Y-23222339D01*
X164444890Y-23244866D01*
X164413569Y-23261607D01*
X164379591Y-23271915D01*
X164338110Y-23276000D01*
X163661890Y-23276000D01*
X163620409Y-23271915D01*
X163586431Y-23261607D01*
X163555110Y-23244866D01*
X163527661Y-23222339D01*
X163505134Y-23194890D01*
X163488393Y-23163569D01*
X163478085Y-23129591D01*
X163474000Y-23088110D01*
X163474000Y-22486890D01*
X163478085Y-22445409D01*
X163488393Y-22411431D01*
X163505134Y-22380110D01*
X163527661Y-22352661D01*
X163555110Y-22330134D01*
X163586431Y-22313393D01*
X163620409Y-22303085D01*
X163661890Y-22299000D01*
X164338110Y-22299000D01*
X164379591Y-22303085D01*
X164379591Y-22303085D01*
G37*
G36*
X166379591Y-22303085D02*
G01*
X166413569Y-22313393D01*
X166444890Y-22330134D01*
X166472339Y-22352661D01*
X166494866Y-22380110D01*
X166511607Y-22411431D01*
X166521915Y-22445409D01*
X166526000Y-22486890D01*
X166526000Y-23088110D01*
X166521915Y-23129591D01*
X166511607Y-23163569D01*
X166494866Y-23194890D01*
X166472339Y-23222339D01*
X166444890Y-23244866D01*
X166413569Y-23261607D01*
X166379591Y-23271915D01*
X166338110Y-23276000D01*
X165661890Y-23276000D01*
X165620409Y-23271915D01*
X165586431Y-23261607D01*
X165555110Y-23244866D01*
X165527661Y-23222339D01*
X165505134Y-23194890D01*
X165488393Y-23163569D01*
X165478085Y-23129591D01*
X165474000Y-23088110D01*
X165474000Y-22486890D01*
X165478085Y-22445409D01*
X165488393Y-22411431D01*
X165505134Y-22380110D01*
X165527661Y-22352661D01*
X165555110Y-22330134D01*
X165586431Y-22313393D01*
X165620409Y-22303085D01*
X165661890Y-22299000D01*
X166338110Y-22299000D01*
X166379591Y-22303085D01*
X166379591Y-22303085D01*
G37*
G36*
X170379591Y-22303085D02*
G01*
X170413569Y-22313393D01*
X170444890Y-22330134D01*
X170472339Y-22352661D01*
X170494866Y-22380110D01*
X170511607Y-22411431D01*
X170521915Y-22445409D01*
X170526000Y-22486890D01*
X170526000Y-23088110D01*
X170521915Y-23129591D01*
X170511607Y-23163569D01*
X170494866Y-23194890D01*
X170472339Y-23222339D01*
X170444890Y-23244866D01*
X170413569Y-23261607D01*
X170379591Y-23271915D01*
X170338110Y-23276000D01*
X169661890Y-23276000D01*
X169620409Y-23271915D01*
X169586431Y-23261607D01*
X169555110Y-23244866D01*
X169527661Y-23222339D01*
X169505134Y-23194890D01*
X169488393Y-23163569D01*
X169478085Y-23129591D01*
X169474000Y-23088110D01*
X169474000Y-22486890D01*
X169478085Y-22445409D01*
X169488393Y-22411431D01*
X169505134Y-22380110D01*
X169527661Y-22352661D01*
X169555110Y-22330134D01*
X169586431Y-22313393D01*
X169620409Y-22303085D01*
X169661890Y-22299000D01*
X170338110Y-22299000D01*
X170379591Y-22303085D01*
X170379591Y-22303085D01*
G37*
G36*
X233810442Y-20105518D02*
G01*
X233876627Y-20112037D01*
X234046466Y-20163557D01*
X234202991Y-20247222D01*
X234238729Y-20276552D01*
X234340186Y-20359814D01*
X234423448Y-20461271D01*
X234452778Y-20497009D01*
X234536443Y-20653534D01*
X234587963Y-20823373D01*
X234605359Y-21000000D01*
X234587963Y-21176627D01*
X234536443Y-21346466D01*
X234452778Y-21502991D01*
X234444473Y-21513110D01*
X234340186Y-21640186D01*
X234238729Y-21723448D01*
X234202991Y-21752778D01*
X234046466Y-21836443D01*
X233876627Y-21887963D01*
X233810442Y-21894482D01*
X233744260Y-21901000D01*
X233655740Y-21901000D01*
X233589558Y-21894482D01*
X233523373Y-21887963D01*
X233353534Y-21836443D01*
X233197009Y-21752778D01*
X233161271Y-21723448D01*
X233059814Y-21640186D01*
X232955527Y-21513110D01*
X232947222Y-21502991D01*
X232863557Y-21346466D01*
X232812037Y-21176627D01*
X232794641Y-21000000D01*
X232812037Y-20823373D01*
X232863557Y-20653534D01*
X232947222Y-20497009D01*
X232976552Y-20461271D01*
X233059814Y-20359814D01*
X233161271Y-20276552D01*
X233197009Y-20247222D01*
X233353534Y-20163557D01*
X233523373Y-20112037D01*
X233589558Y-20105518D01*
X233655740Y-20099000D01*
X233744260Y-20099000D01*
X233810442Y-20105518D01*
X233810442Y-20105518D01*
G37*
G36*
X228730442Y-20105518D02*
G01*
X228796627Y-20112037D01*
X228966466Y-20163557D01*
X229122991Y-20247222D01*
X229158729Y-20276552D01*
X229260186Y-20359814D01*
X229343448Y-20461271D01*
X229372778Y-20497009D01*
X229456443Y-20653534D01*
X229507963Y-20823373D01*
X229525359Y-21000000D01*
X229507963Y-21176627D01*
X229456443Y-21346466D01*
X229372778Y-21502991D01*
X229364473Y-21513110D01*
X229260186Y-21640186D01*
X229158729Y-21723448D01*
X229122991Y-21752778D01*
X228966466Y-21836443D01*
X228796627Y-21887963D01*
X228730442Y-21894482D01*
X228664260Y-21901000D01*
X228575740Y-21901000D01*
X228509558Y-21894482D01*
X228443373Y-21887963D01*
X228273534Y-21836443D01*
X228117009Y-21752778D01*
X228081271Y-21723448D01*
X227979814Y-21640186D01*
X227875527Y-21513110D01*
X227867222Y-21502991D01*
X227783557Y-21346466D01*
X227732037Y-21176627D01*
X227714641Y-21000000D01*
X227732037Y-20823373D01*
X227783557Y-20653534D01*
X227867222Y-20497009D01*
X227896552Y-20461271D01*
X227979814Y-20359814D01*
X228081271Y-20276552D01*
X228117009Y-20247222D01*
X228273534Y-20163557D01*
X228443373Y-20112037D01*
X228509558Y-20105518D01*
X228575740Y-20099000D01*
X228664260Y-20099000D01*
X228730442Y-20105518D01*
X228730442Y-20105518D01*
G37*
G36*
X226190442Y-20105518D02*
G01*
X226256627Y-20112037D01*
X226426466Y-20163557D01*
X226582991Y-20247222D01*
X226618729Y-20276552D01*
X226720186Y-20359814D01*
X226803448Y-20461271D01*
X226832778Y-20497009D01*
X226916443Y-20653534D01*
X226967963Y-20823373D01*
X226985359Y-21000000D01*
X226967963Y-21176627D01*
X226916443Y-21346466D01*
X226832778Y-21502991D01*
X226824473Y-21513110D01*
X226720186Y-21640186D01*
X226618729Y-21723448D01*
X226582991Y-21752778D01*
X226426466Y-21836443D01*
X226256627Y-21887963D01*
X226190442Y-21894482D01*
X226124260Y-21901000D01*
X226035740Y-21901000D01*
X225969558Y-21894482D01*
X225903373Y-21887963D01*
X225733534Y-21836443D01*
X225577009Y-21752778D01*
X225541271Y-21723448D01*
X225439814Y-21640186D01*
X225335527Y-21513110D01*
X225327222Y-21502991D01*
X225243557Y-21346466D01*
X225192037Y-21176627D01*
X225174641Y-21000000D01*
X225192037Y-20823373D01*
X225243557Y-20653534D01*
X225327222Y-20497009D01*
X225356552Y-20461271D01*
X225439814Y-20359814D01*
X225541271Y-20276552D01*
X225577009Y-20247222D01*
X225733534Y-20163557D01*
X225903373Y-20112037D01*
X225969558Y-20105518D01*
X226035740Y-20099000D01*
X226124260Y-20099000D01*
X226190442Y-20105518D01*
X226190442Y-20105518D01*
G37*
G36*
X223650442Y-20105518D02*
G01*
X223716627Y-20112037D01*
X223886466Y-20163557D01*
X224042991Y-20247222D01*
X224078729Y-20276552D01*
X224180186Y-20359814D01*
X224263448Y-20461271D01*
X224292778Y-20497009D01*
X224376443Y-20653534D01*
X224427963Y-20823373D01*
X224445359Y-21000000D01*
X224427963Y-21176627D01*
X224376443Y-21346466D01*
X224292778Y-21502991D01*
X224284473Y-21513110D01*
X224180186Y-21640186D01*
X224078729Y-21723448D01*
X224042991Y-21752778D01*
X223886466Y-21836443D01*
X223716627Y-21887963D01*
X223650442Y-21894482D01*
X223584260Y-21901000D01*
X223495740Y-21901000D01*
X223429558Y-21894482D01*
X223363373Y-21887963D01*
X223193534Y-21836443D01*
X223037009Y-21752778D01*
X223001271Y-21723448D01*
X222899814Y-21640186D01*
X222795527Y-21513110D01*
X222787222Y-21502991D01*
X222703557Y-21346466D01*
X222652037Y-21176627D01*
X222634641Y-21000000D01*
X222652037Y-20823373D01*
X222703557Y-20653534D01*
X222787222Y-20497009D01*
X222816552Y-20461271D01*
X222899814Y-20359814D01*
X223001271Y-20276552D01*
X223037009Y-20247222D01*
X223193534Y-20163557D01*
X223363373Y-20112037D01*
X223429558Y-20105518D01*
X223495740Y-20099000D01*
X223584260Y-20099000D01*
X223650442Y-20105518D01*
X223650442Y-20105518D01*
G37*
G36*
X231270442Y-20105518D02*
G01*
X231336627Y-20112037D01*
X231506466Y-20163557D01*
X231662991Y-20247222D01*
X231698729Y-20276552D01*
X231800186Y-20359814D01*
X231883448Y-20461271D01*
X231912778Y-20497009D01*
X231996443Y-20653534D01*
X232047963Y-20823373D01*
X232065359Y-21000000D01*
X232047963Y-21176627D01*
X231996443Y-21346466D01*
X231912778Y-21502991D01*
X231904473Y-21513110D01*
X231800186Y-21640186D01*
X231698729Y-21723448D01*
X231662991Y-21752778D01*
X231506466Y-21836443D01*
X231336627Y-21887963D01*
X231270442Y-21894482D01*
X231204260Y-21901000D01*
X231115740Y-21901000D01*
X231049558Y-21894482D01*
X230983373Y-21887963D01*
X230813534Y-21836443D01*
X230657009Y-21752778D01*
X230621271Y-21723448D01*
X230519814Y-21640186D01*
X230415527Y-21513110D01*
X230407222Y-21502991D01*
X230323557Y-21346466D01*
X230272037Y-21176627D01*
X230254641Y-21000000D01*
X230272037Y-20823373D01*
X230323557Y-20653534D01*
X230407222Y-20497009D01*
X230436552Y-20461271D01*
X230519814Y-20359814D01*
X230621271Y-20276552D01*
X230657009Y-20247222D01*
X230813534Y-20163557D01*
X230983373Y-20112037D01*
X231049558Y-20105518D01*
X231115740Y-20099000D01*
X231204260Y-20099000D01*
X231270442Y-20105518D01*
X231270442Y-20105518D01*
G37*
G36*
X221901000Y-21901000D02*
G01*
X220099000Y-21901000D01*
X220099000Y-20099000D01*
X221901000Y-20099000D01*
X221901000Y-21901000D01*
X221901000Y-21901000D01*
G37*
G36*
X172379591Y-20728085D02*
G01*
X172413569Y-20738393D01*
X172444890Y-20755134D01*
X172472339Y-20777661D01*
X172494866Y-20805110D01*
X172511607Y-20836431D01*
X172521915Y-20870409D01*
X172526000Y-20911890D01*
X172526000Y-21513110D01*
X172521915Y-21554591D01*
X172511607Y-21588569D01*
X172494866Y-21619890D01*
X172472339Y-21647339D01*
X172444890Y-21669866D01*
X172413569Y-21686607D01*
X172379591Y-21696915D01*
X172338110Y-21701000D01*
X171661890Y-21701000D01*
X171620409Y-21696915D01*
X171586431Y-21686607D01*
X171555110Y-21669866D01*
X171527661Y-21647339D01*
X171505134Y-21619890D01*
X171488393Y-21588569D01*
X171478085Y-21554591D01*
X171474000Y-21513110D01*
X171474000Y-20911890D01*
X171478085Y-20870409D01*
X171488393Y-20836431D01*
X171505134Y-20805110D01*
X171527661Y-20777661D01*
X171555110Y-20755134D01*
X171586431Y-20738393D01*
X171620409Y-20728085D01*
X171661890Y-20724000D01*
X172338110Y-20724000D01*
X172379591Y-20728085D01*
X172379591Y-20728085D01*
G37*
G36*
X158379591Y-20728085D02*
G01*
X158413569Y-20738393D01*
X158444890Y-20755134D01*
X158472339Y-20777661D01*
X158494866Y-20805110D01*
X158511607Y-20836431D01*
X158521915Y-20870409D01*
X158526000Y-20911890D01*
X158526000Y-21513110D01*
X158521915Y-21554591D01*
X158511607Y-21588569D01*
X158494866Y-21619890D01*
X158472339Y-21647339D01*
X158444890Y-21669866D01*
X158413569Y-21686607D01*
X158379591Y-21696915D01*
X158338110Y-21701000D01*
X157661890Y-21701000D01*
X157620409Y-21696915D01*
X157586431Y-21686607D01*
X157555110Y-21669866D01*
X157527661Y-21647339D01*
X157505134Y-21619890D01*
X157488393Y-21588569D01*
X157478085Y-21554591D01*
X157474000Y-21513110D01*
X157474000Y-20911890D01*
X157478085Y-20870409D01*
X157488393Y-20836431D01*
X157505134Y-20805110D01*
X157527661Y-20777661D01*
X157555110Y-20755134D01*
X157586431Y-20738393D01*
X157620409Y-20728085D01*
X157661890Y-20724000D01*
X158338110Y-20724000D01*
X158379591Y-20728085D01*
X158379591Y-20728085D01*
G37*
G36*
X162379591Y-20728085D02*
G01*
X162413569Y-20738393D01*
X162444890Y-20755134D01*
X162472339Y-20777661D01*
X162494866Y-20805110D01*
X162511607Y-20836431D01*
X162521915Y-20870409D01*
X162526000Y-20911890D01*
X162526000Y-21513110D01*
X162521915Y-21554591D01*
X162511607Y-21588569D01*
X162494866Y-21619890D01*
X162472339Y-21647339D01*
X162444890Y-21669866D01*
X162413569Y-21686607D01*
X162379591Y-21696915D01*
X162338110Y-21701000D01*
X161661890Y-21701000D01*
X161620409Y-21696915D01*
X161586431Y-21686607D01*
X161555110Y-21669866D01*
X161527661Y-21647339D01*
X161505134Y-21619890D01*
X161488393Y-21588569D01*
X161478085Y-21554591D01*
X161474000Y-21513110D01*
X161474000Y-20911890D01*
X161478085Y-20870409D01*
X161488393Y-20836431D01*
X161505134Y-20805110D01*
X161527661Y-20777661D01*
X161555110Y-20755134D01*
X161586431Y-20738393D01*
X161620409Y-20728085D01*
X161661890Y-20724000D01*
X162338110Y-20724000D01*
X162379591Y-20728085D01*
X162379591Y-20728085D01*
G37*
G36*
X164379591Y-20728085D02*
G01*
X164413569Y-20738393D01*
X164444890Y-20755134D01*
X164472339Y-20777661D01*
X164494866Y-20805110D01*
X164511607Y-20836431D01*
X164521915Y-20870409D01*
X164526000Y-20911890D01*
X164526000Y-21513110D01*
X164521915Y-21554591D01*
X164511607Y-21588569D01*
X164494866Y-21619890D01*
X164472339Y-21647339D01*
X164444890Y-21669866D01*
X164413569Y-21686607D01*
X164379591Y-21696915D01*
X164338110Y-21701000D01*
X163661890Y-21701000D01*
X163620409Y-21696915D01*
X163586431Y-21686607D01*
X163555110Y-21669866D01*
X163527661Y-21647339D01*
X163505134Y-21619890D01*
X163488393Y-21588569D01*
X163478085Y-21554591D01*
X163474000Y-21513110D01*
X163474000Y-20911890D01*
X163478085Y-20870409D01*
X163488393Y-20836431D01*
X163505134Y-20805110D01*
X163527661Y-20777661D01*
X163555110Y-20755134D01*
X163586431Y-20738393D01*
X163620409Y-20728085D01*
X163661890Y-20724000D01*
X164338110Y-20724000D01*
X164379591Y-20728085D01*
X164379591Y-20728085D01*
G37*
G36*
X160379591Y-20728085D02*
G01*
X160413569Y-20738393D01*
X160444890Y-20755134D01*
X160472339Y-20777661D01*
X160494866Y-20805110D01*
X160511607Y-20836431D01*
X160521915Y-20870409D01*
X160526000Y-20911890D01*
X160526000Y-21513110D01*
X160521915Y-21554591D01*
X160511607Y-21588569D01*
X160494866Y-21619890D01*
X160472339Y-21647339D01*
X160444890Y-21669866D01*
X160413569Y-21686607D01*
X160379591Y-21696915D01*
X160338110Y-21701000D01*
X159661890Y-21701000D01*
X159620409Y-21696915D01*
X159586431Y-21686607D01*
X159555110Y-21669866D01*
X159527661Y-21647339D01*
X159505134Y-21619890D01*
X159488393Y-21588569D01*
X159478085Y-21554591D01*
X159474000Y-21513110D01*
X159474000Y-20911890D01*
X159478085Y-20870409D01*
X159488393Y-20836431D01*
X159505134Y-20805110D01*
X159527661Y-20777661D01*
X159555110Y-20755134D01*
X159586431Y-20738393D01*
X159620409Y-20728085D01*
X159661890Y-20724000D01*
X160338110Y-20724000D01*
X160379591Y-20728085D01*
X160379591Y-20728085D01*
G37*
G36*
X174379591Y-20728085D02*
G01*
X174413569Y-20738393D01*
X174444890Y-20755134D01*
X174472339Y-20777661D01*
X174494866Y-20805110D01*
X174511607Y-20836431D01*
X174521915Y-20870409D01*
X174526000Y-20911890D01*
X174526000Y-21513110D01*
X174521915Y-21554591D01*
X174511607Y-21588569D01*
X174494866Y-21619890D01*
X174472339Y-21647339D01*
X174444890Y-21669866D01*
X174413569Y-21686607D01*
X174379591Y-21696915D01*
X174338110Y-21701000D01*
X173661890Y-21701000D01*
X173620409Y-21696915D01*
X173586431Y-21686607D01*
X173555110Y-21669866D01*
X173527661Y-21647339D01*
X173505134Y-21619890D01*
X173488393Y-21588569D01*
X173478085Y-21554591D01*
X173474000Y-21513110D01*
X173474000Y-20911890D01*
X173478085Y-20870409D01*
X173488393Y-20836431D01*
X173505134Y-20805110D01*
X173527661Y-20777661D01*
X173555110Y-20755134D01*
X173586431Y-20738393D01*
X173620409Y-20728085D01*
X173661890Y-20724000D01*
X174338110Y-20724000D01*
X174379591Y-20728085D01*
X174379591Y-20728085D01*
G37*
G36*
X166379591Y-20728085D02*
G01*
X166413569Y-20738393D01*
X166444890Y-20755134D01*
X166472339Y-20777661D01*
X166494866Y-20805110D01*
X166511607Y-20836431D01*
X166521915Y-20870409D01*
X166526000Y-20911890D01*
X166526000Y-21513110D01*
X166521915Y-21554591D01*
X166511607Y-21588569D01*
X166494866Y-21619890D01*
X166472339Y-21647339D01*
X166444890Y-21669866D01*
X166413569Y-21686607D01*
X166379591Y-21696915D01*
X166338110Y-21701000D01*
X165661890Y-21701000D01*
X165620409Y-21696915D01*
X165586431Y-21686607D01*
X165555110Y-21669866D01*
X165527661Y-21647339D01*
X165505134Y-21619890D01*
X165488393Y-21588569D01*
X165478085Y-21554591D01*
X165474000Y-21513110D01*
X165474000Y-20911890D01*
X165478085Y-20870409D01*
X165488393Y-20836431D01*
X165505134Y-20805110D01*
X165527661Y-20777661D01*
X165555110Y-20755134D01*
X165586431Y-20738393D01*
X165620409Y-20728085D01*
X165661890Y-20724000D01*
X166338110Y-20724000D01*
X166379591Y-20728085D01*
X166379591Y-20728085D01*
G37*
G36*
X170379591Y-20728085D02*
G01*
X170413569Y-20738393D01*
X170444890Y-20755134D01*
X170472339Y-20777661D01*
X170494866Y-20805110D01*
X170511607Y-20836431D01*
X170521915Y-20870409D01*
X170526000Y-20911890D01*
X170526000Y-21513110D01*
X170521915Y-21554591D01*
X170511607Y-21588569D01*
X170494866Y-21619890D01*
X170472339Y-21647339D01*
X170444890Y-21669866D01*
X170413569Y-21686607D01*
X170379591Y-21696915D01*
X170338110Y-21701000D01*
X169661890Y-21701000D01*
X169620409Y-21696915D01*
X169586431Y-21686607D01*
X169555110Y-21669866D01*
X169527661Y-21647339D01*
X169505134Y-21619890D01*
X169488393Y-21588569D01*
X169478085Y-21554591D01*
X169474000Y-21513110D01*
X169474000Y-20911890D01*
X169478085Y-20870409D01*
X169488393Y-20836431D01*
X169505134Y-20805110D01*
X169527661Y-20777661D01*
X169555110Y-20755134D01*
X169586431Y-20738393D01*
X169620409Y-20728085D01*
X169661890Y-20724000D01*
X170338110Y-20724000D01*
X170379591Y-20728085D01*
X170379591Y-20728085D01*
G37*
G36*
X168379591Y-20728085D02*
G01*
X168413569Y-20738393D01*
X168444890Y-20755134D01*
X168472339Y-20777661D01*
X168494866Y-20805110D01*
X168511607Y-20836431D01*
X168521915Y-20870409D01*
X168526000Y-20911890D01*
X168526000Y-21513110D01*
X168521915Y-21554591D01*
X168511607Y-21588569D01*
X168494866Y-21619890D01*
X168472339Y-21647339D01*
X168444890Y-21669866D01*
X168413569Y-21686607D01*
X168379591Y-21696915D01*
X168338110Y-21701000D01*
X167661890Y-21701000D01*
X167620409Y-21696915D01*
X167586431Y-21686607D01*
X167555110Y-21669866D01*
X167527661Y-21647339D01*
X167505134Y-21619890D01*
X167488393Y-21588569D01*
X167478085Y-21554591D01*
X167474000Y-21513110D01*
X167474000Y-20911890D01*
X167478085Y-20870409D01*
X167488393Y-20836431D01*
X167505134Y-20805110D01*
X167527661Y-20777661D01*
X167555110Y-20755134D01*
X167586431Y-20738393D01*
X167620409Y-20728085D01*
X167661890Y-20724000D01*
X168338110Y-20724000D01*
X168379591Y-20728085D01*
X168379591Y-20728085D01*
G37*
G36*
X156379591Y-20728085D02*
G01*
X156413569Y-20738393D01*
X156444890Y-20755134D01*
X156472339Y-20777661D01*
X156494866Y-20805110D01*
X156511607Y-20836431D01*
X156521915Y-20870409D01*
X156526000Y-20911890D01*
X156526000Y-21513110D01*
X156521915Y-21554591D01*
X156511607Y-21588569D01*
X156494866Y-21619890D01*
X156472339Y-21647339D01*
X156444890Y-21669866D01*
X156413569Y-21686607D01*
X156379591Y-21696915D01*
X156338110Y-21701000D01*
X155661890Y-21701000D01*
X155620409Y-21696915D01*
X155586431Y-21686607D01*
X155555110Y-21669866D01*
X155527661Y-21647339D01*
X155505134Y-21619890D01*
X155488393Y-21588569D01*
X155478085Y-21554591D01*
X155474000Y-21513110D01*
X155474000Y-20911890D01*
X155478085Y-20870409D01*
X155488393Y-20836431D01*
X155505134Y-20805110D01*
X155527661Y-20777661D01*
X155555110Y-20755134D01*
X155586431Y-20738393D01*
X155620409Y-20728085D01*
X155661890Y-20724000D01*
X156338110Y-20724000D01*
X156379591Y-20728085D01*
X156379591Y-20728085D01*
G37*
M02*
