G04 #@! TF.GenerationSoftware,KiCad,Pcbnew,(5.1.0)-1*
G04 #@! TF.CreationDate,2019-09-18T00:43:19-07:00*
G04 #@! TF.ProjectId,design,64657369-676e-42e6-9b69-6361645f7063,rev?*
G04 #@! TF.SameCoordinates,Original*
G04 #@! TF.FileFunction,Legend,Top*
G04 #@! TF.FilePolarity,Positive*
%FSLAX46Y46*%
G04 Gerber Fmt 4.6, Leading zero omitted, Abs format (unit mm)*
G04 Created by KiCad (PCBNEW (5.1.0)-1) date 2019-09-18 00:43:19*
%MOMM*%
%LPD*%
G04 APERTURE LIST*
%ADD10C,0.300000*%
%ADD11C,0.250000*%
%ADD12C,0.120000*%
%ADD13C,0.150000*%
%ADD14C,0.203200*%
%ADD15C,0.100000*%
%ADD16C,0.152400*%
G04 APERTURE END LIST*
D10*
X221000000Y-17995714D02*
X221000000Y-18210000D01*
X221000000Y-18495714D02*
X221000000Y-18638571D01*
X221000000Y-18924285D02*
X221000000Y-19138571D01*
X221238095Y-18852857D02*
X221000000Y-19138571D01*
X220761904Y-18852857D01*
X233700000Y-19138571D02*
X233700000Y-18924285D01*
X233700000Y-18638571D02*
X233700000Y-18495714D01*
X233700000Y-18210000D02*
X233700000Y-17995714D01*
X233461904Y-18281428D02*
X233700000Y-17995714D01*
X233938095Y-18281428D01*
X231160000Y-17995714D02*
X231160000Y-19138571D01*
X231398095Y-18852857D02*
X231160000Y-19138571D01*
X230921904Y-18852857D01*
X228620000Y-19138571D02*
X228620000Y-17995714D01*
X228381904Y-18281428D02*
X228620000Y-17995714D01*
X228858095Y-18281428D01*
X223063809Y-18567142D02*
X224016190Y-18567142D01*
X223540000Y-19138571D02*
X223540000Y-17995714D01*
X225484761Y-18281428D02*
X226675238Y-18281428D01*
X225722857Y-18710000D02*
X226437142Y-18710000D01*
X226080000Y-17638571D02*
X226080000Y-18281428D01*
X226199047Y-19138571D02*
X225960952Y-19138571D01*
D11*
X113607142Y-47599404D02*
X113678571Y-47420833D01*
X113678571Y-47123214D01*
X113607142Y-47004166D01*
X113535714Y-46944642D01*
X113392857Y-46885119D01*
X113250000Y-46885119D01*
X113107142Y-46944642D01*
X113035714Y-47004166D01*
X112964285Y-47123214D01*
X112892857Y-47361309D01*
X112821428Y-47480357D01*
X112750000Y-47539880D01*
X112607142Y-47599404D01*
X112464285Y-47599404D01*
X112321428Y-47539880D01*
X112250000Y-47480357D01*
X112178571Y-47361309D01*
X112178571Y-47063690D01*
X112250000Y-46885119D01*
X113607142Y-45873214D02*
X113678571Y-45992261D01*
X113678571Y-46230357D01*
X113607142Y-46349404D01*
X113464285Y-46408928D01*
X112892857Y-46408928D01*
X112750000Y-46349404D01*
X112678571Y-46230357D01*
X112678571Y-45992261D01*
X112750000Y-45873214D01*
X112892857Y-45813690D01*
X113035714Y-45813690D01*
X113178571Y-46408928D01*
X112678571Y-45277976D02*
X114178571Y-45277976D01*
X112750000Y-45277976D02*
X112678571Y-45158928D01*
X112678571Y-44920833D01*
X112750000Y-44801785D01*
X112821428Y-44742261D01*
X112964285Y-44682738D01*
X113392857Y-44682738D01*
X113535714Y-44742261D01*
X113607142Y-44801785D01*
X113678571Y-44920833D01*
X113678571Y-45158928D01*
X113607142Y-45277976D01*
X112321428Y-43254166D02*
X112250000Y-43194642D01*
X112178571Y-43075595D01*
X112178571Y-42777976D01*
X112250000Y-42658928D01*
X112321428Y-42599404D01*
X112464285Y-42539880D01*
X112607142Y-42539880D01*
X112821428Y-42599404D01*
X113678571Y-43313690D01*
X113678571Y-42539880D01*
X112178571Y-41766071D02*
X112178571Y-41647023D01*
X112250000Y-41527976D01*
X112321428Y-41468452D01*
X112464285Y-41408928D01*
X112750000Y-41349404D01*
X113107142Y-41349404D01*
X113392857Y-41408928D01*
X113535714Y-41468452D01*
X113607142Y-41527976D01*
X113678571Y-41647023D01*
X113678571Y-41766071D01*
X113607142Y-41885119D01*
X113535714Y-41944642D01*
X113392857Y-42004166D01*
X113107142Y-42063690D01*
X112750000Y-42063690D01*
X112464285Y-42004166D01*
X112321428Y-41944642D01*
X112250000Y-41885119D01*
X112178571Y-41766071D01*
X113678571Y-40158928D02*
X113678571Y-40873214D01*
X113678571Y-40516071D02*
X112178571Y-40516071D01*
X112392857Y-40635119D01*
X112535714Y-40754166D01*
X112607142Y-40873214D01*
X113678571Y-39563690D02*
X113678571Y-39325595D01*
X113607142Y-39206547D01*
X113535714Y-39147023D01*
X113321428Y-39027976D01*
X113035714Y-38968452D01*
X112464285Y-38968452D01*
X112321428Y-39027976D01*
X112250000Y-39087500D01*
X112178571Y-39206547D01*
X112178571Y-39444642D01*
X112250000Y-39563690D01*
X112321428Y-39623214D01*
X112464285Y-39682738D01*
X112821428Y-39682738D01*
X112964285Y-39623214D01*
X113035714Y-39563690D01*
X113107142Y-39444642D01*
X113107142Y-39206547D01*
X113035714Y-39087500D01*
X112964285Y-39027976D01*
X112821428Y-38968452D01*
X114250000Y-37123214D02*
X114178571Y-37182738D01*
X113964285Y-37301785D01*
X113821428Y-37361309D01*
X113607142Y-37420833D01*
X113250000Y-37480357D01*
X112964285Y-37480357D01*
X112607142Y-37420833D01*
X112392857Y-37361309D01*
X112250000Y-37301785D01*
X112035714Y-37182738D01*
X111964285Y-37123214D01*
X113678571Y-36647023D02*
X112678571Y-36647023D01*
X112964285Y-36647023D02*
X112821428Y-36587500D01*
X112750000Y-36527976D01*
X112678571Y-36408928D01*
X112678571Y-36289880D01*
X112678571Y-35992261D02*
X113678571Y-35694642D01*
X112678571Y-35397023D01*
X113678571Y-34266071D02*
X113678571Y-34980357D01*
X113678571Y-34623214D02*
X112178571Y-34623214D01*
X112392857Y-34742261D01*
X112535714Y-34861309D01*
X112607142Y-34980357D01*
X114250000Y-33849404D02*
X114178571Y-33789880D01*
X113964285Y-33670833D01*
X113821428Y-33611309D01*
X113607142Y-33551785D01*
X113250000Y-33492261D01*
X112964285Y-33492261D01*
X112607142Y-33551785D01*
X112392857Y-33611309D01*
X112250000Y-33670833D01*
X112035714Y-33789880D01*
X111964285Y-33849404D01*
X110678571Y-47539880D02*
X109178571Y-47539880D01*
X109178571Y-47242261D01*
X109250000Y-47063690D01*
X109392857Y-46944642D01*
X109535714Y-46885119D01*
X109821428Y-46825595D01*
X110035714Y-46825595D01*
X110321428Y-46885119D01*
X110464285Y-46944642D01*
X110607142Y-47063690D01*
X110678571Y-47242261D01*
X110678571Y-47539880D01*
X110678571Y-45754166D02*
X109892857Y-45754166D01*
X109750000Y-45813690D01*
X109678571Y-45932738D01*
X109678571Y-46170833D01*
X109750000Y-46289880D01*
X110607142Y-45754166D02*
X110678571Y-45873214D01*
X110678571Y-46170833D01*
X110607142Y-46289880D01*
X110464285Y-46349404D01*
X110321428Y-46349404D01*
X110178571Y-46289880D01*
X110107142Y-46170833D01*
X110107142Y-45873214D01*
X110035714Y-45754166D01*
X109678571Y-45337500D02*
X109678571Y-44861309D01*
X109178571Y-45158928D02*
X110464285Y-45158928D01*
X110607142Y-45099404D01*
X110678571Y-44980357D01*
X110678571Y-44861309D01*
X110678571Y-43908928D02*
X109892857Y-43908928D01*
X109750000Y-43968452D01*
X109678571Y-44087500D01*
X109678571Y-44325595D01*
X109750000Y-44444642D01*
X110607142Y-43908928D02*
X110678571Y-44027976D01*
X110678571Y-44325595D01*
X110607142Y-44444642D01*
X110464285Y-44504166D01*
X110321428Y-44504166D01*
X110178571Y-44444642D01*
X110107142Y-44325595D01*
X110107142Y-44027976D01*
X110035714Y-43908928D01*
X110678571Y-43135119D02*
X110607142Y-43254166D01*
X110464285Y-43313690D01*
X109178571Y-43313690D01*
X110678571Y-42480357D02*
X110607142Y-42599404D01*
X110535714Y-42658928D01*
X110392857Y-42718452D01*
X109964285Y-42718452D01*
X109821428Y-42658928D01*
X109750000Y-42599404D01*
X109678571Y-42480357D01*
X109678571Y-42301785D01*
X109750000Y-42182738D01*
X109821428Y-42123214D01*
X109964285Y-42063690D01*
X110392857Y-42063690D01*
X110535714Y-42123214D01*
X110607142Y-42182738D01*
X110678571Y-42301785D01*
X110678571Y-42480357D01*
X109678571Y-40992261D02*
X110892857Y-40992261D01*
X111035714Y-41051785D01*
X111107142Y-41111309D01*
X111178571Y-41230357D01*
X111178571Y-41408928D01*
X111107142Y-41527976D01*
X110607142Y-40992261D02*
X110678571Y-41111309D01*
X110678571Y-41349404D01*
X110607142Y-41468452D01*
X110535714Y-41527976D01*
X110392857Y-41587500D01*
X109964285Y-41587500D01*
X109821428Y-41527976D01*
X109750000Y-41468452D01*
X109678571Y-41349404D01*
X109678571Y-41111309D01*
X109750000Y-40992261D01*
X109678571Y-39861309D02*
X110892857Y-39861309D01*
X111035714Y-39920833D01*
X111107142Y-39980357D01*
X111178571Y-40099404D01*
X111178571Y-40277976D01*
X111107142Y-40397023D01*
X110607142Y-39861309D02*
X110678571Y-39980357D01*
X110678571Y-40218452D01*
X110607142Y-40337500D01*
X110535714Y-40397023D01*
X110392857Y-40456547D01*
X109964285Y-40456547D01*
X109821428Y-40397023D01*
X109750000Y-40337500D01*
X109678571Y-40218452D01*
X109678571Y-39980357D01*
X109750000Y-39861309D01*
X110607142Y-38789880D02*
X110678571Y-38908928D01*
X110678571Y-39147023D01*
X110607142Y-39266071D01*
X110464285Y-39325595D01*
X109892857Y-39325595D01*
X109750000Y-39266071D01*
X109678571Y-39147023D01*
X109678571Y-38908928D01*
X109750000Y-38789880D01*
X109892857Y-38730357D01*
X110035714Y-38730357D01*
X110178571Y-39325595D01*
X110678571Y-38194642D02*
X109678571Y-38194642D01*
X109964285Y-38194642D02*
X109821428Y-38135119D01*
X109750000Y-38075595D01*
X109678571Y-37956547D01*
X109678571Y-37837500D01*
D12*
X146420000Y-52080000D02*
X143640000Y-52080000D01*
X142980000Y-52740000D02*
X143640000Y-52080000D01*
X142980000Y-52740000D02*
X142980000Y-64640000D01*
X146420000Y-58420000D02*
X146420000Y-52080000D01*
X146420000Y-81320000D02*
X146420000Y-61180000D01*
X117680000Y-52080000D02*
X121360000Y-52080000D01*
X122020000Y-52740000D02*
X121360000Y-52080000D01*
X122020000Y-52740000D02*
X122020000Y-64640000D01*
X117680000Y-59620000D02*
X117680000Y-52080000D01*
X141040000Y-66580000D02*
X123960000Y-66580000D01*
X141040000Y-66580000D02*
X142980000Y-64640000D01*
X123960000Y-66580000D02*
X122020000Y-64640000D01*
X117480000Y-71680000D02*
X117480000Y-81320000D01*
X117680000Y-71680000D02*
X117680000Y-62380000D01*
X146320000Y-81320000D02*
X146420000Y-81320000D01*
X117480000Y-81320000D02*
X122540000Y-81320000D01*
X123700000Y-81320000D02*
X125040000Y-81320000D01*
X126200000Y-81320000D02*
X127540000Y-81320000D01*
X128700000Y-81320000D02*
X129240000Y-81320000D01*
X130400000Y-81320000D02*
X130840000Y-81320000D01*
X132000000Y-81320000D02*
X132540000Y-81320000D01*
X133700000Y-81320000D02*
X135040000Y-81320000D01*
X136200000Y-81320000D02*
X137540000Y-81320000D01*
X138700000Y-81320000D02*
X139970000Y-81320000D01*
X141130000Y-81320000D02*
X141670000Y-81320000D01*
X142830000Y-81320000D02*
X145160000Y-81320000D01*
X117680000Y-71680000D02*
X117480000Y-71680000D01*
X181765000Y-53235000D02*
X178235000Y-53235000D01*
X181765000Y-46765000D02*
X178235000Y-46765000D01*
X183090000Y-53170000D02*
X181765000Y-53170000D01*
X181765000Y-53235000D02*
X181765000Y-53170000D01*
X178235000Y-53235000D02*
X178235000Y-53170000D01*
X181765000Y-46830000D02*
X181765000Y-46765000D01*
X178235000Y-46830000D02*
X178235000Y-46765000D01*
D13*
X218600000Y-84000000D02*
X231400000Y-84000000D01*
X231400000Y-84000000D02*
X231400000Y-76200000D01*
X231400000Y-76200000D02*
X218600000Y-76200000D01*
X218600000Y-76200000D02*
X218600000Y-84000000D01*
X178600000Y-78100000D02*
X181400000Y-78100000D01*
X178600000Y-78600000D02*
X178600000Y-78100000D01*
X178600000Y-79900000D02*
X181400000Y-79900000D01*
D12*
X190315000Y-64000000D02*
X190315000Y-67420000D01*
X190315000Y-67420000D02*
X190605000Y-67420000D01*
X190315000Y-64000000D02*
X190315000Y-60580000D01*
X190315000Y-60580000D02*
X190605000Y-60580000D01*
X199685000Y-64000000D02*
X199685000Y-67420000D01*
X199685000Y-67420000D02*
X199395000Y-67420000D01*
X199685000Y-64000000D02*
X199685000Y-60580000D01*
X199685000Y-60580000D02*
X199395000Y-60580000D01*
X199395000Y-60580000D02*
X199395000Y-58300000D01*
D13*
X186600000Y-84000000D02*
X203400000Y-84000000D01*
X203400000Y-84000000D02*
X203400000Y-76200000D01*
X203400000Y-76200000D02*
X186600000Y-76200000D01*
X186600000Y-76200000D02*
X186600000Y-84000000D01*
D14*
X197251480Y-49249640D02*
X194752120Y-49249640D01*
X194752120Y-49249640D02*
X194752120Y-28749300D01*
X194752120Y-28749300D02*
X197251480Y-28749300D01*
X197251480Y-49249640D02*
X197251480Y-28749300D01*
X216748520Y-49249640D02*
X219247880Y-49249640D01*
X219247880Y-49249640D02*
X219247880Y-28749300D01*
X219247880Y-28749300D02*
X216748520Y-28749300D01*
X216748520Y-49249640D02*
X216748520Y-28749300D01*
D12*
X191265000Y-38200000D02*
X191265000Y-40485000D01*
X191265000Y-40485000D02*
X192735000Y-40485000D01*
X192735000Y-40485000D02*
X192735000Y-38200000D01*
X220800262Y-39015231D02*
G75*
G02X248350000Y-35480000I13999738J15231D01*
G01*
X220800262Y-38984769D02*
G75*
G03X248350000Y-42520000I13999738J-15231D01*
G01*
X248345231Y-35456515D02*
G75*
G03X249050000Y-35950000I704769J256515D01*
G01*
X248345231Y-42543485D02*
G75*
G02X249050000Y-42050000I704769J-256515D01*
G01*
X249050000Y-42050000D02*
X251500000Y-42050000D01*
X251500000Y-35950000D02*
X249050000Y-35950000D01*
X251500000Y-42050000D02*
G75*
G03X252050000Y-41500000I0J550000D01*
G01*
X251500000Y-35950000D02*
G75*
G02X252050000Y-36500000I0J-550000D01*
G01*
X252050000Y-41500000D02*
X252050000Y-36500000D01*
X158840000Y-18700000D02*
X157350000Y-18700000D01*
X157350000Y-18700000D02*
X157350000Y-20040000D01*
X171160000Y-18700000D02*
X172650000Y-18700000D01*
X172650000Y-18700000D02*
X172650000Y-20040000D01*
X157350000Y-22760000D02*
X157350000Y-24500000D01*
X157350000Y-24500000D02*
X172650000Y-24500000D01*
X172650000Y-24500000D02*
X172650000Y-22760000D01*
X158840000Y-18700000D02*
X158840000Y-17500000D01*
X252120000Y-61000000D02*
G75*
G03X252120000Y-61000000I-7120000J0D01*
G01*
X252080000Y-61000000D02*
X237920000Y-61000000D01*
X252080000Y-61040000D02*
X237920000Y-61040000D01*
X252080000Y-61080000D02*
X237920000Y-61080000D01*
X252079000Y-61120000D02*
X237921000Y-61120000D01*
X252079000Y-61160000D02*
X237921000Y-61160000D01*
X252078000Y-61200000D02*
X237922000Y-61200000D01*
X252076000Y-61240000D02*
X237924000Y-61240000D01*
X252075000Y-61280000D02*
X237925000Y-61280000D01*
X252073000Y-61320000D02*
X237927000Y-61320000D01*
X252071000Y-61360000D02*
X237929000Y-61360000D01*
X252069000Y-61400000D02*
X237931000Y-61400000D01*
X252067000Y-61440000D02*
X237933000Y-61440000D01*
X252064000Y-61480000D02*
X237936000Y-61480000D01*
X252061000Y-61520000D02*
X237939000Y-61520000D01*
X252058000Y-61560000D02*
X237942000Y-61560000D01*
X252055000Y-61600000D02*
X237945000Y-61600000D01*
X252052000Y-61640000D02*
X237948000Y-61640000D01*
X252048000Y-61680000D02*
X237952000Y-61680000D01*
X252044000Y-61721000D02*
X237956000Y-61721000D01*
X252040000Y-61761000D02*
X237960000Y-61761000D01*
X252035000Y-61801000D02*
X237965000Y-61801000D01*
X252031000Y-61841000D02*
X237969000Y-61841000D01*
X252026000Y-61881000D02*
X237974000Y-61881000D01*
X252021000Y-61921000D02*
X237979000Y-61921000D01*
X252015000Y-61961000D02*
X237985000Y-61961000D01*
X252010000Y-62001000D02*
X237990000Y-62001000D01*
X252004000Y-62041000D02*
X237996000Y-62041000D01*
X251998000Y-62081000D02*
X246440000Y-62081000D01*
X243560000Y-62081000D02*
X238002000Y-62081000D01*
X251992000Y-62121000D02*
X246440000Y-62121000D01*
X243560000Y-62121000D02*
X238008000Y-62121000D01*
X251985000Y-62161000D02*
X246440000Y-62161000D01*
X243560000Y-62161000D02*
X238015000Y-62161000D01*
X251979000Y-62201000D02*
X246440000Y-62201000D01*
X243560000Y-62201000D02*
X238021000Y-62201000D01*
X251972000Y-62241000D02*
X246440000Y-62241000D01*
X243560000Y-62241000D02*
X238028000Y-62241000D01*
X251964000Y-62281000D02*
X246440000Y-62281000D01*
X243560000Y-62281000D02*
X238036000Y-62281000D01*
X251957000Y-62321000D02*
X246440000Y-62321000D01*
X243560000Y-62321000D02*
X238043000Y-62321000D01*
X251949000Y-62361000D02*
X246440000Y-62361000D01*
X243560000Y-62361000D02*
X238051000Y-62361000D01*
X251942000Y-62401000D02*
X246440000Y-62401000D01*
X243560000Y-62401000D02*
X238058000Y-62401000D01*
X251933000Y-62441000D02*
X246440000Y-62441000D01*
X243560000Y-62441000D02*
X238067000Y-62441000D01*
X251925000Y-62481000D02*
X246440000Y-62481000D01*
X243560000Y-62481000D02*
X238075000Y-62481000D01*
X251916000Y-62521000D02*
X246440000Y-62521000D01*
X243560000Y-62521000D02*
X238084000Y-62521000D01*
X251907000Y-62561000D02*
X246440000Y-62561000D01*
X243560000Y-62561000D02*
X238093000Y-62561000D01*
X251898000Y-62601000D02*
X246440000Y-62601000D01*
X243560000Y-62601000D02*
X238102000Y-62601000D01*
X251889000Y-62641000D02*
X246440000Y-62641000D01*
X243560000Y-62641000D02*
X238111000Y-62641000D01*
X251879000Y-62681000D02*
X246440000Y-62681000D01*
X243560000Y-62681000D02*
X238121000Y-62681000D01*
X251870000Y-62721000D02*
X246440000Y-62721000D01*
X243560000Y-62721000D02*
X238130000Y-62721000D01*
X251860000Y-62761000D02*
X246440000Y-62761000D01*
X243560000Y-62761000D02*
X238140000Y-62761000D01*
X251849000Y-62801000D02*
X246440000Y-62801000D01*
X243560000Y-62801000D02*
X238151000Y-62801000D01*
X251839000Y-62841000D02*
X246440000Y-62841000D01*
X243560000Y-62841000D02*
X238161000Y-62841000D01*
X251828000Y-62881000D02*
X246440000Y-62881000D01*
X243560000Y-62881000D02*
X238172000Y-62881000D01*
X251817000Y-62921000D02*
X246440000Y-62921000D01*
X243560000Y-62921000D02*
X238183000Y-62921000D01*
X251805000Y-62961000D02*
X246440000Y-62961000D01*
X243560000Y-62961000D02*
X238195000Y-62961000D01*
X251794000Y-63001000D02*
X246440000Y-63001000D01*
X243560000Y-63001000D02*
X238206000Y-63001000D01*
X251782000Y-63041000D02*
X246440000Y-63041000D01*
X243560000Y-63041000D02*
X238218000Y-63041000D01*
X251770000Y-63081000D02*
X246440000Y-63081000D01*
X243560000Y-63081000D02*
X238230000Y-63081000D01*
X251758000Y-63121000D02*
X246440000Y-63121000D01*
X243560000Y-63121000D02*
X238242000Y-63121000D01*
X251745000Y-63161000D02*
X246440000Y-63161000D01*
X243560000Y-63161000D02*
X238255000Y-63161000D01*
X251732000Y-63201000D02*
X246440000Y-63201000D01*
X243560000Y-63201000D02*
X238268000Y-63201000D01*
X251719000Y-63241000D02*
X246440000Y-63241000D01*
X243560000Y-63241000D02*
X238281000Y-63241000D01*
X251706000Y-63281000D02*
X246440000Y-63281000D01*
X243560000Y-63281000D02*
X238294000Y-63281000D01*
X251692000Y-63321000D02*
X246440000Y-63321000D01*
X243560000Y-63321000D02*
X238308000Y-63321000D01*
X251678000Y-63361000D02*
X246440000Y-63361000D01*
X243560000Y-63361000D02*
X238322000Y-63361000D01*
X251664000Y-63401000D02*
X246440000Y-63401000D01*
X243560000Y-63401000D02*
X238336000Y-63401000D01*
X251649000Y-63441000D02*
X246440000Y-63441000D01*
X243560000Y-63441000D02*
X238351000Y-63441000D01*
X251635000Y-63481000D02*
X246440000Y-63481000D01*
X243560000Y-63481000D02*
X238365000Y-63481000D01*
X251620000Y-63521000D02*
X246440000Y-63521000D01*
X243560000Y-63521000D02*
X238380000Y-63521000D01*
X251604000Y-63561000D02*
X246440000Y-63561000D01*
X243560000Y-63561000D02*
X238396000Y-63561000D01*
X251589000Y-63601000D02*
X246440000Y-63601000D01*
X243560000Y-63601000D02*
X238411000Y-63601000D01*
X251573000Y-63641000D02*
X246440000Y-63641000D01*
X243560000Y-63641000D02*
X238427000Y-63641000D01*
X251557000Y-63681000D02*
X246440000Y-63681000D01*
X243560000Y-63681000D02*
X238443000Y-63681000D01*
X251540000Y-63721000D02*
X246440000Y-63721000D01*
X243560000Y-63721000D02*
X238460000Y-63721000D01*
X251524000Y-63761000D02*
X246440000Y-63761000D01*
X243560000Y-63761000D02*
X238476000Y-63761000D01*
X251507000Y-63801000D02*
X246440000Y-63801000D01*
X243560000Y-63801000D02*
X238493000Y-63801000D01*
X251490000Y-63841000D02*
X246440000Y-63841000D01*
X243560000Y-63841000D02*
X238510000Y-63841000D01*
X251472000Y-63881000D02*
X246440000Y-63881000D01*
X243560000Y-63881000D02*
X238528000Y-63881000D01*
X251454000Y-63921000D02*
X246440000Y-63921000D01*
X243560000Y-63921000D02*
X238546000Y-63921000D01*
X251436000Y-63961000D02*
X246440000Y-63961000D01*
X243560000Y-63961000D02*
X238564000Y-63961000D01*
X251418000Y-64001000D02*
X246440000Y-64001000D01*
X243560000Y-64001000D02*
X238582000Y-64001000D01*
X251399000Y-64041000D02*
X246440000Y-64041000D01*
X243560000Y-64041000D02*
X238601000Y-64041000D01*
X251380000Y-64081000D02*
X246440000Y-64081000D01*
X243560000Y-64081000D02*
X238620000Y-64081000D01*
X251360000Y-64121000D02*
X246440000Y-64121000D01*
X243560000Y-64121000D02*
X238640000Y-64121000D01*
X251341000Y-64161000D02*
X246440000Y-64161000D01*
X243560000Y-64161000D02*
X238659000Y-64161000D01*
X251321000Y-64201000D02*
X246440000Y-64201000D01*
X243560000Y-64201000D02*
X238679000Y-64201000D01*
X251301000Y-64241000D02*
X246440000Y-64241000D01*
X243560000Y-64241000D02*
X238699000Y-64241000D01*
X251280000Y-64281000D02*
X246440000Y-64281000D01*
X243560000Y-64281000D02*
X238720000Y-64281000D01*
X251259000Y-64321000D02*
X246440000Y-64321000D01*
X243560000Y-64321000D02*
X238741000Y-64321000D01*
X251238000Y-64361000D02*
X246440000Y-64361000D01*
X243560000Y-64361000D02*
X238762000Y-64361000D01*
X251216000Y-64401000D02*
X246440000Y-64401000D01*
X243560000Y-64401000D02*
X238784000Y-64401000D01*
X251194000Y-64441000D02*
X246440000Y-64441000D01*
X243560000Y-64441000D02*
X238806000Y-64441000D01*
X251172000Y-64481000D02*
X246440000Y-64481000D01*
X243560000Y-64481000D02*
X238828000Y-64481000D01*
X251150000Y-64521000D02*
X246440000Y-64521000D01*
X243560000Y-64521000D02*
X238850000Y-64521000D01*
X251127000Y-64561000D02*
X246440000Y-64561000D01*
X243560000Y-64561000D02*
X238873000Y-64561000D01*
X251103000Y-64601000D02*
X246440000Y-64601000D01*
X243560000Y-64601000D02*
X238897000Y-64601000D01*
X251080000Y-64641000D02*
X246440000Y-64641000D01*
X243560000Y-64641000D02*
X238920000Y-64641000D01*
X251056000Y-64681000D02*
X246440000Y-64681000D01*
X243560000Y-64681000D02*
X238944000Y-64681000D01*
X251031000Y-64721000D02*
X246440000Y-64721000D01*
X243560000Y-64721000D02*
X238969000Y-64721000D01*
X251007000Y-64761000D02*
X246440000Y-64761000D01*
X243560000Y-64761000D02*
X238993000Y-64761000D01*
X250982000Y-64801000D02*
X246440000Y-64801000D01*
X243560000Y-64801000D02*
X239018000Y-64801000D01*
X250956000Y-64841000D02*
X246440000Y-64841000D01*
X243560000Y-64841000D02*
X239044000Y-64841000D01*
X250930000Y-64881000D02*
X246440000Y-64881000D01*
X243560000Y-64881000D02*
X239070000Y-64881000D01*
X250904000Y-64921000D02*
X246440000Y-64921000D01*
X243560000Y-64921000D02*
X239096000Y-64921000D01*
X250878000Y-64961000D02*
X239122000Y-64961000D01*
X250851000Y-65001000D02*
X239149000Y-65001000D01*
X250823000Y-65041000D02*
X239177000Y-65041000D01*
X250796000Y-65081000D02*
X239204000Y-65081000D01*
X250767000Y-65121000D02*
X239233000Y-65121000D01*
X250739000Y-65161000D02*
X239261000Y-65161000D01*
X250710000Y-65201000D02*
X239290000Y-65201000D01*
X250680000Y-65241000D02*
X239320000Y-65241000D01*
X250650000Y-65281000D02*
X239350000Y-65281000D01*
X250620000Y-65321000D02*
X239380000Y-65321000D01*
X250589000Y-65361000D02*
X239411000Y-65361000D01*
X250558000Y-65401000D02*
X239442000Y-65401000D01*
X250527000Y-65441000D02*
X239473000Y-65441000D01*
X250494000Y-65481000D02*
X239506000Y-65481000D01*
X250462000Y-65521000D02*
X239538000Y-65521000D01*
X250429000Y-65561000D02*
X239571000Y-65561000D01*
X250395000Y-65601000D02*
X239605000Y-65601000D01*
X250361000Y-65641000D02*
X239639000Y-65641000D01*
X250326000Y-65681000D02*
X239674000Y-65681000D01*
X250291000Y-65721000D02*
X239709000Y-65721000D01*
X250255000Y-65761000D02*
X239745000Y-65761000D01*
X250219000Y-65801000D02*
X239781000Y-65801000D01*
X250182000Y-65841000D02*
X239818000Y-65841000D01*
X250145000Y-65881000D02*
X239855000Y-65881000D01*
X250107000Y-65921000D02*
X239893000Y-65921000D01*
X250069000Y-65961000D02*
X239931000Y-65961000D01*
X250029000Y-66001000D02*
X239971000Y-66001000D01*
X249990000Y-66041000D02*
X240010000Y-66041000D01*
X249949000Y-66081000D02*
X240051000Y-66081000D01*
X249908000Y-66121000D02*
X240092000Y-66121000D01*
X249866000Y-66161000D02*
X240134000Y-66161000D01*
X249824000Y-66201000D02*
X240176000Y-66201000D01*
X249781000Y-66241000D02*
X240219000Y-66241000D01*
X249737000Y-66281000D02*
X240263000Y-66281000D01*
X249693000Y-66321000D02*
X240307000Y-66321000D01*
X249647000Y-66361000D02*
X240353000Y-66361000D01*
X249601000Y-66401000D02*
X240399000Y-66401000D01*
X249554000Y-66441000D02*
X240446000Y-66441000D01*
X249506000Y-66481000D02*
X240494000Y-66481000D01*
X249458000Y-66521000D02*
X240542000Y-66521000D01*
X249408000Y-66561000D02*
X240592000Y-66561000D01*
X249358000Y-66601000D02*
X240642000Y-66601000D01*
X249306000Y-66641000D02*
X240694000Y-66641000D01*
X249254000Y-66681000D02*
X240746000Y-66681000D01*
X249200000Y-66721000D02*
X240800000Y-66721000D01*
X249146000Y-66761000D02*
X240854000Y-66761000D01*
X249090000Y-66801000D02*
X240910000Y-66801000D01*
X249033000Y-66841000D02*
X240967000Y-66841000D01*
X248975000Y-66881000D02*
X241025000Y-66881000D01*
X248916000Y-66921000D02*
X241084000Y-66921000D01*
X248856000Y-66961000D02*
X241144000Y-66961000D01*
X248794000Y-67001000D02*
X241206000Y-67001000D01*
X248730000Y-67041000D02*
X241270000Y-67041000D01*
X248666000Y-67081000D02*
X241334000Y-67081000D01*
X248599000Y-67121000D02*
X241401000Y-67121000D01*
X248531000Y-67161000D02*
X241469000Y-67161000D01*
X248461000Y-67201000D02*
X241539000Y-67201000D01*
X248389000Y-67241000D02*
X241611000Y-67241000D01*
X248315000Y-67281000D02*
X241685000Y-67281000D01*
X248240000Y-67321000D02*
X241760000Y-67321000D01*
X248161000Y-67361000D02*
X241839000Y-67361000D01*
X248080000Y-67401000D02*
X241920000Y-67401000D01*
X247997000Y-67441000D02*
X242003000Y-67441000D01*
X247911000Y-67481000D02*
X242089000Y-67481000D01*
X247821000Y-67521000D02*
X242179000Y-67521000D01*
X247728000Y-67561000D02*
X242272000Y-67561000D01*
X247632000Y-67601000D02*
X242368000Y-67601000D01*
X247530000Y-67641000D02*
X242470000Y-67641000D01*
X247425000Y-67681000D02*
X242575000Y-67681000D01*
X247313000Y-67721000D02*
X242687000Y-67721000D01*
X247196000Y-67761000D02*
X242804000Y-67761000D01*
X247071000Y-67801000D02*
X242929000Y-67801000D01*
X246938000Y-67841000D02*
X243062000Y-67841000D01*
X246794000Y-67881000D02*
X243206000Y-67881000D01*
X246636000Y-67921000D02*
X243364000Y-67921000D01*
X246461000Y-67961000D02*
X243539000Y-67961000D01*
X246262000Y-68001000D02*
X243738000Y-68001000D01*
X246025000Y-68041000D02*
X243975000Y-68041000D01*
X245714000Y-68081000D02*
X244286000Y-68081000D01*
X248995000Y-53380457D02*
X248995000Y-54780457D01*
X249695000Y-54080457D02*
X248295000Y-54080457D01*
X226900000Y-70150000D02*
X226900000Y-63850000D01*
X233100000Y-70150000D02*
X233100000Y-63850000D01*
X228090000Y-53590000D02*
X228090000Y-54850000D01*
X228090000Y-60410000D02*
X228090000Y-59150000D01*
X231850000Y-53590000D02*
X228090000Y-53590000D01*
X234100000Y-60410000D02*
X228090000Y-60410000D01*
X164328249Y-56554880D02*
X165000000Y-57226631D01*
X165000000Y-57226631D02*
X165671751Y-56554880D01*
X158445120Y-50671751D02*
X157773369Y-50000000D01*
X157773369Y-50000000D02*
X158445120Y-49328249D01*
X171554880Y-49328249D02*
X172226631Y-50000000D01*
X172226631Y-50000000D02*
X171554880Y-50671751D01*
X165671751Y-43445120D02*
X165000000Y-42773369D01*
X165000000Y-42773369D02*
X164328249Y-43445120D01*
X164328249Y-43445120D02*
X163380725Y-42497597D01*
D13*
X148600000Y-79900000D02*
X151400000Y-79900000D01*
X148600000Y-78600000D02*
X148600000Y-78100000D01*
X148600000Y-78100000D02*
X151400000Y-78100000D01*
X178600000Y-58100000D02*
X181400000Y-58100000D01*
X178600000Y-58600000D02*
X178600000Y-58100000D01*
X178600000Y-59900000D02*
X181400000Y-59900000D01*
D12*
X235030000Y-22330000D02*
X235030000Y-19670000D01*
X222270000Y-22330000D02*
X235030000Y-22330000D01*
X222270000Y-19670000D02*
X235030000Y-19670000D01*
X222270000Y-22330000D02*
X222270000Y-19670000D01*
X221000000Y-22330000D02*
X219670000Y-22330000D01*
X219670000Y-22330000D02*
X219670000Y-21000000D01*
X178430000Y-62930000D02*
X178730000Y-62930000D01*
X181570000Y-67070000D02*
X181270000Y-67070000D01*
X178730000Y-67070000D02*
X178430000Y-67070000D01*
X181570000Y-62930000D02*
X181570000Y-67070000D01*
X181270000Y-62930000D02*
X181570000Y-62930000D01*
X178430000Y-67070000D02*
X178430000Y-62930000D01*
X148430000Y-67070000D02*
X148430000Y-62930000D01*
X151270000Y-62930000D02*
X151570000Y-62930000D01*
X151570000Y-62930000D02*
X151570000Y-67070000D01*
X148730000Y-67070000D02*
X148430000Y-67070000D01*
X151570000Y-67070000D02*
X151270000Y-67070000D01*
X148430000Y-62930000D02*
X148730000Y-62930000D01*
D15*
X160680000Y-83600000D02*
X160680000Y-85100000D01*
X160680000Y-85100000D02*
X169320000Y-85100000D01*
X169320000Y-85100000D02*
X169320000Y-83600000D01*
X121450000Y-21000000D02*
G75*
G03X121450000Y-21000000I-2250000J0D01*
G01*
X243050000Y-79000000D02*
G75*
G03X243050000Y-79000000I-2250000J0D01*
G01*
X109000000Y-60500000D02*
X109250000Y-60750000D01*
X109250000Y-60750000D02*
X110250000Y-60750000D01*
X110250000Y-60750000D02*
X110500000Y-60500000D01*
X110500000Y-60250000D02*
X110500000Y-59750000D01*
X110500000Y-59500000D02*
X110250000Y-59250000D01*
X109250000Y-59250000D02*
X109000000Y-59500000D01*
X110250000Y-59250000D02*
X109250000Y-59250000D01*
X109000000Y-59500000D02*
X109000000Y-60500000D01*
X110500000Y-60500000D02*
X110750000Y-60750000D01*
X111750000Y-60750000D02*
X112000000Y-60500000D01*
X111750000Y-59250000D02*
X110750000Y-59250000D01*
X110750000Y-59250000D02*
X110500000Y-59500000D01*
X112000000Y-59500000D02*
X111750000Y-59250000D01*
X110750000Y-60750000D02*
X111750000Y-60750000D01*
X112000000Y-60250000D02*
X112000000Y-59750000D01*
X112000000Y-60500000D02*
X112250000Y-60750000D01*
X113250000Y-60750000D02*
X113500000Y-60500000D01*
X113250000Y-59250000D02*
X112250000Y-59250000D01*
X112250000Y-59250000D02*
X112000000Y-59500000D01*
X113500000Y-59500000D02*
X113250000Y-59250000D01*
X112250000Y-60750000D02*
X113250000Y-60750000D01*
X113500000Y-60250000D02*
X113500000Y-59750000D01*
X113500000Y-60500000D02*
X113750000Y-60750000D01*
X114750000Y-60750000D02*
X115000000Y-60500000D01*
X114750000Y-59250000D02*
X113750000Y-59250000D01*
X113750000Y-59250000D02*
X113500000Y-59500000D01*
X115000000Y-59500000D02*
X114750000Y-59250000D01*
X113750000Y-60750000D02*
X114750000Y-60750000D01*
X115000000Y-60500000D02*
X115000000Y-59500000D01*
X108500000Y-59250000D02*
X108750000Y-59500000D01*
X108750000Y-59500000D02*
X108500000Y-59750000D01*
X108500000Y-59750000D02*
X108500000Y-59250000D01*
X108750000Y-60500000D02*
X108500000Y-60750000D01*
X108500000Y-60750000D02*
X108500000Y-60250000D01*
X108500000Y-60250000D02*
X108750000Y-60500000D01*
X115500000Y-60000000D02*
X115250000Y-60250000D01*
X115250000Y-60250000D02*
X115250000Y-59750000D01*
X115250000Y-59750000D02*
X115500000Y-60000000D01*
X132100000Y-65803571D02*
X132157142Y-65839285D01*
X132271428Y-65839285D01*
X132328571Y-65803571D01*
X132357142Y-65732142D01*
X132357142Y-65696428D01*
X132328571Y-65625000D01*
X132271428Y-65589285D01*
X132185714Y-65589285D01*
X132128571Y-65553571D01*
X132100000Y-65482142D01*
X132100000Y-65446428D01*
X132128571Y-65375000D01*
X132185714Y-65339285D01*
X132271428Y-65339285D01*
X132328571Y-65375000D01*
X132871428Y-65839285D02*
X132871428Y-65089285D01*
X132871428Y-65803571D02*
X132814285Y-65839285D01*
X132700000Y-65839285D01*
X132642857Y-65803571D01*
X132614285Y-65767857D01*
X132585714Y-65696428D01*
X132585714Y-65482142D01*
X132614285Y-65410714D01*
X132642857Y-65375000D01*
X132700000Y-65339285D01*
X132814285Y-65339285D01*
X132871428Y-65375000D01*
X179285714Y-54303571D02*
X179342857Y-54339285D01*
X179457142Y-54339285D01*
X179514285Y-54303571D01*
X179542857Y-54232142D01*
X179542857Y-54196428D01*
X179514285Y-54125000D01*
X179457142Y-54089285D01*
X179371428Y-54089285D01*
X179314285Y-54053571D01*
X179285714Y-53982142D01*
X179285714Y-53946428D01*
X179314285Y-53875000D01*
X179371428Y-53839285D01*
X179457142Y-53839285D01*
X179514285Y-53875000D01*
X179742857Y-53839285D02*
X179857142Y-54339285D01*
X179971428Y-53982142D01*
X180085714Y-54339285D01*
X180200000Y-53839285D01*
X180685714Y-54339285D02*
X180685714Y-53589285D01*
X180685714Y-54303571D02*
X180628571Y-54339285D01*
X180514285Y-54339285D01*
X180457142Y-54303571D01*
X180428571Y-54267857D01*
X180400000Y-54196428D01*
X180400000Y-53982142D01*
X180428571Y-53910714D01*
X180457142Y-53875000D01*
X180514285Y-53839285D01*
X180628571Y-53839285D01*
X180685714Y-53875000D01*
X177142857Y-81039285D02*
X177142857Y-80539285D01*
X177142857Y-80682142D02*
X177171428Y-80610714D01*
X177200000Y-80575000D01*
X177257142Y-80539285D01*
X177314285Y-80539285D01*
X177771428Y-80539285D02*
X177771428Y-81146428D01*
X177742857Y-81217857D01*
X177714285Y-81253571D01*
X177657142Y-81289285D01*
X177571428Y-81289285D01*
X177514285Y-81253571D01*
X177771428Y-81003571D02*
X177714285Y-81039285D01*
X177600000Y-81039285D01*
X177542857Y-81003571D01*
X177514285Y-80967857D01*
X177485714Y-80896428D01*
X177485714Y-80682142D01*
X177514285Y-80610714D01*
X177542857Y-80575000D01*
X177600000Y-80539285D01*
X177714285Y-80539285D01*
X177771428Y-80575000D01*
X178057142Y-81039285D02*
X178057142Y-80289285D01*
X178057142Y-80575000D02*
X178114285Y-80539285D01*
X178228571Y-80539285D01*
X178285714Y-80575000D01*
X178314285Y-80610714D01*
X178342857Y-80682142D01*
X178342857Y-80896428D01*
X178314285Y-80967857D01*
X178285714Y-81003571D01*
X178228571Y-81039285D01*
X178114285Y-81039285D01*
X178057142Y-81003571D01*
X178914285Y-81039285D02*
X178571428Y-81039285D01*
X178742857Y-81039285D02*
X178742857Y-80289285D01*
X178685714Y-80396428D01*
X178628571Y-80467857D01*
X178571428Y-80503571D01*
X179171428Y-80967857D02*
X179200000Y-81003571D01*
X179171428Y-81039285D01*
X179142857Y-81003571D01*
X179171428Y-80967857D01*
X179171428Y-81039285D01*
X179457142Y-80539285D02*
X179457142Y-81289285D01*
X179457142Y-80575000D02*
X179514285Y-80539285D01*
X179628571Y-80539285D01*
X179685714Y-80575000D01*
X179714285Y-80610714D01*
X179742857Y-80682142D01*
X179742857Y-80896428D01*
X179714285Y-80967857D01*
X179685714Y-81003571D01*
X179628571Y-81039285D01*
X179514285Y-81039285D01*
X179457142Y-81003571D01*
X180257142Y-81039285D02*
X180257142Y-80646428D01*
X180228571Y-80575000D01*
X180171428Y-80539285D01*
X180057142Y-80539285D01*
X180000000Y-80575000D01*
X180257142Y-81003571D02*
X180200000Y-81039285D01*
X180057142Y-81039285D01*
X180000000Y-81003571D01*
X179971428Y-80932142D01*
X179971428Y-80860714D01*
X180000000Y-80789285D01*
X180057142Y-80753571D01*
X180200000Y-80753571D01*
X180257142Y-80717857D01*
X180800000Y-81003571D02*
X180742857Y-81039285D01*
X180628571Y-81039285D01*
X180571428Y-81003571D01*
X180542857Y-80967857D01*
X180514285Y-80896428D01*
X180514285Y-80682142D01*
X180542857Y-80610714D01*
X180571428Y-80575000D01*
X180628571Y-80539285D01*
X180742857Y-80539285D01*
X180800000Y-80575000D01*
X181057142Y-81039285D02*
X181057142Y-80289285D01*
X181114285Y-80753571D02*
X181285714Y-81039285D01*
X181285714Y-80539285D02*
X181057142Y-80825000D01*
X181800000Y-81039285D02*
X181800000Y-80646428D01*
X181771428Y-80575000D01*
X181714285Y-80539285D01*
X181600000Y-80539285D01*
X181542857Y-80575000D01*
X181800000Y-81003571D02*
X181742857Y-81039285D01*
X181600000Y-81039285D01*
X181542857Y-81003571D01*
X181514285Y-80932142D01*
X181514285Y-80860714D01*
X181542857Y-80789285D01*
X181600000Y-80753571D01*
X181742857Y-80753571D01*
X181800000Y-80717857D01*
X182342857Y-80539285D02*
X182342857Y-81146428D01*
X182314285Y-81217857D01*
X182285714Y-81253571D01*
X182228571Y-81289285D01*
X182142857Y-81289285D01*
X182085714Y-81253571D01*
X182342857Y-81003571D02*
X182285714Y-81039285D01*
X182171428Y-81039285D01*
X182114285Y-81003571D01*
X182085714Y-80967857D01*
X182057142Y-80896428D01*
X182057142Y-80682142D01*
X182085714Y-80610714D01*
X182114285Y-80575000D01*
X182171428Y-80539285D01*
X182285714Y-80539285D01*
X182342857Y-80575000D01*
X182857142Y-81003571D02*
X182800000Y-81039285D01*
X182685714Y-81039285D01*
X182628571Y-81003571D01*
X182600000Y-80932142D01*
X182600000Y-80646428D01*
X182628571Y-80575000D01*
X182685714Y-80539285D01*
X182800000Y-80539285D01*
X182857142Y-80575000D01*
X182885714Y-80646428D01*
X182885714Y-80717857D01*
X182600000Y-80789285D01*
X200303571Y-67557142D02*
X200339285Y-67614285D01*
X200339285Y-67728571D01*
X200303571Y-67785714D01*
X200267857Y-67814285D01*
X200196428Y-67842857D01*
X199982142Y-67842857D01*
X199910714Y-67814285D01*
X199875000Y-67785714D01*
X199839285Y-67728571D01*
X199839285Y-67614285D01*
X199875000Y-67557142D01*
X200339285Y-67042857D02*
X199946428Y-67042857D01*
X199875000Y-67071428D01*
X199839285Y-67128571D01*
X199839285Y-67242857D01*
X199875000Y-67300000D01*
X200303571Y-67042857D02*
X200339285Y-67100000D01*
X200339285Y-67242857D01*
X200303571Y-67300000D01*
X200232142Y-67328571D01*
X200160714Y-67328571D01*
X200089285Y-67300000D01*
X200053571Y-67242857D01*
X200053571Y-67100000D01*
X200017857Y-67042857D01*
X199839285Y-66757142D02*
X200339285Y-66757142D01*
X199910714Y-66757142D02*
X199875000Y-66728571D01*
X199839285Y-66671428D01*
X199839285Y-66585714D01*
X199875000Y-66528571D01*
X199946428Y-66500000D01*
X200339285Y-66500000D01*
X200267857Y-66214285D02*
X200303571Y-66185714D01*
X200339285Y-66214285D01*
X200303571Y-66242857D01*
X200267857Y-66214285D01*
X200339285Y-66214285D01*
X199839285Y-66014285D02*
X199839285Y-65785714D01*
X199589285Y-65928571D02*
X200232142Y-65928571D01*
X200303571Y-65900000D01*
X200339285Y-65842857D01*
X200339285Y-65785714D01*
X200339285Y-65585714D02*
X199839285Y-65585714D01*
X199982142Y-65585714D02*
X199910714Y-65557142D01*
X199875000Y-65528571D01*
X199839285Y-65471428D01*
X199839285Y-65414285D01*
X200339285Y-64957142D02*
X199946428Y-64957142D01*
X199875000Y-64985714D01*
X199839285Y-65042857D01*
X199839285Y-65157142D01*
X199875000Y-65214285D01*
X200303571Y-64957142D02*
X200339285Y-65014285D01*
X200339285Y-65157142D01*
X200303571Y-65214285D01*
X200232142Y-65242857D01*
X200160714Y-65242857D01*
X200089285Y-65214285D01*
X200053571Y-65157142D01*
X200053571Y-65014285D01*
X200017857Y-64957142D01*
X199839285Y-64671428D02*
X200339285Y-64671428D01*
X199910714Y-64671428D02*
X199875000Y-64642857D01*
X199839285Y-64585714D01*
X199839285Y-64500000D01*
X199875000Y-64442857D01*
X199946428Y-64414285D01*
X200339285Y-64414285D01*
X200303571Y-64157142D02*
X200339285Y-64100000D01*
X200339285Y-63985714D01*
X200303571Y-63928571D01*
X200232142Y-63900000D01*
X200196428Y-63900000D01*
X200125000Y-63928571D01*
X200089285Y-63985714D01*
X200089285Y-64071428D01*
X200053571Y-64128571D01*
X199982142Y-64157142D01*
X199946428Y-64157142D01*
X199875000Y-64128571D01*
X199839285Y-64071428D01*
X199839285Y-63985714D01*
X199875000Y-63928571D01*
X200303571Y-63385714D02*
X200339285Y-63442857D01*
X200339285Y-63557142D01*
X200303571Y-63614285D01*
X200267857Y-63642857D01*
X200196428Y-63671428D01*
X199982142Y-63671428D01*
X199910714Y-63642857D01*
X199875000Y-63614285D01*
X199839285Y-63557142D01*
X199839285Y-63442857D01*
X199875000Y-63385714D01*
X200303571Y-62900000D02*
X200339285Y-62957142D01*
X200339285Y-63071428D01*
X200303571Y-63128571D01*
X200232142Y-63157142D01*
X199946428Y-63157142D01*
X199875000Y-63128571D01*
X199839285Y-63071428D01*
X199839285Y-62957142D01*
X199875000Y-62900000D01*
X199946428Y-62871428D01*
X200017857Y-62871428D01*
X200089285Y-63157142D01*
X200339285Y-62614285D02*
X199839285Y-62614285D01*
X199589285Y-62614285D02*
X199625000Y-62642857D01*
X199660714Y-62614285D01*
X199625000Y-62585714D01*
X199589285Y-62614285D01*
X199660714Y-62614285D01*
X199839285Y-62385714D02*
X200339285Y-62242857D01*
X199839285Y-62100000D01*
X200303571Y-61642857D02*
X200339285Y-61700000D01*
X200339285Y-61814285D01*
X200303571Y-61871428D01*
X200232142Y-61900000D01*
X199946428Y-61900000D01*
X199875000Y-61871428D01*
X199839285Y-61814285D01*
X199839285Y-61700000D01*
X199875000Y-61642857D01*
X199946428Y-61614285D01*
X200017857Y-61614285D01*
X200089285Y-61900000D01*
X200339285Y-61357142D02*
X199839285Y-61357142D01*
X199982142Y-61357142D02*
X199910714Y-61328571D01*
X199875000Y-61300000D01*
X199839285Y-61242857D01*
X199839285Y-61185714D01*
X200267857Y-60985714D02*
X200303571Y-60957142D01*
X200339285Y-60985714D01*
X200303571Y-61014285D01*
X200267857Y-60985714D01*
X200339285Y-60985714D01*
X200339285Y-60700000D02*
X199839285Y-60700000D01*
X199589285Y-60700000D02*
X199625000Y-60728571D01*
X199660714Y-60700000D01*
X199625000Y-60671428D01*
X199589285Y-60700000D01*
X199660714Y-60700000D01*
X200303571Y-60157142D02*
X200339285Y-60214285D01*
X200339285Y-60328571D01*
X200303571Y-60385714D01*
X200267857Y-60414285D01*
X200196428Y-60442857D01*
X199982142Y-60442857D01*
X199910714Y-60414285D01*
X199875000Y-60385714D01*
X199839285Y-60328571D01*
X199839285Y-60214285D01*
X199875000Y-60157142D01*
X186385714Y-75803571D02*
X186328571Y-75839285D01*
X186214285Y-75839285D01*
X186157142Y-75803571D01*
X186128571Y-75767857D01*
X186100000Y-75696428D01*
X186100000Y-75482142D01*
X186128571Y-75410714D01*
X186157142Y-75375000D01*
X186214285Y-75339285D01*
X186328571Y-75339285D01*
X186385714Y-75375000D01*
X186900000Y-75839285D02*
X186900000Y-75446428D01*
X186871428Y-75375000D01*
X186814285Y-75339285D01*
X186700000Y-75339285D01*
X186642857Y-75375000D01*
X186900000Y-75803571D02*
X186842857Y-75839285D01*
X186700000Y-75839285D01*
X186642857Y-75803571D01*
X186614285Y-75732142D01*
X186614285Y-75660714D01*
X186642857Y-75589285D01*
X186700000Y-75553571D01*
X186842857Y-75553571D01*
X186900000Y-75517857D01*
X187185714Y-75339285D02*
X187185714Y-75839285D01*
X187185714Y-75410714D02*
X187214285Y-75375000D01*
X187271428Y-75339285D01*
X187357142Y-75339285D01*
X187414285Y-75375000D01*
X187442857Y-75446428D01*
X187442857Y-75839285D01*
X187728571Y-75767857D02*
X187757142Y-75803571D01*
X187728571Y-75839285D01*
X187700000Y-75803571D01*
X187728571Y-75767857D01*
X187728571Y-75839285D01*
X188271428Y-75803571D02*
X188214285Y-75839285D01*
X188100000Y-75839285D01*
X188042857Y-75803571D01*
X188014285Y-75767857D01*
X187985714Y-75696428D01*
X187985714Y-75482142D01*
X188014285Y-75410714D01*
X188042857Y-75375000D01*
X188100000Y-75339285D01*
X188214285Y-75339285D01*
X188271428Y-75375000D01*
X188614285Y-75839285D02*
X188557142Y-75803571D01*
X188528571Y-75767857D01*
X188500000Y-75696428D01*
X188500000Y-75482142D01*
X188528571Y-75410714D01*
X188557142Y-75375000D01*
X188614285Y-75339285D01*
X188700000Y-75339285D01*
X188757142Y-75375000D01*
X188785714Y-75410714D01*
X188814285Y-75482142D01*
X188814285Y-75696428D01*
X188785714Y-75767857D01*
X188757142Y-75803571D01*
X188700000Y-75839285D01*
X188614285Y-75839285D01*
X189071428Y-75339285D02*
X189071428Y-75839285D01*
X189071428Y-75410714D02*
X189100000Y-75375000D01*
X189157142Y-75339285D01*
X189242857Y-75339285D01*
X189300000Y-75375000D01*
X189328571Y-75446428D01*
X189328571Y-75839285D01*
X189614285Y-75339285D02*
X189614285Y-75839285D01*
X189614285Y-75410714D02*
X189642857Y-75375000D01*
X189700000Y-75339285D01*
X189785714Y-75339285D01*
X189842857Y-75375000D01*
X189871428Y-75446428D01*
X189871428Y-75839285D01*
X196624285Y-24529285D02*
X196938571Y-24029285D01*
X196624285Y-24029285D02*
X196938571Y-24529285D01*
X197167142Y-24529285D02*
X197167142Y-23779285D01*
X197167142Y-24065000D02*
X197224285Y-24029285D01*
X197338571Y-24029285D01*
X197395714Y-24065000D01*
X197424285Y-24100714D01*
X197452857Y-24172142D01*
X197452857Y-24386428D01*
X197424285Y-24457857D01*
X197395714Y-24493571D01*
X197338571Y-24529285D01*
X197224285Y-24529285D01*
X197167142Y-24493571D01*
X197938571Y-24493571D02*
X197881428Y-24529285D01*
X197767142Y-24529285D01*
X197710000Y-24493571D01*
X197681428Y-24422142D01*
X197681428Y-24136428D01*
X197710000Y-24065000D01*
X197767142Y-24029285D01*
X197881428Y-24029285D01*
X197938571Y-24065000D01*
X197967142Y-24136428D01*
X197967142Y-24207857D01*
X197681428Y-24279285D01*
X198452857Y-24493571D02*
X198395714Y-24529285D01*
X198281428Y-24529285D01*
X198224285Y-24493571D01*
X198195714Y-24422142D01*
X198195714Y-24136428D01*
X198224285Y-24065000D01*
X198281428Y-24029285D01*
X198395714Y-24029285D01*
X198452857Y-24065000D01*
X198481428Y-24136428D01*
X198481428Y-24207857D01*
X198195714Y-24279285D01*
X198738571Y-24457857D02*
X198767142Y-24493571D01*
X198738571Y-24529285D01*
X198710000Y-24493571D01*
X198738571Y-24457857D01*
X198738571Y-24529285D01*
X199024285Y-24529285D02*
X199024285Y-24029285D01*
X199024285Y-23779285D02*
X198995714Y-23815000D01*
X199024285Y-23850714D01*
X199052857Y-23815000D01*
X199024285Y-23779285D01*
X199024285Y-23850714D01*
X199567142Y-24493571D02*
X199510000Y-24529285D01*
X199395714Y-24529285D01*
X199338571Y-24493571D01*
X199310000Y-24457857D01*
X199281428Y-24386428D01*
X199281428Y-24172142D01*
X199310000Y-24100714D01*
X199338571Y-24065000D01*
X199395714Y-24029285D01*
X199510000Y-24029285D01*
X199567142Y-24065000D01*
X195995714Y-22509285D02*
X196395714Y-23259285D01*
X196395714Y-22509285D02*
X195995714Y-23259285D01*
X196824285Y-22866428D02*
X196910000Y-22902142D01*
X196938571Y-22937857D01*
X196967142Y-23009285D01*
X196967142Y-23116428D01*
X196938571Y-23187857D01*
X196910000Y-23223571D01*
X196852857Y-23259285D01*
X196624285Y-23259285D01*
X196624285Y-22509285D01*
X196824285Y-22509285D01*
X196881428Y-22545000D01*
X196910000Y-22580714D01*
X196938571Y-22652142D01*
X196938571Y-22723571D01*
X196910000Y-22795000D01*
X196881428Y-22830714D01*
X196824285Y-22866428D01*
X196624285Y-22866428D01*
X197452857Y-23223571D02*
X197395714Y-23259285D01*
X197281428Y-23259285D01*
X197224285Y-23223571D01*
X197195714Y-23152142D01*
X197195714Y-22866428D01*
X197224285Y-22795000D01*
X197281428Y-22759285D01*
X197395714Y-22759285D01*
X197452857Y-22795000D01*
X197481428Y-22866428D01*
X197481428Y-22937857D01*
X197195714Y-23009285D01*
X197967142Y-23223571D02*
X197910000Y-23259285D01*
X197795714Y-23259285D01*
X197738571Y-23223571D01*
X197710000Y-23152142D01*
X197710000Y-22866428D01*
X197738571Y-22795000D01*
X197795714Y-22759285D01*
X197910000Y-22759285D01*
X197967142Y-22795000D01*
X197995714Y-22866428D01*
X197995714Y-22937857D01*
X197710000Y-23009285D01*
X198681428Y-23223571D02*
X198767142Y-23259285D01*
X198910000Y-23259285D01*
X198967142Y-23223571D01*
X198995714Y-23187857D01*
X199024285Y-23116428D01*
X199024285Y-23045000D01*
X198995714Y-22973571D01*
X198967142Y-22937857D01*
X198910000Y-22902142D01*
X198795714Y-22866428D01*
X198738571Y-22830714D01*
X198710000Y-22795000D01*
X198681428Y-22723571D01*
X198681428Y-22652142D01*
X198710000Y-22580714D01*
X198738571Y-22545000D01*
X198795714Y-22509285D01*
X198938571Y-22509285D01*
X199024285Y-22545000D01*
X199224285Y-22509285D02*
X199595714Y-22509285D01*
X199395714Y-22795000D01*
X199481428Y-22795000D01*
X199538571Y-22830714D01*
X199567142Y-22866428D01*
X199595714Y-22937857D01*
X199595714Y-23116428D01*
X199567142Y-23187857D01*
X199538571Y-23223571D01*
X199481428Y-23259285D01*
X199310000Y-23259285D01*
X199252857Y-23223571D01*
X199224285Y-23187857D01*
X200052857Y-22866428D02*
X200138571Y-22902142D01*
X200167142Y-22937857D01*
X200195714Y-23009285D01*
X200195714Y-23116428D01*
X200167142Y-23187857D01*
X200138571Y-23223571D01*
X200081428Y-23259285D01*
X199852857Y-23259285D01*
X199852857Y-22509285D01*
X200052857Y-22509285D01*
X200110000Y-22545000D01*
X200138571Y-22580714D01*
X200167142Y-22652142D01*
X200167142Y-22723571D01*
X200138571Y-22795000D01*
X200110000Y-22830714D01*
X200052857Y-22866428D01*
X199852857Y-22866428D01*
D16*
X216281885Y-48967579D02*
X215701314Y-48967579D01*
X215991600Y-48967579D02*
X215991600Y-47951579D01*
X215894838Y-48096721D01*
X215798076Y-48193483D01*
X215701314Y-48241864D01*
D15*
X190909285Y-43442857D02*
X190409285Y-43128571D01*
X190409285Y-43442857D02*
X190909285Y-43128571D01*
X190909285Y-42900000D02*
X190159285Y-42900000D01*
X190445000Y-42900000D02*
X190409285Y-42842857D01*
X190409285Y-42728571D01*
X190445000Y-42671428D01*
X190480714Y-42642857D01*
X190552142Y-42614285D01*
X190766428Y-42614285D01*
X190837857Y-42642857D01*
X190873571Y-42671428D01*
X190909285Y-42728571D01*
X190909285Y-42842857D01*
X190873571Y-42900000D01*
X190873571Y-42128571D02*
X190909285Y-42185714D01*
X190909285Y-42300000D01*
X190873571Y-42357142D01*
X190802142Y-42385714D01*
X190516428Y-42385714D01*
X190445000Y-42357142D01*
X190409285Y-42300000D01*
X190409285Y-42185714D01*
X190445000Y-42128571D01*
X190516428Y-42100000D01*
X190587857Y-42100000D01*
X190659285Y-42385714D01*
X190873571Y-41614285D02*
X190909285Y-41671428D01*
X190909285Y-41785714D01*
X190873571Y-41842857D01*
X190802142Y-41871428D01*
X190516428Y-41871428D01*
X190445000Y-41842857D01*
X190409285Y-41785714D01*
X190409285Y-41671428D01*
X190445000Y-41614285D01*
X190516428Y-41585714D01*
X190587857Y-41585714D01*
X190659285Y-41871428D01*
X190980714Y-41471428D02*
X190980714Y-41014285D01*
X190909285Y-40614285D02*
X190516428Y-40614285D01*
X190445000Y-40642857D01*
X190409285Y-40700000D01*
X190409285Y-40814285D01*
X190445000Y-40871428D01*
X190873571Y-40614285D02*
X190909285Y-40671428D01*
X190909285Y-40814285D01*
X190873571Y-40871428D01*
X190802142Y-40900000D01*
X190730714Y-40900000D01*
X190659285Y-40871428D01*
X190623571Y-40814285D01*
X190623571Y-40671428D01*
X190587857Y-40614285D01*
X190873571Y-40357142D02*
X190909285Y-40300000D01*
X190909285Y-40185714D01*
X190873571Y-40128571D01*
X190802142Y-40100000D01*
X190766428Y-40100000D01*
X190695000Y-40128571D01*
X190659285Y-40185714D01*
X190659285Y-40271428D01*
X190623571Y-40328571D01*
X190552142Y-40357142D01*
X190516428Y-40357142D01*
X190445000Y-40328571D01*
X190409285Y-40271428D01*
X190409285Y-40185714D01*
X190445000Y-40128571D01*
X190873571Y-39871428D02*
X190909285Y-39814285D01*
X190909285Y-39700000D01*
X190873571Y-39642857D01*
X190802142Y-39614285D01*
X190766428Y-39614285D01*
X190695000Y-39642857D01*
X190659285Y-39700000D01*
X190659285Y-39785714D01*
X190623571Y-39842857D01*
X190552142Y-39871428D01*
X190516428Y-39871428D01*
X190445000Y-39842857D01*
X190409285Y-39785714D01*
X190409285Y-39700000D01*
X190445000Y-39642857D01*
X190909285Y-39271428D02*
X190873571Y-39328571D01*
X190837857Y-39357142D01*
X190766428Y-39385714D01*
X190552142Y-39385714D01*
X190480714Y-39357142D01*
X190445000Y-39328571D01*
X190409285Y-39271428D01*
X190409285Y-39185714D01*
X190445000Y-39128571D01*
X190480714Y-39100000D01*
X190552142Y-39071428D01*
X190766428Y-39071428D01*
X190837857Y-39100000D01*
X190873571Y-39128571D01*
X190909285Y-39185714D01*
X190909285Y-39271428D01*
X190873571Y-38557142D02*
X190909285Y-38614285D01*
X190909285Y-38728571D01*
X190873571Y-38785714D01*
X190837857Y-38814285D01*
X190766428Y-38842857D01*
X190552142Y-38842857D01*
X190480714Y-38814285D01*
X190445000Y-38785714D01*
X190409285Y-38728571D01*
X190409285Y-38614285D01*
X190445000Y-38557142D01*
X190837857Y-38300000D02*
X190873571Y-38271428D01*
X190909285Y-38300000D01*
X190873571Y-38328571D01*
X190837857Y-38300000D01*
X190909285Y-38300000D01*
X190409285Y-38014285D02*
X191159285Y-38014285D01*
X190445000Y-38014285D02*
X190409285Y-37957142D01*
X190409285Y-37842857D01*
X190445000Y-37785714D01*
X190480714Y-37757142D01*
X190552142Y-37728571D01*
X190766428Y-37728571D01*
X190837857Y-37757142D01*
X190873571Y-37785714D01*
X190909285Y-37842857D01*
X190909285Y-37957142D01*
X190873571Y-38014285D01*
X190909285Y-37214285D02*
X190516428Y-37214285D01*
X190445000Y-37242857D01*
X190409285Y-37300000D01*
X190409285Y-37414285D01*
X190445000Y-37471428D01*
X190873571Y-37214285D02*
X190909285Y-37271428D01*
X190909285Y-37414285D01*
X190873571Y-37471428D01*
X190802142Y-37500000D01*
X190730714Y-37500000D01*
X190659285Y-37471428D01*
X190623571Y-37414285D01*
X190623571Y-37271428D01*
X190587857Y-37214285D01*
X190873571Y-36671428D02*
X190909285Y-36728571D01*
X190909285Y-36842857D01*
X190873571Y-36900000D01*
X190837857Y-36928571D01*
X190766428Y-36957142D01*
X190552142Y-36957142D01*
X190480714Y-36928571D01*
X190445000Y-36900000D01*
X190409285Y-36842857D01*
X190409285Y-36728571D01*
X190445000Y-36671428D01*
X190909285Y-36414285D02*
X190159285Y-36414285D01*
X190623571Y-36357142D02*
X190909285Y-36185714D01*
X190409285Y-36185714D02*
X190695000Y-36414285D01*
X190909285Y-35671428D02*
X190516428Y-35671428D01*
X190445000Y-35700000D01*
X190409285Y-35757142D01*
X190409285Y-35871428D01*
X190445000Y-35928571D01*
X190873571Y-35671428D02*
X190909285Y-35728571D01*
X190909285Y-35871428D01*
X190873571Y-35928571D01*
X190802142Y-35957142D01*
X190730714Y-35957142D01*
X190659285Y-35928571D01*
X190623571Y-35871428D01*
X190623571Y-35728571D01*
X190587857Y-35671428D01*
X190409285Y-35128571D02*
X191016428Y-35128571D01*
X191087857Y-35157142D01*
X191123571Y-35185714D01*
X191159285Y-35242857D01*
X191159285Y-35328571D01*
X191123571Y-35385714D01*
X190873571Y-35128571D02*
X190909285Y-35185714D01*
X190909285Y-35300000D01*
X190873571Y-35357142D01*
X190837857Y-35385714D01*
X190766428Y-35414285D01*
X190552142Y-35414285D01*
X190480714Y-35385714D01*
X190445000Y-35357142D01*
X190409285Y-35300000D01*
X190409285Y-35185714D01*
X190445000Y-35128571D01*
X190873571Y-34614285D02*
X190909285Y-34671428D01*
X190909285Y-34785714D01*
X190873571Y-34842857D01*
X190802142Y-34871428D01*
X190516428Y-34871428D01*
X190445000Y-34842857D01*
X190409285Y-34785714D01*
X190409285Y-34671428D01*
X190445000Y-34614285D01*
X190516428Y-34585714D01*
X190587857Y-34585714D01*
X190659285Y-34871428D01*
X250428571Y-43339285D02*
X250428571Y-42589285D01*
X250428571Y-42875000D02*
X250485714Y-42839285D01*
X250600000Y-42839285D01*
X250657142Y-42875000D01*
X250685714Y-42910714D01*
X250714285Y-42982142D01*
X250714285Y-43196428D01*
X250685714Y-43267857D01*
X250657142Y-43303571D01*
X250600000Y-43339285D01*
X250485714Y-43339285D01*
X250428571Y-43303571D01*
X251228571Y-43339285D02*
X251228571Y-42946428D01*
X251200000Y-42875000D01*
X251142857Y-42839285D01*
X251028571Y-42839285D01*
X250971428Y-42875000D01*
X251228571Y-43303571D02*
X251171428Y-43339285D01*
X251028571Y-43339285D01*
X250971428Y-43303571D01*
X250942857Y-43232142D01*
X250942857Y-43160714D01*
X250971428Y-43089285D01*
X251028571Y-43053571D01*
X251171428Y-43053571D01*
X251228571Y-43017857D01*
X251428571Y-42839285D02*
X251657142Y-42839285D01*
X251514285Y-42589285D02*
X251514285Y-43232142D01*
X251542857Y-43303571D01*
X251600000Y-43339285D01*
X251657142Y-43339285D01*
D13*
X246678571Y-39107142D02*
X247821428Y-39107142D01*
X247250000Y-39678571D02*
X247250000Y-38535714D01*
D15*
X163914285Y-16603571D02*
X163857142Y-16639285D01*
X163742857Y-16639285D01*
X163685714Y-16603571D01*
X163657142Y-16532142D01*
X163657142Y-16246428D01*
X163685714Y-16175000D01*
X163742857Y-16139285D01*
X163857142Y-16139285D01*
X163914285Y-16175000D01*
X163942857Y-16246428D01*
X163942857Y-16317857D01*
X163657142Y-16389285D01*
X164200000Y-16639285D02*
X164200000Y-16139285D01*
X164200000Y-15889285D02*
X164171428Y-15925000D01*
X164200000Y-15960714D01*
X164228571Y-15925000D01*
X164200000Y-15889285D01*
X164200000Y-15960714D01*
X164485714Y-16139285D02*
X164485714Y-16639285D01*
X164485714Y-16210714D02*
X164514285Y-16175000D01*
X164571428Y-16139285D01*
X164657142Y-16139285D01*
X164714285Y-16175000D01*
X164742857Y-16246428D01*
X164742857Y-16639285D01*
X165028571Y-16639285D02*
X165028571Y-15889285D01*
X165085714Y-16353571D02*
X165257142Y-16639285D01*
X165257142Y-16139285D02*
X165028571Y-16425000D01*
X165514285Y-16567857D02*
X165542857Y-16603571D01*
X165514285Y-16639285D01*
X165485714Y-16603571D01*
X165514285Y-16567857D01*
X165514285Y-16639285D01*
X165800000Y-16639285D02*
X165800000Y-16139285D01*
X165800000Y-15889285D02*
X165771428Y-15925000D01*
X165800000Y-15960714D01*
X165828571Y-15925000D01*
X165800000Y-15889285D01*
X165800000Y-15960714D01*
X166342857Y-16603571D02*
X166285714Y-16639285D01*
X166171428Y-16639285D01*
X166114285Y-16603571D01*
X166085714Y-16567857D01*
X166057142Y-16496428D01*
X166057142Y-16282142D01*
X166085714Y-16210714D01*
X166114285Y-16175000D01*
X166171428Y-16139285D01*
X166285714Y-16139285D01*
X166342857Y-16175000D01*
X253339285Y-63128571D02*
X252589285Y-63128571D01*
X252875000Y-63128571D02*
X252839285Y-63071428D01*
X252839285Y-62957142D01*
X252875000Y-62900000D01*
X252910714Y-62871428D01*
X252982142Y-62842857D01*
X253196428Y-62842857D01*
X253267857Y-62871428D01*
X253303571Y-62900000D01*
X253339285Y-62957142D01*
X253339285Y-63071428D01*
X253303571Y-63128571D01*
X252839285Y-62328571D02*
X253339285Y-62328571D01*
X252839285Y-62585714D02*
X253232142Y-62585714D01*
X253303571Y-62557142D01*
X253339285Y-62500000D01*
X253339285Y-62414285D01*
X253303571Y-62357142D01*
X253267857Y-62328571D01*
X252839285Y-62128571D02*
X252839285Y-61900000D01*
X253339285Y-62042857D02*
X252696428Y-62042857D01*
X252625000Y-62014285D01*
X252589285Y-61957142D01*
X252589285Y-61900000D01*
X252839285Y-61785714D02*
X252839285Y-61557142D01*
X253339285Y-61700000D02*
X252696428Y-61700000D01*
X252625000Y-61671428D01*
X252589285Y-61614285D01*
X252589285Y-61557142D01*
X253303571Y-61128571D02*
X253339285Y-61185714D01*
X253339285Y-61300000D01*
X253303571Y-61357142D01*
X253232142Y-61385714D01*
X252946428Y-61385714D01*
X252875000Y-61357142D01*
X252839285Y-61300000D01*
X252839285Y-61185714D01*
X252875000Y-61128571D01*
X252946428Y-61100000D01*
X253017857Y-61100000D01*
X253089285Y-61385714D01*
X253339285Y-60842857D02*
X252839285Y-60842857D01*
X252982142Y-60842857D02*
X252910714Y-60814285D01*
X252875000Y-60785714D01*
X252839285Y-60728571D01*
X252839285Y-60671428D01*
X253267857Y-60471428D02*
X253303571Y-60442857D01*
X253339285Y-60471428D01*
X253303571Y-60500000D01*
X253267857Y-60471428D01*
X253339285Y-60471428D01*
X253303571Y-59928571D02*
X253339285Y-59985714D01*
X253339285Y-60100000D01*
X253303571Y-60157142D01*
X253267857Y-60185714D01*
X253196428Y-60214285D01*
X252982142Y-60214285D01*
X252910714Y-60185714D01*
X252875000Y-60157142D01*
X252839285Y-60100000D01*
X252839285Y-59985714D01*
X252875000Y-59928571D01*
X253339285Y-59414285D02*
X252946428Y-59414285D01*
X252875000Y-59442857D01*
X252839285Y-59500000D01*
X252839285Y-59614285D01*
X252875000Y-59671428D01*
X253303571Y-59414285D02*
X253339285Y-59471428D01*
X253339285Y-59614285D01*
X253303571Y-59671428D01*
X253232142Y-59700000D01*
X253160714Y-59700000D01*
X253089285Y-59671428D01*
X253053571Y-59614285D01*
X253053571Y-59471428D01*
X253017857Y-59414285D01*
X252839285Y-59128571D02*
X253589285Y-59128571D01*
X252875000Y-59128571D02*
X252839285Y-59071428D01*
X252839285Y-58957142D01*
X252875000Y-58900000D01*
X252910714Y-58871428D01*
X252982142Y-58842857D01*
X253196428Y-58842857D01*
X253267857Y-58871428D01*
X253303571Y-58900000D01*
X253339285Y-58957142D01*
X253339285Y-59071428D01*
X253303571Y-59128571D01*
X226642857Y-70839285D02*
X226642857Y-71589285D01*
X226642857Y-70875000D02*
X226700000Y-70839285D01*
X226814285Y-70839285D01*
X226871428Y-70875000D01*
X226900000Y-70910714D01*
X226928571Y-70982142D01*
X226928571Y-71196428D01*
X226900000Y-71267857D01*
X226871428Y-71303571D01*
X226814285Y-71339285D01*
X226700000Y-71339285D01*
X226642857Y-71303571D01*
X227128571Y-70839285D02*
X227242857Y-71339285D01*
X227357142Y-70982142D01*
X227471428Y-71339285D01*
X227585714Y-70839285D01*
X227814285Y-71339285D02*
X227814285Y-70839285D01*
X227814285Y-70982142D02*
X227842857Y-70910714D01*
X227871428Y-70875000D01*
X227928571Y-70839285D01*
X227985714Y-70839285D01*
X228042857Y-71410714D02*
X228500000Y-71410714D01*
X228928571Y-70589285D02*
X228642857Y-70589285D01*
X228614285Y-70946428D01*
X228642857Y-70910714D01*
X228700000Y-70875000D01*
X228842857Y-70875000D01*
X228900000Y-70910714D01*
X228928571Y-70946428D01*
X228957142Y-71017857D01*
X228957142Y-71196428D01*
X228928571Y-71267857D01*
X228900000Y-71303571D01*
X228842857Y-71339285D01*
X228700000Y-71339285D01*
X228642857Y-71303571D01*
X228614285Y-71267857D01*
X229157142Y-70839285D02*
X229300000Y-71339285D01*
X229442857Y-70839285D01*
X229671428Y-71267857D02*
X229700000Y-71303571D01*
X229671428Y-71339285D01*
X229642857Y-71303571D01*
X229671428Y-71267857D01*
X229671428Y-71339285D01*
X229957142Y-71339285D02*
X229957142Y-70839285D01*
X229957142Y-70589285D02*
X229928571Y-70625000D01*
X229957142Y-70660714D01*
X229985714Y-70625000D01*
X229957142Y-70589285D01*
X229957142Y-70660714D01*
X230242857Y-70839285D02*
X230242857Y-71339285D01*
X230242857Y-70910714D02*
X230271428Y-70875000D01*
X230328571Y-70839285D01*
X230414285Y-70839285D01*
X230471428Y-70875000D01*
X230500000Y-70946428D01*
X230500000Y-71339285D01*
X231042857Y-71339285D02*
X231042857Y-70589285D01*
X231042857Y-71303571D02*
X230985714Y-71339285D01*
X230871428Y-71339285D01*
X230814285Y-71303571D01*
X230785714Y-71267857D01*
X230757142Y-71196428D01*
X230757142Y-70982142D01*
X230785714Y-70910714D01*
X230814285Y-70875000D01*
X230871428Y-70839285D01*
X230985714Y-70839285D01*
X231042857Y-70875000D01*
X231585714Y-70839285D02*
X231585714Y-71339285D01*
X231328571Y-70839285D02*
X231328571Y-71232142D01*
X231357142Y-71303571D01*
X231414285Y-71339285D01*
X231500000Y-71339285D01*
X231557142Y-71303571D01*
X231585714Y-71267857D01*
X232128571Y-71303571D02*
X232071428Y-71339285D01*
X231957142Y-71339285D01*
X231900000Y-71303571D01*
X231871428Y-71267857D01*
X231842857Y-71196428D01*
X231842857Y-70982142D01*
X231871428Y-70910714D01*
X231900000Y-70875000D01*
X231957142Y-70839285D01*
X232071428Y-70839285D01*
X232128571Y-70875000D01*
X232300000Y-70839285D02*
X232528571Y-70839285D01*
X232385714Y-70589285D02*
X232385714Y-71232142D01*
X232414285Y-71303571D01*
X232471428Y-71339285D01*
X232528571Y-71339285D01*
X232814285Y-71339285D02*
X232757142Y-71303571D01*
X232728571Y-71267857D01*
X232700000Y-71196428D01*
X232700000Y-70982142D01*
X232728571Y-70910714D01*
X232757142Y-70875000D01*
X232814285Y-70839285D01*
X232900000Y-70839285D01*
X232957142Y-70875000D01*
X232985714Y-70910714D01*
X233014285Y-70982142D01*
X233014285Y-71196428D01*
X232985714Y-71267857D01*
X232957142Y-71303571D01*
X232900000Y-71339285D01*
X232814285Y-71339285D01*
X233271428Y-71339285D02*
X233271428Y-70839285D01*
X233271428Y-70982142D02*
X233300000Y-70910714D01*
X233328571Y-70875000D01*
X233385714Y-70839285D01*
X233442857Y-70839285D01*
X228800000Y-60839285D02*
X228800000Y-61589285D01*
X228800000Y-60875000D02*
X228857142Y-60839285D01*
X228971428Y-60839285D01*
X229028571Y-60875000D01*
X229057142Y-60910714D01*
X229085714Y-60982142D01*
X229085714Y-61196428D01*
X229057142Y-61267857D01*
X229028571Y-61303571D01*
X228971428Y-61339285D01*
X228857142Y-61339285D01*
X228800000Y-61303571D01*
X229285714Y-60839285D02*
X229400000Y-61339285D01*
X229514285Y-60982142D01*
X229628571Y-61339285D01*
X229742857Y-60839285D01*
X229971428Y-61339285D02*
X229971428Y-60839285D01*
X229971428Y-60982142D02*
X230000000Y-60910714D01*
X230028571Y-60875000D01*
X230085714Y-60839285D01*
X230142857Y-60839285D01*
X230200000Y-61410714D02*
X230657142Y-61410714D01*
X230742857Y-60589285D02*
X231114285Y-60589285D01*
X230914285Y-60875000D01*
X231000000Y-60875000D01*
X231057142Y-60910714D01*
X231085714Y-60946428D01*
X231114285Y-61017857D01*
X231114285Y-61196428D01*
X231085714Y-61267857D01*
X231057142Y-61303571D01*
X231000000Y-61339285D01*
X230828571Y-61339285D01*
X230771428Y-61303571D01*
X230742857Y-61267857D01*
X231314285Y-60839285D02*
X231457142Y-61339285D01*
X231600000Y-60839285D01*
X231771428Y-60589285D02*
X232142857Y-60589285D01*
X231942857Y-60875000D01*
X232028571Y-60875000D01*
X232085714Y-60910714D01*
X232114285Y-60946428D01*
X232142857Y-61017857D01*
X232142857Y-61196428D01*
X232114285Y-61267857D01*
X232085714Y-61303571D01*
X232028571Y-61339285D01*
X231857142Y-61339285D01*
X231800000Y-61303571D01*
X231771428Y-61267857D01*
X232400000Y-61267857D02*
X232428571Y-61303571D01*
X232400000Y-61339285D01*
X232371428Y-61303571D01*
X232400000Y-61267857D01*
X232400000Y-61339285D01*
X232685714Y-61339285D02*
X232685714Y-60839285D01*
X232685714Y-60589285D02*
X232657142Y-60625000D01*
X232685714Y-60660714D01*
X232714285Y-60625000D01*
X232685714Y-60589285D01*
X232685714Y-60660714D01*
X233228571Y-61303571D02*
X233171428Y-61339285D01*
X233057142Y-61339285D01*
X233000000Y-61303571D01*
X232971428Y-61267857D01*
X232942857Y-61196428D01*
X232942857Y-60982142D01*
X232971428Y-60910714D01*
X233000000Y-60875000D01*
X233057142Y-60839285D01*
X233171428Y-60839285D01*
X233228571Y-60875000D01*
X117871428Y-16039285D02*
X117871428Y-15289285D01*
X118128571Y-16039285D02*
X118128571Y-15646428D01*
X118100000Y-15575000D01*
X118042857Y-15539285D01*
X117957142Y-15539285D01*
X117900000Y-15575000D01*
X117871428Y-15610714D01*
X118500000Y-16039285D02*
X118442857Y-16003571D01*
X118414285Y-15967857D01*
X118385714Y-15896428D01*
X118385714Y-15682142D01*
X118414285Y-15610714D01*
X118442857Y-15575000D01*
X118500000Y-15539285D01*
X118585714Y-15539285D01*
X118642857Y-15575000D01*
X118671428Y-15610714D01*
X118700000Y-15682142D01*
X118700000Y-15896428D01*
X118671428Y-15967857D01*
X118642857Y-16003571D01*
X118585714Y-16039285D01*
X118500000Y-16039285D01*
X119042857Y-16039285D02*
X118985714Y-16003571D01*
X118957142Y-15932142D01*
X118957142Y-15289285D01*
X119500000Y-16003571D02*
X119442857Y-16039285D01*
X119328571Y-16039285D01*
X119271428Y-16003571D01*
X119242857Y-15932142D01*
X119242857Y-15646428D01*
X119271428Y-15575000D01*
X119328571Y-15539285D01*
X119442857Y-15539285D01*
X119500000Y-15575000D01*
X119528571Y-15646428D01*
X119528571Y-15717857D01*
X119242857Y-15789285D01*
X119642857Y-16110714D02*
X120100000Y-16110714D01*
X120357142Y-15289285D02*
X120414285Y-15289285D01*
X120471428Y-15325000D01*
X120500000Y-15360714D01*
X120528571Y-15432142D01*
X120557142Y-15575000D01*
X120557142Y-15753571D01*
X120528571Y-15896428D01*
X120500000Y-15967857D01*
X120471428Y-16003571D01*
X120414285Y-16039285D01*
X120357142Y-16039285D01*
X120300000Y-16003571D01*
X120271428Y-15967857D01*
X120242857Y-15896428D01*
X120214285Y-15753571D01*
X120214285Y-15575000D01*
X120242857Y-15432142D01*
X120271428Y-15360714D01*
X120300000Y-15325000D01*
X120357142Y-15289285D01*
X239471428Y-16039285D02*
X239471428Y-15289285D01*
X239728571Y-16039285D02*
X239728571Y-15646428D01*
X239700000Y-15575000D01*
X239642857Y-15539285D01*
X239557142Y-15539285D01*
X239500000Y-15575000D01*
X239471428Y-15610714D01*
X240100000Y-16039285D02*
X240042857Y-16003571D01*
X240014285Y-15967857D01*
X239985714Y-15896428D01*
X239985714Y-15682142D01*
X240014285Y-15610714D01*
X240042857Y-15575000D01*
X240100000Y-15539285D01*
X240185714Y-15539285D01*
X240242857Y-15575000D01*
X240271428Y-15610714D01*
X240300000Y-15682142D01*
X240300000Y-15896428D01*
X240271428Y-15967857D01*
X240242857Y-16003571D01*
X240185714Y-16039285D01*
X240100000Y-16039285D01*
X240642857Y-16039285D02*
X240585714Y-16003571D01*
X240557142Y-15932142D01*
X240557142Y-15289285D01*
X241100000Y-16003571D02*
X241042857Y-16039285D01*
X240928571Y-16039285D01*
X240871428Y-16003571D01*
X240842857Y-15932142D01*
X240842857Y-15646428D01*
X240871428Y-15575000D01*
X240928571Y-15539285D01*
X241042857Y-15539285D01*
X241100000Y-15575000D01*
X241128571Y-15646428D01*
X241128571Y-15717857D01*
X240842857Y-15789285D01*
X241242857Y-16110714D02*
X241700000Y-16110714D01*
X242157142Y-16039285D02*
X241814285Y-16039285D01*
X241985714Y-16039285D02*
X241985714Y-15289285D01*
X241928571Y-15396428D01*
X241871428Y-15467857D01*
X241814285Y-15503571D01*
X239471428Y-74039285D02*
X239471428Y-73289285D01*
X239728571Y-74039285D02*
X239728571Y-73646428D01*
X239700000Y-73575000D01*
X239642857Y-73539285D01*
X239557142Y-73539285D01*
X239500000Y-73575000D01*
X239471428Y-73610714D01*
X240100000Y-74039285D02*
X240042857Y-74003571D01*
X240014285Y-73967857D01*
X239985714Y-73896428D01*
X239985714Y-73682142D01*
X240014285Y-73610714D01*
X240042857Y-73575000D01*
X240100000Y-73539285D01*
X240185714Y-73539285D01*
X240242857Y-73575000D01*
X240271428Y-73610714D01*
X240300000Y-73682142D01*
X240300000Y-73896428D01*
X240271428Y-73967857D01*
X240242857Y-74003571D01*
X240185714Y-74039285D01*
X240100000Y-74039285D01*
X240642857Y-74039285D02*
X240585714Y-74003571D01*
X240557142Y-73932142D01*
X240557142Y-73289285D01*
X241100000Y-74003571D02*
X241042857Y-74039285D01*
X240928571Y-74039285D01*
X240871428Y-74003571D01*
X240842857Y-73932142D01*
X240842857Y-73646428D01*
X240871428Y-73575000D01*
X240928571Y-73539285D01*
X241042857Y-73539285D01*
X241100000Y-73575000D01*
X241128571Y-73646428D01*
X241128571Y-73717857D01*
X240842857Y-73789285D01*
X241242857Y-74110714D02*
X241700000Y-74110714D01*
X241814285Y-73360714D02*
X241842857Y-73325000D01*
X241900000Y-73289285D01*
X242042857Y-73289285D01*
X242100000Y-73325000D01*
X242128571Y-73360714D01*
X242157142Y-73432142D01*
X242157142Y-73503571D01*
X242128571Y-73610714D01*
X241785714Y-74039285D01*
X242157142Y-74039285D01*
X169053236Y-44067879D02*
X169406790Y-43714325D01*
X169356282Y-43764833D02*
X169401739Y-43759782D01*
X169467399Y-43774935D01*
X169528008Y-43835544D01*
X169543160Y-43901204D01*
X169512856Y-43971914D01*
X169235064Y-44249706D01*
X169512856Y-43971914D02*
X169583566Y-43941610D01*
X169649226Y-43956762D01*
X169709836Y-44017371D01*
X169724988Y-44083031D01*
X169694683Y-44153742D01*
X169416891Y-44431534D01*
X169826003Y-44790138D02*
X169760343Y-44774986D01*
X169679531Y-44694173D01*
X169664379Y-44628514D01*
X169669429Y-44583057D01*
X169699734Y-44512346D01*
X169851257Y-44360823D01*
X169921968Y-44330519D01*
X169967424Y-44325468D01*
X170033084Y-44340620D01*
X170113897Y-44421432D01*
X170129049Y-44487092D01*
X170517958Y-44825493D02*
X170164404Y-45179047D01*
X170336130Y-44643666D02*
X170058338Y-44921458D01*
X170028034Y-44992168D01*
X170043186Y-45057828D01*
X170103795Y-45118438D01*
X170169455Y-45133590D01*
X170214912Y-45128539D01*
X170416942Y-45330570D02*
X170411892Y-45376026D01*
X170366435Y-45381077D01*
X170371485Y-45335620D01*
X170416942Y-45330570D01*
X170366435Y-45381077D01*
X170568465Y-45583108D02*
X170922019Y-45229554D01*
X171098795Y-45052778D02*
X171053338Y-45057828D01*
X171048288Y-45103285D01*
X171093745Y-45098234D01*
X171098795Y-45052778D01*
X171048288Y-45103285D01*
X170977577Y-45941712D02*
X170911917Y-45926560D01*
X170831105Y-45845747D01*
X170815953Y-45780087D01*
X170821003Y-45734631D01*
X170851308Y-45663920D01*
X171002831Y-45512397D01*
X171073541Y-45482092D01*
X171118998Y-45477042D01*
X171184658Y-45492194D01*
X171265470Y-45573006D01*
X171280623Y-45638666D01*
X147142857Y-81039285D02*
X147142857Y-80539285D01*
X147142857Y-80682142D02*
X147171428Y-80610714D01*
X147200000Y-80575000D01*
X147257142Y-80539285D01*
X147314285Y-80539285D01*
X147771428Y-80539285D02*
X147771428Y-81146428D01*
X147742857Y-81217857D01*
X147714285Y-81253571D01*
X147657142Y-81289285D01*
X147571428Y-81289285D01*
X147514285Y-81253571D01*
X147771428Y-81003571D02*
X147714285Y-81039285D01*
X147600000Y-81039285D01*
X147542857Y-81003571D01*
X147514285Y-80967857D01*
X147485714Y-80896428D01*
X147485714Y-80682142D01*
X147514285Y-80610714D01*
X147542857Y-80575000D01*
X147600000Y-80539285D01*
X147714285Y-80539285D01*
X147771428Y-80575000D01*
X148057142Y-81039285D02*
X148057142Y-80289285D01*
X148057142Y-80575000D02*
X148114285Y-80539285D01*
X148228571Y-80539285D01*
X148285714Y-80575000D01*
X148314285Y-80610714D01*
X148342857Y-80682142D01*
X148342857Y-80896428D01*
X148314285Y-80967857D01*
X148285714Y-81003571D01*
X148228571Y-81039285D01*
X148114285Y-81039285D01*
X148057142Y-81003571D01*
X148571428Y-80360714D02*
X148600000Y-80325000D01*
X148657142Y-80289285D01*
X148800000Y-80289285D01*
X148857142Y-80325000D01*
X148885714Y-80360714D01*
X148914285Y-80432142D01*
X148914285Y-80503571D01*
X148885714Y-80610714D01*
X148542857Y-81039285D01*
X148914285Y-81039285D01*
X149171428Y-80967857D02*
X149200000Y-81003571D01*
X149171428Y-81039285D01*
X149142857Y-81003571D01*
X149171428Y-80967857D01*
X149171428Y-81039285D01*
X149457142Y-80539285D02*
X149457142Y-81289285D01*
X149457142Y-80575000D02*
X149514285Y-80539285D01*
X149628571Y-80539285D01*
X149685714Y-80575000D01*
X149714285Y-80610714D01*
X149742857Y-80682142D01*
X149742857Y-80896428D01*
X149714285Y-80967857D01*
X149685714Y-81003571D01*
X149628571Y-81039285D01*
X149514285Y-81039285D01*
X149457142Y-81003571D01*
X150257142Y-81039285D02*
X150257142Y-80646428D01*
X150228571Y-80575000D01*
X150171428Y-80539285D01*
X150057142Y-80539285D01*
X150000000Y-80575000D01*
X150257142Y-81003571D02*
X150200000Y-81039285D01*
X150057142Y-81039285D01*
X150000000Y-81003571D01*
X149971428Y-80932142D01*
X149971428Y-80860714D01*
X150000000Y-80789285D01*
X150057142Y-80753571D01*
X150200000Y-80753571D01*
X150257142Y-80717857D01*
X150800000Y-81003571D02*
X150742857Y-81039285D01*
X150628571Y-81039285D01*
X150571428Y-81003571D01*
X150542857Y-80967857D01*
X150514285Y-80896428D01*
X150514285Y-80682142D01*
X150542857Y-80610714D01*
X150571428Y-80575000D01*
X150628571Y-80539285D01*
X150742857Y-80539285D01*
X150800000Y-80575000D01*
X151057142Y-81039285D02*
X151057142Y-80289285D01*
X151114285Y-80753571D02*
X151285714Y-81039285D01*
X151285714Y-80539285D02*
X151057142Y-80825000D01*
X151800000Y-81039285D02*
X151800000Y-80646428D01*
X151771428Y-80575000D01*
X151714285Y-80539285D01*
X151600000Y-80539285D01*
X151542857Y-80575000D01*
X151800000Y-81003571D02*
X151742857Y-81039285D01*
X151600000Y-81039285D01*
X151542857Y-81003571D01*
X151514285Y-80932142D01*
X151514285Y-80860714D01*
X151542857Y-80789285D01*
X151600000Y-80753571D01*
X151742857Y-80753571D01*
X151800000Y-80717857D01*
X152342857Y-80539285D02*
X152342857Y-81146428D01*
X152314285Y-81217857D01*
X152285714Y-81253571D01*
X152228571Y-81289285D01*
X152142857Y-81289285D01*
X152085714Y-81253571D01*
X152342857Y-81003571D02*
X152285714Y-81039285D01*
X152171428Y-81039285D01*
X152114285Y-81003571D01*
X152085714Y-80967857D01*
X152057142Y-80896428D01*
X152057142Y-80682142D01*
X152085714Y-80610714D01*
X152114285Y-80575000D01*
X152171428Y-80539285D01*
X152285714Y-80539285D01*
X152342857Y-80575000D01*
X152857142Y-81003571D02*
X152800000Y-81039285D01*
X152685714Y-81039285D01*
X152628571Y-81003571D01*
X152600000Y-80932142D01*
X152600000Y-80646428D01*
X152628571Y-80575000D01*
X152685714Y-80539285D01*
X152800000Y-80539285D01*
X152857142Y-80575000D01*
X152885714Y-80646428D01*
X152885714Y-80717857D01*
X152600000Y-80789285D01*
X177142857Y-57839285D02*
X177142857Y-57339285D01*
X177142857Y-57482142D02*
X177171428Y-57410714D01*
X177200000Y-57375000D01*
X177257142Y-57339285D01*
X177314285Y-57339285D01*
X177771428Y-57339285D02*
X177771428Y-57946428D01*
X177742857Y-58017857D01*
X177714285Y-58053571D01*
X177657142Y-58089285D01*
X177571428Y-58089285D01*
X177514285Y-58053571D01*
X177771428Y-57803571D02*
X177714285Y-57839285D01*
X177600000Y-57839285D01*
X177542857Y-57803571D01*
X177514285Y-57767857D01*
X177485714Y-57696428D01*
X177485714Y-57482142D01*
X177514285Y-57410714D01*
X177542857Y-57375000D01*
X177600000Y-57339285D01*
X177714285Y-57339285D01*
X177771428Y-57375000D01*
X178057142Y-57839285D02*
X178057142Y-57089285D01*
X178057142Y-57375000D02*
X178114285Y-57339285D01*
X178228571Y-57339285D01*
X178285714Y-57375000D01*
X178314285Y-57410714D01*
X178342857Y-57482142D01*
X178342857Y-57696428D01*
X178314285Y-57767857D01*
X178285714Y-57803571D01*
X178228571Y-57839285D01*
X178114285Y-57839285D01*
X178057142Y-57803571D01*
X178542857Y-57089285D02*
X178914285Y-57089285D01*
X178714285Y-57375000D01*
X178800000Y-57375000D01*
X178857142Y-57410714D01*
X178885714Y-57446428D01*
X178914285Y-57517857D01*
X178914285Y-57696428D01*
X178885714Y-57767857D01*
X178857142Y-57803571D01*
X178800000Y-57839285D01*
X178628571Y-57839285D01*
X178571428Y-57803571D01*
X178542857Y-57767857D01*
X179171428Y-57767857D02*
X179200000Y-57803571D01*
X179171428Y-57839285D01*
X179142857Y-57803571D01*
X179171428Y-57767857D01*
X179171428Y-57839285D01*
X179457142Y-57339285D02*
X179457142Y-58089285D01*
X179457142Y-57375000D02*
X179514285Y-57339285D01*
X179628571Y-57339285D01*
X179685714Y-57375000D01*
X179714285Y-57410714D01*
X179742857Y-57482142D01*
X179742857Y-57696428D01*
X179714285Y-57767857D01*
X179685714Y-57803571D01*
X179628571Y-57839285D01*
X179514285Y-57839285D01*
X179457142Y-57803571D01*
X180257142Y-57839285D02*
X180257142Y-57446428D01*
X180228571Y-57375000D01*
X180171428Y-57339285D01*
X180057142Y-57339285D01*
X180000000Y-57375000D01*
X180257142Y-57803571D02*
X180200000Y-57839285D01*
X180057142Y-57839285D01*
X180000000Y-57803571D01*
X179971428Y-57732142D01*
X179971428Y-57660714D01*
X180000000Y-57589285D01*
X180057142Y-57553571D01*
X180200000Y-57553571D01*
X180257142Y-57517857D01*
X180800000Y-57803571D02*
X180742857Y-57839285D01*
X180628571Y-57839285D01*
X180571428Y-57803571D01*
X180542857Y-57767857D01*
X180514285Y-57696428D01*
X180514285Y-57482142D01*
X180542857Y-57410714D01*
X180571428Y-57375000D01*
X180628571Y-57339285D01*
X180742857Y-57339285D01*
X180800000Y-57375000D01*
X181057142Y-57839285D02*
X181057142Y-57089285D01*
X181114285Y-57553571D02*
X181285714Y-57839285D01*
X181285714Y-57339285D02*
X181057142Y-57625000D01*
X181800000Y-57839285D02*
X181800000Y-57446428D01*
X181771428Y-57375000D01*
X181714285Y-57339285D01*
X181600000Y-57339285D01*
X181542857Y-57375000D01*
X181800000Y-57803571D02*
X181742857Y-57839285D01*
X181600000Y-57839285D01*
X181542857Y-57803571D01*
X181514285Y-57732142D01*
X181514285Y-57660714D01*
X181542857Y-57589285D01*
X181600000Y-57553571D01*
X181742857Y-57553571D01*
X181800000Y-57517857D01*
X182342857Y-57339285D02*
X182342857Y-57946428D01*
X182314285Y-58017857D01*
X182285714Y-58053571D01*
X182228571Y-58089285D01*
X182142857Y-58089285D01*
X182085714Y-58053571D01*
X182342857Y-57803571D02*
X182285714Y-57839285D01*
X182171428Y-57839285D01*
X182114285Y-57803571D01*
X182085714Y-57767857D01*
X182057142Y-57696428D01*
X182057142Y-57482142D01*
X182085714Y-57410714D01*
X182114285Y-57375000D01*
X182171428Y-57339285D01*
X182285714Y-57339285D01*
X182342857Y-57375000D01*
X182857142Y-57803571D02*
X182800000Y-57839285D01*
X182685714Y-57839285D01*
X182628571Y-57803571D01*
X182600000Y-57732142D01*
X182600000Y-57446428D01*
X182628571Y-57375000D01*
X182685714Y-57339285D01*
X182800000Y-57339285D01*
X182857142Y-57375000D01*
X182885714Y-57446428D01*
X182885714Y-57517857D01*
X182600000Y-57589285D01*
X218973571Y-21300000D02*
X219009285Y-21357142D01*
X219009285Y-21471428D01*
X218973571Y-21528571D01*
X218902142Y-21557142D01*
X218616428Y-21557142D01*
X218545000Y-21528571D01*
X218509285Y-21471428D01*
X218509285Y-21357142D01*
X218545000Y-21300000D01*
X218616428Y-21271428D01*
X218687857Y-21271428D01*
X218759285Y-21557142D01*
X219009285Y-21071428D02*
X218509285Y-20757142D01*
X218509285Y-21071428D02*
X219009285Y-20757142D01*
X218509285Y-20614285D02*
X218509285Y-20385714D01*
X218259285Y-20528571D02*
X218902142Y-20528571D01*
X218973571Y-20500000D01*
X219009285Y-20442857D01*
X219009285Y-20385714D01*
X178053571Y-65728571D02*
X178089285Y-65671428D01*
X178089285Y-65557142D01*
X178053571Y-65500000D01*
X177982142Y-65471428D01*
X177946428Y-65471428D01*
X177875000Y-65500000D01*
X177839285Y-65557142D01*
X177839285Y-65642857D01*
X177803571Y-65700000D01*
X177732142Y-65728571D01*
X177696428Y-65728571D01*
X177625000Y-65700000D01*
X177589285Y-65642857D01*
X177589285Y-65557142D01*
X177625000Y-65500000D01*
X177589285Y-65271428D02*
X178089285Y-65157142D01*
X177732142Y-65042857D01*
X178089285Y-64928571D01*
X177589285Y-64814285D01*
X178089285Y-64271428D02*
X178089285Y-64614285D01*
X178089285Y-64442857D02*
X177339285Y-64442857D01*
X177446428Y-64500000D01*
X177517857Y-64557142D01*
X177553571Y-64614285D01*
X148053571Y-65728571D02*
X148089285Y-65671428D01*
X148089285Y-65557142D01*
X148053571Y-65500000D01*
X147982142Y-65471428D01*
X147946428Y-65471428D01*
X147875000Y-65500000D01*
X147839285Y-65557142D01*
X147839285Y-65642857D01*
X147803571Y-65700000D01*
X147732142Y-65728571D01*
X147696428Y-65728571D01*
X147625000Y-65700000D01*
X147589285Y-65642857D01*
X147589285Y-65557142D01*
X147625000Y-65500000D01*
X147589285Y-65271428D02*
X148089285Y-65157142D01*
X147732142Y-65042857D01*
X148089285Y-64928571D01*
X147589285Y-64814285D01*
X147410714Y-64614285D02*
X147375000Y-64585714D01*
X147339285Y-64528571D01*
X147339285Y-64385714D01*
X147375000Y-64328571D01*
X147410714Y-64300000D01*
X147482142Y-64271428D01*
X147553571Y-64271428D01*
X147660714Y-64300000D01*
X148089285Y-64642857D01*
X148089285Y-64271428D01*
X163314285Y-76339285D02*
X163314285Y-76839285D01*
X163057142Y-76339285D02*
X163057142Y-76732142D01*
X163085714Y-76803571D01*
X163142857Y-76839285D01*
X163228571Y-76839285D01*
X163285714Y-76803571D01*
X163314285Y-76767857D01*
X163571428Y-76803571D02*
X163628571Y-76839285D01*
X163742857Y-76839285D01*
X163800000Y-76803571D01*
X163828571Y-76732142D01*
X163828571Y-76696428D01*
X163800000Y-76625000D01*
X163742857Y-76589285D01*
X163657142Y-76589285D01*
X163600000Y-76553571D01*
X163571428Y-76482142D01*
X163571428Y-76446428D01*
X163600000Y-76375000D01*
X163657142Y-76339285D01*
X163742857Y-76339285D01*
X163800000Y-76375000D01*
X164085714Y-76839285D02*
X164085714Y-76089285D01*
X164085714Y-76375000D02*
X164142857Y-76339285D01*
X164257142Y-76339285D01*
X164314285Y-76375000D01*
X164342857Y-76410714D01*
X164371428Y-76482142D01*
X164371428Y-76696428D01*
X164342857Y-76767857D01*
X164314285Y-76803571D01*
X164257142Y-76839285D01*
X164142857Y-76839285D01*
X164085714Y-76803571D01*
X164485714Y-76910714D02*
X164942857Y-76910714D01*
X165342857Y-76803571D02*
X165285714Y-76839285D01*
X165171428Y-76839285D01*
X165114285Y-76803571D01*
X165085714Y-76767857D01*
X165057142Y-76696428D01*
X165057142Y-76482142D01*
X165085714Y-76410714D01*
X165114285Y-76375000D01*
X165171428Y-76339285D01*
X165285714Y-76339285D01*
X165342857Y-76375000D01*
X165685714Y-76839285D02*
X165628571Y-76803571D01*
X165600000Y-76767857D01*
X165571428Y-76696428D01*
X165571428Y-76482142D01*
X165600000Y-76410714D01*
X165628571Y-76375000D01*
X165685714Y-76339285D01*
X165771428Y-76339285D01*
X165828571Y-76375000D01*
X165857142Y-76410714D01*
X165885714Y-76482142D01*
X165885714Y-76696428D01*
X165857142Y-76767857D01*
X165828571Y-76803571D01*
X165771428Y-76839285D01*
X165685714Y-76839285D01*
X166142857Y-76339285D02*
X166142857Y-76839285D01*
X166142857Y-76410714D02*
X166171428Y-76375000D01*
X166228571Y-76339285D01*
X166314285Y-76339285D01*
X166371428Y-76375000D01*
X166400000Y-76446428D01*
X166400000Y-76839285D01*
X166685714Y-76339285D02*
X166685714Y-76839285D01*
X166685714Y-76410714D02*
X166714285Y-76375000D01*
X166771428Y-76339285D01*
X166857142Y-76339285D01*
X166914285Y-76375000D01*
X166942857Y-76446428D01*
X166942857Y-76839285D01*
D13*
X113809523Y-86452380D02*
X113714285Y-86404761D01*
X113666666Y-86357142D01*
X113619047Y-86261904D01*
X113619047Y-85976190D01*
X113666666Y-85880952D01*
X113714285Y-85833333D01*
X113809523Y-85785714D01*
X113952380Y-85785714D01*
X114047619Y-85833333D01*
X114095238Y-85880952D01*
X114142857Y-85976190D01*
X114142857Y-86261904D01*
X114095238Y-86357142D01*
X114047619Y-86404761D01*
X113952380Y-86452380D01*
X113809523Y-86452380D01*
X115000000Y-85785714D02*
X115000000Y-86452380D01*
X114571428Y-85785714D02*
X114571428Y-86309523D01*
X114619047Y-86404761D01*
X114714285Y-86452380D01*
X114857142Y-86452380D01*
X114952380Y-86404761D01*
X115000000Y-86357142D01*
X115333333Y-85785714D02*
X115714285Y-85785714D01*
X115476190Y-85452380D02*
X115476190Y-86309523D01*
X115523809Y-86404761D01*
X115619047Y-86452380D01*
X115714285Y-86452380D01*
X116190476Y-86452380D02*
X116095238Y-86404761D01*
X116047619Y-86309523D01*
X116047619Y-85452380D01*
X116571428Y-86452380D02*
X116571428Y-85785714D01*
X116571428Y-85452380D02*
X116523809Y-85500000D01*
X116571428Y-85547619D01*
X116619047Y-85500000D01*
X116571428Y-85452380D01*
X116571428Y-85547619D01*
X117047619Y-85785714D02*
X117047619Y-86452380D01*
X117047619Y-85880952D02*
X117095238Y-85833333D01*
X117190476Y-85785714D01*
X117333333Y-85785714D01*
X117428571Y-85833333D01*
X117476190Y-85928571D01*
X117476190Y-86452380D01*
X118333333Y-86404761D02*
X118238095Y-86452380D01*
X118047619Y-86452380D01*
X117952380Y-86404761D01*
X117904761Y-86309523D01*
X117904761Y-85928571D01*
X117952380Y-85833333D01*
X118047619Y-85785714D01*
X118238095Y-85785714D01*
X118333333Y-85833333D01*
X118380952Y-85928571D01*
X118380952Y-86023809D01*
X117904761Y-86119047D01*
M02*
