G04 #@! TF.GenerationSoftware,KiCad,Pcbnew,(5.1.0)-1*
G04 #@! TF.CreationDate,2019-09-18T00:43:19-07:00*
G04 #@! TF.ProjectId,design,64657369-676e-42e6-9b69-6361645f7063,rev?*
G04 #@! TF.SameCoordinates,Original*
G04 #@! TF.FileFunction,Profile,NP*
%FSLAX46Y46*%
G04 Gerber Fmt 4.6, Leading zero omitted, Abs format (unit mm)*
G04 Created by KiCad (PCBNEW (5.1.0)-1) date 2019-09-18 00:43:19*
%MOMM*%
%LPD*%
G04 APERTURE LIST*
%ADD10C,0.010000*%
G04 APERTURE END LIST*
D10*
X114500000Y-15000000D02*
X245500000Y-15000000D01*
X114500000Y-85000000D02*
X245500000Y-85000000D01*
X105000000Y-33500000D02*
X105000000Y-66500000D01*
X255000000Y-33500000D02*
X255000000Y-66500000D01*
X105800000Y-67300000D02*
G75*
G02X105000000Y-66500000I0J800000D01*
G01*
X106200000Y-67300000D02*
G75*
G02X113700000Y-74800000I0J-7500000D01*
G01*
X114500000Y-85000000D02*
G75*
G02X113700000Y-84200000I0J800000D01*
G01*
X105800000Y-67300000D02*
X106200000Y-67300000D01*
X113700000Y-74800000D02*
X113700000Y-84200000D01*
X254200000Y-32700000D02*
X253800000Y-32700000D01*
X246300000Y-25200000D02*
X246300000Y-15800000D01*
X245500000Y-15000000D02*
G75*
G02X246300000Y-15800000I0J-800000D01*
G01*
X254200000Y-32700000D02*
G75*
G02X255000000Y-33500000I0J-800000D01*
G01*
X253800000Y-32700000D02*
G75*
G02X246300000Y-25200000I0J7500000D01*
G01*
X254200000Y-67300000D02*
X253800000Y-67300000D01*
X246300000Y-74800000D02*
X246300000Y-84200000D01*
X245500000Y-85000000D02*
G75*
G03X246300000Y-84200000I0J800000D01*
G01*
X254200000Y-67300000D02*
G75*
G03X255000000Y-66500000I0J800000D01*
G01*
X253800000Y-67300000D02*
G75*
G03X246300000Y-74800000I0J-7500000D01*
G01*
X114500000Y-15000000D02*
G75*
G03X113700000Y-15800000I0J-800000D01*
G01*
X106200000Y-32700000D02*
G75*
G03X113700000Y-25200000I0J7500000D01*
G01*
X105800000Y-32700000D02*
G75*
G03X105000000Y-33500000I0J-800000D01*
G01*
X113700000Y-25200000D02*
X113700000Y-15800000D01*
X105800000Y-32700000D02*
X106200000Y-32700000D01*
M02*
