M48
; DRILL file {KiCad (5.1.0)-1} date 09/18/19 00:43:22
; FORMAT={-:-/ absolute / inch / decimal}
; #@! TF.CreationDate,2019-09-18T00:43:22-07:00
; #@! TF.GenerationSoftware,Kicad,Pcbnew,(5.1.0)-1
FMAT,2
INCH
T1C0.0157
T2C0.0236
T3C0.0314
T4C0.0315
T5C0.0394
T6C0.0472
T7C0.0591
T8C0.1693
T9C0.0256
T10C0.0591
%
G90
G05
T1
X5.111Y-3.1567
X5.8268Y-2.8346
X5.8268Y-3.1102
X5.9055Y-0.8268
X5.9055Y-2.4409
X5.9055Y-2.6772
X5.9055Y-2.8346
X5.9252Y-3.0315
X5.9646Y-1.5748
X5.9646Y-1.7717
X5.9646Y-1.9685
X5.9843Y-2.8346
X5.9843Y-3.1102
X6.0039Y-2.3228
X6.0433Y-2.2835
X6.063Y-2.5984
X6.063Y-2.6378
X6.063Y-2.7953
X6.1811Y-2.7559
X6.2222Y-1.8381
X6.2697Y-0.6594
X6.2992Y-0.9843
X6.3091Y-0.6594
X6.3484Y-0.6594
X6.3638Y-1.9894
X6.3638Y-1.9894
X6.3681Y-0.7677
X6.378Y-0.9843
X6.3847Y-2.0799
X6.3878Y-0.6594
X6.4014Y-1.9295
X6.4014Y-1.9295
X6.4075Y-0.7677
X6.4125Y-1.9963
X6.4173Y-1.3976
X6.4272Y-0.6594
X6.437Y-1.6535
X6.4404Y-1.9128
X6.4404Y-1.9128
X6.4404Y-2.1355
X6.4469Y-1.3583
X6.4567Y-2.4409
X6.4567Y-2.9134
X6.4665Y-0.6594
X6.4682Y-2.052
X6.4764Y-1.3976
X6.4764Y-2.9921
X6.4961Y-1.9685
X6.4961Y-1.9685
X6.5157Y-2.9921
X6.5354Y-2.4409
X6.5517Y-1.8015
X6.5517Y-2.1077
X6.5551Y-1.6535
X6.5587Y-1.9059
X6.5587Y-1.9059
X6.5748Y-2.2835
X6.5865Y-1.9337
X6.5865Y-1.9337
X6.5945Y-1.3583
X6.6043Y-0.7677
X6.6142Y-1.3189
X6.6142Y-1.3976
X6.624Y-0.6594
X6.6353Y-2.0242
X6.6535Y-2.4409
X6.6631Y-1.9128
X6.6634Y-0.6594
X6.6732Y-2.0079
X6.6929Y-0.9839
X6.7323Y-2.126
X6.752Y-0.9843
X6.752Y-2.2244
X6.7717Y-2.7953
X6.811Y-1.9685
X6.811Y-2.126
X6.8504Y-2.0866
X6.9291Y-1.8701
X6.9291Y-1.9685
X6.9291Y-2.0185
X6.9291Y-2.0669
X6.9685Y-1.2992
X6.9685Y-1.437
X7.0079Y-1.2992
X7.0079Y-1.437
X7.0079Y-2.2441
X7.0079Y-2.4016
X7.0079Y-2.8346
X7.0079Y-3.1102
X7.0472Y-1.2992
X7.0472Y-1.437
X7.0866Y-1.2992
X7.0866Y-1.437
X7.0866Y-2.2441
X7.0866Y-2.4016
X7.0866Y-2.4409
X7.0866Y-2.6772
X7.0866Y-2.8346
X7.1063Y-3.0315
X7.1654Y-2.2441
X7.1654Y-2.4016
X7.1654Y-2.8346
X7.1654Y-3.1102
X7.5197Y-3.0709
X7.5591Y-1.6142
X7.5984Y-3.0709
X7.5984Y-3.189
X7.6772Y-3.0709
X7.9134Y-2.9134
X8.5827Y-1.0827
X8.7598Y-1.0039
X9.1929Y-1.5945
X9.1929Y-1.6339
X9.1929Y-1.6732
X9.1929Y-1.7126
X9.7441Y-2.3425
X9.7441Y-2.5787
T2
X4.5659Y-0.8268
X4.6031Y-0.737
X4.6031Y-0.9166
X4.6929Y-0.6998
X4.6929Y-0.9537
X4.7827Y-0.737
X4.7827Y-0.9166
X4.8199Y-0.8268
X9.3533Y-0.8268
X9.3905Y-0.737
X9.3905Y-0.9166
X9.4803Y-0.6998
X9.4803Y-0.9537
X9.5701Y-0.737
X9.5701Y-0.9166
X9.6073Y-0.8268
X9.3533Y-3.1102
X9.3905Y-3.0205
X9.3905Y-3.2
X9.4803Y-2.9833
X9.4803Y-3.2372
X9.5701Y-3.0205
X9.5701Y-3.2
X9.6073Y-3.1102
T3
X7.7166Y-1.1811
X7.7166Y-1.2598
X7.7166Y-1.3386
X7.7166Y-1.4173
X7.7166Y-1.4961
X7.7166Y-1.5748
X7.7166Y-1.6535
X7.7166Y-1.7323
X7.7166Y-1.811
X7.7166Y-1.8898
X8.5826Y-1.1811
X8.5826Y-1.2598
X8.5826Y-1.3386
X8.5826Y-1.4173
X8.5826Y-1.4961
X8.5826Y-1.5748
X8.5826Y-1.6535
X8.5826Y-1.7323
X8.5826Y-1.811
X8.5826Y-1.8898
T4
X5.174Y-3.1496
X5.174Y-3.3071
X5.2409Y-3.0906
X5.4378Y-3.1496
X5.4378Y-3.3071
X5.5906Y-2.7953
X5.7874Y-2.7953
X5.8189Y-2.3543
X6.2598Y-3.0315
X6.378Y-2.8346
X6.4961Y-2.8346
X6.7323Y-3.0315
X6.7323Y-2.9528
X6.7717Y-1.6929
X7.126Y-2.7165
X7.2441Y-1.8685
X7.2441Y-1.9685
X7.2441Y-2.0685
X7.4409Y-2.4016
X7.4803Y-1.811
X7.5272Y-2.2638
X7.5272Y-2.7756
X7.7953Y-1.122
X7.8272Y-2.2638
X7.8272Y-2.7756
X7.9921Y-2.4803
X8.6614Y-1.2205
X8.7008Y-2.5591
X8.7795Y-2.8937
X8.7795Y-3.0512
X8.8583Y-2.8937
X8.8583Y-3.0512
X8.937Y-2.8937
X8.937Y-3.0512
X9.0157Y-2.5984
X9.0157Y-2.6772
X9.0945Y-2.5984
X9.0945Y-2.6772
X9.2126Y-1.811
X9.252Y-2.1654
X9.252Y-2.2441
X9.252Y-2.3228
T5
X8.7008Y-0.8268
X8.8008Y-0.8268
X8.9008Y-0.8268
X9.0008Y-0.8268
X9.1008Y-0.8268
X9.2008Y-0.8268
T6
X9.6457Y-2.3031
X9.6457Y-2.5
T7
X9.0358Y-1.5354
X9.8425Y-1.5354
T8
X9.4803Y-3.1102
X4.6929Y-0.8268
X9.4803Y-0.8268
T9
X6.3823Y-3.1031
X6.6098Y-3.1031
T10
X4.7402Y-2.2717
X5.6929Y-2.2717
T2
G00X6.326Y-3.0618
M15
G01X6.326Y-3.1051
M16
G05
G00X6.326Y-3.2323
M15
G01X6.326Y-3.2638
M16
G05
G00X6.6661Y-3.0618
M15
G01X6.6661Y-3.1051
M16
G05
G00X6.6661Y-3.2323
M15
G01X6.6661Y-3.2638
M16
G05
T0
M30
