G04 #@! TF.GenerationSoftware,KiCad,Pcbnew,(5.1.0)-1*
G04 #@! TF.CreationDate,2020-02-07T04:27:50-08:00*
G04 #@! TF.ProjectId,design,64657369-676e-42e6-9b69-6361645f7063,rev?*
G04 #@! TF.SameCoordinates,Original*
G04 #@! TF.FileFunction,Legend,Bot*
G04 #@! TF.FilePolarity,Positive*
%FSLAX46Y46*%
G04 Gerber Fmt 4.6, Leading zero omitted, Abs format (unit mm)*
G04 Created by KiCad (PCBNEW (5.1.0)-1) date 2020-02-07 04:27:50*
%MOMM*%
%LPD*%
G04 APERTURE LIST*
%ADD10C,0.120000*%
%ADD11C,0.100000*%
G04 APERTURE END LIST*
D10*
X200100000Y-54390000D02*
X201900000Y-54390000D01*
X201900000Y-57610000D02*
X199450000Y-57610000D01*
X200837221Y-53510000D02*
X201162779Y-53510000D01*
X200837221Y-52490000D02*
X201162779Y-52490000D01*
X154990000Y-50162779D02*
X154990000Y-49837221D01*
X156010000Y-50162779D02*
X156010000Y-49837221D01*
X162010000Y-50162779D02*
X162010000Y-49837221D01*
X160990000Y-50162779D02*
X160990000Y-49837221D01*
X160075000Y-52900000D02*
X156925000Y-52900000D01*
X156925000Y-52900000D02*
X156925000Y-49100000D01*
X175510000Y-55837221D02*
X175510000Y-56162779D01*
X174490000Y-55837221D02*
X174490000Y-56162779D01*
X189837221Y-60510000D02*
X190162779Y-60510000D01*
X189837221Y-59490000D02*
X190162779Y-59490000D01*
X165837221Y-53510000D02*
X166162779Y-53510000D01*
X165837221Y-52490000D02*
X166162779Y-52490000D01*
X163837221Y-50490000D02*
X164162779Y-50490000D01*
X163837221Y-51510000D02*
X164162779Y-51510000D01*
X159837221Y-55510000D02*
X160162779Y-55510000D01*
X159837221Y-54490000D02*
X160162779Y-54490000D01*
X159837221Y-57510000D02*
X160162779Y-57510000D01*
X159837221Y-56490000D02*
X160162779Y-56490000D01*
X163837221Y-60490000D02*
X164162779Y-60490000D01*
X163837221Y-61510000D02*
X164162779Y-61510000D01*
X161837221Y-58490000D02*
X162162779Y-58490000D01*
X161837221Y-59510000D02*
X162162779Y-59510000D01*
X167837221Y-55510000D02*
X168162779Y-55510000D01*
X167837221Y-54490000D02*
X168162779Y-54490000D01*
X164258578Y-54290000D02*
X163741422Y-54290000D01*
X164258578Y-55710000D02*
X163741422Y-55710000D01*
X153490000Y-62162779D02*
X153490000Y-61837221D01*
X154510000Y-62162779D02*
X154510000Y-61837221D01*
X156510000Y-62162779D02*
X156510000Y-61837221D01*
X155490000Y-62162779D02*
X155490000Y-61837221D01*
X158510000Y-62162779D02*
X158510000Y-61837221D01*
X157490000Y-62162779D02*
X157490000Y-61837221D01*
X162162779Y-53510000D02*
X161837221Y-53510000D01*
X162162779Y-52490000D02*
X161837221Y-52490000D01*
X167837221Y-57510000D02*
X168162779Y-57510000D01*
X167837221Y-56490000D02*
X168162779Y-56490000D01*
X165837221Y-58490000D02*
X166162779Y-58490000D01*
X165837221Y-59510000D02*
X166162779Y-59510000D01*
X164258578Y-57710000D02*
X163741422Y-57710000D01*
X164258578Y-56290000D02*
X163741422Y-56290000D01*
X182162779Y-57490000D02*
X181837221Y-57490000D01*
X182162779Y-58510000D02*
X181837221Y-58510000D01*
X182162779Y-62510000D02*
X181837221Y-62510000D01*
X182162779Y-61490000D02*
X181837221Y-61490000D01*
X182162779Y-60510000D02*
X181837221Y-60510000D01*
X182162779Y-59490000D02*
X181837221Y-59490000D01*
X172510000Y-62162779D02*
X172510000Y-61837221D01*
X171490000Y-62162779D02*
X171490000Y-61837221D01*
X167490000Y-62162779D02*
X167490000Y-61837221D01*
X168510000Y-62162779D02*
X168510000Y-61837221D01*
X170510000Y-62162779D02*
X170510000Y-61837221D01*
X169490000Y-62162779D02*
X169490000Y-61837221D01*
X147100000Y-54390000D02*
X149550000Y-54390000D01*
X148900000Y-57610000D02*
X147100000Y-57610000D01*
X147837221Y-58490000D02*
X148162779Y-58490000D01*
X147837221Y-59510000D02*
X148162779Y-59510000D01*
X147741422Y-53710000D02*
X148258578Y-53710000D01*
X147741422Y-52290000D02*
X148258578Y-52290000D01*
X190162779Y-51490000D02*
X189837221Y-51490000D01*
X190162779Y-52510000D02*
X189837221Y-52510000D01*
X181837221Y-51490000D02*
X182162779Y-51490000D01*
X181837221Y-52510000D02*
X182162779Y-52510000D01*
D11*
X201000000Y-64500000D02*
X200750000Y-64750000D01*
X200750000Y-64750000D02*
X199750000Y-64750000D01*
X199750000Y-64750000D02*
X199500000Y-64500000D01*
X199500000Y-64250000D02*
X199500000Y-63750000D01*
X199500000Y-63500000D02*
X199750000Y-63250000D01*
X200750000Y-63250000D02*
X201000000Y-63500000D01*
X199750000Y-63250000D02*
X200750000Y-63250000D01*
X201000000Y-63500000D02*
X201000000Y-64500000D01*
X199500000Y-64500000D02*
X199250000Y-64750000D01*
X198250000Y-64750000D02*
X198000000Y-64500000D01*
X198250000Y-63250000D02*
X199250000Y-63250000D01*
X199250000Y-63250000D02*
X199500000Y-63500000D01*
X198000000Y-63500000D02*
X198250000Y-63250000D01*
X199250000Y-64750000D02*
X198250000Y-64750000D01*
X198000000Y-64250000D02*
X198000000Y-63750000D01*
X198000000Y-64500000D02*
X197750000Y-64750000D01*
X196750000Y-64750000D02*
X196500000Y-64500000D01*
X196750000Y-63250000D02*
X197750000Y-63250000D01*
X197750000Y-63250000D02*
X198000000Y-63500000D01*
X196500000Y-63500000D02*
X196750000Y-63250000D01*
X197750000Y-64750000D02*
X196750000Y-64750000D01*
X196500000Y-64250000D02*
X196500000Y-63750000D01*
X196500000Y-64500000D02*
X196250000Y-64750000D01*
X195250000Y-64750000D02*
X195000000Y-64500000D01*
X195250000Y-63250000D02*
X196250000Y-63250000D01*
X196250000Y-63250000D02*
X196500000Y-63500000D01*
X195000000Y-63500000D02*
X195250000Y-63250000D01*
X196250000Y-64750000D02*
X195250000Y-64750000D01*
X195000000Y-64500000D02*
X195000000Y-63500000D01*
X201500000Y-63250000D02*
X201250000Y-63500000D01*
X201250000Y-63500000D02*
X201500000Y-63750000D01*
X201500000Y-63750000D02*
X201500000Y-63250000D01*
X201250000Y-64500000D02*
X201500000Y-64750000D01*
X201500000Y-64750000D02*
X201500000Y-64250000D01*
X201500000Y-64250000D02*
X201250000Y-64500000D01*
X194500000Y-64000000D02*
X194750000Y-64250000D01*
X194750000Y-64250000D02*
X194750000Y-63750000D01*
X194750000Y-63750000D02*
X194500000Y-64000000D01*
D10*
X171490000Y-55837221D02*
X171490000Y-56162779D01*
X172510000Y-55837221D02*
X172510000Y-56162779D01*
X190760000Y-54420000D02*
X190760000Y-55350000D01*
X190760000Y-57580000D02*
X190760000Y-56650000D01*
X190760000Y-57580000D02*
X188600000Y-57580000D01*
X190760000Y-54420000D02*
X189300000Y-54420000D01*
X201602064Y-58090000D02*
X200397936Y-58090000D01*
X201602064Y-59910000D02*
X200397936Y-59910000D01*
X149837221Y-61490000D02*
X150162779Y-61490000D01*
X149837221Y-62510000D02*
X150162779Y-62510000D01*
X149837221Y-50510000D02*
X150162779Y-50510000D01*
X149837221Y-49490000D02*
X150162779Y-49490000D01*
X152240000Y-57580000D02*
X152240000Y-56650000D01*
X152240000Y-54420000D02*
X152240000Y-55350000D01*
X152240000Y-54420000D02*
X154400000Y-54420000D01*
X152240000Y-57580000D02*
X153700000Y-57580000D01*
D11*
X201457142Y-53561904D02*
X201457142Y-54209523D01*
X201428571Y-54285714D01*
X201400000Y-54323809D01*
X201342857Y-54361904D01*
X201228571Y-54361904D01*
X201171428Y-54323809D01*
X201142857Y-54285714D01*
X201114285Y-54209523D01*
X201114285Y-53561904D01*
X200571428Y-53561904D02*
X200685714Y-53561904D01*
X200742857Y-53600000D01*
X200771428Y-53638095D01*
X200828571Y-53752380D01*
X200857142Y-53904761D01*
X200857142Y-54209523D01*
X200828571Y-54285714D01*
X200800000Y-54323809D01*
X200742857Y-54361904D01*
X200628571Y-54361904D01*
X200571428Y-54323809D01*
X200542857Y-54285714D01*
X200514285Y-54209523D01*
X200514285Y-54019047D01*
X200542857Y-53942857D01*
X200571428Y-53904761D01*
X200628571Y-53866666D01*
X200742857Y-53866666D01*
X200800000Y-53904761D01*
X200828571Y-53942857D01*
X200857142Y-54019047D01*
X198885714Y-53285714D02*
X198914285Y-53323809D01*
X199000000Y-53361904D01*
X199057142Y-53361904D01*
X199142857Y-53323809D01*
X199200000Y-53247619D01*
X199228571Y-53171428D01*
X199257142Y-53019047D01*
X199257142Y-52904761D01*
X199228571Y-52752380D01*
X199200000Y-52676190D01*
X199142857Y-52600000D01*
X199057142Y-52561904D01*
X199000000Y-52561904D01*
X198914285Y-52600000D01*
X198885714Y-52638095D01*
X198657142Y-52638095D02*
X198628571Y-52600000D01*
X198571428Y-52561904D01*
X198428571Y-52561904D01*
X198371428Y-52600000D01*
X198342857Y-52638095D01*
X198314285Y-52714285D01*
X198314285Y-52790476D01*
X198342857Y-52904761D01*
X198685714Y-53361904D01*
X198314285Y-53361904D01*
X197942857Y-52561904D02*
X197885714Y-52561904D01*
X197828571Y-52600000D01*
X197800000Y-52638095D01*
X197771428Y-52714285D01*
X197742857Y-52866666D01*
X197742857Y-53057142D01*
X197771428Y-53209523D01*
X197800000Y-53285714D01*
X197828571Y-53323809D01*
X197885714Y-53361904D01*
X197942857Y-53361904D01*
X198000000Y-53323809D01*
X198028571Y-53285714D01*
X198057142Y-53209523D01*
X198085714Y-53057142D01*
X198085714Y-52866666D01*
X198057142Y-52714285D01*
X198028571Y-52638095D01*
X198000000Y-52600000D01*
X197942857Y-52561904D01*
X155785714Y-51614285D02*
X155823809Y-51585714D01*
X155861904Y-51500000D01*
X155861904Y-51442857D01*
X155823809Y-51357142D01*
X155747619Y-51300000D01*
X155671428Y-51271428D01*
X155519047Y-51242857D01*
X155404761Y-51242857D01*
X155252380Y-51271428D01*
X155176190Y-51300000D01*
X155100000Y-51357142D01*
X155061904Y-51442857D01*
X155061904Y-51500000D01*
X155100000Y-51585714D01*
X155138095Y-51614285D01*
X155861904Y-52185714D02*
X155861904Y-51842857D01*
X155861904Y-52014285D02*
X155061904Y-52014285D01*
X155176190Y-51957142D01*
X155252380Y-51900000D01*
X155290476Y-51842857D01*
X155061904Y-52728571D02*
X155061904Y-52442857D01*
X155442857Y-52414285D01*
X155404761Y-52442857D01*
X155366666Y-52500000D01*
X155366666Y-52642857D01*
X155404761Y-52700000D01*
X155442857Y-52728571D01*
X155519047Y-52757142D01*
X155709523Y-52757142D01*
X155785714Y-52728571D01*
X155823809Y-52700000D01*
X155861904Y-52642857D01*
X155861904Y-52500000D01*
X155823809Y-52442857D01*
X155785714Y-52414285D01*
X161785714Y-51614285D02*
X161823809Y-51585714D01*
X161861904Y-51500000D01*
X161861904Y-51442857D01*
X161823809Y-51357142D01*
X161747619Y-51300000D01*
X161671428Y-51271428D01*
X161519047Y-51242857D01*
X161404761Y-51242857D01*
X161252380Y-51271428D01*
X161176190Y-51300000D01*
X161100000Y-51357142D01*
X161061904Y-51442857D01*
X161061904Y-51500000D01*
X161100000Y-51585714D01*
X161138095Y-51614285D01*
X161861904Y-52185714D02*
X161861904Y-51842857D01*
X161861904Y-52014285D02*
X161061904Y-52014285D01*
X161176190Y-51957142D01*
X161252380Y-51900000D01*
X161290476Y-51842857D01*
X161061904Y-52700000D02*
X161061904Y-52585714D01*
X161100000Y-52528571D01*
X161138095Y-52500000D01*
X161252380Y-52442857D01*
X161404761Y-52414285D01*
X161709523Y-52414285D01*
X161785714Y-52442857D01*
X161823809Y-52471428D01*
X161861904Y-52528571D01*
X161861904Y-52642857D01*
X161823809Y-52700000D01*
X161785714Y-52728571D01*
X161709523Y-52757142D01*
X161519047Y-52757142D01*
X161442857Y-52728571D01*
X161404761Y-52700000D01*
X161366666Y-52642857D01*
X161366666Y-52528571D01*
X161404761Y-52471428D01*
X161442857Y-52442857D01*
X161519047Y-52414285D01*
X156061904Y-50514285D02*
X156861904Y-50914285D01*
X156061904Y-50914285D02*
X156861904Y-50514285D01*
X156861904Y-51457142D02*
X156861904Y-51114285D01*
X156861904Y-51285714D02*
X156061904Y-51285714D01*
X156176190Y-51228571D01*
X156252380Y-51171428D01*
X156290476Y-51114285D01*
X175361904Y-53400000D02*
X174980952Y-53200000D01*
X175361904Y-53057142D02*
X174561904Y-53057142D01*
X174561904Y-53285714D01*
X174600000Y-53342857D01*
X174638095Y-53371428D01*
X174714285Y-53400000D01*
X174828571Y-53400000D01*
X174904761Y-53371428D01*
X174942857Y-53342857D01*
X174980952Y-53285714D01*
X174980952Y-53057142D01*
X174561904Y-53914285D02*
X174561904Y-53800000D01*
X174600000Y-53742857D01*
X174638095Y-53714285D01*
X174752380Y-53657142D01*
X174904761Y-53628571D01*
X175209523Y-53628571D01*
X175285714Y-53657142D01*
X175323809Y-53685714D01*
X175361904Y-53742857D01*
X175361904Y-53857142D01*
X175323809Y-53914285D01*
X175285714Y-53942857D01*
X175209523Y-53971428D01*
X175019047Y-53971428D01*
X174942857Y-53942857D01*
X174904761Y-53914285D01*
X174866666Y-53857142D01*
X174866666Y-53742857D01*
X174904761Y-53685714D01*
X174942857Y-53657142D01*
X175019047Y-53628571D01*
X192885714Y-60361904D02*
X193085714Y-59980952D01*
X193228571Y-60361904D02*
X193228571Y-59561904D01*
X193000000Y-59561904D01*
X192942857Y-59600000D01*
X192914285Y-59638095D01*
X192885714Y-59714285D01*
X192885714Y-59828571D01*
X192914285Y-59904761D01*
X192942857Y-59942857D01*
X193000000Y-59980952D01*
X193228571Y-59980952D01*
X192314285Y-60361904D02*
X192657142Y-60361904D01*
X192485714Y-60361904D02*
X192485714Y-59561904D01*
X192542857Y-59676190D01*
X192600000Y-59752380D01*
X192657142Y-59790476D01*
X192114285Y-59561904D02*
X191742857Y-59561904D01*
X191942857Y-59866666D01*
X191857142Y-59866666D01*
X191800000Y-59904761D01*
X191771428Y-59942857D01*
X191742857Y-60019047D01*
X191742857Y-60209523D01*
X191771428Y-60285714D01*
X191800000Y-60323809D01*
X191857142Y-60361904D01*
X192028571Y-60361904D01*
X192085714Y-60323809D01*
X192114285Y-60285714D01*
X166100000Y-54285714D02*
X166128571Y-54323809D01*
X166214285Y-54361904D01*
X166271428Y-54361904D01*
X166357142Y-54323809D01*
X166414285Y-54247619D01*
X166442857Y-54171428D01*
X166471428Y-54019047D01*
X166471428Y-53904761D01*
X166442857Y-53752380D01*
X166414285Y-53676190D01*
X166357142Y-53600000D01*
X166271428Y-53561904D01*
X166214285Y-53561904D01*
X166128571Y-53600000D01*
X166100000Y-53638095D01*
X165900000Y-53561904D02*
X165528571Y-53561904D01*
X165728571Y-53866666D01*
X165642857Y-53866666D01*
X165585714Y-53904761D01*
X165557142Y-53942857D01*
X165528571Y-54019047D01*
X165528571Y-54209523D01*
X165557142Y-54285714D01*
X165585714Y-54323809D01*
X165642857Y-54361904D01*
X165814285Y-54361904D01*
X165871428Y-54323809D01*
X165900000Y-54285714D01*
X164100000Y-52285714D02*
X164128571Y-52323809D01*
X164214285Y-52361904D01*
X164271428Y-52361904D01*
X164357142Y-52323809D01*
X164414285Y-52247619D01*
X164442857Y-52171428D01*
X164471428Y-52019047D01*
X164471428Y-51904761D01*
X164442857Y-51752380D01*
X164414285Y-51676190D01*
X164357142Y-51600000D01*
X164271428Y-51561904D01*
X164214285Y-51561904D01*
X164128571Y-51600000D01*
X164100000Y-51638095D01*
X163585714Y-51828571D02*
X163585714Y-52361904D01*
X163728571Y-51523809D02*
X163871428Y-52095238D01*
X163500000Y-52095238D01*
X160100000Y-54285714D02*
X160128571Y-54323809D01*
X160214285Y-54361904D01*
X160271428Y-54361904D01*
X160357142Y-54323809D01*
X160414285Y-54247619D01*
X160442857Y-54171428D01*
X160471428Y-54019047D01*
X160471428Y-53904761D01*
X160442857Y-53752380D01*
X160414285Y-53676190D01*
X160357142Y-53600000D01*
X160271428Y-53561904D01*
X160214285Y-53561904D01*
X160128571Y-53600000D01*
X160100000Y-53638095D01*
X159557142Y-53561904D02*
X159842857Y-53561904D01*
X159871428Y-53942857D01*
X159842857Y-53904761D01*
X159785714Y-53866666D01*
X159642857Y-53866666D01*
X159585714Y-53904761D01*
X159557142Y-53942857D01*
X159528571Y-54019047D01*
X159528571Y-54209523D01*
X159557142Y-54285714D01*
X159585714Y-54323809D01*
X159642857Y-54361904D01*
X159785714Y-54361904D01*
X159842857Y-54323809D01*
X159871428Y-54285714D01*
X160100000Y-58285714D02*
X160128571Y-58323809D01*
X160214285Y-58361904D01*
X160271428Y-58361904D01*
X160357142Y-58323809D01*
X160414285Y-58247619D01*
X160442857Y-58171428D01*
X160471428Y-58019047D01*
X160471428Y-57904761D01*
X160442857Y-57752380D01*
X160414285Y-57676190D01*
X160357142Y-57600000D01*
X160271428Y-57561904D01*
X160214285Y-57561904D01*
X160128571Y-57600000D01*
X160100000Y-57638095D01*
X159585714Y-57561904D02*
X159700000Y-57561904D01*
X159757142Y-57600000D01*
X159785714Y-57638095D01*
X159842857Y-57752380D01*
X159871428Y-57904761D01*
X159871428Y-58209523D01*
X159842857Y-58285714D01*
X159814285Y-58323809D01*
X159757142Y-58361904D01*
X159642857Y-58361904D01*
X159585714Y-58323809D01*
X159557142Y-58285714D01*
X159528571Y-58209523D01*
X159528571Y-58019047D01*
X159557142Y-57942857D01*
X159585714Y-57904761D01*
X159642857Y-57866666D01*
X159757142Y-57866666D01*
X159814285Y-57904761D01*
X159842857Y-57942857D01*
X159871428Y-58019047D01*
X164100000Y-60285714D02*
X164128571Y-60323809D01*
X164214285Y-60361904D01*
X164271428Y-60361904D01*
X164357142Y-60323809D01*
X164414285Y-60247619D01*
X164442857Y-60171428D01*
X164471428Y-60019047D01*
X164471428Y-59904761D01*
X164442857Y-59752380D01*
X164414285Y-59676190D01*
X164357142Y-59600000D01*
X164271428Y-59561904D01*
X164214285Y-59561904D01*
X164128571Y-59600000D01*
X164100000Y-59638095D01*
X163900000Y-59561904D02*
X163500000Y-59561904D01*
X163757142Y-60361904D01*
X162100000Y-58285714D02*
X162128571Y-58323809D01*
X162214285Y-58361904D01*
X162271428Y-58361904D01*
X162357142Y-58323809D01*
X162414285Y-58247619D01*
X162442857Y-58171428D01*
X162471428Y-58019047D01*
X162471428Y-57904761D01*
X162442857Y-57752380D01*
X162414285Y-57676190D01*
X162357142Y-57600000D01*
X162271428Y-57561904D01*
X162214285Y-57561904D01*
X162128571Y-57600000D01*
X162100000Y-57638095D01*
X161757142Y-57904761D02*
X161814285Y-57866666D01*
X161842857Y-57828571D01*
X161871428Y-57752380D01*
X161871428Y-57714285D01*
X161842857Y-57638095D01*
X161814285Y-57600000D01*
X161757142Y-57561904D01*
X161642857Y-57561904D01*
X161585714Y-57600000D01*
X161557142Y-57638095D01*
X161528571Y-57714285D01*
X161528571Y-57752380D01*
X161557142Y-57828571D01*
X161585714Y-57866666D01*
X161642857Y-57904761D01*
X161757142Y-57904761D01*
X161814285Y-57942857D01*
X161842857Y-57980952D01*
X161871428Y-58057142D01*
X161871428Y-58209523D01*
X161842857Y-58285714D01*
X161814285Y-58323809D01*
X161757142Y-58361904D01*
X161642857Y-58361904D01*
X161585714Y-58323809D01*
X161557142Y-58285714D01*
X161528571Y-58209523D01*
X161528571Y-58057142D01*
X161557142Y-57980952D01*
X161585714Y-57942857D01*
X161642857Y-57904761D01*
X168385714Y-54285714D02*
X168414285Y-54323809D01*
X168500000Y-54361904D01*
X168557142Y-54361904D01*
X168642857Y-54323809D01*
X168700000Y-54247619D01*
X168728571Y-54171428D01*
X168757142Y-54019047D01*
X168757142Y-53904761D01*
X168728571Y-53752380D01*
X168700000Y-53676190D01*
X168642857Y-53600000D01*
X168557142Y-53561904D01*
X168500000Y-53561904D01*
X168414285Y-53600000D01*
X168385714Y-53638095D01*
X167814285Y-54361904D02*
X168157142Y-54361904D01*
X167985714Y-54361904D02*
X167985714Y-53561904D01*
X168042857Y-53676190D01*
X168100000Y-53752380D01*
X168157142Y-53790476D01*
X167442857Y-53561904D02*
X167385714Y-53561904D01*
X167328571Y-53600000D01*
X167300000Y-53638095D01*
X167271428Y-53714285D01*
X167242857Y-53866666D01*
X167242857Y-54057142D01*
X167271428Y-54209523D01*
X167300000Y-54285714D01*
X167328571Y-54323809D01*
X167385714Y-54361904D01*
X167442857Y-54361904D01*
X167500000Y-54323809D01*
X167528571Y-54285714D01*
X167557142Y-54209523D01*
X167585714Y-54057142D01*
X167585714Y-53866666D01*
X167557142Y-53714285D01*
X167528571Y-53638095D01*
X167500000Y-53600000D01*
X167442857Y-53561904D01*
X164385714Y-54285714D02*
X164414285Y-54323809D01*
X164500000Y-54361904D01*
X164557142Y-54361904D01*
X164642857Y-54323809D01*
X164700000Y-54247619D01*
X164728571Y-54171428D01*
X164757142Y-54019047D01*
X164757142Y-53904761D01*
X164728571Y-53752380D01*
X164700000Y-53676190D01*
X164642857Y-53600000D01*
X164557142Y-53561904D01*
X164500000Y-53561904D01*
X164414285Y-53600000D01*
X164385714Y-53638095D01*
X163814285Y-54361904D02*
X164157142Y-54361904D01*
X163985714Y-54361904D02*
X163985714Y-53561904D01*
X164042857Y-53676190D01*
X164100000Y-53752380D01*
X164157142Y-53790476D01*
X163242857Y-54361904D02*
X163585714Y-54361904D01*
X163414285Y-54361904D02*
X163414285Y-53561904D01*
X163471428Y-53676190D01*
X163528571Y-53752380D01*
X163585714Y-53790476D01*
X154361904Y-59900000D02*
X153980952Y-59700000D01*
X154361904Y-59557142D02*
X153561904Y-59557142D01*
X153561904Y-59785714D01*
X153600000Y-59842857D01*
X153638095Y-59871428D01*
X153714285Y-59900000D01*
X153828571Y-59900000D01*
X153904761Y-59871428D01*
X153942857Y-59842857D01*
X153980952Y-59785714D01*
X153980952Y-59557142D01*
X153561904Y-60442857D02*
X153561904Y-60157142D01*
X153942857Y-60128571D01*
X153904761Y-60157142D01*
X153866666Y-60214285D01*
X153866666Y-60357142D01*
X153904761Y-60414285D01*
X153942857Y-60442857D01*
X154019047Y-60471428D01*
X154209523Y-60471428D01*
X154285714Y-60442857D01*
X154323809Y-60414285D01*
X154361904Y-60357142D01*
X154361904Y-60214285D01*
X154323809Y-60157142D01*
X154285714Y-60128571D01*
X156361904Y-59900000D02*
X155980952Y-59700000D01*
X156361904Y-59557142D02*
X155561904Y-59557142D01*
X155561904Y-59785714D01*
X155600000Y-59842857D01*
X155638095Y-59871428D01*
X155714285Y-59900000D01*
X155828571Y-59900000D01*
X155904761Y-59871428D01*
X155942857Y-59842857D01*
X155980952Y-59785714D01*
X155980952Y-59557142D01*
X155828571Y-60414285D02*
X156361904Y-60414285D01*
X155523809Y-60271428D02*
X156095238Y-60128571D01*
X156095238Y-60500000D01*
X157638095Y-60100000D02*
X158019047Y-60300000D01*
X157638095Y-60442857D02*
X158438095Y-60442857D01*
X158438095Y-60214285D01*
X158400000Y-60157142D01*
X158361904Y-60128571D01*
X158285714Y-60100000D01*
X158171428Y-60100000D01*
X158095238Y-60128571D01*
X158057142Y-60157142D01*
X158019047Y-60214285D01*
X158019047Y-60442857D01*
X158438095Y-59900000D02*
X158438095Y-59528571D01*
X158133333Y-59728571D01*
X158133333Y-59642857D01*
X158095238Y-59585714D01*
X158057142Y-59557142D01*
X157980952Y-59528571D01*
X157790476Y-59528571D01*
X157714285Y-59557142D01*
X157676190Y-59585714D01*
X157638095Y-59642857D01*
X157638095Y-59814285D01*
X157676190Y-59871428D01*
X157714285Y-59900000D01*
X162100000Y-54285714D02*
X162128571Y-54323809D01*
X162214285Y-54361904D01*
X162271428Y-54361904D01*
X162357142Y-54323809D01*
X162414285Y-54247619D01*
X162442857Y-54171428D01*
X162471428Y-54019047D01*
X162471428Y-53904761D01*
X162442857Y-53752380D01*
X162414285Y-53676190D01*
X162357142Y-53600000D01*
X162271428Y-53561904D01*
X162214285Y-53561904D01*
X162128571Y-53600000D01*
X162100000Y-53638095D01*
X161814285Y-54361904D02*
X161700000Y-54361904D01*
X161642857Y-54323809D01*
X161614285Y-54285714D01*
X161557142Y-54171428D01*
X161528571Y-54019047D01*
X161528571Y-53714285D01*
X161557142Y-53638095D01*
X161585714Y-53600000D01*
X161642857Y-53561904D01*
X161757142Y-53561904D01*
X161814285Y-53600000D01*
X161842857Y-53638095D01*
X161871428Y-53714285D01*
X161871428Y-53904761D01*
X161842857Y-53980952D01*
X161814285Y-54019047D01*
X161757142Y-54057142D01*
X161642857Y-54057142D01*
X161585714Y-54019047D01*
X161557142Y-53980952D01*
X161528571Y-53904761D01*
X168385714Y-58285714D02*
X168414285Y-58323809D01*
X168500000Y-58361904D01*
X168557142Y-58361904D01*
X168642857Y-58323809D01*
X168700000Y-58247619D01*
X168728571Y-58171428D01*
X168757142Y-58019047D01*
X168757142Y-57904761D01*
X168728571Y-57752380D01*
X168700000Y-57676190D01*
X168642857Y-57600000D01*
X168557142Y-57561904D01*
X168500000Y-57561904D01*
X168414285Y-57600000D01*
X168385714Y-57638095D01*
X167814285Y-58361904D02*
X168157142Y-58361904D01*
X167985714Y-58361904D02*
X167985714Y-57561904D01*
X168042857Y-57676190D01*
X168100000Y-57752380D01*
X168157142Y-57790476D01*
X167585714Y-57638095D02*
X167557142Y-57600000D01*
X167500000Y-57561904D01*
X167357142Y-57561904D01*
X167300000Y-57600000D01*
X167271428Y-57638095D01*
X167242857Y-57714285D01*
X167242857Y-57790476D01*
X167271428Y-57904761D01*
X167614285Y-58361904D01*
X167242857Y-58361904D01*
X166385714Y-58285714D02*
X166414285Y-58323809D01*
X166500000Y-58361904D01*
X166557142Y-58361904D01*
X166642857Y-58323809D01*
X166700000Y-58247619D01*
X166728571Y-58171428D01*
X166757142Y-58019047D01*
X166757142Y-57904761D01*
X166728571Y-57752380D01*
X166700000Y-57676190D01*
X166642857Y-57600000D01*
X166557142Y-57561904D01*
X166500000Y-57561904D01*
X166414285Y-57600000D01*
X166385714Y-57638095D01*
X165814285Y-58361904D02*
X166157142Y-58361904D01*
X165985714Y-58361904D02*
X165985714Y-57561904D01*
X166042857Y-57676190D01*
X166100000Y-57752380D01*
X166157142Y-57790476D01*
X165614285Y-57561904D02*
X165242857Y-57561904D01*
X165442857Y-57866666D01*
X165357142Y-57866666D01*
X165300000Y-57904761D01*
X165271428Y-57942857D01*
X165242857Y-58019047D01*
X165242857Y-58209523D01*
X165271428Y-58285714D01*
X165300000Y-58323809D01*
X165357142Y-58361904D01*
X165528571Y-58361904D01*
X165585714Y-58323809D01*
X165614285Y-58285714D01*
X164385714Y-58285714D02*
X164414285Y-58323809D01*
X164500000Y-58361904D01*
X164557142Y-58361904D01*
X164642857Y-58323809D01*
X164700000Y-58247619D01*
X164728571Y-58171428D01*
X164757142Y-58019047D01*
X164757142Y-57904761D01*
X164728571Y-57752380D01*
X164700000Y-57676190D01*
X164642857Y-57600000D01*
X164557142Y-57561904D01*
X164500000Y-57561904D01*
X164414285Y-57600000D01*
X164385714Y-57638095D01*
X163814285Y-58361904D02*
X164157142Y-58361904D01*
X163985714Y-58361904D02*
X163985714Y-57561904D01*
X164042857Y-57676190D01*
X164100000Y-57752380D01*
X164157142Y-57790476D01*
X163300000Y-57828571D02*
X163300000Y-58361904D01*
X163442857Y-57523809D02*
X163585714Y-58095238D01*
X163214285Y-58095238D01*
X179885714Y-58361904D02*
X180085714Y-57980952D01*
X180228571Y-58361904D02*
X180228571Y-57561904D01*
X180000000Y-57561904D01*
X179942857Y-57600000D01*
X179914285Y-57638095D01*
X179885714Y-57714285D01*
X179885714Y-57828571D01*
X179914285Y-57904761D01*
X179942857Y-57942857D01*
X180000000Y-57980952D01*
X180228571Y-57980952D01*
X179314285Y-58361904D02*
X179657142Y-58361904D01*
X179485714Y-58361904D02*
X179485714Y-57561904D01*
X179542857Y-57676190D01*
X179600000Y-57752380D01*
X179657142Y-57790476D01*
X179085714Y-57638095D02*
X179057142Y-57600000D01*
X179000000Y-57561904D01*
X178857142Y-57561904D01*
X178800000Y-57600000D01*
X178771428Y-57638095D01*
X178742857Y-57714285D01*
X178742857Y-57790476D01*
X178771428Y-57904761D01*
X179114285Y-58361904D01*
X178742857Y-58361904D01*
X179885714Y-62361904D02*
X180085714Y-61980952D01*
X180228571Y-62361904D02*
X180228571Y-61561904D01*
X180000000Y-61561904D01*
X179942857Y-61600000D01*
X179914285Y-61638095D01*
X179885714Y-61714285D01*
X179885714Y-61828571D01*
X179914285Y-61904761D01*
X179942857Y-61942857D01*
X180000000Y-61980952D01*
X180228571Y-61980952D01*
X179314285Y-62361904D02*
X179657142Y-62361904D01*
X179485714Y-62361904D02*
X179485714Y-61561904D01*
X179542857Y-61676190D01*
X179600000Y-61752380D01*
X179657142Y-61790476D01*
X178742857Y-62361904D02*
X179085714Y-62361904D01*
X178914285Y-62361904D02*
X178914285Y-61561904D01*
X178971428Y-61676190D01*
X179028571Y-61752380D01*
X179085714Y-61790476D01*
X179885714Y-60361904D02*
X180085714Y-59980952D01*
X180228571Y-60361904D02*
X180228571Y-59561904D01*
X180000000Y-59561904D01*
X179942857Y-59600000D01*
X179914285Y-59638095D01*
X179885714Y-59714285D01*
X179885714Y-59828571D01*
X179914285Y-59904761D01*
X179942857Y-59942857D01*
X180000000Y-59980952D01*
X180228571Y-59980952D01*
X179314285Y-60361904D02*
X179657142Y-60361904D01*
X179485714Y-60361904D02*
X179485714Y-59561904D01*
X179542857Y-59676190D01*
X179600000Y-59752380D01*
X179657142Y-59790476D01*
X178942857Y-59561904D02*
X178885714Y-59561904D01*
X178828571Y-59600000D01*
X178800000Y-59638095D01*
X178771428Y-59714285D01*
X178742857Y-59866666D01*
X178742857Y-60057142D01*
X178771428Y-60209523D01*
X178800000Y-60285714D01*
X178828571Y-60323809D01*
X178885714Y-60361904D01*
X178942857Y-60361904D01*
X179000000Y-60323809D01*
X179028571Y-60285714D01*
X179057142Y-60209523D01*
X179085714Y-60057142D01*
X179085714Y-59866666D01*
X179057142Y-59714285D01*
X179028571Y-59638095D01*
X179000000Y-59600000D01*
X178942857Y-59561904D01*
X172361904Y-59900000D02*
X171980952Y-59700000D01*
X172361904Y-59557142D02*
X171561904Y-59557142D01*
X171561904Y-59785714D01*
X171600000Y-59842857D01*
X171638095Y-59871428D01*
X171714285Y-59900000D01*
X171828571Y-59900000D01*
X171904761Y-59871428D01*
X171942857Y-59842857D01*
X171980952Y-59785714D01*
X171980952Y-59557142D01*
X172361904Y-60185714D02*
X172361904Y-60300000D01*
X172323809Y-60357142D01*
X172285714Y-60385714D01*
X172171428Y-60442857D01*
X172019047Y-60471428D01*
X171714285Y-60471428D01*
X171638095Y-60442857D01*
X171600000Y-60414285D01*
X171561904Y-60357142D01*
X171561904Y-60242857D01*
X171600000Y-60185714D01*
X171638095Y-60157142D01*
X171714285Y-60128571D01*
X171904761Y-60128571D01*
X171980952Y-60157142D01*
X172019047Y-60185714D01*
X172057142Y-60242857D01*
X172057142Y-60357142D01*
X172019047Y-60414285D01*
X171980952Y-60442857D01*
X171904761Y-60471428D01*
X168361904Y-59900000D02*
X167980952Y-59700000D01*
X168361904Y-59557142D02*
X167561904Y-59557142D01*
X167561904Y-59785714D01*
X167600000Y-59842857D01*
X167638095Y-59871428D01*
X167714285Y-59900000D01*
X167828571Y-59900000D01*
X167904761Y-59871428D01*
X167942857Y-59842857D01*
X167980952Y-59785714D01*
X167980952Y-59557142D01*
X167904761Y-60242857D02*
X167866666Y-60185714D01*
X167828571Y-60157142D01*
X167752380Y-60128571D01*
X167714285Y-60128571D01*
X167638095Y-60157142D01*
X167600000Y-60185714D01*
X167561904Y-60242857D01*
X167561904Y-60357142D01*
X167600000Y-60414285D01*
X167638095Y-60442857D01*
X167714285Y-60471428D01*
X167752380Y-60471428D01*
X167828571Y-60442857D01*
X167866666Y-60414285D01*
X167904761Y-60357142D01*
X167904761Y-60242857D01*
X167942857Y-60185714D01*
X167980952Y-60157142D01*
X168057142Y-60128571D01*
X168209523Y-60128571D01*
X168285714Y-60157142D01*
X168323809Y-60185714D01*
X168361904Y-60242857D01*
X168361904Y-60357142D01*
X168323809Y-60414285D01*
X168285714Y-60442857D01*
X168209523Y-60471428D01*
X168057142Y-60471428D01*
X167980952Y-60442857D01*
X167942857Y-60414285D01*
X167904761Y-60357142D01*
X170361904Y-59900000D02*
X169980952Y-59700000D01*
X170361904Y-59557142D02*
X169561904Y-59557142D01*
X169561904Y-59785714D01*
X169600000Y-59842857D01*
X169638095Y-59871428D01*
X169714285Y-59900000D01*
X169828571Y-59900000D01*
X169904761Y-59871428D01*
X169942857Y-59842857D01*
X169980952Y-59785714D01*
X169980952Y-59557142D01*
X169561904Y-60100000D02*
X169561904Y-60500000D01*
X170361904Y-60242857D01*
X148457142Y-53561904D02*
X148457142Y-54209523D01*
X148428571Y-54285714D01*
X148400000Y-54323809D01*
X148342857Y-54361904D01*
X148228571Y-54361904D01*
X148171428Y-54323809D01*
X148142857Y-54285714D01*
X148114285Y-54209523D01*
X148114285Y-53561904D01*
X147514285Y-54361904D02*
X147857142Y-54361904D01*
X147685714Y-54361904D02*
X147685714Y-53561904D01*
X147742857Y-53676190D01*
X147800000Y-53752380D01*
X147857142Y-53790476D01*
X150100000Y-59285714D02*
X150128571Y-59323809D01*
X150214285Y-59361904D01*
X150271428Y-59361904D01*
X150357142Y-59323809D01*
X150414285Y-59247619D01*
X150442857Y-59171428D01*
X150471428Y-59019047D01*
X150471428Y-58904761D01*
X150442857Y-58752380D01*
X150414285Y-58676190D01*
X150357142Y-58600000D01*
X150271428Y-58561904D01*
X150214285Y-58561904D01*
X150128571Y-58600000D01*
X150100000Y-58638095D01*
X149528571Y-59361904D02*
X149871428Y-59361904D01*
X149700000Y-59361904D02*
X149700000Y-58561904D01*
X149757142Y-58676190D01*
X149814285Y-58752380D01*
X149871428Y-58790476D01*
X150100000Y-53285714D02*
X150128571Y-53323809D01*
X150214285Y-53361904D01*
X150271428Y-53361904D01*
X150357142Y-53323809D01*
X150414285Y-53247619D01*
X150442857Y-53171428D01*
X150471428Y-53019047D01*
X150471428Y-52904761D01*
X150442857Y-52752380D01*
X150414285Y-52676190D01*
X150357142Y-52600000D01*
X150271428Y-52561904D01*
X150214285Y-52561904D01*
X150128571Y-52600000D01*
X150100000Y-52638095D01*
X149871428Y-52638095D02*
X149842857Y-52600000D01*
X149785714Y-52561904D01*
X149642857Y-52561904D01*
X149585714Y-52600000D01*
X149557142Y-52638095D01*
X149528571Y-52714285D01*
X149528571Y-52790476D01*
X149557142Y-52904761D01*
X149900000Y-53361904D01*
X149528571Y-53361904D01*
X192885714Y-52285714D02*
X192914285Y-52323809D01*
X193000000Y-52361904D01*
X193057142Y-52361904D01*
X193142857Y-52323809D01*
X193200000Y-52247619D01*
X193228571Y-52171428D01*
X193257142Y-52019047D01*
X193257142Y-51904761D01*
X193228571Y-51752380D01*
X193200000Y-51676190D01*
X193142857Y-51600000D01*
X193057142Y-51561904D01*
X193000000Y-51561904D01*
X192914285Y-51600000D01*
X192885714Y-51638095D01*
X192314285Y-52361904D02*
X192657142Y-52361904D01*
X192485714Y-52361904D02*
X192485714Y-51561904D01*
X192542857Y-51676190D01*
X192600000Y-51752380D01*
X192657142Y-51790476D01*
X191971428Y-51904761D02*
X192028571Y-51866666D01*
X192057142Y-51828571D01*
X192085714Y-51752380D01*
X192085714Y-51714285D01*
X192057142Y-51638095D01*
X192028571Y-51600000D01*
X191971428Y-51561904D01*
X191857142Y-51561904D01*
X191800000Y-51600000D01*
X191771428Y-51638095D01*
X191742857Y-51714285D01*
X191742857Y-51752380D01*
X191771428Y-51828571D01*
X191800000Y-51866666D01*
X191857142Y-51904761D01*
X191971428Y-51904761D01*
X192028571Y-51942857D01*
X192057142Y-51980952D01*
X192085714Y-52057142D01*
X192085714Y-52209523D01*
X192057142Y-52285714D01*
X192028571Y-52323809D01*
X191971428Y-52361904D01*
X191857142Y-52361904D01*
X191800000Y-52323809D01*
X191771428Y-52285714D01*
X191742857Y-52209523D01*
X191742857Y-52057142D01*
X191771428Y-51980952D01*
X191800000Y-51942857D01*
X191857142Y-51904761D01*
X179885714Y-52285714D02*
X179914285Y-52323809D01*
X180000000Y-52361904D01*
X180057142Y-52361904D01*
X180142857Y-52323809D01*
X180200000Y-52247619D01*
X180228571Y-52171428D01*
X180257142Y-52019047D01*
X180257142Y-51904761D01*
X180228571Y-51752380D01*
X180200000Y-51676190D01*
X180142857Y-51600000D01*
X180057142Y-51561904D01*
X180000000Y-51561904D01*
X179914285Y-51600000D01*
X179885714Y-51638095D01*
X179314285Y-52361904D02*
X179657142Y-52361904D01*
X179485714Y-52361904D02*
X179485714Y-51561904D01*
X179542857Y-51676190D01*
X179600000Y-51752380D01*
X179657142Y-51790476D01*
X179114285Y-51561904D02*
X178714285Y-51561904D01*
X178971428Y-52361904D01*
X172285714Y-53114285D02*
X172323809Y-53085714D01*
X172361904Y-53000000D01*
X172361904Y-52942857D01*
X172323809Y-52857142D01*
X172247619Y-52800000D01*
X172171428Y-52771428D01*
X172019047Y-52742857D01*
X171904761Y-52742857D01*
X171752380Y-52771428D01*
X171676190Y-52800000D01*
X171600000Y-52857142D01*
X171561904Y-52942857D01*
X171561904Y-53000000D01*
X171600000Y-53085714D01*
X171638095Y-53114285D01*
X172361904Y-53685714D02*
X172361904Y-53342857D01*
X172361904Y-53514285D02*
X171561904Y-53514285D01*
X171676190Y-53457142D01*
X171752380Y-53400000D01*
X171790476Y-53342857D01*
X172361904Y-53971428D02*
X172361904Y-54085714D01*
X172323809Y-54142857D01*
X172285714Y-54171428D01*
X172171428Y-54228571D01*
X172019047Y-54257142D01*
X171714285Y-54257142D01*
X171638095Y-54228571D01*
X171600000Y-54200000D01*
X171561904Y-54142857D01*
X171561904Y-54028571D01*
X171600000Y-53971428D01*
X171638095Y-53942857D01*
X171714285Y-53914285D01*
X171904761Y-53914285D01*
X171980952Y-53942857D01*
X172019047Y-53971428D01*
X172057142Y-54028571D01*
X172057142Y-54142857D01*
X172019047Y-54200000D01*
X171980952Y-54228571D01*
X171904761Y-54257142D01*
X192957142Y-55561904D02*
X192957142Y-56209523D01*
X192928571Y-56285714D01*
X192900000Y-56323809D01*
X192842857Y-56361904D01*
X192728571Y-56361904D01*
X192671428Y-56323809D01*
X192642857Y-56285714D01*
X192614285Y-56209523D01*
X192614285Y-55561904D01*
X192385714Y-55561904D02*
X191985714Y-55561904D01*
X192242857Y-56361904D01*
X198385714Y-59285714D02*
X198414285Y-59323809D01*
X198500000Y-59361904D01*
X198557142Y-59361904D01*
X198642857Y-59323809D01*
X198700000Y-59247619D01*
X198728571Y-59171428D01*
X198757142Y-59019047D01*
X198757142Y-58904761D01*
X198728571Y-58752380D01*
X198700000Y-58676190D01*
X198642857Y-58600000D01*
X198557142Y-58561904D01*
X198500000Y-58561904D01*
X198414285Y-58600000D01*
X198385714Y-58638095D01*
X198157142Y-58638095D02*
X198128571Y-58600000D01*
X198071428Y-58561904D01*
X197928571Y-58561904D01*
X197871428Y-58600000D01*
X197842857Y-58638095D01*
X197814285Y-58714285D01*
X197814285Y-58790476D01*
X197842857Y-58904761D01*
X198185714Y-59361904D01*
X197814285Y-59361904D01*
X197242857Y-59361904D02*
X197585714Y-59361904D01*
X197414285Y-59361904D02*
X197414285Y-58561904D01*
X197471428Y-58676190D01*
X197528571Y-58752380D01*
X197585714Y-58790476D01*
X152100000Y-62361904D02*
X152300000Y-61980952D01*
X152442857Y-62361904D02*
X152442857Y-61561904D01*
X152214285Y-61561904D01*
X152157142Y-61600000D01*
X152128571Y-61638095D01*
X152100000Y-61714285D01*
X152100000Y-61828571D01*
X152128571Y-61904761D01*
X152157142Y-61942857D01*
X152214285Y-61980952D01*
X152442857Y-61980952D01*
X151871428Y-61638095D02*
X151842857Y-61600000D01*
X151785714Y-61561904D01*
X151642857Y-61561904D01*
X151585714Y-61600000D01*
X151557142Y-61638095D01*
X151528571Y-61714285D01*
X151528571Y-61790476D01*
X151557142Y-61904761D01*
X151900000Y-62361904D01*
X151528571Y-62361904D01*
X152100000Y-50361904D02*
X152300000Y-49980952D01*
X152442857Y-50361904D02*
X152442857Y-49561904D01*
X152214285Y-49561904D01*
X152157142Y-49600000D01*
X152128571Y-49638095D01*
X152100000Y-49714285D01*
X152100000Y-49828571D01*
X152128571Y-49904761D01*
X152157142Y-49942857D01*
X152214285Y-49980952D01*
X152442857Y-49980952D01*
X151528571Y-50361904D02*
X151871428Y-50361904D01*
X151700000Y-50361904D02*
X151700000Y-49561904D01*
X151757142Y-49676190D01*
X151814285Y-49752380D01*
X151871428Y-49790476D01*
X153457142Y-53061904D02*
X153457142Y-53709523D01*
X153428571Y-53785714D01*
X153400000Y-53823809D01*
X153342857Y-53861904D01*
X153228571Y-53861904D01*
X153171428Y-53823809D01*
X153142857Y-53785714D01*
X153114285Y-53709523D01*
X153114285Y-53061904D01*
X152857142Y-53138095D02*
X152828571Y-53100000D01*
X152771428Y-53061904D01*
X152628571Y-53061904D01*
X152571428Y-53100000D01*
X152542857Y-53138095D01*
X152514285Y-53214285D01*
X152514285Y-53290476D01*
X152542857Y-53404761D01*
X152885714Y-53861904D01*
X152514285Y-53861904D01*
M02*
