M48
; DRILL file {KiCad (5.1.0)-1} date 2/7/2020 4:27:50 AM
; FORMAT={-:-/ absolute / inch / decimal}
; #@! TF.CreationDate,2020-02-07T04:27:50-08:00
; #@! TF.GenerationSoftware,Kicad,Pcbnew,(5.1.0)-1
; #@! TF.FileFunction,Plated,1,4,PTH
FMAT,2
INCH
T1C0.0118
T2C0.0236
%
G90
G05
T1
X5.7677Y-2.0079
X5.7677Y-2.4016
X5.8268Y-2.4213
X5.8268Y-2.4606
X5.9646Y-2.2835
X5.9646Y-2.126
X5.9646Y-2.1654
X5.9646Y-2.2441
X5.9843Y-2.4213
X5.9843Y-2.4606
X6.0236Y-2.4213
X6.063Y-2.126
X6.063Y-2.2835
X6.1024Y-2.4213
X6.1167Y-2.1047
X6.1167Y-2.2047
X6.1167Y-2.3047
X6.1417Y-2.372
X6.1614Y-1.9685
X6.1667Y-2.1047
X6.1667Y-2.1547
X6.1667Y-2.2047
X6.1667Y-2.3047
X6.1811Y-2.4248
X6.2099Y-2.0957
X6.2205Y-2.185
X6.2205Y-2.2244
X6.2205Y-2.372
X6.3189Y-1.9685
X6.3189Y-2.4016
X6.378Y-2.2047
X6.378Y-2.2441
X6.378Y-2.2835
X6.4567Y-2.0866
X6.5354Y-2.126
X6.5354Y-2.1654
X6.5354Y-2.2047
X6.5354Y-2.2441
X6.5354Y-2.4409
X6.5748Y-2.4606
X6.6535Y-2.4213
X6.6535Y-2.4606
X6.6732Y-2.3031
X6.7323Y-2.4213
X6.7323Y-2.4606
X6.8307Y-2.1654
X6.8307Y-2.2441
X6.8504Y-2.126
X6.8504Y-2.2835
X6.9882Y-2.0079
X7.0079Y-2.4213
X7.0079Y-2.4606
X7.0472Y-2.3819
X7.0472Y-2.4213
X7.0669Y-2.0669
X7.0669Y-2.3425
X7.2441Y-2.2835
X7.2441Y-2.3622
X7.2441Y-2.4409
X7.4409Y-2.4409
X7.5787Y-2.0669
X7.5787Y-2.1654
X7.5787Y-2.2441
X7.5787Y-2.3425
X7.5984Y-2.4409
X7.7953Y-2.0472
X7.7953Y-2.126
X7.7953Y-2.2047
X7.7953Y-2.2835
X7.9134Y-2.2835
T2
G00X5.8425Y-2.0346
M15
G01X5.811Y-2.0346
M16
G05
G00X5.8425Y-2.3748
M15
G01X5.811Y-2.3748
M16
G05
G00X6.013Y-2.0346
M15
G01X5.9697Y-2.0346
M16
G05
G00X6.013Y-2.3748
M15
G01X5.9697Y-2.3748
M16
G05
T0
M30
