G04 #@! TF.GenerationSoftware,KiCad,Pcbnew,(5.1.0)-1*
G04 #@! TF.CreationDate,2020-02-07T04:27:50-08:00*
G04 #@! TF.ProjectId,design,64657369-676e-42e6-9b69-6361645f7063,rev?*
G04 #@! TF.SameCoordinates,Original*
G04 #@! TF.FileFunction,Copper,L2,Inr*
G04 #@! TF.FilePolarity,Positive*
%FSLAX46Y46*%
G04 Gerber Fmt 4.6, Leading zero omitted, Abs format (unit mm)*
G04 Created by KiCad (PCBNEW (5.1.0)-1) date 2020-02-07 04:27:50*
%MOMM*%
%LPD*%
G04 APERTURE LIST*
%ADD10O,1.800000X1.000000*%
%ADD11O,2.100000X1.000000*%
%ADD12C,0.700000*%
%ADD13C,0.200000*%
G04 APERTURE END LIST*
D10*
X148000000Y-51680000D03*
X148000000Y-60320000D03*
D11*
X152180000Y-51680000D03*
X152180000Y-60320000D03*
D12*
X179500000Y-59500000D03*
X166000000Y-54000000D03*
X162000000Y-57000000D03*
X166000000Y-56000000D03*
X173500000Y-57000000D03*
X155365000Y-58540000D03*
X155365000Y-56000000D03*
X155000000Y-61500000D03*
X162000000Y-58000000D03*
X179500000Y-52500000D03*
X166000000Y-55000000D03*
X166000000Y-57000000D03*
X164000000Y-53000000D03*
X162000000Y-56000000D03*
X173500000Y-55000000D03*
X155365000Y-53460000D03*
X148000000Y-61500000D03*
X153000000Y-61500000D03*
X179000000Y-61500000D03*
X157000000Y-61590000D03*
X146500000Y-51000000D03*
X146500000Y-61000000D03*
X192500000Y-59500000D03*
X198000000Y-56000000D03*
X198000000Y-58000000D03*
X151499916Y-58000000D03*
X151500000Y-54000000D03*
X169000000Y-61500000D03*
X189000000Y-62000000D03*
X156635000Y-56000000D03*
X169500000Y-58500000D03*
X171000000Y-61500000D03*
X166000000Y-62000000D03*
X167000000Y-62500000D03*
X152000000Y-62500000D03*
X169000000Y-62500000D03*
X152000000Y-61500000D03*
X156500000Y-50000000D03*
X158000000Y-60250000D03*
X156635000Y-53460000D03*
X151500000Y-57000000D03*
X158000000Y-56500000D03*
X151500000Y-55000000D03*
X158000000Y-55500000D03*
X184000000Y-58000000D03*
X171000000Y-62500000D03*
X148000000Y-62500000D03*
X184000000Y-60000000D03*
X156635000Y-54730000D03*
X156000000Y-60250000D03*
X157731525Y-53231525D03*
X192500000Y-55000000D03*
X198000000Y-54000000D03*
X174000000Y-58000000D03*
X179000000Y-60500000D03*
X160500000Y-50000000D03*
X192500000Y-52500000D03*
X193000000Y-62000000D03*
X201000000Y-58000000D03*
X184000000Y-62000000D03*
X154000000Y-58000000D03*
X154000000Y-54000000D03*
X156635000Y-58540000D03*
X192500000Y-57000000D03*
X198000000Y-52000000D03*
X174000000Y-54000000D03*
X178000000Y-61500000D03*
X178000000Y-62500000D03*
X160500000Y-61000000D03*
X177500000Y-51000000D03*
D13*
G36*
X149323055Y-48894651D02*
G01*
X149296000Y-49030662D01*
X149296000Y-49169338D01*
X149323055Y-49305349D01*
X149376124Y-49433469D01*
X149453168Y-49548774D01*
X149551226Y-49646832D01*
X149666531Y-49723876D01*
X149794651Y-49776945D01*
X149930662Y-49804000D01*
X150069338Y-49804000D01*
X150205349Y-49776945D01*
X150333469Y-49723876D01*
X150448774Y-49646832D01*
X150546832Y-49548774D01*
X150623876Y-49433469D01*
X150676945Y-49305349D01*
X150704000Y-49169338D01*
X150704000Y-49030662D01*
X150676945Y-48894651D01*
X150670462Y-48879000D01*
X180329538Y-48879000D01*
X180323055Y-48894651D01*
X180296000Y-49030662D01*
X180296000Y-49169338D01*
X180323055Y-49305349D01*
X180376124Y-49433469D01*
X180453168Y-49548774D01*
X180551226Y-49646832D01*
X180666531Y-49723876D01*
X180794651Y-49776945D01*
X180930662Y-49804000D01*
X181069338Y-49804000D01*
X181205349Y-49776945D01*
X181333469Y-49723876D01*
X181448774Y-49646832D01*
X181546832Y-49548774D01*
X181623876Y-49433469D01*
X181676945Y-49305349D01*
X181704000Y-49169338D01*
X181704000Y-49030662D01*
X181676945Y-48894651D01*
X181670462Y-48879000D01*
X184900000Y-48879000D01*
X184900000Y-63121000D01*
X178337773Y-63121000D01*
X178448774Y-63046832D01*
X178546832Y-62948774D01*
X178623876Y-62833469D01*
X178676945Y-62705349D01*
X178704000Y-62569338D01*
X178704000Y-62430662D01*
X178676945Y-62294651D01*
X178623876Y-62166531D01*
X178546832Y-62051226D01*
X178495606Y-62000000D01*
X178500000Y-61995606D01*
X178551226Y-62046832D01*
X178666531Y-62123876D01*
X178794651Y-62176945D01*
X178930662Y-62204000D01*
X179069338Y-62204000D01*
X179205349Y-62176945D01*
X179333469Y-62123876D01*
X179448774Y-62046832D01*
X179546832Y-61948774D01*
X179558933Y-61930662D01*
X183296000Y-61930662D01*
X183296000Y-62069338D01*
X183323055Y-62205349D01*
X183376124Y-62333469D01*
X183453168Y-62448774D01*
X183551226Y-62546832D01*
X183666531Y-62623876D01*
X183794651Y-62676945D01*
X183930662Y-62704000D01*
X184069338Y-62704000D01*
X184205349Y-62676945D01*
X184333469Y-62623876D01*
X184448774Y-62546832D01*
X184546832Y-62448774D01*
X184623876Y-62333469D01*
X184676945Y-62205349D01*
X184704000Y-62069338D01*
X184704000Y-61930662D01*
X184676945Y-61794651D01*
X184623876Y-61666531D01*
X184546832Y-61551226D01*
X184448774Y-61453168D01*
X184333469Y-61376124D01*
X184205349Y-61323055D01*
X184069338Y-61296000D01*
X183930662Y-61296000D01*
X183794651Y-61323055D01*
X183666531Y-61376124D01*
X183551226Y-61453168D01*
X183453168Y-61551226D01*
X183376124Y-61666531D01*
X183323055Y-61794651D01*
X183296000Y-61930662D01*
X179558933Y-61930662D01*
X179623876Y-61833469D01*
X179676945Y-61705349D01*
X179704000Y-61569338D01*
X179704000Y-61430662D01*
X179676945Y-61294651D01*
X179623876Y-61166531D01*
X179546832Y-61051226D01*
X179495606Y-61000000D01*
X179546832Y-60948774D01*
X179623876Y-60833469D01*
X179676945Y-60705349D01*
X179704000Y-60569338D01*
X179704000Y-60430662D01*
X179676945Y-60294651D01*
X179623876Y-60166531D01*
X179546832Y-60051226D01*
X179448774Y-59953168D01*
X179415092Y-59930662D01*
X183296000Y-59930662D01*
X183296000Y-60069338D01*
X183323055Y-60205349D01*
X183376124Y-60333469D01*
X183453168Y-60448774D01*
X183551226Y-60546832D01*
X183666531Y-60623876D01*
X183794651Y-60676945D01*
X183930662Y-60704000D01*
X184069338Y-60704000D01*
X184205349Y-60676945D01*
X184333469Y-60623876D01*
X184448774Y-60546832D01*
X184546832Y-60448774D01*
X184623876Y-60333469D01*
X184676945Y-60205349D01*
X184704000Y-60069338D01*
X184704000Y-59930662D01*
X184676945Y-59794651D01*
X184623876Y-59666531D01*
X184546832Y-59551226D01*
X184448774Y-59453168D01*
X184333469Y-59376124D01*
X184205349Y-59323055D01*
X184069338Y-59296000D01*
X183930662Y-59296000D01*
X183794651Y-59323055D01*
X183666531Y-59376124D01*
X183551226Y-59453168D01*
X183453168Y-59551226D01*
X183376124Y-59666531D01*
X183323055Y-59794651D01*
X183296000Y-59930662D01*
X179415092Y-59930662D01*
X179333469Y-59876124D01*
X179205349Y-59823055D01*
X179069338Y-59796000D01*
X178930662Y-59796000D01*
X178794651Y-59823055D01*
X178666531Y-59876124D01*
X178551226Y-59953168D01*
X178453168Y-60051226D01*
X178376124Y-60166531D01*
X178323055Y-60294651D01*
X178296000Y-60430662D01*
X178296000Y-60569338D01*
X178323055Y-60705349D01*
X178376124Y-60833469D01*
X178453168Y-60948774D01*
X178504394Y-61000000D01*
X178500000Y-61004394D01*
X178448774Y-60953168D01*
X178333469Y-60876124D01*
X178205349Y-60823055D01*
X178069338Y-60796000D01*
X177930662Y-60796000D01*
X177794651Y-60823055D01*
X177666531Y-60876124D01*
X177551226Y-60953168D01*
X177453168Y-61051226D01*
X177376124Y-61166531D01*
X177323055Y-61294651D01*
X177296000Y-61430662D01*
X177296000Y-61569338D01*
X177323055Y-61705349D01*
X177376124Y-61833469D01*
X177453168Y-61948774D01*
X177504394Y-62000000D01*
X177453168Y-62051226D01*
X177376124Y-62166531D01*
X177323055Y-62294651D01*
X177296000Y-62430662D01*
X177296000Y-62569338D01*
X177323055Y-62705349D01*
X177376124Y-62833469D01*
X177453168Y-62948774D01*
X177551226Y-63046832D01*
X177662227Y-63121000D01*
X171337773Y-63121000D01*
X171448774Y-63046832D01*
X171546832Y-62948774D01*
X171623876Y-62833469D01*
X171676945Y-62705349D01*
X171704000Y-62569338D01*
X171704000Y-62430662D01*
X171676945Y-62294651D01*
X171623876Y-62166531D01*
X171546832Y-62051226D01*
X171495606Y-62000000D01*
X171546832Y-61948774D01*
X171623876Y-61833469D01*
X171676945Y-61705349D01*
X171704000Y-61569338D01*
X171704000Y-61430662D01*
X171676945Y-61294651D01*
X171623876Y-61166531D01*
X171546832Y-61051226D01*
X171448774Y-60953168D01*
X171333469Y-60876124D01*
X171205349Y-60823055D01*
X171069338Y-60796000D01*
X170930662Y-60796000D01*
X170794651Y-60823055D01*
X170666531Y-60876124D01*
X170551226Y-60953168D01*
X170453168Y-61051226D01*
X170376124Y-61166531D01*
X170323055Y-61294651D01*
X170296000Y-61430662D01*
X170296000Y-61569338D01*
X170323055Y-61705349D01*
X170376124Y-61833469D01*
X170453168Y-61948774D01*
X170504394Y-62000000D01*
X170453168Y-62051226D01*
X170376124Y-62166531D01*
X170323055Y-62294651D01*
X170296000Y-62430662D01*
X170296000Y-62569338D01*
X170323055Y-62705349D01*
X170376124Y-62833469D01*
X170453168Y-62948774D01*
X170551226Y-63046832D01*
X170662227Y-63121000D01*
X169337773Y-63121000D01*
X169448774Y-63046832D01*
X169546832Y-62948774D01*
X169623876Y-62833469D01*
X169676945Y-62705349D01*
X169704000Y-62569338D01*
X169704000Y-62430662D01*
X169676945Y-62294651D01*
X169623876Y-62166531D01*
X169546832Y-62051226D01*
X169495606Y-62000000D01*
X169546832Y-61948774D01*
X169623876Y-61833469D01*
X169676945Y-61705349D01*
X169704000Y-61569338D01*
X169704000Y-61430662D01*
X169676945Y-61294651D01*
X169623876Y-61166531D01*
X169546832Y-61051226D01*
X169448774Y-60953168D01*
X169333469Y-60876124D01*
X169205349Y-60823055D01*
X169069338Y-60796000D01*
X168930662Y-60796000D01*
X168794651Y-60823055D01*
X168666531Y-60876124D01*
X168551226Y-60953168D01*
X168453168Y-61051226D01*
X168376124Y-61166531D01*
X168323055Y-61294651D01*
X168296000Y-61430662D01*
X168296000Y-61569338D01*
X168323055Y-61705349D01*
X168376124Y-61833469D01*
X168453168Y-61948774D01*
X168504394Y-62000000D01*
X168453168Y-62051226D01*
X168376124Y-62166531D01*
X168323055Y-62294651D01*
X168296000Y-62430662D01*
X168296000Y-62569338D01*
X168323055Y-62705349D01*
X168376124Y-62833469D01*
X168453168Y-62948774D01*
X168551226Y-63046832D01*
X168662227Y-63121000D01*
X167337773Y-63121000D01*
X167448774Y-63046832D01*
X167546832Y-62948774D01*
X167623876Y-62833469D01*
X167676945Y-62705349D01*
X167704000Y-62569338D01*
X167704000Y-62430662D01*
X167676945Y-62294651D01*
X167623876Y-62166531D01*
X167546832Y-62051226D01*
X167448774Y-61953168D01*
X167333469Y-61876124D01*
X167205349Y-61823055D01*
X167069338Y-61796000D01*
X166930662Y-61796000D01*
X166794651Y-61823055D01*
X166691125Y-61865937D01*
X166676945Y-61794651D01*
X166623876Y-61666531D01*
X166546832Y-61551226D01*
X166448774Y-61453168D01*
X166333469Y-61376124D01*
X166205349Y-61323055D01*
X166069338Y-61296000D01*
X165930662Y-61296000D01*
X165794651Y-61323055D01*
X165666531Y-61376124D01*
X165551226Y-61453168D01*
X165453168Y-61551226D01*
X165376124Y-61666531D01*
X165323055Y-61794651D01*
X165296000Y-61930662D01*
X165296000Y-62069338D01*
X165323055Y-62205349D01*
X165376124Y-62333469D01*
X165453168Y-62448774D01*
X165551226Y-62546832D01*
X165666531Y-62623876D01*
X165794651Y-62676945D01*
X165930662Y-62704000D01*
X166069338Y-62704000D01*
X166205349Y-62676945D01*
X166308875Y-62634063D01*
X166323055Y-62705349D01*
X166376124Y-62833469D01*
X166453168Y-62948774D01*
X166551226Y-63046832D01*
X166662227Y-63121000D01*
X152337773Y-63121000D01*
X152448774Y-63046832D01*
X152546832Y-62948774D01*
X152623876Y-62833469D01*
X152676945Y-62705349D01*
X152704000Y-62569338D01*
X152704000Y-62430662D01*
X152676945Y-62294651D01*
X152623876Y-62166531D01*
X152546832Y-62051226D01*
X152495606Y-62000000D01*
X152500000Y-61995606D01*
X152551226Y-62046832D01*
X152666531Y-62123876D01*
X152794651Y-62176945D01*
X152930662Y-62204000D01*
X153069338Y-62204000D01*
X153205349Y-62176945D01*
X153333469Y-62123876D01*
X153448774Y-62046832D01*
X153546832Y-61948774D01*
X153623876Y-61833469D01*
X153676945Y-61705349D01*
X153704000Y-61569338D01*
X153704000Y-61520662D01*
X156296000Y-61520662D01*
X156296000Y-61659338D01*
X156323055Y-61795349D01*
X156376124Y-61923469D01*
X156453168Y-62038774D01*
X156551226Y-62136832D01*
X156666531Y-62213876D01*
X156794651Y-62266945D01*
X156930662Y-62294000D01*
X157069338Y-62294000D01*
X157205349Y-62266945D01*
X157333469Y-62213876D01*
X157448774Y-62136832D01*
X157546832Y-62038774D01*
X157623876Y-61923469D01*
X157676945Y-61795349D01*
X157704000Y-61659338D01*
X157704000Y-61520662D01*
X157676945Y-61384651D01*
X157623876Y-61256531D01*
X157546832Y-61141226D01*
X157448774Y-61043168D01*
X157333469Y-60966124D01*
X157205349Y-60913055D01*
X157069338Y-60886000D01*
X156930662Y-60886000D01*
X156794651Y-60913055D01*
X156666531Y-60966124D01*
X156551226Y-61043168D01*
X156453168Y-61141226D01*
X156376124Y-61256531D01*
X156323055Y-61384651D01*
X156296000Y-61520662D01*
X153704000Y-61520662D01*
X153704000Y-61430662D01*
X153676945Y-61294651D01*
X153623876Y-61166531D01*
X153546832Y-61051226D01*
X153448774Y-60953168D01*
X153333469Y-60876124D01*
X153313487Y-60867847D01*
X153409065Y-60743670D01*
X153478671Y-60603050D01*
X153515854Y-60469779D01*
X153454569Y-60345000D01*
X152205000Y-60345000D01*
X152205000Y-60365000D01*
X152155000Y-60365000D01*
X152155000Y-60345000D01*
X150905431Y-60345000D01*
X150844146Y-60469779D01*
X150881329Y-60603050D01*
X150950935Y-60743670D01*
X151046637Y-60868008D01*
X151164757Y-60971287D01*
X151300756Y-61049537D01*
X151426023Y-61091852D01*
X151376124Y-61166531D01*
X151323055Y-61294651D01*
X151296000Y-61430662D01*
X151296000Y-61569338D01*
X151323055Y-61705349D01*
X151376124Y-61833469D01*
X151453168Y-61948774D01*
X151504394Y-62000000D01*
X151453168Y-62051226D01*
X151376124Y-62166531D01*
X151323055Y-62294651D01*
X151296000Y-62430662D01*
X151296000Y-62569338D01*
X151323055Y-62705349D01*
X151376124Y-62833469D01*
X151453168Y-62948774D01*
X151551226Y-63046832D01*
X151662227Y-63121000D01*
X148337773Y-63121000D01*
X148448774Y-63046832D01*
X148546832Y-62948774D01*
X148623876Y-62833469D01*
X148676945Y-62705349D01*
X148704000Y-62569338D01*
X148704000Y-62430662D01*
X148676945Y-62294651D01*
X148623876Y-62166531D01*
X148546832Y-62051226D01*
X148495606Y-62000000D01*
X148546832Y-61948774D01*
X148623876Y-61833469D01*
X148676945Y-61705349D01*
X148704000Y-61569338D01*
X148704000Y-61430662D01*
X148676945Y-61294651D01*
X148623876Y-61166531D01*
X148579362Y-61099911D01*
X148580592Y-61099751D01*
X148729244Y-61049537D01*
X148865243Y-60971287D01*
X148983363Y-60868008D01*
X149079065Y-60743670D01*
X149148671Y-60603050D01*
X149185854Y-60469779D01*
X149124569Y-60345000D01*
X148025000Y-60345000D01*
X148025000Y-60365000D01*
X147975000Y-60365000D01*
X147975000Y-60345000D01*
X146875431Y-60345000D01*
X146853553Y-60389544D01*
X146833469Y-60376124D01*
X146705349Y-60323055D01*
X146569338Y-60296000D01*
X146430662Y-60296000D01*
X146294651Y-60323055D01*
X146166531Y-60376124D01*
X146051226Y-60453168D01*
X145953168Y-60551226D01*
X145879000Y-60662227D01*
X145879000Y-60170221D01*
X146814146Y-60170221D01*
X146875431Y-60295000D01*
X147975000Y-60295000D01*
X147975000Y-60275000D01*
X148025000Y-60275000D01*
X148025000Y-60295000D01*
X149124569Y-60295000D01*
X149185854Y-60170221D01*
X149148671Y-60036950D01*
X149079065Y-59896330D01*
X148983363Y-59771992D01*
X148865243Y-59668713D01*
X148729244Y-59590463D01*
X148580592Y-59540249D01*
X148425000Y-59520000D01*
X147575000Y-59520000D01*
X147419408Y-59540249D01*
X147270756Y-59590463D01*
X147134757Y-59668713D01*
X147016637Y-59771992D01*
X146920935Y-59896330D01*
X146851329Y-60036950D01*
X146814146Y-60170221D01*
X145879000Y-60170221D01*
X145879000Y-57930662D01*
X150795916Y-57930662D01*
X150795916Y-58069338D01*
X150822971Y-58205349D01*
X150876040Y-58333469D01*
X150953084Y-58448774D01*
X151051142Y-58546832D01*
X151082366Y-58567695D01*
X151049651Y-58628901D01*
X151010825Y-58756893D01*
X150997715Y-58890000D01*
X151010825Y-59023107D01*
X151049651Y-59151099D01*
X151112701Y-59269057D01*
X151197552Y-59372448D01*
X151300943Y-59457299D01*
X151418901Y-59520349D01*
X151473966Y-59537053D01*
X151449408Y-59540249D01*
X151300756Y-59590463D01*
X151164757Y-59668713D01*
X151046637Y-59771992D01*
X150950935Y-59896330D01*
X150881329Y-60036950D01*
X150844146Y-60170221D01*
X150905431Y-60295000D01*
X152155000Y-60295000D01*
X152155000Y-60275000D01*
X152205000Y-60275000D01*
X152205000Y-60295000D01*
X153454569Y-60295000D01*
X153515854Y-60170221D01*
X153478671Y-60036950D01*
X153409065Y-59896330D01*
X153313363Y-59771992D01*
X153261164Y-59726351D01*
X154134700Y-59726351D01*
X154134700Y-59893649D01*
X154167339Y-60057732D01*
X154231360Y-60212294D01*
X154324306Y-60351397D01*
X154442603Y-60469694D01*
X154581706Y-60562640D01*
X154736268Y-60626661D01*
X154900351Y-60659300D01*
X155067649Y-60659300D01*
X155231732Y-60626661D01*
X155370249Y-60569286D01*
X155376124Y-60583469D01*
X155453168Y-60698774D01*
X155551226Y-60796832D01*
X155666531Y-60873876D01*
X155794651Y-60926945D01*
X155930662Y-60954000D01*
X156069338Y-60954000D01*
X156205349Y-60926945D01*
X156333469Y-60873876D01*
X156448774Y-60796832D01*
X156546832Y-60698774D01*
X156623876Y-60583469D01*
X156629751Y-60569286D01*
X156768268Y-60626661D01*
X156932351Y-60659300D01*
X157099649Y-60659300D01*
X157263732Y-60626661D01*
X157374935Y-60580600D01*
X157376124Y-60583469D01*
X157453168Y-60698774D01*
X157551226Y-60796832D01*
X157666531Y-60873876D01*
X157794651Y-60926945D01*
X157930662Y-60954000D01*
X158069338Y-60954000D01*
X158186662Y-60930662D01*
X159796000Y-60930662D01*
X159796000Y-61069338D01*
X159823055Y-61205349D01*
X159876124Y-61333469D01*
X159953168Y-61448774D01*
X160051226Y-61546832D01*
X160166531Y-61623876D01*
X160294651Y-61676945D01*
X160430662Y-61704000D01*
X160569338Y-61704000D01*
X160705349Y-61676945D01*
X160833469Y-61623876D01*
X160948774Y-61546832D01*
X161046832Y-61448774D01*
X161123876Y-61333469D01*
X161176945Y-61205349D01*
X161204000Y-61069338D01*
X161204000Y-60930662D01*
X161176945Y-60794651D01*
X161123876Y-60666531D01*
X161046832Y-60551226D01*
X160948774Y-60453168D01*
X160833469Y-60376124D01*
X160705349Y-60323055D01*
X160569338Y-60296000D01*
X160430662Y-60296000D01*
X160294651Y-60323055D01*
X160166531Y-60376124D01*
X160051226Y-60453168D01*
X159953168Y-60551226D01*
X159876124Y-60666531D01*
X159823055Y-60794651D01*
X159796000Y-60930662D01*
X158186662Y-60930662D01*
X158205349Y-60926945D01*
X158333469Y-60873876D01*
X158448774Y-60796832D01*
X158546832Y-60698774D01*
X158623876Y-60583469D01*
X158676945Y-60455349D01*
X158704000Y-60319338D01*
X158704000Y-60180662D01*
X158676945Y-60044651D01*
X158623876Y-59916531D01*
X158546832Y-59801226D01*
X158448774Y-59703168D01*
X158333469Y-59626124D01*
X158205349Y-59573055D01*
X158069338Y-59546000D01*
X157930662Y-59546000D01*
X157833278Y-59565371D01*
X157832661Y-59562268D01*
X157768640Y-59407706D01*
X157675694Y-59268603D01*
X157557397Y-59150306D01*
X157418294Y-59057360D01*
X157263732Y-58993339D01*
X157188748Y-58978423D01*
X157258876Y-58873469D01*
X157311945Y-58745349D01*
X157339000Y-58609338D01*
X157339000Y-58470662D01*
X157311945Y-58334651D01*
X157258876Y-58206531D01*
X157181832Y-58091226D01*
X157083774Y-57993168D01*
X156990227Y-57930662D01*
X161296000Y-57930662D01*
X161296000Y-58069338D01*
X161323055Y-58205349D01*
X161376124Y-58333469D01*
X161453168Y-58448774D01*
X161551226Y-58546832D01*
X161666531Y-58623876D01*
X161794651Y-58676945D01*
X161930662Y-58704000D01*
X162069338Y-58704000D01*
X162205349Y-58676945D01*
X162333469Y-58623876D01*
X162448774Y-58546832D01*
X162546832Y-58448774D01*
X162558933Y-58430662D01*
X168796000Y-58430662D01*
X168796000Y-58569338D01*
X168823055Y-58705349D01*
X168876124Y-58833469D01*
X168953168Y-58948774D01*
X169051226Y-59046832D01*
X169166531Y-59123876D01*
X169294651Y-59176945D01*
X169430662Y-59204000D01*
X169569338Y-59204000D01*
X169705349Y-59176945D01*
X169833469Y-59123876D01*
X169948774Y-59046832D01*
X170046832Y-58948774D01*
X170123876Y-58833469D01*
X170176945Y-58705349D01*
X170204000Y-58569338D01*
X170204000Y-58430662D01*
X170176945Y-58294651D01*
X170123876Y-58166531D01*
X170046832Y-58051226D01*
X169948774Y-57953168D01*
X169915092Y-57930662D01*
X173296000Y-57930662D01*
X173296000Y-58069338D01*
X173323055Y-58205349D01*
X173376124Y-58333469D01*
X173453168Y-58448774D01*
X173551226Y-58546832D01*
X173666531Y-58623876D01*
X173794651Y-58676945D01*
X173930662Y-58704000D01*
X174069338Y-58704000D01*
X174205349Y-58676945D01*
X174333469Y-58623876D01*
X174448774Y-58546832D01*
X174546832Y-58448774D01*
X174623876Y-58333469D01*
X174676945Y-58205349D01*
X174704000Y-58069338D01*
X174704000Y-57930662D01*
X183296000Y-57930662D01*
X183296000Y-58069338D01*
X183323055Y-58205349D01*
X183376124Y-58333469D01*
X183453168Y-58448774D01*
X183551226Y-58546832D01*
X183666531Y-58623876D01*
X183794651Y-58676945D01*
X183930662Y-58704000D01*
X184069338Y-58704000D01*
X184205349Y-58676945D01*
X184333469Y-58623876D01*
X184448774Y-58546832D01*
X184546832Y-58448774D01*
X184623876Y-58333469D01*
X184676945Y-58205349D01*
X184704000Y-58069338D01*
X184704000Y-57930662D01*
X184676945Y-57794651D01*
X184623876Y-57666531D01*
X184546832Y-57551226D01*
X184448774Y-57453168D01*
X184333469Y-57376124D01*
X184205349Y-57323055D01*
X184069338Y-57296000D01*
X183930662Y-57296000D01*
X183794651Y-57323055D01*
X183666531Y-57376124D01*
X183551226Y-57453168D01*
X183453168Y-57551226D01*
X183376124Y-57666531D01*
X183323055Y-57794651D01*
X183296000Y-57930662D01*
X174704000Y-57930662D01*
X174676945Y-57794651D01*
X174623876Y-57666531D01*
X174546832Y-57551226D01*
X174448774Y-57453168D01*
X174333469Y-57376124D01*
X174205349Y-57323055D01*
X174069338Y-57296000D01*
X173930662Y-57296000D01*
X173794651Y-57323055D01*
X173666531Y-57376124D01*
X173551226Y-57453168D01*
X173453168Y-57551226D01*
X173376124Y-57666531D01*
X173323055Y-57794651D01*
X173296000Y-57930662D01*
X169915092Y-57930662D01*
X169833469Y-57876124D01*
X169705349Y-57823055D01*
X169569338Y-57796000D01*
X169430662Y-57796000D01*
X169294651Y-57823055D01*
X169166531Y-57876124D01*
X169051226Y-57953168D01*
X168953168Y-58051226D01*
X168876124Y-58166531D01*
X168823055Y-58294651D01*
X168796000Y-58430662D01*
X162558933Y-58430662D01*
X162623876Y-58333469D01*
X162676945Y-58205349D01*
X162704000Y-58069338D01*
X162704000Y-57930662D01*
X162676945Y-57794651D01*
X162623876Y-57666531D01*
X162546832Y-57551226D01*
X162448774Y-57453168D01*
X162333469Y-57376124D01*
X162205349Y-57323055D01*
X162069338Y-57296000D01*
X161930662Y-57296000D01*
X161794651Y-57323055D01*
X161666531Y-57376124D01*
X161551226Y-57453168D01*
X161453168Y-57551226D01*
X161376124Y-57666531D01*
X161323055Y-57794651D01*
X161296000Y-57930662D01*
X156990227Y-57930662D01*
X156968469Y-57916124D01*
X156840349Y-57863055D01*
X156704338Y-57836000D01*
X156565662Y-57836000D01*
X156429651Y-57863055D01*
X156301531Y-57916124D01*
X156186226Y-57993168D01*
X156088168Y-58091226D01*
X156011124Y-58206531D01*
X155958055Y-58334651D01*
X155931000Y-58470662D01*
X155931000Y-58609338D01*
X155958055Y-58745349D01*
X156011124Y-58873469D01*
X156088168Y-58988774D01*
X156186226Y-59086832D01*
X156301531Y-59163876D01*
X156414316Y-59210593D01*
X156356306Y-59268603D01*
X156263360Y-59407706D01*
X156199339Y-59562268D01*
X156197504Y-59571494D01*
X156069338Y-59546000D01*
X155930662Y-59546000D01*
X155802496Y-59571494D01*
X155800661Y-59562268D01*
X155736640Y-59407706D01*
X155643694Y-59268603D01*
X155525397Y-59150306D01*
X155386294Y-59057360D01*
X155231732Y-58993339D01*
X155067649Y-58960700D01*
X154900351Y-58960700D01*
X154736268Y-58993339D01*
X154581706Y-59057360D01*
X154442603Y-59150306D01*
X154324306Y-59268603D01*
X154231360Y-59407706D01*
X154167339Y-59562268D01*
X154134700Y-59726351D01*
X153261164Y-59726351D01*
X153195243Y-59668713D01*
X153059244Y-59590463D01*
X152910592Y-59540249D01*
X152755000Y-59520000D01*
X151941752Y-59520000D01*
X152059057Y-59457299D01*
X152162448Y-59372448D01*
X152247299Y-59269057D01*
X152310349Y-59151099D01*
X152349175Y-59023107D01*
X152362285Y-58890000D01*
X152349175Y-58756893D01*
X152310349Y-58628901D01*
X152247299Y-58510943D01*
X152162448Y-58407552D01*
X152105513Y-58360826D01*
X152123792Y-58333469D01*
X152176861Y-58205349D01*
X152203916Y-58069338D01*
X152203916Y-57930662D01*
X153296000Y-57930662D01*
X153296000Y-58069338D01*
X153323055Y-58205349D01*
X153376124Y-58333469D01*
X153453168Y-58448774D01*
X153551226Y-58546832D01*
X153666531Y-58623876D01*
X153794651Y-58676945D01*
X153930662Y-58704000D01*
X154069338Y-58704000D01*
X154205349Y-58676945D01*
X154333469Y-58623876D01*
X154448774Y-58546832D01*
X154546832Y-58448774D01*
X154623876Y-58333469D01*
X154676945Y-58205349D01*
X154704000Y-58069338D01*
X154704000Y-57930662D01*
X154676945Y-57794651D01*
X154623876Y-57666531D01*
X154546832Y-57551226D01*
X154448774Y-57453168D01*
X154333469Y-57376124D01*
X154205349Y-57323055D01*
X154069338Y-57296000D01*
X153930662Y-57296000D01*
X153794651Y-57323055D01*
X153666531Y-57376124D01*
X153551226Y-57453168D01*
X153453168Y-57551226D01*
X153376124Y-57666531D01*
X153323055Y-57794651D01*
X153296000Y-57930662D01*
X152203916Y-57930662D01*
X152176861Y-57794651D01*
X152123792Y-57666531D01*
X152046748Y-57551226D01*
X151995564Y-57500042D01*
X152046832Y-57448774D01*
X152123876Y-57333469D01*
X152176945Y-57205349D01*
X152204000Y-57069338D01*
X152204000Y-56930662D01*
X152176945Y-56794651D01*
X152123876Y-56666531D01*
X152046832Y-56551226D01*
X151948774Y-56453168D01*
X151833469Y-56376124D01*
X151705349Y-56323055D01*
X151569338Y-56296000D01*
X151430662Y-56296000D01*
X151294651Y-56323055D01*
X151166531Y-56376124D01*
X151051226Y-56453168D01*
X150953168Y-56551226D01*
X150876124Y-56666531D01*
X150823055Y-56794651D01*
X150796000Y-56930662D01*
X150796000Y-57069338D01*
X150823055Y-57205349D01*
X150876124Y-57333469D01*
X150953168Y-57448774D01*
X151004352Y-57499958D01*
X150953084Y-57551226D01*
X150876040Y-57666531D01*
X150822971Y-57794651D01*
X150795916Y-57930662D01*
X145879000Y-57930662D01*
X145879000Y-53930662D01*
X150796000Y-53930662D01*
X150796000Y-54069338D01*
X150823055Y-54205349D01*
X150876124Y-54333469D01*
X150953168Y-54448774D01*
X151004394Y-54500000D01*
X150953168Y-54551226D01*
X150876124Y-54666531D01*
X150823055Y-54794651D01*
X150796000Y-54930662D01*
X150796000Y-55069338D01*
X150823055Y-55205349D01*
X150876124Y-55333469D01*
X150953168Y-55448774D01*
X151051226Y-55546832D01*
X151166531Y-55623876D01*
X151294651Y-55676945D01*
X151430662Y-55704000D01*
X151569338Y-55704000D01*
X151705349Y-55676945D01*
X151833469Y-55623876D01*
X151948774Y-55546832D01*
X152046832Y-55448774D01*
X152123876Y-55333469D01*
X152176945Y-55205349D01*
X152204000Y-55069338D01*
X152204000Y-54930662D01*
X152176945Y-54794651D01*
X152123876Y-54666531D01*
X152046832Y-54551226D01*
X151995606Y-54500000D01*
X152046832Y-54448774D01*
X152123876Y-54333469D01*
X152176945Y-54205349D01*
X152204000Y-54069338D01*
X152204000Y-53930662D01*
X153296000Y-53930662D01*
X153296000Y-54069338D01*
X153323055Y-54205349D01*
X153376124Y-54333469D01*
X153453168Y-54448774D01*
X153551226Y-54546832D01*
X153666531Y-54623876D01*
X153794651Y-54676945D01*
X153930662Y-54704000D01*
X154069338Y-54704000D01*
X154205349Y-54676945D01*
X154333469Y-54623876D01*
X154448774Y-54546832D01*
X154546832Y-54448774D01*
X154623876Y-54333469D01*
X154676945Y-54205349D01*
X154704000Y-54069338D01*
X154704000Y-53930662D01*
X154676945Y-53794651D01*
X154623876Y-53666531D01*
X154546832Y-53551226D01*
X154448774Y-53453168D01*
X154355227Y-53390662D01*
X154661000Y-53390662D01*
X154661000Y-53529338D01*
X154688055Y-53665349D01*
X154741124Y-53793469D01*
X154818168Y-53908774D01*
X154916226Y-54006832D01*
X155031531Y-54083876D01*
X155159651Y-54136945D01*
X155295662Y-54164000D01*
X155434338Y-54164000D01*
X155570349Y-54136945D01*
X155698469Y-54083876D01*
X155813774Y-54006832D01*
X155911832Y-53908774D01*
X155988876Y-53793469D01*
X156000000Y-53766613D01*
X156011124Y-53793469D01*
X156088168Y-53908774D01*
X156186226Y-54006832D01*
X156301531Y-54083876D01*
X156328387Y-54095000D01*
X156301531Y-54106124D01*
X156186226Y-54183168D01*
X156088168Y-54281226D01*
X156011124Y-54396531D01*
X155958055Y-54524651D01*
X155931000Y-54660662D01*
X155931000Y-54799338D01*
X155958055Y-54935349D01*
X156011124Y-55063469D01*
X156088168Y-55178774D01*
X156186226Y-55276832D01*
X156301531Y-55353876D01*
X156328387Y-55365000D01*
X156301531Y-55376124D01*
X156186226Y-55453168D01*
X156088168Y-55551226D01*
X156011124Y-55666531D01*
X155958055Y-55794651D01*
X155931000Y-55930662D01*
X155931000Y-56069338D01*
X155958055Y-56205349D01*
X156011124Y-56333469D01*
X156088168Y-56448774D01*
X156186226Y-56546832D01*
X156301531Y-56623876D01*
X156429651Y-56676945D01*
X156565662Y-56704000D01*
X156704338Y-56704000D01*
X156840349Y-56676945D01*
X156968469Y-56623876D01*
X157083774Y-56546832D01*
X157181832Y-56448774D01*
X157258876Y-56333469D01*
X157311945Y-56205349D01*
X157339000Y-56069338D01*
X157339000Y-55930662D01*
X157311945Y-55794651D01*
X157258876Y-55666531D01*
X157181832Y-55551226D01*
X157083774Y-55453168D01*
X157050092Y-55430662D01*
X157296000Y-55430662D01*
X157296000Y-55569338D01*
X157323055Y-55705349D01*
X157376124Y-55833469D01*
X157453168Y-55948774D01*
X157504394Y-56000000D01*
X157453168Y-56051226D01*
X157376124Y-56166531D01*
X157323055Y-56294651D01*
X157296000Y-56430662D01*
X157296000Y-56569338D01*
X157323055Y-56705349D01*
X157376124Y-56833469D01*
X157453168Y-56948774D01*
X157551226Y-57046832D01*
X157666531Y-57123876D01*
X157794651Y-57176945D01*
X157930662Y-57204000D01*
X158069338Y-57204000D01*
X158205349Y-57176945D01*
X158333469Y-57123876D01*
X158448774Y-57046832D01*
X158546832Y-56948774D01*
X158558933Y-56930662D01*
X165296000Y-56930662D01*
X165296000Y-57069338D01*
X165323055Y-57205349D01*
X165376124Y-57333469D01*
X165453168Y-57448774D01*
X165551226Y-57546832D01*
X165666531Y-57623876D01*
X165794651Y-57676945D01*
X165930662Y-57704000D01*
X166069338Y-57704000D01*
X166205349Y-57676945D01*
X166333469Y-57623876D01*
X166448774Y-57546832D01*
X166546832Y-57448774D01*
X166623876Y-57333469D01*
X166676945Y-57205349D01*
X166704000Y-57069338D01*
X166704000Y-56930662D01*
X166676945Y-56794651D01*
X166623876Y-56666531D01*
X166546832Y-56551226D01*
X166448774Y-56453168D01*
X166333469Y-56376124D01*
X166205349Y-56323055D01*
X166069338Y-56296000D01*
X165930662Y-56296000D01*
X165794651Y-56323055D01*
X165666531Y-56376124D01*
X165551226Y-56453168D01*
X165453168Y-56551226D01*
X165376124Y-56666531D01*
X165323055Y-56794651D01*
X165296000Y-56930662D01*
X158558933Y-56930662D01*
X158623876Y-56833469D01*
X158676945Y-56705349D01*
X158704000Y-56569338D01*
X158704000Y-56430662D01*
X158676945Y-56294651D01*
X158623876Y-56166531D01*
X158546832Y-56051226D01*
X158495606Y-56000000D01*
X158546832Y-55948774D01*
X158558933Y-55930662D01*
X161296000Y-55930662D01*
X161296000Y-56069338D01*
X161323055Y-56205349D01*
X161376124Y-56333469D01*
X161453168Y-56448774D01*
X161551226Y-56546832D01*
X161666531Y-56623876D01*
X161794651Y-56676945D01*
X161930662Y-56704000D01*
X162069338Y-56704000D01*
X162205349Y-56676945D01*
X162333469Y-56623876D01*
X162448774Y-56546832D01*
X162546832Y-56448774D01*
X162623876Y-56333469D01*
X162676945Y-56205349D01*
X162704000Y-56069338D01*
X162704000Y-55930662D01*
X162676945Y-55794651D01*
X162623876Y-55666531D01*
X162546832Y-55551226D01*
X162448774Y-55453168D01*
X162333469Y-55376124D01*
X162205349Y-55323055D01*
X162069338Y-55296000D01*
X161930662Y-55296000D01*
X161794651Y-55323055D01*
X161666531Y-55376124D01*
X161551226Y-55453168D01*
X161453168Y-55551226D01*
X161376124Y-55666531D01*
X161323055Y-55794651D01*
X161296000Y-55930662D01*
X158558933Y-55930662D01*
X158623876Y-55833469D01*
X158676945Y-55705349D01*
X158704000Y-55569338D01*
X158704000Y-55430662D01*
X158676945Y-55294651D01*
X158623876Y-55166531D01*
X158546832Y-55051226D01*
X158448774Y-54953168D01*
X158415092Y-54930662D01*
X165296000Y-54930662D01*
X165296000Y-55069338D01*
X165323055Y-55205349D01*
X165376124Y-55333469D01*
X165453168Y-55448774D01*
X165551226Y-55546832D01*
X165666531Y-55623876D01*
X165794651Y-55676945D01*
X165930662Y-55704000D01*
X166069338Y-55704000D01*
X166205349Y-55676945D01*
X166333469Y-55623876D01*
X166448774Y-55546832D01*
X166546832Y-55448774D01*
X166623876Y-55333469D01*
X166676945Y-55205349D01*
X166704000Y-55069338D01*
X166704000Y-54930662D01*
X172796000Y-54930662D01*
X172796000Y-55069338D01*
X172823055Y-55205349D01*
X172876124Y-55333469D01*
X172953168Y-55448774D01*
X173051226Y-55546832D01*
X173166531Y-55623876D01*
X173294651Y-55676945D01*
X173430662Y-55704000D01*
X173569338Y-55704000D01*
X173705349Y-55676945D01*
X173833469Y-55623876D01*
X173948774Y-55546832D01*
X174046832Y-55448774D01*
X174123876Y-55333469D01*
X174176945Y-55205349D01*
X174204000Y-55069338D01*
X174204000Y-54930662D01*
X174176945Y-54794651D01*
X174134063Y-54691125D01*
X174205349Y-54676945D01*
X174333469Y-54623876D01*
X174448774Y-54546832D01*
X174546832Y-54448774D01*
X174623876Y-54333469D01*
X174676945Y-54205349D01*
X174704000Y-54069338D01*
X174704000Y-53930662D01*
X174676945Y-53794651D01*
X174623876Y-53666531D01*
X174546832Y-53551226D01*
X174448774Y-53453168D01*
X174333469Y-53376124D01*
X174205349Y-53323055D01*
X174069338Y-53296000D01*
X173930662Y-53296000D01*
X173794651Y-53323055D01*
X173666531Y-53376124D01*
X173551226Y-53453168D01*
X173453168Y-53551226D01*
X173376124Y-53666531D01*
X173323055Y-53794651D01*
X173296000Y-53930662D01*
X173296000Y-54069338D01*
X173323055Y-54205349D01*
X173365937Y-54308875D01*
X173294651Y-54323055D01*
X173166531Y-54376124D01*
X173051226Y-54453168D01*
X172953168Y-54551226D01*
X172876124Y-54666531D01*
X172823055Y-54794651D01*
X172796000Y-54930662D01*
X166704000Y-54930662D01*
X166676945Y-54794651D01*
X166623876Y-54666531D01*
X166546832Y-54551226D01*
X166448774Y-54453168D01*
X166333469Y-54376124D01*
X166205349Y-54323055D01*
X166069338Y-54296000D01*
X165930662Y-54296000D01*
X165794651Y-54323055D01*
X165666531Y-54376124D01*
X165551226Y-54453168D01*
X165453168Y-54551226D01*
X165376124Y-54666531D01*
X165323055Y-54794651D01*
X165296000Y-54930662D01*
X158415092Y-54930662D01*
X158333469Y-54876124D01*
X158205349Y-54823055D01*
X158069338Y-54796000D01*
X157930662Y-54796000D01*
X157794651Y-54823055D01*
X157666531Y-54876124D01*
X157551226Y-54953168D01*
X157453168Y-55051226D01*
X157376124Y-55166531D01*
X157323055Y-55294651D01*
X157296000Y-55430662D01*
X157050092Y-55430662D01*
X156968469Y-55376124D01*
X156941613Y-55365000D01*
X156968469Y-55353876D01*
X157083774Y-55276832D01*
X157181832Y-55178774D01*
X157258876Y-55063469D01*
X157311945Y-54935349D01*
X157339000Y-54799338D01*
X157339000Y-54660662D01*
X157311945Y-54524651D01*
X157258876Y-54396531D01*
X157181832Y-54281226D01*
X157083774Y-54183168D01*
X156968469Y-54106124D01*
X156941613Y-54095000D01*
X156968469Y-54083876D01*
X157083774Y-54006832D01*
X157181832Y-53908774D01*
X157258876Y-53793469D01*
X157270295Y-53765901D01*
X157282751Y-53778357D01*
X157398056Y-53855401D01*
X157526176Y-53908470D01*
X157662187Y-53935525D01*
X157800863Y-53935525D01*
X157936874Y-53908470D01*
X158064994Y-53855401D01*
X158180299Y-53778357D01*
X158278357Y-53680299D01*
X158355401Y-53564994D01*
X158408470Y-53436874D01*
X158435525Y-53300863D01*
X158435525Y-53162187D01*
X158408470Y-53026176D01*
X158368907Y-52930662D01*
X163296000Y-52930662D01*
X163296000Y-53069338D01*
X163323055Y-53205349D01*
X163376124Y-53333469D01*
X163453168Y-53448774D01*
X163551226Y-53546832D01*
X163666531Y-53623876D01*
X163794651Y-53676945D01*
X163930662Y-53704000D01*
X164069338Y-53704000D01*
X164205349Y-53676945D01*
X164333469Y-53623876D01*
X164448774Y-53546832D01*
X164546832Y-53448774D01*
X164623876Y-53333469D01*
X164676945Y-53205349D01*
X164704000Y-53069338D01*
X164704000Y-52930662D01*
X164676945Y-52794651D01*
X164623876Y-52666531D01*
X164546832Y-52551226D01*
X164448774Y-52453168D01*
X164415092Y-52430662D01*
X178796000Y-52430662D01*
X178796000Y-52569338D01*
X178823055Y-52705349D01*
X178876124Y-52833469D01*
X178953168Y-52948774D01*
X179051226Y-53046832D01*
X179166531Y-53123876D01*
X179294651Y-53176945D01*
X179430662Y-53204000D01*
X179569338Y-53204000D01*
X179705349Y-53176945D01*
X179833469Y-53123876D01*
X179948774Y-53046832D01*
X180046832Y-52948774D01*
X180123876Y-52833469D01*
X180176945Y-52705349D01*
X180204000Y-52569338D01*
X180204000Y-52430662D01*
X180176945Y-52294651D01*
X180123876Y-52166531D01*
X180046832Y-52051226D01*
X179948774Y-51953168D01*
X179833469Y-51876124D01*
X179705349Y-51823055D01*
X179569338Y-51796000D01*
X179430662Y-51796000D01*
X179294651Y-51823055D01*
X179166531Y-51876124D01*
X179051226Y-51953168D01*
X178953168Y-52051226D01*
X178876124Y-52166531D01*
X178823055Y-52294651D01*
X178796000Y-52430662D01*
X164415092Y-52430662D01*
X164333469Y-52376124D01*
X164205349Y-52323055D01*
X164069338Y-52296000D01*
X163930662Y-52296000D01*
X163794651Y-52323055D01*
X163666531Y-52376124D01*
X163551226Y-52453168D01*
X163453168Y-52551226D01*
X163376124Y-52666531D01*
X163323055Y-52794651D01*
X163296000Y-52930662D01*
X158368907Y-52930662D01*
X158355401Y-52898056D01*
X158278357Y-52782751D01*
X158180299Y-52684693D01*
X158064994Y-52607649D01*
X157936874Y-52554580D01*
X157800863Y-52527525D01*
X157662187Y-52527525D01*
X157526176Y-52554580D01*
X157398056Y-52607649D01*
X157282751Y-52684693D01*
X157184693Y-52782751D01*
X157107649Y-52898056D01*
X157096230Y-52925624D01*
X157083774Y-52913168D01*
X156968469Y-52836124D01*
X156840349Y-52783055D01*
X156704338Y-52756000D01*
X156635091Y-52756000D01*
X156659694Y-52731397D01*
X156752640Y-52592294D01*
X156816661Y-52437732D01*
X156849300Y-52273649D01*
X156849300Y-52106351D01*
X156816661Y-51942268D01*
X156752640Y-51787706D01*
X156659694Y-51648603D01*
X156541397Y-51530306D01*
X156402294Y-51437360D01*
X156247732Y-51373339D01*
X156083649Y-51340700D01*
X155916351Y-51340700D01*
X155752268Y-51373339D01*
X155597706Y-51437360D01*
X155458603Y-51530306D01*
X155340306Y-51648603D01*
X155247360Y-51787706D01*
X155183339Y-51942268D01*
X155150700Y-52106351D01*
X155150700Y-52273649D01*
X155183339Y-52437732D01*
X155247360Y-52592294D01*
X155340306Y-52731397D01*
X155364909Y-52756000D01*
X155295662Y-52756000D01*
X155159651Y-52783055D01*
X155031531Y-52836124D01*
X154916226Y-52913168D01*
X154818168Y-53011226D01*
X154741124Y-53126531D01*
X154688055Y-53254651D01*
X154661000Y-53390662D01*
X154355227Y-53390662D01*
X154333469Y-53376124D01*
X154205349Y-53323055D01*
X154069338Y-53296000D01*
X153930662Y-53296000D01*
X153794651Y-53323055D01*
X153666531Y-53376124D01*
X153551226Y-53453168D01*
X153453168Y-53551226D01*
X153376124Y-53666531D01*
X153323055Y-53794651D01*
X153296000Y-53930662D01*
X152204000Y-53930662D01*
X152176945Y-53794651D01*
X152123876Y-53666531D01*
X152105567Y-53639129D01*
X152162448Y-53592448D01*
X152247299Y-53489057D01*
X152310349Y-53371099D01*
X152349175Y-53243107D01*
X152362285Y-53110000D01*
X152349175Y-52976893D01*
X152310349Y-52848901D01*
X152247299Y-52730943D01*
X152162448Y-52627552D01*
X152059057Y-52542701D01*
X151941752Y-52480000D01*
X152155000Y-52480000D01*
X152155000Y-51705000D01*
X152205000Y-51705000D01*
X152205000Y-52480000D01*
X152755000Y-52480000D01*
X152910592Y-52459751D01*
X153059244Y-52409537D01*
X153195243Y-52331287D01*
X153313363Y-52228008D01*
X153409065Y-52103670D01*
X153478671Y-51963050D01*
X153515854Y-51829779D01*
X153454569Y-51705000D01*
X152205000Y-51705000D01*
X152155000Y-51705000D01*
X150905431Y-51705000D01*
X150844146Y-51829779D01*
X150881329Y-51963050D01*
X150950935Y-52103670D01*
X151046637Y-52228008D01*
X151164757Y-52331287D01*
X151300756Y-52409537D01*
X151449408Y-52459751D01*
X151473966Y-52462947D01*
X151418901Y-52479651D01*
X151300943Y-52542701D01*
X151197552Y-52627552D01*
X151112701Y-52730943D01*
X151049651Y-52848901D01*
X151010825Y-52976893D01*
X150997715Y-53110000D01*
X151010825Y-53243107D01*
X151049651Y-53371099D01*
X151082388Y-53432346D01*
X151051226Y-53453168D01*
X150953168Y-53551226D01*
X150876124Y-53666531D01*
X150823055Y-53794651D01*
X150796000Y-53930662D01*
X145879000Y-53930662D01*
X145879000Y-51829779D01*
X146814146Y-51829779D01*
X146851329Y-51963050D01*
X146920935Y-52103670D01*
X147016637Y-52228008D01*
X147134757Y-52331287D01*
X147270756Y-52409537D01*
X147419408Y-52459751D01*
X147575000Y-52480000D01*
X147975000Y-52480000D01*
X147975000Y-51705000D01*
X148025000Y-51705000D01*
X148025000Y-52480000D01*
X148425000Y-52480000D01*
X148580592Y-52459751D01*
X148729244Y-52409537D01*
X148865243Y-52331287D01*
X148983363Y-52228008D01*
X149079065Y-52103670D01*
X149148671Y-51963050D01*
X149185854Y-51829779D01*
X149124569Y-51705000D01*
X148025000Y-51705000D01*
X147975000Y-51705000D01*
X146875431Y-51705000D01*
X146814146Y-51829779D01*
X145879000Y-51829779D01*
X145879000Y-51337773D01*
X145953168Y-51448774D01*
X146051226Y-51546832D01*
X146166531Y-51623876D01*
X146294651Y-51676945D01*
X146430662Y-51704000D01*
X146569338Y-51704000D01*
X146705349Y-51676945D01*
X146833469Y-51623876D01*
X146853553Y-51610456D01*
X146875431Y-51655000D01*
X147975000Y-51655000D01*
X147975000Y-51635000D01*
X148025000Y-51635000D01*
X148025000Y-51655000D01*
X149124569Y-51655000D01*
X149185854Y-51530221D01*
X149148671Y-51396950D01*
X149079065Y-51256330D01*
X148983363Y-51131992D01*
X148865243Y-51028713D01*
X148729244Y-50950463D01*
X148580592Y-50900249D01*
X148425000Y-50880000D01*
X147575000Y-50880000D01*
X147419408Y-50900249D01*
X147270756Y-50950463D01*
X147204000Y-50988873D01*
X147204000Y-50930662D01*
X147184109Y-50830662D01*
X149296000Y-50830662D01*
X149296000Y-50969338D01*
X149323055Y-51105349D01*
X149376124Y-51233469D01*
X149453168Y-51348774D01*
X149551226Y-51446832D01*
X149666531Y-51523876D01*
X149794651Y-51576945D01*
X149930662Y-51604000D01*
X150069338Y-51604000D01*
X150205349Y-51576945D01*
X150318150Y-51530221D01*
X150844146Y-51530221D01*
X150905431Y-51655000D01*
X152155000Y-51655000D01*
X152155000Y-51635000D01*
X152205000Y-51635000D01*
X152205000Y-51655000D01*
X153454569Y-51655000D01*
X153515854Y-51530221D01*
X153478671Y-51396950D01*
X153409065Y-51256330D01*
X153313363Y-51131992D01*
X153195243Y-51028713D01*
X153059244Y-50950463D01*
X153000626Y-50930662D01*
X176796000Y-50930662D01*
X176796000Y-51069338D01*
X176823055Y-51205349D01*
X176876124Y-51333469D01*
X176953168Y-51448774D01*
X177051226Y-51546832D01*
X177166531Y-51623876D01*
X177294651Y-51676945D01*
X177430662Y-51704000D01*
X177569338Y-51704000D01*
X177705349Y-51676945D01*
X177833469Y-51623876D01*
X177948774Y-51546832D01*
X178046832Y-51448774D01*
X178123876Y-51333469D01*
X178176945Y-51205349D01*
X178204000Y-51069338D01*
X178204000Y-50930662D01*
X178184109Y-50830662D01*
X180296000Y-50830662D01*
X180296000Y-50969338D01*
X180323055Y-51105349D01*
X180376124Y-51233469D01*
X180453168Y-51348774D01*
X180551226Y-51446832D01*
X180666531Y-51523876D01*
X180794651Y-51576945D01*
X180930662Y-51604000D01*
X181069338Y-51604000D01*
X181205349Y-51576945D01*
X181333469Y-51523876D01*
X181448774Y-51446832D01*
X181546832Y-51348774D01*
X181623876Y-51233469D01*
X181676945Y-51105349D01*
X181704000Y-50969338D01*
X181704000Y-50830662D01*
X181676945Y-50694651D01*
X181623876Y-50566531D01*
X181546832Y-50451226D01*
X181448774Y-50353168D01*
X181333469Y-50276124D01*
X181205349Y-50223055D01*
X181069338Y-50196000D01*
X180930662Y-50196000D01*
X180794651Y-50223055D01*
X180666531Y-50276124D01*
X180551226Y-50353168D01*
X180453168Y-50451226D01*
X180376124Y-50566531D01*
X180323055Y-50694651D01*
X180296000Y-50830662D01*
X178184109Y-50830662D01*
X178176945Y-50794651D01*
X178123876Y-50666531D01*
X178046832Y-50551226D01*
X177948774Y-50453168D01*
X177833469Y-50376124D01*
X177705349Y-50323055D01*
X177569338Y-50296000D01*
X177430662Y-50296000D01*
X177294651Y-50323055D01*
X177166531Y-50376124D01*
X177051226Y-50453168D01*
X176953168Y-50551226D01*
X176876124Y-50666531D01*
X176823055Y-50794651D01*
X176796000Y-50930662D01*
X153000626Y-50930662D01*
X152910592Y-50900249D01*
X152755000Y-50880000D01*
X151605000Y-50880000D01*
X151449408Y-50900249D01*
X151300756Y-50950463D01*
X151164757Y-51028713D01*
X151046637Y-51131992D01*
X150950935Y-51256330D01*
X150881329Y-51396950D01*
X150844146Y-51530221D01*
X150318150Y-51530221D01*
X150333469Y-51523876D01*
X150448774Y-51446832D01*
X150546832Y-51348774D01*
X150623876Y-51233469D01*
X150676945Y-51105349D01*
X150704000Y-50969338D01*
X150704000Y-50830662D01*
X150676945Y-50694651D01*
X150623876Y-50566531D01*
X150546832Y-50451226D01*
X150448774Y-50353168D01*
X150333469Y-50276124D01*
X150205349Y-50223055D01*
X150069338Y-50196000D01*
X149930662Y-50196000D01*
X149794651Y-50223055D01*
X149666531Y-50276124D01*
X149551226Y-50353168D01*
X149453168Y-50451226D01*
X149376124Y-50566531D01*
X149323055Y-50694651D01*
X149296000Y-50830662D01*
X147184109Y-50830662D01*
X147176945Y-50794651D01*
X147123876Y-50666531D01*
X147046832Y-50551226D01*
X146948774Y-50453168D01*
X146833469Y-50376124D01*
X146705349Y-50323055D01*
X146569338Y-50296000D01*
X146430662Y-50296000D01*
X146294651Y-50323055D01*
X146166531Y-50376124D01*
X146051226Y-50453168D01*
X145953168Y-50551226D01*
X145879000Y-50662227D01*
X145879000Y-50518535D01*
X145911655Y-50185499D01*
X145988594Y-49930662D01*
X155796000Y-49930662D01*
X155796000Y-50069338D01*
X155823055Y-50205349D01*
X155876124Y-50333469D01*
X155953168Y-50448774D01*
X156051226Y-50546832D01*
X156166531Y-50623876D01*
X156294651Y-50676945D01*
X156430662Y-50704000D01*
X156569338Y-50704000D01*
X156705349Y-50676945D01*
X156833469Y-50623876D01*
X156948774Y-50546832D01*
X157046832Y-50448774D01*
X157123876Y-50333469D01*
X157176945Y-50205349D01*
X157204000Y-50069338D01*
X157204000Y-49930662D01*
X159796000Y-49930662D01*
X159796000Y-50069338D01*
X159823055Y-50205349D01*
X159876124Y-50333469D01*
X159953168Y-50448774D01*
X160051226Y-50546832D01*
X160166531Y-50623876D01*
X160294651Y-50676945D01*
X160430662Y-50704000D01*
X160569338Y-50704000D01*
X160705349Y-50676945D01*
X160833469Y-50623876D01*
X160948774Y-50546832D01*
X161046832Y-50448774D01*
X161123876Y-50333469D01*
X161176945Y-50205349D01*
X161204000Y-50069338D01*
X161204000Y-49930662D01*
X161176945Y-49794651D01*
X161123876Y-49666531D01*
X161046832Y-49551226D01*
X160948774Y-49453168D01*
X160833469Y-49376124D01*
X160705349Y-49323055D01*
X160569338Y-49296000D01*
X160430662Y-49296000D01*
X160294651Y-49323055D01*
X160166531Y-49376124D01*
X160051226Y-49453168D01*
X159953168Y-49551226D01*
X159876124Y-49666531D01*
X159823055Y-49794651D01*
X159796000Y-49930662D01*
X157204000Y-49930662D01*
X157176945Y-49794651D01*
X157123876Y-49666531D01*
X157046832Y-49551226D01*
X156948774Y-49453168D01*
X156833469Y-49376124D01*
X156705349Y-49323055D01*
X156569338Y-49296000D01*
X156430662Y-49296000D01*
X156294651Y-49323055D01*
X156166531Y-49376124D01*
X156051226Y-49453168D01*
X155953168Y-49551226D01*
X155876124Y-49666531D01*
X155823055Y-49794651D01*
X155796000Y-49930662D01*
X145988594Y-49930662D01*
X146002991Y-49882978D01*
X146151350Y-49603957D01*
X146351079Y-49359066D01*
X146594564Y-49157637D01*
X146872539Y-49007337D01*
X147174419Y-48913890D01*
X147506368Y-48879000D01*
X149329538Y-48879000D01*
X149323055Y-48894651D01*
X149323055Y-48894651D01*
G37*
X149323055Y-48894651D02*
X149296000Y-49030662D01*
X149296000Y-49169338D01*
X149323055Y-49305349D01*
X149376124Y-49433469D01*
X149453168Y-49548774D01*
X149551226Y-49646832D01*
X149666531Y-49723876D01*
X149794651Y-49776945D01*
X149930662Y-49804000D01*
X150069338Y-49804000D01*
X150205349Y-49776945D01*
X150333469Y-49723876D01*
X150448774Y-49646832D01*
X150546832Y-49548774D01*
X150623876Y-49433469D01*
X150676945Y-49305349D01*
X150704000Y-49169338D01*
X150704000Y-49030662D01*
X150676945Y-48894651D01*
X150670462Y-48879000D01*
X180329538Y-48879000D01*
X180323055Y-48894651D01*
X180296000Y-49030662D01*
X180296000Y-49169338D01*
X180323055Y-49305349D01*
X180376124Y-49433469D01*
X180453168Y-49548774D01*
X180551226Y-49646832D01*
X180666531Y-49723876D01*
X180794651Y-49776945D01*
X180930662Y-49804000D01*
X181069338Y-49804000D01*
X181205349Y-49776945D01*
X181333469Y-49723876D01*
X181448774Y-49646832D01*
X181546832Y-49548774D01*
X181623876Y-49433469D01*
X181676945Y-49305349D01*
X181704000Y-49169338D01*
X181704000Y-49030662D01*
X181676945Y-48894651D01*
X181670462Y-48879000D01*
X184900000Y-48879000D01*
X184900000Y-63121000D01*
X178337773Y-63121000D01*
X178448774Y-63046832D01*
X178546832Y-62948774D01*
X178623876Y-62833469D01*
X178676945Y-62705349D01*
X178704000Y-62569338D01*
X178704000Y-62430662D01*
X178676945Y-62294651D01*
X178623876Y-62166531D01*
X178546832Y-62051226D01*
X178495606Y-62000000D01*
X178500000Y-61995606D01*
X178551226Y-62046832D01*
X178666531Y-62123876D01*
X178794651Y-62176945D01*
X178930662Y-62204000D01*
X179069338Y-62204000D01*
X179205349Y-62176945D01*
X179333469Y-62123876D01*
X179448774Y-62046832D01*
X179546832Y-61948774D01*
X179558933Y-61930662D01*
X183296000Y-61930662D01*
X183296000Y-62069338D01*
X183323055Y-62205349D01*
X183376124Y-62333469D01*
X183453168Y-62448774D01*
X183551226Y-62546832D01*
X183666531Y-62623876D01*
X183794651Y-62676945D01*
X183930662Y-62704000D01*
X184069338Y-62704000D01*
X184205349Y-62676945D01*
X184333469Y-62623876D01*
X184448774Y-62546832D01*
X184546832Y-62448774D01*
X184623876Y-62333469D01*
X184676945Y-62205349D01*
X184704000Y-62069338D01*
X184704000Y-61930662D01*
X184676945Y-61794651D01*
X184623876Y-61666531D01*
X184546832Y-61551226D01*
X184448774Y-61453168D01*
X184333469Y-61376124D01*
X184205349Y-61323055D01*
X184069338Y-61296000D01*
X183930662Y-61296000D01*
X183794651Y-61323055D01*
X183666531Y-61376124D01*
X183551226Y-61453168D01*
X183453168Y-61551226D01*
X183376124Y-61666531D01*
X183323055Y-61794651D01*
X183296000Y-61930662D01*
X179558933Y-61930662D01*
X179623876Y-61833469D01*
X179676945Y-61705349D01*
X179704000Y-61569338D01*
X179704000Y-61430662D01*
X179676945Y-61294651D01*
X179623876Y-61166531D01*
X179546832Y-61051226D01*
X179495606Y-61000000D01*
X179546832Y-60948774D01*
X179623876Y-60833469D01*
X179676945Y-60705349D01*
X179704000Y-60569338D01*
X179704000Y-60430662D01*
X179676945Y-60294651D01*
X179623876Y-60166531D01*
X179546832Y-60051226D01*
X179448774Y-59953168D01*
X179415092Y-59930662D01*
X183296000Y-59930662D01*
X183296000Y-60069338D01*
X183323055Y-60205349D01*
X183376124Y-60333469D01*
X183453168Y-60448774D01*
X183551226Y-60546832D01*
X183666531Y-60623876D01*
X183794651Y-60676945D01*
X183930662Y-60704000D01*
X184069338Y-60704000D01*
X184205349Y-60676945D01*
X184333469Y-60623876D01*
X184448774Y-60546832D01*
X184546832Y-60448774D01*
X184623876Y-60333469D01*
X184676945Y-60205349D01*
X184704000Y-60069338D01*
X184704000Y-59930662D01*
X184676945Y-59794651D01*
X184623876Y-59666531D01*
X184546832Y-59551226D01*
X184448774Y-59453168D01*
X184333469Y-59376124D01*
X184205349Y-59323055D01*
X184069338Y-59296000D01*
X183930662Y-59296000D01*
X183794651Y-59323055D01*
X183666531Y-59376124D01*
X183551226Y-59453168D01*
X183453168Y-59551226D01*
X183376124Y-59666531D01*
X183323055Y-59794651D01*
X183296000Y-59930662D01*
X179415092Y-59930662D01*
X179333469Y-59876124D01*
X179205349Y-59823055D01*
X179069338Y-59796000D01*
X178930662Y-59796000D01*
X178794651Y-59823055D01*
X178666531Y-59876124D01*
X178551226Y-59953168D01*
X178453168Y-60051226D01*
X178376124Y-60166531D01*
X178323055Y-60294651D01*
X178296000Y-60430662D01*
X178296000Y-60569338D01*
X178323055Y-60705349D01*
X178376124Y-60833469D01*
X178453168Y-60948774D01*
X178504394Y-61000000D01*
X178500000Y-61004394D01*
X178448774Y-60953168D01*
X178333469Y-60876124D01*
X178205349Y-60823055D01*
X178069338Y-60796000D01*
X177930662Y-60796000D01*
X177794651Y-60823055D01*
X177666531Y-60876124D01*
X177551226Y-60953168D01*
X177453168Y-61051226D01*
X177376124Y-61166531D01*
X177323055Y-61294651D01*
X177296000Y-61430662D01*
X177296000Y-61569338D01*
X177323055Y-61705349D01*
X177376124Y-61833469D01*
X177453168Y-61948774D01*
X177504394Y-62000000D01*
X177453168Y-62051226D01*
X177376124Y-62166531D01*
X177323055Y-62294651D01*
X177296000Y-62430662D01*
X177296000Y-62569338D01*
X177323055Y-62705349D01*
X177376124Y-62833469D01*
X177453168Y-62948774D01*
X177551226Y-63046832D01*
X177662227Y-63121000D01*
X171337773Y-63121000D01*
X171448774Y-63046832D01*
X171546832Y-62948774D01*
X171623876Y-62833469D01*
X171676945Y-62705349D01*
X171704000Y-62569338D01*
X171704000Y-62430662D01*
X171676945Y-62294651D01*
X171623876Y-62166531D01*
X171546832Y-62051226D01*
X171495606Y-62000000D01*
X171546832Y-61948774D01*
X171623876Y-61833469D01*
X171676945Y-61705349D01*
X171704000Y-61569338D01*
X171704000Y-61430662D01*
X171676945Y-61294651D01*
X171623876Y-61166531D01*
X171546832Y-61051226D01*
X171448774Y-60953168D01*
X171333469Y-60876124D01*
X171205349Y-60823055D01*
X171069338Y-60796000D01*
X170930662Y-60796000D01*
X170794651Y-60823055D01*
X170666531Y-60876124D01*
X170551226Y-60953168D01*
X170453168Y-61051226D01*
X170376124Y-61166531D01*
X170323055Y-61294651D01*
X170296000Y-61430662D01*
X170296000Y-61569338D01*
X170323055Y-61705349D01*
X170376124Y-61833469D01*
X170453168Y-61948774D01*
X170504394Y-62000000D01*
X170453168Y-62051226D01*
X170376124Y-62166531D01*
X170323055Y-62294651D01*
X170296000Y-62430662D01*
X170296000Y-62569338D01*
X170323055Y-62705349D01*
X170376124Y-62833469D01*
X170453168Y-62948774D01*
X170551226Y-63046832D01*
X170662227Y-63121000D01*
X169337773Y-63121000D01*
X169448774Y-63046832D01*
X169546832Y-62948774D01*
X169623876Y-62833469D01*
X169676945Y-62705349D01*
X169704000Y-62569338D01*
X169704000Y-62430662D01*
X169676945Y-62294651D01*
X169623876Y-62166531D01*
X169546832Y-62051226D01*
X169495606Y-62000000D01*
X169546832Y-61948774D01*
X169623876Y-61833469D01*
X169676945Y-61705349D01*
X169704000Y-61569338D01*
X169704000Y-61430662D01*
X169676945Y-61294651D01*
X169623876Y-61166531D01*
X169546832Y-61051226D01*
X169448774Y-60953168D01*
X169333469Y-60876124D01*
X169205349Y-60823055D01*
X169069338Y-60796000D01*
X168930662Y-60796000D01*
X168794651Y-60823055D01*
X168666531Y-60876124D01*
X168551226Y-60953168D01*
X168453168Y-61051226D01*
X168376124Y-61166531D01*
X168323055Y-61294651D01*
X168296000Y-61430662D01*
X168296000Y-61569338D01*
X168323055Y-61705349D01*
X168376124Y-61833469D01*
X168453168Y-61948774D01*
X168504394Y-62000000D01*
X168453168Y-62051226D01*
X168376124Y-62166531D01*
X168323055Y-62294651D01*
X168296000Y-62430662D01*
X168296000Y-62569338D01*
X168323055Y-62705349D01*
X168376124Y-62833469D01*
X168453168Y-62948774D01*
X168551226Y-63046832D01*
X168662227Y-63121000D01*
X167337773Y-63121000D01*
X167448774Y-63046832D01*
X167546832Y-62948774D01*
X167623876Y-62833469D01*
X167676945Y-62705349D01*
X167704000Y-62569338D01*
X167704000Y-62430662D01*
X167676945Y-62294651D01*
X167623876Y-62166531D01*
X167546832Y-62051226D01*
X167448774Y-61953168D01*
X167333469Y-61876124D01*
X167205349Y-61823055D01*
X167069338Y-61796000D01*
X166930662Y-61796000D01*
X166794651Y-61823055D01*
X166691125Y-61865937D01*
X166676945Y-61794651D01*
X166623876Y-61666531D01*
X166546832Y-61551226D01*
X166448774Y-61453168D01*
X166333469Y-61376124D01*
X166205349Y-61323055D01*
X166069338Y-61296000D01*
X165930662Y-61296000D01*
X165794651Y-61323055D01*
X165666531Y-61376124D01*
X165551226Y-61453168D01*
X165453168Y-61551226D01*
X165376124Y-61666531D01*
X165323055Y-61794651D01*
X165296000Y-61930662D01*
X165296000Y-62069338D01*
X165323055Y-62205349D01*
X165376124Y-62333469D01*
X165453168Y-62448774D01*
X165551226Y-62546832D01*
X165666531Y-62623876D01*
X165794651Y-62676945D01*
X165930662Y-62704000D01*
X166069338Y-62704000D01*
X166205349Y-62676945D01*
X166308875Y-62634063D01*
X166323055Y-62705349D01*
X166376124Y-62833469D01*
X166453168Y-62948774D01*
X166551226Y-63046832D01*
X166662227Y-63121000D01*
X152337773Y-63121000D01*
X152448774Y-63046832D01*
X152546832Y-62948774D01*
X152623876Y-62833469D01*
X152676945Y-62705349D01*
X152704000Y-62569338D01*
X152704000Y-62430662D01*
X152676945Y-62294651D01*
X152623876Y-62166531D01*
X152546832Y-62051226D01*
X152495606Y-62000000D01*
X152500000Y-61995606D01*
X152551226Y-62046832D01*
X152666531Y-62123876D01*
X152794651Y-62176945D01*
X152930662Y-62204000D01*
X153069338Y-62204000D01*
X153205349Y-62176945D01*
X153333469Y-62123876D01*
X153448774Y-62046832D01*
X153546832Y-61948774D01*
X153623876Y-61833469D01*
X153676945Y-61705349D01*
X153704000Y-61569338D01*
X153704000Y-61520662D01*
X156296000Y-61520662D01*
X156296000Y-61659338D01*
X156323055Y-61795349D01*
X156376124Y-61923469D01*
X156453168Y-62038774D01*
X156551226Y-62136832D01*
X156666531Y-62213876D01*
X156794651Y-62266945D01*
X156930662Y-62294000D01*
X157069338Y-62294000D01*
X157205349Y-62266945D01*
X157333469Y-62213876D01*
X157448774Y-62136832D01*
X157546832Y-62038774D01*
X157623876Y-61923469D01*
X157676945Y-61795349D01*
X157704000Y-61659338D01*
X157704000Y-61520662D01*
X157676945Y-61384651D01*
X157623876Y-61256531D01*
X157546832Y-61141226D01*
X157448774Y-61043168D01*
X157333469Y-60966124D01*
X157205349Y-60913055D01*
X157069338Y-60886000D01*
X156930662Y-60886000D01*
X156794651Y-60913055D01*
X156666531Y-60966124D01*
X156551226Y-61043168D01*
X156453168Y-61141226D01*
X156376124Y-61256531D01*
X156323055Y-61384651D01*
X156296000Y-61520662D01*
X153704000Y-61520662D01*
X153704000Y-61430662D01*
X153676945Y-61294651D01*
X153623876Y-61166531D01*
X153546832Y-61051226D01*
X153448774Y-60953168D01*
X153333469Y-60876124D01*
X153313487Y-60867847D01*
X153409065Y-60743670D01*
X153478671Y-60603050D01*
X153515854Y-60469779D01*
X153454569Y-60345000D01*
X152205000Y-60345000D01*
X152205000Y-60365000D01*
X152155000Y-60365000D01*
X152155000Y-60345000D01*
X150905431Y-60345000D01*
X150844146Y-60469779D01*
X150881329Y-60603050D01*
X150950935Y-60743670D01*
X151046637Y-60868008D01*
X151164757Y-60971287D01*
X151300756Y-61049537D01*
X151426023Y-61091852D01*
X151376124Y-61166531D01*
X151323055Y-61294651D01*
X151296000Y-61430662D01*
X151296000Y-61569338D01*
X151323055Y-61705349D01*
X151376124Y-61833469D01*
X151453168Y-61948774D01*
X151504394Y-62000000D01*
X151453168Y-62051226D01*
X151376124Y-62166531D01*
X151323055Y-62294651D01*
X151296000Y-62430662D01*
X151296000Y-62569338D01*
X151323055Y-62705349D01*
X151376124Y-62833469D01*
X151453168Y-62948774D01*
X151551226Y-63046832D01*
X151662227Y-63121000D01*
X148337773Y-63121000D01*
X148448774Y-63046832D01*
X148546832Y-62948774D01*
X148623876Y-62833469D01*
X148676945Y-62705349D01*
X148704000Y-62569338D01*
X148704000Y-62430662D01*
X148676945Y-62294651D01*
X148623876Y-62166531D01*
X148546832Y-62051226D01*
X148495606Y-62000000D01*
X148546832Y-61948774D01*
X148623876Y-61833469D01*
X148676945Y-61705349D01*
X148704000Y-61569338D01*
X148704000Y-61430662D01*
X148676945Y-61294651D01*
X148623876Y-61166531D01*
X148579362Y-61099911D01*
X148580592Y-61099751D01*
X148729244Y-61049537D01*
X148865243Y-60971287D01*
X148983363Y-60868008D01*
X149079065Y-60743670D01*
X149148671Y-60603050D01*
X149185854Y-60469779D01*
X149124569Y-60345000D01*
X148025000Y-60345000D01*
X148025000Y-60365000D01*
X147975000Y-60365000D01*
X147975000Y-60345000D01*
X146875431Y-60345000D01*
X146853553Y-60389544D01*
X146833469Y-60376124D01*
X146705349Y-60323055D01*
X146569338Y-60296000D01*
X146430662Y-60296000D01*
X146294651Y-60323055D01*
X146166531Y-60376124D01*
X146051226Y-60453168D01*
X145953168Y-60551226D01*
X145879000Y-60662227D01*
X145879000Y-60170221D01*
X146814146Y-60170221D01*
X146875431Y-60295000D01*
X147975000Y-60295000D01*
X147975000Y-60275000D01*
X148025000Y-60275000D01*
X148025000Y-60295000D01*
X149124569Y-60295000D01*
X149185854Y-60170221D01*
X149148671Y-60036950D01*
X149079065Y-59896330D01*
X148983363Y-59771992D01*
X148865243Y-59668713D01*
X148729244Y-59590463D01*
X148580592Y-59540249D01*
X148425000Y-59520000D01*
X147575000Y-59520000D01*
X147419408Y-59540249D01*
X147270756Y-59590463D01*
X147134757Y-59668713D01*
X147016637Y-59771992D01*
X146920935Y-59896330D01*
X146851329Y-60036950D01*
X146814146Y-60170221D01*
X145879000Y-60170221D01*
X145879000Y-57930662D01*
X150795916Y-57930662D01*
X150795916Y-58069338D01*
X150822971Y-58205349D01*
X150876040Y-58333469D01*
X150953084Y-58448774D01*
X151051142Y-58546832D01*
X151082366Y-58567695D01*
X151049651Y-58628901D01*
X151010825Y-58756893D01*
X150997715Y-58890000D01*
X151010825Y-59023107D01*
X151049651Y-59151099D01*
X151112701Y-59269057D01*
X151197552Y-59372448D01*
X151300943Y-59457299D01*
X151418901Y-59520349D01*
X151473966Y-59537053D01*
X151449408Y-59540249D01*
X151300756Y-59590463D01*
X151164757Y-59668713D01*
X151046637Y-59771992D01*
X150950935Y-59896330D01*
X150881329Y-60036950D01*
X150844146Y-60170221D01*
X150905431Y-60295000D01*
X152155000Y-60295000D01*
X152155000Y-60275000D01*
X152205000Y-60275000D01*
X152205000Y-60295000D01*
X153454569Y-60295000D01*
X153515854Y-60170221D01*
X153478671Y-60036950D01*
X153409065Y-59896330D01*
X153313363Y-59771992D01*
X153261164Y-59726351D01*
X154134700Y-59726351D01*
X154134700Y-59893649D01*
X154167339Y-60057732D01*
X154231360Y-60212294D01*
X154324306Y-60351397D01*
X154442603Y-60469694D01*
X154581706Y-60562640D01*
X154736268Y-60626661D01*
X154900351Y-60659300D01*
X155067649Y-60659300D01*
X155231732Y-60626661D01*
X155370249Y-60569286D01*
X155376124Y-60583469D01*
X155453168Y-60698774D01*
X155551226Y-60796832D01*
X155666531Y-60873876D01*
X155794651Y-60926945D01*
X155930662Y-60954000D01*
X156069338Y-60954000D01*
X156205349Y-60926945D01*
X156333469Y-60873876D01*
X156448774Y-60796832D01*
X156546832Y-60698774D01*
X156623876Y-60583469D01*
X156629751Y-60569286D01*
X156768268Y-60626661D01*
X156932351Y-60659300D01*
X157099649Y-60659300D01*
X157263732Y-60626661D01*
X157374935Y-60580600D01*
X157376124Y-60583469D01*
X157453168Y-60698774D01*
X157551226Y-60796832D01*
X157666531Y-60873876D01*
X157794651Y-60926945D01*
X157930662Y-60954000D01*
X158069338Y-60954000D01*
X158186662Y-60930662D01*
X159796000Y-60930662D01*
X159796000Y-61069338D01*
X159823055Y-61205349D01*
X159876124Y-61333469D01*
X159953168Y-61448774D01*
X160051226Y-61546832D01*
X160166531Y-61623876D01*
X160294651Y-61676945D01*
X160430662Y-61704000D01*
X160569338Y-61704000D01*
X160705349Y-61676945D01*
X160833469Y-61623876D01*
X160948774Y-61546832D01*
X161046832Y-61448774D01*
X161123876Y-61333469D01*
X161176945Y-61205349D01*
X161204000Y-61069338D01*
X161204000Y-60930662D01*
X161176945Y-60794651D01*
X161123876Y-60666531D01*
X161046832Y-60551226D01*
X160948774Y-60453168D01*
X160833469Y-60376124D01*
X160705349Y-60323055D01*
X160569338Y-60296000D01*
X160430662Y-60296000D01*
X160294651Y-60323055D01*
X160166531Y-60376124D01*
X160051226Y-60453168D01*
X159953168Y-60551226D01*
X159876124Y-60666531D01*
X159823055Y-60794651D01*
X159796000Y-60930662D01*
X158186662Y-60930662D01*
X158205349Y-60926945D01*
X158333469Y-60873876D01*
X158448774Y-60796832D01*
X158546832Y-60698774D01*
X158623876Y-60583469D01*
X158676945Y-60455349D01*
X158704000Y-60319338D01*
X158704000Y-60180662D01*
X158676945Y-60044651D01*
X158623876Y-59916531D01*
X158546832Y-59801226D01*
X158448774Y-59703168D01*
X158333469Y-59626124D01*
X158205349Y-59573055D01*
X158069338Y-59546000D01*
X157930662Y-59546000D01*
X157833278Y-59565371D01*
X157832661Y-59562268D01*
X157768640Y-59407706D01*
X157675694Y-59268603D01*
X157557397Y-59150306D01*
X157418294Y-59057360D01*
X157263732Y-58993339D01*
X157188748Y-58978423D01*
X157258876Y-58873469D01*
X157311945Y-58745349D01*
X157339000Y-58609338D01*
X157339000Y-58470662D01*
X157311945Y-58334651D01*
X157258876Y-58206531D01*
X157181832Y-58091226D01*
X157083774Y-57993168D01*
X156990227Y-57930662D01*
X161296000Y-57930662D01*
X161296000Y-58069338D01*
X161323055Y-58205349D01*
X161376124Y-58333469D01*
X161453168Y-58448774D01*
X161551226Y-58546832D01*
X161666531Y-58623876D01*
X161794651Y-58676945D01*
X161930662Y-58704000D01*
X162069338Y-58704000D01*
X162205349Y-58676945D01*
X162333469Y-58623876D01*
X162448774Y-58546832D01*
X162546832Y-58448774D01*
X162558933Y-58430662D01*
X168796000Y-58430662D01*
X168796000Y-58569338D01*
X168823055Y-58705349D01*
X168876124Y-58833469D01*
X168953168Y-58948774D01*
X169051226Y-59046832D01*
X169166531Y-59123876D01*
X169294651Y-59176945D01*
X169430662Y-59204000D01*
X169569338Y-59204000D01*
X169705349Y-59176945D01*
X169833469Y-59123876D01*
X169948774Y-59046832D01*
X170046832Y-58948774D01*
X170123876Y-58833469D01*
X170176945Y-58705349D01*
X170204000Y-58569338D01*
X170204000Y-58430662D01*
X170176945Y-58294651D01*
X170123876Y-58166531D01*
X170046832Y-58051226D01*
X169948774Y-57953168D01*
X169915092Y-57930662D01*
X173296000Y-57930662D01*
X173296000Y-58069338D01*
X173323055Y-58205349D01*
X173376124Y-58333469D01*
X173453168Y-58448774D01*
X173551226Y-58546832D01*
X173666531Y-58623876D01*
X173794651Y-58676945D01*
X173930662Y-58704000D01*
X174069338Y-58704000D01*
X174205349Y-58676945D01*
X174333469Y-58623876D01*
X174448774Y-58546832D01*
X174546832Y-58448774D01*
X174623876Y-58333469D01*
X174676945Y-58205349D01*
X174704000Y-58069338D01*
X174704000Y-57930662D01*
X183296000Y-57930662D01*
X183296000Y-58069338D01*
X183323055Y-58205349D01*
X183376124Y-58333469D01*
X183453168Y-58448774D01*
X183551226Y-58546832D01*
X183666531Y-58623876D01*
X183794651Y-58676945D01*
X183930662Y-58704000D01*
X184069338Y-58704000D01*
X184205349Y-58676945D01*
X184333469Y-58623876D01*
X184448774Y-58546832D01*
X184546832Y-58448774D01*
X184623876Y-58333469D01*
X184676945Y-58205349D01*
X184704000Y-58069338D01*
X184704000Y-57930662D01*
X184676945Y-57794651D01*
X184623876Y-57666531D01*
X184546832Y-57551226D01*
X184448774Y-57453168D01*
X184333469Y-57376124D01*
X184205349Y-57323055D01*
X184069338Y-57296000D01*
X183930662Y-57296000D01*
X183794651Y-57323055D01*
X183666531Y-57376124D01*
X183551226Y-57453168D01*
X183453168Y-57551226D01*
X183376124Y-57666531D01*
X183323055Y-57794651D01*
X183296000Y-57930662D01*
X174704000Y-57930662D01*
X174676945Y-57794651D01*
X174623876Y-57666531D01*
X174546832Y-57551226D01*
X174448774Y-57453168D01*
X174333469Y-57376124D01*
X174205349Y-57323055D01*
X174069338Y-57296000D01*
X173930662Y-57296000D01*
X173794651Y-57323055D01*
X173666531Y-57376124D01*
X173551226Y-57453168D01*
X173453168Y-57551226D01*
X173376124Y-57666531D01*
X173323055Y-57794651D01*
X173296000Y-57930662D01*
X169915092Y-57930662D01*
X169833469Y-57876124D01*
X169705349Y-57823055D01*
X169569338Y-57796000D01*
X169430662Y-57796000D01*
X169294651Y-57823055D01*
X169166531Y-57876124D01*
X169051226Y-57953168D01*
X168953168Y-58051226D01*
X168876124Y-58166531D01*
X168823055Y-58294651D01*
X168796000Y-58430662D01*
X162558933Y-58430662D01*
X162623876Y-58333469D01*
X162676945Y-58205349D01*
X162704000Y-58069338D01*
X162704000Y-57930662D01*
X162676945Y-57794651D01*
X162623876Y-57666531D01*
X162546832Y-57551226D01*
X162448774Y-57453168D01*
X162333469Y-57376124D01*
X162205349Y-57323055D01*
X162069338Y-57296000D01*
X161930662Y-57296000D01*
X161794651Y-57323055D01*
X161666531Y-57376124D01*
X161551226Y-57453168D01*
X161453168Y-57551226D01*
X161376124Y-57666531D01*
X161323055Y-57794651D01*
X161296000Y-57930662D01*
X156990227Y-57930662D01*
X156968469Y-57916124D01*
X156840349Y-57863055D01*
X156704338Y-57836000D01*
X156565662Y-57836000D01*
X156429651Y-57863055D01*
X156301531Y-57916124D01*
X156186226Y-57993168D01*
X156088168Y-58091226D01*
X156011124Y-58206531D01*
X155958055Y-58334651D01*
X155931000Y-58470662D01*
X155931000Y-58609338D01*
X155958055Y-58745349D01*
X156011124Y-58873469D01*
X156088168Y-58988774D01*
X156186226Y-59086832D01*
X156301531Y-59163876D01*
X156414316Y-59210593D01*
X156356306Y-59268603D01*
X156263360Y-59407706D01*
X156199339Y-59562268D01*
X156197504Y-59571494D01*
X156069338Y-59546000D01*
X155930662Y-59546000D01*
X155802496Y-59571494D01*
X155800661Y-59562268D01*
X155736640Y-59407706D01*
X155643694Y-59268603D01*
X155525397Y-59150306D01*
X155386294Y-59057360D01*
X155231732Y-58993339D01*
X155067649Y-58960700D01*
X154900351Y-58960700D01*
X154736268Y-58993339D01*
X154581706Y-59057360D01*
X154442603Y-59150306D01*
X154324306Y-59268603D01*
X154231360Y-59407706D01*
X154167339Y-59562268D01*
X154134700Y-59726351D01*
X153261164Y-59726351D01*
X153195243Y-59668713D01*
X153059244Y-59590463D01*
X152910592Y-59540249D01*
X152755000Y-59520000D01*
X151941752Y-59520000D01*
X152059057Y-59457299D01*
X152162448Y-59372448D01*
X152247299Y-59269057D01*
X152310349Y-59151099D01*
X152349175Y-59023107D01*
X152362285Y-58890000D01*
X152349175Y-58756893D01*
X152310349Y-58628901D01*
X152247299Y-58510943D01*
X152162448Y-58407552D01*
X152105513Y-58360826D01*
X152123792Y-58333469D01*
X152176861Y-58205349D01*
X152203916Y-58069338D01*
X152203916Y-57930662D01*
X153296000Y-57930662D01*
X153296000Y-58069338D01*
X153323055Y-58205349D01*
X153376124Y-58333469D01*
X153453168Y-58448774D01*
X153551226Y-58546832D01*
X153666531Y-58623876D01*
X153794651Y-58676945D01*
X153930662Y-58704000D01*
X154069338Y-58704000D01*
X154205349Y-58676945D01*
X154333469Y-58623876D01*
X154448774Y-58546832D01*
X154546832Y-58448774D01*
X154623876Y-58333469D01*
X154676945Y-58205349D01*
X154704000Y-58069338D01*
X154704000Y-57930662D01*
X154676945Y-57794651D01*
X154623876Y-57666531D01*
X154546832Y-57551226D01*
X154448774Y-57453168D01*
X154333469Y-57376124D01*
X154205349Y-57323055D01*
X154069338Y-57296000D01*
X153930662Y-57296000D01*
X153794651Y-57323055D01*
X153666531Y-57376124D01*
X153551226Y-57453168D01*
X153453168Y-57551226D01*
X153376124Y-57666531D01*
X153323055Y-57794651D01*
X153296000Y-57930662D01*
X152203916Y-57930662D01*
X152176861Y-57794651D01*
X152123792Y-57666531D01*
X152046748Y-57551226D01*
X151995564Y-57500042D01*
X152046832Y-57448774D01*
X152123876Y-57333469D01*
X152176945Y-57205349D01*
X152204000Y-57069338D01*
X152204000Y-56930662D01*
X152176945Y-56794651D01*
X152123876Y-56666531D01*
X152046832Y-56551226D01*
X151948774Y-56453168D01*
X151833469Y-56376124D01*
X151705349Y-56323055D01*
X151569338Y-56296000D01*
X151430662Y-56296000D01*
X151294651Y-56323055D01*
X151166531Y-56376124D01*
X151051226Y-56453168D01*
X150953168Y-56551226D01*
X150876124Y-56666531D01*
X150823055Y-56794651D01*
X150796000Y-56930662D01*
X150796000Y-57069338D01*
X150823055Y-57205349D01*
X150876124Y-57333469D01*
X150953168Y-57448774D01*
X151004352Y-57499958D01*
X150953084Y-57551226D01*
X150876040Y-57666531D01*
X150822971Y-57794651D01*
X150795916Y-57930662D01*
X145879000Y-57930662D01*
X145879000Y-53930662D01*
X150796000Y-53930662D01*
X150796000Y-54069338D01*
X150823055Y-54205349D01*
X150876124Y-54333469D01*
X150953168Y-54448774D01*
X151004394Y-54500000D01*
X150953168Y-54551226D01*
X150876124Y-54666531D01*
X150823055Y-54794651D01*
X150796000Y-54930662D01*
X150796000Y-55069338D01*
X150823055Y-55205349D01*
X150876124Y-55333469D01*
X150953168Y-55448774D01*
X151051226Y-55546832D01*
X151166531Y-55623876D01*
X151294651Y-55676945D01*
X151430662Y-55704000D01*
X151569338Y-55704000D01*
X151705349Y-55676945D01*
X151833469Y-55623876D01*
X151948774Y-55546832D01*
X152046832Y-55448774D01*
X152123876Y-55333469D01*
X152176945Y-55205349D01*
X152204000Y-55069338D01*
X152204000Y-54930662D01*
X152176945Y-54794651D01*
X152123876Y-54666531D01*
X152046832Y-54551226D01*
X151995606Y-54500000D01*
X152046832Y-54448774D01*
X152123876Y-54333469D01*
X152176945Y-54205349D01*
X152204000Y-54069338D01*
X152204000Y-53930662D01*
X153296000Y-53930662D01*
X153296000Y-54069338D01*
X153323055Y-54205349D01*
X153376124Y-54333469D01*
X153453168Y-54448774D01*
X153551226Y-54546832D01*
X153666531Y-54623876D01*
X153794651Y-54676945D01*
X153930662Y-54704000D01*
X154069338Y-54704000D01*
X154205349Y-54676945D01*
X154333469Y-54623876D01*
X154448774Y-54546832D01*
X154546832Y-54448774D01*
X154623876Y-54333469D01*
X154676945Y-54205349D01*
X154704000Y-54069338D01*
X154704000Y-53930662D01*
X154676945Y-53794651D01*
X154623876Y-53666531D01*
X154546832Y-53551226D01*
X154448774Y-53453168D01*
X154355227Y-53390662D01*
X154661000Y-53390662D01*
X154661000Y-53529338D01*
X154688055Y-53665349D01*
X154741124Y-53793469D01*
X154818168Y-53908774D01*
X154916226Y-54006832D01*
X155031531Y-54083876D01*
X155159651Y-54136945D01*
X155295662Y-54164000D01*
X155434338Y-54164000D01*
X155570349Y-54136945D01*
X155698469Y-54083876D01*
X155813774Y-54006832D01*
X155911832Y-53908774D01*
X155988876Y-53793469D01*
X156000000Y-53766613D01*
X156011124Y-53793469D01*
X156088168Y-53908774D01*
X156186226Y-54006832D01*
X156301531Y-54083876D01*
X156328387Y-54095000D01*
X156301531Y-54106124D01*
X156186226Y-54183168D01*
X156088168Y-54281226D01*
X156011124Y-54396531D01*
X155958055Y-54524651D01*
X155931000Y-54660662D01*
X155931000Y-54799338D01*
X155958055Y-54935349D01*
X156011124Y-55063469D01*
X156088168Y-55178774D01*
X156186226Y-55276832D01*
X156301531Y-55353876D01*
X156328387Y-55365000D01*
X156301531Y-55376124D01*
X156186226Y-55453168D01*
X156088168Y-55551226D01*
X156011124Y-55666531D01*
X155958055Y-55794651D01*
X155931000Y-55930662D01*
X155931000Y-56069338D01*
X155958055Y-56205349D01*
X156011124Y-56333469D01*
X156088168Y-56448774D01*
X156186226Y-56546832D01*
X156301531Y-56623876D01*
X156429651Y-56676945D01*
X156565662Y-56704000D01*
X156704338Y-56704000D01*
X156840349Y-56676945D01*
X156968469Y-56623876D01*
X157083774Y-56546832D01*
X157181832Y-56448774D01*
X157258876Y-56333469D01*
X157311945Y-56205349D01*
X157339000Y-56069338D01*
X157339000Y-55930662D01*
X157311945Y-55794651D01*
X157258876Y-55666531D01*
X157181832Y-55551226D01*
X157083774Y-55453168D01*
X157050092Y-55430662D01*
X157296000Y-55430662D01*
X157296000Y-55569338D01*
X157323055Y-55705349D01*
X157376124Y-55833469D01*
X157453168Y-55948774D01*
X157504394Y-56000000D01*
X157453168Y-56051226D01*
X157376124Y-56166531D01*
X157323055Y-56294651D01*
X157296000Y-56430662D01*
X157296000Y-56569338D01*
X157323055Y-56705349D01*
X157376124Y-56833469D01*
X157453168Y-56948774D01*
X157551226Y-57046832D01*
X157666531Y-57123876D01*
X157794651Y-57176945D01*
X157930662Y-57204000D01*
X158069338Y-57204000D01*
X158205349Y-57176945D01*
X158333469Y-57123876D01*
X158448774Y-57046832D01*
X158546832Y-56948774D01*
X158558933Y-56930662D01*
X165296000Y-56930662D01*
X165296000Y-57069338D01*
X165323055Y-57205349D01*
X165376124Y-57333469D01*
X165453168Y-57448774D01*
X165551226Y-57546832D01*
X165666531Y-57623876D01*
X165794651Y-57676945D01*
X165930662Y-57704000D01*
X166069338Y-57704000D01*
X166205349Y-57676945D01*
X166333469Y-57623876D01*
X166448774Y-57546832D01*
X166546832Y-57448774D01*
X166623876Y-57333469D01*
X166676945Y-57205349D01*
X166704000Y-57069338D01*
X166704000Y-56930662D01*
X166676945Y-56794651D01*
X166623876Y-56666531D01*
X166546832Y-56551226D01*
X166448774Y-56453168D01*
X166333469Y-56376124D01*
X166205349Y-56323055D01*
X166069338Y-56296000D01*
X165930662Y-56296000D01*
X165794651Y-56323055D01*
X165666531Y-56376124D01*
X165551226Y-56453168D01*
X165453168Y-56551226D01*
X165376124Y-56666531D01*
X165323055Y-56794651D01*
X165296000Y-56930662D01*
X158558933Y-56930662D01*
X158623876Y-56833469D01*
X158676945Y-56705349D01*
X158704000Y-56569338D01*
X158704000Y-56430662D01*
X158676945Y-56294651D01*
X158623876Y-56166531D01*
X158546832Y-56051226D01*
X158495606Y-56000000D01*
X158546832Y-55948774D01*
X158558933Y-55930662D01*
X161296000Y-55930662D01*
X161296000Y-56069338D01*
X161323055Y-56205349D01*
X161376124Y-56333469D01*
X161453168Y-56448774D01*
X161551226Y-56546832D01*
X161666531Y-56623876D01*
X161794651Y-56676945D01*
X161930662Y-56704000D01*
X162069338Y-56704000D01*
X162205349Y-56676945D01*
X162333469Y-56623876D01*
X162448774Y-56546832D01*
X162546832Y-56448774D01*
X162623876Y-56333469D01*
X162676945Y-56205349D01*
X162704000Y-56069338D01*
X162704000Y-55930662D01*
X162676945Y-55794651D01*
X162623876Y-55666531D01*
X162546832Y-55551226D01*
X162448774Y-55453168D01*
X162333469Y-55376124D01*
X162205349Y-55323055D01*
X162069338Y-55296000D01*
X161930662Y-55296000D01*
X161794651Y-55323055D01*
X161666531Y-55376124D01*
X161551226Y-55453168D01*
X161453168Y-55551226D01*
X161376124Y-55666531D01*
X161323055Y-55794651D01*
X161296000Y-55930662D01*
X158558933Y-55930662D01*
X158623876Y-55833469D01*
X158676945Y-55705349D01*
X158704000Y-55569338D01*
X158704000Y-55430662D01*
X158676945Y-55294651D01*
X158623876Y-55166531D01*
X158546832Y-55051226D01*
X158448774Y-54953168D01*
X158415092Y-54930662D01*
X165296000Y-54930662D01*
X165296000Y-55069338D01*
X165323055Y-55205349D01*
X165376124Y-55333469D01*
X165453168Y-55448774D01*
X165551226Y-55546832D01*
X165666531Y-55623876D01*
X165794651Y-55676945D01*
X165930662Y-55704000D01*
X166069338Y-55704000D01*
X166205349Y-55676945D01*
X166333469Y-55623876D01*
X166448774Y-55546832D01*
X166546832Y-55448774D01*
X166623876Y-55333469D01*
X166676945Y-55205349D01*
X166704000Y-55069338D01*
X166704000Y-54930662D01*
X172796000Y-54930662D01*
X172796000Y-55069338D01*
X172823055Y-55205349D01*
X172876124Y-55333469D01*
X172953168Y-55448774D01*
X173051226Y-55546832D01*
X173166531Y-55623876D01*
X173294651Y-55676945D01*
X173430662Y-55704000D01*
X173569338Y-55704000D01*
X173705349Y-55676945D01*
X173833469Y-55623876D01*
X173948774Y-55546832D01*
X174046832Y-55448774D01*
X174123876Y-55333469D01*
X174176945Y-55205349D01*
X174204000Y-55069338D01*
X174204000Y-54930662D01*
X174176945Y-54794651D01*
X174134063Y-54691125D01*
X174205349Y-54676945D01*
X174333469Y-54623876D01*
X174448774Y-54546832D01*
X174546832Y-54448774D01*
X174623876Y-54333469D01*
X174676945Y-54205349D01*
X174704000Y-54069338D01*
X174704000Y-53930662D01*
X174676945Y-53794651D01*
X174623876Y-53666531D01*
X174546832Y-53551226D01*
X174448774Y-53453168D01*
X174333469Y-53376124D01*
X174205349Y-53323055D01*
X174069338Y-53296000D01*
X173930662Y-53296000D01*
X173794651Y-53323055D01*
X173666531Y-53376124D01*
X173551226Y-53453168D01*
X173453168Y-53551226D01*
X173376124Y-53666531D01*
X173323055Y-53794651D01*
X173296000Y-53930662D01*
X173296000Y-54069338D01*
X173323055Y-54205349D01*
X173365937Y-54308875D01*
X173294651Y-54323055D01*
X173166531Y-54376124D01*
X173051226Y-54453168D01*
X172953168Y-54551226D01*
X172876124Y-54666531D01*
X172823055Y-54794651D01*
X172796000Y-54930662D01*
X166704000Y-54930662D01*
X166676945Y-54794651D01*
X166623876Y-54666531D01*
X166546832Y-54551226D01*
X166448774Y-54453168D01*
X166333469Y-54376124D01*
X166205349Y-54323055D01*
X166069338Y-54296000D01*
X165930662Y-54296000D01*
X165794651Y-54323055D01*
X165666531Y-54376124D01*
X165551226Y-54453168D01*
X165453168Y-54551226D01*
X165376124Y-54666531D01*
X165323055Y-54794651D01*
X165296000Y-54930662D01*
X158415092Y-54930662D01*
X158333469Y-54876124D01*
X158205349Y-54823055D01*
X158069338Y-54796000D01*
X157930662Y-54796000D01*
X157794651Y-54823055D01*
X157666531Y-54876124D01*
X157551226Y-54953168D01*
X157453168Y-55051226D01*
X157376124Y-55166531D01*
X157323055Y-55294651D01*
X157296000Y-55430662D01*
X157050092Y-55430662D01*
X156968469Y-55376124D01*
X156941613Y-55365000D01*
X156968469Y-55353876D01*
X157083774Y-55276832D01*
X157181832Y-55178774D01*
X157258876Y-55063469D01*
X157311945Y-54935349D01*
X157339000Y-54799338D01*
X157339000Y-54660662D01*
X157311945Y-54524651D01*
X157258876Y-54396531D01*
X157181832Y-54281226D01*
X157083774Y-54183168D01*
X156968469Y-54106124D01*
X156941613Y-54095000D01*
X156968469Y-54083876D01*
X157083774Y-54006832D01*
X157181832Y-53908774D01*
X157258876Y-53793469D01*
X157270295Y-53765901D01*
X157282751Y-53778357D01*
X157398056Y-53855401D01*
X157526176Y-53908470D01*
X157662187Y-53935525D01*
X157800863Y-53935525D01*
X157936874Y-53908470D01*
X158064994Y-53855401D01*
X158180299Y-53778357D01*
X158278357Y-53680299D01*
X158355401Y-53564994D01*
X158408470Y-53436874D01*
X158435525Y-53300863D01*
X158435525Y-53162187D01*
X158408470Y-53026176D01*
X158368907Y-52930662D01*
X163296000Y-52930662D01*
X163296000Y-53069338D01*
X163323055Y-53205349D01*
X163376124Y-53333469D01*
X163453168Y-53448774D01*
X163551226Y-53546832D01*
X163666531Y-53623876D01*
X163794651Y-53676945D01*
X163930662Y-53704000D01*
X164069338Y-53704000D01*
X164205349Y-53676945D01*
X164333469Y-53623876D01*
X164448774Y-53546832D01*
X164546832Y-53448774D01*
X164623876Y-53333469D01*
X164676945Y-53205349D01*
X164704000Y-53069338D01*
X164704000Y-52930662D01*
X164676945Y-52794651D01*
X164623876Y-52666531D01*
X164546832Y-52551226D01*
X164448774Y-52453168D01*
X164415092Y-52430662D01*
X178796000Y-52430662D01*
X178796000Y-52569338D01*
X178823055Y-52705349D01*
X178876124Y-52833469D01*
X178953168Y-52948774D01*
X179051226Y-53046832D01*
X179166531Y-53123876D01*
X179294651Y-53176945D01*
X179430662Y-53204000D01*
X179569338Y-53204000D01*
X179705349Y-53176945D01*
X179833469Y-53123876D01*
X179948774Y-53046832D01*
X180046832Y-52948774D01*
X180123876Y-52833469D01*
X180176945Y-52705349D01*
X180204000Y-52569338D01*
X180204000Y-52430662D01*
X180176945Y-52294651D01*
X180123876Y-52166531D01*
X180046832Y-52051226D01*
X179948774Y-51953168D01*
X179833469Y-51876124D01*
X179705349Y-51823055D01*
X179569338Y-51796000D01*
X179430662Y-51796000D01*
X179294651Y-51823055D01*
X179166531Y-51876124D01*
X179051226Y-51953168D01*
X178953168Y-52051226D01*
X178876124Y-52166531D01*
X178823055Y-52294651D01*
X178796000Y-52430662D01*
X164415092Y-52430662D01*
X164333469Y-52376124D01*
X164205349Y-52323055D01*
X164069338Y-52296000D01*
X163930662Y-52296000D01*
X163794651Y-52323055D01*
X163666531Y-52376124D01*
X163551226Y-52453168D01*
X163453168Y-52551226D01*
X163376124Y-52666531D01*
X163323055Y-52794651D01*
X163296000Y-52930662D01*
X158368907Y-52930662D01*
X158355401Y-52898056D01*
X158278357Y-52782751D01*
X158180299Y-52684693D01*
X158064994Y-52607649D01*
X157936874Y-52554580D01*
X157800863Y-52527525D01*
X157662187Y-52527525D01*
X157526176Y-52554580D01*
X157398056Y-52607649D01*
X157282751Y-52684693D01*
X157184693Y-52782751D01*
X157107649Y-52898056D01*
X157096230Y-52925624D01*
X157083774Y-52913168D01*
X156968469Y-52836124D01*
X156840349Y-52783055D01*
X156704338Y-52756000D01*
X156635091Y-52756000D01*
X156659694Y-52731397D01*
X156752640Y-52592294D01*
X156816661Y-52437732D01*
X156849300Y-52273649D01*
X156849300Y-52106351D01*
X156816661Y-51942268D01*
X156752640Y-51787706D01*
X156659694Y-51648603D01*
X156541397Y-51530306D01*
X156402294Y-51437360D01*
X156247732Y-51373339D01*
X156083649Y-51340700D01*
X155916351Y-51340700D01*
X155752268Y-51373339D01*
X155597706Y-51437360D01*
X155458603Y-51530306D01*
X155340306Y-51648603D01*
X155247360Y-51787706D01*
X155183339Y-51942268D01*
X155150700Y-52106351D01*
X155150700Y-52273649D01*
X155183339Y-52437732D01*
X155247360Y-52592294D01*
X155340306Y-52731397D01*
X155364909Y-52756000D01*
X155295662Y-52756000D01*
X155159651Y-52783055D01*
X155031531Y-52836124D01*
X154916226Y-52913168D01*
X154818168Y-53011226D01*
X154741124Y-53126531D01*
X154688055Y-53254651D01*
X154661000Y-53390662D01*
X154355227Y-53390662D01*
X154333469Y-53376124D01*
X154205349Y-53323055D01*
X154069338Y-53296000D01*
X153930662Y-53296000D01*
X153794651Y-53323055D01*
X153666531Y-53376124D01*
X153551226Y-53453168D01*
X153453168Y-53551226D01*
X153376124Y-53666531D01*
X153323055Y-53794651D01*
X153296000Y-53930662D01*
X152204000Y-53930662D01*
X152176945Y-53794651D01*
X152123876Y-53666531D01*
X152105567Y-53639129D01*
X152162448Y-53592448D01*
X152247299Y-53489057D01*
X152310349Y-53371099D01*
X152349175Y-53243107D01*
X152362285Y-53110000D01*
X152349175Y-52976893D01*
X152310349Y-52848901D01*
X152247299Y-52730943D01*
X152162448Y-52627552D01*
X152059057Y-52542701D01*
X151941752Y-52480000D01*
X152155000Y-52480000D01*
X152155000Y-51705000D01*
X152205000Y-51705000D01*
X152205000Y-52480000D01*
X152755000Y-52480000D01*
X152910592Y-52459751D01*
X153059244Y-52409537D01*
X153195243Y-52331287D01*
X153313363Y-52228008D01*
X153409065Y-52103670D01*
X153478671Y-51963050D01*
X153515854Y-51829779D01*
X153454569Y-51705000D01*
X152205000Y-51705000D01*
X152155000Y-51705000D01*
X150905431Y-51705000D01*
X150844146Y-51829779D01*
X150881329Y-51963050D01*
X150950935Y-52103670D01*
X151046637Y-52228008D01*
X151164757Y-52331287D01*
X151300756Y-52409537D01*
X151449408Y-52459751D01*
X151473966Y-52462947D01*
X151418901Y-52479651D01*
X151300943Y-52542701D01*
X151197552Y-52627552D01*
X151112701Y-52730943D01*
X151049651Y-52848901D01*
X151010825Y-52976893D01*
X150997715Y-53110000D01*
X151010825Y-53243107D01*
X151049651Y-53371099D01*
X151082388Y-53432346D01*
X151051226Y-53453168D01*
X150953168Y-53551226D01*
X150876124Y-53666531D01*
X150823055Y-53794651D01*
X150796000Y-53930662D01*
X145879000Y-53930662D01*
X145879000Y-51829779D01*
X146814146Y-51829779D01*
X146851329Y-51963050D01*
X146920935Y-52103670D01*
X147016637Y-52228008D01*
X147134757Y-52331287D01*
X147270756Y-52409537D01*
X147419408Y-52459751D01*
X147575000Y-52480000D01*
X147975000Y-52480000D01*
X147975000Y-51705000D01*
X148025000Y-51705000D01*
X148025000Y-52480000D01*
X148425000Y-52480000D01*
X148580592Y-52459751D01*
X148729244Y-52409537D01*
X148865243Y-52331287D01*
X148983363Y-52228008D01*
X149079065Y-52103670D01*
X149148671Y-51963050D01*
X149185854Y-51829779D01*
X149124569Y-51705000D01*
X148025000Y-51705000D01*
X147975000Y-51705000D01*
X146875431Y-51705000D01*
X146814146Y-51829779D01*
X145879000Y-51829779D01*
X145879000Y-51337773D01*
X145953168Y-51448774D01*
X146051226Y-51546832D01*
X146166531Y-51623876D01*
X146294651Y-51676945D01*
X146430662Y-51704000D01*
X146569338Y-51704000D01*
X146705349Y-51676945D01*
X146833469Y-51623876D01*
X146853553Y-51610456D01*
X146875431Y-51655000D01*
X147975000Y-51655000D01*
X147975000Y-51635000D01*
X148025000Y-51635000D01*
X148025000Y-51655000D01*
X149124569Y-51655000D01*
X149185854Y-51530221D01*
X149148671Y-51396950D01*
X149079065Y-51256330D01*
X148983363Y-51131992D01*
X148865243Y-51028713D01*
X148729244Y-50950463D01*
X148580592Y-50900249D01*
X148425000Y-50880000D01*
X147575000Y-50880000D01*
X147419408Y-50900249D01*
X147270756Y-50950463D01*
X147204000Y-50988873D01*
X147204000Y-50930662D01*
X147184109Y-50830662D01*
X149296000Y-50830662D01*
X149296000Y-50969338D01*
X149323055Y-51105349D01*
X149376124Y-51233469D01*
X149453168Y-51348774D01*
X149551226Y-51446832D01*
X149666531Y-51523876D01*
X149794651Y-51576945D01*
X149930662Y-51604000D01*
X150069338Y-51604000D01*
X150205349Y-51576945D01*
X150318150Y-51530221D01*
X150844146Y-51530221D01*
X150905431Y-51655000D01*
X152155000Y-51655000D01*
X152155000Y-51635000D01*
X152205000Y-51635000D01*
X152205000Y-51655000D01*
X153454569Y-51655000D01*
X153515854Y-51530221D01*
X153478671Y-51396950D01*
X153409065Y-51256330D01*
X153313363Y-51131992D01*
X153195243Y-51028713D01*
X153059244Y-50950463D01*
X153000626Y-50930662D01*
X176796000Y-50930662D01*
X176796000Y-51069338D01*
X176823055Y-51205349D01*
X176876124Y-51333469D01*
X176953168Y-51448774D01*
X177051226Y-51546832D01*
X177166531Y-51623876D01*
X177294651Y-51676945D01*
X177430662Y-51704000D01*
X177569338Y-51704000D01*
X177705349Y-51676945D01*
X177833469Y-51623876D01*
X177948774Y-51546832D01*
X178046832Y-51448774D01*
X178123876Y-51333469D01*
X178176945Y-51205349D01*
X178204000Y-51069338D01*
X178204000Y-50930662D01*
X178184109Y-50830662D01*
X180296000Y-50830662D01*
X180296000Y-50969338D01*
X180323055Y-51105349D01*
X180376124Y-51233469D01*
X180453168Y-51348774D01*
X180551226Y-51446832D01*
X180666531Y-51523876D01*
X180794651Y-51576945D01*
X180930662Y-51604000D01*
X181069338Y-51604000D01*
X181205349Y-51576945D01*
X181333469Y-51523876D01*
X181448774Y-51446832D01*
X181546832Y-51348774D01*
X181623876Y-51233469D01*
X181676945Y-51105349D01*
X181704000Y-50969338D01*
X181704000Y-50830662D01*
X181676945Y-50694651D01*
X181623876Y-50566531D01*
X181546832Y-50451226D01*
X181448774Y-50353168D01*
X181333469Y-50276124D01*
X181205349Y-50223055D01*
X181069338Y-50196000D01*
X180930662Y-50196000D01*
X180794651Y-50223055D01*
X180666531Y-50276124D01*
X180551226Y-50353168D01*
X180453168Y-50451226D01*
X180376124Y-50566531D01*
X180323055Y-50694651D01*
X180296000Y-50830662D01*
X178184109Y-50830662D01*
X178176945Y-50794651D01*
X178123876Y-50666531D01*
X178046832Y-50551226D01*
X177948774Y-50453168D01*
X177833469Y-50376124D01*
X177705349Y-50323055D01*
X177569338Y-50296000D01*
X177430662Y-50296000D01*
X177294651Y-50323055D01*
X177166531Y-50376124D01*
X177051226Y-50453168D01*
X176953168Y-50551226D01*
X176876124Y-50666531D01*
X176823055Y-50794651D01*
X176796000Y-50930662D01*
X153000626Y-50930662D01*
X152910592Y-50900249D01*
X152755000Y-50880000D01*
X151605000Y-50880000D01*
X151449408Y-50900249D01*
X151300756Y-50950463D01*
X151164757Y-51028713D01*
X151046637Y-51131992D01*
X150950935Y-51256330D01*
X150881329Y-51396950D01*
X150844146Y-51530221D01*
X150318150Y-51530221D01*
X150333469Y-51523876D01*
X150448774Y-51446832D01*
X150546832Y-51348774D01*
X150623876Y-51233469D01*
X150676945Y-51105349D01*
X150704000Y-50969338D01*
X150704000Y-50830662D01*
X150676945Y-50694651D01*
X150623876Y-50566531D01*
X150546832Y-50451226D01*
X150448774Y-50353168D01*
X150333469Y-50276124D01*
X150205349Y-50223055D01*
X150069338Y-50196000D01*
X149930662Y-50196000D01*
X149794651Y-50223055D01*
X149666531Y-50276124D01*
X149551226Y-50353168D01*
X149453168Y-50451226D01*
X149376124Y-50566531D01*
X149323055Y-50694651D01*
X149296000Y-50830662D01*
X147184109Y-50830662D01*
X147176945Y-50794651D01*
X147123876Y-50666531D01*
X147046832Y-50551226D01*
X146948774Y-50453168D01*
X146833469Y-50376124D01*
X146705349Y-50323055D01*
X146569338Y-50296000D01*
X146430662Y-50296000D01*
X146294651Y-50323055D01*
X146166531Y-50376124D01*
X146051226Y-50453168D01*
X145953168Y-50551226D01*
X145879000Y-50662227D01*
X145879000Y-50518535D01*
X145911655Y-50185499D01*
X145988594Y-49930662D01*
X155796000Y-49930662D01*
X155796000Y-50069338D01*
X155823055Y-50205349D01*
X155876124Y-50333469D01*
X155953168Y-50448774D01*
X156051226Y-50546832D01*
X156166531Y-50623876D01*
X156294651Y-50676945D01*
X156430662Y-50704000D01*
X156569338Y-50704000D01*
X156705349Y-50676945D01*
X156833469Y-50623876D01*
X156948774Y-50546832D01*
X157046832Y-50448774D01*
X157123876Y-50333469D01*
X157176945Y-50205349D01*
X157204000Y-50069338D01*
X157204000Y-49930662D01*
X159796000Y-49930662D01*
X159796000Y-50069338D01*
X159823055Y-50205349D01*
X159876124Y-50333469D01*
X159953168Y-50448774D01*
X160051226Y-50546832D01*
X160166531Y-50623876D01*
X160294651Y-50676945D01*
X160430662Y-50704000D01*
X160569338Y-50704000D01*
X160705349Y-50676945D01*
X160833469Y-50623876D01*
X160948774Y-50546832D01*
X161046832Y-50448774D01*
X161123876Y-50333469D01*
X161176945Y-50205349D01*
X161204000Y-50069338D01*
X161204000Y-49930662D01*
X161176945Y-49794651D01*
X161123876Y-49666531D01*
X161046832Y-49551226D01*
X160948774Y-49453168D01*
X160833469Y-49376124D01*
X160705349Y-49323055D01*
X160569338Y-49296000D01*
X160430662Y-49296000D01*
X160294651Y-49323055D01*
X160166531Y-49376124D01*
X160051226Y-49453168D01*
X159953168Y-49551226D01*
X159876124Y-49666531D01*
X159823055Y-49794651D01*
X159796000Y-49930662D01*
X157204000Y-49930662D01*
X157176945Y-49794651D01*
X157123876Y-49666531D01*
X157046832Y-49551226D01*
X156948774Y-49453168D01*
X156833469Y-49376124D01*
X156705349Y-49323055D01*
X156569338Y-49296000D01*
X156430662Y-49296000D01*
X156294651Y-49323055D01*
X156166531Y-49376124D01*
X156051226Y-49453168D01*
X155953168Y-49551226D01*
X155876124Y-49666531D01*
X155823055Y-49794651D01*
X155796000Y-49930662D01*
X145988594Y-49930662D01*
X146002991Y-49882978D01*
X146151350Y-49603957D01*
X146351079Y-49359066D01*
X146594564Y-49157637D01*
X146872539Y-49007337D01*
X147174419Y-48913890D01*
X147506368Y-48879000D01*
X149329538Y-48879000D01*
X149323055Y-48894651D01*
G36*
X202314501Y-47411655D02*
G01*
X202617022Y-47502991D01*
X202896043Y-47651350D01*
X203140934Y-47851079D01*
X203342363Y-48094564D01*
X203492663Y-48372539D01*
X203586110Y-48674419D01*
X203621000Y-49006368D01*
X203621001Y-62981455D01*
X203588345Y-63314502D01*
X203497009Y-63617022D01*
X203348651Y-63896042D01*
X203148923Y-64140932D01*
X202905436Y-64342363D01*
X202627457Y-64492665D01*
X202325582Y-64586110D01*
X201993631Y-64621000D01*
X193156987Y-64621000D01*
X191781160Y-63245174D01*
X191769290Y-63230710D01*
X191711579Y-63183349D01*
X191645738Y-63148156D01*
X191574297Y-63126485D01*
X191518610Y-63121000D01*
X191500000Y-63119167D01*
X191481390Y-63121000D01*
X187100000Y-63121000D01*
X187100000Y-61930662D01*
X188296000Y-61930662D01*
X188296000Y-62069338D01*
X188323055Y-62205349D01*
X188376124Y-62333469D01*
X188453168Y-62448774D01*
X188551226Y-62546832D01*
X188666531Y-62623876D01*
X188794651Y-62676945D01*
X188930662Y-62704000D01*
X189069338Y-62704000D01*
X189205349Y-62676945D01*
X189333469Y-62623876D01*
X189448774Y-62546832D01*
X189546832Y-62448774D01*
X189623876Y-62333469D01*
X189676945Y-62205349D01*
X189704000Y-62069338D01*
X189704000Y-61930662D01*
X192296000Y-61930662D01*
X192296000Y-62069338D01*
X192323055Y-62205349D01*
X192376124Y-62333469D01*
X192453168Y-62448774D01*
X192551226Y-62546832D01*
X192666531Y-62623876D01*
X192794651Y-62676945D01*
X192930662Y-62704000D01*
X193069338Y-62704000D01*
X193205349Y-62676945D01*
X193333469Y-62623876D01*
X193448774Y-62546832D01*
X193546832Y-62448774D01*
X193623876Y-62333469D01*
X193676945Y-62205349D01*
X193704000Y-62069338D01*
X193704000Y-61930662D01*
X193676945Y-61794651D01*
X193623876Y-61666531D01*
X193546832Y-61551226D01*
X193448774Y-61453168D01*
X193333469Y-61376124D01*
X193205349Y-61323055D01*
X193069338Y-61296000D01*
X192930662Y-61296000D01*
X192794651Y-61323055D01*
X192666531Y-61376124D01*
X192551226Y-61453168D01*
X192453168Y-61551226D01*
X192376124Y-61666531D01*
X192323055Y-61794651D01*
X192296000Y-61930662D01*
X189704000Y-61930662D01*
X189676945Y-61794651D01*
X189623876Y-61666531D01*
X189546832Y-61551226D01*
X189448774Y-61453168D01*
X189333469Y-61376124D01*
X189205349Y-61323055D01*
X189069338Y-61296000D01*
X188930662Y-61296000D01*
X188794651Y-61323055D01*
X188666531Y-61376124D01*
X188551226Y-61453168D01*
X188453168Y-61551226D01*
X188376124Y-61666531D01*
X188323055Y-61794651D01*
X188296000Y-61930662D01*
X187100000Y-61930662D01*
X187100000Y-57930662D01*
X197296000Y-57930662D01*
X197296000Y-58069338D01*
X197323055Y-58205349D01*
X197376124Y-58333469D01*
X197453168Y-58448774D01*
X197551226Y-58546832D01*
X197666531Y-58623876D01*
X197794651Y-58676945D01*
X197930662Y-58704000D01*
X198069338Y-58704000D01*
X198205349Y-58676945D01*
X198333469Y-58623876D01*
X198448774Y-58546832D01*
X198546832Y-58448774D01*
X198623876Y-58333469D01*
X198676945Y-58205349D01*
X198704000Y-58069338D01*
X198704000Y-57930662D01*
X200296000Y-57930662D01*
X200296000Y-58069338D01*
X200323055Y-58205349D01*
X200376124Y-58333469D01*
X200453168Y-58448774D01*
X200551226Y-58546832D01*
X200666531Y-58623876D01*
X200794651Y-58676945D01*
X200930662Y-58704000D01*
X201069338Y-58704000D01*
X201205349Y-58676945D01*
X201333469Y-58623876D01*
X201448774Y-58546832D01*
X201546832Y-58448774D01*
X201623876Y-58333469D01*
X201676945Y-58205349D01*
X201704000Y-58069338D01*
X201704000Y-57930662D01*
X201676945Y-57794651D01*
X201623876Y-57666531D01*
X201546832Y-57551226D01*
X201448774Y-57453168D01*
X201333469Y-57376124D01*
X201205349Y-57323055D01*
X201069338Y-57296000D01*
X200930662Y-57296000D01*
X200794651Y-57323055D01*
X200666531Y-57376124D01*
X200551226Y-57453168D01*
X200453168Y-57551226D01*
X200376124Y-57666531D01*
X200323055Y-57794651D01*
X200296000Y-57930662D01*
X198704000Y-57930662D01*
X198676945Y-57794651D01*
X198623876Y-57666531D01*
X198546832Y-57551226D01*
X198448774Y-57453168D01*
X198333469Y-57376124D01*
X198205349Y-57323055D01*
X198069338Y-57296000D01*
X197930662Y-57296000D01*
X197794651Y-57323055D01*
X197666531Y-57376124D01*
X197551226Y-57453168D01*
X197453168Y-57551226D01*
X197376124Y-57666531D01*
X197323055Y-57794651D01*
X197296000Y-57930662D01*
X187100000Y-57930662D01*
X187100000Y-56930662D01*
X191796000Y-56930662D01*
X191796000Y-57069338D01*
X191823055Y-57205349D01*
X191876124Y-57333469D01*
X191953168Y-57448774D01*
X192051226Y-57546832D01*
X192166531Y-57623876D01*
X192294651Y-57676945D01*
X192430662Y-57704000D01*
X192569338Y-57704000D01*
X192705349Y-57676945D01*
X192833469Y-57623876D01*
X192948774Y-57546832D01*
X193046832Y-57448774D01*
X193123876Y-57333469D01*
X193176945Y-57205349D01*
X193204000Y-57069338D01*
X193204000Y-56930662D01*
X193176945Y-56794651D01*
X193123876Y-56666531D01*
X193046832Y-56551226D01*
X192948774Y-56453168D01*
X192833469Y-56376124D01*
X192705349Y-56323055D01*
X192569338Y-56296000D01*
X192430662Y-56296000D01*
X192294651Y-56323055D01*
X192166531Y-56376124D01*
X192051226Y-56453168D01*
X191953168Y-56551226D01*
X191876124Y-56666531D01*
X191823055Y-56794651D01*
X191796000Y-56930662D01*
X187100000Y-56930662D01*
X187100000Y-54930662D01*
X191796000Y-54930662D01*
X191796000Y-55069338D01*
X191823055Y-55205349D01*
X191876124Y-55333469D01*
X191953168Y-55448774D01*
X192051226Y-55546832D01*
X192166531Y-55623876D01*
X192294651Y-55676945D01*
X192430662Y-55704000D01*
X192569338Y-55704000D01*
X192705349Y-55676945D01*
X192833469Y-55623876D01*
X192948774Y-55546832D01*
X193046832Y-55448774D01*
X193123876Y-55333469D01*
X193176945Y-55205349D01*
X193204000Y-55069338D01*
X193204000Y-54930662D01*
X193176945Y-54794651D01*
X193123876Y-54666531D01*
X193046832Y-54551226D01*
X192948774Y-54453168D01*
X192833469Y-54376124D01*
X192705349Y-54323055D01*
X192569338Y-54296000D01*
X192430662Y-54296000D01*
X192294651Y-54323055D01*
X192166531Y-54376124D01*
X192051226Y-54453168D01*
X191953168Y-54551226D01*
X191876124Y-54666531D01*
X191823055Y-54794651D01*
X191796000Y-54930662D01*
X187100000Y-54930662D01*
X187100000Y-53930662D01*
X197296000Y-53930662D01*
X197296000Y-54069338D01*
X197323055Y-54205349D01*
X197376124Y-54333469D01*
X197453168Y-54448774D01*
X197551226Y-54546832D01*
X197666531Y-54623876D01*
X197794651Y-54676945D01*
X197930662Y-54704000D01*
X198069338Y-54704000D01*
X198205349Y-54676945D01*
X198333469Y-54623876D01*
X198448774Y-54546832D01*
X198546832Y-54448774D01*
X198623876Y-54333469D01*
X198676945Y-54205349D01*
X198704000Y-54069338D01*
X198704000Y-53930662D01*
X198676945Y-53794651D01*
X198623876Y-53666531D01*
X198546832Y-53551226D01*
X198448774Y-53453168D01*
X198333469Y-53376124D01*
X198205349Y-53323055D01*
X198069338Y-53296000D01*
X197930662Y-53296000D01*
X197794651Y-53323055D01*
X197666531Y-53376124D01*
X197551226Y-53453168D01*
X197453168Y-53551226D01*
X197376124Y-53666531D01*
X197323055Y-53794651D01*
X197296000Y-53930662D01*
X187100000Y-53930662D01*
X187100000Y-52430662D01*
X191796000Y-52430662D01*
X191796000Y-52569338D01*
X191823055Y-52705349D01*
X191876124Y-52833469D01*
X191953168Y-52948774D01*
X192051226Y-53046832D01*
X192166531Y-53123876D01*
X192294651Y-53176945D01*
X192430662Y-53204000D01*
X192569338Y-53204000D01*
X192705349Y-53176945D01*
X192833469Y-53123876D01*
X192948774Y-53046832D01*
X193046832Y-52948774D01*
X193123876Y-52833469D01*
X193176945Y-52705349D01*
X193204000Y-52569338D01*
X193204000Y-52430662D01*
X193176945Y-52294651D01*
X193123876Y-52166531D01*
X193046832Y-52051226D01*
X192948774Y-51953168D01*
X192915092Y-51930662D01*
X197296000Y-51930662D01*
X197296000Y-52069338D01*
X197323055Y-52205349D01*
X197376124Y-52333469D01*
X197453168Y-52448774D01*
X197551226Y-52546832D01*
X197666531Y-52623876D01*
X197794651Y-52676945D01*
X197930662Y-52704000D01*
X198069338Y-52704000D01*
X198205349Y-52676945D01*
X198333469Y-52623876D01*
X198448774Y-52546832D01*
X198546832Y-52448774D01*
X198623876Y-52333469D01*
X198676945Y-52205349D01*
X198704000Y-52069338D01*
X198704000Y-51930662D01*
X198676945Y-51794651D01*
X198623876Y-51666531D01*
X198546832Y-51551226D01*
X198448774Y-51453168D01*
X198333469Y-51376124D01*
X198205349Y-51323055D01*
X198069338Y-51296000D01*
X197930662Y-51296000D01*
X197794651Y-51323055D01*
X197666531Y-51376124D01*
X197551226Y-51453168D01*
X197453168Y-51551226D01*
X197376124Y-51666531D01*
X197323055Y-51794651D01*
X197296000Y-51930662D01*
X192915092Y-51930662D01*
X192833469Y-51876124D01*
X192705349Y-51823055D01*
X192569338Y-51796000D01*
X192430662Y-51796000D01*
X192294651Y-51823055D01*
X192166531Y-51876124D01*
X192051226Y-51953168D01*
X191953168Y-52051226D01*
X191876124Y-52166531D01*
X191823055Y-52294651D01*
X191796000Y-52430662D01*
X187100000Y-52430662D01*
X187100000Y-48879000D01*
X191481390Y-48879000D01*
X191500000Y-48880833D01*
X191574297Y-48873515D01*
X191645738Y-48851844D01*
X191711579Y-48816651D01*
X191769290Y-48769290D01*
X191781160Y-48754826D01*
X193156987Y-47379000D01*
X201981465Y-47379000D01*
X202314501Y-47411655D01*
X202314501Y-47411655D01*
G37*
X202314501Y-47411655D02*
X202617022Y-47502991D01*
X202896043Y-47651350D01*
X203140934Y-47851079D01*
X203342363Y-48094564D01*
X203492663Y-48372539D01*
X203586110Y-48674419D01*
X203621000Y-49006368D01*
X203621001Y-62981455D01*
X203588345Y-63314502D01*
X203497009Y-63617022D01*
X203348651Y-63896042D01*
X203148923Y-64140932D01*
X202905436Y-64342363D01*
X202627457Y-64492665D01*
X202325582Y-64586110D01*
X201993631Y-64621000D01*
X193156987Y-64621000D01*
X191781160Y-63245174D01*
X191769290Y-63230710D01*
X191711579Y-63183349D01*
X191645738Y-63148156D01*
X191574297Y-63126485D01*
X191518610Y-63121000D01*
X191500000Y-63119167D01*
X191481390Y-63121000D01*
X187100000Y-63121000D01*
X187100000Y-61930662D01*
X188296000Y-61930662D01*
X188296000Y-62069338D01*
X188323055Y-62205349D01*
X188376124Y-62333469D01*
X188453168Y-62448774D01*
X188551226Y-62546832D01*
X188666531Y-62623876D01*
X188794651Y-62676945D01*
X188930662Y-62704000D01*
X189069338Y-62704000D01*
X189205349Y-62676945D01*
X189333469Y-62623876D01*
X189448774Y-62546832D01*
X189546832Y-62448774D01*
X189623876Y-62333469D01*
X189676945Y-62205349D01*
X189704000Y-62069338D01*
X189704000Y-61930662D01*
X192296000Y-61930662D01*
X192296000Y-62069338D01*
X192323055Y-62205349D01*
X192376124Y-62333469D01*
X192453168Y-62448774D01*
X192551226Y-62546832D01*
X192666531Y-62623876D01*
X192794651Y-62676945D01*
X192930662Y-62704000D01*
X193069338Y-62704000D01*
X193205349Y-62676945D01*
X193333469Y-62623876D01*
X193448774Y-62546832D01*
X193546832Y-62448774D01*
X193623876Y-62333469D01*
X193676945Y-62205349D01*
X193704000Y-62069338D01*
X193704000Y-61930662D01*
X193676945Y-61794651D01*
X193623876Y-61666531D01*
X193546832Y-61551226D01*
X193448774Y-61453168D01*
X193333469Y-61376124D01*
X193205349Y-61323055D01*
X193069338Y-61296000D01*
X192930662Y-61296000D01*
X192794651Y-61323055D01*
X192666531Y-61376124D01*
X192551226Y-61453168D01*
X192453168Y-61551226D01*
X192376124Y-61666531D01*
X192323055Y-61794651D01*
X192296000Y-61930662D01*
X189704000Y-61930662D01*
X189676945Y-61794651D01*
X189623876Y-61666531D01*
X189546832Y-61551226D01*
X189448774Y-61453168D01*
X189333469Y-61376124D01*
X189205349Y-61323055D01*
X189069338Y-61296000D01*
X188930662Y-61296000D01*
X188794651Y-61323055D01*
X188666531Y-61376124D01*
X188551226Y-61453168D01*
X188453168Y-61551226D01*
X188376124Y-61666531D01*
X188323055Y-61794651D01*
X188296000Y-61930662D01*
X187100000Y-61930662D01*
X187100000Y-57930662D01*
X197296000Y-57930662D01*
X197296000Y-58069338D01*
X197323055Y-58205349D01*
X197376124Y-58333469D01*
X197453168Y-58448774D01*
X197551226Y-58546832D01*
X197666531Y-58623876D01*
X197794651Y-58676945D01*
X197930662Y-58704000D01*
X198069338Y-58704000D01*
X198205349Y-58676945D01*
X198333469Y-58623876D01*
X198448774Y-58546832D01*
X198546832Y-58448774D01*
X198623876Y-58333469D01*
X198676945Y-58205349D01*
X198704000Y-58069338D01*
X198704000Y-57930662D01*
X200296000Y-57930662D01*
X200296000Y-58069338D01*
X200323055Y-58205349D01*
X200376124Y-58333469D01*
X200453168Y-58448774D01*
X200551226Y-58546832D01*
X200666531Y-58623876D01*
X200794651Y-58676945D01*
X200930662Y-58704000D01*
X201069338Y-58704000D01*
X201205349Y-58676945D01*
X201333469Y-58623876D01*
X201448774Y-58546832D01*
X201546832Y-58448774D01*
X201623876Y-58333469D01*
X201676945Y-58205349D01*
X201704000Y-58069338D01*
X201704000Y-57930662D01*
X201676945Y-57794651D01*
X201623876Y-57666531D01*
X201546832Y-57551226D01*
X201448774Y-57453168D01*
X201333469Y-57376124D01*
X201205349Y-57323055D01*
X201069338Y-57296000D01*
X200930662Y-57296000D01*
X200794651Y-57323055D01*
X200666531Y-57376124D01*
X200551226Y-57453168D01*
X200453168Y-57551226D01*
X200376124Y-57666531D01*
X200323055Y-57794651D01*
X200296000Y-57930662D01*
X198704000Y-57930662D01*
X198676945Y-57794651D01*
X198623876Y-57666531D01*
X198546832Y-57551226D01*
X198448774Y-57453168D01*
X198333469Y-57376124D01*
X198205349Y-57323055D01*
X198069338Y-57296000D01*
X197930662Y-57296000D01*
X197794651Y-57323055D01*
X197666531Y-57376124D01*
X197551226Y-57453168D01*
X197453168Y-57551226D01*
X197376124Y-57666531D01*
X197323055Y-57794651D01*
X197296000Y-57930662D01*
X187100000Y-57930662D01*
X187100000Y-56930662D01*
X191796000Y-56930662D01*
X191796000Y-57069338D01*
X191823055Y-57205349D01*
X191876124Y-57333469D01*
X191953168Y-57448774D01*
X192051226Y-57546832D01*
X192166531Y-57623876D01*
X192294651Y-57676945D01*
X192430662Y-57704000D01*
X192569338Y-57704000D01*
X192705349Y-57676945D01*
X192833469Y-57623876D01*
X192948774Y-57546832D01*
X193046832Y-57448774D01*
X193123876Y-57333469D01*
X193176945Y-57205349D01*
X193204000Y-57069338D01*
X193204000Y-56930662D01*
X193176945Y-56794651D01*
X193123876Y-56666531D01*
X193046832Y-56551226D01*
X192948774Y-56453168D01*
X192833469Y-56376124D01*
X192705349Y-56323055D01*
X192569338Y-56296000D01*
X192430662Y-56296000D01*
X192294651Y-56323055D01*
X192166531Y-56376124D01*
X192051226Y-56453168D01*
X191953168Y-56551226D01*
X191876124Y-56666531D01*
X191823055Y-56794651D01*
X191796000Y-56930662D01*
X187100000Y-56930662D01*
X187100000Y-54930662D01*
X191796000Y-54930662D01*
X191796000Y-55069338D01*
X191823055Y-55205349D01*
X191876124Y-55333469D01*
X191953168Y-55448774D01*
X192051226Y-55546832D01*
X192166531Y-55623876D01*
X192294651Y-55676945D01*
X192430662Y-55704000D01*
X192569338Y-55704000D01*
X192705349Y-55676945D01*
X192833469Y-55623876D01*
X192948774Y-55546832D01*
X193046832Y-55448774D01*
X193123876Y-55333469D01*
X193176945Y-55205349D01*
X193204000Y-55069338D01*
X193204000Y-54930662D01*
X193176945Y-54794651D01*
X193123876Y-54666531D01*
X193046832Y-54551226D01*
X192948774Y-54453168D01*
X192833469Y-54376124D01*
X192705349Y-54323055D01*
X192569338Y-54296000D01*
X192430662Y-54296000D01*
X192294651Y-54323055D01*
X192166531Y-54376124D01*
X192051226Y-54453168D01*
X191953168Y-54551226D01*
X191876124Y-54666531D01*
X191823055Y-54794651D01*
X191796000Y-54930662D01*
X187100000Y-54930662D01*
X187100000Y-53930662D01*
X197296000Y-53930662D01*
X197296000Y-54069338D01*
X197323055Y-54205349D01*
X197376124Y-54333469D01*
X197453168Y-54448774D01*
X197551226Y-54546832D01*
X197666531Y-54623876D01*
X197794651Y-54676945D01*
X197930662Y-54704000D01*
X198069338Y-54704000D01*
X198205349Y-54676945D01*
X198333469Y-54623876D01*
X198448774Y-54546832D01*
X198546832Y-54448774D01*
X198623876Y-54333469D01*
X198676945Y-54205349D01*
X198704000Y-54069338D01*
X198704000Y-53930662D01*
X198676945Y-53794651D01*
X198623876Y-53666531D01*
X198546832Y-53551226D01*
X198448774Y-53453168D01*
X198333469Y-53376124D01*
X198205349Y-53323055D01*
X198069338Y-53296000D01*
X197930662Y-53296000D01*
X197794651Y-53323055D01*
X197666531Y-53376124D01*
X197551226Y-53453168D01*
X197453168Y-53551226D01*
X197376124Y-53666531D01*
X197323055Y-53794651D01*
X197296000Y-53930662D01*
X187100000Y-53930662D01*
X187100000Y-52430662D01*
X191796000Y-52430662D01*
X191796000Y-52569338D01*
X191823055Y-52705349D01*
X191876124Y-52833469D01*
X191953168Y-52948774D01*
X192051226Y-53046832D01*
X192166531Y-53123876D01*
X192294651Y-53176945D01*
X192430662Y-53204000D01*
X192569338Y-53204000D01*
X192705349Y-53176945D01*
X192833469Y-53123876D01*
X192948774Y-53046832D01*
X193046832Y-52948774D01*
X193123876Y-52833469D01*
X193176945Y-52705349D01*
X193204000Y-52569338D01*
X193204000Y-52430662D01*
X193176945Y-52294651D01*
X193123876Y-52166531D01*
X193046832Y-52051226D01*
X192948774Y-51953168D01*
X192915092Y-51930662D01*
X197296000Y-51930662D01*
X197296000Y-52069338D01*
X197323055Y-52205349D01*
X197376124Y-52333469D01*
X197453168Y-52448774D01*
X197551226Y-52546832D01*
X197666531Y-52623876D01*
X197794651Y-52676945D01*
X197930662Y-52704000D01*
X198069338Y-52704000D01*
X198205349Y-52676945D01*
X198333469Y-52623876D01*
X198448774Y-52546832D01*
X198546832Y-52448774D01*
X198623876Y-52333469D01*
X198676945Y-52205349D01*
X198704000Y-52069338D01*
X198704000Y-51930662D01*
X198676945Y-51794651D01*
X198623876Y-51666531D01*
X198546832Y-51551226D01*
X198448774Y-51453168D01*
X198333469Y-51376124D01*
X198205349Y-51323055D01*
X198069338Y-51296000D01*
X197930662Y-51296000D01*
X197794651Y-51323055D01*
X197666531Y-51376124D01*
X197551226Y-51453168D01*
X197453168Y-51551226D01*
X197376124Y-51666531D01*
X197323055Y-51794651D01*
X197296000Y-51930662D01*
X192915092Y-51930662D01*
X192833469Y-51876124D01*
X192705349Y-51823055D01*
X192569338Y-51796000D01*
X192430662Y-51796000D01*
X192294651Y-51823055D01*
X192166531Y-51876124D01*
X192051226Y-51953168D01*
X191953168Y-52051226D01*
X191876124Y-52166531D01*
X191823055Y-52294651D01*
X191796000Y-52430662D01*
X187100000Y-52430662D01*
X187100000Y-48879000D01*
X191481390Y-48879000D01*
X191500000Y-48880833D01*
X191574297Y-48873515D01*
X191645738Y-48851844D01*
X191711579Y-48816651D01*
X191769290Y-48769290D01*
X191781160Y-48754826D01*
X193156987Y-47379000D01*
X201981465Y-47379000D01*
X202314501Y-47411655D01*
M02*
