G04 #@! TF.GenerationSoftware,KiCad,Pcbnew,(5.1.0)-1*
G04 #@! TF.CreationDate,2020-02-07T03:11:48-08:00*
G04 #@! TF.ProjectId,design,64657369-676e-42e6-9b69-6361645f7063,rev?*
G04 #@! TF.SameCoordinates,Original*
G04 #@! TF.FileFunction,Legend,Top*
G04 #@! TF.FilePolarity,Positive*
%FSLAX46Y46*%
G04 Gerber Fmt 4.6, Leading zero omitted, Abs format (unit mm)*
G04 Created by KiCad (PCBNEW (5.1.0)-1) date 2020-02-07 03:11:48*
%MOMM*%
%LPD*%
G04 APERTURE LIST*
%ADD10C,0.150000*%
%ADD11C,0.100000*%
%ADD12C,0.120000*%
G04 APERTURE END LIST*
D10*
X139240357Y-50404761D02*
X139347500Y-50452380D01*
X139526071Y-50452380D01*
X139597500Y-50404761D01*
X139633214Y-50357142D01*
X139668928Y-50261904D01*
X139668928Y-50166666D01*
X139633214Y-50071428D01*
X139597500Y-50023809D01*
X139526071Y-49976190D01*
X139383214Y-49928571D01*
X139311785Y-49880952D01*
X139276071Y-49833333D01*
X139240357Y-49738095D01*
X139240357Y-49642857D01*
X139276071Y-49547619D01*
X139311785Y-49500000D01*
X139383214Y-49452380D01*
X139561785Y-49452380D01*
X139668928Y-49500000D01*
X139918928Y-49452380D02*
X140097500Y-50452380D01*
X140240357Y-49738095D01*
X140383214Y-50452380D01*
X140561785Y-49452380D01*
X140847500Y-50452380D02*
X140847500Y-49452380D01*
X141026071Y-49452380D01*
X141133214Y-49500000D01*
X141204642Y-49595238D01*
X141240357Y-49690476D01*
X141276071Y-49880952D01*
X141276071Y-50023809D01*
X141240357Y-50214285D01*
X141204642Y-50309523D01*
X141133214Y-50404761D01*
X141026071Y-50452380D01*
X140847500Y-50452380D01*
X142168928Y-50452380D02*
X142168928Y-49452380D01*
X142347500Y-49452380D01*
X142454642Y-49500000D01*
X142526071Y-49595238D01*
X142561785Y-49690476D01*
X142597500Y-49880952D01*
X142597500Y-50023809D01*
X142561785Y-50214285D01*
X142526071Y-50309523D01*
X142454642Y-50404761D01*
X142347500Y-50452380D01*
X142168928Y-50452380D01*
X143204642Y-50404761D02*
X143133214Y-50452380D01*
X142990357Y-50452380D01*
X142918928Y-50404761D01*
X142883214Y-50309523D01*
X142883214Y-49928571D01*
X142918928Y-49833333D01*
X142990357Y-49785714D01*
X143133214Y-49785714D01*
X143204642Y-49833333D01*
X143240357Y-49928571D01*
X143240357Y-50023809D01*
X142883214Y-50119047D01*
X143561785Y-50452380D02*
X143561785Y-49452380D01*
X143561785Y-49833333D02*
X143633214Y-49785714D01*
X143776071Y-49785714D01*
X143847500Y-49833333D01*
X143883214Y-49880952D01*
X143918928Y-49976190D01*
X143918928Y-50261904D01*
X143883214Y-50357142D01*
X143847500Y-50404761D01*
X143776071Y-50452380D01*
X143633214Y-50452380D01*
X143561785Y-50404761D01*
X144561785Y-49785714D02*
X144561785Y-50452380D01*
X144240357Y-49785714D02*
X144240357Y-50309523D01*
X144276071Y-50404761D01*
X144347500Y-50452380D01*
X144454642Y-50452380D01*
X144526071Y-50404761D01*
X144561785Y-50357142D01*
X145240357Y-49785714D02*
X145240357Y-50595238D01*
X145204642Y-50690476D01*
X145168928Y-50738095D01*
X145097500Y-50785714D01*
X144990357Y-50785714D01*
X144918928Y-50738095D01*
X145240357Y-50404761D02*
X145168928Y-50452380D01*
X145026071Y-50452380D01*
X144954642Y-50404761D01*
X144918928Y-50357142D01*
X144883214Y-50261904D01*
X144883214Y-49976190D01*
X144918928Y-49880952D01*
X144954642Y-49833333D01*
X145026071Y-49785714D01*
X145168928Y-49785714D01*
X145240357Y-49833333D01*
X145918928Y-49785714D02*
X145918928Y-50595238D01*
X145883214Y-50690476D01*
X145847500Y-50738095D01*
X145776071Y-50785714D01*
X145668928Y-50785714D01*
X145597500Y-50738095D01*
X145918928Y-50404761D02*
X145847500Y-50452380D01*
X145704642Y-50452380D01*
X145633214Y-50404761D01*
X145597500Y-50357142D01*
X145561785Y-50261904D01*
X145561785Y-49976190D01*
X145597500Y-49880952D01*
X145633214Y-49833333D01*
X145704642Y-49785714D01*
X145847500Y-49785714D01*
X145918928Y-49833333D01*
X146561785Y-50404761D02*
X146490357Y-50452380D01*
X146347500Y-50452380D01*
X146276071Y-50404761D01*
X146240357Y-50309523D01*
X146240357Y-49928571D01*
X146276071Y-49833333D01*
X146347500Y-49785714D01*
X146490357Y-49785714D01*
X146561785Y-49833333D01*
X146597500Y-49928571D01*
X146597500Y-50023809D01*
X146240357Y-50119047D01*
X146918928Y-50452380D02*
X146918928Y-49785714D01*
X146918928Y-49976190D02*
X146954642Y-49880952D01*
X146990357Y-49833333D01*
X147061785Y-49785714D01*
X147133214Y-49785714D01*
X148454642Y-49785714D02*
X148633214Y-50452380D01*
X148811785Y-49785714D01*
X149061785Y-49547619D02*
X149097500Y-49500000D01*
X149168928Y-49452380D01*
X149347500Y-49452380D01*
X149418928Y-49500000D01*
X149454642Y-49547619D01*
X149490357Y-49642857D01*
X149490357Y-49738095D01*
X149454642Y-49880952D01*
X149026071Y-50452380D01*
X149490357Y-50452380D01*
D11*
X138400000Y-60320000D02*
X139900000Y-60320000D01*
X138400000Y-51680000D02*
X138400000Y-60320000D01*
X139900000Y-51680000D02*
X138400000Y-51680000D01*
D10*
X141600000Y-62900000D02*
X144400000Y-62900000D01*
X141600000Y-61600000D02*
X141600000Y-61100000D01*
X141600000Y-61100000D02*
X144400000Y-61100000D01*
D12*
X161787113Y-56318198D02*
X162105311Y-56000000D01*
X162105311Y-56000000D02*
X161787113Y-55681802D01*
X157318198Y-60787113D02*
X157000000Y-61105311D01*
X157000000Y-61105311D02*
X156681802Y-60787113D01*
X156681802Y-51212887D02*
X157000000Y-50894689D01*
X157000000Y-50894689D02*
X157318198Y-51212887D01*
X152212887Y-55681802D02*
X151894689Y-56000000D01*
X151894689Y-56000000D02*
X152212887Y-56318198D01*
X152212887Y-56318198D02*
X151300719Y-57230366D01*
D11*
X163000000Y-50500000D02*
X163250000Y-50750000D01*
X163250000Y-50750000D02*
X164250000Y-50750000D01*
X164250000Y-50750000D02*
X164500000Y-50500000D01*
X164500000Y-50250000D02*
X164500000Y-49750000D01*
X164500000Y-49500000D02*
X164250000Y-49250000D01*
X163250000Y-49250000D02*
X163000000Y-49500000D01*
X164250000Y-49250000D02*
X163250000Y-49250000D01*
X163000000Y-49500000D02*
X163000000Y-50500000D01*
X164500000Y-50500000D02*
X164750000Y-50750000D01*
X165750000Y-50750000D02*
X166000000Y-50500000D01*
X165750000Y-49250000D02*
X164750000Y-49250000D01*
X164750000Y-49250000D02*
X164500000Y-49500000D01*
X166000000Y-49500000D02*
X165750000Y-49250000D01*
X164750000Y-50750000D02*
X165750000Y-50750000D01*
X166000000Y-50250000D02*
X166000000Y-49750000D01*
X166000000Y-50500000D02*
X166250000Y-50750000D01*
X167250000Y-50750000D02*
X167500000Y-50500000D01*
X167250000Y-49250000D02*
X166250000Y-49250000D01*
X166250000Y-49250000D02*
X166000000Y-49500000D01*
X167500000Y-49500000D02*
X167250000Y-49250000D01*
X166250000Y-50750000D02*
X167250000Y-50750000D01*
X167500000Y-50250000D02*
X167500000Y-49750000D01*
X167500000Y-50500000D02*
X167750000Y-50750000D01*
X168750000Y-50750000D02*
X169000000Y-50500000D01*
X168750000Y-49250000D02*
X167750000Y-49250000D01*
X167750000Y-49250000D02*
X167500000Y-49500000D01*
X169000000Y-49500000D02*
X168750000Y-49250000D01*
X167750000Y-50750000D02*
X168750000Y-50750000D01*
X169000000Y-50500000D02*
X169000000Y-49500000D01*
X162500000Y-49250000D02*
X162750000Y-49500000D01*
X162750000Y-49500000D02*
X162500000Y-49750000D01*
X162500000Y-49750000D02*
X162500000Y-49250000D01*
X162750000Y-50500000D02*
X162500000Y-50750000D01*
X162500000Y-50750000D02*
X162500000Y-50250000D01*
X162500000Y-50250000D02*
X162750000Y-50500000D01*
X169500000Y-50000000D02*
X169250000Y-50250000D01*
X169250000Y-50250000D02*
X169250000Y-49750000D01*
X169250000Y-49750000D02*
X169500000Y-50000000D01*
D10*
X172600000Y-62900000D02*
X175400000Y-62900000D01*
X172600000Y-61600000D02*
X172600000Y-61100000D01*
X172600000Y-61100000D02*
X175400000Y-61100000D01*
D12*
X165700000Y-58160000D02*
X165700000Y-59650000D01*
X165700000Y-59650000D02*
X167040000Y-59650000D01*
X165700000Y-53840000D02*
X165700000Y-52350000D01*
X165700000Y-52350000D02*
X167040000Y-52350000D01*
X169760000Y-59650000D02*
X171500000Y-59650000D01*
X171500000Y-59650000D02*
X171500000Y-52350000D01*
X171500000Y-52350000D02*
X169760000Y-52350000D01*
X165700000Y-58160000D02*
X164500000Y-58160000D01*
X147730000Y-52825000D02*
X148365000Y-52825000D01*
X147730000Y-53460000D02*
X147730000Y-52825000D01*
X178000000Y-50375000D02*
X178000000Y-61625000D01*
X178000000Y-53200000D02*
X181300000Y-53200000D01*
X181300000Y-53200000D02*
X181300000Y-53720000D01*
X178000000Y-53720000D02*
X181300000Y-53720000D01*
X178000000Y-53260000D02*
X181300000Y-53260000D01*
X178000000Y-53380000D02*
X181300000Y-53380000D01*
X178000000Y-53500000D02*
X181300000Y-53500000D01*
X178000000Y-53620000D02*
X181300000Y-53620000D01*
X178000000Y-54470000D02*
X181300000Y-54470000D01*
X181300000Y-54470000D02*
X181300000Y-54990000D01*
X178000000Y-54990000D02*
X181300000Y-54990000D01*
X173240000Y-53460000D02*
X173240000Y-52700000D01*
X173240000Y-52700000D02*
X174000000Y-52700000D01*
X176100000Y-49675000D02*
X181500000Y-49675000D01*
X176100000Y-62325000D02*
X181500000Y-62325000D01*
X176100000Y-62325000D02*
X176100000Y-49675000D01*
X181500000Y-49675000D02*
X181500000Y-62325000D01*
X178000000Y-50375000D02*
X181500000Y-50375000D01*
X178000000Y-61625000D02*
X181500000Y-61625000D01*
X181300000Y-55740000D02*
X181300000Y-56260000D01*
X178000000Y-55740000D02*
X181300000Y-55740000D01*
X178000000Y-56260000D02*
X181300000Y-56260000D01*
X181300000Y-57010000D02*
X181300000Y-57530000D01*
X178000000Y-57010000D02*
X181300000Y-57010000D01*
X178000000Y-57530000D02*
X181300000Y-57530000D01*
X181300000Y-58280000D02*
X181300000Y-58800000D01*
X178000000Y-58280000D02*
X181300000Y-58280000D01*
X178000000Y-58800000D02*
X181300000Y-58800000D01*
X173200000Y-50735000D02*
X175485000Y-50735000D01*
X175485000Y-50735000D02*
X175485000Y-49265000D01*
X175485000Y-49265000D02*
X173200000Y-49265000D01*
D11*
X146839285Y-57190476D02*
X147339285Y-57190476D01*
X146839285Y-57404761D02*
X147232142Y-57404761D01*
X147303571Y-57380952D01*
X147339285Y-57333333D01*
X147339285Y-57261904D01*
X147303571Y-57214285D01*
X147267857Y-57190476D01*
X147303571Y-56976190D02*
X147339285Y-56928571D01*
X147339285Y-56833333D01*
X147303571Y-56785714D01*
X147232142Y-56761904D01*
X147196428Y-56761904D01*
X147125000Y-56785714D01*
X147089285Y-56833333D01*
X147089285Y-56904761D01*
X147053571Y-56952380D01*
X146982142Y-56976190D01*
X146946428Y-56976190D01*
X146875000Y-56952380D01*
X146839285Y-56904761D01*
X146839285Y-56833333D01*
X146875000Y-56785714D01*
X147339285Y-56547619D02*
X146589285Y-56547619D01*
X146875000Y-56547619D02*
X146839285Y-56500000D01*
X146839285Y-56404761D01*
X146875000Y-56357142D01*
X146910714Y-56333333D01*
X146982142Y-56309523D01*
X147196428Y-56309523D01*
X147267857Y-56333333D01*
X147303571Y-56357142D01*
X147339285Y-56404761D01*
X147339285Y-56500000D01*
X147303571Y-56547619D01*
X147267857Y-56095238D02*
X147303571Y-56071428D01*
X147339285Y-56095238D01*
X147303571Y-56119047D01*
X147267857Y-56095238D01*
X147339285Y-56095238D01*
X146839285Y-55857142D02*
X147589285Y-55857142D01*
X146875000Y-55857142D02*
X146839285Y-55809523D01*
X146839285Y-55714285D01*
X146875000Y-55666666D01*
X146910714Y-55642857D01*
X146982142Y-55619047D01*
X147196428Y-55619047D01*
X147267857Y-55642857D01*
X147303571Y-55666666D01*
X147339285Y-55714285D01*
X147339285Y-55809523D01*
X147303571Y-55857142D01*
X147339285Y-55333333D02*
X147303571Y-55380952D01*
X147267857Y-55404761D01*
X147196428Y-55428571D01*
X146982142Y-55428571D01*
X146910714Y-55404761D01*
X146875000Y-55380952D01*
X146839285Y-55333333D01*
X146839285Y-55261904D01*
X146875000Y-55214285D01*
X146910714Y-55190476D01*
X146982142Y-55166666D01*
X147196428Y-55166666D01*
X147267857Y-55190476D01*
X147303571Y-55214285D01*
X147339285Y-55261904D01*
X147339285Y-55333333D01*
X147339285Y-54952380D02*
X146839285Y-54952380D01*
X146982142Y-54952380D02*
X146910714Y-54928571D01*
X146875000Y-54904761D01*
X146839285Y-54857142D01*
X146839285Y-54809523D01*
X146839285Y-54714285D02*
X146839285Y-54523809D01*
X146589285Y-54642857D02*
X147232142Y-54642857D01*
X147303571Y-54619047D01*
X147339285Y-54571428D01*
X147339285Y-54523809D01*
X140011904Y-60839285D02*
X140011904Y-60339285D01*
X140011904Y-60482142D02*
X140035714Y-60410714D01*
X140059523Y-60375000D01*
X140107142Y-60339285D01*
X140154761Y-60339285D01*
X140535714Y-60339285D02*
X140535714Y-60946428D01*
X140511904Y-61017857D01*
X140488095Y-61053571D01*
X140440476Y-61089285D01*
X140369047Y-61089285D01*
X140321428Y-61053571D01*
X140535714Y-60803571D02*
X140488095Y-60839285D01*
X140392857Y-60839285D01*
X140345238Y-60803571D01*
X140321428Y-60767857D01*
X140297619Y-60696428D01*
X140297619Y-60482142D01*
X140321428Y-60410714D01*
X140345238Y-60375000D01*
X140392857Y-60339285D01*
X140488095Y-60339285D01*
X140535714Y-60375000D01*
X140773809Y-60839285D02*
X140773809Y-60089285D01*
X140773809Y-60375000D02*
X140821428Y-60339285D01*
X140916666Y-60339285D01*
X140964285Y-60375000D01*
X140988095Y-60410714D01*
X141011904Y-60482142D01*
X141011904Y-60696428D01*
X140988095Y-60767857D01*
X140964285Y-60803571D01*
X140916666Y-60839285D01*
X140821428Y-60839285D01*
X140773809Y-60803571D01*
X141107142Y-60910714D02*
X141488095Y-60910714D01*
X141821428Y-60339285D02*
X141821428Y-60839285D01*
X141607142Y-60339285D02*
X141607142Y-60732142D01*
X141630952Y-60803571D01*
X141678571Y-60839285D01*
X141750000Y-60839285D01*
X141797619Y-60803571D01*
X141821428Y-60767857D01*
X142035714Y-60803571D02*
X142083333Y-60839285D01*
X142178571Y-60839285D01*
X142226190Y-60803571D01*
X142250000Y-60732142D01*
X142250000Y-60696428D01*
X142226190Y-60625000D01*
X142178571Y-60589285D01*
X142107142Y-60589285D01*
X142059523Y-60553571D01*
X142035714Y-60482142D01*
X142035714Y-60446428D01*
X142059523Y-60375000D01*
X142107142Y-60339285D01*
X142178571Y-60339285D01*
X142226190Y-60375000D01*
X142464285Y-60839285D02*
X142464285Y-60089285D01*
X142464285Y-60375000D02*
X142511904Y-60339285D01*
X142607142Y-60339285D01*
X142654761Y-60375000D01*
X142678571Y-60410714D01*
X142702380Y-60482142D01*
X142702380Y-60696428D01*
X142678571Y-60767857D01*
X142654761Y-60803571D01*
X142607142Y-60839285D01*
X142511904Y-60839285D01*
X142464285Y-60803571D01*
X142916666Y-60767857D02*
X142940476Y-60803571D01*
X142916666Y-60839285D01*
X142892857Y-60803571D01*
X142916666Y-60767857D01*
X142916666Y-60839285D01*
X143154761Y-60339285D02*
X143154761Y-61089285D01*
X143154761Y-60375000D02*
X143202380Y-60339285D01*
X143297619Y-60339285D01*
X143345238Y-60375000D01*
X143369047Y-60410714D01*
X143392857Y-60482142D01*
X143392857Y-60696428D01*
X143369047Y-60767857D01*
X143345238Y-60803571D01*
X143297619Y-60839285D01*
X143202380Y-60839285D01*
X143154761Y-60803571D01*
X143821428Y-60839285D02*
X143821428Y-60446428D01*
X143797619Y-60375000D01*
X143750000Y-60339285D01*
X143654761Y-60339285D01*
X143607142Y-60375000D01*
X143821428Y-60803571D02*
X143773809Y-60839285D01*
X143654761Y-60839285D01*
X143607142Y-60803571D01*
X143583333Y-60732142D01*
X143583333Y-60660714D01*
X143607142Y-60589285D01*
X143654761Y-60553571D01*
X143773809Y-60553571D01*
X143821428Y-60517857D01*
X144273809Y-60803571D02*
X144226190Y-60839285D01*
X144130952Y-60839285D01*
X144083333Y-60803571D01*
X144059523Y-60767857D01*
X144035714Y-60696428D01*
X144035714Y-60482142D01*
X144059523Y-60410714D01*
X144083333Y-60375000D01*
X144130952Y-60339285D01*
X144226190Y-60339285D01*
X144273809Y-60375000D01*
X144488095Y-60839285D02*
X144488095Y-60089285D01*
X144535714Y-60553571D02*
X144678571Y-60839285D01*
X144678571Y-60339285D02*
X144488095Y-60625000D01*
X145107142Y-60839285D02*
X145107142Y-60446428D01*
X145083333Y-60375000D01*
X145035714Y-60339285D01*
X144940476Y-60339285D01*
X144892857Y-60375000D01*
X145107142Y-60803571D02*
X145059523Y-60839285D01*
X144940476Y-60839285D01*
X144892857Y-60803571D01*
X144869047Y-60732142D01*
X144869047Y-60660714D01*
X144892857Y-60589285D01*
X144940476Y-60553571D01*
X145059523Y-60553571D01*
X145107142Y-60517857D01*
X145559523Y-60339285D02*
X145559523Y-60946428D01*
X145535714Y-61017857D01*
X145511904Y-61053571D01*
X145464285Y-61089285D01*
X145392857Y-61089285D01*
X145345238Y-61053571D01*
X145559523Y-60803571D02*
X145511904Y-60839285D01*
X145416666Y-60839285D01*
X145369047Y-60803571D01*
X145345238Y-60767857D01*
X145321428Y-60696428D01*
X145321428Y-60482142D01*
X145345238Y-60410714D01*
X145369047Y-60375000D01*
X145416666Y-60339285D01*
X145511904Y-60339285D01*
X145559523Y-60375000D01*
X145988095Y-60803571D02*
X145940476Y-60839285D01*
X145845238Y-60839285D01*
X145797619Y-60803571D01*
X145773809Y-60732142D01*
X145773809Y-60446428D01*
X145797619Y-60375000D01*
X145845238Y-60339285D01*
X145940476Y-60339285D01*
X145988095Y-60375000D01*
X146011904Y-60446428D01*
X146011904Y-60517857D01*
X145773809Y-60589285D01*
X152320468Y-52886204D02*
X151966914Y-52532651D01*
X152017422Y-52583158D02*
X152009004Y-52541068D01*
X152017422Y-52482143D01*
X152067929Y-52431635D01*
X152126855Y-52423217D01*
X152194198Y-52456889D01*
X152471990Y-52734681D01*
X152194198Y-52456889D02*
X152160527Y-52389546D01*
X152168945Y-52330620D01*
X152219452Y-52280112D01*
X152278378Y-52271694D01*
X152345721Y-52305366D01*
X152623513Y-52583158D01*
X152918141Y-52238023D02*
X152909723Y-52296948D01*
X152842380Y-52364292D01*
X152783454Y-52372710D01*
X152741364Y-52364292D01*
X152674021Y-52330620D01*
X152522498Y-52179097D01*
X152488826Y-52111754D01*
X152480408Y-52069664D01*
X152488826Y-52010738D01*
X152556170Y-51943395D01*
X152615095Y-51934977D01*
X152892887Y-51606677D02*
X153246441Y-51960231D01*
X152741364Y-51758200D02*
X153019156Y-52035992D01*
X153086500Y-52069664D01*
X153145425Y-52061246D01*
X153195933Y-52010738D01*
X153204351Y-51951813D01*
X153195933Y-51909723D01*
X153364292Y-51741364D02*
X153406381Y-51749782D01*
X153414799Y-51791872D01*
X153372710Y-51783454D01*
X153364292Y-51741364D01*
X153414799Y-51791872D01*
X153583158Y-51623513D02*
X153229605Y-51269960D01*
X153052828Y-51093183D02*
X153061246Y-51135273D01*
X153103336Y-51143691D01*
X153094918Y-51101601D01*
X153052828Y-51093183D01*
X153103336Y-51143691D01*
X153877786Y-51278378D02*
X153869368Y-51337303D01*
X153802025Y-51404647D01*
X153743099Y-51413065D01*
X153701009Y-51404647D01*
X153633666Y-51370975D01*
X153482143Y-51219452D01*
X153448471Y-51152109D01*
X153440053Y-51110019D01*
X153448471Y-51051093D01*
X153515815Y-50983750D01*
X153574740Y-50975332D01*
X171154761Y-60839285D02*
X171154761Y-60339285D01*
X171154761Y-60482142D02*
X171178571Y-60410714D01*
X171202380Y-60375000D01*
X171250000Y-60339285D01*
X171297619Y-60339285D01*
X171678571Y-60339285D02*
X171678571Y-60946428D01*
X171654761Y-61017857D01*
X171630952Y-61053571D01*
X171583333Y-61089285D01*
X171511904Y-61089285D01*
X171464285Y-61053571D01*
X171678571Y-60803571D02*
X171630952Y-60839285D01*
X171535714Y-60839285D01*
X171488095Y-60803571D01*
X171464285Y-60767857D01*
X171440476Y-60696428D01*
X171440476Y-60482142D01*
X171464285Y-60410714D01*
X171488095Y-60375000D01*
X171535714Y-60339285D01*
X171630952Y-60339285D01*
X171678571Y-60375000D01*
X171916666Y-60839285D02*
X171916666Y-60089285D01*
X171916666Y-60375000D02*
X171964285Y-60339285D01*
X172059523Y-60339285D01*
X172107142Y-60375000D01*
X172130952Y-60410714D01*
X172154761Y-60482142D01*
X172154761Y-60696428D01*
X172130952Y-60767857D01*
X172107142Y-60803571D01*
X172059523Y-60839285D01*
X171964285Y-60839285D01*
X171916666Y-60803571D01*
X172250000Y-60910714D02*
X172630952Y-60910714D01*
X172678571Y-60339285D02*
X172869047Y-60339285D01*
X172750000Y-60089285D02*
X172750000Y-60732142D01*
X172773809Y-60803571D01*
X172821428Y-60839285D01*
X172869047Y-60839285D01*
X173250000Y-60339285D02*
X173250000Y-60946428D01*
X173226190Y-61017857D01*
X173202380Y-61053571D01*
X173154761Y-61089285D01*
X173083333Y-61089285D01*
X173035714Y-61053571D01*
X173250000Y-60803571D02*
X173202380Y-60839285D01*
X173107142Y-60839285D01*
X173059523Y-60803571D01*
X173035714Y-60767857D01*
X173011904Y-60696428D01*
X173011904Y-60482142D01*
X173035714Y-60410714D01*
X173059523Y-60375000D01*
X173107142Y-60339285D01*
X173202380Y-60339285D01*
X173250000Y-60375000D01*
X173416666Y-60339285D02*
X173607142Y-60339285D01*
X173488095Y-60089285D02*
X173488095Y-60732142D01*
X173511904Y-60803571D01*
X173559523Y-60839285D01*
X173607142Y-60839285D01*
X173773809Y-60767857D02*
X173797619Y-60803571D01*
X173773809Y-60839285D01*
X173750000Y-60803571D01*
X173773809Y-60767857D01*
X173773809Y-60839285D01*
X174011904Y-60339285D02*
X174011904Y-61089285D01*
X174011904Y-60375000D02*
X174059523Y-60339285D01*
X174154761Y-60339285D01*
X174202380Y-60375000D01*
X174226190Y-60410714D01*
X174250000Y-60482142D01*
X174250000Y-60696428D01*
X174226190Y-60767857D01*
X174202380Y-60803571D01*
X174154761Y-60839285D01*
X174059523Y-60839285D01*
X174011904Y-60803571D01*
X174678571Y-60839285D02*
X174678571Y-60446428D01*
X174654761Y-60375000D01*
X174607142Y-60339285D01*
X174511904Y-60339285D01*
X174464285Y-60375000D01*
X174678571Y-60803571D02*
X174630952Y-60839285D01*
X174511904Y-60839285D01*
X174464285Y-60803571D01*
X174440476Y-60732142D01*
X174440476Y-60660714D01*
X174464285Y-60589285D01*
X174511904Y-60553571D01*
X174630952Y-60553571D01*
X174678571Y-60517857D01*
X175130952Y-60803571D02*
X175083333Y-60839285D01*
X174988095Y-60839285D01*
X174940476Y-60803571D01*
X174916666Y-60767857D01*
X174892857Y-60696428D01*
X174892857Y-60482142D01*
X174916666Y-60410714D01*
X174940476Y-60375000D01*
X174988095Y-60339285D01*
X175083333Y-60339285D01*
X175130952Y-60375000D01*
X175345238Y-60839285D02*
X175345238Y-60089285D01*
X175392857Y-60553571D02*
X175535714Y-60839285D01*
X175535714Y-60339285D02*
X175345238Y-60625000D01*
X175964285Y-60839285D02*
X175964285Y-60446428D01*
X175940476Y-60375000D01*
X175892857Y-60339285D01*
X175797619Y-60339285D01*
X175750000Y-60375000D01*
X175964285Y-60803571D02*
X175916666Y-60839285D01*
X175797619Y-60839285D01*
X175750000Y-60803571D01*
X175726190Y-60732142D01*
X175726190Y-60660714D01*
X175750000Y-60589285D01*
X175797619Y-60553571D01*
X175916666Y-60553571D01*
X175964285Y-60517857D01*
X176416666Y-60339285D02*
X176416666Y-60946428D01*
X176392857Y-61017857D01*
X176369047Y-61053571D01*
X176321428Y-61089285D01*
X176250000Y-61089285D01*
X176202380Y-61053571D01*
X176416666Y-60803571D02*
X176369047Y-60839285D01*
X176273809Y-60839285D01*
X176226190Y-60803571D01*
X176202380Y-60767857D01*
X176178571Y-60696428D01*
X176178571Y-60482142D01*
X176202380Y-60410714D01*
X176226190Y-60375000D01*
X176273809Y-60339285D01*
X176369047Y-60339285D01*
X176416666Y-60375000D01*
X176845238Y-60803571D02*
X176797619Y-60839285D01*
X176702380Y-60839285D01*
X176654761Y-60803571D01*
X176630952Y-60732142D01*
X176630952Y-60446428D01*
X176654761Y-60375000D01*
X176702380Y-60339285D01*
X176797619Y-60339285D01*
X176845238Y-60375000D01*
X176869047Y-60446428D01*
X176869047Y-60517857D01*
X176630952Y-60589285D01*
X163839285Y-57678571D02*
X163803571Y-57726190D01*
X163732142Y-57750000D01*
X163089285Y-57750000D01*
X163803571Y-57273809D02*
X163839285Y-57321428D01*
X163839285Y-57416666D01*
X163803571Y-57464285D01*
X163767857Y-57488095D01*
X163696428Y-57511904D01*
X163482142Y-57511904D01*
X163410714Y-57488095D01*
X163375000Y-57464285D01*
X163339285Y-57416666D01*
X163339285Y-57321428D01*
X163375000Y-57273809D01*
X163839285Y-56845238D02*
X163089285Y-56845238D01*
X163803571Y-56845238D02*
X163839285Y-56892857D01*
X163839285Y-56988095D01*
X163803571Y-57035714D01*
X163767857Y-57059523D01*
X163696428Y-57083333D01*
X163482142Y-57083333D01*
X163410714Y-57059523D01*
X163375000Y-57035714D01*
X163339285Y-56988095D01*
X163339285Y-56892857D01*
X163375000Y-56845238D01*
X163767857Y-56607142D02*
X163803571Y-56583333D01*
X163839285Y-56607142D01*
X163803571Y-56630952D01*
X163767857Y-56607142D01*
X163839285Y-56607142D01*
X163839285Y-56154761D02*
X163089285Y-56154761D01*
X163803571Y-56154761D02*
X163839285Y-56202380D01*
X163839285Y-56297619D01*
X163803571Y-56345238D01*
X163767857Y-56369047D01*
X163696428Y-56392857D01*
X163482142Y-56392857D01*
X163410714Y-56369047D01*
X163375000Y-56345238D01*
X163339285Y-56297619D01*
X163339285Y-56202380D01*
X163375000Y-56154761D01*
X163803571Y-55726190D02*
X163839285Y-55773809D01*
X163839285Y-55869047D01*
X163803571Y-55916666D01*
X163732142Y-55940476D01*
X163446428Y-55940476D01*
X163375000Y-55916666D01*
X163339285Y-55869047D01*
X163339285Y-55773809D01*
X163375000Y-55726190D01*
X163446428Y-55702380D01*
X163517857Y-55702380D01*
X163589285Y-55940476D01*
X163339285Y-55535714D02*
X163839285Y-55416666D01*
X163339285Y-55297619D01*
X163839285Y-55107142D02*
X163339285Y-55107142D01*
X163089285Y-55107142D02*
X163125000Y-55130952D01*
X163160714Y-55107142D01*
X163125000Y-55083333D01*
X163089285Y-55107142D01*
X163160714Y-55107142D01*
X163803571Y-54654761D02*
X163839285Y-54702380D01*
X163839285Y-54797619D01*
X163803571Y-54845238D01*
X163767857Y-54869047D01*
X163696428Y-54892857D01*
X163482142Y-54892857D01*
X163410714Y-54869047D01*
X163375000Y-54845238D01*
X163339285Y-54797619D01*
X163339285Y-54702380D01*
X163375000Y-54654761D01*
X163803571Y-54250000D02*
X163839285Y-54297619D01*
X163839285Y-54392857D01*
X163803571Y-54440476D01*
X163732142Y-54464285D01*
X163446428Y-54464285D01*
X163375000Y-54440476D01*
X163339285Y-54392857D01*
X163339285Y-54297619D01*
X163375000Y-54250000D01*
X163446428Y-54226190D01*
X163517857Y-54226190D01*
X163589285Y-54464285D01*
D10*
X146704761Y-57190476D02*
X146752380Y-57095238D01*
X146752380Y-56904761D01*
X146704761Y-56809523D01*
X146609523Y-56761904D01*
X146561904Y-56761904D01*
X146466666Y-56809523D01*
X146419047Y-56904761D01*
X146419047Y-57047619D01*
X146371428Y-57142857D01*
X146276190Y-57190476D01*
X146228571Y-57190476D01*
X146133333Y-57142857D01*
X146085714Y-57047619D01*
X146085714Y-56904761D01*
X146133333Y-56809523D01*
X146085714Y-56428571D02*
X146752380Y-56238095D01*
X146276190Y-56047619D01*
X146752380Y-55857142D01*
X146085714Y-55666666D01*
X146752380Y-54857142D02*
X145752380Y-54857142D01*
X146704761Y-54857142D02*
X146752380Y-54952380D01*
X146752380Y-55142857D01*
X146704761Y-55238095D01*
X146657142Y-55285714D01*
X146561904Y-55333333D01*
X146276190Y-55333333D01*
X146180952Y-55285714D01*
X146133333Y-55238095D01*
X146085714Y-55142857D01*
X146085714Y-54952380D01*
X146133333Y-54857142D01*
X173150952Y-51610714D02*
X173531904Y-51610714D01*
X173293809Y-51277380D02*
X173293809Y-52134523D01*
X173341428Y-52229761D01*
X173436666Y-52277380D01*
X173531904Y-52277380D01*
X174293809Y-52277380D02*
X174293809Y-51753571D01*
X174246190Y-51658333D01*
X174150952Y-51610714D01*
X173960476Y-51610714D01*
X173865238Y-51658333D01*
X174293809Y-52229761D02*
X174198571Y-52277380D01*
X173960476Y-52277380D01*
X173865238Y-52229761D01*
X173817619Y-52134523D01*
X173817619Y-52039285D01*
X173865238Y-51944047D01*
X173960476Y-51896428D01*
X174198571Y-51896428D01*
X174293809Y-51848809D01*
X174770000Y-52277380D02*
X174770000Y-51610714D01*
X174770000Y-51801190D02*
X174817619Y-51705952D01*
X174865238Y-51658333D01*
X174960476Y-51610714D01*
X175055714Y-51610714D01*
X175817619Y-51610714D02*
X175817619Y-52420238D01*
X175770000Y-52515476D01*
X175722380Y-52563095D01*
X175627142Y-52610714D01*
X175484285Y-52610714D01*
X175389047Y-52563095D01*
X175817619Y-52229761D02*
X175722380Y-52277380D01*
X175531904Y-52277380D01*
X175436666Y-52229761D01*
X175389047Y-52182142D01*
X175341428Y-52086904D01*
X175341428Y-51801190D01*
X175389047Y-51705952D01*
X175436666Y-51658333D01*
X175531904Y-51610714D01*
X175722380Y-51610714D01*
X175817619Y-51658333D01*
X176674761Y-52229761D02*
X176579523Y-52277380D01*
X176389047Y-52277380D01*
X176293809Y-52229761D01*
X176246190Y-52134523D01*
X176246190Y-51753571D01*
X176293809Y-51658333D01*
X176389047Y-51610714D01*
X176579523Y-51610714D01*
X176674761Y-51658333D01*
X176722380Y-51753571D01*
X176722380Y-51848809D01*
X176246190Y-51944047D01*
X177008095Y-51610714D02*
X177389047Y-51610714D01*
X177150952Y-51277380D02*
X177150952Y-52134523D01*
X177198571Y-52229761D01*
X177293809Y-52277380D01*
X177389047Y-52277380D01*
X167333333Y-51882380D02*
X167238095Y-51834761D01*
X167190476Y-51739523D01*
X167190476Y-50882380D01*
X168095238Y-51834761D02*
X168000000Y-51882380D01*
X167809523Y-51882380D01*
X167714285Y-51834761D01*
X167666666Y-51739523D01*
X167666666Y-51358571D01*
X167714285Y-51263333D01*
X167809523Y-51215714D01*
X168000000Y-51215714D01*
X168095238Y-51263333D01*
X168142857Y-51358571D01*
X168142857Y-51453809D01*
X167666666Y-51549047D01*
X169000000Y-51882380D02*
X169000000Y-50882380D01*
X169000000Y-51834761D02*
X168904761Y-51882380D01*
X168714285Y-51882380D01*
X168619047Y-51834761D01*
X168571428Y-51787142D01*
X168523809Y-51691904D01*
X168523809Y-51406190D01*
X168571428Y-51310952D01*
X168619047Y-51263333D01*
X168714285Y-51215714D01*
X168904761Y-51215714D01*
X169000000Y-51263333D01*
X169238095Y-51977619D02*
X170000000Y-51977619D01*
X170095238Y-51215714D02*
X170476190Y-51215714D01*
X170238095Y-50882380D02*
X170238095Y-51739523D01*
X170285714Y-51834761D01*
X170380952Y-51882380D01*
X170476190Y-51882380D01*
X171238095Y-51882380D02*
X171238095Y-51358571D01*
X171190476Y-51263333D01*
X171095238Y-51215714D01*
X170904761Y-51215714D01*
X170809523Y-51263333D01*
X171238095Y-51834761D02*
X171142857Y-51882380D01*
X170904761Y-51882380D01*
X170809523Y-51834761D01*
X170761904Y-51739523D01*
X170761904Y-51644285D01*
X170809523Y-51549047D01*
X170904761Y-51501428D01*
X171142857Y-51501428D01*
X171238095Y-51453809D01*
X171714285Y-51882380D02*
X171714285Y-51215714D01*
X171714285Y-51406190D02*
X171761904Y-51310952D01*
X171809523Y-51263333D01*
X171904761Y-51215714D01*
X172000000Y-51215714D01*
X172761904Y-51215714D02*
X172761904Y-52025238D01*
X172714285Y-52120476D01*
X172666666Y-52168095D01*
X172571428Y-52215714D01*
X172428571Y-52215714D01*
X172333333Y-52168095D01*
X172761904Y-51834761D02*
X172666666Y-51882380D01*
X172476190Y-51882380D01*
X172380952Y-51834761D01*
X172333333Y-51787142D01*
X172285714Y-51691904D01*
X172285714Y-51406190D01*
X172333333Y-51310952D01*
X172380952Y-51263333D01*
X172476190Y-51215714D01*
X172666666Y-51215714D01*
X172761904Y-51263333D01*
X173619047Y-51834761D02*
X173523809Y-51882380D01*
X173333333Y-51882380D01*
X173238095Y-51834761D01*
X173190476Y-51739523D01*
X173190476Y-51358571D01*
X173238095Y-51263333D01*
X173333333Y-51215714D01*
X173523809Y-51215714D01*
X173619047Y-51263333D01*
X173666666Y-51358571D01*
X173666666Y-51453809D01*
X173190476Y-51549047D01*
X173952380Y-51215714D02*
X174333333Y-51215714D01*
X174095238Y-50882380D02*
X174095238Y-51739523D01*
X174142857Y-51834761D01*
X174238095Y-51882380D01*
X174333333Y-51882380D01*
X174666666Y-51787142D02*
X174714285Y-51834761D01*
X174666666Y-51882380D01*
X174619047Y-51834761D01*
X174666666Y-51787142D01*
X174666666Y-51882380D01*
X175142857Y-51215714D02*
X175142857Y-52215714D01*
X175142857Y-51263333D02*
X175238095Y-51215714D01*
X175428571Y-51215714D01*
X175523809Y-51263333D01*
X175571428Y-51310952D01*
X175619047Y-51406190D01*
X175619047Y-51691904D01*
X175571428Y-51787142D01*
X175523809Y-51834761D01*
X175428571Y-51882380D01*
X175238095Y-51882380D01*
X175142857Y-51834761D01*
X176476190Y-51882380D02*
X176476190Y-51358571D01*
X176428571Y-51263333D01*
X176333333Y-51215714D01*
X176142857Y-51215714D01*
X176047619Y-51263333D01*
X176476190Y-51834761D02*
X176380952Y-51882380D01*
X176142857Y-51882380D01*
X176047619Y-51834761D01*
X176000000Y-51739523D01*
X176000000Y-51644285D01*
X176047619Y-51549047D01*
X176142857Y-51501428D01*
X176380952Y-51501428D01*
X176476190Y-51453809D01*
X177380952Y-51834761D02*
X177285714Y-51882380D01*
X177095238Y-51882380D01*
X177000000Y-51834761D01*
X176952380Y-51787142D01*
X176904761Y-51691904D01*
X176904761Y-51406190D01*
X176952380Y-51310952D01*
X177000000Y-51263333D01*
X177095238Y-51215714D01*
X177285714Y-51215714D01*
X177380952Y-51263333D01*
X177809523Y-51882380D02*
X177809523Y-50882380D01*
X177904761Y-51501428D02*
X178190476Y-51882380D01*
X178190476Y-51215714D02*
X177809523Y-51596666D01*
X179047619Y-51882380D02*
X179047619Y-51358571D01*
X179000000Y-51263333D01*
X178904761Y-51215714D01*
X178714285Y-51215714D01*
X178619047Y-51263333D01*
X179047619Y-51834761D02*
X178952380Y-51882380D01*
X178714285Y-51882380D01*
X178619047Y-51834761D01*
X178571428Y-51739523D01*
X178571428Y-51644285D01*
X178619047Y-51549047D01*
X178714285Y-51501428D01*
X178952380Y-51501428D01*
X179047619Y-51453809D01*
X179952380Y-51215714D02*
X179952380Y-52025238D01*
X179904761Y-52120476D01*
X179857142Y-52168095D01*
X179761904Y-52215714D01*
X179619047Y-52215714D01*
X179523809Y-52168095D01*
X179952380Y-51834761D02*
X179857142Y-51882380D01*
X179666666Y-51882380D01*
X179571428Y-51834761D01*
X179523809Y-51787142D01*
X179476190Y-51691904D01*
X179476190Y-51406190D01*
X179523809Y-51310952D01*
X179571428Y-51263333D01*
X179666666Y-51215714D01*
X179857142Y-51215714D01*
X179952380Y-51263333D01*
X180809523Y-51834761D02*
X180714285Y-51882380D01*
X180523809Y-51882380D01*
X180428571Y-51834761D01*
X180380952Y-51739523D01*
X180380952Y-51358571D01*
X180428571Y-51263333D01*
X180523809Y-51215714D01*
X180714285Y-51215714D01*
X180809523Y-51263333D01*
X180857142Y-51358571D01*
X180857142Y-51453809D01*
X180380952Y-51549047D01*
M02*
