G04 #@! TF.GenerationSoftware,KiCad,Pcbnew,(5.1.0)-1*
G04 #@! TF.CreationDate,2020-02-07T03:11:47-08:00*
G04 #@! TF.ProjectId,design,64657369-676e-42e6-9b69-6361645f7063,rev?*
G04 #@! TF.SameCoordinates,Original*
G04 #@! TF.FileFunction,Copper,L2,Inr*
G04 #@! TF.FilePolarity,Positive*
%FSLAX46Y46*%
G04 Gerber Fmt 4.6, Leading zero omitted, Abs format (unit mm)*
G04 Created by KiCad (PCBNEW (5.1.0)-1) date 2020-02-07 03:11:47*
%MOMM*%
%LPD*%
G04 APERTURE LIST*
%ADD10O,1.800000X1.000000*%
%ADD11O,2.100000X1.000000*%
%ADD12R,1.000000X1.000000*%
%ADD13O,1.000000X1.000000*%
%ADD14C,0.700000*%
%ADD15C,0.200000*%
G04 APERTURE END LIST*
D10*
X141000000Y-51680000D03*
X141000000Y-60320000D03*
D11*
X145180000Y-51680000D03*
X145180000Y-60320000D03*
D12*
X174000000Y-53460000D03*
D13*
X175270000Y-53460000D03*
X174000000Y-54730000D03*
X175270000Y-54730000D03*
X174000000Y-56000000D03*
X175270000Y-56000000D03*
X174000000Y-57270000D03*
X175270000Y-57270000D03*
X174000000Y-58540000D03*
X175270000Y-58540000D03*
D14*
X159000000Y-57000000D03*
X155000000Y-55000000D03*
X156000000Y-58000000D03*
X158000000Y-54000000D03*
X148365000Y-58540000D03*
X166500000Y-57000000D03*
X144500000Y-54000000D03*
X144499916Y-58000000D03*
X177500000Y-56000000D03*
X165000000Y-61500000D03*
X157000000Y-61000000D03*
X159000000Y-58000000D03*
X165000000Y-62500000D03*
X141000000Y-62500000D03*
X176000000Y-61590000D03*
X144500000Y-57000000D03*
X149635000Y-58540000D03*
X155000000Y-58000000D03*
X145000000Y-61500000D03*
X159000000Y-62500000D03*
X159000000Y-55000000D03*
X155000000Y-57000000D03*
X158000000Y-58000000D03*
X156000000Y-54000000D03*
X139500000Y-51000000D03*
X139500000Y-61000000D03*
X141000000Y-61500000D03*
X144500000Y-55000000D03*
X172000000Y-62500000D03*
X176000000Y-62500000D03*
X145000000Y-62500000D03*
X167000000Y-62500000D03*
X157000000Y-62500000D03*
X176000000Y-50000000D03*
X161000000Y-61500000D03*
X163000000Y-61500000D03*
X179500000Y-58000000D03*
X179000000Y-54000000D03*
X163000000Y-62500000D03*
X177000000Y-54000000D03*
X147000000Y-54000000D03*
X147000000Y-58000000D03*
X163500000Y-53000000D03*
X162500000Y-53000000D03*
X161000000Y-62500000D03*
X165250000Y-58500000D03*
X170500000Y-60000000D03*
X166000000Y-51500000D03*
X167000000Y-55000000D03*
X172500000Y-60000000D03*
X147000000Y-52095000D03*
X166500000Y-54000000D03*
X166500000Y-60000000D03*
X164000000Y-60000000D03*
X163000000Y-54500000D03*
X165000000Y-51500000D03*
X150972876Y-61586797D03*
X162000000Y-59000000D03*
X148681801Y-49681801D03*
X149318199Y-50318199D03*
X154027128Y-61413206D03*
X157000000Y-60000000D03*
D15*
G36*
X177218844Y-49904831D02*
G01*
X177230710Y-49919290D01*
X177288421Y-49966651D01*
X177354262Y-50001844D01*
X177425703Y-50023515D01*
X177500000Y-50030833D01*
X177518610Y-50029000D01*
X181121000Y-50029000D01*
X181121001Y-61971000D01*
X177518610Y-61971000D01*
X177500000Y-61969167D01*
X177481390Y-61971000D01*
X177425703Y-61976485D01*
X177354262Y-61998156D01*
X177288421Y-62033349D01*
X177230710Y-62080710D01*
X177218844Y-62095169D01*
X176693900Y-62620114D01*
X176704000Y-62569338D01*
X176704000Y-62430662D01*
X176676945Y-62294651D01*
X176623876Y-62166531D01*
X176546832Y-62051226D01*
X176540606Y-62045000D01*
X176546832Y-62038774D01*
X176623876Y-61923469D01*
X176676945Y-61795349D01*
X176704000Y-61659338D01*
X176704000Y-61520662D01*
X176676945Y-61384651D01*
X176623876Y-61256531D01*
X176546832Y-61141226D01*
X176448774Y-61043168D01*
X176333469Y-60966124D01*
X176205349Y-60913055D01*
X176069338Y-60886000D01*
X175930662Y-60886000D01*
X175794651Y-60913055D01*
X175666531Y-60966124D01*
X175551226Y-61043168D01*
X175453168Y-61141226D01*
X175376124Y-61256531D01*
X175323055Y-61384651D01*
X175296000Y-61520662D01*
X175296000Y-61659338D01*
X175323055Y-61795349D01*
X175376124Y-61923469D01*
X175453168Y-62038774D01*
X175459394Y-62045000D01*
X175453168Y-62051226D01*
X175376124Y-62166531D01*
X175323055Y-62294651D01*
X175296000Y-62430662D01*
X175296000Y-62569338D01*
X175323055Y-62705349D01*
X175376124Y-62833469D01*
X175453168Y-62948774D01*
X175551226Y-63046832D01*
X175662227Y-63121000D01*
X172337773Y-63121000D01*
X172448774Y-63046832D01*
X172546832Y-62948774D01*
X172623876Y-62833469D01*
X172676945Y-62705349D01*
X172704000Y-62569338D01*
X172704000Y-62430662D01*
X172676945Y-62294651D01*
X172623876Y-62166531D01*
X172546832Y-62051226D01*
X172448774Y-61953168D01*
X172333469Y-61876124D01*
X172205349Y-61823055D01*
X172069338Y-61796000D01*
X171930662Y-61796000D01*
X171794651Y-61823055D01*
X171666531Y-61876124D01*
X171551226Y-61953168D01*
X171453168Y-62051226D01*
X171376124Y-62166531D01*
X171323055Y-62294651D01*
X171296000Y-62430662D01*
X171296000Y-62569338D01*
X171323055Y-62705349D01*
X171376124Y-62833469D01*
X171453168Y-62948774D01*
X171551226Y-63046832D01*
X171662227Y-63121000D01*
X167337773Y-63121000D01*
X167448774Y-63046832D01*
X167546832Y-62948774D01*
X167623876Y-62833469D01*
X167676945Y-62705349D01*
X167704000Y-62569338D01*
X167704000Y-62430662D01*
X167676945Y-62294651D01*
X167623876Y-62166531D01*
X167546832Y-62051226D01*
X167448774Y-61953168D01*
X167333469Y-61876124D01*
X167205349Y-61823055D01*
X167069338Y-61796000D01*
X166930662Y-61796000D01*
X166794651Y-61823055D01*
X166666531Y-61876124D01*
X166551226Y-61953168D01*
X166453168Y-62051226D01*
X166376124Y-62166531D01*
X166323055Y-62294651D01*
X166296000Y-62430662D01*
X166296000Y-62569338D01*
X166323055Y-62705349D01*
X166376124Y-62833469D01*
X166453168Y-62948774D01*
X166551226Y-63046832D01*
X166662227Y-63121000D01*
X165337773Y-63121000D01*
X165448774Y-63046832D01*
X165546832Y-62948774D01*
X165623876Y-62833469D01*
X165676945Y-62705349D01*
X165704000Y-62569338D01*
X165704000Y-62430662D01*
X165676945Y-62294651D01*
X165623876Y-62166531D01*
X165546832Y-62051226D01*
X165495606Y-62000000D01*
X165546832Y-61948774D01*
X165623876Y-61833469D01*
X165676945Y-61705349D01*
X165704000Y-61569338D01*
X165704000Y-61430662D01*
X165676945Y-61294651D01*
X165623876Y-61166531D01*
X165546832Y-61051226D01*
X165448774Y-60953168D01*
X165333469Y-60876124D01*
X165205349Y-60823055D01*
X165069338Y-60796000D01*
X164930662Y-60796000D01*
X164794651Y-60823055D01*
X164666531Y-60876124D01*
X164551226Y-60953168D01*
X164453168Y-61051226D01*
X164376124Y-61166531D01*
X164323055Y-61294651D01*
X164296000Y-61430662D01*
X164296000Y-61569338D01*
X164323055Y-61705349D01*
X164376124Y-61833469D01*
X164453168Y-61948774D01*
X164504394Y-62000000D01*
X164453168Y-62051226D01*
X164376124Y-62166531D01*
X164323055Y-62294651D01*
X164296000Y-62430662D01*
X164296000Y-62569338D01*
X164323055Y-62705349D01*
X164376124Y-62833469D01*
X164453168Y-62948774D01*
X164551226Y-63046832D01*
X164662227Y-63121000D01*
X163337773Y-63121000D01*
X163448774Y-63046832D01*
X163546832Y-62948774D01*
X163623876Y-62833469D01*
X163676945Y-62705349D01*
X163704000Y-62569338D01*
X163704000Y-62430662D01*
X163676945Y-62294651D01*
X163623876Y-62166531D01*
X163546832Y-62051226D01*
X163495606Y-62000000D01*
X163546832Y-61948774D01*
X163623876Y-61833469D01*
X163676945Y-61705349D01*
X163704000Y-61569338D01*
X163704000Y-61430662D01*
X163676945Y-61294651D01*
X163623876Y-61166531D01*
X163546832Y-61051226D01*
X163448774Y-60953168D01*
X163333469Y-60876124D01*
X163205349Y-60823055D01*
X163069338Y-60796000D01*
X162930662Y-60796000D01*
X162794651Y-60823055D01*
X162666531Y-60876124D01*
X162551226Y-60953168D01*
X162453168Y-61051226D01*
X162376124Y-61166531D01*
X162323055Y-61294651D01*
X162296000Y-61430662D01*
X162296000Y-61569338D01*
X162323055Y-61705349D01*
X162376124Y-61833469D01*
X162453168Y-61948774D01*
X162504394Y-62000000D01*
X162453168Y-62051226D01*
X162376124Y-62166531D01*
X162323055Y-62294651D01*
X162296000Y-62430662D01*
X162296000Y-62569338D01*
X162323055Y-62705349D01*
X162376124Y-62833469D01*
X162453168Y-62948774D01*
X162551226Y-63046832D01*
X162662227Y-63121000D01*
X161337773Y-63121000D01*
X161448774Y-63046832D01*
X161546832Y-62948774D01*
X161623876Y-62833469D01*
X161676945Y-62705349D01*
X161704000Y-62569338D01*
X161704000Y-62430662D01*
X161676945Y-62294651D01*
X161623876Y-62166531D01*
X161546832Y-62051226D01*
X161495606Y-62000000D01*
X161546832Y-61948774D01*
X161623876Y-61833469D01*
X161676945Y-61705349D01*
X161704000Y-61569338D01*
X161704000Y-61430662D01*
X161676945Y-61294651D01*
X161623876Y-61166531D01*
X161546832Y-61051226D01*
X161448774Y-60953168D01*
X161333469Y-60876124D01*
X161205349Y-60823055D01*
X161069338Y-60796000D01*
X160930662Y-60796000D01*
X160794651Y-60823055D01*
X160666531Y-60876124D01*
X160551226Y-60953168D01*
X160453168Y-61051226D01*
X160376124Y-61166531D01*
X160323055Y-61294651D01*
X160296000Y-61430662D01*
X160296000Y-61569338D01*
X160323055Y-61705349D01*
X160376124Y-61833469D01*
X160453168Y-61948774D01*
X160504394Y-62000000D01*
X160453168Y-62051226D01*
X160376124Y-62166531D01*
X160323055Y-62294651D01*
X160296000Y-62430662D01*
X160296000Y-62569338D01*
X160323055Y-62705349D01*
X160376124Y-62833469D01*
X160453168Y-62948774D01*
X160551226Y-63046832D01*
X160662227Y-63121000D01*
X159337773Y-63121000D01*
X159448774Y-63046832D01*
X159546832Y-62948774D01*
X159623876Y-62833469D01*
X159676945Y-62705349D01*
X159704000Y-62569338D01*
X159704000Y-62430662D01*
X159676945Y-62294651D01*
X159623876Y-62166531D01*
X159546832Y-62051226D01*
X159448774Y-61953168D01*
X159333469Y-61876124D01*
X159205349Y-61823055D01*
X159069338Y-61796000D01*
X158930662Y-61796000D01*
X158794651Y-61823055D01*
X158666531Y-61876124D01*
X158551226Y-61953168D01*
X158453168Y-62051226D01*
X158376124Y-62166531D01*
X158323055Y-62294651D01*
X158296000Y-62430662D01*
X158296000Y-62569338D01*
X158323055Y-62705349D01*
X158376124Y-62833469D01*
X158453168Y-62948774D01*
X158551226Y-63046832D01*
X158662227Y-63121000D01*
X157337773Y-63121000D01*
X157448774Y-63046832D01*
X157546832Y-62948774D01*
X157623876Y-62833469D01*
X157676945Y-62705349D01*
X157704000Y-62569338D01*
X157704000Y-62430662D01*
X157676945Y-62294651D01*
X157623876Y-62166531D01*
X157546832Y-62051226D01*
X157448774Y-61953168D01*
X157333469Y-61876124D01*
X157205349Y-61823055D01*
X157069338Y-61796000D01*
X156930662Y-61796000D01*
X156794651Y-61823055D01*
X156666531Y-61876124D01*
X156551226Y-61953168D01*
X156453168Y-62051226D01*
X156376124Y-62166531D01*
X156323055Y-62294651D01*
X156296000Y-62430662D01*
X156296000Y-62569338D01*
X156323055Y-62705349D01*
X156376124Y-62833469D01*
X156453168Y-62948774D01*
X156551226Y-63046832D01*
X156662227Y-63121000D01*
X145337773Y-63121000D01*
X145448774Y-63046832D01*
X145546832Y-62948774D01*
X145623876Y-62833469D01*
X145676945Y-62705349D01*
X145704000Y-62569338D01*
X145704000Y-62430662D01*
X145676945Y-62294651D01*
X145623876Y-62166531D01*
X145546832Y-62051226D01*
X145495606Y-62000000D01*
X145546832Y-61948774D01*
X145623876Y-61833469D01*
X145676945Y-61705349D01*
X145704000Y-61569338D01*
X145704000Y-61517459D01*
X150268876Y-61517459D01*
X150268876Y-61656135D01*
X150295931Y-61792146D01*
X150349000Y-61920266D01*
X150426044Y-62035571D01*
X150524102Y-62133629D01*
X150639407Y-62210673D01*
X150767527Y-62263742D01*
X150903538Y-62290797D01*
X151042214Y-62290797D01*
X151178225Y-62263742D01*
X151306345Y-62210673D01*
X151421650Y-62133629D01*
X151519708Y-62035571D01*
X151596752Y-61920266D01*
X151649821Y-61792146D01*
X151676876Y-61656135D01*
X151676876Y-61517459D01*
X151649821Y-61381448D01*
X151634255Y-61343868D01*
X153323128Y-61343868D01*
X153323128Y-61482544D01*
X153350183Y-61618555D01*
X153403252Y-61746675D01*
X153480296Y-61861980D01*
X153578354Y-61960038D01*
X153693659Y-62037082D01*
X153821779Y-62090151D01*
X153957790Y-62117206D01*
X154096466Y-62117206D01*
X154232477Y-62090151D01*
X154360597Y-62037082D01*
X154475902Y-61960038D01*
X154573960Y-61861980D01*
X154651004Y-61746675D01*
X154704073Y-61618555D01*
X154731128Y-61482544D01*
X154731128Y-61343868D01*
X154704073Y-61207857D01*
X154651004Y-61079737D01*
X154573960Y-60964432D01*
X154475902Y-60866374D01*
X154360597Y-60789330D01*
X154232477Y-60736261D01*
X154096466Y-60709206D01*
X153957790Y-60709206D01*
X153821779Y-60736261D01*
X153693659Y-60789330D01*
X153578354Y-60866374D01*
X153480296Y-60964432D01*
X153403252Y-61079737D01*
X153350183Y-61207857D01*
X153323128Y-61343868D01*
X151634255Y-61343868D01*
X151596752Y-61253328D01*
X151519708Y-61138023D01*
X151421650Y-61039965D01*
X151306345Y-60962921D01*
X151178225Y-60909852D01*
X151042214Y-60882797D01*
X150903538Y-60882797D01*
X150767527Y-60909852D01*
X150639407Y-60962921D01*
X150524102Y-61039965D01*
X150426044Y-61138023D01*
X150349000Y-61253328D01*
X150295931Y-61381448D01*
X150268876Y-61517459D01*
X145704000Y-61517459D01*
X145704000Y-61430662D01*
X145676945Y-61294651D01*
X145623876Y-61166531D01*
X145592785Y-61120000D01*
X145755000Y-61120000D01*
X145910592Y-61099751D01*
X146059244Y-61049537D01*
X146195243Y-60971287D01*
X146313363Y-60868008D01*
X146409065Y-60743670D01*
X146478671Y-60603050D01*
X146515854Y-60469779D01*
X146454569Y-60345000D01*
X145205000Y-60345000D01*
X145205000Y-60365000D01*
X145155000Y-60365000D01*
X145155000Y-60345000D01*
X143905431Y-60345000D01*
X143844146Y-60469779D01*
X143881329Y-60603050D01*
X143950935Y-60743670D01*
X144046637Y-60868008D01*
X144164757Y-60971287D01*
X144300756Y-61049537D01*
X144426023Y-61091852D01*
X144376124Y-61166531D01*
X144323055Y-61294651D01*
X144296000Y-61430662D01*
X144296000Y-61569338D01*
X144323055Y-61705349D01*
X144376124Y-61833469D01*
X144453168Y-61948774D01*
X144504394Y-62000000D01*
X144453168Y-62051226D01*
X144376124Y-62166531D01*
X144323055Y-62294651D01*
X144296000Y-62430662D01*
X144296000Y-62569338D01*
X144323055Y-62705349D01*
X144376124Y-62833469D01*
X144453168Y-62948774D01*
X144551226Y-63046832D01*
X144662227Y-63121000D01*
X141337773Y-63121000D01*
X141448774Y-63046832D01*
X141546832Y-62948774D01*
X141623876Y-62833469D01*
X141676945Y-62705349D01*
X141704000Y-62569338D01*
X141704000Y-62430662D01*
X141676945Y-62294651D01*
X141623876Y-62166531D01*
X141546832Y-62051226D01*
X141495606Y-62000000D01*
X141546832Y-61948774D01*
X141623876Y-61833469D01*
X141676945Y-61705349D01*
X141704000Y-61569338D01*
X141704000Y-61430662D01*
X141676945Y-61294651D01*
X141623876Y-61166531D01*
X141579362Y-61099911D01*
X141580592Y-61099751D01*
X141729244Y-61049537D01*
X141865243Y-60971287D01*
X141983363Y-60868008D01*
X142079065Y-60743670D01*
X142148671Y-60603050D01*
X142185854Y-60469779D01*
X142124569Y-60345000D01*
X141025000Y-60345000D01*
X141025000Y-60365000D01*
X140975000Y-60365000D01*
X140975000Y-60345000D01*
X139875431Y-60345000D01*
X139853553Y-60389544D01*
X139833469Y-60376124D01*
X139705349Y-60323055D01*
X139569338Y-60296000D01*
X139430662Y-60296000D01*
X139294651Y-60323055D01*
X139166531Y-60376124D01*
X139051226Y-60453168D01*
X138953168Y-60551226D01*
X138879000Y-60662227D01*
X138879000Y-60170221D01*
X139814146Y-60170221D01*
X139875431Y-60295000D01*
X140975000Y-60295000D01*
X140975000Y-60275000D01*
X141025000Y-60275000D01*
X141025000Y-60295000D01*
X142124569Y-60295000D01*
X142185854Y-60170221D01*
X142148671Y-60036950D01*
X142079065Y-59896330D01*
X141983363Y-59771992D01*
X141865243Y-59668713D01*
X141729244Y-59590463D01*
X141580592Y-59540249D01*
X141425000Y-59520000D01*
X140575000Y-59520000D01*
X140419408Y-59540249D01*
X140270756Y-59590463D01*
X140134757Y-59668713D01*
X140016637Y-59771992D01*
X139920935Y-59896330D01*
X139851329Y-60036950D01*
X139814146Y-60170221D01*
X138879000Y-60170221D01*
X138879000Y-57930662D01*
X143795916Y-57930662D01*
X143795916Y-58069338D01*
X143822971Y-58205349D01*
X143876040Y-58333469D01*
X143953084Y-58448774D01*
X144051142Y-58546832D01*
X144082366Y-58567695D01*
X144049651Y-58628901D01*
X144010825Y-58756893D01*
X143997715Y-58890000D01*
X144010825Y-59023107D01*
X144049651Y-59151099D01*
X144112701Y-59269057D01*
X144197552Y-59372448D01*
X144300943Y-59457299D01*
X144418901Y-59520349D01*
X144473966Y-59537053D01*
X144449408Y-59540249D01*
X144300756Y-59590463D01*
X144164757Y-59668713D01*
X144046637Y-59771992D01*
X143950935Y-59896330D01*
X143881329Y-60036950D01*
X143844146Y-60170221D01*
X143905431Y-60295000D01*
X145155000Y-60295000D01*
X145155000Y-60275000D01*
X145205000Y-60275000D01*
X145205000Y-60295000D01*
X146454569Y-60295000D01*
X146515854Y-60170221D01*
X146478671Y-60036950D01*
X146409065Y-59896330D01*
X146313363Y-59771992D01*
X146261164Y-59726351D01*
X147134700Y-59726351D01*
X147134700Y-59893649D01*
X147167339Y-60057732D01*
X147231360Y-60212294D01*
X147324306Y-60351397D01*
X147442603Y-60469694D01*
X147581706Y-60562640D01*
X147736268Y-60626661D01*
X147900351Y-60659300D01*
X148067649Y-60659300D01*
X148231732Y-60626661D01*
X148386294Y-60562640D01*
X148525397Y-60469694D01*
X148643694Y-60351397D01*
X148736640Y-60212294D01*
X148800661Y-60057732D01*
X148833300Y-59893649D01*
X148833300Y-59726351D01*
X148800661Y-59562268D01*
X148736640Y-59407706D01*
X148643694Y-59268603D01*
X148525397Y-59150306D01*
X148386294Y-59057360D01*
X148231732Y-58993339D01*
X148067649Y-58960700D01*
X147900351Y-58960700D01*
X147736268Y-58993339D01*
X147581706Y-59057360D01*
X147442603Y-59150306D01*
X147324306Y-59268603D01*
X147231360Y-59407706D01*
X147167339Y-59562268D01*
X147134700Y-59726351D01*
X146261164Y-59726351D01*
X146195243Y-59668713D01*
X146059244Y-59590463D01*
X145910592Y-59540249D01*
X145755000Y-59520000D01*
X144941752Y-59520000D01*
X145059057Y-59457299D01*
X145162448Y-59372448D01*
X145247299Y-59269057D01*
X145310349Y-59151099D01*
X145349175Y-59023107D01*
X145362285Y-58890000D01*
X145349175Y-58756893D01*
X145310349Y-58628901D01*
X145247299Y-58510943D01*
X145162448Y-58407552D01*
X145105513Y-58360826D01*
X145123792Y-58333469D01*
X145176861Y-58205349D01*
X145203916Y-58069338D01*
X145203916Y-57930662D01*
X146296000Y-57930662D01*
X146296000Y-58069338D01*
X146323055Y-58205349D01*
X146376124Y-58333469D01*
X146453168Y-58448774D01*
X146551226Y-58546832D01*
X146666531Y-58623876D01*
X146794651Y-58676945D01*
X146930662Y-58704000D01*
X147069338Y-58704000D01*
X147205349Y-58676945D01*
X147333469Y-58623876D01*
X147448774Y-58546832D01*
X147524944Y-58470662D01*
X148931000Y-58470662D01*
X148931000Y-58609338D01*
X148958055Y-58745349D01*
X149011124Y-58873469D01*
X149088168Y-58988774D01*
X149186226Y-59086832D01*
X149301531Y-59163876D01*
X149414316Y-59210593D01*
X149356306Y-59268603D01*
X149263360Y-59407706D01*
X149199339Y-59562268D01*
X149166700Y-59726351D01*
X149166700Y-59893649D01*
X149199339Y-60057732D01*
X149263360Y-60212294D01*
X149356306Y-60351397D01*
X149474603Y-60469694D01*
X149613706Y-60562640D01*
X149768268Y-60626661D01*
X149932351Y-60659300D01*
X150099649Y-60659300D01*
X150263732Y-60626661D01*
X150418294Y-60562640D01*
X150557397Y-60469694D01*
X150675694Y-60351397D01*
X150768640Y-60212294D01*
X150832661Y-60057732D01*
X150857937Y-59930662D01*
X156296000Y-59930662D01*
X156296000Y-60069338D01*
X156323055Y-60205349D01*
X156376124Y-60333469D01*
X156453168Y-60448774D01*
X156504394Y-60500000D01*
X156453168Y-60551226D01*
X156376124Y-60666531D01*
X156323055Y-60794651D01*
X156296000Y-60930662D01*
X156296000Y-61069338D01*
X156323055Y-61205349D01*
X156376124Y-61333469D01*
X156453168Y-61448774D01*
X156551226Y-61546832D01*
X156666531Y-61623876D01*
X156794651Y-61676945D01*
X156930662Y-61704000D01*
X157069338Y-61704000D01*
X157205349Y-61676945D01*
X157333469Y-61623876D01*
X157448774Y-61546832D01*
X157546832Y-61448774D01*
X157623876Y-61333469D01*
X157676945Y-61205349D01*
X157704000Y-61069338D01*
X157704000Y-60930662D01*
X157676945Y-60794651D01*
X157623876Y-60666531D01*
X157546832Y-60551226D01*
X157495606Y-60500000D01*
X157546832Y-60448774D01*
X157623876Y-60333469D01*
X157676945Y-60205349D01*
X157704000Y-60069338D01*
X157704000Y-59930662D01*
X163296000Y-59930662D01*
X163296000Y-60069338D01*
X163323055Y-60205349D01*
X163376124Y-60333469D01*
X163453168Y-60448774D01*
X163551226Y-60546832D01*
X163666531Y-60623876D01*
X163794651Y-60676945D01*
X163930662Y-60704000D01*
X164069338Y-60704000D01*
X164205349Y-60676945D01*
X164333469Y-60623876D01*
X164448774Y-60546832D01*
X164546832Y-60448774D01*
X164623876Y-60333469D01*
X164676945Y-60205349D01*
X164704000Y-60069338D01*
X164704000Y-59930662D01*
X165796000Y-59930662D01*
X165796000Y-60069338D01*
X165823055Y-60205349D01*
X165876124Y-60333469D01*
X165953168Y-60448774D01*
X166051226Y-60546832D01*
X166166531Y-60623876D01*
X166294651Y-60676945D01*
X166430662Y-60704000D01*
X166569338Y-60704000D01*
X166705349Y-60676945D01*
X166833469Y-60623876D01*
X166948774Y-60546832D01*
X167046832Y-60448774D01*
X167123876Y-60333469D01*
X167176945Y-60205349D01*
X167204000Y-60069338D01*
X167204000Y-59930662D01*
X169796000Y-59930662D01*
X169796000Y-60069338D01*
X169823055Y-60205349D01*
X169876124Y-60333469D01*
X169953168Y-60448774D01*
X170051226Y-60546832D01*
X170166531Y-60623876D01*
X170294651Y-60676945D01*
X170430662Y-60704000D01*
X170569338Y-60704000D01*
X170705349Y-60676945D01*
X170833469Y-60623876D01*
X170948774Y-60546832D01*
X171046832Y-60448774D01*
X171123876Y-60333469D01*
X171176945Y-60205349D01*
X171204000Y-60069338D01*
X171204000Y-59930662D01*
X171796000Y-59930662D01*
X171796000Y-60069338D01*
X171823055Y-60205349D01*
X171876124Y-60333469D01*
X171953168Y-60448774D01*
X172051226Y-60546832D01*
X172166531Y-60623876D01*
X172294651Y-60676945D01*
X172430662Y-60704000D01*
X172569338Y-60704000D01*
X172705349Y-60676945D01*
X172833469Y-60623876D01*
X172948774Y-60546832D01*
X173046832Y-60448774D01*
X173123876Y-60333469D01*
X173176945Y-60205349D01*
X173204000Y-60069338D01*
X173204000Y-59930662D01*
X173176945Y-59794651D01*
X173123876Y-59666531D01*
X173046832Y-59551226D01*
X172948774Y-59453168D01*
X172833469Y-59376124D01*
X172705349Y-59323055D01*
X172569338Y-59296000D01*
X172430662Y-59296000D01*
X172294651Y-59323055D01*
X172166531Y-59376124D01*
X172051226Y-59453168D01*
X171953168Y-59551226D01*
X171876124Y-59666531D01*
X171823055Y-59794651D01*
X171796000Y-59930662D01*
X171204000Y-59930662D01*
X171176945Y-59794651D01*
X171123876Y-59666531D01*
X171046832Y-59551226D01*
X170948774Y-59453168D01*
X170833469Y-59376124D01*
X170705349Y-59323055D01*
X170569338Y-59296000D01*
X170430662Y-59296000D01*
X170294651Y-59323055D01*
X170166531Y-59376124D01*
X170051226Y-59453168D01*
X169953168Y-59551226D01*
X169876124Y-59666531D01*
X169823055Y-59794651D01*
X169796000Y-59930662D01*
X167204000Y-59930662D01*
X167176945Y-59794651D01*
X167123876Y-59666531D01*
X167046832Y-59551226D01*
X166948774Y-59453168D01*
X166833469Y-59376124D01*
X166705349Y-59323055D01*
X166569338Y-59296000D01*
X166430662Y-59296000D01*
X166294651Y-59323055D01*
X166166531Y-59376124D01*
X166051226Y-59453168D01*
X165953168Y-59551226D01*
X165876124Y-59666531D01*
X165823055Y-59794651D01*
X165796000Y-59930662D01*
X164704000Y-59930662D01*
X164676945Y-59794651D01*
X164623876Y-59666531D01*
X164546832Y-59551226D01*
X164448774Y-59453168D01*
X164333469Y-59376124D01*
X164205349Y-59323055D01*
X164069338Y-59296000D01*
X163930662Y-59296000D01*
X163794651Y-59323055D01*
X163666531Y-59376124D01*
X163551226Y-59453168D01*
X163453168Y-59551226D01*
X163376124Y-59666531D01*
X163323055Y-59794651D01*
X163296000Y-59930662D01*
X157704000Y-59930662D01*
X157676945Y-59794651D01*
X157623876Y-59666531D01*
X157546832Y-59551226D01*
X157448774Y-59453168D01*
X157333469Y-59376124D01*
X157205349Y-59323055D01*
X157069338Y-59296000D01*
X156930662Y-59296000D01*
X156794651Y-59323055D01*
X156666531Y-59376124D01*
X156551226Y-59453168D01*
X156453168Y-59551226D01*
X156376124Y-59666531D01*
X156323055Y-59794651D01*
X156296000Y-59930662D01*
X150857937Y-59930662D01*
X150865300Y-59893649D01*
X150865300Y-59726351D01*
X150832661Y-59562268D01*
X150768640Y-59407706D01*
X150675694Y-59268603D01*
X150557397Y-59150306D01*
X150418294Y-59057360D01*
X150263732Y-58993339D01*
X150188748Y-58978423D01*
X150220660Y-58930662D01*
X161296000Y-58930662D01*
X161296000Y-59069338D01*
X161323055Y-59205349D01*
X161376124Y-59333469D01*
X161453168Y-59448774D01*
X161551226Y-59546832D01*
X161666531Y-59623876D01*
X161794651Y-59676945D01*
X161930662Y-59704000D01*
X162069338Y-59704000D01*
X162205349Y-59676945D01*
X162333469Y-59623876D01*
X162448774Y-59546832D01*
X162546832Y-59448774D01*
X162623876Y-59333469D01*
X162676945Y-59205349D01*
X162704000Y-59069338D01*
X162704000Y-58930662D01*
X162676945Y-58794651D01*
X162623876Y-58666531D01*
X162546832Y-58551226D01*
X162448774Y-58453168D01*
X162415092Y-58430662D01*
X164546000Y-58430662D01*
X164546000Y-58569338D01*
X164573055Y-58705349D01*
X164626124Y-58833469D01*
X164703168Y-58948774D01*
X164801226Y-59046832D01*
X164916531Y-59123876D01*
X165044651Y-59176945D01*
X165180662Y-59204000D01*
X165319338Y-59204000D01*
X165455349Y-59176945D01*
X165583469Y-59123876D01*
X165698774Y-59046832D01*
X165796832Y-58948774D01*
X165873876Y-58833469D01*
X165926945Y-58705349D01*
X165930042Y-58689779D01*
X173214146Y-58689779D01*
X173216646Y-58702357D01*
X173263372Y-58852062D01*
X173338406Y-58989775D01*
X173438865Y-59110203D01*
X173560888Y-59208719D01*
X173699786Y-59281536D01*
X173850221Y-59325856D01*
X173975000Y-59264611D01*
X173975000Y-58565000D01*
X173275431Y-58565000D01*
X173214146Y-58689779D01*
X165930042Y-58689779D01*
X165954000Y-58569338D01*
X165954000Y-58430662D01*
X165926945Y-58294651D01*
X165873876Y-58166531D01*
X165796832Y-58051226D01*
X165698774Y-57953168D01*
X165583469Y-57876124D01*
X165455349Y-57823055D01*
X165319338Y-57796000D01*
X165180662Y-57796000D01*
X165044651Y-57823055D01*
X164916531Y-57876124D01*
X164801226Y-57953168D01*
X164703168Y-58051226D01*
X164626124Y-58166531D01*
X164573055Y-58294651D01*
X164546000Y-58430662D01*
X162415092Y-58430662D01*
X162333469Y-58376124D01*
X162205349Y-58323055D01*
X162069338Y-58296000D01*
X161930662Y-58296000D01*
X161794651Y-58323055D01*
X161666531Y-58376124D01*
X161551226Y-58453168D01*
X161453168Y-58551226D01*
X161376124Y-58666531D01*
X161323055Y-58794651D01*
X161296000Y-58930662D01*
X150220660Y-58930662D01*
X150258876Y-58873469D01*
X150311945Y-58745349D01*
X150339000Y-58609338D01*
X150339000Y-58470662D01*
X150311945Y-58334651D01*
X150258876Y-58206531D01*
X150181832Y-58091226D01*
X150083774Y-57993168D01*
X149968469Y-57916124D01*
X149840349Y-57863055D01*
X149704338Y-57836000D01*
X149565662Y-57836000D01*
X149429651Y-57863055D01*
X149301531Y-57916124D01*
X149186226Y-57993168D01*
X149088168Y-58091226D01*
X149011124Y-58206531D01*
X148958055Y-58334651D01*
X148931000Y-58470662D01*
X147524944Y-58470662D01*
X147546832Y-58448774D01*
X147623876Y-58333469D01*
X147676945Y-58205349D01*
X147704000Y-58069338D01*
X147704000Y-57930662D01*
X147676945Y-57794651D01*
X147623876Y-57666531D01*
X147546832Y-57551226D01*
X147448774Y-57453168D01*
X147333469Y-57376124D01*
X147205349Y-57323055D01*
X147069338Y-57296000D01*
X146930662Y-57296000D01*
X146794651Y-57323055D01*
X146666531Y-57376124D01*
X146551226Y-57453168D01*
X146453168Y-57551226D01*
X146376124Y-57666531D01*
X146323055Y-57794651D01*
X146296000Y-57930662D01*
X145203916Y-57930662D01*
X145176861Y-57794651D01*
X145123792Y-57666531D01*
X145046748Y-57551226D01*
X144995564Y-57500042D01*
X145046832Y-57448774D01*
X145123876Y-57333469D01*
X145176945Y-57205349D01*
X145204000Y-57069338D01*
X145204000Y-56930662D01*
X154296000Y-56930662D01*
X154296000Y-57069338D01*
X154323055Y-57205349D01*
X154376124Y-57333469D01*
X154453168Y-57448774D01*
X154504394Y-57500000D01*
X154453168Y-57551226D01*
X154376124Y-57666531D01*
X154323055Y-57794651D01*
X154296000Y-57930662D01*
X154296000Y-58069338D01*
X154323055Y-58205349D01*
X154376124Y-58333469D01*
X154453168Y-58448774D01*
X154551226Y-58546832D01*
X154666531Y-58623876D01*
X154794651Y-58676945D01*
X154930662Y-58704000D01*
X155069338Y-58704000D01*
X155205349Y-58676945D01*
X155333469Y-58623876D01*
X155448774Y-58546832D01*
X155546832Y-58448774D01*
X155623876Y-58333469D01*
X155676945Y-58205349D01*
X155704000Y-58069338D01*
X155704000Y-57930662D01*
X157296000Y-57930662D01*
X157296000Y-58069338D01*
X157323055Y-58205349D01*
X157376124Y-58333469D01*
X157453168Y-58448774D01*
X157551226Y-58546832D01*
X157666531Y-58623876D01*
X157794651Y-58676945D01*
X157930662Y-58704000D01*
X158069338Y-58704000D01*
X158205349Y-58676945D01*
X158333469Y-58623876D01*
X158448774Y-58546832D01*
X158500000Y-58495606D01*
X158551226Y-58546832D01*
X158666531Y-58623876D01*
X158794651Y-58676945D01*
X158930662Y-58704000D01*
X159069338Y-58704000D01*
X159205349Y-58676945D01*
X159333469Y-58623876D01*
X159448774Y-58546832D01*
X159546832Y-58448774D01*
X159623876Y-58333469D01*
X159676945Y-58205349D01*
X159704000Y-58069338D01*
X159704000Y-57930662D01*
X159676945Y-57794651D01*
X159623876Y-57666531D01*
X159546832Y-57551226D01*
X159448774Y-57453168D01*
X159333469Y-57376124D01*
X159205349Y-57323055D01*
X159069338Y-57296000D01*
X158930662Y-57296000D01*
X158794651Y-57323055D01*
X158666531Y-57376124D01*
X158551226Y-57453168D01*
X158500000Y-57504394D01*
X158448774Y-57453168D01*
X158333469Y-57376124D01*
X158205349Y-57323055D01*
X158069338Y-57296000D01*
X157930662Y-57296000D01*
X157794651Y-57323055D01*
X157666531Y-57376124D01*
X157551226Y-57453168D01*
X157453168Y-57551226D01*
X157376124Y-57666531D01*
X157323055Y-57794651D01*
X157296000Y-57930662D01*
X155704000Y-57930662D01*
X155676945Y-57794651D01*
X155623876Y-57666531D01*
X155546832Y-57551226D01*
X155495606Y-57500000D01*
X155546832Y-57448774D01*
X155623876Y-57333469D01*
X155650165Y-57270000D01*
X173141868Y-57270000D01*
X173158357Y-57437413D01*
X173207189Y-57598393D01*
X173286489Y-57746753D01*
X173393209Y-57876791D01*
X173472978Y-57942256D01*
X173438865Y-57969797D01*
X173338406Y-58090225D01*
X173263372Y-58227938D01*
X173216646Y-58377643D01*
X173214146Y-58390221D01*
X173275431Y-58515000D01*
X173975000Y-58515000D01*
X173975000Y-58495000D01*
X174025000Y-58495000D01*
X174025000Y-58515000D01*
X174045000Y-58515000D01*
X174045000Y-58565000D01*
X174025000Y-58565000D01*
X174025000Y-59264611D01*
X174149779Y-59325856D01*
X174300214Y-59281536D01*
X174439112Y-59208719D01*
X174561135Y-59110203D01*
X174597452Y-59066667D01*
X174663209Y-59146791D01*
X174793247Y-59253511D01*
X174941607Y-59332811D01*
X175102587Y-59381643D01*
X175228048Y-59394000D01*
X175311952Y-59394000D01*
X175437413Y-59381643D01*
X175598393Y-59332811D01*
X175746753Y-59253511D01*
X175876791Y-59146791D01*
X175983511Y-59016753D01*
X176062811Y-58868393D01*
X176111643Y-58707413D01*
X176128132Y-58540000D01*
X176111643Y-58372587D01*
X176062811Y-58211607D01*
X175983511Y-58063247D01*
X175876791Y-57933209D01*
X175842418Y-57905000D01*
X175876791Y-57876791D01*
X175983511Y-57746753D01*
X176062811Y-57598393D01*
X176111643Y-57437413D01*
X176128132Y-57270000D01*
X176111643Y-57102587D01*
X176062811Y-56941607D01*
X175983511Y-56793247D01*
X175876791Y-56663209D01*
X175842418Y-56635000D01*
X175876791Y-56606791D01*
X175983511Y-56476753D01*
X176062811Y-56328393D01*
X176111643Y-56167413D01*
X176128132Y-56000000D01*
X176121303Y-55930662D01*
X176796000Y-55930662D01*
X176796000Y-56069338D01*
X176823055Y-56205349D01*
X176876124Y-56333469D01*
X176953168Y-56448774D01*
X177051226Y-56546832D01*
X177166531Y-56623876D01*
X177294651Y-56676945D01*
X177430662Y-56704000D01*
X177569338Y-56704000D01*
X177705349Y-56676945D01*
X177833469Y-56623876D01*
X177948774Y-56546832D01*
X178046832Y-56448774D01*
X178123876Y-56333469D01*
X178176945Y-56205349D01*
X178204000Y-56069338D01*
X178204000Y-55930662D01*
X178176945Y-55794651D01*
X178123876Y-55666531D01*
X178046832Y-55551226D01*
X177948774Y-55453168D01*
X177833469Y-55376124D01*
X177705349Y-55323055D01*
X177569338Y-55296000D01*
X177430662Y-55296000D01*
X177294651Y-55323055D01*
X177166531Y-55376124D01*
X177051226Y-55453168D01*
X176953168Y-55551226D01*
X176876124Y-55666531D01*
X176823055Y-55794651D01*
X176796000Y-55930662D01*
X176121303Y-55930662D01*
X176111643Y-55832587D01*
X176062811Y-55671607D01*
X175983511Y-55523247D01*
X175876791Y-55393209D01*
X175842418Y-55365000D01*
X175876791Y-55336791D01*
X175983511Y-55206753D01*
X176062811Y-55058393D01*
X176111643Y-54897413D01*
X176128132Y-54730000D01*
X176111643Y-54562587D01*
X176062811Y-54401607D01*
X175983511Y-54253247D01*
X175876791Y-54123209D01*
X175842418Y-54095000D01*
X175876791Y-54066791D01*
X175983511Y-53936753D01*
X175986766Y-53930662D01*
X176296000Y-53930662D01*
X176296000Y-54069338D01*
X176323055Y-54205349D01*
X176376124Y-54333469D01*
X176453168Y-54448774D01*
X176551226Y-54546832D01*
X176666531Y-54623876D01*
X176794651Y-54676945D01*
X176930662Y-54704000D01*
X177069338Y-54704000D01*
X177205349Y-54676945D01*
X177333469Y-54623876D01*
X177448774Y-54546832D01*
X177546832Y-54448774D01*
X177623876Y-54333469D01*
X177676945Y-54205349D01*
X177704000Y-54069338D01*
X177704000Y-53930662D01*
X177676945Y-53794651D01*
X177623876Y-53666531D01*
X177546832Y-53551226D01*
X177448774Y-53453168D01*
X177333469Y-53376124D01*
X177205349Y-53323055D01*
X177069338Y-53296000D01*
X176930662Y-53296000D01*
X176794651Y-53323055D01*
X176666531Y-53376124D01*
X176551226Y-53453168D01*
X176453168Y-53551226D01*
X176376124Y-53666531D01*
X176323055Y-53794651D01*
X176296000Y-53930662D01*
X175986766Y-53930662D01*
X176062811Y-53788393D01*
X176111643Y-53627413D01*
X176128132Y-53460000D01*
X176111643Y-53292587D01*
X176062811Y-53131607D01*
X175983511Y-52983247D01*
X175876791Y-52853209D01*
X175746753Y-52746489D01*
X175598393Y-52667189D01*
X175437413Y-52618357D01*
X175311952Y-52606000D01*
X175228048Y-52606000D01*
X175102587Y-52618357D01*
X174941607Y-52667189D01*
X174793247Y-52746489D01*
X174786960Y-52751649D01*
X174751526Y-52708474D01*
X174697623Y-52664236D01*
X174636125Y-52631365D01*
X174569396Y-52611123D01*
X174500000Y-52604288D01*
X173500000Y-52604288D01*
X173430604Y-52611123D01*
X173363875Y-52631365D01*
X173302377Y-52664236D01*
X173248474Y-52708474D01*
X173204236Y-52762377D01*
X173171365Y-52823875D01*
X173151123Y-52890604D01*
X173144288Y-52960000D01*
X173144288Y-53960000D01*
X173151123Y-54029396D01*
X173171365Y-54096125D01*
X173204236Y-54157623D01*
X173248474Y-54211526D01*
X173302377Y-54255764D01*
X173341408Y-54276626D01*
X173338406Y-54280225D01*
X173263372Y-54417938D01*
X173216646Y-54567643D01*
X173214146Y-54580221D01*
X173275431Y-54705000D01*
X173975000Y-54705000D01*
X173975000Y-54685000D01*
X174025000Y-54685000D01*
X174025000Y-54705000D01*
X174045000Y-54705000D01*
X174045000Y-54755000D01*
X174025000Y-54755000D01*
X174025000Y-55975000D01*
X174045000Y-55975000D01*
X174045000Y-56025000D01*
X174025000Y-56025000D01*
X174025000Y-56045000D01*
X173975000Y-56045000D01*
X173975000Y-56025000D01*
X173275431Y-56025000D01*
X173214146Y-56149779D01*
X173216646Y-56162357D01*
X173263372Y-56312062D01*
X173338406Y-56449775D01*
X173438865Y-56570203D01*
X173472978Y-56597744D01*
X173393209Y-56663209D01*
X173286489Y-56793247D01*
X173207189Y-56941607D01*
X173158357Y-57102587D01*
X173141868Y-57270000D01*
X155650165Y-57270000D01*
X155676945Y-57205349D01*
X155704000Y-57069338D01*
X155704000Y-56930662D01*
X155676945Y-56794651D01*
X155623876Y-56666531D01*
X155546832Y-56551226D01*
X155448774Y-56453168D01*
X155333469Y-56376124D01*
X155205349Y-56323055D01*
X155069338Y-56296000D01*
X154930662Y-56296000D01*
X154794651Y-56323055D01*
X154666531Y-56376124D01*
X154551226Y-56453168D01*
X154453168Y-56551226D01*
X154376124Y-56666531D01*
X154323055Y-56794651D01*
X154296000Y-56930662D01*
X145204000Y-56930662D01*
X145176945Y-56794651D01*
X145123876Y-56666531D01*
X145046832Y-56551226D01*
X144948774Y-56453168D01*
X144833469Y-56376124D01*
X144705349Y-56323055D01*
X144569338Y-56296000D01*
X144430662Y-56296000D01*
X144294651Y-56323055D01*
X144166531Y-56376124D01*
X144051226Y-56453168D01*
X143953168Y-56551226D01*
X143876124Y-56666531D01*
X143823055Y-56794651D01*
X143796000Y-56930662D01*
X143796000Y-57069338D01*
X143823055Y-57205349D01*
X143876124Y-57333469D01*
X143953168Y-57448774D01*
X144004352Y-57499958D01*
X143953084Y-57551226D01*
X143876040Y-57666531D01*
X143822971Y-57794651D01*
X143795916Y-57930662D01*
X138879000Y-57930662D01*
X138879000Y-53930662D01*
X143796000Y-53930662D01*
X143796000Y-54069338D01*
X143823055Y-54205349D01*
X143876124Y-54333469D01*
X143953168Y-54448774D01*
X144004394Y-54500000D01*
X143953168Y-54551226D01*
X143876124Y-54666531D01*
X143823055Y-54794651D01*
X143796000Y-54930662D01*
X143796000Y-55069338D01*
X143823055Y-55205349D01*
X143876124Y-55333469D01*
X143953168Y-55448774D01*
X144051226Y-55546832D01*
X144166531Y-55623876D01*
X144294651Y-55676945D01*
X144430662Y-55704000D01*
X144569338Y-55704000D01*
X144705349Y-55676945D01*
X144833469Y-55623876D01*
X144948774Y-55546832D01*
X145046832Y-55448774D01*
X145123876Y-55333469D01*
X145176945Y-55205349D01*
X145204000Y-55069338D01*
X145204000Y-54930662D01*
X158296000Y-54930662D01*
X158296000Y-55069338D01*
X158323055Y-55205349D01*
X158376124Y-55333469D01*
X158453168Y-55448774D01*
X158551226Y-55546832D01*
X158666531Y-55623876D01*
X158794651Y-55676945D01*
X158930662Y-55704000D01*
X159069338Y-55704000D01*
X159205349Y-55676945D01*
X159333469Y-55623876D01*
X159448774Y-55546832D01*
X159546832Y-55448774D01*
X159623876Y-55333469D01*
X159676945Y-55205349D01*
X159704000Y-55069338D01*
X159704000Y-54930662D01*
X159676945Y-54794651D01*
X159623876Y-54666531D01*
X159546832Y-54551226D01*
X159448774Y-54453168D01*
X159415092Y-54430662D01*
X162296000Y-54430662D01*
X162296000Y-54569338D01*
X162323055Y-54705349D01*
X162376124Y-54833469D01*
X162453168Y-54948774D01*
X162551226Y-55046832D01*
X162666531Y-55123876D01*
X162794651Y-55176945D01*
X162930662Y-55204000D01*
X163069338Y-55204000D01*
X163205349Y-55176945D01*
X163333469Y-55123876D01*
X163448774Y-55046832D01*
X163546832Y-54948774D01*
X163623876Y-54833469D01*
X163676945Y-54705349D01*
X163704000Y-54569338D01*
X163704000Y-54430662D01*
X163676945Y-54294651D01*
X163623876Y-54166531D01*
X163546832Y-54051226D01*
X163448774Y-53953168D01*
X163415092Y-53930662D01*
X165796000Y-53930662D01*
X165796000Y-54069338D01*
X165823055Y-54205349D01*
X165876124Y-54333469D01*
X165953168Y-54448774D01*
X166051226Y-54546832D01*
X166166531Y-54623876D01*
X166294651Y-54676945D01*
X166365937Y-54691125D01*
X166323055Y-54794651D01*
X166296000Y-54930662D01*
X166296000Y-55069338D01*
X166323055Y-55205349D01*
X166376124Y-55333469D01*
X166453168Y-55448774D01*
X166551226Y-55546832D01*
X166666531Y-55623876D01*
X166794651Y-55676945D01*
X166930662Y-55704000D01*
X167069338Y-55704000D01*
X167205349Y-55676945D01*
X167333469Y-55623876D01*
X167448774Y-55546832D01*
X167546832Y-55448774D01*
X167623876Y-55333469D01*
X167676945Y-55205349D01*
X167704000Y-55069338D01*
X167704000Y-54930662D01*
X167693879Y-54879779D01*
X173214146Y-54879779D01*
X173216646Y-54892357D01*
X173263372Y-55042062D01*
X173338406Y-55179775D01*
X173438865Y-55300203D01*
X173519123Y-55365000D01*
X173438865Y-55429797D01*
X173338406Y-55550225D01*
X173263372Y-55687938D01*
X173216646Y-55837643D01*
X173214146Y-55850221D01*
X173275431Y-55975000D01*
X173975000Y-55975000D01*
X173975000Y-54755000D01*
X173275431Y-54755000D01*
X173214146Y-54879779D01*
X167693879Y-54879779D01*
X167676945Y-54794651D01*
X167623876Y-54666531D01*
X167546832Y-54551226D01*
X167448774Y-54453168D01*
X167333469Y-54376124D01*
X167205349Y-54323055D01*
X167134063Y-54308875D01*
X167176945Y-54205349D01*
X167204000Y-54069338D01*
X167204000Y-53930662D01*
X167176945Y-53794651D01*
X167123876Y-53666531D01*
X167046832Y-53551226D01*
X166948774Y-53453168D01*
X166833469Y-53376124D01*
X166705349Y-53323055D01*
X166569338Y-53296000D01*
X166430662Y-53296000D01*
X166294651Y-53323055D01*
X166166531Y-53376124D01*
X166051226Y-53453168D01*
X165953168Y-53551226D01*
X165876124Y-53666531D01*
X165823055Y-53794651D01*
X165796000Y-53930662D01*
X163415092Y-53930662D01*
X163333469Y-53876124D01*
X163205349Y-53823055D01*
X163069338Y-53796000D01*
X162930662Y-53796000D01*
X162794651Y-53823055D01*
X162666531Y-53876124D01*
X162551226Y-53953168D01*
X162453168Y-54051226D01*
X162376124Y-54166531D01*
X162323055Y-54294651D01*
X162296000Y-54430662D01*
X159415092Y-54430662D01*
X159333469Y-54376124D01*
X159205349Y-54323055D01*
X159069338Y-54296000D01*
X158930662Y-54296000D01*
X158794651Y-54323055D01*
X158666531Y-54376124D01*
X158551226Y-54453168D01*
X158453168Y-54551226D01*
X158376124Y-54666531D01*
X158323055Y-54794651D01*
X158296000Y-54930662D01*
X145204000Y-54930662D01*
X145176945Y-54794651D01*
X145123876Y-54666531D01*
X145046832Y-54551226D01*
X144995606Y-54500000D01*
X145046832Y-54448774D01*
X145123876Y-54333469D01*
X145176945Y-54205349D01*
X145204000Y-54069338D01*
X145204000Y-53930662D01*
X146296000Y-53930662D01*
X146296000Y-54069338D01*
X146323055Y-54205349D01*
X146376124Y-54333469D01*
X146453168Y-54448774D01*
X146551226Y-54546832D01*
X146666531Y-54623876D01*
X146794651Y-54676945D01*
X146930662Y-54704000D01*
X147069338Y-54704000D01*
X147205349Y-54676945D01*
X147333469Y-54623876D01*
X147448774Y-54546832D01*
X147546832Y-54448774D01*
X147623876Y-54333469D01*
X147676945Y-54205349D01*
X147704000Y-54069338D01*
X147704000Y-53930662D01*
X155296000Y-53930662D01*
X155296000Y-54069338D01*
X155323055Y-54205349D01*
X155376124Y-54333469D01*
X155453168Y-54448774D01*
X155551226Y-54546832D01*
X155666531Y-54623876D01*
X155794651Y-54676945D01*
X155930662Y-54704000D01*
X156069338Y-54704000D01*
X156205349Y-54676945D01*
X156333469Y-54623876D01*
X156448774Y-54546832D01*
X156546832Y-54448774D01*
X156623876Y-54333469D01*
X156676945Y-54205349D01*
X156704000Y-54069338D01*
X156704000Y-53930662D01*
X156676945Y-53794651D01*
X156623876Y-53666531D01*
X156546832Y-53551226D01*
X156448774Y-53453168D01*
X156333469Y-53376124D01*
X156205349Y-53323055D01*
X156069338Y-53296000D01*
X155930662Y-53296000D01*
X155794651Y-53323055D01*
X155666531Y-53376124D01*
X155551226Y-53453168D01*
X155453168Y-53551226D01*
X155376124Y-53666531D01*
X155323055Y-53794651D01*
X155296000Y-53930662D01*
X147704000Y-53930662D01*
X147676945Y-53794651D01*
X147623876Y-53666531D01*
X147546832Y-53551226D01*
X147448774Y-53453168D01*
X147333469Y-53376124D01*
X147205349Y-53323055D01*
X147069338Y-53296000D01*
X146930662Y-53296000D01*
X146794651Y-53323055D01*
X146666531Y-53376124D01*
X146551226Y-53453168D01*
X146453168Y-53551226D01*
X146376124Y-53666531D01*
X146323055Y-53794651D01*
X146296000Y-53930662D01*
X145204000Y-53930662D01*
X145176945Y-53794651D01*
X145123876Y-53666531D01*
X145105567Y-53639129D01*
X145162448Y-53592448D01*
X145247299Y-53489057D01*
X145310349Y-53371099D01*
X145349175Y-53243107D01*
X145362285Y-53110000D01*
X145349175Y-52976893D01*
X145310349Y-52848901D01*
X145247299Y-52730943D01*
X145162448Y-52627552D01*
X145059057Y-52542701D01*
X144941752Y-52480000D01*
X145155000Y-52480000D01*
X145155000Y-51705000D01*
X143905431Y-51705000D01*
X143844146Y-51829779D01*
X143881329Y-51963050D01*
X143950935Y-52103670D01*
X144046637Y-52228008D01*
X144164757Y-52331287D01*
X144300756Y-52409537D01*
X144449408Y-52459751D01*
X144473966Y-52462947D01*
X144418901Y-52479651D01*
X144300943Y-52542701D01*
X144197552Y-52627552D01*
X144112701Y-52730943D01*
X144049651Y-52848901D01*
X144010825Y-52976893D01*
X143997715Y-53110000D01*
X144010825Y-53243107D01*
X144049651Y-53371099D01*
X144082388Y-53432346D01*
X144051226Y-53453168D01*
X143953168Y-53551226D01*
X143876124Y-53666531D01*
X143823055Y-53794651D01*
X143796000Y-53930662D01*
X138879000Y-53930662D01*
X138879000Y-51829779D01*
X139814146Y-51829779D01*
X139851329Y-51963050D01*
X139920935Y-52103670D01*
X140016637Y-52228008D01*
X140134757Y-52331287D01*
X140270756Y-52409537D01*
X140419408Y-52459751D01*
X140575000Y-52480000D01*
X140975000Y-52480000D01*
X140975000Y-51705000D01*
X141025000Y-51705000D01*
X141025000Y-52480000D01*
X141425000Y-52480000D01*
X141580592Y-52459751D01*
X141729244Y-52409537D01*
X141865243Y-52331287D01*
X141983363Y-52228008D01*
X142079065Y-52103670D01*
X142148671Y-51963050D01*
X142185854Y-51829779D01*
X142124569Y-51705000D01*
X141025000Y-51705000D01*
X140975000Y-51705000D01*
X139875431Y-51705000D01*
X139814146Y-51829779D01*
X138879000Y-51829779D01*
X138879000Y-51337773D01*
X138953168Y-51448774D01*
X139051226Y-51546832D01*
X139166531Y-51623876D01*
X139294651Y-51676945D01*
X139430662Y-51704000D01*
X139569338Y-51704000D01*
X139705349Y-51676945D01*
X139833469Y-51623876D01*
X139853553Y-51610456D01*
X139875431Y-51655000D01*
X140975000Y-51655000D01*
X140975000Y-51635000D01*
X141025000Y-51635000D01*
X141025000Y-51655000D01*
X142124569Y-51655000D01*
X142185854Y-51530221D01*
X143844146Y-51530221D01*
X143905431Y-51655000D01*
X145155000Y-51655000D01*
X145155000Y-51635000D01*
X145205000Y-51635000D01*
X145205000Y-51655000D01*
X145225000Y-51655000D01*
X145225000Y-51705000D01*
X145205000Y-51705000D01*
X145205000Y-52480000D01*
X145755000Y-52480000D01*
X145910592Y-52459751D01*
X146059244Y-52409537D01*
X146195243Y-52331287D01*
X146309361Y-52231507D01*
X146323055Y-52300349D01*
X146376124Y-52428469D01*
X146453168Y-52543774D01*
X146551226Y-52641832D01*
X146666531Y-52718876D01*
X146794651Y-52771945D01*
X146930662Y-52799000D01*
X147069338Y-52799000D01*
X147205349Y-52771945D01*
X147333469Y-52718876D01*
X147448774Y-52641832D01*
X147546832Y-52543774D01*
X147623876Y-52428469D01*
X147676945Y-52300349D01*
X147704000Y-52164338D01*
X147704000Y-52106351D01*
X148150700Y-52106351D01*
X148150700Y-52273649D01*
X148183339Y-52437732D01*
X148247360Y-52592294D01*
X148340306Y-52731397D01*
X148458603Y-52849694D01*
X148597706Y-52942640D01*
X148752268Y-53006661D01*
X148916351Y-53039300D01*
X149083649Y-53039300D01*
X149247732Y-53006661D01*
X149402294Y-52942640D01*
X149420220Y-52930662D01*
X161796000Y-52930662D01*
X161796000Y-53069338D01*
X161823055Y-53205349D01*
X161876124Y-53333469D01*
X161953168Y-53448774D01*
X162051226Y-53546832D01*
X162166531Y-53623876D01*
X162294651Y-53676945D01*
X162430662Y-53704000D01*
X162569338Y-53704000D01*
X162705349Y-53676945D01*
X162833469Y-53623876D01*
X162948774Y-53546832D01*
X163000000Y-53495606D01*
X163051226Y-53546832D01*
X163166531Y-53623876D01*
X163294651Y-53676945D01*
X163430662Y-53704000D01*
X163569338Y-53704000D01*
X163705349Y-53676945D01*
X163833469Y-53623876D01*
X163948774Y-53546832D01*
X164046832Y-53448774D01*
X164123876Y-53333469D01*
X164176945Y-53205349D01*
X164204000Y-53069338D01*
X164204000Y-52930662D01*
X164176945Y-52794651D01*
X164123876Y-52666531D01*
X164046832Y-52551226D01*
X163948774Y-52453168D01*
X163833469Y-52376124D01*
X163705349Y-52323055D01*
X163569338Y-52296000D01*
X163430662Y-52296000D01*
X163294651Y-52323055D01*
X163166531Y-52376124D01*
X163051226Y-52453168D01*
X163000000Y-52504394D01*
X162948774Y-52453168D01*
X162833469Y-52376124D01*
X162705349Y-52323055D01*
X162569338Y-52296000D01*
X162430662Y-52296000D01*
X162294651Y-52323055D01*
X162166531Y-52376124D01*
X162051226Y-52453168D01*
X161953168Y-52551226D01*
X161876124Y-52666531D01*
X161823055Y-52794651D01*
X161796000Y-52930662D01*
X149420220Y-52930662D01*
X149541397Y-52849694D01*
X149659694Y-52731397D01*
X149752640Y-52592294D01*
X149816661Y-52437732D01*
X149849300Y-52273649D01*
X149849300Y-52106351D01*
X149816661Y-51942268D01*
X149752640Y-51787706D01*
X149659694Y-51648603D01*
X149541397Y-51530306D01*
X149402294Y-51437360D01*
X149386124Y-51430662D01*
X164296000Y-51430662D01*
X164296000Y-51569338D01*
X164323055Y-51705349D01*
X164376124Y-51833469D01*
X164453168Y-51948774D01*
X164551226Y-52046832D01*
X164666531Y-52123876D01*
X164794651Y-52176945D01*
X164930662Y-52204000D01*
X165069338Y-52204000D01*
X165205349Y-52176945D01*
X165333469Y-52123876D01*
X165448774Y-52046832D01*
X165500000Y-51995606D01*
X165551226Y-52046832D01*
X165666531Y-52123876D01*
X165794651Y-52176945D01*
X165930662Y-52204000D01*
X166069338Y-52204000D01*
X166205349Y-52176945D01*
X166333469Y-52123876D01*
X166448774Y-52046832D01*
X166546832Y-51948774D01*
X166623876Y-51833469D01*
X166676945Y-51705349D01*
X166704000Y-51569338D01*
X166704000Y-51430662D01*
X166676945Y-51294651D01*
X166623876Y-51166531D01*
X166546832Y-51051226D01*
X166448774Y-50953168D01*
X166333469Y-50876124D01*
X166205349Y-50823055D01*
X166069338Y-50796000D01*
X165930662Y-50796000D01*
X165794651Y-50823055D01*
X165666531Y-50876124D01*
X165551226Y-50953168D01*
X165500000Y-51004394D01*
X165448774Y-50953168D01*
X165333469Y-50876124D01*
X165205349Y-50823055D01*
X165069338Y-50796000D01*
X164930662Y-50796000D01*
X164794651Y-50823055D01*
X164666531Y-50876124D01*
X164551226Y-50953168D01*
X164453168Y-51051226D01*
X164376124Y-51166531D01*
X164323055Y-51294651D01*
X164296000Y-51430662D01*
X149386124Y-51430662D01*
X149247732Y-51373339D01*
X149083649Y-51340700D01*
X148916351Y-51340700D01*
X148752268Y-51373339D01*
X148597706Y-51437360D01*
X148458603Y-51530306D01*
X148340306Y-51648603D01*
X148247360Y-51787706D01*
X148183339Y-51942268D01*
X148150700Y-52106351D01*
X147704000Y-52106351D01*
X147704000Y-52025662D01*
X147676945Y-51889651D01*
X147623876Y-51761531D01*
X147546832Y-51646226D01*
X147448774Y-51548168D01*
X147333469Y-51471124D01*
X147205349Y-51418055D01*
X147069338Y-51391000D01*
X146930662Y-51391000D01*
X146794651Y-51418055D01*
X146666531Y-51471124D01*
X146551226Y-51548168D01*
X146464390Y-51635004D01*
X146515854Y-51530221D01*
X146478671Y-51396950D01*
X146409065Y-51256330D01*
X146313363Y-51131992D01*
X146195243Y-51028713D01*
X146059244Y-50950463D01*
X145910592Y-50900249D01*
X145755000Y-50880000D01*
X144605000Y-50880000D01*
X144449408Y-50900249D01*
X144300756Y-50950463D01*
X144164757Y-51028713D01*
X144046637Y-51131992D01*
X143950935Y-51256330D01*
X143881329Y-51396950D01*
X143844146Y-51530221D01*
X142185854Y-51530221D01*
X142148671Y-51396950D01*
X142079065Y-51256330D01*
X141983363Y-51131992D01*
X141865243Y-51028713D01*
X141729244Y-50950463D01*
X141580592Y-50900249D01*
X141425000Y-50880000D01*
X140575000Y-50880000D01*
X140419408Y-50900249D01*
X140270756Y-50950463D01*
X140204000Y-50988873D01*
X140204000Y-50930662D01*
X140176945Y-50794651D01*
X140123876Y-50666531D01*
X140046832Y-50551226D01*
X139948774Y-50453168D01*
X139833469Y-50376124D01*
X139705349Y-50323055D01*
X139569338Y-50296000D01*
X139430662Y-50296000D01*
X139294651Y-50323055D01*
X139166531Y-50376124D01*
X139051226Y-50453168D01*
X138953168Y-50551226D01*
X138879000Y-50662227D01*
X138879000Y-50518535D01*
X138911655Y-50185499D01*
X139002991Y-49882978D01*
X139146827Y-49612463D01*
X147977801Y-49612463D01*
X147977801Y-49751139D01*
X148004856Y-49887150D01*
X148057925Y-50015270D01*
X148134969Y-50130575D01*
X148233027Y-50228633D01*
X148348332Y-50305677D01*
X148476452Y-50358746D01*
X148612463Y-50385801D01*
X148614199Y-50385801D01*
X148614199Y-50387537D01*
X148641254Y-50523548D01*
X148694323Y-50651668D01*
X148771367Y-50766973D01*
X148869425Y-50865031D01*
X148984730Y-50942075D01*
X149112850Y-50995144D01*
X149248861Y-51022199D01*
X149387537Y-51022199D01*
X149523548Y-50995144D01*
X149651668Y-50942075D01*
X149766973Y-50865031D01*
X149865031Y-50766973D01*
X149942075Y-50651668D01*
X149995144Y-50523548D01*
X150022199Y-50387537D01*
X150022199Y-50248861D01*
X149995144Y-50112850D01*
X149942075Y-49984730D01*
X149905949Y-49930662D01*
X175296000Y-49930662D01*
X175296000Y-50069338D01*
X175323055Y-50205349D01*
X175376124Y-50333469D01*
X175453168Y-50448774D01*
X175551226Y-50546832D01*
X175666531Y-50623876D01*
X175794651Y-50676945D01*
X175930662Y-50704000D01*
X176069338Y-50704000D01*
X176205349Y-50676945D01*
X176333469Y-50623876D01*
X176448774Y-50546832D01*
X176546832Y-50448774D01*
X176623876Y-50333469D01*
X176676945Y-50205349D01*
X176704000Y-50069338D01*
X176704000Y-49930662D01*
X176676945Y-49794651D01*
X176623876Y-49666531D01*
X176546832Y-49551226D01*
X176448774Y-49453168D01*
X176333469Y-49376124D01*
X176205349Y-49323055D01*
X176069338Y-49296000D01*
X175930662Y-49296000D01*
X175794651Y-49323055D01*
X175666531Y-49376124D01*
X175551226Y-49453168D01*
X175453168Y-49551226D01*
X175376124Y-49666531D01*
X175323055Y-49794651D01*
X175296000Y-49930662D01*
X149905949Y-49930662D01*
X149865031Y-49869425D01*
X149766973Y-49771367D01*
X149651668Y-49694323D01*
X149523548Y-49641254D01*
X149387537Y-49614199D01*
X149385801Y-49614199D01*
X149385801Y-49612463D01*
X149358746Y-49476452D01*
X149305677Y-49348332D01*
X149228633Y-49233027D01*
X149130575Y-49134969D01*
X149015270Y-49057925D01*
X148887150Y-49004856D01*
X148751139Y-48977801D01*
X148612463Y-48977801D01*
X148476452Y-49004856D01*
X148348332Y-49057925D01*
X148233027Y-49134969D01*
X148134969Y-49233027D01*
X148057925Y-49348332D01*
X148004856Y-49476452D01*
X147977801Y-49612463D01*
X139146827Y-49612463D01*
X139151350Y-49603957D01*
X139351079Y-49359066D01*
X139594564Y-49157637D01*
X139872539Y-49007337D01*
X140174419Y-48913890D01*
X140506368Y-48879000D01*
X176193014Y-48879000D01*
X177218844Y-49904831D01*
X177218844Y-49904831D01*
G37*
X177218844Y-49904831D02*
X177230710Y-49919290D01*
X177288421Y-49966651D01*
X177354262Y-50001844D01*
X177425703Y-50023515D01*
X177500000Y-50030833D01*
X177518610Y-50029000D01*
X181121000Y-50029000D01*
X181121001Y-61971000D01*
X177518610Y-61971000D01*
X177500000Y-61969167D01*
X177481390Y-61971000D01*
X177425703Y-61976485D01*
X177354262Y-61998156D01*
X177288421Y-62033349D01*
X177230710Y-62080710D01*
X177218844Y-62095169D01*
X176693900Y-62620114D01*
X176704000Y-62569338D01*
X176704000Y-62430662D01*
X176676945Y-62294651D01*
X176623876Y-62166531D01*
X176546832Y-62051226D01*
X176540606Y-62045000D01*
X176546832Y-62038774D01*
X176623876Y-61923469D01*
X176676945Y-61795349D01*
X176704000Y-61659338D01*
X176704000Y-61520662D01*
X176676945Y-61384651D01*
X176623876Y-61256531D01*
X176546832Y-61141226D01*
X176448774Y-61043168D01*
X176333469Y-60966124D01*
X176205349Y-60913055D01*
X176069338Y-60886000D01*
X175930662Y-60886000D01*
X175794651Y-60913055D01*
X175666531Y-60966124D01*
X175551226Y-61043168D01*
X175453168Y-61141226D01*
X175376124Y-61256531D01*
X175323055Y-61384651D01*
X175296000Y-61520662D01*
X175296000Y-61659338D01*
X175323055Y-61795349D01*
X175376124Y-61923469D01*
X175453168Y-62038774D01*
X175459394Y-62045000D01*
X175453168Y-62051226D01*
X175376124Y-62166531D01*
X175323055Y-62294651D01*
X175296000Y-62430662D01*
X175296000Y-62569338D01*
X175323055Y-62705349D01*
X175376124Y-62833469D01*
X175453168Y-62948774D01*
X175551226Y-63046832D01*
X175662227Y-63121000D01*
X172337773Y-63121000D01*
X172448774Y-63046832D01*
X172546832Y-62948774D01*
X172623876Y-62833469D01*
X172676945Y-62705349D01*
X172704000Y-62569338D01*
X172704000Y-62430662D01*
X172676945Y-62294651D01*
X172623876Y-62166531D01*
X172546832Y-62051226D01*
X172448774Y-61953168D01*
X172333469Y-61876124D01*
X172205349Y-61823055D01*
X172069338Y-61796000D01*
X171930662Y-61796000D01*
X171794651Y-61823055D01*
X171666531Y-61876124D01*
X171551226Y-61953168D01*
X171453168Y-62051226D01*
X171376124Y-62166531D01*
X171323055Y-62294651D01*
X171296000Y-62430662D01*
X171296000Y-62569338D01*
X171323055Y-62705349D01*
X171376124Y-62833469D01*
X171453168Y-62948774D01*
X171551226Y-63046832D01*
X171662227Y-63121000D01*
X167337773Y-63121000D01*
X167448774Y-63046832D01*
X167546832Y-62948774D01*
X167623876Y-62833469D01*
X167676945Y-62705349D01*
X167704000Y-62569338D01*
X167704000Y-62430662D01*
X167676945Y-62294651D01*
X167623876Y-62166531D01*
X167546832Y-62051226D01*
X167448774Y-61953168D01*
X167333469Y-61876124D01*
X167205349Y-61823055D01*
X167069338Y-61796000D01*
X166930662Y-61796000D01*
X166794651Y-61823055D01*
X166666531Y-61876124D01*
X166551226Y-61953168D01*
X166453168Y-62051226D01*
X166376124Y-62166531D01*
X166323055Y-62294651D01*
X166296000Y-62430662D01*
X166296000Y-62569338D01*
X166323055Y-62705349D01*
X166376124Y-62833469D01*
X166453168Y-62948774D01*
X166551226Y-63046832D01*
X166662227Y-63121000D01*
X165337773Y-63121000D01*
X165448774Y-63046832D01*
X165546832Y-62948774D01*
X165623876Y-62833469D01*
X165676945Y-62705349D01*
X165704000Y-62569338D01*
X165704000Y-62430662D01*
X165676945Y-62294651D01*
X165623876Y-62166531D01*
X165546832Y-62051226D01*
X165495606Y-62000000D01*
X165546832Y-61948774D01*
X165623876Y-61833469D01*
X165676945Y-61705349D01*
X165704000Y-61569338D01*
X165704000Y-61430662D01*
X165676945Y-61294651D01*
X165623876Y-61166531D01*
X165546832Y-61051226D01*
X165448774Y-60953168D01*
X165333469Y-60876124D01*
X165205349Y-60823055D01*
X165069338Y-60796000D01*
X164930662Y-60796000D01*
X164794651Y-60823055D01*
X164666531Y-60876124D01*
X164551226Y-60953168D01*
X164453168Y-61051226D01*
X164376124Y-61166531D01*
X164323055Y-61294651D01*
X164296000Y-61430662D01*
X164296000Y-61569338D01*
X164323055Y-61705349D01*
X164376124Y-61833469D01*
X164453168Y-61948774D01*
X164504394Y-62000000D01*
X164453168Y-62051226D01*
X164376124Y-62166531D01*
X164323055Y-62294651D01*
X164296000Y-62430662D01*
X164296000Y-62569338D01*
X164323055Y-62705349D01*
X164376124Y-62833469D01*
X164453168Y-62948774D01*
X164551226Y-63046832D01*
X164662227Y-63121000D01*
X163337773Y-63121000D01*
X163448774Y-63046832D01*
X163546832Y-62948774D01*
X163623876Y-62833469D01*
X163676945Y-62705349D01*
X163704000Y-62569338D01*
X163704000Y-62430662D01*
X163676945Y-62294651D01*
X163623876Y-62166531D01*
X163546832Y-62051226D01*
X163495606Y-62000000D01*
X163546832Y-61948774D01*
X163623876Y-61833469D01*
X163676945Y-61705349D01*
X163704000Y-61569338D01*
X163704000Y-61430662D01*
X163676945Y-61294651D01*
X163623876Y-61166531D01*
X163546832Y-61051226D01*
X163448774Y-60953168D01*
X163333469Y-60876124D01*
X163205349Y-60823055D01*
X163069338Y-60796000D01*
X162930662Y-60796000D01*
X162794651Y-60823055D01*
X162666531Y-60876124D01*
X162551226Y-60953168D01*
X162453168Y-61051226D01*
X162376124Y-61166531D01*
X162323055Y-61294651D01*
X162296000Y-61430662D01*
X162296000Y-61569338D01*
X162323055Y-61705349D01*
X162376124Y-61833469D01*
X162453168Y-61948774D01*
X162504394Y-62000000D01*
X162453168Y-62051226D01*
X162376124Y-62166531D01*
X162323055Y-62294651D01*
X162296000Y-62430662D01*
X162296000Y-62569338D01*
X162323055Y-62705349D01*
X162376124Y-62833469D01*
X162453168Y-62948774D01*
X162551226Y-63046832D01*
X162662227Y-63121000D01*
X161337773Y-63121000D01*
X161448774Y-63046832D01*
X161546832Y-62948774D01*
X161623876Y-62833469D01*
X161676945Y-62705349D01*
X161704000Y-62569338D01*
X161704000Y-62430662D01*
X161676945Y-62294651D01*
X161623876Y-62166531D01*
X161546832Y-62051226D01*
X161495606Y-62000000D01*
X161546832Y-61948774D01*
X161623876Y-61833469D01*
X161676945Y-61705349D01*
X161704000Y-61569338D01*
X161704000Y-61430662D01*
X161676945Y-61294651D01*
X161623876Y-61166531D01*
X161546832Y-61051226D01*
X161448774Y-60953168D01*
X161333469Y-60876124D01*
X161205349Y-60823055D01*
X161069338Y-60796000D01*
X160930662Y-60796000D01*
X160794651Y-60823055D01*
X160666531Y-60876124D01*
X160551226Y-60953168D01*
X160453168Y-61051226D01*
X160376124Y-61166531D01*
X160323055Y-61294651D01*
X160296000Y-61430662D01*
X160296000Y-61569338D01*
X160323055Y-61705349D01*
X160376124Y-61833469D01*
X160453168Y-61948774D01*
X160504394Y-62000000D01*
X160453168Y-62051226D01*
X160376124Y-62166531D01*
X160323055Y-62294651D01*
X160296000Y-62430662D01*
X160296000Y-62569338D01*
X160323055Y-62705349D01*
X160376124Y-62833469D01*
X160453168Y-62948774D01*
X160551226Y-63046832D01*
X160662227Y-63121000D01*
X159337773Y-63121000D01*
X159448774Y-63046832D01*
X159546832Y-62948774D01*
X159623876Y-62833469D01*
X159676945Y-62705349D01*
X159704000Y-62569338D01*
X159704000Y-62430662D01*
X159676945Y-62294651D01*
X159623876Y-62166531D01*
X159546832Y-62051226D01*
X159448774Y-61953168D01*
X159333469Y-61876124D01*
X159205349Y-61823055D01*
X159069338Y-61796000D01*
X158930662Y-61796000D01*
X158794651Y-61823055D01*
X158666531Y-61876124D01*
X158551226Y-61953168D01*
X158453168Y-62051226D01*
X158376124Y-62166531D01*
X158323055Y-62294651D01*
X158296000Y-62430662D01*
X158296000Y-62569338D01*
X158323055Y-62705349D01*
X158376124Y-62833469D01*
X158453168Y-62948774D01*
X158551226Y-63046832D01*
X158662227Y-63121000D01*
X157337773Y-63121000D01*
X157448774Y-63046832D01*
X157546832Y-62948774D01*
X157623876Y-62833469D01*
X157676945Y-62705349D01*
X157704000Y-62569338D01*
X157704000Y-62430662D01*
X157676945Y-62294651D01*
X157623876Y-62166531D01*
X157546832Y-62051226D01*
X157448774Y-61953168D01*
X157333469Y-61876124D01*
X157205349Y-61823055D01*
X157069338Y-61796000D01*
X156930662Y-61796000D01*
X156794651Y-61823055D01*
X156666531Y-61876124D01*
X156551226Y-61953168D01*
X156453168Y-62051226D01*
X156376124Y-62166531D01*
X156323055Y-62294651D01*
X156296000Y-62430662D01*
X156296000Y-62569338D01*
X156323055Y-62705349D01*
X156376124Y-62833469D01*
X156453168Y-62948774D01*
X156551226Y-63046832D01*
X156662227Y-63121000D01*
X145337773Y-63121000D01*
X145448774Y-63046832D01*
X145546832Y-62948774D01*
X145623876Y-62833469D01*
X145676945Y-62705349D01*
X145704000Y-62569338D01*
X145704000Y-62430662D01*
X145676945Y-62294651D01*
X145623876Y-62166531D01*
X145546832Y-62051226D01*
X145495606Y-62000000D01*
X145546832Y-61948774D01*
X145623876Y-61833469D01*
X145676945Y-61705349D01*
X145704000Y-61569338D01*
X145704000Y-61517459D01*
X150268876Y-61517459D01*
X150268876Y-61656135D01*
X150295931Y-61792146D01*
X150349000Y-61920266D01*
X150426044Y-62035571D01*
X150524102Y-62133629D01*
X150639407Y-62210673D01*
X150767527Y-62263742D01*
X150903538Y-62290797D01*
X151042214Y-62290797D01*
X151178225Y-62263742D01*
X151306345Y-62210673D01*
X151421650Y-62133629D01*
X151519708Y-62035571D01*
X151596752Y-61920266D01*
X151649821Y-61792146D01*
X151676876Y-61656135D01*
X151676876Y-61517459D01*
X151649821Y-61381448D01*
X151634255Y-61343868D01*
X153323128Y-61343868D01*
X153323128Y-61482544D01*
X153350183Y-61618555D01*
X153403252Y-61746675D01*
X153480296Y-61861980D01*
X153578354Y-61960038D01*
X153693659Y-62037082D01*
X153821779Y-62090151D01*
X153957790Y-62117206D01*
X154096466Y-62117206D01*
X154232477Y-62090151D01*
X154360597Y-62037082D01*
X154475902Y-61960038D01*
X154573960Y-61861980D01*
X154651004Y-61746675D01*
X154704073Y-61618555D01*
X154731128Y-61482544D01*
X154731128Y-61343868D01*
X154704073Y-61207857D01*
X154651004Y-61079737D01*
X154573960Y-60964432D01*
X154475902Y-60866374D01*
X154360597Y-60789330D01*
X154232477Y-60736261D01*
X154096466Y-60709206D01*
X153957790Y-60709206D01*
X153821779Y-60736261D01*
X153693659Y-60789330D01*
X153578354Y-60866374D01*
X153480296Y-60964432D01*
X153403252Y-61079737D01*
X153350183Y-61207857D01*
X153323128Y-61343868D01*
X151634255Y-61343868D01*
X151596752Y-61253328D01*
X151519708Y-61138023D01*
X151421650Y-61039965D01*
X151306345Y-60962921D01*
X151178225Y-60909852D01*
X151042214Y-60882797D01*
X150903538Y-60882797D01*
X150767527Y-60909852D01*
X150639407Y-60962921D01*
X150524102Y-61039965D01*
X150426044Y-61138023D01*
X150349000Y-61253328D01*
X150295931Y-61381448D01*
X150268876Y-61517459D01*
X145704000Y-61517459D01*
X145704000Y-61430662D01*
X145676945Y-61294651D01*
X145623876Y-61166531D01*
X145592785Y-61120000D01*
X145755000Y-61120000D01*
X145910592Y-61099751D01*
X146059244Y-61049537D01*
X146195243Y-60971287D01*
X146313363Y-60868008D01*
X146409065Y-60743670D01*
X146478671Y-60603050D01*
X146515854Y-60469779D01*
X146454569Y-60345000D01*
X145205000Y-60345000D01*
X145205000Y-60365000D01*
X145155000Y-60365000D01*
X145155000Y-60345000D01*
X143905431Y-60345000D01*
X143844146Y-60469779D01*
X143881329Y-60603050D01*
X143950935Y-60743670D01*
X144046637Y-60868008D01*
X144164757Y-60971287D01*
X144300756Y-61049537D01*
X144426023Y-61091852D01*
X144376124Y-61166531D01*
X144323055Y-61294651D01*
X144296000Y-61430662D01*
X144296000Y-61569338D01*
X144323055Y-61705349D01*
X144376124Y-61833469D01*
X144453168Y-61948774D01*
X144504394Y-62000000D01*
X144453168Y-62051226D01*
X144376124Y-62166531D01*
X144323055Y-62294651D01*
X144296000Y-62430662D01*
X144296000Y-62569338D01*
X144323055Y-62705349D01*
X144376124Y-62833469D01*
X144453168Y-62948774D01*
X144551226Y-63046832D01*
X144662227Y-63121000D01*
X141337773Y-63121000D01*
X141448774Y-63046832D01*
X141546832Y-62948774D01*
X141623876Y-62833469D01*
X141676945Y-62705349D01*
X141704000Y-62569338D01*
X141704000Y-62430662D01*
X141676945Y-62294651D01*
X141623876Y-62166531D01*
X141546832Y-62051226D01*
X141495606Y-62000000D01*
X141546832Y-61948774D01*
X141623876Y-61833469D01*
X141676945Y-61705349D01*
X141704000Y-61569338D01*
X141704000Y-61430662D01*
X141676945Y-61294651D01*
X141623876Y-61166531D01*
X141579362Y-61099911D01*
X141580592Y-61099751D01*
X141729244Y-61049537D01*
X141865243Y-60971287D01*
X141983363Y-60868008D01*
X142079065Y-60743670D01*
X142148671Y-60603050D01*
X142185854Y-60469779D01*
X142124569Y-60345000D01*
X141025000Y-60345000D01*
X141025000Y-60365000D01*
X140975000Y-60365000D01*
X140975000Y-60345000D01*
X139875431Y-60345000D01*
X139853553Y-60389544D01*
X139833469Y-60376124D01*
X139705349Y-60323055D01*
X139569338Y-60296000D01*
X139430662Y-60296000D01*
X139294651Y-60323055D01*
X139166531Y-60376124D01*
X139051226Y-60453168D01*
X138953168Y-60551226D01*
X138879000Y-60662227D01*
X138879000Y-60170221D01*
X139814146Y-60170221D01*
X139875431Y-60295000D01*
X140975000Y-60295000D01*
X140975000Y-60275000D01*
X141025000Y-60275000D01*
X141025000Y-60295000D01*
X142124569Y-60295000D01*
X142185854Y-60170221D01*
X142148671Y-60036950D01*
X142079065Y-59896330D01*
X141983363Y-59771992D01*
X141865243Y-59668713D01*
X141729244Y-59590463D01*
X141580592Y-59540249D01*
X141425000Y-59520000D01*
X140575000Y-59520000D01*
X140419408Y-59540249D01*
X140270756Y-59590463D01*
X140134757Y-59668713D01*
X140016637Y-59771992D01*
X139920935Y-59896330D01*
X139851329Y-60036950D01*
X139814146Y-60170221D01*
X138879000Y-60170221D01*
X138879000Y-57930662D01*
X143795916Y-57930662D01*
X143795916Y-58069338D01*
X143822971Y-58205349D01*
X143876040Y-58333469D01*
X143953084Y-58448774D01*
X144051142Y-58546832D01*
X144082366Y-58567695D01*
X144049651Y-58628901D01*
X144010825Y-58756893D01*
X143997715Y-58890000D01*
X144010825Y-59023107D01*
X144049651Y-59151099D01*
X144112701Y-59269057D01*
X144197552Y-59372448D01*
X144300943Y-59457299D01*
X144418901Y-59520349D01*
X144473966Y-59537053D01*
X144449408Y-59540249D01*
X144300756Y-59590463D01*
X144164757Y-59668713D01*
X144046637Y-59771992D01*
X143950935Y-59896330D01*
X143881329Y-60036950D01*
X143844146Y-60170221D01*
X143905431Y-60295000D01*
X145155000Y-60295000D01*
X145155000Y-60275000D01*
X145205000Y-60275000D01*
X145205000Y-60295000D01*
X146454569Y-60295000D01*
X146515854Y-60170221D01*
X146478671Y-60036950D01*
X146409065Y-59896330D01*
X146313363Y-59771992D01*
X146261164Y-59726351D01*
X147134700Y-59726351D01*
X147134700Y-59893649D01*
X147167339Y-60057732D01*
X147231360Y-60212294D01*
X147324306Y-60351397D01*
X147442603Y-60469694D01*
X147581706Y-60562640D01*
X147736268Y-60626661D01*
X147900351Y-60659300D01*
X148067649Y-60659300D01*
X148231732Y-60626661D01*
X148386294Y-60562640D01*
X148525397Y-60469694D01*
X148643694Y-60351397D01*
X148736640Y-60212294D01*
X148800661Y-60057732D01*
X148833300Y-59893649D01*
X148833300Y-59726351D01*
X148800661Y-59562268D01*
X148736640Y-59407706D01*
X148643694Y-59268603D01*
X148525397Y-59150306D01*
X148386294Y-59057360D01*
X148231732Y-58993339D01*
X148067649Y-58960700D01*
X147900351Y-58960700D01*
X147736268Y-58993339D01*
X147581706Y-59057360D01*
X147442603Y-59150306D01*
X147324306Y-59268603D01*
X147231360Y-59407706D01*
X147167339Y-59562268D01*
X147134700Y-59726351D01*
X146261164Y-59726351D01*
X146195243Y-59668713D01*
X146059244Y-59590463D01*
X145910592Y-59540249D01*
X145755000Y-59520000D01*
X144941752Y-59520000D01*
X145059057Y-59457299D01*
X145162448Y-59372448D01*
X145247299Y-59269057D01*
X145310349Y-59151099D01*
X145349175Y-59023107D01*
X145362285Y-58890000D01*
X145349175Y-58756893D01*
X145310349Y-58628901D01*
X145247299Y-58510943D01*
X145162448Y-58407552D01*
X145105513Y-58360826D01*
X145123792Y-58333469D01*
X145176861Y-58205349D01*
X145203916Y-58069338D01*
X145203916Y-57930662D01*
X146296000Y-57930662D01*
X146296000Y-58069338D01*
X146323055Y-58205349D01*
X146376124Y-58333469D01*
X146453168Y-58448774D01*
X146551226Y-58546832D01*
X146666531Y-58623876D01*
X146794651Y-58676945D01*
X146930662Y-58704000D01*
X147069338Y-58704000D01*
X147205349Y-58676945D01*
X147333469Y-58623876D01*
X147448774Y-58546832D01*
X147524944Y-58470662D01*
X148931000Y-58470662D01*
X148931000Y-58609338D01*
X148958055Y-58745349D01*
X149011124Y-58873469D01*
X149088168Y-58988774D01*
X149186226Y-59086832D01*
X149301531Y-59163876D01*
X149414316Y-59210593D01*
X149356306Y-59268603D01*
X149263360Y-59407706D01*
X149199339Y-59562268D01*
X149166700Y-59726351D01*
X149166700Y-59893649D01*
X149199339Y-60057732D01*
X149263360Y-60212294D01*
X149356306Y-60351397D01*
X149474603Y-60469694D01*
X149613706Y-60562640D01*
X149768268Y-60626661D01*
X149932351Y-60659300D01*
X150099649Y-60659300D01*
X150263732Y-60626661D01*
X150418294Y-60562640D01*
X150557397Y-60469694D01*
X150675694Y-60351397D01*
X150768640Y-60212294D01*
X150832661Y-60057732D01*
X150857937Y-59930662D01*
X156296000Y-59930662D01*
X156296000Y-60069338D01*
X156323055Y-60205349D01*
X156376124Y-60333469D01*
X156453168Y-60448774D01*
X156504394Y-60500000D01*
X156453168Y-60551226D01*
X156376124Y-60666531D01*
X156323055Y-60794651D01*
X156296000Y-60930662D01*
X156296000Y-61069338D01*
X156323055Y-61205349D01*
X156376124Y-61333469D01*
X156453168Y-61448774D01*
X156551226Y-61546832D01*
X156666531Y-61623876D01*
X156794651Y-61676945D01*
X156930662Y-61704000D01*
X157069338Y-61704000D01*
X157205349Y-61676945D01*
X157333469Y-61623876D01*
X157448774Y-61546832D01*
X157546832Y-61448774D01*
X157623876Y-61333469D01*
X157676945Y-61205349D01*
X157704000Y-61069338D01*
X157704000Y-60930662D01*
X157676945Y-60794651D01*
X157623876Y-60666531D01*
X157546832Y-60551226D01*
X157495606Y-60500000D01*
X157546832Y-60448774D01*
X157623876Y-60333469D01*
X157676945Y-60205349D01*
X157704000Y-60069338D01*
X157704000Y-59930662D01*
X163296000Y-59930662D01*
X163296000Y-60069338D01*
X163323055Y-60205349D01*
X163376124Y-60333469D01*
X163453168Y-60448774D01*
X163551226Y-60546832D01*
X163666531Y-60623876D01*
X163794651Y-60676945D01*
X163930662Y-60704000D01*
X164069338Y-60704000D01*
X164205349Y-60676945D01*
X164333469Y-60623876D01*
X164448774Y-60546832D01*
X164546832Y-60448774D01*
X164623876Y-60333469D01*
X164676945Y-60205349D01*
X164704000Y-60069338D01*
X164704000Y-59930662D01*
X165796000Y-59930662D01*
X165796000Y-60069338D01*
X165823055Y-60205349D01*
X165876124Y-60333469D01*
X165953168Y-60448774D01*
X166051226Y-60546832D01*
X166166531Y-60623876D01*
X166294651Y-60676945D01*
X166430662Y-60704000D01*
X166569338Y-60704000D01*
X166705349Y-60676945D01*
X166833469Y-60623876D01*
X166948774Y-60546832D01*
X167046832Y-60448774D01*
X167123876Y-60333469D01*
X167176945Y-60205349D01*
X167204000Y-60069338D01*
X167204000Y-59930662D01*
X169796000Y-59930662D01*
X169796000Y-60069338D01*
X169823055Y-60205349D01*
X169876124Y-60333469D01*
X169953168Y-60448774D01*
X170051226Y-60546832D01*
X170166531Y-60623876D01*
X170294651Y-60676945D01*
X170430662Y-60704000D01*
X170569338Y-60704000D01*
X170705349Y-60676945D01*
X170833469Y-60623876D01*
X170948774Y-60546832D01*
X171046832Y-60448774D01*
X171123876Y-60333469D01*
X171176945Y-60205349D01*
X171204000Y-60069338D01*
X171204000Y-59930662D01*
X171796000Y-59930662D01*
X171796000Y-60069338D01*
X171823055Y-60205349D01*
X171876124Y-60333469D01*
X171953168Y-60448774D01*
X172051226Y-60546832D01*
X172166531Y-60623876D01*
X172294651Y-60676945D01*
X172430662Y-60704000D01*
X172569338Y-60704000D01*
X172705349Y-60676945D01*
X172833469Y-60623876D01*
X172948774Y-60546832D01*
X173046832Y-60448774D01*
X173123876Y-60333469D01*
X173176945Y-60205349D01*
X173204000Y-60069338D01*
X173204000Y-59930662D01*
X173176945Y-59794651D01*
X173123876Y-59666531D01*
X173046832Y-59551226D01*
X172948774Y-59453168D01*
X172833469Y-59376124D01*
X172705349Y-59323055D01*
X172569338Y-59296000D01*
X172430662Y-59296000D01*
X172294651Y-59323055D01*
X172166531Y-59376124D01*
X172051226Y-59453168D01*
X171953168Y-59551226D01*
X171876124Y-59666531D01*
X171823055Y-59794651D01*
X171796000Y-59930662D01*
X171204000Y-59930662D01*
X171176945Y-59794651D01*
X171123876Y-59666531D01*
X171046832Y-59551226D01*
X170948774Y-59453168D01*
X170833469Y-59376124D01*
X170705349Y-59323055D01*
X170569338Y-59296000D01*
X170430662Y-59296000D01*
X170294651Y-59323055D01*
X170166531Y-59376124D01*
X170051226Y-59453168D01*
X169953168Y-59551226D01*
X169876124Y-59666531D01*
X169823055Y-59794651D01*
X169796000Y-59930662D01*
X167204000Y-59930662D01*
X167176945Y-59794651D01*
X167123876Y-59666531D01*
X167046832Y-59551226D01*
X166948774Y-59453168D01*
X166833469Y-59376124D01*
X166705349Y-59323055D01*
X166569338Y-59296000D01*
X166430662Y-59296000D01*
X166294651Y-59323055D01*
X166166531Y-59376124D01*
X166051226Y-59453168D01*
X165953168Y-59551226D01*
X165876124Y-59666531D01*
X165823055Y-59794651D01*
X165796000Y-59930662D01*
X164704000Y-59930662D01*
X164676945Y-59794651D01*
X164623876Y-59666531D01*
X164546832Y-59551226D01*
X164448774Y-59453168D01*
X164333469Y-59376124D01*
X164205349Y-59323055D01*
X164069338Y-59296000D01*
X163930662Y-59296000D01*
X163794651Y-59323055D01*
X163666531Y-59376124D01*
X163551226Y-59453168D01*
X163453168Y-59551226D01*
X163376124Y-59666531D01*
X163323055Y-59794651D01*
X163296000Y-59930662D01*
X157704000Y-59930662D01*
X157676945Y-59794651D01*
X157623876Y-59666531D01*
X157546832Y-59551226D01*
X157448774Y-59453168D01*
X157333469Y-59376124D01*
X157205349Y-59323055D01*
X157069338Y-59296000D01*
X156930662Y-59296000D01*
X156794651Y-59323055D01*
X156666531Y-59376124D01*
X156551226Y-59453168D01*
X156453168Y-59551226D01*
X156376124Y-59666531D01*
X156323055Y-59794651D01*
X156296000Y-59930662D01*
X150857937Y-59930662D01*
X150865300Y-59893649D01*
X150865300Y-59726351D01*
X150832661Y-59562268D01*
X150768640Y-59407706D01*
X150675694Y-59268603D01*
X150557397Y-59150306D01*
X150418294Y-59057360D01*
X150263732Y-58993339D01*
X150188748Y-58978423D01*
X150220660Y-58930662D01*
X161296000Y-58930662D01*
X161296000Y-59069338D01*
X161323055Y-59205349D01*
X161376124Y-59333469D01*
X161453168Y-59448774D01*
X161551226Y-59546832D01*
X161666531Y-59623876D01*
X161794651Y-59676945D01*
X161930662Y-59704000D01*
X162069338Y-59704000D01*
X162205349Y-59676945D01*
X162333469Y-59623876D01*
X162448774Y-59546832D01*
X162546832Y-59448774D01*
X162623876Y-59333469D01*
X162676945Y-59205349D01*
X162704000Y-59069338D01*
X162704000Y-58930662D01*
X162676945Y-58794651D01*
X162623876Y-58666531D01*
X162546832Y-58551226D01*
X162448774Y-58453168D01*
X162415092Y-58430662D01*
X164546000Y-58430662D01*
X164546000Y-58569338D01*
X164573055Y-58705349D01*
X164626124Y-58833469D01*
X164703168Y-58948774D01*
X164801226Y-59046832D01*
X164916531Y-59123876D01*
X165044651Y-59176945D01*
X165180662Y-59204000D01*
X165319338Y-59204000D01*
X165455349Y-59176945D01*
X165583469Y-59123876D01*
X165698774Y-59046832D01*
X165796832Y-58948774D01*
X165873876Y-58833469D01*
X165926945Y-58705349D01*
X165930042Y-58689779D01*
X173214146Y-58689779D01*
X173216646Y-58702357D01*
X173263372Y-58852062D01*
X173338406Y-58989775D01*
X173438865Y-59110203D01*
X173560888Y-59208719D01*
X173699786Y-59281536D01*
X173850221Y-59325856D01*
X173975000Y-59264611D01*
X173975000Y-58565000D01*
X173275431Y-58565000D01*
X173214146Y-58689779D01*
X165930042Y-58689779D01*
X165954000Y-58569338D01*
X165954000Y-58430662D01*
X165926945Y-58294651D01*
X165873876Y-58166531D01*
X165796832Y-58051226D01*
X165698774Y-57953168D01*
X165583469Y-57876124D01*
X165455349Y-57823055D01*
X165319338Y-57796000D01*
X165180662Y-57796000D01*
X165044651Y-57823055D01*
X164916531Y-57876124D01*
X164801226Y-57953168D01*
X164703168Y-58051226D01*
X164626124Y-58166531D01*
X164573055Y-58294651D01*
X164546000Y-58430662D01*
X162415092Y-58430662D01*
X162333469Y-58376124D01*
X162205349Y-58323055D01*
X162069338Y-58296000D01*
X161930662Y-58296000D01*
X161794651Y-58323055D01*
X161666531Y-58376124D01*
X161551226Y-58453168D01*
X161453168Y-58551226D01*
X161376124Y-58666531D01*
X161323055Y-58794651D01*
X161296000Y-58930662D01*
X150220660Y-58930662D01*
X150258876Y-58873469D01*
X150311945Y-58745349D01*
X150339000Y-58609338D01*
X150339000Y-58470662D01*
X150311945Y-58334651D01*
X150258876Y-58206531D01*
X150181832Y-58091226D01*
X150083774Y-57993168D01*
X149968469Y-57916124D01*
X149840349Y-57863055D01*
X149704338Y-57836000D01*
X149565662Y-57836000D01*
X149429651Y-57863055D01*
X149301531Y-57916124D01*
X149186226Y-57993168D01*
X149088168Y-58091226D01*
X149011124Y-58206531D01*
X148958055Y-58334651D01*
X148931000Y-58470662D01*
X147524944Y-58470662D01*
X147546832Y-58448774D01*
X147623876Y-58333469D01*
X147676945Y-58205349D01*
X147704000Y-58069338D01*
X147704000Y-57930662D01*
X147676945Y-57794651D01*
X147623876Y-57666531D01*
X147546832Y-57551226D01*
X147448774Y-57453168D01*
X147333469Y-57376124D01*
X147205349Y-57323055D01*
X147069338Y-57296000D01*
X146930662Y-57296000D01*
X146794651Y-57323055D01*
X146666531Y-57376124D01*
X146551226Y-57453168D01*
X146453168Y-57551226D01*
X146376124Y-57666531D01*
X146323055Y-57794651D01*
X146296000Y-57930662D01*
X145203916Y-57930662D01*
X145176861Y-57794651D01*
X145123792Y-57666531D01*
X145046748Y-57551226D01*
X144995564Y-57500042D01*
X145046832Y-57448774D01*
X145123876Y-57333469D01*
X145176945Y-57205349D01*
X145204000Y-57069338D01*
X145204000Y-56930662D01*
X154296000Y-56930662D01*
X154296000Y-57069338D01*
X154323055Y-57205349D01*
X154376124Y-57333469D01*
X154453168Y-57448774D01*
X154504394Y-57500000D01*
X154453168Y-57551226D01*
X154376124Y-57666531D01*
X154323055Y-57794651D01*
X154296000Y-57930662D01*
X154296000Y-58069338D01*
X154323055Y-58205349D01*
X154376124Y-58333469D01*
X154453168Y-58448774D01*
X154551226Y-58546832D01*
X154666531Y-58623876D01*
X154794651Y-58676945D01*
X154930662Y-58704000D01*
X155069338Y-58704000D01*
X155205349Y-58676945D01*
X155333469Y-58623876D01*
X155448774Y-58546832D01*
X155546832Y-58448774D01*
X155623876Y-58333469D01*
X155676945Y-58205349D01*
X155704000Y-58069338D01*
X155704000Y-57930662D01*
X157296000Y-57930662D01*
X157296000Y-58069338D01*
X157323055Y-58205349D01*
X157376124Y-58333469D01*
X157453168Y-58448774D01*
X157551226Y-58546832D01*
X157666531Y-58623876D01*
X157794651Y-58676945D01*
X157930662Y-58704000D01*
X158069338Y-58704000D01*
X158205349Y-58676945D01*
X158333469Y-58623876D01*
X158448774Y-58546832D01*
X158500000Y-58495606D01*
X158551226Y-58546832D01*
X158666531Y-58623876D01*
X158794651Y-58676945D01*
X158930662Y-58704000D01*
X159069338Y-58704000D01*
X159205349Y-58676945D01*
X159333469Y-58623876D01*
X159448774Y-58546832D01*
X159546832Y-58448774D01*
X159623876Y-58333469D01*
X159676945Y-58205349D01*
X159704000Y-58069338D01*
X159704000Y-57930662D01*
X159676945Y-57794651D01*
X159623876Y-57666531D01*
X159546832Y-57551226D01*
X159448774Y-57453168D01*
X159333469Y-57376124D01*
X159205349Y-57323055D01*
X159069338Y-57296000D01*
X158930662Y-57296000D01*
X158794651Y-57323055D01*
X158666531Y-57376124D01*
X158551226Y-57453168D01*
X158500000Y-57504394D01*
X158448774Y-57453168D01*
X158333469Y-57376124D01*
X158205349Y-57323055D01*
X158069338Y-57296000D01*
X157930662Y-57296000D01*
X157794651Y-57323055D01*
X157666531Y-57376124D01*
X157551226Y-57453168D01*
X157453168Y-57551226D01*
X157376124Y-57666531D01*
X157323055Y-57794651D01*
X157296000Y-57930662D01*
X155704000Y-57930662D01*
X155676945Y-57794651D01*
X155623876Y-57666531D01*
X155546832Y-57551226D01*
X155495606Y-57500000D01*
X155546832Y-57448774D01*
X155623876Y-57333469D01*
X155650165Y-57270000D01*
X173141868Y-57270000D01*
X173158357Y-57437413D01*
X173207189Y-57598393D01*
X173286489Y-57746753D01*
X173393209Y-57876791D01*
X173472978Y-57942256D01*
X173438865Y-57969797D01*
X173338406Y-58090225D01*
X173263372Y-58227938D01*
X173216646Y-58377643D01*
X173214146Y-58390221D01*
X173275431Y-58515000D01*
X173975000Y-58515000D01*
X173975000Y-58495000D01*
X174025000Y-58495000D01*
X174025000Y-58515000D01*
X174045000Y-58515000D01*
X174045000Y-58565000D01*
X174025000Y-58565000D01*
X174025000Y-59264611D01*
X174149779Y-59325856D01*
X174300214Y-59281536D01*
X174439112Y-59208719D01*
X174561135Y-59110203D01*
X174597452Y-59066667D01*
X174663209Y-59146791D01*
X174793247Y-59253511D01*
X174941607Y-59332811D01*
X175102587Y-59381643D01*
X175228048Y-59394000D01*
X175311952Y-59394000D01*
X175437413Y-59381643D01*
X175598393Y-59332811D01*
X175746753Y-59253511D01*
X175876791Y-59146791D01*
X175983511Y-59016753D01*
X176062811Y-58868393D01*
X176111643Y-58707413D01*
X176128132Y-58540000D01*
X176111643Y-58372587D01*
X176062811Y-58211607D01*
X175983511Y-58063247D01*
X175876791Y-57933209D01*
X175842418Y-57905000D01*
X175876791Y-57876791D01*
X175983511Y-57746753D01*
X176062811Y-57598393D01*
X176111643Y-57437413D01*
X176128132Y-57270000D01*
X176111643Y-57102587D01*
X176062811Y-56941607D01*
X175983511Y-56793247D01*
X175876791Y-56663209D01*
X175842418Y-56635000D01*
X175876791Y-56606791D01*
X175983511Y-56476753D01*
X176062811Y-56328393D01*
X176111643Y-56167413D01*
X176128132Y-56000000D01*
X176121303Y-55930662D01*
X176796000Y-55930662D01*
X176796000Y-56069338D01*
X176823055Y-56205349D01*
X176876124Y-56333469D01*
X176953168Y-56448774D01*
X177051226Y-56546832D01*
X177166531Y-56623876D01*
X177294651Y-56676945D01*
X177430662Y-56704000D01*
X177569338Y-56704000D01*
X177705349Y-56676945D01*
X177833469Y-56623876D01*
X177948774Y-56546832D01*
X178046832Y-56448774D01*
X178123876Y-56333469D01*
X178176945Y-56205349D01*
X178204000Y-56069338D01*
X178204000Y-55930662D01*
X178176945Y-55794651D01*
X178123876Y-55666531D01*
X178046832Y-55551226D01*
X177948774Y-55453168D01*
X177833469Y-55376124D01*
X177705349Y-55323055D01*
X177569338Y-55296000D01*
X177430662Y-55296000D01*
X177294651Y-55323055D01*
X177166531Y-55376124D01*
X177051226Y-55453168D01*
X176953168Y-55551226D01*
X176876124Y-55666531D01*
X176823055Y-55794651D01*
X176796000Y-55930662D01*
X176121303Y-55930662D01*
X176111643Y-55832587D01*
X176062811Y-55671607D01*
X175983511Y-55523247D01*
X175876791Y-55393209D01*
X175842418Y-55365000D01*
X175876791Y-55336791D01*
X175983511Y-55206753D01*
X176062811Y-55058393D01*
X176111643Y-54897413D01*
X176128132Y-54730000D01*
X176111643Y-54562587D01*
X176062811Y-54401607D01*
X175983511Y-54253247D01*
X175876791Y-54123209D01*
X175842418Y-54095000D01*
X175876791Y-54066791D01*
X175983511Y-53936753D01*
X175986766Y-53930662D01*
X176296000Y-53930662D01*
X176296000Y-54069338D01*
X176323055Y-54205349D01*
X176376124Y-54333469D01*
X176453168Y-54448774D01*
X176551226Y-54546832D01*
X176666531Y-54623876D01*
X176794651Y-54676945D01*
X176930662Y-54704000D01*
X177069338Y-54704000D01*
X177205349Y-54676945D01*
X177333469Y-54623876D01*
X177448774Y-54546832D01*
X177546832Y-54448774D01*
X177623876Y-54333469D01*
X177676945Y-54205349D01*
X177704000Y-54069338D01*
X177704000Y-53930662D01*
X177676945Y-53794651D01*
X177623876Y-53666531D01*
X177546832Y-53551226D01*
X177448774Y-53453168D01*
X177333469Y-53376124D01*
X177205349Y-53323055D01*
X177069338Y-53296000D01*
X176930662Y-53296000D01*
X176794651Y-53323055D01*
X176666531Y-53376124D01*
X176551226Y-53453168D01*
X176453168Y-53551226D01*
X176376124Y-53666531D01*
X176323055Y-53794651D01*
X176296000Y-53930662D01*
X175986766Y-53930662D01*
X176062811Y-53788393D01*
X176111643Y-53627413D01*
X176128132Y-53460000D01*
X176111643Y-53292587D01*
X176062811Y-53131607D01*
X175983511Y-52983247D01*
X175876791Y-52853209D01*
X175746753Y-52746489D01*
X175598393Y-52667189D01*
X175437413Y-52618357D01*
X175311952Y-52606000D01*
X175228048Y-52606000D01*
X175102587Y-52618357D01*
X174941607Y-52667189D01*
X174793247Y-52746489D01*
X174786960Y-52751649D01*
X174751526Y-52708474D01*
X174697623Y-52664236D01*
X174636125Y-52631365D01*
X174569396Y-52611123D01*
X174500000Y-52604288D01*
X173500000Y-52604288D01*
X173430604Y-52611123D01*
X173363875Y-52631365D01*
X173302377Y-52664236D01*
X173248474Y-52708474D01*
X173204236Y-52762377D01*
X173171365Y-52823875D01*
X173151123Y-52890604D01*
X173144288Y-52960000D01*
X173144288Y-53960000D01*
X173151123Y-54029396D01*
X173171365Y-54096125D01*
X173204236Y-54157623D01*
X173248474Y-54211526D01*
X173302377Y-54255764D01*
X173341408Y-54276626D01*
X173338406Y-54280225D01*
X173263372Y-54417938D01*
X173216646Y-54567643D01*
X173214146Y-54580221D01*
X173275431Y-54705000D01*
X173975000Y-54705000D01*
X173975000Y-54685000D01*
X174025000Y-54685000D01*
X174025000Y-54705000D01*
X174045000Y-54705000D01*
X174045000Y-54755000D01*
X174025000Y-54755000D01*
X174025000Y-55975000D01*
X174045000Y-55975000D01*
X174045000Y-56025000D01*
X174025000Y-56025000D01*
X174025000Y-56045000D01*
X173975000Y-56045000D01*
X173975000Y-56025000D01*
X173275431Y-56025000D01*
X173214146Y-56149779D01*
X173216646Y-56162357D01*
X173263372Y-56312062D01*
X173338406Y-56449775D01*
X173438865Y-56570203D01*
X173472978Y-56597744D01*
X173393209Y-56663209D01*
X173286489Y-56793247D01*
X173207189Y-56941607D01*
X173158357Y-57102587D01*
X173141868Y-57270000D01*
X155650165Y-57270000D01*
X155676945Y-57205349D01*
X155704000Y-57069338D01*
X155704000Y-56930662D01*
X155676945Y-56794651D01*
X155623876Y-56666531D01*
X155546832Y-56551226D01*
X155448774Y-56453168D01*
X155333469Y-56376124D01*
X155205349Y-56323055D01*
X155069338Y-56296000D01*
X154930662Y-56296000D01*
X154794651Y-56323055D01*
X154666531Y-56376124D01*
X154551226Y-56453168D01*
X154453168Y-56551226D01*
X154376124Y-56666531D01*
X154323055Y-56794651D01*
X154296000Y-56930662D01*
X145204000Y-56930662D01*
X145176945Y-56794651D01*
X145123876Y-56666531D01*
X145046832Y-56551226D01*
X144948774Y-56453168D01*
X144833469Y-56376124D01*
X144705349Y-56323055D01*
X144569338Y-56296000D01*
X144430662Y-56296000D01*
X144294651Y-56323055D01*
X144166531Y-56376124D01*
X144051226Y-56453168D01*
X143953168Y-56551226D01*
X143876124Y-56666531D01*
X143823055Y-56794651D01*
X143796000Y-56930662D01*
X143796000Y-57069338D01*
X143823055Y-57205349D01*
X143876124Y-57333469D01*
X143953168Y-57448774D01*
X144004352Y-57499958D01*
X143953084Y-57551226D01*
X143876040Y-57666531D01*
X143822971Y-57794651D01*
X143795916Y-57930662D01*
X138879000Y-57930662D01*
X138879000Y-53930662D01*
X143796000Y-53930662D01*
X143796000Y-54069338D01*
X143823055Y-54205349D01*
X143876124Y-54333469D01*
X143953168Y-54448774D01*
X144004394Y-54500000D01*
X143953168Y-54551226D01*
X143876124Y-54666531D01*
X143823055Y-54794651D01*
X143796000Y-54930662D01*
X143796000Y-55069338D01*
X143823055Y-55205349D01*
X143876124Y-55333469D01*
X143953168Y-55448774D01*
X144051226Y-55546832D01*
X144166531Y-55623876D01*
X144294651Y-55676945D01*
X144430662Y-55704000D01*
X144569338Y-55704000D01*
X144705349Y-55676945D01*
X144833469Y-55623876D01*
X144948774Y-55546832D01*
X145046832Y-55448774D01*
X145123876Y-55333469D01*
X145176945Y-55205349D01*
X145204000Y-55069338D01*
X145204000Y-54930662D01*
X158296000Y-54930662D01*
X158296000Y-55069338D01*
X158323055Y-55205349D01*
X158376124Y-55333469D01*
X158453168Y-55448774D01*
X158551226Y-55546832D01*
X158666531Y-55623876D01*
X158794651Y-55676945D01*
X158930662Y-55704000D01*
X159069338Y-55704000D01*
X159205349Y-55676945D01*
X159333469Y-55623876D01*
X159448774Y-55546832D01*
X159546832Y-55448774D01*
X159623876Y-55333469D01*
X159676945Y-55205349D01*
X159704000Y-55069338D01*
X159704000Y-54930662D01*
X159676945Y-54794651D01*
X159623876Y-54666531D01*
X159546832Y-54551226D01*
X159448774Y-54453168D01*
X159415092Y-54430662D01*
X162296000Y-54430662D01*
X162296000Y-54569338D01*
X162323055Y-54705349D01*
X162376124Y-54833469D01*
X162453168Y-54948774D01*
X162551226Y-55046832D01*
X162666531Y-55123876D01*
X162794651Y-55176945D01*
X162930662Y-55204000D01*
X163069338Y-55204000D01*
X163205349Y-55176945D01*
X163333469Y-55123876D01*
X163448774Y-55046832D01*
X163546832Y-54948774D01*
X163623876Y-54833469D01*
X163676945Y-54705349D01*
X163704000Y-54569338D01*
X163704000Y-54430662D01*
X163676945Y-54294651D01*
X163623876Y-54166531D01*
X163546832Y-54051226D01*
X163448774Y-53953168D01*
X163415092Y-53930662D01*
X165796000Y-53930662D01*
X165796000Y-54069338D01*
X165823055Y-54205349D01*
X165876124Y-54333469D01*
X165953168Y-54448774D01*
X166051226Y-54546832D01*
X166166531Y-54623876D01*
X166294651Y-54676945D01*
X166365937Y-54691125D01*
X166323055Y-54794651D01*
X166296000Y-54930662D01*
X166296000Y-55069338D01*
X166323055Y-55205349D01*
X166376124Y-55333469D01*
X166453168Y-55448774D01*
X166551226Y-55546832D01*
X166666531Y-55623876D01*
X166794651Y-55676945D01*
X166930662Y-55704000D01*
X167069338Y-55704000D01*
X167205349Y-55676945D01*
X167333469Y-55623876D01*
X167448774Y-55546832D01*
X167546832Y-55448774D01*
X167623876Y-55333469D01*
X167676945Y-55205349D01*
X167704000Y-55069338D01*
X167704000Y-54930662D01*
X167693879Y-54879779D01*
X173214146Y-54879779D01*
X173216646Y-54892357D01*
X173263372Y-55042062D01*
X173338406Y-55179775D01*
X173438865Y-55300203D01*
X173519123Y-55365000D01*
X173438865Y-55429797D01*
X173338406Y-55550225D01*
X173263372Y-55687938D01*
X173216646Y-55837643D01*
X173214146Y-55850221D01*
X173275431Y-55975000D01*
X173975000Y-55975000D01*
X173975000Y-54755000D01*
X173275431Y-54755000D01*
X173214146Y-54879779D01*
X167693879Y-54879779D01*
X167676945Y-54794651D01*
X167623876Y-54666531D01*
X167546832Y-54551226D01*
X167448774Y-54453168D01*
X167333469Y-54376124D01*
X167205349Y-54323055D01*
X167134063Y-54308875D01*
X167176945Y-54205349D01*
X167204000Y-54069338D01*
X167204000Y-53930662D01*
X167176945Y-53794651D01*
X167123876Y-53666531D01*
X167046832Y-53551226D01*
X166948774Y-53453168D01*
X166833469Y-53376124D01*
X166705349Y-53323055D01*
X166569338Y-53296000D01*
X166430662Y-53296000D01*
X166294651Y-53323055D01*
X166166531Y-53376124D01*
X166051226Y-53453168D01*
X165953168Y-53551226D01*
X165876124Y-53666531D01*
X165823055Y-53794651D01*
X165796000Y-53930662D01*
X163415092Y-53930662D01*
X163333469Y-53876124D01*
X163205349Y-53823055D01*
X163069338Y-53796000D01*
X162930662Y-53796000D01*
X162794651Y-53823055D01*
X162666531Y-53876124D01*
X162551226Y-53953168D01*
X162453168Y-54051226D01*
X162376124Y-54166531D01*
X162323055Y-54294651D01*
X162296000Y-54430662D01*
X159415092Y-54430662D01*
X159333469Y-54376124D01*
X159205349Y-54323055D01*
X159069338Y-54296000D01*
X158930662Y-54296000D01*
X158794651Y-54323055D01*
X158666531Y-54376124D01*
X158551226Y-54453168D01*
X158453168Y-54551226D01*
X158376124Y-54666531D01*
X158323055Y-54794651D01*
X158296000Y-54930662D01*
X145204000Y-54930662D01*
X145176945Y-54794651D01*
X145123876Y-54666531D01*
X145046832Y-54551226D01*
X144995606Y-54500000D01*
X145046832Y-54448774D01*
X145123876Y-54333469D01*
X145176945Y-54205349D01*
X145204000Y-54069338D01*
X145204000Y-53930662D01*
X146296000Y-53930662D01*
X146296000Y-54069338D01*
X146323055Y-54205349D01*
X146376124Y-54333469D01*
X146453168Y-54448774D01*
X146551226Y-54546832D01*
X146666531Y-54623876D01*
X146794651Y-54676945D01*
X146930662Y-54704000D01*
X147069338Y-54704000D01*
X147205349Y-54676945D01*
X147333469Y-54623876D01*
X147448774Y-54546832D01*
X147546832Y-54448774D01*
X147623876Y-54333469D01*
X147676945Y-54205349D01*
X147704000Y-54069338D01*
X147704000Y-53930662D01*
X155296000Y-53930662D01*
X155296000Y-54069338D01*
X155323055Y-54205349D01*
X155376124Y-54333469D01*
X155453168Y-54448774D01*
X155551226Y-54546832D01*
X155666531Y-54623876D01*
X155794651Y-54676945D01*
X155930662Y-54704000D01*
X156069338Y-54704000D01*
X156205349Y-54676945D01*
X156333469Y-54623876D01*
X156448774Y-54546832D01*
X156546832Y-54448774D01*
X156623876Y-54333469D01*
X156676945Y-54205349D01*
X156704000Y-54069338D01*
X156704000Y-53930662D01*
X156676945Y-53794651D01*
X156623876Y-53666531D01*
X156546832Y-53551226D01*
X156448774Y-53453168D01*
X156333469Y-53376124D01*
X156205349Y-53323055D01*
X156069338Y-53296000D01*
X155930662Y-53296000D01*
X155794651Y-53323055D01*
X155666531Y-53376124D01*
X155551226Y-53453168D01*
X155453168Y-53551226D01*
X155376124Y-53666531D01*
X155323055Y-53794651D01*
X155296000Y-53930662D01*
X147704000Y-53930662D01*
X147676945Y-53794651D01*
X147623876Y-53666531D01*
X147546832Y-53551226D01*
X147448774Y-53453168D01*
X147333469Y-53376124D01*
X147205349Y-53323055D01*
X147069338Y-53296000D01*
X146930662Y-53296000D01*
X146794651Y-53323055D01*
X146666531Y-53376124D01*
X146551226Y-53453168D01*
X146453168Y-53551226D01*
X146376124Y-53666531D01*
X146323055Y-53794651D01*
X146296000Y-53930662D01*
X145204000Y-53930662D01*
X145176945Y-53794651D01*
X145123876Y-53666531D01*
X145105567Y-53639129D01*
X145162448Y-53592448D01*
X145247299Y-53489057D01*
X145310349Y-53371099D01*
X145349175Y-53243107D01*
X145362285Y-53110000D01*
X145349175Y-52976893D01*
X145310349Y-52848901D01*
X145247299Y-52730943D01*
X145162448Y-52627552D01*
X145059057Y-52542701D01*
X144941752Y-52480000D01*
X145155000Y-52480000D01*
X145155000Y-51705000D01*
X143905431Y-51705000D01*
X143844146Y-51829779D01*
X143881329Y-51963050D01*
X143950935Y-52103670D01*
X144046637Y-52228008D01*
X144164757Y-52331287D01*
X144300756Y-52409537D01*
X144449408Y-52459751D01*
X144473966Y-52462947D01*
X144418901Y-52479651D01*
X144300943Y-52542701D01*
X144197552Y-52627552D01*
X144112701Y-52730943D01*
X144049651Y-52848901D01*
X144010825Y-52976893D01*
X143997715Y-53110000D01*
X144010825Y-53243107D01*
X144049651Y-53371099D01*
X144082388Y-53432346D01*
X144051226Y-53453168D01*
X143953168Y-53551226D01*
X143876124Y-53666531D01*
X143823055Y-53794651D01*
X143796000Y-53930662D01*
X138879000Y-53930662D01*
X138879000Y-51829779D01*
X139814146Y-51829779D01*
X139851329Y-51963050D01*
X139920935Y-52103670D01*
X140016637Y-52228008D01*
X140134757Y-52331287D01*
X140270756Y-52409537D01*
X140419408Y-52459751D01*
X140575000Y-52480000D01*
X140975000Y-52480000D01*
X140975000Y-51705000D01*
X141025000Y-51705000D01*
X141025000Y-52480000D01*
X141425000Y-52480000D01*
X141580592Y-52459751D01*
X141729244Y-52409537D01*
X141865243Y-52331287D01*
X141983363Y-52228008D01*
X142079065Y-52103670D01*
X142148671Y-51963050D01*
X142185854Y-51829779D01*
X142124569Y-51705000D01*
X141025000Y-51705000D01*
X140975000Y-51705000D01*
X139875431Y-51705000D01*
X139814146Y-51829779D01*
X138879000Y-51829779D01*
X138879000Y-51337773D01*
X138953168Y-51448774D01*
X139051226Y-51546832D01*
X139166531Y-51623876D01*
X139294651Y-51676945D01*
X139430662Y-51704000D01*
X139569338Y-51704000D01*
X139705349Y-51676945D01*
X139833469Y-51623876D01*
X139853553Y-51610456D01*
X139875431Y-51655000D01*
X140975000Y-51655000D01*
X140975000Y-51635000D01*
X141025000Y-51635000D01*
X141025000Y-51655000D01*
X142124569Y-51655000D01*
X142185854Y-51530221D01*
X143844146Y-51530221D01*
X143905431Y-51655000D01*
X145155000Y-51655000D01*
X145155000Y-51635000D01*
X145205000Y-51635000D01*
X145205000Y-51655000D01*
X145225000Y-51655000D01*
X145225000Y-51705000D01*
X145205000Y-51705000D01*
X145205000Y-52480000D01*
X145755000Y-52480000D01*
X145910592Y-52459751D01*
X146059244Y-52409537D01*
X146195243Y-52331287D01*
X146309361Y-52231507D01*
X146323055Y-52300349D01*
X146376124Y-52428469D01*
X146453168Y-52543774D01*
X146551226Y-52641832D01*
X146666531Y-52718876D01*
X146794651Y-52771945D01*
X146930662Y-52799000D01*
X147069338Y-52799000D01*
X147205349Y-52771945D01*
X147333469Y-52718876D01*
X147448774Y-52641832D01*
X147546832Y-52543774D01*
X147623876Y-52428469D01*
X147676945Y-52300349D01*
X147704000Y-52164338D01*
X147704000Y-52106351D01*
X148150700Y-52106351D01*
X148150700Y-52273649D01*
X148183339Y-52437732D01*
X148247360Y-52592294D01*
X148340306Y-52731397D01*
X148458603Y-52849694D01*
X148597706Y-52942640D01*
X148752268Y-53006661D01*
X148916351Y-53039300D01*
X149083649Y-53039300D01*
X149247732Y-53006661D01*
X149402294Y-52942640D01*
X149420220Y-52930662D01*
X161796000Y-52930662D01*
X161796000Y-53069338D01*
X161823055Y-53205349D01*
X161876124Y-53333469D01*
X161953168Y-53448774D01*
X162051226Y-53546832D01*
X162166531Y-53623876D01*
X162294651Y-53676945D01*
X162430662Y-53704000D01*
X162569338Y-53704000D01*
X162705349Y-53676945D01*
X162833469Y-53623876D01*
X162948774Y-53546832D01*
X163000000Y-53495606D01*
X163051226Y-53546832D01*
X163166531Y-53623876D01*
X163294651Y-53676945D01*
X163430662Y-53704000D01*
X163569338Y-53704000D01*
X163705349Y-53676945D01*
X163833469Y-53623876D01*
X163948774Y-53546832D01*
X164046832Y-53448774D01*
X164123876Y-53333469D01*
X164176945Y-53205349D01*
X164204000Y-53069338D01*
X164204000Y-52930662D01*
X164176945Y-52794651D01*
X164123876Y-52666531D01*
X164046832Y-52551226D01*
X163948774Y-52453168D01*
X163833469Y-52376124D01*
X163705349Y-52323055D01*
X163569338Y-52296000D01*
X163430662Y-52296000D01*
X163294651Y-52323055D01*
X163166531Y-52376124D01*
X163051226Y-52453168D01*
X163000000Y-52504394D01*
X162948774Y-52453168D01*
X162833469Y-52376124D01*
X162705349Y-52323055D01*
X162569338Y-52296000D01*
X162430662Y-52296000D01*
X162294651Y-52323055D01*
X162166531Y-52376124D01*
X162051226Y-52453168D01*
X161953168Y-52551226D01*
X161876124Y-52666531D01*
X161823055Y-52794651D01*
X161796000Y-52930662D01*
X149420220Y-52930662D01*
X149541397Y-52849694D01*
X149659694Y-52731397D01*
X149752640Y-52592294D01*
X149816661Y-52437732D01*
X149849300Y-52273649D01*
X149849300Y-52106351D01*
X149816661Y-51942268D01*
X149752640Y-51787706D01*
X149659694Y-51648603D01*
X149541397Y-51530306D01*
X149402294Y-51437360D01*
X149386124Y-51430662D01*
X164296000Y-51430662D01*
X164296000Y-51569338D01*
X164323055Y-51705349D01*
X164376124Y-51833469D01*
X164453168Y-51948774D01*
X164551226Y-52046832D01*
X164666531Y-52123876D01*
X164794651Y-52176945D01*
X164930662Y-52204000D01*
X165069338Y-52204000D01*
X165205349Y-52176945D01*
X165333469Y-52123876D01*
X165448774Y-52046832D01*
X165500000Y-51995606D01*
X165551226Y-52046832D01*
X165666531Y-52123876D01*
X165794651Y-52176945D01*
X165930662Y-52204000D01*
X166069338Y-52204000D01*
X166205349Y-52176945D01*
X166333469Y-52123876D01*
X166448774Y-52046832D01*
X166546832Y-51948774D01*
X166623876Y-51833469D01*
X166676945Y-51705349D01*
X166704000Y-51569338D01*
X166704000Y-51430662D01*
X166676945Y-51294651D01*
X166623876Y-51166531D01*
X166546832Y-51051226D01*
X166448774Y-50953168D01*
X166333469Y-50876124D01*
X166205349Y-50823055D01*
X166069338Y-50796000D01*
X165930662Y-50796000D01*
X165794651Y-50823055D01*
X165666531Y-50876124D01*
X165551226Y-50953168D01*
X165500000Y-51004394D01*
X165448774Y-50953168D01*
X165333469Y-50876124D01*
X165205349Y-50823055D01*
X165069338Y-50796000D01*
X164930662Y-50796000D01*
X164794651Y-50823055D01*
X164666531Y-50876124D01*
X164551226Y-50953168D01*
X164453168Y-51051226D01*
X164376124Y-51166531D01*
X164323055Y-51294651D01*
X164296000Y-51430662D01*
X149386124Y-51430662D01*
X149247732Y-51373339D01*
X149083649Y-51340700D01*
X148916351Y-51340700D01*
X148752268Y-51373339D01*
X148597706Y-51437360D01*
X148458603Y-51530306D01*
X148340306Y-51648603D01*
X148247360Y-51787706D01*
X148183339Y-51942268D01*
X148150700Y-52106351D01*
X147704000Y-52106351D01*
X147704000Y-52025662D01*
X147676945Y-51889651D01*
X147623876Y-51761531D01*
X147546832Y-51646226D01*
X147448774Y-51548168D01*
X147333469Y-51471124D01*
X147205349Y-51418055D01*
X147069338Y-51391000D01*
X146930662Y-51391000D01*
X146794651Y-51418055D01*
X146666531Y-51471124D01*
X146551226Y-51548168D01*
X146464390Y-51635004D01*
X146515854Y-51530221D01*
X146478671Y-51396950D01*
X146409065Y-51256330D01*
X146313363Y-51131992D01*
X146195243Y-51028713D01*
X146059244Y-50950463D01*
X145910592Y-50900249D01*
X145755000Y-50880000D01*
X144605000Y-50880000D01*
X144449408Y-50900249D01*
X144300756Y-50950463D01*
X144164757Y-51028713D01*
X144046637Y-51131992D01*
X143950935Y-51256330D01*
X143881329Y-51396950D01*
X143844146Y-51530221D01*
X142185854Y-51530221D01*
X142148671Y-51396950D01*
X142079065Y-51256330D01*
X141983363Y-51131992D01*
X141865243Y-51028713D01*
X141729244Y-50950463D01*
X141580592Y-50900249D01*
X141425000Y-50880000D01*
X140575000Y-50880000D01*
X140419408Y-50900249D01*
X140270756Y-50950463D01*
X140204000Y-50988873D01*
X140204000Y-50930662D01*
X140176945Y-50794651D01*
X140123876Y-50666531D01*
X140046832Y-50551226D01*
X139948774Y-50453168D01*
X139833469Y-50376124D01*
X139705349Y-50323055D01*
X139569338Y-50296000D01*
X139430662Y-50296000D01*
X139294651Y-50323055D01*
X139166531Y-50376124D01*
X139051226Y-50453168D01*
X138953168Y-50551226D01*
X138879000Y-50662227D01*
X138879000Y-50518535D01*
X138911655Y-50185499D01*
X139002991Y-49882978D01*
X139146827Y-49612463D01*
X147977801Y-49612463D01*
X147977801Y-49751139D01*
X148004856Y-49887150D01*
X148057925Y-50015270D01*
X148134969Y-50130575D01*
X148233027Y-50228633D01*
X148348332Y-50305677D01*
X148476452Y-50358746D01*
X148612463Y-50385801D01*
X148614199Y-50385801D01*
X148614199Y-50387537D01*
X148641254Y-50523548D01*
X148694323Y-50651668D01*
X148771367Y-50766973D01*
X148869425Y-50865031D01*
X148984730Y-50942075D01*
X149112850Y-50995144D01*
X149248861Y-51022199D01*
X149387537Y-51022199D01*
X149523548Y-50995144D01*
X149651668Y-50942075D01*
X149766973Y-50865031D01*
X149865031Y-50766973D01*
X149942075Y-50651668D01*
X149995144Y-50523548D01*
X150022199Y-50387537D01*
X150022199Y-50248861D01*
X149995144Y-50112850D01*
X149942075Y-49984730D01*
X149905949Y-49930662D01*
X175296000Y-49930662D01*
X175296000Y-50069338D01*
X175323055Y-50205349D01*
X175376124Y-50333469D01*
X175453168Y-50448774D01*
X175551226Y-50546832D01*
X175666531Y-50623876D01*
X175794651Y-50676945D01*
X175930662Y-50704000D01*
X176069338Y-50704000D01*
X176205349Y-50676945D01*
X176333469Y-50623876D01*
X176448774Y-50546832D01*
X176546832Y-50448774D01*
X176623876Y-50333469D01*
X176676945Y-50205349D01*
X176704000Y-50069338D01*
X176704000Y-49930662D01*
X176676945Y-49794651D01*
X176623876Y-49666531D01*
X176546832Y-49551226D01*
X176448774Y-49453168D01*
X176333469Y-49376124D01*
X176205349Y-49323055D01*
X176069338Y-49296000D01*
X175930662Y-49296000D01*
X175794651Y-49323055D01*
X175666531Y-49376124D01*
X175551226Y-49453168D01*
X175453168Y-49551226D01*
X175376124Y-49666531D01*
X175323055Y-49794651D01*
X175296000Y-49930662D01*
X149905949Y-49930662D01*
X149865031Y-49869425D01*
X149766973Y-49771367D01*
X149651668Y-49694323D01*
X149523548Y-49641254D01*
X149387537Y-49614199D01*
X149385801Y-49614199D01*
X149385801Y-49612463D01*
X149358746Y-49476452D01*
X149305677Y-49348332D01*
X149228633Y-49233027D01*
X149130575Y-49134969D01*
X149015270Y-49057925D01*
X148887150Y-49004856D01*
X148751139Y-48977801D01*
X148612463Y-48977801D01*
X148476452Y-49004856D01*
X148348332Y-49057925D01*
X148233027Y-49134969D01*
X148134969Y-49233027D01*
X148057925Y-49348332D01*
X148004856Y-49476452D01*
X147977801Y-49612463D01*
X139146827Y-49612463D01*
X139151350Y-49603957D01*
X139351079Y-49359066D01*
X139594564Y-49157637D01*
X139872539Y-49007337D01*
X140174419Y-48913890D01*
X140506368Y-48879000D01*
X176193014Y-48879000D01*
X177218844Y-49904831D01*
M02*
