G04 #@! TF.GenerationSoftware,KiCad,Pcbnew,(5.1.0)-1*
G04 #@! TF.CreationDate,2020-02-07T03:11:48-08:00*
G04 #@! TF.ProjectId,design,64657369-676e-42e6-9b69-6361645f7063,rev?*
G04 #@! TF.SameCoordinates,Original*
G04 #@! TF.FileFunction,Soldermask,Top*
G04 #@! TF.FilePolarity,Negative*
%FSLAX46Y46*%
G04 Gerber Fmt 4.6, Leading zero omitted, Abs format (unit mm)*
G04 Created by KiCad (PCBNEW (5.1.0)-1) date 2020-02-07 03:11:48*
%MOMM*%
%LPD*%
G04 APERTURE LIST*
%ADD10C,0.700000*%
%ADD11C,0.100000*%
G04 APERTURE END LIST*
D10*
X164000000Y-50000000D02*
G75*
G03X164000000Y-50000000I-250000J0D01*
G01*
X165500000Y-50000000D02*
G75*
G03X165500000Y-50000000I-250000J0D01*
G01*
X167000000Y-50000000D02*
G75*
G03X167000000Y-50000000I-250000J0D01*
G01*
X168500000Y-50000000D02*
G75*
G03X168500000Y-50000000I-250000J0D01*
G01*
D11*
G36*
X144251000Y-62751000D02*
G01*
X143349000Y-62751000D01*
X143349000Y-62149000D01*
X144251000Y-62149000D01*
X144251000Y-62751000D01*
X144251000Y-62751000D01*
G37*
G36*
X142651000Y-62751000D02*
G01*
X141749000Y-62751000D01*
X141749000Y-62149000D01*
X142651000Y-62149000D01*
X142651000Y-62751000D01*
X142651000Y-62751000D01*
G37*
G36*
X175251000Y-62751000D02*
G01*
X174349000Y-62751000D01*
X174349000Y-62149000D01*
X175251000Y-62149000D01*
X175251000Y-62751000D01*
X175251000Y-62751000D01*
G37*
G36*
X173651000Y-62751000D02*
G01*
X172749000Y-62751000D01*
X172749000Y-62149000D01*
X173651000Y-62149000D01*
X173651000Y-62751000D01*
X173651000Y-62751000D01*
G37*
G36*
X144251000Y-61851000D02*
G01*
X143349000Y-61851000D01*
X143349000Y-61249000D01*
X144251000Y-61249000D01*
X144251000Y-61851000D01*
X144251000Y-61851000D01*
G37*
G36*
X142651000Y-61851000D02*
G01*
X141749000Y-61851000D01*
X141749000Y-61249000D01*
X142651000Y-61249000D01*
X142651000Y-61851000D01*
X142651000Y-61851000D01*
G37*
G36*
X173651000Y-61851000D02*
G01*
X172749000Y-61851000D01*
X172749000Y-61249000D01*
X173651000Y-61249000D01*
X173651000Y-61851000D01*
X173651000Y-61851000D01*
G37*
G36*
X175251000Y-61851000D02*
G01*
X174349000Y-61851000D01*
X174349000Y-61249000D01*
X175251000Y-61249000D01*
X175251000Y-61851000D01*
X175251000Y-61851000D01*
G37*
G36*
X161479746Y-56316169D02*
G01*
X161486761Y-56318297D01*
X161493227Y-56321754D01*
X161503661Y-56330316D01*
X162556348Y-57383003D01*
X162564910Y-57393437D01*
X162568367Y-57399903D01*
X162570495Y-57406918D01*
X162571213Y-57414213D01*
X162570495Y-57421508D01*
X162568367Y-57428523D01*
X162564910Y-57434989D01*
X162556348Y-57445423D01*
X162334511Y-57667260D01*
X162324077Y-57675822D01*
X162317610Y-57679279D01*
X162302674Y-57683810D01*
X162280035Y-57693187D01*
X162259661Y-57706801D01*
X162242334Y-57724128D01*
X162228720Y-57744503D01*
X162219344Y-57767140D01*
X162214813Y-57782076D01*
X162211356Y-57788543D01*
X162202794Y-57798977D01*
X161980957Y-58020814D01*
X161970523Y-58029376D01*
X161964057Y-58032833D01*
X161949120Y-58037364D01*
X161926481Y-58046742D01*
X161906107Y-58060356D01*
X161888780Y-58077683D01*
X161875167Y-58098058D01*
X161865791Y-58120693D01*
X161861260Y-58135630D01*
X161857803Y-58142096D01*
X161849241Y-58152530D01*
X161627404Y-58374367D01*
X161616970Y-58382929D01*
X161610503Y-58386386D01*
X161595567Y-58390917D01*
X161572928Y-58400294D01*
X161552554Y-58413908D01*
X161535227Y-58431235D01*
X161521613Y-58451610D01*
X161512237Y-58474247D01*
X161507706Y-58489183D01*
X161504249Y-58495650D01*
X161495687Y-58506084D01*
X161273850Y-58727921D01*
X161263416Y-58736483D01*
X161256950Y-58739940D01*
X161242013Y-58744471D01*
X161219374Y-58753849D01*
X161199000Y-58767463D01*
X161181673Y-58784790D01*
X161168060Y-58805165D01*
X161158684Y-58827800D01*
X161154153Y-58842737D01*
X161150696Y-58849203D01*
X161142134Y-58859637D01*
X160920297Y-59081474D01*
X160909863Y-59090036D01*
X160903397Y-59093493D01*
X160888460Y-59098024D01*
X160865821Y-59107402D01*
X160845447Y-59121016D01*
X160828120Y-59138343D01*
X160814507Y-59158718D01*
X160805131Y-59181353D01*
X160800600Y-59196290D01*
X160797143Y-59202756D01*
X160788581Y-59213190D01*
X160566744Y-59435027D01*
X160556310Y-59443589D01*
X160549843Y-59447046D01*
X160534907Y-59451577D01*
X160512268Y-59460954D01*
X160491894Y-59474568D01*
X160474567Y-59491895D01*
X160460953Y-59512270D01*
X160451577Y-59534907D01*
X160447046Y-59549843D01*
X160443589Y-59556310D01*
X160435027Y-59566744D01*
X160213190Y-59788581D01*
X160202756Y-59797143D01*
X160196290Y-59800600D01*
X160181353Y-59805131D01*
X160158714Y-59814509D01*
X160138340Y-59828123D01*
X160121013Y-59845450D01*
X160107400Y-59865825D01*
X160098024Y-59888460D01*
X160093493Y-59903397D01*
X160090036Y-59909863D01*
X160081474Y-59920297D01*
X159859637Y-60142134D01*
X159849203Y-60150696D01*
X159842737Y-60154153D01*
X159827800Y-60158684D01*
X159805161Y-60168062D01*
X159784787Y-60181676D01*
X159767460Y-60199003D01*
X159753847Y-60219378D01*
X159744471Y-60242013D01*
X159739940Y-60256950D01*
X159736483Y-60263416D01*
X159727921Y-60273850D01*
X159506084Y-60495687D01*
X159495650Y-60504249D01*
X159489183Y-60507706D01*
X159474247Y-60512237D01*
X159451608Y-60521614D01*
X159431234Y-60535228D01*
X159413907Y-60552555D01*
X159400293Y-60572930D01*
X159390917Y-60595567D01*
X159386386Y-60610503D01*
X159382929Y-60616970D01*
X159374367Y-60627404D01*
X159152530Y-60849241D01*
X159142096Y-60857803D01*
X159135630Y-60861260D01*
X159120693Y-60865791D01*
X159098054Y-60875169D01*
X159077680Y-60888783D01*
X159060353Y-60906110D01*
X159046740Y-60926485D01*
X159037364Y-60949120D01*
X159032833Y-60964057D01*
X159029376Y-60970523D01*
X159020814Y-60980957D01*
X158798977Y-61202794D01*
X158788543Y-61211356D01*
X158782076Y-61214813D01*
X158767140Y-61219344D01*
X158744501Y-61228721D01*
X158724127Y-61242335D01*
X158706800Y-61259662D01*
X158693186Y-61280037D01*
X158683810Y-61302674D01*
X158679279Y-61317610D01*
X158675822Y-61324077D01*
X158667260Y-61334511D01*
X158445423Y-61556348D01*
X158434989Y-61564910D01*
X158428523Y-61568367D01*
X158421508Y-61570495D01*
X158414213Y-61571213D01*
X158406918Y-61570495D01*
X158399903Y-61568367D01*
X158393437Y-61564910D01*
X158383003Y-61556348D01*
X157330316Y-60503661D01*
X157321754Y-60493227D01*
X157318297Y-60486761D01*
X157316169Y-60479746D01*
X157315451Y-60472451D01*
X157316169Y-60465156D01*
X157318297Y-60458141D01*
X157321754Y-60451675D01*
X157330316Y-60441241D01*
X157552153Y-60219404D01*
X157562587Y-60210842D01*
X157569054Y-60207385D01*
X157583990Y-60202854D01*
X157606629Y-60193477D01*
X157627003Y-60179863D01*
X157644330Y-60162536D01*
X157657944Y-60142161D01*
X157667320Y-60119524D01*
X157671851Y-60104588D01*
X157675308Y-60098121D01*
X157683870Y-60087687D01*
X157905707Y-59865850D01*
X157916141Y-59857288D01*
X157922607Y-59853831D01*
X157937544Y-59849300D01*
X157960183Y-59839922D01*
X157980557Y-59826308D01*
X157997884Y-59808981D01*
X158011497Y-59788606D01*
X158020873Y-59765971D01*
X158025404Y-59751034D01*
X158028861Y-59744568D01*
X158037423Y-59734134D01*
X158259260Y-59512297D01*
X158269694Y-59503735D01*
X158276161Y-59500278D01*
X158291097Y-59495747D01*
X158313736Y-59486370D01*
X158334110Y-59472756D01*
X158351437Y-59455429D01*
X158365051Y-59435054D01*
X158374427Y-59412417D01*
X158378958Y-59397481D01*
X158382415Y-59391014D01*
X158390977Y-59380580D01*
X158612814Y-59158743D01*
X158623248Y-59150181D01*
X158629714Y-59146724D01*
X158644651Y-59142193D01*
X158667290Y-59132815D01*
X158687664Y-59119201D01*
X158704991Y-59101874D01*
X158718604Y-59081499D01*
X158727980Y-59058864D01*
X158732511Y-59043927D01*
X158735968Y-59037461D01*
X158744530Y-59027027D01*
X158966367Y-58805190D01*
X158976801Y-58796628D01*
X158983267Y-58793171D01*
X158998204Y-58788640D01*
X159020843Y-58779262D01*
X159041217Y-58765648D01*
X159058544Y-58748321D01*
X159072157Y-58727946D01*
X159081533Y-58705311D01*
X159086064Y-58690374D01*
X159089521Y-58683908D01*
X159098083Y-58673474D01*
X159319920Y-58451637D01*
X159330354Y-58443075D01*
X159336821Y-58439618D01*
X159351757Y-58435087D01*
X159374396Y-58425710D01*
X159394770Y-58412096D01*
X159412097Y-58394769D01*
X159425711Y-58374394D01*
X159435087Y-58351757D01*
X159439618Y-58336821D01*
X159443075Y-58330354D01*
X159451637Y-58319920D01*
X159673474Y-58098083D01*
X159683908Y-58089521D01*
X159690374Y-58086064D01*
X159705311Y-58081533D01*
X159727950Y-58072155D01*
X159748324Y-58058541D01*
X159765651Y-58041214D01*
X159779264Y-58020839D01*
X159788640Y-57998204D01*
X159793171Y-57983267D01*
X159796628Y-57976801D01*
X159805190Y-57966367D01*
X160027027Y-57744530D01*
X160037461Y-57735968D01*
X160043927Y-57732511D01*
X160058864Y-57727980D01*
X160081503Y-57718602D01*
X160101877Y-57704988D01*
X160119204Y-57687661D01*
X160132817Y-57667286D01*
X160142193Y-57644651D01*
X160146724Y-57629714D01*
X160150181Y-57623248D01*
X160158743Y-57612814D01*
X160380580Y-57390977D01*
X160391014Y-57382415D01*
X160397481Y-57378958D01*
X160412417Y-57374427D01*
X160435056Y-57365050D01*
X160455430Y-57351436D01*
X160472757Y-57334109D01*
X160486371Y-57313734D01*
X160495747Y-57291097D01*
X160500278Y-57276161D01*
X160503735Y-57269694D01*
X160512297Y-57259260D01*
X160734134Y-57037423D01*
X160744568Y-57028861D01*
X160751034Y-57025404D01*
X160765971Y-57020873D01*
X160788610Y-57011495D01*
X160808984Y-56997881D01*
X160826311Y-56980554D01*
X160839924Y-56960179D01*
X160849300Y-56937544D01*
X160853831Y-56922607D01*
X160857288Y-56916141D01*
X160865850Y-56905707D01*
X161087687Y-56683870D01*
X161098121Y-56675308D01*
X161104588Y-56671851D01*
X161119524Y-56667320D01*
X161142163Y-56657943D01*
X161162537Y-56644329D01*
X161179864Y-56627002D01*
X161193478Y-56606627D01*
X161202854Y-56583990D01*
X161207385Y-56569054D01*
X161210842Y-56562587D01*
X161219404Y-56552153D01*
X161441241Y-56330316D01*
X161451675Y-56321754D01*
X161458141Y-56318297D01*
X161465156Y-56316169D01*
X161472451Y-56315451D01*
X161479746Y-56316169D01*
X161479746Y-56316169D01*
G37*
G36*
X152534844Y-56316169D02*
G01*
X152541859Y-56318297D01*
X152548325Y-56321754D01*
X152558759Y-56330316D01*
X152780596Y-56552153D01*
X152789158Y-56562587D01*
X152792615Y-56569054D01*
X152797146Y-56583990D01*
X152806523Y-56606629D01*
X152820137Y-56627003D01*
X152837464Y-56644330D01*
X152857839Y-56657944D01*
X152880476Y-56667320D01*
X152895412Y-56671851D01*
X152901879Y-56675308D01*
X152912313Y-56683870D01*
X153134150Y-56905707D01*
X153142712Y-56916141D01*
X153146169Y-56922607D01*
X153150700Y-56937544D01*
X153160078Y-56960183D01*
X153173692Y-56980557D01*
X153191019Y-56997884D01*
X153211394Y-57011497D01*
X153234029Y-57020873D01*
X153248966Y-57025404D01*
X153255432Y-57028861D01*
X153265866Y-57037423D01*
X153487703Y-57259260D01*
X153496265Y-57269694D01*
X153499722Y-57276161D01*
X153504253Y-57291097D01*
X153513630Y-57313736D01*
X153527244Y-57334110D01*
X153544571Y-57351437D01*
X153564946Y-57365051D01*
X153587583Y-57374427D01*
X153602519Y-57378958D01*
X153608986Y-57382415D01*
X153619420Y-57390977D01*
X153841257Y-57612814D01*
X153849819Y-57623248D01*
X153853276Y-57629714D01*
X153857807Y-57644651D01*
X153867185Y-57667290D01*
X153880799Y-57687664D01*
X153898126Y-57704991D01*
X153918501Y-57718604D01*
X153941136Y-57727980D01*
X153956073Y-57732511D01*
X153962539Y-57735968D01*
X153972973Y-57744530D01*
X154194810Y-57966367D01*
X154203372Y-57976801D01*
X154206829Y-57983267D01*
X154211360Y-57998204D01*
X154220738Y-58020843D01*
X154234352Y-58041217D01*
X154251679Y-58058544D01*
X154272054Y-58072157D01*
X154294689Y-58081533D01*
X154309626Y-58086064D01*
X154316092Y-58089521D01*
X154326526Y-58098083D01*
X154548363Y-58319920D01*
X154556925Y-58330354D01*
X154560382Y-58336821D01*
X154564913Y-58351757D01*
X154574290Y-58374396D01*
X154587904Y-58394770D01*
X154605231Y-58412097D01*
X154625606Y-58425711D01*
X154648243Y-58435087D01*
X154663179Y-58439618D01*
X154669646Y-58443075D01*
X154680080Y-58451637D01*
X154901917Y-58673474D01*
X154910479Y-58683908D01*
X154913936Y-58690374D01*
X154918467Y-58705311D01*
X154927845Y-58727950D01*
X154941459Y-58748324D01*
X154958786Y-58765651D01*
X154979161Y-58779264D01*
X155001796Y-58788640D01*
X155016733Y-58793171D01*
X155023199Y-58796628D01*
X155033633Y-58805190D01*
X155255470Y-59027027D01*
X155264032Y-59037461D01*
X155267489Y-59043927D01*
X155272020Y-59058864D01*
X155281398Y-59081503D01*
X155295012Y-59101877D01*
X155312339Y-59119204D01*
X155332714Y-59132817D01*
X155355349Y-59142193D01*
X155370286Y-59146724D01*
X155376752Y-59150181D01*
X155387186Y-59158743D01*
X155609023Y-59380580D01*
X155617585Y-59391014D01*
X155621042Y-59397481D01*
X155625573Y-59412417D01*
X155634950Y-59435056D01*
X155648564Y-59455430D01*
X155665891Y-59472757D01*
X155686266Y-59486371D01*
X155708903Y-59495747D01*
X155723839Y-59500278D01*
X155730306Y-59503735D01*
X155740740Y-59512297D01*
X155962577Y-59734134D01*
X155971139Y-59744568D01*
X155974596Y-59751034D01*
X155979127Y-59765971D01*
X155988505Y-59788610D01*
X156002119Y-59808984D01*
X156019446Y-59826311D01*
X156039821Y-59839924D01*
X156062456Y-59849300D01*
X156077393Y-59853831D01*
X156083859Y-59857288D01*
X156094293Y-59865850D01*
X156316130Y-60087687D01*
X156324692Y-60098121D01*
X156328149Y-60104588D01*
X156332680Y-60119524D01*
X156342057Y-60142163D01*
X156355671Y-60162537D01*
X156372998Y-60179864D01*
X156393373Y-60193478D01*
X156416010Y-60202854D01*
X156430946Y-60207385D01*
X156437413Y-60210842D01*
X156447847Y-60219404D01*
X156669684Y-60441241D01*
X156678246Y-60451675D01*
X156681703Y-60458141D01*
X156683831Y-60465156D01*
X156684549Y-60472451D01*
X156683831Y-60479746D01*
X156681703Y-60486761D01*
X156678246Y-60493227D01*
X156669684Y-60503661D01*
X155616997Y-61556348D01*
X155606563Y-61564910D01*
X155600097Y-61568367D01*
X155593082Y-61570495D01*
X155585787Y-61571213D01*
X155578492Y-61570495D01*
X155571477Y-61568367D01*
X155565011Y-61564910D01*
X155554577Y-61556348D01*
X155332740Y-61334511D01*
X155324178Y-61324077D01*
X155320721Y-61317610D01*
X155316190Y-61302674D01*
X155306813Y-61280035D01*
X155293199Y-61259661D01*
X155275872Y-61242334D01*
X155255497Y-61228720D01*
X155232860Y-61219344D01*
X155217924Y-61214813D01*
X155211457Y-61211356D01*
X155201023Y-61202794D01*
X154979186Y-60980957D01*
X154970624Y-60970523D01*
X154967167Y-60964057D01*
X154962636Y-60949120D01*
X154953258Y-60926481D01*
X154939644Y-60906107D01*
X154922317Y-60888780D01*
X154901942Y-60875167D01*
X154879307Y-60865791D01*
X154864370Y-60861260D01*
X154857904Y-60857803D01*
X154847470Y-60849241D01*
X154625633Y-60627404D01*
X154617071Y-60616970D01*
X154613614Y-60610503D01*
X154609083Y-60595567D01*
X154599706Y-60572928D01*
X154586092Y-60552554D01*
X154568765Y-60535227D01*
X154548390Y-60521613D01*
X154525753Y-60512237D01*
X154510817Y-60507706D01*
X154504350Y-60504249D01*
X154493916Y-60495687D01*
X154272079Y-60273850D01*
X154263517Y-60263416D01*
X154260060Y-60256950D01*
X154255529Y-60242013D01*
X154246151Y-60219374D01*
X154232537Y-60199000D01*
X154215210Y-60181673D01*
X154194835Y-60168060D01*
X154172200Y-60158684D01*
X154157263Y-60154153D01*
X154150797Y-60150696D01*
X154140363Y-60142134D01*
X153918526Y-59920297D01*
X153909964Y-59909863D01*
X153906507Y-59903397D01*
X153901976Y-59888460D01*
X153892598Y-59865821D01*
X153878984Y-59845447D01*
X153861657Y-59828120D01*
X153841282Y-59814507D01*
X153818647Y-59805131D01*
X153803710Y-59800600D01*
X153797244Y-59797143D01*
X153786810Y-59788581D01*
X153564973Y-59566744D01*
X153556411Y-59556310D01*
X153552954Y-59549843D01*
X153548423Y-59534907D01*
X153539046Y-59512268D01*
X153525432Y-59491894D01*
X153508105Y-59474567D01*
X153487730Y-59460953D01*
X153465093Y-59451577D01*
X153450157Y-59447046D01*
X153443690Y-59443589D01*
X153433256Y-59435027D01*
X153211419Y-59213190D01*
X153202857Y-59202756D01*
X153199400Y-59196290D01*
X153194869Y-59181353D01*
X153185491Y-59158714D01*
X153171877Y-59138340D01*
X153154550Y-59121013D01*
X153134175Y-59107400D01*
X153111540Y-59098024D01*
X153096603Y-59093493D01*
X153090137Y-59090036D01*
X153079703Y-59081474D01*
X152857866Y-58859637D01*
X152849304Y-58849203D01*
X152845847Y-58842737D01*
X152841316Y-58827800D01*
X152831938Y-58805161D01*
X152818324Y-58784787D01*
X152800997Y-58767460D01*
X152780622Y-58753847D01*
X152757987Y-58744471D01*
X152743050Y-58739940D01*
X152736584Y-58736483D01*
X152726150Y-58727921D01*
X152504313Y-58506084D01*
X152495751Y-58495650D01*
X152492294Y-58489183D01*
X152487763Y-58474247D01*
X152478386Y-58451608D01*
X152464772Y-58431234D01*
X152447445Y-58413907D01*
X152427070Y-58400293D01*
X152404433Y-58390917D01*
X152389497Y-58386386D01*
X152383030Y-58382929D01*
X152372596Y-58374367D01*
X152150759Y-58152530D01*
X152142197Y-58142096D01*
X152138740Y-58135630D01*
X152134209Y-58120693D01*
X152124831Y-58098054D01*
X152111217Y-58077680D01*
X152093890Y-58060353D01*
X152073515Y-58046740D01*
X152050880Y-58037364D01*
X152035943Y-58032833D01*
X152029477Y-58029376D01*
X152019043Y-58020814D01*
X151797206Y-57798977D01*
X151788644Y-57788543D01*
X151785187Y-57782076D01*
X151780656Y-57767140D01*
X151771279Y-57744501D01*
X151757665Y-57724127D01*
X151740338Y-57706800D01*
X151719963Y-57693186D01*
X151697326Y-57683810D01*
X151682390Y-57679279D01*
X151675923Y-57675822D01*
X151665489Y-57667260D01*
X151443652Y-57445423D01*
X151435090Y-57434989D01*
X151431633Y-57428523D01*
X151429505Y-57421508D01*
X151428787Y-57414213D01*
X151429505Y-57406918D01*
X151431633Y-57399903D01*
X151435090Y-57393437D01*
X151443652Y-57383003D01*
X152496339Y-56330316D01*
X152506773Y-56321754D01*
X152513239Y-56318297D01*
X152520254Y-56316169D01*
X152527549Y-56315451D01*
X152534844Y-56316169D01*
X152534844Y-56316169D01*
G37*
G36*
X145838015Y-51136973D02*
G01*
X145941879Y-51168479D01*
X145959904Y-51178114D01*
X146037600Y-51219643D01*
X146121501Y-51288499D01*
X146190357Y-51372400D01*
X146226995Y-51440945D01*
X146241521Y-51468121D01*
X146273027Y-51571985D01*
X146283666Y-51680000D01*
X146273027Y-51788015D01*
X146241521Y-51891879D01*
X146226995Y-51919055D01*
X146190357Y-51987600D01*
X146121501Y-52071501D01*
X146037600Y-52140357D01*
X145978630Y-52171877D01*
X145941879Y-52191521D01*
X145899462Y-52204388D01*
X145876832Y-52213762D01*
X145856458Y-52227375D01*
X145839131Y-52244702D01*
X145825517Y-52265077D01*
X145816139Y-52287716D01*
X145811359Y-52311749D01*
X145811359Y-52336253D01*
X145816139Y-52360286D01*
X145825517Y-52382925D01*
X145839130Y-52403299D01*
X145856457Y-52420626D01*
X145876832Y-52434240D01*
X145899471Y-52443618D01*
X145923504Y-52448398D01*
X145935756Y-52449000D01*
X146371000Y-52449000D01*
X146371000Y-59551000D01*
X145935756Y-59551000D01*
X145911370Y-59553402D01*
X145887921Y-59560515D01*
X145866310Y-59572066D01*
X145847368Y-59587611D01*
X145831823Y-59606553D01*
X145820272Y-59628164D01*
X145813159Y-59651613D01*
X145810757Y-59675999D01*
X145813159Y-59700385D01*
X145820272Y-59723834D01*
X145831823Y-59745445D01*
X145847368Y-59764387D01*
X145866310Y-59779932D01*
X145887921Y-59791483D01*
X145899453Y-59795609D01*
X145941879Y-59808479D01*
X145969055Y-59823005D01*
X146037600Y-59859643D01*
X146121501Y-59928499D01*
X146190357Y-60012400D01*
X146209296Y-60047833D01*
X146241521Y-60108121D01*
X146273027Y-60211985D01*
X146283666Y-60320000D01*
X146273027Y-60428015D01*
X146241521Y-60531879D01*
X146241519Y-60531882D01*
X146190357Y-60627600D01*
X146121501Y-60711501D01*
X146037600Y-60780357D01*
X145983288Y-60809387D01*
X145941879Y-60831521D01*
X145838015Y-60863027D01*
X145757067Y-60871000D01*
X144602933Y-60871000D01*
X144521985Y-60863027D01*
X144418121Y-60831521D01*
X144376712Y-60809387D01*
X144322400Y-60780357D01*
X144238499Y-60711501D01*
X144169643Y-60627600D01*
X144118481Y-60531882D01*
X144118479Y-60531879D01*
X144086973Y-60428015D01*
X144076334Y-60320000D01*
X144086973Y-60211985D01*
X144118479Y-60108121D01*
X144150704Y-60047833D01*
X144169643Y-60012400D01*
X144238499Y-59928499D01*
X144322400Y-59859643D01*
X144390945Y-59823005D01*
X144418121Y-59808479D01*
X144521985Y-59776973D01*
X144602933Y-59769000D01*
X145044001Y-59769000D01*
X145068387Y-59766598D01*
X145091836Y-59759485D01*
X145113447Y-59747934D01*
X145132389Y-59732389D01*
X145147934Y-59713447D01*
X145159485Y-59691836D01*
X145166598Y-59668387D01*
X145169000Y-59644001D01*
X145169000Y-59236193D01*
X145166598Y-59211807D01*
X145159485Y-59188358D01*
X145147934Y-59166747D01*
X145132389Y-59147805D01*
X145113447Y-59132260D01*
X145091836Y-59120709D01*
X145068387Y-59113596D01*
X145044001Y-59111194D01*
X145019615Y-59113596D01*
X144996166Y-59120709D01*
X144974555Y-59132260D01*
X144955613Y-59147805D01*
X144947375Y-59156895D01*
X144947159Y-59157159D01*
X144889904Y-59204146D01*
X144824585Y-59239060D01*
X144753710Y-59260560D01*
X144698472Y-59266000D01*
X144661528Y-59266000D01*
X144606290Y-59260560D01*
X144535415Y-59239060D01*
X144470096Y-59204146D01*
X144412841Y-59157159D01*
X144365854Y-59099904D01*
X144330940Y-59034585D01*
X144309440Y-58963710D01*
X144302181Y-58890000D01*
X144309440Y-58816290D01*
X144330940Y-58745415D01*
X144365854Y-58680096D01*
X144412841Y-58622841D01*
X144470096Y-58575854D01*
X144535415Y-58540940D01*
X144606290Y-58519440D01*
X144661528Y-58514000D01*
X144698472Y-58514000D01*
X144753710Y-58519440D01*
X144824585Y-58540940D01*
X144889904Y-58575854D01*
X144947159Y-58622841D01*
X144947375Y-58623105D01*
X144964702Y-58640432D01*
X144985076Y-58654046D01*
X145007715Y-58663423D01*
X145031749Y-58668204D01*
X145056253Y-58668204D01*
X145080286Y-58663424D01*
X145102925Y-58654046D01*
X145123299Y-58640433D01*
X145140626Y-58623106D01*
X145154240Y-58602732D01*
X145163617Y-58580093D01*
X145168398Y-58556059D01*
X145169000Y-58543807D01*
X145169000Y-58075999D01*
X145166598Y-58051613D01*
X145159485Y-58028164D01*
X145147934Y-58006553D01*
X145132389Y-57987611D01*
X145119000Y-57976623D01*
X145119000Y-54023377D01*
X145132389Y-54012389D01*
X145147934Y-53993447D01*
X145159485Y-53971836D01*
X145166598Y-53948387D01*
X145169000Y-53924001D01*
X145169000Y-53456193D01*
X145166598Y-53431807D01*
X145159485Y-53408358D01*
X145147934Y-53386747D01*
X145132389Y-53367805D01*
X145113447Y-53352260D01*
X145091836Y-53340709D01*
X145068387Y-53333596D01*
X145044001Y-53331194D01*
X145019615Y-53333596D01*
X144996166Y-53340709D01*
X144974555Y-53352260D01*
X144955613Y-53367805D01*
X144947375Y-53376895D01*
X144947159Y-53377159D01*
X144889904Y-53424146D01*
X144824585Y-53459060D01*
X144753710Y-53480560D01*
X144698472Y-53486000D01*
X144661528Y-53486000D01*
X144606290Y-53480560D01*
X144535415Y-53459060D01*
X144470096Y-53424146D01*
X144412841Y-53377159D01*
X144365854Y-53319904D01*
X144330940Y-53254585D01*
X144309440Y-53183710D01*
X144302181Y-53110000D01*
X144309440Y-53036290D01*
X144330940Y-52965415D01*
X144365854Y-52900096D01*
X144412841Y-52842841D01*
X144470096Y-52795854D01*
X144535415Y-52760940D01*
X144606290Y-52739440D01*
X144661528Y-52734000D01*
X144698472Y-52734000D01*
X144753710Y-52739440D01*
X144824585Y-52760940D01*
X144889904Y-52795854D01*
X144947159Y-52842841D01*
X144947375Y-52843105D01*
X144964702Y-52860432D01*
X144985076Y-52874046D01*
X145007715Y-52883423D01*
X145031749Y-52888204D01*
X145056253Y-52888204D01*
X145080286Y-52883424D01*
X145102925Y-52874046D01*
X145123299Y-52860433D01*
X145140626Y-52843106D01*
X145154240Y-52822732D01*
X145163617Y-52800093D01*
X145168398Y-52776059D01*
X145169000Y-52763807D01*
X145169000Y-52355999D01*
X145166598Y-52331613D01*
X145159485Y-52308164D01*
X145147934Y-52286553D01*
X145132389Y-52267611D01*
X145113447Y-52252066D01*
X145091836Y-52240515D01*
X145068387Y-52233402D01*
X145044001Y-52231000D01*
X144602933Y-52231000D01*
X144521985Y-52223027D01*
X144418121Y-52191521D01*
X144381370Y-52171877D01*
X144322400Y-52140357D01*
X144238499Y-52071501D01*
X144169643Y-51987600D01*
X144133005Y-51919055D01*
X144118479Y-51891879D01*
X144086973Y-51788015D01*
X144076334Y-51680000D01*
X144086973Y-51571985D01*
X144118479Y-51468121D01*
X144133005Y-51440945D01*
X144169643Y-51372400D01*
X144238499Y-51288499D01*
X144322400Y-51219643D01*
X144400096Y-51178114D01*
X144418121Y-51168479D01*
X144521985Y-51136973D01*
X144602933Y-51129000D01*
X145757067Y-51129000D01*
X145838015Y-51136973D01*
X145838015Y-51136973D01*
G37*
G36*
X141508015Y-59776973D02*
G01*
X141611879Y-59808479D01*
X141639055Y-59823005D01*
X141707600Y-59859643D01*
X141791501Y-59928499D01*
X141860357Y-60012400D01*
X141879296Y-60047833D01*
X141911521Y-60108121D01*
X141943027Y-60211985D01*
X141953666Y-60320000D01*
X141943027Y-60428015D01*
X141911521Y-60531879D01*
X141911519Y-60531882D01*
X141860357Y-60627600D01*
X141791501Y-60711501D01*
X141707600Y-60780357D01*
X141653288Y-60809387D01*
X141611879Y-60831521D01*
X141508015Y-60863027D01*
X141427067Y-60871000D01*
X140572933Y-60871000D01*
X140491985Y-60863027D01*
X140388121Y-60831521D01*
X140346712Y-60809387D01*
X140292400Y-60780357D01*
X140208499Y-60711501D01*
X140139643Y-60627600D01*
X140088481Y-60531882D01*
X140088479Y-60531879D01*
X140056973Y-60428015D01*
X140046334Y-60320000D01*
X140056973Y-60211985D01*
X140088479Y-60108121D01*
X140120704Y-60047833D01*
X140139643Y-60012400D01*
X140208499Y-59928499D01*
X140292400Y-59859643D01*
X140360945Y-59823005D01*
X140388121Y-59808479D01*
X140491985Y-59776973D01*
X140572933Y-59769000D01*
X141427067Y-59769000D01*
X141508015Y-59776973D01*
X141508015Y-59776973D01*
G37*
G36*
X169551000Y-60601000D02*
G01*
X167249000Y-60601000D01*
X167249000Y-58699000D01*
X169551000Y-58699000D01*
X169551000Y-60601000D01*
X169551000Y-60601000D01*
G37*
G36*
X150122578Y-59274197D02*
G01*
X150175350Y-59284694D01*
X150274770Y-59325875D01*
X150364246Y-59385661D01*
X150440339Y-59461754D01*
X150500125Y-59551230D01*
X150541306Y-59650650D01*
X150544834Y-59668387D01*
X150562300Y-59756193D01*
X150562300Y-59863807D01*
X150557396Y-59888460D01*
X150541306Y-59969350D01*
X150500125Y-60068770D01*
X150440339Y-60158246D01*
X150364246Y-60234339D01*
X150274770Y-60294125D01*
X150175350Y-60335306D01*
X150122578Y-60345803D01*
X150069807Y-60356300D01*
X149962193Y-60356300D01*
X149909422Y-60345803D01*
X149856650Y-60335306D01*
X149757230Y-60294125D01*
X149667754Y-60234339D01*
X149591661Y-60158246D01*
X149531875Y-60068770D01*
X149490694Y-59969350D01*
X149474604Y-59888460D01*
X149469700Y-59863807D01*
X149469700Y-59756193D01*
X149487166Y-59668387D01*
X149490694Y-59650650D01*
X149531875Y-59551230D01*
X149591661Y-59461754D01*
X149667754Y-59385661D01*
X149757230Y-59325875D01*
X149856650Y-59284694D01*
X149909422Y-59274197D01*
X149962193Y-59263700D01*
X150069807Y-59263700D01*
X150122578Y-59274197D01*
X150122578Y-59274197D01*
G37*
G36*
X148090578Y-59274197D02*
G01*
X148143350Y-59284694D01*
X148242770Y-59325875D01*
X148332246Y-59385661D01*
X148408339Y-59461754D01*
X148468125Y-59551230D01*
X148509306Y-59650650D01*
X148512834Y-59668387D01*
X148530300Y-59756193D01*
X148530300Y-59863807D01*
X148525396Y-59888460D01*
X148509306Y-59969350D01*
X148468125Y-60068770D01*
X148408339Y-60158246D01*
X148332246Y-60234339D01*
X148242770Y-60294125D01*
X148143350Y-60335306D01*
X148090578Y-60345803D01*
X148037807Y-60356300D01*
X147930193Y-60356300D01*
X147877422Y-60345803D01*
X147824650Y-60335306D01*
X147725230Y-60294125D01*
X147635754Y-60234339D01*
X147559661Y-60158246D01*
X147499875Y-60068770D01*
X147458694Y-59969350D01*
X147442604Y-59888460D01*
X147437700Y-59863807D01*
X147437700Y-59756193D01*
X147455166Y-59668387D01*
X147458694Y-59650650D01*
X147499875Y-59551230D01*
X147559661Y-59461754D01*
X147635754Y-59385661D01*
X147725230Y-59325875D01*
X147824650Y-59284694D01*
X147877422Y-59274197D01*
X147930193Y-59263700D01*
X148037807Y-59263700D01*
X148090578Y-59274197D01*
X148090578Y-59274197D01*
G37*
G36*
X174551000Y-53137265D02*
G01*
X174553402Y-53161651D01*
X174560515Y-53185100D01*
X174572066Y-53206711D01*
X174587611Y-53225653D01*
X174606553Y-53241198D01*
X174628164Y-53252749D01*
X174651613Y-53259862D01*
X174675999Y-53262264D01*
X174700385Y-53259862D01*
X174723834Y-53252749D01*
X174745445Y-53241198D01*
X174764387Y-53225653D01*
X174779932Y-53206711D01*
X174786233Y-53196198D01*
X174809644Y-53152400D01*
X174878499Y-53068499D01*
X174881651Y-53065912D01*
X174962400Y-52999643D01*
X175043914Y-52956073D01*
X175058121Y-52948479D01*
X175161985Y-52916973D01*
X175242933Y-52909000D01*
X175297067Y-52909000D01*
X175378015Y-52916973D01*
X175481879Y-52948479D01*
X175496086Y-52956073D01*
X175577600Y-52999643D01*
X175661501Y-53068499D01*
X175730357Y-53152400D01*
X175763929Y-53215210D01*
X175781521Y-53248121D01*
X175813027Y-53351985D01*
X175823666Y-53460000D01*
X175813027Y-53568015D01*
X175781521Y-53671879D01*
X175781191Y-53672496D01*
X175730357Y-53767600D01*
X175661501Y-53851501D01*
X175577600Y-53920357D01*
X175516046Y-53953258D01*
X175481879Y-53971521D01*
X175469131Y-53975388D01*
X175446504Y-53984760D01*
X175426130Y-53998374D01*
X175408803Y-54015701D01*
X175395189Y-54036075D01*
X175385812Y-54058714D01*
X175381031Y-54082747D01*
X175381031Y-54107251D01*
X175385811Y-54131285D01*
X175395188Y-54153924D01*
X175408802Y-54174298D01*
X175426129Y-54191625D01*
X175446503Y-54205239D01*
X175469131Y-54214612D01*
X175481879Y-54218479D01*
X175499906Y-54228115D01*
X175577600Y-54269643D01*
X175661501Y-54338499D01*
X175730357Y-54422400D01*
X175766995Y-54490945D01*
X175781521Y-54518121D01*
X175813027Y-54621985D01*
X175823666Y-54730000D01*
X175813027Y-54838015D01*
X175781521Y-54941879D01*
X175776026Y-54952159D01*
X175730357Y-55037600D01*
X175661501Y-55121501D01*
X175577600Y-55190357D01*
X175509055Y-55226995D01*
X175481879Y-55241521D01*
X175469131Y-55245388D01*
X175446504Y-55254760D01*
X175426130Y-55268374D01*
X175408803Y-55285701D01*
X175395189Y-55306075D01*
X175385812Y-55328714D01*
X175381031Y-55352747D01*
X175381031Y-55377251D01*
X175385811Y-55401285D01*
X175395188Y-55423924D01*
X175408802Y-55444298D01*
X175426129Y-55461625D01*
X175446503Y-55475239D01*
X175469131Y-55484612D01*
X175481879Y-55488479D01*
X175509055Y-55503005D01*
X175577600Y-55539643D01*
X175661501Y-55608499D01*
X175730357Y-55692400D01*
X175743249Y-55716520D01*
X175781521Y-55788121D01*
X175813027Y-55891985D01*
X175823666Y-56000000D01*
X175813027Y-56108015D01*
X175781521Y-56211879D01*
X175781519Y-56211882D01*
X175730357Y-56307600D01*
X175661501Y-56391501D01*
X175577600Y-56460357D01*
X175509055Y-56496995D01*
X175481879Y-56511521D01*
X175469131Y-56515388D01*
X175446504Y-56524760D01*
X175426130Y-56538374D01*
X175408803Y-56555701D01*
X175395189Y-56576075D01*
X175385812Y-56598714D01*
X175381031Y-56622747D01*
X175381031Y-56647251D01*
X175385811Y-56671285D01*
X175395188Y-56693924D01*
X175408802Y-56714298D01*
X175426129Y-56731625D01*
X175446503Y-56745239D01*
X175469131Y-56754612D01*
X175481879Y-56758479D01*
X175509055Y-56773005D01*
X175577600Y-56809643D01*
X175661501Y-56878499D01*
X175730357Y-56962400D01*
X175761611Y-57020873D01*
X175781521Y-57058121D01*
X175813027Y-57161985D01*
X175823666Y-57270000D01*
X175813027Y-57378015D01*
X175781521Y-57481879D01*
X175766995Y-57509055D01*
X175730357Y-57577600D01*
X175661501Y-57661501D01*
X175577600Y-57730357D01*
X175517281Y-57762598D01*
X175481879Y-57781521D01*
X175469131Y-57785388D01*
X175446504Y-57794760D01*
X175426130Y-57808374D01*
X175408803Y-57825701D01*
X175395189Y-57846075D01*
X175385812Y-57868714D01*
X175381031Y-57892747D01*
X175381031Y-57917251D01*
X175385811Y-57941285D01*
X175395188Y-57963924D01*
X175408802Y-57984298D01*
X175426129Y-58001625D01*
X175446503Y-58015239D01*
X175469131Y-58024612D01*
X175481879Y-58028479D01*
X175498501Y-58037364D01*
X175577600Y-58079643D01*
X175661501Y-58148499D01*
X175730357Y-58232400D01*
X175743249Y-58256520D01*
X175781521Y-58328121D01*
X175813027Y-58431985D01*
X175823666Y-58540000D01*
X175813027Y-58648015D01*
X175781521Y-58751879D01*
X175773191Y-58767463D01*
X175730357Y-58847600D01*
X175661501Y-58931501D01*
X175577600Y-59000357D01*
X175513563Y-59034585D01*
X175481879Y-59051521D01*
X175378015Y-59083027D01*
X175297067Y-59091000D01*
X175242933Y-59091000D01*
X175161985Y-59083027D01*
X175058121Y-59051521D01*
X175026437Y-59034585D01*
X174962400Y-59000357D01*
X174878499Y-58931501D01*
X174809643Y-58847600D01*
X174766809Y-58767463D01*
X174758479Y-58751879D01*
X174754612Y-58739131D01*
X174745240Y-58716504D01*
X174731626Y-58696130D01*
X174714299Y-58678803D01*
X174693925Y-58665189D01*
X174671286Y-58655812D01*
X174647253Y-58651031D01*
X174622749Y-58651031D01*
X174598715Y-58655811D01*
X174576076Y-58665188D01*
X174555702Y-58678802D01*
X174538375Y-58696129D01*
X174524761Y-58716503D01*
X174515388Y-58739131D01*
X174511521Y-58751879D01*
X174503191Y-58767463D01*
X174460357Y-58847600D01*
X174391501Y-58931501D01*
X174307600Y-59000357D01*
X174243563Y-59034585D01*
X174211879Y-59051521D01*
X174108015Y-59083027D01*
X174027067Y-59091000D01*
X173972933Y-59091000D01*
X173891985Y-59083027D01*
X173788121Y-59051521D01*
X173756437Y-59034585D01*
X173692400Y-59000357D01*
X173608499Y-58931501D01*
X173539643Y-58847600D01*
X173496809Y-58767463D01*
X173488479Y-58751879D01*
X173456973Y-58648015D01*
X173446334Y-58540000D01*
X173456973Y-58431985D01*
X173488479Y-58328121D01*
X173526751Y-58256520D01*
X173539643Y-58232400D01*
X173608499Y-58148499D01*
X173692400Y-58079643D01*
X173771499Y-58037364D01*
X173788121Y-58028479D01*
X173800869Y-58024612D01*
X173823496Y-58015240D01*
X173843870Y-58001626D01*
X173861197Y-57984299D01*
X173874811Y-57963925D01*
X173884188Y-57941286D01*
X173888969Y-57917253D01*
X173888969Y-57892749D01*
X173888969Y-57892747D01*
X174111031Y-57892747D01*
X174111031Y-57917251D01*
X174115811Y-57941285D01*
X174125188Y-57963924D01*
X174138802Y-57984298D01*
X174156129Y-58001625D01*
X174176503Y-58015239D01*
X174199131Y-58024612D01*
X174211879Y-58028479D01*
X174228501Y-58037364D01*
X174307600Y-58079643D01*
X174391501Y-58148499D01*
X174460357Y-58232400D01*
X174473249Y-58256520D01*
X174511521Y-58328121D01*
X174515388Y-58340869D01*
X174524760Y-58363496D01*
X174538374Y-58383870D01*
X174555701Y-58401197D01*
X174576075Y-58414811D01*
X174598714Y-58424188D01*
X174622747Y-58428969D01*
X174647251Y-58428969D01*
X174671285Y-58424189D01*
X174693924Y-58414812D01*
X174714298Y-58401198D01*
X174731625Y-58383871D01*
X174745239Y-58363497D01*
X174754612Y-58340869D01*
X174758479Y-58328121D01*
X174796751Y-58256520D01*
X174809643Y-58232400D01*
X174878499Y-58148499D01*
X174962400Y-58079643D01*
X175041499Y-58037364D01*
X175058121Y-58028479D01*
X175070869Y-58024612D01*
X175093496Y-58015240D01*
X175113870Y-58001626D01*
X175131197Y-57984299D01*
X175144811Y-57963925D01*
X175154188Y-57941286D01*
X175158969Y-57917253D01*
X175158969Y-57892749D01*
X175154189Y-57868715D01*
X175144812Y-57846076D01*
X175131198Y-57825702D01*
X175113871Y-57808375D01*
X175093497Y-57794761D01*
X175070869Y-57785388D01*
X175058121Y-57781521D01*
X175022719Y-57762598D01*
X174962400Y-57730357D01*
X174878499Y-57661501D01*
X174809643Y-57577600D01*
X174773005Y-57509055D01*
X174758479Y-57481879D01*
X174754612Y-57469131D01*
X174745240Y-57446504D01*
X174731626Y-57426130D01*
X174714299Y-57408803D01*
X174693925Y-57395189D01*
X174671286Y-57385812D01*
X174647253Y-57381031D01*
X174622749Y-57381031D01*
X174598715Y-57385811D01*
X174576076Y-57395188D01*
X174555702Y-57408802D01*
X174538375Y-57426129D01*
X174524761Y-57446503D01*
X174515388Y-57469131D01*
X174511521Y-57481879D01*
X174496995Y-57509055D01*
X174460357Y-57577600D01*
X174391501Y-57661501D01*
X174307600Y-57730357D01*
X174247281Y-57762598D01*
X174211879Y-57781521D01*
X174199131Y-57785388D01*
X174176504Y-57794760D01*
X174156130Y-57808374D01*
X174138803Y-57825701D01*
X174125189Y-57846075D01*
X174115812Y-57868714D01*
X174111031Y-57892747D01*
X173888969Y-57892747D01*
X173884189Y-57868715D01*
X173874812Y-57846076D01*
X173861198Y-57825702D01*
X173843871Y-57808375D01*
X173823497Y-57794761D01*
X173800869Y-57785388D01*
X173788121Y-57781521D01*
X173752719Y-57762598D01*
X173692400Y-57730357D01*
X173608499Y-57661501D01*
X173539643Y-57577600D01*
X173503005Y-57509055D01*
X173488479Y-57481879D01*
X173456973Y-57378015D01*
X173446334Y-57270000D01*
X173456973Y-57161985D01*
X173488479Y-57058121D01*
X173508389Y-57020873D01*
X173539643Y-56962400D01*
X173608499Y-56878499D01*
X173692400Y-56809643D01*
X173760945Y-56773005D01*
X173788121Y-56758479D01*
X173800869Y-56754612D01*
X173823496Y-56745240D01*
X173843870Y-56731626D01*
X173861197Y-56714299D01*
X173874811Y-56693925D01*
X173884188Y-56671286D01*
X173888969Y-56647253D01*
X173888969Y-56622749D01*
X173888969Y-56622747D01*
X174111031Y-56622747D01*
X174111031Y-56647251D01*
X174115811Y-56671285D01*
X174125188Y-56693924D01*
X174138802Y-56714298D01*
X174156129Y-56731625D01*
X174176503Y-56745239D01*
X174199131Y-56754612D01*
X174211879Y-56758479D01*
X174239055Y-56773005D01*
X174307600Y-56809643D01*
X174391501Y-56878499D01*
X174460357Y-56962400D01*
X174491611Y-57020873D01*
X174511521Y-57058121D01*
X174515388Y-57070869D01*
X174524760Y-57093496D01*
X174538374Y-57113870D01*
X174555701Y-57131197D01*
X174576075Y-57144811D01*
X174598714Y-57154188D01*
X174622747Y-57158969D01*
X174647251Y-57158969D01*
X174671285Y-57154189D01*
X174693924Y-57144812D01*
X174714298Y-57131198D01*
X174731625Y-57113871D01*
X174745239Y-57093497D01*
X174754612Y-57070869D01*
X174758479Y-57058121D01*
X174778389Y-57020873D01*
X174809643Y-56962400D01*
X174878499Y-56878499D01*
X174962400Y-56809643D01*
X175030945Y-56773005D01*
X175058121Y-56758479D01*
X175070869Y-56754612D01*
X175093496Y-56745240D01*
X175113870Y-56731626D01*
X175131197Y-56714299D01*
X175144811Y-56693925D01*
X175154188Y-56671286D01*
X175158969Y-56647253D01*
X175158969Y-56622749D01*
X175154189Y-56598715D01*
X175144812Y-56576076D01*
X175131198Y-56555702D01*
X175113871Y-56538375D01*
X175093497Y-56524761D01*
X175070869Y-56515388D01*
X175058121Y-56511521D01*
X175030945Y-56496995D01*
X174962400Y-56460357D01*
X174878499Y-56391501D01*
X174809643Y-56307600D01*
X174758481Y-56211882D01*
X174758479Y-56211879D01*
X174754612Y-56199131D01*
X174745240Y-56176504D01*
X174731626Y-56156130D01*
X174714299Y-56138803D01*
X174693925Y-56125189D01*
X174671286Y-56115812D01*
X174647253Y-56111031D01*
X174622749Y-56111031D01*
X174598715Y-56115811D01*
X174576076Y-56125188D01*
X174555702Y-56138802D01*
X174538375Y-56156129D01*
X174524761Y-56176503D01*
X174515388Y-56199131D01*
X174511521Y-56211879D01*
X174511519Y-56211882D01*
X174460357Y-56307600D01*
X174391501Y-56391501D01*
X174307600Y-56460357D01*
X174239055Y-56496995D01*
X174211879Y-56511521D01*
X174199131Y-56515388D01*
X174176504Y-56524760D01*
X174156130Y-56538374D01*
X174138803Y-56555701D01*
X174125189Y-56576075D01*
X174115812Y-56598714D01*
X174111031Y-56622747D01*
X173888969Y-56622747D01*
X173884189Y-56598715D01*
X173874812Y-56576076D01*
X173861198Y-56555702D01*
X173843871Y-56538375D01*
X173823497Y-56524761D01*
X173800869Y-56515388D01*
X173788121Y-56511521D01*
X173760945Y-56496995D01*
X173692400Y-56460357D01*
X173608499Y-56391501D01*
X173539643Y-56307600D01*
X173488481Y-56211882D01*
X173488479Y-56211879D01*
X173456973Y-56108015D01*
X173446334Y-56000000D01*
X173456973Y-55891985D01*
X173488479Y-55788121D01*
X173526751Y-55716520D01*
X173539643Y-55692400D01*
X173608499Y-55608499D01*
X173692400Y-55539643D01*
X173760945Y-55503005D01*
X173788121Y-55488479D01*
X173800869Y-55484612D01*
X173823496Y-55475240D01*
X173843870Y-55461626D01*
X173861197Y-55444299D01*
X173874811Y-55423925D01*
X173884188Y-55401286D01*
X173888969Y-55377253D01*
X173888969Y-55352749D01*
X173888969Y-55352747D01*
X174111031Y-55352747D01*
X174111031Y-55377251D01*
X174115811Y-55401285D01*
X174125188Y-55423924D01*
X174138802Y-55444298D01*
X174156129Y-55461625D01*
X174176503Y-55475239D01*
X174199131Y-55484612D01*
X174211879Y-55488479D01*
X174239055Y-55503005D01*
X174307600Y-55539643D01*
X174391501Y-55608499D01*
X174460357Y-55692400D01*
X174473249Y-55716520D01*
X174511521Y-55788121D01*
X174515388Y-55800869D01*
X174524760Y-55823496D01*
X174538374Y-55843870D01*
X174555701Y-55861197D01*
X174576075Y-55874811D01*
X174598714Y-55884188D01*
X174622747Y-55888969D01*
X174647251Y-55888969D01*
X174671285Y-55884189D01*
X174693924Y-55874812D01*
X174714298Y-55861198D01*
X174731625Y-55843871D01*
X174745239Y-55823497D01*
X174754612Y-55800869D01*
X174758479Y-55788121D01*
X174796751Y-55716520D01*
X174809643Y-55692400D01*
X174878499Y-55608499D01*
X174962400Y-55539643D01*
X175030945Y-55503005D01*
X175058121Y-55488479D01*
X175070869Y-55484612D01*
X175093496Y-55475240D01*
X175113870Y-55461626D01*
X175131197Y-55444299D01*
X175144811Y-55423925D01*
X175154188Y-55401286D01*
X175158969Y-55377253D01*
X175158969Y-55352749D01*
X175154189Y-55328715D01*
X175144812Y-55306076D01*
X175131198Y-55285702D01*
X175113871Y-55268375D01*
X175093497Y-55254761D01*
X175070869Y-55245388D01*
X175058121Y-55241521D01*
X175030945Y-55226995D01*
X174962400Y-55190357D01*
X174878499Y-55121501D01*
X174809643Y-55037600D01*
X174763974Y-54952159D01*
X174758479Y-54941879D01*
X174754612Y-54929131D01*
X174745240Y-54906504D01*
X174731626Y-54886130D01*
X174714299Y-54868803D01*
X174693925Y-54855189D01*
X174671286Y-54845812D01*
X174647253Y-54841031D01*
X174622749Y-54841031D01*
X174598715Y-54845811D01*
X174576076Y-54855188D01*
X174555702Y-54868802D01*
X174538375Y-54886129D01*
X174524761Y-54906503D01*
X174515388Y-54929131D01*
X174511521Y-54941879D01*
X174506026Y-54952159D01*
X174460357Y-55037600D01*
X174391501Y-55121501D01*
X174307600Y-55190357D01*
X174239055Y-55226995D01*
X174211879Y-55241521D01*
X174199131Y-55245388D01*
X174176504Y-55254760D01*
X174156130Y-55268374D01*
X174138803Y-55285701D01*
X174125189Y-55306075D01*
X174115812Y-55328714D01*
X174111031Y-55352747D01*
X173888969Y-55352747D01*
X173884189Y-55328715D01*
X173874812Y-55306076D01*
X173861198Y-55285702D01*
X173843871Y-55268375D01*
X173823497Y-55254761D01*
X173800869Y-55245388D01*
X173788121Y-55241521D01*
X173760945Y-55226995D01*
X173692400Y-55190357D01*
X173608499Y-55121501D01*
X173539643Y-55037600D01*
X173493974Y-54952159D01*
X173488479Y-54941879D01*
X173456973Y-54838015D01*
X173446334Y-54730000D01*
X173456973Y-54621985D01*
X173488479Y-54518121D01*
X173503005Y-54490945D01*
X173539643Y-54422400D01*
X173608499Y-54338499D01*
X173692399Y-54269645D01*
X173692398Y-54269645D01*
X173692400Y-54269644D01*
X173736193Y-54246236D01*
X173756563Y-54232625D01*
X173773890Y-54215298D01*
X173787504Y-54194924D01*
X173796881Y-54172285D01*
X173801662Y-54148252D01*
X173801662Y-54135999D01*
X174197736Y-54135999D01*
X174200138Y-54160385D01*
X174207251Y-54183834D01*
X174218802Y-54205445D01*
X174234347Y-54224387D01*
X174253289Y-54239932D01*
X174263802Y-54246233D01*
X174307600Y-54269644D01*
X174307602Y-54269645D01*
X174307601Y-54269645D01*
X174391501Y-54338499D01*
X174460357Y-54422400D01*
X174496995Y-54490945D01*
X174511521Y-54518121D01*
X174515388Y-54530869D01*
X174524760Y-54553496D01*
X174538374Y-54573870D01*
X174555701Y-54591197D01*
X174576075Y-54604811D01*
X174598714Y-54614188D01*
X174622747Y-54618969D01*
X174647251Y-54618969D01*
X174671285Y-54614189D01*
X174693924Y-54604812D01*
X174714298Y-54591198D01*
X174731625Y-54573871D01*
X174745239Y-54553497D01*
X174754612Y-54530869D01*
X174758479Y-54518121D01*
X174773005Y-54490945D01*
X174809643Y-54422400D01*
X174878499Y-54338499D01*
X174962400Y-54269643D01*
X175040094Y-54228115D01*
X175058121Y-54218479D01*
X175070869Y-54214612D01*
X175093496Y-54205240D01*
X175113870Y-54191626D01*
X175131197Y-54174299D01*
X175144811Y-54153925D01*
X175154188Y-54131286D01*
X175158969Y-54107253D01*
X175158969Y-54082749D01*
X175154189Y-54058715D01*
X175144812Y-54036076D01*
X175131198Y-54015702D01*
X175113871Y-53998375D01*
X175093497Y-53984761D01*
X175070869Y-53975388D01*
X175058121Y-53971521D01*
X175023954Y-53953258D01*
X174962400Y-53920357D01*
X174878499Y-53851501D01*
X174809645Y-53767601D01*
X174809644Y-53767600D01*
X174786236Y-53723807D01*
X174772625Y-53703437D01*
X174755298Y-53686110D01*
X174734924Y-53672496D01*
X174712285Y-53663119D01*
X174688252Y-53658338D01*
X174663748Y-53658338D01*
X174639714Y-53663118D01*
X174617076Y-53672495D01*
X174596701Y-53686109D01*
X174579374Y-53703436D01*
X174565760Y-53723810D01*
X174556383Y-53746449D01*
X174551602Y-53770482D01*
X174551000Y-53782735D01*
X174551000Y-54011000D01*
X174322735Y-54011000D01*
X174298349Y-54013402D01*
X174274900Y-54020515D01*
X174253289Y-54032066D01*
X174234347Y-54047611D01*
X174218802Y-54066553D01*
X174207251Y-54088164D01*
X174200138Y-54111613D01*
X174197736Y-54135999D01*
X173801662Y-54135999D01*
X173801662Y-54123748D01*
X173796882Y-54099714D01*
X173787505Y-54077076D01*
X173773891Y-54056701D01*
X173756564Y-54039374D01*
X173736190Y-54025760D01*
X173713551Y-54016383D01*
X173689518Y-54011602D01*
X173677265Y-54011000D01*
X173449000Y-54011000D01*
X173449000Y-52909000D01*
X174551000Y-52909000D01*
X174551000Y-53137265D01*
X174551000Y-53137265D01*
G37*
G36*
X148494714Y-58112389D02*
G01*
X148566433Y-58142096D01*
X148575645Y-58145912D01*
X148648480Y-58194579D01*
X148710421Y-58256520D01*
X148758261Y-58328118D01*
X148759089Y-58329357D01*
X148792611Y-58410286D01*
X148809700Y-58496199D01*
X148809700Y-58583801D01*
X148792611Y-58669714D01*
X148760050Y-58748324D01*
X148759088Y-58750645D01*
X148710421Y-58823480D01*
X148648480Y-58885421D01*
X148575645Y-58934088D01*
X148575644Y-58934089D01*
X148575643Y-58934089D01*
X148494714Y-58967611D01*
X148408801Y-58984700D01*
X148321199Y-58984700D01*
X148235286Y-58967611D01*
X148154357Y-58934089D01*
X148154356Y-58934089D01*
X148154355Y-58934088D01*
X148081520Y-58885421D01*
X148019579Y-58823480D01*
X147970912Y-58750645D01*
X147969951Y-58748324D01*
X147937389Y-58669714D01*
X147920300Y-58583801D01*
X147920300Y-58496199D01*
X147937389Y-58410286D01*
X147970911Y-58329357D01*
X147971739Y-58328118D01*
X148019579Y-58256520D01*
X148081520Y-58194579D01*
X148154355Y-58145912D01*
X148163568Y-58142096D01*
X148235286Y-58112389D01*
X148321199Y-58095300D01*
X148408801Y-58095300D01*
X148494714Y-58112389D01*
X148494714Y-58112389D01*
G37*
G36*
X149764714Y-58112389D02*
G01*
X149836433Y-58142096D01*
X149845645Y-58145912D01*
X149918480Y-58194579D01*
X149980421Y-58256520D01*
X150028261Y-58328118D01*
X150029089Y-58329357D01*
X150062611Y-58410286D01*
X150079700Y-58496199D01*
X150079700Y-58583801D01*
X150062611Y-58669714D01*
X150030050Y-58748324D01*
X150029088Y-58750645D01*
X149980421Y-58823480D01*
X149918480Y-58885421D01*
X149845645Y-58934088D01*
X149845644Y-58934089D01*
X149845643Y-58934089D01*
X149764714Y-58967611D01*
X149678801Y-58984700D01*
X149591199Y-58984700D01*
X149505286Y-58967611D01*
X149424357Y-58934089D01*
X149424356Y-58934089D01*
X149424355Y-58934088D01*
X149351520Y-58885421D01*
X149289579Y-58823480D01*
X149240912Y-58750645D01*
X149239951Y-58748324D01*
X149207389Y-58669714D01*
X149190300Y-58583801D01*
X149190300Y-58496199D01*
X149207389Y-58410286D01*
X149240911Y-58329357D01*
X149241739Y-58328118D01*
X149289579Y-58256520D01*
X149351520Y-58194579D01*
X149424355Y-58145912D01*
X149433568Y-58142096D01*
X149505286Y-58112389D01*
X149591199Y-58095300D01*
X149678801Y-58095300D01*
X149764714Y-58112389D01*
X149764714Y-58112389D01*
G37*
G36*
X165851000Y-57951000D02*
G01*
X164449000Y-57951000D01*
X164449000Y-54049000D01*
X165851000Y-54049000D01*
X165851000Y-57951000D01*
X165851000Y-57951000D01*
G37*
G36*
X148494714Y-56842389D02*
G01*
X148575645Y-56875912D01*
X148648480Y-56924579D01*
X148710421Y-56986520D01*
X148756506Y-57055491D01*
X148759089Y-57059357D01*
X148792611Y-57140286D01*
X148809700Y-57226199D01*
X148809700Y-57313801D01*
X148792611Y-57399714D01*
X148763478Y-57470048D01*
X148759088Y-57480645D01*
X148710421Y-57553480D01*
X148648480Y-57615421D01*
X148575645Y-57664088D01*
X148575644Y-57664089D01*
X148575643Y-57664089D01*
X148494714Y-57697611D01*
X148408801Y-57714700D01*
X148321199Y-57714700D01*
X148235286Y-57697611D01*
X148154357Y-57664089D01*
X148154356Y-57664089D01*
X148154355Y-57664088D01*
X148081520Y-57615421D01*
X148019579Y-57553480D01*
X147970912Y-57480645D01*
X147966523Y-57470048D01*
X147937389Y-57399714D01*
X147920300Y-57313801D01*
X147920300Y-57226199D01*
X147937389Y-57140286D01*
X147970911Y-57059357D01*
X147973494Y-57055491D01*
X148019579Y-56986520D01*
X148081520Y-56924579D01*
X148154355Y-56875912D01*
X148235286Y-56842389D01*
X148321199Y-56825300D01*
X148408801Y-56825300D01*
X148494714Y-56842389D01*
X148494714Y-56842389D01*
G37*
G36*
X149764714Y-56842389D02*
G01*
X149845645Y-56875912D01*
X149918480Y-56924579D01*
X149980421Y-56986520D01*
X150026506Y-57055491D01*
X150029089Y-57059357D01*
X150062611Y-57140286D01*
X150079700Y-57226199D01*
X150079700Y-57313801D01*
X150062611Y-57399714D01*
X150033478Y-57470048D01*
X150029088Y-57480645D01*
X149980421Y-57553480D01*
X149918480Y-57615421D01*
X149845645Y-57664088D01*
X149845644Y-57664089D01*
X149845643Y-57664089D01*
X149764714Y-57697611D01*
X149678801Y-57714700D01*
X149591199Y-57714700D01*
X149505286Y-57697611D01*
X149424357Y-57664089D01*
X149424356Y-57664089D01*
X149424355Y-57664088D01*
X149351520Y-57615421D01*
X149289579Y-57553480D01*
X149240912Y-57480645D01*
X149236523Y-57470048D01*
X149207389Y-57399714D01*
X149190300Y-57313801D01*
X149190300Y-57226199D01*
X149207389Y-57140286D01*
X149240911Y-57059357D01*
X149243494Y-57055491D01*
X149289579Y-56986520D01*
X149351520Y-56924579D01*
X149424355Y-56875912D01*
X149505286Y-56842389D01*
X149591199Y-56825300D01*
X149678801Y-56825300D01*
X149764714Y-56842389D01*
X149764714Y-56842389D01*
G37*
G36*
X148494714Y-55572389D02*
G01*
X148575645Y-55605912D01*
X148648480Y-55654579D01*
X148710421Y-55716520D01*
X148710422Y-55716522D01*
X148759089Y-55789357D01*
X148792611Y-55870286D01*
X148809700Y-55956199D01*
X148809700Y-56043801D01*
X148792611Y-56129714D01*
X148781670Y-56156129D01*
X148759088Y-56210645D01*
X148710421Y-56283480D01*
X148648480Y-56345421D01*
X148575645Y-56394088D01*
X148575644Y-56394089D01*
X148575643Y-56394089D01*
X148494714Y-56427611D01*
X148408801Y-56444700D01*
X148321199Y-56444700D01*
X148235286Y-56427611D01*
X148154357Y-56394089D01*
X148154356Y-56394089D01*
X148154355Y-56394088D01*
X148081520Y-56345421D01*
X148019579Y-56283480D01*
X147970912Y-56210645D01*
X147948331Y-56156129D01*
X147937389Y-56129714D01*
X147920300Y-56043801D01*
X147920300Y-55956199D01*
X147937389Y-55870286D01*
X147970911Y-55789357D01*
X148019578Y-55716522D01*
X148019579Y-55716520D01*
X148081520Y-55654579D01*
X148154355Y-55605912D01*
X148235286Y-55572389D01*
X148321199Y-55555300D01*
X148408801Y-55555300D01*
X148494714Y-55572389D01*
X148494714Y-55572389D01*
G37*
G36*
X149764714Y-55572389D02*
G01*
X149845645Y-55605912D01*
X149918480Y-55654579D01*
X149980421Y-55716520D01*
X149980422Y-55716522D01*
X150029089Y-55789357D01*
X150062611Y-55870286D01*
X150079700Y-55956199D01*
X150079700Y-56043801D01*
X150062611Y-56129714D01*
X150051670Y-56156129D01*
X150029088Y-56210645D01*
X149980421Y-56283480D01*
X149918480Y-56345421D01*
X149845645Y-56394088D01*
X149845644Y-56394089D01*
X149845643Y-56394089D01*
X149764714Y-56427611D01*
X149678801Y-56444700D01*
X149591199Y-56444700D01*
X149505286Y-56427611D01*
X149424357Y-56394089D01*
X149424356Y-56394089D01*
X149424355Y-56394088D01*
X149351520Y-56345421D01*
X149289579Y-56283480D01*
X149240912Y-56210645D01*
X149218331Y-56156129D01*
X149207389Y-56129714D01*
X149190300Y-56043801D01*
X149190300Y-55956199D01*
X149207389Y-55870286D01*
X149240911Y-55789357D01*
X149289578Y-55716522D01*
X149289579Y-55716520D01*
X149351520Y-55654579D01*
X149424355Y-55605912D01*
X149505286Y-55572389D01*
X149591199Y-55555300D01*
X149678801Y-55555300D01*
X149764714Y-55572389D01*
X149764714Y-55572389D01*
G37*
G36*
X155593082Y-50429505D02*
G01*
X155600097Y-50431633D01*
X155606563Y-50435090D01*
X155616997Y-50443652D01*
X156669684Y-51496339D01*
X156678246Y-51506773D01*
X156681703Y-51513239D01*
X156683831Y-51520254D01*
X156684549Y-51527549D01*
X156683831Y-51534844D01*
X156681703Y-51541859D01*
X156678246Y-51548325D01*
X156669684Y-51558759D01*
X156447847Y-51780596D01*
X156437413Y-51789158D01*
X156430946Y-51792615D01*
X156416010Y-51797146D01*
X156393371Y-51806523D01*
X156372997Y-51820137D01*
X156355670Y-51837464D01*
X156342056Y-51857839D01*
X156332680Y-51880476D01*
X156328149Y-51895412D01*
X156324692Y-51901879D01*
X156316130Y-51912313D01*
X156094293Y-52134150D01*
X156083859Y-52142712D01*
X156077393Y-52146169D01*
X156062456Y-52150700D01*
X156039817Y-52160078D01*
X156019443Y-52173692D01*
X156002116Y-52191019D01*
X155988503Y-52211394D01*
X155979127Y-52234029D01*
X155974596Y-52248966D01*
X155971139Y-52255432D01*
X155962577Y-52265866D01*
X155740740Y-52487703D01*
X155730306Y-52496265D01*
X155723839Y-52499722D01*
X155708903Y-52504253D01*
X155686264Y-52513630D01*
X155665890Y-52527244D01*
X155648563Y-52544571D01*
X155634949Y-52564946D01*
X155625573Y-52587583D01*
X155621042Y-52602519D01*
X155617585Y-52608986D01*
X155609023Y-52619420D01*
X155387186Y-52841257D01*
X155376752Y-52849819D01*
X155370286Y-52853276D01*
X155355349Y-52857807D01*
X155332710Y-52867185D01*
X155312336Y-52880799D01*
X155295009Y-52898126D01*
X155281396Y-52918501D01*
X155272020Y-52941136D01*
X155267489Y-52956073D01*
X155264032Y-52962539D01*
X155255470Y-52972973D01*
X155033633Y-53194810D01*
X155023199Y-53203372D01*
X155016733Y-53206829D01*
X155001796Y-53211360D01*
X154979157Y-53220738D01*
X154958783Y-53234352D01*
X154941456Y-53251679D01*
X154927843Y-53272054D01*
X154918467Y-53294689D01*
X154913936Y-53309626D01*
X154910479Y-53316092D01*
X154901917Y-53326526D01*
X154680080Y-53548363D01*
X154669646Y-53556925D01*
X154663179Y-53560382D01*
X154648243Y-53564913D01*
X154625604Y-53574290D01*
X154605230Y-53587904D01*
X154587903Y-53605231D01*
X154574289Y-53625606D01*
X154564913Y-53648243D01*
X154560382Y-53663179D01*
X154556925Y-53669646D01*
X154548363Y-53680080D01*
X154326526Y-53901917D01*
X154316092Y-53910479D01*
X154309626Y-53913936D01*
X154294689Y-53918467D01*
X154272050Y-53927845D01*
X154251676Y-53941459D01*
X154234349Y-53958786D01*
X154220736Y-53979161D01*
X154211360Y-54001796D01*
X154206829Y-54016733D01*
X154203372Y-54023199D01*
X154194810Y-54033633D01*
X153972973Y-54255470D01*
X153962539Y-54264032D01*
X153956073Y-54267489D01*
X153941136Y-54272020D01*
X153918497Y-54281398D01*
X153898123Y-54295012D01*
X153880796Y-54312339D01*
X153867183Y-54332714D01*
X153857807Y-54355349D01*
X153853276Y-54370286D01*
X153849819Y-54376752D01*
X153841257Y-54387186D01*
X153619420Y-54609023D01*
X153608986Y-54617585D01*
X153602519Y-54621042D01*
X153587583Y-54625573D01*
X153564944Y-54634950D01*
X153544570Y-54648564D01*
X153527243Y-54665891D01*
X153513629Y-54686266D01*
X153504253Y-54708903D01*
X153499722Y-54723839D01*
X153496265Y-54730306D01*
X153487703Y-54740740D01*
X153265866Y-54962577D01*
X153255432Y-54971139D01*
X153248966Y-54974596D01*
X153234029Y-54979127D01*
X153211390Y-54988505D01*
X153191016Y-55002119D01*
X153173689Y-55019446D01*
X153160076Y-55039821D01*
X153150700Y-55062456D01*
X153146169Y-55077393D01*
X153142712Y-55083859D01*
X153134150Y-55094293D01*
X152912313Y-55316130D01*
X152901879Y-55324692D01*
X152895412Y-55328149D01*
X152880476Y-55332680D01*
X152857837Y-55342057D01*
X152837463Y-55355671D01*
X152820136Y-55372998D01*
X152806522Y-55393373D01*
X152797146Y-55416010D01*
X152792615Y-55430946D01*
X152789158Y-55437413D01*
X152780596Y-55447847D01*
X152558759Y-55669684D01*
X152548325Y-55678246D01*
X152541859Y-55681703D01*
X152534844Y-55683831D01*
X152527549Y-55684549D01*
X152520254Y-55683831D01*
X152513239Y-55681703D01*
X152506773Y-55678246D01*
X152496339Y-55669684D01*
X151443652Y-54616997D01*
X151435090Y-54606563D01*
X151431633Y-54600097D01*
X151429505Y-54593082D01*
X151428787Y-54585787D01*
X151429505Y-54578492D01*
X151431633Y-54571477D01*
X151435090Y-54565011D01*
X151443652Y-54554577D01*
X151665489Y-54332740D01*
X151675923Y-54324178D01*
X151682390Y-54320721D01*
X151697326Y-54316190D01*
X151719965Y-54306813D01*
X151740339Y-54293199D01*
X151757666Y-54275872D01*
X151771280Y-54255497D01*
X151780656Y-54232860D01*
X151785187Y-54217924D01*
X151788644Y-54211457D01*
X151797206Y-54201023D01*
X152019043Y-53979186D01*
X152029477Y-53970624D01*
X152035943Y-53967167D01*
X152050880Y-53962636D01*
X152073519Y-53953258D01*
X152093893Y-53939644D01*
X152111220Y-53922317D01*
X152124833Y-53901942D01*
X152134209Y-53879307D01*
X152138740Y-53864370D01*
X152142197Y-53857904D01*
X152150759Y-53847470D01*
X152372596Y-53625633D01*
X152383030Y-53617071D01*
X152389497Y-53613614D01*
X152404433Y-53609083D01*
X152427072Y-53599706D01*
X152447446Y-53586092D01*
X152464773Y-53568765D01*
X152478387Y-53548390D01*
X152487763Y-53525753D01*
X152492294Y-53510817D01*
X152495751Y-53504350D01*
X152504313Y-53493916D01*
X152726150Y-53272079D01*
X152736584Y-53263517D01*
X152743050Y-53260060D01*
X152757987Y-53255529D01*
X152780626Y-53246151D01*
X152801000Y-53232537D01*
X152818327Y-53215210D01*
X152831940Y-53194835D01*
X152841316Y-53172200D01*
X152845847Y-53157263D01*
X152849304Y-53150797D01*
X152857866Y-53140363D01*
X153079703Y-52918526D01*
X153090137Y-52909964D01*
X153096603Y-52906507D01*
X153111540Y-52901976D01*
X153134179Y-52892598D01*
X153154553Y-52878984D01*
X153171880Y-52861657D01*
X153185493Y-52841282D01*
X153194869Y-52818647D01*
X153199400Y-52803710D01*
X153202857Y-52797244D01*
X153211419Y-52786810D01*
X153433256Y-52564973D01*
X153443690Y-52556411D01*
X153450157Y-52552954D01*
X153465093Y-52548423D01*
X153487732Y-52539046D01*
X153508106Y-52525432D01*
X153525433Y-52508105D01*
X153539047Y-52487730D01*
X153548423Y-52465093D01*
X153552954Y-52450157D01*
X153556411Y-52443690D01*
X153564973Y-52433256D01*
X153786810Y-52211419D01*
X153797244Y-52202857D01*
X153803710Y-52199400D01*
X153818647Y-52194869D01*
X153841286Y-52185491D01*
X153861660Y-52171877D01*
X153878987Y-52154550D01*
X153892600Y-52134175D01*
X153901976Y-52111540D01*
X153906507Y-52096603D01*
X153909964Y-52090137D01*
X153918526Y-52079703D01*
X154140363Y-51857866D01*
X154150797Y-51849304D01*
X154157263Y-51845847D01*
X154172200Y-51841316D01*
X154194839Y-51831938D01*
X154215213Y-51818324D01*
X154232540Y-51800997D01*
X154246153Y-51780622D01*
X154255529Y-51757987D01*
X154260060Y-51743050D01*
X154263517Y-51736584D01*
X154272079Y-51726150D01*
X154493916Y-51504313D01*
X154504350Y-51495751D01*
X154510817Y-51492294D01*
X154525753Y-51487763D01*
X154548392Y-51478386D01*
X154568766Y-51464772D01*
X154586093Y-51447445D01*
X154599707Y-51427070D01*
X154609083Y-51404433D01*
X154613614Y-51389497D01*
X154617071Y-51383030D01*
X154625633Y-51372596D01*
X154847470Y-51150759D01*
X154857904Y-51142197D01*
X154864370Y-51138740D01*
X154879307Y-51134209D01*
X154901946Y-51124831D01*
X154922320Y-51111217D01*
X154939647Y-51093890D01*
X154953260Y-51073515D01*
X154962636Y-51050880D01*
X154967167Y-51035943D01*
X154970624Y-51029477D01*
X154979186Y-51019043D01*
X155201023Y-50797206D01*
X155211457Y-50788644D01*
X155217924Y-50785187D01*
X155232860Y-50780656D01*
X155255499Y-50771279D01*
X155275873Y-50757665D01*
X155293200Y-50740338D01*
X155306814Y-50719963D01*
X155316190Y-50697326D01*
X155320721Y-50682390D01*
X155324178Y-50675923D01*
X155332740Y-50665489D01*
X155554577Y-50443652D01*
X155565011Y-50435090D01*
X155571477Y-50431633D01*
X155578492Y-50429505D01*
X155585787Y-50428787D01*
X155593082Y-50429505D01*
X155593082Y-50429505D01*
G37*
G36*
X158421508Y-50429505D02*
G01*
X158428523Y-50431633D01*
X158434989Y-50435090D01*
X158445423Y-50443652D01*
X158667260Y-50665489D01*
X158675822Y-50675923D01*
X158679279Y-50682390D01*
X158683810Y-50697326D01*
X158693187Y-50719965D01*
X158706801Y-50740339D01*
X158724128Y-50757666D01*
X158744503Y-50771280D01*
X158767140Y-50780656D01*
X158782076Y-50785187D01*
X158788543Y-50788644D01*
X158798977Y-50797206D01*
X159020814Y-51019043D01*
X159029376Y-51029477D01*
X159032833Y-51035943D01*
X159037364Y-51050880D01*
X159046742Y-51073519D01*
X159060356Y-51093893D01*
X159077683Y-51111220D01*
X159098058Y-51124833D01*
X159120693Y-51134209D01*
X159135630Y-51138740D01*
X159142096Y-51142197D01*
X159152530Y-51150759D01*
X159374367Y-51372596D01*
X159382929Y-51383030D01*
X159386386Y-51389497D01*
X159390917Y-51404433D01*
X159400294Y-51427072D01*
X159413908Y-51447446D01*
X159431235Y-51464773D01*
X159451610Y-51478387D01*
X159474247Y-51487763D01*
X159489183Y-51492294D01*
X159495650Y-51495751D01*
X159506084Y-51504313D01*
X159727921Y-51726150D01*
X159736483Y-51736584D01*
X159739940Y-51743050D01*
X159744471Y-51757987D01*
X159753849Y-51780626D01*
X159767463Y-51801000D01*
X159784790Y-51818327D01*
X159805165Y-51831940D01*
X159827800Y-51841316D01*
X159842737Y-51845847D01*
X159849203Y-51849304D01*
X159859637Y-51857866D01*
X160081474Y-52079703D01*
X160090036Y-52090137D01*
X160093493Y-52096603D01*
X160098024Y-52111540D01*
X160107402Y-52134179D01*
X160121016Y-52154553D01*
X160138343Y-52171880D01*
X160158718Y-52185493D01*
X160181353Y-52194869D01*
X160196290Y-52199400D01*
X160202756Y-52202857D01*
X160213190Y-52211419D01*
X160435027Y-52433256D01*
X160443589Y-52443690D01*
X160447046Y-52450157D01*
X160451577Y-52465093D01*
X160460954Y-52487732D01*
X160474568Y-52508106D01*
X160491895Y-52525433D01*
X160512270Y-52539047D01*
X160534907Y-52548423D01*
X160549843Y-52552954D01*
X160556310Y-52556411D01*
X160566744Y-52564973D01*
X160788581Y-52786810D01*
X160797143Y-52797244D01*
X160800600Y-52803710D01*
X160805131Y-52818647D01*
X160814509Y-52841286D01*
X160828123Y-52861660D01*
X160845450Y-52878987D01*
X160865825Y-52892600D01*
X160888460Y-52901976D01*
X160903397Y-52906507D01*
X160909863Y-52909964D01*
X160920297Y-52918526D01*
X161142134Y-53140363D01*
X161150696Y-53150797D01*
X161154153Y-53157263D01*
X161158684Y-53172200D01*
X161168062Y-53194839D01*
X161181676Y-53215213D01*
X161199003Y-53232540D01*
X161219378Y-53246153D01*
X161242013Y-53255529D01*
X161256950Y-53260060D01*
X161263416Y-53263517D01*
X161273850Y-53272079D01*
X161495687Y-53493916D01*
X161504249Y-53504350D01*
X161507706Y-53510817D01*
X161512237Y-53525753D01*
X161521614Y-53548392D01*
X161535228Y-53568766D01*
X161552555Y-53586093D01*
X161572930Y-53599707D01*
X161595567Y-53609083D01*
X161610503Y-53613614D01*
X161616970Y-53617071D01*
X161627404Y-53625633D01*
X161849241Y-53847470D01*
X161857803Y-53857904D01*
X161861260Y-53864370D01*
X161865791Y-53879307D01*
X161875169Y-53901946D01*
X161888783Y-53922320D01*
X161906110Y-53939647D01*
X161926485Y-53953260D01*
X161949120Y-53962636D01*
X161964057Y-53967167D01*
X161970523Y-53970624D01*
X161980957Y-53979186D01*
X162202794Y-54201023D01*
X162211356Y-54211457D01*
X162214813Y-54217924D01*
X162219344Y-54232860D01*
X162228721Y-54255499D01*
X162242335Y-54275873D01*
X162259662Y-54293200D01*
X162280037Y-54306814D01*
X162302674Y-54316190D01*
X162317610Y-54320721D01*
X162324077Y-54324178D01*
X162334511Y-54332740D01*
X162556348Y-54554577D01*
X162564910Y-54565011D01*
X162568367Y-54571477D01*
X162570495Y-54578492D01*
X162571213Y-54585787D01*
X162570495Y-54593082D01*
X162568367Y-54600097D01*
X162564910Y-54606563D01*
X162556348Y-54616997D01*
X161503661Y-55669684D01*
X161493227Y-55678246D01*
X161486761Y-55681703D01*
X161479746Y-55683831D01*
X161472451Y-55684549D01*
X161465156Y-55683831D01*
X161458141Y-55681703D01*
X161451675Y-55678246D01*
X161441241Y-55669684D01*
X161219404Y-55447847D01*
X161210842Y-55437413D01*
X161207385Y-55430946D01*
X161202854Y-55416010D01*
X161193477Y-55393371D01*
X161179863Y-55372997D01*
X161162536Y-55355670D01*
X161142161Y-55342056D01*
X161119524Y-55332680D01*
X161104588Y-55328149D01*
X161098121Y-55324692D01*
X161087687Y-55316130D01*
X160865850Y-55094293D01*
X160857288Y-55083859D01*
X160853831Y-55077393D01*
X160849300Y-55062456D01*
X160839922Y-55039817D01*
X160826308Y-55019443D01*
X160808981Y-55002116D01*
X160788606Y-54988503D01*
X160765971Y-54979127D01*
X160751034Y-54974596D01*
X160744568Y-54971139D01*
X160734134Y-54962577D01*
X160512297Y-54740740D01*
X160503735Y-54730306D01*
X160500278Y-54723839D01*
X160495747Y-54708903D01*
X160486370Y-54686264D01*
X160472756Y-54665890D01*
X160455429Y-54648563D01*
X160435054Y-54634949D01*
X160412417Y-54625573D01*
X160397481Y-54621042D01*
X160391014Y-54617585D01*
X160380580Y-54609023D01*
X160158743Y-54387186D01*
X160150181Y-54376752D01*
X160146724Y-54370286D01*
X160142193Y-54355349D01*
X160132815Y-54332710D01*
X160119201Y-54312336D01*
X160101874Y-54295009D01*
X160081499Y-54281396D01*
X160058864Y-54272020D01*
X160043927Y-54267489D01*
X160037461Y-54264032D01*
X160027027Y-54255470D01*
X159805190Y-54033633D01*
X159796628Y-54023199D01*
X159793171Y-54016733D01*
X159788640Y-54001796D01*
X159779262Y-53979157D01*
X159765648Y-53958783D01*
X159748321Y-53941456D01*
X159727946Y-53927843D01*
X159705311Y-53918467D01*
X159690374Y-53913936D01*
X159683908Y-53910479D01*
X159673474Y-53901917D01*
X159451637Y-53680080D01*
X159443075Y-53669646D01*
X159439618Y-53663179D01*
X159435087Y-53648243D01*
X159425710Y-53625604D01*
X159412096Y-53605230D01*
X159394769Y-53587903D01*
X159374394Y-53574289D01*
X159351757Y-53564913D01*
X159336821Y-53560382D01*
X159330354Y-53556925D01*
X159319920Y-53548363D01*
X159098083Y-53326526D01*
X159089521Y-53316092D01*
X159086064Y-53309626D01*
X159081533Y-53294689D01*
X159072155Y-53272050D01*
X159058541Y-53251676D01*
X159041214Y-53234349D01*
X159020839Y-53220736D01*
X158998204Y-53211360D01*
X158983267Y-53206829D01*
X158976801Y-53203372D01*
X158966367Y-53194810D01*
X158744530Y-52972973D01*
X158735968Y-52962539D01*
X158732511Y-52956073D01*
X158727980Y-52941136D01*
X158718602Y-52918497D01*
X158704988Y-52898123D01*
X158687661Y-52880796D01*
X158667286Y-52867183D01*
X158644651Y-52857807D01*
X158629714Y-52853276D01*
X158623248Y-52849819D01*
X158612814Y-52841257D01*
X158390977Y-52619420D01*
X158382415Y-52608986D01*
X158378958Y-52602519D01*
X158374427Y-52587583D01*
X158365050Y-52564944D01*
X158351436Y-52544570D01*
X158334109Y-52527243D01*
X158313734Y-52513629D01*
X158291097Y-52504253D01*
X158276161Y-52499722D01*
X158269694Y-52496265D01*
X158259260Y-52487703D01*
X158037423Y-52265866D01*
X158028861Y-52255432D01*
X158025404Y-52248966D01*
X158020873Y-52234029D01*
X158011495Y-52211390D01*
X157997881Y-52191016D01*
X157980554Y-52173689D01*
X157960179Y-52160076D01*
X157937544Y-52150700D01*
X157922607Y-52146169D01*
X157916141Y-52142712D01*
X157905707Y-52134150D01*
X157683870Y-51912313D01*
X157675308Y-51901879D01*
X157671851Y-51895412D01*
X157667320Y-51880476D01*
X157657943Y-51857837D01*
X157644329Y-51837463D01*
X157627002Y-51820136D01*
X157606627Y-51806522D01*
X157583990Y-51797146D01*
X157569054Y-51792615D01*
X157562587Y-51789158D01*
X157552153Y-51780596D01*
X157330316Y-51558759D01*
X157321754Y-51548325D01*
X157318297Y-51541859D01*
X157316169Y-51534844D01*
X157315451Y-51527549D01*
X157316169Y-51520254D01*
X157318297Y-51513239D01*
X157321754Y-51506773D01*
X157330316Y-51496339D01*
X158383003Y-50443652D01*
X158393437Y-50435090D01*
X158399903Y-50431633D01*
X158406918Y-50429505D01*
X158414213Y-50428787D01*
X158421508Y-50429505D01*
X158421508Y-50429505D01*
G37*
G36*
X149764714Y-54302389D02*
G01*
X149837988Y-54332740D01*
X149845645Y-54335912D01*
X149918480Y-54384579D01*
X149980421Y-54446520D01*
X149980422Y-54446522D01*
X150029089Y-54519357D01*
X150062611Y-54600286D01*
X150079700Y-54686199D01*
X150079700Y-54773801D01*
X150062611Y-54859714D01*
X150051670Y-54886129D01*
X150029088Y-54940645D01*
X149980421Y-55013480D01*
X149918480Y-55075421D01*
X149845645Y-55124088D01*
X149845644Y-55124089D01*
X149845643Y-55124089D01*
X149764714Y-55157611D01*
X149678801Y-55174700D01*
X149591199Y-55174700D01*
X149505286Y-55157611D01*
X149424357Y-55124089D01*
X149424356Y-55124089D01*
X149424355Y-55124088D01*
X149351520Y-55075421D01*
X149289579Y-55013480D01*
X149240912Y-54940645D01*
X149218331Y-54886129D01*
X149207389Y-54859714D01*
X149190300Y-54773801D01*
X149190300Y-54686199D01*
X149207389Y-54600286D01*
X149240911Y-54519357D01*
X149289578Y-54446522D01*
X149289579Y-54446520D01*
X149351520Y-54384579D01*
X149424355Y-54335912D01*
X149432013Y-54332740D01*
X149505286Y-54302389D01*
X149591199Y-54285300D01*
X149678801Y-54285300D01*
X149764714Y-54302389D01*
X149764714Y-54302389D01*
G37*
G36*
X148494714Y-54302389D02*
G01*
X148567988Y-54332740D01*
X148575645Y-54335912D01*
X148648480Y-54384579D01*
X148710421Y-54446520D01*
X148710422Y-54446522D01*
X148759089Y-54519357D01*
X148792611Y-54600286D01*
X148809700Y-54686199D01*
X148809700Y-54773801D01*
X148792611Y-54859714D01*
X148781670Y-54886129D01*
X148759088Y-54940645D01*
X148710421Y-55013480D01*
X148648480Y-55075421D01*
X148575645Y-55124088D01*
X148575644Y-55124089D01*
X148575643Y-55124089D01*
X148494714Y-55157611D01*
X148408801Y-55174700D01*
X148321199Y-55174700D01*
X148235286Y-55157611D01*
X148154357Y-55124089D01*
X148154356Y-55124089D01*
X148154355Y-55124088D01*
X148081520Y-55075421D01*
X148019579Y-55013480D01*
X147970912Y-54940645D01*
X147948331Y-54886129D01*
X147937389Y-54859714D01*
X147920300Y-54773801D01*
X147920300Y-54686199D01*
X147937389Y-54600286D01*
X147970911Y-54519357D01*
X148019578Y-54446522D01*
X148019579Y-54446520D01*
X148081520Y-54384579D01*
X148154355Y-54335912D01*
X148162013Y-54332740D01*
X148235286Y-54302389D01*
X148321199Y-54285300D01*
X148408801Y-54285300D01*
X148494714Y-54302389D01*
X148494714Y-54302389D01*
G37*
G36*
X148494714Y-53032389D02*
G01*
X148575645Y-53065912D01*
X148648480Y-53114579D01*
X148710421Y-53176520D01*
X148759088Y-53249355D01*
X148759089Y-53249357D01*
X148792611Y-53330286D01*
X148809700Y-53416199D01*
X148809700Y-53503801D01*
X148792611Y-53589714D01*
X148762206Y-53663119D01*
X148759088Y-53670645D01*
X148710421Y-53743480D01*
X148648480Y-53805421D01*
X148575645Y-53854088D01*
X148575644Y-53854089D01*
X148575643Y-53854089D01*
X148494714Y-53887611D01*
X148408801Y-53904700D01*
X148321199Y-53904700D01*
X148235286Y-53887611D01*
X148154357Y-53854089D01*
X148154356Y-53854089D01*
X148154355Y-53854088D01*
X148081520Y-53805421D01*
X148019579Y-53743480D01*
X147970912Y-53670645D01*
X147967795Y-53663119D01*
X147937389Y-53589714D01*
X147920300Y-53503801D01*
X147920300Y-53416199D01*
X147937389Y-53330286D01*
X147970911Y-53249357D01*
X147970912Y-53249355D01*
X148019579Y-53176520D01*
X148081520Y-53114579D01*
X148154355Y-53065912D01*
X148235286Y-53032389D01*
X148321199Y-53015300D01*
X148408801Y-53015300D01*
X148494714Y-53032389D01*
X148494714Y-53032389D01*
G37*
G36*
X149764714Y-53032389D02*
G01*
X149845645Y-53065912D01*
X149918480Y-53114579D01*
X149980421Y-53176520D01*
X150029088Y-53249355D01*
X150029089Y-53249357D01*
X150062611Y-53330286D01*
X150079700Y-53416199D01*
X150079700Y-53503801D01*
X150062611Y-53589714D01*
X150032206Y-53663119D01*
X150029088Y-53670645D01*
X149980421Y-53743480D01*
X149918480Y-53805421D01*
X149845645Y-53854088D01*
X149845644Y-53854089D01*
X149845643Y-53854089D01*
X149764714Y-53887611D01*
X149678801Y-53904700D01*
X149591199Y-53904700D01*
X149505286Y-53887611D01*
X149424357Y-53854089D01*
X149424356Y-53854089D01*
X149424355Y-53854088D01*
X149351520Y-53805421D01*
X149289579Y-53743480D01*
X149240912Y-53670645D01*
X149237795Y-53663119D01*
X149207389Y-53589714D01*
X149190300Y-53503801D01*
X149190300Y-53416199D01*
X149207389Y-53330286D01*
X149240911Y-53249357D01*
X149240912Y-53249355D01*
X149289579Y-53176520D01*
X149351520Y-53114579D01*
X149424355Y-53065912D01*
X149505286Y-53032389D01*
X149591199Y-53015300D01*
X149678801Y-53015300D01*
X149764714Y-53032389D01*
X149764714Y-53032389D01*
G37*
G36*
X169551000Y-53301000D02*
G01*
X167249000Y-53301000D01*
X167249000Y-51399000D01*
X169551000Y-51399000D01*
X169551000Y-53301000D01*
X169551000Y-53301000D01*
G37*
G36*
X149106578Y-51654197D02*
G01*
X149159350Y-51664694D01*
X149258770Y-51705875D01*
X149348246Y-51765661D01*
X149424339Y-51841754D01*
X149484125Y-51931230D01*
X149486489Y-51936938D01*
X149525306Y-52030651D01*
X149546300Y-52136193D01*
X149546300Y-52243807D01*
X149542069Y-52265077D01*
X149525306Y-52349350D01*
X149484125Y-52448770D01*
X149424339Y-52538246D01*
X149348246Y-52614339D01*
X149258770Y-52674125D01*
X149159350Y-52715306D01*
X149106578Y-52725803D01*
X149053807Y-52736300D01*
X148946193Y-52736300D01*
X148893422Y-52725803D01*
X148840650Y-52715306D01*
X148741230Y-52674125D01*
X148651754Y-52614339D01*
X148575661Y-52538246D01*
X148515875Y-52448770D01*
X148474694Y-52349350D01*
X148457931Y-52265077D01*
X148453700Y-52243807D01*
X148453700Y-52136193D01*
X148474694Y-52030651D01*
X148513511Y-51936938D01*
X148515875Y-51931230D01*
X148575661Y-51841754D01*
X148651754Y-51765661D01*
X148741230Y-51705875D01*
X148840650Y-51664694D01*
X148893422Y-51654197D01*
X148946193Y-51643700D01*
X149053807Y-51643700D01*
X149106578Y-51654197D01*
X149106578Y-51654197D01*
G37*
G36*
X141508015Y-51136973D02*
G01*
X141611879Y-51168479D01*
X141629904Y-51178114D01*
X141707600Y-51219643D01*
X141791501Y-51288499D01*
X141860357Y-51372400D01*
X141896995Y-51440945D01*
X141911521Y-51468121D01*
X141943027Y-51571985D01*
X141953666Y-51680000D01*
X141943027Y-51788015D01*
X141911521Y-51891879D01*
X141896995Y-51919055D01*
X141860357Y-51987600D01*
X141791501Y-52071501D01*
X141707600Y-52140357D01*
X141648630Y-52171877D01*
X141611879Y-52191521D01*
X141508015Y-52223027D01*
X141427067Y-52231000D01*
X140572933Y-52231000D01*
X140491985Y-52223027D01*
X140388121Y-52191521D01*
X140351370Y-52171877D01*
X140292400Y-52140357D01*
X140208499Y-52071501D01*
X140139643Y-51987600D01*
X140103005Y-51919055D01*
X140088479Y-51891879D01*
X140056973Y-51788015D01*
X140046334Y-51680000D01*
X140056973Y-51571985D01*
X140088479Y-51468121D01*
X140103005Y-51440945D01*
X140139643Y-51372400D01*
X140208499Y-51288499D01*
X140292400Y-51219643D01*
X140370096Y-51178114D01*
X140388121Y-51168479D01*
X140491985Y-51136973D01*
X140572933Y-51129000D01*
X141427067Y-51129000D01*
X141508015Y-51136973D01*
X141508015Y-51136973D01*
G37*
G36*
X173554591Y-49478085D02*
G01*
X173588569Y-49488393D01*
X173619890Y-49505134D01*
X173647339Y-49527661D01*
X173669866Y-49555110D01*
X173686607Y-49586431D01*
X173696915Y-49620409D01*
X173701000Y-49661890D01*
X173701000Y-50338110D01*
X173696915Y-50379591D01*
X173686607Y-50413569D01*
X173669866Y-50444890D01*
X173647339Y-50472339D01*
X173619890Y-50494866D01*
X173588569Y-50511607D01*
X173554591Y-50521915D01*
X173513110Y-50526000D01*
X172911890Y-50526000D01*
X172870409Y-50521915D01*
X172836431Y-50511607D01*
X172805110Y-50494866D01*
X172777661Y-50472339D01*
X172755134Y-50444890D01*
X172738393Y-50413569D01*
X172728085Y-50379591D01*
X172724000Y-50338110D01*
X172724000Y-49661890D01*
X172728085Y-49620409D01*
X172738393Y-49586431D01*
X172755134Y-49555110D01*
X172777661Y-49527661D01*
X172805110Y-49505134D01*
X172836431Y-49488393D01*
X172870409Y-49478085D01*
X172911890Y-49474000D01*
X173513110Y-49474000D01*
X173554591Y-49478085D01*
X173554591Y-49478085D01*
G37*
G36*
X175129591Y-49478085D02*
G01*
X175163569Y-49488393D01*
X175194890Y-49505134D01*
X175222339Y-49527661D01*
X175244866Y-49555110D01*
X175261607Y-49586431D01*
X175271915Y-49620409D01*
X175276000Y-49661890D01*
X175276000Y-50338110D01*
X175271915Y-50379591D01*
X175261607Y-50413569D01*
X175244866Y-50444890D01*
X175222339Y-50472339D01*
X175194890Y-50494866D01*
X175163569Y-50511607D01*
X175129591Y-50521915D01*
X175088110Y-50526000D01*
X174486890Y-50526000D01*
X174445409Y-50521915D01*
X174411431Y-50511607D01*
X174380110Y-50494866D01*
X174352661Y-50472339D01*
X174330134Y-50444890D01*
X174313393Y-50413569D01*
X174303085Y-50379591D01*
X174299000Y-50338110D01*
X174299000Y-49661890D01*
X174303085Y-49620409D01*
X174313393Y-49586431D01*
X174330134Y-49555110D01*
X174352661Y-49527661D01*
X174380110Y-49505134D01*
X174411431Y-49488393D01*
X174445409Y-49478085D01*
X174486890Y-49474000D01*
X175088110Y-49474000D01*
X175129591Y-49478085D01*
X175129591Y-49478085D01*
G37*
M02*
