G04 #@! TF.GenerationSoftware,KiCad,Pcbnew,(5.1.0)-1*
G04 #@! TF.CreationDate,2020-02-07T03:11:48-08:00*
G04 #@! TF.ProjectId,design,64657369-676e-42e6-9b69-6361645f7063,rev?*
G04 #@! TF.SameCoordinates,Original*
G04 #@! TF.FileFunction,Legend,Bot*
G04 #@! TF.FilePolarity,Positive*
%FSLAX46Y46*%
G04 Gerber Fmt 4.6, Leading zero omitted, Abs format (unit mm)*
G04 Created by KiCad (PCBNEW (5.1.0)-1) date 2020-02-07 03:11:48*
%MOMM*%
%LPD*%
G04 APERTURE LIST*
%ADD10C,0.120000*%
%ADD11C,0.100000*%
%ADD12C,0.150000*%
G04 APERTURE END LIST*
D10*
X168510000Y-62162779D02*
X168510000Y-61837221D01*
X167490000Y-62162779D02*
X167490000Y-61837221D01*
X145240000Y-57580000D02*
X145240000Y-56650000D01*
X145240000Y-54420000D02*
X145240000Y-55350000D01*
X145240000Y-54420000D02*
X147400000Y-54420000D01*
X145240000Y-57580000D02*
X146700000Y-57580000D01*
X156837221Y-53510000D02*
X157162779Y-53510000D01*
X156837221Y-52490000D02*
X157162779Y-52490000D01*
X140100000Y-54390000D02*
X142550000Y-54390000D01*
X141900000Y-57610000D02*
X140100000Y-57610000D01*
X140837221Y-58490000D02*
X141162779Y-58490000D01*
X140837221Y-59510000D02*
X141162779Y-59510000D01*
X140741422Y-53710000D02*
X141258578Y-53710000D01*
X140741422Y-52290000D02*
X141258578Y-52290000D01*
X142837221Y-61490000D02*
X143162779Y-61490000D01*
X142837221Y-62510000D02*
X143162779Y-62510000D01*
X142837221Y-50510000D02*
X143162779Y-50510000D01*
X142837221Y-49490000D02*
X143162779Y-49490000D01*
X156741422Y-55710000D02*
X157258578Y-55710000D01*
X156741422Y-54290000D02*
X157258578Y-54290000D01*
X157162779Y-59510000D02*
X156837221Y-59510000D01*
X157162779Y-58490000D02*
X156837221Y-58490000D01*
X157162779Y-56490000D02*
X156837221Y-56490000D01*
X157162779Y-57510000D02*
X156837221Y-57510000D01*
X160510000Y-55837221D02*
X160510000Y-56162779D01*
X159490000Y-55837221D02*
X159490000Y-56162779D01*
X154510000Y-56162779D02*
X154510000Y-55837221D01*
X153490000Y-56162779D02*
X153490000Y-55837221D01*
X150010000Y-61837221D02*
X150010000Y-62162779D01*
X148990000Y-61837221D02*
X148990000Y-62162779D01*
X154990000Y-61837221D02*
X154990000Y-62162779D01*
X156010000Y-61837221D02*
X156010000Y-62162779D01*
X154075000Y-63400000D02*
X150925000Y-63400000D01*
X150925000Y-63400000D02*
X150925000Y-59600000D01*
X152510000Y-56162779D02*
X152510000Y-55837221D01*
X151490000Y-56162779D02*
X151490000Y-55837221D01*
X163490000Y-62162779D02*
X163490000Y-61837221D01*
X164510000Y-62162779D02*
X164510000Y-61837221D01*
X166510000Y-62162779D02*
X166510000Y-61837221D01*
X165490000Y-62162779D02*
X165490000Y-61837221D01*
X170837221Y-57510000D02*
X171162779Y-57510000D01*
X170837221Y-56490000D02*
X171162779Y-56490000D01*
X170837221Y-50490000D02*
X171162779Y-50490000D01*
X170837221Y-51510000D02*
X171162779Y-51510000D01*
X170837221Y-54490000D02*
X171162779Y-54490000D01*
X170837221Y-55510000D02*
X171162779Y-55510000D01*
X170837221Y-53510000D02*
X171162779Y-53510000D01*
X170837221Y-52490000D02*
X171162779Y-52490000D01*
X170837221Y-61510000D02*
X171162779Y-61510000D01*
X170837221Y-60490000D02*
X171162779Y-60490000D01*
X170837221Y-59510000D02*
X171162779Y-59510000D01*
X170837221Y-58490000D02*
X171162779Y-58490000D01*
X161490000Y-62162779D02*
X161490000Y-61837221D01*
X162510000Y-62162779D02*
X162510000Y-61837221D01*
X158510000Y-62162779D02*
X158510000Y-61837221D01*
X157490000Y-62162779D02*
X157490000Y-61837221D01*
X160510000Y-62162779D02*
X160510000Y-61837221D01*
X159490000Y-62162779D02*
X159490000Y-61837221D01*
X167490000Y-55837221D02*
X167490000Y-56162779D01*
X168510000Y-55837221D02*
X168510000Y-56162779D01*
X164490000Y-55837221D02*
X164490000Y-56162779D01*
X165510000Y-55837221D02*
X165510000Y-56162779D01*
X178837221Y-51510000D02*
X179162779Y-51510000D01*
X178837221Y-50490000D02*
X179162779Y-50490000D01*
X178837221Y-59510000D02*
X179162779Y-59510000D01*
X178837221Y-58490000D02*
X179162779Y-58490000D01*
X179900000Y-57610000D02*
X178100000Y-57610000D01*
X178100000Y-54390000D02*
X180550000Y-54390000D01*
X178741422Y-53710000D02*
X179258578Y-53710000D01*
X178741422Y-52290000D02*
X179258578Y-52290000D01*
D11*
X168339285Y-60892857D02*
X167839285Y-60892857D01*
X167982142Y-60892857D02*
X167910714Y-60916666D01*
X167875000Y-60940476D01*
X167839285Y-60988095D01*
X167839285Y-61035714D01*
X167839285Y-61416666D02*
X168446428Y-61416666D01*
X168517857Y-61392857D01*
X168553571Y-61369047D01*
X168589285Y-61321428D01*
X168589285Y-61250000D01*
X168553571Y-61202380D01*
X168303571Y-61416666D02*
X168339285Y-61369047D01*
X168339285Y-61273809D01*
X168303571Y-61226190D01*
X168267857Y-61202380D01*
X168196428Y-61178571D01*
X167982142Y-61178571D01*
X167910714Y-61202380D01*
X167875000Y-61226190D01*
X167839285Y-61273809D01*
X167839285Y-61369047D01*
X167875000Y-61416666D01*
X168339285Y-61654761D02*
X167589285Y-61654761D01*
X167875000Y-61654761D02*
X167839285Y-61702380D01*
X167839285Y-61797619D01*
X167875000Y-61845238D01*
X167910714Y-61869047D01*
X167982142Y-61892857D01*
X168196428Y-61892857D01*
X168267857Y-61869047D01*
X168303571Y-61845238D01*
X168339285Y-61797619D01*
X168339285Y-61702380D01*
X168303571Y-61654761D01*
X168410714Y-61988095D02*
X168410714Y-62369047D01*
X167839285Y-62416666D02*
X167839285Y-62607142D01*
X167589285Y-62488095D02*
X168232142Y-62488095D01*
X168303571Y-62511904D01*
X168339285Y-62559523D01*
X168339285Y-62607142D01*
X167839285Y-62988095D02*
X168446428Y-62988095D01*
X168517857Y-62964285D01*
X168553571Y-62940476D01*
X168589285Y-62892857D01*
X168589285Y-62821428D01*
X168553571Y-62773809D01*
X168303571Y-62988095D02*
X168339285Y-62940476D01*
X168339285Y-62845238D01*
X168303571Y-62797619D01*
X168267857Y-62773809D01*
X168196428Y-62750000D01*
X167982142Y-62750000D01*
X167910714Y-62773809D01*
X167875000Y-62797619D01*
X167839285Y-62845238D01*
X167839285Y-62940476D01*
X167875000Y-62988095D01*
X167839285Y-63154761D02*
X167839285Y-63345238D01*
X167589285Y-63226190D02*
X168232142Y-63226190D01*
X168303571Y-63250000D01*
X168339285Y-63297619D01*
X168339285Y-63345238D01*
X168267857Y-63511904D02*
X168303571Y-63535714D01*
X168339285Y-63511904D01*
X168303571Y-63488095D01*
X168267857Y-63511904D01*
X168339285Y-63511904D01*
X167839285Y-63964285D02*
X168446428Y-63964285D01*
X168517857Y-63940476D01*
X168553571Y-63916666D01*
X168589285Y-63869047D01*
X168589285Y-63797619D01*
X168553571Y-63750000D01*
X168303571Y-63964285D02*
X168339285Y-63916666D01*
X168339285Y-63821428D01*
X168303571Y-63773809D01*
X168267857Y-63750000D01*
X168196428Y-63726190D01*
X167982142Y-63726190D01*
X167910714Y-63750000D01*
X167875000Y-63773809D01*
X167839285Y-63821428D01*
X167839285Y-63916666D01*
X167875000Y-63964285D01*
X168339285Y-64202380D02*
X167839285Y-64202380D01*
X167982142Y-64202380D02*
X167910714Y-64226190D01*
X167875000Y-64250000D01*
X167839285Y-64297619D01*
X167839285Y-64345238D01*
X168303571Y-64702380D02*
X168339285Y-64654761D01*
X168339285Y-64559523D01*
X168303571Y-64511904D01*
X168232142Y-64488095D01*
X167946428Y-64488095D01*
X167875000Y-64511904D01*
X167839285Y-64559523D01*
X167839285Y-64654761D01*
X167875000Y-64702380D01*
X167946428Y-64726190D01*
X168017857Y-64726190D01*
X168089285Y-64488095D01*
X168303571Y-65130952D02*
X168339285Y-65083333D01*
X168339285Y-64988095D01*
X168303571Y-64940476D01*
X168232142Y-64916666D01*
X167946428Y-64916666D01*
X167875000Y-64940476D01*
X167839285Y-64988095D01*
X167839285Y-65083333D01*
X167875000Y-65130952D01*
X167946428Y-65154761D01*
X168017857Y-65154761D01*
X168089285Y-64916666D01*
X167839285Y-65369047D02*
X168339285Y-65369047D01*
X167910714Y-65369047D02*
X167875000Y-65392857D01*
X167839285Y-65440476D01*
X167839285Y-65511904D01*
X167875000Y-65559523D01*
X167946428Y-65583333D01*
X168339285Y-65583333D01*
X168410714Y-65702380D02*
X168410714Y-66083333D01*
X168339285Y-66202380D02*
X167839285Y-66202380D01*
X167982142Y-66202380D02*
X167910714Y-66226190D01*
X167875000Y-66250000D01*
X167839285Y-66297619D01*
X167839285Y-66345238D01*
X168303571Y-66702380D02*
X168339285Y-66654761D01*
X168339285Y-66559523D01*
X168303571Y-66511904D01*
X168232142Y-66488095D01*
X167946428Y-66488095D01*
X167875000Y-66511904D01*
X167839285Y-66559523D01*
X167839285Y-66654761D01*
X167875000Y-66702380D01*
X167946428Y-66726190D01*
X168017857Y-66726190D01*
X168089285Y-66488095D01*
X168303571Y-66916666D02*
X168339285Y-66964285D01*
X168339285Y-67059523D01*
X168303571Y-67107142D01*
X168232142Y-67130952D01*
X168196428Y-67130952D01*
X168125000Y-67107142D01*
X168089285Y-67059523D01*
X168089285Y-66988095D01*
X168053571Y-66940476D01*
X167982142Y-66916666D01*
X167946428Y-66916666D01*
X167875000Y-66940476D01*
X167839285Y-66988095D01*
X167839285Y-67059523D01*
X167875000Y-67107142D01*
X147154761Y-53339285D02*
X147154761Y-53839285D01*
X147369047Y-53339285D02*
X147369047Y-53732142D01*
X147345238Y-53803571D01*
X147297619Y-53839285D01*
X147226190Y-53839285D01*
X147178571Y-53803571D01*
X147154761Y-53767857D01*
X146940476Y-53803571D02*
X146892857Y-53839285D01*
X146797619Y-53839285D01*
X146750000Y-53803571D01*
X146726190Y-53732142D01*
X146726190Y-53696428D01*
X146750000Y-53625000D01*
X146797619Y-53589285D01*
X146869047Y-53589285D01*
X146916666Y-53553571D01*
X146940476Y-53482142D01*
X146940476Y-53446428D01*
X146916666Y-53375000D01*
X146869047Y-53339285D01*
X146797619Y-53339285D01*
X146750000Y-53375000D01*
X146511904Y-53839285D02*
X146511904Y-53089285D01*
X146511904Y-53375000D02*
X146464285Y-53339285D01*
X146369047Y-53339285D01*
X146321428Y-53375000D01*
X146297619Y-53410714D01*
X146273809Y-53482142D01*
X146273809Y-53696428D01*
X146297619Y-53767857D01*
X146321428Y-53803571D01*
X146369047Y-53839285D01*
X146464285Y-53839285D01*
X146511904Y-53803571D01*
X146178571Y-53910714D02*
X145797619Y-53910714D01*
X145488095Y-53803571D02*
X145535714Y-53839285D01*
X145630952Y-53839285D01*
X145678571Y-53803571D01*
X145702380Y-53732142D01*
X145702380Y-53446428D01*
X145678571Y-53375000D01*
X145630952Y-53339285D01*
X145535714Y-53339285D01*
X145488095Y-53375000D01*
X145464285Y-53446428D01*
X145464285Y-53517857D01*
X145702380Y-53589285D01*
X145273809Y-53803571D02*
X145226190Y-53839285D01*
X145130952Y-53839285D01*
X145083333Y-53803571D01*
X145059523Y-53732142D01*
X145059523Y-53696428D01*
X145083333Y-53625000D01*
X145130952Y-53589285D01*
X145202380Y-53589285D01*
X145250000Y-53553571D01*
X145273809Y-53482142D01*
X145273809Y-53446428D01*
X145250000Y-53375000D01*
X145202380Y-53339285D01*
X145130952Y-53339285D01*
X145083333Y-53375000D01*
X144630952Y-53839285D02*
X144630952Y-53089285D01*
X144630952Y-53803571D02*
X144678571Y-53839285D01*
X144773809Y-53839285D01*
X144821428Y-53803571D01*
X144845238Y-53767857D01*
X144869047Y-53696428D01*
X144869047Y-53482142D01*
X144845238Y-53410714D01*
X144821428Y-53375000D01*
X144773809Y-53339285D01*
X144678571Y-53339285D01*
X144630952Y-53375000D01*
X161702380Y-53339285D02*
X161702380Y-52839285D01*
X161702380Y-52910714D02*
X161678571Y-52875000D01*
X161630952Y-52839285D01*
X161559523Y-52839285D01*
X161511904Y-52875000D01*
X161488095Y-52946428D01*
X161488095Y-53339285D01*
X161488095Y-52946428D02*
X161464285Y-52875000D01*
X161416666Y-52839285D01*
X161345238Y-52839285D01*
X161297619Y-52875000D01*
X161273809Y-52946428D01*
X161273809Y-53339285D01*
X160821428Y-53303571D02*
X160869047Y-53339285D01*
X160964285Y-53339285D01*
X161011904Y-53303571D01*
X161035714Y-53267857D01*
X161059523Y-53196428D01*
X161059523Y-52982142D01*
X161035714Y-52910714D01*
X161011904Y-52875000D01*
X160964285Y-52839285D01*
X160869047Y-52839285D01*
X160821428Y-52875000D01*
X160392857Y-52839285D02*
X160392857Y-53339285D01*
X160607142Y-52839285D02*
X160607142Y-53232142D01*
X160583333Y-53303571D01*
X160535714Y-53339285D01*
X160464285Y-53339285D01*
X160416666Y-53303571D01*
X160392857Y-53267857D01*
X160154761Y-53267857D02*
X160130952Y-53303571D01*
X160154761Y-53339285D01*
X160178571Y-53303571D01*
X160154761Y-53267857D01*
X160154761Y-53339285D01*
X159916666Y-52839285D02*
X159916666Y-53589285D01*
X159916666Y-52875000D02*
X159869047Y-52839285D01*
X159773809Y-52839285D01*
X159726190Y-52875000D01*
X159702380Y-52910714D01*
X159678571Y-52982142D01*
X159678571Y-53196428D01*
X159702380Y-53267857D01*
X159726190Y-53303571D01*
X159773809Y-53339285D01*
X159869047Y-53339285D01*
X159916666Y-53303571D01*
X159511904Y-52839285D02*
X159416666Y-53339285D01*
X159321428Y-52982142D01*
X159226190Y-53339285D01*
X159130952Y-52839285D01*
X158940476Y-53339285D02*
X158940476Y-52839285D01*
X158940476Y-52982142D02*
X158916666Y-52910714D01*
X158892857Y-52875000D01*
X158845238Y-52839285D01*
X158797619Y-52839285D01*
X158750000Y-53410714D02*
X158369047Y-53410714D01*
X158035714Y-53303571D02*
X158083333Y-53339285D01*
X158178571Y-53339285D01*
X158226190Y-53303571D01*
X158250000Y-53267857D01*
X158273809Y-53196428D01*
X158273809Y-52982142D01*
X158250000Y-52910714D01*
X158226190Y-52875000D01*
X158178571Y-52839285D01*
X158083333Y-52839285D01*
X158035714Y-52875000D01*
X157607142Y-53339285D02*
X157607142Y-52946428D01*
X157630952Y-52875000D01*
X157678571Y-52839285D01*
X157773809Y-52839285D01*
X157821428Y-52875000D01*
X157607142Y-53303571D02*
X157654761Y-53339285D01*
X157773809Y-53339285D01*
X157821428Y-53303571D01*
X157845238Y-53232142D01*
X157845238Y-53160714D01*
X157821428Y-53089285D01*
X157773809Y-53053571D01*
X157654761Y-53053571D01*
X157607142Y-53017857D01*
X157369047Y-52839285D02*
X157369047Y-53589285D01*
X157369047Y-52875000D02*
X157321428Y-52839285D01*
X157226190Y-52839285D01*
X157178571Y-52875000D01*
X157154761Y-52910714D01*
X157130952Y-52982142D01*
X157130952Y-53196428D01*
X157154761Y-53267857D01*
X157178571Y-53303571D01*
X157226190Y-53339285D01*
X157321428Y-53339285D01*
X157369047Y-53303571D01*
X157035714Y-53410714D02*
X156654761Y-53410714D01*
X156559523Y-52660714D02*
X156535714Y-52625000D01*
X156488095Y-52589285D01*
X156369047Y-52589285D01*
X156321428Y-52625000D01*
X156297619Y-52660714D01*
X156273809Y-52732142D01*
X156273809Y-52803571D01*
X156297619Y-52910714D01*
X156583333Y-53339285D01*
X156273809Y-53339285D01*
X142559523Y-53839285D02*
X142559523Y-54339285D01*
X142773809Y-53839285D02*
X142773809Y-54232142D01*
X142750000Y-54303571D01*
X142702380Y-54339285D01*
X142630952Y-54339285D01*
X142583333Y-54303571D01*
X142559523Y-54267857D01*
X142345238Y-54303571D02*
X142297619Y-54339285D01*
X142202380Y-54339285D01*
X142154761Y-54303571D01*
X142130952Y-54232142D01*
X142130952Y-54196428D01*
X142154761Y-54125000D01*
X142202380Y-54089285D01*
X142273809Y-54089285D01*
X142321428Y-54053571D01*
X142345238Y-53982142D01*
X142345238Y-53946428D01*
X142321428Y-53875000D01*
X142273809Y-53839285D01*
X142202380Y-53839285D01*
X142154761Y-53875000D01*
X141916666Y-54339285D02*
X141916666Y-53589285D01*
X141916666Y-53875000D02*
X141869047Y-53839285D01*
X141773809Y-53839285D01*
X141726190Y-53875000D01*
X141702380Y-53910714D01*
X141678571Y-53982142D01*
X141678571Y-54196428D01*
X141702380Y-54267857D01*
X141726190Y-54303571D01*
X141773809Y-54339285D01*
X141869047Y-54339285D01*
X141916666Y-54303571D01*
X141583333Y-54410714D02*
X141202380Y-54410714D01*
X141083333Y-54339285D02*
X141083333Y-53839285D01*
X141083333Y-53982142D02*
X141059523Y-53910714D01*
X141035714Y-53875000D01*
X140988095Y-53839285D01*
X140940476Y-53839285D01*
X140583333Y-54303571D02*
X140630952Y-54339285D01*
X140726190Y-54339285D01*
X140773809Y-54303571D01*
X140797619Y-54232142D01*
X140797619Y-53946428D01*
X140773809Y-53875000D01*
X140726190Y-53839285D01*
X140630952Y-53839285D01*
X140583333Y-53875000D01*
X140559523Y-53946428D01*
X140559523Y-54017857D01*
X140797619Y-54089285D01*
X140130952Y-53839285D02*
X140130952Y-54446428D01*
X140154761Y-54517857D01*
X140178571Y-54553571D01*
X140226190Y-54589285D01*
X140297619Y-54589285D01*
X140345238Y-54553571D01*
X140130952Y-54303571D02*
X140178571Y-54339285D01*
X140273809Y-54339285D01*
X140321428Y-54303571D01*
X140345238Y-54267857D01*
X140369047Y-54196428D01*
X140369047Y-53982142D01*
X140345238Y-53910714D01*
X140321428Y-53875000D01*
X140273809Y-53839285D01*
X140178571Y-53839285D01*
X140130952Y-53875000D01*
X139892857Y-54267857D02*
X139869047Y-54303571D01*
X139892857Y-54339285D01*
X139916666Y-54303571D01*
X139892857Y-54267857D01*
X139892857Y-54339285D01*
X139654761Y-54339285D02*
X139654761Y-53839285D01*
X139654761Y-53589285D02*
X139678571Y-53625000D01*
X139654761Y-53660714D01*
X139630952Y-53625000D01*
X139654761Y-53589285D01*
X139654761Y-53660714D01*
X139202380Y-54303571D02*
X139250000Y-54339285D01*
X139345238Y-54339285D01*
X139392857Y-54303571D01*
X139416666Y-54267857D01*
X139440476Y-54196428D01*
X139440476Y-53982142D01*
X139416666Y-53910714D01*
X139392857Y-53875000D01*
X139345238Y-53839285D01*
X139250000Y-53839285D01*
X139202380Y-53875000D01*
X140928571Y-58839285D02*
X140928571Y-59339285D01*
X141142857Y-58839285D02*
X141142857Y-59232142D01*
X141119047Y-59303571D01*
X141071428Y-59339285D01*
X141000000Y-59339285D01*
X140952380Y-59303571D01*
X140928571Y-59267857D01*
X140714285Y-59303571D02*
X140666666Y-59339285D01*
X140571428Y-59339285D01*
X140523809Y-59303571D01*
X140500000Y-59232142D01*
X140500000Y-59196428D01*
X140523809Y-59125000D01*
X140571428Y-59089285D01*
X140642857Y-59089285D01*
X140690476Y-59053571D01*
X140714285Y-58982142D01*
X140714285Y-58946428D01*
X140690476Y-58875000D01*
X140642857Y-58839285D01*
X140571428Y-58839285D01*
X140523809Y-58875000D01*
X140285714Y-59339285D02*
X140285714Y-58589285D01*
X140285714Y-58875000D02*
X140238095Y-58839285D01*
X140142857Y-58839285D01*
X140095238Y-58875000D01*
X140071428Y-58910714D01*
X140047619Y-58982142D01*
X140047619Y-59196428D01*
X140071428Y-59267857D01*
X140095238Y-59303571D01*
X140142857Y-59339285D01*
X140238095Y-59339285D01*
X140285714Y-59303571D01*
X139952380Y-59410714D02*
X139571428Y-59410714D01*
X139452380Y-59339285D02*
X139452380Y-58839285D01*
X139452380Y-58982142D02*
X139428571Y-58910714D01*
X139404761Y-58875000D01*
X139357142Y-58839285D01*
X139309523Y-58839285D01*
X138952380Y-59303571D02*
X139000000Y-59339285D01*
X139095238Y-59339285D01*
X139142857Y-59303571D01*
X139166666Y-59232142D01*
X139166666Y-58946428D01*
X139142857Y-58875000D01*
X139095238Y-58839285D01*
X139000000Y-58839285D01*
X138952380Y-58875000D01*
X138928571Y-58946428D01*
X138928571Y-59017857D01*
X139166666Y-59089285D01*
X138499999Y-58839285D02*
X138499999Y-59446428D01*
X138523809Y-59517857D01*
X138547619Y-59553571D01*
X138595238Y-59589285D01*
X138666666Y-59589285D01*
X138714285Y-59553571D01*
X138499999Y-59303571D02*
X138547619Y-59339285D01*
X138642857Y-59339285D01*
X138690476Y-59303571D01*
X138714285Y-59267857D01*
X138738095Y-59196428D01*
X138738095Y-58982142D01*
X138714285Y-58910714D01*
X138690476Y-58875000D01*
X138642857Y-58839285D01*
X138547619Y-58839285D01*
X138499999Y-58875000D01*
X138261904Y-59267857D02*
X138238095Y-59303571D01*
X138261904Y-59339285D01*
X138285714Y-59303571D01*
X138261904Y-59267857D01*
X138261904Y-59339285D01*
X138023809Y-59339285D02*
X138023809Y-58839285D01*
X138023809Y-58589285D02*
X138047619Y-58625000D01*
X138023809Y-58660714D01*
X138000000Y-58625000D01*
X138023809Y-58589285D01*
X138023809Y-58660714D01*
X137785714Y-58839285D02*
X137785714Y-59339285D01*
X137785714Y-58910714D02*
X137761904Y-58875000D01*
X137714285Y-58839285D01*
X137642857Y-58839285D01*
X137595238Y-58875000D01*
X137571428Y-58946428D01*
X137571428Y-59339285D01*
X137452380Y-59410714D02*
X137071428Y-59410714D01*
X136738095Y-59303571D02*
X136785714Y-59339285D01*
X136880952Y-59339285D01*
X136928571Y-59303571D01*
X136952380Y-59267857D01*
X136976190Y-59196428D01*
X136976190Y-58982142D01*
X136952380Y-58910714D01*
X136928571Y-58875000D01*
X136880952Y-58839285D01*
X136785714Y-58839285D01*
X136738095Y-58875000D01*
X136309523Y-59339285D02*
X136309523Y-58946428D01*
X136333333Y-58875000D01*
X136380952Y-58839285D01*
X136476190Y-58839285D01*
X136523809Y-58875000D01*
X136309523Y-59303571D02*
X136357142Y-59339285D01*
X136476190Y-59339285D01*
X136523809Y-59303571D01*
X136547619Y-59232142D01*
X136547619Y-59160714D01*
X136523809Y-59089285D01*
X136476190Y-59053571D01*
X136357142Y-59053571D01*
X136309523Y-59017857D01*
X136071428Y-58839285D02*
X136071428Y-59589285D01*
X136071428Y-58875000D02*
X136023809Y-58839285D01*
X135928571Y-58839285D01*
X135880952Y-58875000D01*
X135857142Y-58910714D01*
X135833333Y-58982142D01*
X135833333Y-59196428D01*
X135857142Y-59267857D01*
X135880952Y-59303571D01*
X135928571Y-59339285D01*
X136023809Y-59339285D01*
X136071428Y-59303571D01*
X146178571Y-52839285D02*
X146178571Y-53339285D01*
X146392857Y-52839285D02*
X146392857Y-53232142D01*
X146369047Y-53303571D01*
X146321428Y-53339285D01*
X146250000Y-53339285D01*
X146202380Y-53303571D01*
X146178571Y-53267857D01*
X145964285Y-53303571D02*
X145916666Y-53339285D01*
X145821428Y-53339285D01*
X145773809Y-53303571D01*
X145750000Y-53232142D01*
X145750000Y-53196428D01*
X145773809Y-53125000D01*
X145821428Y-53089285D01*
X145892857Y-53089285D01*
X145940476Y-53053571D01*
X145964285Y-52982142D01*
X145964285Y-52946428D01*
X145940476Y-52875000D01*
X145892857Y-52839285D01*
X145821428Y-52839285D01*
X145773809Y-52875000D01*
X145535714Y-53339285D02*
X145535714Y-52589285D01*
X145535714Y-52875000D02*
X145488095Y-52839285D01*
X145392857Y-52839285D01*
X145345238Y-52875000D01*
X145321428Y-52910714D01*
X145297619Y-52982142D01*
X145297619Y-53196428D01*
X145321428Y-53267857D01*
X145345238Y-53303571D01*
X145392857Y-53339285D01*
X145488095Y-53339285D01*
X145535714Y-53303571D01*
X145202380Y-53410714D02*
X144821428Y-53410714D01*
X144702380Y-53339285D02*
X144702380Y-52839285D01*
X144702380Y-52982142D02*
X144678571Y-52910714D01*
X144654761Y-52875000D01*
X144607142Y-52839285D01*
X144559523Y-52839285D01*
X144202380Y-53303571D02*
X144250000Y-53339285D01*
X144345238Y-53339285D01*
X144392857Y-53303571D01*
X144416666Y-53232142D01*
X144416666Y-52946428D01*
X144392857Y-52875000D01*
X144345238Y-52839285D01*
X144250000Y-52839285D01*
X144202380Y-52875000D01*
X144178571Y-52946428D01*
X144178571Y-53017857D01*
X144416666Y-53089285D01*
X143750000Y-52839285D02*
X143750000Y-53446428D01*
X143773809Y-53517857D01*
X143797619Y-53553571D01*
X143845238Y-53589285D01*
X143916666Y-53589285D01*
X143964285Y-53553571D01*
X143750000Y-53303571D02*
X143797619Y-53339285D01*
X143892857Y-53339285D01*
X143940476Y-53303571D01*
X143964285Y-53267857D01*
X143988095Y-53196428D01*
X143988095Y-52982142D01*
X143964285Y-52910714D01*
X143940476Y-52875000D01*
X143892857Y-52839285D01*
X143797619Y-52839285D01*
X143750000Y-52875000D01*
X143511904Y-53267857D02*
X143488095Y-53303571D01*
X143511904Y-53339285D01*
X143535714Y-53303571D01*
X143511904Y-53267857D01*
X143511904Y-53339285D01*
X143202380Y-53339285D02*
X143250000Y-53303571D01*
X143273809Y-53267857D01*
X143297619Y-53196428D01*
X143297619Y-52982142D01*
X143273809Y-52910714D01*
X143250000Y-52875000D01*
X143202380Y-52839285D01*
X143130952Y-52839285D01*
X143083333Y-52875000D01*
X143059523Y-52910714D01*
X143035714Y-52982142D01*
X143035714Y-53196428D01*
X143059523Y-53267857D01*
X143083333Y-53303571D01*
X143130952Y-53339285D01*
X143202380Y-53339285D01*
X142607142Y-52839285D02*
X142607142Y-53339285D01*
X142821428Y-52839285D02*
X142821428Y-53232142D01*
X142797619Y-53303571D01*
X142750000Y-53339285D01*
X142678571Y-53339285D01*
X142630952Y-53303571D01*
X142607142Y-53267857D01*
X142440476Y-52839285D02*
X142250000Y-52839285D01*
X142369047Y-52589285D02*
X142369047Y-53232142D01*
X142345238Y-53303571D01*
X142297619Y-53339285D01*
X142250000Y-53339285D01*
X142202380Y-53410714D02*
X141821428Y-53410714D01*
X141488095Y-53303571D02*
X141535714Y-53339285D01*
X141630952Y-53339285D01*
X141678571Y-53303571D01*
X141702380Y-53267857D01*
X141726190Y-53196428D01*
X141726190Y-52982142D01*
X141702380Y-52910714D01*
X141678571Y-52875000D01*
X141630952Y-52839285D01*
X141535714Y-52839285D01*
X141488095Y-52875000D01*
X141059523Y-53339285D02*
X141059523Y-52946428D01*
X141083333Y-52875000D01*
X141130952Y-52839285D01*
X141226190Y-52839285D01*
X141273809Y-52875000D01*
X141059523Y-53303571D02*
X141107142Y-53339285D01*
X141226190Y-53339285D01*
X141273809Y-53303571D01*
X141297619Y-53232142D01*
X141297619Y-53160714D01*
X141273809Y-53089285D01*
X141226190Y-53053571D01*
X141107142Y-53053571D01*
X141059523Y-53017857D01*
X140821428Y-52839285D02*
X140821428Y-53589285D01*
X140821428Y-52875000D02*
X140773809Y-52839285D01*
X140678571Y-52839285D01*
X140630952Y-52875000D01*
X140607142Y-52910714D01*
X140583333Y-52982142D01*
X140583333Y-53196428D01*
X140607142Y-53267857D01*
X140630952Y-53303571D01*
X140678571Y-53339285D01*
X140773809Y-53339285D01*
X140821428Y-53303571D01*
X147011904Y-61839285D02*
X147011904Y-62339285D01*
X147226190Y-61839285D02*
X147226190Y-62232142D01*
X147202380Y-62303571D01*
X147154761Y-62339285D01*
X147083333Y-62339285D01*
X147035714Y-62303571D01*
X147011904Y-62267857D01*
X146797619Y-62303571D02*
X146750000Y-62339285D01*
X146654761Y-62339285D01*
X146607142Y-62303571D01*
X146583333Y-62232142D01*
X146583333Y-62196428D01*
X146607142Y-62125000D01*
X146654761Y-62089285D01*
X146726190Y-62089285D01*
X146773809Y-62053571D01*
X146797619Y-61982142D01*
X146797619Y-61946428D01*
X146773809Y-61875000D01*
X146726190Y-61839285D01*
X146654761Y-61839285D01*
X146607142Y-61875000D01*
X146369047Y-62339285D02*
X146369047Y-61589285D01*
X146369047Y-61875000D02*
X146321428Y-61839285D01*
X146226190Y-61839285D01*
X146178571Y-61875000D01*
X146154761Y-61910714D01*
X146130952Y-61982142D01*
X146130952Y-62196428D01*
X146154761Y-62267857D01*
X146178571Y-62303571D01*
X146226190Y-62339285D01*
X146321428Y-62339285D01*
X146369047Y-62303571D01*
X145916666Y-62267857D02*
X145892857Y-62303571D01*
X145916666Y-62339285D01*
X145940476Y-62303571D01*
X145916666Y-62267857D01*
X145916666Y-62339285D01*
X145464285Y-62303571D02*
X145511904Y-62339285D01*
X145607142Y-62339285D01*
X145654761Y-62303571D01*
X145678571Y-62267857D01*
X145702380Y-62196428D01*
X145702380Y-61982142D01*
X145678571Y-61910714D01*
X145654761Y-61875000D01*
X145607142Y-61839285D01*
X145511904Y-61839285D01*
X145464285Y-61875000D01*
X145035714Y-62303571D02*
X145083333Y-62339285D01*
X145178571Y-62339285D01*
X145226190Y-62303571D01*
X145250000Y-62267857D01*
X145273809Y-62196428D01*
X145273809Y-61982142D01*
X145250000Y-61910714D01*
X145226190Y-61875000D01*
X145178571Y-61839285D01*
X145083333Y-61839285D01*
X145035714Y-61875000D01*
X144845238Y-61660714D02*
X144821428Y-61625000D01*
X144773809Y-61589285D01*
X144654761Y-61589285D01*
X144607142Y-61625000D01*
X144583333Y-61660714D01*
X144559523Y-61732142D01*
X144559523Y-61803571D01*
X144583333Y-61910714D01*
X144869047Y-62339285D01*
X144559523Y-62339285D01*
X144464285Y-62410714D02*
X144083333Y-62410714D01*
X143964285Y-61839285D02*
X143964285Y-62589285D01*
X143964285Y-61875000D02*
X143916666Y-61839285D01*
X143821428Y-61839285D01*
X143773809Y-61875000D01*
X143750000Y-61910714D01*
X143726190Y-61982142D01*
X143726190Y-62196428D01*
X143750000Y-62267857D01*
X143773809Y-62303571D01*
X143821428Y-62339285D01*
X143916666Y-62339285D01*
X143964285Y-62303571D01*
X143297619Y-61839285D02*
X143297619Y-62339285D01*
X143511904Y-61839285D02*
X143511904Y-62232142D01*
X143488095Y-62303571D01*
X143440476Y-62339285D01*
X143369047Y-62339285D01*
X143321428Y-62303571D01*
X143297619Y-62267857D01*
X142988095Y-62339285D02*
X143035714Y-62303571D01*
X143059523Y-62232142D01*
X143059523Y-61589285D01*
X142726190Y-62339285D02*
X142773809Y-62303571D01*
X142797619Y-62232142D01*
X142797619Y-61589285D01*
X147011904Y-49839285D02*
X147011904Y-50339285D01*
X147226190Y-49839285D02*
X147226190Y-50232142D01*
X147202380Y-50303571D01*
X147154761Y-50339285D01*
X147083333Y-50339285D01*
X147035714Y-50303571D01*
X147011904Y-50267857D01*
X146797619Y-50303571D02*
X146750000Y-50339285D01*
X146654761Y-50339285D01*
X146607142Y-50303571D01*
X146583333Y-50232142D01*
X146583333Y-50196428D01*
X146607142Y-50125000D01*
X146654761Y-50089285D01*
X146726190Y-50089285D01*
X146773809Y-50053571D01*
X146797619Y-49982142D01*
X146797619Y-49946428D01*
X146773809Y-49875000D01*
X146726190Y-49839285D01*
X146654761Y-49839285D01*
X146607142Y-49875000D01*
X146369047Y-50339285D02*
X146369047Y-49589285D01*
X146369047Y-49875000D02*
X146321428Y-49839285D01*
X146226190Y-49839285D01*
X146178571Y-49875000D01*
X146154761Y-49910714D01*
X146130952Y-49982142D01*
X146130952Y-50196428D01*
X146154761Y-50267857D01*
X146178571Y-50303571D01*
X146226190Y-50339285D01*
X146321428Y-50339285D01*
X146369047Y-50303571D01*
X145916666Y-50267857D02*
X145892857Y-50303571D01*
X145916666Y-50339285D01*
X145940476Y-50303571D01*
X145916666Y-50267857D01*
X145916666Y-50339285D01*
X145464285Y-50303571D02*
X145511904Y-50339285D01*
X145607142Y-50339285D01*
X145654761Y-50303571D01*
X145678571Y-50267857D01*
X145702380Y-50196428D01*
X145702380Y-49982142D01*
X145678571Y-49910714D01*
X145654761Y-49875000D01*
X145607142Y-49839285D01*
X145511904Y-49839285D01*
X145464285Y-49875000D01*
X145035714Y-50303571D02*
X145083333Y-50339285D01*
X145178571Y-50339285D01*
X145226190Y-50303571D01*
X145250000Y-50267857D01*
X145273809Y-50196428D01*
X145273809Y-49982142D01*
X145250000Y-49910714D01*
X145226190Y-49875000D01*
X145178571Y-49839285D01*
X145083333Y-49839285D01*
X145035714Y-49875000D01*
X144559523Y-50339285D02*
X144845238Y-50339285D01*
X144702380Y-50339285D02*
X144702380Y-49589285D01*
X144750000Y-49696428D01*
X144797619Y-49767857D01*
X144845238Y-49803571D01*
X144464285Y-50410714D02*
X144083333Y-50410714D01*
X143964285Y-49839285D02*
X143964285Y-50589285D01*
X143964285Y-49875000D02*
X143916666Y-49839285D01*
X143821428Y-49839285D01*
X143773809Y-49875000D01*
X143750000Y-49910714D01*
X143726190Y-49982142D01*
X143726190Y-50196428D01*
X143750000Y-50267857D01*
X143773809Y-50303571D01*
X143821428Y-50339285D01*
X143916666Y-50339285D01*
X143964285Y-50303571D01*
X143297619Y-49839285D02*
X143297619Y-50339285D01*
X143511904Y-49839285D02*
X143511904Y-50232142D01*
X143488095Y-50303571D01*
X143440476Y-50339285D01*
X143369047Y-50339285D01*
X143321428Y-50303571D01*
X143297619Y-50267857D01*
X142988095Y-50339285D02*
X143035714Y-50303571D01*
X143059523Y-50232142D01*
X143059523Y-49589285D01*
X142726190Y-50339285D02*
X142773809Y-50303571D01*
X142797619Y-50232142D01*
X142797619Y-49589285D01*
X161702380Y-57339285D02*
X161702380Y-56839285D01*
X161702380Y-56910714D02*
X161678571Y-56875000D01*
X161630952Y-56839285D01*
X161559523Y-56839285D01*
X161511904Y-56875000D01*
X161488095Y-56946428D01*
X161488095Y-57339285D01*
X161488095Y-56946428D02*
X161464285Y-56875000D01*
X161416666Y-56839285D01*
X161345238Y-56839285D01*
X161297619Y-56875000D01*
X161273809Y-56946428D01*
X161273809Y-57339285D01*
X160821428Y-57303571D02*
X160869047Y-57339285D01*
X160964285Y-57339285D01*
X161011904Y-57303571D01*
X161035714Y-57267857D01*
X161059523Y-57196428D01*
X161059523Y-56982142D01*
X161035714Y-56910714D01*
X161011904Y-56875000D01*
X160964285Y-56839285D01*
X160869047Y-56839285D01*
X160821428Y-56875000D01*
X160392857Y-56839285D02*
X160392857Y-57339285D01*
X160607142Y-56839285D02*
X160607142Y-57232142D01*
X160583333Y-57303571D01*
X160535714Y-57339285D01*
X160464285Y-57339285D01*
X160416666Y-57303571D01*
X160392857Y-57267857D01*
X160154761Y-57267857D02*
X160130952Y-57303571D01*
X160154761Y-57339285D01*
X160178571Y-57303571D01*
X160154761Y-57267857D01*
X160154761Y-57339285D01*
X159916666Y-56839285D02*
X159916666Y-57589285D01*
X159916666Y-56875000D02*
X159869047Y-56839285D01*
X159773809Y-56839285D01*
X159726190Y-56875000D01*
X159702380Y-56910714D01*
X159678571Y-56982142D01*
X159678571Y-57196428D01*
X159702380Y-57267857D01*
X159726190Y-57303571D01*
X159773809Y-57339285D01*
X159869047Y-57339285D01*
X159916666Y-57303571D01*
X159511904Y-56839285D02*
X159416666Y-57339285D01*
X159321428Y-56982142D01*
X159226190Y-57339285D01*
X159130952Y-56839285D01*
X158940476Y-57339285D02*
X158940476Y-56839285D01*
X158940476Y-56982142D02*
X158916666Y-56910714D01*
X158892857Y-56875000D01*
X158845238Y-56839285D01*
X158797619Y-56839285D01*
X158750000Y-57410714D02*
X158369047Y-57410714D01*
X158035714Y-57303571D02*
X158083333Y-57339285D01*
X158178571Y-57339285D01*
X158226190Y-57303571D01*
X158250000Y-57267857D01*
X158273809Y-57196428D01*
X158273809Y-56982142D01*
X158250000Y-56910714D01*
X158226190Y-56875000D01*
X158178571Y-56839285D01*
X158083333Y-56839285D01*
X158035714Y-56875000D01*
X157607142Y-57339285D02*
X157607142Y-56946428D01*
X157630952Y-56875000D01*
X157678571Y-56839285D01*
X157773809Y-56839285D01*
X157821428Y-56875000D01*
X157607142Y-57303571D02*
X157654761Y-57339285D01*
X157773809Y-57339285D01*
X157821428Y-57303571D01*
X157845238Y-57232142D01*
X157845238Y-57160714D01*
X157821428Y-57089285D01*
X157773809Y-57053571D01*
X157654761Y-57053571D01*
X157607142Y-57017857D01*
X157369047Y-56839285D02*
X157369047Y-57589285D01*
X157369047Y-56875000D02*
X157321428Y-56839285D01*
X157226190Y-56839285D01*
X157178571Y-56875000D01*
X157154761Y-56910714D01*
X157130952Y-56982142D01*
X157130952Y-57196428D01*
X157154761Y-57267857D01*
X157178571Y-57303571D01*
X157226190Y-57339285D01*
X157321428Y-57339285D01*
X157369047Y-57303571D01*
X157035714Y-57410714D02*
X156654761Y-57410714D01*
X156440476Y-56589285D02*
X156392857Y-56589285D01*
X156345238Y-56625000D01*
X156321428Y-56660714D01*
X156297619Y-56732142D01*
X156273809Y-56875000D01*
X156273809Y-57053571D01*
X156297619Y-57196428D01*
X156321428Y-57267857D01*
X156345238Y-57303571D01*
X156392857Y-57339285D01*
X156440476Y-57339285D01*
X156488095Y-57303571D01*
X156511904Y-57267857D01*
X156535714Y-57196428D01*
X156559523Y-57053571D01*
X156559523Y-56875000D01*
X156535714Y-56732142D01*
X156511904Y-56660714D01*
X156488095Y-56625000D01*
X156440476Y-56589285D01*
X161928571Y-57339286D02*
X161928571Y-56839286D01*
X161928571Y-56910715D02*
X161904761Y-56875001D01*
X161857142Y-56839286D01*
X161785714Y-56839286D01*
X161738095Y-56875001D01*
X161714285Y-56946429D01*
X161714285Y-57339286D01*
X161714285Y-56946429D02*
X161690476Y-56875001D01*
X161642857Y-56839286D01*
X161571428Y-56839286D01*
X161523809Y-56875001D01*
X161500000Y-56946429D01*
X161500000Y-57339286D01*
X161047619Y-57303572D02*
X161095238Y-57339286D01*
X161190476Y-57339286D01*
X161238095Y-57303572D01*
X161261904Y-57267858D01*
X161285714Y-57196429D01*
X161285714Y-56982143D01*
X161261904Y-56910715D01*
X161238095Y-56875001D01*
X161190476Y-56839286D01*
X161095238Y-56839286D01*
X161047619Y-56875001D01*
X160619047Y-56839286D02*
X160619047Y-57339286D01*
X160833333Y-56839286D02*
X160833333Y-57232143D01*
X160809523Y-57303572D01*
X160761904Y-57339286D01*
X160690476Y-57339286D01*
X160642857Y-57303572D01*
X160619047Y-57267858D01*
X160380952Y-57267858D02*
X160357142Y-57303572D01*
X160380952Y-57339286D01*
X160404761Y-57303572D01*
X160380952Y-57267858D01*
X160380952Y-57339286D01*
X160190476Y-56839286D02*
X160071428Y-57339286D01*
X159952380Y-56839286D01*
X159547619Y-57339286D02*
X159547619Y-56589286D01*
X159547619Y-57303572D02*
X159595238Y-57339286D01*
X159690476Y-57339286D01*
X159738095Y-57303572D01*
X159761904Y-57267858D01*
X159785714Y-57196429D01*
X159785714Y-56982143D01*
X159761904Y-56910715D01*
X159738095Y-56875001D01*
X159690476Y-56839286D01*
X159595238Y-56839286D01*
X159547619Y-56875001D01*
X159095238Y-57339286D02*
X159095238Y-56589286D01*
X159095238Y-57303572D02*
X159142857Y-57339286D01*
X159238095Y-57339286D01*
X159285714Y-57303572D01*
X159309523Y-57267858D01*
X159333333Y-57196429D01*
X159333333Y-56982143D01*
X159309523Y-56910715D01*
X159285714Y-56875001D01*
X159238095Y-56839286D01*
X159142857Y-56839286D01*
X159095238Y-56875001D01*
X158642857Y-57339286D02*
X158642857Y-56946429D01*
X158666666Y-56875001D01*
X158714285Y-56839286D01*
X158809523Y-56839286D01*
X158857142Y-56875001D01*
X158642857Y-57303572D02*
X158690476Y-57339286D01*
X158809523Y-57339286D01*
X158857142Y-57303572D01*
X158880952Y-57232143D01*
X158880952Y-57160715D01*
X158857142Y-57089286D01*
X158809523Y-57053572D01*
X158690476Y-57053572D01*
X158642857Y-57017858D01*
X158523809Y-57410715D02*
X158142857Y-57410715D01*
X157809523Y-57303572D02*
X157857142Y-57339286D01*
X157952380Y-57339286D01*
X158000000Y-57303572D01*
X158023809Y-57267858D01*
X158047619Y-57196429D01*
X158047619Y-56982143D01*
X158023809Y-56910715D01*
X158000000Y-56875001D01*
X157952380Y-56839286D01*
X157857142Y-56839286D01*
X157809523Y-56875001D01*
X157380952Y-57339286D02*
X157380952Y-56946429D01*
X157404761Y-56875001D01*
X157452380Y-56839286D01*
X157547619Y-56839286D01*
X157595238Y-56875001D01*
X157380952Y-57303572D02*
X157428571Y-57339286D01*
X157547619Y-57339286D01*
X157595238Y-57303572D01*
X157619047Y-57232143D01*
X157619047Y-57160715D01*
X157595238Y-57089286D01*
X157547619Y-57053572D01*
X157428571Y-57053572D01*
X157380952Y-57017858D01*
X157142857Y-56839286D02*
X157142857Y-57589286D01*
X157142857Y-56875001D02*
X157095238Y-56839286D01*
X157000000Y-56839286D01*
X156952380Y-56875001D01*
X156928571Y-56910715D01*
X156904761Y-56982143D01*
X156904761Y-57196429D01*
X156928571Y-57267858D01*
X156952380Y-57303572D01*
X157000000Y-57339286D01*
X157095238Y-57339286D01*
X157142857Y-57303572D01*
X156809523Y-57410715D02*
X156428571Y-57410715D01*
X156214285Y-56589286D02*
X156166666Y-56589286D01*
X156119047Y-56625001D01*
X156095238Y-56660715D01*
X156071428Y-56732143D01*
X156047619Y-56875001D01*
X156047619Y-57053572D01*
X156071428Y-57196429D01*
X156095238Y-57267858D01*
X156119047Y-57303572D01*
X156166666Y-57339286D01*
X156214285Y-57339286D01*
X156261904Y-57303572D01*
X156285714Y-57267858D01*
X156309523Y-57196429D01*
X156333333Y-57053572D01*
X156333333Y-56875001D01*
X156309523Y-56732143D01*
X156285714Y-56660715D01*
X156261904Y-56625001D01*
X156214285Y-56589286D01*
X161928571Y-57339286D02*
X161928571Y-56839286D01*
X161928571Y-56910715D02*
X161904761Y-56875001D01*
X161857142Y-56839286D01*
X161785714Y-56839286D01*
X161738095Y-56875001D01*
X161714285Y-56946429D01*
X161714285Y-57339286D01*
X161714285Y-56946429D02*
X161690476Y-56875001D01*
X161642857Y-56839286D01*
X161571428Y-56839286D01*
X161523809Y-56875001D01*
X161500000Y-56946429D01*
X161500000Y-57339286D01*
X161047619Y-57303572D02*
X161095238Y-57339286D01*
X161190476Y-57339286D01*
X161238095Y-57303572D01*
X161261904Y-57267858D01*
X161285714Y-57196429D01*
X161285714Y-56982143D01*
X161261904Y-56910715D01*
X161238095Y-56875001D01*
X161190476Y-56839286D01*
X161095238Y-56839286D01*
X161047619Y-56875001D01*
X160619047Y-56839286D02*
X160619047Y-57339286D01*
X160833333Y-56839286D02*
X160833333Y-57232143D01*
X160809523Y-57303572D01*
X160761904Y-57339286D01*
X160690476Y-57339286D01*
X160642857Y-57303572D01*
X160619047Y-57267858D01*
X160380952Y-57267858D02*
X160357142Y-57303572D01*
X160380952Y-57339286D01*
X160404761Y-57303572D01*
X160380952Y-57267858D01*
X160380952Y-57339286D01*
X160190476Y-56839286D02*
X160071428Y-57339286D01*
X159952380Y-56839286D01*
X159547619Y-57339286D02*
X159547619Y-56589286D01*
X159547619Y-57303572D02*
X159595238Y-57339286D01*
X159690476Y-57339286D01*
X159738095Y-57303572D01*
X159761904Y-57267858D01*
X159785714Y-57196429D01*
X159785714Y-56982143D01*
X159761904Y-56910715D01*
X159738095Y-56875001D01*
X159690476Y-56839286D01*
X159595238Y-56839286D01*
X159547619Y-56875001D01*
X159095238Y-57339286D02*
X159095238Y-56589286D01*
X159095238Y-57303572D02*
X159142857Y-57339286D01*
X159238095Y-57339286D01*
X159285714Y-57303572D01*
X159309523Y-57267858D01*
X159333333Y-57196429D01*
X159333333Y-56982143D01*
X159309523Y-56910715D01*
X159285714Y-56875001D01*
X159238095Y-56839286D01*
X159142857Y-56839286D01*
X159095238Y-56875001D01*
X158642857Y-57339286D02*
X158642857Y-56946429D01*
X158666666Y-56875001D01*
X158714285Y-56839286D01*
X158809523Y-56839286D01*
X158857142Y-56875001D01*
X158642857Y-57303572D02*
X158690476Y-57339286D01*
X158809523Y-57339286D01*
X158857142Y-57303572D01*
X158880952Y-57232143D01*
X158880952Y-57160715D01*
X158857142Y-57089286D01*
X158809523Y-57053572D01*
X158690476Y-57053572D01*
X158642857Y-57017858D01*
X158523809Y-57410715D02*
X158142857Y-57410715D01*
X157809523Y-57303572D02*
X157857142Y-57339286D01*
X157952380Y-57339286D01*
X158000000Y-57303572D01*
X158023809Y-57267858D01*
X158047619Y-57196429D01*
X158047619Y-56982143D01*
X158023809Y-56910715D01*
X158000000Y-56875001D01*
X157952380Y-56839286D01*
X157857142Y-56839286D01*
X157809523Y-56875001D01*
X157380952Y-57339286D02*
X157380952Y-56946429D01*
X157404761Y-56875001D01*
X157452380Y-56839286D01*
X157547619Y-56839286D01*
X157595238Y-56875001D01*
X157380952Y-57303572D02*
X157428571Y-57339286D01*
X157547619Y-57339286D01*
X157595238Y-57303572D01*
X157619047Y-57232143D01*
X157619047Y-57160715D01*
X157595238Y-57089286D01*
X157547619Y-57053572D01*
X157428571Y-57053572D01*
X157380952Y-57017858D01*
X157142857Y-56839286D02*
X157142857Y-57589286D01*
X157142857Y-56875001D02*
X157095238Y-56839286D01*
X157000000Y-56839286D01*
X156952380Y-56875001D01*
X156928571Y-56910715D01*
X156904761Y-56982143D01*
X156904761Y-57196429D01*
X156928571Y-57267858D01*
X156952380Y-57303572D01*
X157000000Y-57339286D01*
X157095238Y-57339286D01*
X157142857Y-57303572D01*
X156809523Y-57410715D02*
X156428571Y-57410715D01*
X156047619Y-57339286D02*
X156333333Y-57339286D01*
X156190476Y-57339286D02*
X156190476Y-56589286D01*
X156238095Y-56696429D01*
X156285714Y-56767858D01*
X156333333Y-56803572D01*
X160339285Y-55297620D02*
X159839285Y-55297620D01*
X159910714Y-55297620D02*
X159875000Y-55321429D01*
X159839285Y-55369048D01*
X159839285Y-55440477D01*
X159875000Y-55488096D01*
X159946428Y-55511905D01*
X160339285Y-55511905D01*
X159946428Y-55511905D02*
X159875000Y-55535715D01*
X159839285Y-55583334D01*
X159839285Y-55654762D01*
X159875000Y-55702381D01*
X159946428Y-55726191D01*
X160339285Y-55726191D01*
X160303571Y-56178572D02*
X160339285Y-56130953D01*
X160339285Y-56035715D01*
X160303571Y-55988096D01*
X160267857Y-55964286D01*
X160196428Y-55940477D01*
X159982142Y-55940477D01*
X159910714Y-55964286D01*
X159875000Y-55988096D01*
X159839285Y-56035715D01*
X159839285Y-56130953D01*
X159875000Y-56178572D01*
X159839285Y-56607143D02*
X160339285Y-56607143D01*
X159839285Y-56392858D02*
X160232142Y-56392858D01*
X160303571Y-56416667D01*
X160339285Y-56464286D01*
X160339285Y-56535715D01*
X160303571Y-56583334D01*
X160267857Y-56607143D01*
X160267857Y-56845239D02*
X160303571Y-56869048D01*
X160339285Y-56845239D01*
X160303571Y-56821429D01*
X160267857Y-56845239D01*
X160339285Y-56845239D01*
X159839285Y-57083334D02*
X160589285Y-57083334D01*
X159875000Y-57083334D02*
X159839285Y-57130953D01*
X159839285Y-57226191D01*
X159875000Y-57273810D01*
X159910714Y-57297620D01*
X159982142Y-57321429D01*
X160196428Y-57321429D01*
X160267857Y-57297620D01*
X160303571Y-57273810D01*
X160339285Y-57226191D01*
X160339285Y-57130953D01*
X160303571Y-57083334D01*
X159839285Y-57488096D02*
X160339285Y-57583334D01*
X159982142Y-57678572D01*
X160339285Y-57773810D01*
X159839285Y-57869048D01*
X160339285Y-58059524D02*
X159839285Y-58059524D01*
X159982142Y-58059524D02*
X159910714Y-58083334D01*
X159875000Y-58107143D01*
X159839285Y-58154762D01*
X159839285Y-58202381D01*
X160410714Y-58250001D02*
X160410714Y-58630953D01*
X160303571Y-58964286D02*
X160339285Y-58916667D01*
X160339285Y-58821429D01*
X160303571Y-58773810D01*
X160267857Y-58750001D01*
X160196428Y-58726191D01*
X159982142Y-58726191D01*
X159910714Y-58750001D01*
X159875000Y-58773810D01*
X159839285Y-58821429D01*
X159839285Y-58916667D01*
X159875000Y-58964286D01*
X160339285Y-59392858D02*
X159946428Y-59392858D01*
X159875000Y-59369048D01*
X159839285Y-59321429D01*
X159839285Y-59226191D01*
X159875000Y-59178572D01*
X160303571Y-59392858D02*
X160339285Y-59345239D01*
X160339285Y-59226191D01*
X160303571Y-59178572D01*
X160232142Y-59154762D01*
X160160714Y-59154762D01*
X160089285Y-59178572D01*
X160053571Y-59226191D01*
X160053571Y-59345239D01*
X160017857Y-59392858D01*
X159839285Y-59630953D02*
X160589285Y-59630953D01*
X159875000Y-59630953D02*
X159839285Y-59678572D01*
X159839285Y-59773810D01*
X159875000Y-59821429D01*
X159910714Y-59845239D01*
X159982142Y-59869048D01*
X160196428Y-59869048D01*
X160267857Y-59845239D01*
X160303571Y-59821429D01*
X160339285Y-59773810D01*
X160339285Y-59678572D01*
X160303571Y-59630953D01*
X160410714Y-59964286D02*
X160410714Y-60345239D01*
X160339285Y-60726191D02*
X160339285Y-60440477D01*
X160339285Y-60583334D02*
X159589285Y-60583334D01*
X159696428Y-60535715D01*
X159767857Y-60488096D01*
X159803571Y-60440477D01*
X154339285Y-55297620D02*
X153839285Y-55297620D01*
X153910714Y-55297620D02*
X153875000Y-55321429D01*
X153839285Y-55369048D01*
X153839285Y-55440477D01*
X153875000Y-55488096D01*
X153946428Y-55511905D01*
X154339285Y-55511905D01*
X153946428Y-55511905D02*
X153875000Y-55535715D01*
X153839285Y-55583334D01*
X153839285Y-55654762D01*
X153875000Y-55702381D01*
X153946428Y-55726191D01*
X154339285Y-55726191D01*
X154303571Y-56178572D02*
X154339285Y-56130953D01*
X154339285Y-56035715D01*
X154303571Y-55988096D01*
X154267857Y-55964286D01*
X154196428Y-55940477D01*
X153982142Y-55940477D01*
X153910714Y-55964286D01*
X153875000Y-55988096D01*
X153839285Y-56035715D01*
X153839285Y-56130953D01*
X153875000Y-56178572D01*
X153839285Y-56607143D02*
X154339285Y-56607143D01*
X153839285Y-56392858D02*
X154232142Y-56392858D01*
X154303571Y-56416667D01*
X154339285Y-56464286D01*
X154339285Y-56535715D01*
X154303571Y-56583334D01*
X154267857Y-56607143D01*
X154267857Y-56845239D02*
X154303571Y-56869048D01*
X154339285Y-56845239D01*
X154303571Y-56821429D01*
X154267857Y-56845239D01*
X154339285Y-56845239D01*
X153839285Y-57083334D02*
X154589285Y-57083334D01*
X153875000Y-57083334D02*
X153839285Y-57130953D01*
X153839285Y-57226191D01*
X153875000Y-57273810D01*
X153910714Y-57297620D01*
X153982142Y-57321429D01*
X154196428Y-57321429D01*
X154267857Y-57297620D01*
X154303571Y-57273810D01*
X154339285Y-57226191D01*
X154339285Y-57130953D01*
X154303571Y-57083334D01*
X153839285Y-57488096D02*
X154339285Y-57583334D01*
X153982142Y-57678572D01*
X154339285Y-57773810D01*
X153839285Y-57869048D01*
X154339285Y-58059524D02*
X153839285Y-58059524D01*
X153982142Y-58059524D02*
X153910714Y-58083334D01*
X153875000Y-58107143D01*
X153839285Y-58154762D01*
X153839285Y-58202381D01*
X154410714Y-58250001D02*
X154410714Y-58630953D01*
X154303571Y-58964286D02*
X154339285Y-58916667D01*
X154339285Y-58821429D01*
X154303571Y-58773810D01*
X154267857Y-58750001D01*
X154196428Y-58726191D01*
X153982142Y-58726191D01*
X153910714Y-58750001D01*
X153875000Y-58773810D01*
X153839285Y-58821429D01*
X153839285Y-58916667D01*
X153875000Y-58964286D01*
X154339285Y-59392858D02*
X153946428Y-59392858D01*
X153875000Y-59369048D01*
X153839285Y-59321429D01*
X153839285Y-59226191D01*
X153875000Y-59178572D01*
X154303571Y-59392858D02*
X154339285Y-59345239D01*
X154339285Y-59226191D01*
X154303571Y-59178572D01*
X154232142Y-59154762D01*
X154160714Y-59154762D01*
X154089285Y-59178572D01*
X154053571Y-59226191D01*
X154053571Y-59345239D01*
X154017857Y-59392858D01*
X153839285Y-59630953D02*
X154589285Y-59630953D01*
X153875000Y-59630953D02*
X153839285Y-59678572D01*
X153839285Y-59773810D01*
X153875000Y-59821429D01*
X153910714Y-59845239D01*
X153982142Y-59869048D01*
X154196428Y-59869048D01*
X154267857Y-59845239D01*
X154303571Y-59821429D01*
X154339285Y-59773810D01*
X154339285Y-59678572D01*
X154303571Y-59630953D01*
X154410714Y-59964286D02*
X154410714Y-60345239D01*
X153589285Y-60416667D02*
X153589285Y-60726191D01*
X153875000Y-60559524D01*
X153875000Y-60630953D01*
X153910714Y-60678572D01*
X153946428Y-60702381D01*
X154017857Y-60726191D01*
X154196428Y-60726191D01*
X154267857Y-60702381D01*
X154303571Y-60678572D01*
X154339285Y-60630953D01*
X154339285Y-60488096D01*
X154303571Y-60440477D01*
X154267857Y-60416667D01*
X149803571Y-61869047D02*
X149839285Y-61821428D01*
X149839285Y-61726190D01*
X149803571Y-61678571D01*
X149767857Y-61654761D01*
X149696428Y-61630952D01*
X149482142Y-61630952D01*
X149410714Y-61654761D01*
X149375000Y-61678571D01*
X149339285Y-61726190D01*
X149339285Y-61821428D01*
X149375000Y-61869047D01*
X149839285Y-62083333D02*
X149339285Y-62083333D01*
X149482142Y-62083333D02*
X149410714Y-62107142D01*
X149375000Y-62130952D01*
X149339285Y-62178571D01*
X149339285Y-62226190D01*
X149339285Y-62345238D02*
X149839285Y-62464285D01*
X149339285Y-62583333D02*
X149839285Y-62464285D01*
X150017857Y-62416666D01*
X150053571Y-62392857D01*
X150089285Y-62345238D01*
X149803571Y-62750000D02*
X149839285Y-62797619D01*
X149839285Y-62892857D01*
X149803571Y-62940476D01*
X149732142Y-62964285D01*
X149696428Y-62964285D01*
X149625000Y-62940476D01*
X149589285Y-62892857D01*
X149589285Y-62821428D01*
X149553571Y-62773809D01*
X149482142Y-62750000D01*
X149446428Y-62750000D01*
X149375000Y-62773809D01*
X149339285Y-62821428D01*
X149339285Y-62892857D01*
X149375000Y-62940476D01*
X149339285Y-63107142D02*
X149339285Y-63297619D01*
X149089285Y-63178571D02*
X149732142Y-63178571D01*
X149803571Y-63202380D01*
X149839285Y-63250000D01*
X149839285Y-63297619D01*
X149839285Y-63678571D02*
X149446428Y-63678571D01*
X149375000Y-63654761D01*
X149339285Y-63607142D01*
X149339285Y-63511904D01*
X149375000Y-63464285D01*
X149803571Y-63678571D02*
X149839285Y-63630952D01*
X149839285Y-63511904D01*
X149803571Y-63464285D01*
X149732142Y-63440476D01*
X149660714Y-63440476D01*
X149589285Y-63464285D01*
X149553571Y-63511904D01*
X149553571Y-63630952D01*
X149517857Y-63678571D01*
X149839285Y-63988095D02*
X149803571Y-63940476D01*
X149732142Y-63916666D01*
X149089285Y-63916666D01*
X149767857Y-64178571D02*
X149803571Y-64202380D01*
X149839285Y-64178571D01*
X149803571Y-64154761D01*
X149767857Y-64178571D01*
X149839285Y-64178571D01*
X149803571Y-64630952D02*
X149839285Y-64583333D01*
X149839285Y-64488095D01*
X149803571Y-64440476D01*
X149767857Y-64416666D01*
X149696428Y-64392857D01*
X149482142Y-64392857D01*
X149410714Y-64416666D01*
X149375000Y-64440476D01*
X149339285Y-64488095D01*
X149339285Y-64583333D01*
X149375000Y-64630952D01*
X149839285Y-65059523D02*
X149446428Y-65059523D01*
X149375000Y-65035714D01*
X149339285Y-64988095D01*
X149339285Y-64892857D01*
X149375000Y-64845238D01*
X149803571Y-65059523D02*
X149839285Y-65011904D01*
X149839285Y-64892857D01*
X149803571Y-64845238D01*
X149732142Y-64821428D01*
X149660714Y-64821428D01*
X149589285Y-64845238D01*
X149553571Y-64892857D01*
X149553571Y-65011904D01*
X149517857Y-65059523D01*
X149339285Y-65297619D02*
X150089285Y-65297619D01*
X149375000Y-65297619D02*
X149339285Y-65345238D01*
X149339285Y-65440476D01*
X149375000Y-65488095D01*
X149410714Y-65511904D01*
X149482142Y-65535714D01*
X149696428Y-65535714D01*
X149767857Y-65511904D01*
X149803571Y-65488095D01*
X149839285Y-65440476D01*
X149839285Y-65345238D01*
X149803571Y-65297619D01*
X149910714Y-65630952D02*
X149910714Y-66011904D01*
X149839285Y-66345238D02*
X149446428Y-66345238D01*
X149375000Y-66321428D01*
X149339285Y-66273809D01*
X149339285Y-66178571D01*
X149375000Y-66130952D01*
X149803571Y-66345238D02*
X149839285Y-66297619D01*
X149839285Y-66178571D01*
X149803571Y-66130952D01*
X149732142Y-66107142D01*
X149660714Y-66107142D01*
X149589285Y-66130952D01*
X149553571Y-66178571D01*
X149553571Y-66297619D01*
X149517857Y-66345238D01*
X155803571Y-61869047D02*
X155839285Y-61821428D01*
X155839285Y-61726190D01*
X155803571Y-61678571D01*
X155767857Y-61654761D01*
X155696428Y-61630952D01*
X155482142Y-61630952D01*
X155410714Y-61654761D01*
X155375000Y-61678571D01*
X155339285Y-61726190D01*
X155339285Y-61821428D01*
X155375000Y-61869047D01*
X155839285Y-62083333D02*
X155339285Y-62083333D01*
X155482142Y-62083333D02*
X155410714Y-62107142D01*
X155375000Y-62130952D01*
X155339285Y-62178571D01*
X155339285Y-62226190D01*
X155339285Y-62345238D02*
X155839285Y-62464285D01*
X155339285Y-62583333D02*
X155839285Y-62464285D01*
X156017857Y-62416666D01*
X156053571Y-62392857D01*
X156089285Y-62345238D01*
X155803571Y-62750000D02*
X155839285Y-62797619D01*
X155839285Y-62892857D01*
X155803571Y-62940476D01*
X155732142Y-62964285D01*
X155696428Y-62964285D01*
X155625000Y-62940476D01*
X155589285Y-62892857D01*
X155589285Y-62821428D01*
X155553571Y-62773809D01*
X155482142Y-62750000D01*
X155446428Y-62750000D01*
X155375000Y-62773809D01*
X155339285Y-62821428D01*
X155339285Y-62892857D01*
X155375000Y-62940476D01*
X155339285Y-63107142D02*
X155339285Y-63297619D01*
X155089285Y-63178571D02*
X155732142Y-63178571D01*
X155803571Y-63202380D01*
X155839285Y-63250000D01*
X155839285Y-63297619D01*
X155839285Y-63678571D02*
X155446428Y-63678571D01*
X155375000Y-63654761D01*
X155339285Y-63607142D01*
X155339285Y-63511904D01*
X155375000Y-63464285D01*
X155803571Y-63678571D02*
X155839285Y-63630952D01*
X155839285Y-63511904D01*
X155803571Y-63464285D01*
X155732142Y-63440476D01*
X155660714Y-63440476D01*
X155589285Y-63464285D01*
X155553571Y-63511904D01*
X155553571Y-63630952D01*
X155517857Y-63678571D01*
X155839285Y-63988095D02*
X155803571Y-63940476D01*
X155732142Y-63916666D01*
X155089285Y-63916666D01*
X155767857Y-64178571D02*
X155803571Y-64202380D01*
X155839285Y-64178571D01*
X155803571Y-64154761D01*
X155767857Y-64178571D01*
X155839285Y-64178571D01*
X155803571Y-64630952D02*
X155839285Y-64583333D01*
X155839285Y-64488095D01*
X155803571Y-64440476D01*
X155767857Y-64416666D01*
X155696428Y-64392857D01*
X155482142Y-64392857D01*
X155410714Y-64416666D01*
X155375000Y-64440476D01*
X155339285Y-64488095D01*
X155339285Y-64583333D01*
X155375000Y-64630952D01*
X155839285Y-65059523D02*
X155446428Y-65059523D01*
X155375000Y-65035714D01*
X155339285Y-64988095D01*
X155339285Y-64892857D01*
X155375000Y-64845238D01*
X155803571Y-65059523D02*
X155839285Y-65011904D01*
X155839285Y-64892857D01*
X155803571Y-64845238D01*
X155732142Y-64821428D01*
X155660714Y-64821428D01*
X155589285Y-64845238D01*
X155553571Y-64892857D01*
X155553571Y-65011904D01*
X155517857Y-65059523D01*
X155339285Y-65297619D02*
X156089285Y-65297619D01*
X155375000Y-65297619D02*
X155339285Y-65345238D01*
X155339285Y-65440476D01*
X155375000Y-65488095D01*
X155410714Y-65511904D01*
X155482142Y-65535714D01*
X155696428Y-65535714D01*
X155767857Y-65511904D01*
X155803571Y-65488095D01*
X155839285Y-65440476D01*
X155839285Y-65345238D01*
X155803571Y-65297619D01*
X155910714Y-65630952D02*
X155910714Y-66011904D01*
X155839285Y-66130952D02*
X155089285Y-66130952D01*
X155375000Y-66130952D02*
X155339285Y-66178571D01*
X155339285Y-66273809D01*
X155375000Y-66321428D01*
X155410714Y-66345238D01*
X155482142Y-66369047D01*
X155696428Y-66369047D01*
X155767857Y-66345238D01*
X155803571Y-66321428D01*
X155839285Y-66273809D01*
X155839285Y-66178571D01*
X155803571Y-66130952D01*
X155253571Y-58916666D02*
X155289285Y-58869047D01*
X155289285Y-58773809D01*
X155253571Y-58726190D01*
X155217857Y-58702380D01*
X155146428Y-58678571D01*
X154932142Y-58678571D01*
X154860714Y-58702380D01*
X154825000Y-58726190D01*
X154789285Y-58773809D01*
X154789285Y-58869047D01*
X154825000Y-58916666D01*
X155289285Y-59130952D02*
X154789285Y-59130952D01*
X154932142Y-59130952D02*
X154860714Y-59154761D01*
X154825000Y-59178571D01*
X154789285Y-59226190D01*
X154789285Y-59273809D01*
X154789285Y-59392857D02*
X155289285Y-59511904D01*
X154789285Y-59630952D02*
X155289285Y-59511904D01*
X155467857Y-59464285D01*
X155503571Y-59440476D01*
X155539285Y-59392857D01*
X155253571Y-59797619D02*
X155289285Y-59845238D01*
X155289285Y-59940476D01*
X155253571Y-59988095D01*
X155182142Y-60011904D01*
X155146428Y-60011904D01*
X155075000Y-59988095D01*
X155039285Y-59940476D01*
X155039285Y-59869047D01*
X155003571Y-59821428D01*
X154932142Y-59797619D01*
X154896428Y-59797619D01*
X154825000Y-59821428D01*
X154789285Y-59869047D01*
X154789285Y-59940476D01*
X154825000Y-59988095D01*
X154789285Y-60154761D02*
X154789285Y-60345238D01*
X154539285Y-60226190D02*
X155182142Y-60226190D01*
X155253571Y-60250000D01*
X155289285Y-60297619D01*
X155289285Y-60345238D01*
X155289285Y-60726190D02*
X154896428Y-60726190D01*
X154825000Y-60702380D01*
X154789285Y-60654761D01*
X154789285Y-60559523D01*
X154825000Y-60511904D01*
X155253571Y-60726190D02*
X155289285Y-60678571D01*
X155289285Y-60559523D01*
X155253571Y-60511904D01*
X155182142Y-60488095D01*
X155110714Y-60488095D01*
X155039285Y-60511904D01*
X155003571Y-60559523D01*
X155003571Y-60678571D01*
X154967857Y-60726190D01*
X155289285Y-61035714D02*
X155253571Y-60988095D01*
X155182142Y-60964285D01*
X154539285Y-60964285D01*
X155217857Y-61226190D02*
X155253571Y-61250000D01*
X155289285Y-61226190D01*
X155253571Y-61202380D01*
X155217857Y-61226190D01*
X155289285Y-61226190D01*
X154789285Y-61464285D02*
X155539285Y-61464285D01*
X154825000Y-61464285D02*
X154789285Y-61511904D01*
X154789285Y-61607142D01*
X154825000Y-61654761D01*
X154860714Y-61678571D01*
X154932142Y-61702380D01*
X155146428Y-61702380D01*
X155217857Y-61678571D01*
X155253571Y-61654761D01*
X155289285Y-61607142D01*
X155289285Y-61511904D01*
X155253571Y-61464285D01*
X155289285Y-62130952D02*
X154896428Y-62130952D01*
X154825000Y-62107142D01*
X154789285Y-62059523D01*
X154789285Y-61964285D01*
X154825000Y-61916666D01*
X155253571Y-62130952D02*
X155289285Y-62083333D01*
X155289285Y-61964285D01*
X155253571Y-61916666D01*
X155182142Y-61892857D01*
X155110714Y-61892857D01*
X155039285Y-61916666D01*
X155003571Y-61964285D01*
X155003571Y-62083333D01*
X154967857Y-62130952D01*
X155253571Y-62583333D02*
X155289285Y-62535714D01*
X155289285Y-62440476D01*
X155253571Y-62392857D01*
X155217857Y-62369047D01*
X155146428Y-62345238D01*
X154932142Y-62345238D01*
X154860714Y-62369047D01*
X154825000Y-62392857D01*
X154789285Y-62440476D01*
X154789285Y-62535714D01*
X154825000Y-62583333D01*
X155289285Y-62797619D02*
X154539285Y-62797619D01*
X155003571Y-62845238D02*
X155289285Y-62988095D01*
X154789285Y-62988095D02*
X155075000Y-62797619D01*
X155289285Y-63416666D02*
X154896428Y-63416666D01*
X154825000Y-63392857D01*
X154789285Y-63345238D01*
X154789285Y-63250000D01*
X154825000Y-63202380D01*
X155253571Y-63416666D02*
X155289285Y-63369047D01*
X155289285Y-63250000D01*
X155253571Y-63202380D01*
X155182142Y-63178571D01*
X155110714Y-63178571D01*
X155039285Y-63202380D01*
X155003571Y-63250000D01*
X155003571Y-63369047D01*
X154967857Y-63416666D01*
X154789285Y-63869047D02*
X155396428Y-63869047D01*
X155467857Y-63845238D01*
X155503571Y-63821428D01*
X155539285Y-63773809D01*
X155539285Y-63702380D01*
X155503571Y-63654761D01*
X155253571Y-63869047D02*
X155289285Y-63821428D01*
X155289285Y-63726190D01*
X155253571Y-63678571D01*
X155217857Y-63654761D01*
X155146428Y-63630952D01*
X154932142Y-63630952D01*
X154860714Y-63654761D01*
X154825000Y-63678571D01*
X154789285Y-63726190D01*
X154789285Y-63821428D01*
X154825000Y-63869047D01*
X155253571Y-64297619D02*
X155289285Y-64250000D01*
X155289285Y-64154761D01*
X155253571Y-64107142D01*
X155182142Y-64083333D01*
X154896428Y-64083333D01*
X154825000Y-64107142D01*
X154789285Y-64154761D01*
X154789285Y-64250000D01*
X154825000Y-64297619D01*
X154896428Y-64321428D01*
X154967857Y-64321428D01*
X155039285Y-64083333D01*
X152339285Y-55666666D02*
X151839285Y-55666666D01*
X151910714Y-55666666D02*
X151875000Y-55690476D01*
X151839285Y-55738095D01*
X151839285Y-55809523D01*
X151875000Y-55857142D01*
X151946428Y-55880952D01*
X152339285Y-55880952D01*
X151946428Y-55880952D02*
X151875000Y-55904761D01*
X151839285Y-55952380D01*
X151839285Y-56023809D01*
X151875000Y-56071428D01*
X151946428Y-56095238D01*
X152339285Y-56095238D01*
X152303571Y-56547619D02*
X152339285Y-56500000D01*
X152339285Y-56404761D01*
X152303571Y-56357142D01*
X152267857Y-56333333D01*
X152196428Y-56309523D01*
X151982142Y-56309523D01*
X151910714Y-56333333D01*
X151875000Y-56357142D01*
X151839285Y-56404761D01*
X151839285Y-56500000D01*
X151875000Y-56547619D01*
X151839285Y-56976190D02*
X152339285Y-56976190D01*
X151839285Y-56761904D02*
X152232142Y-56761904D01*
X152303571Y-56785714D01*
X152339285Y-56833333D01*
X152339285Y-56904761D01*
X152303571Y-56952380D01*
X152267857Y-56976190D01*
X152267857Y-57214285D02*
X152303571Y-57238095D01*
X152339285Y-57214285D01*
X152303571Y-57190476D01*
X152267857Y-57214285D01*
X152339285Y-57214285D01*
X151839285Y-57666666D02*
X152339285Y-57666666D01*
X151839285Y-57452380D02*
X152232142Y-57452380D01*
X152303571Y-57476190D01*
X152339285Y-57523809D01*
X152339285Y-57595238D01*
X152303571Y-57642857D01*
X152267857Y-57666666D01*
X152303571Y-57880952D02*
X152339285Y-57928571D01*
X152339285Y-58023809D01*
X152303571Y-58071428D01*
X152232142Y-58095238D01*
X152196428Y-58095238D01*
X152125000Y-58071428D01*
X152089285Y-58023809D01*
X152089285Y-57952380D01*
X152053571Y-57904761D01*
X151982142Y-57880952D01*
X151946428Y-57880952D01*
X151875000Y-57904761D01*
X151839285Y-57952380D01*
X151839285Y-58023809D01*
X151875000Y-58071428D01*
X152339285Y-58309523D02*
X151589285Y-58309523D01*
X151875000Y-58309523D02*
X151839285Y-58357142D01*
X151839285Y-58452380D01*
X151875000Y-58500000D01*
X151910714Y-58523809D01*
X151982142Y-58547619D01*
X152196428Y-58547619D01*
X152267857Y-58523809D01*
X152303571Y-58500000D01*
X152339285Y-58452380D01*
X152339285Y-58357142D01*
X152303571Y-58309523D01*
X152410714Y-58642857D02*
X152410714Y-59023809D01*
X151839285Y-59142857D02*
X152589285Y-59142857D01*
X151875000Y-59142857D02*
X151839285Y-59190476D01*
X151839285Y-59285714D01*
X151875000Y-59333333D01*
X151910714Y-59357142D01*
X151982142Y-59380952D01*
X152196428Y-59380952D01*
X152267857Y-59357142D01*
X152303571Y-59333333D01*
X152339285Y-59285714D01*
X152339285Y-59190476D01*
X152303571Y-59142857D01*
X151839285Y-59809523D02*
X152339285Y-59809523D01*
X151839285Y-59595238D02*
X152232142Y-59595238D01*
X152303571Y-59619047D01*
X152339285Y-59666666D01*
X152339285Y-59738095D01*
X152303571Y-59785714D01*
X152267857Y-59809523D01*
X152339285Y-60119047D02*
X152303571Y-60071428D01*
X152232142Y-60047619D01*
X151589285Y-60047619D01*
X152339285Y-60380952D02*
X152303571Y-60333333D01*
X152232142Y-60309523D01*
X151589285Y-60309523D01*
X164339285Y-61130952D02*
X163839285Y-61130952D01*
X163982142Y-61130952D02*
X163910714Y-61154761D01*
X163875000Y-61178571D01*
X163839285Y-61226190D01*
X163839285Y-61273809D01*
X163839285Y-61654761D02*
X164446428Y-61654761D01*
X164517857Y-61630952D01*
X164553571Y-61607142D01*
X164589285Y-61559523D01*
X164589285Y-61488095D01*
X164553571Y-61440476D01*
X164303571Y-61654761D02*
X164339285Y-61607142D01*
X164339285Y-61511904D01*
X164303571Y-61464285D01*
X164267857Y-61440476D01*
X164196428Y-61416666D01*
X163982142Y-61416666D01*
X163910714Y-61440476D01*
X163875000Y-61464285D01*
X163839285Y-61511904D01*
X163839285Y-61607142D01*
X163875000Y-61654761D01*
X164339285Y-61892857D02*
X163589285Y-61892857D01*
X163875000Y-61892857D02*
X163839285Y-61940476D01*
X163839285Y-62035714D01*
X163875000Y-62083333D01*
X163910714Y-62107142D01*
X163982142Y-62130952D01*
X164196428Y-62130952D01*
X164267857Y-62107142D01*
X164303571Y-62083333D01*
X164339285Y-62035714D01*
X164339285Y-61940476D01*
X164303571Y-61892857D01*
X164410714Y-62226190D02*
X164410714Y-62607142D01*
X163839285Y-62654761D02*
X163839285Y-62845238D01*
X163589285Y-62726190D02*
X164232142Y-62726190D01*
X164303571Y-62749999D01*
X164339285Y-62797619D01*
X164339285Y-62845238D01*
X163839285Y-63226190D02*
X164446428Y-63226190D01*
X164517857Y-63202380D01*
X164553571Y-63178571D01*
X164589285Y-63130952D01*
X164589285Y-63059523D01*
X164553571Y-63011904D01*
X164303571Y-63226190D02*
X164339285Y-63178571D01*
X164339285Y-63083333D01*
X164303571Y-63035714D01*
X164267857Y-63011904D01*
X164196428Y-62988095D01*
X163982142Y-62988095D01*
X163910714Y-63011904D01*
X163875000Y-63035714D01*
X163839285Y-63083333D01*
X163839285Y-63178571D01*
X163875000Y-63226190D01*
X163839285Y-63392857D02*
X163839285Y-63583333D01*
X163589285Y-63464285D02*
X164232142Y-63464285D01*
X164303571Y-63488095D01*
X164339285Y-63535714D01*
X164339285Y-63583333D01*
X164267857Y-63749999D02*
X164303571Y-63773809D01*
X164339285Y-63749999D01*
X164303571Y-63726190D01*
X164267857Y-63749999D01*
X164339285Y-63749999D01*
X164339285Y-63988095D02*
X163589285Y-63988095D01*
X163875000Y-63988095D02*
X163839285Y-64035714D01*
X163839285Y-64130952D01*
X163875000Y-64178571D01*
X163910714Y-64202380D01*
X163982142Y-64226190D01*
X164196428Y-64226190D01*
X164267857Y-64202380D01*
X164303571Y-64178571D01*
X164339285Y-64130952D01*
X164339285Y-64035714D01*
X164303571Y-63988095D01*
X164339285Y-64511904D02*
X164303571Y-64464285D01*
X164232142Y-64440476D01*
X163589285Y-64440476D01*
X163839285Y-64916666D02*
X164339285Y-64916666D01*
X163839285Y-64702380D02*
X164232142Y-64702380D01*
X164303571Y-64726190D01*
X164339285Y-64773809D01*
X164339285Y-64845238D01*
X164303571Y-64892857D01*
X164267857Y-64916666D01*
X164303571Y-65345238D02*
X164339285Y-65297619D01*
X164339285Y-65202380D01*
X164303571Y-65154761D01*
X164232142Y-65130952D01*
X163946428Y-65130952D01*
X163875000Y-65154761D01*
X163839285Y-65202380D01*
X163839285Y-65297619D01*
X163875000Y-65345238D01*
X163946428Y-65369047D01*
X164017857Y-65369047D01*
X164089285Y-65130952D01*
X164410714Y-65464285D02*
X164410714Y-65845238D01*
X164339285Y-65964285D02*
X163839285Y-65964285D01*
X163982142Y-65964285D02*
X163910714Y-65988095D01*
X163875000Y-66011904D01*
X163839285Y-66059523D01*
X163839285Y-66107142D01*
X164303571Y-66464285D02*
X164339285Y-66416666D01*
X164339285Y-66321428D01*
X164303571Y-66273809D01*
X164232142Y-66249999D01*
X163946428Y-66249999D01*
X163875000Y-66273809D01*
X163839285Y-66321428D01*
X163839285Y-66416666D01*
X163875000Y-66464285D01*
X163946428Y-66488095D01*
X164017857Y-66488095D01*
X164089285Y-66249999D01*
X164303571Y-66678571D02*
X164339285Y-66726190D01*
X164339285Y-66821428D01*
X164303571Y-66869047D01*
X164232142Y-66892857D01*
X164196428Y-66892857D01*
X164125000Y-66869047D01*
X164089285Y-66821428D01*
X164089285Y-66749999D01*
X164053571Y-66702380D01*
X163982142Y-66678571D01*
X163946428Y-66678571D01*
X163875000Y-66702380D01*
X163839285Y-66749999D01*
X163839285Y-66821428D01*
X163875000Y-66869047D01*
X166339285Y-61333333D02*
X165839285Y-61333333D01*
X165982142Y-61333333D02*
X165910714Y-61357142D01*
X165875000Y-61380952D01*
X165839285Y-61428571D01*
X165839285Y-61476190D01*
X165839285Y-61857142D02*
X166446428Y-61857142D01*
X166517857Y-61833333D01*
X166553571Y-61809523D01*
X166589285Y-61761904D01*
X166589285Y-61690476D01*
X166553571Y-61642857D01*
X166303571Y-61857142D02*
X166339285Y-61809523D01*
X166339285Y-61714285D01*
X166303571Y-61666666D01*
X166267857Y-61642857D01*
X166196428Y-61619047D01*
X165982142Y-61619047D01*
X165910714Y-61642857D01*
X165875000Y-61666666D01*
X165839285Y-61714285D01*
X165839285Y-61809523D01*
X165875000Y-61857142D01*
X166339285Y-62095238D02*
X165589285Y-62095238D01*
X165875000Y-62095238D02*
X165839285Y-62142857D01*
X165839285Y-62238095D01*
X165875000Y-62285714D01*
X165910714Y-62309523D01*
X165982142Y-62333333D01*
X166196428Y-62333333D01*
X166267857Y-62309523D01*
X166303571Y-62285714D01*
X166339285Y-62238095D01*
X166339285Y-62142857D01*
X166303571Y-62095238D01*
X166410714Y-62428571D02*
X166410714Y-62809523D01*
X165839285Y-62857142D02*
X165839285Y-63047619D01*
X165589285Y-62928571D02*
X166232142Y-62928571D01*
X166303571Y-62952380D01*
X166339285Y-63000000D01*
X166339285Y-63047619D01*
X165839285Y-63428571D02*
X166446428Y-63428571D01*
X166517857Y-63404761D01*
X166553571Y-63380952D01*
X166589285Y-63333333D01*
X166589285Y-63261904D01*
X166553571Y-63214285D01*
X166303571Y-63428571D02*
X166339285Y-63380952D01*
X166339285Y-63285714D01*
X166303571Y-63238095D01*
X166267857Y-63214285D01*
X166196428Y-63190476D01*
X165982142Y-63190476D01*
X165910714Y-63214285D01*
X165875000Y-63238095D01*
X165839285Y-63285714D01*
X165839285Y-63380952D01*
X165875000Y-63428571D01*
X165839285Y-63595238D02*
X165839285Y-63785714D01*
X165589285Y-63666666D02*
X166232142Y-63666666D01*
X166303571Y-63690476D01*
X166339285Y-63738095D01*
X166339285Y-63785714D01*
X166267857Y-63952380D02*
X166303571Y-63976190D01*
X166339285Y-63952380D01*
X166303571Y-63928571D01*
X166267857Y-63952380D01*
X166339285Y-63952380D01*
X166339285Y-64190476D02*
X165839285Y-64190476D01*
X165982142Y-64190476D02*
X165910714Y-64214285D01*
X165875000Y-64238095D01*
X165839285Y-64285714D01*
X165839285Y-64333333D01*
X166303571Y-64690476D02*
X166339285Y-64642857D01*
X166339285Y-64547619D01*
X166303571Y-64500000D01*
X166232142Y-64476190D01*
X165946428Y-64476190D01*
X165875000Y-64500000D01*
X165839285Y-64547619D01*
X165839285Y-64642857D01*
X165875000Y-64690476D01*
X165946428Y-64714285D01*
X166017857Y-64714285D01*
X166089285Y-64476190D01*
X166339285Y-65142857D02*
X165589285Y-65142857D01*
X166303571Y-65142857D02*
X166339285Y-65095238D01*
X166339285Y-65000000D01*
X166303571Y-64952380D01*
X166267857Y-64928571D01*
X166196428Y-64904761D01*
X165982142Y-64904761D01*
X165910714Y-64928571D01*
X165875000Y-64952380D01*
X165839285Y-65000000D01*
X165839285Y-65095238D01*
X165875000Y-65142857D01*
X166410714Y-65261904D02*
X166410714Y-65642857D01*
X166339285Y-65761904D02*
X165839285Y-65761904D01*
X165982142Y-65761904D02*
X165910714Y-65785714D01*
X165875000Y-65809523D01*
X165839285Y-65857142D01*
X165839285Y-65904761D01*
X166303571Y-66261904D02*
X166339285Y-66214285D01*
X166339285Y-66119047D01*
X166303571Y-66071428D01*
X166232142Y-66047619D01*
X165946428Y-66047619D01*
X165875000Y-66071428D01*
X165839285Y-66119047D01*
X165839285Y-66214285D01*
X165875000Y-66261904D01*
X165946428Y-66285714D01*
X166017857Y-66285714D01*
X166089285Y-66047619D01*
X166303571Y-66476190D02*
X166339285Y-66523809D01*
X166339285Y-66619047D01*
X166303571Y-66666666D01*
X166232142Y-66690476D01*
X166196428Y-66690476D01*
X166125000Y-66666666D01*
X166089285Y-66619047D01*
X166089285Y-66547619D01*
X166053571Y-66500000D01*
X165982142Y-66476190D01*
X165946428Y-66476190D01*
X165875000Y-66500000D01*
X165839285Y-66547619D01*
X165839285Y-66619047D01*
X165875000Y-66666666D01*
X176630952Y-56839285D02*
X176440476Y-56839285D01*
X176559523Y-56589285D02*
X176559523Y-57232142D01*
X176535714Y-57303571D01*
X176488095Y-57339285D01*
X176440476Y-57339285D01*
X176059523Y-57339285D02*
X176059523Y-56946428D01*
X176083333Y-56875000D01*
X176130952Y-56839285D01*
X176226190Y-56839285D01*
X176273809Y-56875000D01*
X176059523Y-57303571D02*
X176107142Y-57339285D01*
X176226190Y-57339285D01*
X176273809Y-57303571D01*
X176297619Y-57232142D01*
X176297619Y-57160714D01*
X176273809Y-57089285D01*
X176226190Y-57053571D01*
X176107142Y-57053571D01*
X176059523Y-57017857D01*
X175821428Y-57339285D02*
X175821428Y-56839285D01*
X175821428Y-56982142D02*
X175797619Y-56910714D01*
X175773809Y-56875000D01*
X175726190Y-56839285D01*
X175678571Y-56839285D01*
X175297619Y-56839285D02*
X175297619Y-57446428D01*
X175321428Y-57517857D01*
X175345238Y-57553571D01*
X175392857Y-57589285D01*
X175464285Y-57589285D01*
X175511904Y-57553571D01*
X175297619Y-57303571D02*
X175345238Y-57339285D01*
X175440476Y-57339285D01*
X175488095Y-57303571D01*
X175511904Y-57267857D01*
X175535714Y-57196428D01*
X175535714Y-56982142D01*
X175511904Y-56910714D01*
X175488095Y-56875000D01*
X175440476Y-56839285D01*
X175345238Y-56839285D01*
X175297619Y-56875000D01*
X174869047Y-57303571D02*
X174916666Y-57339285D01*
X175011904Y-57339285D01*
X175059523Y-57303571D01*
X175083333Y-57232142D01*
X175083333Y-56946428D01*
X175059523Y-56875000D01*
X175011904Y-56839285D01*
X174916666Y-56839285D01*
X174869047Y-56875000D01*
X174845238Y-56946428D01*
X174845238Y-57017857D01*
X175083333Y-57089285D01*
X174702380Y-56839285D02*
X174511904Y-56839285D01*
X174630952Y-56589285D02*
X174630952Y-57232142D01*
X174607142Y-57303571D01*
X174559523Y-57339285D01*
X174511904Y-57339285D01*
X174464285Y-57410714D02*
X174083333Y-57410714D01*
X173750000Y-57339285D02*
X173750000Y-56589285D01*
X173750000Y-57303571D02*
X173797619Y-57339285D01*
X173892857Y-57339285D01*
X173940476Y-57303571D01*
X173964285Y-57267857D01*
X173988095Y-57196428D01*
X173988095Y-56982142D01*
X173964285Y-56910714D01*
X173940476Y-56875000D01*
X173892857Y-56839285D01*
X173797619Y-56839285D01*
X173750000Y-56875000D01*
X173511904Y-57339285D02*
X173511904Y-56839285D01*
X173511904Y-56982142D02*
X173488095Y-56910714D01*
X173464285Y-56875000D01*
X173416666Y-56839285D01*
X173369047Y-56839285D01*
X173250000Y-56839285D02*
X173130952Y-57339285D01*
X173011904Y-56839285D01*
X172821428Y-57267857D02*
X172797619Y-57303571D01*
X172821428Y-57339285D01*
X172845238Y-57303571D01*
X172821428Y-57267857D01*
X172821428Y-57339285D01*
X172583333Y-57339285D02*
X172583333Y-56839285D01*
X172583333Y-56982142D02*
X172559523Y-56910714D01*
X172535714Y-56875000D01*
X172488095Y-56839285D01*
X172440476Y-56839285D01*
X172083333Y-57303571D02*
X172130952Y-57339285D01*
X172226190Y-57339285D01*
X172273809Y-57303571D01*
X172297619Y-57232142D01*
X172297619Y-56946428D01*
X172273809Y-56875000D01*
X172226190Y-56839285D01*
X172130952Y-56839285D01*
X172083333Y-56875000D01*
X172059523Y-56946428D01*
X172059523Y-57017857D01*
X172297619Y-57089285D01*
X171869047Y-57303571D02*
X171821428Y-57339285D01*
X171726190Y-57339285D01*
X171678571Y-57303571D01*
X171654761Y-57232142D01*
X171654761Y-57196428D01*
X171678571Y-57125000D01*
X171726190Y-57089285D01*
X171797619Y-57089285D01*
X171845238Y-57053571D01*
X171869047Y-56982142D01*
X171869047Y-56946428D01*
X171845238Y-56875000D01*
X171797619Y-56839285D01*
X171726190Y-56839285D01*
X171678571Y-56875000D01*
X171250000Y-57303571D02*
X171297619Y-57339285D01*
X171392857Y-57339285D01*
X171440476Y-57303571D01*
X171464285Y-57232142D01*
X171464285Y-56946428D01*
X171440476Y-56875000D01*
X171392857Y-56839285D01*
X171297619Y-56839285D01*
X171250000Y-56875000D01*
X171226190Y-56946428D01*
X171226190Y-57017857D01*
X171464285Y-57089285D01*
X171083333Y-56839285D02*
X170892857Y-56839285D01*
X171011904Y-56589285D02*
X171011904Y-57232142D01*
X170988095Y-57303571D01*
X170940476Y-57339285D01*
X170892857Y-57339285D01*
X170845238Y-57410714D02*
X170464285Y-57410714D01*
X170345238Y-57339285D02*
X170345238Y-56839285D01*
X170345238Y-56982142D02*
X170321428Y-56910714D01*
X170297619Y-56875000D01*
X170250000Y-56839285D01*
X170202380Y-56839285D01*
X169845238Y-57303571D02*
X169892857Y-57339285D01*
X169988095Y-57339285D01*
X170035714Y-57303571D01*
X170059523Y-57232142D01*
X170059523Y-56946428D01*
X170035714Y-56875000D01*
X169988095Y-56839285D01*
X169892857Y-56839285D01*
X169845238Y-56875000D01*
X169821428Y-56946428D01*
X169821428Y-57017857D01*
X170059523Y-57089285D01*
X169630952Y-57303571D02*
X169583333Y-57339285D01*
X169488095Y-57339285D01*
X169440476Y-57303571D01*
X169416666Y-57232142D01*
X169416666Y-57196428D01*
X169440476Y-57125000D01*
X169488095Y-57089285D01*
X169559523Y-57089285D01*
X169607142Y-57053571D01*
X169630952Y-56982142D01*
X169630952Y-56946428D01*
X169607142Y-56875000D01*
X169559523Y-56839285D01*
X169488095Y-56839285D01*
X169440476Y-56875000D01*
X176714285Y-50839285D02*
X176523809Y-50839285D01*
X176642857Y-50589285D02*
X176642857Y-51232142D01*
X176619047Y-51303571D01*
X176571428Y-51339285D01*
X176523809Y-51339285D01*
X176142857Y-51339285D02*
X176142857Y-50946428D01*
X176166666Y-50875000D01*
X176214285Y-50839285D01*
X176309523Y-50839285D01*
X176357142Y-50875000D01*
X176142857Y-51303571D02*
X176190476Y-51339285D01*
X176309523Y-51339285D01*
X176357142Y-51303571D01*
X176380952Y-51232142D01*
X176380952Y-51160714D01*
X176357142Y-51089285D01*
X176309523Y-51053571D01*
X176190476Y-51053571D01*
X176142857Y-51017857D01*
X175904761Y-51339285D02*
X175904761Y-50839285D01*
X175904761Y-50982142D02*
X175880952Y-50910714D01*
X175857142Y-50875000D01*
X175809523Y-50839285D01*
X175761904Y-50839285D01*
X175380952Y-50839285D02*
X175380952Y-51446428D01*
X175404761Y-51517857D01*
X175428571Y-51553571D01*
X175476190Y-51589285D01*
X175547619Y-51589285D01*
X175595238Y-51553571D01*
X175380952Y-51303571D02*
X175428571Y-51339285D01*
X175523809Y-51339285D01*
X175571428Y-51303571D01*
X175595238Y-51267857D01*
X175619047Y-51196428D01*
X175619047Y-50982142D01*
X175595238Y-50910714D01*
X175571428Y-50875000D01*
X175523809Y-50839285D01*
X175428571Y-50839285D01*
X175380952Y-50875000D01*
X174952380Y-51303571D02*
X175000000Y-51339285D01*
X175095238Y-51339285D01*
X175142857Y-51303571D01*
X175166666Y-51232142D01*
X175166666Y-50946428D01*
X175142857Y-50875000D01*
X175095238Y-50839285D01*
X175000000Y-50839285D01*
X174952380Y-50875000D01*
X174928571Y-50946428D01*
X174928571Y-51017857D01*
X175166666Y-51089285D01*
X174785714Y-50839285D02*
X174595238Y-50839285D01*
X174714285Y-50589285D02*
X174714285Y-51232142D01*
X174690476Y-51303571D01*
X174642857Y-51339285D01*
X174595238Y-51339285D01*
X174547619Y-51410714D02*
X174166666Y-51410714D01*
X173833333Y-51339285D02*
X173833333Y-50589285D01*
X173833333Y-51303571D02*
X173880952Y-51339285D01*
X173976190Y-51339285D01*
X174023809Y-51303571D01*
X174047619Y-51267857D01*
X174071428Y-51196428D01*
X174071428Y-50982142D01*
X174047619Y-50910714D01*
X174023809Y-50875000D01*
X173976190Y-50839285D01*
X173880952Y-50839285D01*
X173833333Y-50875000D01*
X173595238Y-51339285D02*
X173595238Y-50839285D01*
X173595238Y-50982142D02*
X173571428Y-50910714D01*
X173547619Y-50875000D01*
X173500000Y-50839285D01*
X173452380Y-50839285D01*
X173333333Y-50839285D02*
X173214285Y-51339285D01*
X173095238Y-50839285D01*
X172904761Y-51267857D02*
X172880952Y-51303571D01*
X172904761Y-51339285D01*
X172928571Y-51303571D01*
X172904761Y-51267857D01*
X172904761Y-51339285D01*
X172690476Y-51303571D02*
X172642857Y-51339285D01*
X172547619Y-51339285D01*
X172500000Y-51303571D01*
X172476190Y-51232142D01*
X172476190Y-51196428D01*
X172500000Y-51125000D01*
X172547619Y-51089285D01*
X172619047Y-51089285D01*
X172666666Y-51053571D01*
X172690476Y-50982142D01*
X172690476Y-50946428D01*
X172666666Y-50875000D01*
X172619047Y-50839285D01*
X172547619Y-50839285D01*
X172500000Y-50875000D01*
X172309523Y-50839285D02*
X172214285Y-51339285D01*
X172119047Y-50982142D01*
X172023809Y-51339285D01*
X171928571Y-50839285D01*
X171523809Y-51303571D02*
X171571428Y-51339285D01*
X171666666Y-51339285D01*
X171714285Y-51303571D01*
X171738095Y-51267857D01*
X171761904Y-51196428D01*
X171761904Y-50982142D01*
X171738095Y-50910714D01*
X171714285Y-50875000D01*
X171666666Y-50839285D01*
X171571428Y-50839285D01*
X171523809Y-50875000D01*
X171238095Y-51339285D02*
X171285714Y-51303571D01*
X171309523Y-51232142D01*
X171309523Y-50589285D01*
X171047619Y-51339285D02*
X171047619Y-50589285D01*
X171000000Y-51053571D02*
X170857142Y-51339285D01*
X170857142Y-50839285D02*
X171047619Y-51125000D01*
X170761904Y-51410714D02*
X170380952Y-51410714D01*
X170261904Y-51339285D02*
X170261904Y-50839285D01*
X170261904Y-50982142D02*
X170238095Y-50910714D01*
X170214285Y-50875000D01*
X170166666Y-50839285D01*
X170119047Y-50839285D01*
X169761904Y-51303571D02*
X169809523Y-51339285D01*
X169904761Y-51339285D01*
X169952380Y-51303571D01*
X169976190Y-51232142D01*
X169976190Y-50946428D01*
X169952380Y-50875000D01*
X169904761Y-50839285D01*
X169809523Y-50839285D01*
X169761904Y-50875000D01*
X169738095Y-50946428D01*
X169738095Y-51017857D01*
X169976190Y-51089285D01*
X169547619Y-51303571D02*
X169500000Y-51339285D01*
X169404761Y-51339285D01*
X169357142Y-51303571D01*
X169333333Y-51232142D01*
X169333333Y-51196428D01*
X169357142Y-51125000D01*
X169404761Y-51089285D01*
X169476190Y-51089285D01*
X169523809Y-51053571D01*
X169547619Y-50982142D01*
X169547619Y-50946428D01*
X169523809Y-50875000D01*
X169476190Y-50839285D01*
X169404761Y-50839285D01*
X169357142Y-50875000D01*
X177500000Y-54839285D02*
X177309523Y-54839285D01*
X177428571Y-54589285D02*
X177428571Y-55232142D01*
X177404761Y-55303571D01*
X177357142Y-55339285D01*
X177309523Y-55339285D01*
X176928571Y-55339285D02*
X176928571Y-54946428D01*
X176952380Y-54875000D01*
X177000000Y-54839285D01*
X177095238Y-54839285D01*
X177142857Y-54875000D01*
X176928571Y-55303571D02*
X176976190Y-55339285D01*
X177095238Y-55339285D01*
X177142857Y-55303571D01*
X177166666Y-55232142D01*
X177166666Y-55160714D01*
X177142857Y-55089285D01*
X177095238Y-55053571D01*
X176976190Y-55053571D01*
X176928571Y-55017857D01*
X176690476Y-55339285D02*
X176690476Y-54839285D01*
X176690476Y-54982142D02*
X176666666Y-54910714D01*
X176642857Y-54875000D01*
X176595238Y-54839285D01*
X176547619Y-54839285D01*
X176166666Y-54839285D02*
X176166666Y-55446428D01*
X176190476Y-55517857D01*
X176214285Y-55553571D01*
X176261904Y-55589285D01*
X176333333Y-55589285D01*
X176380952Y-55553571D01*
X176166666Y-55303571D02*
X176214285Y-55339285D01*
X176309523Y-55339285D01*
X176357142Y-55303571D01*
X176380952Y-55267857D01*
X176404761Y-55196428D01*
X176404761Y-54982142D01*
X176380952Y-54910714D01*
X176357142Y-54875000D01*
X176309523Y-54839285D01*
X176214285Y-54839285D01*
X176166666Y-54875000D01*
X175738095Y-55303571D02*
X175785714Y-55339285D01*
X175880952Y-55339285D01*
X175928571Y-55303571D01*
X175952380Y-55232142D01*
X175952380Y-54946428D01*
X175928571Y-54875000D01*
X175880952Y-54839285D01*
X175785714Y-54839285D01*
X175738095Y-54875000D01*
X175714285Y-54946428D01*
X175714285Y-55017857D01*
X175952380Y-55089285D01*
X175571428Y-54839285D02*
X175380952Y-54839285D01*
X175500000Y-54589285D02*
X175500000Y-55232142D01*
X175476190Y-55303571D01*
X175428571Y-55339285D01*
X175380952Y-55339285D01*
X175333333Y-55410714D02*
X174952380Y-55410714D01*
X174619047Y-55339285D02*
X174619047Y-54589285D01*
X174619047Y-55303571D02*
X174666666Y-55339285D01*
X174761904Y-55339285D01*
X174809523Y-55303571D01*
X174833333Y-55267857D01*
X174857142Y-55196428D01*
X174857142Y-54982142D01*
X174833333Y-54910714D01*
X174809523Y-54875000D01*
X174761904Y-54839285D01*
X174666666Y-54839285D01*
X174619047Y-54875000D01*
X174380952Y-55339285D02*
X174380952Y-54839285D01*
X174380952Y-54982142D02*
X174357142Y-54910714D01*
X174333333Y-54875000D01*
X174285714Y-54839285D01*
X174238095Y-54839285D01*
X174119047Y-54839285D02*
X174000000Y-55339285D01*
X173880952Y-54839285D01*
X173690476Y-55267857D02*
X173666666Y-55303571D01*
X173690476Y-55339285D01*
X173714285Y-55303571D01*
X173690476Y-55267857D01*
X173690476Y-55339285D01*
X173476190Y-55303571D02*
X173428571Y-55339285D01*
X173333333Y-55339285D01*
X173285714Y-55303571D01*
X173261904Y-55232142D01*
X173261904Y-55196428D01*
X173285714Y-55125000D01*
X173333333Y-55089285D01*
X173404761Y-55089285D01*
X173452380Y-55053571D01*
X173476190Y-54982142D01*
X173476190Y-54946428D01*
X173452380Y-54875000D01*
X173404761Y-54839285D01*
X173333333Y-54839285D01*
X173285714Y-54875000D01*
X173095238Y-54839285D02*
X173000000Y-55339285D01*
X172904761Y-54982142D01*
X172809523Y-55339285D01*
X172714285Y-54839285D01*
X172309523Y-55339285D02*
X172309523Y-54589285D01*
X172309523Y-55303571D02*
X172357142Y-55339285D01*
X172452380Y-55339285D01*
X172500000Y-55303571D01*
X172523809Y-55267857D01*
X172547619Y-55196428D01*
X172547619Y-54982142D01*
X172523809Y-54910714D01*
X172500000Y-54875000D01*
X172452380Y-54839285D01*
X172357142Y-54839285D01*
X172309523Y-54875000D01*
X172071428Y-55339285D02*
X172071428Y-54839285D01*
X172071428Y-54589285D02*
X172095238Y-54625000D01*
X172071428Y-54660714D01*
X172047619Y-54625000D01*
X172071428Y-54589285D01*
X172071428Y-54660714D01*
X171761904Y-55339285D02*
X171809523Y-55303571D01*
X171833333Y-55267857D01*
X171857142Y-55196428D01*
X171857142Y-54982142D01*
X171833333Y-54910714D01*
X171809523Y-54875000D01*
X171761904Y-54839285D01*
X171690476Y-54839285D01*
X171642857Y-54875000D01*
X171619047Y-54910714D01*
X171595238Y-54982142D01*
X171595238Y-55196428D01*
X171619047Y-55267857D01*
X171642857Y-55303571D01*
X171690476Y-55339285D01*
X171761904Y-55339285D01*
X171500000Y-55410714D02*
X171119047Y-55410714D01*
X170785714Y-55339285D02*
X170785714Y-54589285D01*
X170785714Y-55303571D02*
X170833333Y-55339285D01*
X170928571Y-55339285D01*
X170976190Y-55303571D01*
X171000000Y-55267857D01*
X171023809Y-55196428D01*
X171023809Y-54982142D01*
X171000000Y-54910714D01*
X170976190Y-54875000D01*
X170928571Y-54839285D01*
X170833333Y-54839285D01*
X170785714Y-54875000D01*
X170547619Y-55339285D02*
X170547619Y-54839285D01*
X170547619Y-54982142D02*
X170523809Y-54910714D01*
X170500000Y-54875000D01*
X170452380Y-54839285D01*
X170404761Y-54839285D01*
X170285714Y-54839285D02*
X170166666Y-55339285D01*
X170047619Y-54839285D01*
X169976190Y-55410714D02*
X169595238Y-55410714D01*
X169476190Y-55339285D02*
X169476190Y-54839285D01*
X169476190Y-54982142D02*
X169452380Y-54910714D01*
X169428571Y-54875000D01*
X169380952Y-54839285D01*
X169333333Y-54839285D01*
X168976190Y-55303571D02*
X169023809Y-55339285D01*
X169119047Y-55339285D01*
X169166666Y-55303571D01*
X169190476Y-55232142D01*
X169190476Y-54946428D01*
X169166666Y-54875000D01*
X169119047Y-54839285D01*
X169023809Y-54839285D01*
X168976190Y-54875000D01*
X168952380Y-54946428D01*
X168952380Y-55017857D01*
X169190476Y-55089285D01*
X168761904Y-55303571D02*
X168714285Y-55339285D01*
X168619047Y-55339285D01*
X168571428Y-55303571D01*
X168547619Y-55232142D01*
X168547619Y-55196428D01*
X168571428Y-55125000D01*
X168619047Y-55089285D01*
X168690476Y-55089285D01*
X168738095Y-55053571D01*
X168761904Y-54982142D01*
X168761904Y-54946428D01*
X168738095Y-54875000D01*
X168690476Y-54839285D01*
X168619047Y-54839285D01*
X168571428Y-54875000D01*
X176738095Y-52839285D02*
X176547619Y-52839285D01*
X176666666Y-52589285D02*
X176666666Y-53232142D01*
X176642857Y-53303571D01*
X176595238Y-53339285D01*
X176547619Y-53339285D01*
X176166666Y-53339285D02*
X176166666Y-52946428D01*
X176190476Y-52875000D01*
X176238095Y-52839285D01*
X176333333Y-52839285D01*
X176380952Y-52875000D01*
X176166666Y-53303571D02*
X176214285Y-53339285D01*
X176333333Y-53339285D01*
X176380952Y-53303571D01*
X176404761Y-53232142D01*
X176404761Y-53160714D01*
X176380952Y-53089285D01*
X176333333Y-53053571D01*
X176214285Y-53053571D01*
X176166666Y-53017857D01*
X175928571Y-53339285D02*
X175928571Y-52839285D01*
X175928571Y-52982142D02*
X175904761Y-52910714D01*
X175880952Y-52875000D01*
X175833333Y-52839285D01*
X175785714Y-52839285D01*
X175404761Y-52839285D02*
X175404761Y-53446428D01*
X175428571Y-53517857D01*
X175452380Y-53553571D01*
X175500000Y-53589285D01*
X175571428Y-53589285D01*
X175619047Y-53553571D01*
X175404761Y-53303571D02*
X175452380Y-53339285D01*
X175547619Y-53339285D01*
X175595238Y-53303571D01*
X175619047Y-53267857D01*
X175642857Y-53196428D01*
X175642857Y-52982142D01*
X175619047Y-52910714D01*
X175595238Y-52875000D01*
X175547619Y-52839285D01*
X175452380Y-52839285D01*
X175404761Y-52875000D01*
X174976190Y-53303571D02*
X175023809Y-53339285D01*
X175119047Y-53339285D01*
X175166666Y-53303571D01*
X175190476Y-53232142D01*
X175190476Y-52946428D01*
X175166666Y-52875000D01*
X175119047Y-52839285D01*
X175023809Y-52839285D01*
X174976190Y-52875000D01*
X174952380Y-52946428D01*
X174952380Y-53017857D01*
X175190476Y-53089285D01*
X174809523Y-52839285D02*
X174619047Y-52839285D01*
X174738095Y-52589285D02*
X174738095Y-53232142D01*
X174714285Y-53303571D01*
X174666666Y-53339285D01*
X174619047Y-53339285D01*
X174571428Y-53410714D02*
X174190476Y-53410714D01*
X173857142Y-53339285D02*
X173857142Y-52589285D01*
X173857142Y-53303571D02*
X173904761Y-53339285D01*
X174000000Y-53339285D01*
X174047619Y-53303571D01*
X174071428Y-53267857D01*
X174095238Y-53196428D01*
X174095238Y-52982142D01*
X174071428Y-52910714D01*
X174047619Y-52875000D01*
X174000000Y-52839285D01*
X173904761Y-52839285D01*
X173857142Y-52875000D01*
X173619047Y-53339285D02*
X173619047Y-52839285D01*
X173619047Y-52982142D02*
X173595238Y-52910714D01*
X173571428Y-52875000D01*
X173523809Y-52839285D01*
X173476190Y-52839285D01*
X173357142Y-52839285D02*
X173238095Y-53339285D01*
X173119047Y-52839285D01*
X172928571Y-53267857D02*
X172904761Y-53303571D01*
X172928571Y-53339285D01*
X172952380Y-53303571D01*
X172928571Y-53267857D01*
X172928571Y-53339285D01*
X172714285Y-53303571D02*
X172666666Y-53339285D01*
X172571428Y-53339285D01*
X172523809Y-53303571D01*
X172500000Y-53232142D01*
X172500000Y-53196428D01*
X172523809Y-53125000D01*
X172571428Y-53089285D01*
X172642857Y-53089285D01*
X172690476Y-53053571D01*
X172714285Y-52982142D01*
X172714285Y-52946428D01*
X172690476Y-52875000D01*
X172642857Y-52839285D01*
X172571428Y-52839285D01*
X172523809Y-52875000D01*
X172333333Y-52839285D02*
X172238095Y-53339285D01*
X172142857Y-52982142D01*
X172047619Y-53339285D01*
X171952380Y-52839285D01*
X171547619Y-53339285D02*
X171547619Y-52589285D01*
X171547619Y-53303571D02*
X171595238Y-53339285D01*
X171690476Y-53339285D01*
X171738095Y-53303571D01*
X171761904Y-53267857D01*
X171785714Y-53196428D01*
X171785714Y-52982142D01*
X171761904Y-52910714D01*
X171738095Y-52875000D01*
X171690476Y-52839285D01*
X171595238Y-52839285D01*
X171547619Y-52875000D01*
X171309523Y-53339285D02*
X171309523Y-52839285D01*
X171309523Y-52589285D02*
X171333333Y-52625000D01*
X171309523Y-52660714D01*
X171285714Y-52625000D01*
X171309523Y-52589285D01*
X171309523Y-52660714D01*
X171000000Y-53339285D02*
X171047619Y-53303571D01*
X171071428Y-53267857D01*
X171095238Y-53196428D01*
X171095238Y-52982142D01*
X171071428Y-52910714D01*
X171047619Y-52875000D01*
X171000000Y-52839285D01*
X170928571Y-52839285D01*
X170880952Y-52875000D01*
X170857142Y-52910714D01*
X170833333Y-52982142D01*
X170833333Y-53196428D01*
X170857142Y-53267857D01*
X170880952Y-53303571D01*
X170928571Y-53339285D01*
X171000000Y-53339285D01*
X170738095Y-53410714D02*
X170357142Y-53410714D01*
X170238095Y-53339285D02*
X170238095Y-52839285D01*
X170238095Y-52982142D02*
X170214285Y-52910714D01*
X170190476Y-52875000D01*
X170142857Y-52839285D01*
X170095238Y-52839285D01*
X169738095Y-53303571D02*
X169785714Y-53339285D01*
X169880952Y-53339285D01*
X169928571Y-53303571D01*
X169952380Y-53232142D01*
X169952380Y-52946428D01*
X169928571Y-52875000D01*
X169880952Y-52839285D01*
X169785714Y-52839285D01*
X169738095Y-52875000D01*
X169714285Y-52946428D01*
X169714285Y-53017857D01*
X169952380Y-53089285D01*
X169523809Y-53303571D02*
X169476190Y-53339285D01*
X169380952Y-53339285D01*
X169333333Y-53303571D01*
X169309523Y-53232142D01*
X169309523Y-53196428D01*
X169333333Y-53125000D01*
X169380952Y-53089285D01*
X169452380Y-53089285D01*
X169500000Y-53053571D01*
X169523809Y-52982142D01*
X169523809Y-52946428D01*
X169500000Y-52875000D01*
X169452380Y-52839285D01*
X169380952Y-52839285D01*
X169333333Y-52875000D01*
X176392857Y-60839285D02*
X176202380Y-60839285D01*
X176321428Y-60589285D02*
X176321428Y-61232142D01*
X176297619Y-61303571D01*
X176250000Y-61339285D01*
X176202380Y-61339285D01*
X175821428Y-61339285D02*
X175821428Y-60946428D01*
X175845238Y-60875000D01*
X175892857Y-60839285D01*
X175988095Y-60839285D01*
X176035714Y-60875000D01*
X175821428Y-61303571D02*
X175869047Y-61339285D01*
X175988095Y-61339285D01*
X176035714Y-61303571D01*
X176059523Y-61232142D01*
X176059523Y-61160714D01*
X176035714Y-61089285D01*
X175988095Y-61053571D01*
X175869047Y-61053571D01*
X175821428Y-61017857D01*
X175583333Y-61339285D02*
X175583333Y-60839285D01*
X175583333Y-60982142D02*
X175559523Y-60910714D01*
X175535714Y-60875000D01*
X175488095Y-60839285D01*
X175440476Y-60839285D01*
X175059523Y-60839285D02*
X175059523Y-61446428D01*
X175083333Y-61517857D01*
X175107142Y-61553571D01*
X175154761Y-61589285D01*
X175226190Y-61589285D01*
X175273809Y-61553571D01*
X175059523Y-61303571D02*
X175107142Y-61339285D01*
X175202380Y-61339285D01*
X175250000Y-61303571D01*
X175273809Y-61267857D01*
X175297619Y-61196428D01*
X175297619Y-60982142D01*
X175273809Y-60910714D01*
X175250000Y-60875000D01*
X175202380Y-60839285D01*
X175107142Y-60839285D01*
X175059523Y-60875000D01*
X174630952Y-61303571D02*
X174678571Y-61339285D01*
X174773809Y-61339285D01*
X174821428Y-61303571D01*
X174845238Y-61232142D01*
X174845238Y-60946428D01*
X174821428Y-60875000D01*
X174773809Y-60839285D01*
X174678571Y-60839285D01*
X174630952Y-60875000D01*
X174607142Y-60946428D01*
X174607142Y-61017857D01*
X174845238Y-61089285D01*
X174464285Y-60839285D02*
X174273809Y-60839285D01*
X174392857Y-60589285D02*
X174392857Y-61232142D01*
X174369047Y-61303571D01*
X174321428Y-61339285D01*
X174273809Y-61339285D01*
X174226190Y-61410714D02*
X173845238Y-61410714D01*
X173511904Y-61339285D02*
X173511904Y-60589285D01*
X173511904Y-61303571D02*
X173559523Y-61339285D01*
X173654761Y-61339285D01*
X173702380Y-61303571D01*
X173726190Y-61267857D01*
X173750000Y-61196428D01*
X173750000Y-60982142D01*
X173726190Y-60910714D01*
X173702380Y-60875000D01*
X173654761Y-60839285D01*
X173559523Y-60839285D01*
X173511904Y-60875000D01*
X173273809Y-61339285D02*
X173273809Y-60839285D01*
X173273809Y-60982142D02*
X173250000Y-60910714D01*
X173226190Y-60875000D01*
X173178571Y-60839285D01*
X173130952Y-60839285D01*
X173011904Y-60839285D02*
X172892857Y-61339285D01*
X172773809Y-60839285D01*
X172583333Y-61267857D02*
X172559523Y-61303571D01*
X172583333Y-61339285D01*
X172607142Y-61303571D01*
X172583333Y-61267857D01*
X172583333Y-61339285D01*
X172369047Y-61303571D02*
X172321428Y-61339285D01*
X172226190Y-61339285D01*
X172178571Y-61303571D01*
X172154761Y-61232142D01*
X172154761Y-61196428D01*
X172178571Y-61125000D01*
X172226190Y-61089285D01*
X172297619Y-61089285D01*
X172345238Y-61053571D01*
X172369047Y-60982142D01*
X172369047Y-60946428D01*
X172345238Y-60875000D01*
X172297619Y-60839285D01*
X172226190Y-60839285D01*
X172178571Y-60875000D01*
X171988095Y-60839285D02*
X171892857Y-61339285D01*
X171797619Y-60982142D01*
X171702380Y-61339285D01*
X171607142Y-60839285D01*
X171345238Y-61339285D02*
X171392857Y-61303571D01*
X171416666Y-61267857D01*
X171440476Y-61196428D01*
X171440476Y-60982142D01*
X171416666Y-60910714D01*
X171392857Y-60875000D01*
X171345238Y-60839285D01*
X171273809Y-60839285D01*
X171226190Y-60875000D01*
X171202380Y-60910714D01*
X171178571Y-60982142D01*
X171178571Y-61196428D01*
X171202380Y-61267857D01*
X171226190Y-61303571D01*
X171273809Y-61339285D01*
X171345238Y-61339285D01*
X171083333Y-61410714D02*
X170702380Y-61410714D01*
X170583333Y-61339285D02*
X170583333Y-60839285D01*
X170583333Y-60982142D02*
X170559523Y-60910714D01*
X170535714Y-60875000D01*
X170488095Y-60839285D01*
X170440476Y-60839285D01*
X170083333Y-61303571D02*
X170130952Y-61339285D01*
X170226190Y-61339285D01*
X170273809Y-61303571D01*
X170297619Y-61232142D01*
X170297619Y-60946428D01*
X170273809Y-60875000D01*
X170226190Y-60839285D01*
X170130952Y-60839285D01*
X170083333Y-60875000D01*
X170059523Y-60946428D01*
X170059523Y-61017857D01*
X170297619Y-61089285D01*
X169869047Y-61303571D02*
X169821428Y-61339285D01*
X169726190Y-61339285D01*
X169678571Y-61303571D01*
X169654761Y-61232142D01*
X169654761Y-61196428D01*
X169678571Y-61125000D01*
X169726190Y-61089285D01*
X169797619Y-61089285D01*
X169845238Y-61053571D01*
X169869047Y-60982142D01*
X169869047Y-60946428D01*
X169845238Y-60875000D01*
X169797619Y-60839285D01*
X169726190Y-60839285D01*
X169678571Y-60875000D01*
X174202380Y-58839285D02*
X174011904Y-58839285D01*
X174130952Y-58589285D02*
X174130952Y-59232142D01*
X174107142Y-59303571D01*
X174059523Y-59339285D01*
X174011904Y-59339285D01*
X173630952Y-59339285D02*
X173630952Y-58589285D01*
X173630952Y-59303571D02*
X173678571Y-59339285D01*
X173773809Y-59339285D01*
X173821428Y-59303571D01*
X173845238Y-59267857D01*
X173869047Y-59196428D01*
X173869047Y-58982142D01*
X173845238Y-58910714D01*
X173821428Y-58875000D01*
X173773809Y-58839285D01*
X173678571Y-58839285D01*
X173630952Y-58875000D01*
X173392857Y-59339285D02*
X173392857Y-58839285D01*
X173392857Y-58589285D02*
X173416666Y-58625000D01*
X173392857Y-58660714D01*
X173369047Y-58625000D01*
X173392857Y-58589285D01*
X173392857Y-58660714D01*
X173273809Y-59410714D02*
X172892857Y-59410714D01*
X172773809Y-59339285D02*
X172773809Y-58839285D01*
X172773809Y-58982142D02*
X172750000Y-58910714D01*
X172726190Y-58875000D01*
X172678571Y-58839285D01*
X172630952Y-58839285D01*
X172273809Y-59303571D02*
X172321428Y-59339285D01*
X172416666Y-59339285D01*
X172464285Y-59303571D01*
X172488095Y-59232142D01*
X172488095Y-58946428D01*
X172464285Y-58875000D01*
X172416666Y-58839285D01*
X172321428Y-58839285D01*
X172273809Y-58875000D01*
X172250000Y-58946428D01*
X172250000Y-59017857D01*
X172488095Y-59089285D01*
X172059523Y-59303571D02*
X172011904Y-59339285D01*
X171916666Y-59339285D01*
X171869047Y-59303571D01*
X171845238Y-59232142D01*
X171845238Y-59196428D01*
X171869047Y-59125000D01*
X171916666Y-59089285D01*
X171988095Y-59089285D01*
X172035714Y-59053571D01*
X172059523Y-58982142D01*
X172059523Y-58946428D01*
X172035714Y-58875000D01*
X171988095Y-58839285D01*
X171916666Y-58839285D01*
X171869047Y-58875000D01*
X162339285Y-56988095D02*
X161839285Y-56988095D01*
X161982142Y-56988095D02*
X161910714Y-57011904D01*
X161875000Y-57035714D01*
X161839285Y-57083333D01*
X161839285Y-57130952D01*
X161839285Y-57511904D02*
X162446428Y-57511904D01*
X162517857Y-57488095D01*
X162553571Y-57464285D01*
X162589285Y-57416666D01*
X162589285Y-57345238D01*
X162553571Y-57297619D01*
X162303571Y-57511904D02*
X162339285Y-57464285D01*
X162339285Y-57369047D01*
X162303571Y-57321428D01*
X162267857Y-57297619D01*
X162196428Y-57273809D01*
X161982142Y-57273809D01*
X161910714Y-57297619D01*
X161875000Y-57321428D01*
X161839285Y-57369047D01*
X161839285Y-57464285D01*
X161875000Y-57511904D01*
X162339285Y-57750000D02*
X161589285Y-57750000D01*
X161875000Y-57750000D02*
X161839285Y-57797619D01*
X161839285Y-57892857D01*
X161875000Y-57940476D01*
X161910714Y-57964285D01*
X161982142Y-57988095D01*
X162196428Y-57988095D01*
X162267857Y-57964285D01*
X162303571Y-57940476D01*
X162339285Y-57892857D01*
X162339285Y-57797619D01*
X162303571Y-57750000D01*
X162410714Y-58083333D02*
X162410714Y-58464285D01*
X161839285Y-58797619D02*
X162339285Y-58797619D01*
X161839285Y-58583333D02*
X162232142Y-58583333D01*
X162303571Y-58607142D01*
X162339285Y-58654761D01*
X162339285Y-58726190D01*
X162303571Y-58773809D01*
X162267857Y-58797619D01*
X162303571Y-59011904D02*
X162339285Y-59059523D01*
X162339285Y-59154761D01*
X162303571Y-59202380D01*
X162232142Y-59226190D01*
X162196428Y-59226190D01*
X162125000Y-59202380D01*
X162089285Y-59154761D01*
X162089285Y-59083333D01*
X162053571Y-59035714D01*
X161982142Y-59011904D01*
X161946428Y-59011904D01*
X161875000Y-59035714D01*
X161839285Y-59083333D01*
X161839285Y-59154761D01*
X161875000Y-59202380D01*
X162339285Y-59440476D02*
X161589285Y-59440476D01*
X161875000Y-59440476D02*
X161839285Y-59488095D01*
X161839285Y-59583333D01*
X161875000Y-59630952D01*
X161910714Y-59654761D01*
X161982142Y-59678571D01*
X162196428Y-59678571D01*
X162267857Y-59654761D01*
X162303571Y-59630952D01*
X162339285Y-59583333D01*
X162339285Y-59488095D01*
X162303571Y-59440476D01*
X162267857Y-59892857D02*
X162303571Y-59916666D01*
X162339285Y-59892857D01*
X162303571Y-59869047D01*
X162267857Y-59892857D01*
X162339285Y-59892857D01*
X162339285Y-60130952D02*
X161589285Y-60130952D01*
X161875000Y-60130952D02*
X161839285Y-60178571D01*
X161839285Y-60273809D01*
X161875000Y-60321428D01*
X161910714Y-60345238D01*
X161982142Y-60369047D01*
X162196428Y-60369047D01*
X162267857Y-60345238D01*
X162303571Y-60321428D01*
X162339285Y-60273809D01*
X162339285Y-60178571D01*
X162303571Y-60130952D01*
X162339285Y-60654761D02*
X162303571Y-60607142D01*
X162232142Y-60583333D01*
X161589285Y-60583333D01*
X161839285Y-61059523D02*
X162339285Y-61059523D01*
X161839285Y-60845238D02*
X162232142Y-60845238D01*
X162303571Y-60869047D01*
X162339285Y-60916666D01*
X162339285Y-60988095D01*
X162303571Y-61035714D01*
X162267857Y-61059523D01*
X162303571Y-61488095D02*
X162339285Y-61440476D01*
X162339285Y-61345238D01*
X162303571Y-61297619D01*
X162232142Y-61273809D01*
X161946428Y-61273809D01*
X161875000Y-61297619D01*
X161839285Y-61345238D01*
X161839285Y-61440476D01*
X161875000Y-61488095D01*
X161946428Y-61511904D01*
X162017857Y-61511904D01*
X162089285Y-61273809D01*
X162410714Y-61607142D02*
X162410714Y-61988095D01*
X162339285Y-62107142D02*
X161839285Y-62107142D01*
X161982142Y-62107142D02*
X161910714Y-62130952D01*
X161875000Y-62154761D01*
X161839285Y-62202380D01*
X161839285Y-62250000D01*
X162303571Y-62607142D02*
X162339285Y-62559523D01*
X162339285Y-62464285D01*
X162303571Y-62416666D01*
X162232142Y-62392857D01*
X161946428Y-62392857D01*
X161875000Y-62416666D01*
X161839285Y-62464285D01*
X161839285Y-62559523D01*
X161875000Y-62607142D01*
X161946428Y-62630952D01*
X162017857Y-62630952D01*
X162089285Y-62392857D01*
X162303571Y-62821428D02*
X162339285Y-62869047D01*
X162339285Y-62964285D01*
X162303571Y-63011904D01*
X162232142Y-63035714D01*
X162196428Y-63035714D01*
X162125000Y-63011904D01*
X162089285Y-62964285D01*
X162089285Y-62892857D01*
X162053571Y-62845238D01*
X161982142Y-62821428D01*
X161946428Y-62821428D01*
X161875000Y-62845238D01*
X161839285Y-62892857D01*
X161839285Y-62964285D01*
X161875000Y-63011904D01*
X158339285Y-56750000D02*
X157839285Y-56750000D01*
X157982142Y-56750000D02*
X157910714Y-56773809D01*
X157875000Y-56797619D01*
X157839285Y-56845238D01*
X157839285Y-56892857D01*
X157839285Y-57273809D02*
X158446428Y-57273809D01*
X158517857Y-57250000D01*
X158553571Y-57226190D01*
X158589285Y-57178571D01*
X158589285Y-57107142D01*
X158553571Y-57059523D01*
X158303571Y-57273809D02*
X158339285Y-57226190D01*
X158339285Y-57130952D01*
X158303571Y-57083333D01*
X158267857Y-57059523D01*
X158196428Y-57035714D01*
X157982142Y-57035714D01*
X157910714Y-57059523D01*
X157875000Y-57083333D01*
X157839285Y-57130952D01*
X157839285Y-57226190D01*
X157875000Y-57273809D01*
X158339285Y-57511904D02*
X157589285Y-57511904D01*
X157875000Y-57511904D02*
X157839285Y-57559523D01*
X157839285Y-57654761D01*
X157875000Y-57702380D01*
X157910714Y-57726190D01*
X157982142Y-57750000D01*
X158196428Y-57750000D01*
X158267857Y-57726190D01*
X158303571Y-57702380D01*
X158339285Y-57654761D01*
X158339285Y-57559523D01*
X158303571Y-57511904D01*
X158410714Y-57845238D02*
X158410714Y-58226190D01*
X157839285Y-58559523D02*
X158339285Y-58559523D01*
X157839285Y-58345238D02*
X158232142Y-58345238D01*
X158303571Y-58369047D01*
X158339285Y-58416666D01*
X158339285Y-58488095D01*
X158303571Y-58535714D01*
X158267857Y-58559523D01*
X158303571Y-58773809D02*
X158339285Y-58821428D01*
X158339285Y-58916666D01*
X158303571Y-58964285D01*
X158232142Y-58988095D01*
X158196428Y-58988095D01*
X158125000Y-58964285D01*
X158089285Y-58916666D01*
X158089285Y-58845238D01*
X158053571Y-58797619D01*
X157982142Y-58773809D01*
X157946428Y-58773809D01*
X157875000Y-58797619D01*
X157839285Y-58845238D01*
X157839285Y-58916666D01*
X157875000Y-58964285D01*
X158339285Y-59202380D02*
X157589285Y-59202380D01*
X157875000Y-59202380D02*
X157839285Y-59250000D01*
X157839285Y-59345238D01*
X157875000Y-59392857D01*
X157910714Y-59416666D01*
X157982142Y-59440476D01*
X158196428Y-59440476D01*
X158267857Y-59416666D01*
X158303571Y-59392857D01*
X158339285Y-59345238D01*
X158339285Y-59250000D01*
X158303571Y-59202380D01*
X158267857Y-59654761D02*
X158303571Y-59678571D01*
X158339285Y-59654761D01*
X158303571Y-59630952D01*
X158267857Y-59654761D01*
X158339285Y-59654761D01*
X157839285Y-60107142D02*
X158446428Y-60107142D01*
X158517857Y-60083333D01*
X158553571Y-60059523D01*
X158589285Y-60011904D01*
X158589285Y-59940476D01*
X158553571Y-59892857D01*
X158303571Y-60107142D02*
X158339285Y-60059523D01*
X158339285Y-59964285D01*
X158303571Y-59916666D01*
X158267857Y-59892857D01*
X158196428Y-59869047D01*
X157982142Y-59869047D01*
X157910714Y-59892857D01*
X157875000Y-59916666D01*
X157839285Y-59964285D01*
X157839285Y-60059523D01*
X157875000Y-60107142D01*
X158339285Y-60345238D02*
X157839285Y-60345238D01*
X157982142Y-60345238D02*
X157910714Y-60369047D01*
X157875000Y-60392857D01*
X157839285Y-60440476D01*
X157839285Y-60488095D01*
X158303571Y-60845238D02*
X158339285Y-60797619D01*
X158339285Y-60702380D01*
X158303571Y-60654761D01*
X158232142Y-60630952D01*
X157946428Y-60630952D01*
X157875000Y-60654761D01*
X157839285Y-60702380D01*
X157839285Y-60797619D01*
X157875000Y-60845238D01*
X157946428Y-60869047D01*
X158017857Y-60869047D01*
X158089285Y-60630952D01*
X158303571Y-61273809D02*
X158339285Y-61226190D01*
X158339285Y-61130952D01*
X158303571Y-61083333D01*
X158232142Y-61059523D01*
X157946428Y-61059523D01*
X157875000Y-61083333D01*
X157839285Y-61130952D01*
X157839285Y-61226190D01*
X157875000Y-61273809D01*
X157946428Y-61297619D01*
X158017857Y-61297619D01*
X158089285Y-61059523D01*
X157839285Y-61511904D02*
X158339285Y-61511904D01*
X157910714Y-61511904D02*
X157875000Y-61535714D01*
X157839285Y-61583333D01*
X157839285Y-61654761D01*
X157875000Y-61702380D01*
X157946428Y-61726190D01*
X158339285Y-61726190D01*
X158410714Y-61845238D02*
X158410714Y-62226190D01*
X158339285Y-62345238D02*
X157839285Y-62345238D01*
X157982142Y-62345238D02*
X157910714Y-62369047D01*
X157875000Y-62392857D01*
X157839285Y-62440476D01*
X157839285Y-62488095D01*
X158303571Y-62845238D02*
X158339285Y-62797619D01*
X158339285Y-62702380D01*
X158303571Y-62654761D01*
X158232142Y-62630952D01*
X157946428Y-62630952D01*
X157875000Y-62654761D01*
X157839285Y-62702380D01*
X157839285Y-62797619D01*
X157875000Y-62845238D01*
X157946428Y-62869047D01*
X158017857Y-62869047D01*
X158089285Y-62630952D01*
X158303571Y-63059523D02*
X158339285Y-63107142D01*
X158339285Y-63202380D01*
X158303571Y-63250000D01*
X158232142Y-63273809D01*
X158196428Y-63273809D01*
X158125000Y-63250000D01*
X158089285Y-63202380D01*
X158089285Y-63130952D01*
X158053571Y-63083333D01*
X157982142Y-63059523D01*
X157946428Y-63059523D01*
X157875000Y-63083333D01*
X157839285Y-63130952D01*
X157839285Y-63202380D01*
X157875000Y-63250000D01*
X160339285Y-57190476D02*
X159839285Y-57190476D01*
X159982142Y-57190476D02*
X159910714Y-57214285D01*
X159875000Y-57238095D01*
X159839285Y-57285714D01*
X159839285Y-57333333D01*
X159839285Y-57714285D02*
X160446428Y-57714285D01*
X160517857Y-57690476D01*
X160553571Y-57666666D01*
X160589285Y-57619047D01*
X160589285Y-57547619D01*
X160553571Y-57500000D01*
X160303571Y-57714285D02*
X160339285Y-57666666D01*
X160339285Y-57571428D01*
X160303571Y-57523809D01*
X160267857Y-57500000D01*
X160196428Y-57476190D01*
X159982142Y-57476190D01*
X159910714Y-57500000D01*
X159875000Y-57523809D01*
X159839285Y-57571428D01*
X159839285Y-57666666D01*
X159875000Y-57714285D01*
X160339285Y-57952380D02*
X159589285Y-57952380D01*
X159875000Y-57952380D02*
X159839285Y-58000000D01*
X159839285Y-58095238D01*
X159875000Y-58142857D01*
X159910714Y-58166666D01*
X159982142Y-58190476D01*
X160196428Y-58190476D01*
X160267857Y-58166666D01*
X160303571Y-58142857D01*
X160339285Y-58095238D01*
X160339285Y-58000000D01*
X160303571Y-57952380D01*
X160410714Y-58285714D02*
X160410714Y-58666666D01*
X159839285Y-59000000D02*
X160339285Y-59000000D01*
X159839285Y-58785714D02*
X160232142Y-58785714D01*
X160303571Y-58809523D01*
X160339285Y-58857142D01*
X160339285Y-58928571D01*
X160303571Y-58976190D01*
X160267857Y-59000000D01*
X160303571Y-59214285D02*
X160339285Y-59261904D01*
X160339285Y-59357142D01*
X160303571Y-59404761D01*
X160232142Y-59428571D01*
X160196428Y-59428571D01*
X160125000Y-59404761D01*
X160089285Y-59357142D01*
X160089285Y-59285714D01*
X160053571Y-59238095D01*
X159982142Y-59214285D01*
X159946428Y-59214285D01*
X159875000Y-59238095D01*
X159839285Y-59285714D01*
X159839285Y-59357142D01*
X159875000Y-59404761D01*
X160339285Y-59642857D02*
X159589285Y-59642857D01*
X159875000Y-59642857D02*
X159839285Y-59690476D01*
X159839285Y-59785714D01*
X159875000Y-59833333D01*
X159910714Y-59857142D01*
X159982142Y-59880952D01*
X160196428Y-59880952D01*
X160267857Y-59857142D01*
X160303571Y-59833333D01*
X160339285Y-59785714D01*
X160339285Y-59690476D01*
X160303571Y-59642857D01*
X160267857Y-60095238D02*
X160303571Y-60119047D01*
X160339285Y-60095238D01*
X160303571Y-60071428D01*
X160267857Y-60095238D01*
X160339285Y-60095238D01*
X160339285Y-60333333D02*
X159839285Y-60333333D01*
X159982142Y-60333333D02*
X159910714Y-60357142D01*
X159875000Y-60380952D01*
X159839285Y-60428571D01*
X159839285Y-60476190D01*
X160303571Y-60833333D02*
X160339285Y-60785714D01*
X160339285Y-60690476D01*
X160303571Y-60642857D01*
X160232142Y-60619047D01*
X159946428Y-60619047D01*
X159875000Y-60642857D01*
X159839285Y-60690476D01*
X159839285Y-60785714D01*
X159875000Y-60833333D01*
X159946428Y-60857142D01*
X160017857Y-60857142D01*
X160089285Y-60619047D01*
X160339285Y-61285714D02*
X159589285Y-61285714D01*
X160303571Y-61285714D02*
X160339285Y-61238095D01*
X160339285Y-61142857D01*
X160303571Y-61095238D01*
X160267857Y-61071428D01*
X160196428Y-61047619D01*
X159982142Y-61047619D01*
X159910714Y-61071428D01*
X159875000Y-61095238D01*
X159839285Y-61142857D01*
X159839285Y-61238095D01*
X159875000Y-61285714D01*
X160410714Y-61404761D02*
X160410714Y-61785714D01*
X160339285Y-61904761D02*
X159839285Y-61904761D01*
X159982142Y-61904761D02*
X159910714Y-61928571D01*
X159875000Y-61952380D01*
X159839285Y-62000000D01*
X159839285Y-62047619D01*
X160303571Y-62404761D02*
X160339285Y-62357142D01*
X160339285Y-62261904D01*
X160303571Y-62214285D01*
X160232142Y-62190476D01*
X159946428Y-62190476D01*
X159875000Y-62214285D01*
X159839285Y-62261904D01*
X159839285Y-62357142D01*
X159875000Y-62404761D01*
X159946428Y-62428571D01*
X160017857Y-62428571D01*
X160089285Y-62190476D01*
X160303571Y-62619047D02*
X160339285Y-62666666D01*
X160339285Y-62761904D01*
X160303571Y-62809523D01*
X160232142Y-62833333D01*
X160196428Y-62833333D01*
X160125000Y-62809523D01*
X160089285Y-62761904D01*
X160089285Y-62690476D01*
X160053571Y-62642857D01*
X159982142Y-62619047D01*
X159946428Y-62619047D01*
X159875000Y-62642857D01*
X159839285Y-62690476D01*
X159839285Y-62761904D01*
X159875000Y-62809523D01*
X168339285Y-56166666D02*
X168303571Y-56119047D01*
X168232142Y-56095238D01*
X167589285Y-56095238D01*
X168303571Y-56571428D02*
X168339285Y-56523809D01*
X168339285Y-56428571D01*
X168303571Y-56380952D01*
X168267857Y-56357142D01*
X168196428Y-56333333D01*
X167982142Y-56333333D01*
X167910714Y-56357142D01*
X167875000Y-56380952D01*
X167839285Y-56428571D01*
X167839285Y-56523809D01*
X167875000Y-56571428D01*
X168339285Y-57000000D02*
X167589285Y-57000000D01*
X168303571Y-57000000D02*
X168339285Y-56952380D01*
X168339285Y-56857142D01*
X168303571Y-56809523D01*
X168267857Y-56785714D01*
X168196428Y-56761904D01*
X167982142Y-56761904D01*
X167910714Y-56785714D01*
X167875000Y-56809523D01*
X167839285Y-56857142D01*
X167839285Y-56952380D01*
X167875000Y-57000000D01*
X168267857Y-57238095D02*
X168303571Y-57261904D01*
X168339285Y-57238095D01*
X168303571Y-57214285D01*
X168267857Y-57238095D01*
X168339285Y-57238095D01*
X168339285Y-57547619D02*
X168303571Y-57500000D01*
X168232142Y-57476190D01*
X167589285Y-57476190D01*
X168303571Y-57928571D02*
X168339285Y-57880952D01*
X168339285Y-57785714D01*
X168303571Y-57738095D01*
X168232142Y-57714285D01*
X167946428Y-57714285D01*
X167875000Y-57738095D01*
X167839285Y-57785714D01*
X167839285Y-57880952D01*
X167875000Y-57928571D01*
X167946428Y-57952380D01*
X168017857Y-57952380D01*
X168089285Y-57714285D01*
X168339285Y-58380952D02*
X167589285Y-58380952D01*
X168303571Y-58380952D02*
X168339285Y-58333333D01*
X168339285Y-58238095D01*
X168303571Y-58190476D01*
X168267857Y-58166666D01*
X168196428Y-58142857D01*
X167982142Y-58142857D01*
X167910714Y-58166666D01*
X167875000Y-58190476D01*
X167839285Y-58238095D01*
X167839285Y-58333333D01*
X167875000Y-58380952D01*
X168410714Y-58500000D02*
X168410714Y-58880952D01*
X168339285Y-59000000D02*
X167839285Y-59000000D01*
X167982142Y-59000000D02*
X167910714Y-59023809D01*
X167875000Y-59047619D01*
X167839285Y-59095238D01*
X167839285Y-59142857D01*
X168303571Y-59500000D02*
X168339285Y-59452380D01*
X168339285Y-59357142D01*
X168303571Y-59309523D01*
X168232142Y-59285714D01*
X167946428Y-59285714D01*
X167875000Y-59309523D01*
X167839285Y-59357142D01*
X167839285Y-59452380D01*
X167875000Y-59500000D01*
X167946428Y-59523809D01*
X168017857Y-59523809D01*
X168089285Y-59285714D01*
X168303571Y-59714285D02*
X168339285Y-59761904D01*
X168339285Y-59857142D01*
X168303571Y-59904761D01*
X168232142Y-59928571D01*
X168196428Y-59928571D01*
X168125000Y-59904761D01*
X168089285Y-59857142D01*
X168089285Y-59785714D01*
X168053571Y-59738095D01*
X167982142Y-59714285D01*
X167946428Y-59714285D01*
X167875000Y-59738095D01*
X167839285Y-59785714D01*
X167839285Y-59857142D01*
X167875000Y-59904761D01*
X165339285Y-52000000D02*
X165303571Y-51952380D01*
X165232142Y-51928571D01*
X164589285Y-51928571D01*
X165303571Y-52404761D02*
X165339285Y-52357142D01*
X165339285Y-52261904D01*
X165303571Y-52214285D01*
X165267857Y-52190476D01*
X165196428Y-52166666D01*
X164982142Y-52166666D01*
X164910714Y-52190476D01*
X164875000Y-52214285D01*
X164839285Y-52261904D01*
X164839285Y-52357142D01*
X164875000Y-52404761D01*
X165339285Y-52833333D02*
X164589285Y-52833333D01*
X165303571Y-52833333D02*
X165339285Y-52785714D01*
X165339285Y-52690476D01*
X165303571Y-52642857D01*
X165267857Y-52619047D01*
X165196428Y-52595238D01*
X164982142Y-52595238D01*
X164910714Y-52619047D01*
X164875000Y-52642857D01*
X164839285Y-52690476D01*
X164839285Y-52785714D01*
X164875000Y-52833333D01*
X165267857Y-53071428D02*
X165303571Y-53095238D01*
X165339285Y-53071428D01*
X165303571Y-53047619D01*
X165267857Y-53071428D01*
X165339285Y-53071428D01*
X164839285Y-53261904D02*
X165339285Y-53380952D01*
X164839285Y-53500000D01*
X165339285Y-53904761D02*
X164589285Y-53904761D01*
X165303571Y-53904761D02*
X165339285Y-53857142D01*
X165339285Y-53761904D01*
X165303571Y-53714285D01*
X165267857Y-53690476D01*
X165196428Y-53666666D01*
X164982142Y-53666666D01*
X164910714Y-53690476D01*
X164875000Y-53714285D01*
X164839285Y-53761904D01*
X164839285Y-53857142D01*
X164875000Y-53904761D01*
X165339285Y-54357142D02*
X164589285Y-54357142D01*
X165303571Y-54357142D02*
X165339285Y-54309523D01*
X165339285Y-54214285D01*
X165303571Y-54166666D01*
X165267857Y-54142857D01*
X165196428Y-54119047D01*
X164982142Y-54119047D01*
X164910714Y-54142857D01*
X164875000Y-54166666D01*
X164839285Y-54214285D01*
X164839285Y-54309523D01*
X164875000Y-54357142D01*
X165410714Y-54476190D02*
X165410714Y-54857142D01*
X165303571Y-55190476D02*
X165339285Y-55142857D01*
X165339285Y-55047619D01*
X165303571Y-55000000D01*
X165267857Y-54976190D01*
X165196428Y-54952380D01*
X164982142Y-54952380D01*
X164910714Y-54976190D01*
X164875000Y-55000000D01*
X164839285Y-55047619D01*
X164839285Y-55142857D01*
X164875000Y-55190476D01*
X165339285Y-55619047D02*
X164946428Y-55619047D01*
X164875000Y-55595238D01*
X164839285Y-55547619D01*
X164839285Y-55452380D01*
X164875000Y-55404761D01*
X165303571Y-55619047D02*
X165339285Y-55571428D01*
X165339285Y-55452380D01*
X165303571Y-55404761D01*
X165232142Y-55380952D01*
X165160714Y-55380952D01*
X165089285Y-55404761D01*
X165053571Y-55452380D01*
X165053571Y-55571428D01*
X165017857Y-55619047D01*
X164839285Y-55857142D02*
X165589285Y-55857142D01*
X164875000Y-55857142D02*
X164839285Y-55904761D01*
X164839285Y-56000000D01*
X164875000Y-56047619D01*
X164910714Y-56071428D01*
X164982142Y-56095238D01*
X165196428Y-56095238D01*
X165267857Y-56071428D01*
X165303571Y-56047619D01*
X165339285Y-56000000D01*
X165339285Y-55904761D01*
X165303571Y-55857142D01*
D12*
X183738095Y-52882380D02*
X183833333Y-52834761D01*
X183880952Y-52739523D01*
X183880952Y-51882380D01*
X182976190Y-52834761D02*
X183071428Y-52882380D01*
X183261904Y-52882380D01*
X183357142Y-52834761D01*
X183404761Y-52739523D01*
X183404761Y-52358571D01*
X183357142Y-52263333D01*
X183261904Y-52215714D01*
X183071428Y-52215714D01*
X182976190Y-52263333D01*
X182928571Y-52358571D01*
X182928571Y-52453809D01*
X183404761Y-52549047D01*
X182071428Y-52882380D02*
X182071428Y-51882380D01*
X182071428Y-52834761D02*
X182166666Y-52882380D01*
X182357142Y-52882380D01*
X182452380Y-52834761D01*
X182500000Y-52787142D01*
X182547619Y-52691904D01*
X182547619Y-52406190D01*
X182500000Y-52310952D01*
X182452380Y-52263333D01*
X182357142Y-52215714D01*
X182166666Y-52215714D01*
X182071428Y-52263333D01*
X181833333Y-52977619D02*
X181071428Y-52977619D01*
X180976190Y-52215714D02*
X180595238Y-52215714D01*
X180833333Y-51882380D02*
X180833333Y-52739523D01*
X180785714Y-52834761D01*
X180690476Y-52882380D01*
X180595238Y-52882380D01*
X179833333Y-52882380D02*
X179833333Y-52358571D01*
X179880952Y-52263333D01*
X179976190Y-52215714D01*
X180166666Y-52215714D01*
X180261904Y-52263333D01*
X179833333Y-52834761D02*
X179928571Y-52882380D01*
X180166666Y-52882380D01*
X180261904Y-52834761D01*
X180309523Y-52739523D01*
X180309523Y-52644285D01*
X180261904Y-52549047D01*
X180166666Y-52501428D01*
X179928571Y-52501428D01*
X179833333Y-52453809D01*
X179357142Y-52882380D02*
X179357142Y-52215714D01*
X179357142Y-52406190D02*
X179309523Y-52310952D01*
X179261904Y-52263333D01*
X179166666Y-52215714D01*
X179071428Y-52215714D01*
X178309523Y-52215714D02*
X178309523Y-53025238D01*
X178357142Y-53120476D01*
X178404761Y-53168095D01*
X178500000Y-53215714D01*
X178642857Y-53215714D01*
X178738095Y-53168095D01*
X178309523Y-52834761D02*
X178404761Y-52882380D01*
X178595238Y-52882380D01*
X178690476Y-52834761D01*
X178738095Y-52787142D01*
X178785714Y-52691904D01*
X178785714Y-52406190D01*
X178738095Y-52310952D01*
X178690476Y-52263333D01*
X178595238Y-52215714D01*
X178404761Y-52215714D01*
X178309523Y-52263333D01*
X177452380Y-52834761D02*
X177547619Y-52882380D01*
X177738095Y-52882380D01*
X177833333Y-52834761D01*
X177880952Y-52739523D01*
X177880952Y-52358571D01*
X177833333Y-52263333D01*
X177738095Y-52215714D01*
X177547619Y-52215714D01*
X177452380Y-52263333D01*
X177404761Y-52358571D01*
X177404761Y-52453809D01*
X177880952Y-52549047D01*
X177119047Y-52215714D02*
X176738095Y-52215714D01*
X176976190Y-51882380D02*
X176976190Y-52739523D01*
X176928571Y-52834761D01*
X176833333Y-52882380D01*
X176738095Y-52882380D01*
X176404761Y-52787142D02*
X176357142Y-52834761D01*
X176404761Y-52882380D01*
X176452380Y-52834761D01*
X176404761Y-52787142D01*
X176404761Y-52882380D01*
X175928571Y-52882380D02*
X175928571Y-52215714D01*
X175928571Y-52406190D02*
X175880952Y-52310952D01*
X175833333Y-52263333D01*
X175738095Y-52215714D01*
X175642857Y-52215714D01*
X174928571Y-52834761D02*
X175023809Y-52882380D01*
X175214285Y-52882380D01*
X175309523Y-52834761D01*
X175357142Y-52739523D01*
X175357142Y-52358571D01*
X175309523Y-52263333D01*
X175214285Y-52215714D01*
X175023809Y-52215714D01*
X174928571Y-52263333D01*
X174880952Y-52358571D01*
X174880952Y-52453809D01*
X175357142Y-52549047D01*
X174500000Y-52834761D02*
X174404761Y-52882380D01*
X174214285Y-52882380D01*
X174119047Y-52834761D01*
X174071428Y-52739523D01*
X174071428Y-52691904D01*
X174119047Y-52596666D01*
X174214285Y-52549047D01*
X174357142Y-52549047D01*
X174452380Y-52501428D01*
X174500000Y-52406190D01*
X174500000Y-52358571D01*
X174452380Y-52263333D01*
X174357142Y-52215714D01*
X174214285Y-52215714D01*
X174119047Y-52263333D01*
X185333333Y-60215714D02*
X184952380Y-60215714D01*
X185190476Y-59882380D02*
X185190476Y-60739523D01*
X185142857Y-60834761D01*
X185047619Y-60882380D01*
X184952380Y-60882380D01*
X184190476Y-60882380D02*
X184190476Y-60358571D01*
X184238095Y-60263333D01*
X184333333Y-60215714D01*
X184523809Y-60215714D01*
X184619047Y-60263333D01*
X184190476Y-60834761D02*
X184285714Y-60882380D01*
X184523809Y-60882380D01*
X184619047Y-60834761D01*
X184666666Y-60739523D01*
X184666666Y-60644285D01*
X184619047Y-60549047D01*
X184523809Y-60501428D01*
X184285714Y-60501428D01*
X184190476Y-60453809D01*
X183714285Y-60882380D02*
X183714285Y-60215714D01*
X183714285Y-60406190D02*
X183666666Y-60310952D01*
X183619047Y-60263333D01*
X183523809Y-60215714D01*
X183428571Y-60215714D01*
X182666666Y-60215714D02*
X182666666Y-61025238D01*
X182714285Y-61120476D01*
X182761904Y-61168095D01*
X182857142Y-61215714D01*
X183000000Y-61215714D01*
X183095238Y-61168095D01*
X182666666Y-60834761D02*
X182761904Y-60882380D01*
X182952380Y-60882380D01*
X183047619Y-60834761D01*
X183095238Y-60787142D01*
X183142857Y-60691904D01*
X183142857Y-60406190D01*
X183095238Y-60310952D01*
X183047619Y-60263333D01*
X182952380Y-60215714D01*
X182761904Y-60215714D01*
X182666666Y-60263333D01*
X181809523Y-60834761D02*
X181904761Y-60882380D01*
X182095238Y-60882380D01*
X182190476Y-60834761D01*
X182238095Y-60739523D01*
X182238095Y-60358571D01*
X182190476Y-60263333D01*
X182095238Y-60215714D01*
X181904761Y-60215714D01*
X181809523Y-60263333D01*
X181761904Y-60358571D01*
X181761904Y-60453809D01*
X182238095Y-60549047D01*
X181476190Y-60215714D02*
X181095238Y-60215714D01*
X181333333Y-59882380D02*
X181333333Y-60739523D01*
X181285714Y-60834761D01*
X181190476Y-60882380D01*
X181095238Y-60882380D01*
X181000000Y-60977619D02*
X180238095Y-60977619D01*
X180000000Y-60882380D02*
X180000000Y-60215714D01*
X180000000Y-60406190D02*
X179952380Y-60310952D01*
X179904761Y-60263333D01*
X179809523Y-60215714D01*
X179714285Y-60215714D01*
X179000000Y-60834761D02*
X179095238Y-60882380D01*
X179285714Y-60882380D01*
X179380952Y-60834761D01*
X179428571Y-60739523D01*
X179428571Y-60358571D01*
X179380952Y-60263333D01*
X179285714Y-60215714D01*
X179095238Y-60215714D01*
X179000000Y-60263333D01*
X178952380Y-60358571D01*
X178952380Y-60453809D01*
X179428571Y-60549047D01*
X178095238Y-60215714D02*
X178095238Y-61025238D01*
X178142857Y-61120476D01*
X178190476Y-61168095D01*
X178285714Y-61215714D01*
X178428571Y-61215714D01*
X178523809Y-61168095D01*
X178095238Y-60834761D02*
X178190476Y-60882380D01*
X178380952Y-60882380D01*
X178476190Y-60834761D01*
X178523809Y-60787142D01*
X178571428Y-60691904D01*
X178571428Y-60406190D01*
X178523809Y-60310952D01*
X178476190Y-60263333D01*
X178380952Y-60215714D01*
X178190476Y-60215714D01*
X178095238Y-60263333D01*
X177619047Y-60787142D02*
X177571428Y-60834761D01*
X177619047Y-60882380D01*
X177666666Y-60834761D01*
X177619047Y-60787142D01*
X177619047Y-60882380D01*
X177142857Y-60882380D02*
X177142857Y-60215714D01*
X177142857Y-59882380D02*
X177190476Y-59930000D01*
X177142857Y-59977619D01*
X177095238Y-59930000D01*
X177142857Y-59882380D01*
X177142857Y-59977619D01*
X176666666Y-60215714D02*
X176666666Y-60882380D01*
X176666666Y-60310952D02*
X176619047Y-60263333D01*
X176523809Y-60215714D01*
X176380952Y-60215714D01*
X176285714Y-60263333D01*
X176238095Y-60358571D01*
X176238095Y-60882380D01*
X176000000Y-60977619D02*
X175238095Y-60977619D01*
X174571428Y-60834761D02*
X174666666Y-60882380D01*
X174857142Y-60882380D01*
X174952380Y-60834761D01*
X175000000Y-60787142D01*
X175047619Y-60691904D01*
X175047619Y-60406190D01*
X175000000Y-60310952D01*
X174952380Y-60263333D01*
X174857142Y-60215714D01*
X174666666Y-60215714D01*
X174571428Y-60263333D01*
X173714285Y-60882380D02*
X173714285Y-60358571D01*
X173761904Y-60263333D01*
X173857142Y-60215714D01*
X174047619Y-60215714D01*
X174142857Y-60263333D01*
X173714285Y-60834761D02*
X173809523Y-60882380D01*
X174047619Y-60882380D01*
X174142857Y-60834761D01*
X174190476Y-60739523D01*
X174190476Y-60644285D01*
X174142857Y-60549047D01*
X174047619Y-60501428D01*
X173809523Y-60501428D01*
X173714285Y-60453809D01*
X173238095Y-60215714D02*
X173238095Y-61215714D01*
X173238095Y-60263333D02*
X173142857Y-60215714D01*
X172952380Y-60215714D01*
X172857142Y-60263333D01*
X172809523Y-60310952D01*
X172761904Y-60406190D01*
X172761904Y-60691904D01*
X172809523Y-60787142D01*
X172857142Y-60834761D01*
X172952380Y-60882380D01*
X173142857Y-60882380D01*
X173238095Y-60834761D01*
X183595238Y-52885714D02*
X183214285Y-52885714D01*
X183452380Y-52552380D02*
X183452380Y-53409523D01*
X183404761Y-53504761D01*
X183309523Y-53552380D01*
X183214285Y-53552380D01*
X182452380Y-53552380D02*
X182452380Y-53028571D01*
X182500000Y-52933333D01*
X182595238Y-52885714D01*
X182785714Y-52885714D01*
X182880952Y-52933333D01*
X182452380Y-53504761D02*
X182547619Y-53552380D01*
X182785714Y-53552380D01*
X182880952Y-53504761D01*
X182928571Y-53409523D01*
X182928571Y-53314285D01*
X182880952Y-53219047D01*
X182785714Y-53171428D01*
X182547619Y-53171428D01*
X182452380Y-53123809D01*
X181976190Y-53552380D02*
X181976190Y-52885714D01*
X181976190Y-53076190D02*
X181928571Y-52980952D01*
X181880952Y-52933333D01*
X181785714Y-52885714D01*
X181690476Y-52885714D01*
X180928571Y-52885714D02*
X180928571Y-53695238D01*
X180976190Y-53790476D01*
X181023809Y-53838095D01*
X181119047Y-53885714D01*
X181261904Y-53885714D01*
X181357142Y-53838095D01*
X180928571Y-53504761D02*
X181023809Y-53552380D01*
X181214285Y-53552380D01*
X181309523Y-53504761D01*
X181357142Y-53457142D01*
X181404761Y-53361904D01*
X181404761Y-53076190D01*
X181357142Y-52980952D01*
X181309523Y-52933333D01*
X181214285Y-52885714D01*
X181023809Y-52885714D01*
X180928571Y-52933333D01*
X180071428Y-53504761D02*
X180166666Y-53552380D01*
X180357142Y-53552380D01*
X180452380Y-53504761D01*
X180500000Y-53409523D01*
X180500000Y-53028571D01*
X180452380Y-52933333D01*
X180357142Y-52885714D01*
X180166666Y-52885714D01*
X180071428Y-52933333D01*
X180023809Y-53028571D01*
X180023809Y-53123809D01*
X180500000Y-53219047D01*
X179738095Y-52885714D02*
X179357142Y-52885714D01*
X179595238Y-52552380D02*
X179595238Y-53409523D01*
X179547619Y-53504761D01*
X179452380Y-53552380D01*
X179357142Y-53552380D01*
X179261904Y-53647619D02*
X178500000Y-53647619D01*
X178261904Y-53552380D02*
X178261904Y-52885714D01*
X178261904Y-53076190D02*
X178214285Y-52980952D01*
X178166666Y-52933333D01*
X178071428Y-52885714D01*
X177976190Y-52885714D01*
X177261904Y-53504761D02*
X177357142Y-53552380D01*
X177547619Y-53552380D01*
X177642857Y-53504761D01*
X177690476Y-53409523D01*
X177690476Y-53028571D01*
X177642857Y-52933333D01*
X177547619Y-52885714D01*
X177357142Y-52885714D01*
X177261904Y-52933333D01*
X177214285Y-53028571D01*
X177214285Y-53123809D01*
X177690476Y-53219047D01*
X176357142Y-52885714D02*
X176357142Y-53695238D01*
X176404761Y-53790476D01*
X176452380Y-53838095D01*
X176547619Y-53885714D01*
X176690476Y-53885714D01*
X176785714Y-53838095D01*
X176357142Y-53504761D02*
X176452380Y-53552380D01*
X176642857Y-53552380D01*
X176738095Y-53504761D01*
X176785714Y-53457142D01*
X176833333Y-53361904D01*
X176833333Y-53076190D01*
X176785714Y-52980952D01*
X176738095Y-52933333D01*
X176642857Y-52885714D01*
X176452380Y-52885714D01*
X176357142Y-52933333D01*
X175880952Y-53457142D02*
X175833333Y-53504761D01*
X175880952Y-53552380D01*
X175928571Y-53504761D01*
X175880952Y-53457142D01*
X175880952Y-53552380D01*
X175404761Y-53552380D02*
X175404761Y-52885714D01*
X175404761Y-52552380D02*
X175452380Y-52600000D01*
X175404761Y-52647619D01*
X175357142Y-52600000D01*
X175404761Y-52552380D01*
X175404761Y-52647619D01*
X174500000Y-53504761D02*
X174595238Y-53552380D01*
X174785714Y-53552380D01*
X174880952Y-53504761D01*
X174928571Y-53457142D01*
X174976190Y-53361904D01*
X174976190Y-53076190D01*
X174928571Y-52980952D01*
X174880952Y-52933333D01*
X174785714Y-52885714D01*
X174595238Y-52885714D01*
X174500000Y-52933333D01*
X185833333Y-54435714D02*
X185452380Y-54435714D01*
X185690476Y-54102380D02*
X185690476Y-54959523D01*
X185642857Y-55054761D01*
X185547619Y-55102380D01*
X185452380Y-55102380D01*
X184690476Y-55102380D02*
X184690476Y-54578571D01*
X184738095Y-54483333D01*
X184833333Y-54435714D01*
X185023809Y-54435714D01*
X185119047Y-54483333D01*
X184690476Y-55054761D02*
X184785714Y-55102380D01*
X185023809Y-55102380D01*
X185119047Y-55054761D01*
X185166666Y-54959523D01*
X185166666Y-54864285D01*
X185119047Y-54769047D01*
X185023809Y-54721428D01*
X184785714Y-54721428D01*
X184690476Y-54673809D01*
X184214285Y-55102380D02*
X184214285Y-54435714D01*
X184214285Y-54626190D02*
X184166666Y-54530952D01*
X184119047Y-54483333D01*
X184023809Y-54435714D01*
X183928571Y-54435714D01*
X183166666Y-54435714D02*
X183166666Y-55245238D01*
X183214285Y-55340476D01*
X183261904Y-55388095D01*
X183357142Y-55435714D01*
X183500000Y-55435714D01*
X183595238Y-55388095D01*
X183166666Y-55054761D02*
X183261904Y-55102380D01*
X183452380Y-55102380D01*
X183547619Y-55054761D01*
X183595238Y-55007142D01*
X183642857Y-54911904D01*
X183642857Y-54626190D01*
X183595238Y-54530952D01*
X183547619Y-54483333D01*
X183452380Y-54435714D01*
X183261904Y-54435714D01*
X183166666Y-54483333D01*
X182309523Y-55054761D02*
X182404761Y-55102380D01*
X182595238Y-55102380D01*
X182690476Y-55054761D01*
X182738095Y-54959523D01*
X182738095Y-54578571D01*
X182690476Y-54483333D01*
X182595238Y-54435714D01*
X182404761Y-54435714D01*
X182309523Y-54483333D01*
X182261904Y-54578571D01*
X182261904Y-54673809D01*
X182738095Y-54769047D01*
X181976190Y-54435714D02*
X181595238Y-54435714D01*
X181833333Y-54102380D02*
X181833333Y-54959523D01*
X181785714Y-55054761D01*
X181690476Y-55102380D01*
X181595238Y-55102380D01*
X181500000Y-55197619D02*
X180738095Y-55197619D01*
X180500000Y-55102380D02*
X180500000Y-54435714D01*
X180500000Y-54626190D02*
X180452380Y-54530952D01*
X180404761Y-54483333D01*
X180309523Y-54435714D01*
X180214285Y-54435714D01*
X179500000Y-55054761D02*
X179595238Y-55102380D01*
X179785714Y-55102380D01*
X179880952Y-55054761D01*
X179928571Y-54959523D01*
X179928571Y-54578571D01*
X179880952Y-54483333D01*
X179785714Y-54435714D01*
X179595238Y-54435714D01*
X179500000Y-54483333D01*
X179452380Y-54578571D01*
X179452380Y-54673809D01*
X179928571Y-54769047D01*
X178595238Y-54435714D02*
X178595238Y-55245238D01*
X178642857Y-55340476D01*
X178690476Y-55388095D01*
X178785714Y-55435714D01*
X178928571Y-55435714D01*
X179023809Y-55388095D01*
X178595238Y-55054761D02*
X178690476Y-55102380D01*
X178880952Y-55102380D01*
X178976190Y-55054761D01*
X179023809Y-55007142D01*
X179071428Y-54911904D01*
X179071428Y-54626190D01*
X179023809Y-54530952D01*
X178976190Y-54483333D01*
X178880952Y-54435714D01*
X178690476Y-54435714D01*
X178595238Y-54483333D01*
X178119047Y-55007142D02*
X178071428Y-55054761D01*
X178119047Y-55102380D01*
X178166666Y-55054761D01*
X178119047Y-55007142D01*
X178119047Y-55102380D01*
X177500000Y-55102380D02*
X177595238Y-55054761D01*
X177642857Y-55007142D01*
X177690476Y-54911904D01*
X177690476Y-54626190D01*
X177642857Y-54530952D01*
X177595238Y-54483333D01*
X177500000Y-54435714D01*
X177357142Y-54435714D01*
X177261904Y-54483333D01*
X177214285Y-54530952D01*
X177166666Y-54626190D01*
X177166666Y-54911904D01*
X177214285Y-55007142D01*
X177261904Y-55054761D01*
X177357142Y-55102380D01*
X177500000Y-55102380D01*
X176309523Y-54435714D02*
X176309523Y-55102380D01*
X176738095Y-54435714D02*
X176738095Y-54959523D01*
X176690476Y-55054761D01*
X176595238Y-55102380D01*
X176452380Y-55102380D01*
X176357142Y-55054761D01*
X176309523Y-55007142D01*
X175976190Y-54435714D02*
X175595238Y-54435714D01*
X175833333Y-54102380D02*
X175833333Y-54959523D01*
X175785714Y-55054761D01*
X175690476Y-55102380D01*
X175595238Y-55102380D01*
X175500000Y-55197619D02*
X174738095Y-55197619D01*
X174071428Y-55054761D02*
X174166666Y-55102380D01*
X174357142Y-55102380D01*
X174452380Y-55054761D01*
X174500000Y-55007142D01*
X174547619Y-54911904D01*
X174547619Y-54626190D01*
X174500000Y-54530952D01*
X174452380Y-54483333D01*
X174357142Y-54435714D01*
X174166666Y-54435714D01*
X174071428Y-54483333D01*
X173214285Y-55102380D02*
X173214285Y-54578571D01*
X173261904Y-54483333D01*
X173357142Y-54435714D01*
X173547619Y-54435714D01*
X173642857Y-54483333D01*
X173214285Y-55054761D02*
X173309523Y-55102380D01*
X173547619Y-55102380D01*
X173642857Y-55054761D01*
X173690476Y-54959523D01*
X173690476Y-54864285D01*
X173642857Y-54769047D01*
X173547619Y-54721428D01*
X173309523Y-54721428D01*
X173214285Y-54673809D01*
X172738095Y-54435714D02*
X172738095Y-55435714D01*
X172738095Y-54483333D02*
X172642857Y-54435714D01*
X172452380Y-54435714D01*
X172357142Y-54483333D01*
X172309523Y-54530952D01*
X172261904Y-54626190D01*
X172261904Y-54911904D01*
X172309523Y-55007142D01*
X172357142Y-55054761D01*
X172452380Y-55102380D01*
X172642857Y-55102380D01*
X172738095Y-55054761D01*
M02*
