M48
; DRILL file {KiCad (5.1.0)-1} date 2/7/2020 3:11:50 AM
; FORMAT={-:-/ absolute / inch / decimal}
; #@! TF.CreationDate,2020-02-07T03:11:50-08:00
; #@! TF.GenerationSoftware,Kicad,Pcbnew,(5.1.0)-1
; #@! TF.FileFunction,Plated,1,4,PTH
FMAT,2
INCH
T1C0.0118
T2C0.0236
T3C0.0256
%
G90
G05
T1
X5.4921Y-2.0079
X5.4921Y-2.4016
X5.5512Y-2.4213
X5.5512Y-2.4606
X5.689Y-2.2835
X5.689Y-2.126
X5.689Y-2.1654
X5.689Y-2.2441
X5.7087Y-2.4213
X5.7087Y-2.4606
X5.7874Y-2.051
X5.7874Y-2.126
X5.7874Y-2.2835
X5.8411Y-2.3047
X5.8536Y-1.956
X5.8787Y-1.981
X5.8911Y-2.3047
X5.9438Y-2.4247
X6.0641Y-2.4178
X6.1024Y-2.1654
X6.1024Y-2.2441
X6.1024Y-2.2835
X6.1417Y-2.126
X6.1417Y-2.2835
X6.1811Y-2.3622
X6.1811Y-2.4016
X6.1811Y-2.4606
X6.2205Y-2.126
X6.2205Y-2.2835
X6.2598Y-2.1654
X6.2598Y-2.2441
X6.2598Y-2.2835
X6.2598Y-2.4606
X6.3386Y-2.4213
X6.3386Y-2.4606
X6.378Y-2.3228
X6.3976Y-2.0866
X6.4173Y-2.1457
X6.4173Y-2.4213
X6.4173Y-2.4606
X6.437Y-2.0866
X6.4567Y-2.3622
X6.4961Y-2.0276
X6.4961Y-2.4213
X6.4961Y-2.4606
X6.5059Y-2.3031
X6.5354Y-2.0276
X6.5551Y-2.126
X6.5551Y-2.2441
X6.5551Y-2.3622
X6.5748Y-2.1654
X6.5748Y-2.4606
X6.7126Y-2.3622
X6.7717Y-2.4606
X6.7913Y-2.3622
X6.9291Y-1.9685
X6.9291Y-2.4248
X6.9291Y-2.4606
X6.9685Y-2.126
X6.9882Y-2.2047
X7.0472Y-2.126
X7.0669Y-2.2835
T3
X6.8504Y-2.1047
X6.8504Y-2.1547
X6.8504Y-2.2047
X6.8504Y-2.2547
X6.8504Y-2.3047
X6.9004Y-2.1047
X6.9004Y-2.1547
X6.9004Y-2.2047
X6.9004Y-2.2547
X6.9004Y-2.3047
T2
G00X5.5669Y-2.0346
M15
G01X5.5354Y-2.0346
M16
G05
G00X5.5669Y-2.3748
M15
G01X5.5354Y-2.3748
M16
G05
G00X5.7374Y-2.0346
M15
G01X5.6941Y-2.0346
M16
G05
G00X5.7374Y-2.3748
M15
G01X5.6941Y-2.3748
M16
G05
T0
M30
